<?xml version="1.0" encoding="utf-8"?>
<!-- Generator: Adobe Illustrator 16.0.0, SVG Export Plug-In . SVG Version: 6.00 Build 0)  -->
<!DOCTYPE svg PUBLIC "-//W3C//DTD SVG 1.1//EN" "http://www.w3.org/Graphics/SVG/1.1/DTD/svg11.dtd">
<svg version="1.1"
	 id="svg2" xmlns:dc="http://purl.org/dc/elements/1.1/" xmlns:cc="http://creativecommons.org/ns#" xmlns:rdf="http://www.w3.org/1999/02/22-rdf-syntax-ns#" xmlns:svg="http://www.w3.org/2000/svg"
	 xmlns="http://www.w3.org/2000/svg" xmlns:xlink="http://www.w3.org/1999/xlink" x="0px" y="0px" width="76px" height="38px"
	 viewBox="0 0 76 38" enable-background="new 0 0 76 38" xml:space="preserve">
<g id="g12" transform="scale(0.1,0.1)">
	<path id="path22" fill="#087BBB" d="M670.3,182.878L759.968-0.002H139.543L0.061,182.878H670.3"/>
	<path id="path24" fill="none" stroke="#FFFFFF" stroke-width="3.9999" d="M670.3,182.878L759.968-0.002H139.543L0.061,182.878
		H670.3z"/>
	<path id="path26" fill="#087BBB" d="M759.998,165.945L759.968-0.002L670.3,182.878v197.119L759.998,165.945"/>
	<path id="path28" fill="none" stroke="#FFFFFF" stroke-width="3.9999" d="M759.998,165.945L759.968-0.002L670.3,182.878v197.119
		L759.998,165.945z"/>
	<path id="path30" fill="#087BBB" d="M670.3,379.997V182.878H-0.002l0.273,197.119H670.3"/>
	<path id="path32" fill="none" stroke="#FFFFFF" stroke-width="3.9999" d="M670.3,379.997V182.878H-0.002l0.273,197.119H670.3z"/>
	<path id="path34" fill="#FFFFFF" d="M647.253,86.082L395.085,53.235l-11.484,17.827l-219.248-0.156l-26.807,30.078l226.582-0.078
		l-11.279,17.378L647.253,86.082"/>
</g>
</svg>
