<?xml version="1.0" encoding="utf-8"?>
<!-- Generator: Adobe Illustrator 16.0.0, SVG Export Plug-In . SVG Version: 6.00 Build 0)  -->
<!DOCTYPE svg PUBLIC "-//W3C//DTD SVG 1.1//EN" "http://www.w3.org/Graphics/SVG/1.1/DTD/svg11.dtd">
<svg version="1.1"
	 id="svg2" xmlns:dc="http://purl.org/dc/elements/1.1/" xmlns:cc="http://creativecommons.org/ns#" xmlns:rdf="http://www.w3.org/1999/02/22-rdf-syntax-ns#" xmlns:svg="http://www.w3.org/2000/svg"
	 xmlns="http://www.w3.org/2000/svg" xmlns:xlink="http://www.w3.org/1999/xlink" x="0px" y="0px" width="80px" height="54px"
	 viewBox="0 0 80 54" enable-background="new 0 0 80 54" xml:space="preserve">
<g id="g10" transform="matrix(1.25,0,0,-1.25,0,31.475)">
	<g id="g12" transform="scale(0.1,0.1)">
		<path id="path22" fill="#087BBB" d="M628.004,123.771c0-66.309-137.859-120.027-307.984-120.027
			C149.969,3.743,12,57.462,12,123.771V-52.171c0-66.313,137.969-120.031,308.02-120.031c170.125,0,307.984,53.719,307.984,120.031
			V123.771"/>
		<path id="path24" fill="none" stroke="#FFFFFF" stroke-width="3.9999" d="M628.004,123.771
			c0-66.309-137.859-120.027-307.984-120.027C149.969,3.743,12,57.462,12,123.771V-52.171c0-66.313,137.969-120.031,308.02-120.031
			c170.125,0,307.984,53.719,307.984,120.031V123.771z"/>
		<path id="path26" fill="#087BBB" d="M320.02,3.743c170.125,0,307.984,53.719,307.984,120.027
			c0,66.316-137.859,120.027-307.984,120.027C149.969,243.798,12,190.087,12,123.771C12,57.462,149.969,3.743,320.02,3.743"/>
		<path id="path28" fill="none" stroke="#FFFFFF" stroke-width="3.9999" d="M320.02,3.743c170.125,0,307.984,53.719,307.984,120.027
			c0,66.316-137.859,120.027-307.984,120.027C149.969,243.798,12,190.087,12,123.771C12,57.462,149.969,3.743,320.02,3.743z"/>
		<path id="path30" fill="#FFFFFF" d="M249.66,170.626l25.484-38.137l-96.207-22.293l21.035,17.523L51.359,153.122l37.289,28.02
			l143.449-24.371L249.66,170.626"/>
		<path id="path32" fill="#FFFFFF" d="M384.957,77.97l-17.391,39.445l86.688,17.305l-15.031-13.539l144.734-24.727l-34.75-27.789
			L405.441,95.743L384.957,77.97"/>
		<path id="path34" fill="#FFFFFF" d="M337.535,191.595l97.234,26.609l1.156-41.684l-24.422,4.59l-47.453-39.449l-45.172,6.621
			l48.828,38.578L337.535,191.595"/>
		<path id="path36" fill="#FFFFFF" d="M295.941,42.056l-92.578-17.547l-3.391,42.977l26.531-5.773l51.016,43.641l44.969-7.719
			l-54.266-47.578L295.941,42.056"/>
		<path id="path38" fill="#FFFFFF" d="M458.957-84.905c0-38.023-59.984-69.07-133.594-69.07c-73.875,0-133.719,31.047-133.719,69.07
			c0,38.031,59.844,68.836,133.719,68.836C398.973-16.069,458.957-46.874,458.957-84.905"/>
		<path id="path40" fill="#087BBB" d="M243.395-96.124l41.391,41.492L264.598-34.28l62.469,4.328l-3.547-63.391l-22.094,21.906
			l-41.281-41.258L243.395-96.124"/>
		<path id="path42" fill="none" stroke="#FFFFFF" stroke-width="3.9999" d="M243.395-96.124l41.391,41.492L264.598-34.28
			l62.469,4.328l-3.547-63.391l-22.094,21.906l-41.281-41.258L243.395-96.124z"/>
		<path id="path44" fill="#087BBB" d="M317.66-129.444l41.391,41.484l-20.297,20.125l62.438,4.32l-3.531-63.391l-21.891,22.148
			l-41.344-41.5L317.66-129.444"/>
		<path id="path46" fill="none" stroke="#FFFFFF" stroke-width="3.9999" d="M317.66-129.444l41.391,41.484l-20.297,20.125
			l62.438,4.32l-3.531-63.391l-21.891,22.148l-41.344-41.5L317.66-129.444z"/>
	</g>
</g>
</svg>
