<?xml version="1.0" encoding="utf-8"?>
<!-- Generator: Adobe Illustrator 16.0.0, SVG Export Plug-In . SVG Version: 6.00 Build 0)  -->
<!DOCTYPE svg PUBLIC "-//W3C//DTD SVG 1.1//EN" "http://www.w3.org/Graphics/SVG/1.1/DTD/svg11.dtd">
<svg version="1.1"
	 id="svg2" xmlns:dc="http://purl.org/dc/elements/1.1/" xmlns:cc="http://creativecommons.org/ns#" xmlns:rdf="http://www.w3.org/1999/02/22-rdf-syntax-ns#" xmlns:svg="http://www.w3.org/2000/svg"
	 xmlns="http://www.w3.org/2000/svg" xmlns:xlink="http://www.w3.org/1999/xlink" x="0px" y="0px" width="57px" height="78px"
	 viewBox="0 0 57 78" enable-background="new 0 0 57 78" xml:space="preserve">
<g id="g12" transform="scale(0.1,0.1)">
	<path id="path14" fill="#087BBB" d="M570.002,330.601l-97.49,92.324H0.002l122.402-92.324H570.002"/>
	<path id="path16" fill="none" stroke="#FFFFFF" stroke-width="4" d="M570.002,330.601l-97.49,92.324H0.002l122.402-92.324H570.002z
		"/>
	<path id="path18" fill="#78B3DA" d="M0.002,779.995h472.51v-357.07H0.002V779.995z"/>
	<path id="path20" fill="none" stroke="#FFFFFF" stroke-width="4" d="M0.002,779.995h472.51v-357.07H0.002V779.995z"/>
	<path id="path22" fill="#328FC7" d="M560.256,692.358V335.425l-90.645,87.5v357.07L560.256,692.358"/>
	<path id="path24" fill="none" stroke="#FFFFFF" stroke-width="4" d="M560.256,692.358V335.425l-90.645,87.5v357.07L560.256,692.358
		z"/>
	<path id="path26" fill="#087BBB" d="M570.002,0l-97.49,92.456H0.002L122.405,0H570.002"/>
	<path id="path28" fill="none" stroke="#FFFFFF" stroke-width="4" d="M570.002,0l-97.49,92.456H0.002L122.405,0H570.002z"/>
	<path id="path30" fill="#087BBB" d="M0.002,426.382h472.51V92.456H0.002V426.382z"/>
	<path id="path32" fill="none" stroke="#FFFFFF" stroke-width="4" d="M0.002,426.382h472.51V92.456H0.002V426.382z"/>
	<path id="path34" fill="#087BBB" d="M560.256,338.628V4.688l-90.645,87.769v333.926L560.256,338.628"/>
	<path id="path36" fill="none" stroke="#FFFFFF" stroke-width="4" d="M560.256,338.628V4.688l-90.645,87.769v333.926
		L560.256,338.628z"/>
	<path id="path38" fill="#FFFFFF" d="M192.317,251.787h-70.684v-18.242l-26.67,26.934l26.67,26.958v-18.252h70.684V251.787"/>
	<path id="path40" fill="#FFFFFF" d="M232.317,308.999v70.723h-18.271l26.963,26.523l26.865-26.523h-18.281v-70.723H232.317"/>
	<path id="path42" fill="#FFFFFF" d="M232.317,213.955v-70.718h-18.271l26.963-26.655l26.865,26.655h-18.281v70.718H232.317"/>
	<path id="path44" fill="#FFFFFF" d="M289.612,269.185h70.762v18.252l26.729-26.958l-26.729-26.934v18.242h-70.762V269.185"/>
	<path id="path46" fill="none" stroke="#FFFFFF" stroke-width="3.4775" d="M354.885,373.921
		c-13.438,13.906-74.443-24.57-136.309-85.977C156.555,226.509,117.2,165.283,130.491,151.25
		c13.311-14.038,74.307,24.58,136.172,86.006C328.547,298.657,368.069,359.917,354.885,373.921z"/>
	<path id="path48" fill="none" stroke="#FFFFFF" stroke-width="3.4775" d="M351.262,150.181
		c13.926,13.286-24.482,74.199-86.094,136.143c-61.494,61.797-122.803,101.279-136.836,87.988
		c-13.936-13.281,24.59-74.219,86.084-136.162C275.901,176.343,337.327,137.002,351.262,150.181z"/>
	<path id="path50" fill="#BFBEBE" d="M270.022,301.567c23.33-16.357,28.887-48.564,12.646-71.86
		c-16.377-23.311-48.506-28.994-71.982-12.651c-23.301,16.338-28.994,48.457-12.617,71.738
		C214.417,312.222,246.555,317.915,270.022,301.567"/>
	<path id="path52" fill="none" stroke="#FFFFFF" stroke-width="14.25" d="M220.413,544.116H101.584"/>
	<path id="path54" fill="none" stroke="#FFFFFF" stroke-width="14.25" d="M265.051,505.678h131.338"/>
	<path id="path56" fill="#FFFFFF" d="M365.559,460.796v86.66l52.109-41.68L365.559,460.796"/>
	<path id="path58" fill="none" stroke="#FFFFFF" stroke-width="1.9" d="M365.559,460.796v86.66l52.109-41.68L365.559,460.796z"/>
	<path id="path60" fill="#FFFFFF" d="M113.743,588.257V501.85l-52.236,41.445L113.743,588.257"/>
	<path id="path62" fill="none" stroke="#FFFFFF" stroke-width="1.9" d="M113.743,588.257V501.85l-52.236,41.445L113.743,588.257z"/>
	<path id="path64" fill="none" stroke="#FFFFFF" stroke-width="14.25" d="M220.413,700.678H101.584"/>
	<path id="path66" fill="none" stroke="#FFFFFF" stroke-width="14.25" d="M265.051,661.987h131.338"/>
	<path id="path68" fill="#FFFFFF" d="M365.559,617.124v86.66l52.109-41.699L365.559,617.124"/>
	<path id="path70" fill="none" stroke="#FFFFFF" stroke-width="1.9" d="M365.559,617.124v86.66l52.109-41.699L365.559,617.124z"/>
	<path id="path72" fill="#FFFFFF" d="M113.743,744.839v-86.66l-52.236,41.68L113.743,744.839"/>
	<path id="path74" fill="none" stroke="#FFFFFF" stroke-width="1.9" d="M113.743,744.839v-86.66l-52.236,41.68L113.743,744.839z"/>
</g>
</svg>
