<?xml version="1.0" encoding="utf-8"?>
<!-- Generator: Adobe Illustrator 16.0.0, SVG Export Plug-In . SVG Version: 6.00 Build 0)  -->
<!DOCTYPE svg PUBLIC "-//W3C//DTD SVG 1.1//EN" "http://www.w3.org/Graphics/SVG/1.1/DTD/svg11.dtd">
<svg version="1.1"
	 id="svg2" xmlns:dc="http://purl.org/dc/elements/1.1/" xmlns:cc="http://creativecommons.org/ns#" xmlns:rdf="http://www.w3.org/1999/02/22-rdf-syntax-ns#" xmlns:svg="http://www.w3.org/2000/svg"
	 xmlns="http://www.w3.org/2000/svg" xmlns:xlink="http://www.w3.org/1999/xlink" x="0px" y="0px" width="77px" height="46px"
	 viewBox="0 0 77 46" enable-background="new 0 0 77 46" xml:space="preserve">
<g id="g12" transform="scale(0.1,0.1)">
	<path id="path22" fill="#087BBB" d="M58.032,86.15h555.659l63.193,58.135v262.104l-63.193,53.613H55.264L0,406.389V144.285
		L58.032,86.15"/>
	<path id="path24" fill="none" stroke="#FFFFFF" stroke-width="3.9999" d="M58.032,86.15h555.659l63.193,58.135v262.104
		l-63.193,53.613H55.264L0,406.389V144.285L58.032,86.15z"/>
	<path id="path26" fill="#087BBB" d="M58.032,85.349h555.659l95.977-85.347H153.911L58.032,85.349"/>
	<path id="path28" fill="none" stroke="#FFFFFF" stroke-width="3.9999" d="M58.032,85.349h555.659l95.977-85.347H153.911
		L58.032,85.349z"/>
	<path id="path30" fill="#087BBB" d="M610.82,86.15l63.184,58.135l95.986-85.439L706.797,0.813L610.82,86.15"/>
	<path id="path32" fill="none" stroke="#FFFFFF" stroke-width="3.9999" d="M610.82,86.15l63.184,58.135l95.986-85.439L706.797,0.813
		L610.82,86.15z"/>
	<path id="path34" fill="#FFFFFF" d="M23.32,304.621h632.998v-64.824H23.32V304.621z"/>
	<path id="path36" fill="none" stroke="#FFFFFF" stroke-width="12" stroke-linecap="round" stroke-miterlimit="1" d="
		M402.266,272.004c-90.537,0-160.894-66.816-160.894-152.749"/>
	<path id="path38" fill="none" stroke="#FFFFFF" stroke-width="12" stroke-linecap="round" stroke-miterlimit="1" d="
		M402.266,262.063c-90.537,0-160.894-56.875-160.894-142.808"/>
	<path id="path40" fill="none" stroke="#FFFFFF" stroke-width="12" stroke-linecap="round" stroke-miterlimit="1" d="
		M40.239,262.063c90.527,0,160.908-56.875,160.908-142.808"/>
	<path id="path42" fill="none" stroke="#FFFFFF" stroke-width="12" stroke-linecap="round" stroke-miterlimit="1" d="
		M643.604,262.063c-90.439,0-160.889-56.875-160.889-142.808"/>
	<path id="path44" fill="none" stroke="#FFFFFF" stroke-width="12" stroke-linecap="round" stroke-miterlimit="1" d="
		M281.592,262.063c90.518,0,160.811-56.875,160.811-142.808"/>
	<path id="path46" fill="none" stroke="#FFFFFF" stroke-width="12" stroke-linecap="round" stroke-miterlimit="1" d="
		M402.266,282.834c-90.537,0-160.894,55.986-160.894,141.806"/>
	<path id="path48" fill="none" stroke="#FFFFFF" stroke-width="12" stroke-linecap="round" stroke-miterlimit="1" d="
		M40.239,282.834c90.527,0,160.908,55.986,160.908,141.806"/>
	<path id="path50" fill="none" stroke="#FFFFFF" stroke-width="12" stroke-linecap="round" stroke-miterlimit="1" d="
		M643.604,282.834c-90.439,0-160.889,55.986-160.889,141.806"/>
	<path id="path52" fill="none" stroke="#FFFFFF" stroke-width="12" stroke-linecap="round" stroke-miterlimit="1" d="
		M281.592,282.834c90.518,0,160.811,55.986,160.811,141.806"/>
	<path id="path54" fill="#087BBB" d="M674.023,144.285v262.104L770,320.949V58.845L674.023,144.285"/>
	<path id="path56" fill="none" stroke="#FFFFFF" stroke-width="3.9999" d="M674.023,144.285v262.104L770,320.949V58.845
		L674.023,144.285z"/>
</g>
</svg>
