<?xml version="1.0" encoding="utf-8"?>
<!-- Generator: Adobe Illustrator 16.0.0, SVG Export Plug-In . SVG Version: 6.00 Build 0)  -->
<!DOCTYPE svg PUBLIC "-//W3C//DTD SVG 1.1//EN" "http://www.w3.org/Graphics/SVG/1.1/DTD/svg11.dtd">
<svg version="1.1"
	 id="svg2" xmlns:dc="http://purl.org/dc/elements/1.1/" xmlns:cc="http://creativecommons.org/ns#" xmlns:rdf="http://www.w3.org/1999/02/22-rdf-syntax-ns#" xmlns:svg="http://www.w3.org/2000/svg"
	 xmlns="http://www.w3.org/2000/svg" xmlns:xlink="http://www.w3.org/1999/xlink" x="0px" y="0px" width="76px" height="32px"
	 viewBox="0 0 76 32" enable-background="new 0 0 76 32" xml:space="preserve">
<g id="g12" transform="scale(0.1,0.1)">
	<path id="path14" fill="#087BBB" d="M0.334,318.93h628.208V118.95H0.334V318.93z"/>
	<path id="path16" fill="none" stroke="#FFFFFF" stroke-width="3.9999" d="M0.334,318.93h628.208V118.95H0.334V318.93z"/>
	<path id="path18" fill="#087BBB" d="M759.998,0v174.282L628.542,320.005V118.95H-0.002L155.417,0H759.998"/>
	<path id="path20" fill="none" stroke="#FFFFFF" stroke-width="3.9999" d="M759.998,0v174.282L628.542,320.005V118.95H-0.002
		L155.417,0H759.998z"/>
	<path id="path22" fill="#231F20" d="M629.958,118.833L753.142,2.368"/>
	<path id="path24" fill="none" stroke="#FFFFFF" stroke-width="3.9999" d="M629.958,118.833L753.142,2.368"/>
	<path id="path26" fill="#087BBB" d="M60.105,264.809h142.432v-31.895H60.105V264.809z"/>
	<path id="path28" fill="none" stroke="#FFFFFF" stroke-width="3.9999" d="M60.105,264.809h142.432v-31.895H60.105V264.809z"/>
	<path id="path30" fill="#231F20" d="M402.927,183.853h160.928"/>
	<path id="path32" fill="none" stroke="#FFFFFF" stroke-width="3.9999" d="M402.927,183.853h160.928"/>
	<path id="path34" fill="#231F20" d="M402.927,252.895h160.928"/>
	<path id="path36" fill="none" stroke="#FFFFFF" stroke-width="3.9999" d="M402.927,252.895h160.928"/>
</g>
</svg>
