<?xml version="1.0" encoding="utf-8"?>
<!-- Generator: Adobe Illustrator 16.0.0, SVG Export Plug-In . SVG Version: 6.00 Build 0)  -->
<!DOCTYPE svg PUBLIC "-//W3C//DTD SVG 1.1//EN" "http://www.w3.org/Graphics/SVG/1.1/DTD/svg11.dtd">
<svg version="1.1"
	 id="svg2" xmlns:dc="http://purl.org/dc/elements/1.1/" xmlns:cc="http://creativecommons.org/ns#" xmlns:rdf="http://www.w3.org/1999/02/22-rdf-syntax-ns#" xmlns:svg="http://www.w3.org/2000/svg"
	 xmlns="http://www.w3.org/2000/svg" xmlns:xlink="http://www.w3.org/1999/xlink" x="0px" y="0px" width="80px" height="45px"
	 viewBox="0 0 80 45" enable-background="new 0 0 80 45" xml:space="preserve">
<g id="g10" transform="matrix(1.25,0,0,-1.25,0,35.3625)">
	<g id="g12" transform="scale(0.1,0.1)">
		<path id="path22" fill="none" stroke="#026C9B" stroke-width="8" stroke-linecap="round" stroke-linejoin="round" d="
			M532.426-69.096H187.082l96.539,58.344l348.383,0.484L532.426-69.096z"/>
		<path id="path24" fill="none" stroke="#026C9B" stroke-width="8" stroke-linecap="round" stroke-linejoin="round" d="
			M283.621-10.752l-96.539-58.344l-0.039,286.891l96.602,56.176L283.621-10.752z"/>
		<path id="path26" d="M572.785,135.63c0-35.82-74.453-64.93-166.328-64.93c-91.906,0-166.367,29.109-166.367,64.93V40.576
			c0-35.859,74.461-64.844,166.367-64.844c91.875,0,166.328,28.984,166.328,64.844V135.63"/>
		<path id="path28" fill="none" stroke="#FFFFFF" stroke-width="4.2" d="M572.785,135.63c0-35.82-74.453-64.93-166.328-64.93
			c-91.906,0-166.367,29.109-166.367,64.93V40.576c0-35.859,74.461-64.844,166.367-64.844c91.875,0,166.328,28.984,166.328,64.844
			V135.63z"/>
		<path id="path30" fill="#026C9B" d="M572.785,135.63c0-35.82-74.453-64.93-166.328-64.93c-91.906,0-166.367,29.109-166.367,64.93
			V40.576c0-35.859,74.461-64.844,166.367-64.844c91.875,0,166.328,28.984,166.328,64.844V135.63"/>
		<path id="path32" fill="none" stroke="#FFFFFF" stroke-width="4" d="M572.785,135.63c0-35.82-74.453-64.93-166.328-64.93
			c-91.906,0-166.367,29.109-166.367,64.93V40.576c0-35.859,74.461-64.844,166.367-64.844c91.875,0,166.328,28.984,166.328,64.844
			V135.63z"/>
		<path id="path34" fill="#026C9B" d="M406.457,70.701c91.875,0,166.328,29.109,166.328,64.93
			c0,35.875-74.453,64.914-166.328,64.914c-91.906,0-166.367-29.039-166.367-64.914C240.09,99.81,314.551,70.701,406.457,70.701"/>
		<path id="path36" fill="none" stroke="#FFFFFF" stroke-width="4" d="M406.457,70.701c91.875,0,166.328,29.109,166.328,64.93
			c0,35.875-74.453,64.914-166.328,64.914c-91.906,0-166.367-29.039-166.367-64.914C240.09,99.81,314.551,70.701,406.457,70.701z"/>
		<path id="path38" fill="#FFFFFF" d="M370.004,161.615l13.953-20.926l-52.625-12.223l11.406,9.602l-81.344,13.969l20.422,15.344
			l78.484-13.363L370.004,161.615"/>
		<path id="path40" fill="#FFFFFF" d="M444.16,110.81l-9.563,21.617l47.531,9.531l-8.188-7.406l79.078-13.586l-18.984-15.25
			l-78.688,14.844L444.16,110.81"/>
		<path id="path42" fill="#FFFFFF" d="M418.145,173.087l53.172,14.613l0.625-22.879l-13.219,2.531l-26-21.625l-24.828,3.633
			l26.797,21.133L418.145,173.087"/>
		<path id="path44" fill="#FFFFFF" d="M395.395,91.138l-50.781-9.578l-1.875,23.516l14.563-3.164l27.938,23.891l24.719-4.211
			l-29.781-26.047L395.395,91.138"/>
		<path id="path46" fill="none" stroke="#026C9B" stroke-width="8" stroke-linecap="round" stroke-linejoin="round" d="
			M532.426-69.096H187.082l-0.039,286.891h345.242L532.426-69.096z"/>
		<path id="path48" fill="none" stroke="#026C9B" stroke-width="8" stroke-linecap="round" stroke-linejoin="round" d="
			M632.004-10.268l-99.578-58.828l-0.141,286.891L631.91,274.9L632.004-10.268z"/>
		<path id="path50" fill="none" stroke="#026C9B" stroke-width="8" stroke-linecap="round" stroke-linejoin="round" d="
			M532.285,217.794H187.043l96.602,56.176l348.266,0.93L532.285,217.794z"/>
		<path id="path52" fill="none" stroke="#026C9B" stroke-width="8" stroke-linecap="round" stroke-linejoin="round" d="M8,91.982
			h162.184"/>
		<path id="path54" fill="none" stroke="#026C9B" stroke-width="8" stroke-linecap="round" stroke-linejoin="round" d="M60,44.326
			h108.156"/>
		<path id="path56" fill="none" stroke="#026C9B" stroke-width="8" stroke-linecap="round" stroke-linejoin="round" d="
			M170.184,158.408H80.777"/>
		<path id="path58" fill="none" stroke="#026C9B" stroke-width="8" stroke-linecap="round" stroke-linejoin="round" d="
			M39.172,115.794h128.984"/>
	</g>
</g>
</svg>
