<?xml version="1.0" encoding="utf-8"?>
<!-- Generator: Adobe Illustrator 16.0.0, SVG Export Plug-In . SVG Version: 6.00 Build 0)  -->
<!DOCTYPE svg PUBLIC "-//W3C//DTD SVG 1.1//EN" "http://www.w3.org/Graphics/SVG/1.1/DTD/svg11.dtd">
<svg version="1.1"
	 id="svg2" xmlns:dc="http://purl.org/dc/elements/1.1/" xmlns:cc="http://creativecommons.org/ns#" xmlns:rdf="http://www.w3.org/1999/02/22-rdf-syntax-ns#" xmlns:svg="http://www.w3.org/2000/svg"
	 xmlns="http://www.w3.org/2000/svg" xmlns:xlink="http://www.w3.org/1999/xlink" x="0px" y="0px" width="77px" height="66px"
	 viewBox="0 0 77 66" enable-background="new 0 0 77 66" xml:space="preserve">
<g id="g12" transform="scale(0.1,0.1)">
	<path id="path22" fill="#087BBB" d="M139.966,621.985h526.191v-518.11H139.966V621.985z"/>
	<path id="path24" fill="none" stroke="#FFFFFF" stroke-width="3.9999" d="M666.157,103.875H139.966v518.11h526.191"/>
	<path id="path26" fill="#087BBB" d="M666.157,621.985l103.848-103.857V0.002H103.828L0,103.875h666.157V621.985"/>
	<path id="path28" fill="none" stroke="#FFFFFF" stroke-width="3.9999" d="M666.157,621.985l103.848-103.857V0.002H103.828
		L0,103.875h666.157V621.985z"/>
	<path id="path30" fill="#231F20" d="M666.157,103.875L770.005,0.002"/>
	<path id="path32" fill="none" stroke="#FFFFFF" stroke-width="3.9999" d="M666.157,103.875L770.005,0.002"/>
	<path id="path34" fill="none" stroke="#FFFFFF" stroke-width="3.9999" d="M446.587,184.099h92.48"/>
	<path id="path36" fill="none" stroke="#FFFFFF" stroke-width="3.9999" d="M155.938,226.477h428.13V123.411h-428.13V226.477z"/>
	<path id="path38" fill="none" stroke="#FFFFFF" stroke-width="3.9999" d="M518.306,358.576h63.613v-84.599h-63.613V358.576z"/>
	<path id="path40" fill="none" stroke="#231F20" stroke-width="3.9999" d="M8.55,613.596h132.056V111.467H8.55V613.596z"/>
	<path id="path42" fill="none" stroke="#231F20" stroke-width="3.9999" d="M32.295,136.609h84.565"/>
	<path id="path44" fill="none" stroke="#231F20" stroke-width="3.9999" d="M32.295,163h84.565"/>
	<path id="path46" fill="none" stroke="#231F20" stroke-width="3.9999" d="M32.295,189.539h84.565"/>
	<path id="path48" fill="none" stroke="#231F20" stroke-width="3.9999" d="M32.295,215.93h84.565"/>
	<path id="path50" fill="none" stroke="#231F20" stroke-width="3.9999" d="M32.295,242.317h84.565"/>
	<path id="path52" fill="none" stroke="#231F20" stroke-width="3.9999" d="M32.295,268.704h84.565"/>
	<path id="path54" fill="none" stroke="#231F20" stroke-width="3.9999" d="M32.295,295.247h84.565"/>
	<path id="path56" fill="none" stroke="#231F20" stroke-width="3.9999" d="M32.295,321.633h84.565"/>
	<path id="path58" fill="none" stroke="#231F20" stroke-width="3.9999" d="M32.295,348.01h84.565"/>
	<path id="path60" fill="none" stroke="#231F20" stroke-width="3.9999" d="M32.295,374.406h84.565"/>
	<path id="path62" fill="none" stroke="#231F20" stroke-width="3.9999" d="M32.295,400.793h84.565"/>
	<path id="path64" fill="none" stroke="#231F20" stroke-width="3.9999" d="M32.295,427.18h84.565"/>
	<path id="path66" fill="none" stroke="#231F20" stroke-width="3.9999" d="M32.295,453.869h84.565"/>
	<path id="path68" fill="none" stroke="#231F20" stroke-width="3.9999" d="M32.295,480.256h84.565"/>
	<path id="path70" fill="none" stroke="#231F20" stroke-width="3.9999" d="M32.295,506.653h84.565"/>
	<path id="path72" fill="none" stroke="#231F20" stroke-width="3.9999" d="M32.295,533.039h84.565"/>
	<path id="path74" fill="none" stroke="#231F20" stroke-width="3.9999" d="M32.295,559.416h84.565"/>
	<path id="path76" fill="none" stroke="#231F20" stroke-width="3.9999" d="M32.295,585.813h84.565"/>
	<path id="path78" fill="#087BBB" d="M95.605,623.059l-26.382,36.943h554.902l-15.82-36.943H95.605"/>
	<path id="path80" fill="none" stroke="#FFFFFF" stroke-width="3.9999" d="M95.605,623.059l-26.382,36.943h554.902l-15.82-36.943
		H95.605z"/>
	<path id="path82" fill="#087BBB" d="M624.126,660.002l34.453-36.943h-50.273L624.126,660.002"/>
	<path id="path84" fill="none" stroke="#FFFFFF" stroke-width="3.9999" d="M624.126,660.002l34.453-36.943h-50.273L624.126,660.002z
		"/>
</g>
</svg>
