<?xml version="1.0" encoding="utf-8"?>
<!-- Generator: Adobe Illustrator 16.0.0, SVG Export Plug-In . SVG Version: 6.00 Build 0)  -->
<!DOCTYPE svg PUBLIC "-//W3C//DTD SVG 1.1//EN" "http://www.w3.org/Graphics/SVG/1.1/DTD/svg11.dtd">
<svg version="1.1"
	 id="svg2" xmlns:dc="http://purl.org/dc/elements/1.1/" xmlns:cc="http://creativecommons.org/ns#" xmlns:rdf="http://www.w3.org/1999/02/22-rdf-syntax-ns#" xmlns:svg="http://www.w3.org/2000/svg"
	 xmlns="http://www.w3.org/2000/svg" xmlns:xlink="http://www.w3.org/1999/xlink" x="0px" y="0px" width="75px" height="75px"
	 viewBox="0 0 75 75" enable-background="new 0 0 75 75" xml:space="preserve">
<g id="g12" transform="scale(0.1,0.1)">
	<path id="path22" fill="#087BBB" d="M0.002,750.005h664.805V83.823H0.002V750.005z"/>
	<path id="path24" fill="none" stroke="#FFFFFF" stroke-width="3.9999" d="M0.002,750.005h664.805V83.823H0.002V750.005z"/>
	<path id="path26" fill="none" stroke="#FFFFFF" stroke-width="10" d="M148.86,358.169c28.184,0,51.094-22.656,51.094-50.527
		c0-27.871-22.91-50.537-51.094-50.537s-51.094,22.666-51.094,50.537C97.766,335.512,120.676,358.169,148.86,358.169z"/>
	<path id="path28" fill="none" stroke="#FFFFFF" stroke-width="10" d="M148.86,257.104h88.818"/>
	<path id="path30" fill="#FFFFFF" d="M238.499,224.165v63.613l38.789-30.625L238.499,224.165"/>
	<path id="path32" fill="none" stroke="#FFFFFF" stroke-width="10" d="M238.499,224.165v63.613l38.789-30.625L238.499,224.165z"/>
	<path id="path34" fill="none" stroke="#FFFFFF" stroke-width="10" d="M97.795,308.003v-87.822"/>
	<path id="path36" fill="#FFFFFF" d="M65.178,219.8h64.326l-30.977-38.213L65.178,219.8"/>
	<path id="path38" fill="none" stroke="#FFFFFF" stroke-width="10" d="M65.178,219.8h64.326l-30.977-38.213L65.178,219.8z"/>
	<path id="path40" fill="none" stroke="#FFFFFF" stroke-width="10" d="M200.022,307.31v88.027"/>
	<path id="path42" fill="#FFFFFF" d="M232.61,395.395h-64.17l31.133,38.184L232.61,395.395"/>
	<path id="path44" fill="none" stroke="#FFFFFF" stroke-width="10" d="M232.61,395.395h-64.17l31.133,38.184L232.61,395.395z"/>
	<path id="path46" fill="none" stroke="#FFFFFF" stroke-width="10" d="M150.227,358.149H61.399"/>
	<path id="path48" fill="#FFFFFF" d="M60.032,391.157v-63.438l-38.604,30.449L60.032,391.157"/>
	<path id="path50" fill="none" stroke="#FFFFFF" stroke-width="10" d="M60.032,391.157v-63.438l-38.604,30.449L60.032,391.157z"/>
	<path id="path52" fill="#087BBB" d="M663.342,83.223H0.422l104.063-82.08H749.26v663.764l-84.697,84.98V85.679L663.342,83.223"/>
	<path id="path54" fill="none" stroke="#FFFFFF" stroke-width="3.9999" d="M663.342,83.223H0.422l104.063-82.08H749.26v663.764
		l-84.697,84.98V85.679L663.342,83.223z"/>
	<path id="path56" fill="none" stroke="#FFFFFF" stroke-width="3.9999" d="M664.084,82.681L750.002,0"/>
	<path id="path58" fill="#231F20" d="M663.342,527.173H0.422"/>
	<path id="path60" fill="none" stroke="#FFFFFF" stroke-width="3.9999" d="M663.342,527.173H0.422"/>
	<path id="path62" fill="#231F20" d="M456.565,518.637V85.679"/>
	<path id="path64" fill="none" stroke="#FFFFFF" stroke-width="3.9999" d="M456.565,518.637V85.679"/>
	<path id="path66" fill="#231F20" d="M380.247,518.637V85.679"/>
	<path id="path68" fill="none" stroke="#FFFFFF" stroke-width="3.9999" d="M380.247,518.637V85.679"/>
	<path id="path70" fill="#231F20" d="M599.641,518.637V85.679"/>
	<path id="path72" fill="none" stroke="#FFFFFF" stroke-width="3.9999" d="M599.641,518.637V85.679"/>
	<path id="path74" fill="#231F20" d="M523.313,518.637V85.679"/>
	<path id="path76" fill="none" stroke="#FFFFFF" stroke-width="3.9999" d="M523.313,518.637V85.679"/>
	<path id="path78" fill="#231F20" d="M303.899,518.637v-9.453"/>
	<path id="path80" fill="none" stroke="#FFFFFF" stroke-width="3.9999" d="M303.899,518.637v-9.453"/>
	<path id="path82" fill="#231F20" d="M303.899,515.63V94.849"/>
	<path id="path84" fill="none" stroke="#FFFFFF" stroke-width="3.9999" d="M303.899,515.63V94.849"/>
	<path id="path86" fill="#087BBB" d="M57.786,591.04h191.016v-28.438H57.786V591.04z"/>
	<path id="path88" fill="none" stroke="#FFFFFF" stroke-width="3.9999" d="M57.786,591.04h191.016v-28.438H57.786V591.04z"/>
	<path id="path90" fill="#087BBB" d="M239.202,647.583h190.83v-28.105h-190.83V647.583z"/>
	<path id="path92" fill="none" stroke="#FFFFFF" stroke-width="3.9999" d="M239.202,647.583h190.83v-28.105h-190.83V647.583z"/>
	<path id="path94" fill="#087BBB" d="M420.442,704.438h191.016v-28.438H420.442V704.438z"/>
	<path id="path96" fill="none" stroke="#FFFFFF" stroke-width="3.9999" d="M420.442,704.438h191.016v-28.438H420.442V704.438z"/>
</g>
</svg>
