<?xml version="1.0" encoding="utf-8"?>
<!-- Generator: Adobe Illustrator 16.0.0, SVG Export Plug-In . SVG Version: 6.00 Build 0)  -->
<!DOCTYPE svg PUBLIC "-//W3C//DTD SVG 1.1//EN" "http://www.w3.org/Graphics/SVG/1.1/DTD/svg11.dtd">
<svg version="1.1"
	 id="svg2" xmlns:dc="http://purl.org/dc/elements/1.1/" xmlns:cc="http://creativecommons.org/ns#" xmlns:rdf="http://www.w3.org/1999/02/22-rdf-syntax-ns#" xmlns:svg="http://www.w3.org/2000/svg"
	 xmlns="http://www.w3.org/2000/svg" xmlns:xlink="http://www.w3.org/1999/xlink" x="0px" y="0px" width="75px" height="75px"
	 viewBox="0 0 75 75" enable-background="new 0 0 75 75" xml:space="preserve">
<g id="g12" transform="scale(0.1,0.1)">
	<path id="path22" fill="#087BBB" d="M750.005,145.798c0,80.547-167.832,145.796-375,145.796C167.832,291.594,0,226.345,0,145.798
		v458.393c0,80.557,167.832,145.811,375.005,145.811c207.168,0,375-65.254,375-145.811V145.798"/>
	<path id="path24" fill="none" stroke="#FFFFFF" stroke-width="3.9999" d="M750.005,145.798c0,80.547-167.832,145.796-375,145.796
		C167.832,291.594,0,226.345,0,145.798v458.393c0,80.557,167.832,145.811,375.005,145.811c207.168,0,375-65.254,375-145.811V145.798
		z"/>
	<path id="path26" fill="#087BBB" d="M375.005,291.594c207.168,0,375-65.249,375-145.796c0-80.566-167.832-145.796-375-145.796
		C167.832,0.002,0,65.232,0,145.798C0,226.345,167.832,291.594,375.005,291.594"/>
	<path id="path28" fill="none" stroke="#FFFFFF" stroke-width="3.9999" d="M375.005,291.594c207.168,0,375-65.249,375-145.796
		c0-80.566-167.832-145.796-375-145.796C167.832,0.002,0,65.232,0,145.798C0,226.345,167.832,291.594,375.005,291.594z"/>
	<path id="path30" fill="#FFFFFF" d="M289.341,88.733l31.025,46.47l-117.114,27.08l25.605-21.289L47.925,110.139l45.4-34.038
		l174.629,29.463L289.341,88.733"/>
	<path id="path32" fill="#FFFFFF" d="M454.106,201.423l-21.172-47.905l105.547-21.025l-18.301,16.445l176.191,30.034l-42.324,33.75
		l-174.98-32.891L454.106,201.423"/>
	<path id="path34" fill="#FFFFFF" d="M345.688,245.051l-112.695,21.172l-4.146-52.065l32.31,6.997l62.109-52.993l54.746,9.375
		l-66.074,57.637L345.688,245.051"/>
	<path id="path36" fill="none" stroke="#FFFFFF" stroke-width="5" d="M690.884,275.452v346.533"/>
	<path id="path38" fill="none" stroke="#FFFFFF" stroke-width="5" d="M650.298,298.02v346.552"/>
	<path id="path40" fill="none" stroke="#FFFFFF" stroke-width="5" d="M608.618,314.27v346.552"/>
	<path id="path42" fill="none" stroke="#FFFFFF" stroke-width="5" d="M560.396,327.747v346.689"/>
	<path id="path44" fill="none" stroke="#FFFFFF" stroke-width="5" d="M514.009,337.961v346.689"/>
	<path id="path46" fill="none" stroke="#FFFFFF" stroke-width="5" d="M467.915,344.133v346.552"/>
	<path id="path48" fill="none" stroke="#FFFFFF" stroke-width="5" d="M418.188,351.243v346.689"/>
	<path id="path50" fill="none" stroke="#FFFFFF" stroke-width="5" d="M46.201,275.452v346.533"/>
	<path id="path52" fill="none" stroke="#FFFFFF" stroke-width="5" d="M87.07,298.02v346.552"/>
	<path id="path54" fill="none" stroke="#FFFFFF" stroke-width="5" d="M128.633,314.27v346.552"/>
	<path id="path56" fill="none" stroke="#FFFFFF" stroke-width="5" d="M176.86,327.747v346.689"/>
	<path id="path58" fill="none" stroke="#FFFFFF" stroke-width="5" d="M223.35,337.961v346.689"/>
	<path id="path60" fill="none" stroke="#FFFFFF" stroke-width="5" d="M269.458,344.133v346.552"/>
	<path id="path62" fill="none" stroke="#FFFFFF" stroke-width="5" d="M319.058,351.243v346.689"/>
	<path id="path64" fill="none" stroke="#FFFFFF" stroke-width="5" d="M368.452,352.59V699.28"/>
	<path id="path66" fill="#FFFFFF" d="M388.794,61.106L506.919,28.64l1.426,50.776l-29.434-5.723l-57.793,47.92l-55.156-8.032
		l59.609-46.865L388.794,61.106"/>
</g>
</svg>
