<svg version="1.1" id="ilhwsa8q1" xmlns:xml="http://www.w3.org/XML/1998/namespace"
	 xmlns="http://www.w3.org/2000/svg" xmlns:xlink="http://www.w3.org/1999/xlink" x="0px" y="0px" width="80px" height="58px"
	 viewBox="0 0 80 58" enable-background="new 0 0 80 58" xml:space="preserve">
<g>
	<path fill="#B3B4B6" d="M18.032,7.919c0.153-0.291,0.298-0.65,0.298-1.089c0-0.802-0.298-0.65-0.73-0.65
		c-0.43,0-0.728-0.074-0.728,0.65c0,0.438,0.07,0.798,0.22,1.018c-0.149,10.168-0.291,20.348-0.43,30.448
		c0,0.494,0.43,0.947,0.938,0.947s0.942-0.453,0.942-0.947C18.33,28.27,18.186,18.088,18.032,7.919z"/>
	<path fill="#B3B4B6" d="M63.715,7.919c0.156-0.291,0.291-0.65,0.291-1.089c0-0.802-0.291-0.65-0.736-0.65
		c-0.354,0-0.734-0.074-0.734,0.65c0,0.438,0.086,0.798,0.242,1.018c-0.156,10.168-0.313,20.348-0.456,30.448
		c0,0.494,0.456,0.947,0.948,0.947c0.516,0,0.948-0.453,0.948-0.947C64.006,28.27,63.871,18.088,63.715,7.919z"/>
	<path fill="#212128" d="M78.91,52.099H1.09C0.51,52.099,0,51.593,0,51.01v-6.833c0-0.577,0.51-1.093,1.09-1.093h77.82
		c0.586,0,1.09,0.516,1.09,1.093v6.833C80,51.671,79.496,52.099,78.91,52.099z"/>
	<path fill="#394044" d="M77.535,58H2.477c-1.019,0-1.826-0.81-1.826-1.828V39.173c0-1.018,0.807-1.824,1.826-1.824h75.058
		c1.023,0,1.805,0.807,1.805,1.824v16.999C79.34,57.19,78.559,58,77.535,58z"/>
	<rect x="3.928" y="42.439" fill="#EDEDED" width="72.201" height="10.324"/>
	<path fill="#FFFFFF" stroke="#2A6ED1" stroke-miterlimit="10" d="M66,46.25c0.976,0,1.75,0.79,1.75,1.742
		c0,0.969-0.774,1.758-1.75,1.758c-0.962,0-1.75-0.789-1.75-1.758C64.25,47.04,65.038,46.25,66,46.25z"/>
	<path fill="#FFFFFF" stroke="#2A6ED1" stroke-miterlimit="10" d="M56,46.25c0.975,0,1.75,0.79,1.75,1.742
		c0,0.969-0.775,1.758-1.75,1.758c-0.961,0-1.75-0.789-1.75-1.758C54.25,47.04,55.039,46.25,56,46.25z"/>
	<path fill="#FFFFFF" stroke="#2A6ED1" stroke-miterlimit="10" d="M46,46.25c0.975,0,1.75,0.79,1.75,1.742
		c0,0.969-0.775,1.758-1.75,1.758c-0.961,0-1.75-0.789-1.75-1.758C44.25,47.04,45.039,46.25,46,46.25z"/>
	<g>
		<path fill="#2A59A9" d="M14.045,12.572c-0.23,0-0.372-0.07-0.513-0.221c-2.477-2.537-2.477-6.609,0-9.155
			c0.283-0.29,0.722-0.29,1.021,0c0.281,0.296,0.281,0.725,0,1.018c-1.97,1.966-1.97,5.091,0,7.123c0.281,0.288,0.281,0.726,0,1.015
			C14.396,12.501,14.253,12.572,14.045,12.572z"/>
		<path fill="#2A59A9" d="M11.125,15.473c-0.212,0-0.361-0.073-0.509-0.214c-4.071-4.215-4.071-10.831,0-15.046
			c0.297-0.284,0.734-0.284,1.019,0c0.301,0.296,0.301,0.734,0,1.015c-3.566,3.636-3.566,9.378,0,13.012
			c0.301,0.296,0.301,0.726,0,1.019C11.493,15.4,11.271,15.473,11.125,15.473z"/>
		<path fill="#2A59A9" d="M20.803,12.572c0.216,0,0.358-0.07,0.508-0.221c2.469-2.537,2.469-6.609,0-9.155
			c-0.292-0.29-0.73-0.29-1.016,0C20,3.492,20,3.921,20.295,4.214c1.956,1.966,1.956,5.091,0,7.123
			c-0.295,0.288-0.295,0.726,0,1.015C20.439,12.501,20.651,12.572,20.803,12.572z"/>
		<path fill="#2A59A9" d="M23.779,15.473c0.227,0,0.368-0.073,0.509-0.214c4.077-4.215,4.077-10.831,0-15.046
			c-0.283-0.284-0.722-0.284-1.019,0c-0.279,0.296-0.279,0.734,0,1.015c3.567,3.636,3.567,9.378,0,13.012
			c-0.279,0.296-0.279,0.726,0,1.019C23.42,15.4,23.567,15.473,23.779,15.473z"/>
	</g>
	<g>
		<path fill="#2A59A9" d="M56.801,15.473c-0.212,0-0.359-0.073-0.516-0.214c-4.063-4.215-4.063-10.831,0-15.046
			c0.304-0.284,0.729-0.284,1.023,0c0.3,0.296,0.3,0.734,0,1.015c-3.564,3.636-3.564,9.378,0,13.012c0.3,0.296,0.3,0.726,0,1.019
			C57.154,15.4,56.942,15.473,56.801,15.473z"/>
		<path fill="#2A59A9" d="M59.717,12.572c-0.221,0-0.377-0.07-0.523-0.221c-2.463-2.537-2.463-6.609,0-9.155
			c0.303-0.29,0.736-0.29,1.019,0c0.292,0.296,0.292,0.725,0,1.018c-1.966,1.966-1.966,5.091,0,7.123
			c0.292,0.288,0.292,0.726,0,1.015C60.142,12.501,59.93,12.572,59.717,12.572z"/>
		<path fill="#2A59A9" d="M66.469,12.572c0.215,0,0.371-0.07,0.527-0.221c2.459-2.537,2.459-6.609,0-9.155
			c-0.313-0.29-0.74-0.29-1.023,0c-0.313,0.296-0.313,0.725,0,1.018c1.961,1.966,1.961,5.091,0,7.123
			c-0.313,0.288-0.313,0.726,0,1.015C66.115,12.501,66.327,12.572,66.469,12.572z"/>
		<path fill="#2A59A9" d="M69.455,15.473c0.212,0,0.354-0.073,0.51-0.214c4.063-4.215,4.063-10.831,0-15.046
			c-0.298-0.284-0.722-0.284-1.023,0c-0.293,0.296-0.293,0.734,0,1.015c3.571,3.636,3.571,9.378,0,13.012
			c-0.293,0.296-0.293,0.726,0,1.019C69.098,15.4,69.243,15.473,69.455,15.473z"/>
	</g>
</g>
</svg>
