<?xml version="1.0" encoding="utf-8"?>
<!-- Generator: Adobe Illustrator 16.0.0, SVG Export Plug-In . SVG Version: 6.00 Build 0)  -->
<!DOCTYPE svg PUBLIC "-//W3C//DTD SVG 1.1//EN" "http://www.w3.org/Graphics/SVG/1.1/DTD/svg11.dtd">
<svg version="1.1"
	 id="svg2" xmlns:dc="http://purl.org/dc/elements/1.1/" xmlns:cc="http://creativecommons.org/ns#" xmlns:rdf="http://www.w3.org/1999/02/22-rdf-syntax-ns#" xmlns:svg="http://www.w3.org/2000/svg"
	 xmlns="http://www.w3.org/2000/svg" xmlns:xlink="http://www.w3.org/1999/xlink" x="0px" y="0px" width="78px" height="40px"
	 viewBox="0 0 78 40" enable-background="new 0 0 78 40" xml:space="preserve">
	<g id="g12" transform="scale(0.1,0.1)">
		<path id="path22" fill="#087BBB" d="M1.538,393.95h583.389V191.177H1.538V393.95z"/>
		<path id="path24" fill="none" stroke="#FFFFFF" stroke-width="3.9999" d="M1.538,393.95h583.389V191.177H1.538V393.95z"/>
		<path id="path26" fill="#087BBB" d="M0,192.085L235.674,0h544.331L584.321,192.085H0"/>
		<path id="path28" fill="none" stroke="#FFFFFF" stroke-width="3.9999" d="M0,192.085L235.674,0h544.331L584.321,192.085H0z"/>
		<path id="path30" fill="#087BBB" d="M584.497,400.005l194.902-211.836l0.098-187.808l-195,191.519V400.005"/>
		<path id="path32" fill="none" stroke="#FFFFFF" stroke-width="3.9999" d="M584.497,400.005l194.902-211.836l0.098-187.808
		l-195,191.519V400.005z"/>
		<path id="path34" fill="#FFFFFF" d="M341.978,142.134l-11.348,9.312H185.127l-14.492,14.595l-39.468-17.285l79.355-22.764
		l-14.048,16.143H341.978"/>
		<path id="path36" fill="#FFFFFF" d="M456.274,70.239l-11.328,9.38H299.434l-14.487,14.595l-39.395-17.285l79.277-22.852
		l-14.043,16.162H456.274"/>
		<path id="path38" fill="#FFFFFF" d="M367.603,116.758l11.328-9.37h145.43l14.648-14.59l39.336,17.28l-79.297,22.842l14.141-16.162
		H367.603"/>
		<path id="path40" fill="#FFFFFF" d="M443.188,44.849l11.348-9.287h145.508l14.492-14.59l39.316,17.285l-79.297,22.754
		l14.141-16.162H443.188"/>
		<path id="path42" fill="#087BBB" d="M417.681,358.696h137.324V220.688H417.681V358.696z"/>
		<path id="path44" fill="none" stroke="#FFFFFF" stroke-width="3.9999" d="M417.681,358.696h137.324V220.688H417.681V358.696z"/>
		<g id="g46" transform="scale(10,10)" style="font-variant:normal;font-weight:normal;font-size:13.143px;font-family:Helvetica;-inkscape-font-specification:Helvetica;writing-mode:lr-tb;fill:#ffffff;fill-opacity:1;fill-rule:nonzero;stroke:none">
			<text transform="matrix(0.9941 0 0 1 44.4009 33.7524)">V</text>
		</g>
		<path id="path52" fill="#087BBB" d="M197.989,352.719c82.749-5.41,148.169-36.055,146.04-68.398
		c-2.07-32.344-70.894-54.277-153.633-48.867c-82.764,5.43-148.184,36.074-146.108,68.594
		C46.421,336.391,115.166,358.149,197.989,352.719"/>
		<path id="path54" fill="none" stroke="#FFFFFF" stroke-width="3.9999" d="M197.989,352.719
		c82.749-5.41,148.169-36.055,146.04-68.398c-2.07-32.344-70.894-54.277-153.633-48.867c-82.764,5.43-148.184,36.074-146.108,68.594
		C46.421,336.391,115.166,358.149,197.989,352.719z"/>
		<path id="path56" fill="#FFFFFF" d="M158.448,273.5l13.613,17.813l-46.074,13.926l9.629-9.238l-73.11-7.695l17.241-14.785
		l70.596,7.227L158.448,273.5"/>
		<path id="path58" fill="#FFFFFF" d="M227.271,314.399l-9.746-18.633l41.714-11.328l-6.88,7.051l71.064,7.52l-15.996,14.668
		l-70.791-8.574L227.271,314.399"/>
		<path id="path60" fill="#FFFFFF" d="M200.591,260.512l46.455-16.133l1.797,20.254l-11.938-1.348l-21.797,20.762l-22.271-1.895
		l22.656-20.293L200.591,260.512"/>
		<path id="path62" fill="#FFFFFF" d="M185.054,334.848l-44.492,11.465l-3.047-20.801l13.174,1.875l23.364-22.93l22.144,2.305
		l-24.893,25L185.054,334.848"/>
	</g>
</svg>
