<?xml version="1.0" encoding="utf-8"?>
<!-- Generator: Adobe Illustrator 16.0.0, SVG Export Plug-In . SVG Version: 6.00 Build 0)  -->
<!DOCTYPE svg PUBLIC "-//W3C//DTD SVG 1.1//EN" "http://www.w3.org/Graphics/SVG/1.1/DTD/svg11.dtd">
<svg version="1.1"
	 id="svg2" xmlns:dc="http://purl.org/dc/elements/1.1/" xmlns:cc="http://creativecommons.org/ns#" xmlns:rdf="http://www.w3.org/1999/02/22-rdf-syntax-ns#" xmlns:svg="http://www.w3.org/2000/svg"
	 xmlns="http://www.w3.org/2000/svg" xmlns:xlink="http://www.w3.org/1999/xlink" x="0px" y="0px" width="76px" height="33px"
	 viewBox="0 0 76 33" enable-background="new 0 0 76 33" xml:space="preserve">
<g id="g12" transform="scale(0.1,0.1)">
	<path id="path22" fill="#087BBB" d="M0.002,121.36L163.308,0.002h596.694L641.252,121.36H0.002"/>
	<path id="path24" fill="none" stroke="#FFFFFF" stroke-width="3.9999" d="M0.002,121.36L163.308,0.002h596.694L641.252,121.36
		H0.002z"/>
	<path id="path26" fill="#087BBB" d="M641.252,329.885l118.75-120.81V0.383L641.252,121.36V329.885"/>
	<path id="path28" fill="none" stroke="#FFFFFF" stroke-width="3.9999" d="M641.252,329.885l118.75-120.81V0.383L641.252,121.36
		V329.885z"/>
	<path id="path30" fill="#087BBB" d="M0.847,330.002h640.405V121.36H0.847V330.002z"/>
	<path id="path32" fill="none" stroke="#FFFFFF" stroke-width="3.9999" d="M0.847,330.002h640.405V121.36H0.847V330.002z"/>
	<path id="path34" fill="none" stroke="#FFFFFF" stroke-width="4.5" stroke-linecap="round" stroke-miterlimit="1" d="
		M590.208,227.161c0,0-41.553,107.304-91.416-0.186c-49.824-107.461-91.426-0.137-91.426-0.137s-41.523,107.344-91.514-0.42
		c-49.824-107.48-91.284,0.693-91.284,0.693s-41.348,107.353-91.348-0.137c-49.829-107.461-91.299-0.195-91.299-0.195"/>
	<path id="path36" fill="none" stroke="#FFFFFF" stroke-width="8.9999" stroke-linecap="round" stroke-miterlimit="1" d="
		M41.921,227.161c0,0,41.558,107.304,91.411-0.186c49.98-107.461,91.587-0.137,91.587-0.137s41.538,107.344,91.343-0.42
		c50-107.48,91.299,0.693,91.299,0.693s41.484,107.353,91.357-0.137c50.117-107.461,91.289-0.195,91.289-0.195"/>
	<path id="path38" fill="none" stroke="#231F20" stroke-width="4.5" stroke-linecap="round" stroke-miterlimit="1" d="
		M599.856,227.161c0,0-41.563,107.304-91.426-0.186c-49.824-107.461-91.436-0.137-91.436-0.137s-41.514,107.353-91.514-0.42
		c-49.824-107.48-91.279,0.693-91.279,0.693s-41.494,107.353-91.353-0.137c-49.98-107.461-91.299-0.186-91.299-0.186"/>
	<path id="path40" fill="none" stroke="#231F20" stroke-width="8.9999" stroke-linecap="round" stroke-miterlimit="1" d="
		M51.55,227.161c0,0,41.558,107.304,91.406-0.186c49.99-107.461,91.592-0.137,91.592-0.137s41.538,107.353,91.343-0.42
		c50-107.48,91.309,0.693,91.309,0.693s41.484,107.353,91.348-0.137c50.127-107.461,91.309-0.186,91.309-0.186"/>
	<path id="path42" fill="none" stroke="#FFFFFF" stroke-width="4.5" stroke-linecap="round" stroke-miterlimit="1" d="
		M590.208,227.161c0,0-41.553,107.304-91.416-0.186c-49.824-107.461-91.426-0.137-91.426-0.137s-41.523,107.344-91.514-0.42
		c-49.824-107.48-91.284,0.693-91.284,0.693s-41.348,107.353-91.348-0.137c-49.829-107.461-91.299-0.195-91.299-0.195"/>
	<path id="path44" fill="none" stroke="#FFFFFF" stroke-width="8.9999" stroke-linecap="round" stroke-miterlimit="1" d="
		M41.921,227.161c0,0,41.558,107.304,91.411-0.186c49.98-107.461,91.587-0.137,91.587-0.137s41.538,107.344,91.343-0.42
		c50-107.48,91.299,0.693,91.299,0.693s41.484,107.353,91.357-0.137c50.117-107.461,91.289-0.195,91.289-0.195"/>
	<path id="path46" fill="none" stroke="#231F20" stroke-width="4.5" stroke-linecap="round" stroke-miterlimit="1" d="
		M599.856,227.161c0,0-41.563,107.304-91.426-0.186c-49.824-107.461-91.436-0.137-91.436-0.137s-41.514,107.353-91.514-0.42
		c-49.824-107.48-91.279,0.693-91.279,0.693s-41.494,107.353-91.353-0.137c-49.98-107.461-91.299-0.186-91.299-0.186"/>
	<path id="path48" fill="none" stroke="#231F20" stroke-width="8.9999" stroke-linecap="round" stroke-miterlimit="1" d="
		M51.55,227.161c0,0,41.558,107.304,91.406-0.186c49.99-107.461,91.592-0.137,91.592-0.137s41.538,107.353,91.343-0.42
		c50-107.48,91.309,0.693,91.309,0.693s41.484,107.353,91.348-0.137c50.127-107.461,91.309-0.186,91.309-0.186"/>
	<path id="path50" fill="none" stroke="#FFFFFF" stroke-width="4.5" stroke-linecap="round" stroke-miterlimit="1" d="
		M590.208,227.161c0,0-41.553,107.304-91.416-0.186c-49.824-107.461-91.426-0.137-91.426-0.137s-41.523,107.344-91.514-0.42
		c-49.824-107.48-91.284,0.693-91.284,0.693s-41.348,107.353-91.348-0.137c-49.829-107.461-91.299-0.195-91.299-0.195"/>
	<path id="path52" fill="none" stroke="#FFFFFF" stroke-width="8.9999" stroke-linecap="round" stroke-miterlimit="1" d="
		M41.921,227.161c0,0,41.558,107.304,91.411-0.186c49.98-107.461,91.587-0.137,91.587-0.137s41.538,107.344,91.343-0.42
		c50-107.48,91.299,0.693,91.299,0.693s41.484,107.353,91.357-0.137c50.117-107.461,91.289-0.195,91.289-0.195"/>
</g>
</svg>
