<?xml version="1.0" encoding="utf-8"?>
<!-- Generator: Adobe Illustrator 16.0.0, SVG Export Plug-In . SVG Version: 6.00 Build 0)  -->
<!DOCTYPE svg PUBLIC "-//W3C//DTD SVG 1.1//EN" "http://www.w3.org/Graphics/SVG/1.1/DTD/svg11.dtd">
<svg version="1.1"
	 id="svg2" xmlns:dc="http://purl.org/dc/elements/1.1/" xmlns:cc="http://creativecommons.org/ns#" xmlns:rdf="http://www.w3.org/1999/02/22-rdf-syntax-ns#" xmlns:svg="http://www.w3.org/2000/svg"
	 xmlns="http://www.w3.org/2000/svg" xmlns:xlink="http://www.w3.org/1999/xlink" x="0px" y="0px" width="77px" height="55px"
	 viewBox="0 0 77 55" enable-background="new 0 0 77 55" xml:space="preserve">
<g id="g12" transform="scale(0.1,0.1)">
	<path id="path14" fill="#087BBB" d="M0.002,529.995H690.51V76.309H0.002V529.995z"/>
	<path id="path16" fill="none" stroke="#FFFFFF" stroke-width="4" d="M0.002,529.995H690.51V76.309H0.002V529.995z"/>
	<path id="path18" fill="#087BBB" d="M770.002,413.686L690.51,529.995V76.309L770.002-20V413.686"/>
	<path id="path20" fill="none" stroke="#FFFFFF" stroke-width="4" d="M770.002,413.686L690.51,529.995V76.309L770.002-20V413.686z"
		/>
	<path id="path22" fill="#087BBB" d="M119.177-20h650.825L690.51,76.309H0.002L119.177-20"/>
	<path id="path24" fill="none" stroke="#FFFFFF" stroke-width="4" d="M119.177-20h650.825L690.51,76.309H0.002L119.177-20z"/>
	<path id="path26" fill="#FFFFFF" d="M595.637,310.522l-115.693,0.078v-18.281l115.693-0.273l0.02-28.672l66.963,38.027
		l-66.963,37.832L595.637,310.522"/>
	<path id="path28" fill="#FFFFFF" d="M132.981,310.522l-115.698,0.078v-18.281l115.698-0.273l0.02-28.672l66.973,38.027L133,339.233
		L132.981,310.522"/>
	<path id="path30" fill="#FFFFFF" d="M575.793,188.442l-96.943,63.076l-10.176-15.41l96.963-63.081l-15.43-24.082l76.787-4.634
		l-35.469,68.213L575.793,188.442"/>
	<path id="path32" fill="#FFFFFF" d="M575.793,415.21l-96.943-63.105l-10.176,15.547l96.963,63.086l-15.43,24.063l76.787,4.648
		l-35.469-68.32L575.793,415.21"/>
	<path id="path34" fill="#087BBB" d="M455.1,299.097c0,62.793-51.074,113.867-114.004,113.867s-114.004-51.074-114.004-113.867
		c0-63.066,51.074-114.141,114.004-114.141S455.1,236.03,455.1,299.097"/>
	<path id="path36" fill="none" stroke="#FFFFFF" stroke-width="8" d="M455.1,299.097c0,62.793-51.074,113.867-114.004,113.867
		s-114.004-51.074-114.004-113.867c0-63.066,51.074-114.141,114.004-114.141S455.1,236.03,455.1,299.097z"/>
</g>
</svg>
