<?xml version="1.0" encoding="utf-8"?>
<!-- Generator: Adobe Illustrator 16.0.0, SVG Export Plug-In . SVG Version: 6.00 Build 0)  -->
<!DOCTYPE svg PUBLIC "-//W3C//DTD SVG 1.1//EN" "http://www.w3.org/Graphics/SVG/1.1/DTD/svg11.dtd">
<svg version="1.1" id="图层_1" xmlns="http://www.w3.org/2000/svg" xmlns:xlink="http://www.w3.org/1999/xlink" x="0px" y="0px"
	 width="512px" height="512px" viewBox="0 0 512 512" enable-background="new 0 0 512 512" xml:space="preserve">
<g>
	<path fill="#38C4F5" d="M258.525,509.706h-0.01c-59.001,0-116.023-4.052-156.434-11.121c-63.337-11.091-78.335-25.959-89.152-88.42
		c-14.404-83.149-14.183-224.212,0.48-308.031c11.06-63.299,25.937-78.297,88.405-89.152c39.64-6.886,93.615-10.687,151.978-10.687
		c58.881,0,115.781,4.045,156.091,11.098c63.314,11.083,78.307,25.959,89.152,88.42c14.427,83.164,14.229,224.257-0.442,308.092
		c-11.045,63.313-25.929,78.305-88.403,89.167C370.612,505.928,316.743,509.706,258.525,509.706 M253.795,17.894
		c-57.495,0-110.518,3.717-149.312,10.458c-55.88,9.704-65.782,19.713-75.7,76.461c-14.419,82.38-14.633,220.998-0.48,302.699
		c9.674,55.851,19.683,65.769,76.469,75.715c39.564,6.916,95.596,10.877,153.746,10.877h0.008c57.364,0,110.273-3.687,149.001-10.39
		c55.895-9.72,65.797-19.729,75.715-76.492c14.412-82.401,14.608-221.036,0.44-302.745c-9.72-55.872-19.729-65.782-76.477-75.715
		C367.733,21.855,311.807,17.894,253.795,17.894"/>
	<path fill="#38C4F5" d="M99.621,279.046c0.005,0.313,0.011,0.435,0.016,0.665c0.016,0.495,0.028,0.941,0.042,1.436
		c0.014,0.483,0.028,0.362,0.042,0.847c0.019,0.496,0.034,0.998,0.047,1.496c0.019,0.476,0.036,0.147,0.051,0.624
		c0.017,0.496,0.036,0.994,0.056,1.488c0.019,0.476,0.036,0.947,0.056,1.422c0.019,0.498,0.042,0.996,0.064,1.498
		c0.019,0.463,0.039,0.928,0.058,1.391c0.027,0.502,0.048,1,0.073,1.499c0.023,0.462,0.045,0.924,0.067,1.384
		c0.026,0.498,0.051,0.992,0.078,1.49c0.027,0.457,0.048,0.917,0.073,1.371c0.028,0.498,0.056,0.992,0.087,1.486
		c0.025,0.453,0.055,0.908,0.078,1.36c0.031,0.496,0.061-0.331,0.095,0.165c0.028,0.443,0.056,9.174,0.084,9.617
		c0.033,0.499,0.067,0.997,0.103,1.494c0.028,0.437,0.059,0.873,0.091,1.31c0.036,0.493,0.072,0.987,0.109,1.484
		c0.031,0.431,0.064,0.864,0.098,1.295c0.036,0.498,0.075,0.989,0.114,1.479c0.033,0.426,0.067,0.853,0.103,1.274
		c0.039,0.496,0.086,0.989,0.126,1.483c0.034,0.416,0.07,0.834,0.106,1.244c0.045,0.496,0.09,0.987,0.136,1.48
		c0.034,0.409,0.072,0.816,0.111,1.223c0.047,0.491,0.095,0.979,0.142,1.463c0.041,0.406,0.08,0.812,0.117,1.213
		c0.052,0.492,0.101,0.979,0.151,1.465c0.042,0.393,0.083,0.787,0.123,1.176c0.05,0.49,0.106,0.979,0.161,1.468
		c0.041,0.381,0.084,0.769,0.125,1.147c0.056,0.49,0.112,0.974,0.172,1.457c0.042,0.373,0.087,0.75,0.128,1.121
		c0.061,0.49,0.122,0.976,0.181,1.463c0.047,0.359,0.09,0.722,0.136,1.078c0.062,0.49,0.126,0.971,0.187,1.453
		c0.047,0.354,0.092,0.709,0.139,1.058c0.066,0.487,0.133,0.966,0.2,1.448c0.047,0.342,0.094,0.682,0.142,1.021
		c0.07,0.49,0.14,0.974,0.214,1.459c0.048,0.323,0.092,0.651,0.142,0.97c0.073,0.49,0.145,0.969,0.222,1.449
		c0.05,0.314,0.098,0.633,0.145,0.947c0.08,0.479,0.156,0.956,0.234,1.434c0.053,0.307,0.1,0.61,0.15,0.913
		c0.084,0.502,0.17,1,0.257,1.496c0.044,0.269,0.09,0.54,0.137,0.808c0.095,0.539,0.192,1.071,0.409,2.26
		c0.14,0.744,0.279,1.482,0.421,2.212c6.675,34.036,15.321,38.551,53.592,44.468c27.099,4.185,59.551,6.288,96.091,6.288
		c35.623,0,71.083-1.998,97.325-6.015c0.551-0.084,1.096-0.171,2.108-0.328c0.384-0.064,0.761-0.125,1.654-0.271
		c0.395-0.063,0.783-0.129,1.558-0.262c0.51-0.087,1.018-0.178,1.763-0.311c0.413-0.074,0.824-0.148,1.687-0.31
		c0.342-0.065,0.682-0.128,1.468-0.281c0.394-0.08,0.782-0.154,1.399-0.279c0.459-0.096,0.914-0.19,1.698-0.359
		c0.334-0.073,0.666-0.145,1.423-0.315c0.313-0.07,0.62-0.142,1.307-0.303c0.844-0.203,1.668-0.406,2.83-0.714
		c0.287-0.076,0.564-0.153,1.233-0.337c0.289-0.081,0.573-0.162,1.158-0.334c0.378-0.112,0.747-0.225,1.329-0.407
		c0.296-0.092,0.587-0.187,1.229-0.396c0.247-0.084,0.489-0.172,1.076-0.371c0.285-0.102,0.564-0.203,1.026-0.375
		c0.332-0.123,0.663-0.248,1.257-0.484c0.239-0.098,0.475-0.193,1.977-0.839c0.309-0.14,0.61-0.276,0.93-0.429
		c0.292-0.141,0.576-0.281,9.7-6.739c0.212-0.214,0.42-0.437,0.738-0.777c0.24-0.262,0.476-0.528,0.92-1.058
		c0.164-0.19,0.316-0.385,1.387-1.786c0.15-0.204,0.295-0.415,0.633-0.909c0.204-0.306,0.409-0.615,0.649-1.005
		c0.181-0.295,0.361-0.593,0.721-1.218c0.133-0.229,0.262-0.459,0.58-1.051c0.137-0.258,0.271-0.521,0.571-1.111
		c0.181-0.371,0.361-0.746,0.554-1.162c0.175-0.373,0.342-0.755,0.66-1.505c0.12-0.287,0.242-0.577,0.521-1.272
		c0.126-0.324,0.251-0.65,0.484-1.271c0.156-0.427,0.31-0.86,0.574-1.63c0.113-0.34,0.229-0.682,0.486-1.488
		c0.104-0.328,0.208-0.66,0.443-1.43c0.14-0.473,0.279-0.952,0.438-1.502c0.131-0.471,0.264-0.951,0.519-1.922
		c0.095-0.36,0.187-0.723,0.415-1.621c0.101-0.399,0.198-0.805,0.395-1.613c0.125-0.537,0.251,1.354,0.476,0.365
		c0.094-0.424,0.188-0.854,0.409-1.877c0.087-0.41,0.178-0.822,0.378-1.797c0.122-0.599,0.243-1.201,0.363-1.813
		c0.148-0.743,0.293-1.495,0.437-2.254c0.045-0.25,0.094-0.505,0.137-0.758c0.095-0.514,0.19-1.021,0.282-1.537
		c0.059-0.329,0.115-0.663,0.172-0.994c0.081-0.449,0.159-0.895,0.234-1.352c0.062-0.354,0.119-0.713,0.178-1.069
		c0.072-0.44,0.147-0.875,0.217-1.32c0.06-0.368,0.115-0.743,0.173-1.11c0.072-0.441,0.142-0.879,0.207-1.32
		c0.061-0.387,0.115-0.778,0.174-1.167c0.063-0.437,0.128-0.867,0.191-1.306c0.059-0.406,0.114-0.816,0.172-1.228
		c0.061-0.429,0.122-0.853,0.18-1.285c0.06-0.417,0.111-0.839,0.171-1.257c0.056-0.432,0.11-0.859,0.17-1.295
		c0.056-0.424,0.106-0.855,0.16-1.282c0.057-0.435,0.11-0.866,0.161-1.303c0.057-0.438,0.106-0.878,0.158-1.317
		c0.051-0.437,0.106-0.867,0.156-1.307c0.05-0.448,0.1-0.898,0.151-1.348c0.048-0.436,0.098-0.869,0.145-1.308
		c0.05-0.457,0.098-0.916,0.146-1.374c0.048-0.438,0.094-0.871,0.137-1.313c0.051-0.465,0.097-0.934,0.143-1.406
		c0.042-0.436,0.087-0.872,0.128-1.311c0.044-0.477,0.092-0.955,0.138-1.435c0.041-0.438,0.079-0.872,0.12-1.31
		c0.043-0.487,0.086-0.979,0.132-1.469c0.032-0.435,0.073-0.867,0.109-1.308c0.042-0.493,0.084-0.987,0.123-1.483
		c0.037-0.44,0.073-0.877,0.108-1.314c0.039-0.501,0.078-1,0.114-1.499c0.031-0.44,0.068-0.884,0.1-1.324
		c0.037-0.505,0.075-1.012,0.111-1.516c0.028-0.445,0.059-9.175,0.092-9.619c0.036-0.513,0.07,0.298,0.103-0.215
		c0.028-0.442,0.058-0.884,0.084-1.324c0.034-0.521,0.063-1.044,0.097-1.565c0.026-0.439,0.055-0.883,0.081-1.322
		c0.028-0.521,0.058-1.045,0.086-1.566c0.025-0.447,0.052-0.895,0.071-1.345c0.028-0.523,0.055-1.048,0.081-1.572
		c0.023-0.448,0.045-0.896,0.067-1.345c0.024-0.527,0.048-1.061,0.073-1.588c0.019-0.45,0.039-0.901,0.059-1.352
		c0.022-0.529,0.044-1.062,0.066-1.593c0.017-0.451,0.037-0.089,0.053-0.541c0.02-0.54,0.041-1.069,0.061-1.606
		c0.016-0.448,0.03-0.271,0.049-0.721c0.017-0.541,0.031-1.084,0.05-1.625c0.009-0.26,0.017-0.437,0.021-0.749H99.621V279.046z
		 M195.656,232.757V108.723c0-0.51-0.036-1.011-0.086-1.508c-18.475,1.048-21.129,2.287-35.523,4.641
		c-38.112,6.213-47.656,23.695-54.268,59.247c-4.175,22.417-6.502,47.636-6.958,77.764l78.176,0.488
		C187.291,249.356,195.656,241.852,195.656,232.757 M245.918,248.101h166.72c-0.321-30.436-2.557-53.383-6.71-75.88
		c-6.621-35.81-15.152-52.095-53.007-58.321c-26.74-4.396-62.506-6.604-98.592-6.604c-9.036,0-18.055,0.137-26.918,0.415
		c-0.125,0.769-0.25,1.558-0.25,2.359v121.574C227.162,240.74,235.62,248.101,245.918,248.101"/>
</g>
</svg>
