<?xml version="1.0" encoding="utf-8"?>
<!-- Generator: Adobe Illustrator 16.0.0, SVG Export Plug-In . SVG Version: 6.00 Build 0)  -->
<!DOCTYPE svg PUBLIC "-//W3C//DTD SVG 1.1//EN" "http://www.w3.org/Graphics/SVG/1.1/DTD/svg11.dtd">
<svg version="1.1" id="图层_1" xmlns="http://www.w3.org/2000/svg" xmlns:xlink="http://www.w3.org/1999/xlink" x="0px" y="0px"
	 width="512px" height="512px" viewBox="0 0 512 512" enable-background="new 0 0 512 512" xml:space="preserve">
<g>
	<path fill="#FA4D45" d="M258.827,508.799h-0.009c-59.002,0-116.025-4.052-156.434-11.121
		c-63.337-11.091-78.335-25.959-89.152-88.42c-14.404-83.148-14.183-224.212,0.48-308.031c11.06-63.299,25.937-78.297,88.405-89.152
		c39.64-6.886,93.615-10.687,151.978-10.687c58.881,0,115.781,4.045,156.091,11.098c63.314,11.083,78.304,25.959,89.152,88.42
		c14.427,83.164,14.229,224.258-0.442,308.092c-11.045,63.313-25.929,78.305-88.406,89.167
		C370.913,505.021,317.045,508.799,258.827,508.799 M254.097,16.987c-57.495,0-110.518,3.717-149.311,10.458
		c-55.881,9.704-65.783,19.713-75.701,76.461c-14.419,82.38-14.633,220.996-0.48,302.7c9.674,55.849,19.683,65.767,76.47,75.714
		c39.563,6.916,95.595,10.878,153.744,10.878h0.009c57.364,0,110.273-3.688,149-10.391c55.895-9.72,65.796-19.729,75.714-76.491
		c14.412-82.403,14.61-221.037,0.442-302.746c-9.72-55.872-19.729-65.782-76.477-75.715
		C368.033,20.948,312.108,16.987,254.097,16.987"/>
	<path fill="#FA4D45" d="M336.738,137.213c-14.56,0-17.472,5.347-17.472,5.347l-62.647,87.392c0,0-50.984-73.803-59.721-84.003
		c-8.735-10.2-18.935-8.736-18.935-8.736h-50.985L80.371,373.675c62.632-16.025,76.237-52.925,76.237-52.925l18.444-101.475
		l82.061,112.646l77.688-112.168c0,0,14.559,79.149,25.729,107.299c11.171,28.18,69.92,46.624,69.92,46.624L383.35,137.214
		C383.348,137.213,351.299,137.213,336.738,137.213"/>
</g>
</svg>
