<?xml version="1.0" encoding="utf-8"?>
<!-- Generator: Adobe Illustrator 16.0.0, SVG Export Plug-In . SVG Version: 6.00 Build 0)  -->
<!DOCTYPE svg PUBLIC "-//W3C//DTD SVG 1.1//EN" "http://www.w3.org/Graphics/SVG/1.1/DTD/svg11.dtd">
<svg version="1.1"
	 id="svg2" xmlns:dc="http://purl.org/dc/elements/1.1/" xmlns:cc="http://creativecommons.org/ns#" xmlns:rdf="http://www.w3.org/1999/02/22-rdf-syntax-ns#" xmlns:svg="http://www.w3.org/2000/svg"
	 xmlns="http://www.w3.org/2000/svg" xmlns:xlink="http://www.w3.org/1999/xlink" x="0px" y="0px" width="79px" height="56px"
	 viewBox="0 0 79 56" enable-background="new 0 0 79 56" xml:space="preserve">
<g id="g12" transform="scale(0.1,0.1)">
	<path id="path22" fill="#087BBB" d="M2.671,71.621l91.47-71.626H790l-93.975,71.626H2.671"/>
	<path id="path24" fill="none" stroke="#FFFFFF" stroke-width="4" d="M2.671,71.621l91.47-71.626H790l-93.975,71.626H2.671z"/>
	<path id="path26" fill="none" stroke="#FFFFFF" stroke-width="4" stroke-linecap="round" stroke-linejoin="round" d="
		M696.025,559.887H2.671"/>
	<path id="path28" fill="#087BBB" d="M698.799,67.769v492.226H0V66.709L698.799,67.769"/>
	<path id="path30" fill="none" stroke="#FFFFFF" stroke-width="4" d="M698.799,67.769v492.226H0V66.709L698.799,67.769z"/>
	<path id="path32" fill="#087BBB" d="M786.768,484.526V1.812l-89.941,67.632V556.85L786.768,484.526"/>
	<path id="path34" fill="none" stroke="#FFFFFF" stroke-width="4" d="M786.768,484.526V1.812l-89.941,67.632V556.85L786.768,484.526
		z"/>
	<path id="path36" fill="#FFFFFF" d="M638.975,371.968h-92.197V358.11l-45.869,27.715l45.869,28.477v-13.857h92.197V371.968"/>
	<path id="path38" fill="#FFFFFF" d="M185.43,215.21h-92.5v-13.828l-45.547,27.695l45.547,28.467v-13.857h92.5V215.21"/>
	<path id="path40" fill="#FFFFFF" d="M518.379,245.571h88.73v13.701l45.557-27.559l-45.557-28.477v13.867h-88.73V245.571"/>
	<path id="path42" fill="#FFFFFF" d="M53.555,401.216h88.74v13.838l45.547-27.705l-45.547-28.457v13.848h-88.74V401.216"/>
	<path id="path44" fill="#FFFFFF" d="M138.174,515.307c-0.513-9.336,6.489-17.559,15.806-18.252
		c9.292-0.361,17.373,6.67,18.047,15.957c0.688,9.297-6.475,17.549-15.776,17.949C146.973,531.616,138.857,524.585,138.174,515.307"
		/>
	<path id="path46" fill="none" stroke="#231F20" stroke-width="2" d="M138.174,515.307c-0.513-9.336,6.489-17.559,15.806-18.252
		c9.292-0.361,17.373,6.67,18.047,15.957c0.688,9.297-6.475,17.549-15.776,17.949C146.973,531.616,138.857,524.585,138.174,515.307z
		"/>
	<path id="path48" fill="#FFFFFF" d="M174.072,527.524l-34.429-30.879l89.395-100l34.438,30.889L174.072,527.524"/>
	<path id="path50" fill="none" stroke="#231F20" stroke-width="2" d="M174.072,527.524l-34.429-30.879l89.395-100l34.438,30.889
		L174.072,527.524z"/>
	<path id="path52" fill="#FFFFFF" d="M226.748,272.983c8.486-73.984,75.332-127.188,149.287-118.74
		c73.75,8.516,126.973,75.557,118.496,149.521c-8.438,73.613-75.479,126.797-149.268,118.359
		C271.504,413.647,218.271,346.919,226.748,272.983z M204.878,270.415c-9.766,85.947,52.036,163.828,137.974,173.398
		c85.928,9.932,163.809-51.875,173.398-137.656c9.902-85.947-51.904-163.857-137.813-173.598
		C292.666,122.632,214.785,184.644,204.878,270.415"/>
	<path id="path54" fill="none" stroke="#231F20" stroke-width="2" d="M226.748,272.983c8.486-73.984,75.332-127.188,149.287-118.74
		c73.75,8.516,126.973,75.557,118.496,149.521c-8.438,73.613-75.479,126.797-149.268,118.359
		C271.504,413.647,218.271,346.919,226.748,272.983z M204.878,270.415c-9.766,85.947,52.036,163.828,137.974,173.398
		c85.928,9.932,163.809-51.875,173.398-137.656c9.902-85.947-51.904-163.857-137.813-173.598
		C292.666,122.632,214.785,184.644,204.878,270.415z"/>
	<path id="path56" fill="#FFFFFF" d="M207.466,279.907c8.467-73.965,75.327-127.207,149.282-118.73
		c73.76,8.486,126.963,75.527,118.506,149.482c-8.477,73.613-75.332,126.855-149.277,118.369
		C252.227,420.571,198.999,353.53,207.466,279.907z M185.596,277.319c-9.741,85.947,52.041,163.857,137.959,173.418
		c85.938,9.932,163.477-51.875,173.408-137.646c9.912-85.976-51.895-163.852-137.822-173.633
		C273.398,129.561,195.498,191.558,185.596,277.319"/>
	<path id="path58" fill="none" stroke="#231F20" stroke-width="2" d="M207.466,279.907c8.467-73.965,75.327-127.207,149.282-118.73
		c73.76,8.486,126.963,75.527,118.506,149.482c-8.477,73.613-75.332,126.855-149.277,118.369
		C252.227,420.571,198.999,353.53,207.466,279.907z M185.596,277.319c-9.741,85.947,52.041,163.857,137.959,173.418
		c85.938,9.932,163.477-51.875,173.408-137.646c9.912-85.976-51.895-163.852-137.822-173.633
		C273.398,129.561,195.498,191.558,185.596,277.319z"/>
	<path id="path60" fill="#087BBB" d="M404.16,380.493c3.32,0,6.299-2.617,6.299-6.299v-78.027c0-3.662-2.979-6.289-6.299-6.289
		H283.047c-3.672,0-6.465,2.627-6.465,6.289v78.027c0,3.682,2.793,6.299,6.465,6.299H404.16"/>
	<path id="path62" fill="none" stroke="#FFFFFF" stroke-width="3" stroke-linecap="round" stroke-linejoin="round" d="
		M404.16,380.493c3.32,0,6.299-2.617,6.299-6.299v-78.027c0-3.662-2.979-6.289-6.299-6.289H283.047
		c-3.672,0-6.465,2.627-6.465,6.289v78.027c0,3.682,2.793,6.299,6.465,6.299H404.16z"/>
	<path id="path64" fill="#087BBB" d="M410.459,289.448l25.479-25.312H302.07l-25.488,25.312H410.459"/>
	<path id="path66" fill="none" stroke="#FFFFFF" stroke-width="3" stroke-linecap="round" stroke-linejoin="round" d="
		M410.459,289.448l25.479-25.312H302.07l-25.488,25.312H410.459z"/>
	<path id="path68" fill="#087BBB" d="M435.938,354.917v-90.781l-25.479,25.312v90.947L435.938,354.917"/>
	<path id="path70" fill="none" stroke="#FFFFFF" stroke-width="3" stroke-linecap="round" stroke-linejoin="round" d="
		M435.938,354.917v-90.781l-25.479,25.312v90.947L435.938,354.917z"/>
	<path id="path72" fill="#087BBB" d="M357.158,207.915c-19.268,0-34.98,15.703-34.98,34.99l0.195,30.947
		c0.146,2.568-2.256,5.02-6.025,5.4c-3.594,0.391-7.705-1.484-7.852-3.887v-30.83c0-26.348,21.338-47.852,47.852-47.852
		c26.328,0,47.842,21.504,47.842,47.852v33.584c-0.186,2.568-2.988,4.16-6.787,4.092c-3.252-0.215-6.348-4.58-6.191-7.148
		l0.254-32.158C391.465,223.618,376.445,207.915,357.158,207.915"/>
	<path id="path74" fill="none" stroke="#FFFFFF" stroke-width="3" stroke-linecap="round" stroke-linejoin="round" d="
		M357.158,207.915c-19.268,0-34.98,15.703-34.98,34.99l0.195,30.947c0.146,2.568-2.256,5.02-6.025,5.4
		c-3.594,0.391-7.705-1.484-7.852-3.887v-30.83c0-26.348,21.338-47.852,47.852-47.852c26.328,0,47.842,21.504,47.842,47.852v33.584
		c-0.186,2.568-2.988,4.16-6.787,4.092c-3.252-0.215-6.348-4.58-6.191-7.148l0.254-32.158
		C391.465,223.618,376.445,207.915,357.158,207.915z"/>
	<path id="path76" fill="#FFFFFF" d="M343.35,343.198c6.104,0,11.055-6.25,11.055-14.033c0-8.105-4.951-14.355-11.055-14.355
		c-5.938,0-10.889,6.25-10.889,14.355C332.461,336.948,337.412,343.198,343.35,343.198"/>
	<path id="path78" fill="#FFFFFF" d="M346.699,357.788v-27.803l-6.885,4.854v27.793L346.699,357.788"/>
</g>
</svg>
