<?xml version="1.0" encoding="utf-8"?>
<!-- Generator: Adobe Illustrator 16.0.0, SVG Export Plug-In . SVG Version: 6.00 Build 0)  -->
<!DOCTYPE svg PUBLIC "-//W3C//DTD SVG 1.1//EN" "http://www.w3.org/Graphics/SVG/1.1/DTD/svg11.dtd">
<svg version="1.1" id="图层_1" xmlns="http://www.w3.org/2000/svg" xmlns:xlink="http://www.w3.org/1999/xlink" x="0px" y="0px"
	 width="425.559px" height="425.2px" viewBox="0 0 425.559 425.2" enable-background="new 0 0 425.559 425.2" xml:space="preserve">
<g>
	<path fill="#33CCFF" d="M213.784,421.893h-0.006c-48.763,0-95.89-3.35-129.287-9.192c-52.345-9.166-64.74-21.453-73.68-73.075
		C-1.093,270.905-0.911,154.323,11.208,85.05c9.141-52.314,21.435-64.71,73.063-73.68c32.761-5.691,77.369-8.833,125.604-8.833
		c48.663,0,95.689,3.343,129.002,9.172c52.327,9.16,64.717,21.455,73.682,73.076c11.923,68.732,11.759,185.34-0.366,254.625
		c-9.128,52.327-21.429,64.717-73.063,73.693C306.42,418.77,261.899,421.893,213.784,421.893 M209.875,15.43
		c-47.517,0-91.339,3.072-123.401,8.643c-46.182,8.021-54.366,16.293-62.562,63.193c-11.917,68.083-12.094,182.645-0.397,250.169
		c7.995,46.157,16.267,54.354,63.199,62.575c32.697,5.716,79.006,8.99,127.064,8.99h0.006c47.41,0,91.138-3.048,123.144-8.587
		c46.194-8.033,54.379-16.306,62.574-63.218c11.911-68.103,12.075-182.678,0.365-250.207c-8.033-46.176-16.305-54.367-63.205-62.576
		C304.04,18.704,257.82,15.43,209.875,15.43"/>
	<polygon fill="#33CCFF" points="314.643,304.941 307.848,293.606 330.646,279.93 330.646,143.72 262.102,103.328 268.813,91.941 
		343.863,136.167 343.863,287.415 	"/>
	<polygon fill="#33CCFF" points="92.748,225.535 79.531,225.535 79.531,137.105 214.482,60.995 245.178,78.431 238.647,89.924 
		214.456,76.183 92.748,144.824 	"/>
	<polygon fill="#33CCFF" points="212.075,363.434 79.531,288.55 79.531,251.969 92.749,251.969 92.749,280.838 212.069,348.249 
		288.545,304.958 295.057,316.461 	"/>
	<polygon fill-rule="evenodd" clip-rule="evenodd" fill="#33CCFF" points="202.785,148.792 173.55,132.073 173.594,121.723 
		212.385,99.325 250.913,121.358 250.869,132.167 221.677,149.171 221.613,159.533 212.359,154.245 202.735,159.791 	"/>
	<polygon fill-rule="evenodd" clip-rule="evenodd" fill="#33CCFF" points="262.571,217.285 262.703,183.033 233.336,166.237 
		233.399,155.951 271.781,133.583 309.912,155.598 309.912,199.999 271.422,222.373 	"/>
	<polygon fill-rule="evenodd" clip-rule="evenodd" fill="#33CCFF" points="173.411,303.065 173.594,258.684 182.678,253.434 
		211.963,270.191 241.671,253.043 250.912,258.331 250.729,302.7 211.938,325.1 	"/>
	<polygon fill-rule="evenodd" clip-rule="evenodd" fill="#33CCFF" points="262.552,285.766 262.697,251.507 253.462,246.231 
		262.47,241.044 262.514,230.821 271.447,235.958 300.891,218.853 309.912,224.072 309.912,268.479 271.392,290.853 	"/>
	<polygon fill-rule="evenodd" clip-rule="evenodd" fill="#33CCFF" points="173.411,234.585 173.594,190.203 212.385,167.804 
		250.912,189.844 250.729,234.22 211.938,256.619 	"/>
	<polygon fill-rule="evenodd" clip-rule="evenodd" fill="#33CCFF" points="113.492,268.819 113.675,224.45 122.759,219.199 
		152.044,235.945 161.664,230.392 161.613,241.384 170.855,246.685 161.853,251.872 161.714,285.262 152.019,290.865 	"/>
	<polygon fill-rule="evenodd" clip-rule="evenodd" fill="#33CCFF" points="113.492,200.345 113.675,155.963 152.466,133.564 
		190.993,155.604 190.943,166.602 161.853,183.398 161.714,216.782 152.019,222.385 	"/>
</g>
</svg>
