<?xml version="1.0" encoding="utf-8"?>
<!-- Generator: Adobe Illustrator 16.0.0, SVG Export Plug-In . SVG Version: 6.00 Build 0)  -->
<!DOCTYPE svg PUBLIC "-//W3C//DTD SVG 1.1//EN" "http://www.w3.org/Graphics/SVG/1.1/DTD/svg11.dtd">
<svg version="1.1"
	 id="图层_1" xmlns:dc="http://purl.org/dc/elements/1.1/" xmlns:cc="http://creativecommons.org/ns#" xmlns:rdf="http://www.w3.org/1999/02/22-rdf-syntax-ns#"
	 xmlns="http://www.w3.org/2000/svg" xmlns:xlink="http://www.w3.org/1999/xlink" x="0px" y="0px" width="75px" height="71.881px"
	 viewBox="0 0 75 71.881" enable-background="new 0 0 75 71.881" xml:space="preserve">
<path fill="#00BCF2" d="M11.345,1.562L0.068,21.128L9.511,37.5L0,53.872l11.277,19.565h22.554L44.022,55.91h20.313L75,37.5
	L64.335,19.022H44.022L33.967,1.562H11.345L11.345,1.562z M19.565,8.152h6.522v8.696h8.696v6.521h-8.696v8.695h-6.522V23.37H10.87
	v-6.521h8.695V8.152z M43.886,23.302h17.935l9.035,14.266l-9.035,14.198H43.886l-8.968-14.198L43.886,23.302z M52.174,29.891
	c-4.802,0-8.694,3.407-8.694,7.608c0,4.203,3.893,7.609,8.694,7.609c4.803,0,8.696-3.406,8.696-7.609
	C60.87,33.299,56.976,29.891,52.174,29.891z M13.383,40.557h18.003l8.967,14.266l-8.967,14.199H13.383L4.416,54.823L13.383,40.557z"
	/>
</svg>
