<?xml version="1.0" encoding="utf-8"?>
<!-- Generator: Adobe Illustrator 16.0.0, SVG Export Plug-In . SVG Version: 6.00 Build 0)  -->
<!DOCTYPE svg PUBLIC "-//W3C//DTD SVG 1.1//EN" "http://www.w3.org/Graphics/SVG/1.1/DTD/svg11.dtd">
<svg version="1.1"
	 id="svg2" xmlns:dc="http://purl.org/dc/elements/1.1/" xmlns:cc="http://creativecommons.org/ns#" xmlns:rdf="http://www.w3.org/1999/02/22-rdf-syntax-ns#" xmlns:svg="http://www.w3.org/2000/svg"
	 xmlns="http://www.w3.org/2000/svg" xmlns:xlink="http://www.w3.org/1999/xlink" x="0px" y="0px" width="80px" height="52px"
	 viewBox="0 0 80 52" enable-background="new 0 0 80 52" xml:space="preserve">
	<g id="g12" transform="scale(0.1,0.1)">
		<path id="path22" fill="#087BBB" d="M0,519.995h714.277V103.652H0V519.995z"/>
		<path id="path24" fill="none" stroke="#FFFFFF" stroke-width="3.9999" d="M0,519.995h714.277V103.652H0V519.995z"/>
		<path id="path26" fill="#087BBB" d="M800,395.112l-85.723,124.883V103.652L800,0V395.112"/>
		<path id="path28" fill="none" stroke="#FFFFFF" stroke-width="3.9999" d="M800,395.112l-85.723,124.883V103.652L800,0V395.112z"/>
		<path id="path30" fill="#087BBB" d="M128.403,0H800l-85.723,103.652H0L128.403,0"/>
		<path id="path32" fill="none" stroke="#FFFFFF" stroke-width="3.9999" d="M128.403,0H800l-85.723,103.652H0L128.403,0z"/>
		<path id="path34" fill="#FFFFFF" d="M342.158,353.13v55.908l-41.729-0.85l58.887,91.191l62.441-91.191l-43.613,0.85V353.13"/>
		<path id="path36" fill="#FFFFFF" d="M456.035,319.516H146.519l-1.318-39.922l-91.343,58.301L145.2,400.6l1.318-45.156h191.714"/>
		<path id="path38" fill="#FFFFFF" d="M383.213,355.376h203.398l1.504,40.254l91.348-58.311l-91.348-61.025l-1.504,43.154H271.152"/>
		<g id="g40" transform="scale(10,10)" style="font-variant:normal;font-weight:bold;font-size:14.9884px;font-family:Helvetica;-inkscape-font-specification:Helvetica-Bold;writing-mode:lr-tb;fill:#ffffff;fill-opacity:1;fill-rule:nonzero;stroke:none">
			<text transform="matrix(1.0015 0 0 1 18.7549 26.6772)">A</text>
			<text transform="matrix(1.0015 0 0 1 29.5928 26.6772)">D</text>
			<text transform="matrix(1.0015 0 0 1 40.4336 26.6772)">M</text>
		</g>
	</g>
</svg>
