<?xml version="1.0" encoding="utf-8"?>
<!-- Generator: Adobe Illustrator 16.0.0, SVG Export Plug-In . SVG Version: 6.00 Build 0)  -->
<!DOCTYPE svg PUBLIC "-//W3C//DTD SVG 1.1//EN" "http://www.w3.org/Graphics/SVG/1.1/DTD/svg11.dtd">
<svg version="1.1" id="图层_1" xmlns="http://www.w3.org/2000/svg" xmlns:xlink="http://www.w3.org/1999/xlink" x="0px" y="0px"
	 width="512px" height="512px" viewBox="0 0 512 512" enable-background="new 0 0 512 512" xml:space="preserve">
<g>
	<path fill="#4BECBC" d="M499.037,101.813c-10.847-62.461-25.838-77.337-89.152-88.42c-40.31-7.053-97.21-11.098-156.091-11.098
		c-58.363,0-112.338,3.801-151.978,10.687c-62.468,10.855-77.345,25.853-88.405,89.152c-14.663,83.819-14.884,224.882-0.48,308.031
		c10.817,62.461,25.815,77.329,89.152,88.42c40.409,7.069,97.431,11.121,156.434,11.121h0.009
		c58.218,0,112.087-3.778,151.665-10.634c62.476-10.862,77.359-25.854,88.404-89.167
		C513.266,326.071,513.464,184.977,499.037,101.813 M483.24,407.222c-9.918,56.764-19.82,66.772-75.715,76.492
		c-38.727,6.703-91.636,10.39-149,10.39h-0.009c-58.148,0-114.181-3.961-153.745-10.877c-56.786-9.947-66.795-19.865-76.469-75.715
		c-14.153-81.702-13.939-220.319,0.48-302.699c9.918-56.748,19.82-66.757,75.7-76.461c38.794-6.741,91.817-10.458,149.312-10.458
		c58.012,0,113.938,3.961,153.41,10.868c56.748,9.933,66.757,19.843,76.477,75.715C497.85,186.186,497.652,324.819,483.24,407.222"
		/>
	<path fill-rule="evenodd" clip-rule="evenodd" fill="#4BECBC" d="M425.946,289.816l-86.609-185.739
		c-8.698-18.651-30.869-26.721-49.521-18.024l-185.74,86.612c-18.652,8.697-26.72,30.867-18.023,49.518l86.611,185.74
		c8.698,18.652,30.868,26.721,49.519,18.023l185.741-86.611C426.574,330.639,434.645,308.468,425.946,289.816 M256,404.871
		L107.129,256L256,107.131L404.871,256L256,404.871z"/>
	<path fill-rule="evenodd" clip-rule="evenodd" fill="#4BECBC" d="M407.925,172.666L222.184,86.054
		c-18.651-8.697-40.821-0.627-49.519,18.024L86.054,289.816c-8.697,18.651-0.628,40.822,18.023,49.52l185.74,86.611
		c18.651,8.697,40.821,0.629,49.521-18.023l86.609-185.74C434.644,203.533,426.574,181.363,407.925,172.666 M256,404.871
		L107.129,256L256,107.131L404.871,256L256,404.871z"/>
</g>
</svg>
