<svg version="1.1" id="ilhwsa8q1" xmlns:xml="http://www.w3.org/XML/1998/namespace"
	 xmlns="http://www.w3.org/2000/svg" xmlns:xlink="http://www.w3.org/1999/xlink" x="0px" y="0px" width="80px" height="24px"
	 viewBox="0 0 80 24" enable-background="new 0 0 80 24" xml:space="preserve">
<g>
	<path fill="#333542" d="M52.312,5.518H7.383c-0.877,0-1.606-0.716-1.606-1.597v-2.32C5.777,0.724,6.505,0,7.383,0h44.929
		c0.888,0,1.614,0.724,1.614,1.601v2.32C53.926,4.802,53.199,5.518,52.312,5.518z"/>
	<path fill="#333542" d="M74.386,24H5.857c-0.879,0-1.605-0.725-1.605-1.605v-2.321c0-0.866,0.726-1.591,1.605-1.591h68.447
		c0.889,0,1.598,0.725,1.598,1.591v2.321C75.983,23.275,75.275,24,74.386,24z"/>
	<path fill="#5B565E" d="M77.597,22.011H2.404C1.122,22.011,0,20.96,0,19.591V4.721c0-1.279,1.041-2.397,2.404-2.397h75.192
		C78.872,2.324,80,3.362,80,4.721v14.87C79.919,20.96,78.872,22.011,77.597,22.011z"/>
	<g>
		<path fill="#F2F4F4" d="M68.771,17.115H12.198c-1.928,0-3.533-1.592-3.533-3.516v-1.036c0-1.923,1.605-3.523,3.533-3.523h56.572
			c1.919,0,3.536,1.601,3.536,3.523V13.6C72.307,15.604,70.689,17.115,68.771,17.115z"/>
		<g>
			<path fill="#D86D3F" d="M40.041,12.081c0.847,0,1.525,0.676,1.525,1.519c0,0.845-0.678,1.521-1.525,1.521
				c-0.843,0-1.524-0.677-1.524-1.521C38.516,12.757,39.198,12.081,40.041,12.081z"/>
			<path fill="#D86D3F" d="M47.422,12.081c0.839,0,1.526,0.676,1.526,1.519c0,0.845-0.688,1.521-1.526,1.521
				c-0.837,0-1.526-0.677-1.526-1.521C45.896,12.757,46.585,12.081,47.422,12.081z"/>
			<path fill="#D86D3F" d="M53.765,12.081c0.837,0,1.516,0.676,1.516,1.519c0,0.845-0.679,1.521-1.516,1.521
				c-0.833,0-1.54-0.677-1.54-1.521C52.225,12.757,52.932,12.081,53.765,12.081z"/>
			<path fill="#D86D3F" d="M60.187,12.081c0.838,0,1.516,0.676,1.516,1.519c0,0.845-0.678,1.521-1.516,1.521
				c-0.849,0-1.534-0.677-1.534-1.521C58.652,12.757,59.338,12.081,60.187,12.081z"/>
			<path fill="#D86D3F" d="M66.6,12.081c0.847,0,1.525,0.676,1.525,1.519c0,0.845-0.679,1.521-1.525,1.521s-1.525-0.677-1.525-1.521
				C65.074,12.757,65.753,12.081,66.6,12.081z"/>
		</g>
		<path fill="#2A6ED1" d="M19.823,15.121h-7.705c-0.889,0-1.604-0.726-1.604-1.605v-0.631c0-0.885,0.716-1.606,1.604-1.606h7.705
			c0.879,0,1.604,0.722,1.604,1.606v0.631C21.427,14.396,20.702,15.121,19.823,15.121z"/>
	</g>
</g>
</svg>
