<?xml version="1.0" encoding="utf-8"?>
<!-- Generator: Adobe Illustrator 16.0.0, SVG Export Plug-In . SVG Version: 6.00 Build 0)  -->
<!DOCTYPE svg PUBLIC "-//W3C//DTD SVG 1.1//EN" "http://www.w3.org/Graphics/SVG/1.1/DTD/svg11.dtd">
<svg version="1.1" id="图层_1" xmlns="http://www.w3.org/2000/svg" xmlns:xlink="http://www.w3.org/1999/xlink" x="0px" y="0px"
	 width="512px" height="512px" viewBox="0 0 512 512" enable-background="new 0 0 512 512" xml:space="preserve">
<g>
	<path fill="#FA4D45" d="M258.452,508.411h-0.009c-59.002,0-116.025-4.052-156.434-11.121
		c-63.337-11.091-78.335-25.959-89.152-88.42c-14.404-83.149-14.183-224.212,0.48-308.031c11.06-63.299,25.937-78.297,88.405-89.152
		C141.383,4.801,195.358,1,253.721,1c58.881,0,115.781,4.045,156.091,11.098c63.314,11.083,78.304,25.959,89.152,88.42
		c14.427,83.164,14.229,224.257-0.442,308.092c-11.045,63.313-25.929,78.305-88.406,89.167
		C370.538,504.633,316.67,508.411,258.452,508.411 M253.722,16.599c-57.495,0-110.518,3.717-149.311,10.458
		C48.53,36.761,38.628,46.77,28.709,103.518c-14.419,82.38-14.633,220.998-0.48,302.699c9.674,55.85,19.683,65.768,76.47,75.714
		c39.563,6.917,95.595,10.878,153.744,10.878h0.009c57.364,0,110.273-3.687,149-10.39c55.895-9.72,65.796-19.729,75.714-76.492
		c14.412-82.403,14.61-221.036,0.442-302.745c-9.72-55.872-19.729-65.782-76.477-75.715
		C367.658,20.56,311.733,16.599,253.722,16.599"/>
	<path fill="#FA4D45" d="M410.495,136.791h-0.661c-4.118-16.063-18.575-27.947-35.83-27.947H137.849
		c-17.255,0-31.712,11.884-35.831,27.947h-0.662l-32.965,63.397c0,26.038,20.991,47.148,46.883,47.148
		c25.894,0,46.885-21.11,46.885-47.148c0,26.038,20.99,47.148,46.884,47.148c25.892,0,46.884-21.11,46.884-47.148
		c0,26.038,20.99,47.148,46.883,47.148c25.893,0,46.884-21.11,46.884-47.148c0,26.038,20.991,47.148,46.884,47.148
		c25.894,0,46.885-21.11,46.885-47.148L410.495,136.791z"/>
	<path fill="#FA4D45" d="M396.576,265.018c-1.978,0-3.93-0.106-5.86-0.287v-0.013c-1.685-0.153-3.337-0.407-4.982-0.688
		c-0.353-0.062-0.717-0.09-1.067-0.156c-0.763-0.145-1.498-0.359-2.25-0.531c-3.18-0.73-6.294-1.637-9.281-2.813v110.283H138.716
		V260.529c-2.992,1.178-6.109,2.085-9.292,2.815c-0.749,0.171-1.481,0.386-2.24,0.528c-0.351,0.066-0.716,0.095-1.071,0.157
		c-1.644,0.28-3.296,0.534-4.979,0.688v0.013c-1.93,0.181-3.882,0.287-5.861,0.287c-4.009,0-7.915-0.42-11.72-1.123v118.991
		c0,9.765,7.872,17.682,17.582,17.682h269.581c9.71,0,17.582-7.917,17.582-17.682V263.895
		C404.491,264.6,400.586,265.018,396.576,265.018"/>
	<path fill="#FA4D45" d="M282.778,327.177l2.159,2.699c-7.379,7.375-16.825,10.883-28.337,10.524
		c-22.67-0.721-34.367-11.697-35.084-32.924c1.619-22.308,13.494-34.182,35.625-35.625c21.05,0.902,32.115,10.889,33.195,29.957
		c-0.722,14.395-6.84,21.953-18.353,22.67c-5.937,0-8.547-3.146-7.825-9.446c-2.159,6.3-6.747,9.534-13.765,9.716
		c-8.095-0.184-12.236-5.486-12.414-15.924c0.899-13.313,7.018-20.418,18.353-21.32c5.397,0.182,8.543,2.521,9.445,7.018h0.271
		c0-0.178,0.27-2.248,0.81-6.207h5.397c-1.801,12.953-2.88,20.961-3.238,24.019c-1.079,6.3,0.358,9.176,4.318,8.636
		c7.193-0.898,11.064-7.105,11.604-18.621c-0.721-16.551-9.984-25.187-27.797-25.908c-18.714,1.442-28.7,11.787-29.956,31.037
		c0.717,18.17,10.614,27.703,29.687,28.606C267.844,335.9,276.479,332.932,282.778,327.177 M247.154,296.682
		c-2.158,3.061-3.33,7.286-3.508,12.684c0,7.557,2.876,11.335,8.637,11.335c3.057,0,5.667-1.257,7.825-3.778
		c2.336-2.336,3.778-5.398,4.317-9.176c0.178-0.717,0.359-1.977,0.54-3.778c0.178-0.897,0.271-1.526,0.271-1.888
		c0.178-6.115-2.698-9.447-8.636-9.986C252.822,292.093,249.673,293.624,247.154,296.682"/>
</g>
</svg>
