<?xml version="1.0" encoding="utf-8"?>
<!-- Generator: Adobe Illustrator 16.0.0, SVG Export Plug-In . SVG Version: 6.00 Build 0)  -->
<!DOCTYPE svg PUBLIC "-//W3C//DTD SVG 1.1//EN" "http://www.w3.org/Graphics/SVG/1.1/DTD/svg11.dtd">
<svg version="1.1" id="图层_1" xmlns="http://www.w3.org/2000/svg" xmlns:xlink="http://www.w3.org/1999/xlink" x="0px" y="0px"
	 width="512px" height="512px" viewBox="0 0 512 512" enable-background="new 0 0 512 512" xml:space="preserve">
<g>
	<path fill="#FF9933" d="M485.526,64.862c0,0-89.384-47.353-214.818-47.353c-2.933,0-5.833,0.048-8.75,0.112l-5.722-16.13
		l-5.849,16.48C134.402,22.88,42.788,67.731,42.788,67.731c-0.128,22.441,0.972,43.958,3.108,64.63h54.589
		c-0.51-8.033-0.861-16.225-1.004-24.609c0,0,49.074-35.83,134.696-44.086l-36.18,101.958H28.555l25.358,19.509
		c15.747,78.337,46.349,141.964,79.437,191.517l-20.098,64.296l44.994-29.996c0.271,0.351,0.558,0.732,0.829,1.067l42.237-28.688
		c-0.191-0.223-0.398-0.462-0.59-0.686l55.514-37.009l61.331,40.882c0,0,4.431-3.331,10.901-9.658
		c-18.138,20.879-39.526,41.472-64.742,61.124c0,0-15.843-9.356-37.678-29.486l-44.42,30.187
		c44.245,49.074,81.939,72.808,81.939,72.808C504.859,332.229,485.526,64.862,485.526,64.862 M152.684,314.825
		c-12.862-23.016-24.609-49.489-33.805-79.708l47.337,36.402L152.684,314.825z M360.84,334.556c1.101-1.96,2.168-3.953,3.22-6.024
		c-7.013-22.585-17.818-57.013-17.818-57.013l67.34-51.799c0,0,11.571-40.643,10.231-54.095H314.475L277.737,62.073
		c100.795,2.263,150.953,44.548,150.953,44.548S438.396,218.572,360.84,334.556"/>
</g>
</svg>
