<?xml version="1.0" encoding="utf-8"?>
<!-- Generator: Adobe Illustrator 16.0.0, SVG Export Plug-In . SVG Version: 6.00 Build 0)  -->
<!DOCTYPE svg PUBLIC "-//W3C//DTD SVG 1.1//EN" "http://www.w3.org/Graphics/SVG/1.1/DTD/svg11.dtd">
<svg version="1.1" id="图层_1" xmlns="http://www.w3.org/2000/svg" xmlns:xlink="http://www.w3.org/1999/xlink" x="0px" y="0px"
	 width="512px" height="512px" viewBox="0 0 512 512" enable-background="new 0 0 512 512" xml:space="preserve">
<g>
	<path fill="#47A6E9" d="M499.305,101.513c-10.842-62.465-25.834-77.347-89.15-88.423C369.842,6.04,312.932,2,254.06,2
		C195.7,2,141.724,5.809,102.082,12.688C39.622,23.544,24.74,38.535,13.68,101.84C-0.984,185.659-1.205,326.73,13.196,409.878
		c10.826,62.465,25.818,77.329,89.154,88.423c40.401,7.065,97.422,11.123,156.438,11.123c58.219,0,112.086-3.773,151.679-10.641
		c62.479-10.856,77.358-25.854,88.403-89.17C513.532,325.763,513.738,184.676,499.305,101.513 M483.488,406.945
		c-9.921,56.753-19.827,66.769-75.725,76.483c-38.721,6.709-91.636,10.394-148.994,10.394c-58.144,0-114.176-3.962-153.735-10.873
		c-56.784-9.952-66.801-19.874-76.473-75.726c-14.147-81.694-13.934-220.315,0.481-302.702
		c9.922-56.737,19.828-66.753,75.707-76.456c38.797-6.739,91.809-10.452,149.311-10.452c57.999,0,113.927,3.962,153.396,10.858
		c56.735,9.937,66.75,19.843,76.471,75.722C498.105,185.909,497.903,324.546,483.488,406.945"/>
	<path fill="#47A6E9" d="M150.684,320.184c0-2.991-0.508-5.862-1.43-8.542l9.607-4.707l-2.688-5.487l-9.572,4.688
		c-3.982-6.265-10.541-10.729-18.19-11.884v-20.938h-6.113v20.737c-13.469,1.104-24.061,12.378-24.061,26.131
		c0,14.483,11.744,26.222,26.227,26.222c8.167,0,15.46-3.733,20.269-9.586l14.702,7.204l2.689-5.491l-14.067-6.896
		C149.738,328.176,150.684,324.291,150.684,320.184"/>
	<path fill="#47A6E9" d="M122.297,217.02v20.833h6.113V216.82c7.322-1.106,13.648-5.24,17.669-11.085l10.094,4.942l2.688-5.49
		l-9.929-4.864c1.129-2.928,1.755-6.106,1.755-9.431c0-3.115-0.546-6.102-1.543-8.874l12.972-6.357l-2.687-5.49l-13.017,6.377
		c-4.684-7.152-12.762-11.88-21.949-11.88c-14.483,0-26.225,11.741-26.225,26.224C98.239,204.645,108.828,215.918,122.297,217.02"/>
	<path fill="#47A6E9" d="M358.78,190.896c0,3.652,0.748,7.129,2.097,10.288l-9.211,4.512l2.688,5.49l9.572-4.69
		c4.25,5.732,10.781,9.667,18.253,10.466v20.379h6.114v-20.439c12.933-1.62,22.935-12.642,22.935-26.008
		c0-14.484-11.738-26.228-26.228-26.228c-9.054,0-17.034,4.59-21.746,11.569l-11.571-5.671l-2.693,5.49l11.462,5.617
		C359.374,184.543,358.78,187.649,358.78,190.896"/>
	<path fill="#47A6E9" d="M252.063,282.145v2.481h6.114v-2.469c8.096-0.926,15.065-5.535,19.199-12.113l15.161,7.429l2.688-5.489
		L280,264.522c0.894-2.642,1.385-5.467,1.385-8.409c0-2.974-0.502-5.83-1.415-8.496l15.261-7.471l-2.688-5.49l-15.215,7.45
		c-4.14-6.54-11.087-11.121-19.151-12.044v-1.075h-6.114v1.086c-7.836,0.924-14.613,5.3-18.769,11.569l-15.312-7.497l-2.687,5.491
		l15.233,7.462c-1.029,2.811-1.591,5.847-1.591,9.013c0,3.137,0.553,6.145,1.563,8.933l-15.198,7.448l2.688,5.489l15.255-7.477
		C237.397,276.813,244.196,281.218,252.063,282.145"/>
	<rect x="252.063" y="320.088" fill="#47A6E9" width="6.114" height="25.271"/>
	<rect x="252.063" y="289.721" fill="#47A6E9" width="6.114" height="25.271"/>
	<rect x="252.063" y="198.62" fill="#47A6E9" width="6.114" height="25.272"/>
	<rect x="252.063" y="168.254" fill="#47A6E9" width="6.114" height="25.271"/>
	<rect x="122.297" y="242.949" fill="#47A6E9" width="6.113" height="25.271"/>
	<rect x="382.179" y="242.439" fill="#47A6E9" width="6.114" height="25.271"/>
	
		<rect x="160.792" y="293.337" transform="matrix(-0.898 0.4399 -0.4399 -0.898 459.563 486.2736)" fill="#47A6E9" width="25.276" height="6.111"/>
	
		<rect x="188.071" y="279.969" transform="matrix(-0.8981 0.4397 -0.4397 -0.8981 505.4224 448.9617)" fill="#47A6E9" width="25.273" height="6.111"/>
	
		<rect x="306.76" y="216.985" transform="matrix(-0.44 -0.898 0.898 -0.44 239.9252 608.8684)" fill="#47A6E9" width="6.113" height="25.275"/>
	
		<rect x="334.03" y="203.59" transform="matrix(-0.4398 -0.8981 0.8981 -0.4398 291.121 614.0573)" fill="#47A6E9" width="6.111" height="25.275"/>
	<path fill="#47A6E9" d="M388.293,291.66v-18.854h-6.114V291.6c-8.595,0.919-15.941,5.992-20.006,13.172l-7.819-3.828l-2.688,5.488
		l8.137,3.986c-0.661,2.303-1.022,4.733-1.022,7.249c0,5.509,1.702,10.618,4.603,14.837l-11.125,5.447l2.688,5.49l12.632-6.186
		c4.632,4.122,10.732,6.63,17.423,6.63c14.489,0,26.228-11.736,26.228-26.22C411.228,304.299,401.225,293.28,388.293,291.66"/>
	
		<rect x="170.368" y="203.091" transform="matrix(0.4397 -0.8981 0.8981 0.4397 -96.5863 276.6369)" fill="#47A6E9" width="6.113" height="25.279"/>
	
		<rect x="197.644" y="216.453" transform="matrix(0.4397 -0.8982 0.8982 0.4397 -93.3001 308.6315)" fill="#47A6E9" width="6.114" height="25.275"/>
	
		<rect x="297.19" y="279.49" transform="matrix(-0.898 -0.4401 0.4401 -0.898 463.6882 672.6125)" fill="#47A6E9" width="25.27" height="6.114"/>
	<polygon fill="#47A6E9" points="349.776,298.695 327.084,287.587 324.396,293.077 347.087,304.191 	"/>
	<polygon fill="#47A6E9" points="319.828,154.969 297.13,143.849 294.441,149.345 317.141,160.458 	"/>
	<polygon fill="#47A6E9" points="347.1,168.324 324.412,157.21 321.719,162.7 344.412,173.813 	"/>
	<polygon fill="#47A6E9" points="164.013,346.264 186.706,357.378 189.394,351.887 166.707,340.774 	"/>
	<polygon fill="#47A6E9" points="191.285,359.625 213.983,370.739 216.679,365.249 193.979,354.136 	"/>
	<polygon fill="#47A6E9" points="189.394,162.306 186.7,156.816 164,167.929 166.694,173.419 	"/>
	
		<rect x="200.916" y="139.116" transform="matrix(-0.4397 -0.8982 0.8982 -0.4397 157.3535 401.6722)" fill="#47A6E9" width="6.114" height="25.272"/>
	<path fill="#47A6E9" d="M221.237,146.708l12.774-6.258c4.196,5.717,10.652,9.668,18.052,10.541v12.167h6.114v-12.156
		c7.434-0.851,13.919-4.808,18.131-10.544l13.561,6.643l2.688-5.496l-13.221-6.473c1.32-3.131,2.05-6.571,2.05-10.181
		c0-14.483-11.738-26.224-26.22-26.224c-14.483,0-26.228,11.741-26.229,26.224c0,3.608,0.73,7.046,2.048,10.175l-12.435,6.091
		L221.237,146.708z"/>
	<path fill="#47A6E9" d="M293.13,366.918l-14.839,7.265c-3.968-7.409-11.39-12.687-20.114-13.686v-10.043h-6.114v10.054
		c-8.246,0.974-15.322,5.767-19.402,12.568l-11.409-5.586l-2.694,5.49l11.591,5.674c-0.785,2.49-1.211,5.141-1.211,7.891
		c0,14.483,11.745,26.221,26.229,26.221c14.482,0,26.22-11.737,26.22-26.221c0-2.3-0.298-4.529-0.854-6.655l15.287-7.483
		L293.13,366.918z"/>
	<polygon fill="#47A6E9" points="297.702,364.676 300.403,370.166 323.09,359.046 320.402,353.556 	"/>
	<polygon fill="#47A6E9" points="324.974,351.315 327.674,356.804 350.373,345.684 347.673,340.195 	"/>
</g>
</svg>
