<?xml version="1.0" encoding="utf-8"?>
<!-- Generator: Adobe Illustrator 16.0.0, SVG Export Plug-In . SVG Version: 6.00 Build 0)  -->
<!DOCTYPE svg PUBLIC "-//W3C//DTD SVG 1.1//EN" "http://www.w3.org/Graphics/SVG/1.1/DTD/svg11.dtd">
<svg version="1.1"
	 id="图层_1" xmlns:dc="http://purl.org/dc/elements/1.1/" xmlns:cc="http://creativecommons.org/ns#" xmlns:rdf="http://www.w3.org/1999/02/22-rdf-syntax-ns#"
	 xmlns="http://www.w3.org/2000/svg" xmlns:xlink="http://www.w3.org/1999/xlink" x="0px" y="0px" width="78px" height="67px"
	 viewBox="0 0 78 67" enable-background="new 0 0 78 67" xml:space="preserve">
<path fill="#00BCF2" d="M38.894,0c-1.749,0.006-3.508,0.842-4.758,2.51C32.175,5.123,1.786,56.001,0.267,59.218
	c-1.14,3.842,1.592,7.764,4.043,7.604c0.603,0.147,8.345,0.187,35.005,0.163c33.363-0.025,32.28,0.057,33.461-0.016
	c3.628,0.054,6.205-4.325,4.863-7.506c-0.182-0.41-4.123-6.96-8.759-14.56c-4.634-7.598-12.105-20.088-16.6-27.76
	c-4.495-7.67-8.406-14.272-8.695-14.669C42.376,0.818,40.644-0.005,38.894,0L38.894,0z M34.634,19.215h8.697
	c-0.47,7.012-0.748,15.417-1.177,23.604h-6.269C35.281,35.483,35.119,27.605,34.634,19.215L34.634,19.215z M38.976,47.285
	c2.776,0,5.028,2.25,5.028,5.02c0,2.775-2.252,5.02-5.028,5.02s-5.027-2.244-5.027-5.02C33.949,49.533,36.198,47.285,38.976,47.285z
	"/>
</svg>
