<?xml version="1.0" encoding="utf-8"?>
<!-- Generator: Adobe Illustrator 16.0.0, SVG Export Plug-In . SVG Version: 6.00 Build 0)  -->
<!DOCTYPE svg PUBLIC "-//W3C//DTD SVG 1.1//EN" "http://www.w3.org/Graphics/SVG/1.1/DTD/svg11.dtd">
<svg version="1.1" id="图层_1" xmlns="http://www.w3.org/2000/svg" xmlns:xlink="http://www.w3.org/1999/xlink" x="0px" y="0px"
	 width="512px" height="512px" viewBox="0 0 512 512" enable-background="new 0 0 512 512" xml:space="preserve">
<g>
	<path fill="#306CF1" d="M192.205,130.236c0-9.573,7.76-17.333,17.333-17.333h43.955L253.298,0L33.606,126.962L148.679,192.2h43.526
		V130.236z"/>
	<path fill="#306CF1" d="M319.601,130.236V192.2h43.848l114.309-64.805L258.065,0.433l-0.194,112.47h44.396
		C311.84,112.903,319.601,120.664,319.601,130.236"/>
	<path fill="#306CF1" d="M192.205,381.561v-61.964h-43.863L34.039,385.653l220.126,124.796l-0.192-111.556h-44.435
		C199.965,398.893,192.205,391.133,192.205,381.561"/>
	<path fill="#306CF1" d="M319.601,381.561c0,9.573-7.76,17.333-17.333,17.333h-44.01l-0.192,111.989L478.19,386.086l-115.054-66.49
		H319.6L319.601,381.561L319.601,381.561z"/>
	<path fill="#306CF1" d="M112.908,302.263v-92.729c0-9.573,7.76-17.333,17.333-17.333h10.348L31.045,129.855l1.227,251.755
		l107.723-62.015h-9.754C120.668,319.596,112.908,311.836,112.908,302.263"/>
	<path fill="#306CF1" d="M398.898,209.533v92.729c0,9.573-7.761,17.333-17.333,17.333h-9.287l107.723,62.015l1.227-251.755
		l-109.544,62.346h9.881C391.138,192.201,398.898,199.961,398.898,209.533"/>
</g>
</svg>
