<svg version="1.1" id="Layer_1" xmlns="http://www.w3.org/2000/svg" xmlns:xlink="http://www.w3.org/1999/xlink" x="0px" y="0px"
	 width="62px" height="75px" viewBox="0 0 62 75" enable-background="new 0 0 62 75" xml:space="preserve">
<g id="g12">
	<polygon fill="#FBBF93" points="47.54,57.709 31,54.063 14.46,57.709 31,75 	"/>
	<polygon fill="#6B3A19" points="0,24.583 31,0 62,24.583 31,28.334 	"/>
	<polygon fill="#F58536" points="31,15.417 62,24.583 62,15.521 31,0 	"/>
	<polygon fill="#F58536" points="55.757,35 31,33.854 31,48.854 55.757,45.104 	"/>
	<polygon fill="#9D5025" points="6.242,35 31,33.854 31,48.854 6.242,45.104 	"/>
	<polygon fill="#9D5025" points="31,15.417 0,24.583 0,15.521 31,0 	"/>
	<polygon fill="#F58536" points="47.54,57.709 31,63.438 31,75 47.54,66.771 	"/>
	<polygon fill="#9D5025" points="14.46,57.709 31,63.438 31,75 14.46,66.771 	"/>
</g>
</svg>
