<svg version="1.1" id="Layer_1" xmlns="http://www.w3.org/2000/svg" xmlns:xlink="http://www.w3.org/1999/xlink" x="0px" y="0px"
	 width="75px" height="75px" viewBox="0 0 75 75" enable-background="new 0 0 75 75" xml:space="preserve">
<path fill="#9D5025" d="M64.382,2.458H25.483c-5.59,0-10.172,4.583-10.172,10.172v2.458v15.982
	c6.26-0.224,12.295,3.354,15.089,9.386c1.231,2.575,1.677,5.371,1.34,8.05c-0.108,0.67-1.448,3.017-1.448,3.017v2.462
	c5.141-1.786,10.952,0.562,13.191,5.587c0.332,0.674,0.554,1.345,0.67,2.015h20.114c5.594,0,10.174-4.586,10.174-10.173V15.089
	V12.63C74.553,7.042,69.969,2.458,64.382,2.458z"/>
<path fill="#F58435" d="M64.382,0H25.483c-5.59,0-10.172,4.583-10.172,10.171v2.459v15.986c6.26-0.224,12.295,3.348,15.089,9.387
	c2.016,4.471,1.901,9.389-0.108,13.525c5.141-1.79,10.952,0.558,13.191,5.589c0.332,0.671,0.554,1.34,0.67,2.009h20.114
	c5.594,0,10.174-4.578,10.174-10.172V12.63v-2.459C74.553,4.583,69.969,0,64.382,0z"/>
<path fill="#9D5025" d="M28.392,45.045v-2.794l-4.363-0.671c-0.893-1.123-1.9-2.122-3.128-2.908l0.893-5.141l-4.582,1.116
	l-0.893,2.348c-1.342-0.223-2.795-0.223-4.248,0.114l-5.479-3.022v2.8l1.006,2.348c-1.118,0.893-2.122,1.901-2.905,3.125l-4.135,0.9
	v2.793l2.346,0.893c-0.111,0.562-0.111,1.116-0.111,1.786c0,0.785-2.013,0.785-2.013,0.785v2.793l2.013,4.471l2.235-1.003
	c0.671,0.895,1.452,1.674,2.347,2.347v0.111v2.794l4.584,1.677l0.893-2.348c1.454,0.223,2.906,0.223,4.248-0.11l1.006,2.234
	l4.471-2.012v-2.798v-0.331c0.783-0.67,1.453-1.564,2.012-2.348l2.349,0.893l1.678-4.586v-2.794l-2.347,1.901
	c0.222-1.454,0.222-2.794-0.115-4.247L28.392,45.045z"/>
<path fill="#9D5025" d="M40.012,65.389l2.123-0.672V61.92l-3.348-0.447c-0.677-1.003-1.454-1.785-2.462-2.231l0.445-2.239v-2.793
	l-4.582,4.136c-0.896,0.112-1.674,0.227-2.573,0.674c-0.224,0.107-0.447,0.223-0.67,0.331l-4.471-1.228v2.796l1.677,1.563
	c-0.107,0.335-0.335,0.892-0.335,0.892l-2.569,0.225v2.794l1.228,3.916l2.124-0.671c0.562,0.777,1.23,1.451,2.016,2.009v2.463
	L32.638,75l0.446-2.239c0.893-0.108,1.677-0.223,2.569-0.67c0.224-0.109,0.447-0.223,0.671-0.331l1.677,1.562l2.794-3.017v-2.794
	l-1.009-0.672C39.903,66.282,40.012,65.836,40.012,65.389z"/>
<path fill="#F58536" d="M28.392,42.251l-2.017-4.471l-2.235,1.007c-0.893-1.123-1.899-2.122-3.128-2.908l0.893-2.348l-4.582-1.676
	l-0.893,2.346c-1.342-0.222-2.795-0.222-4.247,0.115l-1.006-2.354l-4.472,2.017l1.008,2.347c-1.12,0.894-2.124,1.899-2.907,3.132
	l-2.347-0.9L0.78,43.144l2.347,0.893c-0.224,1.455-0.224,2.794,0.112,4.249l-2.235,1.007l2.012,4.471l2.235-1.007
	c0.895,1.231,1.901,2.123,3.13,2.909l-0.895,2.347l4.584,1.678l0.893-2.348c1.455,0.223,2.907,0.223,4.248-0.115l1.005,2.238
	l4.473-2.016l-1.007-2.232c1.231-0.893,2.124-1.899,2.906-3.131l2.349,0.893l1.678-4.579l-2.347-0.894
	c0.222-1.455,0.222-2.8-0.115-4.248L28.392,42.251z"/>
<path fill="#F58536" d="M40.012,62.593l2.123-0.673l-1.231-3.91l-2.116,0.67c-0.677-1.008-1.454-1.785-2.462-2.232l0.445-2.238
	l-4.023-0.894l-0.447,2.231c-0.893,0.117-1.678,0.225-2.57,0.678c-0.223,0.108-0.445,0.223-0.669,0.332l-1.678-1.563l-2.795,3.016
	l1.68,1.563c-0.451,1.006-0.785,2.122-0.785,3.354l-2.124,0.669l1.229,3.916l2.125-0.672c0.67,1.002,1.455,1.788,2.455,2.235
	l-0.445,2.235l4.024,0.896l0.446-2.238c0.893-0.109,1.678-0.224,2.57-0.671c0.223-0.11,0.445-0.222,0.669-0.335l1.678,1.565
	l2.793-3.016l-1.671-1.569C39.681,64.94,40.012,63.712,40.012,62.593z"/>
<path fill="#FFFFFF" d="M14.641,42.698c1.728,0,3.128,1.4,3.128,3.131c0,1.725-1.4,3.125-3.128,3.125c-1.728,0-3.13-1.4-3.13-3.125
	C11.511,44.099,12.913,42.698,14.641,42.698z"/>
<path fill="#FFFFFF" d="M32.748,60.695c1.109,0,2.015,0.899,2.015,2.009c0,1.11-0.905,2.013-2.015,2.013
	c-1.11,0-2.009-0.902-2.009-2.013C30.739,61.595,31.637,60.695,32.748,60.695z"/>
<polygon fill="#FFFFFF" points="54.655,28.393 66.951,16.097 63.597,12.742 54.655,3.801 54.655,8.271 40.682,8.271 40.682,12.742 
	40.682,23.919 54.655,23.919 "/>
<polygon fill="#FFFFFF" points="36.326,12.742 36.326,8.271 20.9,8.271 20.9,12.742 20.9,23.919 36.326,23.919 "/>
<polygon fill="#FFFFFF" points="71.198,42.474 67.843,39.119 58.901,30.179 58.901,34.648 44.928,34.648 44.928,39.119 44.928,50.3 
	58.901,50.3 58.901,54.879 "/>
<path fill="#FFFFFF" d="M30.4,38.003c0.115,0.332,0.339,0.784,0.446,1.116c1.347,3.687,1.23,7.711,0,11.181h9.835V39.119v-4.471
	H28.276C29.061,35.656,29.838,36.772,30.4,38.003z"/>
</svg>
