<svg version="1.1" id="Layer_1" xmlns="http://www.w3.org/2000/svg" xmlns:xlink="http://www.w3.org/1999/xlink" x="0px" y="0px"
	 width="62px" height="75px" viewBox="0 0 62 75" enable-background="new 0 0 62 75" xml:space="preserve">
<g id="g10">
	<polygon fill="#9D5025" points="0,59.479 3.953,61.563 5.619,61.145 5.826,32.811 3.953,32.708 0,33.125 	"/>
	<polygon fill="#F58435" points="11.131,59.789 3.953,61.563 3.953,32.708 11.131,33.02 	"/>
	<polygon fill="#9D5025" points="7.698,63.334 14.461,66.771 18.933,65.414 18.933,20.833 14.461,20 7.698,21.979 	"/>
	<polygon fill="#F58435" points="26.214,63.018 14.461,66.771 14.461,20 26.214,22.188 	"/>
	<polygon fill="#9D5025" points="51.91,21.355 51.91,53.75 59.713,54.999 59.713,20 	"/>
	<polygon fill="#6B3B19" points="33.809,19.479 35.473,9.689 58.046,17.917 58.046,23.228 52.014,24.062 	"/>
	<polygon fill="#FBBF92" points="31.728,56.146 38.281,63.958 58.046,57.186 58.046,51.874 52.014,51.042 	"/>
	<polygon fill="#9D5025" points="19.973,69.479 31,75 37.554,71.662 39.736,4.377 31,0 19.973,5.522 	"/>
	<path fill="#F58435" d="M31,0v74.998l31-15.623V15.521L31,0z M58.046,51.874l-17.787,5.312V17.917l17.787,5.312V51.874z"/>
</g>
</svg>
