<svg version="1.1" id="Layer_1" xmlns="http://www.w3.org/2000/svg" xmlns:xlink="http://www.w3.org/1999/xlink" x="0px" y="0px"
	 width="64px" height="77px" viewBox="0 0 64 77" enable-background="new 0 0 64 77" xml:space="preserve">
<g id="g12">
	<polygon fill="#FBBF93" points="63.894,42.993 31.894,41.71 0,42.993 31.894,57.645 	"/>
	<polygon fill="#9D5025" points="0,38.5 38.42,38.5 38.42,3.208 32,0 0,15.935 	"/>
	<polygon fill="#FBBF93" points="64,54.325 32,49.729 0,54.325 32.106,77 	"/>
	<polygon fill="#9D5025" points="32,38.5 48.911,38.5 48.911,14.438 43.985,12.513 32,15.935 	"/>
	<polygon fill="#9D5025" points="43.985,38.5 57.045,38.5 57.045,22.887 53.297,21.816 43.985,23.313 	"/>
	<polygon fill="#9D5025" points="53.297,38.5 63.894,38.5 64,20.426 60.791,19.143 53.297,20.533 	"/>
	<polygon fill="#F58536" points="38.42,3.208 32,0 32,38.5 38.42,38.5 	"/>
	<polygon fill="#F58536" points="48.911,14.438 43.985,12.513 43.985,38.5 48.911,38.5 	"/>
	<polygon fill="#F58536" points="57.045,22.887 53.297,21.816 53.297,38.5 57.045,38.5 	"/>
	<polygon fill="#F58536" points="60.791,19.143 64,20.426 64,38.5 60.791,38.5 	"/>
	<polygon fill="#F58536" points="63.894,49.729 31.894,57.645 31.894,46.198 63.894,42.993 	"/>
	<polygon fill="#F58536" points="64,54.325 31.894,65.663 31.894,77 64,60.96 	"/>
	<polygon fill="#9D5025" points="0,54.325 31.894,65.557 31.894,77 0,61.064 	"/>
	<polygon fill="#9D5025" points="0,42.993 31.894,46.198 31.894,57.645 0,49.729 	"/>
</g>
</svg>
