<svg version="1.1" id="Layer_1" xmlns="http://www.w3.org/2000/svg" xmlns:xlink="http://www.w3.org/1999/xlink" x="0px" y="0px"
	 width="75px" height="75px" viewBox="0 0 75 75" enable-background="new 0 0 75 75" xml:space="preserve">
<path fill="#9D5025" d="M61.014,75H13.986C7.23,75,1.689,69.46,1.689,62.703V15.677c0-6.757,5.541-12.299,12.297-12.299h47.027
	c6.757,0,12.297,5.542,12.297,12.299v47.026C73.311,69.46,67.771,75,61.014,75z"/>
<path fill="#F58435" d="M61.014,71.621H13.986c-6.756,0-12.297-5.54-12.297-12.297V12.298C1.689,5.542,7.23,0,13.986,0h47.027
	c6.757,0,12.297,5.542,12.297,12.298v47.026C73.311,66.081,67.771,71.621,61.014,71.621z"/>
<polygon fill="#FFFFFF" points="13.716,47.297 13.716,60.811 32.365,60.811 32.365,47.297 32.365,41.892 13.716,41.892 "/>
<polygon fill="#FFFFFF" points="49.257,34.325 64.121,19.46 60.067,15.406 49.257,4.596 49.257,10.001 32.365,10.001 32.365,15.406 
	32.365,28.92 49.257,28.92 "/>
<polygon fill="#FFFFFF" points="27.095,15.406 27.095,10.001 8.446,10.001 8.446,15.406 8.446,28.92 27.095,28.92 "/>
<polygon fill="#FFFFFF" points="54.392,36.486 54.392,41.892 37.5,41.892 37.5,47.297 37.5,60.811 54.392,60.811 54.392,66.354 
	69.256,51.352 65.202,47.297 "/>
</svg>
