<svg version="1.1" id="Layer_1" xmlns="http://www.w3.org/2000/svg" xmlns:xlink="http://www.w3.org/1999/xlink" x="0px" y="0px"
	 width="76px" height="55px" viewBox="0 0 76 55" enable-background="new 0 0 76 55" xml:space="preserve">
<g id="g10">
	<path fill="#9D5025" d="M71.994,16.961h-2.771c-2.055,0-3.803,1.132-4.006,3.085h-4.624c-0.512-3.906-2.052-7.195-3.8-7.195h-1.231
		h-6.266v-1.235c0-2.158-0.924-3.906-3.185-3.906h-5.031V5.654h6.162c0.718,0,2.052-1.028,2.052-1.747V3.7c0-0.719,0-2.57,0-2.57
		H23.622c0,0,0,1.851,0,2.57v0.207c0,0.719,0.822,1.747,1.54,1.747h6.676V7.71h-5.547c-2.156,0-4.724,1.646-4.724,3.906v1.235
		h-8.422c-2.156,0-3.902,2.056-3.902,4.318v12.13H4.108v-13.57c0-0.719-1.028-1.439-2.055-1.439C1.028,14.289,0,14.906,0,15.729
		V47.6c0,0.718,1.028,1.438,2.054,1.438c1.028,0,2.055-0.616,2.055-1.438V34.438h5.134v11.412c0,2.16,1.746,4.01,3.902,4.01H30.81
		c0.72,3.083,1.952,5.14,3.492,5.14H57c1.951,0,3.594-4.112,3.903-8.225h4.828v0.617c0,2.161,1.335,3.495,3.492,3.495h2.771
		c2.158,0,4.006-1.234,4.006-3.495V20.663C76,18.505,74.252,16.961,71.994,16.961z"/>
	<path fill="#F58536" d="M71.994,14.393h-2.771c-2.055,0-3.803,1.131-4.006,3.084h-4.624c-0.512-3.906-2.052-7.197-3.8-7.197h-1.231
		h-6.266V9.047c0-2.158-0.924-3.906-3.185-3.906h-5.031V3.085h6.162c0.718,0,2.052-1.029,2.052-1.748V1.131
		C49.295,0.412,47.961,0,47.243,0H25.162c-0.718,0-1.54,0.411-1.54,1.131v0.206c0,0.719,0.822,1.748,1.54,1.748h6.676v2.056h-5.547
		c-2.156,0-4.724,1.645-4.724,3.906v1.233h-8.422c-2.156,0-3.902,2.16-3.902,4.318v12.13H4.108V13.158
		c0-0.719-1.028-1.439-2.055-1.439C1.028,11.719,0,12.336,0,13.158v31.87c0,0.721,1.028,1.438,2.054,1.438
		c1.028,0,2.055-0.616,2.055-1.438V31.87h5.134v11.409c0,2.161,1.746,4.01,3.902,4.01H30.81c0.72,3.086,1.952,5.143,3.492,5.143H57
		c1.951,0,3.594-4.114,3.903-8.226h4.828v0.616c0,2.16,1.335,3.495,3.492,3.495h2.771c2.158,0,4.006-1.233,4.006-3.495V18.093
		C76,15.935,74.252,14.393,71.994,14.393z"/>
	<g id="g12" enable-background="new    ">
		<path fill="#FFFFFF" d="M16.536,24.056h1.644l2.875,7.709l2.876-7.709h1.643v9.15h-1.129v-7.608l0,0l-2.876,7.608h-1.026
			l-2.876-7.608l0,0v7.608h-1.13V24.056z"/>
		<path fill="#FFFFFF" d="M33.276,33.103c-0.206,0.104-0.411,0.206-0.823,0.206c-0.514,0-0.924-0.31-0.924-1.029
			c-0.617,0.72-1.438,1.029-2.362,1.029c-1.232,0-2.158-0.516-2.158-1.853c0-1.541,1.13-1.851,2.26-2.054
			c1.232-0.205,2.26-0.105,2.26-0.926c0-0.926-0.822-1.13-1.438-1.13c-0.924,0-1.642,0.309-1.642,1.234h-1.131
			c0.104-1.646,1.335-2.159,2.773-2.159c1.232,0,2.465,0.308,2.465,1.85v3.394c0,0.514,0,0.72,0.309,0.72
			c0.102,0,0.205,0,0.308-0.104v0.823H33.276L33.276,33.103z M31.53,29.813c-0.412,0.309-1.234,0.309-1.952,0.412
			c-0.718,0.103-1.334,0.408-1.334,1.231c0,0.72,0.616,0.926,1.232,0.926c1.437,0,2.055-0.926,2.055-1.543V29.813z"/>
		<path fill="#FFFFFF" d="M34.303,26.523h1.13v0.926l0,0c0.308-0.721,1.232-1.029,2.054-1.029c2.055,0,3.082,1.646,3.082,3.495
			c0,1.85-1.027,3.393-2.979,3.393c-0.717,0-1.643-0.206-2.157-1.028l0,0v3.394h-1.13V26.523z M37.384,27.346
			c-1.438,0-2.054,1.234-2.054,2.467c0,1.336,0.616,2.468,2.054,2.468s1.95-1.232,1.95-2.568
			C39.438,28.58,38.821,27.346,37.384,27.346z"/>
		<path fill="#FFFFFF" d="M42.108,24.056h4.313c1.748,0,2.774,0.925,2.774,2.365c0,1.129-0.514,2.056-1.541,2.262l0,0
			c1.027,0.205,1.232,1.028,1.334,1.851c0.103,0.923,0,1.851,0.515,2.467h-1.335c-0.31-0.41-0.104-1.336-0.31-2.261
			c-0.204-0.721-0.409-1.44-1.643-1.44h-2.978v3.907h-1.13V24.056z M45.805,28.271c1.131,0,2.054-0.308,2.054-1.644
			c0-0.925-0.513-1.542-1.643-1.542h-2.978v3.186H45.805z"/>
		<path fill="#FFFFFF" d="M54.33,24.056h1.643l2.876,7.709l2.876-7.709h1.644v9.15h-1.13v-7.608l0,0l-2.876,7.608h-1.028
			l-2.876-7.608l0,0v7.608H54.33V24.056z"/>
		<path fill="#FFFFFF" d="M70.967,25.187c-1.849,1.851-3.285,5.14-3.49,8.019h-1.231c0.204-3.085,1.644-5.86,3.594-7.918h-4.726
			v-1.027h5.854V25.187z"/>
	</g>
</g>
</svg>