<svg version="1.1" id="Layer_1" xmlns="http://www.w3.org/2000/svg" xmlns:xlink="http://www.w3.org/1999/xlink" x="0px" y="0px"
	 width="76px" height="55px" viewBox="0 0 76 55" enable-background="new 0 0 76 55" xml:space="preserve">
<g>
	<path fill="#9D5025" d="M71.994,16.961h-2.771c-2.055,0-3.803,1.132-4.006,3.085h-4.624c-0.512-3.906-2.052-7.195-3.8-7.195h-1.231
		h-6.266v-1.235c0-2.158-0.924-3.906-3.185-3.906h-5.031V5.654h6.162c0.718,0,2.052-1.028,2.052-1.747V3.7c0-0.719,0-2.57,0-2.57
		H23.622c0,0,0,1.851,0,2.57v0.207c0,0.719,0.822,1.747,1.54,1.747h6.676V7.71h-5.547c-2.156,0-4.724,1.646-4.724,3.906v1.235
		h-8.422c-2.156,0-3.902,2.056-3.902,4.318v12.13H4.108v-13.57c0-0.719-1.028-1.438-2.055-1.438C1.028,14.29,0,14.906,0,15.729V47.6
		c0,0.718,1.028,1.438,2.054,1.438c1.028,0,2.055-0.616,2.055-1.438V34.438h5.134v11.412c0,2.16,1.746,4.01,3.902,4.01H30.81
		c0.72,3.083,1.952,5.14,3.492,5.14H57c1.951,0,3.594-4.112,3.903-8.225h4.828v0.617c0,2.161,1.335,3.495,3.492,3.495h2.771
		c2.158,0,4.006-1.234,4.006-3.495V20.663C76,18.505,74.252,16.961,71.994,16.961z"/>
	<path fill="#F58536" d="M71.994,14.393h-2.771c-2.055,0-3.803,1.131-4.006,3.084h-4.624c-0.512-3.906-2.052-7.197-3.8-7.197h-1.231
		h-6.266V9.047c0-2.158-0.924-3.906-3.185-3.906h-5.031V3.085h6.162c0.718,0,2.052-1.029,2.052-1.748V1.131
		C49.295,0.412,47.961,0,47.243,0H25.162c-0.718,0-1.54,0.411-1.54,1.131v0.206c0,0.719,0.822,1.748,1.54,1.748h6.676v2.056h-5.547
		c-2.156,0-4.724,1.645-4.724,3.906v1.233h-8.422c-2.156,0-3.902,2.16-3.902,4.318v12.13H4.108V13.158
		c0-0.719-1.028-1.439-2.055-1.439C1.028,11.719,0,12.336,0,13.158v31.87c0,0.721,1.028,1.438,2.054,1.438
		c1.028,0,2.055-0.616,2.055-1.438V31.87h5.134v11.409c0,2.161,1.746,4.01,3.902,4.01H30.81c0.72,3.086,1.952,5.143,3.492,5.143H57
		c1.951,0,3.594-4.114,3.903-8.226h4.828v0.616c0,2.16,1.335,3.495,3.492,3.495h2.771c2.158,0,4.006-1.233,4.006-3.495V18.093
		C76,15.935,74.252,14.393,71.994,14.393z"/>
</g>
</svg>
