<svg version="1.1" id="Layer_1" xmlns="http://www.w3.org/2000/svg" xmlns:xlink="http://www.w3.org/1999/xlink" x="0px" y="0px"
	 width="62px" height="75px" viewBox="0 0 62 75" enable-background="new 0 0 62 75" xml:space="preserve">
<polygon fill="#9D5025" points="16.02,37.5 12.484,58.854 3.121,61.04 0,59.479 0,37.5 "/>
<polygon fill="#6B3A19" points="62,29.896 31,32.187 0,29.896 31,0 "/>
<polygon fill="#F58536" points="37.139,37.5 3.121,37.5 3.121,61.04 37.139,53.229 "/>
<polygon fill="#9D5025" points="20.181,37.5 21.222,61.563 10.402,64.688 6.554,62.813 6.554,37.5 "/>
<polygon fill="#F58536" points="47.332,37.5 10.402,37.5 10.402,64.688 47.332,54.167 "/>
<polygon fill="#9D5025" points="27.88,37.5 27.88,66.043 19.349,69.166 14.564,66.771 14.564,37.5 "/>
<polygon fill="#F58536" points="55.445,37.5 19.349,37.5 19.349,69.166 55.445,56.041 "/>
<polygon fill="#9D5025" points="24.861,71.874 24.861,37.5 48.268,37.5 59.505,60.729 31,75 "/>
<polygon fill="#F58536" points="31,75 31,37.5 62,37.5 62,59.479 "/>
<polygon fill="#F58536" points="62,29.896 31,24.583 31,0 62,15.521 "/>
<polygon fill="#9D5025" points="0,29.896 31,24.583 31,0 0,15.521 "/>
</svg>
