<svg version="1.1" id="Layer_1" xmlns="http://www.w3.org/2000/svg" xmlns:xlink="http://www.w3.org/1999/xlink" x="0px" y="0px"
	 width="69px" height="78px" viewBox="0 0 69 78" enable-background="new 0 0 69 78" xml:space="preserve">
<path fill="#9D5025" d="M65.923,34.961c1.529,0,2.791-1.244,2.791-2.795V22.008c0-1.531-1.262-2.785-2.791-2.785H55.777
	c-0.691,0-1.26,0.276-1.668,0.552l-6.253-4.733v-8.77c0-1.54-1.262-2.795-2.791-2.795H34.903c-1.53,0-2.771,1.254-2.771,2.795V16.44
	c0,0.418,0.143,0.837,0.282,1.245l-9.47,11.28H4.176C1.813,28.965,0,30.78,0,33.146v19.092c0,2.366,1.813,4.182,4.176,4.182H23.23
	c0.408,0,0.692,0,1.102-0.142l7.94,8.216c0,0.127,0,0.411,0,0.551v10.163c0,1.547,1.244,2.792,2.771,2.792h10.165
	c1.53,0,2.77-1.243,2.77-2.792v-8.916c2.1-1.67,4.321-3.202,6.274-4.731c0.407,0.43,1.1,0.694,1.792,0.694h10.165
	c1.53,0,2.791-1.244,2.791-2.773v-10.18c0-1.533-1.261-2.773-2.791-2.773H62.87V34.963h3.053V34.961z M54.252,36.777l-2.363-4.875
	l1.104-0.429v0.693c0,1.264,0.975,2.366,2.098,2.651L54.252,36.777z M46.737,62.823c-0.287-0.284-0.692-0.428-0.979-0.428
	l4.319-8.913l3.056,0.693v3.773C51.318,59.337,49.24,60.866,46.737,62.823z M35.616,19.357h6.253l5.15,10.586l-19.615,6.404v-3.202
	c0-1.102-0.426-2.08-1.118-2.774L35.616,19.357z M52.99,23.396v4.466l-2.646,0.836l-4.586-9.475
	c0.429-0.141,0.692-0.284,1.122-0.558L52.99,23.396z M27.404,52.238v-4.323l19.188,4.73l-4.724,9.607h-6.945l0,0l-7.944-8.22
	C27.264,53.482,27.404,52.933,27.404,52.238z M55.207,46.67c-1.241,0.265-2.076,1.387-2.076,2.631v1.408l-1.528-0.43l2.647-5.567
	L55.207,46.67z M48.122,49.443l-20.714-5.161v-4.303l21.141-6.977l3.748,7.813L48.122,49.443z M59.119,46.526h-0.144l-2.79-5.854
	l2.79-5.854h0.144V46.526z"/>
<path fill="#F58536" d="M65.923,31.474c1.529,0,2.791-1.243,2.791-2.775V18.521c0-1.53-1.262-2.784-2.791-2.784H55.777
	c-0.691,0-1.26,0.285-1.668,0.562l-6.255-4.735v-8.78c0-1.53-1.26-2.784-2.789-2.784H34.903c-1.53,0-2.771,1.254-2.771,2.784v10.168
	c0,0.418,0.143,0.837,0.282,1.255l-9.47,11.286H4.176C1.813,25.494,0,27.292,0,29.659V48.75c0,2.366,1.813,4.183,4.176,4.183H23.23
	c0.408,0,0.692,0,1.102-0.144l7.94,8.217c0,0.146,0,0.41,0,0.551v10.177c0,1.533,1.244,2.774,2.771,2.774h10.165
	c1.53,0,2.77-1.241,2.77-2.774v-8.91c2.1-1.671,4.321-3.202,6.274-4.731c0.407,0.409,1.1,0.694,1.792,0.694h10.165
	c1.53,0,2.791-1.266,2.791-2.795V45.954c0-1.529-1.261-2.773-2.791-2.773H62.87V31.616h3.053V31.474L65.923,31.474z M54.252,33.289
	l-2.363-4.875l1.104-0.41v0.693c0,1.244,0.975,2.365,2.098,2.631L54.252,33.289z M46.737,59.479
	c-0.287-0.286-0.692-0.429-0.979-0.429l4.319-8.914l3.056,0.693v3.774C51.318,55.848,49.24,57.521,46.737,59.479z M35.616,15.88
	h6.253l5.15,10.576l-19.616,6.423v-3.221c0-1.103-0.426-2.082-1.118-2.775L35.616,15.88z M52.99,19.918v4.458l-2.646,0.836
	l-4.586-9.475c0.429-0.133,0.692-0.275,1.122-0.551L52.99,19.918z M27.404,48.893v-4.323l19.188,4.732l-4.724,9.605h-6.945l0,0
	l-7.944-8.198C27.264,50.137,27.404,49.443,27.404,48.893z M55.207,43.183c-1.241,0.285-2.076,1.387-2.076,2.651v1.388l-1.528-0.43
	l2.647-5.568L55.207,43.183z M48.122,45.954l-20.714-4.996v-4.325l21.141-6.975l3.748,7.812L48.122,45.954z M59.119,43.183h-0.144
	l-2.79-5.855l2.79-5.854h0.144V43.183z"/>
</svg>
