<svg version="1.1" id="Layer_1" xmlns="http://www.w3.org/2000/svg" xmlns:xlink="http://www.w3.org/1999/xlink" x="0px" y="0px"
	 width="75px" height="75px" viewBox="0 0 75 75" enable-background="new 0 0 75 75" xml:space="preserve">
<path fill="#9D5025" d="M73.451,57.364C73.451,69.287,66.625,75,58.3,75s-15.151-5.341-15.151-16.637
	c0-8.325,6.826-12.295,15.151-12.295C66.739,46.068,73.451,49.053,73.451,57.364z"/>
<path fill="#F58536" d="M58.3,42.213c8.364,0,15.151,6.787,15.151,15.151c0,8.363-6.787,15.151-15.151,15.151
	c-8.363,0-15.151-6.788-15.151-15.151C43.148,49,49.937,42.213,58.3,42.213z"/>
<g enable-background="new    ">
	<path fill="#FFFFFF" d="M53.588,49.924h2.098v7.94l8.082-7.94h2.729l-6.711,6.455l6.954,9.554h-2.728L58.3,57.864l-2.614,2.484
		v5.584h-2.098V49.924z"/>
</g>
<path fill="#9D5025" d="M57.685,3.478L7.884,0C4.406,0,1.55,2.856,1.55,6.333v57.985c0,0.5,0.129,1,0.25,1.499
	c0.5,2.471,2.363,4.341,4.842,4.712c0.378,0.13,0.621,0.13,0.999,0.13l0,0h36.251c-0.986-1.242-1.985-2.614-2.6-4.099l-22.727-0.372
	c9.061-3.983,20.742-9.695,20.742-12.294c0-4.354,10.424-20.492,28.173-11.795V5.962C67.48,2.606,61.156,3.478,57.685,3.478z"/>
<path fill="#F58536" d="M39.051,57.364c0-11.425,9.067-20.606,20.361-20.606c2.985,0,5.597,0.614,8.068,1.741V5.962
	C67.48,2.735,65.254,0,61.897,0H7.64C4.405,0,1.549,2.735,1.549,5.962v55.128c0,3.228,2.735,5.955,6.091,5.955h33.766
	C39.922,64.575,39.051,60.848,39.051,57.364z"/>
</svg>
