<svg version="1.1" id="Layer_1" xmlns="http://www.w3.org/2000/svg" xmlns:xlink="http://www.w3.org/1999/xlink" x="0px" y="0px"
	 width="68px" height="75px" viewBox="0 0 68 75" enable-background="new 0 0 68 75" xml:space="preserve">
<g id="g12">
	<polygon fill="#9D5025" points="51.228,33.988 65.96,33.87 68,33.87 68,57.891 65.96,59.025 51.228,55.739 	"/>
	<polygon fill="#9D5025" points="34,56.083 58.48,62.766 62.336,60.725 62.336,23.224 58.48,22.434 34,25.039 	"/>
	<polygon fill="#9D5025" points="12.805,55.396 48.391,67.75 54.063,64.915 54.063,2.944 48.391,0 12.805,12.574 	"/>
	<polygon fill="#9D5025" points="0,58.006 34,75 41.705,71.035 41.705,33.87 0,33.87 	"/>
	<polygon fill="#F58435" points="41.705,71.035 34,75 34,33.87 41.705,33.87 	"/>
	<polygon fill="#F58435" points="54.063,2.944 48.391,0 48.391,67.75 54.063,64.915 	"/>
	<polygon fill="#F58435" points="62.336,60.725 58.48,62.766 58.48,22.434 62.336,23.224 	"/>
	<polygon fill="#F58435" points="68,57.891 65.96,59.025 65.96,33.87 68,33.87 	"/>
</g>
</svg>
