<svg version="1.1" id="Layer_1" xmlns="http://www.w3.org/2000/svg" xmlns:xlink="http://www.w3.org/1999/xlink" x="0px" y="0px"
	 width="63px" height="76px" viewBox="0 0 63 76" enable-background="new 0 0 63 76" xml:space="preserve">
<g id="g12">
	<polygon fill="#9D5025" points="44.85,46.445 52.553,47.184 63,45.391 63,34.201 52.553,33.354 44.85,33.777 	"/>
	<polygon fill="#6B3A19" points="63,26.917 31.551,30.189 0,26.917 31.551,0 	"/>
	<polygon fill="#FBBF93" points="47.275,49.083 57.721,62.805 63,49.083 53.079,48.028 	"/>
	<polygon fill="#9D5025" points="47.275,49.083 57.827,50.456 57.827,62.805 47.275,60.271 	"/>
	<polygon fill="#FBBF93" points="35.879,51.088 47.38,68.083 54.661,51.088 43.687,49.717 	"/>
	<polygon fill="#9D5025" points="35.879,51.088 47.275,52.989 47.275,68.083 35.879,64.391 	"/>
	<polygon fill="#F58536" points="63,26.917 31.551,19.105 31.551,0 63,15.728 	"/>
	<polygon fill="#FBBF93" points="15.724,49.083 5.381,62.805 0,49.083 9.918,48.028 	"/>
	<polygon fill="#F58536" points="15.724,49.083 5.169,50.456 5.169,62.805 15.724,60.271 	"/>
	<polygon fill="#FBBF93" points="27.119,51.088 15.619,68.083 8.336,51.088 19.312,49.717 	"/>
	<polygon fill="#F58536" points="27.119,51.088 15.724,52.989 15.724,68.083 27.119,64.391 	"/>
	<polygon fill="#FBBF93" points="42.948,54.044 31.551,51.935 20.052,54.044 31.551,76 	"/>
	<polygon fill="#F58536" points="42.948,54.044 31.551,56.896 31.551,76 42.948,70.299 	"/>
	<polygon fill="#9D5025" points="5.169,50.35 0,49.083 0,60.271 5.169,62.805 	"/>
	<polygon fill="#9D5025" points="8.336,51.088 15.724,52.989 15.724,68.083 8.336,64.391 	"/>
	<polygon fill="#F58536" points="57.827,50.35 63,49.083 63,60.271 57.827,62.805 	"/>
	<polygon fill="#F58536" points="54.661,51.088 47.275,52.989 47.275,68.083 54.661,64.391 	"/>
	<polygon fill="#9D5025" points="0,26.917 31.551,19.105 31.551,0 0,15.728 	"/>
	<polygon fill="#9D5025" points="20.052,54.044 31.551,56.896 31.551,76 20.052,70.299 	"/>
	<polygon fill="#F58536" points="63,34.201 52.553,33.354 52.553,47.184 63,45.391 	"/>
	<polygon fill="#9D5025" points="0,34.201 10.448,33.354 18.15,33.777 18.15,46.445 10.448,47.184 0,45.391 	"/>
	<polygon fill="#F58536" points="18.15,46.445 10.448,47.184 10.448,33.354 18.15,33.777 	"/>
	<polygon fill="#9D5025" points="15.724,32.934 31.551,31.667 47.275,32.934 47.275,48.135 31.551,50.771 15.724,48.135 	"/>
	<polygon fill="#F58536" points="47.275,32.934 31.551,31.667 31.551,50.771 47.275,48.135 	"/>
</g>
</svg>
