<svg version="1.1" id="Layer_1" xmlns="http://www.w3.org/2000/svg" xmlns:xlink="http://www.w3.org/1999/xlink" x="0px" y="0px"
	 width="75px" height="75px" viewBox="0 0 75 75" enable-background="new 0 0 75 75" xml:space="preserve">
<path fill="#9D5025" d="M14.362,2.926h46.276c6.648,0,12.1,5.452,12.1,12.102v2.925v17.421c-2.394-1.197-7.58-2.527-15.425-2.527
	c-3.459,0-6.384,0.267-8.909,0.665c-5.187,0.931-7.979,2.394-7.979,3.324v34.573c0,0.533,0.797,1.33,2.261,2.13h-2.261H14.362
	c-6.649,0-12.101-5.454-12.101-12.103V17.952v-2.925C2.262,8.378,7.713,2.926,14.362,2.926z"/>
<path fill="#F58435" d="M14.362,0h46.276c6.648,0,12.1,5.454,12.1,12.103v2.925v17.42c-2.394-1.197-7.58-2.527-15.425-2.527
	c-3.459,0-6.384,0.267-8.909,0.665c-5.187,0.931-7.979,2.394-7.979,3.324v34.573c0,0.533,0.797,1.33,2.261,2.129h-2.261H14.362
	c-6.649,0-12.101-5.453-12.101-12.102V15.027v-2.926C2.262,5.452,7.713,0,14.362,0z"/>
<path fill="#9D5025" d="M58.51,39.229c-2.926,0-5.451,0.266-7.446,0.532c-2.526,0.398-6.648-0.532-6.648-0.532s0,3.061,0,3.324
	c0,0.799,2.261,1.994,6.648,2.793c1.995,0.4,4.521,0.531,7.446,0.531c9.176,0,14.229-2.127,14.229-3.324c0-0.398,0-3.324,0-3.324
	S65.026,39.229,58.51,39.229z"/>
<path fill="#9D5025" d="M44.148,48.938v22.738c0,1.197,3.989,3.324,13.431,3.324c5.187,0,9.176-0.664,11.702-1.329
	c1.861-0.665,3.191-1.33,3.325-1.862V49.203c-2.794,1.729-8.51,2.659-14.097,2.659h-0.398c-0.532,0-1.197,0-1.729,0h-0.267
	c-0.532,0-0.931,0-1.462-0.133c-0.267,0-0.532,0-0.665,0c-0.399,0-0.8,0-1.064-0.132c-0.265,0-0.4,0-0.665-0.136
	c-0.4,0-0.799-0.132-1.196-0.132C48.006,50.798,45.611,49.866,44.148,48.938z"/>
<path fill="#F58536" d="M58.51,35.904c-2.926,0-5.451,0.266-7.446,0.532c-4.388,0.665-6.648,1.994-6.648,2.792
	c0,0.799,2.261,1.994,6.648,2.793c1.995,0.4,4.521,0.531,7.446,0.531c9.176,0,14.229-2.127,14.229-3.324
	C72.738,38.032,67.686,35.904,58.51,35.904z"/>
<path fill="#F58536" d="M44.148,45.613v22.738c0,1.197,3.989,3.324,13.431,3.324c5.187,0,9.176-0.665,11.702-1.329
	c1.861-0.665,3.191-1.33,3.325-1.862V45.878c-2.794,1.73-8.51,2.66-14.097,2.66h-0.398c-0.532,0-1.197,0-1.729,0h-0.267
	c-0.532,0-0.931,0-1.462-0.133c-0.267,0-0.532,0-0.665,0c-0.399,0-0.8,0-1.064-0.133c-0.265,0-0.4,0-0.665-0.135
	c-0.4,0-0.799-0.132-1.196-0.132C48.006,47.473,45.611,46.542,44.148,45.613z"/>
<path fill="#9D5025" d="M14.362,70.478h28.324v2.926H14.362c-6.649,0-12.101-5.451-12.101-12.101v-2.926
	C2.262,65.026,7.713,70.478,14.362,70.478z"/>
<path fill="#FFFFFF" d="M59.707,15.16L49.069,4.521v5.319H32.447v5.319v13.298h16.622v1.994c1.195-0.134,2.394-0.266,3.723-0.398
	l10.904-10.904L59.707,15.16z"/>
<polygon fill="#FFFFFF" points="8.91,15.16 8.91,28.458 27.261,28.458 27.261,15.16 27.261,9.841 8.91,9.841 "/>
<polygon fill="#FFFFFF" points="14.096,46.542 14.096,59.84 32.447,59.84 32.447,46.542 32.447,41.223 14.096,41.223 "/>
</svg>
