<?xml version="1.0" encoding="utf-8"?>
<!-- Generator: Adobe Illustrator 16.0.0, SVG Export Plug-In . SVG Version: 6.00 Build 0)  -->
<!DOCTYPE svg PUBLIC "-//W3C//DTD SVG 1.1//EN" "http://www.w3.org/Graphics/SVG/1.1/DTD/svg11.dtd">
<svg version="1.1"
	 id="svg2" xmlns:dc="http://purl.org/dc/elements/1.1/" xmlns:cc="http://creativecommons.org/ns#" xmlns:rdf="http://www.w3.org/1999/02/22-rdf-syntax-ns#" xmlns:svg="http://www.w3.org/2000/svg"
	 xmlns="http://www.w3.org/2000/svg" xmlns:xlink="http://www.w3.org/1999/xlink" x="0px" y="0px" width="70px" height="80px"
	 viewBox="0 0 70 80" enable-background="new 0 0 70 80" xml:space="preserve">
<g id="g12" transform="scale(0.1,0.1)">
	<path id="path22" fill="#02709F" d="M261.113,104.458c0,49.36-40.244,89.453-90.078,89.453c-49.697,0-90.059-40.093-90.059-89.453
		C80.977,55.112,121.338,15,171.035,15C220.869,15,261.113,55.112,261.113,104.458"/>
	<path id="path24" fill="none" stroke="#FFFFFF" stroke-width="3.9999" d="M261.113,104.458c0,49.36-40.244,89.453-90.078,89.453
		c-49.697,0-90.059-40.093-90.059-89.453C80.977,55.112,121.338,15,171.035,15C220.869,15,261.113,55.112,261.113,104.458z"/>
	<path id="path26" fill="#02709F" d="M310.635,785H685V389.56H310.635V785z"/>
	<path id="path28" fill="none" stroke="#FFFFFF" stroke-width="3.9999" d="M310.635,785H685V389.56H310.635V785z"/>
	<path id="path30" fill="#02709F" d="M441.699,388.437h217.979V339.16H441.699V388.437z"/>
	<path id="path32" fill="none" stroke="#FFFFFF" stroke-width="3.9999" d="M441.699,388.437h217.979V339.16H441.699V388.437z"/>
	<path id="path34" fill="#02709F" d="M615.342,213.418V339.16H445.693V170.732l149.834,19.409
		C595.527,190.142,615.879,192.095,615.342,213.418"/>
	<path id="path36" fill="none" stroke="#FFFFFF" stroke-width="3.9999" d="M615.342,213.418V339.16H445.693V170.732l149.834,19.409
		C595.527,190.142,615.879,192.095,615.342,213.418z"/>
	<path id="path38" fill="#02709F" d="M288.34,733.886H184.912V612.295h-51.875v121.592H31.211c-8.975,0-16.211,7.266-16.211,15.967
		v18.779c0,8.936,7.236,16.26,16.211,16.26H288.34c8.984,0,16.211-7.324,16.211-16.26v-18.779
		C304.551,741.152,297.324,733.886,288.34,733.886"/>
	<path id="path40" fill="none" stroke="#FFFFFF" stroke-width="3.9999" d="M288.34,733.886H184.912V612.295h-51.875v121.592H31.211
		c-8.975,0-16.211,7.266-16.211,15.967v18.779c0,8.936,7.236,16.26,16.211,16.26H288.34c8.984,0,16.211-7.324,16.211-16.26v-18.779
		C304.551,741.152,297.324,733.886,288.34,733.886z"/>
	<path id="path42" fill="#02709F" d="M292.871,555.654H79.668V254.863c0-9.785-7.959-17.695-17.813-17.695H40.996
		c-9.844,0-17.803,7.91-17.803,17.695v339.209c0,9.756,7.959,17.832,17.803,17.832h251.875c9.844,0,17.822-8.076,17.822-17.832
		v-20.869C310.693,563.681,302.715,555.654,292.871,555.654"/>
	<path id="path44" fill="none" stroke="#FFFFFF" stroke-width="3.9999" d="M292.871,555.654H79.668V254.863
		c0-9.785-7.959-17.695-17.813-17.695H40.996c-9.844,0-17.803,7.91-17.803,17.695v339.209c0,9.756,7.959,17.832,17.803,17.832
		h251.875c9.844,0,17.822-8.076,17.822-17.832v-20.869C310.693,563.681,302.715,555.654,292.871,555.654z"/>
	<path id="path46" fill="#02709F" d="M242.822,213.13l163.496,117.778c7.188,5.986,11.367,14.893,11.367,24.727
		c0,18.037-14.59,32.646-32.744,32.646c-5.449,0-12.852-1.846-18.73-5.137L229.346,299.18v152.636l77.275,0.234v98.34L87.93,549.873
		V225.908c0,0,1.348-25.64,43.77-25.64h78.896C210.596,200.269,225.498,201.021,242.822,213.13"/>
	<path id="path48" fill="none" stroke="#FFFFFF" stroke-width="3.9999" d="M242.822,213.13l163.496,117.778
		c7.188,5.986,11.367,14.893,11.367,24.727c0,18.037-14.59,32.646-32.744,32.646c-5.449,0-12.852-1.846-18.73-5.137L229.346,299.18
		v152.636l77.275,0.234v98.34L87.93,549.873V225.908c0,0,1.348-25.64,43.77-25.64h78.896
		C210.596,200.269,225.498,201.021,242.822,213.13z"/>
</g>
</svg>
