<svg version="1.1" id="ilhwsa8q1" xmlns:xml="http://www.w3.org/XML/1998/namespace"
	 xmlns="http://www.w3.org/2000/svg" xmlns:xlink="http://www.w3.org/1999/xlink" x="0px" y="0px" width="13px" height="75px"
	 viewBox="0 0 13 75" enable-background="new 0 0 13 75" xml:space="preserve">
<g>
	<g>
		<path fill="#676369" d="M7.032,62.559l4.511-3.221c0.132-0.088,0.132-0.264,0.089-0.484c-0.089-0.133-0.268-0.221-0.4-0.09
			L6.41,62.205l-4.687-3.396c-0.134-0.088-0.354-0.088-0.398,0.089c-0.089,0.132-0.089,0.353,0.088,0.484l4.514,3.222l-5.176,3.484
			l5.176,4.236l-4.646,3.53c-0.133,0.22-0.133,0.396-0.089,0.528c0.089,0.09,0.134,0.134,0.266,0.134c0.089,0,0.133,0,0.222-0.089
			l4.776-3.661l4.688,3.661c0.088,0.089,0.135,0.089,0.22,0.089c0.089,0,0.221-0.089,0.268-0.134
			c0.133-0.132,0.088-0.352-0.089-0.484l-4.558-3.53l5.179-4.234L7.032,62.559z M1.766,66.088l4.645-3.133l4.645,3.133L6.41,69.883
			L1.766,66.088z"/>
		<path fill="#676369" d="M6.985,30.794l3.407-3.22c0.091-0.088,0.134-0.22,0.091-0.354c0-0.132,0-0.264-0.091-0.354l-3.407-3.971
			l3.361-4.235l-3.361-3.486l2.876-3.22c0.088-0.088,0.088-0.264,0.088-0.485c-0.088-0.132-0.221-0.22-0.267-0.088l-3.006,3.397
			l-2.964-3.22c-0.088-0.088-0.222-0.088-0.309,0.044c-0.088,0.132-0.088,0.353,0.087,0.485l2.787,3.221l-3.359,3.484l3.359,4.235
			L2.785,27c-0.089,0.088-0.133,0.22-0.089,0.354c0,0.132,0,0.264,0.089,0.353l3.362,3.221l-3.982,3.484l3.982,4.234l-4.026,3.972
			c-0.088,0.09-0.135,0.221-0.135,0.354c0,0.134,0,0.265,0.091,0.352l3.979,3.223l-4.555,3.264l4.555,4.235l-4.865,4.412
			c-0.132,0.132-0.221,0.353-0.132,0.485c0.088,0.088,0.132,0.133,0.221,0.133s0.133,0,0.222-0.089l4.908-4.499l4.69,4.102
			c0.088,0.09,0.131,0.09,0.221,0.09c0.088,0,0.131-0.09,0.221-0.134c0.088-0.132,0.088-0.353-0.09-0.485l-4.553-3.971l4.553-4.234
			L6.94,46.367l3.984-3.221c0.085-0.088,0.132-0.22,0.085-0.353c0-0.132,0-0.265-0.131-0.353l-4.026-3.971l3.982-4.236L6.985,30.794
			z M3.625,18.75l3.006-3.132L9.64,18.75l-3.009,3.794L3.625,18.75z M3.228,27.221l3.362-3.882l3.359,3.882L6.59,30.442
			L3.228,27.221z M10.567,49.896l-4.112,3.795l-4.068-3.795l4.112-3.131L10.567,49.896z M10.437,42.794l-3.892,3.221l-3.893-3.221
			l3.893-3.882L10.437,42.794z M3.006,34.279l3.539-3.132l3.538,3.132l-3.538,3.793L3.006,34.279z"/>
	</g>
	<g>
		<path fill="#072334" d="M10.925,75H1.9c-0.885,0-1.638-0.75-1.638-1.633l2.61-64.014c0-0.882,0.751-1.764,1.635-1.764h3.984
			c0.885,0,1.634,0.882,1.634,1.764l2.433,63.926C12.558,74.161,11.807,75,10.925,75z M4.508,8.956c-0.354,0-0.662,0.22-0.662,0.618
			L1.236,73.588c0,0.353,0.266,0.749,0.664,0.749h9.024c0.353,0,0.66-0.484,0.66-0.839L9.155,9.661C9.155,9.265,8.886,9,8.491,9
			H4.508V8.956z"/>
	</g>
	<path fill="#072334" d="M5.172,8.073c0,0.133-0.086,0.22-0.222,0.22H4.688c-0.136,0-0.221-0.088-0.221-0.22V1.676
		c0-0.132,0.086-0.22,0.221-0.22H4.95c0.136,0,0.222,0.088,0.222,0.22V8.073z"/>
	<path fill="#385D8A" d="M4.864,0C5.4,0,5.835,0.455,5.835,1.013c0,0.561-0.435,1.015-0.971,1.015c-0.539,0-0.974-0.455-0.974-1.015
		C3.891,0.455,4.325,0,4.864,0z"/>
	<g>
		<ellipse fill="#5C575F" cx="3.979" cy="21.265" rx="3.979" ry="3.97"/>
		<ellipse fill="#676369" cx="4.154" cy="21.264" rx="1.5" ry="1.5"/>
	</g>
	<g>
		<ellipse fill="#5C575F" cx="10.083" cy="27.75" rx="2.917" ry="2.912"/>
		<path fill="#676369" d="M10.125,26.603c0.635,0,1.147,0.514,1.147,1.146c0,0.634-0.513,1.147-1.147,1.147
			c-0.631,0-1.144-0.514-1.144-1.147C8.981,27.117,9.494,26.603,10.125,26.603z"/>
	</g>
	<g>
		<path fill="#FFFFFF" d="M10.704,14.294H9.377c-0.49,0-0.885-0.397-0.885-0.882V8.823c0-0.485,0.395-0.882,0.885-0.882h1.327
			c0.484,0,0.88,0.396,0.88,0.882v4.544C11.584,13.897,11.188,14.294,10.704,14.294z"/>
		<path fill="#3E6DB5" d="M10.704,14.736H9.377c-0.754,0-1.329-0.574-1.329-1.324V8.823c0-0.751,0.575-1.324,1.329-1.324h1.327
			c0.748,0,1.323,0.574,1.323,1.324v4.544C12.027,14.118,11.452,14.736,10.704,14.736z M9.377,8.383
			c-0.271,0-0.442,0.176-0.442,0.441v4.544c0,0.264,0.172,0.44,0.442,0.44h1.327c0.263,0,0.44-0.176,0.44-0.44V8.823
			c0-0.265-0.178-0.441-0.44-0.441L9.377,8.383L9.377,8.383z"/>
		<rect x="8.622" y="9.485" fill="#3E6DB5" width="2.787" height="0.44"/>
		<rect x="8.622" y="11.911" fill="#3E6DB5" width="2.787" height="0.441"/>
	</g>
</g>
</svg>
