<?xml version="1.0" encoding="utf-8"?>
<!-- Generator: Adobe Illustrator 16.0.0, SVG Export Plug-In . SVG Version: 6.00 Build 0)  -->
<!DOCTYPE svg PUBLIC "-//W3C//DTD SVG 1.1//EN" "http://www.w3.org/Graphics/SVG/1.1/DTD/svg11.dtd">
<svg version="1.1" id="图层_1" xmlns="http://www.w3.org/2000/svg" xmlns:xlink="http://www.w3.org/1999/xlink" x="0px" y="0px"
	 width="512px" height="512px" viewBox="0 0 512 512" enable-background="new 0 0 512 512" xml:space="preserve">
<g>
	<path fill="#3F4751" d="M500.305,101.512c-10.842-62.464-25.834-77.346-89.151-88.422C370.841,6.041,313.932,2,255.059,2
		C196.7,2,142.723,5.808,103.083,12.688C40.622,23.544,25.74,38.535,14.679,101.84C0.015,185.659-0.205,326.73,14.195,409.878
		c10.826,62.466,25.818,77.329,89.154,88.423c40.402,7.065,97.422,11.123,156.437,11.123c58.219,0,112.086-3.776,151.678-10.641
		c62.48-10.855,77.361-25.851,88.406-89.17C514.534,325.763,514.737,184.676,500.305,101.512 M484.487,406.945
		c-9.921,56.753-19.827,66.769-75.724,76.486c-38.721,6.709-91.636,10.391-148.994,10.391c-58.143,0-114.175-3.962-153.738-10.873
		c-56.784-9.952-66.799-19.874-76.471-75.723c-14.149-81.697-13.933-220.318,0.482-302.702
		c9.922-56.737,19.828-66.753,75.707-76.456c38.797-6.739,91.808-10.452,149.31-10.452c58,0,113.927,3.962,153.394,10.858
		c56.737,9.937,66.752,19.843,76.47,75.722C499.104,185.909,498.902,324.546,484.487,406.945"/>
	<path fill="#3F4751" d="M358.168,225.362l-23.82-2.987c3.313-26.466-9.99-42.443-21.734-51.186
		c-23.291-17.34-58.927-20.907-86.661-8.657c-16.638,7.342-37.201,23.409-40.687,58.258l-23.889-2.392
		c3.618-36.169,23.109-63.812,54.882-77.834c35.279-15.56,80.794-10.891,110.691,11.366
		C350.792,169.677,361.879,195.756,358.168,225.362"/>
	<path fill="#3F4751" d="M175.27,374.325c-1.993,0-3.869-0.08-5.614-0.213c-34.486-2.68-67.657-30.401-77.159-64.473
		c-8.12-29.106,2.264-56.573,28.487-75.351c20.432-13.123,43.681-13.382,44.663-13.385l0.113,24.009
		c-0.129,0-17.388,0.309-31.304,9.238c-22.305,15.991-22.603,35.525-18.835,49.044c6.817,24.438,31.37,45.071,55.894,46.974
		c24.023,1.856,44.156-13.438,58.184-44.255l0.386-0.763c51.668-94.848,103.417-99.749,129.684-94.199
		c38.567,8.126,62.121,45.369,64.706,76.285c2.418,28.927-11.716,52.321-37.804,62.584c-11.092,4.354-24.282,6.322-39.096,5.882
		l0.726-23.997c11.574,0.361,21.543-1.072,29.582-4.232c21.786-8.562,23.553-27.627,22.671-38.226
		c-1.891-22.604-19.515-49.278-45.729-54.806c-33.508-7.04-71.198,22.763-103.456,81.815
		C228.825,365.463,195.991,374.325,175.27,374.325"/>
	<path fill="#3F4751" d="M400.358,344.837c0,19.414-15.743,35.156-35.156,35.156c-19.415,0-35.157-15.742-35.157-35.156
		s15.742-35.156,35.157-35.156C384.615,309.681,400.358,325.423,400.358,344.837"/>
	<path fill="#3F4751" d="M200.565,230.068c0,19.414-15.744,35.157-35.157,35.157c-19.414,0-35.156-15.743-35.156-35.157
		c0-19.417,15.742-35.157,35.156-35.157C184.821,194.912,200.565,210.651,200.565,230.068"/>
</g>
</svg>
