<?xml version="1.0" encoding="utf-8"?>
<!-- Generator: Adobe Illustrator 16.0.0, SVG Export Plug-In . SVG Version: 6.00 Build 0)  -->
<!DOCTYPE svg PUBLIC "-//W3C//DTD SVG 1.1//EN" "http://www.w3.org/Graphics/SVG/1.1/DTD/svg11.dtd">
<svg version="1.1"
	 id="图层_1" xmlns:dc="http://purl.org/dc/elements/1.1/" xmlns:cc="http://creativecommons.org/ns#" xmlns:rdf="http://www.w3.org/1999/02/22-rdf-syntax-ns#"
	 xmlns="http://www.w3.org/2000/svg" xmlns:xlink="http://www.w3.org/1999/xlink" x="0px" y="0px" width="76px" height="65px"
	 viewBox="0 0 76 65" enable-background="new 0 0 76 65" xml:space="preserve">
<path fill="#00BCF2" d="M33.486,36.466c-5.376,0-9.796,4.417-9.796,9.788c0,5.372,4.42,9.787,9.796,9.787s9.796-4.415,9.796-9.787
	C43.282,40.883,38.862,36.466,33.486,36.466z M42.963,0C28.664,0,21.894,11.084,20.296,14.075h-4.802h-0.128l-0.191,0.064
	c0,0-3.731,0.55-7.491,2.942C3.924,19.473,0,23.996,0,31.22c0,8.036,4.438,12.764,8.708,15.035c4.271,2.27,8.516,2.43,8.516,2.43
	l0.063,0.063h0.063l16.904-0.189v-4.096l-16.84,0.191c0,0-0.123,0-0.128,0c-0.192-0.012-3.391-0.311-6.659-2.047
	c-3.368-1.792-6.53-4.773-6.53-11.388c0-5.817,2.799-8.796,5.763-10.683c2.964-1.886,5.954-2.366,5.954-2.366h5.635h1.345
	l0.512-1.151c0,0,5.781-12.923,19.657-12.923c6.973,0,11.162,2.525,14.021,5.374c2.862,2.849,4.241,6.02,5.059,7.741
	c0.45,0.946,0.837,4.402,0.832,7.293c-0.004,2.892-0.19,5.375-0.19,5.375l-0.192,2.303l2.306-0.128c0,0,1.918-0.023,3.713,0.767
	c1.796,0.792,3.389,1.994,3.395,5.823c0.004,2.59-1.201,3.777-2.626,4.671c-1.424,0.892-2.882,1.151-2.882,1.151l-17.031-0.321
	l-0.063,4.095l17.416,0.321h0.191l0.129-0.065c0,0,2.227-0.355,4.417-1.726c2.191-1.372,4.552-4.055,4.545-8.126
	c-0.008-5.219-3.005-8.353-5.825-9.595c-1.224-0.54-2.358-0.695-3.33-0.833c0.066-1.018,0.127-1.701,0.129-3.71
	c0.003-3.083,0.005-6.448-1.217-9.021c-0.701-1.475-2.333-5.475-5.826-8.956C56.438,3.046,50.945,0,42.963,0L42.963,0z
	 M33.486,27.189c-2.587,0-5.052,0.592-7.3,1.536l1.985,4.352c1.642-0.662,3.425-1.088,5.314-1.088
	c7.848,0,14.086,6.298,14.086,14.137c0,7.842-6.239,14.074-14.086,14.074c-1.982,0-3.865-0.362-5.57-1.088l-1.985,4.351
	C28.243,64.472,30.807,65,33.486,65c10.433,0,18.89-8.45,18.89-18.874S43.92,27.189,33.486,27.189L33.486,27.189z"/>
</svg>
