<?xml version="1.0" encoding="utf-8"?>
<!-- Generator: Adobe Illustrator 16.0.0, SVG Export Plug-In . SVG Version: 6.00 Build 0)  -->
<!DOCTYPE svg PUBLIC "-//W3C//DTD SVG 1.1//EN" "http://www.w3.org/Graphics/SVG/1.1/DTD/svg11.dtd">
<svg version="1.1" id="图层_1" xmlns="http://www.w3.org/2000/svg" xmlns:xlink="http://www.w3.org/1999/xlink" x="0px" y="0px"
	 width="62px" height="75px" viewBox="0 0 62 75" enable-background="new 0 0 62 75" xml:space="preserve">
<g id="Layer_1">
	<polygon fill="#876929" points="0,24.302 0,59.436 31,75 62,59.436 62,50.697 35.637,47.422 35.637,27.579 62,24.302 62,15.564 
		31,0 0,15.564 	"/>
	<polygon fill="#876929" points="0,50.697 31,59.98 31,75 0,59.436 	"/>
	<polygon fill="#876929" points="4,61.438 0,59.436 0,15.564 4,13.562 	"/>
	<polygon fill="#D9A741" points="35.637,47.422 4,51.881 4,23.119 35.637,27.579 	"/>
	<polygon fill="#D9A741" points="62,24.302 31,15.018 31,0 62,15.564 	"/>
	<polygon fill="#D9A741" points="62,50.697 31,59.98 31,75 62,59.436 	"/>
	<polygon fill="#876929" points="19.546,45.51 31,46.967 31,27.943 19.546,29.398 	"/>
	<polygon fill="#876929" points="8.091,44.145 15.455,45.055 15.455,29.945 8.091,30.855 	"/>
	<polygon fill="#624A1E" points="4,23.119 31,15.018 62,24.302 35.637,27.579 	"/>
	<polygon fill="#FAD791" points="4,51.881 31,59.98 62,50.697 35.637,47.422 	"/>
	<polygon fill="#D9A741" points="62,43.052 31,46.967 31,27.943 62,31.948 	"/>
</g>
</svg>
