<svg version="1.1" id="图层_1" xmlns="http://www.w3.org/2000/svg" xmlns:xlink="http://www.w3.org/1999/xlink" x="0px" y="0px"
	 width="62px" height="75px" viewBox="0 0 62 75" enable-background="new 0 0 62 75" xml:space="preserve">
<g id="g12">
	<polygon fill="#624A1E" points="0,26.669 6.547,27.307 12.001,26.214 5.183,12.925 	"/>
	<polygon fill="#624A1E" points="62,26.669 55.455,27.307 50,26.214 56.818,12.925 	"/>
	<polygon fill="#876929" points="0,44.055 31,48.695 62,44.055 62,31.129 31,26.669 0,31.129 	"/>
	<polygon fill="#FAD791" points="62,48.332 55.455,47.693 50,48.787 56.818,62.075 	"/>
	<polygon fill="#FAD791" points="0,48.332 6.547,47.693 12.001,48.787 5.183,62.075 	"/>
	<polygon fill="#876929" points="56.818,12.925 50,14.654 50,26.214 56.818,25.395 	"/>
	<polygon fill="#624A1E" points="53.818,24.666 46.727,25.577 39.092,24.029 46.456,7.737 	"/>
	<polygon fill="#876929" points="39.092,24.029 46.456,22.846 46.456,7.737 39.092,10.194 	"/>
	<polygon fill="#D9A741" points="5.183,12.925 12.001,14.654 12.001,26.214 5.183,25.395 	"/>
	<polygon fill="#D9A741" points="62,26.669 56.818,25.395 56.818,12.925 62,15.564 	"/>
	<polygon fill="#624A1E" points="8.182,24.666 15.273,25.577 22.909,24.029 15.546,7.737 	"/>
	<polygon fill="#D9A741" points="22.909,24.029 15.546,22.846 15.546,7.737 22.909,10.194 	"/>
	<polygon fill="#D9A741" points="62,44.055 31,48.695 31,26.669 62,31.129 	"/>
	<polygon fill="#D9A741" points="53.818,24.666 46.456,22.846 46.456,7.737 53.818,11.468 	"/>
	<polygon fill="#624A1E" points="42.363,21.845 31,23.847 19.638,21.845 31,0 	"/>
	<polygon fill="#D9A741" points="42.363,21.845 31,19.023 31,0 42.363,5.734 	"/>
	<polygon fill="#876929" points="0,26.669 5.183,25.395 5.183,12.925 0,15.564 	"/>
	<polygon fill="#876929" points="8.182,24.666 15.546,22.846 15.546,7.737 8.182,11.468 	"/>
	<polygon fill="#876929" points="19.638,21.845 31,19.023 31,0 19.638,5.734 	"/>
	<polygon fill="#876929" points="56.818,62.075 50,60.346 50,48.787 56.818,49.605 	"/>
	<polygon fill="#D9A741" points="62,48.332 56.818,49.605 56.818,62.075 62,59.436 	"/>
	<polygon fill="#FAD791" points="53.818,50.333 46.727,49.423 39.092,50.971 46.456,67.264 	"/>
	<polygon fill="#D9A741" points="53.818,50.333 46.456,52.152 46.456,67.264 53.818,63.531 	"/>
	<polygon fill="#876929" points="39.092,50.971 46.456,52.152 46.456,67.264 39.092,64.807 	"/>
	<polygon fill="#D9A741" points="5.183,62.075 12.001,60.346 12.001,48.787 5.183,49.605 	"/>
	<polygon fill="#FAD791" points="8.182,50.333 15.273,49.423 22.909,50.971 15.546,67.264 	"/>
	<polygon fill="#D9A741" points="22.909,50.971 15.546,52.152 15.546,67.264 22.909,64.807 	"/>
	<polygon fill="#FAD791" points="42.363,53.155 31,51.152 19.638,53.155 31,75 	"/>
	<polygon fill="#D9A741" points="42.363,53.155 31,55.977 31,75 42.363,69.266 	"/>
	<polygon fill="#876929" points="0,48.332 5.183,49.605 5.183,62.075 0,59.436 	"/>
	<polygon fill="#876929" points="8.182,50.333 15.546,52.152 15.546,67.264 8.182,63.531 	"/>
	<polygon fill="#876929" points="19.638,53.155 31,55.977 31,75 19.638,69.266 	"/>
</g>
</svg>
