<svg version="1.1" id="svg1" xmlns="http://www.w3.org/2000/svg" xmlns:xlink="http://www.w3.org/1999/xlink" x="0px" y="0px"
	 width="62px" height="75px" viewBox="0 0 62 75" enable-background="new 0 0 62 75" xml:space="preserve">
<g id="g12">
	<polygon fill="#FAD791" points="62,42.23 46.913,41.596 37.181,42.23 53.276,64.077 	"/>
	<polygon fill="#624A1E" points="62,33.13 46.913,33.77 37.181,33.13 53.276,11.195 	"/>
	<polygon fill="#624A1E" points="0,33.041 15.092,33.77 24.819,33.13 8.728,11.288 	"/>
	<polygon fill="#FAD791" points="0,42.23 15.092,41.596 24.819,42.23 8.728,64.077 	"/>
	<polygon fill="#D9A741" points="53.276,32.221 62,33.13 62,15.564 53.276,11.195 	"/>
	<polygon fill="#876929" points="37.181,15.564 53.276,11.195 53.276,32.221 37.181,33.13 	"/>
	<polygon fill="#D9A741" points="31.001,13.018 48.454,18.75 48.454,27.396 31.001,24.301 	"/>
	<polygon fill="#624A1E" points="23.183,25.76 31.092,24.301 48.454,27.396 40.727,28.217 	"/>
	<polygon fill="#876929" points="8.728,32.221 0,33.041 0,15.473 8.728,11.195 	"/>
	<polygon fill="#D9A741" points="24.819,15.564 8.728,11.195 8.728,32.221 24.819,33.13 	"/>
	<polygon fill="#876929" points="31.001,13.018 13.544,18.75 13.544,27.396 31.001,24.301 	"/>
	<polygon fill="#624A1E" points="38.818,25.76 30.909,24.301 13.544,27.396 21.274,28.217 	"/>
	<polygon fill="#D9A741" points="53.276,43.051 62,42.23 62,59.711 53.276,64.077 	"/>
	<polygon fill="#876929" points="37.181,59.803 53.276,64.077 53.276,43.051 37.181,42.23 	"/>
	<polygon fill="#D9A741" points="31.001,62.258 48.454,56.614 48.454,47.874 31.001,50.97 	"/>
	<polygon fill="#FAD791" points="23.183,49.607 31.092,50.97 48.454,47.874 40.727,47.059 	"/>
	<polygon fill="#876929" points="8.728,43.051 0,42.23 0,59.711 8.728,64.077 	"/>
	<polygon fill="#D9A741" points="24.819,59.803 8.728,64.077 8.728,43.051 24.819,42.23 	"/>
	<polygon fill="#876929" points="31.001,62.258 13.544,56.614 13.544,47.874 31.001,50.97 	"/>
	<polygon fill="#FAD791" points="38.818,49.607 30.909,50.97 13.544,47.874 21.274,47.059 	"/>
	<polygon fill="#876929" points="21.728,70.354 31.001,75 36.182,72.359 40.272,4.641 31.001,0 21.728,4.641 	"/>
	<polygon fill="#D9A741" points="40.272,70.354 31.001,75 31.001,0 40.272,4.641 	"/>
</g>
</svg>
