<svg version="1.1" id="图层_1" xmlns="http://www.w3.org/2000/svg" xmlns:xlink="http://www.w3.org/1999/xlink" x="0px" y="0px"
	 width="62px" height="75px" viewBox="0 0 62 75" enable-background="new 0 0 62 75" xml:space="preserve">
<g id="g12">
	<g id="Layer_1">
		<polygon fill="#FAD791" points="47.544,43.325 43.818,43.145 40.363,43.416 44.092,56.068 		"/>
		<polygon fill="#624A1E" points="62,24.302 31,28.216 0,24.302 31,0 		"/>
		<polygon fill="#FAD791" points="50.545,59.617 31,55.066 11.456,59.617 31,75 		"/>
		<polygon fill="#D9A741" points="62,24.302 31,15.018 31,0 62,15.564 		"/>
		<polygon fill="#D9A741" points="50.545,65.17 31,75 31,67.445 50.545,59.617 		"/>
		<polygon fill="#876929" points="31,75 11.456,65.17 11.456,59.617 31,67.445 		"/>
		<polygon fill="#876929" points="0,24.302 31,15.018 31,0 0,15.564 		"/>
		<polygon fill="#D9A741" points="47.544,55.066 44.092,56.068 44.092,43.689 47.544,43.325 		"/>
		<polygon fill="#876929" points="26.091,58.525 31,59.98 35.91,58.525 35.91,30.491 31,30.036 26.091,30.491 		"/>
		<polygon fill="#D9A741" points="35.91,58.525 31,59.98 31,30.036 35.91,30.491 		"/>
		<polygon fill="#876929" points="17.911,43.689 14.456,43.325 14.456,31.675 17.911,31.311 21.727,31.584 21.727,43.416 		"/>
		<polygon fill="#876929" points="40.363,55.249 44.092,56.068 44.092,43.689 40.363,43.416 		"/>
		<polygon fill="#D9A741" points="21.727,43.416 17.911,43.689 17.911,31.311 21.727,31.584 		"/>
	</g>
</g>
</svg>
