<?xml version="1.0" encoding="utf-8"?>
<!-- Generator: Adobe Illustrator 16.0.0, SVG Export Plug-In . SVG Version: 6.00 Build 0)  -->
<!DOCTYPE svg PUBLIC "-//W3C//DTD SVG 1.1//EN" "http://www.w3.org/Graphics/SVG/1.1/DTD/svg11.dtd">
<svg version="1.1" id="图层_1" xmlns="http://www.w3.org/2000/svg" xmlns:xlink="http://www.w3.org/1999/xlink" x="0px" y="0px"
	 width="75px" height="75px" viewBox="0 0 75 75" enable-background="new 0 0 75 75" xml:space="preserve">
<g id="Layer_1">
	<g>
		<rect x="1.601" fill="#876929" width="71.799" height="75"/>
	</g>
	<g>
		<rect x="1.601" fill="#D9A741" width="71.799" height="71.663"/>
	</g>
	<g>
		<path fill="#FFFFFF" d="M63.656,30.026c-0.667-3.069-1.868-5.872-3.47-8.541l3.337-3.336l-8.274-8.274l-3.337,3.336
			c-2.534-1.601-5.471-2.802-8.54-3.469V4.938H31.628v4.804c-3.07,0.667-5.872,1.868-8.541,3.469l-3.336-3.336l-8.274,8.274
			l3.336,3.336c-1.602,2.535-2.803,5.472-3.47,8.541H6.538v11.744h4.805c0.667,3.069,1.868,5.871,3.47,8.54l-3.202,3.204
			l8.273,8.274l3.336-3.337c2.536,1.602,5.472,2.802,8.542,3.47v4.805h11.743v-4.805c3.069-0.668,5.873-1.868,8.542-3.47
			l3.336,3.337l8.273-8.274l-3.337-3.337c1.603-2.536,2.804-5.471,3.471-8.541h4.804V29.893h-4.938V30.026z M54.182,44.173
			c-1.734,3.604-4.671,6.405-8.274,8.274c-0.8,0.399-1.734,0.8-2.535,1.067c-1.868,0.667-3.737,0.935-5.872,0.935
			c-2.136,0-4.004-0.4-5.872-0.935c-0.935-0.268-1.735-0.668-2.535-1.067c-3.604-1.734-6.406-4.671-8.274-8.274
			c-0.4-0.801-0.801-1.734-1.067-2.536c-0.668-1.867-0.935-3.736-0.935-5.871c0-2.136,0.4-4.004,0.935-5.873
			c0.267-0.934,0.667-1.735,1.067-2.536c1.734-3.603,4.671-6.405,8.274-8.273c0.8-0.401,1.734-0.801,2.535-1.068
			c1.868-0.667,3.736-0.934,5.872-0.934c2.135,0,4.004,0.4,5.872,0.934c0.934,0.268,1.735,0.667,2.535,1.068
			c3.604,1.734,6.405,4.671,8.274,8.273c0.4,0.801,0.8,1.735,1.067,2.536c0.667,1.869,0.935,3.737,0.935,5.873
			c0,2.135-0.4,4.004-0.935,5.871C54.981,42.571,54.582,43.372,54.182,44.173z"/>
		<path fill="#FFFFFF" d="M46.175,30.026c-0.801-1.067-1.735-2.135-2.803-2.802c-1.201-0.8-2.403-1.334-3.87-1.601
			c-0.668-0.134-1.335-0.134-2.002-0.134c-0.668,0-1.335,0.134-2.002,0.134c-1.335,0.267-2.669,0.801-3.87,1.601
			c-1.068,0.801-2.136,1.735-2.803,2.802c-0.801,1.201-1.334,2.403-1.602,3.87c-0.133,0.667-0.133,1.334-0.133,2.002
			c0,0.667,0.133,1.334,0.133,2.002c0.268,1.334,0.801,2.669,1.602,3.87c0.801,1.067,1.734,2.135,2.803,2.803
			c1.201,0.801,2.401,1.334,3.87,1.602c0.667,0.133,1.334,0.133,2.002,0.133c0.667,0,1.334-0.133,2.002-0.133
			c1.334-0.268,2.669-0.801,3.87-1.602c1.067-0.801,2.135-1.735,2.803-2.803c0.8-1.201,1.334-2.401,1.602-3.87
			c0.133-0.667,0.133-1.335,0.133-2.002c0-0.667-0.133-1.334-0.133-2.002C47.509,32.429,46.975,31.095,46.175,30.026z"/>
	</g>
</g>
</svg>
