<?xml version="1.0" encoding="utf-8"?>
<!-- Generator: Adobe Illustrator 16.0.0, SVG Export Plug-In . SVG Version: 6.00 Build 0)  -->
<!DOCTYPE svg PUBLIC "-//W3C//DTD SVG 1.1//EN" "http://www.w3.org/Graphics/SVG/1.1/DTD/svg11.dtd">
<svg version="1.1" id="图层_1" xmlns="http://www.w3.org/2000/svg" xmlns:xlink="http://www.w3.org/1999/xlink" x="0px" y="0px"
	 width="75px" height="75px" viewBox="0 0 75 75" enable-background="new 0 0 75 75" xml:space="preserve">
<g id="Layer_1">
	<path fill="#876929" d="M73.378,39.122C73.378,58.883,57.262,75,37.5,75C17.739,75,1.622,58.883,1.622,39.122v-3.244
		c0,0,23.791-32.626,35.878-32.626c14.161,0,35.878,32.626,35.878,32.626V39.122z"/>
	<path fill="#D9A741" d="M37.5,0c19.82,0,35.878,16.065,35.878,35.878c0,19.804-16.058,35.877-35.878,35.877
		c-19.813,0-35.878-16.073-35.878-35.877C1.622,16.065,17.687,0,37.5,0z"/>
	<rect x="24.501" y="13.776" fill="#FFFFFF" width="1.948" height="16.25"/>
	<rect x="24.501" y="37.567" fill="#FFFFFF" width="1.948" height="16.25"/>
	<polygon fill="#FFFFFF" points="51.543,55.104 49.587,55.104 49.587,34.967 25.153,34.967 25.153,33.019 51.543,33.019 	"/>
	<polygon fill="#D9A741" points="25.279,42.632 36.848,34.182 25.279,25.604 14.236,33.663 	"/>
	<path fill="#FFFFFF" d="M25.279,43.936L12.673,33.663l12.606-9.095l13.257,9.747L25.279,43.936z M15.791,33.663l9.488,7.799
		l9.88-7.28l-9.88-7.273L15.791,33.663z"/>
	<rect x="42.967" y="49.787" fill="#D9A741" width="15.716" height="9.229"/>
	<path fill="#FFFFFF" d="M59.602,60.053H42.048V48.869h17.554V60.053z M44.004,50.69v7.406h13.775v-7.271H44.004V50.69z"/>
	<rect x="17.739" y="10.006" fill="#D9A741" width="15.732" height="9.229"/>
	<path fill="#FFFFFF" d="M34.382,20.146H16.836V8.969h17.546V20.146z M18.784,18.324H32.56V11.05H18.784V18.324z"/>
	<rect x="17.613" y="49.787" fill="#D9A741" width="15.724" height="9.229"/>
	<path fill="#FFFFFF" d="M34.248,60.053H16.702V48.869h17.546V60.053z M18.65,58.097H32.3v-7.271H18.65V58.097z"/>
</g>
</svg>
