<svg version="1.1" id="图层_1" xmlns="http://www.w3.org/2000/svg" xmlns:xlink="http://www.w3.org/1999/xlink" x="0px" y="0px"
	 width="77px" height="58px" viewBox="0 0 77 58" enable-background="new 0 0 77 58" xml:space="preserve">
<g id="Layer_1">
	<g>
		<g>
			<path id="SVGID_1_" fill="#876929" d="M77,38.313V58c0,0,0,0-67.501,0V38.313C77,38.313,77,38.313,77,38.313z"/>
		</g>
		<g>
			<g>
				<defs>
					<path id="SVGID_2_" d="M77,38.313V58c0,0,0,0-67.501,0V38.313C77,38.313,77,38.313,77,38.313z"/>
				</defs>
				<clipPath id="SVGID_4_">
					<use xlink:href="#SVGID_2_"  overflow="visible"/>
				</clipPath>
				<g clip-path="url(#SVGID_4_)" enable-background="new    ">
					<path fill="#876929" d="M77,38.313V58c0,0,0,0-67.501,0V38.313C77,38.313,77,38.313,77,38.313"/>
				</g>
			</g>
		</g>
	</g>
	<g>
		<path fill="#D9A741" d="M77,12.735c0,0,0,0,0,42.696c0,0,0,0-67.501,0c0,0,0,0,0-26.216c1.068,0.215,2.14,0.319,3.208,0.319
			c4.921,0,9.414-2.248,12.302-5.67c3.742,2.458,9.416,6.1,17.759,11.555L77,12.735z"/>
	</g>
	<path fill="#876929" d="M26.184,19.266v2.566c16.475,10.485,16.584,10.596,16.584,10.596l31.556-20.87V8.989L26.184,19.266z"/>
	<g>
		<path fill="#D9A741" d="M28.646,8.989c7.061,0,20.324,0,45.677,0L42.768,29.854c0,0-0.109-0.104-16.584-10.589
			c1.608-2.465,2.567-5.461,2.567-8.671C28.751,10.06,28.751,9.523,28.646,8.989z"/>
	</g>
	<g>
		<g enable-background="new    ">
			<g enable-background="new    ">
				<g>
					<path id="SVGID_3_" fill="#D9A741" d="M16.986,11.236c0,0.215,0,0.428,0,0.75v2.567c0-0.215,0-0.427,0-0.749
						C16.986,13.056,16.986,11.986,16.986,11.236z"/>
				</g>
				<g>
					<g>
						<defs>
							<path id="SVGID_5_" d="M16.986,11.236c0,0.215,0,0.428,0,0.75v2.567c0-0.215,0-0.427,0-0.749
								C16.986,13.056,16.986,11.986,16.986,11.236z"/>
						</defs>
						<clipPath id="SVGID_6_">
							<use xlink:href="#SVGID_5_"  overflow="visible"/>
						</clipPath>
						<g clip-path="url(#SVGID_6_)" enable-background="new    ">
							<path fill="#D9A741" d="M16.986,11.236v2.568c0,0.215,0,0.429,0,0.749v-2.567C16.986,11.664,16.986,11.451,16.986,11.236"/>
						</g>
					</g>
				</g>
			</g>
			<g>
				<path fill="#D9A741" d="M24.047,5.886c1.71,3.318,1.71,6.956,0.535,10.38c-0.642,1.716-1.818,3.424-3.746,4.389
					c-0.534,0.319-1.283,0.429-1.925,0.429c-1.71,0-3.423-0.964-4.172-2.248c-0.107-0.215-0.214-0.43-0.427-0.644
					c-1.284,1.283-2.14,1.608-3.746,1.608c-1.925,0-3.423-1.18-3.423-3.534c0-1.819,0.964-3.103,2.462-3.638
					c1.283-0.534,2.995-0.642,4.278-0.749v-0.321c0-0.535,0-1.177-0.32-1.604c-0.321-0.431-0.856-0.643-1.284-0.643
					c-0.856,0-1.605,0.427-1.819,1.391c0,0.213-0.213,0.427-0.428,0.427l-2.247-0.32c-0.214,0-0.428-0.214-0.321-0.428
					C8,7.705,10.354,6.956,12.6,6.956c1.07,0,2.567,0.321,3.423,1.177c1.07,0.964,0.963,2.355,0.963,3.854v3.531
					c0,1.069,0.427,1.499,0.856,2.034c0.213,0.215,0.534,0.319,0.854,0.319c1.07,0,2.247-1.07,2.996-2.782
					c0.964-2.461,1.07-5.565-0.214-7.812c-1.497-2.889-5.241-4.495-8.771-4.495c-2.033,0-4.173,0.535-5.777,1.714
					c-4.6,3.209-5.99,10.379-2.674,15.089c2.033,3.212,5.669,4.815,9.307,4.815c2.032,0,4.172-0.535,5.99-1.604
					c0.214-0.11,0.322-0.11,0.535-0.11c0.321,0,0.642,0.215,0.855,0.534c0.215,0.43,0.107,1.069-0.427,1.284
					c-2.14,1.394-4.601,2.033-7.168,2.033c-4.279,0-8.558-1.923-11.018-5.669c-4.065-5.78-2.674-14.34,3.103-18.514
					C7.465,0.749,10.247,0,12.814,0c0.856,0,1.818,0.107,2.567,0.215C18.697,0.749,22.227,2.567,24.047,5.886z M13.348,16.587
					c0.429-0.749,0.429-1.498,0.429-2.354v-0.536c-1.604,0-3.423,0.322-3.423,2.248c0,0.961,0.535,1.606,1.391,1.606
					C12.386,17.552,13.029,17.231,13.348,16.587"/>
			</g>
		</g>
	</g>
</g>
</svg>
