<svg version="1.1" id="图层_1" xmlns="http://www.w3.org/2000/svg" xmlns:xlink="http://www.w3.org/1999/xlink" x="0px" y="0px"
	 width="62px" height="75px" viewBox="0 0 62 75" enable-background="new 0 0 62 75" xml:space="preserve">
<g id="g12">
	<polygon fill="#D9A741" points="10.849,16.93 0,15.473 0,52.975 10.849,50.516 	"/>
	<polygon fill="#876929" points="0,21.48 10.849,23.119 31,17.84 51.151,23.119 51.151,49.423 62,52.975 62,15.473 31,0 0,15.473 	
		"/>
	<polygon fill="#624A1E" points="25.985,16.565 31.091,15.018 55.802,22.391 51.151,23.119 	"/>
	<polygon fill="#FAD791" points="25.893,63.258 25.893,48.24 51.151,44.872 55.802,45.236 55.802,54.156 	"/>
	<polygon fill="#624A1E" points="36.015,16.565 30.909,15.018 6.199,22.391 10.849,23.119 	"/>
	<polygon fill="#FAD791" points="36.106,61.165 36.106,48.24 10.849,44.872 6.199,45.236 6.199,53.793 	"/>
	<polygon fill="#D9A741" points="62,24.302 31,15.018 31,0 62,15.473 	"/>
	<polygon fill="#D9A741" points="62,52.975 31,63.986 31,49.061 62,44.234 	"/>
	<polygon fill="#D9A741" points="55.802,12.561 62,15.655 62,52.975 55.802,55.249 	"/>
	<polygon fill="#D9A741" points="40.301,50.516 31,52.336 31,75 40.301,70.268 	"/>
	<polygon fill="#876929" points="51.151,23.119 55.802,22.391 55.802,45.236 51.151,44.872 	"/>
	<polygon fill="#876929" points="0,52.975 31,63.986 31,49.061 0,44.234 	"/>
	<polygon fill="#876929" points="6.199,12.561 0,15.655 0,52.975 6.199,55.249 	"/>
	<polygon fill="#876929" points="21.699,50.516 31,52.336 31,75 21.699,70.268 	"/>
</g>
</svg>
