<svg version="1.1" id="图层_1" xmlns="http://www.w3.org/2000/svg" xmlns:xlink="http://www.w3.org/1999/xlink" x="0px" y="0px"
	 width="66px" height="77px" viewBox="0 0 66 77" enable-background="new 0 0 66 77" xml:space="preserve">
<g id="Layer_1">
	<polygon fill="#876929" points="15.61,12.335 0,37.099 15.61,61.955 28.044,58.778 28.698,15.7 	"/>
	<polygon fill="#D9A741" points="33.092,57.564 15.61,61.955 15.61,12.335 33.092,16.728 	"/>
	<polygon fill="#876929" points="30.943,20.838 33.092,77 66,60.461 66,18.596 57.587,19.904 	"/>
	<polygon fill="#876929" points="43.563,31.866 53.847,31.305 63.943,12.896 38.328,0 28.698,4.206 	"/>
	<polygon fill="#D9A741" points="38.328,0 63.943,12.896 53.847,31.305 	"/>
	<polygon fill="#876929" points="33,5.327 53.847,43.079 57.399,64.758 33.092,77 23.184,72.047 23.184,9.345 	"/>
	<polygon fill="#D9A741" points="66,18.596 66,60.461 33.092,77 33,5.327 53.847,43.079 	"/>
</g>
</svg>
