<?xml version="1.0" encoding="utf-8"?>
<!-- Generator: Adobe Illustrator 16.0.0, SVG Export Plug-In . SVG Version: 6.00 Build 0)  -->
<!DOCTYPE svg PUBLIC "-//W3C//DTD SVG 1.1//EN" "http://www.w3.org/Graphics/SVG/1.1/DTD/svg11.dtd">
<svg version="1.1" id="图层_1" xmlns="http://www.w3.org/2000/svg" xmlns:xlink="http://www.w3.org/1999/xlink" x="0px" y="0px"
	 width="512px" height="512px" viewBox="0 0 512 512" enable-background="new 0 0 512 512" xml:space="preserve">
<g>
	<path fill="#47A6E9" d="M498.389,101.527c-10.829-62.573-25.871-77.413-89.246-88.544c-40.411-7.02-97.368-11.131-156.331-11.131
		c-58.461,0-112.51,3.811-152.119,10.729C38.12,23.411,23.28,38.453,12.149,101.828c-14.64,83.931-14.941,225.121-0.501,308.451
		c10.829,62.572,25.871,77.413,89.246,88.544c40.411,7.12,97.569,11.131,156.632,11.131c58.261,0,112.21-3.812,151.818-10.629
		c62.573-10.83,77.413-25.872,88.544-89.246C512.628,326.146,512.828,184.856,498.389,101.527 M482.545,407.37
		c-9.927,56.856-19.854,66.884-75.809,76.611c-38.808,6.719-91.753,10.428-149.211,10.428c-58.261,0-114.315-4.011-153.925-10.931
		c-56.857-9.927-66.884-19.854-76.511-75.809C12.95,325.845,13.151,187.062,27.59,104.635c9.927-56.857,19.855-66.884,75.809-76.511
		c38.807-6.719,91.954-10.429,149.512-10.429c58.06,0,114.115,4.011,153.624,10.93c56.856,9.927,66.884,19.855,76.611,75.809
		C497.186,186.06,496.985,324.843,482.545,407.37"/>
	<path fill="#47A6E9" d="M368.896,294.797C346.167,368.167,256,400.496,256,400.496s-97.903-33.735-118.535-105.699
		c-20.632-71.964-16-147.77-16-147.77l33.208-14.739c0,0-4.641,121.927,17.926,162.736c22.567,40.809,82.913,71.318,82.913,71.318
		s65.856-32.965,79.588-71.237c13.733-38.272,19.535-125.232,19.535-125.232s-62.329-30.998-146.258-13.147
		c-1.211,52.107,2.758,66.162,7.114,84.656c17.675,48.45,40.347,48.873,40.347,48.873l0.062,45.172c0,0-58.069-29.386-70.401-79.99
		s-7.603-124.411-7.603-124.411s22.938-13.194,78.104-14.744c66.833-1.783,131.896,28.876,131.896,28.876
		S391.625,221.427,368.896,294.797"/>
</g>
</svg>
