<?xml version="1.0" encoding="utf-8"?>
<!-- Generator: Adobe Illustrator 16.0.0, SVG Export Plug-In . SVG Version: 6.00 Build 0)  -->
<!DOCTYPE svg PUBLIC "-//W3C//DTD SVG 1.1//EN" "http://www.w3.org/Graphics/SVG/1.1/DTD/svg11.dtd">
<svg version="1.1" id="图层_1" xmlns="http://www.w3.org/2000/svg" xmlns:xlink="http://www.w3.org/1999/xlink" x="0px" y="0px"
	 width="512px" height="512px" viewBox="0 0 512 512" enable-background="new 0 0 512 512" xml:space="preserve">
<g>
	<path fill="#647CD5" d="M393.206,187.068c62.414,123.091-47.927,223.759-124.665,224.856
		c85.477,42.934,225.662,3.633,242.005-151.342C510.545,120.56,396.215,1.8,255.182,1.8c-2.285,0-6.834,0.089-6.834,0.089
		S406.004,38.297,393.206,187.068 M120.303,179.307c72.267-118.328,217.042-78.35,258.539-14.097
		C370.48,70.467,262.893-27.031,121.67,40.948C1.863,114.823-34.94,271.138,39.468,390.087c6.729,10.758,14.138,20.841,22.136,30.23
		C-0.723,336.505,36.727,199.835,120.303,179.307 M483.468,371.025c-1.082,2.271-2.202,4.512-3.343,6.732
		C482.453,373.923,483.524,371.426,483.468,371.025 M243.394,418.425C107.55,407.444,62.736,267.87,109.101,204.684
		C33.467,263.049,9.324,405.671,143.448,486.59c125.208,58.785,274.264,12.729,336.677-108.832
		C465.162,402.413,398.173,482.492,243.394,418.425 M250.479,127.805c-70.957,0-128.689,57.687-128.689,128.598
		c0,70.899,57.732,128.587,128.689,128.587c70.957,0,128.69-57.688,128.69-128.587C379.169,185.492,321.436,127.805,250.479,127.805
		 M250.479,374.669c-65.268,0-118.36-53.05-118.36-118.266c0-65.217,53.091-118.276,118.36-118.276s118.36,53.06,118.36,118.276
		C368.839,321.619,315.748,374.669,250.479,374.669 M253.185,180.28c-43.528,0-78.816,35.258-78.816,78.752
		c0,43.496,35.288,78.754,78.816,78.754s78.816-35.258,78.816-78.754C332.001,215.538,296.713,180.28,253.185,180.28"/>
</g>
</svg>
