<?xml version="1.0" encoding="utf-8"?>
<!-- Generator: Adobe Illustrator 16.0.0, SVG Export Plug-In . SVG Version: 6.00 Build 0)  -->
<!DOCTYPE svg PUBLIC "-//W3C//DTD SVG 1.1//EN" "http://www.w3.org/Graphics/SVG/1.1/DTD/svg11.dtd">
<svg version="1.1" id="图层_1" xmlns="http://www.w3.org/2000/svg" xmlns:xlink="http://www.w3.org/1999/xlink" x="0px" y="0px"
	 width="512px" height="512px" viewBox="0 0 512 512" enable-background="new 0 0 512 512" xml:space="preserve">
<g>
	<path fill="#3490C1" d="M436.983,1c-80.859,35.539-181.367,4.03-181.367,4.03S155.109,36.539,74.249,1
		c-210.886,307.148,98.849,498.344,181.367,507.827C338.134,499.344,647.869,308.148,436.983,1 M255.616,464.493
		C186.867,456.592-71.185,297.3,104.513,41.403c67.367,29.609,151.104,3.358,151.104,3.358s83.736,26.251,151.104-3.358
		C582.417,297.3,324.365,456.592,255.616,464.493"/>
	<path fill="#3490C1" d="M377.249,82.743c-48.424,21.283-107.206,7.112-120.286,3.509v-0.776c0,0-0.492,0.152-1.347,0.398
		c-0.854-0.246-1.347-0.398-1.347-0.398v0.776c-13.08,3.603-71.862,17.774-120.286-3.509
		C-6.81,287.804,194.626,416.642,254.27,426.699v0.386c0.431-0.049,0.898-0.129,1.347-0.193c0.449,0.064,0.916,0.144,1.347,0.193
		v-0.386C316.606,416.642,518.042,287.804,377.249,82.743 M332.697,313.948h-115.62h-0.061h-38.478
		c-26.855-3.885-46.248-27.04-46.248-53.956c0-26.546,19.918-49.408,46.324-53.185c0,0-0.124-1.541-0.124-1.556
		c0.047-42.055,34.655-76.294,77.127-76.294c42.501,0,77.08,34.577,77.08,77.08c0,5.164-0.525,10.344-1.542,15.416
		c0.631-0.015,1.278-0.015,1.941-0.015c25.282,0,45.848,20.765,45.848,46.264C378.943,293.198,358.194,313.948,332.697,313.948"/>
</g>
</svg>
