<?xml version="1.0" encoding="utf-8"?>
<!-- Generator: Adobe Illustrator 16.0.0, SVG Export Plug-In . SVG Version: 6.00 Build 0)  -->
<!DOCTYPE svg PUBLIC "-//W3C//DTD SVG 1.1//EN" "http://www.w3.org/Graphics/SVG/1.1/DTD/svg11.dtd">
<svg version="1.1"
	 id="svg2" xmlns:dc="http://purl.org/dc/elements/1.1/" xmlns:cc="http://creativecommons.org/ns#" xmlns:rdf="http://www.w3.org/1999/02/22-rdf-syntax-ns#" xmlns:svg="http://www.w3.org/2000/svg"
	 xmlns="http://www.w3.org/2000/svg" xmlns:xlink="http://www.w3.org/1999/xlink" x="0px" y="0px" width="56px" height="80px"
	 viewBox="0 0 56 80" enable-background="new 0 0 56 80" xml:space="preserve">
<g id="g12" transform="scale(0.1,0.1)">
	<path id="path22" fill="#231F20" d="M69.863,243.438L0,312.988V800h489.824L560,730.439V243.438H69.863"/>
	<path id="path24" fill="none" stroke="#FFFFFF" stroke-width="3.9999" d="M69.863,243.438L0,312.988V800h489.824L560,730.439
		V243.438H69.863z"/>
	<path id="path26" fill="#231F20" d="M0,312.988h489.824L560,243.438H69.863L0,312.988"/>
	<path id="path28" fill="none" stroke="#FFFFFF" stroke-width="3.9999" d="M0,312.988h489.824L560,243.438H69.863L0,312.988z"/>
	<path id="path30" fill="#231F20" d="M489.824,312.988L560,243.438v487.002L489.824,800V312.988"/>
	<path id="path32" fill="none" stroke="#FFFFFF" stroke-width="3.9999" d="M489.824,312.988L560,243.438v487.002L489.824,800
		V312.988z"/>
	<path id="path34" fill="#087BBB" d="M69.863,243.438L0,312.988V800h489.824L560,730.439V243.438H69.863"/>
	<path id="path36" fill="none" stroke="#FFFFFF" stroke-width="3.9999" d="M69.863,243.438L0,312.988V800h489.824L560,730.439
		V243.438H69.863z"/>
	<path id="path38" fill="#231F20" d="M0,312.988h489.824L560,243.438"/>
	<path id="path40" fill="none" stroke="#FFFFFF" stroke-width="3.9999" stroke-miterlimit="1" d="M0,312.988h489.824L560,243.438"/>
	<path id="path42" fill="#231F20" d="M489.824,312.988V800"/>
	<path id="path44" fill="none" stroke="#FFFFFF" stroke-width="3.9999" stroke-miterlimit="1" d="M489.824,312.988V800"/>
	<path id="path46" fill="#231F20" d="M69.863,0L0,69.556v243.433h489.824L560,243.438V0H69.863"/>
	<path id="path48" fill="none" stroke="#FFFFFF" stroke-width="3.9999" d="M69.863,0L0,69.556v243.433h489.824L560,243.438V0H69.863
		z"/>
	<path id="path50" fill="#231F20" d="M0,69.556h489.824L560,0H69.863L0,69.556"/>
	<path id="path52" fill="none" stroke="#FFFFFF" stroke-width="3.9999" d="M0,69.556h489.824L560,0H69.863L0,69.556z"/>
	<path id="path54" fill="#231F20" d="M489.824,69.556L560,0v243.438l-70.176,69.551V69.556"/>
	<path id="path56" fill="none" stroke="#FFFFFF" stroke-width="3.9999" d="M489.824,69.556L560,0v243.438l-70.176,69.551V69.556z"/>
	<path id="path58" fill="#087BBB" d="M69.863,0L0,69.556v243.433h489.824L560,243.438V0H69.863"/>
	<path id="path60" fill="none" stroke="#FFFFFF" stroke-width="3.9999" d="M69.863,0L0,69.556v243.433h489.824L560,243.438V0H69.863
		z"/>
	<path id="path62" fill="none" stroke="#FFFFFF" stroke-width="3.9999" stroke-miterlimit="1" d="M0,69.556h489.824L560,0"/>
	<path id="path64" fill="#231F20" d="M489.824,69.556v243.433"/>
	<path id="path66" fill="none" stroke="#FFFFFF" stroke-width="3.9999" stroke-miterlimit="1" d="M489.824,69.556v243.433"/>
	<path id="path68" fill="#FFFFFF" d="M34.927,173.882h140.034v-69.561H34.927V173.882z"/>
	<path id="path70" fill="#231F20" d="M69.863,730.439h350.098v-347.9H69.863V730.439z"/>
	<path id="path72" fill="none" stroke="#FFFFFF" stroke-width="3.9999" stroke-miterlimit="1" d="M69.863,730.439h350.098v-347.9
		H69.863V730.439z"/>
	<path id="path74" fill="#FFFFFF" d="M139.883,660.898h209.902V452.236H139.883V660.898z"/>
	<path id="path76" fill="#FFFFFF" d="M315.01,173.882h140.029v-69.561H315.01V173.882z"/>
	<path id="path78" fill="#FFFFFF" d="M34.927,278.213h140.034v-69.556H34.927V278.213z"/>
	<path id="path80" fill="#FFFFFF" d="M315.01,278.213h140.029v-69.556H315.01V278.213z"/>
	<path id="path82" fill="#231F20" d="M174.961,139.102H315.01"/>
	<path id="path84" fill="none" stroke="#FFFFFF" stroke-width="3.9999" stroke-miterlimit="1" d="M174.961,139.102H315.01"/>
	<path id="path86" fill="#231F20" d="M174.961,243.438H315.01"/>
	<path id="path88" fill="none" stroke="#FFFFFF" stroke-width="3.9999" stroke-miterlimit="1" d="M174.961,243.438H315.01"/>
	<path id="path90" fill="#231F20" d="M174.961,208.657l140.049-34.775"/>
	<path id="path92" fill="none" stroke="#FFFFFF" stroke-width="3.9999" stroke-miterlimit="1" d="M174.961,208.657l140.049-34.775"
		/>
	<path id="path94" fill="#231F20" d="M174.961,173.882l140.049,34.775"/>
	<path id="path96" fill="none" stroke="#FFFFFF" stroke-width="3.9999" stroke-miterlimit="1" d="M174.961,173.882l140.049,34.775"
		/>
</g>
</svg>
