<?xml version="1.0" encoding="utf-8"?>
<!-- Generator: Adobe Illustrator 16.0.0, SVG Export Plug-In . SVG Version: 6.00 Build 0)  -->
<!DOCTYPE svg PUBLIC "-//W3C//DTD SVG 1.1//EN" "http://www.w3.org/Graphics/SVG/1.1/DTD/svg11.dtd">
<svg version="1.1"
	 id="svg2" xmlns:dc="http://purl.org/dc/elements/1.1/" xmlns:cc="http://creativecommons.org/ns#" xmlns:rdf="http://www.w3.org/1999/02/22-rdf-syntax-ns#" xmlns:svg="http://www.w3.org/2000/svg"
	 xmlns="http://www.w3.org/2000/svg" xmlns:xlink="http://www.w3.org/1999/xlink" x="0px" y="0px" width="75px" height="71px"
	 viewBox="0 0 75 71" enable-background="new 0 0 75 71" xml:space="preserve">
<g id="g12" transform="scale(0.1,0.1)">
	<path id="path14" fill="#087BBB" d="M724.058,233.083v335.908l-175.84,141.006H182.754L0,568.991V233.083"/>
	<path id="path16" fill="none" stroke="#FFFFFF" stroke-width="4" d="M724.058,233.083v335.908l-175.84,141.006H182.754L0,568.991
		V233.083"/>
	<path id="path18" fill="#087BBB" d="M179.58,707.751V374.119"/>
	<path id="path20" fill="none" stroke="#FFFFFF" stroke-width="4" d="M179.58,707.751V374.119"/>
	<path id="path22" fill="#087BBB" d="M547.515,707.751V374.119"/>
	<path id="path24" fill="none" stroke="#FFFFFF" stroke-width="4" d="M547.515,707.751V374.119"/>
	<path id="path26" fill="#087BBB" d="M724.058,139.47v97.324L548.218,377.81H182.754L0,236.794V139.47"/>
	<path id="path28" fill="none" stroke="#FFFFFF" stroke-width="4" d="M724.058,139.47v97.324L548.218,377.81H182.754L0,236.794
		V139.47"/>
	<path id="path30" fill="#087BBB" d="M544.8,1.13H186.187L0,139.47l182.754,141.035h365.464l175.84-141.035L544.8,1.13"/>
	<path id="path32" fill="none" stroke="#FFFFFF" stroke-width="4" d="M544.8,1.13H186.187L0,139.47l182.754,141.035h365.464
		l175.84-141.035L544.8,1.13z"/>
	<path id="path34" fill="#087BBB" d="M179.58,375.574v-95.068"/>
	<path id="path36" fill="none" stroke="#FFFFFF" stroke-width="4" d="M179.58,375.574v-95.068"/>
	<path id="path38" fill="#087BBB" d="M547.515,375.574v-95.068"/>
	<path id="path40" fill="none" stroke="#FFFFFF" stroke-width="4" d="M547.515,375.574v-95.068"/>
	<path id="path42" fill="#FFFFFF" d="M294.761,86.96l23.477,41.748l-101.665,15.664l23.159-16.592L87.251,89.744l40.913-26.221
		l147.163,36.445L294.761,86.96"/>
	<path id="path44" fill="#FFFFFF" d="M428.296,193.875l-15.098-42.305l91.523-11.309l-16.66,12.861l148.379,37.021l-38.242,26.201
		l-147.188-39.316L428.296,193.875"/>
	<path id="path46" fill="#FFFFFF" d="M387.651,72.126L490.776,51.98l-2.09,43.457l-24.902-6.719l-52.246,37.285l-46.523-10.4
		l53.867-36.26L387.651,72.126"/>
	<path id="path48" fill="#FFFFFF" d="M332.847,224.314l-97.51,10.879l-0.288-44.844l27.207,8.096l56.323-41.357l46.211,11.436
		l-60.146,45.166L332.847,224.314"/>
	<path id="path50" fill="none" stroke="#FFFFFF" stroke-width="3" d="M290.757,147.546l85.684,12.1"/>
	<path id="path52" fill="none" stroke="#FFFFFF" stroke-width="3" d="M109.756,122.41l88.184,12.324"/>
	<path id="path54" fill="none" stroke="#FFFFFF" stroke-width="3" d="M75.562,79.861l70.928,11.553"/>
	<path id="path56" fill="none" stroke="#FFFFFF" stroke-width="3" d="M154.541,88.904L48.086,164.275"/>
	<path id="path58" fill="none" stroke="#FFFFFF" stroke-width="3" d="M241.533,106.14L97.197,209.636"/>
	<path id="path60" fill="none" stroke="#FFFFFF" stroke-width="3" d="M337.515,117.664L158.804,253.396"/>
	<path id="path62" fill="none" stroke="#FFFFFF" stroke-width="3" d="M149.609,171.658l88.613,12.402"/>
	<path id="path64" fill="none" stroke="#FFFFFF" stroke-width="3" d="M534.644,210.037l88.145,12.344"/>
	<path id="path66" fill="none" stroke="#FFFFFF" stroke-width="3" d="M356.187,185.115l88.184,12.324"/>
	<path id="path68" fill="none" stroke="#FFFFFF" stroke-width="3" d="M397.417,149.099L226.47,277.478"/>
	<path id="path70" fill="none" stroke="#FFFFFF" stroke-width="3" d="M492.085,164.382L342.827,274.656"/>
	<path id="path72" fill="none" stroke="#FFFFFF" stroke-width="3" d="M579.429,176.57l-126.66,96.064"/>
	<path id="path74" fill="none" stroke="#FFFFFF" stroke-width="3" d="M679.39,172.996l-88.691,74.502"/>
	<path id="path76" fill="none" stroke="#FFFFFF" stroke-width="3" d="M214.053,208.943l88.638,12.412"/>
	<path id="path78" fill="none" stroke="#FFFFFF" stroke-width="3" d="M395.229,234.275l88.477,12.412"/>
	<path id="path80" fill="none" stroke="#FFFFFF" stroke-width="3" d="M263.257,4.285L148.813,91.98"/>
	<path id="path82" fill="none" stroke="#FFFFFF" stroke-width="3" d="M381.694-0.002L240.137,109.822"/>
	<path id="path84" fill="none" stroke="#FFFFFF" stroke-width="3" d="M583.921,96.794l76.758,14.473"/>
	<path id="path86" fill="none" stroke="#FFFFFF" stroke-width="3" d="M481.519,8.093L298.276,146.218"/>
	<path id="path88" fill="none" stroke="#FFFFFF" stroke-width="3" d="M566.851,28.142L384.995,158.689"/>
	<path id="path90" fill="none" stroke="#FFFFFF" stroke-width="3" d="M619.233,67.527L481.655,171.833"/>
	<path id="path92" fill="none" stroke="#FFFFFF" stroke-width="3" d="M677.534,104.695l-104.199,80"/>
	<path id="path94" fill="none" stroke="#FFFFFF" stroke-width="3" d="M263.311,95.691l88.608,12.422"/>
	<path id="path96" fill="none" stroke="#FFFFFF" stroke-width="3" d="M444.468,121.013l88.594,12.354"/>
	<path id="path98" fill="none" stroke="#FFFFFF" stroke-width="3" d="M623.784,146.072l69.59,11.123"/>
	<g id="g100" transform="scale(10,10)" style="font-variant:normal;font-weight:bold;font-size:15.7463px;font-family:Helvetica;-inkscape-font-specification:Helvetica-Bold;writing-mode:lr-tb;fill:#ffffff;fill-opacity:1;fill-rule:nonzero;stroke:none">
		<text transform="matrix(0.9977 0 0 1 20.8736 59.6257)">Q</text>
		<text transform="matrix(0.9977 0 0 1 33.0952 59.6257)">F</text>
		<text transform="matrix(0.9977 0 0 1 42.7027 59.6257)">P</text>
	</g>
</g>
</svg>
