<?xml version="1.0" encoding="utf-8"?>
<!-- Generator: Adobe Illustrator 16.0.0, SVG Export Plug-In . SVG Version: 6.00 Build 0)  -->
<!DOCTYPE svg PUBLIC "-//W3C//DTD SVG 1.1//EN" "http://www.w3.org/Graphics/SVG/1.1/DTD/svg11.dtd">
<svg version="1.1"
	 id="svg2" xmlns:dc="http://purl.org/dc/elements/1.1/" xmlns:cc="http://creativecommons.org/ns#" xmlns:rdf="http://www.w3.org/1999/02/22-rdf-syntax-ns#" xmlns:svg="http://www.w3.org/2000/svg"
	 xmlns="http://www.w3.org/2000/svg" xmlns:xlink="http://www.w3.org/1999/xlink" x="0px" y="0px" width="67px" height="75px"
	 viewBox="0 0 67 75" enable-background="new 0 0 67 75" xml:space="preserve">
<g id="g12" transform="scale(0.1,0.1)">
	<path id="path22" fill="#231F20" d="M21.257,233.279l45.137-47.954"/>
	<path id="path24" fill="none" stroke="#FFFFFF" stroke-width="3.9999" d="M21.257,233.279l45.137-47.954"/>
	<path id="path26" fill="#087BBB" d="M586.404,415.124L-0.002,80.095v669.902L586.404,415.124"/>
	<path id="path28" fill="none" stroke="#FFFFFF" stroke-width="3.9999" d="M586.404,415.124L-0.002,80.095v669.902L586.404,415.124z
		"/>
	<path id="path30" fill="#087BBB" d="M575.623,418.767L2.595,94.167l94.229-94.17L669.998,324.46L575.623,418.767"/>
	<path id="path32" fill="none" stroke="#FFFFFF" stroke-width="3.9999" d="M575.623,418.767L2.595,94.167l94.229-94.17
		L669.998,324.46L575.623,418.767z"/>
	<path id="path34" fill="#FFFFFF" d="M144.089,254.46l-80.303,60.176l96.055,41.25L144.089,254.46"/>
	<path id="path36" fill="none" stroke="#FFFFFF" stroke-width="8" stroke-miterlimit="3.86" d="M43.308,210.266l66.641,82.612"/>
	<path id="path38" fill="#FFFFFF" d="M144.089,593.298l-80.303-60.166l96.055-41.113L144.089,593.298"/>
	<path id="path40" fill="none" stroke="#FFFFFF" stroke-width="8" stroke-miterlimit="3.86" d="M43.308,637.331l66.641-82.314"/>
	<path id="path42" fill="#FFFFFF" d="M402.947,372.165l-2.891,100.342l91.895-49.307L402.947,372.165"/>
	<path id="path44" fill="none" stroke="#FFFFFF" stroke-width="8" stroke-miterlimit="3.86" d="M305.583,423.464l105.84-0.703"/>
</g>
</svg>
