<?xml version="1.0" encoding="utf-8"?>
<!-- Generator: Adobe Illustrator 16.0.0, SVG Export Plug-In . SVG Version: 6.00 Build 0)  -->
<!DOCTYPE svg PUBLIC "-//W3C//DTD SVG 1.1//EN" "http://www.w3.org/Graphics/SVG/1.1/DTD/svg11.dtd">
<svg version="1.1"
	 id="svg2" xmlns:dc="http://purl.org/dc/elements/1.1/" xmlns:cc="http://creativecommons.org/ns#" xmlns:rdf="http://www.w3.org/1999/02/22-rdf-syntax-ns#" xmlns:svg="http://www.w3.org/2000/svg"
	 xmlns="http://www.w3.org/2000/svg" xmlns:xlink="http://www.w3.org/1999/xlink" x="0px" y="0px" width="78px" height="78px"
	 viewBox="0 0 78 78" enable-background="new 0 0 78 78" xml:space="preserve">
<g id="g12" transform="scale(0.1,0.1)">
	<path id="path22" fill="#087BBB" d="M15.681,764.995h566.26V184.097H15.681V764.995z"/>
	<path id="path24" fill="none" stroke="#FFFFFF" stroke-width="3.9999" d="M15.681,764.995h566.26V184.097H15.681V764.995z"/>
	<path id="path26" fill="none" stroke="#231F20" stroke-width="14.25" d="M117.532,636.382h119.683l165.127-340.429h114.17"/>
	<path id="path28" fill="#231F20" d="M482.937,235.015v120.703l71.973-57.969L482.937,235.015"/>
	<path id="path30" fill="#231F20" d="M138.098,698.471V577.593l-72.134,58.145L138.098,698.471"/>
	<path id="path32" fill="#FFFFFF" d="M121.624,709.721V589.194l-72.139,57.793L121.624,709.721"/>
	<path id="path34" fill="#FFFFFF" d="M469.675,244.917V365.61l71.953-57.969L469.675,244.917"/>
	<path id="path36" fill="#231F20" d="M138.098,358.579V237.886l-72.134,57.969L138.098,358.579"/>
	<path id="path38" fill="#FFFFFF" d="M121.624,370.005V249.282L49.485,307.28L121.624,370.005"/>
	<path id="path40" fill="none" stroke="#231F20" stroke-width="14.25" d="M518.816,637.417H401.033L232.898,295.562H132.825"/>
	<path id="path42" fill="none" stroke="#FFFFFF" stroke-width="14.25" d="M515.925,648.276H391.912L223.796,306.245H95.569"/>
	<path id="path44" fill="#087BBB" d="M764.294,15L581.941,183.979H14.998L217.546,15H764.294"/>
	<path id="path46" fill="none" stroke="#FFFFFF" stroke-width="3.9999" d="M764.294,15L581.941,183.979H14.998L217.546,15H764.294z"
		/>
	<path id="path48" fill="#087BBB" d="M764.998,542.124V15.386L581.941,184.478v578.271L764.998,542.124"/>
	<path id="path50" fill="none" stroke="#FFFFFF" stroke-width="3.9999" d="M764.998,542.124V15.386L581.941,184.478v578.271
		L764.998,542.124z"/>
	<path id="path52" fill="none" stroke="#FFFFFF" stroke-width="14.25" d="M96.331,647.632h119.712l166.621-340.263h129.648"/>
	<path id="path54" fill="#231F20" d="M482.937,576.616v120.508l71.973-57.773L482.937,576.616"/>
	<path id="path56" fill="#FFFFFF" d="M469.675,586.323V706.87l71.953-57.813L469.675,586.323"/>
	<path id="path58" fill="#231F20" d="M582.507,44.219l23.682-18.096l74.756,24.78L550.212,79.531l28.213-28.77H448.601l8.682-6.543
		H582.507"/>
	<path id="path60" fill="#FFFFFF" d="M479.382,118.34l24.043-18.096l65.234,21.133l-131.045,28.628l21.982-21.768H329.636
		l19.775-9.897H479.382"/>
	<path id="path62" fill="#FFFFFF" d="M415.515,69.292l-10.898,11.689H297.029L275.398,93.94l-65.117-21.436L341.199,44.16
		l-33.271,25.132H415.515"/>
	<path id="path64" fill="#FFFFFF" d="M322.585,143.843l-15.332,11.689H199.832l-17.373,12.974l-64.917-21.445l130.747-28.35
		l-33.291,25.132H322.585"/>
	<path id="path66" fill="#FFFFFF" d="M582.507,50.474l23.682-18.096l65.596,21.309L540.73,82.173l24.229-20.015H434.792
		l17.568-11.685H582.507"/>
</g>
</svg>
