<?xml version="1.0" encoding="utf-8"?>
<!-- Generator: Adobe Illustrator 16.0.0, SVG Export Plug-In . SVG Version: 6.00 Build 0)  -->
<!DOCTYPE svg PUBLIC "-//W3C//DTD SVG 1.1//EN" "http://www.w3.org/Graphics/SVG/1.1/DTD/svg11.dtd">
<svg version="1.1"
	 id="svg2" xmlns:dc="http://purl.org/dc/elements/1.1/" xmlns:cc="http://creativecommons.org/ns#" xmlns:rdf="http://www.w3.org/1999/02/22-rdf-syntax-ns#" xmlns:svg="http://www.w3.org/2000/svg"
	 xmlns="http://www.w3.org/2000/svg" xmlns:xlink="http://www.w3.org/1999/xlink" x="0px" y="0px" width="80px" height="55px"
	 viewBox="0 0 80 55" enable-background="new 0 0 80 55" xml:space="preserve">
<g id="g12" transform="scale(0.1,0.1)">
	<g id="g14">
		<g>
			<defs>
				<polyline id="SVGID_1_" points="15,15.002 785.005,15.002 785.005,535.002 15,535.002 15,15.002 				"/>
			</defs>
			<clipPath id="SVGID_2_">
				<use xlink:href="#SVGID_1_"  overflow="visible"/>
			</clipPath>
			<g id="g16" clip-path="url(#SVGID_2_)">
				<path id="path22" fill="#087BBB" d="M784.79,167.922c0,82.207-171.387,148.633-382.891,148.633
					c-211.353,0-382.749-66.426-382.749-148.633v217.773c0,82.344,171.396,148.77,382.749,148.77
					c211.504,0,382.891-66.426,382.891-148.77V167.922"/>
				<path id="path24" fill="none" stroke="#FFFFFF" stroke-width="3.9999" d="M784.79,167.922
					c0,82.207-171.387,148.633-382.891,148.633c-211.353,0-382.749-66.426-382.749-148.633v217.773
					c0,82.344,171.396,148.77,382.749,148.77c211.504,0,382.891-66.426,382.891-148.77V167.922z"/>
				<path id="path26" fill="#087BBB" d="M401.899,316.555c211.504,0,382.891-66.426,382.891-148.633
					c0-82.222-171.387-148.779-382.891-148.779c-211.353,0-382.749,66.558-382.749,148.779
					C19.15,250.129,190.547,316.555,401.899,316.555"/>
				<path id="path28" fill="none" stroke="#FFFFFF" stroke-width="3.9999" d="M401.899,316.555
					c211.504,0,382.891-66.426,382.891-148.633c0-82.222-171.387-148.779-382.891-148.779
					c-211.353,0-382.749,66.558-382.749,148.779C19.15,250.129,190.547,316.555,401.899,316.555z"/>
				<path id="path30" fill="#FFFFFF" d="M314.575,109.714l31.582,47.373l-119.521,27.69l26.045-21.758L68.027,131.462l46.304-34.658
					l178.213,30.122L314.575,109.714"/>
				<path id="path32" fill="#FFFFFF" d="M482.681,224.651l-21.66-48.848l107.988-21.489l-18.73,16.675l179.668,30.723
					l-43.281,34.502l-178.457-33.643L482.681,224.651"/>
				<path id="path34" fill="#FFFFFF" d="M423.872,83.826l120.547-33.047l1.445,51.772l-30.117-5.703l-58.828,48.843l-56.279-8.218
					l60.85-47.764L423.872,83.826"/>
				<path id="path36" fill="#FFFFFF" d="M371.919,269.27l-114.854,21.484l-4.385-53.222l33.047,7.305l63.242-54.053l56.016,9.453
					l-67.451,58.926L371.919,269.27"/>
				<path id="path38" fill="#FFFFFF" d="M408.032,417.971l65.449,51.494l30.313-0.361l0.039-13.213l69.258,24.365l-69.258,24.668
					l-0.039-14.033l-39.316-0.02l-74.912-58.242l-74.619,58.242l-39.473,0.02l-0.02,14.033l-69.414-24.668l69.414-24.365
					l0.02,13.213l30.449,0.361l65.4-51.494l-65.4-51.172l-30.449,0.068l-0.02,13.477l-69.414-24.365l69.414-24.648l0.02,13.721
					l39.473,0.029l74.619,58.525l74.912-58.525l39.316-0.029l0.039-13.721l69.258,24.648l-69.258,24.365l-0.039-13.477
					l-30.313-0.068L408.032,417.971"/>
			</g>
		</g>
	</g>
</g>
</svg>
