<?xml version="1.0" encoding="utf-8"?>
<!-- Generator: Adobe Illustrator 16.0.0, SVG Export Plug-In . SVG Version: 6.00 Build 0)  -->
<!DOCTYPE svg PUBLIC "-//W3C//DTD SVG 1.1//EN" "http://www.w3.org/Graphics/SVG/1.1/DTD/svg11.dtd">
<svg version="1.1"
	 id="svg2" xmlns:dc="http://purl.org/dc/elements/1.1/" xmlns:cc="http://creativecommons.org/ns#" xmlns:rdf="http://www.w3.org/1999/02/22-rdf-syntax-ns#" xmlns:svg="http://www.w3.org/2000/svg"
	 xmlns="http://www.w3.org/2000/svg" xmlns:xlink="http://www.w3.org/1999/xlink" x="0px" y="0px" width="76px" height="78px"
	 viewBox="0 0 76 78" enable-background="new 0 0 76 78" xml:space="preserve">
<g id="g12" transform="scale(0.1,0.1)">
	<path id="path22" fill="#087BBB" d="M10.002,765.002h612.92v-625.2H10.002V765.002z"/>
	<path id="path24" fill="none" stroke="#FFFFFF" stroke-width="3.9999" d="M10.002,765.002h612.92v-625.2H10.002V765.002z"/>
	<path id="path26" fill="#087BBB" d="M622.922,139.802H10.73l154.8-124.8h584.473v621.728l-127.08,128.115V139.802"/>
	<path id="path28" fill="none" stroke="#FFFFFF" stroke-width="3.9999" d="M622.922,139.802H10.73l154.8-124.8h584.473v621.728
		l-127.08,128.115V139.802z"/>
	<path id="path30" fill="none" stroke="#FFFFFF" stroke-width="3.9999" d="M622.922,139.802l127.08-124.8"/>
	<path id="path32" fill="none" stroke="#FFFFFF" stroke-width="14.25" d="M543.694,639.123H409.241L227.024,271.282H106.658"/>
	<path id="path34" fill="none" stroke="#FFFFFF" stroke-width="14.25" d="M97.454,638.879h129.57l180.664-366.445h140.498"/>
	<path id="path36" fill="#FFFFFF" d="M501.946,205.09v129.97l78.271-62.324L501.946,205.09"/>
	<path id="path38" fill="none" stroke="#FFFFFF" stroke-width="1.9" d="M501.946,205.09v129.97l78.271-62.324L501.946,205.09z"/>
	<path id="path40" fill="#FFFFFF" d="M501.946,571.516v129.775l78.271-62.344L501.946,571.516"/>
	<path id="path42" fill="none" stroke="#FFFFFF" stroke-width="1.9" d="M501.946,571.516v129.775l78.271-62.344L501.946,571.516z"/>
	<path id="path44" fill="#FFFFFF" d="M124.885,337.336V207.571l-78.242,62.324L124.885,337.336"/>
	<path id="path46" fill="none" stroke="#FFFFFF" stroke-width="1.9" d="M124.885,337.336V207.571l-78.242,62.324L124.885,337.336z"
		/>
	<path id="path48" fill="#FFFFFF" d="M124.885,705.617V575.442l-78.242,62.734L124.885,705.617"/>
	<path id="path50" fill="none" stroke="#FFFFFF" stroke-width="1.9" d="M124.885,705.617V575.442l-78.242,62.734L124.885,705.617z"
		/>
</g>
</svg>
