<?xml version="1.0" encoding="utf-8"?>
<!-- Generator: Adobe Illustrator 16.0.0, SVG Export Plug-In . SVG Version: 6.00 Build 0)  -->
<!DOCTYPE svg PUBLIC "-//W3C//DTD SVG 1.1//EN" "http://www.w3.org/Graphics/SVG/1.1/DTD/svg11.dtd">
<svg version="1.1"
	 id="svg2" xmlns:dc="http://purl.org/dc/elements/1.1/" xmlns:cc="http://creativecommons.org/ns#" xmlns:rdf="http://www.w3.org/1999/02/22-rdf-syntax-ns#" xmlns:svg="http://www.w3.org/2000/svg"
	 xmlns="http://www.w3.org/2000/svg" xmlns:xlink="http://www.w3.org/1999/xlink" x="0px" y="0px" width="64px" height="80px"
	 viewBox="0 0 64 80" enable-background="new 0 0 64 80" xml:space="preserve">
<g id="g12" transform="scale(0.1,0.1)">
	<path id="path22" fill="#087BBB" d="M15,790.005h541.807V297.056H15V790.005z"/>
	<path id="path24" fill="none" stroke="#FFFFFF" stroke-width="3.9999" d="M15,790.005h541.807V297.056H15V790.005z"/>
	<path id="path26" fill="#087BBB" d="M625,722.27V229.321l-68.193,67.734v492.949L625,722.27"/>
	<path id="path28" fill="none" stroke="#FFFFFF" stroke-width="3.9999" d="M625,722.27V229.321l-68.193,67.734v492.949L625,722.27z"
		/>
	<path id="path30" fill="#087BBB" d="M114.033,10L15,77.739h541.807L625,10H114.033"/>
	<path id="path32" fill="none" stroke="#FFFFFF" stroke-width="3.9999" d="M114.033,10L15,77.739h541.807L625,10H114.033z"/>
	<path id="path34" fill="#087BBB" d="M15,297.056h541.807V77.739H15V297.056z"/>
	<path id="path36" fill="none" stroke="#FFFFFF" stroke-width="3.9999" d="M15,297.056h541.807V77.739H15V297.056z"/>
	<path id="path38" fill="#087BBB" d="M625,229.321V10l-68.193,67.739v219.316L625,229.321"/>
	<path id="path40" fill="none" stroke="#FFFFFF" stroke-width="3.9999" d="M625,229.321V10l-68.193,67.739v219.316L625,229.321z"/>
	<path id="path42" fill="#231F20" d="M556.807,297.056H15"/>
	<path id="path44" fill="none" stroke="#FFFFFF" stroke-width="3.9999" d="M556.807,297.056H15"/>
	<path id="path46" fill="#231F20" d="M556.807,297.056L625,229.321"/>
	<path id="path48" fill="none" stroke="#FFFFFF" stroke-width="3.9999" d="M556.807,297.056L625,229.321"/>
	<path id="path50" fill="#231F20" d="M115.127,140.947h87.305V95.43h-87.305V140.947z"/>
	<path id="path52" fill="#231F20" d="M402.227,140.947h87.207V95.43h-87.207V140.947z"/>
	<path id="path54" fill="#231F20" d="M115.127,254.536h87.305v-45.4h-87.305V254.536z"/>
	<path id="path56" fill="#231F20" d="M402.227,254.536h87.207v-45.4h-87.207V254.536z"/>
	<path id="path58" fill="none" stroke="#231F20" stroke-width="3.9999" d="M174.443,122.637h268.271"/>
	<path id="path60" fill="none" stroke="#231F20" stroke-width="3.9999" d="M174.443,236.226h268.271"/>
	<path id="path62" fill="none" stroke="#231F20" stroke-width="3.9999" d="M158.857,236.226l283.857-113.589"/>
	<path id="path64" fill="none" stroke="#231F20" stroke-width="3.9999" d="M158.857,122.637l283.857,113.589"/>
	<path id="path66" fill="#FFFFFF" d="M103.379,152.559h87.432v-45.4h-87.432V152.559z"/>
	<path id="path68" fill="#FFFFFF" d="M390.352,152.559h87.441v-45.4h-87.441V152.559z"/>
	<path id="path70" fill="#FFFFFF" d="M103.379,266.284h87.432v-45.547h-87.432V266.284z"/>
	<path id="path72" fill="#FFFFFF" d="M390.352,266.284h87.441v-45.547h-87.441V266.284z"/>
	<path id="path74" fill="none" stroke="#FFFFFF" stroke-width="3.9999" d="M162.705,129.922h268.418"/>
	<path id="path76" fill="none" stroke="#FFFFFF" stroke-width="3.9999" d="M162.705,243.506h268.418"/>
	<path id="path78" fill="none" stroke="#FFFFFF" stroke-width="3.9999" d="M147.109,243.506l284.014-113.584"/>
	<path id="path80" fill="none" stroke="#FFFFFF" stroke-width="3.9999" d="M147.109,129.922l284.014,113.584"/>
	<path id="path82" fill="none" stroke="#231F20" stroke-width="14.25" d="M142.451,667.368h96.758l133.408-272.754h92.207"/>
	<path id="path84" fill="#231F20" d="M437.93,345.64v96.904l58.164-46.621L437.93,345.64"/>
	<path id="path86" fill="#231F20" d="M159.189,717.094v-96.797l-58.467,46.523L159.189,717.094"/>
	<path id="path88" fill="#FFFFFF" d="M145.859,726.235v-96.797l-58.311,46.523L145.859,726.235"/>
	<path id="path90" fill="#FFFFFF" d="M426.885,353.579v96.758l58.477-46.484L426.885,353.579"/>
	<path id="path92" fill="#231F20" d="M159.189,444.809v-96.914l-58.467,46.484L159.189,444.809"/>
	<path id="path94" fill="#FFFFFF" d="M145.859,453.95v-96.914L87.549,403.52L145.859,453.95"/>
	<path id="path96" fill="none" stroke="#231F20" stroke-width="14.25" d="M466.895,668.305h-95.127L235.781,394.302h-81.025"/>
	<path id="path98" fill="none" stroke="#FFFFFF" stroke-width="14.25" d="M464.59,677.075H364.297L228.34,402.768H124.688"/>
	<path id="path100" fill="none" stroke="#FFFFFF" stroke-width="14.25" d="M125.361,676.509h96.748l134.59-272.754h104.98"/>
	<path id="path102" fill="#231F20" d="M437.93,619.419v96.758l58.164-46.484L437.93,619.419"/>
	<path id="path104" fill="#FFFFFF" d="M426.885,627.212v97.031l58.477-46.738L426.885,627.212"/>
</g>
</svg>
