<?xml version="1.0" encoding="utf-8"?>
<!-- Generator: Adobe Illustrator 16.0.0, SVG Export Plug-In . SVG Version: 6.00 Build 0)  -->
<!DOCTYPE svg PUBLIC "-//W3C//DTD SVG 1.1//EN" "http://www.w3.org/Graphics/SVG/1.1/DTD/svg11.dtd">
<svg version="1.1" id="图层_1" xmlns="http://www.w3.org/2000/svg" xmlns:xlink="http://www.w3.org/1999/xlink" x="0px" y="0px"
	 width="512px" height="512px" viewBox="0 0 512 512" enable-background="new 0 0 512 512" xml:space="preserve">
<g>
	<path fill="#47A6E9" d="M498.305,101.513c-10.842-62.465-25.834-77.347-89.15-88.423C368.842,6.04,311.932,2,253.06,2
		C194.7,2,140.724,5.809,101.082,12.688C38.622,23.544,23.739,38.535,12.68,101.84C-1.984,185.659-2.205,326.73,12.195,409.878
		c10.826,62.465,25.818,77.329,89.154,88.423c40.401,7.065,97.422,11.123,156.438,11.123c58.219,0,112.086-3.773,151.679-10.641
		c62.479-10.856,77.358-25.854,88.403-89.17C512.532,325.763,512.737,184.676,498.305,101.513 M482.487,406.945
		c-9.921,56.753-19.827,66.769-75.725,76.483c-38.721,6.709-91.636,10.394-148.994,10.394c-58.143,0-114.176-3.962-153.735-10.873
		c-56.784-9.952-66.801-19.874-76.473-75.726c-14.147-81.694-13.934-220.315,0.481-302.702
		c9.922-56.737,19.828-66.753,75.707-76.456c38.797-6.739,91.809-10.452,149.311-10.452c57.999,0,113.927,3.962,153.396,10.858
		c56.735,9.937,66.75,19.843,76.471,75.722C497.104,185.909,496.902,324.546,482.487,406.945"/>
	<path fill="#47A6E9" d="M253.788,402.748c-109.723-39.618-134.936-97.057-141.614-126.704
		c1.87,11.856,2.048,102.115,141.617,153.502c140.138-49.335,142.038-148.098,142.527-153.776
		C388.915,305.692,361.126,365.69,253.788,402.748"/>
	<path fill="#47A6E9" d="M254.461,82.589v-0.135h-0.688l-0.012,0.003h-0.6v0.159l-151.979,40.442l8.117,121.554
		c1.931,11.259,1.558,84.208,144.457,135.805c144.06-49.736,144.873-131.896,145.361-136.084l7.699-121.272L254.461,82.589z
		 M348.247,244.895c-14.794,29.182-45.987,29.369-47.629,29.369H254.46v-0.002h-52.193c-14.48,0-53.82-14.373-46.755-52.396
		c5.591-30.063,36.146-32.354,45.207-32.354c1.602,0,2.484,0.051,2.53,0.055c-0.295-2.1-5.919-42.009,40.456-48.222
		c3.082-0.413,6.015-0.609,8.796-0.609c0.223,0,0.438,0.008,0.659,0.01v0.022c37.416,1.181,46.632,36.059,47.125,37.925
		c2.018-0.185,3.988-0.276,5.901-0.278C345.715,178.411,362.367,217.072,348.247,244.895"/>
</g>
</svg>
