<?xml version="1.0" encoding="utf-8"?>
<!-- Generator: Adobe Illustrator 16.0.0, SVG Export Plug-In . SVG Version: 6.00 Build 0)  -->
<!DOCTYPE svg PUBLIC "-//W3C//DTD SVG 1.1//EN" "http://www.w3.org/Graphics/SVG/1.1/DTD/svg11.dtd">
<svg version="1.1"
	 id="图层_1" xmlns:dc="http://purl.org/dc/elements/1.1/" xmlns:cc="http://creativecommons.org/ns#" xmlns:rdf="http://www.w3.org/1999/02/22-rdf-syntax-ns#"
	 xmlns="http://www.w3.org/2000/svg" xmlns:xlink="http://www.w3.org/1999/xlink" x="0px" y="0px" width="75px" height="68px"
	 viewBox="0 0 75 68" enable-background="new 0 0 75 68" xml:space="preserve">
<path fill="#00BCF2" d="M50.323,0.003c-0.181-0.007-0.302-0.006-0.335,0.034c-0.053,0.062-0.844,2.49-1.74,5.367
	c-0.898,2.876-3.12,9.987-4.956,15.834c-1.835,5.845-3.298,10.738-3.247,10.868c0.077,0.204,0.471,0.234,2.813,0.234
	c2.201,0,2.732,0.059,2.879,0.235c0.146,0.177-0.264,1.287-2.209,6.003c-1.313,3.184-2.527,6.058-2.678,6.408
	c-0.151,0.353-0.184,0.632-0.102,0.604c0.257-0.086,16.439-18.577,16.439-18.785c0-0.161-0.658-0.201-3.449-0.201
	c-2.158,0-3.457-0.041-3.516-0.135c-0.051-0.082,0.414-1.067,1.037-2.18c0.624-1.113,2.12-3.817,3.35-6.004
	C59.9,8.869,62.37,4.491,62.443,4.298c0.088-0.228-2.273-1.5-4.318-2.314C56.029,1.148,51.582,0.052,50.323,0.003z M41.417,3.66
	l-0.535,0.067c-0.62,0.096-3.841,0.971-4.453,1.208l-0.436,0.167l0.067,3.254l0.033,3.254l-0.436,0.234
	c-0.239,0.12-0.89,0.483-1.439,0.806l-1.004,0.57l-2.679-1.577c-1.471-0.87-2.716-1.61-2.779-1.644
	c-0.166-0.088-1.958,1.528-3.081,2.784l-0.971,1.073l1.674,2.784l1.674,2.785l-0.369,0.604c-0.202,0.33-0.591,0.999-0.837,1.476
	l-0.433,0.874l-3.214-0.067l-3.248-0.067l-0.301,0.738c-0.271,0.712-0.886,3.14-1.071,4.193l-0.101,0.537l2.813,1.544l2.813,1.543
	v1.711v1.677l-2.813,1.542l-2.813,1.544l0.101,0.536c0.152,0.863,0.775,3.268,1.071,4.126l0.268,0.806l3.248-0.067l3.248-0.067
	l0.435,0.873c0.246,0.479,0.635,1.147,0.837,1.477l0.369,0.604l-1.674,2.782l-1.674,2.785l1.172,1.274
	c1.061,1.163,2.63,2.615,2.813,2.615c0.039,0,1.307-0.714,2.813-1.609l2.745-1.645l0.971,0.605c0.546,0.317,1.201,0.686,1.439,0.805
	l0.436,0.201l-0.033,3.254l-0.067,3.254l0.436,0.167c0.653,0.252,2.798,0.848,3.851,1.074c0.525,0.114,0.994,0.229,1.037,0.233
	c0.045,0.008,0.793-1.23,1.642-2.749l1.54-2.785h1.741h1.739l1.508,2.75l1.507,2.719l0.502-0.067
	c0.569-0.057,3.455-0.766,4.319-1.072l0.568-0.235v-3.254v-3.287l0.437-0.202c0.241-0.121,0.894-0.482,1.438-0.804l1.006-0.604
	l2.711,1.644c1.486,0.896,2.752,1.61,2.847,1.61c0.233,0,3.851-3.653,3.851-3.892c0-0.104-0.722-1.407-1.607-2.886l-1.605-2.683
	l0.368-0.605c0.201-0.329,0.56-0.998,0.804-1.476l0.436-0.873l3.248,0.067l3.248,0.068l0.268-0.807
	c0.298-0.865,0.923-3.273,1.07-4.126L75,37.271l-2.813-1.542l-2.779-1.543v-1.677v-1.711l2.779-1.543
	C73.725,28.407,75,27.659,75,27.577c-0.003-0.365-0.749-3.357-1.07-4.294l-0.369-1.04l-3.248,0.067l-3.248,0.067l-0.436-0.873
	c-0.245-0.477-0.604-1.146-0.804-1.476l-0.368-0.604l1.641-2.785l1.674-2.784L67.6,12.583c-1.273-1.397-2.693-2.661-2.879-2.583
	c-0.063,0.027-0.808,0.419-1.642,0.906l-1.507,0.906l-2.176,3.22l-2.178,3.22l1.406,1.409c2.926,2.906,4.686,6.301,5.257,10.198
	c0.269,1.822,0.272,2.803,0.067,4.629c-0.887,7.836-6.734,14.116-14.531,15.597c-1.549,0.295-4.723,0.287-6.361,0
	c-5.126-0.896-9.849-4.277-12.421-8.89c-2.398-4.293-2.894-9.664-1.339-14.356c1.504-4.542,4.795-8.303,9.142-10.398
	c1.394-0.671,3.776-1.476,4.386-1.476c0.372,0,0.444-0.241,1.139-3.153l0.603-2.483l-1.572-2.852L41.417,3.66z M10.815,43.477
	l-0.536,1.677l-0.536,1.678l-0.971,0.402l-0.971,0.402l-1.54-0.704c-0.846-0.399-1.574-0.738-1.641-0.738s-0.548,0.442-1.071,0.973
	l-0.971,0.94l0.77,1.51c0.427,0.826,0.772,1.59,0.77,1.677c-0.002,0.088-0.143,0.535-0.334,1.008l-0.369,0.87l-1.674,0.605
	L0.067,54.38l-0.033,1.408L0,57.163l1.708,0.569l1.674,0.538l0.301,0.704c0.524,1.183,0.51,1.296-0.301,2.951l-0.737,1.543
	l0.971,1.007l1.004,0.973l1.641-0.806l1.607-0.805l0.971,0.437l0.938,0.436l0.569,1.645L10.915,68h1.44h1.406l0.502-1.68
	l0.536-1.644l0.938-0.402l0.971-0.436l1.674,0.771l1.641,0.772l0.971-0.974l0.971-0.973l-0.77-1.61l-0.804-1.609l0.335-0.905
	c0.184-0.491,0.41-0.936,0.502-1.007c0.092-0.069,0.869-0.396,1.741-0.703l1.607-0.536l-0.033-1.409l-0.067-1.409l-1.641-0.537
	l-1.674-0.537l-0.368-0.87c-0.194-0.48-0.335-0.94-0.335-1.041c0-0.099,0.307-0.861,0.703-1.71l0.737-1.544l-1.004-1.006
	l-1.005-1.006l-1.573,0.837l-1.541,0.807l-0.971-0.402l-0.971-0.369l-0.603-1.71l-0.636-1.678h-1.373h-1.406V43.477z M12.288,51.897
	c3.57,0.002,5.226,4.324,2.578,6.708c-0.392,0.354-0.985,0.708-1.306,0.806c-2.116,0.635-4.362-0.482-4.955-2.483
	c-0.304-1.022-0.291-1.592,0.067-2.549C9.25,52.83,10.637,51.897,12.288,51.897z"/>
</svg>
