<?xml version="1.0" encoding="utf-8"?>
<!-- Generator: Adobe Illustrator 16.0.0, SVG Export Plug-In . SVG Version: 6.00 Build 0)  -->
<!DOCTYPE svg PUBLIC "-//W3C//DTD SVG 1.1//EN" "http://www.w3.org/Graphics/SVG/1.1/DTD/svg11.dtd">
<svg version="1.1"
	 id="图层_1" xmlns:dc="http://purl.org/dc/elements/1.1/" xmlns:cc="http://creativecommons.org/ns#" xmlns:rdf="http://www.w3.org/1999/02/22-rdf-syntax-ns#"
	 xmlns="http://www.w3.org/2000/svg" xmlns:xlink="http://www.w3.org/1999/xlink" x="0px" y="0px" width="76px" height="48px"
	 viewBox="0 0 76 48" enable-background="new 0 0 76 48" xml:space="preserve">
<path fill="#00BCF2" d="M0,23.95C0,1.102,0.013-0.096,0.26,0.005C8.034,3.19,17.836,5.207,29.58,6.037
	c3.457,0.245,13.382,0.249,16.839,0.006c11.712-0.821,21.512-2.839,29.319-6.038C75.986-0.096,76,1.102,76,23.949
	C76,37.176,75.979,48,75.951,48c-0.026,0-0.915-0.325-1.974-0.724C64.313,43.649,51.892,41.737,38,41.737
	c-14.359,0-27.266,2.071-37.074,5.952C0.492,47.858,0.106,48,0.069,48S0,37.178,0,23.95L0,23.95z M40.258,35.731l0.649-1.886
	l1.047-0.43l1.049-0.43l1.783,0.827l1.783,0.827l1.119-1.113l1.118-1.114l-0.891-1.69l-0.891-1.689l0.443-1.089l0.444-1.087
	l1.861-0.69l1.862-0.688l0.041-1.539l0.043-1.538L49.8,21.771l-1.92-0.63l-0.414-1.054l-0.415-1.053l0.76-1.629l0.76-1.629
	l-0.496-0.765c-0.275-0.42-0.734-0.987-1.02-1.257l-0.521-0.493l-1.779,0.887l-1.777,0.888l-1.058-0.441l-1.059-0.439l-0.651-1.809
	l-0.649-1.81l-1.577-0.042l-1.578-0.041l-0.558,1.748c-0.307,0.961-0.615,1.807-0.684,1.879c-0.069,0.072-0.573,0.318-1.119,0.548
	l-0.992,0.417l-1.721-0.809c-0.946-0.444-1.796-0.809-1.89-0.809c-0.092,0-0.636,0.473-1.207,1.047l-1.039,1.05l0.919,1.751
	l0.918,1.751l-0.472,1.077l-0.471,1.077l-1.863,0.687l-1.862,0.687l-0.043,1.509l-0.043,1.51l1.925,0.633l1.924,0.632l0.446,1.065
	l0.446,1.064l-0.856,1.765l-0.857,1.764l1.122,1.138l1.121,1.14l1.702-0.898l1.703-0.899l1.021,0.4
	c0.562,0.221,1.083,0.479,1.158,0.576c0.075,0.097,0.425,0.96,0.779,1.919l0.642,1.743h1.526h1.527L40.258,35.731L40.258,35.731z
	 M36.985,28.186c-2.708-0.731-4.053-3.657-2.805-6.111c0.704-1.384,2.365-2.413,3.896-2.413c2.253,0,4.243,1.995,4.243,4.26
	C42.324,26.823,39.702,28.921,36.985,28.186z"/>
</svg>
