<?xml version="1.0" encoding="utf-8"?>
<!-- Generator: Adobe Illustrator 16.0.0, SVG Export Plug-In . SVG Version: 6.00 Build 0)  -->
<!DOCTYPE svg PUBLIC "-//W3C//DTD SVG 1.1//EN" "http://www.w3.org/Graphics/SVG/1.1/DTD/svg11.dtd">
<svg version="1.1"
	 id="svg2" xmlns:dc="http://purl.org/dc/elements/1.1/" xmlns:cc="http://creativecommons.org/ns#" xmlns:rdf="http://www.w3.org/1999/02/22-rdf-syntax-ns#" xmlns:svg="http://www.w3.org/2000/svg"
	 xmlns="http://www.w3.org/2000/svg" xmlns:xlink="http://www.w3.org/1999/xlink" x="0px" y="0px" width="77px" height="55px"
	 viewBox="0 0 77 55" enable-background="new 0 0 77 55" xml:space="preserve">
<g id="g12" transform="scale(0.1,0.1)">
	<path id="path14" fill="#087BBB" d="M0.002,529.995H690.51V76.294H0.002V529.995z"/>
	<path id="path16" fill="none" stroke="#FFFFFF" stroke-width="4" d="M0.002,529.995H690.51V76.294H0.002V529.995z"/>
	<path id="path18" fill="#087BBB" d="M770.002,413.686L690.51,529.995V76.294L770.002-20V413.686"/>
	<path id="path20" fill="none" stroke="#FFFFFF" stroke-width="4" d="M770.002,413.686L690.51,529.995V76.294L770.002-20V413.686z"
		/>
	<path id="path22" fill="#087BBB" d="M119.177-20h650.825L690.51,76.294H0.002L119.177-20"/>
	<path id="path24" fill="none" stroke="#FFFFFF" stroke-width="4" d="M119.177-20h650.825L690.51,76.294H0.002L119.177-20z"/>
	<path id="path26" fill="#FFFFFF" d="M100.872,195.527l-61.333,0.063v-18.394l61.333-0.054l0.029-28.662l67.051,37.91
		l-67.051,37.822L100.872,195.527"/>
	<path id="path28" fill="#FFFFFF" d="M100.872,310.073l-61.333,0.254v-18.496l61.333-0.039l0.029-28.652l67.051,37.813
		l-67.051,38.027L100.872,310.073"/>
	<path id="path30" fill="#FFFFFF" d="M100.872,424.819l-61.333,0.059v-18.281l61.333-0.254l0.029-28.691l67.051,38.066
		l-67.051,37.813L100.872,424.819"/>
	<path id="path32" fill="#FFFFFF" d="M617.61,311.323l-80.225,0.078V293.12l80.225-0.059l0.225-28.887l66.963,38.027l-66.963,37.812
		L617.61,311.323"/>
	<path id="path34" fill="#FFFFFF" d="M223.611,309.194c0,73.437,59.429,132.851,132.749,132.851V309.194H223.611"/>
	<path id="path36" fill="#FFFFFF" d="M356.36,176.455c73.213,0,132.637,59.419,132.637,132.739H356.36V176.455"/>
</g>
</svg>
