<?xml version="1.0" encoding="utf-8"?>
<!-- Generator: Adobe Illustrator 16.0.0, SVG Export Plug-In . SVG Version: 6.00 Build 0)  -->
<!DOCTYPE svg PUBLIC "-//W3C//DTD SVG 1.1//EN" "http://www.w3.org/Graphics/SVG/1.1/DTD/svg11.dtd">
<svg version="1.1" id="图层_1" xmlns="http://www.w3.org/2000/svg" xmlns:xlink="http://www.w3.org/1999/xlink" x="0px" y="0px"
	 width="512px" height="512px" viewBox="0 0 512 512" enable-background="new 0 0 512 512" xml:space="preserve">
<g>
	<path fill="#29CFB1" d="M511,255.5c0-141.386-114.614-256-256-256C113.614-0.5-1,114.114-1,255.5s114.614,256,256,256h229.165
		c14.822,0,26.835-12.016,26.835-26.835V258.959l-0.09,0.09C510.927,257.862,511,256.69,511,255.5 M431,422.041
		c0,5.203-4.307,9.459-9.574,9.459h-63.578c-0.042-0.762-0.099-2.47-0.099-3.715c0-11.854,3.037-23.002,8.387-32.73
		c5.882-10.704,14.563-19.686,25.069-25.997c10.506-6.307,22.842-9.938,36.035-9.938c1.261,0,2.985,0.061,3.76,0.099V422.041z
		 M404.011,290.55c-2.196,0-4.33-0.266-6.375-0.755c-57.899,8.806-102.564,55.446-105.536,112.743
		c0.065,0.758,0.106,1.522,0.106,2.297c0,14.726-12.083,26.666-26.989,26.666c-14.906,0-26.989-11.938-26.989-26.666
		c0-0.552,0.022-1.098,0.056-1.642c2.725-86.733,72.449-157.194,161.243-165.604c1.459-0.241,2.956-0.373,4.483-0.373
		c14.906,0,26.989,11.936,26.989,26.666C431,278.607,418.917,290.55,404.011,290.55 M404.011,164.834
		c-2.126,0-4.191-0.251-6.177-0.71c-128.216,9.681-229.462,111.866-233.001,237.973c0.093,0.9,0.141,1.813,0.141,2.737
		c0,14.726-12.083,26.666-26.986,26.666c-14.906,0-26.989-11.939-26.989-26.666c1.963-157.255,129.674-285.053,290.117-293.18
		c0.951-0.1,1.916-0.155,2.894-0.155c14.906,0,26.989,11.939,26.989,26.666C431,152.895,418.917,164.834,404.011,164.834"/>
</g>
</svg>
