<?xml version="1.0" encoding="utf-8"?>
<!-- Generator: Adobe Illustrator 16.0.0, SVG Export Plug-In . SVG Version: 6.00 Build 0)  -->
<!DOCTYPE svg PUBLIC "-//W3C//DTD SVG 1.1//EN" "http://www.w3.org/Graphics/SVG/1.1/DTD/svg11.dtd">
<svg version="1.1"
	 id="svg2" xmlns:svg="http://www.w3.org/2000/svg" xmlns:cc="http://creativecommons.org/ns#" xmlns:rdf="http://www.w3.org/1999/02/22-rdf-syntax-ns#" xmlns:dc="http://purl.org/dc/elements/1.1/"
	 xmlns="http://www.w3.org/2000/svg" xmlns:xlink="http://www.w3.org/1999/xlink" x="0px" y="0px" width="240px" height="265px"
	 viewBox="0 0 240 265" enable-background="new 0 0 240 265" xml:space="preserve">
<g>
	<path id="path14" fill="none" stroke="#100F0D" stroke-linecap="round" stroke-linejoin="round" stroke-miterlimit="10" d="
		M24.283,264c-12.938,0-23.282-11.771-23.282-23.541V48.229C1.001,36.463,11.345,26,24.283,26h191.432
		c12.938,0,23.286,10.463,23.286,22.229v192.229c0,11.771-10.349,23.541-23.286,23.541L24.283,264L24.283,264z"/>
	<g>
		<path id="path24" fill="#F58B16" d="M51.729,20.862L51.729,20.862l-2.165,7.896h4.183L51.729,20.862L51.729,20.862"/>
		<path id="path40" fill="#F58B16" d="M29.5,29.45v1.151c0,5.636,6.701,11.396,15.112,11.396L89.388,42
			c8.41,0,15.112-5.762,15.112-11.398V29.45c0-5.253-5.847-11.907-13.401-12.423c-0.143-4.737-4.418-8.45-9.692-8.45
			c-2.141,0-3.999,0.511-5.563,1.539C72.846,4.096,66.144,0,58.302,0C47.751,0,39.195,7.555,39.195,17.158c0,0.124,0,0.254,0,0.513
			C33.486,19.076,29.5,25.098,29.5,29.45z M55.45,34.702L55.45,34.702l-0.996-3.97h-5.281l-1.135,3.97h-2.859l4.991-15.877h3.568
			l4.708,15.877H55.45z M72.562,34.702h-3.279l-2.284-12.038l0,0l-2.281,12.038h-3.279l-3.277-15.878h2.845l2.284,12.292l0,0
			l2.287-12.292h2.991l2.427,12.292l0,0l2.284-12.292h2.847L72.562,34.702z M82.974,34.955L82.974,34.955
			c-4.422,0-5.422-2.563-5.422-4.863v-0.386h2.852v0.386c0,1.919,0.856,2.941,2.852,2.941c1.854,0,2.71-1.147,2.71-2.301
			c0-1.666-1-2.432-2.568-2.816l-1.854-0.645c-2.565-0.896-3.705-2.046-3.705-4.353c0-2.818,2.135-4.48,5.416-4.48
			c4.565,0,4.987,2.56,4.987,4.224v0.385H85.54v-0.385c0-1.407-0.715-2.303-2.568-2.303c-1.148,0-2.284,0.639-2.284,2.303
			c0,1.407,0.715,2.048,2.564,2.689l1.997,0.642c2.423,0.766,3.563,2.047,3.563,4.229C88.814,33.547,86.541,34.955,82.974,34.955
			L82.974,34.955"/>
		<path id="path42" fill="#FFFFFF" d="M50.169,18.824L50.169,18.824l-4.991,15.877h2.859l1.135-3.97h5.281l0.996,3.97h2.996
			l-4.708-15.877H50.169z M49.747,28.684L49.747,28.684l2.143-7.814l0,0l1.997,7.814H49.747L49.747,28.684"/>
		<path id="path44" fill="#FFFFFF" d="M70.995,31.116L70.995,31.116l-2.427-12.292h-2.991L63.29,31.116l0,0l-2.423-12.292h-2.705
			l3.277,15.877h3.279L67,22.663l0,0l2.284,12.038h3.279l3.563-15.877h-2.847L70.995,31.116L70.995,31.116"/>
		<path id="path46" fill="#FFFFFF" d="M85.252,25.994L85.252,25.994l-1.998-0.641c-1.849-0.644-2.564-1.283-2.564-2.691
			c0-1.662,1.135-2.302,2.284-2.302c1.853,0,2.568,0.895,2.568,2.302v0.386h2.701v-0.386c0-1.662-0.422-4.224-4.987-4.224
			c-3.28,0-5.416,1.662-5.416,4.48c0,2.306,1.14,3.456,3.705,4.353l1.854,0.645c1.568,0.385,2.568,1.15,2.568,2.816
			c0,1.153-0.857,2.301-2.71,2.301c-1.849,0-2.852-1.022-2.852-2.941v-0.385h-2.852v0.385c0,2.302,1,4.863,5.422,4.863
			c3.566,0,5.842-1.407,5.842-4.733C88.814,28.041,87.675,26.76,85.252,25.994L85.252,25.994"/>
	</g>
</g>
</svg>
