<?xml version="1.0" encoding="utf-8"?>
<!-- Generator: Adobe Illustrator 16.0.0, SVG Export Plug-In . SVG Version: 6.00 Build 0)  -->
<!DOCTYPE svg PUBLIC "-//W3C//DTD SVG 1.1//EN" "http://www.w3.org/Graphics/SVG/1.1/DTD/svg11.dtd">
<svg version="1.1"
	 id="svg2" xmlns:dc="http://purl.org/dc/elements/1.1/" xmlns:cc="http://creativecommons.org/ns#" xmlns:rdf="http://www.w3.org/1999/02/22-rdf-syntax-ns#" xmlns:svg="http://www.w3.org/2000/svg"
	 xmlns="http://www.w3.org/2000/svg" xmlns:xlink="http://www.w3.org/1999/xlink" x="0px" y="0px" width="75px" height="72px"
	 viewBox="0 0 75 72" enable-background="new 0 0 75 72" xml:space="preserve">
<g id="g12" transform="scale(0.1,0.1)">
	<path id="path22" fill="#918F90" d="M749.995,146.736c0,81.016-167.813,146.602-374.99,146.602
		C167.832,293.337,0,227.751,0,146.736v171.26c0,81.015,167.832,146.611,375.005,146.611c207.178,0,374.99-65.596,374.99-146.611
		V146.736"/>
	<path id="path24" fill="none" stroke="#FFFFFF" stroke-width="4" d="M749.995,146.736c0,81.016-167.813,146.602-374.99,146.602
		C167.832,293.337,0,227.751,0,146.736v171.26c0,81.015,167.832,146.611,375.005,146.611c207.178,0,374.99-65.596,374.99-146.611
		V146.736z"/>
	<path id="path26" fill="#087BBB" d="M749.995,315.066c0,80.996-167.813,146.601-374.99,146.601
		C167.832,461.667,0,396.062,0,315.066v258.349c0,80.986,167.832,146.582,375.005,146.582c207.178,0,374.99-65.596,374.99-146.582
		V315.066"/>
	<path id="path28" fill="none" stroke="#FFFFFF" stroke-width="4" d="M749.995,315.066c0,80.996-167.813,146.601-374.99,146.601
		C167.832,461.667,0,396.062,0,315.066v258.349c0,80.986,167.832,146.582,375.005,146.582c207.178,0,374.99-65.596,374.99-146.582
		V315.066z"/>
	<path id="path30" fill="#918F90" d="M375.005,293.337c207.178,0,374.99-65.586,374.99-146.602
		c0-80.986-167.813-146.738-374.99-146.738C167.832-0.002,0,65.75,0,146.736C0,227.751,167.832,293.337,375.005,293.337"/>
	<path id="path32" fill="none" stroke="#FFFFFF" stroke-width="4" d="M375.005,293.337c207.178,0,374.99-65.586,374.99-146.602
		c0-80.986-167.813-146.738-374.99-146.738C167.832-0.002,0,65.75,0,146.736C0,227.751,167.832,293.337,375.005,293.337z"/>
	<path id="path34" fill="#FFFFFF" d="M289.351,89.363l31.016,46.748l-117.114,27.197l25.605-21.387L47.935,110.759l45.391-34.238
		l174.639,29.785L289.351,89.363"/>
	<path id="path36" fill="#FFFFFF" d="M454.116,202.693L432.925,154.5l105.566-21.279l-18.301,16.533l176.191,30.205l-42.324,33.945
		l-175-32.92L454.116,202.693"/>
	<path id="path38" fill="#FFFFFF" d="M396.343,63.904l118.398-32.646l1.426,51.055L486.44,76.57l-57.793,48.164l-55.02-8.076
		l59.766-47.119L396.343,63.904"/>
	<path id="path40" fill="#FFFFFF" d="M345.698,246.55l-112.705,21.113l-4.146-52.334l32.31,7.061l62.1-53.164l54.766,9.297
		l-66.084,58.096L345.698,246.55"/>
	<path id="path42" fill="#087BBB" d="M8.535,361.755c39.028,65.459,176.343,110.137,358.823,110.137
		c177.676,0,331.543-49.463,374.707-112.314l-0.215-43.076c0,71.484-177.031,134.844-374.492,134.844
		c-197.446,0-350.522-61.299-360.459-129.717L8.535,361.755"/>
	<path id="path44" fill="#918F90" d="M338.345,424.187v18.467h-64.102l94.619,123.662l94.727-123.662h-64.258v-18.467H338.345"/>
	<path id="path46" fill="#FFFFFF" d="M278.979,671.706l224.219-225.449l-20.352-11.24l-224.238,225.41L278.979,671.706"/>
	<path id="path48" fill="#FFFFFF" d="M459.038,668.659L236.855,446.032l19.946-11.68L478.999,656.97L459.038,668.659"/>
	<path id="path50" fill="#FFFFFF" d="M400.093,656.882l-0.195,20.537c60.605-3.506,148.125-12.607,197.852-26.66l0.508-19.795
		C549.956,644.782,459.253,653.718,400.093,656.882"/>
	<path id="path52" fill="#FFFFFF" d="M153.379,650.945c47.705,13.389,127.163,22.646,185.034,26.279l1.348-19.072
		c-61.328-3.76-144.16-15.283-185.298-26.992L153.379,650.945"/>
	<path id="path54" fill="#FFFFFF" d="M147.5,434.48c47.954,14.023,127.866,23.564,186.548,27.695l-0.068-20.527
		c-62.148-4.258-145.366-14.658-186.743-26.943L147.5,434.48"/>
	<path id="path56" fill="#FFFFFF" d="M401.421,442.302l-1.68,20.234c62.344-3.271,151.641-12.891,202.344-27.979l0.117-19.482
		C552.983,429.333,462.261,438.806,401.421,442.302"/>
	<path id="path58" fill="#FFFFFF" d="M207.168,563.21l29.785,5.215l-14.58-49.209l-0.337-0.02L207.168,563.21z M192.363,605.232
		l-25.718-4.482l41.753-110.439l28.208,5.029l41.318,124.785l-26.66-4.58l-7.422-25.645l-43.218-7.51L192.363,605.232"/>
	<path id="path60" fill="#FFFFFF" d="M530.503,549.304c18.281-2.432,18.281-15.605,18.281-20.811
		c0-11.611-6.172-15.391-21.426-13.223l-19.277,2.539v34.609L530.503,549.304z M508.081,615.427l-24.629,3.271v-117.5l53.496-7.783
		c22.676-3.105,36.465,9.502,36.465,32.49c0,10.811-5.879,38.652-37.363,43.086l-27.969,3.877V615.427"/>
</g>
</svg>
