<?xml version="1.0" encoding="utf-8"?>
<!-- Generator: Adobe Illustrator 16.0.0, SVG Export Plug-In . SVG Version: 6.00 Build 0)  -->
<!DOCTYPE svg PUBLIC "-//W3C//DTD SVG 1.1//EN" "http://www.w3.org/Graphics/SVG/1.1/DTD/svg11.dtd">
<svg version="1.1" id="图层_1" xmlns="http://www.w3.org/2000/svg" xmlns:xlink="http://www.w3.org/1999/xlink" x="0px" y="0px"
	 width="512px" height="512px" viewBox="0 0 512 512" enable-background="new 0 0 512 512" xml:space="preserve">
<g>
	<path fill="#47A6E9" d="M499.037,101.813c-10.847-62.461-25.838-77.337-89.152-88.42c-40.31-7.053-97.21-11.098-156.091-11.098
		c-58.363,0-112.338,3.801-151.978,10.687c-62.468,10.855-77.345,25.853-88.405,89.152c-14.663,83.819-14.884,224.882-0.48,308.031
		c10.817,62.461,25.815,77.329,89.152,88.42c40.409,7.069,97.431,11.121,156.434,11.121h0.009
		c58.218,0,112.087-3.778,151.665-10.634c62.476-10.862,77.359-25.854,88.404-89.167
		C513.266,326.071,513.464,184.977,499.037,101.813 M483.24,407.222c-9.918,56.764-19.82,66.772-75.715,76.492
		c-38.727,6.703-91.636,10.39-149,10.39h-0.009c-58.148,0-114.181-3.961-153.745-10.877c-56.786-9.947-66.795-19.865-76.469-75.715
		c-14.153-81.702-13.939-220.319,0.48-302.699c9.918-56.748,19.82-66.757,75.7-76.461c38.794-6.741,91.817-10.458,149.312-10.458
		c58.012,0,113.938,3.961,153.41,10.868c56.748,9.933,66.757,19.843,76.477,75.715C497.85,186.186,497.652,324.819,483.24,407.222"
		/>
	<path fill="#47A6E9" d="M256.424,97.2h-0.631l-0.008,0.002h-0.552v0.147L115.66,134.34l8.157,147.793
		c0,0.983,0,19.643,5.975,30.868c30.046,56.447,101.202,90.748,124.018,100.902c0.058,0.026,0.727,0.309,1.423,0.561v0.334
		c0.127-0.003,0.365-0.119,0.55-0.176c0.211,0.058,0.481,0.176,0.623,0.178c0,0,0.012-0.003,0.018-0.005v-0.379
		c0.562-0.237,1.069-0.486,1.117-0.51c22.81-10.154,93.971-44.455,124.017-100.9c5.976-11.226,6.571-29.884,6.603-30.867
		l8.18-147.797l-139.916-37.02V97.2z M298.509,197.482c1.854-0.17,3.663-0.253,5.42-0.254c36.299-0.004,51.591,35.358,38.625,60.807
		c-13.586,26.691-42.232,26.863-43.738,26.863h-42.392v-0.002h-47.93c-13.298,0-49.428-13.147-42.939-47.926
		c5.135-27.498,33.197-29.593,41.516-29.593c1.471,0,2.282,0.047,2.325,0.05c-0.272-1.92-5.437-38.424,37.153-44.104
		c2.83-0.379,5.523-0.559,8.079-0.559c0.205,0,0.403,0.007,0.606,0.009v0.021C289.592,163.873,298.057,195.774,298.509,197.482"/>
</g>
</svg>
