<?xml version="1.0" encoding="utf-8"?>
<!-- Generator: Adobe Illustrator 16.0.0, SVG Export Plug-In . SVG Version: 6.00 Build 0)  -->
<!DOCTYPE svg PUBLIC "-//W3C//DTD SVG 1.1//EN" "http://www.w3.org/Graphics/SVG/1.1/DTD/svg11.dtd">
<svg version="1.1"
	 id="图层_1" xmlns:dc="http://purl.org/dc/elements/1.1/" xmlns:cc="http://creativecommons.org/ns#" xmlns:rdf="http://www.w3.org/1999/02/22-rdf-syntax-ns#"
	 xmlns="http://www.w3.org/2000/svg" xmlns:xlink="http://www.w3.org/1999/xlink" x="0px" y="0px" width="61px" height="77px"
	 viewBox="0 0 61 77" enable-background="new 0 0 61 77" xml:space="preserve">
<path fill="#00BCF2" d="M0,73.184c0.796-19.008,1.494-33.489,2.44-53.955c4.056-0.025,8.113-0.051,12.17-0.079v-4.838
	c0-5.477,0.117-6.439,1-8.239c1.731-3.528,5.821-5.581,10.559-5.298c4.749,0.283,8.229,2.797,9.548,6.899
	c0.229,0.711,0.276,1.598,0.329,6.156l0.066,5.324c2.259,0,4.518,0,6.776,0l-0.004-4.795c-0.005-2.636-0.066-5.262-0.141-5.831
	c-0.267-2.078-1.538-3.814-3.45-4.719c-1.035-0.489-1.479-0.621-2.743-0.825c-0.849-0.137-1.067-0.247-1.775-0.895
	c-0.446-0.406-1.148-0.959-1.567-1.229c-0.462-0.3-0.703-0.545-0.618-0.63c0.24-0.241,3.249-0.316,4.512-0.113
	c3.521,0.567,6.281,2.449,7.581,5.172c0.331,0.689,0.68,1.592,0.782,2.008c0.111,0.48,0.208,2.783,0.255,6.306l0.074,5.55
	c1.761,0,3.52,0,5.279,0l2.133,2.267c0.045,0.06,4.292-2.228,4.292-2.228c0.089,0.094,3.562,50.359,3.502,50.739
	c-2.929,2.65-5.348,4.452-8.659,7.068L0,73.184z M24.324,13.377c0.049-5.312,0.078-5.851,0.359-6.684l0.306-0.907l0.935,0.026
	c0.748,0.021,1.994,0.271,1.994,0.399c0,0.015-0.152,0.401-0.34,0.857c-0.328,0.801-0.34,1.028-0.385,6.458l-0.048,5.625
	c2.023,0,4.044,0,6.066,0v-4.654c0-2.713-0.07-5.025-0.164-5.544c-0.515-2.775-2.718-4.672-6.037-5.2
	c-3.834-0.61-7.616,0.94-8.879,3.643c-0.565,1.208-0.646,2.088-0.646,7.005v4.75c2.261,0,4.523,0,6.785,0L24.324,13.377z"/>
</svg>
