<?xml version="1.0" encoding="utf-8"?>
<!-- Generator: Adobe Illustrator 16.0.0, SVG Export Plug-In . SVG Version: 6.00 Build 0)  -->
<!DOCTYPE svg PUBLIC "-//W3C//DTD SVG 1.1//EN" "http://www.w3.org/Graphics/SVG/1.1/DTD/svg11.dtd">
<svg version="1.1"
	 id="图层_1" xmlns:dc="http://purl.org/dc/elements/1.1/" xmlns:cc="http://creativecommons.org/ns#" xmlns:rdf="http://www.w3.org/1999/02/22-rdf-syntax-ns#"
	 xmlns="http://www.w3.org/2000/svg" xmlns:xlink="http://www.w3.org/1999/xlink" x="0px" y="0px" width="75px" height="75px"
	 viewBox="0 0 75 75" enable-background="new 0 0 75 75" xml:space="preserve">
<path fill="#00BCF2" d="M48.565,72.503c0,0.052-0.01,0.098-0.032,0.139c-0.021,0.041-0.063,0.074-0.125,0.1
	c-0.062,0.024-0.145,0.046-0.25,0.062c-0.104,0.016-0.239,0.023-0.406,0.023c-0.215,0-0.391-0.009-0.526-0.028
	c-0.136-0.019-0.237-0.054-0.306-0.104c-0.067-0.052-0.122-0.108-0.166-0.172l-4.398-6.15v6.15c0,0.044-0.014,0.087-0.038,0.128
	c-0.024,0.042-0.067,0.074-0.13,0.096c-0.061,0.021-0.142,0.041-0.244,0.057s-0.229,0.023-0.383,0.023
	c-0.148,0-0.275-0.008-0.38-0.023s-0.188-0.035-0.25-0.057s-0.104-0.054-0.129-0.096c-0.025-0.041-0.037-0.084-0.037-0.128V60.717
	c0-0.05,0.012-0.095,0.037-0.133c0.025-0.037,0.067-0.067,0.129-0.09c0.062-0.023,0.146-0.041,0.25-0.058
	c0.104-0.016,0.231-0.024,0.38-0.024c0.153,0,0.28,0.009,0.383,0.024c0.103,0.017,0.184,0.034,0.244,0.058
	c0.063,0.022,0.105,0.053,0.13,0.09c0.024,0.038,0.038,0.083,0.038,0.133v5.466l4.232-5.466c0.036-0.057,0.08-0.104,0.13-0.142
	c0.048-0.039,0.108-0.069,0.18-0.091c0.071-0.022,0.157-0.04,0.259-0.053s0.232-0.02,0.394-0.02c0.159,0,0.289,0.009,0.388,0.024
	c0.098,0.017,0.177,0.036,0.235,0.062s0.099,0.058,0.12,0.096s0.032,0.079,0.032,0.123c0,0.082-0.02,0.165-0.06,0.247
	c-0.04,0.083-0.115,0.197-0.227,0.343l-3.965,4.876l4.271,5.836c0.104,0.165,0.167,0.277,0.188,0.337
	C48.556,72.416,48.565,72.466,48.565,72.503L48.565,72.503z M38.316,66.439c0,1.063-0.134,1.994-0.399,2.79
	c-0.264,0.795-0.651,1.454-1.16,1.977c-0.508,0.523-1.132,0.914-1.871,1.173c-0.74,0.261-1.621,0.391-2.644,0.391h-2.532
	c-0.142,0-0.276-0.049-0.402-0.147c-0.126-0.098-0.189-0.271-0.189-0.518V61.136c0-0.248,0.063-0.42,0.189-0.519
	c0.126-0.098,0.26-0.147,0.402-0.147h2.708c1.035,0,1.91,0.138,2.625,0.413c0.715,0.276,1.314,0.672,1.798,1.188
	s0.85,1.143,1.1,1.877C38.19,64.685,38.316,65.514,38.316,66.439L38.316,66.439z M36.643,66.506c0-0.665-0.08-1.285-0.24-1.858
	s-0.412-1.069-0.753-1.488c-0.342-0.417-0.774-0.744-1.298-0.979s-1.199-0.352-2.024-0.352h-1.617v9.572h1.636
	c0.764,0,1.408-0.099,1.932-0.295c0.524-0.197,0.961-0.498,1.313-0.903c0.351-0.405,0.614-0.914,0.79-1.525
	C36.555,68.065,36.643,67.343,36.643,66.506L36.643,66.506z M26.854,69.319c0,0.577-0.103,1.09-0.31,1.54
	c-0.206,0.449-0.493,0.832-0.859,1.145c-0.367,0.314-0.798,0.551-1.294,0.709s-1.031,0.237-1.604,0.237
	c-0.4,0-0.772-0.035-1.114-0.104c-0.342-0.069-0.647-0.155-0.915-0.257c-0.269-0.101-0.493-0.206-0.675-0.313
	c-0.182-0.107-0.308-0.199-0.379-0.276c-0.071-0.075-0.123-0.172-0.157-0.289c-0.034-0.117-0.051-0.274-0.051-0.471
	c0-0.139,0.006-0.255,0.018-0.347c0.013-0.092,0.031-0.167,0.056-0.224c0.025-0.058,0.056-0.097,0.093-0.119
	c0.037-0.021,0.08-0.032,0.129-0.032c0.086,0,0.208,0.053,0.365,0.161c0.157,0.107,0.359,0.225,0.605,0.352s0.543,0.246,0.892,0.356
	c0.348,0.11,0.75,0.166,1.206,0.166c0.345,0,0.661-0.047,0.947-0.143c0.287-0.096,0.533-0.229,0.739-0.403
	c0.207-0.174,0.366-0.389,0.477-0.642c0.111-0.254,0.166-0.542,0.166-0.865c0-0.349-0.077-0.646-0.231-0.894
	c-0.154-0.247-0.357-0.464-0.61-0.651c-0.252-0.187-0.541-0.358-0.864-0.513c-0.323-0.155-0.654-0.314-0.993-0.476
	s-0.668-0.341-0.989-0.536c-0.321-0.198-0.607-0.429-0.86-0.695c-0.252-0.266-0.458-0.577-0.615-0.936
	c-0.157-0.358-0.235-0.787-0.235-1.288c0-0.513,0.091-0.972,0.272-1.373c0.182-0.403,0.435-0.74,0.758-1.013
	c0.323-0.272,0.708-0.479,1.155-0.623c0.447-0.143,0.929-0.214,1.447-0.214c0.265,0,0.531,0.024,0.799,0.071
	c0.268,0.048,0.521,0.11,0.758,0.19c0.237,0.079,0.449,0.168,0.633,0.266c0.185,0.099,0.307,0.178,0.365,0.238
	s0.097,0.107,0.115,0.143c0.019,0.034,0.034,0.079,0.046,0.133s0.021,0.118,0.028,0.195c0.006,0.075,0.009,0.175,0.009,0.295
	c0,0.114-0.005,0.215-0.014,0.304s-0.023,0.163-0.042,0.224s-0.045,0.104-0.079,0.132c-0.034,0.028-0.072,0.044-0.116,0.044
	c-0.068,0-0.174-0.045-0.319-0.133c-0.145-0.089-0.322-0.188-0.531-0.3s-0.458-0.212-0.744-0.304
	c-0.286-0.093-0.608-0.139-0.966-0.139c-0.333,0-0.623,0.046-0.869,0.139c-0.247,0.092-0.45,0.213-0.61,0.365
	c-0.16,0.151-0.28,0.332-0.36,0.542c-0.08,0.209-0.12,0.431-0.12,0.665c0,0.343,0.077,0.637,0.231,0.884
	c0.154,0.247,0.359,0.467,0.615,0.656c0.256,0.19,0.547,0.364,0.874,0.523c0.326,0.158,0.659,0.317,0.998,0.479
	c0.339,0.161,0.672,0.339,0.999,0.532c0.326,0.193,0.618,0.421,0.874,0.684c0.255,0.264,0.462,0.574,0.619,0.933
	C26.776,68.409,26.854,68.831,26.854,69.319L26.854,69.319z M63.535,2.05c0,0-20.498,19.746-20.44,19.702l-0.004,0.735
	c-0.002,0.404-0.1,1.185-0.216,1.732c-0.732,3.454-3.923,5.965-7.622,5.996l-0.914,0.004L32,32.484l-2.344,2.266l2.013,1.935
	c1.106,1.063,2.009,1.988,2.009,2.058s-4.512,4.493-10.03,9.832l-10.034,9.709l-0.331-0.313c-0.182-0.171-0.415-0.275-0.52-0.234
	c-0.105,0.041-1.008,0.711-2.009,1.488l-1.82,1.416l-3.218,4.93c-1.77,2.711-3.22,5.01-3.222,5.108
	c-0.001,0.1,0.346,0.492,0.772,0.874c0.427,0.382,0.806,0.695,0.846,0.697c0.041,0.003,2.372-1.404,5.181-3.124l5.106-3.124
	l1.549-1.838c0.851-1.01,1.548-1.917,1.549-2.018s-0.132-0.262-0.294-0.363c-0.162-0.101-0.294-0.228-0.294-0.279
	c0-0.079,4.626-4.573,18.648-18.126l1.508-1.456l1.967,1.934c1.083,1.065,2.057,1.935,2.16,1.935s1.201-1.008,2.44-2.237
	l2.253-2.232v-0.896c0-1.838,0.709-3.578,2.021-4.953c1.535-1.608,3.056-2.313,5.305-2.458l1.375-0.087
	C62.341,25.437,67.853,20.156,75,13.136C75.015,13.023,63.669,2.05,63.535,2.05L63.535,2.05z M16.1,3.819
	c-2.326-0.002-4.196,0.211-4.187,0.482c2.906,2.497,6.533,6.125,8.921,8.702l-2.344,8.601l-8.825,2.279
	c-4.395-4.223-4.999-4.897-9.152-8.651c-0.036,0.036-0.165,0.65-0.29,1.365c-0.667,3.822,0.164,7.682,2.39,11.11
	c0.836,1.287,3.313,3.659,4.725,4.525c2.695,1.653,4.722,2.247,8.049,2.348c2.052,0.062,2.597,0.028,4.008-0.253L21.032,34
	l3.41,3.304c1.138,1.101,2.277,2.202,3.416,3.303l1.14-1.047l1.136-1.048l-2.032-2.059l-2.032-2.059l6.867-6.616l0.85-0.014
	c0.467-0.006,1.144-0.024,1.507-0.042l0.662-0.032l-2.243-2.178l-2.248-2.178l0.221-0.951c0.486-2.094,0.43-4.737-0.147-6.956
	c-1.418-5.45-5.864-9.763-11.615-11.266C18.788,3.866,18.247,3.821,16.1,3.819L16.1,3.819z M66.381,8.166
	c0.073-0.002,0.148,0.002,0.221,0.009c0.29,0.026,0.568,0.112,0.841,0.266s0.533,0.361,0.776,0.616l0.157,0.161
	c0.119,0.125,0.178,0.246,0.18,0.358c0.001,0.113-0.046,0.215-0.143,0.308l-2.207,2.113c0.148,0.154,0.302,0.277,0.459,0.368
	c0.158,0.091,0.319,0.14,0.483,0.152c0.164,0.011,0.33-0.022,0.501-0.097c0.17-0.075,0.344-0.194,0.52-0.363
	c0.179-0.171,0.321-0.336,0.432-0.492c0.111-0.155,0.202-0.292,0.271-0.418c0.069-0.125,0.12-0.233,0.16-0.321
	c0.041-0.088,0.084-0.154,0.125-0.193c0.024-0.023,0.048-0.036,0.073-0.042c0.025-0.006,0.058-0.005,0.092,0.009
	c0.035,0.014,0.073,0.042,0.12,0.083c0.047,0.041,0.101,0.098,0.165,0.166c0.058,0.06,0.104,0.112,0.143,0.156
	c0.037,0.045,0.069,0.084,0.092,0.119c0.023,0.035,0.037,0.066,0.046,0.097c0.009,0.031,0.014,0.065,0.014,0.101
	c0.001,0.036-0.021,0.108-0.069,0.216c-0.047,0.107-0.114,0.233-0.206,0.381c-0.093,0.147-0.205,0.309-0.341,0.482
	c-0.134,0.173-0.295,0.343-0.473,0.514c-0.322,0.309-0.641,0.538-0.961,0.689c-0.32,0.151-0.641,0.226-0.96,0.216
	c-0.321-0.009-0.645-0.105-0.966-0.28c-0.321-0.176-0.646-0.43-0.97-0.768c-0.31-0.322-0.544-0.654-0.708-0.993
	s-0.254-0.673-0.267-1.006c-0.013-0.333,0.051-0.66,0.188-0.974s0.352-0.606,0.639-0.882c0.304-0.291,0.604-0.494,0.906-0.611
	C65.939,8.22,66.161,8.172,66.381,8.166L66.381,8.166z M66.179,9.355c-0.243-0.007-0.479,0.097-0.703,0.313
	c-0.131,0.125-0.218,0.254-0.267,0.395c-0.05,0.141-0.066,0.284-0.051,0.427s0.06,0.288,0.133,0.432
	c0.074,0.145,0.169,0.286,0.285,0.418l1.526-1.465c-0.268-0.294-0.537-0.464-0.818-0.51C66.249,9.358,66.214,9.357,66.179,9.355
	L66.179,9.355z M62.57,11.253c0.027-0.001,0.051,0.004,0.073,0.014c0.022,0.01,0.051,0.027,0.083,0.051
	c0.033,0.023,0.076,0.061,0.133,0.115c0.059,0.054,0.137,0.127,0.23,0.225s0.166,0.181,0.221,0.248
	c0.054,0.067,0.092,0.125,0.114,0.17c0.023,0.046,0.032,0.084,0.028,0.115c-0.005,0.03-0.02,0.057-0.047,0.083
	c-0.021,0.021-0.05,0.039-0.087,0.055c-0.036,0.016-0.079,0.038-0.124,0.06c-0.044,0.021-0.089,0.049-0.138,0.078
	c-0.05,0.03-0.099,0.063-0.146,0.11c-0.058,0.055-0.104,0.12-0.14,0.198c-0.034,0.077-0.059,0.173-0.072,0.28
	c-0.015,0.107-0.016,0.232-0.004,0.376c0.012,0.145,0.035,0.314,0.073,0.506l2.164,2.255c0.027,0.027,0.039,0.061,0.042,0.097
	c0.004,0.036-0.007,0.078-0.032,0.128c-0.026,0.052-0.069,0.11-0.128,0.18c-0.059,0.069-0.135,0.152-0.234,0.248
	c-0.101,0.096-0.187,0.169-0.258,0.225c-0.072,0.055-0.137,0.095-0.189,0.119c-0.052,0.024-0.097,0.037-0.132,0.032
	c-0.037-0.004-0.067-0.023-0.093-0.05l-3.471-3.621c-0.025-0.027-0.04-0.054-0.046-0.088c-0.006-0.033,0.001-0.076,0.023-0.124
	c0.021-0.047,0.057-0.101,0.105-0.161c0.049-0.061,0.119-0.131,0.202-0.211c0.087-0.083,0.158-0.146,0.221-0.193
	c0.063-0.048,0.121-0.081,0.165-0.097c0.045-0.017,0.082-0.021,0.115-0.014c0.033,0.007,0.062,0.023,0.087,0.051l0.433,0.45
	c-0.035-0.226-0.055-0.419-0.055-0.588c-0.001-0.168,0.014-0.317,0.041-0.441c0.026-0.125,0.068-0.233,0.123-0.327
	c0.058-0.093,0.123-0.175,0.198-0.248c0.036-0.033,0.075-0.066,0.12-0.101c0.044-0.035,0.094-0.069,0.147-0.102
	c0.052-0.032,0.098-0.059,0.143-0.078C62.504,11.261,62.543,11.253,62.57,11.253L62.57,11.253z M59.312,14.492
	c0.035,0.004,0.07,0.019,0.096,0.046l3.471,3.621c0.026,0.027,0.04,0.059,0.046,0.092s-0.001,0.074-0.023,0.12
	c-0.02,0.045-0.052,0.101-0.1,0.161c-0.05,0.06-0.119,0.126-0.203,0.207c-0.089,0.086-0.163,0.156-0.225,0.202
	c-0.063,0.047-0.116,0.075-0.161,0.092c-0.046,0.018-0.086,0.025-0.119,0.019c-0.034-0.007-0.063-0.023-0.088-0.051l-0.399-0.418
	c0.007,0.408-0.044,0.764-0.147,1.07s-0.266,0.568-0.487,0.781c-0.249,0.239-0.497,0.397-0.745,0.478
	c-0.247,0.081-0.486,0.101-0.727,0.06c-0.238-0.041-0.471-0.133-0.692-0.276c-0.223-0.143-0.467-0.354-0.731-0.629l-2.124-2.215
	c-0.025-0.027-0.041-0.057-0.046-0.092c-0.004-0.034,0.006-0.078,0.032-0.128c0.026-0.051,0.068-0.114,0.129-0.184
	c0.06-0.07,0.137-0.15,0.234-0.243c0.101-0.096,0.186-0.175,0.258-0.23c0.071-0.056,0.136-0.095,0.188-0.12
	c0.053-0.024,0.093-0.032,0.128-0.027c0.036,0.004,0.066,0.019,0.092,0.046l1.964,2.049c0.181,0.189,0.334,0.323,0.455,0.399
	c0.119,0.077,0.239,0.124,0.358,0.147c0.118,0.023,0.234,0.021,0.349-0.014c0.114-0.035,0.224-0.104,0.326-0.203
	c0.13-0.125,0.217-0.294,0.257-0.515c0.041-0.22,0.049-0.494,0.023-0.818l-2.307-2.407c-0.026-0.027-0.041-0.058-0.047-0.092
	c-0.004-0.035,0.006-0.078,0.032-0.129s0.066-0.11,0.125-0.179c0.059-0.069,0.139-0.152,0.238-0.248
	c0.101-0.096,0.186-0.174,0.258-0.23c0.072-0.055,0.133-0.092,0.184-0.115C59.233,14.497,59.276,14.487,59.312,14.492L59.312,14.492
	z M54.954,18.646c0.038,0.005,0.083,0.021,0.129,0.05c0.046,0.029,0.097,0.072,0.151,0.129l0.188,0.202
	c0.052,0.054,0.095,0.104,0.129,0.151s0.065,0.094,0.092,0.143s0.048,0.099,0.064,0.156c0.016,0.057,0.032,0.124,0.045,0.193
	l0.653,3.382l1.43-1.37c0.024-0.023,0.055-0.041,0.088-0.05c0.031-0.01,0.065-0.006,0.109,0.009
	c0.043,0.016,0.098,0.042,0.157,0.088c0.059,0.044,0.124,0.111,0.202,0.193c0.075,0.078,0.139,0.148,0.183,0.211
	c0.045,0.063,0.075,0.115,0.092,0.161c0.019,0.045,0.024,0.086,0.015,0.119c-0.01,0.033-0.032,0.062-0.06,0.087l-2.367,2.27
	c-0.073,0.07-0.153,0.098-0.239,0.087c-0.086-0.011-0.179-0.073-0.285-0.184l-0.179-0.184c-0.047-0.048-0.087-0.094-0.12-0.138
	c-0.033-0.043-0.064-0.089-0.087-0.138c-0.023-0.048-0.044-0.104-0.061-0.161c-0.015-0.057-0.029-0.125-0.041-0.202l-0.648-3.391
	l-1.286,1.227c-0.051,0.049-0.123,0.058-0.216,0.023c-0.094-0.035-0.208-0.124-0.345-0.267c-0.076-0.079-0.136-0.148-0.181-0.207
	c-0.043-0.06-0.075-0.112-0.091-0.157c-0.016-0.044-0.018-0.085-0.009-0.119c0.008-0.035,0.024-0.063,0.055-0.092l2.216-2.123
	c0.037-0.036,0.075-0.06,0.11-0.078C54.883,18.651,54.915,18.641,54.954,18.646z M48.905,21.843c0.014,0,0.028-0.001,0.041,0
	c0.052,0.008,0.109,0.029,0.175,0.064l6.086,3.102c0.126,0.066,0.223,0.125,0.285,0.174c0.062,0.049,0.094,0.099,0.092,0.156
	c-0.003,0.057-0.042,0.127-0.11,0.207c-0.069,0.08-0.171,0.181-0.304,0.308c-0.139,0.132-0.245,0.233-0.326,0.303
	c-0.081,0.07-0.15,0.121-0.202,0.147c-0.053,0.027-0.097,0.038-0.134,0.032c-0.037-0.006-0.079-0.026-0.124-0.05l-1.365-0.717
	l-1.972,1.893l0.653,1.346c0.025,0.048,0.039,0.095,0.046,0.138c0.007,0.042,0.001,0.09-0.023,0.142
	c-0.025,0.052-0.071,0.114-0.138,0.188s-0.16,0.168-0.276,0.28c-0.123,0.119-0.225,0.207-0.303,0.267s-0.146,0.088-0.202,0.083
	c-0.058-0.005-0.11-0.041-0.157-0.106c-0.046-0.064-0.098-0.159-0.156-0.285L47.642,23.3c-0.028-0.062-0.045-0.116-0.051-0.166
	c-0.006-0.049,0.009-0.1,0.041-0.161c0.033-0.06,0.09-0.136,0.17-0.22c0.081-0.085,0.188-0.19,0.327-0.322
	c0.158-0.153,0.292-0.276,0.39-0.363c0.099-0.086,0.182-0.148,0.249-0.184C48.818,21.858,48.863,21.846,48.905,21.843L48.905,21.843
	z M49.098,23.47l1.397,2.945l1.489-1.425l-2.882-1.521H49.098L49.098,23.47z M48.785,40.074c-0.135,0.011-0.164,0.52-0.114,1.756
	l0.037,0.965l-3.412,3.299c-1.874,1.814-3.451,3.314-3.507,3.336c-0.055,0.021-1.013-0.825-2.123-1.885l-2.018-1.925l-0.551,0.442
	c-0.304,0.241-0.81,0.711-1.131,1.042l-0.584,0.602l0.878,0.887c0.482,0.49,3.407,3.352,6.503,6.359
	c0.035,0.068,18.097,16.719,18.097,16.719c1.677,0.628,3.919,0.632,5.581,0.011c1.813-0.679,3.632-2.489,4.343-4.329
	c0.18-0.465,0.317-1.273,0.363-2.099c0.091-1.639-0.238-2.913-1.107-4.25c-0.393-0.604-3.762-3.987-10.83-10.876
	c-5.643-5.499-10.318-10.021-10.392-10.049C48.809,40.076,48.795,40.074,48.785,40.074L48.785,40.074z"/>
</svg>
