<?xml version="1.0" encoding="utf-8"?>
<!-- Generator: Adobe Illustrator 16.0.0, SVG Export Plug-In . SVG Version: 6.00 Build 0)  -->
<!DOCTYPE svg PUBLIC "-//W3C//DTD SVG 1.1//EN" "http://www.w3.org/Graphics/SVG/1.1/DTD/svg11.dtd">
<svg version="1.1"
	 id="图层_1" xmlns:dc="http://purl.org/dc/elements/1.1/" xmlns:cc="http://creativecommons.org/ns#" xmlns:rdf="http://www.w3.org/1999/02/22-rdf-syntax-ns#"
	 xmlns="http://www.w3.org/2000/svg" xmlns:xlink="http://www.w3.org/1999/xlink" x="0px" y="0px" width="77px" height="57px"
	 viewBox="0 0 77 57" enable-background="new 0 0 77 57" xml:space="preserve">
<path fill="#00BCF2" d="M13.738,56.842c-5.23-0.608-10.11-4.167-12.342-9.004c-1.23-2.67-1.699-6.219-1.198-9.096
	c1.073-6.172,5.534-11.01,11.621-12.607c1.906-0.5,4.87-0.558,6.819-0.131c2.207,0.482,1.991,0.554,2.573-0.883
	c1.17-2.889,2.936-5.465,5.309-7.742c6.044-5.805,14.393-7.823,22.441-5.426c0.949,0.282,3.403,1.271,3.572,1.439
	c0.039,0.04-3.13,3.285-7.041,7.213c-7.741,7.768-7.466,7.437-9.012,10.818c-1.023,2.233-1.212,2.76-1.826,5.08
	c-0.63,2.38-0.692,3.402-0.263,4.355c0.552,1.221,1.859,2.087,3.154,2.087c0.788,0,4.634-1.011,6.164-1.619
	c0.748-0.297,2.209-0.947,3.246-1.447l1.891-0.906l7.131-7.124c4.339-4.33,7.186-7.062,7.264-6.972
	c0.436,0.484,1.347,3.565,1.699,5.741c0.362,2.23,0.129,6.671-0.45,8.66l-0.145,0.492h0.963c1.383,0,2.388,0.245,3.829,0.933
	c4.502,2.154,6.159,7.789,3.555,12.093c-0.709,1.173-2.347,2.675-3.55,3.26c-2.074,1.006-0.609,0.958-28.786,0.937
	C26.333,56.981,14.356,56.914,13.738,56.842L13.738,56.842z M40.309,54.178c0.208-0.129,0.529-0.409,0.714-0.629l0.333-0.394
	l0.005,0.568l0.007,0.565h1.057h1.057v-3.63V47.03h-1.048h-1.048l-0.047,2.482c-0.047,2.366-0.064,2.503-0.403,2.861
	c-0.435,0.464-0.934,0.603-1.455,0.405c-0.672-0.255-0.834-0.933-0.834-3.476v-2.275h-1.057h-1.057l0.002,2.687
	c0.001,2.997,0.102,3.571,0.741,4.183C38.007,54.6,39.416,54.729,40.309,54.178L40.309,54.178z M56.732,54.268
	c0.475-0.149,0.49-0.182,0.49-0.963v-0.808l-0.479,0.239c-0.586,0.293-1.998,0.328-2.625,0.067c-0.514-0.212-1.045-0.98-0.917-1.321
	c0.067-0.179,0.525-0.221,2.452-0.221h2.369l-0.089-1.046c-0.184-2.197-1.356-3.339-3.43-3.337c-1.429,0-2.981,1.157-3.344,2.493
	c-0.198,0.741-0.194,2.241,0.01,2.928c0.333,1.119,1.207,1.874,2.476,2.14C54.364,54.591,56.001,54.498,56.732,54.268L56.732,54.268
	z M53.146,49.786c0-0.3,0.374-0.918,0.729-1.207c0.128-0.105,0.488-0.188,0.799-0.188c0.667,0,1.19,0.537,1.19,1.229v0.434h-1.36
	C53.304,50.054,53.146,50.023,53.146,49.786z M21.069,53.155l0.329-1.059h1.866h1.865l0.375,1.098l0.376,1.094h1.173
	c0.645,0,1.174-0.051,1.174-0.113s-0.79-2.34-1.757-5.066l-1.757-4.953h-1.379h-1.379l-1.392,3.819
	c-0.765,2.101-1.597,4.384-1.848,5.073l-0.457,1.254l1.242-0.045l1.24-0.043L21.069,53.155z M21.922,50.169
	c0.04-0.106,0.329-1.009,0.643-2.005c0.314-0.999,0.605-1.917,0.648-2.041c0.059-0.173,0.093-0.153,0.146,0.074
	c0.038,0.167,0.302,1.052,0.585,1.967c0.285,0.914,0.553,1.783,0.598,1.93c0.073,0.236-0.056,0.263-1.305,0.263
	C22.192,50.355,21.869,50.31,21.922,50.169L21.922,50.169z M35.326,53.531v-0.756h-1.75c-1.068,0-1.73-0.056-1.699-0.146
	c0.028-0.08,0.782-1.098,1.673-2.26c1.452-1.888,1.625-2.176,1.625-2.726v-0.615h-3.021h-3.02v0.834v0.831h1.662h1.662l-1.888,2.42
	c-1.271,1.631-1.888,2.543-1.888,2.799v0.378h3.322h3.323L35.326,53.531L35.326,53.531z M47.737,52.21
	c0.086-2.854,0.444-3.488,1.882-3.325l0.658,0.074v-0.948c0-1.08-0.104-1.18-1.002-0.977c-0.544,0.123-0.928,0.443-1.368,1.146
	c-0.155,0.244-0.183,0.186-0.188-0.434l-0.009-0.719h-1.06h-1.056v3.63v3.63h1.04h1.041L47.737,52.21L47.737,52.21z M37.168,39.89
	c-0.263-0.264-0.227-0.713,0.199-2.438c0.496-2.008,0.594-2.221,1.015-2.221c0.405,0,3.437,2.956,3.437,3.351
	c0,0.402-0.297,0.539-2.219,1.024C37.528,40.129,37.42,40.145,37.168,39.89z M43.223,33.828c-2.658-2.66-2.914-2.963-2.914-3.437
	c0-0.488,0.755-1.277,12.119-12.673c6.666-6.684,12.311-12.254,12.543-12.377c0.24-0.127,0.567-0.182,0.756-0.126
	c0.184,0.055,1.605,1.368,3.164,2.918c2.605,2.593,2.832,2.863,2.832,3.353c0,0.502-0.664,1.197-12.349,12.896
	C48.578,35.188,46.97,36.743,46.578,36.743C46.199,36.743,45.69,36.301,43.223,33.828z M70.561,6.456
	c-3.471-3.465-3.442-3.4-2.059-4.721c1.243-1.188,2.13-1.627,3.456-1.711c0.931-0.061,1.204-0.017,1.897,0.305
	c1.188,0.551,2.155,1.484,2.712,2.618c0.438,0.89,0.473,1.068,0.406,2.072c-0.09,1.378-0.427,2.058-1.666,3.357
	C73.884,9.864,74.042,9.929,70.561,6.456z"/>
</svg>
