<?xml version="1.0" encoding="utf-8"?>
<!-- Generator: Adobe Illustrator 16.0.0, SVG Export Plug-In . SVG Version: 6.00 Build 0)  -->
<!DOCTYPE svg PUBLIC "-//W3C//DTD SVG 1.1//EN" "http://www.w3.org/Graphics/SVG/1.1/DTD/svg11.dtd">
<svg version="1.1"
	 id="图层_1" xmlns:dc="http://purl.org/dc/elements/1.1/" xmlns:cc="http://creativecommons.org/ns#" xmlns:rdf="http://www.w3.org/1999/02/22-rdf-syntax-ns#"
	 xmlns="http://www.w3.org/2000/svg" xmlns:xlink="http://www.w3.org/1999/xlink" x="0px" y="0px" width="75px" height="75px"
	 viewBox="0 0 75 75" enable-background="new 0 0 75 75" xml:space="preserve">
<path fill="#00BCF2" d="M38.043,0L1.773,43.5L38.043,75l35.184-31.636L38.043,0z M37.363,19.569c2.967,0,5.387,2.42,5.387,5.386
	c0,1.325-0.501,2.541-1.296,3.478l7.977,9.272c0.896-0.666,2.004-1.022,3.205-1.022c2.967,0,5.387,2.42,5.387,5.387
	s-2.42,5.318-5.387,5.318c-1.749,0-3.246-0.82-4.228-2.113l-6.271,5.522c0.371,0.729,0.613,1.51,0.613,2.387
	c0,2.967-2.42,5.386-5.387,5.386s-5.386-2.419-5.386-5.386c0-1.203,0.424-2.311,1.091-3.205l-4.704-4.296
	c-0.982,1.06-2.398,1.705-3.955,1.705c-2.967,0-5.387-2.352-5.387-5.318s2.42-5.387,5.387-5.387c0.668,0,1.319,0.119,1.909,0.342
	l6.954-8.592c-0.795-0.937-1.295-2.152-1.295-3.477C31.977,21.989,34.396,19.569,37.363,19.569z M34.772,29.659l-6.75,8.455
	c1.072,0.981,1.773,2.386,1.773,3.954c0,0.742-0.138,1.403-0.409,2.046l4.977,4.637c0.857-0.58,1.888-0.955,3-0.955
	c1.518,0,2.909,0.624,3.886,1.636l6.342-5.659c-0.191-0.551-0.273-1.089-0.273-1.704c0-1.059,0.288-2.099,0.819-2.932l-8.25-9.478
	c-0.756,0.404-1.606,0.682-2.523,0.682C36.425,30.341,35.54,30.081,34.772,29.659L34.772,29.659z"/>
</svg>
