<?xml version="1.0" encoding="utf-8"?>
<!-- Generator: Adobe Illustrator 16.0.0, SVG Export Plug-In . SVG Version: 6.00 Build 0)  -->
<!DOCTYPE svg PUBLIC "-//W3C//DTD SVG 1.1//EN" "http://www.w3.org/Graphics/SVG/1.1/DTD/svg11.dtd">
<svg version="1.1"
	 id="图层_1" xmlns:dc="http://purl.org/dc/elements/1.1/" xmlns:cc="http://creativecommons.org/ns#" xmlns:rdf="http://www.w3.org/1999/02/22-rdf-syntax-ns#"
	 xmlns="http://www.w3.org/2000/svg" xmlns:xlink="http://www.w3.org/1999/xlink" x="0px" y="0px" width="75px" height="50px"
	 viewBox="0 0 75 50" enable-background="new 0 0 75 50" xml:space="preserve">
<path fill="#00BCF2" d="M2.456,49.776C0.981,49.32,0.008,48.352,0,45.966c-0.002-0.533,1.559-9.798,3.856-22.887L7.718,1.086
	c0.094-0.55,0.364-0.982,0.94-1.033l29.095-0.037c28.444-0.036,29.104-0.03,29.556,0.247c0.295,0.181,0.546,0.511,0.694,0.922
	c0.128,0.352,1.764,10.304,3.631,22.116c3.81,24.083,3.764,23.467,2.858,24.876c-0.723,1.127-1.389,1.713-2.215,1.696
	C71.93,49.865,57.541,50.005,37.433,50C7.57,49.996,3.075,49.966,2.456,49.776z M42.509,38.9c0-0.896-0.661-1.414-1.435-1.124
	c-0.223,0.082-1.082,0.828-1.912,1.653l-1.508,1.503V31.49v-9.443l4.709,4.721l4.707,4.723l-2.203,0.075
	c-2.387,0.079-2.692,0.182-2.887,0.955c-0.115,0.463,0.25,1.066,0.766,1.265c0.203,0.077,2.218,0.142,4.479,0.142h4.107v-4.36
	v-4.361l-0.359-0.363c-0.377-0.378-0.938-0.466-1.398-0.218c-0.459,0.247-0.594,0.992-0.594,3.307v2.229l-5.662-5.681l-5.664-5.681
	v-2.987v-2.985l0.574-0.293c2.145-1.098,2.6-4.154,0.879-5.898c-2.329-2.359-6.325-0.75-6.351,2.556
	c-0.004,1.408,0.887,2.94,2.186,3.483l0.36,0.137v2.92v2.919l-5.588,5.607l-5.589,5.609v-2.333c0-2.277-0.008-2.338-0.361-2.692
	c-0.375-0.378-0.938-0.466-1.398-0.218c-0.517,0.277-0.594,0.953-0.594,5.192v4.11h4.096c4.223,0,4.896-0.079,5.172-0.598
	c0.272-0.511,0.167-1.135-0.244-1.46c-0.354-0.279-0.584-0.304-2.647-0.304c-1.243,0-2.259-0.051-2.259-0.11
	c0-0.146,9.157-9.336,9.301-9.336c0.061,0,0.111,4.265,0.111,9.48v9.481l-1.581-1.577c-0.87-0.864-1.763-1.646-1.985-1.728
	c-0.771-0.29-1.434,0.23-1.434,1.122c0,0.343,0.531,0.947,3.051,3.479l3.051,3.063l3.053-3.062
	C41.986,39.839,42.508,39.247,42.509,38.9L42.509,38.9z"/>
</svg>
