<?xml version="1.0" encoding="utf-8"?>
<!-- Generator: Adobe Illustrator 16.0.0, SVG Export Plug-In . SVG Version: 6.00 Build 0)  -->
<!DOCTYPE svg PUBLIC "-//W3C//DTD SVG 1.1//EN" "http://www.w3.org/Graphics/SVG/1.1/DTD/svg11.dtd">
<svg version="1.1"
	 id="图层_1" xmlns:dc="http://purl.org/dc/elements/1.1/" xmlns:cc="http://creativecommons.org/ns#" xmlns:rdf="http://www.w3.org/1999/02/22-rdf-syntax-ns#"
	 xmlns="http://www.w3.org/2000/svg" xmlns:xlink="http://www.w3.org/1999/xlink" x="0px" y="0px" width="75px" height="75px"
	 viewBox="0 0 75 75" enable-background="new 0 0 75 75" xml:space="preserve">
<path fill="#00BCF2" d="M37.347,74.877L0.441,44.546c0,0,37.148-44.298,37.053-44.546c12.621,15.466,24.18,29.135,37.066,44.638
	c0,0-36.868,30.353-37.103,30.362C37.397,75.002,37.347,74.946,37.347,74.877z M39.765,62.385l2.141-2.254l-1.508-1.612
	c-0.829-0.886-1.529-1.674-1.556-1.752c-0.026-0.077,0.668-0.906,1.544-1.844c0.876-0.935,1.593-1.789,1.593-1.897
	s-0.812-1.057-1.802-2.108l-1.802-1.914l1.838-1.941l1.839-1.942l0.001-1.93l0.001-1.93l0.56-0.319
	c2.129-1.216,4.115-3.951,4.839-6.666c0.387-1.445,0.348-4.282-0.078-5.78c-0.779-2.739-2.582-5.134-4.927-6.545
	c-2.794-1.681-6.396-1.789-9.407-0.282c-1.675,0.839-3.618,2.768-4.48,4.45c-1.839,3.588-1.739,7.773,0.27,11.195
	c0.608,1.037,2.468,2.94,3.417,3.497l0.689,0.402v9.392v9.39l2.234,2.361c1.229,1.298,2.283,2.344,2.344,2.321
	C37.574,64.656,38.587,63.624,39.765,62.385L39.765,62.385z M36.085,31.866c-1.307-0.608-2.267-2.122-2.267-3.57
	c0-2.161,2.685-3.732,4.988-2.92c1.418,0.5,2.658,1.909,2.658,3.021c0,1.289-1.104,2.791-2.542,3.46
	C37.94,32.314,37.054,32.317,36.085,31.866L36.085,31.866z"/>
</svg>
