<?xml version="1.0" encoding="utf-8"?>
<!-- Generator: Adobe Illustrator 16.0.0, SVG Export Plug-In . SVG Version: 6.00 Build 0)  -->
<!DOCTYPE svg PUBLIC "-//W3C//DTD SVG 1.1//EN" "http://www.w3.org/Graphics/SVG/1.1/DTD/svg11.dtd">
<svg version="1.1"
	 id="图层_1" xmlns:dc="http://purl.org/dc/elements/1.1/" xmlns:cc="http://creativecommons.org/ns#" xmlns:rdf="http://www.w3.org/1999/02/22-rdf-syntax-ns#"
	 xmlns="http://www.w3.org/2000/svg" xmlns:xlink="http://www.w3.org/1999/xlink" x="0px" y="0px" width="75px" height="66px"
	 viewBox="0 0 75 66" enable-background="new 0 0 75 66" xml:space="preserve">
<path fill="#00BCF2" d="M12.02,65.82c-5.702-0.9-10.268-5.133-11.72-10.856c-0.422-1.665-0.393-5.118,0.056-6.69
	c1.033-3.615,3.198-6.355,6.44-8.153l0.737-0.406l-0.048-1.274c-0.129-3.417,1.164-7.419,3.308-10.25
	c2.007-2.649,5.04-4.805,8.131-5.783c4.97-1.57,10.032-0.873,14.462,1.994c0.527,0.341,1.688,1.36,2.58,2.265l1.621,1.643
	l0.81-0.411c3.326-1.691,7.496-1.79,10.864-0.257c4.443,2.021,7.4,6.497,7.4,11.196v1.172l1.003,0.598
	c4.311,2.565,6.727,7.636,6.07,12.732c-0.428,3.341-1.76,6.071-4.113,8.431c-1.896,1.901-3.898,3.053-6.624,3.806l-1.417,0.393
	l-19.15,0.027C17.001,66.014,13.033,65.98,12.02,65.82L12.02,65.82z M32.521,59.32c3.728-0.754,7.124-3.525,8.803-7.188
	c0.966-2.106,1.117-2.854,1.109-5.442c-0.009-2.098-0.041-2.396-0.42-3.544c-0.811-2.469-1.896-4.208-3.642-5.828
	c-2.453-2.276-5.272-3.358-8.743-3.355c-5.063,0.002-9.394,2.788-11.555,7.432c-0.8,1.716-1.041,2.727-1.141,4.781
	c-0.178,3.646,1.003,6.859,3.472,9.432C23.625,58.96,27.871,60.264,32.521,59.32z M29.106,57.646
	c-0.711-0.58-0.257-1.796,0.671-1.796c0.589,0,1.006,0.44,1.006,1.06c0,0.532-0.476,1.009-1.006,1.009
	C29.592,57.918,29.291,57.794,29.106,57.646L29.106,57.646z M33.01,52.295c-0.277-0.082-1.34-0.99-2.762-2.364l-2.312-2.23v-3.359
	c0-3.293,0.006-3.365,0.331-3.671c0.526-0.494,1.091-0.653,1.723-0.481c1.073,0.29,1.108,0.403,1.159,3.748l0.045,2.977l1.748,1.774
	c1.819,1.848,2.105,2.325,1.768,2.957c-0.153,0.286-0.998,0.847-1.198,0.795C33.483,52.43,33.257,52.366,33.01,52.295L33.01,52.295z
	 M18.875,47.427c-0.381-0.421-0.348-1.161,0.066-1.499c0.46-0.373,0.983-0.34,1.414,0.091c0.442,0.443,0.458,0.806,0.058,1.317
	C20.03,47.824,19.271,47.868,18.875,47.427z M39.143,47.336c-0.166-0.214-0.306-0.507-0.306-0.647c0-0.142,0.14-0.431,0.306-0.645
	c0.584-0.745,1.807-0.325,1.807,0.62C40.948,47.682,39.76,48.123,39.143,47.336z M29.039,37.235
	c-0.38-0.422-0.347-1.163,0.067-1.498c0.691-0.563,1.678-0.128,1.678,0.735c0,0.62-0.417,1.061-1.006,1.061
	C29.494,37.533,29.202,37.414,29.039,37.235L29.039,37.235z M64.119,41.771c-0.81-1.294-2.516-3.238-3.665-4.176
	c-0.468-0.381-0.877-0.834-0.908-1.007c-0.836-4.449-2.507-7.72-5.336-10.44c-3.165-3.043-6.716-4.639-11.202-5.038l-1.941-0.172
	l0.416-0.604c0.594-0.862,2.291-2.46,3.295-3.103c1.83-1.175,4.414-2.025,6.819-2.243l1.081-0.1l0.041,2.665l0.041,2.665
	l4.752-4.044l4.754-4.042l-4.754-4.09l-4.752-4.09L52.686,6.67l-0.074,2.72l-1.398,0.115c-4.929,0.408-9.727,2.522-12.971,5.72
	c-1.308,1.289-2.135,2.385-2.962,3.922c-0.325,0.606-0.636,1.101-0.689,1.097c-0.054-0.001-0.562-0.304-1.129-0.676
	c-2.076-1.354-4.941-2.527-7.586-3.108c-1.001-0.219-1.877-0.273-4.368-0.273h-3.117l0.071-0.518
	c0.484-3.478,2.712-6.918,5.678-8.769c3.78-2.358,8.377-2.625,12.214-0.71l1.125,0.562l1.138-1.237
	c1.505-1.635,2.79-2.653,4.492-3.561c1.574-0.838,3.195-1.421,4.849-1.744c1.465-0.285,4.474-0.278,5.996,0.015
	c5.058,0.974,9.348,4.145,11.655,8.612c1.3,2.519,1.803,4.496,1.892,7.421l0.057,1.846l0.944,0.532
	c2.984,1.683,4.956,4.002,6.013,7.075c0.465,1.355,0.482,1.485,0.485,3.767c0.003,2.793-0.181,3.669-1.238,5.911
	c-1.551,3.281-4.359,5.806-7.826,7.038l-1.15,0.406L64.119,41.771L64.119,41.771z"/>
</svg>
