<?xml version="1.0" encoding="utf-8"?>
<!-- Generator: Adobe Illustrator 16.0.0, SVG Export Plug-In . SVG Version: 6.00 Build 0)  -->
<!DOCTYPE svg PUBLIC "-//W3C//DTD SVG 1.1//EN" "http://www.w3.org/Graphics/SVG/1.1/DTD/svg11.dtd">
<svg version="1.1"
	 id="图层_1" xmlns:dc="http://purl.org/dc/elements/1.1/" xmlns:cc="http://creativecommons.org/ns#" xmlns:rdf="http://www.w3.org/1999/02/22-rdf-syntax-ns#"
	 xmlns="http://www.w3.org/2000/svg" xmlns:xlink="http://www.w3.org/1999/xlink" x="0px" y="0px" width="75px" height="75px"
	 viewBox="0 0 75 75" enable-background="new 0 0 75 75" xml:space="preserve">
<path fill="#00BCF2" d="M4.784,1.134C2.132,1.134,0,3.269,0,5.922v32.734c0,2.652,2.132,4.788,4.784,4.788h32.834
	c2.652,0,4.788-2.136,4.788-4.788V5.922c0-2.653-2.136-4.789-4.788-4.789H4.784z M5.177,12.077h32.147v26.676H5.177V12.077z
	 M44.568,13.857v6.632c9.22-0.158,11.485,1.882,11.189,10.226l-4.691,0.022l9.108,10.409L68.813,30.6l-5.178-0.021
	C63.399,19.355,63.369,13.934,44.568,13.857L44.568,13.857z M7.524,14.911v5.18h26.772v-5.18H7.524z M7.524,22.557v5.178h26.772
	v-5.178H7.524z M7.524,30.204v5.178h26.772v-5.178H7.524z M47.017,43.883c-1.419,0-2.561,1.143-2.561,2.561v17.496
	c0,1.417,1.142,2.561,2.561,2.561h17.551c1.418,0,2.56-1.144,2.56-2.561V46.443c0-1.418-1.142-2.561-2.56-2.561H47.017z
	 M68.282,47.515v19.852H48.433v2.769h19.849h2.77v-2.769V47.515H68.282z M47.225,49.731H64.41v14.263H47.225V49.731z M72.229,51.246
	v19.852H52.383v2.769h19.847H75v-2.769V51.246H72.229z M48.674,51.932v2.767h14.313v-2.767H48.674z"/>
</svg>
