<?xml version="1.0" encoding="utf-8"?>
<!-- Generator: Adobe Illustrator 16.0.0, SVG Export Plug-In . SVG Version: 6.00 Build 0)  -->
<!DOCTYPE svg PUBLIC "-//W3C//DTD SVG 1.1//EN" "http://www.w3.org/Graphics/SVG/1.1/DTD/svg11.dtd">
<svg version="1.1"
	 id="svg2" xmlns:dc="http://purl.org/dc/elements/1.1/" xmlns:cc="http://creativecommons.org/ns#" xmlns:rdf="http://www.w3.org/1999/02/22-rdf-syntax-ns#" xmlns:svg="http://www.w3.org/2000/svg"
	 xmlns="http://www.w3.org/2000/svg" xmlns:xlink="http://www.w3.org/1999/xlink" x="0px" y="0px" width="75px" height="31px"
	 viewBox="0 0 75 31" enable-background="new 0 0 75 31" xml:space="preserve">
<g id="g12" transform="scale(0.1,0.1)">
	<path id="path14" fill="#087BBB" d="M1.479,304.214h560.947V183.013H1.479V304.214z"/>
	<path id="path16" fill="none" stroke="#FFFFFF" stroke-width="3.9999" d="M1.479,304.214h560.947V183.013H1.479V304.214z"/>
	<path id="path18" fill="#087BBB" d="M0,183.892L226.606,0h523.398L561.86,183.892H0"/>
	<path id="path20" fill="none" stroke="#FFFFFF" stroke-width="3.9999" d="M0,183.892L226.606,0h523.398L561.86,183.892H0z"/>
	<path id="path22" fill="#087BBB" d="M562.036,309.995l187.383-186.933l0.117-122.788l-187.5,183.413V309.995"/>
	<path id="path24" fill="none" stroke="#FFFFFF" stroke-width="3.9999" d="M562.036,309.995l187.383-186.933l0.117-122.788
		l-187.5,183.413V309.995z"/>
	<path id="path26" fill="#FFFFFF" d="M363.384,47.729l12.695,41.816l-86.05-10.806l24.116-8.833l-87.9-47.817l33.853-12.983
		l83.677,45.264L363.384,47.729"/>
	<path id="path28" fill="#FFFFFF" d="M405.806,135.425l-14.531-40.264l85.352,11.045l-15.41,7.383l95.43,44.941l-35.313,14.063
		l-94.492-46.66L405.806,135.425"/>
	<path id="path30" fill="#FFFFFF" d="M585.278,14.106l94.238,7.241l-12.188,37.163l-19.941-11.777l-193.75,45.391l-37.773-20.137
		l194.727-44.189L585.278,14.106"/>
	<path id="path32" fill="#FFFFFF" d="M175.547,171.958l-87.168-13.926l10.464-38.936l21.655,13.535l196.147-40.049l37.373,20.991
		L153.657,156.04L175.547,171.958"/>
	<path id="path34" fill="#FFFFFF" d="M40.366,267.055h119.746v-49.17H40.366V267.055z"/>
	<path id="path36" fill="#FFFFFF" d="M393.286,267.055h119.668v-49.17H393.286V267.055z"/>
</g>
</svg>
