<?xml version="1.0" encoding="utf-8"?>
<!-- Generator: Adobe Illustrator 16.0.0, SVG Export Plug-In . SVG Version: 6.00 Build 0)  -->
<!DOCTYPE svg PUBLIC "-//W3C//DTD SVG 1.1//EN" "http://www.w3.org/Graphics/SVG/1.1/DTD/svg11.dtd">
<svg version="1.1" id="图层_1" xmlns="http://www.w3.org/2000/svg" xmlns:xlink="http://www.w3.org/1999/xlink" x="0px" y="0px"
	 width="512px" height="512px" viewBox="0 0 512 512" enable-background="new 0 0 512 512" xml:space="preserve">
<g>
	<path fill="#3B9CD9" d="M499.037,101.813c-10.847-62.461-25.838-77.337-89.152-88.42c-40.31-7.053-97.21-11.098-156.091-11.098
		c-58.363,0-112.338,3.801-151.978,10.687c-62.468,10.855-77.345,25.853-88.405,89.152c-14.663,83.819-14.884,224.882-0.48,308.031
		c10.817,62.461,25.815,77.329,89.152,88.42c40.409,7.069,97.431,11.121,156.434,11.121h0.009
		c58.218,0,112.087-3.778,151.665-10.634c62.476-10.862,77.359-25.854,88.404-89.167
		C513.266,326.071,513.464,184.977,499.037,101.813 M483.24,407.222c-9.918,56.764-19.82,66.772-75.715,76.492
		c-38.727,6.703-91.636,10.39-149,10.39h-0.009c-58.148,0-114.181-3.961-153.745-10.877c-56.786-9.947-66.795-19.865-76.469-75.715
		c-14.153-81.702-13.939-220.319,0.48-302.699c9.918-56.748,19.82-66.757,75.7-76.461c38.794-6.741,91.817-10.458,149.312-10.458
		c58.012,0,113.938,3.961,153.41,10.868c56.748,9.933,66.757,19.843,76.477,75.715C497.85,186.186,497.652,324.819,483.24,407.222"
		/>
	<path fill="#3B9CD9" d="M315.055,155.143l-41.096,15.115v181.417l41.096,15.114c11.428,4.203,21.379-6.89,21.379-25.089V180.233
		C336.434,162.033,326.482,150.94,315.055,155.143 M218.567,105.417L115,143.874c-8.477,3.148-15.011,19.576-15.011,36.848v153.244
		c0,17.272,6.534,33.701,15.011,36.849l103.566,38.455c16.25,6.035,30.402-9.891,30.402-36.019V141.438
		C248.969,115.309,234.817,99.383,218.567,105.417 M174.338,327.689l-47.154-9.091c-2.804-0.54-5.041-5.498-5.041-11.082
		s2.237-9.823,5.041-9.465l47.154,6.04c3.769,0.483,6.883,6.265,6.883,12.902C181.221,323.634,178.108,328.416,174.338,327.689
		 M122.143,257.346c0-5.583,2.237-10.182,5.041-10.272l36.131-1.168c3.544-0.114,6.47,5.007,6.47,11.441s-2.926,11.557-6.47,11.441
		l-36.131-1.168C124.38,267.529,122.143,262.93,122.143,257.346 M198.579,207.493l-71.395,9.146
		c-2.804,0.359-5.041-3.881-5.041-9.465s2.237-10.542,5.041-11.082l71.395-13.762c4.29-0.827,7.838,4.236,7.838,11.324
		C206.418,200.743,202.869,206.944,198.579,207.493 M387.142,155.143l-25.717,9.459v192.729l25.717,9.459
		c11.429,4.203,21.38-6.89,21.38-25.089V180.233C408.521,162.033,398.57,150.94,387.142,155.143"/>
</g>
</svg>
