<?xml version="1.0" encoding="utf-8"?>
<!-- Generator: Adobe Illustrator 16.0.0, SVG Export Plug-In . SVG Version: 6.00 Build 0)  -->
<!DOCTYPE svg PUBLIC "-//W3C//DTD SVG 1.1//EN" "http://www.w3.org/Graphics/SVG/1.1/DTD/svg11.dtd">
<svg version="1.1"
	 id="图层_1" xmlns:dc="http://purl.org/dc/elements/1.1/" xmlns:cc="http://creativecommons.org/ns#" xmlns:rdf="http://www.w3.org/1999/02/22-rdf-syntax-ns#"
	 xmlns="http://www.w3.org/2000/svg" xmlns:xlink="http://www.w3.org/1999/xlink" x="0px" y="0px" width="66px" height="76px"
	 viewBox="0 0 66 76" enable-background="new 0 0 66 76" xml:space="preserve">
<path fill="#00BCF2" d="M28.061,75.906c-1.961-0.191-5.291-0.809-7.168-1.327c-5.591-1.544-9.482-3.979-10.273-6.424
	c-0.093-0.285-0.752-3.464-1.463-7.061l-1.293-6.537l0.298-0.403c0.351-0.472,1.208-0.812,1.542-0.61
	c0.124,0.077,0.695,0.507,1.269,0.959c1.246,0.98,3.732,2.237,5.896,2.98c4.588,1.579,9.833,2.339,16.119,2.339
	c10.077,0,18.291-2.124,22.802-5.894c0.564-0.472,0.688-0.516,1.104-0.396c0.618,0.177,1.169,0.706,1.169,1.123
	c0,0.185-0.533,2.978-1.186,6.207c-0.651,3.23-1.253,6.238-1.34,6.687c-0.704,3.65-7.307,6.971-16.356,8.223
	C37.609,75.992,29.867,76.084,28.061,75.906L28.061,75.906z M29.25,54.561c-5.23-0.301-10.854-1.405-14.774-2.9
	c-2.893-1.104-5.867-2.919-7.161-4.371c-0.945-1.058-1.729-2.594-1.862-3.643c-0.055-0.438-1.304-7.926-2.776-16.642
	C1.206,18.289,0,10.86,0,10.496c0-1.474,1.342-3.226,3.582-4.673c4.147-2.678,11.334-4.6,20.747-5.544
	c3.695-0.371,13.593-0.374,17.318,0c10.841,1.075,18.785,3.497,22.45,6.849c1.156,1.055,1.889,2.355,1.902,3.37
	c0,0.39-1.173,7.662-2.618,16.161c-1.444,8.498-2.697,15.989-2.784,16.645c-0.224,1.681-0.825,2.85-2.146,4.171
	c-3.926,3.933-11.973,6.515-22.104,7.099c-2.821,0.163-4.126,0.161-7.096-0.011L29.25,54.561L29.25,54.561z M34.58,47.104
	c4.283-0.696,7.514-3.61,8.566-7.725c0.356-1.387,0.38-3.727,0.059-5.112c-0.781-3.339-3.541-6.31-6.882-7.404
	c-1.183-0.389-1.523-0.433-3.262-0.433c-1.613,0-2.13,0.059-3.06,0.348c-5.701,1.773-8.766,7.842-6.805,13.478
	C24.823,44.935,29.734,47.891,34.58,47.104L34.58,47.104z M31.168,41.677c-2.913-1.201-4.154-4.254-2.88-7.092
	c1.431-3.188,5.657-4.065,8.269-1.718c1.955,1.758,2.305,4.704,0.815,6.881C35.986,41.771,33.374,42.582,31.168,41.677
	L31.168,41.677z M37.33,14.258c8.604-0.438,14.709-1.765,16.264-3.537c0.499-0.569,0.531-0.774,0.21-1.394
	c-0.624-1.206-4.048-2.409-8.876-3.117c-3.937-0.576-5.747-0.678-11.942-0.678c-6.194,0-8.005,0.102-11.939,0.678
	c-4.83,0.708-8.253,1.911-8.878,3.117c-0.32,0.619-0.29,0.824,0.21,1.394C14.537,13.18,26.153,14.825,37.33,14.258z"/>
</svg>
