<?xml version="1.0" encoding="utf-8"?>
<!-- Generator: Adobe Illustrator 16.0.0, SVG Export Plug-In . SVG Version: 6.00 Build 0)  -->
<!DOCTYPE svg PUBLIC "-//W3C//DTD SVG 1.1//EN" "http://www.w3.org/Graphics/SVG/1.1/DTD/svg11.dtd">
<svg version="1.1"
	 id="图层_1" xmlns:dc="http://purl.org/dc/elements/1.1/" xmlns:cc="http://creativecommons.org/ns#" xmlns:rdf="http://www.w3.org/1999/02/22-rdf-syntax-ns#"
	 xmlns="http://www.w3.org/2000/svg" xmlns:xlink="http://www.w3.org/1999/xlink" x="0px" y="0px" width="75px" height="75px"
	 viewBox="0 0 75 75" enable-background="new 0 0 75 75" xml:space="preserve">
<path fill="#00BCF2" d="M35.909,73.646c-1.531-0.493-2.869-1.714-3.622-3.304c-0.421-0.89-0.461-1.101-0.461-2.444
	c0-1.353,0.039-1.553,0.475-2.474c0.591-1.248,1.792-2.446,2.918-2.913l0.8-0.331v-4.754v-4.754H24.538
	c-9.908,0-11.635-0.032-12.614-0.233C6.184,51.257,1.88,47.178,0.4,41.518c-0.599-2.293-0.52-5.627,0.19-7.953
	c0.674-2.21,2.211-4.647,3.925-6.22c1.025-0.942,3.165-2.344,4.245-2.783c0.802-0.326,0.806-0.329,0.714-0.856
	c-0.05-0.292-0.13-1.399-0.177-2.462c-0.102-2.296,0.137-3.763,0.901-5.542c0.79-1.839,1.386-2.726,2.798-4.159
	c1.562-1.586,3.012-2.494,5.075-3.179c1.299-0.43,1.547-0.464,3.53-0.474c1.809-0.011,2.31,0.04,3.297,0.326
	c2.084,0.604,3.873,1.655,5.632,3.311l0.764,0.719l0.236-0.565c0.425-1.017,1.514-2.749,2.511-3.992
	c3.875-4.834,10.322-7.312,16.319-6.272c6.561,1.137,11.976,5.885,14.024,12.294c0.705,2.207,0.959,4.109,0.856,6.451
	c-0.048,1.092-0.183,2.382-0.302,2.867c-0.118,0.485-0.203,0.892-0.189,0.906c0.014,0.013,0.622,0.282,1.35,0.597
	c1.901,0.821,3.341,1.815,4.854,3.352c1.583,1.606,2.563,3.171,3.249,5.186c0.608,1.786,0.794,2.924,0.796,4.87
	c0.005,6.626-4.303,12.37-10.658,14.212c-1.981,0.574-4.003,0.665-14.9,0.667l-10.187,0.001v4.691v4.691l0.386,0.098
	c0.597,0.149,1.833,0.997,2.44,1.671c1.115,1.237,1.705,3.075,1.504,4.68c-0.236,1.889-1.672,3.837-3.447,4.679
	c-0.818,0.387-1.147,0.458-2.28,0.487C37.045,73.835,36.292,73.771,35.909,73.646L35.909,73.646z M39.107,49.438v-3.087l0.404-0.09
	c2.281-0.502,3.917-1.342,5.476-2.806c0.632-0.595,1.199-1.082,1.26-1.082c0.209,0,5.545,3.161,5.608,3.322
	c0.034,0.088-0.441,1.036-1.058,2.109s-1.094,1.978-1.061,2.012c0.034,0.033,2.023-0.388,4.424-0.934
	c3.093-0.704,4.363-1.052,4.363-1.192c0-0.174-2.482-8.875-2.554-8.949c-0.015-0.015-0.506,0.814-1.09,1.847
	c-0.583,1.031-1.15,1.995-1.258,2.143c-0.185,0.252-0.381,0.163-3.054-1.381c-1.57-0.908-2.875-1.67-2.898-1.692
	c-0.022-0.021,0.107-0.562,0.288-1.2c0.421-1.481,0.449-3.942,0.059-5.278c-0.435-1.492-0.609-1.278,2.546-3.124
	c1.568-0.918,2.865-1.649,2.886-1.626c0.02,0.023,0.287,0.888,0.597,1.92c0.311,1.033,0.612,1.827,0.674,1.765
	c0.155-0.157,3.658-8.14,3.658-8.338c0-0.131-8.522-1.918-8.621-1.807c-0.015,0.017,0.459,0.875,1.055,1.907
	c1.078,1.874,1.079,1.877,0.756,2.084c-0.179,0.113-1.479,0.876-2.891,1.695l-2.565,1.488l-0.965-0.94
	c-1.611-1.573-2.946-2.329-4.976-2.822l-1.069-0.26l0.04-3.326l0.039-3.326l2.119-0.074l2.119-0.074l-2.836-3.31
	c-1.56-1.821-2.85-3.327-2.867-3.348c-0.018-0.021-1.277,1.468-2.8,3.31l-2.768,3.348l1.972,0.074l1.972,0.074l0.039,3.325
	l0.04,3.325l-0.995,0.245c-1.949,0.481-4.195,1.804-5.291,3.114c-0.302,0.361-0.596,0.656-0.653,0.656
	c-0.195,0-5.717-3.268-5.717-3.384c0-0.063,0.437-0.855,0.971-1.758c0.535-0.903,0.941-1.673,0.904-1.711
	c-0.086-0.085-8.386,1.275-8.517,1.396c-0.052,0.048,0.547,2.041,1.331,4.427l1.425,4.34l0.517-0.883
	c0.284-0.485,0.807-1.395,1.162-2.021c0.606-1.07,0.664-1.126,0.948-0.943c0.167,0.107,1.482,0.88,2.924,1.717
	c2.303,1.337,2.61,1.559,2.528,1.826c-0.526,1.712-0.577,2.032-0.577,3.614c0,1.204,0.076,1.944,0.265,2.574
	c0.516,1.717,0.726,1.427-2.287,3.162c-1.474,0.85-2.721,1.563-2.771,1.585c-0.05,0.021-0.543-0.773-1.097-1.766
	c-0.553-0.993-1.077-1.895-1.163-2.005c-0.118-0.15-0.515,0.873-1.595,4.113c-0.791,2.372-1.389,4.355-1.33,4.407
	c0.141,0.122,8.577,1.796,8.655,1.717c0.033-0.032-0.412-0.899-0.989-1.929c-0.577-1.028-1.023-1.891-0.993-1.918
	c0.031-0.024,1.295-0.759,2.81-1.63l2.754-1.582l1.101,1.028c1.28,1.195,2.949,2.127,4.531,2.527l1.069,0.271l0.04,3.105l0.04,3.107
	h1.468h1.468V49.438L39.107,49.438z M36.019,42.255c-4.92-1.286-6.667-7.535-3.125-11.172c1.395-1.431,2.938-2.097,4.848-2.092
	c2.661,0.011,4.903,1.498,6.101,4.056c0.624,1.333,0.736,3.104,0.292,4.565c-0.726,2.384-2.552,4.131-4.894,4.682
	C38.04,42.578,37.217,42.568,36.019,42.255z"/>
</svg>
