<?xml version="1.0" encoding="utf-8"?>
<!-- Generator: Adobe Illustrator 16.0.0, SVG Export Plug-In . SVG Version: 6.00 Build 0)  -->
<!DOCTYPE svg PUBLIC "-//W3C//DTD SVG 1.1//EN" "http://www.w3.org/Graphics/SVG/1.1/DTD/svg11.dtd">
<svg version="1.1"
	 id="svg2" xmlns:dc="http://purl.org/dc/elements/1.1/" xmlns:cc="http://creativecommons.org/ns#" xmlns:rdf="http://www.w3.org/1999/02/22-rdf-syntax-ns#" xmlns:svg="http://www.w3.org/2000/svg"
	 xmlns="http://www.w3.org/2000/svg" xmlns:xlink="http://www.w3.org/1999/xlink" x="0px" y="0px" width="52px" height="76px"
	 viewBox="0 0 52 76" enable-background="new 0 0 52 76" xml:space="preserve">
<g id="g12" transform="scale(0.1,0.1)">
	<path id="path22" fill="#02709F" d="M520,592.392V0L377.324,142.817V760L520,592.392"/>
	<path id="path24" fill="none" stroke="#FFFFFF" stroke-width="3.9999" d="M520,592.392V0L377.324,142.817V760L520,592.392z"/>
	<path id="path26" fill="#02709F" d="M0,760h377.324V142.817H0V760z"/>
	<path id="path28" fill="none" stroke="#FFFFFF" stroke-width="3.9999" d="M0,760h377.324V142.817H0V760z"/>
	<path id="path30" fill="#02709F" d="M377.324,142.817L520,0H183.833L0,142.817H377.324"/>
	<path id="path32" fill="none" stroke="#FFFFFF" stroke-width="3.9999" d="M377.324,142.817L520,0H183.833L0,142.817H377.324z"/>
	<path id="path34" fill="none" stroke="#FFFFFF" stroke-width="3.6" d="M111.743,569.092v53.721h53.916"/>
	<path id="path36" fill="none" stroke="#FFFFFF" stroke-width="3.6" d="M106.128,622.812h59.551"/>
	<path id="path38" fill="none" stroke="#FFFFFF" stroke-width="3.6" d="M36.401,569.092v53.721h54.082"/>
	<path id="path40" fill="none" stroke="#FFFFFF" stroke-width="3.6" d="M30.786,622.812h59.697"/>
	<path id="path42" fill="none" stroke="#FFFFFF" stroke-width="3.6" d="M111.743,477.051v53.711h53.916"/>
	<path id="path44" fill="none" stroke="#FFFFFF" stroke-width="3.6" d="M106.128,530.761h59.551"/>
	<path id="path46" fill="none" stroke="#FFFFFF" stroke-width="3.6" d="M36.401,477.051v53.711h54.082"/>
	<path id="path48" fill="none" stroke="#FFFFFF" stroke-width="3.6" d="M30.786,530.761h59.697"/>
	<path id="path50" fill="none" stroke="#FFFFFF" stroke-width="3.6" d="M111.743,373.594v53.867h53.916"/>
	<path id="path52" fill="none" stroke="#FFFFFF" stroke-width="3.6" d="M106.128,427.461h59.551"/>
	<path id="path54" fill="none" stroke="#FFFFFF" stroke-width="3.6" d="M36.401,373.594v53.867h54.082"/>
	<path id="path56" fill="none" stroke="#FFFFFF" stroke-width="3.6" d="M30.786,427.461h59.697"/>
	<path id="path58" fill="none" stroke="#FFFFFF" stroke-width="3.6" d="M111.743,270.156v53.867h53.916"/>
	<path id="path60" fill="none" stroke="#FFFFFF" stroke-width="3.6" d="M106.128,324.023h59.551"/>
	<path id="path62" fill="none" stroke="#FFFFFF" stroke-width="3.6" d="M36.401,270.156v53.867h54.082"/>
	<path id="path64" fill="none" stroke="#FFFFFF" stroke-width="3.6" d="M30.786,324.023h59.697"/>
	<path id="path66" fill="none" stroke="#FFFFFF" stroke-width="3.6" d="M111.743,166.714v54.014h53.916"/>
	<path id="path68" fill="none" stroke="#FFFFFF" stroke-width="3.6" d="M106.128,220.728h59.551"/>
	<path id="path70" fill="none" stroke="#FFFFFF" stroke-width="3.6" d="M36.401,166.714v54.014h54.082"/>
	<path id="path72" fill="none" stroke="#FFFFFF" stroke-width="3.6" d="M30.786,220.728h59.697"/>
	<path id="path74" fill="none" stroke="#FFFFFF" stroke-width="3.6" d="M279.141,569.092v53.721h53.77"/>
	<path id="path76" fill="none" stroke="#FFFFFF" stroke-width="3.6" d="M273.379,622.812h59.531"/>
	<path id="path78" fill="none" stroke="#FFFFFF" stroke-width="3.6" d="M203.804,569.092v53.721h53.926"/>
	<path id="path80" fill="none" stroke="#FFFFFF" stroke-width="3.6" d="M198.032,622.812h59.697"/>
	<path id="path82" fill="none" stroke="#FFFFFF" stroke-width="3.6" d="M279.141,477.051v53.711h53.77"/>
	<path id="path84" fill="none" stroke="#FFFFFF" stroke-width="3.6" d="M273.379,530.761h59.531"/>
	<path id="path86" fill="none" stroke="#FFFFFF" stroke-width="3.6" d="M203.804,477.051v53.711h53.926"/>
	<path id="path88" fill="none" stroke="#FFFFFF" stroke-width="3.6" d="M198.032,530.761h59.697"/>
	<path id="path90" fill="none" stroke="#FFFFFF" stroke-width="3.6" d="M279.141,373.594v53.867h53.77"/>
	<path id="path92" fill="none" stroke="#FFFFFF" stroke-width="3.6" d="M273.379,427.461h59.531"/>
	<path id="path94" fill="none" stroke="#FFFFFF" stroke-width="3.6" d="M203.804,373.594v53.867h53.926"/>
	<path id="path96" fill="none" stroke="#FFFFFF" stroke-width="3.6" d="M198.032,427.461h59.697"/>
	<path id="path98" fill="none" stroke="#FFFFFF" stroke-width="3.6" d="M279.141,270.156v53.867h53.77"/>
	<path id="path100" fill="none" stroke="#FFFFFF" stroke-width="3.6" d="M273.379,324.023h59.531"/>
	<path id="path102" fill="none" stroke="#FFFFFF" stroke-width="3.6" d="M203.804,270.156v53.867h53.926"/>
	<path id="path104" fill="none" stroke="#FFFFFF" stroke-width="3.6" d="M198.032,324.023h59.697"/>
	<path id="path106" fill="none" stroke="#FFFFFF" stroke-width="3.6" d="M279.141,166.714v54.014h53.77"/>
	<path id="path108" fill="none" stroke="#FFFFFF" stroke-width="3.6" d="M273.379,220.728h59.531"/>
	<path id="path110" fill="none" stroke="#FFFFFF" stroke-width="3.6" d="M203.804,166.714v54.014h53.926"/>
	<path id="path112" fill="none" stroke="#FFFFFF" stroke-width="3.6" d="M198.032,220.728h59.697"/>
</g>
</svg>
