<?xml version="1.0" encoding="utf-8"?>
<!-- Generator: Adobe Illustrator 16.0.0, SVG Export Plug-In . SVG Version: 6.00 Build 0)  -->
<!DOCTYPE svg PUBLIC "-//W3C//DTD SVG 1.1//EN" "http://www.w3.org/Graphics/SVG/1.1/DTD/svg11.dtd">
<svg version="1.1"
	 id="svg2" xmlns:dc="http://purl.org/dc/elements/1.1/" xmlns:cc="http://creativecommons.org/ns#" xmlns:rdf="http://www.w3.org/1999/02/22-rdf-syntax-ns#" xmlns:svg="http://www.w3.org/2000/svg"
	 xmlns="http://www.w3.org/2000/svg" xmlns:xlink="http://www.w3.org/1999/xlink" x="0px" y="0px" width="46px" height="79px"
	 viewBox="0 0 46 79" enable-background="new 0 0 46 79" xml:space="preserve">
<g id="g12" transform="scale(0.1,0.1)">
	<path id="path22" fill="#02709F" d="M460.002,706.611L374.348,790V83.389L460.002,0V706.611"/>
	<path id="path24" fill="none" stroke="#FFFFFF" stroke-width="3.9999" d="M460.002,706.611L374.348,790V83.389L460.002,0V706.611z"
		/>
	<path id="path26" fill="#02709F" d="M0.002,790h374.346V83.389H0.002V790z"/>
	<path id="path28" fill="none" stroke="#FFFFFF" stroke-width="3.9999" d="M0.002,790h374.346V83.389H0.002V790z"/>
	<path id="path30" fill="#02709F" d="M85.647,0h374.355l-85.654,83.389H0.002L85.647,0"/>
	<path id="path32" fill="none" stroke="#FFFFFF" stroke-width="3.9999" d="M85.647,0h374.355l-85.654,83.389H0.002L85.647,0z"/>
	<path id="path34" fill="#FFFFFF" d="M101.545,256.152h161.709v-95.01H101.545V256.152z"/>
	<path id="path36" fill="#FFFFFF" d="M70.627,362.949c13.057,0,23.555-10.479,23.555-23.535c0-13.047-10.498-23.535-23.555-23.535
		c-13.047,0-23.535,10.488-23.535,23.535C47.092,352.47,57.581,362.949,70.627,362.949"/>
	<path id="path38" fill="#FFFFFF" d="M70.627,448.398c13.057,0,23.555-10.313,23.555-23.369c0-13.047-10.498-23.525-23.555-23.525
		c-13.047,0-23.535,10.479-23.535,23.525C47.092,438.086,57.581,448.398,70.627,448.398"/>
	<path id="path40" fill="#FFFFFF" d="M70.627,534.013c13.057,0,23.555-10.322,23.555-23.359c0-13.057-10.498-23.711-23.555-23.711
		c-13.047,0-23.535,10.654-23.535,23.711C47.092,523.691,57.581,534.013,70.627,534.013"/>
	<path id="path42" fill="#FFFFFF" d="M70.627,619.619c13.057,0,23.555-10.322,23.555-23.369s-10.498-23.701-23.555-23.701
		c-13.047,0-23.535,10.654-23.535,23.701S57.581,619.619,70.627,619.619"/>
	<path id="path44" fill="#FFFFFF" d="M70.627,705.244c13.057,0,23.555-10.322,23.555-23.379c0-13.047-10.498-23.701-23.555-23.701
		c-13.047,0-23.535,10.654-23.535,23.701C47.092,694.922,57.581,705.244,70.627,705.244"/>
	<path id="path46" fill="none" stroke="#FFFFFF" stroke-width="3.9999" d="M101.545,332.207H253.84"/>
	<path id="path48" fill="none" stroke="#FFFFFF" stroke-width="3.9999" d="M101.545,417.949H253.84"/>
	<path id="path50" fill="none" stroke="#FFFFFF" stroke-width="3.9999" d="M101.545,503.594H253.84"/>
	<path id="path52" fill="none" stroke="#FFFFFF" stroke-width="3.9999" d="M101.545,589.209H253.84"/>
	<path id="path54" fill="none" stroke="#FFFFFF" stroke-width="3.9999" d="M101.545,674.482H253.84"/>
	<path id="path56" fill="#FFFFFF" d="M289.446,362.949c13.047,0,23.701-10.479,23.701-23.535c0-13.047-10.654-23.535-23.701-23.535
		c-13.066,0-23.389,10.488-23.389,23.535C266.057,352.47,276.379,362.949,289.446,362.949"/>
	<path id="path58" fill="#FFFFFF" d="M289.446,448.398c13.047,0,23.701-10.313,23.701-23.369c0-13.047-10.654-23.525-23.701-23.525
		c-13.066,0-23.389,10.479-23.389,23.525C266.057,438.086,276.379,448.398,289.446,448.398"/>
	<path id="path60" fill="#FFFFFF" d="M289.446,534.013c13.047,0,23.701-10.322,23.701-23.359c0-13.057-10.654-23.711-23.701-23.711
		c-13.066,0-23.389,10.654-23.389,23.711C266.057,523.691,276.379,534.013,289.446,534.013"/>
	<path id="path62" fill="#FFFFFF" d="M289.446,619.619c13.047,0,23.701-10.322,23.701-23.369s-10.654-23.701-23.701-23.701
		c-13.066,0-23.389,10.654-23.389,23.701S276.379,619.619,289.446,619.619"/>
	<path id="path64" fill="#FFFFFF" d="M289.446,705.244c13.047,0,23.701-10.322,23.701-23.379c0-13.047-10.654-23.701-23.701-23.701
		c-13.066,0-23.389,10.654-23.389,23.701C266.057,694.922,276.379,705.244,289.446,705.244"/>
</g>
</svg>
