<?xml version="1.0" encoding="utf-8"?>
<!-- Generator: Adobe Illustrator 16.0.0, SVG Export Plug-In . SVG Version: 6.00 Build 0)  -->
<!DOCTYPE svg PUBLIC "-//W3C//DTD SVG 1.1//EN" "http://www.w3.org/Graphics/SVG/1.1/DTD/svg11.dtd">
<svg version="1.1"
	 id="svg2" xmlns:dc="http://purl.org/dc/elements/1.1/" xmlns:cc="http://creativecommons.org/ns#" xmlns:rdf="http://www.w3.org/1999/02/22-rdf-syntax-ns#" xmlns:svg="http://www.w3.org/2000/svg"
	 xmlns="http://www.w3.org/2000/svg" xmlns:xlink="http://www.w3.org/1999/xlink" x="0px" y="0px" width="80px" height="80px"
	 viewBox="0 0 80 80" enable-background="new 0 0 80 80" xml:space="preserve">
<g id="g12" transform="scale(0.1,0.1)">
	<path id="path22" fill="#087BBB" d="M790.005,160.767c0,83.174-174.629,150.762-390,150.762c-215.361,0-390-67.588-390-150.762
		v478.457c0,83.184,174.639,150.781,390,150.781c215.371,0,390-67.598,390-150.781V160.767"/>
	<path id="path24" fill="none" stroke="#FFFFFF" stroke-width="3.9999" d="M790.005,160.767c0,83.174-174.629,150.762-390,150.762
		c-215.361,0-390-67.588-390-150.762v478.457c0,83.184,174.639,150.781,390,150.781c215.371,0,390-67.598,390-150.781V160.767z"/>
	<path id="path26" fill="#087BBB" d="M400.005,311.528c215.371,0,390-67.588,390-150.762c0-83.311-174.629-150.767-390-150.767
		c-215.361,0-390,67.456-390,150.767C10.005,243.94,184.644,311.528,400.005,311.528"/>
	<path id="path28" fill="none" stroke="#FFFFFF" stroke-width="3.9999" d="M400.005,311.528c215.371,0,390-67.588,390-150.762
		c0-83.311-174.629-150.767-390-150.767c-215.361,0-390,67.456-390,150.767C10.005,243.94,184.644,311.528,400.005,311.528z"/>
	<path id="path30" fill="#FFFFFF" d="M357.573,390.864v287.988l338.906-139.297L357.573,390.864"/>
	<path id="path32" fill="#FFFFFF" d="M321.069,388.188l0.02,60.332l-109.927,0.059l-0.029-60.322L321.069,388.188"/>
	<path id="path34" fill="none" stroke="#231F20" stroke-width="3.9999" d="M321.069,388.188l0.02,60.332l-109.927,0.059
		l-0.029-60.322L321.069,388.188z"/>
	<path id="path36" fill="#FFFFFF" d="M321.069,466.821l0.02,60.176l-109.927,0.039l-0.029-60.137L321.069,466.821"/>
	<path id="path38" fill="none" stroke="#231F20" stroke-width="3.9999" d="M321.069,466.821l0.02,60.176l-109.927,0.039
		l-0.029-60.137L321.069,466.821z"/>
	<path id="path40" fill="#FFFFFF" d="M321.069,546.86l0.02,60.195l-109.927,0.039l-0.029-60.156L321.069,546.86"/>
	<path id="path42" fill="none" stroke="#231F20" stroke-width="3.9999" d="M321.069,546.86l0.02,60.195l-109.927,0.039
		l-0.029-60.156L321.069,546.86z"/>
	<path id="path44" fill="#FFFFFF" d="M321.069,626.899l0.02,60.195l-109.927,0.039l-0.029-60.156L321.069,626.899"/>
	<path id="path46" fill="none" stroke="#231F20" stroke-width="3.9999" d="M321.069,626.899l0.02,60.195l-109.927,0.039
		l-0.029-60.156L321.069,626.899z"/>
	<path id="path48" fill="#FFFFFF" d="M316.47,96.548l32.217,47.998l-121.787,28.057l26.68-22.061L65.425,118.579l47.158-35.127
		l181.611,30.532L316.47,96.548"/>
	<path id="path50" fill="#FFFFFF" d="M487.915,213.013l-22.051-49.487l109.717-21.782l-19.082,16.885l183.086,31.128l-43.848,34.961
		L513.95,190.64L487.915,213.013"/>
	<path id="path52" fill="#FFFFFF" d="M427.69,70.454l123.154-33.496l1.484,52.319l-30.713-5.781l-60.225,49.478l-57.207-8.301
		l61.846-48.418L427.69,70.454"/>
	<path id="path54" fill="#FFFFFF" d="M375.063,258.052l-117.168,21.943l-4.316-53.931l33.672,7.393l64.443-54.761l56.914,9.565
		l-68.721,59.731L375.063,258.052"/>
</g>
</svg>
