<?xml version="1.0" encoding="utf-8"?>
<!-- Generator: Adobe Illustrator 16.0.0, SVG Export Plug-In . SVG Version: 6.00 Build 0)  -->
<!DOCTYPE svg PUBLIC "-//W3C//DTD SVG 1.1//EN" "http://www.w3.org/Graphics/SVG/1.1/DTD/svg11.dtd">
<svg version="1.1"
	 id="svg2" xmlns:dc="http://purl.org/dc/elements/1.1/" xmlns:cc="http://creativecommons.org/ns#" xmlns:rdf="http://www.w3.org/1999/02/22-rdf-syntax-ns#" xmlns:svg="http://www.w3.org/2000/svg"
	 xmlns="http://www.w3.org/2000/svg" xmlns:xlink="http://www.w3.org/1999/xlink" x="0px" y="0px" width="49px" height="75px"
	 viewBox="0 0 49 75" enable-background="new 0 0 49 75" xml:space="preserve">
<g id="g12" transform="scale(0.1,0.1)">
	<path id="path22" fill="#087BBB" d="M0,750.002h392.632V80.193H0V750.002z"/>
	<path id="path24" fill="none" stroke="#FFFFFF" stroke-width="3.9999" d="M0,750.002h392.632V80.193H0V750.002z"/>
	<path id="path26" fill="#087BBB" d="M117.832,0.002L0,80.193h392.632l97.363-80.19H117.832"/>
	<path id="path28" fill="none" stroke="#FFFFFF" stroke-width="3.9999" d="M117.832,0.002L0,80.193h392.632l97.363-80.19H117.832z"
		/>
	<path id="path30" fill="#087BBB" d="M489.995,629.739V0.002L392.632,84.69v665.312L489.995,629.739"/>
	<path id="path32" fill="none" stroke="#FFFFFF" stroke-width="3.9999" d="M489.995,629.739V0.002L392.632,84.69v665.312
		L489.995,629.739z"/>
	<path id="path34" fill="#FFFFFF" d="M201.421,89.426L13.477,410.735h376.206L201.421,89.426"/>
	<path id="path36" fill="#FFFFFF" d="M201.421,731.74L13.477,410.735h376.206L201.421,731.74"/>
	<path id="path38" fill="#087BBB" d="M177.71,478.86l42.676-38.604c-42.139-0.625-63.477,0.85-91.133,3.467
		c-13.447,49.98-24.683,79.756-38.228,113.027l44.6-40.254c31.929,29.688,71.226,36.689,104.556,21.719
		c0.869-0.781,1.924-1.533,2.764-2.617l53.633-48.008C262.495,518.381,213.931,515.451,177.71,478.86"/>
	<path id="path40" fill="#087BBB" d="M139.897,410.217c-11.064-42.92-5.361-90.234,18.477-123.828
		c4.453-6.289,9.473-11.807,14.668-16.553l-53.643,48.34c-5.22,4.746-10.225,10.273-14.678,16.563
		c-23.599,33.242-29.453,79.931-18.813,122.832L139.897,410.217"/>
	<path id="path42" fill="#087BBB" d="M245.737,268.528c-21.553-9.902-44.326-11.484-65.313-4.59
		c-2.539,1.836-4.893,3.75-7.383,5.898l-53.643,48.34c24.595-22.227,56.494-26.777,85.967-14.277l-29.473,25.742l91.133-2.285
		l15.645-91.133L245.737,268.528"/>
	<path id="path44" fill="#087BBB" d="M314.155,301.008c33.789,67.461,21.25,134.746-2.871,169.883
		c-4.473,6.436-9.473,11.768-14.707,16.699l-53.633,48.008c5.371-4.59,10.215-10.264,14.688-16.387
		c43.867-64.268,18.184-128.096,4.414-170.195L314.155,301.008"/>
</g>
</svg>
