<svg version="1.1" id="ilhwsa8q1" xmlns:xml="http://www.w3.org/XML/1998/namespace"
	 xmlns="http://www.w3.org/2000/svg" xmlns:xlink="http://www.w3.org/1999/xlink" x="0px" y="0px" width="24px" height="76px"
	 viewBox="0 0 24 76" enable-background="new 0 0 24 76" xml:space="preserve">
<g>
	<g>
		<path fill="#2E3335" d="M14.179,4.304L14.179,4.304c-0.169,0-0.277-0.17-0.277-0.27V0.273C13.902,0.106,14.063,0,14.179,0l0,0
			c0.166,0,0.271,0.17,0.271,0.273v3.862C14.515,4.199,14.344,4.304,14.179,4.304z"/>
		<path fill="#2E3335" d="M12.735,5.687L12.735,5.687c-0.17,0-0.287-0.166-0.287-0.272V1.658c0-0.17,0.171-0.276,0.287-0.276l0,0
			c0.167,0,0.274,0.17,0.274,0.276v3.862C12.957,5.521,12.787,5.687,12.735,5.687z"/>
		<path fill="#2E3335" d="M15.567,5.687L15.567,5.687c-0.168,0-0.271-0.166-0.271-0.272V1.658c0-0.17,0.158-0.276,0.271-0.276l0,0
			c0.167,0,0.274,0.17,0.274,0.276v3.862C15.789,5.521,15.674,5.687,15.567,5.687z"/>
		<g>
			<path fill="#2E3335" d="M14.515,20.274h-0.612V4.368c0-0.169,0.162-0.282,0.277-0.282l0,0c0.166,0,0.271,0.167,0.271,0.282
				C14.515,4.304,14.515,20.274,14.515,20.274z"/>
			<path fill="#2E3335" d="M15.674,4.254L15.674,4.254c0,0.05-0.056,0.221-0.221,0.221h-2.551c-0.061,0-0.218-0.055-0.218-0.221l0,0
				c0-0.055,0.051-0.22,0.218-0.22h2.551C15.617,4.034,15.674,4.086,15.674,4.254z"/>
		</g>
	</g>
	<rect x="3.614" y="20.043" fill="#B2CECD" width="17.178" height="54.799"/>
	<rect x="9.344" y="67.997" fill="#70AFB2" width="5.603" height="6.792"/>
	<g opacity="0.74">
		<rect x="5.615" y="24.298" fill="#FFFFFF" width="1.052" height="41.817"/>
		<rect x="7.668" y="24.298" fill="#FFFFFF" width="1.051" height="41.817"/>
		<rect x="9.617" y="24.298" fill="#FFFFFF" width="1.052" height="41.817"/>
		<rect x="11.669" y="24.298" fill="#FFFFFF" width="1.056" height="41.817"/>
		<rect x="13.62" y="24.298" fill="#FFFFFF" width="1.053" height="41.817"/>
		<rect x="15.673" y="24.298" fill="#FFFFFF" width="1.052" height="41.817"/>
		<rect x="17.677" y="24.298" fill="#FFFFFF" width="1.053" height="41.817"/>
	</g>
	<path fill="#70AFB2" d="M20.731,24.854H3.614c-0.222,0-0.389-0.17-0.389-0.391l0,0c0-0.218,0.166-0.384,0.389-0.384h17.063
		c0.222,0,0.393,0.165,0.393,0.384l0,0C21.069,24.684,20.846,24.854,20.731,24.854z"/>
	<path fill="#70AFB2" d="M20.731,29.607H3.614c-0.222,0-0.389-0.169-0.389-0.389l0,0c0-0.221,0.166-0.387,0.389-0.387h17.063
		c0.222,0,0.393,0.167,0.393,0.387l0,0C21.069,29.438,20.846,29.607,20.731,29.607z"/>
	<path fill="#70AFB2" d="M20.731,34.193H3.614c-0.222,0-0.389-0.166-0.389-0.386l0,0c0-0.222,0.166-0.387,0.389-0.387h17.063
		c0.222,0,0.393,0.165,0.393,0.387l0,0C21.069,34.027,20.846,34.193,20.731,34.193z"/>
	<path fill="#70AFB2" d="M20.731,43.422H3.614c-0.222,0-0.389-0.168-0.389-0.39l0,0c0-0.216,0.166-0.386,0.389-0.386h17.063
		c0.222,0,0.393,0.168,0.393,0.386l0,0C21.069,43.191,20.846,43.422,20.731,43.422z"/>
	<path fill="#70AFB2" d="M20.731,47.946H3.614c-0.222,0-0.389-0.169-0.389-0.389l0,0c0-0.216,0.166-0.385,0.389-0.385h17.063
		c0.222,0,0.393,0.169,0.393,0.385l0,0C21.069,47.777,20.846,47.946,20.731,47.946z"/>
	<path fill="#70AFB2" d="M20.731,52.532H3.614c-0.222,0-0.389-0.164-0.389-0.383l0,0c0-0.221,0.166-0.394,0.389-0.394h17.063
		c0.222,0,0.393,0.173,0.393,0.394l0,0C21.069,52.368,20.846,52.532,20.731,52.532z"/>
	<path fill="#70AFB2" d="M20.731,57.122H3.614c-0.222,0-0.389-0.175-0.389-0.396l0,0c0-0.216,0.166-0.385,0.389-0.385h17.063
		c0.222,0,0.393,0.169,0.393,0.385l0,0C21.069,57.005,20.846,57.122,20.731,57.122z"/>
	<path fill="#70AFB2" d="M20.731,61.647H3.614c-0.222,0-0.389-0.176-0.389-0.396l0,0c0-0.215,0.166-0.384,0.389-0.384h17.063
		c0.222,0,0.393,0.169,0.393,0.384l0,0C21.069,61.538,20.846,61.647,20.731,61.647z"/>
	<path fill="#70AFB2" d="M20.731,66.283H3.614c-0.222,0-0.389-0.168-0.389-0.389l0,0c0-0.221,0.166-0.385,0.389-0.385h17.063
		c0.222,0,0.393,0.164,0.393,0.385l0,0C21.069,66.115,20.846,66.283,20.731,66.283z"/>
	<path fill="#70AFB2" d="M20.731,38.769H3.614c-0.222,0-0.389-0.16-0.389-0.376l0,0c0-0.229,0.166-0.389,0.389-0.389h17.063
		c0.222,0,0.393,0.159,0.393,0.389l0,0C21.069,38.665,20.846,38.769,20.731,38.769z"/>
	<path fill="#4A4B58" d="M24,75.239C24,75.624,23.948,76,23.889,76H0.111C0.042,76,0,75.681,0,75.239l0,0
		c0-0.396,0.052-0.722,0.111-0.722h23.778C23.958,74.518,24,74.844,24,75.239L24,75.239z"/>
</g>
</svg>
