<?xml version="1.0" encoding="utf-8"?>
<!-- Generator: Adobe Illustrator 16.0.0, SVG Export Plug-In . SVG Version: 6.00 Build 0)  -->
<!DOCTYPE svg PUBLIC "-//W3C//DTD SVG 1.1//EN" "http://www.w3.org/Graphics/SVG/1.1/DTD/svg11.dtd">
<svg version="1.1"
	 id="svg2" xmlns:dc="http://purl.org/dc/elements/1.1/" xmlns:cc="http://creativecommons.org/ns#" xmlns:rdf="http://www.w3.org/1999/02/22-rdf-syntax-ns#" xmlns:svg="http://www.w3.org/2000/svg"
	 xmlns="http://www.w3.org/2000/svg" xmlns:xlink="http://www.w3.org/1999/xlink" x="0px" y="0px" width="76px" height="37px"
	 viewBox="0 0 76 37" enable-background="new 0 0 76 37" xml:space="preserve">
<g id="g12" transform="scale(0.1,0.1)">
	<path id="path22" fill="#087BBB" d="M0,185.337L229.712,0h530.293L569.946,185.337H0"/>
	<path id="path24" fill="none" stroke="#FFFFFF" stroke-width="3.9999" d="M0,185.337L229.712,0h530.293L569.946,185.337H0z"/>
	<path id="path26" fill="#087BBB" d="M569.946,369.594l190.059-204.746V0.342L569.946,185.337V369.594"/>
	<path id="path28" fill="none" stroke="#FFFFFF" stroke-width="3.9999" d="M569.946,369.594l190.059-204.746V0.342L569.946,185.337
		V369.594z"/>
	<path id="path30" fill="#087BBB" d="M0.767,370.005h569.18V185.337H0.767V370.005z"/>
	<path id="path32" fill="none" stroke="#FFFFFF" stroke-width="3.9999" d="M0.767,370.005h569.18V185.337H0.767V370.005z"/>
	<path id="path34" fill="#FFFFFF" d="M310.864,287.759l-222.549,0.078v-27.266l222.549-0.059l0.059-42.246l98.809,55.742
		l-98.809,56.055L310.864,287.759"/>
	<path id="path36" fill="none" stroke="#FFFFFF" stroke-width="3.983" d="M310.864,287.759l-222.549,0.078v-27.266l222.549-0.059
		l0.059-42.246l98.809,55.742l-98.809,56.055L310.864,287.759z"/>
	<path id="path38" fill="#FFFFFF" d="M112.778,260.591l-0.049-42.265l-98.96,56.074l98.96,55.742l0.049-42.305"/>
	<path id="path40" fill="none" stroke="#FFFFFF" stroke-width="3.983" d="M112.778,260.591l-0.049-42.265l-98.96,56.074
		l98.96,55.742l0.049-42.305"/>
	<path id="path42" fill="#FFFFFF" d="M545.356,260.591l-0.059-42.265l-99.102,56.074l99.102,55.742l0.059-42.305V260.591"/>
	<path id="path44" fill="none" stroke="#FFFFFF" stroke-width="3.983" d="M545.356,260.591l-0.059-42.265l-99.102,56.074
		l99.102,55.742l0.059-42.305V260.591z"/>
</g>
</svg>
