<?xml version="1.0" encoding="utf-8"?>
<!-- Generator: Adobe Illustrator 16.0.0, SVG Export Plug-In . SVG Version: 6.00 Build 0)  -->
<!DOCTYPE svg PUBLIC "-//W3C//DTD SVG 1.1//EN" "http://www.w3.org/Graphics/SVG/1.1/DTD/svg11.dtd">
<svg version="1.1"
	 id="图层_1" xmlns:dc="http://purl.org/dc/elements/1.1/" xmlns:cc="http://creativecommons.org/ns#" xmlns:rdf="http://www.w3.org/1999/02/22-rdf-syntax-ns#"
	 xmlns="http://www.w3.org/2000/svg" xmlns:xlink="http://www.w3.org/1999/xlink" x="0px" y="0px" width="75px" height="75px"
	 viewBox="0 0 75 75" enable-background="new 0 0 75 75" xml:space="preserve">
<path fill="#00BCF2" d="M27.589,1.254c-14.897,0-26.983,3.913-27.451,8.761H0.069v54.249C0.045,64.418,0,64.589,0,64.744
	c0,0.099,0.06,0.18,0.069,0.275c0.468,4.85,12.554,8.727,27.451,8.727c4.811,0,9.302-0.388,13.228-1.1
	c-5.567-1.259-9.253-3.331-9.483-5.703c-0.006-0.076-0.068-0.162-0.068-0.24c0-0.125,0.05-0.255,0.068-0.378V22.968h0.035
	c0.375-3.874,10.018-6.975,21.919-6.975c0.641,0,1.265,0.018,1.89,0.035v-6.013h-0.068C54.573,5.167,42.487,1.254,27.589,1.254z
	 M25.802,5.48c0.703-0.02,1.409,0,2.13,0c11.549,0,20.889,2.532,20.889,5.634c0,3.104-9.34,5.634-20.889,5.634
	c-11.548,0-20.923-2.53-20.923-5.634C7.009,8.206,15.259,5.77,25.802,5.48z M53.459,16.68c-11.662,0-21.106,3.042-21.473,6.837
	h-0.069v42.464c-0.018,0.12-0.034,0.257-0.034,0.378c0,0.076,0.028,0.165,0.034,0.24c0.366,3.797,9.811,6.837,21.473,6.837
	c11.663,0,21.142-3.04,21.507-6.837H75V23.517h-0.068C74.566,19.722,65.121,16.68,53.459,16.68L53.459,16.68z M53.734,19.978
	c9.041,0,16.354,1.969,16.354,4.398c0,2.43-7.313,4.432-16.354,4.432c-9.04,0-16.388-2.002-16.388-4.432
	C37.346,21.948,44.694,19.978,53.734,19.978z M62.186,32.209L52.36,48.563l9.826-0.103L44.114,67.493l7.662-15.46h-7.662
	L62.186,32.209L62.186,32.209z"/>
</svg>
