<?xml version="1.0" encoding="utf-8"?>
<!-- Generator: Adobe Illustrator 16.0.0, SVG Export Plug-In . SVG Version: 6.00 Build 0)  -->
<!DOCTYPE svg PUBLIC "-//W3C//DTD SVG 1.1//EN" "http://www.w3.org/Graphics/SVG/1.1/DTD/svg11.dtd">
<svg version="1.1"
	 id="svg2" xmlns:dc="http://purl.org/dc/elements/1.1/" xmlns:cc="http://creativecommons.org/ns#" xmlns:rdf="http://www.w3.org/1999/02/22-rdf-syntax-ns#" xmlns:svg="http://www.w3.org/2000/svg"
	 xmlns="http://www.w3.org/2000/svg" xmlns:xlink="http://www.w3.org/1999/xlink" x="0px" y="0px" width="79px" height="42px"
	 viewBox="0 0 79 42" enable-background="new 0 0 79 42" xml:space="preserve">
<g id="g12" transform="scale(0.1,0.1)">
	<path id="path14" fill="#02709F" d="M790,386.279V0l-38.594,34.023V420L790,386.279"/>
	<path id="path16" fill="none" stroke="#FFFFFF" stroke-width="3.9999" d="M790,386.279V0l-38.594,34.023V420L790,386.279z"/>
	<path id="path18" fill="#02709F" d="M0,419.639h750.596V34.766H0V419.639L0,419.639z"/>
	<path id="path20" fill="none" stroke="#FFFFFF" stroke-width="3.9999" d="M0,419.639h750.596V34.766H0V419.639L0,419.639z"/>
	<path id="path22" fill="#02709F" d="M790,0.254H39.399L0,34.775h750.596L790,0.254"/>
	<path id="path24" fill="none" stroke="#FFFFFF" stroke-width="3.9999" d="M790,0.254H39.399L0,34.775h750.596L790,0.254z"/>
	<path id="path26" fill="#02709F" d="M790,0.254l-39.404,34.521"/>
	<path id="path28" fill="none" stroke="#FFFFFF" stroke-width="3.9999" d="M790,0.254l-39.404,34.521"/>
	<path id="path30" fill="none" stroke="#FFFFFF" stroke-width="3.9999" d="M439.697,103.384l39.404-34.521
		c139.473,163.34,32.256,290.532,32.256,290.532h184.609"/>
	<path id="path32" fill="none" stroke="#FFFFFF" stroke-width="3.9999" d="M141.479,99.277L101.895,64.6l7.559,294.795H24.287"/>
	<path id="path34" fill="#02709F" d="M141.479,143.521c0-38.647,39.839-44.243,39.839-44.243s198.926,0,235.967,0
		c48.496,0,47.041,45.737,47.041,45.737s0,164.429,0,191.597c0,27.197-37.061,38.467-37.061,38.467s-206.138,0-240.215,0
		c-34.268,0-45.571-35.703-45.571-35.703V143.521"/>
	<path id="path36" fill="none" stroke="#FFFFFF" stroke-width="3.9999" d="M141.479,143.521c0-38.647,39.839-44.243,39.839-44.243
		s198.926,0,235.967,0c48.496,0,47.041,45.737,47.041,45.737s0,164.429,0,191.597c0,27.197-37.061,38.467-37.061,38.467
		s-206.138,0-240.215,0c-34.268,0-45.571-35.703-45.571-35.703V143.521L141.479,143.521z"/>
	<path id="path38" fill="#02709F" d="M695.967,117.539H511.357"/>
	<path id="path40" fill="none" stroke="#FFFFFF" stroke-width="3.9999" d="M695.967,117.539H511.357"/>
	<path id="path42" fill="#02709F" d="M109.453,117.539H24.287"/>
	<path id="path44" fill="none" stroke="#FFFFFF" stroke-width="3.9999" d="M109.453,117.539H24.287"/>
	<path id="path46" fill="none" stroke="#FFFFFF" stroke-width="3.9999" d="M101.895,64.6h359.648"/>
</g>
</svg>
