<?xml version="1.0" encoding="utf-8"?>
<!-- Generator: Adobe Illustrator 16.0.0, SVG Export Plug-In . SVG Version: 6.00 Build 0)  -->
<!DOCTYPE svg PUBLIC "-//W3C//DTD SVG 1.1//EN" "http://www.w3.org/Graphics/SVG/1.1/DTD/svg11.dtd">
<svg version="1.1"
	 id="svg2" xmlns:dc="http://purl.org/dc/elements/1.1/" xmlns:cc="http://creativecommons.org/ns#" xmlns:rdf="http://www.w3.org/1999/02/22-rdf-syntax-ns#" xmlns:svg="http://www.w3.org/2000/svg"
	 xmlns="http://www.w3.org/2000/svg" xmlns:xlink="http://www.w3.org/1999/xlink" x="0px" y="0px" width="75px" height="75px"
	 viewBox="0 0 75 75" enable-background="new 0 0 75 75" xml:space="preserve">
<g id="g12" transform="scale(0.1,0.1)">
	<path id="path14" d="M1.123,144.98c0,79.966,167.554,144.946,374.448,144.946c206.768,0,374.424-64.98,374.424-144.946v460.044
		c0,80-167.656,144.98-374.424,144.98c-206.895,0-374.448-64.98-374.448-144.98V144.98"/>
	<path id="path16" fill="none" stroke="#FFFFFF" stroke-width="4" d="M1.123,144.98c0,79.966,167.554,144.946,374.448,144.946
		c206.768,0,374.424-64.98,374.424-144.946v460.044c0,80-167.656,144.98-374.424,144.98c-206.895,0-374.448-64.98-374.448-144.98
		V144.98z"/>
	<path id="path18" fill="#087BBB" d="M748.745,144.98c0,79.966-167.695,144.946-374.434,144.946C167.544,289.927,0,224.946,0,144.98
		v460.044c0,80,167.544,144.98,374.312,144.98c206.738,0,374.434-64.98,374.434-144.98V144.98"/>
	<path id="path20" fill="none" stroke="#FFFFFF" stroke-width="4" d="M748.745,144.98c0,79.966-167.695,144.946-374.434,144.946
		C167.544,289.927,0,224.946,0,144.98v460.044c0,80,167.544,144.98,374.312,144.98c206.738,0,374.434-64.98,374.434-144.98V144.98z"
		/>
	<path id="path22" fill="#087BBB" d="M374.312,289.927c206.738,0,374.434-64.98,374.434-144.946C748.745,64.863,581.05,0,374.312,0
		C167.544,0,0,64.863,0,144.98C0,224.946,167.544,289.927,374.312,289.927"/>
	<path id="path24" fill="none" stroke="#FFFFFF" stroke-width="4" d="M374.312,289.927c206.738,0,374.434-64.98,374.434-144.946
		C748.745,64.863,581.05,0,374.312,0C167.544,0,0,64.863,0,144.98C0,224.946,167.544,289.927,374.312,289.927z"/>
	<path id="path26" fill="#FFFFFF" d="M294.116,83.203l31.055,46.177l-116.934,26.973l25.483-21.216L53.076,104.409L98.369,70.61
		L272.71,99.98L294.116,83.203"/>
	<path id="path28" fill="#FFFFFF" d="M458.726,195.21l-21.191-47.583l105.371-20.952l-18.066,16.235l175.527,29.937l-42.109,33.613
		l-174.57-32.759L458.726,195.21"/>
	<path id="path30" fill="#FFFFFF" d="M400.894,58.12l118.223-32.197l1.445,50.298l-29.492-5.552l-57.832,47.588l-54.922-8.003
		l59.668-46.543L400.894,58.12"/>
	<path id="path32" fill="#FFFFFF" d="M350.366,238.657l-112.383,20.947l-4.277-51.855l32.363,7.114l61.846-52.651l54.932,9.194
		l-66.113,57.427L350.366,238.657"/>
	<path id="path34" fill="#FFFFFF" d="M299.409,563.012h140.156V423.325H299.409V563.012z"/>
	<path id="path36" fill="none" stroke="#000000" stroke-width="4" d="M299.409,563.012h140.156V423.325H299.409V563.012z"/>
	<path id="path38" fill="#FFFFFF" d="M205.308,324.429l0.024,57.881l-105.537,0.059l-0.024-57.871L205.308,324.429"/>
	<path id="path40" fill="none" stroke="#000000" stroke-width="4" d="M205.308,324.429l0.024,57.881l-105.537,0.059l-0.024-57.871
		L205.308,324.429z"/>
	<path id="path42" fill="#FFFFFF" d="M205.308,469.243l0.024,57.891l-105.537,0.059l-0.024-57.871L205.308,469.243"/>
	<path id="path44" fill="none" stroke="#000000" stroke-width="4" d="M205.308,469.243l0.024,57.891l-105.537,0.059l-0.024-57.871
		L205.308,469.243z"/>
	<path id="path46" fill="#FFFFFF" d="M205.308,605.552l0.024,57.891l-105.537,0.02l-0.024-57.832L205.308,605.552"/>
	<path id="path48" fill="none" stroke="#000000" stroke-width="4" d="M205.308,605.552l0.024,57.891l-105.537,0.02l-0.024-57.832
		L205.308,605.552z"/>
	<path id="path50" fill="#FFFFFF" d="M422.554,605.552l0.02,57.891l-105.684,0.02l-0.029-57.832L422.554,605.552"/>
	<path id="path52" fill="none" stroke="#000000" stroke-width="4" d="M422.554,605.552l0.02,57.891l-105.684,0.02l-0.029-57.832
		L422.554,605.552z"/>
	<path id="path54" fill="#FFFFFF" d="M646.362,324.429l0.02,57.881l-105.391,0.059l-0.293-57.871L646.362,324.429"/>
	<path id="path56" fill="none" stroke="#000000" stroke-width="4" d="M646.362,324.429l0.02,57.881l-105.391,0.059l-0.293-57.871
		L646.362,324.429z"/>
	<path id="path58" fill="#FFFFFF" d="M422.554,324.429l0.02,57.881l-105.684,0.059l-0.029-57.871L422.554,324.429"/>
	<path id="path60" fill="none" stroke="#000000" stroke-width="4" d="M422.554,324.429l0.02,57.881l-105.684,0.059l-0.029-57.871
		L422.554,324.429z"/>
	<path id="path62" fill="#FFFFFF" d="M646.362,469.243l0.02,57.891l-105.391,0.059l-0.293-57.871L646.362,469.243"/>
	<path id="path64" fill="none" stroke="#000000" stroke-width="4" d="M646.362,469.243l0.02,57.891l-105.391,0.059l-0.293-57.871
		L646.362,469.243z"/>
	<path id="path66" fill="#FFFFFF" d="M646.362,605.552l0.02,57.891l-105.391,0.02l-0.293-57.832L646.362,605.552"/>
	<path id="path68" fill="none" stroke="#000000" stroke-width="4" d="M646.362,605.552l0.02,57.891l-105.391,0.02l-0.293-57.832
		L646.362,605.552z"/>
	<path id="path70" fill="none" stroke="#FFFFFF" stroke-width="8" d="M155.015,494.946H592.71"/>
	<path id="path72" fill="none" stroke="#FFFFFF" stroke-width="8" d="M368.745,363.178v273.428"/>
	<path id="path74" fill="none" stroke="#FFFFFF" stroke-width="8" d="M172.891,636.606l404.468-281.054"/>
	<path id="path76" fill="none" stroke="#FFFFFF" stroke-width="8" d="M569.839,636.606L165.234,355.552"/>
</g>
</svg>
