<?xml version="1.0" encoding="utf-8"?>
<!-- Generator: Adobe Illustrator 16.0.0, SVG Export Plug-In . SVG Version: 6.00 Build 0)  -->
<!DOCTYPE svg PUBLIC "-//W3C//DTD SVG 1.1//EN" "http://www.w3.org/Graphics/SVG/1.1/DTD/svg11.dtd">
<svg version="1.1" id="图层_1" xmlns="http://www.w3.org/2000/svg" xmlns:xlink="http://www.w3.org/1999/xlink" x="0px" y="0px"
	 width="512px" height="512px" viewBox="0 0 512 512" enable-background="new 0 0 512 512" xml:space="preserve">
<g>
	<path fill="#38C4F5" d="M499.305,102.089c-10.842-62.465-25.834-77.347-89.15-88.423c-40.313-7.05-97.223-11.09-156.094-11.09
		c-58.359,0-112.336,3.809-151.978,10.688C39.622,24.12,24.74,39.111,13.68,102.416c-14.664,83.819-14.885,224.891-0.484,308.038
		c10.826,62.465,25.818,77.329,89.154,88.423C142.751,505.942,199.772,510,258.786,510c58.219,0,112.086-3.776,151.679-10.641
		c62.479-10.856,77.36-25.852,88.405-89.17C513.534,326.339,513.738,185.252,499.305,102.089 M483.488,407.521
		c-9.921,56.753-19.827,66.769-75.725,76.485c-38.721,6.709-91.636,10.392-148.994,10.392c-58.144,0-114.176-3.963-153.737-10.873
		c-56.784-9.952-66.799-19.874-76.471-75.724C14.412,326.105,14.627,187.484,29.042,105.1c9.922-56.737,19.828-66.753,75.707-76.456
		c38.797-6.739,91.809-10.452,149.311-10.452c57.999,0,113.927,3.962,153.394,10.858c56.737,9.937,66.752,19.843,76.471,75.722
		C498.105,186.485,497.903,325.122,483.488,407.521"/>
	<path fill="#38C4F5" d="M336.846,207.199l-16.935,1.987l34.322,34.583l25.41-41.592l-20.307,2.383
		c-0.147-2.778-0.863-6.259-2.205-10.662c-13.066-37.56-51.885-64.711-98.115-67.388c-56.101-3.246-101.124,30.945-107.49,80.423
		c-5.068,1.042-8.966,2.272-11.319,2.866c-39.11,9.868-52.933,46.021-52.933,71.186c0,50.471,33.339,88.539,86.402,88.539
		c5.576,0,10.11-4.521,10.11-10.098s-4.534-10.109-10.11-10.109c-41.547,0-66.208-29.379-66.208-68.333
		c0-18.109,19.216-57.773,60.906-55.552c18.251,0.974,32.402,9.739,44.887,26.089l-14.461,13.041l48.009,8.346l-3.342-48.627
		l-13.371,12.059c-18.943-21.771-38.436-29.193-54.61-30.799c6.826-36.476,40.625-61.286,82.364-58.868
		C297.17,148.948,329.636,173.815,336.846,207.199"/>
	<path fill="#38C4F5" d="M396.315,215.869c-4.169-3.693-10.554-3.329-14.228,0.834c-3.687,4.156-3.283,10.546,0.893,14.24
		c31.11,27.542,35.182,70.221,9.457,99.274c-22.141,25.026-58.043,31.644-87.696,16.306l8.422-19.699l-47.084,12.571l23.437,42.739
		l7.411-17.334c1.833,1.068,4.034,2.172,6.653,3.336c36.159,14.585,77.681,5.192,103.984-24.532
		C440.884,305.965,436.057,251.045,396.315,215.869"/>
</g>
</svg>
