<?xml version="1.0" encoding="utf-8"?>
<!-- Generator: Adobe Illustrator 16.0.0, SVG Export Plug-In . SVG Version: 6.00 Build 0)  -->
<!DOCTYPE svg PUBLIC "-//W3C//DTD SVG 1.1//EN" "http://www.w3.org/Graphics/SVG/1.1/DTD/svg11.dtd">
<svg version="1.1"
	 id="svg2" xmlns:dc="http://purl.org/dc/elements/1.1/" xmlns:cc="http://creativecommons.org/ns#" xmlns:rdf="http://www.w3.org/1999/02/22-rdf-syntax-ns#" xmlns:svg="http://www.w3.org/2000/svg"
	 xmlns="http://www.w3.org/2000/svg" xmlns:xlink="http://www.w3.org/1999/xlink" x="0px" y="0px" width="76px" height="37px"
	 viewBox="0 0 76 37" enable-background="new 0 0 76 37" xml:space="preserve">
<g id="g12" transform="scale(0.1,0.1)">
	<path id="path22" fill="#087BBB" d="M0,185.386L229.702-0.005h530.293L569.937,185.386H0"/>
	<path id="path24" fill="none" stroke="#FFFFFF" stroke-width="3.9999" d="M0,185.386L229.702-0.005h530.293L569.937,185.386H0z"/>
	<path id="path26" fill="#087BBB" d="M569.937,369.712l190.059-204.892V-0.005L569.937,185.386V369.712"/>
	<path id="path28" fill="none" stroke="#FFFFFF" stroke-width="3.9999" d="M569.937,369.712l190.059-204.892V-0.005L569.937,185.386
		V369.712z"/>
	<path id="path30" fill="#087BBB" d="M0.767,369.995h569.17V185.386H0.767V369.995z"/>
	<path id="path32" fill="none" stroke="#FFFFFF" stroke-width="3.9999" d="M0.767,369.995h569.17V185.386H0.767V369.995z"/>
	<path id="path34" fill="#087BBB" d="M485.991,28.12c-133.008-5.454-284.79,21.294-339.067,59.761
		c-54.268,38.457,9.419,74.028,142.417,79.39c132.92,5.459,284.619-21.289,339.053-59.761
		C682.671,69.053,618.901,33.486,485.991,28.12"/>
	<path id="path36" fill="none" stroke="#FFFFFF" stroke-width="3.9999" d="M485.991,28.12
		c-133.008-5.454-284.79,21.294-339.067,59.761c-54.268,38.457,9.419,74.028,142.417,79.39
		c132.92,5.459,284.619-21.289,339.053-59.761C682.671,69.053,618.901,33.486,485.991,28.12z"/>
	<path id="path38" fill="#087BBB" d="M462.202,57.231C353.179,53.818,231.055,69.57,189.39,92.324
		c-41.611,22.822,13.081,44.067,122.031,47.495c109.121,3.418,231.152-12.256,272.734-35.015
		C625.776,81.973,571.226,60.732,462.202,57.231"/>
	<path id="path40" fill="none" stroke="#FFFFFF" stroke-width="3.9999" d="M462.202,57.231
		C353.179,53.818,231.055,69.57,189.39,92.324c-41.611,22.822,13.081,44.067,122.031,47.495
		c109.121,3.418,231.152-12.256,272.734-35.015C625.776,81.973,571.226,60.732,462.202,57.231z"/>
</g>
</svg>
