<?xml version="1.0" encoding="utf-8"?>
<!-- Generator: Adobe Illustrator 16.0.0, SVG Export Plug-In . SVG Version: 6.00 Build 0)  -->
<!DOCTYPE svg PUBLIC "-//W3C//DTD SVG 1.1//EN" "http://www.w3.org/Graphics/SVG/1.1/DTD/svg11.dtd">
<svg version="1.1"
	 id="svg2" xmlns:dc="http://purl.org/dc/elements/1.1/" xmlns:cc="http://creativecommons.org/ns#" xmlns:rdf="http://www.w3.org/1999/02/22-rdf-syntax-ns#" xmlns:svg="http://www.w3.org/2000/svg"
	 xmlns="http://www.w3.org/2000/svg" xmlns:xlink="http://www.w3.org/1999/xlink" x="0px" y="0px" width="77px" height="50px"
	 viewBox="0 0 77 50" enable-background="new 0 0 77 50" xml:space="preserve">
<g id="g12" transform="scale(0.1,0.1)">
	<path id="path22" fill="#087BBB" d="M0.72,495.722h589.326V175.64H0.72V495.722z"/>
	<path id="path24" fill="none" stroke="#FFFFFF" stroke-width="3.9999" d="M0.72,175.64v320.083h589.326V175.64"/>
	<path id="path26" fill="#FFFFFF" d="M369.226,316.22c0,11.064-29.414,20.01-65.791,20.01c-36.387,0-65.806-8.945-65.806-20.01
		v82.383c0,11.074,29.419,19.814,65.806,19.814c36.377,0,65.791-8.74,65.791-19.814V316.22"/>
	<path id="path28" fill="#087BBB" d="M303.367,336.23c36.387,0,65.801-8.945,65.801-20.01c0-10.879-29.414-19.804-65.801-19.804
		c-36.382,0-65.806,8.926-65.806,19.804C237.561,327.285,266.985,336.23,303.367,336.23"/>
	<path id="path30" fill="none" stroke="#FFFFFF" stroke-width="8" d="M303.367,336.23c36.387,0,65.801-8.945,65.801-20.01
		c0-10.879-29.414-19.804-65.801-19.804c-36.382,0-65.806,8.926-65.806,19.804C237.561,327.285,266.985,336.23,303.367,336.23z"/>
	<path id="path32" fill="#FFFFFF" d="M303.435,428.174c36.377,0,65.791-8.721,65.791-19.775c0-11.084-29.414-20.02-65.791-20.02
		c-36.387,0-65.806,8.936-65.806,20.02C237.629,419.453,267.048,428.174,303.435,428.174"/>
	<path id="path34" fill="none" stroke="#FFFFFF" stroke-width="8" d="M303.435,428.174c36.377,0,65.791-8.721,65.791-19.775
		c0-11.084-29.414-20.02-65.791-20.02c-36.387,0-65.806,8.936-65.806,20.02C237.629,419.453,267.048,428.174,303.435,428.174z"/>
	<path id="path36" fill="#087BBB" d="M-0.002,175.64L217.566,0h552.432L590.046,175.64H-0.002"/>
	<path id="path38" fill="none" stroke="#FFFFFF" stroke-width="3.9999" d="M-0.002,175.64L217.566,0h552.432L590.046,175.64H-0.002z
		"/>
	<path id="path40" fill="#087BBB" d="M590.046,179.902V500l179.951-188.613V4.614L590.046,179.902"/>
	<path id="path42" fill="none" stroke="#FFFFFF" stroke-width="3.9999" d="M590.046,179.902V500l179.951-188.613V4.614
		L590.046,179.902z"/>
	<path id="path44" fill="#FFFFFF" d="M512.273,349.638l-107.725,0.039v-17.158l107.725-0.029l0.02-26.806l62.422,35.273
		l-62.422,35.293L512.273,349.638"/>
	<path id="path46" fill="#FFFFFF" d="M493.826,263.379l-90.547,58.652l-9.248-14.316l90.322-58.769l-14.473-22.334l71.572-4.404
		l-33.096,63.613L493.826,263.379"/>
	<path id="path48" fill="#FFFFFF" d="M493.826,417.568l-90.547-58.643l-9.248,14.326l90.322,58.652l-14.473,22.441l71.572,4.404
		l-33.096-63.623L493.826,417.568"/>
	<path id="path50" fill="#FFFFFF" d="M82.073,349.638l107.813,0.039v-17.158L82.073,332.49l-0.039-26.806l-62.422,35.273
		l62.422,35.293L82.073,349.638"/>
	<path id="path52" fill="#FFFFFF" d="M310.125,214.434l0.039-38.628h-17.168l-0.059,38.628l-26.743,0.039l35.337,62.412
		l35.371-62.412L310.125,214.434"/>
	<path id="path54" fill="#FFFFFF" d="M100.71,263.379l90.342,58.652l9.326-14.316l-90.308-58.769l14.478-22.334l-71.567-4.404
		l33.12,63.613L100.71,263.379"/>
	<path id="path56" fill="#FFFFFF" d="M100.71,417.568l90.342-58.643l9.326,14.326l-90.308,58.652l14.478,22.441l-71.567,4.404
		l33.12-63.623L100.71,417.568"/>
</g>
</svg>
