<?xml version="1.0" encoding="utf-8"?>
<!-- Generator: Adobe Illustrator 16.0.0, SVG Export Plug-In . SVG Version: 6.00 Build 0)  -->
<!DOCTYPE svg PUBLIC "-//W3C//DTD SVG 1.1//EN" "http://www.w3.org/Graphics/SVG/1.1/DTD/svg11.dtd">
<svg version="1.1"
	 id="图层_1" xmlns:dc="http://purl.org/dc/elements/1.1/" xmlns:cc="http://creativecommons.org/ns#" xmlns:rdf="http://www.w3.org/1999/02/22-rdf-syntax-ns#"
	 xmlns="http://www.w3.org/2000/svg" xmlns:xlink="http://www.w3.org/1999/xlink" x="0px" y="0px" width="75px" height="51px"
	 viewBox="0 0 75 51" enable-background="new 0 0 75 51" xml:space="preserve">
<path fill="#00BCF2" d="M12.4,50.813c-3.042-0.515-5.523-1.775-7.84-3.987C0.522,42.973-1.023,36.91,0.69,31.657
	c1.323-4.058,4.136-7.25,7.986-9.069c0.923-0.435,0.927-0.44,0.839-0.955c-0.463-2.695-0.398-4.536,0.233-6.603
	c0.419-1.374,1.479-3.325,2.377-4.379c2.577-3.027,5.793-4.526,9.67-4.508c3.452,0.016,6.126,1.114,8.771,3.602l0.749,0.706
	l0.356-0.769c1.559-3.368,5.061-6.809,8.565-8.416c1.589-0.729,4.084-1.47,4.084-1.213c0,0.024-1.957,5.269-4.35,11.657
	c-2.491,6.65-4.331,11.77-4.307,11.98l0.043,0.369l4.048,0.074c2.228,0.04,4.132,0.125,4.233,0.192
	c0.101,0.063,0.184,0.248,0.184,0.403c0,0.157-1.597,4.173-3.549,8.927c-4.298,10.471-4.144,10.077-3.983,10.016
	c0.153-0.062,23.653-26.815,23.986-27.31c0.199-0.295,0.202-0.363,0.023-0.478c-0.123-0.078-2.139-0.094-4.852-0.039
	c-4.782,0.099-5.297,0.053-5.297-0.475c0-0.278,7.207-12.418,7.372-12.418c0.212,0,1.792,1.384,2.792,2.445
	c2.299,2.442,3.896,5.679,4.48,9.082c0.279,1.633,0.281,4.354,0.002,5.901c-0.267,1.467-0.269,1.691-0.022,1.691
	c0.385,0,3.128,1.439,3.998,2.098c2.655,2.006,4.674,4.992,5.544,8.197c0.295,1.089,0.337,1.585,0.332,3.824
	c-0.007,2.358-0.04,2.686-0.402,3.897c-1.582,5.277-5.41,9.037-10.682,10.493l-1.414,0.393l-24.438,0.022
	C17.649,51.015,13.423,50.984,12.4,50.813L12.4,50.813z"/>
</svg>
