<?xml version="1.0" encoding="utf-8"?>
<!-- Generator: Adobe Illustrator 16.0.0, SVG Export Plug-In . SVG Version: 6.00 Build 0)  -->
<!DOCTYPE svg PUBLIC "-//W3C//DTD SVG 1.1//EN" "http://www.w3.org/Graphics/SVG/1.1/DTD/svg11.dtd">
<svg version="1.1" id="图层_1" xmlns="http://www.w3.org/2000/svg" xmlns:xlink="http://www.w3.org/1999/xlink" x="0px" y="0px"
	 width="512px" height="512px" viewBox="0 0 512 512" enable-background="new 0 0 512 512" xml:space="preserve">
<g>
	<path fill="#C8F280" d="M258.525,509.706h-0.009c-59.002,0-116.024-4.052-156.434-11.121
		c-63.337-11.091-78.335-25.959-89.152-88.42c-14.404-83.149-14.183-224.212,0.48-308.031c11.06-63.299,25.937-78.297,88.405-89.152
		c39.64-6.886,93.615-10.687,151.978-10.687c58.881,0,115.781,4.045,156.091,11.098c63.314,11.083,78.306,25.959,89.152,88.42
		c14.427,83.164,14.229,224.258-0.442,308.092c-11.045,63.313-25.929,78.305-88.404,89.167
		C370.612,505.928,316.743,509.706,258.525,509.706 M253.795,17.894c-57.495,0-110.518,3.717-149.312,10.458
		c-55.88,9.704-65.782,19.713-75.7,76.461c-14.419,82.38-14.633,220.997-0.48,302.699c9.674,55.85,19.683,65.768,76.469,75.715
		c39.564,6.916,95.596,10.877,153.745,10.877h0.009c57.364,0,110.273-3.687,149-10.39c55.895-9.72,65.797-19.729,75.715-76.492
		c14.412-82.402,14.609-221.036,0.441-302.745c-9.72-55.872-19.729-65.782-76.477-75.715
		C367.733,21.855,311.807,17.894,253.795,17.894"/>
	<path fill="#C8F280" d="M361.473,117.286c2.817,0,5.646,0.218,8.444,0.66c2.802,0.44,5.574,1.101,8.28,1.983
		c2.708,0.883,5.348,1.987,7.88,3.315c2.535,1.329,4.962,2.88,7.242,4.658c4.568,3.565,8.111,7.697,10.6,12.126
		c2.501,4.449,3.942,9.199,4.296,13.973c0.357,4.795-0.385,9.613-2.253,14.166c-1.875,4.574-4.886,8.878-9.057,12.617
		c-2.089,1.875-4.374,3.519-6.806,4.93c-2.434,1.412-5.015,2.59-7.701,3.535c-2.687,0.944-5.478,1.652-8.327,2.125
		c-2.851,0.474-5.759,0.71-8.681,0.71c-1.381,0-2.761-0.053-4.143-0.158c-1.382-0.106-2.761-0.264-4.132-0.476
		c-1.373-0.212-2.736-0.476-4.09-0.792c-1.354-0.317-2.694-0.685-4.02-1.108l-36.574,32.259c2.607,4.109,4.583,8.452,5.919,12.917
		c1.344,4.485,2.044,9.095,2.093,13.716c0.048,4.643-0.561,9.296-1.831,13.845c-1.279,4.571-3.227,9.034-5.853,13.271l39.363,34.004
		c1.516-0.61,3.062-1.143,4.635-1.597c1.569-0.456,3.164-0.836,4.775-1.14c1.609-0.303,3.24-0.53,4.877-0.683
		c1.64-0.15,3.288-0.228,4.941-0.228c3.081,0,6.175,0.264,9.24,0.791c3.065,0.526,6.104,1.317,9.068,2.371
		c2.967,1.058,5.862,2.379,8.642,3.967c2.781,1.591,5.448,3.449,7.953,5.577c5.026,4.27,8.935,9.224,11.694,14.535
		c2.771,5.335,4.387,11.035,4.813,16.764c0.428,5.759-0.346,11.547-2.358,17.019c-2.022,5.501-5.292,10.677-9.84,15.176
		c-2.281,2.257-4.775,4.234-7.433,5.933c-2.664,1.702-5.49,3.122-8.43,4.257c-2.945,1.138-6.003,1.994-9.128,2.563
		c-3.126,0.569-6.316,0.854-9.524,0.854c-3.204,0-6.426-0.284-9.61-0.854c-3.185-0.569-6.332-1.426-9.396-2.563
		c-3.059-1.136-6.036-2.555-8.875-4.257c-2.836-1.697-5.535-3.675-8.054-5.933c-4.123-3.697-7.433-7.854-9.923-12.269
		c-2.479-4.397-4.146-9.053-4.997-13.77c-0.848-4.697-0.887-9.458-0.117-14.091c0.768-4.616,2.338-9.107,4.711-13.29l-37.771-33.198
		c-2.688,1.577-5.484,2.959-8.364,4.145c-2.882,1.188-5.846,2.179-8.864,2.973c-3.022,0.792-6.098,1.388-9.201,1.786
		c-3.105,0.397-6.238,0.596-9.371,0.596c-2.63,0-5.26-0.14-7.873-0.42c-2.615-0.281-5.21-0.702-7.775-1.262
		c-2.562-0.559-5.093-1.258-7.574-2.096c-2.48-0.836-4.911-1.813-7.277-2.928l-40.53,35.747c1.533,3.956,2.418,8.098,2.658,12.294
		c0.24,4.212-0.172,8.479-1.234,12.664c-1.067,4.199-2.788,8.318-5.164,12.213c-2.385,3.908-5.427,7.589-9.124,10.904
		c-2.518,2.257-5.218,4.234-8.053,5.933c-2.841,1.702-5.816,3.122-8.875,4.257c-3.064,1.138-6.212,1.994-9.396,2.563
		c-3.186,0.568-6.405,0.854-9.613,0.854c-3.206,0-6.396-0.284-9.522-0.854c-3.123-0.569-6.182-1.426-9.126-2.563
		c-2.942-1.136-5.767-2.555-8.43-4.257c-2.658-1.697-5.15-3.675-7.432-5.933c-4.547-4.499-7.817-9.675-9.84-15.176
		c-2.012-5.472-2.788-11.26-2.36-17.019c0.426-5.728,2.04-11.429,4.814-16.764c2.76-5.311,6.667-10.266,11.694-14.535
		c2.505-2.128,5.173-3.986,7.956-5.575c2.778-1.59,5.672-2.911,8.639-3.967c2.966-1.055,6.001-1.845,9.068-2.373
		c3.064-0.526,6.157-0.789,9.238-0.789c2.167,0,4.326,0.129,6.465,0.39c2.137,0.263,4.254,0.652,6.334,1.176
		c2.081,0.52,4.125,1.173,6.117,1.956c1.994,0.782,3.934,1.698,5.809,2.745l37.008-32.074c-3.693-4.81-6.435-9.993-8.234-15.357
		c-1.791-5.337-2.649-10.848-2.586-16.343c0.061-5.466,1.033-10.915,2.903-16.16c1.861-5.218,4.613-10.237,8.246-14.875
		l-34.108-29.979c-1.725,0.78-3.491,1.462-5.288,2.048c-1.797,0.585-3.627,1.073-5.477,1.465c-1.847,0.39-3.716,0.683-5.593,0.878
		c-1.875,0.195-3.758,0.293-5.636,0.293c-2.92,0-5.827-0.237-8.677-0.71c-2.85-0.473-5.639-1.182-8.327-2.126
		c-2.686-0.942-5.268-2.122-7.703-3.535c-2.43-1.409-4.713-3.051-6.803-4.926c-4.171-3.739-7.184-8.043-9.059-12.617
		c-1.869-4.554-2.608-9.371-2.253-14.166c0.354-4.774,1.796-9.524,4.296-13.973c2.491-4.429,6.034-8.561,10.602-12.126
		c2.279-1.778,4.707-3.329,7.242-4.658c2.532-1.328,5.173-2.432,7.88-3.315c2.705-0.881,5.479-1.543,8.277-1.983
		c2.802-0.441,5.63-0.66,8.446-0.66c2.816,0,5.621,0.218,8.374,0.66c2.755,0.44,5.46,1.101,8.071,1.983
		c2.616,0.883,5.139,1.987,7.532,3.315c2.396,1.329,4.661,2.88,6.755,4.658c3.223,2.736,5.803,5.809,7.745,9.093
		c1.948,3.296,3.254,6.805,3.917,10.404c0.668,3.611,0.686,7.315,0.061,10.979c-0.627,3.677-1.905,7.315-3.833,10.786l35.568,30.724
		c2.418-1.167,4.898-2.186,7.43-3.058c2.53-0.872,5.107-1.599,7.719-2.178c2.608-0.582,5.251-1.016,7.909-1.306
		c2.658-0.29,5.334-0.434,8.007-0.434c3.146,0,6.29,0.2,9.408,0.601c3.118,0.401,6.212,1.003,9.251,1.805
		c3.044,0.803,6.031,1.808,8.939,3.015c2.911,1.207,5.741,2.619,8.466,4.235l33.445-28.988c-2.765-3.66-4.73-7.597-5.896-11.638
		c-1.161-4.022-1.527-8.143-1.098-12.188c0.427-4.028,1.644-7.979,3.648-11.683c2-3.691,4.783-7.137,8.355-10.171
		c2.094-1.778,4.356-3.329,6.753-4.658c2.393-1.328,4.917-2.432,7.532-3.315c2.612-0.881,5.317-1.543,8.07-1.983
		C355.853,117.504,358.658,117.286,361.473,117.286"/>
</g>
</svg>
