<?xml version="1.0" encoding="utf-8"?>
<!-- Generator: Adobe Illustrator 16.0.0, SVG Export Plug-In . SVG Version: 6.00 Build 0)  -->
<!DOCTYPE svg PUBLIC "-//W3C//DTD SVG 1.1//EN" "http://www.w3.org/Graphics/SVG/1.1/DTD/svg11.dtd">
<svg version="1.1" id="图层_1" xmlns="http://www.w3.org/2000/svg" xmlns:xlink="http://www.w3.org/1999/xlink" x="0px" y="0px"
	 width="512px" height="512px" viewBox="0 0 512 512" enable-background="new 0 0 512 512" xml:space="preserve">
<g>
	<path fill="#3B9CD9" d="M499.037,101.813c-10.847-62.461-25.838-77.337-89.152-88.42c-40.31-7.053-97.21-11.098-156.091-11.098
		c-58.363,0-112.338,3.801-151.978,10.687c-62.468,10.855-77.345,25.853-88.405,89.152c-14.663,83.819-14.884,224.882-0.48,308.031
		c10.817,62.461,25.815,77.329,89.152,88.42c40.409,7.069,97.431,11.121,156.434,11.121h0.009
		c58.218,0,112.087-3.778,151.665-10.634c62.476-10.862,77.359-25.854,88.404-89.167
		C513.266,326.071,513.464,184.977,499.037,101.813 M483.24,407.222c-9.918,56.764-19.82,66.772-75.715,76.492
		c-38.727,6.703-91.636,10.39-149,10.39h-0.009c-58.148,0-114.181-3.961-153.745-10.877c-56.786-9.947-66.795-19.865-76.469-75.715
		c-14.153-81.702-13.939-220.319,0.48-302.699c9.918-56.748,19.82-66.757,75.7-76.461c38.794-6.741,91.817-10.458,149.312-10.458
		c58.012,0,113.938,3.961,153.41,10.868c56.748,9.933,66.757,19.843,76.477,75.715C497.85,186.186,497.652,324.819,483.24,407.222"
		/>
	<path fill="#3B9CD9" d="M373.523,232.676c-34.322-8.228-54.781-12.631-54.781-12.631l19.562,54.749l15.656-12.631
		c0,0,16.585-4.771,27.39,4.21c11.895,9.893,19.563,17.321,19.563,37.892c0,20.3-16.249,37.893-35.218,37.893
		c-14.504,0-32.178-11.59-39.124-33.683c-6.964-22.107-31.313-96.851-31.313-96.851s-22.844-75.111-101.749-75.8
		C148.91,135.44,80.042,166.8,80.042,253.726c0,77.929,54.396,122.112,113.483,122.112c5.763,0,49.69,1.713,86.093-46.312
		l-15.656-37.893c0,0-19.338,50.538-70.437,50.538c-54.46,0-82.171-46.52-82.171-88.43s29.359-84.22,82.171-84.22
		c37.604,0,61.312,26.27,70.437,50.522c15.048,39.989,43.046,117.902,43.046,117.902s15.336,37.892,58.703,37.892
		c38.132,0,66.531-30.944,66.531-71.589C432.226,265.125,408.085,240.952,373.523,232.676"/>
</g>
</svg>
