<?xml version="1.0" encoding="utf-8"?>
<!-- Generator: Adobe Illustrator 16.0.0, SVG Export Plug-In . SVG Version: 6.00 Build 0)  -->
<!DOCTYPE svg PUBLIC "-//W3C//DTD SVG 1.1//EN" "http://www.w3.org/Graphics/SVG/1.1/DTD/svg11.dtd">
<svg version="1.1"
	 id="svg2" xmlns:dc="http://purl.org/dc/elements/1.1/" xmlns:cc="http://creativecommons.org/ns#" xmlns:rdf="http://www.w3.org/1999/02/22-rdf-syntax-ns#" xmlns:svg="http://www.w3.org/2000/svg"
	 xmlns="http://www.w3.org/2000/svg" xmlns:xlink="http://www.w3.org/1999/xlink" x="0px" y="0px" width="42px" height="75px"
	 viewBox="0 0 42 75" enable-background="new 0 0 42 75" xml:space="preserve">
<g id="g12" transform="scale(0.1,0.1)">
	<path id="path22" fill="#02709F" d="M385.33,322.285c6.514-23.447,33.555-140.752,34.482-157.07
		c1.328-16.274-4.668-36.777-13.33-40.923c0.195-5.854,0.518-9.106,0.518-9.106c-2.061-0.825-4.219-1.709-6.357-2.588l0.684,0.303
		c0,0,6.035-26.196,9.678-44.321c6.689-34.888,7.393-52.388,7.393-52.388c-0.059-4.819-1.289-9.077-5.674-10.239l-20.088-5.664
		c-4.404-1.221-7.344,1.621-10.215,5.806c0,0-7.93,16.318-18.994,49.316c-5.889,17.524-11.66,39.531-11.66,39.531l0.127,0.063
		c-11.855-3.936-24.199-7.681-36.611-11.04c-31.465-8.76-62.959-15.43-94.424-20.293c0,0-1.504,2.876-4.287,8.198
		c-9.531-1.011-25.225,13.56-32.539,28.149c-7.314,14.556-44.199,129.189-50.732,152.646
		c-6.367,23.457-18.896,83.154-24.463,112.842c-5.503,29.902-10.405,81.406-29.517,150.811
		C68.113,557.09,49.944,617.881,40.442,643.095c-2.524,6.611-22.422,40.303,6.489,51.904c28.384,11.113,70.664,23.389,92.139,29.326
		c21.279,5.889,63.926,17.139,94.199,22.051c30.674,5.078,30.762-34.063,32.119-41.055c4.57-26.621,19.98-88.057,31.465-128.906
		c19.023-69.404,41.084-116.348,51.67-144.492C359.021,403.525,378.816,345.742,385.33,322.285"/>
	<path id="path24" fill="#02709F" d="M386.902,16.758c0,0-9.463-2.72-17.5-4.932c-7.266-2.046-16.934-4.6-16.934-4.6"/>
	<path id="path26" fill="#02709F" d="M353.914,325.517c6.514-23.457,33.535-140.82,34.482-157.114
		c1.318-16.304-4.639-36.807-13.33-40.938c0.205-5.869,0.391-9.077,0.391-9.077c-1.914-0.918-4.072-1.768-6.23-2.559l0.684,0.171
		c0,0,6.025-26.123,9.658-44.307c6.68-34.873,7.402-52.446,7.402-52.446c-0.049-4.785-1.162-8.901-5.674-10.186l-20.068-5.605
		c-4.414-1.152-7.354,1.538-10.225,5.825c0,0-7.949,16.187-19.004,49.229c-5.879,17.544-11.66,39.546-11.66,39.546l0.137,0.137
		c-11.855-3.955-24.199-7.642-36.611-11.118c-31.475-8.677-62.949-15.42-94.629-20.254c0,0-1.504,2.9-4.082,8.145
		c-9.531-0.879-25.225,13.569-32.549,28.193c-7.324,14.561-44.199,129.087-50.718,152.603
		c-6.392,23.545-18.896,83.291-24.468,112.978C71.917,398.427,67,450.351,47.888,519.375
		c-11.211,40.898-29.365,101.67-38.867,126.836c-2.544,6.65-22.422,40.469,6.494,51.836c28.467,11.338,70.669,23.438,92.139,29.307
		c21.289,5.889,63.916,17.266,93.994,22.197c30.869,5.049,30.957-34.043,32.334-41.201c4.57-26.465,19.971-87.998,31.445-128.896
		c19.033-69.004,41.094-115.977,51.533-144.434C327.595,406.552,347.38,348.984,353.914,325.517"/>
	<path id="path28" fill="#02709F" d="M132.917,489.951c-3.291,11.865-15.732,19.053-27.764,15.557
		c-12.017-3.115-19.009-15.557-15.723-27.822c3.311-11.865,15.723-19.063,27.754-15.566
		C129.226,465.224,136.218,477.685,132.917,489.951"/>
	<path id="path30" fill="#02709F" d="M189.841,514.101c-3.291,11.855-15.713,19.053-27.764,15.557
		c-12.012-3.105-19.014-15.557-15.703-27.822c3.281-11.846,15.703-19.063,27.744-15.557
		C185.955,489.394,193.152,501.836,189.841,514.101"/>
	<path id="path32" fill="#02709F" d="M250.994,522.49c-3.096,12.158-15.518,19.219-27.764,15.84
		c-11.816-3.496-19.014-15.84-15.713-27.813c3.291-11.875,15.713-19.072,27.949-15.85C247.302,498.066,254.5,510.517,250.994,522.49
		"/>
	<path id="path34" fill="#02709F" d="M119.343,539.677c-3.398,11.865-15.796,19.063-27.773,15.566
		c-12.036-3.115-19.028-15.566-15.713-27.822c3.276-11.846,15.713-19.063,27.69-15.547
		C115.437,514.98,122.625,527.422,119.343,539.677"/>
	<path id="path36" fill="#02709F" d="M176.062,563.789c-3.291,11.914-15.742,19.092-27.764,15.605
		c-11.963-3.135-19.014-15.605-15.732-27.813c3.32-11.855,15.732-19.082,27.754-15.547
		C172.371,539.131,179.353,551.572,176.062,563.789"/>
	<path id="path38" fill="#02709F" d="M237.205,572.109c-3.096,12.256-15.537,19.082-27.549,15.967
		c-12.031-3.506-19.023-15.967-15.732-27.822c3.311-12.256,15.732-19.063,27.744-15.947
		C233.523,547.802,240.701,560.254,237.205,572.109"/>
	<path id="path40" fill="#02709F" d="M105.525,589.17c-3.281,12.119-15.703,19.15-27.739,15.811
		c-11.968-3.359-19.033-15.811-15.713-27.813c3.35-11.895,15.713-19.082,27.739-15.83
		C101.848,564.717,108.835,577.158,105.525,589.17"/>
	<path id="path42" fill="#02709F" d="M162.468,613.242c-3.311,12.188-15.723,19.141-27.764,15.889
		c-12.031-3.496-19.004-15.889-15.713-27.813c3.291-11.992,15.713-19.053,27.754-15.82
		C158.767,588.857,165.769,601.318,162.468,613.242"/>
	<path id="path44" fill="#02709F" d="M223.816,621.855c-3.506,11.992-15.928,19.072-27.764,15.811
		c-12.021-3.359-19.023-15.811-15.713-27.754c3.291-12.178,15.713-19.131,27.549-15.869
		C220.125,597.47,226.912,609.912,223.816,621.855"/>
	<path id="path46" fill="#02709F" d="M91.951,638.75c-3.311,12.158-15.728,19.082-27.754,15.977
		c-12.046-3.516-19.033-15.957-15.732-27.822c3.315-12.197,15.732-19.072,27.759-15.957
		C88.186,614.453,95.237,626.894,91.951,638.75z M148.669,662.91c-3.291,12.129-15.713,19.072-27.676,15.957
		c-11.904-3.496-19.097-15.957-15.742-27.793c3.32-12.285,15.742-19.082,27.705-15.967
		C144.988,638.603,151.97,651.074,148.669,662.91"/>
	<path id="path48" fill="#02709F" d="M210.017,671.601c-3.281,11.855-15.713,19.063-27.744,15.674
		c-12.031-3.242-19.033-15.674-15.723-27.822c3.301-11.982,15.723-19.043,27.754-15.684
		C206.345,647.021,213.308,659.394,210.017,671.601"/>
	<path id="path50" fill="#02709F" d="M120.144,696.552c-0.342,1.162-2.217,1.504-4.365,0.977c-1.992-0.537-3.398-1.943-3.203-3.125
		c0.283-1.055,2.373-1.514,4.307-0.85C119.031,694.072,120.476,695.498,120.144,696.552z M112.576,694.404l-7.08,25.967
		 M113.875,696.572l-6.699,24.18 M120.144,696.552l-7.031,25.859 M117.976,697.783l-6.611,24.18 M163.621,322.295l-4.824,17.93
		 M165.72,322.939l-5.078,18.057 M266.912,350.849l-5.029,17.93 M264.822,350.4l-5.078,18.047"/>
	<path id="path52" fill="#02709F" d="M369.91,116.001c0,0,6.035-26.123,9.658-44.307c6.68-34.873,7.402-52.446,7.402-52.446
		c-0.049-4.785-1.162-8.901-5.674-10.186l-20.068-5.605c-4.414-1.152-7.354,1.538-10.225,5.825c0,0-7.949,16.187-19.004,49.229
		c-5.879,17.544-11.66,39.546-11.66,39.546 M312.361,354.873c-1.357,4.404-5.82,6.973-10.215,5.82l-173.955-48.242
		c-4.395-1.152-6.973-5.625-5.771-10.156l30.283-110.244c1.367-4.414,5.811-6.973,10.225-5.752l174.15,48.105
		c4.395,1.23,6.787,5.82,5.811,10.225L312.361,354.873z M372.185,106.572c-16.104-6.318-32.764-12.139-49.551-17.441 M193.24,67.495
		c0,0-41.377,84.844-65.098,170.903c-28.174,102.49-32.358,136.582-28.105,184.179c0.859,9.658,10.596,21.904,21.514,24.863
		c4.297,0.947,9.199,2.354,11.338,3.027c2.158,0.674,10.127,2.705,16.787,7.92c6.611,5.156,8.145,6.553,12.139,8.32
		c3.975,2.188,4.424,3.613,15.684,6.963c11.26,3.057,12.402,2.256,16.816,2.334c4.424,0.068,6.582-0.078,14.98-1.338
		c8.203-0.869,16.143,1.436,18.291,2.09c2.148,0.664,7.197,2.002,11.543,3.047c10.928,2.949,25.078-2.266,30.889-10.283
		c28.271-38.74,42.168-70.205,70.156-172.5c23.916-86.045,31.455-180.186,31.455-180.186 M168.816,110.015
		c33.486,4.805,69.59,12.495,102.676,21.729c33.516,9.258,68.486,21.128,99.365,34.165"/>
	<path id="path54" fill="#02709F" d="M243.591,423.252c-7.344,26.563-35.078,42.5-61.787,35.156
		c-26.914-7.363-42.637-35.156-35.078-62.139c7.344-26.768,35.078-42.51,61.787-35.156
		C235.007,368.476,250.916,396.269,243.591,423.252z M150.876,340.537c6.846,1.846,11.992,4.521,14.521,6.279
		c2.539,1.758,3.291,3.965,1.133,5.42c-2.246,1.484-6.523,4.463-8.73,6.357c-2.568,2.441-4.434,2.939-8.379,0.713
		c-6.631-3.75-20.908-14.189-24.521-19.043c-1.836-2.314-0.049-3.34,3.594-3.623C133.64,336.504,143.523,338.408,150.876,340.537z
		 M115.31,393.398c3.682,1.357,12.715,5.879,15.371,7.939c2.588,2.08,6.67,5.947,6.289,11.025c-0.391,5.898-0.029,18.223,2.51,22.09
		c3.281,5.625,2.891,7.861-1.836,6.66c-3.74-0.41-13.535-3.936-16.406-5.342c-2.705-1.416-6.816-3.73-8.066-7.432
		c-2.598-8.037-3.232-24.131-1.826-32.119C111.853,392.676,113.23,392.705,115.31,393.398"/>
	<path id="path56" fill="#02709F" d="M268.455,372.881c-6.67-1.855-12.539-1.963-15.479-1.895c-3.359,0.078-4.99,1.758-4.092,3.994
		c1.348,2.549,3.447,7.285,4.268,10.127c1.279,3.154,2.236,4.648,6.699,4.688c7.871,0.459,25.43-1.436,31.143-3.662
		c2.471-1.025,1.592-2.842-1.338-4.854C285.31,378.359,275.769,375.01,268.455,372.881z M272.039,436.66
		c-3.721-0.791-13.906-1.465-17.383-0.947c-3.076,0.137-8.838,1.582-11.064,6.025c-2.793,5.264-9.346,15.518-13.281,18.096
		c-5.713,2.813-6.475,4.775-2.021,6.65c3.604,1.338,13.818,3.105,16.807,3.623c3.027,0.117,7.949,0.137,10.918-2.666
		c6.475-5.273,15.205-19.033,17.725-26.396C275.105,437.978,274.167,437.275,272.039,436.66"/>
	<path id="path58" fill="#02709F" d="M263.455,146.187l16.699-60.166"/>
	<path id="path60" fill="#02709F" d="M269.158,147.71l16.641-60.122"/>
	<path id="path62" fill="#02709F" d="M385.33,322.285c6.514-23.447,33.555-140.752,34.482-157.07
		c1.328-16.274-4.668-36.777-13.33-40.923c0.195-5.854,0.518-9.106,0.518-9.106c-2.061-0.825-4.219-1.709-6.357-2.588l0.684,0.303
		c0,0,6.035-26.196,9.678-44.321c6.689-34.888,7.393-52.388,7.393-52.388c-0.059-4.819-1.289-9.077-5.674-10.239l-20.088-5.664
		c-4.404-1.221-7.344,1.621-10.215,5.806c0,0-7.93,16.318-18.994,49.316c-5.889,17.524-11.66,39.531-11.66,39.531l0.127,0.063
		c-11.855-3.936-24.199-7.681-36.611-11.04c-31.465-8.76-62.959-15.43-94.424-20.293c0,0-1.504,2.876-4.287,8.198
		c-9.531-1.011-25.225,13.56-32.539,28.149c-7.314,14.556-44.199,129.189-50.732,152.646
		c-6.367,23.457-18.896,83.154-24.463,112.842c-5.503,29.902-10.405,81.406-29.517,150.811
		C68.113,557.09,49.944,617.881,40.442,643.095c-2.524,6.611-22.422,40.303,6.489,51.904c28.384,11.113,70.664,23.389,92.139,29.326
		c21.279,5.889,63.926,17.139,94.199,22.051c30.674,5.078,30.762-34.063,32.119-41.055c4.57-26.621,19.98-88.057,31.465-128.906
		c19.023-69.404,41.084-116.348,51.67-144.492C359.021,403.525,378.816,345.742,385.33,322.285"/>
	<path id="path64" fill="#02709F" d="M386.902,16.758c0,0-9.463-2.72-17.5-4.932c-7.266-2.046-16.934-4.6-16.934-4.6"/>
	<path id="path66" fill="none" stroke="#FFFFFF" stroke-width="4" d="M386.902,16.758c0,0-9.463-2.72-17.5-4.932
		c-7.266-2.046-16.934-4.6-16.934-4.6"/>
	<path id="path68" fill="#02709F" d="M353.914,325.517c6.514-23.457,33.535-140.82,34.482-157.114
		c1.318-16.304-4.639-36.807-13.33-40.938c0.205-5.869,0.391-9.077,0.391-9.077c-1.914-0.918-4.072-1.768-6.23-2.559l0.684,0.171
		c0,0,6.025-26.123,9.658-44.307c6.68-34.873,7.402-52.446,7.402-52.446c-0.049-4.785-1.162-8.901-5.674-10.186l-20.068-5.605
		c-4.414-1.152-7.354,1.538-10.225,5.825c0,0-7.949,16.187-19.004,49.229c-5.879,17.544-11.66,39.546-11.66,39.546l0.137,0.137
		c-11.855-3.955-24.199-7.642-36.611-11.118c-31.475-8.677-62.949-15.42-94.629-20.254c0,0-1.504,2.9-4.082,8.145
		c-9.531-0.879-25.225,13.569-32.549,28.193c-7.324,14.561-44.199,129.087-50.718,152.603
		c-6.392,23.545-18.896,83.291-24.468,112.978C71.917,398.427,67,450.351,47.888,519.375
		c-11.211,40.898-29.365,101.67-38.867,126.836c-2.544,6.65-22.422,40.469,6.494,51.836c28.467,11.338,70.669,23.438,92.139,29.307
		c21.289,5.889,63.916,17.266,93.994,22.197c30.869,5.049,30.957-34.043,32.334-41.201c4.57-26.465,19.971-87.998,31.445-128.896
		c19.033-69.004,41.094-115.977,51.533-144.434C327.595,406.552,347.38,348.984,353.914,325.517"/>
	<path id="path70" fill="none" stroke="#FFFFFF" stroke-width="4" d="M353.914,325.517c6.514-23.457,33.535-140.82,34.482-157.114
		c1.318-16.304-4.639-36.807-13.33-40.938c0.205-5.869,0.391-9.077,0.391-9.077c-1.914-0.918-4.072-1.768-6.23-2.559l0.684,0.171
		c0,0,6.025-26.123,9.658-44.307c6.68-34.873,7.402-52.446,7.402-52.446c-0.049-4.785-1.162-8.901-5.674-10.186l-20.068-5.605
		c-4.414-1.152-7.354,1.538-10.225,5.825c0,0-7.949,16.187-19.004,49.229c-5.879,17.544-11.66,39.546-11.66,39.546l0.137,0.137
		c-11.855-3.955-24.199-7.642-36.611-11.118c-31.475-8.677-62.949-15.42-94.629-20.254c0,0-1.504,2.9-4.082,8.145
		c-9.531-0.879-25.225,13.569-32.549,28.193c-7.324,14.561-44.199,129.087-50.718,152.603
		c-6.392,23.545-18.896,83.291-24.468,112.978C71.917,398.427,67,450.351,47.888,519.375
		c-11.211,40.898-29.365,101.67-38.867,126.836c-2.544,6.65-22.422,40.469,6.494,51.836c28.467,11.338,70.669,23.438,92.139,29.307
		c21.289,5.889,63.916,17.266,93.994,22.197c30.869,5.049,30.957-34.043,32.334-41.201c4.57-26.465,19.971-87.998,31.445-128.896
		c19.033-69.004,41.094-115.977,51.533-144.434C327.595,406.552,347.38,348.984,353.914,325.517z"/>
	<path id="path72" fill="#02709F" d="M132.917,489.951c-3.291,11.865-15.732,19.053-27.764,15.557
		c-12.017-3.115-19.009-15.557-15.723-27.822c3.311-11.865,15.723-19.063,27.754-15.566
		C129.226,465.224,136.218,477.685,132.917,489.951"/>
	<path id="path74" fill="none" stroke="#FFFFFF" stroke-width="4" d="M132.917,489.951c-3.291,11.865-15.732,19.053-27.764,15.557
		c-12.017-3.115-19.009-15.557-15.723-27.822c3.311-11.865,15.723-19.063,27.754-15.566
		C129.226,465.224,136.218,477.685,132.917,489.951z"/>
	<path id="path76" fill="#02709F" d="M189.841,514.101c-3.291,11.855-15.713,19.053-27.764,15.557
		c-12.012-3.105-19.014-15.557-15.703-27.822c3.281-11.846,15.703-19.063,27.744-15.557
		C185.955,489.394,193.152,501.836,189.841,514.101"/>
	<path id="path78" fill="none" stroke="#FFFFFF" stroke-width="4" d="M189.841,514.101c-3.291,11.855-15.713,19.053-27.764,15.557
		c-12.012-3.105-19.014-15.557-15.703-27.822c3.281-11.846,15.703-19.063,27.744-15.557
		C185.955,489.394,193.152,501.836,189.841,514.101z"/>
	<path id="path80" fill="#02709F" d="M250.994,522.49c-3.096,12.158-15.518,19.219-27.764,15.84
		c-11.816-3.496-19.014-15.84-15.713-27.813c3.291-11.875,15.713-19.072,27.949-15.85C247.302,498.066,254.5,510.517,250.994,522.49
		"/>
	<path id="path82" fill="none" stroke="#FFFFFF" stroke-width="4" d="M250.994,522.49c-3.096,12.158-15.518,19.219-27.764,15.84
		c-11.816-3.496-19.014-15.84-15.713-27.813c3.291-11.875,15.713-19.072,27.949-15.85C247.302,498.066,254.5,510.517,250.994,522.49
		z"/>
	<path id="path84" fill="#02709F" d="M119.343,539.677c-3.398,11.865-15.796,19.063-27.773,15.566
		c-12.036-3.115-19.028-15.566-15.713-27.822c3.276-11.846,15.713-19.063,27.69-15.547
		C115.437,514.98,122.625,527.422,119.343,539.677"/>
	<path id="path86" fill="none" stroke="#FFFFFF" stroke-width="4" d="M119.343,539.677c-3.398,11.865-15.796,19.063-27.773,15.566
		c-12.036-3.115-19.028-15.566-15.713-27.822c3.276-11.846,15.713-19.063,27.69-15.547
		C115.437,514.98,122.625,527.422,119.343,539.677z"/>
	<path id="path88" fill="#02709F" d="M176.062,563.789c-3.291,11.914-15.742,19.092-27.764,15.605
		c-11.963-3.135-19.014-15.605-15.732-27.813c3.32-11.855,15.732-19.082,27.754-15.547
		C172.371,539.131,179.353,551.572,176.062,563.789"/>
	<path id="path90" fill="none" stroke="#FFFFFF" stroke-width="4" d="M176.062,563.789c-3.291,11.914-15.742,19.092-27.764,15.605
		c-11.963-3.135-19.014-15.605-15.732-27.813c3.32-11.855,15.732-19.082,27.754-15.547
		C172.371,539.131,179.353,551.572,176.062,563.789z"/>
	<path id="path92" fill="#02709F" d="M237.205,572.109c-3.096,12.256-15.537,19.082-27.549,15.967
		c-12.031-3.506-19.023-15.967-15.732-27.822c3.311-12.256,15.732-19.063,27.744-15.947
		C233.523,547.802,240.701,560.254,237.205,572.109"/>
	<path id="path94" fill="none" stroke="#FFFFFF" stroke-width="4" d="M237.205,572.109c-3.096,12.256-15.537,19.082-27.549,15.967
		c-12.031-3.506-19.023-15.967-15.732-27.822c3.311-12.256,15.732-19.063,27.744-15.947
		C233.523,547.802,240.701,560.254,237.205,572.109z"/>
	<path id="path96" fill="#02709F" d="M105.525,589.17c-3.281,12.119-15.703,19.15-27.739,15.811
		c-11.968-3.359-19.033-15.811-15.713-27.813c3.35-11.895,15.713-19.082,27.739-15.83
		C101.848,564.717,108.835,577.158,105.525,589.17"/>
	<path id="path98" fill="none" stroke="#FFFFFF" stroke-width="4" d="M105.525,589.17c-3.281,12.119-15.703,19.15-27.739,15.811
		c-11.968-3.359-19.033-15.811-15.713-27.813c3.35-11.895,15.713-19.082,27.739-15.83
		C101.848,564.717,108.835,577.158,105.525,589.17z"/>
	<path id="path100" fill="#02709F" d="M162.468,613.242c-3.311,12.188-15.723,19.141-27.764,15.889
		c-12.031-3.496-19.004-15.889-15.713-27.813c3.291-11.992,15.713-19.053,27.754-15.82
		C158.767,588.857,165.769,601.318,162.468,613.242"/>
	<path id="path102" fill="none" stroke="#FFFFFF" stroke-width="4" d="M162.468,613.242c-3.311,12.188-15.723,19.141-27.764,15.889
		c-12.031-3.496-19.004-15.889-15.713-27.813c3.291-11.992,15.713-19.053,27.754-15.82
		C158.767,588.857,165.769,601.318,162.468,613.242z"/>
	<path id="path104" fill="#02709F" d="M223.816,621.855c-3.506,11.992-15.928,19.072-27.764,15.811
		c-12.021-3.359-19.023-15.811-15.713-27.754c3.291-12.178,15.713-19.131,27.549-15.869
		C220.125,597.47,226.912,609.912,223.816,621.855"/>
	<path id="path106" fill="none" stroke="#FFFFFF" stroke-width="4" d="M223.816,621.855c-3.506,11.992-15.928,19.072-27.764,15.811
		c-12.021-3.359-19.023-15.811-15.713-27.754c3.291-12.178,15.713-19.131,27.549-15.869
		C220.125,597.47,226.912,609.912,223.816,621.855z"/>
	<path id="path108" fill="#02709F" d="M91.951,638.75c-3.311,12.158-15.728,19.082-27.754,15.977
		c-12.046-3.516-19.033-15.957-15.732-27.822c3.315-12.197,15.732-19.072,27.759-15.957
		C88.186,614.453,95.237,626.894,91.951,638.75z M148.669,662.91c-3.291,12.129-15.713,19.072-27.676,15.957
		c-11.904-3.496-19.097-15.957-15.742-27.793c3.32-12.285,15.742-19.082,27.705-15.967
		C144.988,638.603,151.97,651.074,148.669,662.91"/>
	<path id="path110" fill="none" stroke="#FFFFFF" stroke-width="4" d="M91.951,638.75c-3.311,12.158-15.728,19.082-27.754,15.977
		c-12.046-3.516-19.033-15.957-15.732-27.822c3.315-12.197,15.732-19.072,27.759-15.957
		C88.186,614.453,95.237,626.894,91.951,638.75z M148.669,662.91c-3.291,12.129-15.713,19.072-27.676,15.957
		c-11.904-3.496-19.097-15.957-15.742-27.793c3.32-12.285,15.742-19.082,27.705-15.967
		C144.988,638.603,151.97,651.074,148.669,662.91z"/>
	<path id="path112" fill="#02709F" d="M210.017,671.601c-3.281,11.855-15.713,19.063-27.744,15.674
		c-12.031-3.242-19.033-15.674-15.723-27.822c3.301-11.982,15.723-19.043,27.754-15.684
		C206.345,647.021,213.308,659.394,210.017,671.601"/>
	<path id="path114" fill="none" stroke="#FFFFFF" stroke-width="4" d="M210.017,671.601c-3.281,11.855-15.713,19.063-27.744,15.674
		c-12.031-3.242-19.033-15.674-15.723-27.822c3.301-11.982,15.723-19.043,27.754-15.684
		C206.345,647.021,213.308,659.394,210.017,671.601z"/>
	<path id="path116" fill="#02709F" d="M120.144,696.552c-0.342,1.162-2.217,1.504-4.365,0.977c-1.992-0.537-3.398-1.943-3.203-3.125
		c0.283-1.055,2.373-1.514,4.307-0.85C119.031,694.072,120.476,695.498,120.144,696.552z M112.576,694.404l-7.08,25.967
		 M113.875,696.572l-6.699,24.18 M120.144,696.552l-7.031,25.859 M117.976,697.783l-6.611,24.18 M163.621,322.295l-4.824,17.93
		 M165.72,322.939l-5.078,18.057 M266.912,350.849l-5.029,17.93 M264.822,350.4l-5.078,18.047"/>
	<path id="path118" fill="none" stroke="#FFFFFF" stroke-width="4" d="M120.144,696.552c-0.342,1.162-2.217,1.504-4.365,0.977
		c-1.992-0.537-3.398-1.943-3.203-3.125c0.283-1.055,2.373-1.514,4.307-0.85C119.031,694.072,120.476,695.498,120.144,696.552z
		 M112.576,694.404l-7.08,25.967 M113.875,696.572l-6.699,24.18 M120.144,696.552l-7.031,25.859 M117.976,697.783l-6.611,24.18
		 M163.621,322.295l-4.824,17.93 M165.72,322.939l-5.078,18.057 M266.912,350.849l-5.029,17.93 M264.822,350.4l-5.078,18.047"/>
	<path id="path120" fill="#02709F" d="M369.91,116.001c0,0,6.035-26.123,9.658-44.307c6.68-34.873,7.402-52.446,7.402-52.446
		c-0.049-4.785-1.162-8.901-5.674-10.186l-20.068-5.605c-4.414-1.152-7.354,1.538-10.225,5.825c0,0-7.949,16.187-19.004,49.229
		c-5.879,17.544-11.66,39.546-11.66,39.546 M312.361,354.873c-1.357,4.404-5.82,6.973-10.215,5.82l-173.955-48.242
		c-4.395-1.152-6.973-5.625-5.771-10.156l30.283-110.244c1.367-4.414,5.811-6.973,10.225-5.752l174.15,48.105
		c4.395,1.23,6.787,5.82,5.811,10.225L312.361,354.873z M372.185,106.572c-16.104-6.318-32.764-12.139-49.551-17.441 M193.24,67.495
		c0,0-41.377,84.844-65.098,170.903c-28.174,102.49-32.358,136.582-28.105,184.179c0.859,9.658,10.596,21.904,21.514,24.863
		c4.297,0.947,9.199,2.354,11.338,3.027c2.158,0.674,10.127,2.705,16.787,7.92c6.611,5.156,8.145,6.553,12.139,8.32
		c3.975,2.188,4.424,3.613,15.684,6.963c11.26,3.057,12.402,2.256,16.816,2.334c4.424,0.068,6.582-0.078,14.98-1.338
		c8.203-0.869,16.143,1.436,18.291,2.09c2.148,0.664,7.197,2.002,11.543,3.047c10.928,2.949,25.078-2.266,30.889-10.283
		c28.271-38.74,42.168-70.205,70.156-172.5c23.916-86.045,31.455-180.186,31.455-180.186 M168.816,110.015
		c33.486,4.805,69.59,12.495,102.676,21.729c33.516,9.258,68.486,21.128,99.365,34.165"/>
	<path id="path122" fill="#02709F" d="M243.591,423.252c-7.344,26.563-35.078,42.5-61.787,35.156
		c-26.914-7.363-42.637-35.156-35.078-62.139c7.344-26.768,35.078-42.51,61.787-35.156
		C235.007,368.476,250.916,396.269,243.591,423.252z M150.876,340.537c6.846,1.846,11.992,4.521,14.521,6.279
		c2.539,1.758,3.291,3.965,1.133,5.42c-2.246,1.484-6.523,4.463-8.73,6.357c-2.568,2.441-4.434,2.939-8.379,0.713
		c-6.631-3.75-20.908-14.189-24.521-19.043c-1.836-2.314-0.049-3.34,3.594-3.623C133.64,336.504,143.523,338.408,150.876,340.537z
		 M115.31,393.398c3.682,1.357,12.715,5.879,15.371,7.939c2.588,2.08,6.67,5.947,6.289,11.025c-0.391,5.898-0.029,18.223,2.51,22.09
		c3.281,5.625,2.891,7.861-1.836,6.66c-3.74-0.41-13.535-3.936-16.406-5.342c-2.705-1.416-6.816-3.73-8.066-7.432
		c-2.598-8.037-3.232-24.131-1.826-32.119C111.853,392.676,113.23,392.705,115.31,393.398"/>
	<path id="path124" fill="none" stroke="#FFFFFF" stroke-width="4" d="M243.591,423.252c-7.344,26.563-35.078,42.5-61.787,35.156
		c-26.914-7.363-42.637-35.156-35.078-62.139c7.344-26.768,35.078-42.51,61.787-35.156
		C235.007,368.476,250.916,396.269,243.591,423.252z M150.876,340.537c6.846,1.846,11.992,4.521,14.521,6.279
		c2.539,1.758,3.291,3.965,1.133,5.42c-2.246,1.484-6.523,4.463-8.73,6.357c-2.568,2.441-4.434,2.939-8.379,0.713
		c-6.631-3.75-20.908-14.189-24.521-19.043c-1.836-2.314-0.049-3.34,3.594-3.623C133.64,336.504,143.523,338.408,150.876,340.537z
		 M115.31,393.398c3.682,1.357,12.715,5.879,15.371,7.939c2.588,2.08,6.67,5.947,6.289,11.025c-0.391,5.898-0.029,18.223,2.51,22.09
		c3.281,5.625,2.891,7.861-1.836,6.66c-3.74-0.41-13.535-3.936-16.406-5.342c-2.705-1.416-6.816-3.73-8.066-7.432
		c-2.598-8.037-3.232-24.131-1.826-32.119C111.853,392.676,113.23,392.705,115.31,393.398z"/>
	<path id="path126" fill="#02709F" d="M268.455,372.881c-6.67-1.855-12.539-1.963-15.479-1.895c-3.359,0.078-4.99,1.758-4.092,3.994
		c1.348,2.549,3.447,7.285,4.268,10.127c1.279,3.154,2.236,4.648,6.699,4.688c7.871,0.459,25.43-1.436,31.143-3.662
		c2.471-1.025,1.592-2.842-1.338-4.854C285.31,378.359,275.769,375.01,268.455,372.881z M272.039,436.66
		c-3.721-0.791-13.906-1.465-17.383-0.947c-3.076,0.137-8.838,1.582-11.064,6.025c-2.793,5.264-9.346,15.518-13.281,18.096
		c-5.713,2.813-6.475,4.775-2.021,6.65c3.604,1.338,13.818,3.105,16.807,3.623c3.027,0.117,7.949,0.137,10.918-2.666
		c6.475-5.273,15.205-19.033,17.725-26.396C275.105,437.978,274.167,437.275,272.039,436.66"/>
	<path id="path128" fill="none" stroke="#FFFFFF" stroke-width="4" d="M268.455,372.881c-6.67-1.855-12.539-1.963-15.479-1.895
		c-3.359,0.078-4.99,1.758-4.092,3.994c1.348,2.549,3.447,7.285,4.268,10.127c1.279,3.154,2.236,4.648,6.699,4.688
		c7.871,0.459,25.43-1.436,31.143-3.662c2.471-1.025,1.592-2.842-1.338-4.854C285.31,378.359,275.769,375.01,268.455,372.881z
		 M272.039,436.66c-3.721-0.791-13.906-1.465-17.383-0.947c-3.076,0.137-8.838,1.582-11.064,6.025
		c-2.793,5.264-9.346,15.518-13.281,18.096c-5.713,2.813-6.475,4.775-2.021,6.65c3.604,1.338,13.818,3.105,16.807,3.623
		c3.027,0.117,7.949,0.137,10.918-2.666c6.475-5.273,15.205-19.033,17.725-26.396C275.105,437.978,274.167,437.275,272.039,436.66z"
		/>
	<path id="path130" fill="#02709F" d="M263.455,146.187l16.699-60.166"/>
	<path id="path132" fill="none" stroke="#FFFFFF" stroke-width="4" d="M263.455,146.187l16.699-60.166"/>
	<path id="path134" fill="#02709F" d="M269.158,147.71l16.641-60.122"/>
	<path id="path136" fill="none" stroke="#FFFFFF" stroke-width="4" d="M269.158,147.71l16.641-60.122"/>
	<path id="path138" fill="none" stroke="#FFFFFF" stroke-width="4" d="M385.33,322.285c6.514-23.447,33.555-140.752,34.482-157.07
		c1.328-16.274-4.668-36.777-13.33-40.923c0.195-5.854,0.518-9.106,0.518-9.106c-2.061-0.825-4.219-1.709-6.357-2.588l0.684,0.303
		c0,0,6.035-26.196,9.678-44.321c6.689-34.888,7.393-52.388,7.393-52.388c-0.059-4.819-1.289-9.077-5.674-10.239l-20.088-5.664
		c-4.404-1.221-7.344,1.621-10.215,5.806c0,0-7.93,16.318-18.994,49.316c-5.889,17.524-11.66,39.531-11.66,39.531l0.127,0.063
		c-11.855-3.936-24.199-7.681-36.611-11.04c-31.465-8.76-62.959-15.43-94.424-20.293c0,0-1.504,2.876-4.287,8.198
		c-9.531-1.011-25.225,13.56-32.539,28.149c-7.314,14.556-44.199,129.189-50.732,152.646
		c-6.367,23.457-18.896,83.154-24.463,112.842c-5.503,29.902-10.405,81.406-29.517,150.811
		C68.113,557.09,49.944,617.881,40.442,643.095c-2.524,6.611-22.422,40.303,6.489,51.904c28.384,11.113,70.664,23.389,92.139,29.326
		c21.279,5.889,63.926,17.139,94.199,22.051c30.674,5.078,30.762-34.063,32.119-41.055c4.57-26.621,19.98-88.057,31.465-128.906
		c19.023-69.404,41.084-116.348,51.67-144.492C359.021,403.525,378.816,345.742,385.33,322.285z"/>
	<path id="path140" fill="none" stroke="#FFFFFF" stroke-width="4" d="M386.902,16.758c0,0-9.463-2.72-17.5-4.932
		c-7.266-2.046-16.934-4.6-16.934-4.6"/>
	<path id="path142" fill="none" stroke="#FFFFFF" stroke-width="4" d="M353.914,325.517c6.514-23.457,33.535-140.82,34.482-157.114
		c1.318-16.304-4.639-36.807-13.33-40.938c0.205-5.869,0.391-9.077,0.391-9.077c-1.914-0.918-4.072-1.768-6.23-2.559l0.684,0.171
		c0,0,6.025-26.123,9.658-44.307c6.68-34.873,7.402-52.446,7.402-52.446c-0.049-4.785-1.162-8.901-5.674-10.186l-20.068-5.605
		c-4.414-1.152-7.354,1.538-10.225,5.825c0,0-7.949,16.187-19.004,49.229c-5.879,17.544-11.66,39.546-11.66,39.546l0.137,0.137
		c-11.855-3.955-24.199-7.642-36.611-11.118c-31.475-8.677-62.949-15.42-94.629-20.254c0,0-1.504,2.9-4.082,8.145
		c-9.531-0.879-25.225,13.569-32.549,28.193c-7.324,14.561-44.199,129.087-50.718,152.603
		c-6.392,23.545-18.896,83.291-24.468,112.978C71.917,398.427,67,450.351,47.888,519.375
		c-11.211,40.898-29.365,101.67-38.867,126.836c-2.544,6.65-22.422,40.469,6.494,51.836c28.467,11.338,70.669,23.438,92.139,29.307
		c21.289,5.889,63.916,17.266,93.994,22.197c30.869,5.049,30.957-34.043,32.334-41.201c4.57-26.465,19.971-87.998,31.445-128.896
		c19.033-69.004,41.094-115.977,51.533-144.434C327.595,406.552,347.38,348.984,353.914,325.517z"/>
	<path id="path144" fill="none" stroke="#FFFFFF" stroke-width="4" d="M132.917,489.951c-3.291,11.865-15.732,19.053-27.764,15.557
		c-12.017-3.115-19.009-15.557-15.723-27.822c3.311-11.865,15.723-19.063,27.754-15.566
		C129.226,465.224,136.218,477.685,132.917,489.951z"/>
	<path id="path146" fill="none" stroke="#FFFFFF" stroke-width="4" d="M189.841,514.101c-3.291,11.855-15.713,19.053-27.764,15.557
		c-12.012-3.105-19.014-15.557-15.703-27.822c3.281-11.846,15.703-19.063,27.744-15.557
		C185.955,489.394,193.152,501.836,189.841,514.101z"/>
	<path id="path148" fill="none" stroke="#FFFFFF" stroke-width="4" d="M250.994,522.49c-3.096,12.158-15.518,19.219-27.764,15.84
		c-11.816-3.496-19.014-15.84-15.713-27.813c3.291-11.875,15.713-19.072,27.949-15.85C247.302,498.066,254.5,510.517,250.994,522.49
		z"/>
	<path id="path150" fill="none" stroke="#FFFFFF" stroke-width="4" d="M119.343,539.677c-3.398,11.865-15.796,19.063-27.773,15.566
		c-12.036-3.115-19.028-15.566-15.713-27.822c3.276-11.846,15.713-19.063,27.69-15.547
		C115.437,514.98,122.625,527.422,119.343,539.677z"/>
	<path id="path152" fill="none" stroke="#FFFFFF" stroke-width="4" d="M176.062,563.789c-3.291,11.914-15.742,19.092-27.764,15.605
		c-11.963-3.135-19.014-15.605-15.732-27.813c3.32-11.855,15.732-19.082,27.754-15.547
		C172.371,539.131,179.353,551.572,176.062,563.789z"/>
	<path id="path154" fill="none" stroke="#FFFFFF" stroke-width="4" d="M237.205,572.109c-3.096,12.256-15.537,19.082-27.549,15.967
		c-12.031-3.506-19.023-15.967-15.732-27.822c3.311-12.256,15.732-19.063,27.744-15.947
		C233.523,547.802,240.701,560.254,237.205,572.109z"/>
	<path id="path156" fill="none" stroke="#FFFFFF" stroke-width="4" d="M105.525,589.17c-3.281,12.119-15.703,19.15-27.739,15.811
		c-11.968-3.359-19.033-15.811-15.713-27.813c3.35-11.895,15.713-19.082,27.739-15.83
		C101.848,564.717,108.835,577.158,105.525,589.17z"/>
	<path id="path158" fill="none" stroke="#FFFFFF" stroke-width="4" d="M162.468,613.242c-3.311,12.188-15.723,19.141-27.764,15.889
		c-12.031-3.496-19.004-15.889-15.713-27.813c3.291-11.992,15.713-19.053,27.754-15.82
		C158.767,588.857,165.769,601.318,162.468,613.242z"/>
	<path id="path160" fill="none" stroke="#FFFFFF" stroke-width="4" d="M223.816,621.855c-3.506,11.992-15.928,19.072-27.764,15.811
		c-12.021-3.359-19.023-15.811-15.713-27.754c3.291-12.178,15.713-19.131,27.549-15.869
		C220.125,597.47,226.912,609.912,223.816,621.855z"/>
	<path id="path162" fill="none" stroke="#FFFFFF" stroke-width="4" d="M91.951,638.75c-3.311,12.158-15.728,19.082-27.754,15.977
		c-12.046-3.516-19.033-15.957-15.732-27.822c3.315-12.197,15.732-19.072,27.759-15.957
		C88.186,614.453,95.237,626.894,91.951,638.75z M148.669,662.91c-3.291,12.129-15.713,19.072-27.676,15.957
		c-11.904-3.496-19.097-15.957-15.742-27.793c3.32-12.285,15.742-19.082,27.705-15.967
		C144.988,638.603,151.97,651.074,148.669,662.91z"/>
	<path id="path164" fill="none" stroke="#FFFFFF" stroke-width="4" d="M210.017,671.601c-3.281,11.855-15.713,19.063-27.744,15.674
		c-12.031-3.242-19.033-15.674-15.723-27.822c3.301-11.982,15.723-19.043,27.754-15.684
		C206.345,647.021,213.308,659.394,210.017,671.601z"/>
	<path id="path166" fill="none" stroke="#FFFFFF" stroke-width="4" d="M120.144,696.552c-0.342,1.162-2.217,1.504-4.365,0.977
		c-1.992-0.537-3.398-1.943-3.203-3.125c0.283-1.055,2.373-1.514,4.307-0.85C119.031,694.072,120.476,695.498,120.144,696.552z
		 M112.576,694.404l-7.08,25.967 M113.875,696.572l-6.699,24.18 M120.144,696.552l-7.031,25.859 M117.976,697.783l-6.611,24.18
		 M163.621,322.295l-4.824,17.93 M165.72,322.939l-5.078,18.057 M266.912,350.849l-5.029,17.93 M264.822,350.4l-5.078,18.047"/>
	<path id="path168" fill="none" stroke="#FFFFFF" stroke-width="4" d="M369.91,116.001c0,0,6.035-26.123,9.658-44.307
		c6.68-34.873,7.402-52.446,7.402-52.446c-0.049-4.785-1.162-8.901-5.674-10.186l-20.068-5.605
		c-4.414-1.152-7.354,1.538-10.225,5.825c0,0-7.949,16.187-19.004,49.229c-5.879,17.544-11.66,39.546-11.66,39.546 M312.361,354.873
		c-1.357,4.404-5.82,6.973-10.215,5.82l-173.955-48.242c-4.395-1.152-6.973-5.625-5.771-10.156l30.283-110.244
		c1.367-4.414,5.811-6.973,10.225-5.752l174.15,48.105c4.395,1.23,6.787,5.82,5.811,10.225L312.361,354.873z M372.185,106.572
		c-16.104-6.318-32.764-12.139-49.551-17.441 M193.24,67.495c0,0-41.377,84.844-65.098,170.903
		c-28.174,102.49-32.358,136.582-28.105,184.179c0.859,9.658,10.596,21.904,21.514,24.863c4.297,0.947,9.199,2.354,11.338,3.027
		c2.158,0.674,10.127,2.705,16.787,7.92c6.611,5.156,8.145,6.553,12.139,8.32c3.975,2.188,4.424,3.613,15.684,6.963
		c11.26,3.057,12.402,2.256,16.816,2.334c4.424,0.068,6.582-0.078,14.98-1.338c8.203-0.869,16.143,1.436,18.291,2.09
		c2.148,0.664,7.197,2.002,11.543,3.047c10.928,2.949,25.078-2.266,30.889-10.283c28.271-38.74,42.168-70.205,70.156-172.5
		c23.916-86.045,31.455-180.186,31.455-180.186 M168.816,110.015c33.486,4.805,69.59,12.495,102.676,21.729
		c33.516,9.258,68.486,21.128,99.365,34.165"/>
	<path id="path170" fill="none" stroke="#FFFFFF" stroke-width="4" d="M243.591,423.252c-7.344,26.563-35.078,42.5-61.787,35.156
		c-26.914-7.363-42.637-35.156-35.078-62.139c7.344-26.768,35.078-42.51,61.787-35.156
		C235.007,368.476,250.916,396.269,243.591,423.252z M150.876,340.537c6.846,1.846,11.992,4.521,14.521,6.279
		c2.539,1.758,3.291,3.965,1.133,5.42c-2.246,1.484-6.523,4.463-8.73,6.357c-2.568,2.441-4.434,2.939-8.379,0.713
		c-6.631-3.75-20.908-14.189-24.521-19.043c-1.836-2.314-0.049-3.34,3.594-3.623C133.64,336.504,143.523,338.408,150.876,340.537z
		 M115.31,393.398c3.682,1.357,12.715,5.879,15.371,7.939c2.588,2.08,6.67,5.947,6.289,11.025c-0.391,5.898-0.029,18.223,2.51,22.09
		c3.281,5.625,2.891,7.861-1.836,6.66c-3.74-0.41-13.535-3.936-16.406-5.342c-2.705-1.416-6.816-3.73-8.066-7.432
		c-2.598-8.037-3.232-24.131-1.826-32.119C111.853,392.676,113.23,392.705,115.31,393.398z"/>
	<path id="path172" fill="none" stroke="#FFFFFF" stroke-width="4" d="M268.455,372.881c-6.67-1.855-12.539-1.963-15.479-1.895
		c-3.359,0.078-4.99,1.758-4.092,3.994c1.348,2.549,3.447,7.285,4.268,10.127c1.279,3.154,2.236,4.648,6.699,4.688
		c7.871,0.459,25.43-1.436,31.143-3.662c2.471-1.025,1.592-2.842-1.338-4.854C285.31,378.359,275.769,375.01,268.455,372.881z
		 M272.039,436.66c-3.721-0.791-13.906-1.465-17.383-0.947c-3.076,0.137-8.838,1.582-11.064,6.025
		c-2.793,5.264-9.346,15.518-13.281,18.096c-5.713,2.813-6.475,4.775-2.021,6.65c3.604,1.338,13.818,3.105,16.807,3.623
		c3.027,0.117,7.949,0.137,10.918-2.666c6.475-5.273,15.205-19.033,17.725-26.396C275.105,437.978,274.167,437.275,272.039,436.66z"
		/>
	<path id="path174" fill="none" stroke="#FFFFFF" stroke-width="4" d="M263.455,146.187l16.699-60.166"/>
	<path id="path176" fill="none" stroke="#FFFFFF" stroke-width="4" d="M269.158,147.71l16.641-60.122"/>
</g>
</svg>
