<?xml version="1.0" encoding="utf-8"?>
<!-- Generator: Adobe Illustrator 16.0.0, SVG Export Plug-In . SVG Version: 6.00 Build 0)  -->
<!DOCTYPE svg PUBLIC "-//W3C//DTD SVG 1.1//EN" "http://www.w3.org/Graphics/SVG/1.1/DTD/svg11.dtd">
<svg version="1.1"
	 id="svg2" xmlns:dc="http://purl.org/dc/elements/1.1/" xmlns:cc="http://creativecommons.org/ns#" xmlns:rdf="http://www.w3.org/1999/02/22-rdf-syntax-ns#" xmlns:svg="http://www.w3.org/2000/svg"
	 xmlns="http://www.w3.org/2000/svg" xmlns:xlink="http://www.w3.org/1999/xlink" x="0px" y="0px" width="56px" height="80px"
	 viewBox="0 0 56 80" enable-background="new 0 0 56 80" xml:space="preserve">
<g id="g12" transform="scale(0.1,0.1)">
	<path id="path22" fill="#087BBB" d="M10,790h409.521V140.337H10V790z"/>
	<path id="path24" fill="none" stroke="#FFFFFF" stroke-width="3.9999" d="M419.521,140.337H10V790h409.521"/>
	<path id="path26" fill="#087BBB" d="M419.521,790L550,660.029V10H140.786L10,140.337h409.521V790"/>
	<path id="path28" fill="none" stroke="#FFFFFF" stroke-width="3.9999" d="M419.521,790L550,660.029V10H140.786L10,140.337h409.521
		V790L419.521,790z"/>
	<path id="path30" fill="#087BBB" d="M419.521,140.337L550,10"/>
	<path id="path32" fill="none" stroke="#FFFFFF" stroke-width="3.9999" d="M419.521,140.337L550,10"/>
	<path id="path34" fill="#087BBB" d="M16.626,329.429h399.106"/>
	<path id="path36" fill="none" stroke="#FFFFFF" stroke-width="3.9999" d="M16.626,329.429h399.106"/>
	<path id="path38" fill="none" stroke="#FFFFFF" stroke-width="3.9999" d="M109.722,240.991h116.411"/>
	<path id="path40" fill="none" stroke="#FFFFFF" stroke-width="3.9999" d="M63.267,280.664h206.099v-82.769H63.267V280.664z"/>
	<path id="path42" fill="#FFFFFF" d="M94.858,629.306V474.756l148.037,75.01L94.858,629.306"/>
	<path id="path44" fill="#FFFFFF" d="M268.892,622.295h45.796V479.258h-45.796V622.295z"/>
	<path id="path46" fill="none" stroke="#FFFFFF" stroke-width="7" d="M207.817,720.097c93.276,0,168.384-75.186,168.384-167.822
		c0-92.969-75.107-168.008-168.384-168.008c-93.096,0-168.604,75.039-168.604,168.008
		C39.214,644.912,114.722,720.097,207.817,720.097z"/>
</g>
</svg>
