<?xml version="1.0" encoding="utf-8"?>
<!-- Generator: Adobe Illustrator 16.0.0, SVG Export Plug-In . SVG Version: 6.00 Build 0)  -->
<!DOCTYPE svg PUBLIC "-//W3C//DTD SVG 1.1//EN" "http://www.w3.org/Graphics/SVG/1.1/DTD/svg11.dtd">
<svg version="1.1"
	 id="图层_1" xmlns:dc="http://purl.org/dc/elements/1.1/" xmlns:cc="http://creativecommons.org/ns#" xmlns:rdf="http://www.w3.org/1999/02/22-rdf-syntax-ns#"
	 xmlns="http://www.w3.org/2000/svg" xmlns:xlink="http://www.w3.org/1999/xlink" x="0px" y="0px" width="75px" height="75px"
	 viewBox="0 0 75 75" enable-background="new 0 0 75 75" xml:space="preserve">
<path fill="#00BCF2" d="M44.424,61.86c-0.828-1.942-1.518-3.53-1.529-3.529c-0.014,0.001-1.842,0.489-4.066,1.085
	c-2.224,0.597-4.061,1.069-4.082,1.051c-0.021-0.019,1.451-2.591,3.271-5.718c1.822-3.126,3.309-5.734,3.307-5.795
	c0-0.061-0.328-0.332-0.729-0.602c-2.146-1.457-4.896-4.666-6.292-7.346c-2.057-3.948-2.833-8.717-2.109-12.953
	c0.812-4.749,2.874-8.664,6.285-11.938c2.469-2.369,4.861-3.832,7.996-4.893c9.914-3.354,20.689,0.734,25.863,9.814
	C74.1,24.129,75,27.612,75,31.344c0,3.54-0.662,6.259-2.32,9.542c-1.518,3.005-4.223,6.09-6.908,7.882
	c-0.664,0.443-1.209,0.863-1.209,0.932c0,0.067,1.654,2.584,3.674,5.59s3.615,5.485,3.547,5.509
	c-0.07,0.024-1.895-0.427-4.057-1.001c-2.16-0.574-3.955-1.021-3.984-0.99c-0.029,0.029-0.523,1.44-1.1,3.133
	c-0.576,1.695-1.092,3.16-1.146,3.259c-0.061,0.108-1.811-2.09-4.428-5.562c-2.383-3.156-4.375-5.768-4.426-5.8
	c-0.053-0.032-1.508,2.438-3.23,5.489s-3.211,5.663-3.309,5.807C45.956,65.353,45.706,64.865,44.424,61.86L44.424,61.86z
	 M56.618,49.131c7.232-1.172,13.141-6.704,14.799-13.854c0.59-2.547,0.535-5.773-0.148-8.443
	c-1.746-6.839-7.619-12.158-14.77-13.375c-1.682-0.286-5.023-0.209-6.777,0.156c-4.418,0.921-8.262,3.347-10.936,6.904
	c-2.464,3.275-3.632,6.756-3.632,10.826c0,3.993,1.128,7.416,3.501,10.612c2.988,4.023,7.154,6.481,12.381,7.305
	C52.008,49.413,55.356,49.336,56.618,49.131L56.618,49.131z M51.026,45.013c-5.352-0.969-9.779-5.039-11.195-10.286
	c-0.438-1.628-0.469-4.938-0.059-6.544c1.279-5.036,4.801-8.689,9.867-10.241c1.217-0.373,1.521-0.406,3.822-0.412
	c2.176-0.005,2.652,0.037,3.66,0.328c2.398,0.691,4.301,1.778,6.102,3.485c1.799,1.706,2.975,3.616,3.762,6.104
	c0.541,1.705,0.68,4.645,0.309,6.475c-0.641,3.165-2.338,6.018-4.781,8.043C59.364,44.573,54.999,45.732,51.026,45.013
	L51.026,45.013z M56.696,41.568c3.594-1.127,6.43-4.074,7.365-7.65c0.379-1.447,0.348-3.887-0.066-5.362
	c-1.35-4.802-5.488-7.905-10.533-7.898c-3.344,0.004-6.193,1.313-8.35,3.834c-0.928,1.085-1.932,3.104-2.246,4.509
	c-0.34,1.532-0.232,4.14,0.23,5.503c1.27,3.753,4.168,6.391,8.012,7.289C52.426,42.103,55.374,41.983,56.696,41.568L56.696,41.568z
	 M4.271,44.672c-1.639-0.527-2.938-1.662-3.722-3.251l-0.47-0.953L0.04,25.683L0,10.897l4.427-4.52l4.427-4.519h24.81
	c27.126,0,25.677-0.045,27.201,0.845C62.856,3.867,63.975,6,63.975,8.626c0,0.457-0.037,0.87-0.086,0.917
	C63.842,9.59,63.383,9.44,62.872,9.21c-0.514-0.23-1.301-0.534-1.748-0.675c-0.801-0.252-0.814-0.267-0.914-0.921
	c-0.139-0.926-0.93-1.767-1.828-1.94c-0.359-0.069-11.16-0.129-24.001-0.133L11.035,5.535v3.603v3.603H7.356H3.678l0.039,13.519
	c0.039,13.394,0.042,13.523,0.342,13.925c0.167,0.223,0.486,0.542,0.709,0.709c0.402,0.3,0.536,0.304,13.529,0.343l13.124,0.04
	l0.336,0.695c0.185,0.383,0.628,1.164,0.984,1.737s0.647,1.086,0.647,1.141c0,0.053-6.37,0.094-14.154,0.09
	C6.116,44.931,5.02,44.912,4.271,44.672L4.271,44.672z"/>
<path fill="#00BCF2" d="M44.424,69.8c-0.828-1.942-1.518-3.53-1.529-3.529c-0.014,0.001-1.842,0.489-4.066,1.085
	c-2.224,0.597-4.061,1.069-4.082,1.051c-0.021-0.019,1.451-2.591,3.271-5.718c1.822-3.126,3.309-5.734,3.307-5.795
	c0-0.061-0.328-0.332-0.729-0.602c-2.146-1.457-4.896-4.666-6.292-7.346c-2.057-3.948-2.833-8.717-2.109-12.953
	c0.812-4.748,2.874-8.664,6.285-11.938c2.469-2.369,4.861-3.832,7.996-4.893c9.914-3.354,20.689,0.734,25.863,9.814
	C74.1,32.068,75,35.552,75,39.283c0,3.54-0.662,6.259-2.32,9.542c-1.518,3.005-4.223,6.09-6.908,7.882
	c-0.664,0.443-1.209,0.863-1.209,0.932c0,0.067,1.654,2.584,3.674,5.59s3.615,5.485,3.547,5.509
	c-0.07,0.024-1.895-0.427-4.057-1.001c-2.16-0.574-3.955-1.021-3.984-0.99c-0.029,0.029-0.523,1.44-1.1,3.133
	c-0.576,1.695-1.092,3.16-1.146,3.259c-0.061,0.108-1.811-2.09-4.428-5.562c-2.383-3.156-4.375-5.768-4.426-5.8
	c-0.053-0.032-1.508,2.438-3.23,5.489s-3.211,5.663-3.309,5.807C45.956,73.292,45.706,72.805,44.424,69.8L44.424,69.8z
	 M56.618,57.07c7.232-1.172,13.141-6.704,14.799-13.854c0.59-2.547,0.535-5.772-0.148-8.443c-1.746-6.839-7.619-12.158-14.77-13.375
	c-1.682-0.286-5.023-0.209-6.777,0.156c-4.418,0.921-8.262,3.347-10.936,6.904c-2.464,3.275-3.632,6.757-3.632,10.826
	c0,3.993,1.128,7.416,3.501,10.612c2.988,4.023,7.154,6.481,12.381,7.305C52.008,57.353,55.356,57.275,56.618,57.07L56.618,57.07z
	 M51.026,52.952c-5.352-0.969-9.779-5.039-11.195-10.286c-0.438-1.628-0.469-4.938-0.059-6.544
	c1.279-5.036,4.801-8.689,9.867-10.241c1.217-0.373,1.521-0.406,3.822-0.412c2.176-0.005,2.652,0.037,3.66,0.328
	c2.398,0.691,4.301,1.778,6.102,3.485c1.799,1.706,2.975,3.616,3.762,6.104c0.541,1.705,0.68,4.645,0.309,6.475
	c-0.641,3.165-2.338,6.018-4.781,8.043C59.364,52.513,54.999,53.672,51.026,52.952L51.026,52.952z M56.696,49.508
	c3.594-1.127,6.43-4.074,7.365-7.65c0.379-1.447,0.348-3.887-0.066-5.361c-1.35-4.802-5.488-7.905-10.533-7.898
	c-3.344,0.004-6.193,1.313-8.35,3.835c-0.928,1.085-1.932,3.104-2.246,4.509c-0.34,1.532-0.232,4.14,0.23,5.503
	c1.27,3.753,4.168,6.391,8.012,7.289C52.426,50.042,55.374,49.923,56.696,49.508L56.696,49.508z M4.271,52.611
	c-1.639-0.527-2.938-1.662-3.722-3.251l-0.47-0.953L0.04,33.622L0,18.836l4.427-4.52l4.427-4.519h24.81
	c27.126,0,25.677-0.045,27.201,0.845c1.992,1.164,3.111,3.296,3.111,5.922c0,0.457-0.037,0.87-0.086,0.917
	c-0.047,0.048-0.506-0.102-1.018-0.332c-0.514-0.23-1.301-0.534-1.748-0.675c-0.801-0.252-0.814-0.267-0.914-0.921
	c-0.139-0.926-0.93-1.767-1.828-1.94c-0.359-0.069-11.16-0.129-24.001-0.133l-23.345-0.006v3.603v3.603H7.356H3.678l0.039,13.519
	c0.039,13.394,0.042,13.522,0.342,13.925c0.167,0.223,0.486,0.542,0.709,0.709c0.402,0.3,0.536,0.304,13.529,0.343l13.124,0.04
	l0.336,0.695c0.185,0.383,0.628,1.164,0.984,1.737s0.647,1.086,0.647,1.141c0,0.053-6.37,0.094-14.154,0.09
	C6.116,52.87,5.02,52.852,4.271,52.611L4.271,52.611z"/>
</svg>
