<?xml version="1.0" encoding="utf-8"?>
<!-- Generator: Adobe Illustrator 16.0.0, SVG Export Plug-In . SVG Version: 6.00 Build 0)  -->
<!DOCTYPE svg PUBLIC "-//W3C//DTD SVG 1.1//EN" "http://www.w3.org/Graphics/SVG/1.1/DTD/svg11.dtd">
<svg version="1.1"
	 id="svg2" xmlns:dc="http://purl.org/dc/elements/1.1/" xmlns:cc="http://creativecommons.org/ns#" xmlns:rdf="http://www.w3.org/1999/02/22-rdf-syntax-ns#" xmlns:svg="http://www.w3.org/2000/svg"
	 xmlns="http://www.w3.org/2000/svg" xmlns:xlink="http://www.w3.org/1999/xlink" x="0px" y="0px" width="80px" height="71px"
	 viewBox="0 0 80 71" enable-background="new 0 0 80 71" xml:space="preserve">
<g id="g12" transform="scale(0.1,0.1)">
	<path id="path22" fill="#087BBB" d="M0,709.997h717.261V84.539H0V709.997z"/>
	<path id="path24" fill="none" stroke="#FFFFFF" stroke-width="3.9999" d="M0,709.997h717.261V84.539H0V709.997z"/>
	<path id="path26" fill="#087BBB" d="M82.734-0.002L0,84.539h717.261l82.734-84.541H82.734"/>
	<path id="path28" fill="none" stroke="#FFFFFF" stroke-width="3.9999" d="M82.734-0.002L0,84.539h717.261l82.734-84.541H82.734z"/>
	<path id="path30" fill="#087BBB" d="M799.995,625.261V-0.002l-82.734,84.541v625.459L799.995,625.261"/>
	<path id="path32" fill="none" stroke="#FFFFFF" stroke-width="3.9999" d="M799.995,625.261V-0.002l-82.734,84.541v625.459
		L799.995,625.261z"/>
	<path id="path34" fill="#087BBB" d="M67.197,660.202H659.37V142.126H67.197V660.202z"/>
	<path id="path36" fill="none" stroke="#FFFFFF" stroke-width="3.9999" d="M67.197,660.202H659.37V142.126H67.197V660.202z"/>
	<path id="path38" fill="#087BBB" d="M625.073,331.54c0,55.898-116.406,100.635-259.834,100.635
		c-143.447,0-259.829-44.736-259.829-100.635v147.832c0,55.479,116.382,100.635,259.829,100.635
		c143.428,0,259.834-45.156,259.834-100.635V331.54"/>
	<path id="path40" fill="none" stroke="#FFFFFF" stroke-width="3.9999" d="M625.073,331.54
		c0,55.898-116.406,100.635-259.834,100.635c-143.447,0-259.829-44.736-259.829-100.635v147.832
		c0,55.479,116.382,100.635,259.829,100.635c143.428,0,259.834-45.156,259.834-100.635V331.54z"/>
	<path id="path42" fill="#087BBB" d="M365.239,432.175c143.428,0,259.834-44.736,259.834-100.635
		c0-55.683-116.406-100.849-259.834-100.849c-143.447,0-259.829,45.166-259.829,100.849
		C105.41,387.439,221.792,432.175,365.239,432.175"/>
	<path id="path44" fill="none" stroke="#FFFFFF" stroke-width="3.9999" d="M365.239,432.175
		c143.428,0,259.834-44.736,259.834-100.635c0-55.683-116.406-100.849-259.834-100.849c-143.447,0-259.829,45.166-259.829,100.849
		C105.41,387.439,221.792,432.175,365.239,432.175z"/>
	<path id="path46" fill="#FFFFFF" d="M305.854,292.156l21.484,32.031l-81.191,18.691l17.842-14.561l-125.381-21.396l31.348-23.642
		l121.055,20.537L305.854,292.156"/>
	<path id="path48" fill="#FFFFFF" d="M420.171,369.851l-14.727-32.9l73.32-14.707l-13.008,11.533l122.344,20.693l-29.492,23.164
		l-121.172-22.656L420.171,369.851"/>
	<path id="path50" fill="#FFFFFF" d="M380.054,274.636l81.797-22.49l1.289,35.039l-20.801-3.887l-39.932,33.105l-38.018-5.488
		l41.152-32.363L380.054,274.636"/>
	<path id="path52" fill="#FFFFFF" d="M344.927,400.124l-78.096,14.697l-2.842-35.918l22.354,4.766l42.969-36.602l37.969,6.318
		L321.489,393.2L344.927,400.124"/>
</g>
</svg>
