<?xml version="1.0" encoding="utf-8"?>
<!-- Generator: Adobe Illustrator 16.0.0, SVG Export Plug-In . SVG Version: 6.00 Build 0)  -->
<!DOCTYPE svg PUBLIC "-//W3C//DTD SVG 1.1//EN" "http://www.w3.org/Graphics/SVG/1.1/DTD/svg11.dtd">
<svg version="1.1"
	 id="svg2" xmlns:dc="http://purl.org/dc/elements/1.1/" xmlns:cc="http://creativecommons.org/ns#" xmlns:rdf="http://www.w3.org/1999/02/22-rdf-syntax-ns#" xmlns:svg="http://www.w3.org/2000/svg"
	 xmlns="http://www.w3.org/2000/svg" xmlns:xlink="http://www.w3.org/1999/xlink" x="0px" y="0px" width="75px" height="65px"
	 viewBox="0 0 75 65" enable-background="new 0 0 75 65" xml:space="preserve">
<g id="g12" transform="scale(0.1,0.1)">
	<path id="path14" fill="#1582BA" d="M749.998,145.786c0,80.557-167.832,145.811-375.01,145.811
		c-207.173,0-374.99-65.254-374.99-145.811v358.427c0,80.527,167.817,145.781,374.99,145.781
		c207.178,0,375.01-65.254,375.01-145.781V145.786"/>
	<path id="path16" fill="none" stroke="#FFFFFF" stroke-width="4" d="M749.998,145.786c0,80.557-167.832,145.811-375.01,145.811
		c-207.173,0-374.99-65.254-374.99-145.811v358.427c0,80.527,167.817,145.781,374.99,145.781
		c207.178,0,375.01-65.254,375.01-145.781V145.786z"/>
	<path id="path18" fill="#1582BA" d="M374.988,291.597c207.178,0,375.01-65.254,375.01-145.811C749.998,65.239,582.166,0,374.988,0
		C167.815,0-0.002,65.239-0.002,145.786C-0.002,226.343,167.815,291.597,374.988,291.597"/>
	<path id="path20" fill="none" stroke="#FFFFFF" stroke-width="4" d="M374.988,291.597c207.178,0,375.01-65.254,375.01-145.811
		C749.998,65.239,582.166,0,374.988,0C167.815,0-0.002,65.239-0.002,145.786C-0.002,226.343,167.815,291.597,374.988,291.597z"/>
	<path id="path22" fill="#FFFFFF" d="M292.917,87.314l31.445,47.163l-118.848,27.446l25.957-21.606L48,108.896l46.064-34.473
		l177.017,30L292.917,87.314"/>
	<path id="path24" fill="#FFFFFF" d="M459.949,201.558l-21.338-48.481l107.021-21.489l-18.467,16.729l178.301,30.444l-42.705,34.185
		l-177.344-33.306L459.949,201.558"/>
	<path id="path26" fill="#FFFFFF" d="M401.394,61.626l120-32.871l1.455,51.489l-30.01-5.762l-58.555,48.599l-55.938-8.247
		l60.42-47.407L401.394,61.626"/>
	<path id="path28" fill="#FFFFFF" d="M350.027,245.835l-114.229,21.504l-4.336-52.949l32.9,7.227l62.773-53.77l55.781,9.463
		l-67.207,58.574L350.027,245.835"/>
	<path id="path30" fill="#FFFFFF" d="M689.089,553.354V425.112l-77.432,61.563L689.089,553.354"/>
	<path id="path32" fill="none" stroke="#000000" stroke-width="3" d="M689.089,553.354V425.112l-77.432,61.563L689.089,553.354z"/>
	<path id="path34" fill="#FFFFFF" d="M63.391,553.667V425.425l77.256,61.582L63.391,553.667"/>
	<path id="path36" fill="none" stroke="#000000" stroke-width="3" d="M63.391,553.667V425.425l77.256,61.582L63.391,553.667z"/>
	<path id="path38" fill="#FFFFFF" d="M115.295,299.038v128.418L38.01,365.874L115.295,299.038"/>
	<path id="path40" fill="none" stroke="#000000" stroke-width="3" d="M115.295,299.038v128.418L38.01,365.874L115.295,299.038z"/>
	<path id="path42" fill="#FFFFFF" d="M631.316,298.569V426.87l77.139-61.602L631.316,298.569"/>
	<path id="path44" fill="none" stroke="#000000" stroke-width="3" d="M631.316,298.569V426.87l77.139-61.602L631.316,298.569z"/>
	<path id="path46" fill="none" stroke="#FFFFFF" stroke-width="7.6" d="M648.113,360.991h-46.738"/>
	<path id="path48" fill="none" stroke="#FFFFFF" stroke-width="7.6" d="M664.353,485.483h58.467"/>
	<path id="path50" fill="none" stroke="#FFFFFF" stroke-width="7.6" d="M84.138,486.089H21.912"/>
	<path id="path52" fill="none" stroke="#FFFFFF" stroke-width="7.6" d="M86.765,365.425h58.33"/>
	<path id="path54" fill="#FFFFFF" d="M540.75,400.522l-0.225,230.664h-336.23l-0.342-230.664H540.75"/>
	<path id="path56" fill="none" stroke="#000000" stroke-width="3" d="M540.75,400.522l-0.225,230.664h-336.23l-0.342-230.664H540.75
		z"/>
	<path id="path58" fill="#FFFFFF" d="M461.941,336.557c0,0,13.203-1.465,16.162,11.758l2.92,42.52l88.076,14.688l8.799-19.082
		l-22.041-52.813c-113.271-28.017-221.865-19.209-221.865-19.209h4.385c0,0-39.619-8.809-152.788,19.209l-21.987,52.813
		l8.784,19.082l88.091-14.688l2.92-42.52c2.91-13.223,16.279-11.758,16.279-11.758H461.941"/>
	<path id="path60" fill="none" stroke="#000000" stroke-width="3" d="M461.941,336.557c0,0,13.203-1.465,16.162,11.758l2.92,42.52
		l88.076,14.688l8.799-19.082l-22.041-52.813c-113.271-28.017-221.865-19.209-221.865-19.209h4.385c0,0-39.619-8.809-152.788,19.209
		l-21.987,52.813l8.784,19.082l88.091-14.688l2.92-42.52c2.91-13.223,16.279-11.758,16.279-11.758H461.941z"/>
	<path id="path62" fill="#FFFFFF" d="M524.48,413.647l-0.195,41.602H221.57l-0.322-41.602H524.48"/>
	<path id="path64" fill="none" stroke="#000000" stroke-width="3" d="M524.48,413.647l-0.195,41.602H221.57l-0.322-41.602H524.48z"
		/>
	<path id="path66" fill="#FFFFFF" d="M521.57,472.983l-0.176,143.516H222.927l-0.288-143.516H521.57"/>
	<path id="path68" fill="none" stroke="#020202" stroke-width="3" d="M521.57,472.983l-0.176,143.516H222.927l-0.288-143.516H521.57
		z"/>
	<path id="path70" fill="none" stroke="#030303" stroke-width="2.521" d="M244.988,605.229h254.736V480.171H244.988V605.229z"/>
	<path id="path72" fill="#FFFFFF" d="M222.639,472.983l154.995,78.438l143.936-78.438H222.639"/>
	<path id="path74" fill="none" stroke="#020202" stroke-width="2.521" d="M222.639,472.983l154.995,78.438l143.936-78.438H222.639z"
		/>
</g>
</svg>
