<?xml version="1.0" encoding="utf-8"?>
<!-- Generator: Adobe Illustrator 16.0.0, SVG Export Plug-In . SVG Version: 6.00 Build 0)  -->
<!DOCTYPE svg PUBLIC "-//W3C//DTD SVG 1.1//EN" "http://www.w3.org/Graphics/SVG/1.1/DTD/svg11.dtd">
<svg version="1.1"
	 id="svg2" xmlns:dc="http://purl.org/dc/elements/1.1/" xmlns:cc="http://creativecommons.org/ns#" xmlns:rdf="http://www.w3.org/1999/02/22-rdf-syntax-ns#" xmlns:svg="http://www.w3.org/2000/svg"
	 xmlns="http://www.w3.org/2000/svg" xmlns:xlink="http://www.w3.org/1999/xlink" x="0px" y="0px" width="80px" height="72px"
	 viewBox="0 0 80 72" enable-background="new 0 0 80 72" xml:space="preserve">
<g id="g12" transform="scale(0.1,0.1)">
	<path id="path22" fill="#087BBB" d="M14.998,604.331h659.375V480.932H14.998V604.331z"/>
	<path id="path24" fill="none" stroke="#FFFFFF" stroke-width="3.9999" d="M14.998,604.331h659.375V480.932H14.998V604.331z"/>
	<path id="path26" fill="#087BBB" d="M472.292,550.835h166.24"/>
	<path id="path28" fill="none" stroke="#FFFFFF" stroke-width="3.9999" d="M472.292,550.835h166.24"/>
	<path id="path30" fill="#087BBB" d="M472.292,544.897h166.24"/>
	<path id="path32" fill="none" stroke="#FFFFFF" stroke-width="3.9999" d="M472.292,544.897h166.24"/>
	<path id="path34" fill="#087BBB" d="M784.998,487.182V376.596L674.324,481.538v122.793L784.998,487.182"/>
	<path id="path36" fill="none" stroke="#FFFFFF" stroke-width="3.9999" d="M784.998,487.182V376.596L674.324,481.538v122.793
		L784.998,487.182z"/>
	<path id="path38" fill="#087BBB" d="M557.175,704.995v-27.461l60.02-82.988v50.84L557.175,704.995"/>
	<path id="path40" fill="none" stroke="#FFFFFF" stroke-width="3.9999" d="M557.175,704.995v-27.461l60.02-82.988v50.84
		L557.175,704.995z"/>
	<path id="path42" fill="#087BBB" d="M28.977,704.995h528.198v-27.207H28.977V704.995z"/>
	<path id="path44" fill="none" stroke="#FFFFFF" stroke-width="3.9999" d="M28.977,704.995h528.198v-27.207H28.977V704.995z"/>
	<path id="path46" fill="#087BBB" d="M557.175,677.788H30.75l59.854-83.242h526.592L557.175,677.788"/>
	<path id="path48" fill="none" stroke="#FFFFFF" stroke-width="3.9999" d="M557.175,677.788H30.75l59.854-83.242h526.592
		L557.175,677.788z"/>
	<path id="path50" fill="#087BBB" d="M784.998,376.733H125.491L14.998,480.932h659.375L784.998,376.733"/>
	<path id="path52" fill="none" stroke="#FFFFFF" stroke-width="3.9999" d="M784.998,376.733H125.491L14.998,480.932h659.375
		L784.998,376.733z"/>
	<path id="path54" fill="#087BBB" d="M660.837,377.3H219.456l-74.004,69.727h441.226L660.837,377.3"/>
	<path id="path56" fill="none" stroke="#FFFFFF" stroke-width="3.9999" d="M660.837,377.3H219.456l-74.004,69.727h441.226
		L660.837,377.3z"/>
	<path id="path58" fill="#087BBB" d="M132.971,419.565H587.39V86.987H132.971V419.565z"/>
	<path id="path60" fill="none" stroke="#FFFFFF" stroke-width="3.9999" d="M132.971,419.565H587.39V86.987H132.971V419.565z"/>
	<path id="path62" fill="#087BBB" d="M171.345,159.907c0-33.423,34.653-38.34,34.653-38.34s267.612,0,299.858,0
		c42.109,0,40.771,39.531,40.771,39.531s0,163.311,0,186.885c0,23.418-32.256,33.242-32.256,33.242s-273.73,0-303.457,0
		c-29.712,0-39.57-30.859-39.57-30.859V159.907"/>
	<path id="path64" fill="none" stroke="#FFFFFF" stroke-width="3.9999" d="M171.345,159.907c0-33.423,34.653-38.34,34.653-38.34
		s267.612,0,299.858,0c42.109,0,40.771,39.531,40.771,39.531s0,163.311,0,186.885c0,23.418-32.256,33.242-32.256,33.242
		s-273.73,0-303.457,0c-29.712,0-39.57-30.859-39.57-30.859V159.907z"/>
	<path id="path66" fill="#087BBB" d="M663.777,15.093H209.055l-76.084,71.895H587.39L663.777,15.093"/>
	<path id="path68" fill="none" stroke="#FFFFFF" stroke-width="3.9999" d="M663.777,15.093H209.055l-76.084,71.895H587.39
		L663.777,15.093z"/>
	<path id="path70" fill="#087BBB" d="M663.777,348.901V15l-75.645,71.294V420.19L663.777,348.901"/>
	<path id="path72" fill="none" stroke="#FFFFFF" stroke-width="3.9999" d="M663.777,348.901V15l-75.645,71.294V420.19
		L663.777,348.901z"/>
	<path id="path74" fill="#087BBB" d="M430.837,178.228v150.283"/>
	<path id="path76" fill="none" stroke="#FFFFFF" stroke-width="3.9999" d="M430.837,178.228v150.283"/>
	<path id="path78" fill="#087BBB" d="M283.816,328.511V156.182"/>
	<path id="path80" fill="none" stroke="#FFFFFF" stroke-width="3.9999" d="M283.816,328.511V156.182"/>
	<path id="path82" fill="#087BBB" d="M283.816,328.979c31.133,70.82,59.375-8.32,59.375-8.32h138.652
		c-14.199,36.758-33.906,39.492-33.906,39.492H317.683C292.195,357.417,283.816,328.979,283.816,328.979"/>
	<path id="path84" fill="none" stroke="#FFFFFF" stroke-width="3.9999" d="M283.816,328.979c31.133,70.82,59.375-8.32,59.375-8.32
		h138.652c-14.199,36.758-33.906,39.492-33.906,39.492H317.683C292.195,357.417,283.816,328.979,283.816,328.979z"/>
	<path id="path86" fill="#087BBB" d="M317.683,241.069h82.012"/>
	<path id="path88" fill="none" stroke="#FFFFFF" stroke-width="3.9999" d="M317.683,241.069h82.012"/>
	<path id="path90" fill="#087BBB" d="M317.683,257.983h82.012"/>
	<path id="path92" fill="none" stroke="#FFFFFF" stroke-width="3.9999" d="M317.683,257.983h82.012"/>
	<path id="path94" fill="#087BBB" d="M317.683,280.542h82.012"/>
	<path id="path96" fill="none" stroke="#FFFFFF" stroke-width="3.9999" d="M317.683,280.542h82.012"/>
	<path id="path98" fill="#087BBB" d="M317.683,297.632h82.012"/>
	<path id="path100" fill="none" stroke="#FFFFFF" stroke-width="3.9999" d="M317.683,297.632h82.012"/>
	<path id="path102" fill="#087BBB" d="M428.777,173.359l-8.389-25.459H284.187c0,0-22.598-2.915-28.242,36.733v30.972h27.48v-42.246
		"/>
	<path id="path104" fill="none" stroke="#FFFFFF" stroke-width="3.9999" d="M428.777,173.359l-8.389-25.459H284.187
		c0,0-22.598-2.915-28.242,36.733v30.972h27.48v-42.246"/>
	<path id="path106" fill="#087BBB" d="M281.101,147.9c0,0-22.734-2.915-28.398,36.733v30.972"/>
	<path id="path108" fill="none" stroke="#FFFFFF" stroke-width="3.9999" d="M281.101,147.9c0,0-22.734-2.915-28.398,36.733v30.972"
		/>
	<path id="path110" fill="#087BBB" d="M317.683,198.667h82.012"/>
	<path id="path112" fill="none" stroke="#FFFFFF" stroke-width="3.9999" d="M317.683,198.667h82.012"/>
	<path id="path114" fill="#087BBB" d="M317.683,181.738h82.012"/>
	<path id="path116" fill="none" stroke="#FFFFFF" stroke-width="3.9999" d="M317.683,181.738h82.012"/>
	<path id="path118" fill="#087BBB" d="M286.062,329.741V168.828"/>
	<path id="path120" fill="none" stroke="#FFFFFF" stroke-width="3.9999" d="M286.062,329.741V168.828"/>
</g>
</svg>
