<?xml version="1.0" encoding="utf-8"?>
<!-- Generator: Adobe Illustrator 16.0.0, SVG Export Plug-In . SVG Version: 6.00 Build 0)  -->
<!DOCTYPE svg PUBLIC "-//W3C//DTD SVG 1.1//EN" "http://www.w3.org/Graphics/SVG/1.1/DTD/svg11.dtd">
<svg version="1.1"
	 id="svg2" xmlns:dc="http://purl.org/dc/elements/1.1/" xmlns:cc="http://creativecommons.org/ns#" xmlns:rdf="http://www.w3.org/1999/02/22-rdf-syntax-ns#" xmlns:svg="http://www.w3.org/2000/svg"
	 xmlns="http://www.w3.org/2000/svg" xmlns:xlink="http://www.w3.org/1999/xlink" x="0px" y="0px" width="64px" height="78px"
	 viewBox="0 0 64 78" enable-background="new 0 0 64 78" xml:space="preserve">
<g id="g12" transform="scale(0.1,0.1)">
	<path id="path14" fill="#2B659D" d="M15.073,764.35h382.104V98.057H15.073V764.35z"/>
	<path id="path16" fill="none" stroke="#FFFFFF" stroke-width="4" d="M15.073,764.35h382.104V98.057H15.073V764.35z"/>
	<path id="path18" fill="none" stroke="#FFFFFF" stroke-width="4" d="M15,718.901h380.508"/>
	<path id="path20" fill="none" stroke="#FFFFFF" stroke-width="6" d="M378.77,610.561c0,40.811-32.92,73.721-73.369,73.721
		c-40.615,0-73.535-32.91-73.535-73.721c0-40.41,32.92-73.359,73.535-73.359C345.85,537.202,378.77,570.151,378.77,610.561z"/>
	<path id="path22" fill="#FFFFFF" d="M325.908,610.561c0,11.504-9.17,20.508-20.508,20.508s-20.498-9.004-20.498-20.508
		c0-11.152,9.16-20.508,20.498-20.508S325.908,599.409,325.908,610.561"/>
	<path id="path24" fill="none" stroke="#FFFFFF" stroke-width="4" d="M325.908,610.561c0,11.504-9.17,20.508-20.508,20.508
		s-20.498-9.004-20.498-20.508c0-11.152,9.16-20.508,20.498-20.508S325.908,599.409,325.908,610.561z"/>
	<path id="path26" fill="none" stroke="#FFFFFF" stroke-width="6" d="M182.695,610.639c0,40.801-32.92,73.711-73.54,73.711
		c-40.605,0-73.354-32.91-73.354-73.711c0-40.43,32.749-73.34,73.354-73.34C149.775,537.3,182.695,570.21,182.695,610.639z"/>
	<path id="path28" fill="none" stroke="#FFFFFF" stroke-width="8" stroke-linecap="round" d="M79.487,640.503l59.351-59.355"/>
	<path id="path30" fill="none" stroke="#FFFFFF" stroke-width="8" stroke-linecap="round" d="M79.487,581.147l59.351,59.355"/>
	<path id="path32" fill="none" stroke="#FFFFFF" stroke-width="6" d="M278.984,449.389c0,40.781-32.949,73.359-73.574,73.359
		c-40.605,0-73.54-32.578-73.54-73.359c0-40.449,32.935-73.359,73.54-73.359C246.035,376.03,278.984,408.94,278.984,449.389z"/>
	<path id="path34" fill="none" stroke="#FFFFFF" stroke-width="8" stroke-linecap="round" d="M191.191,481.675l-23.916-23.75"/>
	<path id="path36" fill="none" stroke="#FFFFFF" stroke-width="8" stroke-linecap="round" d="M245.684,427.358l-54.492,54.316"/>
	<path id="path38" fill="#2B659D" d="M15.073,98.057l134.741-83.062h368.662L397.178,98.057H15.073"/>
	<path id="path40" fill="none" stroke="#FFFFFF" stroke-width="4" d="M15.073,98.057l134.741-83.062h368.662L397.178,98.057H15.073z
		"/>
	<path id="path42" fill="#2B659D" d="M397.578,764.995l118.691-96.68V15.664L397.578,95.186V764.995"/>
	<path id="path44" fill="none" stroke="#FFFFFF" stroke-width="4" d="M397.578,764.995l118.691-96.68V15.664L397.578,95.186V764.995
		z"/>
	<path id="path46" fill="none" stroke="#FFFFFF" stroke-width="3" d="M15,349.663h380.508"/>
	<path id="path48" fill="#2B659D" d="M45.449,217.983h177.48v-72.896H45.449V217.983z"/>
	<path id="path50" fill="none" stroke="#FFFFFF" stroke-width="4" d="M45.449,217.983h177.48v-72.896H45.449V217.983z"/>
	<path id="path52" d="M63.286,184.146h143.901"/>
	<path id="path54" fill="none" stroke="#FFFFFF" stroke-width="4" d="M63.286,184.146h143.901"/>
	<path id="path56" fill="#FFFFFF" d="M514.795,318.979h11.221c85.586,0,98.984,76.875,98.984,76.875V316.03
		c0,0-13.398-76.865-98.984-76.865h-13.447"/>
	<path id="path58" fill="none" stroke="#231F20" stroke-width="4" d="M514.795,318.979h11.221c85.586,0,98.984,76.875,98.984,76.875
		V316.03c0,0-13.398-76.865-98.984-76.865h-13.447"/>
	<path id="path60" fill="#FFFFFF" d="M625,311.616v94.551c-9.053,112.188-208.252,106.309-208.252,106.309v82.754L286.699,465.366
		l130.049-130.02v82.578C416.748,417.925,619.111,423.823,625,311.616"/>
	<path id="path62" fill="none" stroke="#000000" stroke-width="4" d="M625,311.616v94.551
		c-9.053,112.188-208.252,106.309-208.252,106.309v82.754L286.699,465.366l130.049-130.02v82.578
		C416.748,417.925,619.111,423.823,625,311.616"/>
</g>
</svg>
