<?xml version="1.0" encoding="utf-8"?>
<!-- Generator: Adobe Illustrator 16.0.0, SVG Export Plug-In . SVG Version: 6.00 Build 0)  -->
<!DOCTYPE svg PUBLIC "-//W3C//DTD SVG 1.1//EN" "http://www.w3.org/Graphics/SVG/1.1/DTD/svg11.dtd">
<svg version="1.1"
	 id="svg2" xmlns:dc="http://purl.org/dc/elements/1.1/" xmlns:cc="http://creativecommons.org/ns#" xmlns:rdf="http://www.w3.org/1999/02/22-rdf-syntax-ns#" xmlns:svg="http://www.w3.org/2000/svg"
	 xmlns="http://www.w3.org/2000/svg" xmlns:xlink="http://www.w3.org/1999/xlink" x="0px" y="0px" width="77px" height="62px"
	 viewBox="0 0 77 62" enable-background="new 0 0 77 62" xml:space="preserve">
<g id="g12" transform="scale(0.1,0.1)">
	<path id="path22" fill="#087BBB" d="M88.464,493.679h442.212v-83.643H88.464V493.679z"/>
	<path id="path24" fill="none" stroke="#FFFFFF" stroke-width="3.9999" d="M88.464,493.679h442.212v-83.643H88.464V493.679z"/>
	<path id="path26" fill="#087BBB" d="M605.383,334.841v84.063l-74.707,74.775v-83.643H88.464"/>
	<path id="path28" fill="none" stroke="#FFFFFF" stroke-width="3.9999" d="M605.383,334.841v84.063l-74.707,74.775v-83.643H88.464"
		/>
	<path id="path30" fill="#231F20" d="M88.464,334.841h516.919"/>
	<path id="path32" fill="none" stroke="#FFFFFF" stroke-width="3.9999" stroke-linejoin="bevel" d="M88.464,334.841h516.919"/>
	<path id="path34" fill="#231F20" d="M530.676,410.036l74.707-75.195"/>
	<path id="path36" fill="none" stroke="#FFFFFF" stroke-width="3.9999" stroke-linejoin="bevel" d="M530.676,410.036l74.707-75.195"
		/>
	<path id="path38" fill="#087BBB" d="M508.84,553.884V504.89H0.002l57.886-57.93h508.843v49.004L508.84,553.884"/>
	<path id="path40" fill="none" stroke="#FFFFFF" stroke-width="3.9999" d="M508.84,553.884V504.89H0.002l57.886-57.93h508.843
		v49.004L508.84,553.884z"/>
	<path id="path42" fill="#087BBB" d="M0.002,553.884H508.84V504.89H0.002V553.884z"/>
	<path id="path44" fill="none" stroke="#FFFFFF" stroke-width="3.9999" d="M0.002,553.884H508.84V504.89H0.002V553.884z"/>
	<path id="path46" fill="#231F20" d="M508.84,504.89l57.891-57.93"/>
	<path id="path48" fill="none" stroke="#FFFFFF" stroke-width="3.9999" stroke-linejoin="bevel" d="M508.84,504.89l57.891-57.93"/>
	<path id="path50" fill="#087BBB" d="M88.464,410.036h441.558V75.525H88.464V410.036z"/>
	<path id="path52" fill="none" stroke="#FFFFFF" stroke-width="3.9999" d="M88.464,410.036h441.558V75.525H88.464V410.036z"/>
	<path id="path54" fill="#087BBB" d="M530.022,410.036l75.361-75.195V-0.002h-442.09L88.464,75.525h441.558V410.036"/>
	<path id="path56" fill="none" stroke="#FFFFFF" stroke-width="3.9999" d="M530.022,410.036l75.361-75.195V-0.002h-442.09
		L88.464,75.525h441.558V410.036z"/>
	<path id="path58" fill="#087BBB" d="M126.589,370.29h364.946V114.06H126.589V370.29z"/>
	<path id="path60" fill="none" stroke="#FFFFFF" stroke-width="3.9999" d="M126.589,370.29h364.946V114.06H126.589V370.29z"/>
	<path id="path62" fill="#231F20" d="M530.022,75.525l75.361-75.527"/>
	<path id="path64" fill="none" stroke="#FFFFFF" stroke-width="3.9999" stroke-linejoin="bevel" d="M530.022,75.525l75.361-75.527"
		/>
	<path id="path66" fill="#087BBB" d="M770.002,567.888l-76.465-105.986l-72.305,52.109l76.475,105.986L770.002,567.888"/>
	<path id="path68" fill="none" stroke="#FFFFFF" stroke-width="3.9999" d="M770.002,567.888l-76.465-105.986l-72.305,52.109
		l76.475,105.986L770.002,567.888z"/>
	<path id="path70" fill="none" stroke="#087BBB" stroke-width="3.9999" d="M658.821,486.687
		c-12.959-21.787-36.367-8.34-31.563-44.805c5.166-37.119-19.775-61.836-65.322-41.377"/>
	<path id="path72" fill="none" stroke="#FFFFFF" stroke-width="3.9999" d="M233.44,223.767c22.915,0,41.445-18.662,41.445-41.602
		s-18.53-41.455-41.445-41.455c-22.925,0-41.582,18.516-41.582,41.455S210.515,223.767,233.44,223.767z"/>
	<path id="path74" fill="none" stroke="#FFFFFF" stroke-width="3.9999" d="M382.727,223.767c22.783,0,41.445-18.662,41.445-41.602
		s-18.662-41.455-41.445-41.455c-22.91,0-41.426,18.516-41.426,41.455S359.817,223.767,382.727,223.767z"/>
	<path id="path76" fill="none" stroke="#FFFFFF" stroke-width="3.9999" d="M308.02,352.81c22.91,0,41.572-18.672,41.572-41.611
		c0-22.92-18.662-41.465-41.572-41.465s-41.445,18.545-41.445,41.465C266.575,334.138,285.11,352.81,308.02,352.81z"/>
	<path id="path78" fill="none" stroke="#FFFFFF" stroke-width="3.9999" d="M233.44,223.767l23.242,39.521l9.17-24.756l23.213,35.469
		"/>
	<path id="path80" fill="none" stroke="#FFFFFF" stroke-width="3.9999" d="M330.774,277.195l16.963-37.148l13.906,21.699
		l21.084-37.979"/>
	<path id="path82" fill="none" stroke="#FFFFFF" stroke-width="3.9999" d="M341.301,182.166l-36.797,11.572l7.656-21.553
		l-37.275,9.98"/>
</g>
</svg>
