<?xml version="1.0" encoding="utf-8"?>
<!-- Generator: Adobe Illustrator 16.0.0, SVG Export Plug-In . SVG Version: 6.00 Build 0)  -->
<!DOCTYPE svg PUBLIC "-//W3C//DTD SVG 1.1//EN" "http://www.w3.org/Graphics/SVG/1.1/DTD/svg11.dtd">
<svg version="1.1"
	 id="svg2" xmlns:dc="http://purl.org/dc/elements/1.1/" xmlns:cc="http://creativecommons.org/ns#" xmlns:rdf="http://www.w3.org/1999/02/22-rdf-syntax-ns#" xmlns:svg="http://www.w3.org/2000/svg"
	 xmlns="http://www.w3.org/2000/svg" xmlns:xlink="http://www.w3.org/1999/xlink" x="0px" y="0px" width="80px" height="68px"
	 viewBox="0 0 80 68" enable-background="new 0 0 80 68" xml:space="preserve">
<g id="g12" transform="scale(0.1,0.1)">
	<path id="path22" fill="#231F20" d="M657.92,387.671l-61.221,81.973H87.705l83.374-83.477L657.92,387.671"/>
	<path id="path24" fill="none" stroke="#FFFFFF" stroke-width="3.9999" d="M657.92,387.671l-61.221,81.973H87.705l83.374-83.477
		L657.92,387.671z"/>
	<path id="path26" fill="#087BBB" d="M86.436,561.85h488.457V470.6H86.436V561.85z"/>
	<path id="path28" fill="none" stroke="#FFFFFF" stroke-width="3.9999" d="M86.436,561.85h488.457V470.6H86.436V561.85z"/>
	<path id="path30" fill="#087BBB" d="M84.849,450.171H571.67V83.052H84.849V450.171z"/>
	<path id="path32" fill="none" stroke="#FFFFFF" stroke-width="3.9999" d="M84.849,450.171H571.67V83.052H84.849V450.171z"/>
	<path id="path34" fill="#087BBB" d="M571.67,450.171l82.939-83.008V0L571.67,83.052V450.171"/>
	<path id="path36" fill="none" stroke="#FFFFFF" stroke-width="3.9999" d="M571.67,450.171l82.939-83.008V0L571.67,83.052V450.171z"
		/>
	<path id="path38" fill="#087BBB" d="M755.42,641.772l37.344-74.414h-85.156l-37.354,74.414H755.42"/>
	<path id="path40" fill="none" stroke="#FFFFFF" stroke-width="3.9999" d="M755.42,641.772l37.344-74.414h-85.156l-37.354,74.414
		H755.42z"/>
	<path id="path42" fill="#087BBB" d="M670.254,665.854h85.166v-24.082h-85.166V665.854z"/>
	<path id="path44" fill="none" stroke="#FFFFFF" stroke-width="3.9999" d="M670.254,665.854h85.166v-24.082h-85.166V665.854z"/>
	<path id="path46" fill="#231F20" d="M754.688,666.557l0.137-24.785l37.354-74.414l-0.117,51.055L754.688,666.557"/>
	<path id="path48" fill="none" stroke="#FFFFFF" stroke-width="3.9999" d="M754.688,666.557l0.137-24.785l37.354-74.414
		l-0.117,51.055L754.688,666.557z"/>
	<path id="path50" fill="#087BBB" d="M574.336,561.968v-91.27l82.617-82.363v90.957L574.336,561.968"/>
	<path id="path52" fill="none" stroke="#FFFFFF" stroke-width="3.9999" d="M574.336,561.968v-91.27l82.617-82.363v90.957
		L574.336,561.968z"/>
	<path id="path54" fill="#087BBB" d="M165.659,125.396h325.093c21.143,0,38.301,17.183,38.301,38.32v205.361
		c0,21.152-17.158,38.32-38.301,38.32H165.659c-21.147,0-38.315-17.168-38.315-38.32V163.716
		C127.344,142.578,144.512,125.396,165.659,125.396"/>
	<path id="path56" fill="none" stroke="#FFFFFF" stroke-width="3.9999" d="M165.659,125.396h325.093
		c21.143,0,38.301,17.183,38.301,38.32v205.361c0,21.152-17.158,38.32-38.301,38.32H165.659c-21.147,0-38.315-17.168-38.315-38.32
		V163.716C127.344,142.578,144.512,125.396,165.659,125.396z"/>
	<path id="path58" fill="#087BBB" d="M654.609,0H181.24L84.849,83.052H571.67L654.609,0"/>
	<path id="path60" fill="none" stroke="#FFFFFF" stroke-width="3.9999" d="M654.609,0H181.24L84.849,83.052H571.67L654.609,0z"/>
	<path id="path62" fill="#087BBB" d="M560.254,679.995v-29.59l63.857-88.262v54.004L560.254,679.995"/>
	<path id="path64" fill="none" stroke="#FFFFFF" stroke-width="3.9999" d="M560.254,679.995v-29.59l63.857-88.262v54.004
		L560.254,679.995z"/>
	<path id="path66" fill="#087BBB" d="M560.254,650.971H0.347l63.716-88.828h560.049L560.254,650.971"/>
	<path id="path68" fill="none" stroke="#FFFFFF" stroke-width="3.9999" d="M560.254,650.971H0.347l63.716-88.828h560.049
		L560.254,650.971z"/>
	<path id="path70" fill="#087BBB" d="M0,679.995h560.254v-29.023H0V679.995z"/>
	<path id="path72" fill="none" stroke="#FFFFFF" stroke-width="3.9999" d="M0,679.995h560.254v-29.023H0V679.995z"/>
	<path id="path74" fill="none" stroke="#087BBB" stroke-width="5" d="M771.24,569.897c66.758-31.992,13.301-167.539-119.063-99.531"
		/>
	<path id="path76" fill="#FFFFFF" d="M318.389,248.091l17.637-0.01l4.18,4.023h13.672l15.215-11.055l16.426-0.029l14.053,15.459
		l15.42-0.029l17.041-15.635l14.17-0.02l12.383,13.34h14.082l5.342-10.166l40.938,25.186l-28.535,24.297l-172.002,0.332v5.527
		l-26.699,0.029c-6.855,0.01-12.52,3.965-15.215,9.766c-12.793,20.02-35.059,33.33-60.444,33.515
		c-39.531,0.049-71.606-32.295-71.606-72.158s32.075-72.261,71.606-72.295c25.044-0.039,47.183,12.9,59.985,32.49
		c2.451,6.23,8.428,10.615,15.518,10.615l26.836-0.049V248.091"/>
	<path id="path78" fill="none" stroke="#231F20" stroke-width="3.5001" stroke-linejoin="round" d="M503.066,281.733l-184.658,0.332
		c-7.148,0.02-17.295,1.953-26.65,5.898c9.355,3.906,19.502,5.82,26.65,5.82"/>
	<path id="path80" fill="none" stroke="#231F20" stroke-width="3.5001" stroke-linejoin="round" d="M510.986,264.917l-184.512,0.332
		c-8.184,0.01-25.361-1.768-29.258-3.32"/>
	<path id="path82" fill="#FFFFFF" d="M216.05,334.848c35.415-0.039,64.019-28.945,64.019-64.658
		c0-35.596-28.604-64.282-64.019-64.248c-35.269,0.039-64.023,28.936-64.023,64.502C152.026,306.03,180.781,334.887,216.05,334.848"
		/>
	<path id="path84" fill="none" stroke="#231F20" stroke-width="2.5" stroke-linejoin="round" d="M216.05,334.848
		c35.415-0.039,64.019-28.945,64.019-64.658c0-35.596-28.604-64.282-64.019-64.248c-35.269,0.039-64.023,28.936-64.023,64.502
		C152.026,306.03,180.781,334.887,216.05,334.848z"/>
	<path id="path86" fill="#FFFFFF" d="M179.375,287.3c9.307,0,16.787-7.52,16.787-16.885c0-9.346-7.48-16.865-16.787-16.865
		c-9.18,0.029-16.792,7.549-16.792,16.895C162.583,279.8,170.195,287.3,179.375,287.3"/>
	<path id="path88" fill="none" stroke="#231F20" stroke-width="3.5001" stroke-linejoin="round" d="M179.375,287.3
		c9.307,0,16.787-7.52,16.787-16.885c0-9.346-7.48-16.865-16.787-16.865c-9.18,0.029-16.792,7.549-16.792,16.895
		C162.583,279.8,170.195,287.3,179.375,287.3z"/>
</g>
</svg>
