<?xml version="1.0" encoding="utf-8"?>
<!-- Generator: Adobe Illustrator 16.0.0, SVG Export Plug-In . SVG Version: 6.00 Build 0)  -->
<!DOCTYPE svg PUBLIC "-//W3C//DTD SVG 1.1//EN" "http://www.w3.org/Graphics/SVG/1.1/DTD/svg11.dtd">
<svg version="1.1"
	 id="svg2" xmlns:dc="http://purl.org/dc/elements/1.1/" xmlns:cc="http://creativecommons.org/ns#" xmlns:rdf="http://www.w3.org/1999/02/22-rdf-syntax-ns#" xmlns:svg="http://www.w3.org/2000/svg"
	 xmlns="http://www.w3.org/2000/svg" xmlns:xlink="http://www.w3.org/1999/xlink" x="0px" y="0px" width="75px" height="67px"
	 viewBox="0 0 75 67" enable-background="new 0 0 75 67" xml:space="preserve">
<g id="g12" transform="scale(0.1,0.1)">
	<path id="path22" fill="#706D6E" d="M481.875,191.772l178.682,341.582"/>
	<path id="path24" fill="#087BBB" d="M575.83,0H267.012l-94.17,55.332h309.033L575.83,0"/>
	<path id="path26" fill="none" stroke="#FFFFFF" stroke-width="3.9999" d="M575.83,0H267.012l-94.17,55.332h309.033L575.83,0z"/>
	<path id="path28" fill="#087BBB" d="M660.703,533.354v136.641L750,614.878V478.237L575.83,136.616V0l-93.955,55.332v136.44"/>
	<path id="path30" fill="none" stroke="#FFFFFF" stroke-width="3.9999" d="M660.703,533.354v136.641L750,614.878V478.237
		L575.83,136.616V0l-93.955,55.332v136.44"/>
	<path id="path32" fill="#087BBB" d="M660.557,532.768L481.875,191.401v0.371V55.332H172.842v136.44v-0.371L0,532.768l0.449,0.586
		v136.641H661.25V533.354L660.557,532.768"/>
	<path id="path34" fill="none" stroke="#FFFFFF" stroke-width="3.9999" d="M660.557,532.768L481.875,191.401v0.371V55.332H172.842
		v136.44v-0.371L0,532.768l0.449,0.586v136.641H661.25V533.354L660.557,532.768z"/>
	<path id="path36" fill="#FFFFFF" d="M325.117,358.589h18.32V493.12h90.918l-100.41,120.449L234.004,493.12h91.133L325.117,358.589"
		/>
	<path id="path38" fill="#FFFFFF" d="M343.438,358.452h-18.32l0.02-134.765h-91.133l100.391-120.21l99.961,120.21h-90.918V358.452"
		/>
</g>
</svg>
