<?xml version="1.0" encoding="utf-8"?>
<!-- Generator: Adobe Illustrator 16.0.0, SVG Export Plug-In . SVG Version: 6.00 Build 0)  -->
<!DOCTYPE svg PUBLIC "-//W3C//DTD SVG 1.1//EN" "http://www.w3.org/Graphics/SVG/1.1/DTD/svg11.dtd">
<svg version="1.1"
	 id="svg2" xmlns:dc="http://purl.org/dc/elements/1.1/" xmlns:cc="http://creativecommons.org/ns#" xmlns:rdf="http://www.w3.org/1999/02/22-rdf-syntax-ns#" xmlns:svg="http://www.w3.org/2000/svg"
	 xmlns="http://www.w3.org/2000/svg" xmlns:xlink="http://www.w3.org/1999/xlink" x="0px" y="0px" width="80px" height="58px"
	 viewBox="0 0 80 58" enable-background="new 0 0 80 58" xml:space="preserve">
<g id="g12" transform="scale(0.1,0.1)">
	<path id="path14" fill="#087BBB" d="M15.002,564.995H705.51V111.294H15.002V564.995z"/>
	<path id="path16" fill="none" stroke="#FFFFFF" stroke-width="4" d="M15.002,564.995H705.51V111.294H15.002V564.995z"/>
	<path id="path18" fill="#087BBB" d="M785.002,448.706L705.51,564.995V111.294L785.002,15V448.706"/>
	<path id="path20" fill="none" stroke="#FFFFFF" stroke-width="4" d="M785.002,448.706L705.51,564.995V111.294L785.002,15V448.706z"
		/>
	<path id="path22" fill="#087BBB" d="M134.177,15h650.825l-79.492,96.294H15.002L134.177,15"/>
	<path id="path24" fill="none" stroke="#FFFFFF" stroke-width="4" d="M134.177,15h650.825l-79.492,96.294H15.002L134.177,15z"/>
	<path id="path26" fill="#FFFFFF" d="M115.872,230.522l-61.333,0.068v-18.389l61.333-0.059l0.029-28.652l67.051,37.93
		l-67.051,37.793L115.872,230.522"/>
	<path id="path28" fill="#FFFFFF" d="M115.872,345.073l-61.333,0.273V326.85l61.333-0.059l0.029-28.652l67.051,37.832
		l-67.051,38.008L115.872,345.073"/>
	<path id="path30" fill="#FFFFFF" d="M115.872,459.819l-61.333,0.059v-18.262l61.333-0.273l0.029-28.691l67.051,38.066
		l-67.051,37.813L115.872,459.819"/>
	<path id="path32" fill="#FFFFFF" d="M584.729,329.995l80.215-0.059v18.516l-80.215,0.059l-0.02,28.652l-67.197-37.813
		l67.197-38.047L584.729,329.995"/>
	<path id="path34" fill="#FFFFFF" d="M632.61,346.343l-80.225,0.059V328.12l80.225-0.059l0.225-28.867l66.963,38.027l-66.963,37.813
		L632.61,346.343"/>
	<path id="path36" fill="#087BBB" d="M247.434,379.975h253.359V236.06c-0.82-10.693-19.6-9.902-19.6-9.902H354.006v-26.099h-85.098
		v19.604h-21.445L247.434,379.975"/>
	<path id="path38" fill="none" stroke="#FFFFFF" stroke-width="4" d="M247.434,379.975h253.359V236.06
		c-0.82-10.693-19.6-9.902-19.6-9.902H354.006v-26.099h-85.098v19.604h-21.445L247.434,379.975z"/>
	<path id="path40" fill="#087BBB" d="M226.995,402.573h253.359V258.687c-0.801-10.723-19.531-9.805-19.531-9.805H333.459v-26.201
		h-84.985v19.6h-21.46L226.995,402.573"/>
	<path id="path42" fill="none" stroke="#FFFFFF" stroke-width="4" d="M226.995,402.573h253.359V258.687
		c-0.801-10.723-19.531-9.805-19.531-9.805H333.459v-26.201h-84.985v19.6h-21.46L226.995,402.573z"/>
	<path id="path44" fill="#087BBB" d="M202.581,426.518h253.34V282.554c-0.811-10.625-19.297-9.805-19.297-9.805H309.055v-26.094h-85
		v19.59H202.61L202.581,426.518"/>
	<path id="path46" fill="none" stroke="#FFFFFF" stroke-width="4" d="M202.581,426.518h253.34V282.554
		c-0.811-10.625-19.297-9.805-19.297-9.805H309.055v-26.094h-85v19.59H202.61L202.581,426.518z"/>
</g>
</svg>
