<?xml version="1.0" encoding="utf-8"?>
<!-- Generator: Adobe Illustrator 16.0.0, SVG Export Plug-In . SVG Version: 6.00 Build 0)  -->
<!DOCTYPE svg PUBLIC "-//W3C//DTD SVG 1.1//EN" "http://www.w3.org/Graphics/SVG/1.1/DTD/svg11.dtd">
<svg version="1.1"
	 id="svg2" xmlns:dc="http://purl.org/dc/elements/1.1/" xmlns:cc="http://creativecommons.org/ns#" xmlns:rdf="http://www.w3.org/1999/02/22-rdf-syntax-ns#" xmlns:svg="http://www.w3.org/2000/svg"
	 xmlns="http://www.w3.org/2000/svg" xmlns:xlink="http://www.w3.org/1999/xlink" x="0px" y="0px" width="66px" height="75px"
	 viewBox="0 0 66 75" enable-background="new 0 0 66 75" xml:space="preserve">
<g id="g12" transform="scale(0.1,0.1)">
	<path id="path14" d="M2.883,745.688h557.334V522.153H2.883V745.688z"/>
	<path id="path16" fill="none" stroke="#FFFFFF" stroke-width="4" d="M2.883,522.153v223.535h557.334V522.153"/>
	<path id="path18" fill="#087BBB" d="M2.883,75.894L100.159,0h559.844l-99.785,75.894H2.883"/>
	<path id="path20" fill="none" stroke="#FFFFFF" stroke-width="4" d="M2.883,75.894L100.159,0h559.844l-99.785,75.894H2.883z"/>
	<path id="path22" d="M560.217,750.005l99.785-80.605V442.485l-99.785,76.074V750.005"/>
	<path id="path24" fill="none" stroke="#FFFFFF" stroke-width="4" stroke-linecap="round" stroke-linejoin="round" d="
		M560.217,750.005l99.785-80.605V442.485l-99.785,76.074V750.005z"/>
	<path id="path26" fill="none" stroke="#FFFFFF" stroke-width="4" stroke-linecap="round" stroke-linejoin="round" d="
		M560.217,594.692H2.883"/>
	<path id="path28" fill="none" stroke="#FFFFFF" stroke-width="4" stroke-linecap="round" stroke-linejoin="round" d="
		M560.217,671.684H2.883"/>
	<path id="path30" fill="none" stroke="#FFFFFF" stroke-width="4" stroke-linecap="round" stroke-linejoin="round" d="
		M652.6,604.829l-87.9,68.164"/>
	<path id="path32" fill="none" stroke="#FFFFFF" stroke-width="4" stroke-linecap="round" stroke-linejoin="round" d="
		M167.922,675.473v70.117"/>
	<path id="path34" fill="none" stroke="#FFFFFF" stroke-width="4" stroke-linecap="round" stroke-linejoin="round" d="
		M383.499,675.473v70.117"/>
	<path id="path36" fill="none" stroke="#FFFFFF" stroke-width="4" stroke-linecap="round" stroke-linejoin="round" d="
		M280.051,598.188v69.824"/>
	<path id="path38" fill="none" stroke="#FFFFFF" stroke-width="4" stroke-linecap="round" stroke-linejoin="round" d="
		M64.514,598.188v69.824"/>
	<path id="path40" fill="none" stroke="#FFFFFF" stroke-width="4" stroke-linecap="round" stroke-linejoin="round" d="
		M495.627,598.188v69.824"/>
	<path id="path42" fill="#087BBB" d="M563.02,71.841V594.79H0.002V70.762L563.02,71.841"/>
	<path id="path44" fill="none" stroke="#FFFFFF" stroke-width="4" d="M563.02,71.841V594.79H0.002V70.762L563.02,71.841z"/>
	<path id="path46" fill="#087BBB" d="M656.418,514.809V1.821l-95.41,71.875v517.929L656.418,514.809"/>
	<path id="path48" fill="none" stroke="#FFFFFF" stroke-width="4" d="M656.418,514.809V1.821l-95.41,71.875v517.929L656.418,514.809
		z"/>
	<path id="path50" fill="none" stroke="#FFFFFF" stroke-width="4" stroke-linecap="round" stroke-linejoin="round" d="
		M635.588,536.118v82.695"/>
	<path id="path52" fill="none" stroke="#FFFFFF" stroke-width="4" stroke-linecap="round" stroke-linejoin="round" d="
		M602.913,643.227v82.695"/>
	<path id="path54" fill="#FFFFFF" d="M108.191,270.601H325.54v-14.668l48.457,29.346l-48.457,30.098v-14.648H108.191V270.601"/>
	<path id="path56" fill="#FFFFFF" d="M442.395,348.227h-182.52v-14.668l-48.613,29.346l48.613,30.283v-14.844h182.52V348.227"/>
	<path id="path58" fill="#FFFFFF" d="M512.6,534.126c-10.068,1.25-18.955-5.938-19.893-15.645
		c-1.289-10.059,5.938-18.906,15.635-19.844c10.059-1.289,18.945,5.898,20.244,15.625
		C529.524,524.282,522.317,533.169,512.6,534.126"/>
	<path id="path60" fill="none" stroke="#000000" stroke-width="2" d="M512.6,534.126c-10.068,1.25-18.955-5.938-19.893-15.645
		c-1.289-10.059,5.938-18.906,15.635-19.844c10.059-1.289,18.945,5.898,20.244,15.625
		C529.524,524.282,522.317,533.169,512.6,534.126z"/>
	<path id="path62" fill="#FFFFFF" d="M523.625,495.669l-30.918,38.145l-110.625-89.941l30.957-38.145L523.625,495.669"/>
	<path id="path64" fill="none" stroke="#000000" stroke-width="2" d="M523.625,495.669l-30.918,38.145l-110.625-89.941
		l30.957-38.145L523.625,495.669z"/>
	<path id="path66" fill="#FFFFFF" d="M123.879,299.106c-10.547,91.23,55.342,173.945,146.699,184.316
		c91.494,10.352,174.355-55.137,184.717-146.523c10.361-91.211-55.537-173.955-146.865-184.482
		C217.102,142.041,134.241,207.72,123.879,299.106z M147.029,301.704c8.921-78.613,80.269-135.078,158.794-126.025
		c78.516,8.926,135.078,80.029,126.152,158.633c-8.896,78.584-80.088,135.068-158.799,125.85
		C194.68,451.235,137.947,380.122,147.029,301.704"/>
	<path id="path68" fill="none" stroke="#000000" stroke-width="2" d="M123.879,299.106
		c-10.547,91.23,55.342,173.945,146.699,184.316c91.494,10.352,174.355-55.137,184.717-146.523
		c10.361-91.211-55.537-173.955-146.865-184.482C217.102,142.041,134.241,207.72,123.879,299.106z M147.029,301.704
		c8.921-78.613,80.269-135.078,158.794-126.025c78.516,8.926,135.078,80.029,126.152,158.633
		c-8.896,78.584-80.088,135.068-158.799,125.85C194.68,451.235,137.947,380.122,147.029,301.704z"/>
	<path id="path70" fill="#FFFFFF" d="M103.357,306.411c-10.527,91.211,55.361,173.984,146.675,184.336
		c91.514,10.352,174.033-55.117,184.746-146.504c10.352-91.23-55.557-173.969-146.875-184.521
		C196.584,149.38,113.718,215.063,103.357,306.411z M126.506,309.048c8.911-78.623,80.264-135.107,158.799-126.045
		c78.516,8.911,135.039,80.029,126.152,158.633c-8.916,78.584-80.293,135.068-158.809,125.811
		C174.158,458.579,117.434,387.446,126.506,309.048"/>
	<path id="path72" fill="none" stroke="#000000" stroke-width="2" d="M103.357,306.411
		c-10.527,91.211,55.361,173.984,146.675,184.336c91.514,10.352,174.033-55.117,184.746-146.504
		c10.352-91.23-55.557-173.969-146.875-184.521C196.584,149.38,113.718,215.063,103.357,306.411z M126.506,309.048
		c8.911-78.623,80.264-135.107,158.799-126.045c78.516,8.911,135.039,80.029,126.152,158.633
		c-8.916,78.584-80.293,135.068-158.809,125.811C174.158,458.579,117.434,387.446,126.506,309.048z"/>
	<path id="path74" fill="none" stroke="#FFFFFF" stroke-width="5" d="M442.395,366.587h92.373"/>
	<path id="path76" fill="none" stroke="#FFFFFF" stroke-width="5" d="M31.829,285.249h92.207"/>
</g>
</svg>
