<?xml version="1.0" encoding="utf-8"?>
<!-- Generator: Adobe Illustrator 16.0.0, SVG Export Plug-In . SVG Version: 6.00 Build 0)  -->
<!DOCTYPE svg PUBLIC "-//W3C//DTD SVG 1.1//EN" "http://www.w3.org/Graphics/SVG/1.1/DTD/svg11.dtd">
<svg version="1.1"
	 id="svg2" xmlns:dc="http://purl.org/dc/elements/1.1/" xmlns:cc="http://creativecommons.org/ns#" xmlns:rdf="http://www.w3.org/1999/02/22-rdf-syntax-ns#" xmlns:svg="http://www.w3.org/2000/svg"
	 xmlns="http://www.w3.org/2000/svg" xmlns:xlink="http://www.w3.org/1999/xlink" x="0px" y="0px" width="60px" height="78px"
	 viewBox="0 0 60 78" enable-background="new 0 0 60 78" xml:space="preserve">
<g id="g12" transform="scale(0.1,0.1)">
	<path id="path22" fill="#087BBB" d="M463.433,135.083L589.995,10l-1.563,0.84h-435.64L10,135.928h453.433V135.083"/>
	<path id="path24" fill="none" stroke="#FFFFFF" stroke-width="3.9999" d="M463.433,135.083L589.995,10l-1.563,0.84h-435.64
		L10,135.928h453.433V135.083z"/>
	<path id="path26" fill="#087BBB" d="M10,769.995h453.433V135.928H10V769.995z"/>
	<path id="path28" fill="none" stroke="#FFFFFF" stroke-width="3.9999" d="M10,769.995h453.433V135.928H10V769.995z"/>
	<path id="path30" fill="#231F20" d="M463.433,432.143H10"/>
	<path id="path32" fill="none" stroke="#FFFFFF" stroke-width="3.9999" d="M463.433,432.143H10"/>
	<path id="path34" fill="#231F20" d="M66.733,581.323h140.737"/>
	<path id="path36" fill="none" stroke="#FFFFFF" stroke-width="3.9999" d="M66.733,581.323h140.737"/>
	<path id="path38" fill="#231F20" d="M66.733,611.382h140.737"/>
	<path id="path40" fill="none" stroke="#FFFFFF" stroke-width="3.9999" d="M66.733,611.382h140.737"/>
	<path id="path42" fill="#231F20" d="M66.733,641.675h140.737"/>
	<path id="path44" fill="none" stroke="#FFFFFF" stroke-width="3.9999" d="M66.733,641.675h140.737"/>
	<path id="path46" fill="#231F20" d="M66.733,671.968h140.737"/>
	<path id="path48" fill="none" stroke="#FFFFFF" stroke-width="3.9999" d="M66.733,671.968h140.737"/>
	<path id="path50" fill="#231F20" d="M66.733,702.241h140.737"/>
	<path id="path52" fill="none" stroke="#FFFFFF" stroke-width="3.9999" d="M66.733,702.241h140.737"/>
	<path id="path54" fill="#087BBB" d="M589.155,634.917V11.172l-125.723,124.16v634.663L589.155,634.917"/>
	<path id="path56" fill="none" stroke="#FFFFFF" stroke-width="3.9999" d="M589.155,634.917V11.172l-125.723,124.16v634.663
		L589.155,634.917z"/>
	<path id="path58" fill="#231F20" d="M463.433,438.374H10"/>
	<path id="path60" fill="none" stroke="#FFFFFF" stroke-width="3.9999" d="M463.433,438.374H10"/>
</g>
</svg>
