<?xml version="1.0" encoding="utf-8"?>
<!-- Generator: Adobe Illustrator 16.0.0, SVG Export Plug-In . SVG Version: 6.00 Build 0)  -->
<!DOCTYPE svg PUBLIC "-//W3C//DTD SVG 1.1//EN" "http://www.w3.org/Graphics/SVG/1.1/DTD/svg11.dtd">
<svg version="1.1" id="图层_1" xmlns="http://www.w3.org/2000/svg" xmlns:xlink="http://www.w3.org/1999/xlink" x="0px" y="0px"
	 width="512px" height="512px" viewBox="0 0 512 512" enable-background="new 0 0 512 512" xml:space="preserve">
<g>
	<path fill="#3F4751" d="M498.389,101.527c-10.829-62.573-25.871-77.413-89.246-88.544c-40.411-7.02-97.368-11.131-156.331-11.131
		c-58.461,0-112.51,3.811-152.119,10.729C38.12,23.411,23.28,38.453,12.149,101.828c-14.64,83.931-14.941,225.121-0.501,308.451
		c10.829,62.572,25.871,77.413,89.246,88.544c40.411,7.12,97.569,11.131,156.632,11.131c58.261,0,112.21-3.812,151.818-10.629
		c62.573-10.83,77.413-25.872,88.544-89.246C512.628,326.146,512.828,184.856,498.389,101.527 M482.545,407.37
		c-9.927,56.856-19.854,66.884-75.809,76.611c-38.808,6.719-91.753,10.428-149.211,10.428c-58.261,0-114.315-4.011-153.925-10.931
		c-56.857-9.927-66.884-19.854-76.511-75.809C12.95,325.845,13.151,187.062,27.59,104.635c9.927-56.857,19.855-66.884,75.809-76.511
		c38.807-6.719,91.954-10.429,149.512-10.429c58.06,0,114.115,4.011,153.624,10.93c56.856,9.927,66.884,19.855,76.611,75.809
		C497.186,186.06,496.985,324.843,482.545,407.37"/>
	<polygon fill="#3F4751" points="198.216,182.154 92.5,182.154 92.5,312.01 198.216,312.01 198.216,279.763 125.177,279.586 
		124.924,214.991 198.216,214.915 	"/>
	<rect x="214.892" y="279.713" fill="#3F4751" width="32.297" height="32.297"/>
	<rect x="352.018" y="279.713" fill="#3F4751" width="64.722" height="32.297"/>
	<rect x="214.892" y="182.534" fill="#3F4751" width="32.297" height="32.297"/>
	<polygon fill="#3F4751" points="333.147,312.01 300.849,312.01 262.852,182.534 295.15,182.534 	"/>
</g>
</svg>
