<svg version="1.1" id="图形" xmlns="http://www.w3.org/2000/svg" xmlns:xlink="http://www.w3.org/1999/xlink" x="0px" y="0px"
	 width="76px" height="48px" viewBox="0 0 76 48" enable-background="new 0 0 76 48" xml:space="preserve">
<path fill="#72ADCE" d="M64.119,21.457c0.015-0.451,0.021-0.863,0.021-1.186c0-5.415-2.107-10.506-5.936-14.334
	C54.378,2.108,49.288,0,43.875,0c-4.194,0-8.32,1.428-11.931,4.129c-2.465,1.845-4.536,4.195-6.028,6.807
	c-1.636-0.853-3.449-1.297-5.328-1.297c-3.008,0-5.899,1.396-8.141,3.93c-1.496,1.689-2.561,3.748-3.079,5.886
	c-2.539,1.004-4.798,2.726-6.439,4.924C1.013,26.946,0,30.002,0,33.215C0,41.368,6.631,48,14.782,48v-0.035h47.954v0.02
	C70.05,47.984,76,42.034,76,34.718C76,27.896,70.757,22.194,64.119,21.457z"/>
</svg>
