<?xml version="1.0" encoding="utf-8"?>
<!-- Generator: Adobe Illustrator 16.0.0, SVG Export Plug-In . SVG Version: 6.00 Build 0)  -->
<!DOCTYPE svg PUBLIC "-//W3C//DTD SVG 1.1//EN" "http://www.w3.org/Graphics/SVG/1.1/DTD/svg11.dtd">
<svg version="1.1"
	 id="svg2" xmlns:dc="http://purl.org/dc/elements/1.1/" xmlns:cc="http://creativecommons.org/ns#" xmlns:rdf="http://www.w3.org/1999/02/22-rdf-syntax-ns#" xmlns:svg="http://www.w3.org/2000/svg"
	 xmlns="http://www.w3.org/2000/svg" xmlns:xlink="http://www.w3.org/1999/xlink" x="0px" y="0px" width="80px" height="48px"
	 viewBox="0 0 80 48" enable-background="new 0 0 80 48" xml:space="preserve">
	<g id="g12" transform="scale(0.1,0.1)">
		<path id="path22" fill="#FFFFFF" d="M283.298,68.218C148.123,41.206,76.78,110.576,88.054,170.532l0.835,3.242
					C-16.384,191.699,11.15,316.313,61.76,316.313l4.932-0.215c-12.764,58.457,110.435,118.008,179.058,88.379l4.419-4.941
					c24.463,52.578,111.479,61.465,197.598,63.711c74.414,1.816,118.057-4.063,149.893-36.875l4.98,1.504
					c119.316,9.707,173.73-72.969,147.471-132.153l6.553-1.875c40.693-10.635,45.273-104.751-24.531-118.662l1.348-3.599
					c30.303-61.23-41.152-118.882-140.273-108.013l-6.904-3.652C515.442-4.419,311.077,6.055,287.395,69.707L283.298,68.218"/>
		<path id="path24" fill="none" stroke="#02709F" stroke-width="3.9999" d="M283.298,68.218
					C148.123,41.206,76.78,110.576,88.054,170.532l0.835,3.242C-16.384,191.699,11.15,316.313,61.76,316.313l4.932-0.215
					c-12.764,58.457,110.435,118.008,179.058,88.379l4.419-4.941c24.463,52.578,111.479,61.465,197.598,63.711
					c74.414,1.816,118.057-4.063,149.893-36.875l4.98,1.504c119.316,9.707,173.73-72.969,147.471-132.153l6.553-1.875
					c40.693-10.635,45.273-104.751-24.531-118.662l1.348-3.599c30.303-61.23-41.152-118.882-140.273-108.013l-6.904-3.652
					C515.442-4.419,311.077,6.055,287.395,69.707L283.298,68.218L283.298,68.218z"/>
	</g>
</svg>
