<?xml version="1.0" encoding="utf-8"?>
<!-- Generator: Adobe Illustrator 16.0.0, SVG Export Plug-In . SVG Version: 6.00 Build 0)  -->
<!DOCTYPE svg PUBLIC "-//W3C//DTD SVG 1.1//EN" "http://www.w3.org/Graphics/SVG/1.1/DTD/svg11.dtd">
<svg version="1.1"
	 id="图层_1" xmlns:dc="http://purl.org/dc/elements/1.1/" xmlns:cc="http://creativecommons.org/ns#" xmlns:rdf="http://www.w3.org/1999/02/22-rdf-syntax-ns#"
	 xmlns="http://www.w3.org/2000/svg" xmlns:xlink="http://www.w3.org/1999/xlink" x="0px" y="0px" width="76px" height="47px"
	 viewBox="0 0 76 47" enable-background="new 0 0 76 47" xml:space="preserve">
<path fill="#00BCF2" d="M14.167,46.896C7.229,46.095,1.451,40.637,0.242,33.738c-1.771-10.105,6.437-19.337,16.673-18.753
	c1.401,0.081,3.258,0.423,4.113,0.76c0.177,0.067,0.373-0.259,0.859-1.443c1.186-2.88,2.913-5.418,5.24-7.697
	c3.259-3.191,7.093-5.243,11.74-6.284c1.269-0.285,1.89-0.325,4.809-0.321h3.354l2.025,0.532c3.404,0.893,6.23,2.253,8.834,4.252
	c4.751,3.647,7.959,9.098,8.907,15.128c0.373,2.376,0.146,6.919-0.445,8.94l-0.137,0.462l1.375,0.083
	c1.729,0.102,3.219,0.603,4.59,1.537c1.341,0.912,2.237,1.952,2.941,3.403c0.734,1.515,0.957,2.677,0.855,4.428
	c-0.104,1.716-0.509,2.916-1.48,4.364c-1.119,1.671-2.722,2.84-4.889,3.572c-0.786,0.267-1.9,0.277-27.572,0.296
	c-14.712,0.012-27.254-0.038-27.868-0.107V46.896z"/>
</svg>
