<?xml version="1.0" encoding="utf-8"?>
<!-- Generator: Adobe Illustrator 16.0.0, SVG Export Plug-In . SVG Version: 6.00 Build 0)  -->
<!DOCTYPE svg PUBLIC "-//W3C//DTD SVG 1.1//EN" "http://www.w3.org/Graphics/SVG/1.1/DTD/svg11.dtd">
<svg version="1.1"
	 id="图层_1" xmlns:dc="http://purl.org/dc/elements/1.1/" xmlns:cc="http://creativecommons.org/ns#" xmlns:rdf="http://www.w3.org/1999/02/22-rdf-syntax-ns#"
	 xmlns="http://www.w3.org/2000/svg" xmlns:xlink="http://www.w3.org/1999/xlink" x="0px" y="0px" width="75px" height="63px"
	 viewBox="0 0 75 63" enable-background="new 0 0 75 63" xml:space="preserve">
<path fill="#00BCF2" d="M28.141,62.866c-4.394-0.461-8.438-3.53-10.125-7.678c-0.67-1.65-1.002-3.521-0.912-5.135l0.072-1.285
	l-1.49-0.001c-2.241,0-4.483-0.254-5.925-0.671C3.863,46.39,0,41.396,0,35.474c0-5.502,3.367-10.146,8.87-12.233
	c1.24-0.472,1.431-0.588,1.374-0.841c-0.036-0.162-0.185-0.79-0.33-1.395c-0.406-1.691-0.373-4.451,0.071-5.873
	c1.141-3.661,3.426-6.206,6.848-7.628c2.98-1.239,6.227-1.115,9.281,0.355c1.624,0.781,2.752,1.679,4.157,3.306
	c0.591,0.686,1.122,1.228,1.181,1.204c0.058-0.023,0.406-0.717,0.772-1.542c0.974-2.196,1.354-2.875,2.34-4.182
	c4.42-5.859,12.328-8.161,19.306-5.618c4.063,1.48,7.389,4.492,9.326,8.446c1.761,3.588,2.186,7.524,1.244,11.483
	c-0.164,0.687-0.297,1.329-0.297,1.426s0.578,0.366,1.287,0.595c1.412,0.457,2.982,1.198,4.008,1.893
	c1.106,0.75,2.799,2.463,3.537,3.584c1.547,2.345,2.139,4.595,2.006,7.607c-0.099,2.284-0.326,3.196-1.271,5.143
	c-1.816,3.728-5.341,6.374-9.593,7.201c-0.685,0.132-2.411,0.275-3.91,0.322l-2.686,0.085v0.976c0,3.51-2.537,6.857-6.031,7.959
	c-1.237,0.388-3.27,0.417-4.494,0.064c-1.87-0.541-3.245-1.482-4.789-3.279l-0.664-0.773l-0.497,1.201
	c-1.856,4.49-5.641,7.38-10.356,7.903c-0.771,0.086-1.42,0.146-1.443,0.137C29.223,62.987,28.726,62.928,28.141,62.866
	L28.141,62.866z M31.019,47.069l0.476-1.554l0.808-0.356c0.445-0.195,0.896-0.356,1.003-0.356s0.846,0.304,1.641,0.675l1.446,0.675
	l0.838-0.933l0.838-0.933l-0.776-1.469l-0.776-1.469l0.331-0.866l0.331-0.867l1.38-0.549l1.385-0.55l0.041-1.327l0.041-1.329
	l-1.279-0.413l-1.281-0.415l-0.418-0.918l-0.417-0.918l0.664-1.417c0.364-0.779,0.662-1.493,0.662-1.585
	c0-0.092-0.366-0.528-0.814-0.97l-0.814-0.803l-1.506,0.794l-1.505,0.793l-0.732-0.244c-0.403-0.136-0.818-0.301-0.924-0.367
	c-0.105-0.066-0.413-0.71-0.684-1.431l-0.493-1.309h-1.366H27.75l-0.438,1.225c-0.438,1.224-0.439,1.225-1.242,1.58
	c-0.441,0.194-0.877,0.354-0.968,0.354s-0.814-0.311-1.606-0.689l-1.441-0.689l-0.889,0.887l-0.889,0.887l0.75,1.492l0.75,1.492
	l-0.419,0.919l-0.42,0.918l-1.494,0.507l-1.494,0.507v1.279v1.281l1.435,0.471c0.789,0.259,1.506,0.546,1.595,0.638
	c0.088,0.092,0.3,0.515,0.471,0.938l0.311,0.772l-0.681,1.478L20.4,44.381l0.914,0.908l0.914,0.908l1.356-0.701
	c0.746-0.389,1.432-0.702,1.522-0.698c0.091,0.002,0.53,0.166,0.976,0.363l0.81,0.357l0.564,1.552l0.563,1.552h1.263h1.263
	L31.019,47.069L31.019,47.069z M28.521,40.884c-0.76-0.127-1.937-0.975-2.402-1.727c-0.402-0.65-0.446-0.845-0.445-1.911
	c0-1.029,0.052-1.264,0.387-1.772c1.105-1.688,2.937-2.278,4.613-1.486c3.346,1.58,2.556,6.517-1.104,6.895
	C29.208,40.919,28.734,40.921,28.521,40.884L28.521,40.884z M49.867,34.755l0.494-1.528l0.934-0.368l0.934-0.369l1.334,0.648
	c0.732,0.354,1.422,0.646,1.53,0.646c0.251,0,1.843-1.438,1.843-1.667c0-0.094-0.306-0.804-0.677-1.578l-0.676-1.409l0.449-0.892
	l0.45-0.892l1.629-0.542l1.63-0.541l-0.043-1.254l-0.042-1.253l-1.682-0.492c-0.926-0.271-1.727-0.543-1.779-0.605
	c-0.053-0.062-0.229-0.478-0.396-0.924l-0.3-0.811l0.644-1.377c0.354-0.757,0.646-1.451,0.646-1.543
	c0-0.091-0.381-0.541-0.847-0.999l-0.846-0.833l-1.449,0.782l-1.449,0.782l-0.912-0.296l-0.913-0.295l-0.565-1.448l-0.564-1.448
	h-1.289h-1.292l-0.229,0.624c-0.125,0.343-0.347,0.945-0.49,1.339c-0.241,0.667-0.316,0.738-1.155,1.072l-0.896,0.356l-1.373-0.667
	c-0.756-0.368-1.445-0.667-1.537-0.667c-0.088,0-0.533,0.38-0.988,0.844l-0.827,0.845l0.794,1.396
	c0.436,0.768,0.793,1.485,0.794,1.593c0,0.109-0.101,0.547-0.224,0.974L40.3,22.73l-1.319,0.553l-1.317,0.552v1.355v1.356
	l1.088,0.416l1.089,0.414l0.376,0.917l0.377,0.916l-0.685,1.485l-0.687,1.488l0.889,0.886l0.891,0.888l1.459-0.73l1.458-0.729
	l0.901,0.359l0.9,0.358l0.549,1.534l0.545,1.534h1.279h1.28L49.867,34.755L49.867,34.755z M46.561,28.368
	c-1.322-0.6-2.125-1.855-2.125-3.324c0-1.381,0.748-2.624,1.961-3.257c0.623-0.325,1.888-0.413,2.701-0.188
	c0.943,0.264,2.153,1.451,2.398,2.357c0.212,0.783,0.109,2.124-0.205,2.736c-0.335,0.645-1.1,1.363-1.783,1.674
	C48.729,28.722,47.34,28.722,46.561,28.368L46.561,28.368z"/>
</svg>
