<?xml version="1.0" encoding="utf-8"?>
<!-- Generator: Adobe Illustrator 16.0.0, SVG Export Plug-In . SVG Version: 6.00 Build 0)  -->
<!DOCTYPE svg PUBLIC "-//W3C//DTD SVG 1.1//EN" "http://www.w3.org/Graphics/SVG/1.1/DTD/svg11.dtd">
<svg version="1.1" id="图层_1" xmlns="http://www.w3.org/2000/svg" xmlns:xlink="http://www.w3.org/1999/xlink" x="0px" y="0px"
	 width="512px" height="512px" viewBox="0 0 512 512" enable-background="new 0 0 512 512" xml:space="preserve">
<g>
	<path fill="#47A6E9" d="M499.038,101.802c-10.842-62.463-25.834-77.345-89.154-88.421C369.573,6.329,312.664,2.289,253.79,2.289
		c-58.359,0-112.336,3.806-151.975,10.686C39.353,23.833,24.471,38.824,13.41,102.129c-14.664,83.819-14.883,224.89-0.484,308.038
		c10.826,62.463,25.818,77.329,89.154,88.421c40.404,7.067,97.422,11.123,156.437,11.123c58.22,0,112.086-3.776,151.68-10.639
		c62.478-10.858,77.359-25.851,88.404-89.17C513.265,326.052,513.468,184.965,499.038,101.802 M483.218,407.234
		c-9.921,56.753-19.827,66.768-75.722,76.486c-38.72,6.709-91.635,10.391-148.996,10.391c-58.141,0-114.176-3.962-153.738-10.873
		c-56.784-9.952-66.799-19.874-76.471-75.723c-14.149-81.697-13.931-220.318,0.484-302.703
		c9.922-56.737,19.828-66.753,75.707-76.456c38.797-6.739,91.806-10.452,149.308-10.452c58.001,0,113.927,3.962,153.394,10.858
		c56.737,9.937,66.752,19.843,76.472,75.722C497.835,186.198,497.633,324.835,483.218,407.234"/>
	<path fill="#47A6E9" d="M409.026,226.04c0,0-18.175-11.045-36.146-18.642c-12.028-5.086-24.461-9.407-37.237-12.917l0.313,3.292
		l-20.201,116.293c-7.593-2.666-15.42-4.849-23.448-6.485c-11.651-2.386-23.692-3.634-36.048-3.666h0.013l34.476-116.984
		l0.686-1.076c8.472,0.998,16.849,2.34,25.085,4.025c6.458,1.325,12.84,2.87,19.142,4.586l-6.505-68.172l-37.722,59.561
		c-11.622-1.373-23.446-2.075-35.442-2.075c-20.733,0-40.981,2.106-60.528,6.1c-19.547,3.994-38.407,9.906-56.379,17.503
		c-17.972,7.597-36.13,18.642-36.13,18.642c-8.19,4.976-10.499,15.538-5.148,23.478l47.705,70.746
		c5.351,7.94,16.427,10.374,24.617,5.397c0,0,4.945-3.012,15.725-7.566c10.78-4.555,22.089-8.096,33.821-10.499
		c11.731-2.402,23.884-3.666,36.317-3.666h0.265l-16.692,56.644l27.674,25.163l37.518-8.236l11.013-63.409
		c3.506,1.23,6.948,2.571,10.345,4.004c10.779,4.555,15.725,7.566,15.725,7.566c8.19,4.976,19.266,2.543,24.617-5.397l47.705-70.746
		C419.525,241.578,417.216,231.017,409.026,226.04"/>
</g>
</svg>
