<?xml version="1.0" encoding="utf-8"?>
<!-- Generator: Adobe Illustrator 16.0.0, SVG Export Plug-In . SVG Version: 6.00 Build 0)  -->
<!DOCTYPE svg PUBLIC "-//W3C//DTD SVG 1.1//EN" "http://www.w3.org/Graphics/SVG/1.1/DTD/svg11.dtd">
<svg version="1.1"
	 id="图层_1" xmlns:dc="http://purl.org/dc/elements/1.1/" xmlns:cc="http://creativecommons.org/ns#" xmlns:rdf="http://www.w3.org/1999/02/22-rdf-syntax-ns#"
	 xmlns="http://www.w3.org/2000/svg" xmlns:xlink="http://www.w3.org/1999/xlink" x="0px" y="0px" width="75px" height="75px"
	 viewBox="0 0 75 75" enable-background="new 0 0 75 75" xml:space="preserve">
<path fill="#00BCF2" d="M8.806,74.709c-3.399-0.89-6.138-3.576-7.12-6.982l-0.339-1.178V37.574c0-23.788,0.035-29.12,0.198-29.784
	c0.108-0.444,0.498-1.438,0.864-2.206c0.569-1.194,0.85-1.579,1.935-2.649c1.451-1.433,2.742-2.169,4.638-2.647
	c1.139-0.287,1.671-0.293,25.372-0.288l24.207,0.005l7.547,7.459l7.545,7.459l-0.045,25.959l-0.045,25.959l-0.348,1.03
	c-1.197,3.548-3.736,5.966-7.191,6.849c-1.078,0.276-1.902,0.285-28.629,0.276C10.804,74.992,9.843,74.981,8.806,74.709
	L8.806,74.709z M65.301,68.482c0.979-0.48,1.752-1.409,2.004-2.403c0.105-0.421,0.154-8.059,0.154-24.082V18.531l-5.992-0.038
	l-5.994-0.039l-0.039-6.14l-0.037-6.141L32.931,6.174L10.466,6.175L9.73,6.518C9.326,6.707,8.751,7.133,8.452,7.464
	c-1.074,1.192-1-1.007-1,30.04c0,30.135-0.04,28.611,0.761,29.794c0.449,0.663,1.29,1.24,2.15,1.473
	c0.55,0.148,6.154,0.182,27.388,0.159l26.695-0.027L65.301,68.482L65.301,68.482z M29.317,57.202
	c-2.224-0.372-4.131-1.375-4.939-2.593c-1.104-1.668-1.333-2.976-1.336-7.621c-0.001-1.942-0.066-3.92-0.144-4.395
	c-0.28-1.715-1.146-2.695-2.527-2.864l-0.786-0.096v-2.133v-2.133l0.774-0.095c1.03-0.125,1.725-0.667,2.216-1.728
	c0.378-0.814,0.384-0.88,0.477-5.384c0.104-4.998,0.185-5.547,1.05-7.169c1.054-1.978,3.344-3.062,6.968-3.3l1.383-0.091v2.148
	v2.148l-0.551,0.092c-1.444,0.243-2.066,0.627-2.573,1.589c-0.299,0.57-0.327,0.886-0.418,4.656
	c-0.104,4.266-0.244,5.322-0.896,6.723c-0.349,0.747-1.673,2.161-2.174,2.32c-0.427,0.136-0.372,0.239,0.407,0.748
	c2.077,1.361,2.664,3.438,2.672,9.447c0.004,3.152,0.121,3.865,0.76,4.641c0.45,0.546,1.491,0.977,2.358,0.977h0.415v2.134v2.133
	l-1.213-0.019C30.574,57.33,29.708,57.269,29.317,57.202L29.317,57.202z M40.104,55.225v-2.134h0.414
	c0.686,0,1.861-0.413,2.188-0.769c0.803-0.879,0.836-1.073,0.941-5.556c0.1-4.405,0.209-5.272,0.83-6.597
	c0.48-1.027,1.094-1.712,1.996-2.226l0.729-0.417l-0.57-0.295c-1.217-0.627-2.143-1.978-2.639-3.85
	c-0.199-0.746-0.275-1.861-0.344-5.074c-0.088-4.04-0.098-4.131-0.457-4.775c-0.467-0.833-1.125-1.275-2.221-1.491l-0.867-0.17
	v-2.135v-2.136l1.441,0.095c1.734,0.113,3.367,0.509,4.537,1.101c1,0.504,2.154,1.669,2.557,2.577
	c0.682,1.54,0.762,2.191,0.865,6.936c0.084,3.88,0.139,4.647,0.357,5.148c0.504,1.146,1.453,1.838,2.521,1.838h0.523l-0.041,2.168
	l-0.041,2.167l-0.68,0.098c-0.857,0.122-1.152,0.281-1.721,0.928c-0.793,0.904-0.908,1.62-0.91,5.661
	c0,5.403-0.365,7.203-1.764,8.732c-0.432,0.474-1.082,0.97-1.646,1.256c-1.135,0.576-3.316,1.048-4.861,1.051l-1.139,0.002V55.225
	L40.104,55.225z"/>
</svg>
