<?xml version="1.0" encoding="utf-8"?>
<!-- Generator: Adobe Illustrator 16.0.0, SVG Export Plug-In . SVG Version: 6.00 Build 0)  -->
<!DOCTYPE svg PUBLIC "-//W3C//DTD SVG 1.1//EN" "http://www.w3.org/Graphics/SVG/1.1/DTD/svg11.dtd">
<svg version="1.1"
	 id="图层_1" xmlns:dc="http://purl.org/dc/elements/1.1/" xmlns:cc="http://creativecommons.org/ns#" xmlns:rdf="http://www.w3.org/1999/02/22-rdf-syntax-ns#"
	 xmlns="http://www.w3.org/2000/svg" xmlns:xlink="http://www.w3.org/1999/xlink" x="0px" y="0px" width="78px" height="59px"
	 viewBox="0 0 78 59" enable-background="new 0 0 78 59" xml:space="preserve">
<path fill="#00BCF2" d="M27.033,58.841C16.397,58.162,6.816,51.428,2.41,41.542c-1.542-3.465-2.267-6.798-2.391-10.994
	c-0.151-5.112,0.559-9.005,2.409-13.231C5.981,9.202,13.454,2.934,22.083,0.83C24.989,0.121,26.607,0,33.107,0h6.038l-0.039,9.77
	l-0.039,9.769l-5.967,0.085c-6.544,0.094-6.407,0.077-8.414,1.114c-3.172,1.639-5.129,4.979-5.122,8.748
	c0.004,2.842,0.862,4.949,2.823,6.921c0.911,0.918,1.525,1.383,2.376,1.802c2.115,1.048,2.21,1.062,8.606,1.135l5.776,0.066
	l-0.039,9.756l-0.039,9.757l-5.126,0.016C31.122,58.948,28.014,58.902,27.033,58.841L27.033,58.841z M44.161,58.919
	c-0.047-0.046,4.28-4.44,9.611-9.761l9.693-9.676v-9.896v-9.894l-9.752-9.77l-9.752-9.769h17.02H78v29.422V59H61.119
	C51.838,59,44.203,58.961,44.161,58.919z"/>
</svg>
