<?xml version="1.0" encoding="utf-8"?>
<!-- Generator: Adobe Illustrator 16.0.0, SVG Export Plug-In . SVG Version: 6.00 Build 0)  -->
<!DOCTYPE svg PUBLIC "-//W3C//DTD SVG 1.1//EN" "http://www.w3.org/Graphics/SVG/1.1/DTD/svg11.dtd">
<svg version="1.1"
	 id="svg2" xmlns:dc="http://purl.org/dc/elements/1.1/" xmlns:cc="http://creativecommons.org/ns#" xmlns:rdf="http://www.w3.org/1999/02/22-rdf-syntax-ns#" xmlns:svg="http://www.w3.org/2000/svg"
	 xmlns="http://www.w3.org/2000/svg" xmlns:xlink="http://www.w3.org/1999/xlink" x="0px" y="0px" width="76px" height="78px"
	 viewBox="0 0 76 78" enable-background="new 0 0 76 78" xml:space="preserve">
<g id="g12" transform="scale(0.1,0.1)">
	<path id="path22" fill="#087BBB" d="M9.998,765.002h613.281V140.984H9.998V765.002z"/>
	<path id="path24" fill="none" stroke="#FFFFFF" stroke-width="3.9999" d="M9.998,765.002h613.281V140.984H9.998V765.002z"/>
	<path id="path26" fill="none" stroke="#FFFFFF" stroke-width="15" d="M316.726,559.875c60.01,0,108.672-48.467,108.672-108.467
		c0-60.225-48.662-108.701-108.672-108.701c-60,0-108.652,48.477-108.652,108.701C208.074,511.408,256.726,559.875,316.726,559.875z
		"/>
	<path id="path28" fill="none" stroke="#FFFFFF" stroke-width="15" d="M316.726,342.707H505.3"/>
	<path id="path30" fill="#FFFFFF" d="M507.361,272.004v136.367l82.119-65.557L507.361,272.004"/>
	<path id="path32" fill="none" stroke="#FFFFFF" stroke-width="2" d="M507.361,272.004v136.367l82.119-65.557L507.361,272.004z"/>
	<path id="path34" fill="none" stroke="#FFFFFF" stroke-width="15" d="M208.328,452.141V263.352"/>
	<path id="path36" fill="#FFFFFF" d="M138.875,262.571h136.533l-65.537-82.129L138.875,262.571"/>
	<path id="path38" fill="none" stroke="#FFFFFF" stroke-width="2" d="M138.875,262.571h136.533l-65.537-82.129L138.875,262.571z"/>
	<path id="path40" fill="none" stroke="#FFFFFF" stroke-width="15" d="M425.496,450.725v188.389"/>
	<path id="path42" fill="#FFFFFF" d="M494.929,639.641H358.201l66.426,82.119L494.929,639.641"/>
	<path id="path44" fill="none" stroke="#FFFFFF" stroke-width="2" d="M494.929,639.641H358.201l66.426,82.119L494.929,639.641z"/>
	<path id="path46" fill="none" stroke="#FFFFFF" stroke-width="15" d="M319.353,559.817H130.784"/>
	<path id="path48" fill="#FFFFFF" d="M128.176,630.891V494.123l-82.324,65.771L128.176,630.891"/>
	<path id="path50" fill="none" stroke="#FFFFFF" stroke-width="2" d="M128.176,630.891V494.123l-82.324,65.771L128.176,630.891z"/>
	<path id="path52" fill="#087BBB" d="M621.111,140.261H10.706L165.53,16.794h583.56v620.063L622.546,764.856V143.86L621.111,140.261
		"/>
	<path id="path54" fill="none" stroke="#FFFFFF" stroke-width="3.9999" d="M621.111,140.261H10.706L165.53,16.794h583.56v620.063
		L622.546,764.856V143.86L621.111,140.261z"/>
	<path id="path56" fill="none" stroke="#FFFFFF" stroke-width="3.9999" d="M622.4,139.197L749.998,15.002"/>
</g>
</svg>
