<?xml version="1.0" encoding="utf-8"?>
<!-- Generator: Adobe Illustrator 16.0.0, SVG Export Plug-In . SVG Version: 6.00 Build 0)  -->
<!DOCTYPE svg PUBLIC "-//W3C//DTD SVG 1.1//EN" "http://www.w3.org/Graphics/SVG/1.1/DTD/svg11.dtd">
<svg version="1.1" id="图层_1" xmlns="http://www.w3.org/2000/svg" xmlns:xlink="http://www.w3.org/1999/xlink" x="0px" y="0px"
	 width="54px" height="75px" viewBox="0 0 54 75" enable-background="new 0 0 54 75" xml:space="preserve">
<g id="Layer_1">
	<polygon fill="#9D5025" points="17.728,4.641 17.728,37.5 13.91,37.5 13.91,68.445 27,75 34.91,37.5 27,0 	"/>
	<polygon fill="#F58536" points="27,0 27,37.5 27,75 36.271,70.354 36.271,37.5 40.09,37.5 40.09,6.553 	"/>
	<polygon fill="#6B3A19" points="54,27.943 37.454,29.492 32.003,28.853 49.275,11.195 	"/>
	<polygon fill="#F58536" points="49.275,11.195 54,13.563 54,27.943 49.275,26.94 	"/>
	<polygon fill="#9D5025" points="32.003,28.853 49.275,26.94 49.275,11.195 32.003,15.839 	"/>
	<polygon fill="#FBBF93" points="0,47.059 16.546,45.512 22.001,46.146 4.729,63.807 	"/>
	<polygon fill="#9D5025" points="4.729,63.807 0,61.438 0,47.059 4.729,48.059 	"/>
	<polygon fill="#F58536" points="22.001,46.146 4.729,48.059 4.729,63.807 22.001,59.161 	"/>
</g>
</svg>
