<?xml version="1.0" encoding="utf-8"?>
<!-- Generator: Adobe Illustrator 16.0.0, SVG Export Plug-In . SVG Version: 6.00 Build 0)  -->
<!DOCTYPE svg PUBLIC "-//W3C//DTD SVG 1.1//EN" "http://www.w3.org/Graphics/SVG/1.1/DTD/svg11.dtd">
<svg version="1.1" id="图层_1" xmlns="http://www.w3.org/2000/svg" xmlns:xlink="http://www.w3.org/1999/xlink" x="0px" y="0px"
	 width="75px" height="75px" viewBox="0 0 75 75" enable-background="new 0 0 75 75" xml:space="preserve">
<g id="Layer_1">
	<g>
		<polygon fill="#9D5025" points="46.979,58.146 46.979,47.086 42.345,42.453 39.185,39.291 42.345,36.237 46.979,31.496 
			46.979,20.436 46.979,20.226 52.564,20.226 52.564,16.645 37.5,6.321 22.438,16.645 22.438,20.226 28.02,20.226 28.02,20.436 
			28.02,31.496 32.655,36.237 35.814,39.291 32.655,42.453 28.02,47.086 28.02,58.146 22.438,54.777 22.438,58.357 37.5,73.418 
			52.564,58.357 52.564,54.777 		"/>
		<polygon fill="#9D5025" points="28.757,39.291 28.757,35.709 13.694,31.496 0,31.496 0,47.086 13.694,47.086 13.694,54.354 		"/>
		<polygon fill="#9D5025" points="75,31.496 61.306,31.496 46.242,35.709 46.242,39.291 61.306,54.354 61.306,47.086 75,47.086 		
			"/>
		<polygon fill="#F58435" points="46.979,54.564 46.979,43.505 42.345,38.764 39.185,35.709 42.345,32.55 46.979,27.915 
			46.979,16.855 46.979,16.645 52.564,16.645 37.5,1.582 22.438,16.645 28.02,16.645 28.02,16.855 28.02,27.915 32.655,32.55 
			35.814,35.709 32.655,38.764 28.02,43.505 28.02,54.564 28.02,54.777 22.438,54.777 37.5,69.838 52.564,54.777 46.979,54.777 		
			"/>
		<polygon fill="#F58435" points="28.757,35.709 13.694,20.647 13.694,27.915 0,27.915 0,43.505 13.694,43.505 13.694,50.771 		"/>
		<polygon fill="#F58435" points="75,27.915 61.306,27.915 61.306,20.647 46.242,35.709 61.306,50.771 61.306,43.505 75,43.505 		
			"/>
	</g>
</g>
</svg>
