<?xml version="1.0" encoding="utf-8"?>
<!-- Generator: Adobe Illustrator 16.0.0, SVG Export Plug-In . SVG Version: 6.00 Build 0)  -->
<!DOCTYPE svg PUBLIC "-//W3C//DTD SVG 1.1//EN" "http://www.w3.org/Graphics/SVG/1.1/DTD/svg11.dtd">
<svg version="1.1" id="图层_1" xmlns="http://www.w3.org/2000/svg" xmlns:xlink="http://www.w3.org/1999/xlink" x="0px" y="0px"
	 width="75px" height="75px" viewBox="0 0 75 75" enable-background="new 0 0 75 75" xml:space="preserve">
<g id="Layer_1">
	<path fill="#9D5025" d="M14.36,2.927H60.64c6.653,0,12.097,5.453,12.097,12.097v2.926v17.423
		c-2.398-1.199-7.571-2.526-15.414-2.526c-3.472,0-6.398,0.264-8.916,0.664c-5.189,0.927-7.979,2.39-7.979,3.326V71.41
		c0,0.527,0.799,1.326,2.263,2.126h-2.263H14.36c-6.644,0-12.097-5.444-12.097-12.097V17.95v-2.926
		C2.264,8.38,7.717,2.927,14.36,2.927z"/>
	<path fill="#F58536" d="M14.36,0H60.64c6.653,0,12.097,5.453,12.097,12.097v2.927v17.423c-2.398-1.2-7.571-2.527-15.414-2.527
		c-3.472,0-6.398,0.264-8.916,0.664c-5.189,0.936-7.979,2.399-7.979,3.326v34.574c0,0.527,0.799,1.327,2.263,2.127h-2.263H14.36
		c-6.644,0-12.097-5.445-12.097-12.098V15.024v-2.927C2.264,5.453,7.717,0,14.36,0z"/>
	<path fill="#9D5025" d="M58.513,39.235c-2.927,0-5.462,0.255-7.452,0.528c-2.519,0.391-6.652-0.528-6.652-0.528s0,3.045,0,3.317
		c0,0.801,2.263,1.991,6.652,2.791c1.99,0.408,4.525,0.527,7.452,0.527c9.171,0,14.224-2.127,14.224-3.318c0-0.391,0-3.317,0-3.317
		S65.029,39.235,58.513,39.235z"/>
	<path fill="#9D5025" d="M44.152,48.934v22.749c0,1.19,3.981,3.317,13.424,3.317c5.19,0,9.172-0.663,11.707-1.327
		c1.854-0.663,3.181-1.327,3.317-1.872V49.206c-2.79,1.718-8.507,2.654-14.088,2.654h-0.408c-0.528,0-1.191,0-1.718,0h-0.273
		c-0.527,0-0.936,0-1.463-0.137c-0.255,0-0.527,0-0.663,0c-0.392,0-0.801,0-1.056-0.137c-0.271,0-0.408,0-0.663-0.118
		c-0.408,0-0.8-0.136-1.208-0.136C47.998,50.806,45.615,50.006,44.152,48.934z"/>
	<path fill="#F58536" d="M58.513,35.9c-2.927,0-5.462,0.272-7.452,0.537c-4.39,0.663-6.652,2-6.652,2.798
		c0,0.801,2.263,1.99,6.652,2.791c1.99,0.391,4.525,0.526,7.452,0.526c9.171,0,14.224-2.126,14.224-3.317
		C72.736,38.034,67.684,35.9,58.513,35.9z"/>
	<path fill="#F58536" d="M44.152,45.615v22.732c0,1.207,3.981,3.335,13.424,3.335c5.19,0,9.172-0.664,11.707-1.345
		c1.854-0.664,3.181-1.327,3.317-1.854V45.871c-2.79,1.735-8.507,2.671-14.088,2.671h-0.408c-0.528,0-1.191,0-1.718,0h-0.273
		c-0.527,0-0.936,0-1.463-0.136c-0.255,0-0.527,0-0.663,0c-0.392,0-0.801,0-1.056-0.137c-0.271,0-0.408,0-0.663-0.136
		c-0.408,0-0.8-0.136-1.208-0.136C47.998,47.471,45.615,46.671,44.152,45.615z"/>
	<path fill="#9D5025" d="M14.36,70.474h28.329V73.4H14.36c-6.644,0-12.097-5.444-12.097-12.097v-2.927
		C2.264,65.029,7.717,70.474,14.36,70.474z"/>
</g>
</svg>
