<?xml version="1.0" encoding="utf-8"?>
<!-- Generator: Adobe Illustrator 16.0.0, SVG Export Plug-In . SVG Version: 6.00 Build 0)  -->
<!DOCTYPE svg PUBLIC "-//W3C//DTD SVG 1.1//EN" "http://www.w3.org/Graphics/SVG/1.1/DTD/svg11.dtd">
<svg version="1.1" id="图层_1" xmlns="http://www.w3.org/2000/svg" xmlns:xlink="http://www.w3.org/1999/xlink" x="0px" y="0px"
	 width="75px" height="75px" viewBox="0 0 75 75" enable-background="new 0 0 75 75" xml:space="preserve">
<g id="Layer_1">
	<g>
		<path fill="#9D5025" d="M61.063,75H13.946C7.176,75,1.621,69.445,1.621,62.684V15.706c0-6.771,5.555-12.325,12.325-12.325h47.117
			c6.761,0,12.315,5.555,12.315,12.325v47.117C73.379,69.584,67.824,75,61.063,75z"/>
		<path fill="#F58536" d="M61.063,71.757H13.946c-6.771,0-12.325-5.554-12.325-12.333V12.316C1.621,5.555,7.176,0,13.946,0h47.117
			c6.761,0,12.315,5.555,12.315,12.316v47.108C73.379,66.203,67.824,71.757,61.063,71.757z"/>
	</g>
	<g>
		<path fill="#FFFFFF" d="M51.575,54.283c0-2.57-0.534-3.656-2.017-3.656c-1.779,0-2.175,1.759-2.175,6.779
			c0,5.277,0.672,6.227,2.294,6.227c1.226,0,2.173-0.691,2.173-4.468h3.52c0,3.776-0.948,7.038-5.555,7.038
			c-5.277,0-5.95-3.795-5.95-9.073c0-5.279,0.673-9.074,5.95-9.074c5.021,0,5.416,3.657,5.416,6.228H51.575L51.575,54.283z"/>
		<path fill="#FFFFFF" d="M59.838,60.648c0,2.035,0.414,3.123,1.897,3.123c1.76,0,1.897-1.226,1.897-2.847
			c0-1.501-0.414-2.985-2.313-2.985h-1.206v-2.292h1.068c1.501,0,2.036-1.364,2.036-2.709c0-1.621-0.535-2.312-1.622-2.312
			c-1.482,0-1.759,1.224-1.759,2.846h-3.243c0-3.381,1.761-5.14,5.002-5.14c3.123,0,5.002,1.345,5.002,4.467
			c0,2.036-0.948,3.381-2.57,3.795l0,0c2.175,0.397,3.124,1.88,3.124,4.054c0,2.293-0.949,5.278-5.693,5.278
			c-3.381,0-5.002-2.036-5.002-5.278V60.51h3.381V60.648z"/>
	</g>
</g>
</svg>
