<?xml version="1.0" encoding="utf-8"?>
<!-- Generator: Adobe Illustrator 16.0.0, SVG Export Plug-In . SVG Version: 6.00 Build 0)  -->
<!DOCTYPE svg PUBLIC "-//W3C//DTD SVG 1.1//EN" "http://www.w3.org/Graphics/SVG/1.1/DTD/svg11.dtd">
<svg version="1.1" id="图层_1" xmlns="http://www.w3.org/2000/svg" xmlns:xlink="http://www.w3.org/1999/xlink" x="0px" y="0px"
	 width="42px" height="78px" viewBox="0 0 42 78" enable-background="new 0 0 42 78" xml:space="preserve">
<g id="Layer_1">
	<g>
		<path fill="#6B3A19" d="M6.319,36.329c0.817-0.272,16.201-5.625,28.698-19.334C37.076,14.807,42,4.254,42,4.254v3.427
			c-0.807,8.226-2.603,19.868-6.58,23.708c-3.715,3.568-13.324,5.625-23.75,6.441V78H0V37.971
			c0.828-9.183,1.514-16.591,9.479-23.718C14.283,9.869,40.084,0,40.084,0v3.427C28.011,22.893,5.219,31.117,4.946,31.259
			c-0.687,0.272-1.373,2.873-1.101,3.558c0.143,0.554,1.373,1.643,1.918,1.643C6.047,36.329,6.178,36.329,6.319,36.329z"/>
	</g>
	<g>
		<path fill="#F58536" d="M6.319,32.901C7.278,32.629,29.242,24.949,42,4.254c-0.807,8.226-2.603,19.867-6.58,23.708
			c-3.715,3.568-13.324,5.625-23.75,6.441v40.17H0v-40.03c0.828-9.183,1.514-16.581,9.479-23.718C15.101,5.756,30.475,1.23,40.084,0
			C28.011,19.464,5.219,27.69,4.946,27.831c-0.687,0.272-1.373,2.873-1.101,3.559c0.143,0.555,1.373,1.643,1.918,1.643
			C6.047,32.901,6.178,32.901,6.319,32.901z"/>
	</g>
</g>
</svg>
