<?xml version="1.0" encoding="utf-8"?>
<!-- Generator: Adobe Illustrator 16.0.0, SVG Export Plug-In . SVG Version: 6.00 Build 0)  -->
<!DOCTYPE svg PUBLIC "-//W3C//DTD SVG 1.1//EN" "http://www.w3.org/Graphics/SVG/1.1/DTD/svg11.dtd">
<svg version="1.1" id="Layer_1" xmlns="http://www.w3.org/2000/svg" xmlns:xlink="http://www.w3.org/1999/xlink" x="0px" y="0px"
	 width="75px" height="75px" viewBox="0 0 75 75" enable-background="new 0 0 75 75" xml:space="preserve">
<g id="Layer_1_1_">
	<g>
		<path fill="#9D5025" d="M61.014,75H13.987C7.227,75,1.688,69.453,1.688,62.701V15.675c0-6.752,5.538-12.299,12.299-12.299h47.026
			c6.752,0,12.298,5.547,12.298,12.299v47.026C73.312,69.453,67.766,75,61.014,75z"/>
		<path fill="#F58536" d="M61.014,71.624H13.987c-6.761,0-12.299-5.547-12.299-12.299V12.299C1.688,5.538,7.227,0,13.987,0h47.026
			c6.752,0,12.298,5.538,12.298,12.299v47.026C73.312,66.077,67.766,71.624,61.014,71.624z"/>
	</g>
	<g enable-background="new    ">
		<path fill="#FFFFFF" d="M36.829,55.535c-10.275,0-16.356-8.647-16.356-18.913c0-11.895,6.762-19.595,16.356-19.595v-6.347h2.962
			v6.347c7.837,0,14.47,5.005,15.003,13.247h-8.113c-0.533-4.057-3.237-6.899-7.01-6.899v25.822c4.323-0.69,6.752-3.652,7.286-8.39
			h8.113c-1.619,8.922-6.633,14.728-15.399,14.728v6.356h-2.98v-6.356H36.829z M36.829,23.375
			c-6.219,0.543-8.252,7.433-8.252,13.247c0,5.666,2.3,11.627,8.252,12.575V23.375z"/>
	</g>
</g>
</svg>
