<?xml version="1.0" encoding="utf-8"?>
<!-- Generator: Adobe Illustrator 16.0.0, SVG Export Plug-In . SVG Version: 6.00 Build 0)  -->
<!DOCTYPE svg PUBLIC "-//W3C//DTD SVG 1.1//EN" "http://www.w3.org/Graphics/SVG/1.1/DTD/svg11.dtd">
<svg version="1.1" id="图层_1" xmlns="http://www.w3.org/2000/svg" xmlns:xlink="http://www.w3.org/1999/xlink" x="0px" y="0px"
	 width="62px" height="75px" viewBox="0 0 62 75" enable-background="new 0 0 62 75" xml:space="preserve">
<g id="Layer_1">
	<g>
		<polygon fill="#9D5025" points="0,59.436 3.911,61.438 10.908,37.5 3.911,13.563 0,15.564 		"/>
		<polygon fill="#F58536" points="11.635,15.383 3.911,13.563 3.911,61.438 11.635,59.617 		"/>
		<polygon fill="#9D5025" points="8.728,11.195 14.453,8.283 21.728,37.5 14.453,66.716 8.728,63.807 		"/>
		<polygon fill="#F58536" points="26.365,62.805 14.453,66.624 14.453,8.283 26.365,12.104 		"/>
		<polygon fill="#9D5025" points="53.276,18.568 58.003,18.568 58.003,54.887 53.276,54.607 		"/>
		<polygon fill="#6B3A19" points="34.913,19.024 40.181,16.292 57.639,18.568 58.182,23.209 53.364,23.848 		"/>
		<polygon fill="#FBBF93" points="34.999,55.979 40.365,58.704 58.364,51.791 53.549,51.155 		"/>
		<polygon fill="#9D5025" points="36.368,48.236 45.909,49.516 45.909,25.485 36.368,26.759 		"/>
		<polygon fill="#9D5025" points="21.728,70.354 31.001,75 39.004,37.408 31.001,0 21.728,4.641 		"/>
		<path fill="#F58536" d="M31.001,0v74.907L62,59.346V15.564L31.001,0z M58.003,51.883l-17.73,5.366V17.84l17.73,5.369V51.883z"/>
		<polygon fill="#F58536" points="45.909,25.485 45.909,49.607 55.729,37.5 		"/>
	</g>
</g>
</svg>
