<?xml version="1.0" encoding="utf-8"?>
<!-- Generator: Adobe Illustrator 16.0.0, SVG Export Plug-In . SVG Version: 6.00 Build 0)  -->
<!DOCTYPE svg PUBLIC "-//W3C//DTD SVG 1.1//EN" "http://www.w3.org/Graphics/SVG/1.1/DTD/svg11.dtd">
<svg version="1.1" id="图层_1" xmlns="http://www.w3.org/2000/svg" xmlns:xlink="http://www.w3.org/1999/xlink" x="0px" y="0px"
	 width="62px" height="75px" viewBox="0 0 62 75" enable-background="new 0 0 62 75" xml:space="preserve">
<g id="Layer_1">
	<polygon fill="#9D5025" points="3.091,14.017 0,15.564 0,59.432 3.091,60.98 15.455,37.5 	"/>
	<polygon fill="#F58536" points="10.363,59.347 3.091,60.98 3.091,14.017 10.363,15.653 	"/>
	<polygon fill="#9D5025" points="6.547,12.284 10.363,10.378 19.364,37.5 10.363,64.626 6.547,62.714 	"/>
	<polygon fill="#F58536" points="19.364,62.068 10.363,64.626 10.363,10.378 19.364,12.925 	"/>
	<polygon fill="#9D5025" points="14.635,8.19 19.364,5.826 49.272,37.5 19.364,69.182 14.635,66.81 	"/>
	<polygon fill="#F58536" points="51.639,57.17 19.364,69.182 19.364,5.826 51.639,17.659 	"/>
	<polygon fill="#6B3A19" points="47.548,31.588 41.456,31.949 24.819,30.583 31.001,0 	"/>
	<polygon fill="#9D5025" points="31.001,29.945 31.001,0 24.819,3.097 24.819,30.583 	"/>
	<polygon fill="#F58536" points="47.548,31.588 47.548,8.283 31.001,0 31.001,29.945 	"/>
	<polygon fill="#FBBF93" points="47.548,43.236 41.819,42.873 24.819,44.235 31.001,75 	"/>
	<polygon fill="#9D5025" points="24.819,44.235 24.819,71.903 31.001,75 31.001,44.87 	"/>
	<polygon fill="#F58536" points="31.001,44.87 31.001,75 47.548,66.716 47.548,43.236 	"/>
	<polygon fill="#FBBF93" points="62,41.789 58.459,41.596 49.272,42.416 53.187,63.898 	"/>
	<polygon fill="#F58536" points="53.187,42.688 53.187,63.898 62,59.432 62,41.789 	"/>
	<polygon fill="#6B3A19" points="62,33.041 58.459,33.223 49.272,32.402 53.187,11.105 	"/>
	<polygon fill="#F58536" points="62,33.041 62,15.564 53.187,11.105 53.187,32.131 	"/>
	<polygon fill="#9D5025" points="49.272,62.893 53.187,63.898 53.187,42.688 49.272,42.416 	"/>
	<polygon fill="#9D5025" points="49.272,12.105 53.187,11.105 53.187,32.131 49.272,32.402 	"/>
</g>
</svg>
