<?xml version="1.0" encoding="utf-8"?>
<!-- Generator: Adobe Illustrator 16.0.0, SVG Export Plug-In . SVG Version: 6.00 Build 0)  -->
<!DOCTYPE svg PUBLIC "-//W3C//DTD SVG 1.1//EN" "http://www.w3.org/Graphics/SVG/1.1/DTD/svg11.dtd">
<svg version="1.1"
	 id="图层_1" xmlns:dc="http://purl.org/dc/elements/1.1/" xmlns:cc="http://creativecommons.org/ns#" xmlns:rdf="http://www.w3.org/1999/02/22-rdf-syntax-ns#"
	 xmlns="http://www.w3.org/2000/svg" xmlns:xlink="http://www.w3.org/1999/xlink" x="0px" y="0px" width="80px" height="74px"
	 viewBox="0 0 80 74" enable-background="new 0 0 80 74" xml:space="preserve">
<path fill="#00BCF2" d="M12.171,71.513v-2.488l4.199-0.093c8.087-0.18,11.128-1.028,12.413-3.463
	c0.395-0.75,0.423-0.929,0.401-2.611c-0.013-1.182-0.123-2.208-0.317-2.98L28.57,58.7l-12.557-0.079l-12.56-0.079l-0.801-0.364
	c-0.938-0.422-1.77-1.236-2.287-2.225L0,55.247V29.271V3.297l0.354-0.663c0.555-1.041,1.242-1.72,2.209-2.194L3.453,0h36.274h36.274
	l1.019,0.486c1.212,0.576,2.097,1.419,2.606,2.497L80,3.768V29.32v25.553l-0.423,0.87c-0.501,1.016-1.354,1.809-2.559,2.388
	l-0.865,0.411L63.25,58.584l-12.91,0.047l-0.235,0.823c-0.698,2.443-0.913,4.854-0.547,6.082c0.735,2.448,4.252,3.432,12.265,3.443
	h2.789v2.51V74H38.391H12.165v-2.489L12.171,71.513z M73.881,29.271V6.2h-33.84H6.203v23.071V52.34h33.838h33.842V29.271H73.881z"/>
</svg>
