<?xml version="1.0" encoding="utf-8"?>
<!-- Generator: Adobe Illustrator 16.0.0, SVG Export Plug-In . SVG Version: 6.00 Build 0)  -->
<!DOCTYPE svg PUBLIC "-//W3C//DTD SVG 1.1//EN" "http://www.w3.org/Graphics/SVG/1.1/DTD/svg11.dtd">
<svg version="1.1" id="图层_1" xmlns="http://www.w3.org/2000/svg" xmlns:xlink="http://www.w3.org/1999/xlink" x="0px" y="0px"
	 width="62px" height="75px" viewBox="0 0 62 75" enable-background="new 0 0 62 75" xml:space="preserve">
<g id="Layer_1">
	<polygon fill="#9D5025" points="3.091,14.017 0,15.564 0,59.436 3.091,60.98 15.729,38.686 	"/>
	<polygon fill="#F58536" points="10.363,59.348 3.091,60.98 3.091,14.017 10.363,15.655 	"/>
	<polygon fill="#9D5025" points="6.547,12.286 10.363,10.378 28.546,39.505 10.363,64.626 6.547,62.714 	"/>
	<polygon fill="#F58536" points="19.364,62.072 10.363,64.626 10.363,10.378 19.364,12.925 	"/>
	<polygon fill="#9D5025" points="14.635,8.19 19.364,5.826 46.181,42.688 19.364,69.178 14.635,66.811 	"/>
	<polygon fill="#F58536" points="31.001,64.896 19.364,69.178 19.364,5.826 31.001,10.103 	"/>
	<polygon fill="#9D5025" points="24.819,3.094 31.001,0 59.912,39.591 31.001,75 24.819,71.902 	"/>
	<polygon fill="#F58536" points="62,59.436 31.001,75 31.001,0 62,15.564 	"/>
</g>
</svg>
