<?xml version="1.0" encoding="utf-8"?>
<!-- Generator: Adobe Illustrator 16.0.0, SVG Export Plug-In . SVG Version: 6.00 Build 0)  -->
<!DOCTYPE svg PUBLIC "-//W3C//DTD SVG 1.1//EN" "http://www.w3.org/Graphics/SVG/1.1/DTD/svg11.dtd">
<svg version="1.1" id="图层_1" xmlns="http://www.w3.org/2000/svg" xmlns:xlink="http://www.w3.org/1999/xlink" x="0px" y="0px"
	 width="59px" height="78px" viewBox="0 0 59 78" enable-background="new 0 0 59 78" xml:space="preserve">
<g id="Layer_1">
	<path fill="#6B3A19" d="M30.747,18.165c0,8.545-6.881,15.315-15.428,15.315C6.769,33.479,0,26.592,0,18.165v-2.968L15.319,2.85
		l15.428,12.464V18.165z"/>
	<path fill="#6B3A19" d="M28.021,41.546c-0.118,0.125-0.236,0.125-0.354,0.125c-0.478,0-1.546-0.945-1.665-1.429
		c-0.236-0.589,0.354-2.846,0.95-3.081c0.237-0.118,19.94-7.241,30.397-24.102v-2.968c0,0-19.237,7.838-23.982,10.564
		c0,0.359,0,0.713,0,1.068c0,6.415-4.16,11.991-9.855,14.127c-0.479,2.26,0.236,4.627-0.95,7.246V78h10.682V42.862
		c8.308-0.721,17.101-2.384,20.182-5.583c3.441-3.446,4.87-13.537,5.576-20.537v-2.968c0,0-3.203,7.595-3.553,8.073
		C44.285,35.852,28.853,41.198,28.021,41.546z"/>
	<path fill="#F58536" d="M15.319,0c8.459,0,15.315,6.856,15.315,15.315c0,8.457-6.856,15.314-15.315,15.314
		C6.857,30.629,0,23.772,0,15.315C0.001,6.856,6.859,0,15.319,0z"/>
	<g>
		<path fill="#FFFFFF" d="M11.402,27.424h7.831v-14.96h5.582l-9.496-9.377l-9.501,9.377h5.583L11.402,27.424L11.402,27.424z
			 M8.434,11.396l6.886-6.763l6.882,6.763h-4.037v14.959h-5.695V11.396H8.434z"/>
	</g>
	<path fill="#F58536" d="M28.021,38.584c-0.118,0.118-0.236,0.118-0.354,0.118c-0.478,0-1.546-0.951-1.665-1.422
		c-0.236-0.596,0.354-2.851,0.95-3.087c0.237-0.118,19.94-7.241,30.397-24.102c-7.127,0.951-17.933,4.037-23.982,7.596
		c0,0.36,0,0.714,0,1.074c0,6.409-4.16,11.986-9.855,14.123c-0.479,2.26,0.236,4.632-0.95,7.246v34.902h10.682V39.889
		c8.308-0.711,17.101-2.374,20.182-5.578c3.441-3.447,4.87-13.532,5.576-20.538C47.962,31.697,28.853,38.229,28.021,38.584z"/>
</g>
</svg>
