<?xml version="1.0" encoding="utf-8"?>
<!-- Generator: Adobe Illustrator 16.0.0, SVG Export Plug-In . SVG Version: 6.00 Build 0)  -->
<!DOCTYPE svg PUBLIC "-//W3C//DTD SVG 1.1//EN" "http://www.w3.org/Graphics/SVG/1.1/DTD/svg11.dtd">
<svg version="1.1" id="图层_1" xmlns="http://www.w3.org/2000/svg" xmlns:xlink="http://www.w3.org/1999/xlink" x="0px" y="0px"
	 width="75px" height="75px" viewBox="0 0 75 75" enable-background="new 0 0 75 75" xml:space="preserve">
<g id="Layer_1">
	<g>
		<path fill="#9D5025" d="M61.063,75H13.946C7.176,75,1.621,69.445,1.621,62.684V15.706c0-6.771,5.555-12.325,12.325-12.325h47.117
			c6.761,0,12.315,5.555,12.315,12.325v47.117C73.379,69.584,67.824,75,61.063,75z"/>
		<path fill="#F58536" d="M61.063,71.757H13.946c-6.771,0-12.325-5.554-12.325-12.333V12.316C1.621,5.555,7.176,0,13.946,0h47.117
			c6.761,0,12.315,5.555,12.315,12.316v47.108C73.379,66.203,67.824,71.757,61.063,71.757z"/>
	</g>
	<rect x="38.982" y="44.142" fill="#FFFFFF" width="7.729" height="15.282"/>
	<rect x="48.471" y="36.284" fill="#FFFFFF" width="7.71" height="23.14"/>
	<rect x="57.802" y="49.42" fill="#FFFFFF" width="7.729" height="10.004"/>
	<polygon fill="#FFFFFF" points="64.978,60.648 39.536,60.648 38.311,60.648 38.311,61.735 38.311,63.633 38.311,64.72 
		39.536,64.72 64.978,64.72 66.064,64.72 66.064,63.633 66.064,61.735 66.064,60.648 	"/>
</g>
</svg>
