<?xml version="1.0" encoding="utf-8"?>
<!-- Generator: Adobe Illustrator 16.0.0, SVG Export Plug-In . SVG Version: 6.00 Build 0)  -->
<!DOCTYPE svg PUBLIC "-//W3C//DTD SVG 1.1//EN" "http://www.w3.org/Graphics/SVG/1.1/DTD/svg11.dtd">
<svg version="1.1" id="图层_1" xmlns="http://www.w3.org/2000/svg" xmlns:xlink="http://www.w3.org/1999/xlink" x="0px" y="0px"
	 width="75px" height="21px" viewBox="0 0 75 21" enable-background="new 0 0 75 21" xml:space="preserve">
<g id="Layer_1">
	<g>
		<path fill="#9D5025" d="M50.37,2.747l17.892,6.598l0.221,0.109l6.404-0.329v2.751l-6.184,2.311l-0.327,0.106l-0.222,0.112
			L50.256,21v-6.595h-33.91c-1.104,3.299-4.195,5.716-7.952,5.716C3.757,20.123,0,16.386,0,11.876V9.125l16.346,0.329H50.37V2.747z"
			/>
	</g>
	<g>
		<path fill="#F58536" d="M50.37,0l17.892,6.597l0.221,0.11l0.336,0.109L75,9.126l-6.184,2.31l-0.334,0.106l-0.106,0.114
			L50.479,18.25v-6.594H16.346c-1.104,3.296-4.195,5.713-7.952,5.713C3.757,17.371,0,13.635,0,9.126C0,4.619,3.757,0.88,8.394,0.88
			c3.757,0,6.848,2.417,7.952,5.718H50.37V0z"/>
	</g>
</g>
</svg>
