<?xml version="1.0" encoding="utf-8"?>
<!-- Generator: Adobe Illustrator 16.0.0, SVG Export Plug-In . SVG Version: 6.00 Build 0)  -->
<!DOCTYPE svg PUBLIC "-//W3C//DTD SVG 1.1//EN" "http://www.w3.org/Graphics/SVG/1.1/DTD/svg11.dtd">
<svg version="1.1" id="图层_1" xmlns="http://www.w3.org/2000/svg" xmlns:xlink="http://www.w3.org/1999/xlink" x="0px" y="0px"
	 width="75px" height="75px" viewBox="0 0 75 75" enable-background="new 0 0 75 75" xml:space="preserve">
<g id="Layer_1">
	<path fill="#9D5025" d="M69.371,75H36.883c-2.294,0-4.062-1.759-4.062-4.053V38.449c0-2.303,1.768-4.063,4.062-4.063h32.488
		c2.313,0,4.072,1.759,4.072,4.063v32.498C73.443,73.241,71.547,75,69.371,75z"/>
	<path fill="#9D5025" d="M38.099,3.252H5.61c-2.294,0-4.053,1.759-4.053,4.063v32.479c0,2.313,1.759,4.071,4.053,4.071h7.452V22.882
		c0-4.468,3.657-8.125,8.125-8.125H42.17V7.314C42.17,5.14,40.273,3.252,38.099,3.252z"/>
	<path fill="#9D5025" d="M53.676,18.819H21.187c-2.303,0-4.063,1.759-4.063,4.063V55.37c0,2.294,1.759,4.054,4.063,4.054h7.581
		V38.449c0-4.468,3.647-8.125,8.115-8.125h20.845v-7.443C57.729,20.717,55.969,18.819,53.676,18.819z"/>
	<path fill="#F58536" d="M69.371,71.757H36.883c-2.294,0-4.062-1.759-4.062-4.071V35.197c0-2.302,1.768-4.062,4.062-4.062h32.488
		c2.313,0,4.072,1.76,4.072,4.062v32.489C73.443,69.86,71.547,71.757,69.371,71.757z"/>
	<path fill="#F58536" d="M38.099,0H5.61C3.316,0,1.557,1.76,1.557,4.062v32.489c0,2.294,1.759,4.053,4.053,4.053h7.452V19.629
		c0-4.467,3.657-8.125,8.125-8.125H42.17V4.062C42.17,1.76,40.273,0,38.099,0z"/>
	<path fill="#F58536" d="M53.676,15.567H21.187c-2.303,0-4.063,1.76-4.063,4.062v32.499c0,2.294,1.759,4.053,4.063,4.053h7.581
		V35.059c0-4.468,3.647-8.115,8.115-8.115h20.845v-7.452C57.729,17.327,55.969,15.567,53.676,15.567z"/>
</g>
</svg>
