<?xml version="1.0" encoding="utf-8"?>
<!-- Generator: Adobe Illustrator 16.0.0, SVG Export Plug-In . SVG Version: 6.00 Build 0)  -->
<!DOCTYPE svg PUBLIC "-//W3C//DTD SVG 1.1//EN" "http://www.w3.org/Graphics/SVG/1.1/DTD/svg11.dtd">
<svg version="1.1" id="图层_1" xmlns="http://www.w3.org/2000/svg" xmlns:xlink="http://www.w3.org/1999/xlink" x="0px" y="0px"
	 width="75px" height="75px" viewBox="0 0 75 75" enable-background="new 0 0 75 75" xml:space="preserve">
<g id="Layer_1">
	<g>
		<circle fill="#9D5025" cx="37.438" cy="39.038" r="35.962"/>
		<rect x="1.477" y="35.962" fill="#9D5025" width="72.047" height="2.954"/>
		<circle fill="#F58536" cx="37.438" cy="35.962" r="35.962"/>
		<g>
			<polygon fill="#FFFFFF" points="39.802,32.056 35.076,32.056 32.591,10.648 42.286,10.648 			"/>
		</g>
		<g>
			<polygon fill="#FFFFFF" points="58.256,47.908 60.15,46.371 53.408,36.319 38.62,31.114 37.438,39.272 50.689,40.575 			"/>
		</g>
		<g>
			<polygon fill="#FFFFFF" points="16.621,47.908 14.727,46.371 21.47,36.319 36.258,31.114 37.438,39.272 24.193,40.575 			"/>
		</g>
		<path fill="#FFFFFF" d="M37.438,4.023c3.659,0,6.631,2.965,6.631,6.625s-2.972,6.625-6.631,6.625s-6.625-2.966-6.625-6.625
			S33.779,4.023,37.438,4.023z"/>
		<path fill="#F58536" d="M37.438,17.981c-4.018,0-7.216-3.31-7.216-7.216c0-3.906,3.315-7.216,7.216-7.216s7.222,3.31,7.222,7.216
			C44.66,14.671,41.462,17.981,37.438,17.981z M37.438,4.614c-3.31,0-6.029,2.719-6.029,6.034c0,3.311,2.72,6.029,6.029,6.029
			c3.311,0,6.04-2.719,6.04-6.029C43.479,7.333,40.749,4.614,37.438,4.614z"/>
		<path fill="#F58536" d="M37.438,8.397c1.242,0,2.252,1.009,2.252,2.25c0,1.243-1.01,2.246-2.252,2.246
			c-1.241,0-2.245-1.003-2.245-2.246C35.193,9.406,36.197,8.397,37.438,8.397z"/>
		<path fill="#FFFFFF" d="M37.438,30.284c2.683,0,4.848,2.17,4.848,4.848c0,2.683-2.165,4.853-4.848,4.853
			c-2.678,0-4.848-2.169-4.848-4.853C32.591,32.454,34.761,30.284,37.438,30.284z"/>
		<path fill="#F58536" d="M37.438,40.575c-2.953,0-5.438-2.484-5.438-5.443c0-2.953,2.485-5.438,5.438-5.438
			c2.965,0,5.438,2.485,5.438,5.438C42.877,38.091,40.403,40.575,37.438,40.575z M37.438,30.875c-2.362,0-4.257,1.895-4.257,4.257
			c0,2.368,1.895,4.262,4.257,4.262c2.363,0,4.257-1.894,4.257-4.262C41.695,32.886,39.802,30.875,37.438,30.875z"/>
		<path fill="#F58536" d="M37.438,33.594c0.854,0,1.538,0.689,1.538,1.538c0,0.854-0.685,1.538-1.538,1.538
			c-0.848,0-1.537-0.684-1.537-1.538C35.901,34.284,36.591,33.594,37.438,33.594z"/>
		<rect x="21.942" y="46.26" fill="#FFFFFF" width="31.109" height="17.15"/>
		<rect x="23.48" y="47.674" fill="#FBBF93" width="2.368" height="14.432"/>
		<rect x="27.737" y="47.674" fill="#FBBF93" width="2.368" height="14.432"/>
		<rect x="32" y="47.674" fill="#FBBF93" width="2.363" height="14.432"/>
		<rect x="36.258" y="47.674" fill="#FBBF93" width="2.362" height="14.432"/>
		<rect x="40.515" y="47.674" fill="#FBBF93" width="2.362" height="14.432"/>
		<rect x="44.772" y="47.674" fill="#FBBF93" width="2.373" height="14.432"/>
		<rect x="49.028" y="47.674" fill="#FBBF93" width="2.374" height="14.432"/>
	</g>
</g>
</svg>
