<?xml version="1.0" encoding="utf-8"?>
<!-- Generator: Adobe Illustrator 16.0.0, SVG Export Plug-In . SVG Version: 6.00 Build 0)  -->
<!DOCTYPE svg PUBLIC "-//W3C//DTD SVG 1.1//EN" "http://www.w3.org/Graphics/SVG/1.1/DTD/svg11.dtd">
<svg version="1.1" id="图层_1" xmlns="http://www.w3.org/2000/svg" xmlns:xlink="http://www.w3.org/1999/xlink" x="0px" y="0px"
	 width="75px" height="70px" viewBox="0 0 75 70" enable-background="new 0 0 75 70" xml:space="preserve">
<g id="Layer_1">
	<g>
		<polygon fill="#9D5025" points="4.007,4.709 0,6.714 0,63.28 4.007,65.292 19.812,36.177 		"/>
		<polygon fill="#9D5025" points="16.271,14.845 22.167,6.481 48.703,18.266 42.457,19.327 		"/>
		<polygon fill="#9D5025" points="11.676,55.737 18.161,64.702 48.703,51.495 42.802,50.561 		"/>
		<polygon fill="#F58536" points="13.326,63.17 4.007,65.292 4.007,4.709 13.326,6.831 		"/>
		<polygon fill="#9D5025" points="8.375,2.471 13.326,0 22.64,38.889 13.326,70 8.375,67.523 		"/>
		<polygon fill="#9D5025" points="42.457,50.561 48.703,51.495 54.359,35.589 48.703,18.266 42.457,19.327 		"/>
		<polygon fill="#F58536" points="22.879,67.291 13.326,70 13.326,0 22.879,2.709 		"/>
		<polygon fill="#F58536" points="55.193,50.317 13.326,58.104 13.326,70 55.193,58.215 		"/>
		<polygon fill="#F58536" points="55.305,19.56 13.326,11.546 13.326,0 55.305,11.902 		"/>
		<polygon fill="#F58536" points="48.703,10.013 55.428,11.902 55.428,58.215 48.703,60.103 		"/>
		<polygon fill="#6B3A19" points="75,28.874 57.072,29.696 50.704,29.341 68.863,14.612 		"/>
		<polygon fill="#9D5025" points="50.704,29.341 68.863,28.28 68.863,14.612 50.704,17.556 		"/>
		<polygon fill="#6B3A19" points="33.61,28.163 52.004,9.542 61.318,27.458 42.213,28.753 		"/>
		<polygon fill="#9D5025" points="33.61,28.163 52.004,26.63 52.004,9.542 33.61,13.907 		"/>
		<polygon fill="#9D5025" points="50.704,40.896 75,41.365 68.863,55.628 50.704,52.683 		"/>
		<polygon fill="#9D5025" points="33.61,42.076 61.318,42.775 52.004,60.692 33.61,56.327 		"/>
		<polygon fill="#FBBF93" points="33.61,42.076 52.004,43.722 61.318,42.775 42.213,41.486 		"/>
		<polygon fill="#FBBF93" points="75,41.365 57.072,40.543 50.704,40.896 68.863,41.954 		"/>
		<polygon fill="#F58536" points="68.863,28.28 75,28.874 75,16.494 68.863,14.612 		"/>
		<polygon fill="#F58536" points="61.318,27.458 52.004,26.63 52.004,9.542 61.318,12.373 		"/>
		<polygon fill="#F58536" points="68.863,41.954 75,41.365 75,53.738 68.863,55.628 		"/>
		<polygon fill="#F58536" points="61.318,42.775 52.004,43.722 52.004,60.692 61.318,57.86 		"/>
	</g>
</g>
</svg>
