<?xml version="1.0" encoding="utf-8"?>
<!-- Generator: Adobe Illustrator 16.0.0, SVG Export Plug-In . SVG Version: 6.00 Build 0)  -->
<!DOCTYPE svg PUBLIC "-//W3C//DTD SVG 1.1//EN" "http://www.w3.org/Graphics/SVG/1.1/DTD/svg11.dtd">
<svg version="1.1"
	 id="svg2" xmlns:dc="http://purl.org/dc/elements/1.1/" xmlns:cc="http://creativecommons.org/ns#" xmlns:rdf="http://www.w3.org/1999/02/22-rdf-syntax-ns#" xmlns:svg="http://www.w3.org/2000/svg"
	 xmlns="http://www.w3.org/2000/svg" xmlns:xlink="http://www.w3.org/1999/xlink" x="0px" y="0px" width="78px" height="58px"
	 viewBox="0 0 78 58" enable-background="new 0 0 78 58" xml:space="preserve">
<g id="g12" transform="scale(0.1,0.1)">
	<path id="path22" fill="#087BBB" d="M207.148,580h510.977V69.258H207.148V580z"/>
	<path id="path24" fill="none" stroke="#FFFFFF" stroke-width="3.9999" d="M207.148,580h510.977V69.258H207.148V580z"/>
	<path id="path26" fill="#087BBB" d="M266.909,3.218h510.864l-63.984,64.575h-510.84L266.909,3.218"/>
	<path id="path28" fill="none" stroke="#FFFFFF" stroke-width="3.9999" d="M266.909,3.218h510.864l-63.984,64.575h-510.84
		L266.909,3.218z"/>
	<path id="path30" fill="#087BBB" d="M780,481.855l-63.984,93.457V64.448L780,0V481.855"/>
	<path id="path32" fill="none" stroke="#FFFFFF" stroke-width="3.9999" d="M780,481.855l-63.984,93.457V64.448L780,0V481.855z"/>
	<path id="path34" fill="#087BBB" d="M0,580h207.148V69.258H0V580z"/>
	<path id="path36" fill="none" stroke="#FFFFFF" stroke-width="3.9999" d="M0,580h207.148V69.258H0V580z"/>
	<path id="path38" fill="#087BBB" d="M67.72,3.218h207.148l-63.975,64.575H3.745L67.72,3.218"/>
	<path id="path40" fill="none" stroke="#FFFFFF" stroke-width="3.9999" d="M67.72,3.218h207.148l-63.975,64.575H3.745L67.72,3.218z"
		/>
	<path id="path42" fill="#087BBB" d="M207.148,69.258V580"/>
	<path id="path44" fill="none" stroke="#FFFFFF" stroke-width="3.9999" d="M207.148,69.258V580"/>
	<path id="path46" fill="#231F20" d="M210.894,253.457H3.745"/>
	<path id="path48" fill="none" stroke="#FFFFFF" stroke-width="3.9999" d="M210.894,253.457H3.745"/>
	<path id="path50" fill="#FFFFFF" d="M388.364,313.594H277.72v-18.74l-41.665,27.715l41.665,27.559v-18.809h110.645V313.594"/>
	<path id="path52" fill="#FFFFFF" d="M404.336,369.912l-78.276,78.193l-13.271-13.408l-9.932,49.16l49.102-9.893l-13.281-13.418
		l78.14-77.92L404.336,369.912"/>
	<path id="path54" fill="#FFFFFF" d="M455.449,398.584v110.39h-18.828l27.832,41.748l27.598-41.748h-18.867v-110.39H455.449"/>
	<path id="path56" fill="#FFFFFF" d="M511.855,382.627l78.262,77.92l-13.418,13.418l49.219,9.893l-9.922-49.16l-13.418,13.408
		l-77.988-78.193L511.855,382.627"/>
	<path id="path58" fill="#FFFFFF" d="M540.566,331.318h110.508v18.809l41.543-27.559l-41.543-27.715v18.74H540.566V331.318"/>
	<path id="path60" fill="#FFFFFF" d="M524.59,275.098l77.988-78.042l13.418,13.14l9.922-49.038l-49.219,10.044l13.418,13.14
		l-78.262,78.179L524.59,275.098"/>
	<path id="path62" fill="#FFFFFF" d="M473.184,246.553V136.04h18.867l-27.598-41.602l-27.832,41.602h18.828v110.513H473.184"/>
	<path id="path64" fill="#FFFFFF" d="M416.816,262.52l-78.14-78.179l13.281-13.14l-49.102-10.044l9.932,49.038l13.271-13.14
		l78.276,78.042L416.816,262.52"/>
	<path id="path66" fill="#FFFFFF" d="M556.934,254.961c-36.094-51.719-107.559-64.292-159.336-28.105
		c-51.782,36.191-64.37,107.451-28.12,159.17c36.362,51.728,107.554,64.414,159.331,28.105
		C580.586,378.057,593.301,306.689,556.934,254.961"/>
	<path id="path68" fill="#FFFFFF" d="M84.219,160.684H51.055v-5.664l-12.529,8.32l12.529,8.325v-5.649h33.164V160.684"/>
	<path id="path70" fill="#FFFFFF" d="M89.053,177.651l-23.491,23.364l-3.931-3.921l-3.003,14.604l14.771-2.988l-4.053-3.906
		l23.506-23.486L89.053,177.651"/>
	<path id="path72" fill="#FFFFFF" d="M104.375,186.147v33.13h-5.654l8.33,12.52l8.33-12.52h-5.664v-33.13H104.375"/>
	<path id="path74" fill="#FFFFFF" d="M121.24,181.318l23.501,23.486l-3.916,3.906l14.644,2.988l-3.013-14.604l-3.916,3.921
		l-23.506-23.364L121.24,181.318"/>
	<path id="path76" fill="#FFFFFF" d="M129.873,166.016h33.159v5.649l12.529-8.325l-12.529-8.32v5.664h-33.159V166.016"/>
	<path id="path78" fill="#FFFFFF" d="M125.034,149.18l23.506-23.486l3.916,4.043l3.013-14.741l-14.644,2.998l3.916,3.906
		l-23.501,23.486L125.034,149.18"/>
	<path id="path80" fill="#FFFFFF" d="M109.717,140.552v-33.12h5.664l-8.33-12.524l-8.33,12.524h5.654v33.12H109.717"/>
	<path id="path82" fill="#FFFFFF" d="M92.852,145.386l-23.506-23.486l4.053-3.906l-14.771-2.998l3.003,14.741l3.931-4.043
		l23.491,23.486L92.852,145.386"/>
	<path id="path84" fill="#FFFFFF" d="M134.854,143.12c-10.947-15.547-32.329-19.321-47.764-8.403
		c-15.566,10.791-19.355,32.148-8.535,47.7c10.933,15.547,32.314,19.321,47.881,8.403
		C141.987,180.034,145.771,158.657,134.854,143.12"/>
	<path id="path86" fill="#FFFFFF" d="M95.557,420.361v91.885H79.966l22.944,34.775l23.081-34.775H110.4v-91.885H95.557"/>
	<path id="path88" fill="#FFFFFF" d="M121.094,418.418l31.362,86.172l-14.595,5.332l33.501,24.834l9.663-40.635l-14.575,5.352
		l-31.504-86.201L121.094,418.418"/>
	<path id="path90" fill="#FFFFFF" d="M85.381,418.418L54.014,504.59l14.6,5.332l-33.501,24.834l-9.668-40.635l14.58,5.352
		l31.499-86.201L85.381,418.418"/>
	<path id="path92" fill="#FFFFFF" d="M95.557,278.125v88.564H79.966l22.944,34.521l23.081-34.521H110.4v-88.564H95.557"/>
</g>
</svg>
