<?xml version="1.0" encoding="utf-8"?>
<!-- Generator: Adobe Illustrator 16.0.0, SVG Export Plug-In . SVG Version: 6.00 Build 0)  -->
<!DOCTYPE svg PUBLIC "-//W3C//DTD SVG 1.1//EN" "http://www.w3.org/Graphics/SVG/1.1/DTD/svg11.dtd">
<svg version="1.1"
	 id="svg2" xmlns:dc="http://purl.org/dc/elements/1.1/" xmlns:cc="http://creativecommons.org/ns#" xmlns:rdf="http://www.w3.org/1999/02/22-rdf-syntax-ns#" xmlns:svg="http://www.w3.org/2000/svg"
	 xmlns="http://www.w3.org/2000/svg" xmlns:xlink="http://www.w3.org/1999/xlink" x="0px" y="0px" width="78px" height="54px"
	 viewBox="0 0 78 54" enable-background="new 0 0 78 54" xml:space="preserve">
<g id="g12" transform="scale(0.1,0.1)">
	<path id="path22" fill="#087BBB" d="M11.567,523.828h613.506V152.661H11.567V523.828z"/>
	<path id="path24" fill="none" stroke="#FFFFFF" stroke-width="3.9999" d="M11.567,523.828h613.506V152.661H11.567V523.828z"/>
	<path id="path26" fill="#087BBB" d="M10,153.696L197.695,10h572.3L624.468,153.696H10"/>
	<path id="path28" fill="none" stroke="#FFFFFF" stroke-width="3.9999" d="M10,153.696L197.695,10h572.3L624.468,153.696H10z"/>
	<path id="path30" fill="#087BBB" d="M624.604,530l144.805-164.209l0.117-355.429L624.604,153.384V530"/>
	<path id="path32" fill="none" stroke="#FFFFFF" stroke-width="3.9999" d="M624.604,530l144.805-164.209l0.117-355.429
		L624.604,153.384V530z"/>
	<path id="path34" fill="#FFFFFF" d="M249.004,286.855c14.175-57.051-22.256-87.134-53.799-82.471l-1.763,0.381
		c-9.395-44.365-74.849-32.754-74.849-11.392l0.059,2.041c-30.776-5.327-62.148,46.616-46.421,75.581l2.461,1.846
		c-27.627,10.352-32.295,46.934-33.438,83.252c-0.947,31.367,2.124,49.785,19.297,63.213l-0.747,2.109
		c-5.015,50.381,38.408,73.135,69.58,62.285l0.908,2.588c5.63,17.139,55.156,19.16,62.407-10.322l1.987,0.615
		c32.109,12.715,62.48-17.295,56.816-59.053l1.87-2.891c33.848-30.078,28.306-116.23-5.146-126.123L249.004,286.855"/>
	<path id="path36" fill="#FFFFFF" d="M560.522,286.855c14.18-57.051-22.266-87.134-53.906-82.471l-1.66,0.381
		c-9.492-44.365-74.922-32.754-74.922-11.392l0.039,2.041c-30.664-5.327-62.051,46.616-46.406,75.581l2.539,1.846
		c-27.715,10.352-32.285,46.934-33.438,83.252c-1.035,31.367,2.041,49.785,19.297,63.213l-0.742,2.109
		c-5.098,50.381,38.223,73.135,69.395,62.285l1.074,2.588c5.547,17.139,55.098,19.16,62.441-10.322l1.816,0.615
		c32.285,12.715,62.637-17.295,56.875-59.053l1.973-2.891c33.75-30.078,28.32-116.23-5.156-126.123L560.522,286.855"/>
	<path id="path38" fill="#087BBB" d="M175.4,291.621l-35.391-35.313l-17.227,17.344l-3.755-53.418l54.131,3.008l-18.813,18.828
		l35.293,35.313L175.4,291.621"/>
	<path id="path40" fill="#087BBB" d="M175.4,396.025L140.01,431.24l-17.227-17.236l-3.755,53.408l54.131-2.998l-18.813-18.916
		l35.293-35.225L175.4,396.025"/>
	<path id="path42" fill="#087BBB" d="M141.021,354.707H91.143v24.492L50.737,344.15l40.405-36.22v26.621h49.878V354.707"/>
	<path id="path44" fill="#087BBB" d="M459.761,291.621l35.41-35.313l17.207,17.344l3.75-53.418l-54.121,3.008l18.711,18.828
		l-35.176,35.313L459.761,291.621"/>
	<path id="path46" fill="#087BBB" d="M459.761,396.025l35.41,35.215l17.207-17.236l3.75,53.408l-54.121-2.998l18.711-18.916
		l-35.176-35.225L459.761,396.025"/>
	<path id="path48" fill="#087BBB" d="M488.472,354.707h49.883v24.492l40.293-35.049l-40.293-36.22v26.621h-49.883V354.707"/>
	<path id="path50" fill="#FFFFFF" d="M264.868,355.332h99.014v-20.156h-99.014V355.332z"/>
	<path id="path52" fill="#087BBB" d="M351.011,354.707h49.98v24.492l40.293-35.049l-40.293-36.22v26.621h-49.98V354.707"/>
	<path id="path54" fill="#087BBB" d="M274.341,354.707h-49.878v24.492l-40.396-35.049l40.396-36.22v26.621h49.878V354.707"/>
</g>
</svg>
