<?xml version="1.0" encoding="utf-8"?>
<!-- Generator: Adobe Illustrator 16.0.0, SVG Export Plug-In . SVG Version: 6.00 Build 0)  -->
<!DOCTYPE svg PUBLIC "-//W3C//DTD SVG 1.1//EN" "http://www.w3.org/Graphics/SVG/1.1/DTD/svg11.dtd">
<svg version="1.1"
	 id="svg2" xmlns:cc="http://creativecommons.org/ns#" xmlns:rdf="http://www.w3.org/1999/02/22-rdf-syntax-ns#" xmlns:svg="http://www.w3.org/2000/svg" xmlns:dc="http://purl.org/dc/elements/1.1/"
	 xmlns="http://www.w3.org/2000/svg" xmlns:xlink="http://www.w3.org/1999/xlink" x="0px" y="0px" width="78px" height="52px"
	 viewBox="0 0 78 52" enable-background="new 0 0 78 52" xml:space="preserve">
<g id="g16">
	<path id="path22" fill="#087FBF" d="M1.008,51h70.477V6.969H1.008V51z"/>
	<path id="path24" fill="none" stroke="#FFFFFF" stroke-width="4" d="M1.008,51h70.477V6.969H1.008V51z"/>
	<path id="path26" fill="#087FBF" d="M6.522,1.281H77l-5.521,5.563H1L6.522,1.281"/>
	<path id="path28" fill="none" stroke="#FFFFFF" stroke-width="4" d="M6.522,1.281H77l-5.521,5.563H1L6.522,1.281z"/>
	<path id="path30" fill="#087FBF" d="M76.839,42.542l-5.522,8.054V6.557L76.839,1V42.542"/>
	<path id="path32" fill="none" stroke="#FFFFFF" stroke-width="4" d="M76.839,42.542l-5.522,8.054V6.557L76.839,1V42.542z"/>
	<path id="path34" fill="#FFFFFF" d="M33.584,36.53l5.022-3.671c-4.948-0.04-7.452,0.102-10.708,0.331
		c-1.573,4.768-1.543,6.037-3.133,9.222l3.889-2.278c3.752,2.803,8.364,3.493,12.278,2.052c0.105-0.076,0.229-0.15,0.335-0.229
		l6.315-4.601C43.538,40.293,37.854,40.007,33.584,36.53"/>
	<path id="path36" fill="none" stroke="#231F20" stroke-width="1.919" d="M33.584,36.53l5.022-3.671
		c-4.948-0.04-7.452,0.102-10.708,0.331c-1.573,4.768-1.543,6.037-3.133,9.222l3.889-2.278c3.752,2.803,8.364,3.493,12.278,2.052
		c0.105-0.076,0.229-0.15,0.335-0.229l6.315-4.601C43.538,40.293,37.854,40.007,33.584,36.53z"/>
	<path id="path38" fill="#FFFFFF" d="M29.146,29.997c-1.309-4.086-0.621-8.602,2.173-11.79c0.529-0.602,1.115-1.129,1.729-1.579
		l-6.308,4.603c-0.617,0.449-1.196,0.977-1.729,1.582c-2.771,3.161-3.459,7.617-2.207,11.684L29.146,29.997"/>
	<path id="path40" fill="none" stroke="#231F20" stroke-width="1.919" d="M29.146,29.997c-1.309-4.086-0.621-8.602,2.173-11.79
		c0.529-0.602,1.115-1.129,1.729-1.579l-6.308,4.603c-0.617,0.449-1.196,0.977-1.729,1.582c-2.771,3.161-3.459,7.617-2.207,11.684
		L29.146,29.997z"/>
	<path id="path42" fill="#FFFFFF" d="M41.58,16.502c-2.521-0.942-5.195-1.1-7.662-0.441c-0.3,0.17-0.591,0.36-0.871,0.567
		l-6.308,4.603c2.896-2.112,6.641-2.556,10.102-1.362l-3.461,2.458l10.714-0.224l0.703-7.868L41.58,16.502"/>
	<path id="path44" fill="none" stroke="#231F20" stroke-width="1.919" d="M41.58,16.502c-2.521-0.942-5.195-1.1-7.662-0.441
		c-0.3,0.17-0.591,0.36-0.871,0.567l-6.308,4.603c2.896-2.112,6.641-2.556,10.102-1.362l-3.461,2.458l10.714-0.224l0.703-7.868
		L41.58,16.502z"/>
	<path id="path46" fill="#FFFFFF" d="M49.637,19.593c3.96,6.432,2.492,12.845-0.33,16.183c-0.526,0.602-1.11,1.126-1.724,1.581
		l-6.315,4.601c0.614-0.449,1.196-0.98,1.725-1.581c5.14-6.106,2.124-12.199,0.52-16.205L49.637,19.593"/>
	<path id="path48" fill="none" stroke="#231F20" stroke-width="1.919" d="M49.637,19.593c3.96,6.432,2.492,12.845-0.33,16.183
		c-0.526,0.602-1.11,1.126-1.724,1.581l-6.315,4.601c0.614-0.449,1.196-0.98,1.725-1.581c5.14-6.106,2.124-12.199,0.52-16.205
		L49.637,19.593z"/>
	<path id="path50" fill="#FFFFFF" d="M14.523,31.033L3.998,30.933v-2.007l10.525-0.008l0.003-3.121l6.091,4.118l-6.091,4.13
		L14.523,31.033"/>
	<path id="path52" fill="#FFFFFF" d="M59.476,31.033l10.522-0.101v-2.007l-10.522-0.008l-0.003-3.121l-6.084,4.118l6.084,4.13
		L59.476,31.033"/>
</g>
</svg>
