<?xml version="1.0" encoding="utf-8"?>
<!-- Generator: Adobe Illustrator 16.0.0, SVG Export Plug-In . SVG Version: 6.00 Build 0)  -->
<!DOCTYPE svg PUBLIC "-//W3C//DTD SVG 1.1//EN" "http://www.w3.org/Graphics/SVG/1.1/DTD/svg11.dtd">
<svg version="1.1"
	 id="svg2" xmlns:dc="http://purl.org/dc/elements/1.1/" xmlns:cc="http://creativecommons.org/ns#" xmlns:rdf="http://www.w3.org/1999/02/22-rdf-syntax-ns#" xmlns:svg="http://www.w3.org/2000/svg"
	 xmlns="http://www.w3.org/2000/svg" xmlns:xlink="http://www.w3.org/1999/xlink" x="0px" y="0px" width="60px" height="80px"
	 viewBox="0 0 60 80" enable-background="new 0 0 60 80" xml:space="preserve">
<g id="g12" transform="scale(0.1,0.1)">
	<path id="path22" fill="#087BBB" d="M585.002,692.563V15l-97.578,92.432v677.573L585.002,692.563"/>
	<path id="path24" fill="none" stroke="#FFFFFF" stroke-width="3.9999" d="M585.002,692.563V15l-97.578,92.432v677.573
		L585.002,692.563z"/>
	<path id="path26" fill="#087BBB" d="M585.002,15l-97.578,92.432H15.002L137.356,15H585.002"/>
	<path id="path28" fill="none" stroke="#FFFFFF" stroke-width="3.9999" d="M585.002,15l-97.578,92.432H15.002L137.356,15H585.002z"
		/>
	<path id="path30" fill="#087BBB" d="M15.002,574.243h472.422V107.432H15.002V574.243z"/>
	<path id="path32" fill="none" stroke="#FFFFFF" stroke-width="3.9999" d="M15.002,574.243h472.422V107.432H15.002V574.243z"/>
	<path id="path34" fill="#087BBB" d="M15.002,785.005h472.422V578.911H15.002V785.005z"/>
	<path id="path36" fill="none" stroke="#FFFFFF" stroke-width="3.9999" d="M15.002,785.005h472.422V578.911H15.002V785.005z"/>
	<path id="path38" fill="#FFFFFF" d="M209.124,285.396l-71.865-71.807l12.139-12.129l-45.146-9.087l9.102,45.083l12.266-12.256
		l71.895,71.816L209.124,285.396"/>
	<path id="path40" fill="#FFFFFF" d="M182.834,332.407H81.184v-17.266L42.805,340.63l38.379,25.469v-17.266h101.65V332.407"/>
	<path id="path42" fill="#FFFFFF" d="M197.512,384.243l-71.895,71.933l-12.266-12.383l-9.102,45.098l45.146-9.102l-12.139-12.129
		l71.865-71.816L197.512,384.243"/>
	<path id="path44" fill="#FFFFFF" d="M244.573,410.512v101.543h-17.266l25.479,38.34l25.381-38.34h-17.266V410.512H244.573"/>
	<path id="path46" fill="#FFFFFF" d="M244.573,273.687V172.139h-17.266l25.479-38.33l25.381,38.33h-17.266v101.548H244.573"/>
	<path id="path48" fill="#FFFFFF" d="M296.467,395.844l71.875,71.816l-12.148,12.129l45.166,9.102l-9.385-45.098l-12.139,12.383
		l-71.758-71.933L296.467,395.844"/>
	<path id="path50" fill="#FFFFFF" d="M322.649,348.833H424.29v17.266l38.389-25.469l-38.389-25.488v17.266H322.649V348.833"/>
	<path id="path52" fill="#FFFFFF" d="M308.079,297.017l71.758-71.816l12.139,12.256l9.385-45.083l-45.166,9.087l12.148,12.129
		l-71.875,71.807L308.079,297.017"/>
	<path id="path54" fill="#FFFFFF" d="M315.09,426.509c48.027-33.389,59.59-99.472,26.152-147.461
		c-33.701-47.866-99.727-59.512-147.764-25.991c-47.9,33.511-59.57,99.604-26.006,147.593
		C201.028,448.637,267.19,460.161,315.09,426.509"/>
	<path id="path56" fill="none" stroke="#231F20" stroke-width="3.9999" d="M315.09,426.509
		c48.027-33.389,59.59-99.472,26.152-147.461c-33.701-47.866-99.727-59.512-147.764-25.991
		c-47.9,33.511-59.57,99.604-26.006,147.593C201.028,448.637,267.19,460.161,315.09,426.509z"/>
	<path id="path58" fill="#FFFFFF" d="M257.307,689.614h101.523v17.227l38.379-25.449l-38.379-25.215v16.992H257.307V689.614"/>
	<path id="path60" fill="#FFFFFF" d="M254.866,661.528l95.547-34.668l5.938,16.035l27.275-36.934l-44.658-10.684l5.957,16.055
		l-95.684,34.668L254.866,661.528"/>
	<path id="path62" fill="#FFFFFF" d="M254.866,700.825l95.547,34.688l5.938-16.055l27.275,36.934l-44.658,10.684l5.957-16.035
		l-95.684-34.688L254.866,700.825"/>
	<path id="path64" fill="#FFFFFF" d="M99.651,689.614h97.959v17.227l38.379-25.449l-38.379-25.215v16.992H99.651V689.614"/>
</g>
</svg>
