<?xml version="1.0" encoding="utf-8"?>
<!-- Generator: Adobe Illustrator 16.0.0, SVG Export Plug-In . SVG Version: 6.00 Build 0)  -->
<!DOCTYPE svg PUBLIC "-//W3C//DTD SVG 1.1//EN" "http://www.w3.org/Graphics/SVG/1.1/DTD/svg11.dtd">
<svg version="1.1"
	 id="svg2" xmlns:dc="http://purl.org/dc/elements/1.1/" xmlns:cc="http://creativecommons.org/ns#" xmlns:rdf="http://www.w3.org/1999/02/22-rdf-syntax-ns#" xmlns:svg="http://www.w3.org/2000/svg"
	 xmlns="http://www.w3.org/2000/svg" xmlns:xlink="http://www.w3.org/1999/xlink" x="0px" y="0px" width="80px" height="54px"
	 viewBox="0 0 80 54" enable-background="new 0 0 80 54" xml:space="preserve">
<g id="g12" transform="scale(0.1,0.1)">
	<path id="path22" fill="#087FBF" d="M800.005,155.803c0,86.084-179.023,155.82-400,155.82C179.014,311.623,0,241.887,0,155.803
		v228.408c0,86.064,179.014,155.791,400.005,155.791c220.977,0,400-69.727,400-155.791V155.803"/>
	<path id="path24" fill="none" stroke="#FFFFFF" stroke-width="4" d="M800.005,155.803c0,86.084-179.023,155.82-400,155.82
		C179.014,311.623,0,241.887,0,155.803v228.408c0,86.064,179.014,155.791,400.005,155.791c220.977,0,400-69.727,400-155.791V155.803
		z"/>
	<path id="path26" fill="#087FBF" d="M400.005,311.623c220.977,0,400-69.736,400-155.82c0-86.079-179.023-155.801-400-155.801
		C179.014,0.002,0,69.724,0,155.803C0,241.887,179.014,311.623,400.005,311.623"/>
	<path id="path28" fill="none" stroke="#FFFFFF" stroke-width="4" d="M400.005,311.623c220.977,0,400-69.736,400-155.82
		c0-86.079-179.023-155.801-400-155.801C179.014,0.002,0,69.724,0,155.803C0,241.887,179.014,311.623,400.005,311.623z"/>
	<path id="path30" fill="#FFFFFF" d="M308.638,94.983l33.086,49.497l-124.932,28.94l27.324-22.749L51.123,117.703l48.428-36.372
		l186.099,31.65L308.638,94.983"/>
	<path id="path32" fill="#FFFFFF" d="M484.38,215.256l-22.598-51.201l112.578-22.456l-19.512,17.568l187.969,32.095l-45.176,36.084
		L511.001,192.18L484.38,215.256"/>
	<path id="path34" fill="#FFFFFF" d="M422.739,67.771l126.309-34.546l1.543,54.116l-31.738-5.972l-61.66,51.211l-58.672-8.594
		l63.418-50.073L422.739,67.771"/>
	<path id="path36" fill="#FFFFFF" d="M368.735,261.868l-120.234,22.451l-4.414-55.459l34.473,7.5l66.26-56.475l58.379,9.863
		l-70.459,61.758L368.735,261.868"/>
	<path id="path38" fill="#FFFFFF" d="M380.083,425.891h116.641v20.02l43.867-29.424l-43.867-29.111v19.688H380.083V425.891"/>
	<path id="path40" fill="#FFFFFF" d="M377.368,393.606l109.434-39.912l6.895,18.662l31.289-42.734l-51.406-12.441l6.895,18.682
		l-109.463,39.912L377.368,393.606"/>
	<path id="path42" fill="#FFFFFF" d="M377.368,438.938l109.434,39.912l6.895-18.682l31.289,42.412l-51.406,12.441l6.895-18.672
		l-109.463-39.922L377.368,438.938"/>
	<path id="path44" fill="#FFFFFF" d="M199.331,425.891h112.402v20.02l44.053-29.424l-44.053-29.111v19.688H199.331V425.891"/>
</g>
</svg>
