<?xml version="1.0" encoding="utf-8"?>
<!-- Generator: Adobe Illustrator 16.0.0, SVG Export Plug-In . SVG Version: 6.00 Build 0)  -->
<!DOCTYPE svg PUBLIC "-//W3C//DTD SVG 1.1//EN" "http://www.w3.org/Graphics/SVG/1.1/DTD/svg11.dtd">
<svg version="1.1"
	 id="svg2" xmlns:dc="http://purl.org/dc/elements/1.1/" xmlns:cc="http://creativecommons.org/ns#" xmlns:rdf="http://www.w3.org/1999/02/22-rdf-syntax-ns#" xmlns:svg="http://www.w3.org/2000/svg"
	 xmlns="http://www.w3.org/2000/svg" xmlns:xlink="http://www.w3.org/1999/xlink" x="0px" y="0px" width="77px" height="55px"
	 viewBox="0 0 77 55" enable-background="new 0 0 77 55" xml:space="preserve">
<g id="g12" transform="scale(0.1,0.1)">
	<path id="path22" fill="#087BBB" d="M0.002,529.995H690.51V76.294H0.002V529.995z"/>
	<path id="path24" fill="none" stroke="#FFFFFF" stroke-width="3.9999" d="M0.002,529.995H690.51V76.294H0.002V529.995z"/>
	<path id="path26" fill="#087BBB" d="M770.002,413.706L690.51,529.995V76.294L770.002-20V413.706"/>
	<path id="path28" fill="none" stroke="#FFFFFF" stroke-width="3.9999" d="M770.002,413.706L690.51,529.995V76.294L770.002-20
		V413.706z"/>
	<path id="path30" fill="#087BBB" d="M119.177-20h650.825L690.51,76.294H0.002L119.177-20"/>
	<path id="path32" fill="none" stroke="#FFFFFF" stroke-width="3.9999" d="M119.177-20h650.825L690.51,76.294H0.002L119.177-20z"/>
	<path id="path34" fill="#FFFFFF" d="M155.237,195.527l-115.698,0.063v-18.394l115.698-0.054l0.02-28.652l66.963,37.93
		l-66.963,37.793L155.237,195.527"/>
	<path id="path36" fill="#FFFFFF" d="M155.237,310.073l-115.698,0.273v-18.496l115.698-0.059l0.02-28.652l66.963,37.832
		l-66.963,38.008L155.237,310.073"/>
	<path id="path38" fill="#FFFFFF" d="M155.237,424.819l-115.698,0.059v-18.262l115.698-0.273l0.02-28.691l66.963,38.066
		l-66.963,37.813L155.237,424.819"/>
	<path id="path40" fill="#FFFFFF" d="M540.901,294.995l115.654-0.059v18.516l-115.654,0.059l-0.059,28.652l-66.953-37.812
		l66.953-38.047L540.901,294.995"/>
	<path id="path42" fill="#FFFFFF" d="M448.108,237.954c0,15.518-41.533,28.174-93.057,28.174c-51.27,0-92.92-12.656-92.92-28.174
		V354.35c0,15.625,41.65,28.281,92.92,28.281c51.523,0,93.057-12.656,93.057-28.281V237.954"/>
	<path id="path44" fill="#087BBB" d="M354.973,266.128c51.279,0,93.037-12.656,93.037-28.174c0-15.625-41.758-28.174-93.037-28.174
		c-51.27,0-92.93,12.549-92.93,28.174C262.043,253.472,303.704,266.128,354.973,266.128"/>
	<path id="path46" fill="none" stroke="#FFFFFF" stroke-width="8" d="M354.973,266.128c51.279,0,93.037-12.656,93.037-28.174
		c0-15.625-41.758-28.174-93.037-28.174c-51.27,0-92.93,12.549-92.93,28.174C262.043,253.472,303.704,266.128,354.973,266.128z"/>
	<path id="path48" fill="#FFFFFF" d="M355.051,396.382c51.523,0,93.057-12.656,93.057-28.066c0-15.625-41.533-28.281-93.057-28.281
		c-51.27,0-92.92,12.656-92.92,28.281C262.131,383.725,303.782,396.382,355.051,396.382"/>
	<path id="path50" fill="none" stroke="#FFFFFF" stroke-width="8" d="M355.051,396.382c51.523,0,93.057-12.656,93.057-28.066
		c0-15.625-41.533-28.281-93.057-28.281c-51.27,0-92.92,12.656-92.92,28.281C262.131,383.725,303.782,396.382,355.051,396.382z"/>
</g>
</svg>
