<?xml version="1.0" encoding="utf-8"?>
<!-- Generator: Adobe Illustrator 16.0.0, SVG Export Plug-In . SVG Version: 6.00 Build 0)  -->
<!DOCTYPE svg PUBLIC "-//W3C//DTD SVG 1.1//EN" "http://www.w3.org/Graphics/SVG/1.1/DTD/svg11.dtd">
<svg version="1.1"
	 id="svg2" xmlns:dc="http://purl.org/dc/elements/1.1/" xmlns:cc="http://creativecommons.org/ns#" xmlns:rdf="http://www.w3.org/1999/02/22-rdf-syntax-ns#" xmlns:svg="http://www.w3.org/2000/svg"
	 xmlns="http://www.w3.org/2000/svg" xmlns:xlink="http://www.w3.org/1999/xlink" x="0px" y="0px" width="71px" height="75px"
	 viewBox="0 0 71 75" enable-background="new 0 0 71 75" xml:space="preserve">
	<g id="g12" transform="scale(0.1,0.1)">
		<path id="path14" fill="#087BBB" d="M0,749.995h644.077V70.239H0V749.995z"/>
		<path id="path16" fill="none" stroke="#FFFFFF" stroke-width="4" d="M0,749.995h644.077V70.239H0V749.995z"/>
		<path id="path18" fill="#087BBB" d="M65.938,0L0,70.239h644.077L709.995,0H65.938"/>
		<path id="path20" fill="none" stroke="#FFFFFF" stroke-width="4" d="M65.938,0L0,70.239h644.077L709.995,0H65.938z"/>
		<path id="path22" fill="#087BBB" d="M709.995,679.78V0l-65.918,70.239v679.756L709.995,679.78"/>
		<path id="path24" fill="none" stroke="#FFFFFF" stroke-width="4" d="M709.995,679.78V0l-65.918,70.239v679.756L709.995,679.78z"/>
		<path id="path26" fill="none" stroke="#FFFFFF" stroke-width="4" d="M53.716,714.057h544.189V105.752H53.716V714.057z"/>
		<path id="path28" fill="#087BBB" d="M400.952,609.194c0,40.625-33.379,74.004-74.141,74.004c-40.957,0-73.994-33.379-73.994-74.004
		c0-40.957,33.037-74.375,73.994-74.375C367.573,534.819,400.952,568.237,400.952,609.194"/>
		<path id="path30" fill="none" stroke="#FFFFFF" stroke-width="4" d="M400.952,609.194c0,40.625-33.379,74.004-74.141,74.004
		c-40.957,0-73.994-33.379-73.994-74.004c0-40.957,33.037-74.375,73.994-74.375C367.573,534.819,400.952,568.237,400.952,609.194z"
		/>
		<g id="g32" transform="scale(10,10)" style="font-variant:normal;font-weight:bold;font-size:12.2006px;font-family:Helvetica;-inkscape-font-specification:Helvetica-Bold;writing-mode:lr-tb;fill:#ffffff;fill-opacity:1;fill-rule:nonzero;stroke:none">
			<text transform="matrix(0.9993 0 0 1 28.5757 65.4116)">V</text>
		</g>
		<g id="g38" transform="scale(10,10)" style="font-variant:normal;font-weight:bold;font-size:9.7605px;font-family:Helvetica;-inkscape-font-specification:Helvetica-Bold;writing-mode:lr-tb;fill:#ffffff;fill-opacity:1;fill-rule:nonzero;stroke:none">
			<text transform="matrix(0.9993 0 0 1 18.9326 22.5288)">W</text>
			<text transform="matrix(0.9993 0 0 1 28.1421 22.5288)">W</text>
			<text transform="matrix(0.9993 0 0 1 37.3511 22.5288)">W</text>
		</g>
		<path id="path44" fill="none" stroke="#FFFFFF" stroke-width="5" d="M140.523,499.428h417.227"/>
		<path id="path46" fill="#FFFFFF" d="M177.866,465.112l-20.146,34.551l20.146,34.922l-84.893-34.922L177.866,465.112"/>
		<path id="path48" fill="none" stroke="#FFFFFF" stroke-width="5" d="M519.722,269.155H102.495"/>
		<path id="path50" fill="#FFFFFF" d="M482.359,303.315l20.293-34.561l-20.293-34.736l84.922,34.736L482.359,303.315"/>
		<path id="path52" fill="none" stroke="#FFFFFF" stroke-width="4" d="M205.972,444.428h252.031V314.165H205.972V444.428z"/>
		<path id="path54" fill="none" stroke="#FFFFFF" stroke-width="4" d="M205.972,314.165l125.938,64.951l126.094-64.951"/>
	</g>
</svg>
