<?xml version="1.0" encoding="utf-8"?>
<!-- Generator: Adobe Illustrator 16.0.0, SVG Export Plug-In . SVG Version: 6.00 Build 0)  -->
<!DOCTYPE svg PUBLIC "-//W3C//DTD SVG 1.1//EN" "http://www.w3.org/Graphics/SVG/1.1/DTD/svg11.dtd">
<svg version="1.1"
	 id="svg2" xmlns:svg="http://www.w3.org/2000/svg" xmlns:dc="http://purl.org/dc/elements/1.1/" xmlns:cc="http://creativecommons.org/ns#" xmlns:rdf="http://www.w3.org/1999/02/22-rdf-syntax-ns#"
	 xmlns="http://www.w3.org/2000/svg" xmlns:xlink="http://www.w3.org/1999/xlink" x="0px" y="0px" width="240px" height="257px"
	 viewBox="0 0 240 257" enable-background="new 0 0 240 257" xml:space="preserve">
<g>
	<path id="path14" fill="none" stroke="#100F0D" stroke-linecap="round" stroke-linejoin="round" stroke-miterlimit="10" d="
		M24.284,17.215C11.345,17.215,1,27.674,1,40.752v190.926c0,13.074,10.345,23.537,23.284,23.537h191.431
		c12.93,0,23.285-10.463,23.285-23.537V40.753c0-13.078-10.355-23.537-23.285-23.537L24.284,17.215L24.284,17.215z"/>
	<path id="path30" fill="#65696C" d="M50.602,0H29.128c-1.018,0-1.799,0.77-1.799,1.77v28.847c0,0.999,0.782,1.813,1.799,1.813
		h21.474c1.017,0,1.847-0.815,1.847-1.813V1.77C52.449,0.77,51.619,0,50.602,0z M44.262,4.532h5.086v2.037h-5.086V4.532z
		 M37.318,4.532h5.091v2.037h-5.091V4.532z M30.335,4.532h5.086v2.037h-5.086V4.532z M30.335,8.017h5.086v2.039h-5.086V8.017z
		 M30.377,11.506h5.094v1.991h-5.094V11.506L30.377,11.506z M35.471,16.984h-5.094v-2.036h5.094V16.984z M30.377,18.437h5.094v2.036
		h-5.094V18.437L30.377,18.437z M35.519,23.917h-5.092v-1.995h5.092V23.917z M37.318,8.017h5.091v2.039h-5.091V8.017z
		 M37.318,11.506h5.091v1.991h-5.091V11.506z M42.41,16.984h-5.044v-2.036h5.044V16.984z M37.365,18.437h5.044v2.036h-5.044V18.437z
		 M42.454,23.917h-5.089v-1.995h5.089V23.917z M44.262,8.017h5.086v2.039h-5.086V8.017z M44.304,11.506h5.092v1.991h-5.092V11.506z
		 M49.396,16.984h-5.092v-2.036h5.092V16.984z M44.304,18.437h5.092v2.036h-5.092V18.437z M49.44,23.917h-5.089v-1.995h5.089V23.917
		"/>
</g>
</svg>
