<?xml version="1.0" encoding="utf-8"?>
<!-- Generator: Adobe Illustrator 16.0.0, SVG Export Plug-In . SVG Version: 6.00 Build 0)  -->
<!DOCTYPE svg PUBLIC "-//W3C//DTD SVG 1.1//EN" "http://www.w3.org/Graphics/SVG/1.1/DTD/svg11.dtd">
<svg version="1.1" id="图层_1" xmlns="http://www.w3.org/2000/svg" xmlns:xlink="http://www.w3.org/1999/xlink" x="0px" y="0px"
	 width="512px" height="512px" viewBox="0 0 512 512" enable-background="new 0 0 512 512" xml:space="preserve">
<g>
	<path fill="#38C4F5" d="M258.827,508.799h-0.009c-59.002,0-116.025-4.052-156.434-11.121
		c-63.337-11.091-78.335-25.959-89.152-88.42c-14.404-83.148-14.183-224.212,0.48-308.031c11.06-63.299,25.937-78.297,88.405-89.152
		c39.64-6.886,93.615-10.687,151.978-10.687c58.881,0,115.781,4.045,156.091,11.098c63.314,11.083,78.304,25.959,89.152,88.42
		c14.427,83.164,14.229,224.258-0.442,308.092c-11.045,63.313-25.929,78.305-88.406,89.167
		C370.913,505.021,317.045,508.799,258.827,508.799 M254.097,16.987c-57.495,0-110.518,3.717-149.311,10.458
		c-55.881,9.704-65.783,19.713-75.701,76.461c-14.419,82.38-14.633,220.996-0.48,302.7c9.674,55.849,19.683,65.767,76.47,75.714
		c39.563,6.916,95.595,10.878,153.744,10.878h0.009c57.364,0,110.273-3.688,149-10.391c55.895-9.72,65.796-19.729,75.714-76.491
		c14.412-82.403,14.61-221.037,0.442-302.746c-9.72-55.872-19.729-65.782-76.477-75.715
		C368.033,20.948,312.108,16.987,254.097,16.987"/>
	<path fill="#38C4F5" d="M365.367,184.813c-5.748-52.415-50.161-93.199-104.106-93.199c-53.501,0-97.628,40.113-103.959,91.904
		c-38.422,7.899-67.314,41.909-67.314,82.668c0,46.613,37.812,77.325,84.399,78.846c32.538,1.063,38.296,0.034,59.511-3.696
		c14.661-2.578,13.504-7.536-1.014-6.239c-17.5,1.564-39.048-2.091-58.497-6.62c-27.531-6.412-51.183-34.021-51.183-62.29
		c0-22.775,14.879-42.066,35.444-48.707c4.96-1.602,10.246-2.477,15.739-2.477c6.754,0,13.196,1.321,19.1,3.698
		c-2.389-7.013-3.704-14.522-3.704-22.343c0-4.421,0.431-8.739,1.223-12.931c6.059-32.078,34.215-56.348,68.056-56.348
		c33.786,0,61.908,24.192,68.028,56.196c0.81,4.238,1.251,8.608,1.251,13.083c0,7.713-1.28,15.123-3.606,22.053
		c5.649-2.151,11.772-3.339,18.176-3.339c7.313,0,14.258,1.546,20.548,4.312c17.995,7.912,30.567,25.885,30.567,46.803
		c0,28.23-22.99,52.651-51.115,55.082c-34.839,3.011-72.918,11.341-108.617,68.063c-23.97,38.087-9.918,33.228-1.19,22.432
		c36.096-44.644,67.432-60.907,109.807-61.176c46.612-0.297,84.4-37.787,84.4-84.4C427.311,227.351,401.077,194.646,365.367,184.813
		"/>
	<path fill-rule="evenodd" clip-rule="evenodd" fill="#38C4F5" d="M281.273,275.064h-1.969h-43.312h-1.969
		c-7.611,0-13.781,6.17-13.781,13.78c0,7.611,6.17,13.781,13.781,13.781h1.969h43.312h1.969c7.611,0,13.781-6.17,13.781-13.781
		C295.055,281.234,288.885,275.064,281.273,275.064 M234.023,251.439h1.969h43.312h1.969c7.611,0,13.781-6.17,13.781-13.781
		c0-7.611-6.17-13.781-13.781-13.781h-1.969h-43.312h-1.969c-7.611,0-13.781,6.17-13.781,13.781
		C220.243,245.269,226.413,251.439,234.023,251.439"/>
</g>
</svg>
