<?xml version="1.0" encoding="utf-8"?>
<!-- Generator: Adobe Illustrator 16.0.0, SVG Export Plug-In . SVG Version: 6.00 Build 0)  -->
<!DOCTYPE svg PUBLIC "-//W3C//DTD SVG 1.1//EN" "http://www.w3.org/Graphics/SVG/1.1/DTD/svg11.dtd">
<svg version="1.1"
	 id="svg2" xmlns:dc="http://purl.org/dc/elements/1.1/" xmlns:cc="http://creativecommons.org/ns#" xmlns:rdf="http://www.w3.org/1999/02/22-rdf-syntax-ns#" xmlns:svg="http://www.w3.org/2000/svg"
	 xmlns="http://www.w3.org/2000/svg" xmlns:xlink="http://www.w3.org/1999/xlink" x="0px" y="0px" width="80px" height="52px"
	 viewBox="0 0 80 52" enable-background="new 0 0 80 52" xml:space="preserve">
<g id="g12" transform="scale(0.1,0.1)">
	<path id="path14" fill="#087BBB" d="M0.002,520.002h714.629V103.665H0.002V520.002z"/>
	<path id="path16" fill="none" stroke="#FFFFFF" stroke-width="4" d="M0.002,520.002h714.629V103.665H0.002V520.002z"/>
	<path id="path18" fill="#087BBB" d="M800.002,395.11l-85.371,124.893V103.665L800.002,0.002V395.11"/>
	<path id="path20" fill="none" stroke="#FFFFFF" stroke-width="4" d="M800.002,395.11l-85.371,124.893V103.665L800.002,0.002V395.11
		z"/>
	<path id="path22" fill="#087BBB" d="M128.43,0.002h671.572l-85.371,103.662H0.002L128.43,0.002"/>
	<path id="path24" fill="none" stroke="#FFFFFF" stroke-width="4" d="M128.43,0.002h671.572l-85.371,103.662H0.002L128.43,0.002z"/>
	<path id="path26" fill="#FFFFFF" d="M533.42,309.162h98.74l0.781,22.002l50.605-32.07l-50.605-33.867l-0.781,23.877h-99.912
		L533.42,309.162"/>
	<path id="path28" fill="#FFFFFF" d="M617.864,476.174c-10.02,2.246-19.619-3.994-21.885-13.994
		c-2.236-9.629,4.014-19.561,14.033-21.807c9.648-2.227,19.6,3.994,21.846,13.975C633.782,464.338,627.532,473.918,617.864,476.174"
		/>
	<path id="path30" fill="none" stroke="#000000" stroke-width="3.8" d="M617.864,476.174c-10.02,2.246-19.619-3.994-21.885-13.994
		c-2.236-9.629,4.014-19.561,14.033-21.807c9.648-2.227,19.6,3.994,21.846,13.975C633.782,464.338,627.532,473.918,617.864,476.174z
		"/>
	<path id="path32" fill="#FFFFFF" d="M649.221,475.432c0,14.795-11.875,26.67-26.699,26.67s-27.031-11.875-27.031-26.67
		c0-14.785,12.207-26.66,27.031-26.66S649.221,460.647,649.221,475.432"/>
	<path id="path34" fill="none" stroke="#000000" stroke-width="3.8" d="M649.221,475.432c0,14.795-11.875,26.67-26.699,26.67
		s-27.031-11.875-27.031-26.67c0-14.785,12.207-26.66,27.031-26.66S649.221,460.647,649.221,475.432z"/>
	<path id="path36" fill="#FFFFFF" d="M643.586,453.42l-34.355,52.275l-151.533-99.092l34.355-52.295L643.586,453.42"/>
	<path id="path38" fill="none" stroke="#000000" stroke-width="3.8" d="M643.586,453.42l-34.355,52.275l-151.533-99.092
		l34.355-52.295L643.586,453.42z"/>
	<path id="path40" fill="#FFFFFF" d="M305.93,132.107c-92.368,20.322-151.162,112.007-130.645,204.389
		c20.356,92.227,112.188,150.771,204.707,130.449c92.529-20.322,151.162-111.836,130.801-204.238
		C490.442,170.325,398.45,111.775,305.93,132.107"/>
	<path id="path42" fill="none" stroke="#000000" stroke-width="3.8" d="M305.93,132.107
		c-92.368,20.322-151.162,112.007-130.645,204.389c20.356,92.227,112.188,150.771,204.707,130.449
		c92.529-20.322,151.162-111.836,130.801-204.238C490.442,170.325,398.45,111.775,305.93,132.107z"/>
	<path id="path44" fill="#FFFFFF" d="M169.226,292.756h-50.767l0.991,19.727h55.171"/>
	<path id="path46" fill="#FFFFFF" d="M208.123,399.026l-72.515,46.895l11.646,16.279l74.321-48.301"/>
	<path id="path48" fill="#FFFFFF" d="M205.52,188.762l-63.398-41.074l-10.137,17.139l61.802,39.98"/>
	<path id="path50" fill="#FFFFFF" d="M374.69,443.518c-79.443,17.705-158.574-32.803-175.967-112.305
		c-17.559-79.326,32.881-158.174,112.324-175.703c79.609-17.529,158.574,32.832,176.299,112.324
		C504.739,347.336,454.475,426.164,374.69,443.518"/>
	<path id="path52" fill="none" stroke="#000000" stroke-width="3.8" d="M374.69,443.518
		c-79.443,17.705-158.574-32.803-175.967-112.305c-17.559-79.326,32.881-158.174,112.324-175.703
		c79.609-17.529,158.574,32.832,176.299,112.324C504.739,347.336,454.475,426.164,374.69,443.518z"/>
	<path id="path54" fill="#0B0B0B" d="M285.461,186.79v227.119l138.857-97.041h59.502V284.24h-59.502L285.461,186.79L285.461,186.79"
		/>
	<path id="path56" d="M171.521,312.483h60.19l0.791,22.334l50.596-32.412l-50.596-33.681l-0.791,24.033h-62.485"/>
	<path id="path58" d="M221.575,413.899l19.863-12.705l12.813,18.047l24.717-54.482l-60.679-0.85l12.275,20.41l-22.441,14.707"/>
	<path id="path60" d="M198.118,204.807l32.388,21.025l-11.372,19.043l59.824,0.449l-23.867-55.781l-13.701,19.736l-31.558-20.518"/>
</g>
</svg>
