<?xml version="1.0" encoding="utf-8"?>
<!-- Generator: Adobe Illustrator 16.0.0, SVG Export Plug-In . SVG Version: 6.00 Build 0)  -->
<!DOCTYPE svg PUBLIC "-//W3C//DTD SVG 1.1//EN" "http://www.w3.org/Graphics/SVG/1.1/DTD/svg11.dtd">
<svg version="1.1"
	 id="图层_1" xmlns:dc="http://purl.org/dc/elements/1.1/" xmlns:cc="http://creativecommons.org/ns#" xmlns:rdf="http://www.w3.org/1999/02/22-rdf-syntax-ns#"
	 xmlns="http://www.w3.org/2000/svg" xmlns:xlink="http://www.w3.org/1999/xlink" x="0px" y="0px" width="55px" height="75px"
	 viewBox="0 0 55 75" enable-background="new 0 0 55 75" xml:space="preserve">
<path fill="#00BCF2" d="M43.145,74.782c-0.794-0.287-1.357-0.996-1.357-1.711c0-0.632,0.322-1.379,0.745-1.729
	c0.239-0.197,0.234-0.241-0.06-0.448c-0.521-0.362-0.598-1.126-0.195-1.956c0.326-0.674,0.333-0.767,0.098-1.328
	c-0.299-0.713-0.311-0.99-0.079-1.818c0.205-0.736,0.937-1.473,1.743-1.75c0.853-0.295,4.72-0.102,4.852,0.243
	c0.194,0.509-0.077,0.87-0.655,0.87H47.68l0.229,0.663c0.398,1.15-0.086,2.47-1.133,3.091c-0.533,0.316-1.696,0.406-2.98,0.23
	c-0.348-0.049-0.429,0.02-0.472,0.391c-0.07,0.614,0.251,0.742,2.165,0.851c0.968,0.055,1.814,0.197,2.117,0.354
	c1.717,0.888,1.563,2.968-0.295,3.903c-0.606,0.307-1.007,0.374-2.173,0.362C44.353,74.987,43.457,74.895,43.145,74.782
	L43.145,74.782z M46.53,73.779c0.686-0.286,1.065-1.067,0.779-1.602c-0.271-0.504-0.843-0.676-2.261-0.676
	c-1.139,0-1.258,0.033-1.585,0.45c-0.538,0.681-0.404,1.397,0.329,1.764C44.497,74.066,45.771,74.096,46.53,73.779L46.53,73.779z
	 M46.226,67.752c0.326-0.325,0.411-0.582,0.411-1.241c0-0.698-0.07-0.886-0.441-1.177c-0.607-0.479-1.583-0.461-2.166,0.043
	c-0.63,0.541-0.672,1.727-0.08,2.353C44.511,68.327,45.638,68.339,46.226,67.752L46.226,67.752z M12.081,72.005
	c-0.391-0.156-0.553-0.696-0.399-1.338c0.081-0.342,0.214-0.426,0.742-0.47c0.353-0.029,0.715,0.018,0.805,0.106
	c0.2,0.2,0.214,1.351,0.02,1.53C12.993,72.07,12.444,72.148,12.081,72.005L12.081,72.005z M17.689,72.016
	c-0.814-0.245-1.314-0.707-1.763-1.621c-0.376-0.769-0.448-1.135-0.448-2.311c0-1.184,0.07-1.543,0.455-2.331
	c0.512-1.041,1.367-1.669,2.53-1.853c1.371-0.219,2.92,0.536,2.92,1.429c0,0.663-0.184,0.715-0.864,0.255
	c-1.286-0.873-2.676-0.64-3.256,0.55c-0.434,0.888-0.422,3.093,0.019,3.827c0.334,0.558,1.141,1.047,1.727,1.047
	c0.185,0,0.764-0.226,1.289-0.502c0.523-0.276,0.983-0.501,1.02-0.501c0.229,0,0.018,1.161-0.256,1.411
	C20.355,72.051,18.752,72.338,17.689,72.016L17.689,72.016z M23.657,71.93c-0.72-0.257-0.93-0.488-0.934-1.038
	c-0.005-0.546,0.247-0.604,0.988-0.227c1.634,0.834,3.419,0.064,2.914-1.252c-0.06-0.155-0.718-0.563-1.463-0.909
	c-1.747-0.811-2.19-1.278-2.19-2.32c0-1.022,0.407-1.633,1.376-2.062c1.279-0.566,3.241-0.167,3.362,0.682
	c0.084,0.599-0.189,0.759-0.781,0.453c-0.739-0.383-1.952-0.346-2.368,0.07c-0.735,0.733-0.333,1.353,1.397,2.151
	c1.622,0.748,2.115,1.272,2.114,2.256C28.07,71.612,25.858,72.712,23.657,71.93L23.657,71.93z M31.737,72.016
	c-0.812-0.245-1.313-0.707-1.761-1.621c-0.378-0.769-0.448-1.135-0.448-2.311c0-1.184,0.07-1.543,0.456-2.331
	c0.51-1.041,1.364-1.669,2.527-1.853c1.372-0.219,2.919,0.536,2.919,1.429c0,0.663-0.183,0.715-0.864,0.255
	c-1.284-0.873-2.674-0.64-3.255,0.55c-0.432,0.888-0.422,3.093,0.019,3.827c0.334,0.558,1.142,1.047,1.728,1.047
	c0.184,0,0.763-0.226,1.287-0.502c0.525-0.276,0.982-0.501,1.021-0.501c0.229,0,0.018,1.161-0.258,1.411
	C34.402,72.051,32.801,72.338,31.737,72.016L31.737,72.016z M37.773,68.584v-3.426h-0.68c-0.667,0-0.679-0.01-0.628-0.542
	c0.048-0.496,0.106-0.549,0.68-0.595l0.628-0.054v-0.95c0-1.69,0.813-2.703,2.191-2.729c0.976-0.019,1.446,0.134,1.566,0.513
	c0.196,0.621-0.039,0.797-0.972,0.721c-1.096-0.091-1.281,0.101-1.402,1.45l-0.092,1.001l0.984,0.051
	c0.97,0.049,0.982,0.058,0.982,0.551c0,0.494-0.016,0.503-0.962,0.552l-0.96,0.052v3.415v3.418h-0.671h-0.668L37.773,68.584
	L37.773,68.584z M5.579,56.735c-2.403-0.761-4.233-2.509-5.16-4.925l-0.359-0.938L0.011,29.238
	C-0.023,13.63,0.017,7.284,0.153,6.461c0.493-2.947,2.763-5.468,5.586-6.204C6.611,0.032,9.046,0,25.144,0h18.409l5.724,5.611
	L55,11.221v19.671c0,17.464-0.029,19.772-0.266,20.578c-0.703,2.407-2.562,4.329-5,5.167c-0.957,0.328-1.38,0.336-22.229,0.323
	C10.804,56.95,6.104,56.904,5.579,56.735z M48.905,51.879c0.474-0.277,0.826-0.656,1.06-1.139c0.351-0.723,0.353-0.79,0.353-18.716
	v-17.99h-4.6h-4.6V9.353V4.67L23.935,4.716L6.75,4.762L6.158,5.129C5.831,5.331,5.398,5.792,5.197,6.154L4.825,6.812v21.66
	c0,23.036-0.024,22.311,0.771,23.018c0.953,0.847-0.244,0.803,21.96,0.805h20.639L48.905,51.879L48.905,51.879z M14.526,38.509
	v-2.423l12.753,0.043l12.752,0.042l0.045,2.382l0.049,2.381h-12.8H14.526V38.509L14.526,38.509z M14.6,31.861
	c-0.046-0.12-0.063-1.229-0.038-2.465l0.047-2.247H27.32h12.709v2.422v2.423l-12.672,0.043C17.049,32.072,14.668,32.038,14.6,31.861
	L14.6,31.861z M14.526,20.633v-2.422h12.799h12.8l-0.049,2.381l-0.045,2.381l-12.752,0.042l-12.753,0.043V20.633L14.526,20.633z"/>
</svg>
