<?xml version="1.0" encoding="utf-8"?>
<!-- Generator: Adobe Illustrator 16.0.0, SVG Export Plug-In . SVG Version: 6.00 Build 0)  -->
<!DOCTYPE svg PUBLIC "-//W3C//DTD SVG 1.1//EN" "http://www.w3.org/Graphics/SVG/1.1/DTD/svg11.dtd">
<svg version="1.1"
	 id="图层_1" xmlns:dc="http://purl.org/dc/elements/1.1/" xmlns:cc="http://creativecommons.org/ns#" xmlns:rdf="http://www.w3.org/1999/02/22-rdf-syntax-ns#"
	 xmlns="http://www.w3.org/2000/svg" xmlns:xlink="http://www.w3.org/1999/xlink" x="0px" y="0px" width="57px" height="75px"
	 viewBox="0 0 57 75" enable-background="new 0 0 57 75" xml:space="preserve">
<path fill="#00BCF2" d="M6.974,74.814c-0.405-0.16-0.573-0.725-0.416-1.391c0.085-0.355,0.224-0.441,0.769-0.49
	c0.367-0.027,0.741,0.023,0.834,0.115c0.207,0.207,0.223,1.4,0.021,1.59C7.917,74.881,7.349,74.963,6.974,74.814L6.974,74.814z
	 M12.785,74.826c-0.842-0.256-1.362-0.736-1.827-1.688c-0.39-0.799-0.463-1.18-0.463-2.4c0-1.229,0.073-1.602,0.472-2.42
	c0.53-1.084,1.415-1.734,2.62-1.926c1.421-0.229,3.026,0.559,3.026,1.484c0,0.689-0.19,0.742-0.896,0.266
	c-1.332-0.91-2.772-0.664-3.373,0.57c-0.448,0.92-0.438,3.211,0.019,3.977c0.347,0.578,1.183,1.088,1.789,1.088
	c0.19,0,0.791-0.234,1.334-0.521c0.543-0.287,1.019-0.521,1.057-0.521c0.238,0,0.019,1.205-0.266,1.467
	C15.545,74.863,13.885,75.16,12.785,74.826L12.785,74.826z M18.969,74.736c-0.746-0.27-0.965-0.51-0.968-1.08
	c-0.004-0.566,0.256-0.625,1.025-0.234c1.692,0.867,3.544,0.07,3.019-1.301c-0.063-0.162-0.745-0.586-1.517-0.945
	c-1.811-0.838-2.27-1.328-2.27-2.412c0-1.059,0.423-1.693,1.427-2.141c1.325-0.586,3.359-0.172,3.483,0.711
	c0.088,0.621-0.197,0.785-0.81,0.469c-0.768-0.395-2.022-0.359-2.455,0.072c-0.762,0.764-0.346,1.404,1.448,2.236
	c1.681,0.775,2.191,1.324,2.19,2.344C23.542,74.406,21.249,75.547,18.969,74.736L18.969,74.736z M26.835,74.6
	c-1.102-0.559-1.624-1.645-1.705-3.541c-0.103-2.396,0.62-3.914,2.143-4.496c0.984-0.377,1.994-0.252,2.832,0.346l0.632,0.449
	l0.087-2.301l0.087-2.303l0.534-0.053c0.308-0.029,0.62,0.053,0.739,0.193c0.148,0.182,0.191,1.791,0.158,6.043l-0.047,5.793
	l-0.649,0.055c-0.645,0.053-0.648,0.049-0.648-0.6v-0.648l-0.479,0.459C29.456,75.016,28.091,75.24,26.835,74.6L26.835,74.6z
	 M29.209,73.592c0.268-0.1,0.741-0.43,1.052-0.73c0.561-0.537,0.563-0.553,0.563-2.229v-1.688l-0.725-0.625
	c-0.398-0.34-0.886-0.631-1.084-0.646c-1.685-0.127-2.351,0.746-2.351,3.076c0,1.516,0.319,2.385,1.02,2.766
	C28.235,73.814,28.571,73.834,29.209,73.592L29.209,73.592z M36.724,74.766c-0.815-0.26-1.793-1.279-2.05-2.143
	c-0.268-0.895-0.273-2.854-0.011-3.732c0.823-2.756,4.81-3.473,6.35-1.143c0.542,0.822,0.774,2.83,0.357,3.096
	c-0.131,0.082-1.388,0.15-2.794,0.154h-2.556v0.621c0,0.814,0.453,1.564,1.144,1.891c0.706,0.338,2.067,0.34,3.016,0
	c0.917-0.322,0.977-0.32,1.106,0.014c0.407,1.064-2.576,1.873-4.564,1.234v0.008H36.724z M40.182,69.607
	c0-0.574-0.453-1.492-0.889-1.799c-0.505-0.354-1.571-0.363-2.236-0.018c-0.575,0.297-1.034,1.063-1.034,1.727v0.439h2.079
	C40.077,69.959,40.182,69.939,40.182,69.607L40.182,69.607z M44.341,71.26v-3.559h-0.704c-0.689,0-0.704-0.01-0.648-0.566
	c0.047-0.514,0.109-0.566,0.703-0.615l0.649-0.055v-0.988c0-1.758,0.842-2.809,2.271-2.834c1.011-0.021,1.498,0.137,1.623,0.529
	c0.204,0.648-0.039,0.83-1.007,0.75c-1.135-0.094-1.325,0.105-1.454,1.508l-0.094,1.037l1.02,0.055
	c1.007,0.053,1.021,0.059,1.021,0.572c0,0.512-0.018,0.521-0.997,0.572l-0.996,0.053v3.549v3.549h-0.692h-0.693V71.26L44.341,71.26z
	 M5.462,58.832c-2.771-0.955-4.846-3.391-5.315-6.236c-0.128-0.775-0.17-8.207-0.136-23.693l0.05-22.565l0.372-0.984
	c0.92-2.435,2.835-4.269,5.235-5.011C6.736,0.011,7.376,0,25.921,0h19.15l5.963,5.843L57,11.686l-0.048,20.758l-0.048,20.759
	l-0.377,0.922c-0.871,2.131-2.94,4.068-5.029,4.719c-1.105,0.34-1.57,0.348-23.076,0.342C6.909,59.174,6.454,59.172,5.462,58.832
	L5.462,58.832z M50.371,54.086c0.628-0.33,1.357-1.121,1.584-1.721c0.126-0.332,0.185-6.383,0.185-19.137V14.582h-4.766h-4.767
	v-4.86V4.86H24.975C8.153,4.86,7.309,4.878,6.63,5.187C5.756,5.585,5.235,6.29,4.999,7.397c-0.12,0.565-0.164,8.105-0.132,22.802
	C4.91,50.25,4.939,52.203,5.201,52.678c0.357,0.65,0.967,1.229,1.533,1.453c0.278,0.113,8.035,0.178,21.802,0.186
	c18.071,0.012,21.439-0.027,21.835-0.232V54.086z M15.052,40.01v-2.517h13.171h13.17v2.517v2.518H28.225H15.052V40.01z
	 M15.052,30.725v-2.604h13.171h13.17v2.604v2.604H28.225H15.052V30.725z M15.052,21.438V18.92h13.171h13.17v2.518v2.517H28.225
	H15.052V21.438z"/>
</svg>
