<?xml version="1.0" encoding="utf-8"?>
<!-- Generator: Adobe Illustrator 16.0.0, SVG Export Plug-In . SVG Version: 6.00 Build 0)  -->
<!DOCTYPE svg PUBLIC "-//W3C//DTD SVG 1.1//EN" "http://www.w3.org/Graphics/SVG/1.1/DTD/svg11.dtd">
<svg version="1.1"
	 id="svg2" xmlns:dc="http://purl.org/dc/elements/1.1/" xmlns:cc="http://creativecommons.org/ns#" xmlns:rdf="http://www.w3.org/1999/02/22-rdf-syntax-ns#" xmlns:svg="http://www.w3.org/2000/svg"
	 xmlns="http://www.w3.org/2000/svg" xmlns:xlink="http://www.w3.org/1999/xlink" x="0px" y="0px" width="57px" height="77px"
	 viewBox="0 0 57 77" enable-background="new 0 0 57 77" xml:space="preserve">
<g id="g12" transform="scale(0.1,0.1)">
	<path id="path14" fill="#087BBB" d="M570.002,677.563V0l-97.568,92.432v677.573L570.002,677.563"/>
	<path id="path16" fill="none" stroke="#FFFFFF" stroke-width="4" d="M570.002,677.563V0l-97.568,92.432v677.573L570.002,677.563z"
		/>
	<path id="path18" fill="#087BBB" d="M570.002,0l-97.568,92.432H0.002L122.356,0H570.002"/>
	<path id="path20" fill="none" stroke="#FFFFFF" stroke-width="4" d="M570.002,0l-97.568,92.432H0.002L122.356,0H570.002z"/>
	<path id="path22" fill="#087BBB" d="M0.002,559.243h472.432V92.432H0.002V559.243z"/>
	<path id="path24" fill="none" stroke="#FFFFFF" stroke-width="4" d="M0.002,559.243h472.432V92.432H0.002V559.243z"/>
	<path id="path26" fill="#087BBB" d="M0.002,770.005h472.432V563.911H0.002V770.005z"/>
	<path id="path28" fill="none" stroke="#FFFFFF" stroke-width="4" d="M0.002,770.005h472.432V563.911H0.002V770.005z"/>
	<path id="path30" fill="#FFFFFF" d="M194.128,270.396l-71.87-71.807l12.139-12.129l-45.146-9.092l9.106,45.088l12.266-12.256
		l71.885,71.816L194.128,270.396"/>
	<path id="path32" fill="#FFFFFF" d="M167.834,317.407H66.184v-17.266L27.805,325.63l38.379,25.459v-17.256h101.65V317.407"/>
	<path id="path34" fill="#FFFFFF" d="M182.507,369.243l-71.885,71.933l-12.266-12.383l-9.106,45.098l45.146-9.102l-12.139-12.129
		l71.87-71.816L182.507,369.243"/>
	<path id="path36" fill="#FFFFFF" d="M229.573,395.512v101.543h-17.266l25.479,38.34l25.381-38.34h-17.266V395.512H229.573"/>
	<path id="path38" fill="#FFFFFF" d="M229.573,258.682V157.139h-17.266l25.479-38.33l25.381,38.33h-17.266v101.543H229.573"/>
	<path id="path40" fill="#FFFFFF" d="M281.458,380.845l71.895,71.816l-12.148,12.129l45.156,9.102l-9.375-45.098l-12.139,12.383
		l-71.768-71.933L281.458,380.845"/>
	<path id="path42" fill="#FFFFFF" d="M307.659,333.833h101.641v17.256l38.359-25.459l-38.359-25.488v17.266H307.659V333.833"/>
	<path id="path44" fill="#FFFFFF" d="M293.079,282.017l71.768-71.816l12.139,12.256l9.375-45.088l-45.156,9.092l12.148,12.129
		l-71.895,71.807L293.079,282.017"/>
	<path id="path46" fill="#FFFFFF" d="M300.09,411.509c48.037-33.388,59.59-99.472,26.143-147.47
		c-33.691-47.856-99.717-59.507-147.754-25.981c-47.905,33.511-59.57,99.604-26.011,147.583
		C186.028,433.637,252.19,445.161,300.09,411.509"/>
	<path id="path48" fill="#FFFFFF" d="M300.959,674.614H402.59v17.227l38.398-25.449l-38.398-25.215v16.992H300.959V674.614"/>
	<path id="path50" fill="#FFFFFF" d="M298.635,646.528l95.537-34.668l5.967,16.035l27.266-36.934l-44.658-10.684l5.947,16.055
		l-95.566,34.668L298.635,646.528"/>
	<path id="path52" fill="#FFFFFF" d="M298.635,685.825l95.537,34.688l5.967-16.055l27.266,36.934l-44.658,10.684l5.947-16.035
		l-95.566-34.688L298.635,685.825"/>
	<path id="path54" fill="#FFFFFF" d="M143.42,674.614h97.959v17.227l38.379-25.449l-38.379-25.215v16.992H143.42V674.614"/>
	<path id="path56" d="M99.827,590.903c-19.243,0-34.8,15.41-34.8,34.766l0.039,30.918c0.166,2.656-2.236,5.117-5.967,5.352
		c-3.706,0.508-7.642-1.211-7.93-3.848l-0.02-30.781c0-26.387,21.45-47.656,47.856-47.656c26.411,0,47.847,21.27,47.847,47.656
		v33.633c-0.308,2.383-2.944,4.004-6.567,3.926c-3.521-0.078-6.582-4.531-6.289-6.914l0.098-32.285
		C134.094,606.313,119.075,590.903,99.827,590.903"/>
	<path id="path58" fill="none" stroke="#FFFFFF" stroke-width="4" d="M99.827,590.903c-19.243,0-34.8,15.41-34.8,34.766
		l0.039,30.918c0.166,2.656-2.236,5.117-5.967,5.352c-3.706,0.508-7.642-1.211-7.93-3.848l-0.02-30.781
		c0-26.387,21.45-47.656,47.856-47.656c26.411,0,47.847,21.27,47.847,47.656v33.633c-0.308,2.383-2.944,4.004-6.567,3.926
		c-3.521-0.078-6.582-4.531-6.289-6.914l0.098-32.285C134.094,606.313,119.075,590.903,99.827,590.903z"/>
	<path id="path60" d="M158.752,744.262c3.481,0,6.382-2.891,6.382-6.504v-78.066c0-3.359-2.9-6.25-6.382-6.25H37.59
		c-3.594,0-6.382,2.891-6.382,6.25v78.066c0,3.613,2.788,6.504,6.382,6.504H158.752"/>
	<path id="path62" fill="none" stroke="#FFFFFF" stroke-width="4" d="M158.752,744.262c3.481,0,6.382-2.891,6.382-6.504v-78.066
		c0-3.359-2.9-6.25-6.382-6.25H37.59c-3.594,0-6.382,2.891-6.382,6.25v78.066c0,3.613,2.788,6.504,6.382,6.504H158.752z"/>
</g>
</svg>
