<?xml version="1.0" encoding="utf-8"?>
<!-- Generator: Adobe Illustrator 16.0.0, SVG Export Plug-In . SVG Version: 6.00 Build 0)  -->
<!DOCTYPE svg PUBLIC "-//W3C//DTD SVG 1.1//EN" "http://www.w3.org/Graphics/SVG/1.1/DTD/svg11.dtd">
<svg version="1.1"
	 id="图层_1" xmlns:dc="http://purl.org/dc/elements/1.1/" xmlns:cc="http://creativecommons.org/ns#" xmlns:rdf="http://www.w3.org/1999/02/22-rdf-syntax-ns#"
	 xmlns="http://www.w3.org/2000/svg" xmlns:xlink="http://www.w3.org/1999/xlink" x="0px" y="0px" width="47px" height="75px"
	 viewBox="0 0 47 75" enable-background="new 0 0 47 75" xml:space="preserve">
<path fill="#00BCF2" d="M39.118,74.907c-1.688-0.284-2.394-0.903-2.394-2.101c0-0.5,0.14-0.884,0.494-1.377
	c0.488-0.67,0.49-0.687,0.169-0.976c-0.438-0.396-0.432-1.501,0.016-2.231c0.309-0.505,0.316-0.589,0.082-0.92
	c-0.404-0.578-0.336-2.142,0.123-2.816c0.876-1.284,1.577-1.497,4.508-1.36l2.104,0.101l0.057,0.485
	c0.063,0.552-0.178,0.771-0.846,0.772c-0.44,0.004-0.446,0.017-0.212,0.467c1.142,2.185-1.615,4.689-4.044,3.675
	c-0.632-0.265-0.766-0.147-0.766,0.655c0,0.506,0.281,0.601,2.105,0.705c1.759,0.101,2.545,0.299,3.068,0.775
	c0.934,0.85,0.836,2.383-0.207,3.299C42.497,74.835,40.75,75.182,39.118,74.907L39.118,74.907z M42.116,73.43
	c0.535-0.391,0.809-1.113,0.564-1.502c-0.318-0.511-0.961-0.701-2.365-0.703c-1.288-0.002-1.397,0.025-1.726,0.439
	c-0.412,0.523-0.458,1.445-0.088,1.753C39.165,73.966,41.363,73.973,42.116,73.43L42.116,73.43z M41.455,67.193
	c0.979-0.978,0.511-2.729-0.797-2.975c-1.298-0.244-2.267,0.822-2.006,2.209C38.888,67.688,40.516,68.132,41.455,67.193
	L41.455,67.193z M19.584,69.076l0.044-5.852h0.59c0.561,0,0.592,0.031,0.642,0.637l0.053,0.636l0.696-0.597
	c1.697-1.45,3.889-1.071,4.835,0.836c0.603,1.213,0.688,3.492,0.183,4.83c-0.845,2.246-3.192,3.039-4.911,1.66L21.06,70.7v2.112
	v2.111h-0.761h-0.76L19.584,69.076L19.584,69.076z M24.488,70.2c1.271-0.998,1.208-4.706-0.096-5.617
	c-0.761-0.531-2.114-0.17-2.913,0.78c-0.384,0.455-0.419,0.635-0.419,2.146v1.648l0.755,0.694c0.645,0.594,0.86,0.694,1.493,0.694
	C23.799,70.548,24.195,70.432,24.488,70.2L24.488,70.2z M0.383,71.639c-0.455-0.32-0.52-1.264-0.114-1.666
	c0.342-0.345,1.147-0.343,1.433,0.004c0.257,0.31,0.298,1.342,0.063,1.57c-0.324,0.316-1.001,0.361-1.381,0.094L0.383,71.639
	L0.383,71.639z M6.28,71.717c-0.797-0.244-1.649-1.185-1.981-2.185c-0.398-1.199-0.289-3.5,0.214-4.47
	c0.804-1.552,2.431-2.317,4.081-1.922c1.171,0.28,1.687,0.723,1.687,1.443c0,0.689-0.18,0.715-1.096,0.15
	c-1.197-0.736-2.662-0.445-3.223,0.639c-0.366,0.707-0.49,2.535-0.235,3.477c0.3,1.108,0.973,1.697,1.938,1.697
	c0.776,0,1.581-0.303,2.163-0.813c0.266-0.232,0.325-0.236,0.46-0.022c0.629,0.994-0.542,2.008-2.441,2.114
	C7.284,71.859,6.58,71.809,6.28,71.717L6.28,71.717z M12.724,71.65c-0.934-0.346-1.256-0.83-1-1.496
	c0.082-0.215,0.229-0.191,0.969,0.152c1.242,0.578,2.569,0.506,3.017-0.164c0.235-0.35,0.131-1.225-0.179-1.504
	c-0.17-0.154-0.795-0.477-1.391-0.716c-1.297-0.522-1.957-1.104-2.176-1.922c-0.54-1.999,1.552-3.481,3.935-2.79
	c0.896,0.26,1.119,0.48,1.119,1.111c0,0.471-0.235,0.527-0.863,0.207c-1.28-0.653-2.842-0.213-2.842,0.8
	c0,0.59,0.323,0.86,1.857,1.56c1.608,0.729,2.186,1.372,2.186,2.432c0,0.916-0.43,1.687-1.192,2.136
	C15.44,71.881,13.621,71.984,12.724,71.65L12.724,71.65z M29.185,65.54l0.045-6.187h0.675h0.672l0.084,3.685l0.086,3.685
	l0.743-0.822c2.334-2.584,2.537-2.758,3.221-2.758c0.356,0,0.698,0.08,0.757,0.178c0.061,0.096-0.626,0.924-1.524,1.838
	l-1.635,1.662l1.782,2.309c0.98,1.271,1.742,2.374,1.693,2.454c-0.049,0.078-0.418,0.144-0.821,0.144h-0.73l-1.743-2.281
	l-1.742-2.283l-0.049,2.283l-0.045,2.281h-0.756h-0.755L29.185,65.54L29.185,65.54z M11.838,45.863L1.184,39.707V27.369V15.031
	l10.738,6.195l10.738,6.195l0.043,12.306c0.024,6.77-0.014,12.304-0.084,12.301C22.549,52.021,17.698,49.249,11.838,45.863
	L11.838,45.863z M25.271,39.796V27.533l10.639-6.14c5.853-3.377,10.74-6.2,10.864-6.274C46.961,15.007,47,17.064,47,27.333v12.349
	l-10.632,6.135c-5.851,3.373-10.739,6.156-10.867,6.188C25.307,52.048,25.271,50.084,25.271,39.796L25.271,39.796z M13.228,19.03
	c-5.929-3.423-10.802-6.286-10.829-6.364c-0.05-0.147,9.017-5.456,9.313-5.452c0.169,0.002,21.444,12.248,21.692,12.485
	c0.097,0.094-9.172,5.603-9.361,5.562C24.024,25.257,19.157,22.453,13.228,19.03L13.228,19.03z M25.199,11.962
	c-5.923-3.423-10.794-6.249-10.828-6.281c-0.033-0.032,2.139-1.323,4.823-2.869L24.075,0l10.746,6.205
	c5.913,3.413,10.746,6.307,10.746,6.431c0,0.224-9.061,5.571-9.417,5.557C36.051,18.188,31.122,15.385,25.199,11.962L25.199,11.962z
	"/>
</svg>
