<?xml version="1.0" encoding="utf-8"?>
<!-- Generator: Adobe Illustrator 16.0.0, SVG Export Plug-In . SVG Version: 6.00 Build 0)  -->
<!DOCTYPE svg PUBLIC "-//W3C//DTD SVG 1.1//EN" "http://www.w3.org/Graphics/SVG/1.1/DTD/svg11.dtd">
<svg version="1.1"
	 id="svg2" xmlns:dc="http://purl.org/dc/elements/1.1/" xmlns:cc="http://creativecommons.org/ns#" xmlns:rdf="http://www.w3.org/1999/02/22-rdf-syntax-ns#" xmlns:svg="http://www.w3.org/2000/svg"
	 xmlns="http://www.w3.org/2000/svg" xmlns:xlink="http://www.w3.org/1999/xlink" x="0px" y="0px" width="77px" height="32px"
	 viewBox="0 0 77 32" enable-background="new 0 0 77 32" xml:space="preserve">
<g id="g12" transform="scale(0.1,0.1)">
	<path id="path22" fill="#087FBF" d="M0,320.005h649.81V66.445H0V320.005z"/>
	<path id="path24" fill="none" stroke="#FFFFFF" stroke-width="4" d="M0,320.005h649.81V66.445H0V320.005z"/>
	<path id="path26" fill="#087FBF" d="M64.985,0.005L0,66.445h649.81l64.98-66.44H64.985"/>
	<path id="path28" fill="none" stroke="#FFFFFF" stroke-width="4" d="M64.985,0.005L0,66.445h649.81l64.98-66.44H64.985z"/>
	<path id="path30" fill="#087FBF" d="M714.79,253.579V0.005l-64.98,66.44v253.559L714.79,253.579"/>
	<path id="path32" fill="none" stroke="#FFFFFF" stroke-width="4" d="M714.79,253.579V0.005l-64.98,66.44v253.559L714.79,253.579z"
		/>
	<g id="g34" transform="scale(10,10)" style="font-variant:normal;font-weight:normal;font-size:11.8089px;font-family:Helvetica;-inkscape-font-specification:Helvetica;writing-mode:lr-tb;fill:#ffffff;fill-opacity:1;fill-rule:nonzero;stroke:none">
		<text transform="matrix(1.0031 0 0 1 7.2222 23.2622)">D</text>
		<text transform="matrix(1.0031 0 0 1 15.7779 23.2622)">S</text>
		<text transform="matrix(1.0031 0 0 1 23.6812 23.2622)">U</text>
		<text transform="matrix(1.0031 0 0 1 32.2349 23.2622)">/</text>
		<text transform="matrix(1.0031 0 0 1 35.5279 23.2622)">C</text>
		<text transform="matrix(1.0031 0 0 1 44.0786 23.2622)">S</text>
		<text transform="matrix(1.0031 0 0 1 51.9849 23.2622)">U</text>
	</g>
</g>
</svg>
