<?xml version="1.0" encoding="utf-8"?>
<!-- Generator: Adobe Illustrator 16.0.0, SVG Export Plug-In . SVG Version: 6.00 Build 0)  -->
<!DOCTYPE svg PUBLIC "-//W3C//DTD SVG 1.1//EN" "http://www.w3.org/Graphics/SVG/1.1/DTD/svg11.dtd">
<svg version="1.1"
	 id="svg2" xmlns:dc="http://purl.org/dc/elements/1.1/" xmlns:cc="http://creativecommons.org/ns#" xmlns:rdf="http://www.w3.org/1999/02/22-rdf-syntax-ns#" xmlns:svg="http://www.w3.org/2000/svg"
	 xmlns="http://www.w3.org/2000/svg" xmlns:xlink="http://www.w3.org/1999/xlink" x="0px" y="0px" width="78px" height="40px"
	 viewBox="0 0 78 40" enable-background="new 0 0 78 40" xml:space="preserve">
<g id="g12" transform="scale(0.1,0.1)">
	<path id="path22" fill="#087BBB" d="M0.002,400.005h708.623V70.547H0.002V400.005z"/>
	<path id="path24" fill="none" stroke="#FFFFFF" stroke-width="4" d="M0.002,400.005h708.623V70.547H0.002V400.005z"/>
	<path id="path26" fill="none" stroke="#FFFFFF" stroke-width="15" d="M540.266,315.415c33.887,0,61.27-27.227,61.27-60.781
		c0-33.516-27.383-60.781-61.27-60.781c-33.701,0-61.074,27.266-61.074,60.781C479.192,288.188,506.565,315.415,540.266,315.415z"/>
	<path id="path28" fill="none" stroke="#FFFFFF" stroke-width="15" d="M540.266,193.853h106.309"/>
	<path id="path30" fill="#FFFFFF" d="M647.581,154.204v76.387l46.348-36.641L647.581,154.204"/>
	<path id="path32" fill="none" stroke="#FFFFFF" stroke-width="2" d="M647.581,154.204v76.387l46.348-36.641L647.581,154.204z"/>
	<path id="path34" fill="none" stroke="#FFFFFF" stroke-width="15" d="M479.241,255.142V149.473"/>
	<path id="path36" fill="#FFFFFF" d="M440.237,148.96h76.875l-37.002-46.021L440.237,148.96"/>
	<path id="path38" fill="none" stroke="#FFFFFF" stroke-width="2" d="M440.237,148.96h76.875l-37.002-46.021L440.237,148.96z"/>
	<path id="path40" fill="none" stroke="#FFFFFF" stroke-width="15" d="M541.799,315.356H435.647"/>
	<path id="path42" fill="#FFFFFF" d="M434.143,355.239v-76.465l-46.348,36.64L434.143,355.239"/>
	<path id="path44" fill="none" stroke="#FFFFFF" stroke-width="2" d="M434.143,355.239v-76.465l-46.348,36.64L434.143,355.239z"/>
	<path id="path46" fill="none" stroke="#FFFFFF" stroke-width="15" d="M164.871,315.415c-33.809,0-61.191-27.227-61.191-60.781
		c0-33.516,27.383-60.781,61.191-60.781c33.784,0,61.089,27.266,61.089,60.781C225.959,288.188,198.655,315.415,164.871,315.415z"/>
	<path id="path48" fill="none" stroke="#FFFFFF" stroke-width="15" d="M164.871,193.853H58.655"/>
	<path id="path50" fill="#FFFFFF" d="M57.566,154.204v76.387L11.277,193.95L57.566,154.204"/>
	<path id="path52" fill="none" stroke="#FFFFFF" stroke-width="2" d="M57.566,154.204v76.387L11.277,193.95L57.566,154.204z"/>
	<path id="path54" fill="none" stroke="#FFFFFF" stroke-width="15" d="M225.911,255.142V149.473"/>
	<path id="path56" fill="#FFFFFF" d="M264.993,148.96h-76.885l36.924-46.021L264.993,148.96"/>
	<path id="path58" fill="none" stroke="#FFFFFF" stroke-width="2" d="M264.993,148.96h-76.885l36.924-46.021L264.993,148.96z"/>
	<path id="path60" fill="none" stroke="#FFFFFF" stroke-width="15" d="M163.347,315.356h106.226"/>
	<path id="path62" fill="#FFFFFF" d="M271.082,355.239v-76.465l46.274,36.64L271.082,355.239"/>
	<path id="path64" fill="none" stroke="#FFFFFF" stroke-width="2" d="M271.082,355.239v-76.465l46.274,36.64L271.082,355.239z"/>
	<path id="path66" fill="#087BBB" d="M707.493,70.151H0.403L87.571,0.996h691.797v327.192l-71.094,71.66V72.188L707.493,70.151"/>
	<path id="path68" fill="none" stroke="#FFFFFF" stroke-width="4" d="M707.493,70.151H0.403L87.571,0.996h691.797v327.192
		l-71.094,71.66V72.188L707.493,70.151z"/>
	<path id="path70" fill="none" stroke="#FFFFFF" stroke-width="4" d="M708.127,69.624L780.002,0"/>
	<path id="path72" fill="none" stroke="#FFFFFF" stroke-width="10" d="M352.415,146.904v190.893"/>
</g>
</svg>
