<?xml version="1.0" encoding="utf-8"?>
<!-- Generator: Adobe Illustrator 16.0.0, SVG Export Plug-In . SVG Version: 6.00 Build 0)  -->
<!DOCTYPE svg PUBLIC "-//W3C//DTD SVG 1.1//EN" "http://www.w3.org/Graphics/SVG/1.1/DTD/svg11.dtd">
<svg version="1.1" id="图层_1" xmlns="http://www.w3.org/2000/svg" xmlns:xlink="http://www.w3.org/1999/xlink" x="0px" y="0px"
	 width="512px" height="512px" viewBox="0 0 512 512" enable-background="new 0 0 512 512" xml:space="preserve">
<g>
	<path fill="#FA4D45" d="M258.827,508.799h-0.009c-59.002,0-116.025-4.052-156.434-11.121
		c-63.337-11.091-78.335-25.959-89.152-88.42c-14.404-83.148-14.183-224.212,0.48-308.031c11.06-63.299,25.937-78.297,88.405-89.152
		c39.64-6.886,93.615-10.687,151.978-10.687c58.881,0,115.781,4.045,156.091,11.098c63.314,11.083,78.304,25.959,89.152,88.42
		c14.427,83.164,14.229,224.258-0.442,308.092c-11.045,63.313-25.929,78.305-88.406,89.167
		C370.913,505.021,317.045,508.799,258.827,508.799 M254.097,16.987c-57.495,0-110.518,3.717-149.311,10.458
		c-55.881,9.704-65.783,19.713-75.701,76.461c-14.419,82.38-14.633,220.996-0.48,302.7c9.674,55.849,19.683,65.767,76.47,75.714
		c39.563,6.916,95.595,10.878,153.744,10.878h0.009c57.364,0,110.273-3.688,149-10.391c55.895-9.72,65.796-19.729,75.714-76.491
		c14.412-82.403,14.61-221.037,0.442-302.746c-9.72-55.872-19.729-65.782-76.477-75.715
		C368.033,20.948,312.108,16.987,254.097,16.987"/>
	<path fill="#FA4D45" d="M122.339,173.139h201.877c8.715,0,15.78-6.591,15.78-14.736V124.94c0-8.144-7.066-14.736-15.78-14.736
		H122.339c-8.714,0-15.781,6.591-15.781,14.736v33.464C106.558,166.532,113.625,173.139,122.339,173.139 M140.148,125.209
		c8.414,0,15.243,6.829,15.243,15.243s-6.829,15.227-15.243,15.227s-15.243-6.829-15.243-15.243S131.735,125.209,140.148,125.209"/>
	<path fill="#FA4D45" d="M122.339,254.739h201.877c8.715,0,15.78-6.591,15.78-14.736V206.54c0-8.144-7.066-14.736-15.78-14.736
		H122.339c-8.714,0-15.781,6.591-15.781,14.736v33.464C106.558,248.148,113.625,254.739,122.339,254.739 M140.148,207.792
		c8.414,0,15.243,6.829,15.243,15.243s-6.829,15.243-15.243,15.243s-15.243-6.829-15.243-15.243S131.735,207.792,140.148,207.792"/>
	<path fill="#FA4D45" d="M230.115,295.318c0,0,2.819-14.498,13.848-21.391l-122.987-0.238c0,0-13.768-0.981-13.768,13.77v99.314
		c0,0,0,13.769,13.768,13.769h71.777c0,0-15.735-19.662-14.751-49.166C178.983,321.873,202.593,302.193,230.115,295.318"/>
	<path fill="#FA4D45" d="M393.457,320.891c0,0,11.061-32.195-29.993-47.691c-41.055-15.48-62.682,17.207-62.682,17.207
		c-14.134-13.77-34.051-8.239-34.051-8.239c-25.271,6.86-20.519,31.832-20.519,31.832c-13.025-3.929-50.386,0.981-50.386,40.071
		c0,39.089,31.705,45.965,31.705,45.965h165.434c0,0,30.484-3.692,30.484-38.106C423.45,327.516,393.457,320.891,393.457,320.891"/>
</g>
</svg>
