<?xml version="1.0" encoding="utf-8"?>
<!-- Generator: Adobe Illustrator 16.0.0, SVG Export Plug-In . SVG Version: 6.00 Build 0)  -->
<!DOCTYPE svg PUBLIC "-//W3C//DTD SVG 1.1//EN" "http://www.w3.org/Graphics/SVG/1.1/DTD/svg11.dtd">
<svg version="1.1" id="图层_1" xmlns="http://www.w3.org/2000/svg" xmlns:xlink="http://www.w3.org/1999/xlink" x="0px" y="0px"
	 width="65px" height="78px" viewBox="0 0 65 78" enable-background="new 0 0 65 78" xml:space="preserve">
<g id="Layer_1">
	<polygon fill="#99BCE3" points="64.782,52.761 32.498,48.75 0.214,52.761 32.498,78 	"/>
	<polygon fill="#19486F" points="65,25.242 32.28,29.25 0,25.242 32.498,0 	"/>
	<polygon fill="#205B99" points="32.498,0 0,16.142 0,25.242 32.498,15.601 	"/>
	<polygon fill="#205B99" points="32.498,62.398 0,52.761 0,61.857 32.498,78 	"/>
	<polygon fill="#205B99" points="32.498,50.808 18.414,48.75 18.414,29.468 32.498,27.409 45.824,39.108 	"/>
	<polygon fill="#5294CF" points="32.498,0 65,16.142 65,25.242 32.498,15.601 	"/>
	<polygon fill="#5294CF" points="32.498,62.398 65,52.761 65,61.857 32.498,78 	"/>
	<polygon fill="#5294CF" points="32.498,50.808 46.582,48.75 46.582,29.468 32.498,27.409 	"/>
</g>
</svg>
