<?xml version="1.0" encoding="utf-8"?>
<!-- Generator: Adobe Illustrator 16.0.0, SVG Export Plug-In . SVG Version: 6.00 Build 0)  -->
<!DOCTYPE svg PUBLIC "-//W3C//DTD SVG 1.1//EN" "http://www.w3.org/Graphics/SVG/1.1/DTD/svg11.dtd">
<svg version="1.1" id="图层_1" xmlns="http://www.w3.org/2000/svg" xmlns:xlink="http://www.w3.org/1999/xlink" x="0px" y="0px"
	 width="75px" height="75px" viewBox="0 0 75 75" enable-background="new 0 0 75 75" xml:space="preserve">
<g id="Layer_1">
	<path fill="#19486F" d="M61.057,75H13.944C7.175,75,1.625,69.448,1.625,62.68V15.704c0-6.769,5.55-12.32,12.319-12.32h47.112
		c6.769,0,12.318,5.551,12.318,12.32v47.112C73.375,69.585,67.825,75,61.057,75z"/>
	<path fill="#2E73B8" d="M61.057,71.75H13.944c-6.769,0-12.319-5.55-12.319-12.318V12.319C1.625,5.551,7.175,0,13.944,0h47.112
		c6.769,0,12.318,5.551,12.318,12.319v47.112C73.375,66.2,67.825,71.75,61.057,71.75z"/>
	<g>
		<path fill="#FFFFFF" d="M10.83,7.853h4.197l2.03,9.882l0,0l2.031-9.882h4.197v13.943h-2.572V10.56l0,0l-2.438,11.236H16.11
			L13.673,10.56l0,0v11.236h-2.572V7.853H10.83z"/>
		<path fill="#FFFFFF" d="M24.774,23.285c0.271,0,0.406,0,0.677,0c0.947,0,1.354-0.541,1.489-1.489l-2.979-10.559h2.843l1.624,7.31
			l0,0l1.354-7.31h2.708l-2.572,9.882c-0.947,3.655-1.489,4.197-4.061,4.197h-1.083V23.285z"/>
		<path fill="#FFFFFF" d="M39.53,17.464v0.406c0,1.354,0.406,2.166,1.896,2.166c0.812,0,1.623-0.541,1.623-1.76
			c0-1.218-0.677-1.759-2.571-2.437c-2.573-0.812-3.655-1.895-3.655-4.197c0-2.708,1.625-4.061,4.332-4.061
			c2.571,0,4.333,1.083,4.333,3.791v0.406H42.78c0-1.354-0.407-2.031-1.49-2.031c-1.218,0-1.625,0.813-1.625,1.625
			s0.271,1.354,1.49,1.896l2.166,0.947c2.167,0.948,2.707,2.031,2.707,3.655c0,2.979-1.76,4.333-4.873,4.333
			c-3.25,0-4.468-1.489-4.468-4.062v-0.542h2.843V17.464z"/>
		<path fill="#FFFFFF" d="M55.1,23.556l-1.625-1.76c-0.271,0.136-0.541,0.136-0.812,0.271c-0.271,0-0.678,0-0.948,0
			c-4.196,0-4.738-2.979-4.738-7.31c0-4.333,0.542-7.311,4.738-7.311s4.738,2.979,4.738,7.311c0,2.437-0.135,4.332-1.083,5.686
			l1.488,1.489L55.1,23.556z M51.58,20.036c1.623,0,1.895-1.489,1.895-5.145c0-3.791-0.271-5.144-1.895-5.144
			c-1.625,0-1.896,1.489-1.896,5.144C49.549,18.547,49.819,20.036,51.58,20.036z"/>
		<path fill="#FFFFFF" d="M57.536,21.796V7.853h2.844v11.643h5.008v2.301H57.536z"/>
	</g>
</g>
</svg>
