<?xml version="1.0" encoding="utf-8"?>
<!-- Generator: Adobe Illustrator 16.0.0, SVG Export Plug-In . SVG Version: 6.00 Build 0)  -->
<!DOCTYPE svg PUBLIC "-//W3C//DTD SVG 1.1//EN" "http://www.w3.org/Graphics/SVG/1.1/DTD/svg11.dtd">
<svg version="1.1" id="图层_1" xmlns="http://www.w3.org/2000/svg" xmlns:xlink="http://www.w3.org/1999/xlink" x="0px" y="0px"
	 width="75px" height="75px" viewBox="0 0 75 75" enable-background="new 0 0 75 75" xml:space="preserve">
<g id="Layer_1">
	<path fill="#19486F" d="M61.057,75H13.944C7.175,75,1.625,69.448,1.625,62.68V15.704c0-6.769,5.55-12.32,12.319-12.32h47.112
		c6.769,0,12.318,5.551,12.318,12.32v47.112C73.375,69.585,67.825,75,61.057,75z"/>
	<path fill="#2E73B8" d="M61.057,71.75H13.944c-6.769,0-12.319-5.55-12.319-12.318V12.319C1.625,5.551,7.175,0,13.944,0h47.112
		c6.769,0,12.318,5.551,12.318,12.319v47.112C73.375,66.2,67.825,71.75,61.057,71.75z"/>
	<g>
		<path fill="#FFFFFF" d="M20.578,18.547v0.271c0,2.708-1.083,5.416-4.603,5.416c-3.791,0-5.009-2.438-5.009-7.853
			s1.218-7.852,5.009-7.852c4.332,0,4.603,3.113,4.603,4.738v0.27h-2.437v-0.27c0-1.354-0.406-2.979-2.166-2.979
			c-1.76,0-2.572,1.083-2.572,5.957s0.812,6.092,2.572,6.092c2.031,0,2.301-2.301,2.301-3.655v-0.136H20.578z"/>
		<path fill="#FFFFFF" d="M25.181,8.8h3.114l3.926,15.163h-2.572L28.7,20.307h-4.467l-0.948,3.656h-2.572L25.181,8.8z
			 M28.294,18.276l-1.76-7.446l0,0l-1.76,7.446H28.294z"/>
		<path fill="#FFFFFF" d="M42.509,18.547v0.271c0,2.708-1.082,5.416-4.603,5.416c-3.79,0-5.008-2.438-5.008-7.853
			s1.218-7.852,5.008-7.852c4.333,0,4.603,3.113,4.603,4.738v0.27h-2.437v-0.27c0-1.354-0.407-2.979-2.167-2.979
			c-1.76,0-2.572,1.083-2.572,5.957s0.812,6.092,2.572,6.092c2.031,0,2.302-2.301,2.302-3.655v-0.136H42.509z"/>
		<path fill="#FFFFFF" d="M44.269,8.8h2.437v6.092h4.468V8.8h2.438v15.163h-2.438v-7.04h-4.468v7.04h-2.437V8.8z"/>
		<path fill="#FFFFFF" d="M56.047,8.8h8.123v2.03h-5.821v4.197h5.415v2.03h-5.415v4.874h5.956v2.031h-8.394V8.8H56.047z"/>
	</g>
</g>
</svg>
