<?xml version="1.0" encoding="utf-8"?>
<!-- Generator: Adobe Illustrator 16.0.0, SVG Export Plug-In . SVG Version: 6.00 Build 0)  -->
<!DOCTYPE svg PUBLIC "-//W3C//DTD SVG 1.1//EN" "http://www.w3.org/Graphics/SVG/1.1/DTD/svg11.dtd">
<svg version="1.1" id="图层_1" xmlns="http://www.w3.org/2000/svg" xmlns:xlink="http://www.w3.org/1999/xlink" x="0px" y="0px"
	 width="75px" height="75px" viewBox="0 0 75 75" enable-background="new 0 0 75 75" xml:space="preserve">
<g id="Layer_1">
	<path fill="#19486F" d="M61.057,75H13.944C7.175,75,1.625,69.448,1.625,62.68V15.704c0-6.769,5.55-12.32,12.319-12.32h47.112
		c6.769,0,12.318,5.551,12.318,12.32v47.112C73.375,69.585,67.825,75,61.057,75z"/>
	<path fill="#2E73B8" d="M61.057,71.75H13.944c-6.769,0-12.319-5.55-12.319-12.318V12.319C1.625,5.551,7.175,0,13.944,0h47.112
		c6.769,0,12.318,5.551,12.318,12.319v47.112C73.375,66.2,67.825,71.75,61.057,71.75z"/>
	<g>
		<polygon fill="#FFFFFF" points="63.222,22.337 63.222,16.922 56.453,16.922 56.453,10.153 51.038,10.153 51.038,16.922 
			48.33,16.922 48.33,10.153 42.915,10.153 42.915,16.922 40.208,16.922 40.208,10.153 34.792,10.153 34.792,16.922 32.085,16.922 
			32.085,10.153 26.67,10.153 26.67,16.922 23.962,16.922 23.962,10.153 18.547,10.153 18.547,16.922 11.778,16.922 11.778,22.337 
			18.547,22.337 18.547,25.045 11.778,25.045 11.778,30.46 18.547,30.46 18.547,33.167 11.778,33.167 11.778,38.583 18.547,38.583 
			18.547,41.29 11.778,41.29 11.778,46.705 18.547,46.705 18.547,49.413 11.778,49.413 11.778,54.828 18.547,54.828 18.547,61.597 
			23.962,61.597 23.962,54.828 26.67,54.828 26.67,61.597 32.085,61.597 32.085,54.828 34.792,54.828 34.792,61.597 40.208,61.597 
			40.208,54.828 42.915,54.828 42.915,61.597 48.33,61.597 48.33,54.828 51.038,54.828 51.038,61.597 56.453,61.597 56.453,54.828 
			63.222,54.828 63.222,49.413 56.453,49.413 56.453,46.705 63.222,46.705 63.222,41.29 56.453,41.29 56.453,38.583 63.222,38.583 
			63.222,33.167 56.453,33.167 56.453,30.46 63.222,30.46 63.222,25.045 56.453,25.045 56.453,22.337 		"/>
		<path fill="#2E73B8" d="M25.316,25.045h7.04l5.28,14.892l0,0l4.873-14.892h7.175v21.66h-5.415V31.814h0.542l-5.415,14.891h-3.791
			L30.19,31.814h0.541v14.891h-5.415V25.045z"/>
	</g>
</g>
</svg>
