<?xml version="1.0" encoding="utf-8"?>
<!-- Generator: Adobe Illustrator 16.0.0, SVG Export Plug-In . SVG Version: 6.00 Build 0)  -->
<!DOCTYPE svg PUBLIC "-//W3C//DTD SVG 1.1//EN" "http://www.w3.org/Graphics/SVG/1.1/DTD/svg11.dtd">
<svg version="1.1" id="图层_1" xmlns="http://www.w3.org/2000/svg" xmlns:xlink="http://www.w3.org/1999/xlink" x="0px" y="0px"
	 width="75px" height="75px" viewBox="0 0 75 75" enable-background="new 0 0 75 75" xml:space="preserve">
<g id="Layer_1">
	<polygon fill="#19486F" points="33.649,75 1.541,75 1.541,71.919 17.591,62.793 33.649,71.919 	"/>
	<polygon fill="#19486F" points="73.459,75 41.359,75 41.359,71.919 57.409,62.793 73.459,71.919 	"/>
	<polygon fill="#19486F" points="33.649,48.547 1.541,48.547 1.541,45.334 17.591,36.341 33.649,45.334 	"/>
	<polygon fill="#19486F" points="73.459,48.547 41.359,48.547 41.359,45.334 57.409,36.341 73.459,45.334 	"/>
	<polygon fill="#19486F" points="33.649,21.963 1.541,21.963 1.541,18.75 17.591,9.764 33.649,18.75 	"/>
	<polygon fill="#19486F" points="73.459,21.963 41.359,21.963 41.359,18.75 57.409,9.764 73.459,18.75 	"/>
	<rect x="1.541" fill="#2E73B8" width="32.108" height="18.882"/>
	<rect x="1.541" y="26.452" fill="#2E73B8" width="32.108" height="18.882"/>
	<rect x="1.541" y="53.036" fill="#2E73B8" width="32.108" height="18.883"/>
	<rect x="41.359" fill="#2E73B8" width="32.1" height="18.882"/>
	<rect x="41.359" y="26.452" fill="#2E73B8" width="32.1" height="18.882"/>
	<rect x="41.359" y="53.036" fill="#2E73B8" width="32.1" height="18.883"/>
	<path fill="#FFFFFF" d="M57.409,2.957c3.54,0,6.411,2.871,6.411,6.419c0,3.547-2.871,6.418-6.411,6.418
		c-3.556,0-6.427-2.871-6.427-6.418C50.982,5.827,53.854,2.957,57.409,2.957z"/>
	<path fill="#FFFFFF" d="M57.409,29.541c3.54,0,6.411,2.871,6.411,6.418c0,3.54-2.871,6.426-6.411,6.426
		c-3.556,0-6.427-2.887-6.427-6.426C50.982,32.412,53.854,29.541,57.409,29.541z"/>
	<path fill="#FFFFFF" d="M57.409,55.985c3.54,0,6.411,2.887,6.411,6.427c0,3.556-2.871,6.427-6.411,6.427
		c-3.556,0-6.427-2.871-6.427-6.427C50.982,58.872,53.854,55.985,57.409,55.985z"/>
</g>
</svg>
