<?xml version="1.0" encoding="utf-8"?>
<!-- Generator: Adobe Illustrator 16.0.0, SVG Export Plug-In . SVG Version: 6.00 Build 0)  -->
<!DOCTYPE svg PUBLIC "-//W3C//DTD SVG 1.1//EN" "http://www.w3.org/Graphics/SVG/1.1/DTD/svg11.dtd">
<svg version="1.1" id="图层_1" xmlns="http://www.w3.org/2000/svg" xmlns:xlink="http://www.w3.org/1999/xlink" x="0px" y="0px"
	 width="75px" height="73px" viewBox="0 0 75 73" enable-background="new 0 0 75 73" xml:space="preserve">
<g id="Layer_1">
	<polygon fill="#19486F" points="11.874,14.873 0,14.873 0,11.874 5.997,2.999 11.874,11.874 	"/>
	<polygon fill="#19486F" points="74.998,14.873 16.872,14.873 16.872,11.874 45.995,2.999 74.998,11.874 	"/>
	<polygon fill="#19486F" points="11.874,34.25 0,34.25 0,31.252 5.997,22.378 11.874,31.252 	"/>
	<polygon fill="#19486F" points="74.998,34.25 16.872,34.25 16.872,31.252 45.995,22.378 74.998,31.252 	"/>
	<polygon fill="#19486F" points="11.874,53.622 0,53.622 0,50.623 5.997,41.754 11.874,50.623 	"/>
	<polygon fill="#19486F" points="74.998,53.622 16.872,53.622 16.872,50.623 45.995,41.754 74.998,50.623 	"/>
	<polygon fill="#19486F" points="11.874,73 0,73 0,70.002 5.997,61.119 11.874,70.002 	"/>
	<polygon fill="#19486F" points="74.998,73 16.872,73 16.872,70.002 45.995,61.119 74.998,70.002 	"/>
	<rect x="16.872" fill="#2E73B8" width="58.128" height="11.874"/>
	<rect x="16.872" y="19.379" fill="#2E73B8" width="58.128" height="11.873"/>
	<rect x="16.872" y="38.756" fill="#2E73B8" width="58.128" height="11.866"/>
	<rect x="16.872" y="58.12" fill="#2E73B8" width="58.128" height="11.882"/>
	<rect fill="#2E73B8" width="11.874" height="11.874"/>
	<rect y="19.379" fill="#2E73B8" width="11.874" height="11.873"/>
	<rect y="38.756" fill="#2E73B8" width="11.874" height="11.866"/>
	<rect y="58.12" fill="#2E73B8" width="11.874" height="11.882"/>
</g>
</svg>
