<?xml version="1.0" encoding="utf-8"?>
<!-- Generator: Adobe Illustrator 16.0.0, SVG Export Plug-In . SVG Version: 6.00 Build 0)  -->
<!DOCTYPE svg PUBLIC "-//W3C//DTD SVG 1.1//EN" "http://www.w3.org/Graphics/SVG/1.1/DTD/svg11.dtd">
<svg version="1.1" id="图层_1" xmlns="http://www.w3.org/2000/svg" xmlns:xlink="http://www.w3.org/1999/xlink" x="0px" y="0px"
	 width="75px" height="75px" viewBox="0 0 75 75" enable-background="new 0 0 75 75" xml:space="preserve">
<g id="Layer_1">
	<polygon fill="#19486F" points="33.649,75 1.541,75 1.541,71.919 17.591,62.793 33.649,71.919 	"/>
	<polygon fill="#19486F" points="73.459,75 41.359,75 41.359,71.919 57.409,62.793 73.459,71.919 	"/>
	<polygon fill="#19486F" points="33.649,35.189 1.541,35.189 1.541,32.108 17.591,22.99 33.649,32.108 	"/>
	<polygon fill="#19486F" points="73.459,35.189 41.359,35.189 41.359,32.108 57.409,22.99 73.459,32.108 	"/>
	<rect x="1.541" fill="#2E73B8" width="32.108" height="32.108"/>
	<rect x="41.359" fill="#2E73B8" width="32.1" height="32.108"/>
	<rect x="1.541" y="39.818" fill="#2E73B8" width="32.108" height="32.101"/>
	<rect x="41.359" y="39.818" fill="#2E73B8" width="32.1" height="32.101"/>
	<path fill="#FFFFFF" d="M57.409,4.878c6.166,0,11.164,5.005,11.164,11.172c0,6.175-4.998,11.172-11.164,11.172
		c-6.167,0-11.181-4.998-11.181-11.172C46.229,9.884,51.242,4.878,57.409,4.878z"/>
</g>
</svg>
