<?xml version="1.0" encoding="utf-8"?>
<!-- Generator: Adobe Illustrator 16.0.0, SVG Export Plug-In . SVG Version: 6.00 Build 0)  -->
<!DOCTYPE svg PUBLIC "-//W3C//DTD SVG 1.1//EN" "http://www.w3.org/Graphics/SVG/1.1/DTD/svg11.dtd">
<svg version="1.1" id="图层_1" xmlns="http://www.w3.org/2000/svg" xmlns:xlink="http://www.w3.org/1999/xlink" x="0px" y="0px"
	 width="69px" height="78px" viewBox="0 0 69 78" enable-background="new 0 0 69 78" xml:space="preserve">
<g id="Layer_1">
	<path fill="#19486F" d="M65.938,34.961c1.533,0,2.783-1.254,2.783-2.786V22.007c0-1.533-1.25-2.787-2.783-2.787H55.785
		c-0.696,0-1.255,0.279-1.67,0.558l-6.259-4.736V6.268c0-1.531-1.254-2.786-2.783-2.786H34.917c-1.529,0-2.782,1.254-2.782,2.786
		v10.168c0,0.417,0.139,0.835,0.278,1.253l-9.46,11.283H4.173C1.807,28.972,0,30.782,0,33.15v19.083
		c0,2.368,1.807,4.179,4.173,4.179h19.059c0.418,0,0.694,0,1.112-0.139l7.929,8.217c0,0.14,0,0.418,0,0.558v10.169
		c0,1.531,1.252,2.784,2.782,2.784h10.156c1.53,0,2.782-1.253,2.782-2.784v-8.915c2.088-1.672,4.313-3.206,6.26-4.738
		c0.417,0.419,1.112,0.699,1.809,0.699h10.156c1.529,0,2.782-1.255,2.782-2.786v-10.17c0-1.531-1.253-2.785-2.782-2.785h-3.339
		v-11.56H65.938z M54.253,36.771l-2.363-4.875L53,31.479v0.696c0,1.253,0.976,2.368,2.089,2.645L54.253,36.771z M46.741,62.818
		c-0.279-0.279-0.695-0.419-0.975-0.419l4.313-8.913l3.059,0.694v3.762C51.332,59.335,49.244,60.868,46.741,62.818z M35.612,19.361
		h6.26l5.148,10.584l-19.616,6.408v-3.204c0-1.115-0.417-2.089-1.112-2.787L35.612,19.361z M53,23.4v4.458l-2.64,0.836l-4.592-9.472
		c0.417-0.138,0.695-0.278,1.113-0.556L53,23.4z M27.403,52.232v-4.319l19.197,4.736l-4.729,9.612h-6.957l0,0l-7.93-8.219
		C27.266,53.486,27.403,52.929,27.403,52.232z M55.228,46.661c-1.253,0.277-2.089,1.393-2.089,2.645v1.394l-1.529-0.418l2.644-5.571
		L55.228,46.661z M48.132,49.446l-20.729-5.153v-4.317l21.145-6.964l3.757,7.8L48.132,49.446z M59.122,46.522h-0.141l-2.782-5.851
		l2.782-5.851h0.141V46.522z"/>
	<path fill="#2E73B8" d="M65.938,31.479c1.533,0,2.783-1.254,2.783-2.786V18.524c0-1.532-1.25-2.786-2.783-2.786H55.785
		c-0.696,0-1.255,0.278-1.67,0.558l-6.259-4.736V2.787C47.854,1.253,46.603,0,45.073,0H34.917c-1.529,0-2.782,1.253-2.782,2.787
		v10.168c0,0.417,0.139,0.835,0.278,1.253l-9.46,11.281H4.173C1.807,25.489,0,27.3,0,29.668V48.75c0,2.368,1.807,4.179,4.173,4.179
		h19.059c0.418,0,0.694,0,1.112-0.14l7.929,8.219c0,0.139,0,0.418,0,0.557v10.169c0,1.531,1.252,2.786,2.782,2.786h10.156
		c1.53,0,2.782-1.255,2.782-2.786v-8.915c2.088-1.671,4.313-3.203,6.26-4.734c0.417,0.417,1.112,0.696,1.809,0.696h10.156
		c1.529,0,2.782-1.256,2.782-2.787V45.964c0-1.531-1.253-2.783-2.782-2.783h-3.339V31.618h3.059V31.479z M54.253,33.289
		l-2.363-4.875L53,27.996v0.697c0,1.253,0.976,2.368,2.089,2.646L54.253,33.289z M46.741,59.476
		c-0.279-0.279-0.694-0.419-0.975-0.419l4.313-8.914l3.059,0.695v3.763C51.332,55.853,49.244,57.524,46.741,59.476z M35.612,15.879
		h6.26l5.148,10.584l-19.616,6.407v-3.203c0-1.114-0.417-2.089-1.112-2.786L35.612,15.879z M53,19.918v4.458l-2.64,0.836
		l-4.592-9.472c0.417-0.14,0.695-0.278,1.113-0.558L53,19.918z M27.403,48.89v-4.318l19.197,4.735l-4.729,9.612h-6.957l0,0
		l-7.93-8.219C27.266,50.142,27.403,49.446,27.403,48.89z M55.228,43.179c-1.253,0.279-2.089,1.393-2.089,2.647v1.391l-1.529-0.418
		l2.644-5.571L55.228,43.179z M48.132,45.962l-20.729-5.011v-4.319l21.145-6.964l3.757,7.8L48.132,45.962z M59.122,43.179h-0.141
		l-2.782-5.85l2.782-5.85h0.141V43.179z"/>
	<g>
		<path fill="#FFFFFF" d="M42.012,43.875c0,3.063-2.505,5.571-5.563,5.571H11.407c-3.061,0-5.565-2.508-5.565-5.571v-8.356
			c0-3.065,2.504-5.572,5.565-5.572h25.041c3.059,0,5.563,2.507,5.563,5.572V43.875z"/>
		<path fill="#19486F" d="M36.448,50.142H11.407c-3.479,0-6.261-2.784-6.261-6.267v-8.358c0-3.483,2.782-6.268,6.261-6.268h25.041
			c3.475,0,6.26,2.785,6.26,6.268v8.358C42.708,47.358,39.923,50.142,36.448,50.142z M11.407,30.642c-2.644,0-4.87,2.229-4.87,4.876
			v8.356c0,2.647,2.226,4.876,4.87,4.876h25.041c2.64,0,4.868-2.229,4.868-4.876v-8.356c0-2.647-2.228-4.876-4.868-4.876H11.407z"/>
	</g>
	<g>
		<path fill="#2E73B8" d="M15.302,33.708h4.034c3.338,0,4.034,2.368,4.034,5.849c0,4.318-0.974,6.27-4.173,6.27h-3.896V33.708
			L15.302,33.708z M17.667,43.875h1.113c1.668,0,2.086-1.114,2.086-4.318c0-2.786-0.278-4.178-2.086-4.178h-1.113V43.875z"/>
		<path fill="#2E73B8" d="M30.047,37.747c0-1.81-0.417-2.508-1.391-2.508c-1.253,0-1.53,1.254-1.53,4.598
			c0,3.621,0.557,4.317,1.53,4.317c0.835,0,1.531-0.418,1.531-3.066h2.365c0,2.648-0.695,4.876-3.896,4.876
			c-3.617,0-4.034-2.645-4.034-6.268c0-3.621,0.417-6.267,4.034-6.267c3.478,0,3.756,2.508,3.756,4.317H30.047z"/>
	</g>
</g>
</svg>
