<?xml version="1.0" encoding="utf-8"?>
<!-- Generator: Adobe Illustrator 16.0.0, SVG Export Plug-In . SVG Version: 6.00 Build 0)  -->
<!DOCTYPE svg PUBLIC "-//W3C//DTD SVG 1.1//EN" "http://www.w3.org/Graphics/SVG/1.1/DTD/svg11.dtd">
<svg version="1.1" id="图层_1" xmlns="http://www.w3.org/2000/svg" xmlns:xlink="http://www.w3.org/1999/xlink" x="0px" y="0px"
	 width="67px" height="75px" viewBox="0 0 67 75" enable-background="new 0 0 67 75" xml:space="preserve">
<g id="Layer_1">
	<polygon fill="#99BCE3" points="59.147,43.854 44.074,43.02 44.074,43.02 44.074,42.708 44.074,42.708 22.926,42.708 
		22.926,42.708 22.926,43.02 22.926,43.02 7.851,43.854 0,46.249 7.851,55.521 22.926,57.291 22.926,57.291 44.074,57.291 
		44.074,57.291 59.147,55.521 67,46.249 	"/>
	<polygon fill="#19486F" points="59.147,31.145 44.074,31.979 44.074,31.979 44.074,32.396 44.074,32.396 22.926,32.396 
		22.926,32.396 22.926,31.979 22.926,31.979 7.851,31.145 0,28.75 7.851,19.479 22.926,17.812 22.926,17.812 44.074,17.812 
		44.074,17.812 59.147,19.479 67,28.75 	"/>
	<polygon fill="#2E73B8" points="67,28.75 58.624,25 50.146,16.146 58.624,7.396 67,16.458 	"/>
	<polygon fill="#2E73B8" points="67,46.249 58.624,50.001 47.53,60.417 58.624,67.604 67,58.541 	"/>
	<polygon fill="#5294CF" points="43.968,21.979 26.695,10.938 43.968,0 58.624,7.396 58.624,25 	"/>
	<polygon fill="#5294CF" points="43.968,53.124 29.208,64.063 43.968,75 58.624,67.604 58.624,50.001 	"/>
	<polygon fill="#5294CF" points="51.298,47.084 40.829,48.957 30.465,37.5 40.829,25.937 51.298,27.396 	"/>
	<polygon fill="#2E73B8" points="43.968,21.979 43.968,0 23.032,0 11.096,14.688 23.032,21.979 	"/>
	<polygon fill="#2E73B8" points="43.968,53.124 43.968,75 23.032,75 11.096,59.999 23.032,53.124 	"/>
	<polygon fill="#2E73B8" points="40.829,48.957 26.171,48.957 17.273,37.5 26.171,25.937 40.829,25.937 	"/>
	<polygon fill="#205B99" points="23.032,21.979 23.032,0 8.375,7.396 2.407,20.625 8.375,25 	"/>
	<polygon fill="#205B99" points="23.032,53.124 23.032,75 8.375,67.604 1.884,53.124 8.375,50.001 	"/>
	<polygon fill="#205B99" points="15.702,47.084 26.171,48.957 26.171,25.937 15.702,27.396 	"/>
	<polygon fill="#19486F" points="0,28.75 8.375,25 8.375,7.396 0,16.458 	"/>
	<polygon fill="#19486F" points="0,46.249 8.375,50.001 8.375,67.604 0,58.541 	"/>
</g>
</svg>
