<?xml version="1.0" encoding="utf-8"?>
<!-- Generator: Adobe Illustrator 16.0.0, SVG Export Plug-In . SVG Version: 6.00 Build 0)  -->
<!DOCTYPE svg PUBLIC "-//W3C//DTD SVG 1.1//EN" "http://www.w3.org/Graphics/SVG/1.1/DTD/svg11.dtd">
<svg version="1.1" id="图层_1" xmlns="http://www.w3.org/2000/svg" xmlns:xlink="http://www.w3.org/1999/xlink" x="0px" y="0px"
	 width="75px" height="73px" viewBox="0 0 75 73" enable-background="new 0 0 75 73" xml:space="preserve">
<g id="Layer_1">
	<polygon fill="#19486F" points="11.874,14.874 0,14.874 0,11.875 5.997,3 11.874,11.875 	"/>
	<polygon fill="#19486F" points="28.754,14.874 16.873,14.874 16.873,11.875 22.877,3 28.754,11.875 	"/>
	<polygon fill="#19486F" points="75,14.874 33.751,14.874 33.751,11.875 54.379,3 75,11.875 	"/>
	<polygon fill="#19486F" points="11.874,34.251 0,34.251 0,31.252 5.997,22.378 11.874,31.252 	"/>
	<polygon fill="#19486F" points="28.754,34.251 16.873,34.251 16.873,31.252 22.877,22.378 28.754,31.252 	"/>
	<polygon fill="#19486F" points="75,34.251 33.751,34.251 33.751,31.252 54.379,22.378 75,31.252 	"/>
	<polygon fill="#19486F" points="11.874,53.623 0,53.623 0,50.624 5.997,41.755 11.874,50.624 	"/>
	<polygon fill="#19486F" points="28.754,53.623 16.873,53.623 16.873,50.624 22.877,41.755 28.754,50.624 	"/>
	<polygon fill="#19486F" points="75,53.623 33.751,53.623 33.751,50.624 54.379,41.755 75,50.624 	"/>
	<polygon fill="#19486F" points="11.874,73 0,73 0,70.002 5.997,61.121 11.874,70.002 	"/>
	<polygon fill="#19486F" points="28.754,73 16.873,73 16.873,70.002 22.877,61.121 28.754,70.002 	"/>
	<polygon fill="#19486F" points="75,73 33.751,73 33.751,70.002 54.379,61.121 75,70.002 	"/>
	<rect fill="#2E73B8" width="11.874" height="11.875"/>
	<rect y="19.379" fill="#2E73B8" width="11.874" height="11.873"/>
	<rect y="38.757" fill="#2E73B8" width="11.874" height="11.866"/>
	<rect y="58.122" fill="#2E73B8" width="11.874" height="11.88"/>
	<rect x="33.751" fill="#2E73B8" width="41.249" height="11.875"/>
	<rect x="33.751" y="19.379" fill="#2E73B8" width="41.249" height="11.873"/>
	<rect x="33.751" y="38.757" fill="#2E73B8" width="41.249" height="11.866"/>
	<rect x="33.751" y="58.122" fill="#2E73B8" width="41.249" height="11.88"/>
	<rect x="16.873" fill="#2E73B8" width="11.881" height="11.875"/>
	<rect x="16.873" y="19.379" fill="#2E73B8" width="11.881" height="11.873"/>
	<rect x="16.873" y="38.757" fill="#2E73B8" width="11.881" height="11.866"/>
	<rect x="16.873" y="58.122" fill="#2E73B8" width="11.881" height="11.88"/>
</g>
</svg>
