<?xml version="1.0" encoding="utf-8"?>
<!-- Generator: Adobe Illustrator 16.0.0, SVG Export Plug-In . SVG Version: 6.00 Build 0)  -->
<!DOCTYPE svg PUBLIC "-//W3C//DTD SVG 1.1//EN" "http://www.w3.org/Graphics/SVG/1.1/DTD/svg11.dtd">
<svg version="1.1" id="图层_1" xmlns="http://www.w3.org/2000/svg" xmlns:xlink="http://www.w3.org/1999/xlink" x="0px" y="0px"
	 width="69px" height="78px" viewBox="0 0 69 78" enable-background="new 0 0 69 78" xml:space="preserve">
<g id="Layer_1">
	<path fill="#19486F" d="M65.938,34.961c1.532,0,2.784-1.253,2.784-2.786V22.008c0-1.534-1.252-2.787-2.784-2.787H55.784
		c-0.694,0-1.252,0.279-1.668,0.558l-6.261-4.736V6.268c0-1.531-1.252-2.785-2.781-2.785H34.918c-1.529,0-2.782,1.253-2.782,2.785
		v10.168c0,0.418,0.139,0.836,0.278,1.254l-9.46,11.283H4.173C1.808,28.973,0,30.783,0,33.151v19.083
		c0,2.367,1.808,4.179,4.173,4.179h19.059c0.418,0,0.695,0,1.113-0.139l7.929,8.216c0,0.141,0,0.418,0,0.558v10.168
		c0,1.532,1.252,2.784,2.782,2.784h10.156c1.531,0,2.781-1.252,2.781-2.784v-8.915c2.089-1.67,4.313-3.205,6.261-4.738
		c0.417,0.419,1.112,0.699,1.81,0.699h10.153c1.531,0,2.783-1.254,2.783-2.786V49.307c0-1.532-1.252-2.784-2.783-2.784h-3.339
		V34.961H65.938z M54.254,36.771l-2.364-4.875l1.112-0.418v0.696c0,1.254,0.974,2.368,2.088,2.646L54.254,36.771z M46.743,62.818
		c-0.28-0.279-0.696-0.419-0.976-0.419l4.313-8.913l3.06,0.696v3.761C51.333,59.337,49.247,60.868,46.743,62.818z M35.615,19.361
		h6.258l5.146,10.586l-19.615,6.408V33.15c0-1.114-0.417-2.089-1.112-2.785L35.615,19.361z M53.002,23.4v4.458l-2.643,0.835
		l-4.592-9.472c0.417-0.138,0.695-0.278,1.113-0.557L53.002,23.4z M27.404,52.234v-4.319l19.197,4.735l-4.729,9.612h-6.957l0,0
		l-7.93-8.218C27.267,53.486,27.404,52.929,27.404,52.234z M55.229,46.661c-1.253,0.277-2.088,1.394-2.088,2.646V50.7l-1.531-0.417
		l2.644-5.571L55.229,46.661z M48.133,49.446l-20.729-5.152v-4.318l21.145-6.963l3.758,7.8L48.133,49.446z M59.124,46.522h-0.139
		l-2.784-5.851l2.784-5.851h0.139V46.522z"/>
	<path fill="#2E73B8" d="M65.938,31.479c1.532,0,2.784-1.254,2.784-2.786V18.524c0-1.532-1.252-2.785-2.784-2.785H55.784
		c-0.694,0-1.252,0.278-1.668,0.558l-6.261-4.736V2.787C47.855,1.254,46.604,0,45.072,0H34.917c-1.529,0-2.782,1.254-2.782,2.787
		v10.168c0,0.418,0.139,0.836,0.278,1.254l-9.46,11.281H4.173C1.808,25.49,0,27.301,0,29.669v19.082c0,2.367,1.808,4.18,4.173,4.18
		h19.059c0.418,0,0.695,0,1.113-0.141l7.929,8.219c0,0.139,0,0.417,0,0.556v10.169c0,1.531,1.252,2.786,2.782,2.786h10.156
		c1.531,0,2.781-1.255,2.781-2.786v-8.915c2.089-1.671,4.313-3.203,6.261-4.734c0.417,0.416,1.112,0.696,1.81,0.696h10.153
		c1.531,0,2.783-1.256,2.783-2.787V45.962c0-1.531-1.252-2.783-2.783-2.783h-3.339V31.618h3.061V31.479L65.938,31.479z
		 M54.254,33.289l-2.364-4.875l1.112-0.418v0.696c0,1.254,0.974,2.368,2.088,2.647L54.254,33.289z M46.743,59.476
		c-0.28-0.279-0.696-0.418-0.976-0.418l4.313-8.914l3.06,0.697v3.76C51.333,55.853,49.247,57.524,46.743,59.476z M35.615,15.879
		h6.258l5.146,10.586l-19.615,6.407v-3.204c0-1.113-0.417-2.089-1.112-2.785L35.615,15.879z M53.002,19.918v4.458l-2.643,0.836
		l-4.592-9.472c0.417-0.14,0.695-0.278,1.113-0.558L53.002,19.918z M27.404,48.89v-4.318l19.197,4.736l-4.729,9.611h-6.957l0,0
		l-7.93-8.218C27.267,50.143,27.404,49.446,27.404,48.89z M55.229,43.181c-1.253,0.278-2.088,1.391-2.088,2.646v1.393l-1.531-0.42
		l2.644-5.571L55.229,43.181z M48.133,45.962l-20.728-5.011v-4.318l21.146-6.965l3.755,7.8L48.133,45.962z M59.124,43.181h-0.139
		l-2.784-5.851l2.784-5.85h0.139V43.181z"/>
	<g>
		<path fill="#FFFFFF" d="M42.014,44.154c0,3.064-2.504,5.571-5.564,5.571H11.407c-3.061,0-5.565-2.507-5.565-5.571v-8.357
			c0-3.064,2.505-5.572,5.565-5.572h25.041c3.06,0,5.563,2.508,5.563,5.572v8.357H42.014z"/>
		<path fill="#19486F" d="M36.449,50.422H11.407c-3.479,0-6.261-2.788-6.261-6.268v-8.357c0-3.482,2.782-6.268,6.261-6.268h25.041
			c3.476,0,6.259,2.786,6.259,6.268v8.357C42.709,47.636,39.924,50.422,36.449,50.422z M11.407,30.921
			c-2.644,0-4.869,2.229-4.869,4.875v8.357c0,2.645,2.226,4.875,4.869,4.875h25.041c2.641,0,4.869-2.231,4.869-4.875v-8.357
			c0-2.647-2.229-4.875-4.869-4.875H11.407z"/>
	</g>
	<g>
		<path fill="#2E73B8" d="M15.302,33.986h4.034c3.339,0,4.035,2.369,4.035,5.851c0,4.317-0.974,6.266-4.173,6.266h-3.896V33.986
			L15.302,33.986z M17.807,44.294h1.112c1.669,0,2.087-1.113,2.087-4.318c0-2.786-0.278-4.179-2.087-4.179h-0.974v8.497H17.807
			L17.807,44.294z"/>
		<path fill="#2E73B8" d="M26.849,42.344v0.416c0,1.115,0.278,1.812,1.67,1.812c0.694,0,1.39-0.417,1.39-1.533
			s-0.556-1.531-2.226-2.088c-2.227-0.699-3.2-1.673-3.2-3.623c0-2.368,1.391-3.481,3.756-3.481c2.227,0,3.756,0.975,3.756,3.203
			v0.278h-2.365c0-1.114-0.417-1.811-1.252-1.811c-1.112,0-1.391,0.697-1.391,1.393c0,0.696,0.279,1.254,1.252,1.671l1.809,0.835
			c1.809,0.834,2.226,1.67,2.226,3.204c0,2.505-1.53,3.762-4.173,3.762c-2.783,0-3.896-1.257-3.896-3.484v-0.556h2.645V42.344z"/>
	</g>
</g>
</svg>
