<?xml version="1.0" encoding="utf-8"?>
<!-- Generator: Adobe Illustrator 16.0.0, SVG Export Plug-In . SVG Version: 6.00 Build 0)  -->
<!DOCTYPE svg PUBLIC "-//W3C//DTD SVG 1.1//EN" "http://www.w3.org/Graphics/SVG/1.1/DTD/svg11.dtd">
<svg version="1.1" id="图层_1" xmlns="http://www.w3.org/2000/svg" xmlns:xlink="http://www.w3.org/1999/xlink" x="0px" y="0px"
	 width="75px" height="75px" viewBox="0 0 75 75" enable-background="new 0 0 75 75" xml:space="preserve">
<g id="Layer_1">
	<path fill="#19486F" d="M61.057,75H13.944C7.175,75,1.625,69.448,1.625,62.68V15.704c0-6.769,5.55-12.32,12.319-12.32h47.112
		c6.769,0,12.318,5.551,12.318,12.32v47.112C73.375,69.585,67.825,75,61.057,75z"/>
	<path fill="#2E73B8" d="M61.057,71.75H13.944c-6.769,0-12.319-5.55-12.319-12.318V12.319C1.625,5.551,7.175,0,13.944,0h47.112
		c6.769,0,12.318,5.551,12.318,12.319v47.112C73.375,66.2,67.825,71.75,61.057,71.75z"/>
	<g>
		<path fill="#FFFFFF" d="M13.403,7.582c4.196,0,4.738,2.979,4.738,7.31c0,4.333-0.542,7.311-4.738,7.311
			c-4.197,0-4.738-2.979-4.738-7.311C8.665,10.56,9.206,7.582,13.403,7.582z M13.403,20.036c1.625,0,1.896-1.489,1.896-5.145
			c0-3.791-0.271-5.144-1.896-5.144s-1.896,1.489-1.896,5.144C11.507,18.547,11.778,20.036,13.403,20.036z"/>
		<path fill="#FFFFFF" d="M19.359,7.853h5.28c2.302,0,3.79,1.218,3.79,3.655c0,1.896-0.812,3.114-2.301,3.52l0,0
			c1.895,0.271,2.166,1.354,2.301,4.332c0,1.489,0.136,2.301,0.677,2.572v0.135h-3.114c-0.271-0.406-0.271-0.948-0.406-1.489
			l-0.135-2.708c0-1.083-0.542-1.76-1.625-1.76h-1.489v5.957h-2.842V7.853H19.359z M22.203,13.944h1.218
			c1.354,0,2.166-0.542,2.166-2.166c0-1.354-0.677-1.896-1.896-1.896h-1.354v4.062H22.203z"/>
		<path fill="#FFFFFF" d="M32.897,7.853h3.52l3.655,13.943h-2.978l-0.677-2.978h-3.791l-0.677,2.978h-2.978L32.897,7.853z
			 M33.303,16.517h2.708l-1.354-6.363l0,0L33.303,16.517z"/>
		<path fill="#FFFFFF" d="M46.435,12.59c0-2.03-0.406-2.979-1.624-2.979c-1.489,0-1.761,1.489-1.761,5.416
			c0,4.197,0.542,5.009,1.761,5.009c1.083,0,1.76-0.541,1.76-3.52h2.843c0,2.979-0.812,5.686-4.468,5.686
			c-4.195,0-4.737-2.979-4.737-7.311c0-4.332,0.542-7.31,4.737-7.31c4.062,0,4.333,2.979,4.333,5.009H46.435z"/>
		<path fill="#FFFFFF" d="M50.361,21.796V7.853h2.842v11.643h5.01v2.301H50.361z"/>
		<path fill="#FFFFFF" d="M66.877,7.853v2.301h-5.009v3.25h4.738v2.301h-4.738v3.791h5.144v2.301h-7.986V7.853H66.877z"/>
	</g>
</g>
</svg>
