<?xml version="1.0" encoding="utf-8"?>
<!-- Generator: Adobe Illustrator 16.0.0, SVG Export Plug-In . SVG Version: 6.00 Build 0)  -->
<!DOCTYPE svg PUBLIC "-//W3C//DTD SVG 1.1//EN" "http://www.w3.org/Graphics/SVG/1.1/DTD/svg11.dtd">
<svg version="1.1" id="图层_1" xmlns="http://www.w3.org/2000/svg" xmlns:xlink="http://www.w3.org/1999/xlink" x="0px" y="0px"
	 width="75px" height="75px" viewBox="0 0 75 75" enable-background="new 0 0 75 75" xml:space="preserve">
<g id="Layer_1">
	<path fill="#19486F" d="M14.362,2.926h46.277c6.648,0,12.101,5.452,12.101,12.101v2.925v17.42
		c-2.394-1.196-7.58-2.526-15.425-2.526c-3.458,0-6.384,0.266-8.91,0.665c-5.187,0.931-7.979,2.393-7.979,3.324v34.574
		c0,0.532,0.797,1.33,2.261,2.127h-2.261H14.362c-6.649,0-12.101-5.451-12.101-12.101V17.952v-2.925
		C2.261,8.378,7.713,2.926,14.362,2.926z"/>
	<path fill="#2E73B8" d="M14.362,0h46.277c6.648,0,12.101,5.452,12.101,12.101v2.926v17.42c-2.394-1.197-7.58-2.527-15.425-2.527
		c-3.458,0-6.384,0.266-8.91,0.665c-5.187,0.931-7.979,2.394-7.979,3.324v34.574c0,0.532,0.797,1.33,2.261,2.129h-2.261H14.362
		c-6.649,0-12.101-5.453-12.101-12.103V15.027v-2.926C2.261,5.452,7.713,0,14.362,0z"/>
	<path fill="#19486F" d="M58.51,39.229c-2.926,0-5.451,0.267-7.445,0.532c-2.527,0.398-6.649-0.532-6.649-0.532s0,3.059,0,3.324
		c0,0.799,2.261,1.995,6.649,2.794c1.994,0.398,4.52,0.53,7.445,0.53c9.177,0,14.229-2.127,14.229-3.324c0-0.398,0-3.324,0-3.324
		S65.026,39.229,58.51,39.229z"/>
	<path fill="#19486F" d="M44.148,48.936v22.74c0,1.195,3.99,3.324,13.431,3.324c5.187,0,9.176-0.665,11.703-1.33
		c1.861-0.665,3.19-1.329,3.324-1.862V49.202c-2.793,1.729-8.511,2.659-14.097,2.659h-0.398c-0.532,0-1.197,0-1.729,0h-0.266
		c-0.533,0-0.932,0-1.463-0.133c-0.266,0-0.532,0-0.664,0c-0.4,0-0.799,0-1.065-0.134c-0.265,0-0.398,0-0.665-0.132
		c-0.398,0-0.797-0.133-1.195-0.133C48.006,50.798,45.611,50,44.148,48.936z"/>
	<path fill="#2E73B8" d="M58.51,35.904c-2.926,0-5.451,0.267-7.445,0.533c-4.389,0.665-6.649,1.994-6.649,2.792
		c0,0.799,2.261,1.994,6.649,2.793c1.994,0.399,4.52,0.531,7.445,0.531c9.177,0,14.229-2.127,14.229-3.324
		C72.739,38.032,67.687,35.904,58.51,35.904z"/>
	<path fill="#2E73B8" d="M44.148,45.611v22.74c0,1.195,3.99,3.324,13.431,3.324c5.187,0,9.176-0.665,11.703-1.33
		c1.861-0.665,3.19-1.33,3.324-1.862V45.877c-2.793,1.729-8.511,2.66-14.097,2.66h-0.398c-0.532,0-1.197,0-1.729,0h-0.266
		c-0.533,0-0.932,0-1.463-0.133c-0.266,0-0.532,0-0.664,0c-0.4,0-0.799,0-1.065-0.134c-0.265,0-0.398,0-0.665-0.132
		c-0.398,0-0.797-0.133-1.195-0.133C48.006,47.474,45.611,46.676,44.148,45.611z"/>
	<path fill="#19486F" d="M14.362,70.479h28.325v2.926H14.362c-6.649,0-12.101-5.452-12.101-12.101v-2.926
		C2.261,65.026,7.713,70.479,14.362,70.479z"/>
	<g>
		<path fill="#FFFFFF" d="M12.633,8.378h4.123l1.995,9.707l0,0l1.995-9.707h4.123v13.696h-2.526V11.038l0,0l-2.394,11.037h-2.394
			L15.16,11.038l0,0v11.037h-2.527V8.378z"/>
		<path fill="#FFFFFF" d="M26.33,23.537c0.266,0,0.398,0,0.665,0c0.93,0,1.33-0.532,1.463-1.463l-2.926-10.372h2.659l1.596,7.181
			l0,0l1.33-7.181h2.66L31.25,21.41c-0.931,3.59-1.462,4.123-3.99,4.123h-1.063v-1.995H26.33z"/>
		<path fill="#FFFFFF" d="M38.165,17.819v0.399c0,1.33,0.398,2.128,1.862,2.128c0.797,0,1.595-0.532,1.595-1.729
			c0-1.196-0.665-1.728-2.526-2.393c-2.527-0.798-3.59-1.862-3.59-4.123c0-2.66,1.596-3.989,4.255-3.989
			c2.526,0,4.256,1.064,4.256,3.724v0.399h-2.66c0-1.33-0.399-1.995-1.463-1.995c-1.196,0-1.597,0.798-1.597,1.596
			c0,0.797,0.267,1.33,1.464,1.862l2.127,0.93c2.129,0.931,2.66,1.995,2.66,3.591c0,2.926-1.729,4.255-4.787,4.255
			c-3.192,0-4.389-1.463-4.389-3.989v-0.532h2.793V17.819z"/>
		<path fill="#FFFFFF" d="M53.325,23.804l-1.597-1.729c-0.266,0.133-0.532,0.133-0.798,0.267c-0.266,0-0.665,0-0.931,0
			c-4.123,0-4.653-2.926-4.653-7.181c0-4.256,0.53-7.182,4.653-7.182c4.122,0,4.654,2.926,4.654,7.182
			c0,2.393-0.134,4.255-1.064,5.584l1.464,1.463L53.325,23.804z M49.866,20.346c1.597,0,1.862-1.463,1.862-5.054
			c0-3.723-0.266-5.053-1.862-5.053c-1.596,0-1.86,1.463-1.86,5.053C48.006,18.883,48.271,20.346,49.866,20.346z"/>
		<path fill="#FFFFFF" d="M55.718,22.074V8.378h2.792v11.437h4.921v2.26H55.718z"/>
	</g>
	<g>
		<path fill="#FFFFFF" d="M50.798,50.798h4.388l3.059,12.899l0,0l3.06-12.899h4.254v17.42h-2.659V53.856l0,0l-3.457,14.495h-2.394
			L53.59,53.856l0,0v14.495h-2.659V50.798H50.798z"/>
	</g>
</g>
</svg>
