<?xml version="1.0" encoding="utf-8"?>
<!-- Generator: Adobe Illustrator 16.0.0, SVG Export Plug-In . SVG Version: 6.00 Build 0)  -->
<!DOCTYPE svg PUBLIC "-//W3C//DTD SVG 1.1//EN" "http://www.w3.org/Graphics/SVG/1.1/DTD/svg11.dtd">
<svg version="1.1" id="图层_1" xmlns="http://www.w3.org/2000/svg" xmlns:xlink="http://www.w3.org/1999/xlink" x="0px" y="0px"
	 width="75px" height="75px" viewBox="0 0 75 75" enable-background="new 0 0 75 75" xml:space="preserve">
<g id="Layer_1">
	<path fill="#19486F" d="M14.362,2.926h46.277c6.648,0,12.101,5.452,12.101,12.101v2.925v17.42
		c-2.394-1.196-7.58-2.526-15.425-2.526c-3.458,0-6.384,0.266-8.91,0.665c-5.187,0.931-7.979,2.393-7.979,3.324v34.574
		c0,0.532,0.797,1.33,2.261,2.127h-2.261H14.362c-6.649,0-12.101-5.451-12.101-12.101V17.952v-2.925
		C2.261,8.378,7.713,2.926,14.362,2.926z"/>
	<path fill="#2E73B8" d="M14.362,0h46.277c6.648,0,12.101,5.452,12.101,12.101v2.926v17.42c-2.394-1.197-7.58-2.527-15.425-2.527
		c-3.458,0-6.384,0.266-8.91,0.665c-5.187,0.931-7.979,2.394-7.979,3.324v34.574c0,0.532,0.797,1.33,2.261,2.129h-2.261H14.362
		c-6.649,0-12.101-5.453-12.101-12.103V15.027v-2.926C2.261,5.452,7.713,0,14.362,0z"/>
	<path fill="#19486F" d="M58.51,39.229c-2.926,0-5.451,0.267-7.445,0.532c-2.527,0.398-6.649-0.532-6.649-0.532s0,3.059,0,3.324
		c0,0.799,2.261,1.995,6.649,2.794c1.994,0.398,4.52,0.53,7.445,0.53c9.177,0,14.229-2.127,14.229-3.324c0-0.398,0-3.324,0-3.324
		S65.026,39.229,58.51,39.229z"/>
	<path fill="#19486F" d="M44.148,48.936v22.74c0,1.195,3.99,3.324,13.431,3.324c5.187,0,9.176-0.665,11.703-1.33
		c1.861-0.665,3.19-1.329,3.324-1.862V49.202c-2.793,1.729-8.511,2.659-14.097,2.659h-0.398c-0.532,0-1.197,0-1.729,0h-0.266
		c-0.533,0-0.932,0-1.463-0.133c-0.266,0-0.532,0-0.664,0c-0.4,0-0.799,0-1.065-0.134c-0.265,0-0.398,0-0.665-0.132
		c-0.398,0-0.797-0.133-1.195-0.133C48.006,50.798,45.611,50,44.148,48.936z"/>
	<path fill="#2E73B8" d="M58.51,35.904c-2.926,0-5.451,0.267-7.445,0.533c-4.389,0.665-6.649,1.994-6.649,2.792
		c0,0.799,2.261,1.994,6.649,2.793c1.994,0.399,4.52,0.531,7.445,0.531c9.177,0,14.229-2.127,14.229-3.324
		C72.739,38.032,67.687,35.904,58.51,35.904z"/>
	<path fill="#2E73B8" d="M44.148,45.611v22.74c0,1.195,3.99,3.324,13.431,3.324c5.187,0,9.176-0.665,11.703-1.33
		c1.861-0.665,3.19-1.33,3.324-1.862V45.877c-2.793,1.729-8.511,2.66-14.097,2.66h-0.398c-0.532,0-1.197,0-1.729,0h-0.266
		c-0.533,0-0.932,0-1.463-0.133c-0.266,0-0.532,0-0.664,0c-0.4,0-0.799,0-1.065-0.134c-0.265,0-0.398,0-0.665-0.132
		c-0.398,0-0.797-0.133-1.195-0.133C48.006,47.474,45.611,46.676,44.148,45.611z"/>
	<path fill="#19486F" d="M14.362,70.479h28.325v2.926H14.362c-6.649,0-12.101-5.452-12.101-12.101v-2.926
		C2.261,65.026,7.713,70.479,14.362,70.479z"/>
	<g>
		<path fill="#FFFFFF" d="M50.798,50.798h4.388l3.059,12.899l0,0l3.06-12.899h4.254v17.42h-2.659V53.724l0,0l-3.457,14.494h-2.394
			L53.59,53.724l0,0v14.494h-2.659v-17.42H50.798z"/>
	</g>
</g>
</svg>
