<?xml version="1.0" encoding="utf-8"?>
<!-- Generator: Adobe Illustrator 16.0.0, SVG Export Plug-In . SVG Version: 6.00 Build 0)  -->
<!DOCTYPE svg PUBLIC "-//W3C//DTD SVG 1.1//EN" "http://www.w3.org/Graphics/SVG/1.1/DTD/svg11.dtd">
<svg version="1.1" id="图层_1" xmlns="http://www.w3.org/2000/svg" xmlns:xlink="http://www.w3.org/1999/xlink" x="0px" y="0px"
	 width="75px" height="75px" viewBox="0 0 75 75" enable-background="new 0 0 75 75" xml:space="preserve">
<g id="Layer_1">
	<path fill="#19486F" d="M61.057,75H13.944C7.175,75,1.625,69.448,1.625,62.68V15.704c0-6.769,5.55-12.32,12.319-12.32h47.112
		c6.769,0,12.318,5.551,12.318,12.32v47.112C73.375,69.585,67.825,75,61.057,75z"/>
	<path fill="#2E73B8" d="M61.057,71.75H13.944c-6.769,0-12.319-5.55-12.319-12.318V12.319C1.625,5.551,7.175,0,13.944,0h47.112
		c6.769,0,12.318,5.551,12.318,12.319v47.112C73.375,66.2,67.825,71.75,61.057,71.75z"/>
	<polygon fill="#FFFFFF" points="63.222,22.608 63.222,17.193 56.453,17.193 56.453,10.424 51.038,10.424 51.038,17.193 
		48.33,17.193 48.33,10.424 42.915,10.424 42.915,17.193 40.208,17.193 40.208,10.424 34.792,10.424 34.792,17.193 32.085,17.193 
		32.085,10.424 26.67,10.424 26.67,17.193 23.962,17.193 23.962,10.424 18.547,10.424 18.547,17.193 11.778,17.193 11.778,22.608 
		18.547,22.608 18.547,25.316 11.778,25.316 11.778,30.731 18.547,30.731 18.547,33.438 11.778,33.438 11.778,38.854 18.547,38.854 
		18.547,41.562 11.778,41.562 11.778,46.977 18.547,46.977 18.547,49.684 11.778,49.684 11.778,55.1 18.547,55.1 18.547,61.868 
		23.962,61.868 23.962,55.1 26.67,55.1 26.67,61.868 32.085,61.868 32.085,55.1 34.792,55.1 34.792,61.868 40.208,61.868 
		40.208,55.1 42.915,55.1 42.915,61.868 48.33,61.868 48.33,55.1 51.038,55.1 51.038,61.868 56.453,61.868 56.453,55.1 63.222,55.1 
		63.222,49.684 56.453,49.684 56.453,46.977 63.222,46.977 63.222,41.562 56.453,41.562 56.453,38.854 63.222,38.854 63.222,33.438 
		56.453,33.438 56.453,30.731 63.222,30.731 63.222,25.316 56.453,25.316 56.453,22.608 	"/>
	<path fill="#2E73B8" d="M26.67,23.962h13.402c4.331,0,6.77,2.979,6.77,6.498c0,2.843-1.354,4.874-4.062,5.957v0.135
		c2.708,0.677,3.52,3.52,3.654,5.821c0.136,1.49,0.271,4.604,1.219,5.957h-5.28c-0.677-1.354-0.541-3.927-0.812-5.821
		c-0.406-2.572-1.354-3.655-4.062-3.655h-5.415v9.477H26.67V23.962z M32.085,34.792h6.092c2.302,0,3.655-1.083,3.655-3.384
		c0-2.302-1.219-3.385-3.655-3.385h-6.092V34.792z"/>
</g>
</svg>
