<?xml version="1.0" encoding="utf-8"?>
<!-- Generator: Adobe Illustrator 16.0.0, SVG Export Plug-In . SVG Version: 6.00 Build 0)  -->
<!DOCTYPE svg PUBLIC "-//W3C//DTD SVG 1.1//EN" "http://www.w3.org/Graphics/SVG/1.1/DTD/svg11.dtd">
<svg version="1.1" id="图层_1" xmlns="http://www.w3.org/2000/svg" xmlns:xlink="http://www.w3.org/1999/xlink" x="0px" y="0px"
	 width="512px" height="512px" viewBox="0 0 512 512" enable-background="new 0 0 512 512" xml:space="preserve">
<g>
	<path fill="#4BECBC" d="M256.565,506.46h-0.007c-58.536,0-115.108-4.02-155.197-11.033c-62.836-11.003-77.716-25.754-88.447-87.721
		c-14.29-82.492-14.071-222.439,0.476-305.596c10.973-62.798,25.731-77.678,87.706-88.447
		c39.326-6.831,92.874-10.602,150.776-10.602c58.415,0,114.866,4.013,154.856,11.011c62.814,10.995,77.687,25.754,88.447,87.721
		c14.313,82.507,14.116,222.484-0.438,305.656c-10.957,62.813-25.725,77.686-87.706,88.462
		C367.767,502.712,314.324,506.46,256.565,506.46 M251.873,18.538c-57.04,0-109.644,3.688-148.131,10.376
		c-55.438,9.627-65.262,19.557-75.101,75.857c-14.305,81.728-14.517,219.25-0.476,300.306c9.597,55.408,19.527,65.247,75.864,75.116
		c39.251,6.861,94.84,10.791,152.53,10.791h0.007c56.912,0,109.402-3.658,147.821-10.309c55.453-9.643,65.277-19.572,75.116-75.887
		c14.298-81.751,14.494-219.288,0.438-300.351c-9.643-55.43-19.572-65.262-75.872-75.116
		C364.91,22.467,309.427,18.538,251.873,18.538"/>
	<path fill="#4BECBC" d="M365.93,234.934c1.093,0,2.148,0.109,3.229,0.169c0.066-0.756,0.258-1.496,0.258-2.247v-41.002
		c0,29.624-53.916,53.611-120.457,53.611c-66.539,0-120.456-23.988-120.456-53.611v41.002c0.001,29.618,53.917,53.6,120.456,53.6
		c18.222,0,35.427-1.849,50.907-5.069C309.676,254.342,335.54,234.934,365.93,234.934"/>
	<path fill="#4BECBC" d="M248.961,342.155c6.685,0,13.201-0.299,19.593-0.767l27.393-27.393c0.07-0.071,0.114-0.125,0.18-0.18
		c-0.344-2.807-0.522-5.668-0.522-8.566c0-2.829,0.223-5.604,0.543-8.356c-14.49,2.753-30.433,4.271-47.186,4.271
		c-66.54,0-120.456-23.988-120.456-53.61v41.002C128.505,318.173,182.421,342.155,248.961,342.155"/>
	<path fill="#4BECBC" d="M128.505,177.156c0,29.618,53.916,53.6,120.456,53.6c66.539,0,120.455-23.982,120.455-53.6
		c0-29.634-53.916-53.622-120.455-53.622C182.421,123.534,128.505,147.522,128.505,177.156"/>
	<path fill="#4BECBC" d="M128.516,303.259L128.516,303.259v40.985c0,28.192,48.835,51.217,110.882,53.394
		c-1.534-13.446,0.805-27.894,7.577-34.683l6.195-6.188c-1.414,0.021-2.785,0.098-4.209,0.098
		C182.431,356.863,128.516,332.875,128.516,303.259"/>
	<path fill="#4BECBC" d="M413.442,297.635L413.442,297.635c0,0-19.076,19.2-21.029,21.158c-1.957,1.958-8.517,1.741-8.517,1.741
		s-17.407-1.958-19.926-4.46c-2.495-2.513-4.231-20.697-4.231-20.697s-0.472-5.081,2.029-7.594
		c2.508-2.502,21.109-21.099,21.109-21.099s2.399-2.688-1.06-2.698c-11.168-0.043-33.861,0.207-44.849,11.205l-2.263,2.252
		c-12.981,13.06-13.758,32.686-3.342,46.796l-64.28,58.152c-5.106,5.112-11.836,19.016,0,30.852
		c11.836,11.837,25.733,5.108,30.835,0c0,0,56.331-64.979,58.05-64.151l0.097-0.106c14.058,10.531,33.672,9.778,46.721-3.293
		l2.257-2.258c10.651-10.65,10.973-33.148,11.021-44.511C416.091,295.302,413.442,297.635,413.442,297.635 M284.197,406.661
		c-5.972,0-10.808-4.841-10.808-10.813s4.836-10.814,10.808-10.814s10.808,4.842,10.808,10.814S290.169,406.661,284.197,406.661"/>
	<path fill="#4BECBC" d="M92.057,158.009v41.002c0,10.784,7.154,20.819,19.456,29.223v-40.997
		C99.211,178.833,92.057,168.795,92.057,158.009"/>
	<path fill="#4BECBC" d="M92.057,213.708v41.002c0,10.784,7.154,20.819,19.456,29.223v-40.996
		C99.21,234.532,92.057,224.495,92.057,213.708"/>
	<path fill="#4BECBC" d="M92.068,269.414v40.985c0,10.783,7.15,20.808,19.445,29.201v-40.969
		C99.218,290.228,92.068,280.194,92.068,269.414"/>
	<path fill="#4BECBC" d="M320.102,119.168c-19.836-17.492-60.557-29.479-107.589-29.479c-66.54,0-120.456,23.988-120.456,53.622
		c0,10.743,7.099,20.743,19.316,29.128c-0.033-0.543-0.051-1.089-0.051-1.636c0-33.604,61.141-60.807,136.597-60.807
		C274.425,109.997,299.159,113.356,320.102,119.168"/>
</g>
</svg>
