<?xml version="1.0" encoding="utf-8"?>
<!-- Generator: Adobe Illustrator 16.0.0, SVG Export Plug-In . SVG Version: 6.00 Build 0)  -->
<!DOCTYPE svg PUBLIC "-//W3C//DTD SVG 1.1//EN" "http://www.w3.org/Graphics/SVG/1.1/DTD/svg11.dtd">
<svg version="1.1" id="图层_1" xmlns="http://www.w3.org/2000/svg" xmlns:xlink="http://www.w3.org/1999/xlink" x="0px" y="0px"
	 width="75px" height="75px" viewBox="0 0 75 75" enable-background="new 0 0 75 75" xml:space="preserve">
<g id="Layer_1">
	<path fill="#19486F" d="M61.057,75H13.944C7.175,75,1.625,69.448,1.625,62.68V15.704c0-6.769,5.55-12.32,12.319-12.32h47.112
		c6.769,0,12.318,5.551,12.318,12.32v47.112C73.375,69.585,67.825,75,61.057,75z"/>
	<path fill="#2E73B8" d="M61.057,71.75H13.944c-6.769,0-12.319-5.55-12.319-12.318V12.319C1.625,5.551,7.175,0,13.944,0h47.112
		c6.769,0,12.318,5.551,12.318,12.319v47.112C73.375,66.2,67.825,71.75,61.057,71.75z"/>
	<g>
		<path fill="#FFFFFF" d="M5.009,11.237h3.384c2.031,0,2.979,1.218,2.979,3.113c0,1.896-1.083,3.114-3.114,3.114H6.769v4.332h-1.76
			V11.237z M6.769,16.11h1.219c0.947,0,1.76-0.542,1.76-1.896c0-1.083-0.406-1.896-1.76-1.896H6.904v3.791H6.769z"/>
		<path fill="#FFFFFF" d="M15.163,13.673c2.302,0,2.979,1.76,2.979,4.197s-0.813,4.197-2.979,4.197s-2.979-1.76-2.979-4.197
			C12.184,15.298,12.726,13.673,15.163,13.673z M15.163,20.849c1.218,0,1.354-0.948,1.354-2.979c0-1.76-0.271-2.979-1.354-2.979
			c-1.218,0-1.354,1.219-1.354,2.979C13.673,19.901,13.944,20.849,15.163,20.849z"/>
		<path fill="#FFFFFF" d="M22.879,16.11v-0.271c0-0.677-0.271-1.218-1.083-1.218c-0.677,0-1.083,0.271-1.083,1.083
			c0,0.677,0.27,0.813,1.083,1.218l1.083,0.406c1.218,0.406,1.76,1.083,1.76,2.301c0,1.76-1.218,2.437-2.843,2.437
			c-2.031,0-2.572-0.948-2.572-2.437v-0.271h1.489v0.271c0,0.948,0.27,1.489,1.218,1.489c0.813,0,1.354-0.406,1.354-1.218
			c0-0.542-0.271-0.948-0.813-1.218l-1.354-0.407c-1.218-0.406-1.76-1.083-1.76-2.301c0-1.489,1.083-2.167,2.708-2.167
			c2.031,0,2.437,1.219,2.437,2.167v0.406h-1.624V16.11z"/>
		<path fill="#FFFFFF" d="M25.181,13.809h1.083v-2.301h1.625v2.301h1.354v1.219h-1.354v4.738c0,0.677,0.135,0.813,0.677,0.813
			c0.271,0,0.407,0,0.542,0v1.218c-0.406,0.136-0.812,0.136-1.354,0.136c-1.083,0-1.624-0.271-1.624-1.896v-5.009h-1.083v-1.219
			H25.181z"/>
		<path fill="#FFFFFF" d="M31.543,22.473c0,0.542,0.406,0.948,1.218,0.948s1.354-0.542,1.354-1.489v-1.354l0,0
			c-0.271,0.677-1.083,1.083-1.76,1.083c-1.896,0-2.438-1.896-2.438-4.062c0-1.76,0.271-4.062,2.572-4.062
			c0.948,0,1.625,0.677,1.76,1.219l0,0v-0.948h1.489v7.582c0,1.895-0.813,3.113-2.979,3.113c-2.437,0-2.708-1.354-2.708-2.031
			H31.543z M32.762,20.442c1.218,0,1.354-1.625,1.354-2.843c0-1.354-0.136-2.708-1.218-2.708c-1.218,0-1.354,1.219-1.354,2.708
			C31.408,18.953,31.543,20.442,32.762,20.442z"/>
		<path fill="#FFFFFF" d="M37.229,13.809h1.625v1.219l0,0c0.406-0.947,0.948-1.49,1.896-1.49c0.135,0,0.27,0,0.405,0v1.625
			c-0.136,0-0.405-0.135-0.677-0.135c-0.677,0-1.625,0.271-1.625,1.76v4.738h-1.625V13.809z"/>
		<path fill="#FFFFFF" d="M43.321,18.006v0.541c0,1.083,0.136,2.437,1.354,2.437c1.083,0,1.219-1.354,1.219-1.759h1.489
			c0,1.759-1.083,2.843-2.843,2.843c-1.354,0-2.979-0.406-2.979-4.061c0-2.167,0.405-4.333,2.979-4.333
			c2.302,0,2.843,1.354,2.843,3.52v0.813H43.321z M45.894,16.922v-0.406c0-0.948-0.271-1.76-1.219-1.76
			c-1.083,0-1.354,0.947-1.354,2.031v0.135H45.894z"/>
		<path fill="#FFFFFF" d="M50.361,18.547v0.271c0,1.354,0.542,1.896,1.759,1.896c1.083,0,1.625-0.813,1.625-1.489
			c0-1.083-0.542-1.625-1.488-1.896l-1.219-0.406c-1.489-0.542-2.166-1.354-2.166-2.978c0-1.895,1.354-2.979,3.248-2.979
			c2.708,0,2.979,1.76,2.979,2.843v0.271h-1.76v-0.271c0-0.948-0.406-1.489-1.49-1.489c-0.677,0-1.488,0.407-1.488,1.489
			c0,0.948,0.405,1.354,1.624,1.76l1.083,0.407c1.488,0.542,2.166,1.354,2.166,2.843c0,2.301-1.354,3.249-3.52,3.249
			c-2.573,0-3.25-1.76-3.25-3.249v-0.271H50.361z"/>
		<path fill="#FFFFFF" d="M61.733,21.661c-0.407,0.271-0.948,0.406-1.625,0.406c-2.437,0-3.521-1.76-3.521-5.55
			c0-3.791,1.084-5.551,3.521-5.551s3.52,1.76,3.52,5.551c0,2.03-0.406,3.384-0.812,4.197l1.082,1.083l-0.947,0.948L61.733,21.661z
			 M60.785,18.953l0.677,0.677c0.271-0.677,0.406-1.624,0.406-3.113c0-3.52-0.812-4.197-1.76-4.197s-1.76,0.677-1.76,4.197
			c0,3.655,0.812,4.332,1.76,4.332c0.271,0,0.406,0,0.677-0.135l-0.948-0.813L60.785,18.953z"/>
		<path fill="#FFFFFF" d="M65.117,11.237h1.76v9.206h4.062v1.489h-5.821V11.237z"/>
	</g>
</g>
</svg>
