<?xml version="1.0" encoding="utf-8"?>
<!-- Generator: Adobe Illustrator 16.0.0, SVG Export Plug-In . SVG Version: 6.00 Build 0)  -->
<!DOCTYPE svg PUBLIC "-//W3C//DTD SVG 1.1//EN" "http://www.w3.org/Graphics/SVG/1.1/DTD/svg11.dtd">
<svg version="1.1"
	 id="图层_1" xmlns:dc="http://purl.org/dc/elements/1.1/" xmlns:cc="http://creativecommons.org/ns#" xmlns:rdf="http://www.w3.org/1999/02/22-rdf-syntax-ns#"
	 xmlns="http://www.w3.org/2000/svg" xmlns:xlink="http://www.w3.org/1999/xlink" x="0px" y="0px" width="58px" height="76px"
	 viewBox="0 0 58 76" enable-background="new 0 0 58 76" xml:space="preserve">
<path fill="#00BCF2" d="M21.22,75.765c-6.77-0.901-12.765-2.901-16.799-5.605c-1.55-1.039-3.411-2.948-3.975-4.077L0,65.187v-27.6
	V9.988l0.429-0.817c1.939-3.691,8.506-6.844,17.38-8.341C22.051,0.114,23.693-0.006,29.038,0c5.265,0.01,7.196,0.163,11.241,0.908
	c8.873,1.631,15.433,4.88,17.249,8.546L58,10.41v27.761l-0.001,27.761l-0.425,0.896c-2.004,4.203-10.132,7.712-20.719,8.941
	c-2.673,0.31-13.292,0.308-15.636,0V75.765z M35.653,16.106c6.081-0.625,10.83-2.054,12.767-3.842
	c0.834-0.772,1.093-1.263,1.093-2.084c0-2.544-5.237-4.773-13.477-5.735c-2.757-0.321-10.684-0.369-13.328-0.078
	C15.438,5.161,10.351,6.83,8.845,8.913c-0.492,0.68-0.582,1.624-0.221,2.322c1.07,2.074,5.875,3.904,12.371,4.715
	C25.452,16.506,31.169,16.568,35.653,16.106L35.653,16.106z"/>
</svg>
