<?xml version="1.0" encoding="utf-8"?>
<!-- Generator: Adobe Illustrator 16.0.0, SVG Export Plug-In . SVG Version: 6.00 Build 0)  -->
<!DOCTYPE svg PUBLIC "-//W3C//DTD SVG 1.1//EN" "http://www.w3.org/Graphics/SVG/1.1/DTD/svg11.dtd">
<svg version="1.1" id="图层_1" xmlns="http://www.w3.org/2000/svg" xmlns:xlink="http://www.w3.org/1999/xlink" x="0px" y="0px"
	 width="70px" height="77px" viewBox="0 0 70 77" enable-background="new 0 0 70 77" xml:space="preserve">
<g id="Layer_1">
	<polygon fill="#5294CF" points="64.168,10.85 70,13.65 70,63.115 64.168,66.031 54.949,38.5 	"/>
	<polygon fill="#205B99" points="5.833,10.85 0,13.65 0,63.115 5.833,66.031 20.417,38.5 	"/>
	<polygon fill="#205B99" points="35,58.918 64.168,66.031 64.168,10.85 35,17.967 	"/>
	<polygon fill="#5294CF" points="35,58.918 5.833,66.031 5.833,10.85 35,17.967 	"/>
	<polygon fill="#5294CF" points="42,77 53.199,71.401 53.199,5.6 42,0 30.917,36.633 	"/>
	<polygon fill="#205B99" points="28.001,77 16.8,71.401 16.8,5.6 28.001,0 37.917,38.5 	"/>
	<rect x="28.001" fill="#2E73B8" width="13.999" height="77"/>
</g>
</svg>
