<?xml version="1.0" encoding="utf-8"?>
<!-- Generator: Adobe Illustrator 16.0.0, SVG Export Plug-In . SVG Version: 6.00 Build 0)  -->
<!DOCTYPE svg PUBLIC "-//W3C//DTD SVG 1.1//EN" "http://www.w3.org/Graphics/SVG/1.1/DTD/svg11.dtd">
<svg version="1.1" id="图层_1" xmlns="http://www.w3.org/2000/svg" xmlns:xlink="http://www.w3.org/1999/xlink" x="0px" y="0px"
	 width="75px" height="75px" viewBox="0 0 75 75" enable-background="new 0 0 75 75" xml:space="preserve">
<g id="Layer_1">
	<polygon fill="#19486F" points="33.649,21.831 1.541,21.831 1.541,18.75 17.591,9.632 33.649,18.75 	"/>
	<polygon fill="#19486F" points="73.459,21.831 41.359,21.831 41.359,18.75 57.409,9.632 73.459,18.75 	"/>
	<polygon fill="#19486F" points="33.649,48.547 1.541,48.547 1.541,45.334 17.591,36.341 33.649,45.334 	"/>
	<polygon fill="#19486F" points="73.459,48.547 41.359,48.547 41.359,45.334 57.409,36.341 73.459,45.334 	"/>
	<polygon fill="#19486F" points="33.649,75 1.541,75 1.541,71.919 17.591,62.793 33.649,71.919 	"/>
	<polygon fill="#19486F" points="73.459,75 41.359,75 41.359,71.919 57.409,62.793 73.459,71.919 	"/>
	<rect x="41.359" y="53.036" fill="#2E73B8" width="32.1" height="18.883"/>
	<rect x="41.359" y="26.452" fill="#2E73B8" width="32.1" height="18.882"/>
	<rect x="41.359" fill="#2E73B8" width="32.1" height="18.882"/>
	<rect x="1.541" y="53.036" fill="#2E73B8" width="32.108" height="18.883"/>
	<rect x="1.541" y="26.452" fill="#2E73B8" width="32.108" height="18.882"/>
	<rect x="1.541" fill="#2E73B8" width="32.108" height="18.882"/>
	<path fill="#FFFFFF" d="M17.591,55.985c3.548,0,6.427,2.887,6.427,6.427c0,3.556-2.879,6.427-6.427,6.427
		c-3.539,0-6.418-2.871-6.418-6.427C11.173,58.872,14.052,55.985,17.591,55.985z"/>
	<path fill="#FFFFFF" d="M17.591,29.541c3.548,0,6.427,2.871,6.427,6.418c0,3.54-2.879,6.426-6.427,6.426
		c-3.539,0-6.418-2.887-6.418-6.426C11.173,32.412,14.052,29.541,17.591,29.541z"/>
	<path fill="#FFFFFF" d="M17.591,2.957c3.548,0,6.427,2.871,6.427,6.419c0,3.547-2.879,6.418-6.427,6.418
		c-3.539,0-6.418-2.871-6.418-6.418C11.173,5.827,14.052,2.957,17.591,2.957z"/>
</g>
</svg>
