<?xml version="1.0" encoding="utf-8"?>
<!-- Generator: Adobe Illustrator 16.0.0, SVG Export Plug-In . SVG Version: 6.00 Build 0)  -->
<!DOCTYPE svg PUBLIC "-//W3C//DTD SVG 1.1//EN" "http://www.w3.org/Graphics/SVG/1.1/DTD/svg11.dtd">
<svg version="1.1" id="图层_1" xmlns="http://www.w3.org/2000/svg" xmlns:xlink="http://www.w3.org/1999/xlink" x="0px" y="0px"
	 width="75px" height="75px" viewBox="0 0 75 75" enable-background="new 0 0 75 75" xml:space="preserve">
<g id="Layer_1">
	<path fill="#19486F" d="M61.057,75H13.944C7.175,75,1.625,69.448,1.625,62.68V15.704c0-6.769,5.55-12.32,12.319-12.32h47.112
		c6.769,0,12.318,5.551,12.318,12.32v47.112C73.375,69.585,67.825,75,61.057,75z"/>
	<path fill="#2E73B8" d="M61.057,71.75H13.944c-6.769,0-12.319-5.55-12.319-12.318V12.319C1.625,5.551,7.175,0,13.944,0h47.112
		c6.769,0,12.318,5.551,12.318,12.319v47.112C73.375,66.2,67.825,71.75,61.057,71.75z"/>
	<g>
		<g>
			<path fill="#FFFFFF" d="M67.96,61.191c0,2.979-2.437,5.415-5.415,5.415H36.823c-2.979,0-5.415-2.437-5.415-5.415v-8.123
				c0-2.979,2.437-5.415,5.415-5.415h25.722c2.979,0,5.415,2.437,5.415,5.415V61.191z"/>
			<path fill="#19486F" d="M62.545,67.283H36.823c-3.385,0-6.092-2.708-6.092-6.092v-8.123c0-3.385,2.708-6.092,6.092-6.092h25.722
				c3.385,0,6.092,2.707,6.092,6.092v8.123C68.637,64.44,65.93,67.283,62.545,67.283z M36.823,48.33
				c-2.572,0-4.738,2.166-4.738,4.738v8.123c0,2.572,2.166,4.738,4.738,4.738h25.722c2.572,0,4.738-2.166,4.738-4.738v-8.123
				c0-2.572-2.166-4.738-4.738-4.738H36.823z"/>
		</g>
	</g>
	<g enable-background="new    ">
		<path fill="#2E73B8" d="M36.823,51.85h3.79c2.167,0,2.979,1.625,2.979,3.25c0,2.165-1.354,3.249-3.384,3.249h-1.083v4.196h-2.167
			V51.85H36.823z M38.988,56.724h0.948c0.813,0,1.49-0.542,1.49-1.624c0-1.083-0.407-1.625-1.49-1.625h-0.948V56.724z"/>
		<path fill="#2E73B8" d="M44.675,62.545V51.85h2.167v10.695H44.675z"/>
		<path fill="#2E73B8" d="M51.85,51.715c3.25,0,3.655,2.302,3.655,5.55c0,3.25-0.405,5.552-3.655,5.552
			c-3.248,0-3.654-2.302-3.654-5.552C48.195,54.017,48.602,51.715,51.85,51.715z M51.85,61.191c1.219,0,1.49-1.083,1.49-3.927
			c0-2.843-0.271-3.925-1.49-3.925c-1.218,0-1.488,1.082-1.488,3.925C50.361,60.108,50.632,61.191,51.85,61.191z"/>
		<path fill="#2E73B8" d="M56.724,51.85h3.791c2.165,0,2.979,1.625,2.979,3.25c0,2.165-1.354,3.249-3.385,3.249h-1.083v4.196h-2.167
			V51.85H56.724z M58.89,56.724h0.947c0.813,0,1.489-0.542,1.489-1.624c0-1.083-0.406-1.625-1.489-1.625H58.89V56.724z"/>
	</g>
</g>
</svg>
