<?xml version="1.0" encoding="utf-8"?>
<!-- Generator: Adobe Illustrator 16.0.0, SVG Export Plug-In . SVG Version: 6.00 Build 0)  -->
<!DOCTYPE svg PUBLIC "-//W3C//DTD SVG 1.1//EN" "http://www.w3.org/Graphics/SVG/1.1/DTD/svg11.dtd">
<svg version="1.1" id="图层_1" xmlns="http://www.w3.org/2000/svg" xmlns:xlink="http://www.w3.org/1999/xlink" x="0px" y="0px"
	 width="60px" height="78px" viewBox="0 0 60 78" enable-background="new 0 0 60 78" xml:space="preserve">
<g id="Layer_1">
	<path fill="#19486F" d="M60,11.024c0,4.136-13.484,7.58-29.999,7.58S0,15.159,0,11.024V7.58l30.001-4.135L60,7.581V11.024z"/>
	<path fill="#19486F" d="M30.001,24.668L0,66.974v3.445C0,74.556,13.487,78,30.001,78C46.514,78,60,74.556,60,70.419v-3.445
		L30.001,24.668z"/>
	<ellipse fill="#2E73B8" cx="30.001" cy="7.58" rx="29.999" ry="7.58"/>
	<path fill="#2E73B8" d="M30.001,21.222C13.349,21.222,0,17.777,0,13.643v53.471c0,4.134,13.486,7.581,30.001,7.581
		S60,71.246,60,67.113V13.643C60,17.778,46.652,21.222,30.001,21.222z"/>
	<g>
		<path fill="#FFFFFF" d="M23.258,54.021c0.275,4.549,3.027,6.064,7.292,6.064c3.027,0,6.195-1.104,6.195-3.997
			c0-3.445-5.506-4.135-11.149-5.651c-5.505-1.516-11.283-4.134-11.283-11.162c0-8.407,8.531-11.713,15.826-11.713
			c7.707,0,15.412,3.719,15.551,12.538H35.505c0.139-3.58-3.163-4.683-6.191-4.683c-2.202,0-4.817,0.827-4.817,3.307
			c0,3.032,5.643,3.582,11.147,5.098c5.643,1.516,11.147,4.138,11.147,11.164c0,9.782-8.396,12.954-16.79,12.954
			c-8.944,0-16.79-3.859-16.79-13.781h10.046V54.021z"/>
	</g>
</g>
</svg>
