<?xml version="1.0" encoding="utf-8"?>
<!-- Generator: Adobe Illustrator 16.0.0, SVG Export Plug-In . SVG Version: 6.00 Build 0)  -->
<!DOCTYPE svg PUBLIC "-//W3C//DTD SVG 1.1//EN" "http://www.w3.org/Graphics/SVG/1.1/DTD/svg11.dtd">
<svg version="1.1" id="图层_1" xmlns="http://www.w3.org/2000/svg" xmlns:xlink="http://www.w3.org/1999/xlink" x="0px" y="0px"
	 width="60px" height="78px" viewBox="0 0 60 78" enable-background="new 0 0 60 78" xml:space="preserve">
<g id="Layer_1">
	<path fill="#19486F" d="M60,11.024c0,4.136-13.484,7.58-29.999,7.58S0,15.159,0,11.024V7.58l30.001-4.135L60,7.581V11.024z"/>
	<path fill="#19486F" d="M30.001,24.668L0,66.974v3.445C0,74.556,13.487,78,30.001,78C46.514,78,60,74.556,60,70.419v-3.445
		L30.001,24.668z"/>
	<ellipse fill="#2E73B8" cx="30.001" cy="7.58" rx="29.999" ry="7.58"/>
	<path fill="#2E73B8" d="M30.001,21.222C13.349,21.222,0,17.777,0,13.643v53.471c0,4.134,13.486,7.581,30.001,7.581
		S60,71.246,60,67.113V13.643C60,17.778,46.652,21.222,30.001,21.222z"/>
	<g>
		<path fill="#FFFFFF" d="M15.55,31.006h17.616c6.054,0,12.109,2.755,12.109,9.787c0,3.718-1.79,7.3-5.507,8.679v0.139
			c3.717,0.827,4.819,4.962,5.092,8.271c0.14,1.516,0.277,6.614,1.516,7.854h-8.944c-0.825-1.102-0.964-4.549-0.964-5.511
			c-0.277-3.448-0.826-7.167-5.092-7.167h-6.879v12.677h-9.083V31.006H15.55z M24.634,46.166h7.569c2.751,0,4.128-1.516,4.128-4.134
			c0-2.619-2.064-3.722-4.54-3.722h-7.157V46.166z"/>
	</g>
</g>
</svg>
