<?xml version="1.0" encoding="utf-8"?>
<!-- Generator: Adobe Illustrator 16.0.0, SVG Export Plug-In . SVG Version: 6.00 Build 0)  -->
<!DOCTYPE svg PUBLIC "-//W3C//DTD SVG 1.1//EN" "http://www.w3.org/Graphics/SVG/1.1/DTD/svg11.dtd">
<svg version="1.1" id="图层_1" xmlns="http://www.w3.org/2000/svg" xmlns:xlink="http://www.w3.org/1999/xlink" x="0px" y="0px"
	 width="512px" height="512px" viewBox="0 0 512 512" enable-background="new 0 0 512 512" xml:space="preserve">
<g>
	<path fill="#FA4D45" d="M258.827,508.799h-0.009c-59.002,0-116.025-4.052-156.434-11.121
		c-63.337-11.091-78.335-25.959-89.152-88.42c-14.404-83.148-14.183-224.212,0.48-308.031c11.06-63.299,25.937-78.297,88.405-89.152
		c39.64-6.886,93.615-10.687,151.978-10.687c58.881,0,115.781,4.045,156.091,11.098c63.314,11.083,78.304,25.959,89.152,88.42
		c14.427,83.164,14.229,224.258-0.442,308.092c-11.045,63.313-25.929,78.305-88.406,89.167
		C370.913,505.021,317.045,508.799,258.827,508.799 M254.097,16.987c-57.495,0-110.518,3.717-149.311,10.458
		c-55.881,9.704-65.783,19.713-75.701,76.461c-14.419,82.38-14.633,220.996-0.48,302.7c9.674,55.849,19.683,65.767,76.47,75.714
		c39.563,6.916,95.595,10.878,153.744,10.878h0.009c57.364,0,110.273-3.688,149-10.391c55.895-9.72,65.796-19.729,75.714-76.491
		c14.412-82.403,14.61-221.037,0.442-302.746c-9.72-55.872-19.729-65.782-76.477-75.715
		C368.033,20.948,312.108,16.987,254.097,16.987"/>
	<path fill="#FA4D45" d="M238.9,303.85h-102.78V158.083h199.413l-0.236,34.478v1.268c0,0,28.121-1.902,42.746,3.185v-37.868
		c0,0-0.635-45.155-43.557-45.155H137.798c0,0-42.289,3.502-42.289,46.739v140.253c0,0-2.234,46.105,41.655,46.105
		c43.872,0,68.366,0.635,68.366,0.635s4.452,13.674-27.029,20.344c-31.483,6.67-61.047,6.67-65.025,28.931h173.129
		C286.592,397.028,236.033,360.46,238.9,303.85"/>
	<path fill="#FA4D45" d="M352.472,213.87c-50.574,0-91.579,41.005-91.579,91.579s41.005,91.579,91.579,91.579
		s91.579-41.005,91.579-91.579S403.047,213.87,352.472,213.87 M338.387,235.64c4.563-0.919,9.269-1.426,14.085-1.426
		c5.275,0,10.362,0.665,15.305,1.743l-1.093,0.57c5.054,14.497,8.176,28.488,9.919,41.67c-17.889,2.646-33.971,1.979-47.264,0.078
		c1.727-13.324,4.848-27.489,9.981-42.16L338.387,235.64z M282.631,318.807l-0.016,0.016c-0.841-4.342-1.363-8.795-1.363-13.372
		c0-8.017,1.616-15.575,4.056-22.769c8.16,4.072,16.129,7.114,23.909,9.522c-0.792,10.758-0.697,22.53,0.729,35.11
		C292.882,323.511,282.631,318.807,282.631,318.807 M290.568,340.021c7.748,2.883,15.274,4.975,22.658,6.67
		c1.536,6.971,3.421,14.07,5.956,21.357C307.126,361.617,297.238,351.936,290.568,340.021 M311.229,274.648
		c-10.536-2.773-17.349-5.721-19.171-6.545c6.687-10.806,16.177-19.52,27.458-25.445
		C316.695,250.502,313.447,261.339,311.229,274.648 M366.62,375.243c-4.579,0.919-9.301,1.426-14.133,1.426
		c-4.405,0-8.667-0.522-12.865-1.299c-0.316-0.761-4.118-9.998-7.398-25.335c15.21,1.759,29.264,1.426,41.669-0.127
		C371.01,363.629,367.618,372.725,366.62,375.243 M377.029,330.355c-17.903,2.25-34.16,1.838-47.992,0.174
		c-1.172-10.045-1.742-21.42-1.22-33.826c18.981,3.279,36.109,2.424,50.337-0.111C378.71,308.951,378.187,320.311,377.029,330.355
		 M413.061,268.438c-6.259,2.472-12.375,4.356-18.38,5.957c-2.187-12.897-5.355-23.418-8.112-31.118
		C397.453,249.266,406.579,257.854,413.061,268.438 M387.281,367.227c2.408-7.082,4.167-13.959,5.642-20.74
		c8.588-2.045,15.797-4.422,21.548-6.623C408.085,351.35,398.721,360.777,387.281,367.227 M423.706,305.449
		c0,4.848-0.507,9.586-1.426,14.165l-0.206-0.412c-8.856,3.358-17.492,5.846-25.904,7.778c1.378-12.517,1.409-24.209,0.602-34.904
		c13.104-4.119,21.215-8.684,22.816-9.617C422.061,289.716,423.706,297.354,423.706,305.449"/>
</g>
</svg>
