<?xml version="1.0" encoding="utf-8"?>
<!-- Generator: Adobe Illustrator 16.0.0, SVG Export Plug-In . SVG Version: 6.00 Build 0)  -->
<!DOCTYPE svg PUBLIC "-//W3C//DTD SVG 1.1//EN" "http://www.w3.org/Graphics/SVG/1.1/DTD/svg11.dtd">
<svg version="1.1" id="图层_1" xmlns="http://www.w3.org/2000/svg" xmlns:xlink="http://www.w3.org/1999/xlink" x="0px" y="0px"
	 width="512px" height="512px" viewBox="0 0 512 512" enable-background="new 0 0 512 512" xml:space="preserve">
<g>
	<path fill="#47A6E9" d="M499.037,101.813c-10.847-62.461-25.838-77.337-89.152-88.42c-40.31-7.053-97.21-11.098-156.091-11.098
		c-58.363,0-112.338,3.801-151.978,10.687c-62.468,10.855-77.345,25.853-88.405,89.152c-14.663,83.819-14.884,224.882-0.48,308.031
		c10.817,62.461,25.815,77.329,89.152,88.42c40.409,7.069,97.431,11.121,156.434,11.121h0.009
		c58.218,0,112.087-3.778,151.665-10.634c62.476-10.862,77.359-25.854,88.404-89.167
		C513.266,326.071,513.464,184.977,499.037,101.813 M483.24,407.222c-9.918,56.764-19.82,66.772-75.715,76.492
		c-38.727,6.703-91.636,10.39-149,10.39h-0.009c-58.148,0-114.181-3.961-153.745-10.877c-56.786-9.947-66.795-19.865-76.469-75.715
		c-14.153-81.702-13.939-220.319,0.48-302.699c9.918-56.748,19.82-66.757,75.7-76.461c38.794-6.741,91.817-10.458,149.312-10.458
		c58.012,0,113.938,3.961,153.41,10.868c56.748,9.933,66.757,19.843,76.477,75.715C497.85,186.186,497.652,324.819,483.24,407.222"
		/>
	<path fill="#47A6E9" d="M255.156,155.729l0.21-0.129l0.161,0.113l0.21-0.323l70.148-40.497L309.55,86.598l-49.52,28.585
		l-45.711-30.2l-20.031,30.183l60.625,40.126C254.914,155.293,255.156,155.729,255.156,155.729 M165.623,214.304h0.5v-0.242
		l0.178-0.081l-0.178-0.339v-81.011h-32.669v57.187L84.451,214.32l16.125,32.443l65.064-32.443L165.623,214.304z M345.819,214.304
		h0.5l65.063,32.443l16.125-32.443l-49.004-24.502v-57.187h-32.669v81.011l-0.178,0.339l0.178,0.081v0.242L345.819,214.304z
		 M345.803,255.124c0-49.633-40.223-89.856-89.856-89.856c-49.633,0-89.856,40.223-89.856,89.856
		c0,49.617,40.223,89.856,89.856,89.856C305.58,344.98,345.803,304.758,345.803,255.124 M206.895,255.124
		c0-27.1,21.968-49.052,49.052-49.052c27.084,0,49.052,21.968,49.052,49.052c0,27.101-21.968,49.052-49.052,49.052
		C228.863,304.176,206.895,282.209,206.895,255.124 M166.107,295.977h-0.5l-65.048-32.442l-16.125,32.442l49.004,24.503v57.187
		h32.669v-80.995l0.178-0.339l-0.178-0.081v-0.242V295.977z M255.544,354.568l-0.161,0.112l-0.21-0.129l-0.242,0.437l-60.625,40.126
		l20.031,30.183l45.711-30.2l49.521,28.585l16.335-28.295l-70.148-40.497L255.544,354.568z M346.32,295.977h-0.5v0.242l-0.179,0.081
		l0.179,0.339v81.012h32.669v-57.188l49.004-24.502l-16.125-32.443l-65.048,32.443V295.977z"/>
</g>
</svg>
