<?xml version="1.0" encoding="utf-8"?>
<!-- Generator: Adobe Illustrator 16.0.0, SVG Export Plug-In . SVG Version: 6.00 Build 0)  -->
<!DOCTYPE svg PUBLIC "-//W3C//DTD SVG 1.1//EN" "http://www.w3.org/Graphics/SVG/1.1/DTD/svg11.dtd">
<svg version="1.1" id="图层_1" xmlns="http://www.w3.org/2000/svg" xmlns:xlink="http://www.w3.org/1999/xlink" x="0px" y="0px"
	 width="421.549px" height="425.2px" viewBox="0 0 421.549 425.2" enable-background="new 0 0 421.549 425.2" xml:space="preserve">
<g>
	<path fill="#47A6E9" d="M412.63,84.5c-8.969-51.904-21.426-64.195-74.077-73.414c-33.468-5.896-80.722-9.218-129.637-9.218
		c-48.499,0-93.261,3.156-126.231,8.886C30.781,19.807,18.49,32.264,9.271,84.833C-2.937,154.426-3.103,271.604,8.855,340.616
		c8.97,51.905,21.427,64.196,74.078,73.414c33.551,5.896,80.888,9.219,129.886,9.219c48.333,0,93.096-3.156,125.982-8.804
		c51.904-9.052,64.278-21.509,73.413-74.078C424.506,270.774,424.672,153.596,412.63,84.5 M399.509,338.126
		c-8.222,47.171-16.443,55.475-62.866,63.53c-32.14,5.564-76.071,8.638-123.74,8.638c-48.25,0-94.84-3.322-127.643-9.053
		c-47.171-8.222-55.476-16.526-63.531-62.866c-11.793-67.85-11.544-182.952,0.415-251.383C30.366,39.905,38.587,31.517,85.01,23.46
		c32.223-5.564,76.238-8.72,123.989-8.72c48.168,0,94.591,3.322,127.394,9.053c47.088,8.221,55.477,16.443,63.531,62.866
		C411.634,154.592,411.551,269.694,399.509,338.126"/>
	<path fill="#47A6E9" d="M196.723,98.711c-4.354,0.029-7.873,3.594-7.844,7.948c0.023,3.544,2.389,6.533,5.616,7.508l1.724,21.849
		l4.467-0.352l-1.696-21.484c3.297-0.967,5.705-4.022,5.681-7.625C204.642,102.201,201.077,98.682,196.723,98.711 M166.133,148.954
		l-10.612-10.528c0.638-1.148,1.002-2.468,0.992-3.872c-0.028-4.355-3.594-7.873-7.948-7.844c-4.354,0.028-7.872,3.594-7.844,7.948
		c0.029,4.354,3.594,7.872,7.949,7.844c1.323-0.009,2.566-0.348,3.659-0.933l10.132,10.052
		C163.66,150.7,164.878,149.803,166.133,148.954 M118.761,225.304c-1.151-2.265-3.37-3.937-6.076-4.27
		c-4.321-0.533-8.27,2.549-8.802,6.87c-0.533,4.321,2.549,8.271,6.871,8.803c4.319,0.533,8.266-2.547,8.801-6.865l14.721-1.172
		c-0.174-1.492-0.294-2.998-0.379-4.512L118.761,225.304z M120.671,176.1c1.856-0.012,3.557-0.671,4.899-1.756l13.697,6.772
		c0.605-1.37,1.251-2.716,1.934-4.042l-13.067-6.46c0.249-0.777,0.386-1.603,0.381-2.462c-0.029-4.354-3.594-7.873-7.948-7.844
		c-4.355,0.029-7.873,3.594-7.844,7.948C112.752,172.61,116.317,176.129,120.671,176.1 M299.78,196.761l-16.663,3.127
		c0.229,1.471,0.41,2.957,0.553,4.454l17.069-3.202c1.356,2.446,3.974,4.098,6.963,4.078c4.354-0.028,7.872-3.593,7.843-7.948
		c-0.028-4.354-3.594-7.872-7.948-7.843C303.45,189.454,300.068,192.691,299.78,196.761 M239.281,106.551
		c-4.354,0.028-7.873,3.594-7.845,7.948c0.019,2.815,1.521,5.274,3.754,6.658l-3.599,15.213l4.359,1.032l3.563-15.067
		c4.294-0.098,7.743-3.63,7.715-7.94C247.2,110.04,243.635,106.522,239.281,106.551 M260.953,152.521l4.773-6.034
		c0.866,0.32,1.8,0.501,2.777,0.494c4.354-0.028,7.872-3.593,7.843-7.948c-0.027-4.354-3.594-7.872-7.947-7.843
		c-4.354,0.028-7.872,3.593-7.845,7.948c0.013,1.752,0.604,3.363,1.581,4.668l-4.695,5.936L260.953,152.521z M275.419,176.586
		c0.693,1.323,1.345,2.669,1.96,4.036l20.18-11.137c1.057,1.02,2.404,1.762,3.95,2.065c4.273,0.838,8.431-1.956,9.269-6.229
		s-1.956-8.43-6.229-9.268c-4.272-0.838-8.43,1.956-9.268,6.229c-0.223,1.131-0.184,2.252,0.064,3.308L275.419,176.586z
		 M221.164,290.485l-0.242-4.332c-1.472,0.244-2.954,0.457-4.453,0.615l0.216,3.859c-3.155,1.051-5.43,4.039-5.406,7.542
		c0.028,4.354,3.594,7.872,7.947,7.843c4.354-0.027,7.873-3.593,7.845-7.947C227.046,294.418,224.536,291.365,221.164,290.485
		 M290.798,285.742c-1.646,0.011-3.173,0.528-4.434,1.402l-25.72-20.903c-1.093,1.044-2.214,2.059-3.366,3.037l26.271,21.353
		c-0.39,0.943-0.603,1.977-0.596,3.06c0.029,4.354,3.594,7.871,7.948,7.844c4.354-0.029,7.873-3.594,7.844-7.948
		S295.152,285.713,290.798,285.742 M335.596,261.103c-2.644,0.018-4.974,1.344-6.394,3.354l-53.009-19.339
		c-0.671,1.354-1.388,2.682-2.136,3.989l53.709,19.596c-0.004,0.116-0.016,0.23-0.015,0.349c0.029,4.354,3.594,7.873,7.948,7.844
		c4.354-0.028,7.873-3.594,7.844-7.947C343.515,264.593,339.95,261.074,335.596,261.103 M341.196,216.305
		c-3.524,0.023-6.499,2.364-7.491,5.563l-45.6,1.212l0.117,4.478l45.436-1.207c0.943,3.33,4.016,5.771,7.642,5.746
		c4.354-0.028,7.872-3.594,7.844-7.947C349.115,219.795,345.55,216.276,341.196,216.305 M173.161,278.462l-6.794,12.043
		c-0.677-0.184-1.387-0.288-2.123-0.283c-4.354,0.028-7.872,3.594-7.843,7.948c0.028,4.354,3.594,7.872,7.948,7.843
		c4.354-0.027,7.872-3.593,7.844-7.947c-0.014-1.997-0.777-3.814-2.014-5.198l7.013-12.433
		C175.827,279.814,174.481,279.16,173.161,278.462 M110.515,247.127l-23.551,7.576c-1.411-2.223-3.894-3.698-6.715-3.679
		c-4.355,0.027-7.873,3.593-7.844,7.947c0.029,4.354,3.594,7.872,7.948,7.844c4.305-0.028,7.787-3.516,7.837-7.802l23.69-7.621
		L110.515,247.127z M93.098,203.99c3.583,0.441,6.903-1.607,8.238-4.782l32.336,3.718c0.395-1.452,0.496-2.875,0.972-4.287
		l-32.815-3.911c-0.608-3.302-3.297-5.98-6.801-6.412c-4.322-0.532-8.27,2.55-8.802,6.872
		C85.694,199.509,88.776,203.458,93.098,203.99 M149.026,258.316l-35.463,24.973c-1.411-1.267-3.274-2.04-5.316-2.027
		c-4.354,0.029-7.872,3.595-7.844,7.948c0.029,4.354,3.594,7.873,7.949,7.844c4.354-0.028,7.872-3.594,7.843-7.947
		c-0.004-0.691-0.107-1.357-0.278-1.995l35.988-25.345C150.911,260.647,149.954,259.494,149.026,258.316"/>
	<path fill="#47A6E9" d="M210.774,144.595c-36.75,0-66.542,29.792-66.542,66.542s29.792,66.541,66.542,66.541
		s66.542-29.791,66.542-66.541S247.524,144.595,210.774,144.595 M210.774,249.929c-21.424,0-38.792-17.368-38.792-38.792
		c0-21.425,17.368-38.793,38.792-38.793c21.424,0,38.792,17.368,38.792,38.793C249.566,232.561,232.198,249.929,210.774,249.929"/>
</g>
</svg>
