<?xml version="1.0" encoding="utf-8"?>
<!-- Generator: Adobe Illustrator 16.0.0, SVG Export Plug-In . SVG Version: 6.00 Build 0)  -->
<!DOCTYPE svg PUBLIC "-//W3C//DTD SVG 1.1//EN" "http://www.w3.org/Graphics/SVG/1.1/DTD/svg11.dtd">
<svg version="1.1"
	 id="svg2" xmlns:dc="http://purl.org/dc/elements/1.1/" xmlns:cc="http://creativecommons.org/ns#" xmlns:rdf="http://www.w3.org/1999/02/22-rdf-syntax-ns#" xmlns:svg="http://www.w3.org/2000/svg"
	 xmlns="http://www.w3.org/2000/svg" xmlns:xlink="http://www.w3.org/1999/xlink" x="0px" y="0px" width="78px" height="56px"
	 viewBox="0 0 78 56" enable-background="new 0 0 78 56" xml:space="preserve">
<g id="g12" transform="scale(0.1,0.1)">
	<path id="path14" fill="#087BBB" d="M0,560.002h655.098V103.186H0V560.002z"/>
	<path id="path16" fill="none" stroke="#FFFFFF" stroke-width="4" d="M0,560.002h655.098V103.186H0V560.002z"/>
	<path id="path18" fill="#087BBB" d="M655.098,103.186L780,0.002H169.033L0,103.186H655.098"/>
	<path id="path20" fill="none" stroke="#FFFFFF" stroke-width="4" d="M655.098,103.186L780,0.002H169.033L0,103.186H655.098z"/>
	<path id="path22" fill="#087BBB" d="M780,456.838V0.002L655.098,103.186v456.816L780,456.838"/>
	<path id="path24" fill="none" stroke="#FFFFFF" stroke-width="4" d="M780,456.838V0.002L655.098,103.186v456.816L780,456.838z"/>
	<path id="path26" fill="none" stroke="#FFFFFF" stroke-width="10" stroke-linecap="round" stroke-linejoin="round" d="
		M42.568,375.696h195.537l97.852-196.181l135.762,277.959l49.16-81.777h97.686"/>
	<path id="path28" fill="#FFFFFF" d="M104.312,537.463c11.45,0,20.684-9.57,20.684-21.055c0-11.465-9.233-20.732-20.684-20.732
		s-20.835,9.268-20.835,20.732C83.477,527.893,92.861,537.463,104.312,537.463"/>
	<path id="path30" fill="none" stroke="#000000" stroke-width="3.7" d="M104.312,537.463c11.45,0,20.684-9.57,20.684-21.055
		c0-11.465-9.233-20.732-20.684-20.732s-20.835,9.268-20.835,20.732C83.477,527.893,92.861,537.463,104.312,537.463z"/>
	<path id="path32" fill="#FFFFFF" d="M86.494,494.211l40.63,39.766l114.438-117.676l-40.469-39.756L86.494,494.211"/>
	<path id="path34" fill="none" stroke="#000000" stroke-width="3.7" d="M86.494,494.211l40.63,39.766l114.438-117.676
		l-40.469-39.756L86.494,494.211z"/>
	<path id="path36" fill="#FFFFFF" d="M184.81,290.022c0,86.162,69.888,155.947,155.601,155.947
		c85.547,0,155.449-69.785,155.449-155.947c0-85.986-69.902-155.947-155.449-155.947C254.697,134.075,184.81,204.036,184.81,290.022
		z M206.533,290.022c0-74.043,60.068-134.16,133.877-134.16c73.799,0,133.555,60.117,133.555,134.16
		c0,74.052-59.756,134.316-133.555,134.316C266.602,424.338,206.533,364.074,206.533,290.022"/>
	<path id="path38" fill="none" stroke="#000000" stroke-width="3.7" d="M184.81,290.022c0,86.162,69.888,155.947,155.601,155.947
		c85.547,0,155.449-69.785,155.449-155.947c0-85.986-69.902-155.947-155.449-155.947C254.697,134.075,184.81,204.036,184.81,290.022
		z M206.533,290.022c0-74.043,60.068-134.16,133.877-134.16c73.799,0,133.555,60.117,133.555,134.16
		c0,74.052-59.756,134.316-133.555,134.316C266.602,424.338,206.533,364.074,206.533,290.022z"/>
	<path id="path40" fill="#FFFFFF" d="M166.719,299.094c0,85.83,69.741,155.947,155.449,155.947
		c85.537,0,155.43-70.117,155.43-155.947c0-86.162-69.893-156.113-155.43-156.113C236.46,142.981,166.719,212.932,166.719,299.094z
		 M188.447,299.094c0-74.062,59.912-134.316,133.721-134.316c73.76,0,133.555,60.254,133.555,134.316
		c0,74.043-59.795,133.994-133.555,133.994C248.359,433.088,188.447,373.137,188.447,299.094"/>
	<path id="path42" fill="none" stroke="#000000" stroke-width="3.7" d="M166.719,299.094c0,85.83,69.741,155.947,155.449,155.947
		c85.537,0,155.43-70.117,155.43-155.947c0-86.162-69.893-156.113-155.43-156.113C236.46,142.981,166.719,212.932,166.719,299.094z
		 M188.447,299.094c0-74.062,59.912-134.316,133.721-134.316c73.76,0,133.555,60.254,133.555,134.316
		c0,74.043-59.795,133.994-133.555,133.994C248.359,433.088,188.447,373.137,188.447,299.094z"/>
</g>
</svg>
