<?xml version="1.0" encoding="utf-8"?>
<!-- Generator: Adobe Illustrator 16.0.0, SVG Export Plug-In . SVG Version: 6.00 Build 0)  -->
<!DOCTYPE svg PUBLIC "-//W3C//DTD SVG 1.1//EN" "http://www.w3.org/Graphics/SVG/1.1/DTD/svg11.dtd">
<svg version="1.1" id="Layer_1" xmlns="http://www.w3.org/2000/svg" xmlns:xlink="http://www.w3.org/1999/xlink" x="0px" y="0px"
	 width="62px" height="75px" viewBox="0 0 62 75" enable-background="new 0 0 62 75" xml:space="preserve">
<g>
	<polygon fill="#4B612C" points="8.636,63.713 0,59.436 0,15.473 8.636,11.196 20.546,38.139 	"/>
	<polygon fill="#759C3E" points="37.182,18.841 8.636,11.196 8.636,63.713 37.182,55.795 	"/>
	<polygon fill="#4B612C" points="50.363,51.881 57,54.064 61.183,39.593 57,25.121 50.363,26.123 	"/>
	<polygon fill="#3C4929" points="57,25.485 50.363,26.396 46.456,25.485 53.273,11.287 	"/>
	<polygon fill="#4B612C" points="46.456,25.485 53.273,24.575 53.273,11.196 46.456,13.016 	"/>
	<polygon fill="#3C4929" points="24.728,20.662 31,14.108 47.455,23.21 41.364,24.12 	"/>
	<polygon fill="#B7CA9D" points="57,49.516 50.363,48.695 46.456,49.423 53.273,63.805 	"/>
	<polygon fill="#4B612C" points="46.456,49.423 53.273,50.333 53.273,63.805 46.456,61.893 	"/>
	<polygon fill="#759C3E" points="47.455,23.21 31,19.114 31,0 47.455,8.283 	"/>
	<polygon fill="#759C3E" points="62,15.564 53.273,11.196 53.273,24.575 62,26.669 	"/>
	<polygon fill="#B7CA9D" points="24.728,54.248 31,66.809 47.455,51.881 41.364,50.788 	"/>
	<polygon fill="#759C3E" points="47.455,51.881 31,55.795 31,75 47.455,66.717 	"/>
	<polygon fill="#759C3E" points="62,59.436 53.273,63.805 53.273,50.333 62,48.24 	"/>
	<polygon fill="#4B612C" points="14.455,66.626 31,75 38.638,37.591 31,0 14.455,8.283 	"/>
	<polygon fill="#759C3E" points="40.273,70.268 31,75 31,0.273 40.273,4.916 	"/>
	<polygon fill="#759C3E" points="57,61.893 62,59.436 62,15.564 57,14.472 	"/>
</g>
</svg>
