<?xml version="1.0" encoding="utf-8"?>
<!-- Generator: Adobe Illustrator 16.0.0, SVG Export Plug-In . SVG Version: 6.00 Build 0)  -->
<!DOCTYPE svg PUBLIC "-//W3C//DTD SVG 1.1//EN" "http://www.w3.org/Graphics/SVG/1.1/DTD/svg11.dtd">
<svg version="1.1" id="Layer_1" xmlns="http://www.w3.org/2000/svg" xmlns:xlink="http://www.w3.org/1999/xlink" x="0px" y="0px"
	 width="62px" height="75px" viewBox="0 0 62 75" enable-background="new 0 0 62 75" xml:space="preserve">
<g>
	<polygon fill="#B7CA9D" points="31,46.771 0,50.624 8.738,63.749 40.988,48.021 	"/>
	<polygon fill="#3C4929" points="31,28.125 62,24.271 53.366,11.146 21.117,26.875 	"/>
	<polygon fill="#4B612C" points="21.117,26.875 53.366,21.667 53.366,11.146 21.117,19.896 	"/>
	<polygon fill="#4B612C" points="0,41.876 31,44.999 61.48,37.5 31,30 0,33.021 	"/>
	<polygon fill="#759C3E" points="62,41.876 31,44.999 31,30 62,33.021 	"/>
	<polygon fill="#3C4929" points="0,24.271 31,0 47.54,19.896 15.084,26.146 	"/>
	<polygon fill="#4B612C" points="0,15.521 31,0 31,15 0,24.271 	"/>
	<polygon fill="#759C3E" points="53.366,11.146 62,15.521 62,24.271 53.366,21.667 	"/>
	<polygon fill="#759C3E" points="40.988,48.021 8.738,53.229 8.738,63.749 40.988,55 	"/>
	<polygon fill="#759C3E" points="47.54,19.896 31,15 31,0 47.54,8.229 	"/>
	<polygon fill="#B7CA9D" points="62,50.624 31,75 14.564,55 47.021,48.751 	"/>
	<polygon fill="#759C3E" points="62,59.376 31,75 31,59.999 62,50.624 	"/>
	<polygon fill="#4B612C" points="14.564,55 31,59.999 31,75 14.564,66.666 	"/>
	<polygon fill="#4B612C" points="8.738,63.749 0,59.376 0,50.624 8.738,53.229 	"/>
</g>
</svg>
