<?xml version="1.0" encoding="utf-8"?>
<!-- Generator: Adobe Illustrator 16.0.0, SVG Export Plug-In . SVG Version: 6.00 Build 0)  -->
<!DOCTYPE svg PUBLIC "-//W3C//DTD SVG 1.1//EN" "http://www.w3.org/Graphics/SVG/1.1/DTD/svg11.dtd">
<svg version="1.1" id="Layer_1" xmlns="http://www.w3.org/2000/svg" xmlns:xlink="http://www.w3.org/1999/xlink" x="0px" y="0px"
	 width="62px" height="75px" viewBox="0 0 62 75" enable-background="new 0 0 62 75" xml:space="preserve">
<g>
	<polygon fill="#759C3E" points="40.779,54.896 8.738,63.75 8.738,11.146 40.779,19.896 	"/>
	<polygon fill="#4B612C" points="8.738,63.75 0,59.375 0,15.521 8.738,11.146 	"/>
	<polygon fill="#4B612C" points="14.46,30.104 31,28.021 31,46.771 14.46,44.792 	"/>
	<polygon fill="#3C4929" points="62,26.563 46.916,28.125 14.46,22.917 31,0 	"/>
	<polygon fill="#4B612C" points="14.46,8.229 31,0 31,18.75 14.46,22.917 	"/>
	<polygon fill="#B7CA9D" points="62,48.438 46.916,46.875 14.46,52.083 31,74.791 	"/>
	<polygon fill="#4B612C" points="14.46,66.667 31,75 31,56.25 14.46,52.083 	"/>
	<polygon fill="#759C3E" points="62,26.563 31,18.75 31,0 62,15.521 	"/>
	<polygon fill="#759C3E" points="62,42.917 31,46.771 31,28.021 62,31.979 	"/>
	<polygon fill="#759C3E" points="62,59.479 31,75 31,56.25 62,48.438 	"/>
</g>
</svg>
