<?xml version="1.0" encoding="utf-8"?>
<!-- Generator: Adobe Illustrator 16.0.0, SVG Export Plug-In . SVG Version: 6.00 Build 0)  -->
<!DOCTYPE svg PUBLIC "-//W3C//DTD SVG 1.1//EN" "http://www.w3.org/Graphics/SVG/1.1/DTD/svg11.dtd">
<svg version="1.1"
	 id="svg2" xmlns:dc="http://purl.org/dc/elements/1.1/" xmlns:cc="http://creativecommons.org/ns#" xmlns:rdf="http://www.w3.org/1999/02/22-rdf-syntax-ns#" xmlns:svg="http://www.w3.org/2000/svg"
	 xmlns="http://www.w3.org/2000/svg" xmlns:xlink="http://www.w3.org/1999/xlink" x="0px" y="0px" width="78px" height="64px"
	 viewBox="0 0 78 64" enable-background="new 0 0 78 64" xml:space="preserve">
<g id="g12" transform="scale(0.1,0.1)">
	<path id="path22" fill="#087FBF" d="M681.479,630l83.516-61.572L415.62,10l-82.324,49.395"/>
	<path id="path24" fill="none" stroke="#FFFFFF" stroke-width="4" d="M681.479,630l83.516-61.572L415.62,10l-82.324,49.395"/>
	<path id="path26" fill="#087FBF" d="M15,626.572l666.304,0.576L331.753,63.74L15,626.572"/>
	<path id="path28" fill="none" stroke="#FFFFFF" stroke-width="4" d="M15,626.572l666.304,0.576L331.753,63.74L15,626.572z"/>
	<path id="path30" fill="#FFFFFF" d="M332.124,453.75c26.68,0,48.281-21.514,48.281-48.438c0-26.611-21.602-48.447-48.281-48.447
		c-26.67,0-48.262,21.836-48.262,48.447C283.862,432.236,305.454,453.75,332.124,453.75"/>
	<path id="path32" fill="#FFFFFF" d="M332.124,276.953c26.68,0,48.281-21.689,48.281-48.457c0-26.631-21.602-48.301-48.281-48.301
		c-26.67,0-48.262,21.67-48.262,48.301C283.862,255.264,305.454,276.953,332.124,276.953"/>
	<path id="path34" fill="#FFFFFF" d="M461.968,584.414c26.836,0,48.301-21.836,48.301-48.467c0-26.924-21.465-48.447-48.301-48.447
		c-26.504,0-47.949,21.523-47.949,48.447C414.019,562.578,435.464,584.414,461.968,584.414"/>
	<path id="path36" fill="#FFFFFF" d="M203.545,582.978c26.685,0,48.13-21.846,48.13-48.467c0-26.934-21.445-48.447-48.13-48.447
		c-26.67,0-48.271,21.514-48.271,48.447C155.273,561.133,176.875,582.978,203.545,582.978"/>
	<path id="path38" fill="none" stroke="#FFFFFF" stroke-width="10" d="M331.792,238.604v163.818l-131.445,132.09"/>
	<path id="path40" fill="none" stroke="#FFFFFF" stroke-width="10" d="M331.792,409.638l120.645,121.26"/>
</g>
</svg>
