<?xml version="1.0" encoding="utf-8"?>
<!-- Generator: Adobe Illustrator 16.0.0, SVG Export Plug-In . SVG Version: 6.00 Build 0)  -->
<!DOCTYPE svg PUBLIC "-//W3C//DTD SVG 1.1//EN" "http://www.w3.org/Graphics/SVG/1.1/DTD/svg11.dtd">
<svg version="1.1"
	 id="svg2" xmlns:dc="http://purl.org/dc/elements/1.1/" xmlns:cc="http://creativecommons.org/ns#" xmlns:rdf="http://www.w3.org/1999/02/22-rdf-syntax-ns#" xmlns:svg="http://www.w3.org/2000/svg"
	 xmlns="http://www.w3.org/2000/svg" xmlns:xlink="http://www.w3.org/1999/xlink" x="0px" y="0px" width="57px" height="77px"
	 viewBox="0 0 57 77" enable-background="new 0 0 57 77" xml:space="preserve">
<g id="g12" transform="scale(0.1,0.1)">
	<path id="path22" fill="#087FBF" d="M569.998-0.002L472.41,92.424H-0.002L122.351-0.002H569.998"/>
	<path id="path24" fill="none" stroke="#FFFFFF" stroke-width="4" d="M569.998-0.002L472.41,92.424H-0.002L122.351-0.002H569.998z"
		/>
	<path id="path26" fill="#087FBF" d="M-0.002,559.255H472.41V92.424H-0.002V559.255z"/>
	<path id="path28" fill="#087FBF" d="M-0.002,559.255H472.41V92.424H-0.002V559.255z"/>
	<path id="path30" fill="none" stroke="#FFFFFF" stroke-width="4" d="M-0.002,559.255H472.41V92.424H-0.002V559.255z"/>
	<path id="path32" fill="none" stroke="#FFFFFF" stroke-width="4" d="M-0.002,559.255H472.41V92.424H-0.002V559.255z"/>
	<path id="path34" fill="#087FBF" d="M-0.002,758.064H472.41V554.275H-0.002V758.064z"/>
	<path id="path36" fill="none" stroke="#FFFFFF" stroke-width="4" d="M-0.002,758.064H472.41V554.275H-0.002V758.064z"/>
	<path id="path38" fill="#087FBF" d="M560.31,471.452V4.822l-90.82,87.603v466.831L560.31,471.452"/>
	<path id="path40" fill="#087FBF" d="M560.31,471.452V4.822l-90.82,87.603v466.831L560.31,471.452"/>
	<path id="path42" fill="none" stroke="#FFFFFF" stroke-width="4" d="M560.31,471.452V4.822l-90.82,87.603v466.831L560.31,471.452z"
		/>
	<path id="path44" fill="none" stroke="#FFFFFF" stroke-width="4" d="M560.31,471.452V4.822l-90.82,87.603v466.831L560.31,471.452z"
		/>
	<path id="path46" fill="#087FBF" d="M560.31,670.564v-203.73l-90.82,87.441v203.789L560.31,670.564"/>
	<path id="path48" fill="none" stroke="#FFFFFF" stroke-width="4" d="M560.31,670.564v-203.73l-90.82,87.441v203.789L560.31,670.564
		z"/>
	<path id="path50" fill="#FFFFFF" d="M167.849,313.191H66.189v-26.279L27.82,325.613l38.369,38.672v-26.25h101.66V313.191"/>
	<path id="path52" fill="#FFFFFF" d="M225.378,395.515v101.523H199.08l38.73,38.35l38.75-38.35h-26.299V395.515H225.378"/>
	<path id="path54" fill="#FFFFFF" d="M225.378,258.669V157.151H199.08l38.73-38.35l38.75,38.35h-26.299v101.519H225.378"/>
	<path id="path56" fill="#FFFFFF" d="M307.605,338.034h101.66v26.25l38.379-38.672l-38.379-38.701v26.279h-101.66V338.034"/>
	<path id="path58" fill="none" stroke="#FFFFFF" stroke-width="4" d="M401.462,488.738
		c-19.316,20.205-106.826-35.283-195.928-123.652C116.589,276.726,59.832,188.772,78.972,168.743
		c18.975-20.215,106.65,35.073,195.771,123.442C363.855,380.554,420.417,468.523,401.462,488.738z"/>
	<path id="path60" fill="none" stroke="#FFFFFF" stroke-width="4" d="M396.296,167.219c20.225,18.955-35.313,106.538-123.77,195.542
		C184.07,451.794,96.013,508.318,75.964,489.382C55.73,470.056,111.082,382.663,199.548,293.64
		C288.005,204.807,376.052,148.103,396.296,167.219z"/>
	<path id="path62" fill="none" stroke="#FFFFFF" stroke-width="4" stroke-linecap="round" stroke-linejoin="round" d="
		M0.349,110.149v659.848"/>
	<path id="path64" fill="#BFBEBE" d="M279.558,384.626c33.359-23.389,41.572-69.629,18.145-103.291
		c-23.613-33.525-69.717-41.543-103.428-18.145c-33.545,23.574-41.748,69.629-18.145,103.32
		C199.548,400.007,245.828,408.22,279.558,384.626"/>
</g>
</svg>
