<svg version="1.1" id="ilhwsa8q1" xmlns:xml="http://www.w3.org/XML/1998/namespace"
	 xmlns="http://www.w3.org/2000/svg" xmlns:xlink="http://www.w3.org/1999/xlink" x="0px" y="0px" width="71px" height="79px"
	 viewBox="0 0 71 79" enable-background="new 0 0 71 79" xml:space="preserve">
<g>
	<g>
		<g>
			<path fill="#002235" d="M36.222,77.652c-0.394,0-0.787-0.232-0.945-0.621L22.963,49.229L8.684,76.717
				c-0.238,0.471-0.874,0.702-1.341,0.394c-0.475-0.235-0.713-0.871-0.396-1.347l16.255-31.202L37.173,76.16
				c0.235,0.477,0,1.104-0.477,1.336C36.459,77.573,36.301,77.652,36.222,77.652z"/>
		</g>
		<path fill="#002235" d="M41.825,79H1.181C0.556,79,0,78.444,0,77.81v-0.079c0-0.543,0.556-1.094,1.181-1.094h40.644
			c0.628,0,1.184,0.551,1.184,1.173v0.079C43.009,78.444,42.453,79,41.825,79z"/>
		<path fill="#002235" d="M5.368,76.637c0-0.794,1.102-1.351,2.441-1.351c1.344,0,2.451,0.557,2.451,1.351H5.368z"/>
		<path fill="#002235" d="M33.542,76.637c0-0.794,1.103-1.351,2.443-1.351c1.346,0,2.448,0.557,2.448,1.351H33.542z"/>
	</g>
	<g>
		<path fill="#ABB7C6" d="M61.01,56.339c-11.769,9.395-30.544,5.442-42.066-8.933C7.419,33.04,7.73,13.846,19.411,4.452
			c11.681-9.404,27.707-3.083,39.222,11.211C70.16,29.954,72.68,46.944,61.01,56.339z"/>
		<path fill="#D7DBE0" d="M59.264,15.187C47.832,0.898,30.386-4.157,20.284,3.975c-10.103,8.133-9.001,26.217,2.441,40.506
			c11.446,14.301,28.887,19.359,38.99,11.302C71.814,47.72,70.715,29.487,59.264,15.187z M25.494,42.278
			c-10.42-12.949-11.444-29.454-2.292-36.802c9.157-7.346,25.02-2.761,35.432,10.268C69.05,28.772,70.08,45.198,60.851,52.545
			C51.689,59.894,35.829,55.306,25.494,42.278z"/>
		<path fill="#002235" d="M66.448,10.053l-2.123-2.919c-0.318-0.397-0.238-0.945,0.158-1.261l2.203-1.659
			c1.189-0.873,2.917-0.635,3.791,0.55l0,0c0.869,1.188,0.634,2.925-0.557,3.789l-2.202,1.738
			C67.321,10.53,66.766,10.45,66.448,10.053z"/>
		<path fill="#96A8BC" d="M47.91,40.381c-4.822,3.862-12.554,2.215-17.287-3.635c-4.74-5.838-4.583-13.814,0.233-17.686
			c4.816-3.873,11.361-1.262,16.102,4.578C51.689,29.487,52.714,36.51,47.91,40.381z"/>
		<polygon fill="#002235" points="41.28,42.039 40.724,41.563 64.795,10.132 48.531,25.534 48.066,25.058 67.321,6.816 
			67.876,7.292 		"/>
		
			<rect x="49.873" y="-5.496" transform="matrix(-0.3114 -0.9503 0.9503 -0.3114 53.7268 64.4832)" fill="#002235" width="0.705" height="36.544"/>
	</g>
</g>
</svg>
