<?xml version="1.0" encoding="utf-8"?>
<!-- Generator: Adobe Illustrator 16.0.0, SVG Export Plug-In . SVG Version: 6.00 Build 0)  -->
<!DOCTYPE svg PUBLIC "-//W3C//DTD SVG 1.1//EN" "http://www.w3.org/Graphics/SVG/1.1/DTD/svg11.dtd">
<svg version="1.1"
	 id="svg2" xmlns:dc="http://purl.org/dc/elements/1.1/" xmlns:cc="http://creativecommons.org/ns#" xmlns:rdf="http://www.w3.org/1999/02/22-rdf-syntax-ns#" xmlns:svg="http://www.w3.org/2000/svg"
	 xmlns="http://www.w3.org/2000/svg" xmlns:xlink="http://www.w3.org/1999/xlink" x="0px" y="0px" width="78px" height="76px"
	 viewBox="0 0 78 76" enable-background="new 0 0 78 76" xml:space="preserve">
<g id="g12" transform="scale(0.1,0.1)">
	<path id="path22" fill="#02709F" d="M764.351,10.398l-18.535,10.996H15l18.657-11.392L764.351,10.398"/>
	<path id="path24" fill="none" stroke="#FFFFFF" stroke-width="3.9999" d="M764.351,10.398l-18.535,10.996H15l18.657-11.392
		L764.351,10.398z"/>
	<path id="path26" fill="#02709F" d="M764.409,732.571l-0.059-722.173l-18.535,14.243v725.361L764.409,732.571"/>
	<path id="path28" fill="#02709F" d="M48.276,750.002h697.539V21.394H15v695.21L48.276,750.002"/>
	<path id="path30" fill="none" stroke="#FFFFFF" stroke-width="3.9999" d="M690.269,21.394v420.434
		c0,30.186-24.902,24.824-24.902,24.824H92.568c0,0-22.251,2.432-22.251-22.393V21.394"/>
	<path id="path32" fill="none" stroke="#FFFFFF" stroke-width="3.9999" d="M26.309,95.896H59.38V62.937H26.309V95.896z"/>
	<path id="path34" fill="none" stroke="#FFFFFF" stroke-width="3.9999" d="M701.382,95.896h33.496V62.937h-33.496V95.896z"/>
	<path id="path36" fill="#FFFFFF" d="M572.241,537.541v204.512H137.632V534.69c0-21.992,24.912-19.561,24.912-19.561h387.217
		C574.663,515.129,572.241,537.541,572.241,537.541"/>
	<path id="path38" fill="none" stroke="#02709F" stroke-width="3.9999" d="M572.241,537.541v204.512H137.632V534.69
		c0-21.992,24.912-19.561,24.912-19.561h387.217C574.663,515.129,572.241,537.541,572.241,537.541z"/>
	<path id="path40" fill="none" stroke="#FFFFFF" stroke-width="3.9999" d="M690.269,750.002V537.541c0,0,2.871-22.412-22.031-22.412
		H162.983c0,0-24.912-2.432-24.912,19.561v201.631"/>
	<path id="path42" fill="#02709F" d="M221.167,727.6h85.742V528.957h-85.742V727.6z"/>
	<path id="path44" fill="none" stroke="#FFFFFF" stroke-width="3.9999" d="M221.167,727.6h85.742V528.957h-85.742V727.6z"/>
	<path id="path46" fill="none" stroke="#FFFFFF" stroke-width="3.9999" d="M745.815,24.27l19.18-13.843"/>
</g>
</svg>
