<?xml version="1.0" encoding="utf-8"?>
<!-- Generator: Adobe Illustrator 16.0.0, SVG Export Plug-In . SVG Version: 6.00 Build 0)  -->
<!DOCTYPE svg PUBLIC "-//W3C//DTD SVG 1.1//EN" "http://www.w3.org/Graphics/SVG/1.1/DTD/svg11.dtd">
<svg version="1.1"
	 id="svg2" xmlns:dc="http://purl.org/dc/elements/1.1/" xmlns:cc="http://creativecommons.org/ns#" xmlns:rdf="http://www.w3.org/1999/02/22-rdf-syntax-ns#" xmlns:svg="http://www.w3.org/2000/svg"
	 xmlns="http://www.w3.org/2000/svg" xmlns:xlink="http://www.w3.org/1999/xlink" x="0px" y="0px" width="77px" height="55px"
	 viewBox="0 0 77 55" enable-background="new 0 0 77 55" xml:space="preserve">
<g id="g12" transform="scale(0.1,0.1)">
	<path id="path22" fill="#087FBF" d="M0.005,530h690.503V76.294H0.005V530z"/>
	<path id="path24" fill="none" stroke="#FFFFFF" stroke-width="4" d="M0.005,530h690.503V76.294H0.005V530z"/>
	<path id="path26" fill="#087FBF" d="M770,413.711L690.508,530V76.294L770-20V413.711"/>
	<path id="path28" fill="none" stroke="#FFFFFF" stroke-width="4" d="M770,413.711L690.508,530V76.294L770-20V413.711z"/>
	<path id="path30" fill="#087FBF" d="M119.18-20H770l-79.492,96.294H0.005L119.18-20"/>
	<path id="path32" fill="none" stroke="#FFFFFF" stroke-width="4" d="M119.18-20H770l-79.492,96.294H0.005L119.18-20z"/>
	<path id="path34" fill="#FFFFFF" d="M212.495,322.148l-115.576,0.273v-18.496l115.576-0.059l0.039-28.677l67.065,37.817
		l-67.065,38.027L212.495,322.148"/>
	<path id="path36" fill="#FFFFFF" d="M453.223,322.148l-115.708,0.273v-18.496l115.708-0.059l0.02-28.677l66.953,37.817
		l-66.953,38.027L453.223,322.148"/>
	<path id="path38" fill="#FFFFFF" d="M433.145,229.644l-96.958,62.993l-9.932-15.337l96.968-63.066l-15.664-24.194l76.777-4.634
		l-35.469,68.311L433.145,229.644"/>
	<path id="path40" fill="#FFFFFF" d="M433.145,395.449l-96.958-63.105l-9.932,15.352l96.968,63.047l-15.664,24.082l76.777,4.863
		l-35.469-68.32L433.145,395.449"/>
	<path id="path42" fill="none" stroke="#FFFFFF" stroke-width="4" d="M246.704,163.594
		c-111.406-22.222-170.273,34.868-160.952,84.165l0.752,2.666c-86.836,14.844-64.043,117.271-22.456,117.271l4.111-0.098
		c-10.503,48.164,90.986,97.109,147.627,72.558l3.662-3.926c20.117,43.379,91.836,50.488,162.666,52.422
		c61.499,1.543,97.417-3.398,123.745-30.176l3.984,1.074c98.379,7.988,143.027-60.058,121.66-108.633l5.293-1.504
		c33.418-8.906,37.461-86.294-20.176-97.808l1.23-3.008c24.922-50.347-34.082-97.798-115.684-88.843l-5.781-2.974
		c-58.535-52.969-226.802-44.336-246.318,8.013L246.704,163.594z"/>
</g>
</svg>
