<?xml version="1.0" encoding="utf-8"?>
<!-- Generator: Adobe Illustrator 16.0.0, SVG Export Plug-In . SVG Version: 6.00 Build 0)  -->
<!DOCTYPE svg PUBLIC "-//W3C//DTD SVG 1.1//EN" "http://www.w3.org/Graphics/SVG/1.1/DTD/svg11.dtd">
<svg version="1.1" id="图层_1" xmlns="http://www.w3.org/2000/svg" xmlns:xlink="http://www.w3.org/1999/xlink" x="0px" y="0px"
	 width="512px" height="512px" viewBox="0 0 512 512" enable-background="new 0 0 512 512" xml:space="preserve">
<g>
	<path fill="#FA4D45" d="M498.092,101.331c-10.829-62.573-25.871-77.413-89.246-88.544c-40.412-7.02-97.369-11.131-156.331-11.131
		c-58.461,0-112.51,3.811-152.119,10.729c-62.573,10.83-77.413,25.872-88.544,89.247c-14.64,83.931-14.941,225.121-0.501,308.451
		c10.829,62.573,25.871,77.413,89.246,88.544c40.411,7.12,97.569,11.131,156.631,11.131c58.262,0,112.211-3.811,151.819-10.629
		c62.573-10.83,77.413-25.872,88.544-89.246C512.331,325.95,512.531,184.66,498.092,101.331 M482.248,407.174
		c-9.927,56.857-19.855,66.884-75.809,76.611c-38.808,6.719-91.754,10.428-149.212,10.428c-58.261,0-114.314-4.011-153.925-10.93
		c-56.857-9.927-66.884-19.855-76.511-75.81c-14.139-81.824-13.938-220.607,0.501-303.035c9.927-56.857,19.855-66.884,75.809-76.511
		c38.807-6.719,91.954-10.429,149.512-10.429c58.06,0,114.115,4.011,153.625,10.93c56.856,9.927,66.884,19.855,76.61,75.809
		C496.889,185.864,496.688,324.647,482.248,407.174"/>
	<path fill="#FA4D45" d="M178.766,291.617v-56.229c0,0-1.185-19.266-18.953-19.266h-50.967c-5.157,21.214-10.168,58.358,3.99,94.372
		h46.977C159.814,310.494,178.766,310.494,178.766,291.617 M159.617,292.206H122.11v-57.801h37.507V292.206z M273.967,310.394
		l0.014,0.018l0.027-0.018h18.564v-94.37h-18.949v59.232l-38.3-58.634v-0.598h-18.951v94.37h18.951V251.24l38.3,58.628v0.526
		L273.967,310.394L273.967,310.394z M154.415,194.136c11.076-17.805,26.778-32.177,45.459-41.965
		c-4.2,11.586-8.883,27.322-12.467,46.201h30.672c3.063-18.258,7.671-38.251,14.566-57.907l-1.548,0.143
		c7.544-1.51,15.336-2.341,23.326-2.341c8.114,0,15.967,1.008,23.615,2.582c6.754,19.326,11.335,39.553,14.389,57.522h30.655
		c-3.533-18.405-8.113-33.768-12.235-45.183c18.035,9.868,33.156,24.049,43.877,41.488c0.021,1.142,0.615,2.025,0.946,3.696h38.978
		c-22.674-54.944-76.883-93.661-140.225-93.661c-63.343,0-117.551,38.717-140.228,93.661h39.009
		C153.389,196.996,153.981,194.931,154.415,194.136 M312.038,357.586c3.139-9.219,5.506-18.205,7.614-27.095H289.54
		c-4.719,21.734-10.087,36.254-11.712,40.312c-7.569,1.519-15.389,2.349-23.405,2.349c-7.291,0-14.358-0.874-21.286-2.14
		c-0.517-1.219-6.593-16.018-11.961-40.521h-30.053c2.248,9.328,4.809,18.766,8.179,28.442
		c-13.467-7.149-25.117-16.92-34.781-28.442h-41.695c26.121,45.491,75.212,76.212,131.598,76.212
		c56.382,0,105.477-30.721,131.596-76.212h-41.702C335.262,341.297,324.487,350.587,312.038,357.586 M405.691,253.758v-0.183
		h-18.954v0.183H349.23v-18.862h54.668c-1.021-7.18-2.329-13.534-3.649-18.871h-69.774v0.193h-0.197v56.626h18.953v-0.213h37.507
		v18.893h-56.262v18.873h66.252c6.056-15.68,8.521-31.546,8.922-46.216l0.043,8.45h0.193V253.76h-0.194V253.758z"/>
</g>
</svg>
