<?xml version="1.0" encoding="utf-8"?>
<!-- Generator: Adobe Illustrator 16.0.0, SVG Export Plug-In . SVG Version: 6.00 Build 0)  -->
<!DOCTYPE svg PUBLIC "-//W3C//DTD SVG 1.1//EN" "http://www.w3.org/Graphics/SVG/1.1/DTD/svg11.dtd">
<svg version="1.1"
	 id="svg2" xmlns:dc="http://purl.org/dc/elements/1.1/" xmlns:cc="http://creativecommons.org/ns#" xmlns:rdf="http://www.w3.org/1999/02/22-rdf-syntax-ns#" xmlns:svg="http://www.w3.org/2000/svg"
	 xmlns="http://www.w3.org/2000/svg" xmlns:xlink="http://www.w3.org/1999/xlink" x="0px" y="0px" width="78px" height="9px"
	 viewBox="0 0 78 9" enable-background="new 0 0 78 9" xml:space="preserve">
<g id="g12" transform="scale(0.1,0.1)">
	<path id="path22" fill="#02709F" d="M44.934,89.995c-24.79,0-44.937-19.805-44.937-44.961C-0.002,20.229,19.788,0,44.934,0
		c24.795,0,45.293,20.229,45.293,45.034C90.227,70.112,69.729,89.995,44.934,89.995"/>
	<path id="path24" fill="#02709F" d="M270.74,89.995c-25.068,0-44.932-19.805-44.932-44.961C225.808,20.229,245.32,0,270.74,0
		c24.795,0,45.01,20.229,45.01,45.034C315.75,70.112,295.535,89.995,270.74,89.995"/>
	<path id="path26" fill="#02709F" d="M496.541,89.995c-25.059,0-44.941-19.805-44.941-44.961C451.599,20.229,470.857,0,496.541,0
		c24.541,0,45.029,20.229,45.029,45.034C541.57,70.112,521.082,89.995,496.541,89.995"/>
	<path id="path28" fill="#02709F" d="M734.949,89.995c-25.049,0-44.932-19.805-44.932-44.961C690.017,20.229,709.812,0,734.949,0
		c24.551,0,45.049,20.229,45.049,45.034C779.998,70.112,759.5,89.995,734.949,89.995"/>
</g>
</svg>
