<?xml version="1.0" encoding="utf-8"?>
<!-- Generator: Adobe Illustrator 16.0.0, SVG Export Plug-In . SVG Version: 6.00 Build 0)  -->
<!DOCTYPE svg PUBLIC "-//W3C//DTD SVG 1.1//EN" "http://www.w3.org/Graphics/SVG/1.1/DTD/svg11.dtd">
<svg version="1.1" id="图层_1" xmlns="http://www.w3.org/2000/svg" xmlns:xlink="http://www.w3.org/1999/xlink" x="0px" y="0px"
	 width="512px" height="512px" viewBox="0 0 512 512" enable-background="new 0 0 512 512" xml:space="preserve">
<g>
	<path fill="#1C93F5" d="M499.312,101.622c-10.858-62.535-25.861-77.443-89.254-88.524C369.701,6.033,312.722,2.001,253.791,2.001
		c-58.423,0-112.465,3.81-152.155,10.7C39.1,23.576,24.209,38.579,13.143,101.956c-14.685,83.92-14.907,225.152-0.492,308.39
		c10.843,62.535,25.846,77.411,89.254,88.524c40.452,7.064,97.526,11.129,156.616,11.129c58.281,0,112.212-3.778,151.854-10.653
		c62.551-10.858,77.443-25.878,88.508-89.27C513.553,326.124,513.759,184.892,499.312,101.622 M483.468,407.409
		c-9.938,56.819-19.845,66.838-75.808,76.569c-38.77,6.717-91.731,10.399-149.154,10.399c-58.217,0-114.307-3.969-153.917-10.891
		c-56.852-9.971-66.869-19.894-76.554-75.809c-14.161-81.793-13.955-220.563,0.476-303.04c9.938-56.804,19.845-66.822,75.792-76.538
		c38.833-6.747,91.906-10.462,149.472-10.462c58.058,0,114.053,3.969,153.568,10.875c56.804,9.954,66.822,19.861,76.554,75.808
		C498.105,186.114,497.899,324.917,483.468,407.409"/>
	<path fill="#1C93F5" d="M293.227,249.411l17.543-17.829c0,0-20.781-22.528-56.549-22.528s-51.771,22.02-51.771,22.02l17.098,17.511
		c0,0,9.986-13.082,33.832-13.082C280.621,235.52,293.227,249.411,293.227,249.411"/>
	<path fill="#1C93F5" d="M254.839,275.798c14.108,0,25.544,11.437,25.544,25.544c0,14.108-11.436,25.544-25.544,25.544
		c-14.108,0-25.544-11.436-25.544-25.544C229.295,287.234,240.731,275.798,254.839,275.798"/>
	<path fill="#1C93F5" d="M255.077,97.241c-87.715,0-118.196,49.676-118.196,49.676l21.115,20.321c0,0,23.846-41.817,97.923-41.817
		c74.093,0,99.082,41.277,99.082,41.277l20.099-22.163C375.115,144.519,342.791,97.241,255.077,97.241"/>
	<path fill="#1C93F5" d="M369.113,325.648l-0.111-40.118h-22.576c-1.127-21.448-16.797-35.753-16.797-35.753l-19.893,17.83
		c0,0,7.62,4.698,7.874,29.021c0.27,26.465-12.305,62.313-62.535,62.313c-50.247,0-60.122-38.404-60.122-61.456
		c0-23.053,9.367-30.721,9.367-30.721l-18.702-18.875c-17.495,18.129-17.543,37.658-17.543,37.658h-24.211v38.404h26.465
		c2.477,16.319,8.462,25.83,8.462,25.83l-16.543,19.924l31.037,29.259l17.924-19.051c10.446,9.526,25.338,11.129,25.338,11.129
		v23.719h40.166v-24.131c12.748-0.572,24.719-10.51,24.719-10.51l19.21,17.066l29.529-27.242l-17.781-19.162
		c6.891-7.652,11.24-25.29,11.24-25.29L369.113,325.648z"/>
	<path fill="#1C93F5" d="M321.676,209.912l19.067-22.353c0,0-32.863-34.832-86.524-34.832c-53.645,0-81.412,36.022-81.412,36.022
		l16.86,20.147c0,0,11.748-27.481,63.694-27.481C305.324,181.399,321.676,209.912,321.676,209.912"/>
</g>
</svg>
