<?xml version="1.0" encoding="utf-8"?>
<!-- Generator: Adobe Illustrator 16.0.0, SVG Export Plug-In . SVG Version: 6.00 Build 0)  -->
<!DOCTYPE svg PUBLIC "-//W3C//DTD SVG 1.1//EN" "http://www.w3.org/Graphics/SVG/1.1/DTD/svg11.dtd">
<svg version="1.1" id="图层_1" xmlns="http://www.w3.org/2000/svg" xmlns:xlink="http://www.w3.org/1999/xlink" x="0px" y="0px"
	 width="512px" height="512px" viewBox="0 0 512 512" enable-background="new 0 0 512 512" xml:space="preserve">
<path fill="#3B9CD9" d="M498.389,101.527c-10.829-62.573-25.871-77.413-89.246-88.544c-40.411-7.02-97.368-11.131-156.331-11.131
	c-58.461,0-112.51,3.811-152.119,10.729C38.12,23.411,23.28,38.453,12.149,101.828c-14.64,83.931-14.941,225.121-0.501,308.451
	c10.829,62.572,25.871,77.413,89.246,88.544c40.411,7.12,97.569,11.131,156.632,11.131c58.261,0,112.21-3.812,151.818-10.629
	c62.573-10.83,77.413-25.872,88.544-89.246C512.628,326.146,512.828,184.856,498.389,101.527 M482.545,407.37
	c-9.927,56.856-19.854,66.884-75.809,76.611c-38.808,6.719-91.753,10.428-149.211,10.428c-58.261,0-114.315-4.011-153.925-10.931
	c-56.857-9.927-66.884-19.854-76.511-75.809C12.95,325.845,13.151,187.062,27.59,104.635c9.927-56.857,19.855-66.884,75.809-76.511
	c38.807-6.719,91.954-10.429,149.512-10.429c58.06,0,114.115,4.011,153.624,10.93c56.856,9.927,66.884,19.855,76.611,75.809
	C497.186,186.06,496.985,324.843,482.545,407.37"/>
<path fill="#3B9CD9" d="M437.12,247.429c-2.106,0-4.011,0.602-5.816,1.504l-21.559-25.771c1.404-2.106,2.406-4.512,2.406-7.22
	c0-7.32-5.916-13.337-13.337-13.337c-1.203,0-2.206,0.401-3.31,0.702l-24.868-42.818c3.209-2.406,5.415-6.117,5.415-10.429
	c0-7.32-5.916-13.337-13.337-13.337c-5.014,0-9.226,2.908-11.532,7.019l-44.623-17.549c0.401-1.203,0.803-2.507,0.803-3.811
	c0-7.32-5.916-13.337-13.337-13.337c-7.32,0-13.338,5.916-13.338,13.337c0,2.005,0.503,3.811,1.203,5.415l-38.807,21.76
	c-2.406-3.309-6.117-5.616-10.529-5.616c-7.32,0-13.337,5.916-13.337,13.337c0,0.301,0.201,0.602,0.201,0.903l-51.342,9.125
	c-1.705-5.415-6.518-9.426-12.535-9.426c-7.32,0-13.337,5.916-13.337,13.337c0,5.315,3.209,9.927,7.721,12.033l-9.627,25.872
	c-1.203-0.301-2.306-0.702-3.61-0.702c-7.32,0-13.337,5.916-13.337,13.337c0,2.206,0.602,4.111,1.504,5.916L97.882,244.62
	c-2.407-2.507-5.716-4.011-9.526-4.011c-7.32,0-13.337,5.916-13.337,13.337c0,6.719,5.014,11.933,11.432,12.936v47.832
	c-6.418,0.903-11.432,6.217-11.432,12.937c0,7.319,5.916,13.337,13.337,13.337c3.51,0,6.719-1.404,9.125-3.71l28.378,24.267
	c-1.203,2.005-2.005,4.111-2.005,6.618c0,7.32,5.916,13.337,13.337,13.337c6.618,0,11.933-5.014,12.936-11.432h92.756
	c1.003,6.418,6.217,11.432,12.936,11.432c6.719,0,11.933-5.014,12.936-11.432h86.639c1.004,6.418,6.218,11.432,12.937,11.432
	c7.32,0,13.337-5.916,13.337-13.337c0-1.304-0.401-2.607-0.802-3.812l33.19-16.444c2.407,3.41,6.218,5.815,10.729,5.815
	c7.32,0,13.337-5.916,13.337-13.337c0-6.017-4.011-10.83-9.426-12.535l9.525-53.647c6.72-0.603,12.135-6.117,12.135-13.036
	C450.457,253.345,444.44,247.429,437.12,247.429 M395.705,228.477c1.003,0.301,2.105,0.602,3.209,0.602
	c3.008,0,5.616-1.203,7.721-2.808l20.958,25.069c-2.306,2.406-3.811,5.615-3.811,9.326c0,1.203,0.4,2.306,0.702,3.51l-47.832,20.256
	c-1.003-1.904-2.407-3.409-4.212-4.612L395.705,228.477z M368.531,278.014c-1.104-0.301-2.206-0.701-3.41-0.701
	c-1.203,0-2.306,0.4-3.41,0.701L345.968,236.7c3.71-2.106,6.318-5.816,6.72-10.228l33.692-7.019c0.903,3.008,2.707,5.515,5.315,7.22
	L368.531,278.014z M267.953,275.607c3.51-0.803,6.318-2.908,8.122-5.916l72.099,19.955l3.71,1.003c0,0.802,0.301,1.403,0.401,2.206
	l-73.403,19.052c-2.005-4.011-5.916-6.719-10.629-7.22v-0.401L267.953,275.607z M183.721,300.074l70.996-28.78
	c2.206,2.607,5.214,4.313,8.725,4.713l0.1,9.728l0.201,19.454c-4.313,1.103-7.621,4.11-9.125,8.223l-70.795-11.632
	c0-0.201,0.1-0.401,0.1-0.603C184.022,300.776,183.821,300.375,183.721,300.074 M150.128,221.257l61.068-14.44
	c2.106,4.613,6.719,7.922,12.134,7.922c2.005,0,3.811-0.502,5.515-1.304l26.874,39.91c-1.203,1.203-2.206,2.507-2.908,4.111
	l-103.084-33.994c0.1-0.702,0.401-1.304,0.401-2.005C150.228,221.357,150.128,221.257,150.128,221.257 M251.709,262.17
	c0,0.301-0.201,0.502-0.201,0.702c0,1.604,0.401,3.109,0.903,4.512l-69.793,28.278c-2.106-4.613-6.618-7.821-12.033-7.821
	c-0.602,0-1.203,0.301-1.805,0.401l-24.066-56.356c1.504-1.103,2.707-2.507,3.71-4.212L251.709,262.17z M259.43,250.838
	l-26.874-39.91c2.507-2.406,4.111-5.816,4.111-9.526v-0.301l46.428-9.727c1.203,2.908,3.41,5.214,6.218,6.618l-20.657,52.244
	c-1.203-0.401-2.407-0.802-3.71-0.802C262.94,249.635,261.034,250.137,259.43,250.838 M277.58,265.579
	c0.201-0.903,0.502-1.705,0.502-2.607c0-0.702-0.301-1.403-0.401-2.105l52.244-26.473c2.407,2.607,5.816,4.212,9.627,4.212
	c0.802,0,1.404-0.301,2.106-0.401l15.844,41.814c-2.306,1.604-4.011,3.71-5.014,6.419L277.58,265.579z M362.915,163.197
	c1.404,0,2.707-0.401,4.011-0.802l24.769,42.618c-3.31,2.206-5.516,5.816-5.816,10.028l-33.492,6.919
	c-0.902-3.51-3.108-6.418-6.217-8.223l15.042-50.941C361.712,162.896,362.213,163.197,362.915,163.197 M352.787,158.183
	c1.103,1.404,2.507,2.507,4.111,3.41l-13.738,46.328l-1.304,4.412c-0.702-0.1-1.404-0.401-2.206-0.401
	c-3.41,0-6.418,1.404-8.825,3.51l-24.167-22.362c1.103-2.005,2.005-4.111,2.005-6.518c0-1.304-0.401-2.607-0.802-3.811
	L352.787,158.183z M304.655,130.106l45.325,17.849c-0.101,0.702-0.401,1.304-0.401,2.005c0,1.604,0.401,3.109,0.903,4.512
	l-44.623,24.267c-1.905-2.507-4.613-4.313-7.821-5.014l-1.304-37.403l-0.101-1.304C300.042,134.417,302.749,132.613,304.655,130.106
	 M295.329,199.798c3.309,0,6.217-1.304,8.523-3.309l24.268,22.462c-1.003,1.905-1.805,3.911-1.805,6.318
	c0,1.905,0.4,3.71,1.202,5.315l-51.141,25.972c-0.903-1.705-2.206-3.108-3.811-4.211l20.957-52.947
	C294.126,199.497,294.727,199.798,295.329,199.798 M245.291,153.47l39.308-22.061c2.005,2.106,4.714,3.309,7.621,3.811l1.305,38.406
	c-3.71,0.502-6.819,2.406-8.926,5.315l-39.509-17.749c0.401-1.304,0.802-2.607,0.802-4.011
	C245.993,155.877,245.592,154.673,245.291,153.47 M232.355,170.416c0.1,0,0.201,0.1,0.301,0.1c4.312,0,8.022-2.206,10.429-5.415
	l39.609,17.849c-0.302,1.203-0.702,2.306-0.702,3.61c0,0.201,0.1,0.401,0.1,0.702l-46.528,9.727c-1.304-3.41-3.811-6.217-7.22-7.621
	L232.355,170.416z M168.88,171.52l51.642-9.125c1.404,3.309,4.111,5.816,7.521,7.12l-4.011,18.852c-0.301,0-0.502-0.201-0.802-0.201
	c-4.613,0-8.423,2.507-10.83,6.017l-44.122-19.955C168.579,173.324,168.88,172.422,168.88,171.52 M154.541,184.054
	c0.401,0,0.802,0.201,1.203,0.201c4.613,0,8.423-2.507,10.83-6.017l44.122,19.955c-0.301,1.103-0.702,2.106-0.702,3.209
	c0,0.401,0.201,0.702,0.201,1.003l-60.968,14.44c-0.903-2.507-2.607-4.512-4.713-6.117L154.541,184.054z M127.666,230.984
	c2.407,2.306,5.616,3.71,9.226,3.71c1.404,0,2.607-0.401,3.911-0.802l23.866,55.553c-1.504,0.802-2.808,1.805-3.911,3.108
	l-52.745-31.287l-6.719-4.011c0.401-1.203,0.802-2.406,0.802-3.811c0-2.005-0.502-3.811-1.304-5.515L127.666,230.984z
	 M91.266,314.414v-48.133c3.309-0.702,6.017-2.407,7.922-5.015l59.163,35.098c-0.602,1.504-1.003,3.108-1.003,4.813
	c0,1.003,0.401,2.005,0.602,2.908l-57.759,16.746C98.386,317.522,95.177,315.216,91.266,314.414 M137.494,354.324
	c-3.209,0-6.117,1.304-8.423,3.209l-28.679-24.367c0.903-1.805,1.604-3.811,1.604-6.017c0-0.702-0.301-1.404-0.401-2.106l3.41-1.003
	l54.751-15.944c1.203,1.806,2.707,3.31,4.613,4.412l-23.164,42.518C139.9,354.725,138.797,354.324,137.494,354.324 M148.324,360.44
	c-0.802-1.304-1.905-2.406-3.209-3.409l23.465-43.02c0.702,0.101,1.404,0.401,2.106,0.401c5.616,0,10.328-3.41,12.234-8.323
	l70.795,11.532v0.1c0,0.702,0.301,1.305,0.401,1.905L148.324,360.44z M255.118,354.524c-6.017,0.4-10.729,4.813-11.833,10.528
	h-92.956c0-0.201-0.1-0.301-0.1-0.502l105.39-40.611c1.304,2.507,3.309,4.512,5.916,5.716L255.118,354.524z M355.695,365.053h-86.84
	c-1.004-4.913-4.513-8.724-9.227-10.027l6.117-24.268c0.502,0,0.903,0.301,1.404,0.301c4.412,0,8.122-2.306,10.528-5.515
	l78.416,38.005C355.796,364.051,355.796,364.552,355.695,365.053 M358.102,359.638l-78.517-38.104
	c0.401-1.203,0.802-2.407,0.802-3.812c0-0.602-0.301-1.103-0.301-1.604l73.703-19.052c2.005,3.409,5.314,5.815,9.326,6.418
	l2.908,51.342C362.815,355.427,360.007,357.131,358.102,359.638 M412.351,343.293l-33.392,16.546
	c-2.005-2.707-5.014-4.613-8.524-5.114l-2.907-51.342c1.904-0.4,3.609-1.103,5.214-2.206l40.611,32.59
	c-1.003,1.806-1.704,3.812-1.704,6.117C411.65,341.188,412.051,342.19,412.351,343.293 M424.385,326.748
	c-3.309,0.1-6.217,1.404-8.523,3.51l-32.189-25.771l-8.021-6.418c1.504-2.206,2.606-4.613,2.606-7.521
	c0-0.702-0.301-1.304-0.4-1.905l48.434-20.457c1.805,2.508,4.312,4.313,7.42,5.114L424.385,326.748z"/>
</svg>
