<?xml version="1.0" encoding="utf-8"?>
<!-- Generator: Adobe Illustrator 16.0.0, SVG Export Plug-In . SVG Version: 6.00 Build 0)  -->
<!DOCTYPE svg PUBLIC "-//W3C//DTD SVG 1.1//EN" "http://www.w3.org/Graphics/SVG/1.1/DTD/svg11.dtd">
<svg version="1.1"
	 id="svg2" xmlns:dc="http://purl.org/dc/elements/1.1/" xmlns:cc="http://creativecommons.org/ns#" xmlns:rdf="http://www.w3.org/1999/02/22-rdf-syntax-ns#" xmlns:svg="http://www.w3.org/2000/svg"
	 xmlns="http://www.w3.org/2000/svg" xmlns:xlink="http://www.w3.org/1999/xlink" x="0px" y="0px" width="80px" height="40px"
	 viewBox="0 0 80 40" enable-background="new 0 0 80 40" xml:space="preserve">
<g id="g12" transform="scale(0.1,0.1)">
	<path id="path22" fill="none" stroke="#91C2E3" stroke-width="15" d="M400,351.299c183.477,0,332.363-67.851,332.363-151.289
		c0-83.521-148.887-151.206-332.363-151.206c-183.579,0-332.373,67.686-332.373,151.206C67.627,283.447,216.421,351.299,400,351.299
		z"/>
	<path id="path24" fill="none" stroke="#087FBF" stroke-width="15" d="M400,385c209.902,0,380-82.734,380-184.99
		C780,97.842,609.902,15,400,15C190.093,15,20,97.842,20,200.01C20,302.266,190.093,385,400,385z"/>
	<g id="g26" transform="scale(10,10)" style="font-variant:normal;font-weight:bold;font-size:13.1256px;font-family:Helvetica;-inkscape-font-specification:Helvetica-Bold;writing-mode:lr-tb;fill:#231f20;fill-opacity:1;fill-rule:nonzero;stroke:none">
		<text transform="matrix(0.999 0 0 1 27.4722 24.5732)">D</text>
		<text transform="matrix(0.999 0 0 1 36.938 24.5732)">P</text>
		<text transform="matrix(0.999 0 0 1 45.6875 24.5732)">T</text>
		<text transform="matrix(0.999 0 0 1 53.6953 24.5732)">     </text>
	</g>
</g>
</svg>
