<?xml version="1.0" encoding="utf-8"?>
<!-- Generator: Adobe Illustrator 16.0.0, SVG Export Plug-In . SVG Version: 6.00 Build 0)  -->
<!DOCTYPE svg PUBLIC "-//W3C//DTD SVG 1.1//EN" "http://www.w3.org/Graphics/SVG/1.1/DTD/svg11.dtd">
<svg version="1.1" id="图层_1" xmlns="http://www.w3.org/2000/svg" xmlns:xlink="http://www.w3.org/1999/xlink" x="0px" y="0px"
	 width="512px" height="512px" viewBox="0 0 512 512" enable-background="new 0 0 512 512" xml:space="preserve">
<g>
	<path fill="#38C4F5" d="M499.037,101.813c-10.847-62.461-25.838-77.337-89.152-88.42c-40.31-7.053-97.21-11.098-156.091-11.098
		c-58.363,0-112.338,3.801-151.978,10.687c-62.468,10.855-77.345,25.853-88.405,89.152c-14.663,83.819-14.884,224.882-0.48,308.031
		c10.817,62.461,25.815,77.329,89.152,88.42c40.409,7.069,97.431,11.121,156.434,11.121h0.009
		c58.218,0,112.087-3.778,151.665-10.634c62.476-10.862,77.359-25.854,88.404-89.167
		C513.266,326.071,513.464,184.977,499.037,101.813 M483.24,407.222c-9.918,56.764-19.82,66.772-75.715,76.492
		c-38.727,6.703-91.636,10.39-149,10.39h-0.009c-58.148,0-114.181-3.961-153.745-10.877c-56.786-9.947-66.795-19.865-76.469-75.715
		c-14.153-81.702-13.939-220.319,0.48-302.699c9.918-56.748,19.82-66.757,75.7-76.461c38.794-6.741,91.817-10.458,149.312-10.458
		c58.012,0,113.938,3.961,153.41,10.868c56.748,9.933,66.757,19.843,76.477,75.715C497.85,186.186,497.652,324.819,483.24,407.222"
		/>
	<path fill="#38C4F5" d="M340.049,127.242l-84.508-49.429l-84.508,49.429v94.075l84.508,49.429l84.508-49.429V127.242z
		 M308.159,202.183l-52.618,31.89l-52.618-31.89v-55.807l52.618-31.89l52.618,31.89V202.183z M80.147,289.88v94.075l81.319,49.429
		l79.725-49.429V289.88l-79.725-49.429L80.147,289.88z M212.489,364.821L161.466,399.9l-51.024-33.484v-57.402l51.024-33.483
		l51.024,31.89L212.489,364.821L212.489,364.821z M349.616,240.451l-81.319,49.429v94.075l81.319,49.429l81.318-49.429V289.88
		L349.616,240.451z M400.639,364.821l-49.429,31.89l-51.024-31.89v-55.808l51.024-31.89l49.429,31.89V364.821z"/>
</g>
</svg>
