<?xml version="1.0" encoding="utf-8"?>
<!-- Generator: Adobe Illustrator 16.0.0, SVG Export Plug-In . SVG Version: 6.00 Build 0)  -->
<!DOCTYPE svg PUBLIC "-//W3C//DTD SVG 1.1//EN" "http://www.w3.org/Graphics/SVG/1.1/DTD/svg11.dtd">
<svg version="1.1"
	 id="图层_1" xmlns:dc="http://purl.org/dc/elements/1.1/" xmlns:cc="http://creativecommons.org/ns#" xmlns:rdf="http://www.w3.org/1999/02/22-rdf-syntax-ns#"
	 xmlns="http://www.w3.org/2000/svg" xmlns:xlink="http://www.w3.org/1999/xlink" x="0px" y="0px" width="75px" height="70px"
	 viewBox="0 0 75 70" enable-background="new 0 0 75 70" xml:space="preserve">
<path fill="#00BCF2" d="M26.346,63.418l-10.931-6.574v-2.592c0-2.034,0.04-2.568,0.184-2.478c0.102,0.061,1.509,0.982,3.129,2.048
	c1.619,1.064,3.022,1.983,3.118,2.041c0.104,0.063,3.188-2.391,7.794-6.201c4.192-3.469,7.7-6.313,7.794-6.32
	c0.095-0.01,3.474,2.71,7.507,6.045c4.035,3.333,7.485,6.176,7.666,6.321c0.326,0.258,0.371,0.233,3.566-1.872
	c1.779-1.174,3.275-2.095,3.323-2.046c0.047,0.047,0.083,1.161,0.083,2.477c0,2.094-0.03,2.42-0.256,2.615
	C58.883,57.263,37.632,70.007,37.45,70C37.354,69.996,32.358,67.034,26.346,63.418L26.346,63.418z M11.133,46.268
	C5.107,42.319,0.125,39.04,0.06,38.977c-0.063-0.063,3.249-2.821,7.361-6.134c4.113-3.313,7.497-6.075,7.52-6.136
	c0.023-0.063-3.323-2.825-7.435-6.137C3.394,17.255,0.017,14.502,0,14.449C-0.042,14.315,21.891,0.012,22.106,0.032
	c0.096,0.008,3.57,2.869,7.718,6.356c4.148,3.487,7.588,6.356,7.645,6.377c0.057,0.02,3.509-2.825,7.671-6.324
	C49.303,2.942,52.766,0.043,52.837,0C52.982-0.091,75.048,14.3,75,14.454c-0.018,0.055-3.396,2.809-7.51,6.121
	c-4.11,3.313-7.457,6.07-7.434,6.129c0.021,0.059,3.404,2.82,7.519,6.134c4.114,3.316,7.426,6.081,7.36,6.145
	c-0.065,0.065-5.043,3.347-11.063,7.293l-10.945,7.174l-2.598-2.187c-1.429-1.202-4.873-4.103-7.654-6.44
	c-2.849-2.398-5.139-4.219-5.249-4.177c-0.15,0.057-9.075,7.501-14.588,12.167l-0.748,0.633L11.133,46.268z M48.557,33.561
	c5.941-3.637,10.885-6.686,10.981-6.775c0.134-0.122-2.576-1.851-10.802-6.889c-6.038-3.699-11.09-6.725-11.225-6.725
	c-0.354,0-22.25,13.429-22.117,13.563c0.324,0.327,22.055,13.542,22.193,13.494C37.678,40.2,42.613,37.198,48.557,33.561z"/>
</svg>
