<?xml version="1.0" encoding="utf-8"?>
<!-- Generator: Adobe Illustrator 16.0.0, SVG Export Plug-In . SVG Version: 6.00 Build 0)  -->
<!DOCTYPE svg PUBLIC "-//W3C//DTD SVG 1.1//EN" "http://www.w3.org/Graphics/SVG/1.1/DTD/svg11.dtd">
<svg version="1.1"
	 id="svg2" xmlns:dc="http://purl.org/dc/elements/1.1/" xmlns:cc="http://creativecommons.org/ns#" xmlns:rdf="http://www.w3.org/1999/02/22-rdf-syntax-ns#" xmlns:svg="http://www.w3.org/2000/svg"
	 xmlns="http://www.w3.org/2000/svg" xmlns:xlink="http://www.w3.org/1999/xlink" x="0px" y="0px" width="71px" height="80px"
	 viewBox="0 0 71 80" enable-background="new 0 0 71 80" xml:space="preserve">
<g id="g12" transform="scale(0.1,0.1)">
	<path id="path22" fill="#087FBF" d="M709.995,185.508v329.58l-58.457,100.605V286.054L709.995,185.508"/>
	<path id="path24" fill="none" stroke="#FFFFFF" stroke-width="4" d="M709.995,185.508v329.58l-58.457,100.605V286.054
		L709.995,185.508z"/>
	<path id="path26" fill="#087FBF" d="M144.785,95.078H0L58.472,0h144.785l361.992,185.508h144.746l-58.457,100.547H506.733"/>
	<path id="path28" fill="none" stroke="#FFFFFF" stroke-width="4" d="M144.785,95.078H0L58.472,0h144.785l361.992,185.508h144.746
		l-58.457,100.547H506.733"/>
	<path id="path30" fill="#087FBF" d="M145.186,95.493l361.938,190.561h-0.391h144.805v329.639H506.733h0.391L145.186,800l-0.4-0.576
		H0V94.761h144.785L145.186,95.493"/>
	<path id="path32" fill="none" stroke="#FFFFFF" stroke-width="4" d="M145.186,95.493l361.938,190.561h-0.391h144.805v329.639
		H506.733h0.391L145.186,800l-0.4-0.576H0V94.761h144.785L145.186,95.493z"/>
	<path id="path34" fill="#FFFFFF" d="M472.925,439.785v-42.578l127.539,52.041l-127.539,52.744v-42.637H189.233v-19.57H472.925"/>
	<path id="path36" fill="#FFFFFF" d="M180.522,283.574v-16.797h198.535l125.137,68.877l20.43-37.363l86.777,107.188l-137.051-15.322
		l20.469-37.383l-115.059-67.471L180.522,283.574"/>
	<path id="path38" fill="#FFFFFF" d="M379.761,617.304l115.059-67.441l-20.469-37.393l137.051-15.371l-86.777,107.256l-20.43-37.393
		L379.058,635.83H180.522v-16.797L379.761,617.304"/>
</g>
</svg>
