<?xml version="1.0" encoding="utf-8"?>
<!-- Generator: Adobe Illustrator 16.0.0, SVG Export Plug-In . SVG Version: 6.00 Build 0)  -->
<!DOCTYPE svg PUBLIC "-//W3C//DTD SVG 1.1//EN" "http://www.w3.org/Graphics/SVG/1.1/DTD/svg11.dtd">
<svg version="1.1" id="图层_1" xmlns="http://www.w3.org/2000/svg" xmlns:xlink="http://www.w3.org/1999/xlink" x="0px" y="0px"
	 width="512px" height="512px" viewBox="0 0 512 512" enable-background="new 0 0 512 512" xml:space="preserve">
<g>
	<path fill="#4BECBC" d="M498.305,101.513c-10.842-62.465-25.834-77.347-89.15-88.423C368.842,6.04,311.932,2,253.06,2
		C194.7,2,140.724,5.809,101.082,12.688C38.622,23.544,23.739,38.535,12.68,101.84C-1.984,185.659-2.205,326.73,12.195,409.878
		c10.826,62.465,25.818,77.329,89.154,88.423c40.401,7.065,97.422,11.123,156.438,11.123c58.219,0,112.086-3.773,151.679-10.641
		c62.479-10.856,77.358-25.854,88.403-89.17C512.532,325.763,512.737,184.676,498.305,101.513 M482.487,406.945
		c-9.921,56.753-19.827,66.769-75.725,76.483c-38.721,6.709-91.636,10.394-148.994,10.394c-58.143,0-114.176-3.962-153.735-10.873
		c-56.784-9.952-66.801-19.874-76.473-75.726c-14.147-81.694-13.934-220.315,0.481-302.702
		c9.922-56.737,19.828-66.753,75.707-76.456c38.797-6.739,91.809-10.452,149.311-10.452c57.999,0,113.927,3.962,153.396,10.858
		c56.735,9.937,66.75,19.843,76.471,75.722C497.104,185.909,496.902,324.546,482.487,406.945"/>
	<path fill="#4BECBC" d="M366.943,172.46c-8.895-49.401-52.102-86.882-104.063-86.882c-42.292,0-78.779,24.832-95.692,60.708
		c-0.961-0.032-1.924-0.054-2.893-0.054c-47.135,0-85.345,38.21-85.345,85.345c0,47.135,38.211,85.345,85.345,85.345
		c0.838,0,1.673-0.016,2.505-0.039v0.039h9.75l12.433-44.741l-30.086-27.721L285.6,156.79L204.226,431l130.475-84.95l-32.382-29.346
		l49.663,0.216h2.862v-0.061c38.988-1.504,70.137-33.581,70.137-72.938C424.981,208.733,400.082,179.362,366.943,172.46"/>
</g>
</svg>
