<?xml version="1.0" encoding="utf-8"?>
<!-- Generator: Adobe Illustrator 16.0.0, SVG Export Plug-In . SVG Version: 6.00 Build 0)  -->
<!DOCTYPE svg PUBLIC "-//W3C//DTD SVG 1.1//EN" "http://www.w3.org/Graphics/SVG/1.1/DTD/svg11.dtd">
<svg version="1.1"
	 id="svg2" xmlns:dc="http://purl.org/dc/elements/1.1/" xmlns:cc="http://creativecommons.org/ns#" xmlns:rdf="http://www.w3.org/1999/02/22-rdf-syntax-ns#" xmlns:svg="http://www.w3.org/2000/svg"
	 xmlns="http://www.w3.org/2000/svg" xmlns:xlink="http://www.w3.org/1999/xlink" x="0px" y="0px" width="77px" height="54px"
	 viewBox="0 0 77 54" enable-background="new 0 0 77 54" xml:space="preserve">
<g id="g12" transform="scale(0.1,0.1)">
	<path id="path22" fill="none" stroke="#FFFFFF" stroke-width="4.5" stroke-linecap="round" stroke-miterlimit="1" d="
		M597.971,436.418c0,0-42.1,107.754-92.627-0.488c-50.479-108.232-92.617-0.146-92.617-0.146s-42.09,108.125-92.725-0.127
		c-50.479-108.535-92.49,0.4-92.49,0.4s-41.885,108.115-92.539-0.127c-50.649-108.232-92.5-0.195-92.5-0.195"/>
	<path id="path24" fill="none" stroke="#FFFFFF" stroke-width="8.9999" stroke-linecap="round" stroke-miterlimit="1" d="
		M42.473,436.418c0,0,42.104,107.754,92.603-0.488c50.649-108.232,92.793-0.146,92.793-0.146s42.085,108.125,92.554-0.127
		c50.645-108.535,92.49,0.4,92.49,0.4s42.031,108.115,92.549-0.127c50.791-108.232,92.51-0.195,92.51-0.195"/>
	<path id="path26" fill="none" stroke="#000000" stroke-width="4.5" stroke-linecap="round" stroke-miterlimit="1" d="
		M607.727,436.418c0,0-42.09,107.754-92.617-0.488c-50.469-108.232-92.627-0.146-92.627-0.146s-42.08,108.125-92.725-0.127
		c-50.469-108.535-92.48,0.4-92.48,0.4s-42.046,108.115-92.544-0.127c-50.654-108.232-92.5-0.176-92.5-0.176"/>
	<path id="path28" fill="none" stroke="#000000" stroke-width="8.9999" stroke-linecap="round" stroke-miterlimit="1" d="
		M52.234,436.418c0,0,42.1,107.754,92.598-0.488c50.654-108.232,92.798-0.146,92.798-0.146s42.09,108.125,92.559-0.127
		c50.645-108.535,92.49,0.4,92.49,0.4s42.031,108.115,92.549-0.127c50.791-108.232,92.5-0.176,92.5-0.176"/>
	<path id="path30" fill="none" stroke="#FFFFFF" stroke-width="4.5" stroke-linecap="round" stroke-miterlimit="1" d="
		M597.971,436.418c0,0-42.1,107.754-92.627-0.488c-50.479-108.232-92.617-0.146-92.617-0.146s-42.09,108.125-92.725-0.127
		c-50.479-108.535-92.49,0.4-92.49,0.4s-41.885,108.115-92.539-0.127c-50.649-108.232-92.5-0.195-92.5-0.195"/>
	<path id="path32" fill="none" stroke="#FFFFFF" stroke-width="8.9999" stroke-linecap="round" stroke-miterlimit="1" d="
		M42.473,436.418c0,0,42.104,107.754,92.603-0.488c50.649-108.232,92.793-0.146,92.793-0.146s42.085,108.125,92.554-0.127
		c50.645-108.535,92.49,0.4,92.49,0.4s42.031,108.115,92.549-0.127c50.791-108.232,92.51-0.195,92.51-0.195"/>
	<path id="path34" fill="#02709F" d="M0.002,122.078L165.457,0.002h604.546L649.68,122.078H0.002"/>
	<path id="path36" fill="none" stroke="#FFFFFF" stroke-width="3.9999" d="M0.002,122.078L165.457,0.002h604.546L649.68,122.078
		H0.002z"/>
	<path id="path38" fill="#02709F" d="M649.68,539.573l120.322-121.67V0.369L649.68,122.078V539.573"/>
	<path id="path40" fill="none" stroke="#FFFFFF" stroke-width="3.9999" d="M649.68,539.573l120.322-121.67V0.369L649.68,122.078
		V539.573z"/>
	<path id="path42" fill="#02709F" d="M0.837,540.002H649.68V122.078H0.837V540.002z"/>
	<path id="path44" fill="none" stroke="#FFFFFF" stroke-width="3.9999" d="M0.837,540.002H649.68V122.078H0.837V540.002z"/>
	<path id="path46" fill="none" stroke="#FFFFFF" stroke-width="4.5" stroke-linecap="round" stroke-miterlimit="1" d="
		M597.971,228.938c0,0-42.1,107.929-92.627-0.352c-50.479-108.364-92.617-0.273-92.617-0.273s-42.09,108.281-92.725-0.117
		c-50.479-108.408-92.49,0.527-92.49,0.527s-41.885,108.144-92.539-0.137c-50.649-108.364-92.5-0.332-92.5-0.332"/>
	<path id="path48" fill="none" stroke="#FFFFFF" stroke-width="8.9999" stroke-linecap="round" stroke-miterlimit="1" d="
		M42.473,228.938c0,0,42.104,107.929,92.603-0.352c50.649-108.364,92.793-0.273,92.793-0.273s42.085,108.281,92.554-0.117
		c50.645-108.408,92.49,0.527,92.49,0.527s42.031,108.144,92.549-0.137c50.791-108.364,92.51-0.332,92.51-0.332"/>
	<path id="path50" fill="none" stroke="#000000" stroke-width="4.5" stroke-linecap="round" stroke-miterlimit="1" d="
		M607.727,228.938c0,0-42.09,107.929-92.617-0.352c-50.469-108.364-92.627-0.273-92.627-0.273s-42.08,108.281-92.725-0.117
		c-50.469-108.408-92.48,0.527-92.48,0.527s-42.046,108.144-92.544-0.137c-50.654-108.364-92.5-0.332-92.5-0.332"/>
	<path id="path52" fill="none" stroke="#000000" stroke-width="8.9999" stroke-linecap="round" stroke-miterlimit="1" d="
		M52.234,228.938c0,0,42.1,107.929,92.598-0.352c50.654-108.364,92.798-0.273,92.798-0.273s42.09,108.281,92.559-0.117
		c50.645-108.408,92.49,0.527,92.49,0.527s42.031,108.144,92.549-0.137c50.791-108.364,92.5-0.332,92.5-0.332"/>
	<path id="path54" fill="none" stroke="#FFFFFF" stroke-width="4.5" stroke-linecap="round" stroke-miterlimit="1" d="
		M597.971,228.938c0,0-42.1,107.929-92.627-0.352c-50.479-108.364-92.617-0.273-92.617-0.273s-42.09,108.281-92.725-0.117
		c-50.479-108.408-92.49,0.527-92.49,0.527s-41.885,108.144-92.539-0.137c-50.649-108.364-92.5-0.332-92.5-0.332"/>
	<path id="path56" fill="none" stroke="#FFFFFF" stroke-width="8.9999" stroke-linecap="round" stroke-miterlimit="1" d="
		M42.473,228.938c0,0,42.104,107.929,92.603-0.352c50.649-108.364,92.793-0.273,92.793-0.273s42.085,108.281,92.554-0.117
		c50.645-108.408,92.49,0.527,92.49,0.527s42.031,108.144,92.549-0.137c50.791-108.364,92.51-0.332,92.51-0.332"/>
	<path id="path58" fill="none" stroke="#000000" stroke-width="4.5" stroke-linecap="round" stroke-miterlimit="1" d="
		M607.727,228.938c0,0-42.09,107.929-92.617-0.352c-50.469-108.364-92.627-0.273-92.627-0.273s-42.08,108.281-92.725-0.117
		c-50.469-108.408-92.48,0.527-92.48,0.527s-42.046,108.144-92.544-0.137c-50.654-108.364-92.5-0.332-92.5-0.332"/>
	<path id="path60" fill="none" stroke="#000000" stroke-width="8.9999" stroke-linecap="round" stroke-miterlimit="1" d="
		M52.234,228.938c0,0,42.1,107.929,92.598-0.352c50.654-108.364,92.798-0.273,92.798-0.273s42.09,108.281,92.559-0.117
		c50.645-108.408,92.49,0.527,92.49,0.527s42.031,108.144,92.549-0.137c50.791-108.364,92.5-0.332,92.5-0.332"/>
	<path id="path62" fill="none" stroke="#FFFFFF" stroke-width="4.5" stroke-linecap="round" stroke-miterlimit="1" d="
		M597.971,228.938c0,0-42.1,107.929-92.627-0.352c-50.479-108.364-92.617-0.273-92.617-0.273s-42.09,108.281-92.725-0.117
		c-50.479-108.408-92.49,0.527-92.49,0.527s-41.885,108.144-92.539-0.137c-50.649-108.364-92.5-0.332-92.5-0.332"/>
	<path id="path64" fill="none" stroke="#FFFFFF" stroke-width="8.9999" stroke-linecap="round" stroke-miterlimit="1" d="
		M42.473,228.938c0,0,42.104,107.929,92.603-0.352c50.649-108.364,92.793-0.273,92.793-0.273s42.085,108.281,92.554-0.117
		c50.645-108.408,92.49,0.527,92.49,0.527s42.031,108.144,92.549-0.137c50.791-108.364,92.51-0.332,92.51-0.332"/>
	<path id="path66" fill="none" stroke="#000000" stroke-width="4.5" stroke-linecap="round" stroke-miterlimit="1" d="
		M607.727,436.418c0,0-42.09,107.754-92.617-0.488c-50.469-108.232-92.627-0.146-92.627-0.146s-42.08,108.125-92.725-0.127
		c-50.469-108.535-92.48,0.4-92.48,0.4s-42.046,108.115-92.544-0.127c-50.654-108.232-92.5-0.176-92.5-0.176"/>
	<path id="path68" fill="none" stroke="#000000" stroke-width="8.9999" stroke-linecap="round" stroke-miterlimit="1" d="
		M52.234,436.418c0,0,42.1,107.754,92.598-0.488c50.654-108.232,92.798-0.146,92.798-0.146s42.09,108.125,92.559-0.127
		c50.645-108.535,92.49,0.4,92.49,0.4s42.031,108.115,92.549-0.127c50.791-108.232,92.5-0.176,92.5-0.176"/>
	<path id="path70" fill="none" stroke="#FFFFFF" stroke-width="4.5" stroke-linecap="round" stroke-miterlimit="1" d="
		M597.971,436.418c0,0-42.1,107.754-92.627-0.488c-50.479-108.232-92.617-0.146-92.617-0.146s-42.09,108.125-92.725-0.127
		c-50.479-108.535-92.49,0.4-92.49,0.4s-41.885,108.115-92.539-0.127c-50.649-108.232-92.5-0.195-92.5-0.195"/>
	<path id="path72" fill="none" stroke="#FFFFFF" stroke-width="8.9999" stroke-linecap="round" stroke-miterlimit="1" d="
		M42.473,436.418c0,0,42.104,107.754,92.603-0.488c50.649-108.232,92.793-0.146,92.793-0.146s42.085,108.125,92.554-0.127
		c50.645-108.535,92.49,0.4,92.49,0.4s42.031,108.115,92.549-0.127c50.791-108.232,92.51-0.195,92.51-0.195"/>
</g>
</svg>
