<?xml version="1.0" encoding="utf-8"?>
<!-- Generator: Adobe Illustrator 16.0.0, SVG Export Plug-In . SVG Version: 6.00 Build 0)  -->
<!DOCTYPE svg PUBLIC "-//W3C//DTD SVG 1.1//EN" "http://www.w3.org/Graphics/SVG/1.1/DTD/svg11.dtd">
<svg version="1.1"
	 id="svg2" xmlns:dc="http://purl.org/dc/elements/1.1/" xmlns:cc="http://creativecommons.org/ns#" xmlns:rdf="http://www.w3.org/1999/02/22-rdf-syntax-ns#" xmlns:svg="http://www.w3.org/2000/svg"
	 xmlns="http://www.w3.org/2000/svg" xmlns:xlink="http://www.w3.org/1999/xlink" x="0px" y="0px" width="56px" height="78px"
	 viewBox="0 0 56 78" enable-background="new 0 0 56 78" xml:space="preserve">
<g id="g12" transform="scale(0.1,0.1)">
	<path id="path22" fill="#087FBF" d="M237.573,219.392L116.606,32.517l32.295-32.52l124.971,186.875L237.573,219.392"/>
	<path id="path24" fill="none" stroke="#FFFFFF" stroke-width="4" d="M237.573,219.392L116.606,32.517l32.295-32.52l124.971,186.875
		L237.573,219.392z"/>
	<path id="path26" fill="#087FBF" d="M116.606,779.997l120.967-186.865v-373.74L116.606,32.517V779.997"/>
	<path id="path28" fill="none" stroke="#FFFFFF" stroke-width="4" d="M116.606,779.997l120.967-186.865v-373.74L116.606,32.517
		V779.997z"/>
	<path id="path30" fill="#087FBF" d="M237.573,593.132v-373.74"/>
	<path id="path32" fill="none" stroke="#FFFFFF" stroke-width="4" d="M237.573,593.132v-373.74"/>
	<path id="path34" fill="#087FBF" d="M237.573,593.132v-373.74"/>
	<path id="path36" fill="none" stroke="#FFFFFF" stroke-width="4" d="M237.573,593.132v-373.74"/>
	<path id="path38" fill="#087FBF" d="M423.433,592.575V218.85l32.266-32.51v373.716L423.433,592.575"/>
	<path id="path40" fill="none" stroke="#FFFFFF" stroke-width="4" d="M423.433,592.575V218.85l32.266-32.51v373.716L423.433,592.575
		z"/>
	<path id="path42" fill="#087FBF" d="M423.433,218.85H237.935l36.26-32.51h181.504L423.433,218.85"/>
	<path id="path44" fill="none" stroke="#FFFFFF" stroke-width="4" d="M423.433,218.85H237.935l36.26-32.51h181.504L423.433,218.85z"
		/>
	<path id="path46" fill="#087FBF" d="M237.935,592.575h185.498V218.85H237.935V592.575z"/>
	<path id="path48" fill="none" stroke="#FFFFFF" stroke-width="4" d="M237.935,592.575h185.498V218.85H237.935V592.575z"/>
	<path id="path50" fill="#231F20" d="M237.935,592.575h185.498"/>
	
		<path id="path52" fill="none" stroke="#FFFFFF" stroke-width="3.4" stroke-linecap="round" stroke-linejoin="round" stroke-miterlimit="1" d="
		M237.935,592.575h185.498"/>
	<path id="path54" fill="#087FBF" d="M423.433,592.575V218.85"/>
	<path id="path56" fill="none" stroke="#FFFFFF" stroke-width="4" d="M423.433,592.575V218.85"/>
	<path id="path58" fill="#087FBF" d="M423.433,218.85H237.935"/>
	<path id="path60" fill="none" stroke="#FFFFFF" stroke-width="4" d="M423.433,218.85H237.935"/>
	<path id="path62" fill="#231F20" d="M237.935,592.575h185.498"/>
	
		<path id="path64" fill="none" stroke="#FFFFFF" stroke-width="3.4" stroke-linecap="round" stroke-linejoin="round" stroke-miterlimit="1" d="
		M237.935,592.575h185.498"/>
	<path id="path66" fill="#087FBF" d="M423.433,592.575V218.85"/>
	<path id="path68" fill="none" stroke="#FFFFFF" stroke-width="4" d="M423.433,592.575V218.85"/>
	<path id="path70" fill="#087FBF" d="M423.433,218.85H237.935"/>
	<path id="path72" fill="none" stroke="#FFFFFF" stroke-width="4" d="M423.433,218.85H237.935"/>
	<path id="path74" fill="none" stroke="#FFFFFF" stroke-width="3.4" stroke-linecap="round" stroke-linejoin="round" d="
		M236.44,383.21L119.702,186.775"/>
	<path id="path76" fill="none" stroke="#FFFFFF" stroke-width="3.4" stroke-linecap="round" stroke-linejoin="round" d="
		M236.44,383.21l-116.738-74.297"/>
	<path id="path78" fill="none" stroke="#FFFFFF" stroke-width="3.4" stroke-linecap="round" stroke-linejoin="round" d="
		M236.44,390.163L119.702,586.609"/>
	<path id="path80" fill="none" stroke="#FFFFFF" stroke-width="3.4" stroke-linecap="round" stroke-linejoin="round" d="
		M236.44,390.163l-116.738,74.375"/>
	<path id="path82" fill="none" stroke="#FFFFFF" stroke-width="3.4" stroke-linecap="round" stroke-linejoin="round" d="
		M236.44,383.21H119.702"/>
	<path id="path84" fill="none" stroke="#087FBF" stroke-width="5" stroke-linecap="round" stroke-linejoin="round" d="
		M116.694,188.254H0.005"/>
	<path id="path86" fill="none" stroke="#087FBF" stroke-width="5" stroke-linecap="round" stroke-linejoin="round" d="
		M116.694,310.369H0.005"/>
	<path id="path88" fill="none" stroke="#087FBF" stroke-width="5" stroke-linecap="round" stroke-linejoin="round" d="
		M116.694,387.341H0.005"/>
	<path id="path90" fill="none" stroke="#087FBF" stroke-width="5" stroke-linecap="round" stroke-linejoin="round" d="
		M116.694,461.687H0.005"/>
	<path id="path92" fill="none" stroke="#087FBF" stroke-width="5" stroke-linecap="round" stroke-linejoin="round" d="
		M116.694,586.433H0.005"/>
	<path id="path94" fill="none" stroke="#087FBF" stroke-width="17" stroke-linejoin="round" d="M560.005,391.433H438.032"/>
</g>
</svg>
