<?xml version="1.0" encoding="utf-8"?>
<!-- Generator: Adobe Illustrator 16.0.0, SVG Export Plug-In . SVG Version: 6.00 Build 0)  -->
<!DOCTYPE svg PUBLIC "-//W3C//DTD SVG 1.1//EN" "http://www.w3.org/Graphics/SVG/1.1/DTD/svg11.dtd">
<svg version="1.1"
	 id="svg2" xmlns:svg="http://www.w3.org/2000/svg" xmlns:cc="http://creativecommons.org/ns#" xmlns:rdf="http://www.w3.org/1999/02/22-rdf-syntax-ns#" xmlns:dc="http://purl.org/dc/elements/1.1/"
	 xmlns="http://www.w3.org/2000/svg" xmlns:xlink="http://www.w3.org/1999/xlink" x="0px" y="0px" width="240px" height="256px"
	 viewBox="0 0 240 256" enable-background="new 0 0 240 256" xml:space="preserve">
<g>
	
		<path id="path14" fill="none" stroke="#100F0D" stroke-width="2" stroke-linecap="round" stroke-linejoin="round" stroke-miterlimit="10" d="
		M24.279,16.937C11.343,16.937,1,28.703,1,40.475v192.226c0,11.771,10.343,22.235,23.279,22.235h191.444
		c12.928,0,23.276-10.465,23.276-22.235V40.475c0-11.772-10.353-23.539-23.276-23.539H24.279L24.279,16.937z"/>
	<path id="path16" fill="#F58B16" d="M32.895,26.077c0,2.901,1.452,5.797,5.794,5.797c20.285,0,20.285,0,20.285,0
		c2.896,0,5.795-2.896,5.795-5.797c0-20.283,0-20.283,0-20.283C64.769,1.445,61.87,0,58.974,0C38.689,0,38.689,0,38.689,0
		c-4.343,0-5.794,1.447-5.794,5.794V26.077"/>
</g>
</svg>
