<?xml version="1.0" encoding="utf-8"?>
<!-- Generator: Adobe Illustrator 16.0.0, SVG Export Plug-In . SVG Version: 6.00 Build 0)  -->
<!DOCTYPE svg PUBLIC "-//W3C//DTD SVG 1.1//EN" "http://www.w3.org/Graphics/SVG/1.1/DTD/svg11.dtd">
<svg version="1.1" id="图层_1" xmlns="http://www.w3.org/2000/svg" xmlns:xlink="http://www.w3.org/1999/xlink" x="0px" y="0px"
	 width="512px" height="512px" viewBox="0 0 512 512" enable-background="new 0 0 512 512" xml:space="preserve">
<g>
	<path fill="#33CCFF" d="M499.037,101.813c-10.847-62.461-25.838-77.337-89.152-88.42c-40.31-7.053-97.21-11.098-156.091-11.098
		c-58.363,0-112.338,3.801-151.978,10.687c-62.468,10.855-77.345,25.853-88.405,89.152c-14.663,83.819-14.884,224.882-0.48,308.031
		c10.817,62.461,25.815,77.329,89.152,88.42c40.409,7.069,97.431,11.121,156.434,11.121h0.009
		c58.218,0,112.087-3.778,151.665-10.634c62.476-10.862,77.359-25.854,88.404-89.167
		C513.266,326.071,513.464,184.977,499.037,101.813 M483.24,407.222c-9.918,56.764-19.82,66.772-75.715,76.492
		c-38.727,6.703-91.636,10.39-149,10.39h-0.009c-58.148,0-114.181-3.961-153.745-10.877c-56.786-9.947-66.795-19.865-76.469-75.715
		c-14.153-81.702-13.939-220.319,0.48-302.699c9.918-56.748,19.82-66.757,75.7-76.461c38.794-6.741,91.817-10.458,149.312-10.458
		c58.012,0,113.938,3.961,153.41,10.868c56.748,9.933,66.757,19.843,76.477,75.715C497.85,186.186,497.652,324.819,483.24,407.222"
		/>
	<path fill="#33CCFF" d="M296.636,308.251c-4.975,0-9.016,3.789-9.016,8.464c0,4.674,4.041,8.479,9.016,8.479
		c4.946,0,8.995-3.805,8.995-8.479C305.63,312.04,301.582,308.251,296.636,308.251"/>
	<path fill="#33CCFF" d="M352.138,191.353c-3.479,0-7.052,0.163-10.725,0.502c-0.912-3.436-18.238-68.704-89.205-68.709
		c-5.058,0-10.376,0.348-15.982,1.095c-84.281,11.245-74.062,83.47-73.525,87.272c-0.084-0.006-1.69-0.127-4.598-0.127
		c-16.457,0-71.994,4.086-82.159,58.506c-12.844,68.831,58.656,94.734,84.972,94.734H342.02c2.984-0.011,59.666-0.232,86.553-53.049
		C454.233,261.212,423.967,191.353,352.138,191.353 M310.539,333.189H189.21c-6.875,0-10.277-3.955-10.277-10.42v-12.988
		c0-6.465,3.402-9.525,10.277-9.525h121.328c6.898,0,13.838,3.062,13.838,9.525l0.001,12.988
		C324.377,329.234,317.437,333.189,310.539,333.189 M310.539,292.796H189.21c-6.875,0-10.277-3.955-10.277-10.419v-12.989
		c0-6.465,3.402-9.524,10.277-9.524h121.328c6.898,0,13.838,3.061,13.838,9.524l0.001,12.989
		C324.377,288.841,317.437,292.796,310.539,292.796 M310.539,252.357H189.21c-6.875,0-10.277-1.741-10.277-8.209v-12.7
		c0-6.466,3.402-11.746,10.277-11.746h121.328c6.898,0,13.838,5.28,13.838,11.746l0.001,12.7
		C324.377,250.616,317.437,252.357,310.539,252.357"/>
	<path fill="#33CCFF" d="M296.636,267.403c-4.975,0-9.016,3.804-9.016,8.479s4.041,8.476,9.016,8.476
		c4.946,0,8.995-3.801,8.995-8.476S301.582,267.403,296.636,267.403"/>
	<path fill="#33CCFF" d="M296.636,229.465c-4.975,0-9.016,3.525-9.016,8.196c0,4.675,4.041,8.471,9.016,8.471
		c4.946,0,8.995-3.796,8.995-8.471C305.63,232.99,301.582,229.465,296.636,229.465"/>
</g>
</svg>
