<?xml version="1.0" encoding="utf-8"?>
<!-- Generator: Adobe Illustrator 16.0.0, SVG Export Plug-In . SVG Version: 6.00 Build 0)  -->
<!DOCTYPE svg PUBLIC "-//W3C//DTD SVG 1.1//EN" "http://www.w3.org/Graphics/SVG/1.1/DTD/svg11.dtd">
<svg version="1.1" id="图层_1" xmlns="http://www.w3.org/2000/svg" xmlns:xlink="http://www.w3.org/1999/xlink" x="0px" y="0px"
	 width="512px" height="512px" viewBox="0 0 512 512" enable-background="new 0 0 512 512" xml:space="preserve">
<g>
	<path fill="#38C4F5" d="M499.037,101.813c-10.847-62.461-25.838-77.337-89.152-88.42c-40.31-7.053-97.21-11.098-156.091-11.098
		c-58.363,0-112.338,3.801-151.978,10.687c-62.468,10.855-77.345,25.853-88.405,89.152c-14.663,83.819-14.884,224.882-0.48,308.031
		c10.817,62.461,25.815,77.329,89.152,88.42c40.409,7.069,97.431,11.121,156.434,11.121h0.009
		c58.218,0,112.087-3.778,151.665-10.634c62.476-10.862,77.359-25.854,88.404-89.167
		C513.266,326.071,513.464,184.977,499.037,101.813 M483.24,407.222c-9.918,56.764-19.82,66.772-75.715,76.492
		c-38.727,6.703-91.636,10.39-149,10.39h-0.009c-58.148,0-114.181-3.961-153.745-10.877c-56.786-9.947-66.795-19.865-76.469-75.715
		c-14.153-81.702-13.939-220.319,0.48-302.699c9.918-56.748,19.82-66.757,75.7-76.461c38.794-6.741,91.817-10.458,149.312-10.458
		c58.012,0,113.938,3.961,153.41,10.868c56.748,9.933,66.757,19.843,76.477,75.715C497.85,186.186,497.652,324.819,483.24,407.222"
		/>
	<path fill="#38C4F5" d="M96.89,193.54v154.199v7.552l144.167,60.652v-174.47L96.89,180.789V193.54z M226.45,391.608
		l-105.978-41.981l105.994-44.637v86.619L226.45,391.608L226.45,391.608z M111.481,201.828l114.969,48.061v37.998l-114.969,49.245
		V201.828z"/>
	<path fill="#38C4F5" d="M256.32,95.962l-156.279,61.036l156.198,60.94l156.773-60.956L256.32,95.962z M249.009,197.812
		l-114.233-40.814l114.233-44.077V197.812z M263.616,112.937l118.809,44.061l-118.809,40.91V112.937z"/>
	<path fill="#38C4F5" d="M270.911,243.841V398.04v17.903l144.167-60.685v-6.704V194.356v-13.567l-144.167,60.652V243.841z
		 M400.487,346.411l-114.97,48.477v-92.266l107.307,46.845L400.487,346.411z M400.487,202.548V336.94l-114.97-51.758v-34.766
		l-0.144-0.064L400.487,202.548z"/>
</g>
</svg>
