<?xml version="1.0" encoding="utf-8"?>
<!-- Generator: Adobe Illustrator 16.0.0, SVG Export Plug-In . SVG Version: 6.00 Build 0)  -->
<!DOCTYPE svg PUBLIC "-//W3C//DTD SVG 1.1//EN" "http://www.w3.org/Graphics/SVG/1.1/DTD/svg11.dtd">
<svg version="1.1"
	 id="svg2" xmlns:svg="http://www.w3.org/2000/svg" xmlns:dc="http://purl.org/dc/elements/1.1/" xmlns:cc="http://creativecommons.org/ns#" xmlns:rdf="http://www.w3.org/1999/02/22-rdf-syntax-ns#"
	 xmlns="http://www.w3.org/2000/svg" xmlns:xlink="http://www.w3.org/1999/xlink" x="0px" y="0px" width="240px" height="257px"
	 viewBox="0 -16.474 240 257" enable-background="new 0 -16.474 240 257" xml:space="preserve">
<g>
	
		<path id="path26" fill="none" stroke="#100F0D" stroke-width="2" stroke-linecap="round" stroke-linejoin="round" stroke-miterlimit="10" d="
		M24.28,1.001C12.64,1.001,1,12.769,1,24.539v192.229C1,228.538,12.639,239,24.28,239h192.728C228.646,239,239,228.538,239,216.768
		V24.538C239,12.769,228.646,1,217.008,1L24.28,1.001L24.28,1.001z"/>
	<g>
		<path id="path16" fill="#2C682F" d="M53.019,16.474H32.726v-32.947h20.293V16.474"/>
		<path id="path18" fill="#FFFFFF" d="M35.629-2.876c0,0-9.276,0-11.598-2.095c-2.315-2.091-2.315-8.367-2.315-8.367
			s8.117,0.523,11.01,2.615C34.469-8.631,35.629-2.876,35.629-2.876L35.629-2.876"/>
		<path id="path20" fill="#2C6930" d="M22.293-12.814c0.579,2.091,0.579,6.275,2.321,7.324c1.159,1.565,6.375,2.091,10.434,2.091
			c-0.579-2.091-1.741-5.232-2.9-6.801C30.409-11.769,25.193-12.292,22.293-12.814z M35.048-2.354c-2.9,0-9.275,0-11.597-2.094
			c-2.315-2.091-2.315-8.367-2.315-8.89c0-1.044,0-1.044,0-1.044c0.579,0,0.579,0,0.579,0c0.577,0.521,8.693,1.044,11.592,3.139
			c2.321,2.089,2.897,7.844,3.478,8.367c0,0.523,0,0.523,0,0.523c-1.156,0-1.156,0-1.156,0S35.629-2.354,35.048-2.354L35.048-2.354"
			/>
		<path id="path22" fill="#FFFFFF" d="M49.541,10.721c0,0,4.06-7.322,7.537-8.372c2.899-0.521,9.274,2.093,9.274,2.093
			s-4.637,6.801-8.118,7.324C55.34,12.813,49.541,10.721,49.541,10.721L49.541,10.721"/>
		<path id="path24" fill="#2C6930" d="M50.7,10.721c1.159,0,4.057,1.046,5.796,1.046c0.582,0,1.162-0.523,1.739-0.523
			c2.322-0.522,5.219-4.186,6.961-6.277c-1.742-0.523-5.219-2.091-6.961-2.091c-0.577,0-0.577,0-1.157,0.523
			C54.757,3.922,51.859,8.106,50.7,10.721z M56.496,12.813c-2.896,0-6.956-1.045-7.534-1.045c-0.58-0.523-0.58-0.523-0.58-0.523
			c0-0.521,0-0.521,0-0.521c0.58-1.046,4.637-7.845,8.114-8.892c0.582,0,1.162,0,1.738,0c2.899,0,8.118,2.092,8.118,2.092
			c1.159,0.521,1.159,0.521,1.159,0.521c-0.577,0.523-0.577,0.523-0.577,0.523c0,0.524-4.64,6.801-8.117,7.847
			C58.234,12.813,57.658,12.813,56.496,12.813L56.496,12.813"/>
		<path id="path28" fill="#2C682F" d="M53.019,16.474H32.726v-32.947h20.293V16.474"/>
		<path id="path30" fill="#FFFFFF" d="M35.629-2.876c0,0-9.276,0-11.598-2.095c-2.315-2.091-2.315-8.367-2.315-8.367
			s8.117,0.523,11.01,2.615C34.469-8.631,35.629-2.876,35.629-2.876L35.629-2.876"/>
		<path id="path32" fill="#2C6930" d="M22.293-12.814c0.579,2.091,0.579,6.275,2.321,7.324c1.159,1.565,6.375,2.091,10.434,2.091
			c-0.579-2.091-1.741-5.232-2.9-6.801C30.409-11.769,25.193-12.292,22.293-12.814z M35.048-2.354c-2.9,0-9.275,0-11.597-2.094
			c-2.315-2.091-2.315-8.367-2.315-8.89c0-1.044,0-1.044,0-1.044c0.579,0,0.579,0,0.579,0c0.577,0.521,8.693,1.044,11.592,3.139
			c2.321,2.089,2.897,7.844,3.478,8.367c0,0.523,0,0.523,0,0.523c-1.156,0-1.156,0-1.156,0S35.629-2.354,35.048-2.354L35.048-2.354"
			/>
		<path id="path34" fill="#FFFFFF" d="M49.541,10.721c0,0,4.06-7.322,7.537-8.372c2.899-0.521,9.274,2.093,9.274,2.093
			s-4.637,6.801-8.118,7.324C55.34,12.813,49.541,10.721,49.541,10.721L49.541,10.721"/>
		<path id="path36" fill="#2C6930" d="M50.7,10.721c1.159,0,4.057,1.046,5.796,1.046c0.582,0,1.162-0.523,1.739-0.523
			c2.322-0.522,5.219-4.186,6.961-6.277c-1.742-0.523-5.219-2.091-6.961-2.091c-0.577,0-0.577,0-1.157,0.523
			C54.757,3.922,51.859,8.106,50.7,10.721z M56.496,12.813c-2.896,0-6.956-1.045-7.534-1.045c-0.58-0.523-0.58-0.523-0.58-0.523
			c0-0.521,0-0.521,0-0.521c0.58-1.046,4.637-7.845,8.114-8.892c0.582,0,1.162,0,1.738,0c2.899,0,8.118,2.092,8.118,2.092
			c1.159,0.521,1.159,0.521,1.159,0.521c-0.577,0.523-0.577,0.523-0.577,0.523c0,0.524-4.64,6.801-8.117,7.847
			C58.234,12.813,57.658,12.813,56.496,12.813L56.496,12.813"/>
	</g>
</g>
</svg>
