<?xml version="1.0" encoding="utf-8"?>
<!-- Generator: Adobe Illustrator 16.0.0, SVG Export Plug-In . SVG Version: 6.00 Build 0)  -->
<!DOCTYPE svg PUBLIC "-//W3C//DTD SVG 1.1//EN" "http://www.w3.org/Graphics/SVG/1.1/DTD/svg11.dtd">
<svg version="1.1"
	 id="svg2" xmlns:dc="http://purl.org/dc/elements/1.1/" xmlns:cc="http://creativecommons.org/ns#" xmlns:rdf="http://www.w3.org/1999/02/22-rdf-syntax-ns#" xmlns:svg="http://www.w3.org/2000/svg"
	 xmlns="http://www.w3.org/2000/svg" xmlns:xlink="http://www.w3.org/1999/xlink" x="0px" y="0px" width="74px" height="75px"
	 viewBox="0 0 74 75" enable-background="new 0 0 74 75" xml:space="preserve">
<g id="g12" transform="scale(0.1,0.1)">
	<path id="path22" fill="#02709F" d="M0,750h614.18V124.517H0V750z"/>
	<path id="path24" fill="none" stroke="#FFFFFF" stroke-width="3.9999" d="M0,750h614.18V124.517H0V750z"/>
	<path id="path26" d="M321.221,333.677h189.004"/>
	<path id="path28" fill="none" stroke="#FFFFFF" stroke-width="3.9999" d="M321.221,333.677h189.004"/>
	<path id="path30" d="M321.221,551.445h189.004"/>
	<path id="path32" fill="none" stroke="#FFFFFF" stroke-width="3.9999" d="M321.221,551.445h189.004"/>
	<path id="path34" d="M263.369,443.223V254.224"/>
	<path id="path36" fill="none" stroke="#FFFFFF" stroke-width="3.9999" d="M263.369,443.223V254.224"/>
	<path id="path38" fill="none" stroke="#FFFFFF" stroke-width="10" d="M430,441.797v189.394"/>
	<path id="path40" d="M214.814,441.797v189.394"/>
	<path id="path42" fill="none" stroke="#FFFFFF" stroke-width="3.9999" d="M214.814,441.797v189.394"/>
	<path id="path44" d="M323.838,334.302H135.039"/>
	<path id="path46" fill="none" stroke="#FFFFFF" stroke-width="3.9999" d="M323.838,334.302H135.039"/>
	<path id="path48" fill="#02709F" d="M740,0v621.699L613.457,749.844V127.407L740,0"/>
	<path id="path50" fill="none" stroke="#FFFFFF" stroke-width="3.9999" d="M740,0v621.699L613.457,749.844V127.407L740,0z"/>
	<path id="path52" fill="#02709F" d="M613.457,127.407l-1.455-3.618H0.713L155.557,0H740L613.457,127.407"/>
	<path id="path54" fill="none" stroke="#FFFFFF" stroke-width="3.9999" d="M613.457,127.407l-1.455-3.618H0.713L155.557,0H740
		L613.457,127.407z"/>
	<path id="path56" fill="none" stroke="#FFFFFF" stroke-width="10" d="M312.52,327.681h199.424"/>
	<path id="path58" fill="#FFFFFF" d="M508.291,270.698v109.478l65.859-52.456L508.291,270.698"/>
	<path id="path60" fill="none" stroke="#FFFFFF" stroke-width="3.9999" d="M508.291,270.698v109.478l65.859-52.456L508.291,270.698z
		"/>
	<path id="path62" fill="none" stroke="#FFFFFF" stroke-width="10" d="M312.52,545.019h210.254"/>
	<path id="path64" fill="#FFFFFF" d="M508.291,487.695v109.277l65.859-52.676L508.291,487.695"/>
	<path id="path66" fill="none" stroke="#FFFFFF" stroke-width="3.9999" d="M508.291,487.695v109.277l65.859-52.676L508.291,487.695z
		"/>
	<path id="path68" fill="none" stroke="#FFFFFF" stroke-width="10" d="M254.658,437.207V258.54"/>
	<path id="path70" fill="none" stroke="#FFFFFF" stroke-width="10" d="M368.018,443.223V254.224"/>
	<path id="path72" d="M359.307,437.207V258.54"/>
	<path id="path74" fill="none" stroke="#FFFFFF" stroke-width="3.9999" d="M359.307,437.207V258.54"/>
	<path id="path76" d="M421.699,435.781v203.476"/>
	<path id="path78" fill="none" stroke="#FFFFFF" stroke-width="3.9999" d="M421.699,435.781v203.476"/>
	<path id="path80" fill="#FFFFFF" d="M476.592,630.761H367.041l53.242,66.348L476.592,630.761"/>
	<path id="path82" fill="none" stroke="#FFFFFF" stroke-width="3.9999" d="M476.592,630.761H367.041l53.242,66.348L476.592,630.761z
		"/>
	<path id="path84" fill="none" stroke="#FFFFFF" stroke-width="10" d="M206.318,435.781v203.476"/>
	<path id="path86" fill="#FFFFFF" d="M262.314,630.761H152.949l53.037,66.348L262.314,630.761"/>
	<path id="path88" fill="none" stroke="#FFFFFF" stroke-width="3.9999" d="M262.314,630.761H152.949l53.037,66.348L262.314,630.761z
		"/>
	<path id="path90" fill="none" stroke="#FFFFFF" stroke-width="10" d="M315.352,545H112.295"/>
	<path id="path92" fill="#FFFFFF" d="M118.867,602.715V493.027l-66.055,52.656L118.867,602.715"/>
	<path id="path94" fill="none" stroke="#FFFFFF" stroke-width="3.9999" d="M118.867,602.715V493.027l-66.055,52.656L118.867,602.715
		z"/>
	<path id="path96" fill="none" stroke="#FFFFFF" stroke-width="10" d="M315.352,328.101H112.295"/>
	<path id="path98" fill="#FFFFFF" d="M118.867,385.82V276.138l-66.055,52.656L118.867,385.82"/>
	<path id="path100" fill="none" stroke="#FFFFFF" stroke-width="3.9999" d="M118.867,385.82V276.138l-66.055,52.656L118.867,385.82z
		"/>
	<path id="path102" fill="#02709F" d="M312.764,568.281c71.855,0,130.342-58.516,130.342-130.879
		c0-71.919-58.486-130.464-130.342-130.464c-72.041,0-130.527,58.545-130.527,130.464
		C182.236,509.765,240.723,568.281,312.764,568.281"/>
	<path id="path104" fill="none" stroke="#FFFFFF" stroke-width="3.9999" d="M312.764,568.281
		c71.855,0,130.342-58.516,130.342-130.879c0-71.919-58.486-130.464-130.342-130.464c-72.041,0-130.527,58.545-130.527,130.464
		C182.236,509.765,240.723,568.281,312.764,568.281z"/>
	<path id="path106" fill="#FFFFFF" d="M490.576,254.946c3.73,0,6.719-3.008,6.719-6.729v-65.469c0-3.711-2.988-6.924-6.719-6.924
		h-347.9c-3.926,0-6.924,3.213-6.924,6.924v65.469c0,3.721,2.998,6.729,6.924,6.729h64.766v-22.744h207.021v22.744H490.576"/>
	<path id="path108" fill="none" stroke="#FFFFFF" stroke-width="3.9999" d="M490.576,254.946c3.73,0,6.719-3.008,6.719-6.729
		v-65.469c0-3.711-2.988-6.924-6.719-6.924h-347.9c-3.926,0-6.924,3.213-6.924,6.924v65.469c0,3.721,2.998,6.729,6.924,6.729h64.766
		v-22.744h207.021v22.744H490.576z"/>
	<path id="path110" d="M252.49,392.695h16.055v-15.864H252.49V392.695z"/>
	<path id="path112" fill="none" stroke="#FFFFFF" stroke-width="3.9999" d="M252.49,392.695h16.055v-15.864H252.49V392.695z"/>
	<path id="path114" d="M252.49,428.438h16.055v-16.074H252.49V428.438z"/>
	<path id="path116" fill="none" stroke="#FFFFFF" stroke-width="3.9999" d="M252.49,428.438h16.055v-16.074H252.49V428.438z"/>
	<path id="path118" d="M252.49,464.199h16.055v-16.074H252.49V464.199z"/>
	<path id="path120" fill="none" stroke="#FFFFFF" stroke-width="3.9999" d="M252.49,464.199h16.055v-16.074H252.49V464.199z"/>
	<path id="path122" d="M252.49,499.531h16.055v-16.074H252.49V499.531z"/>
	<path id="path124" fill="none" stroke="#FFFFFF" stroke-width="3.9999" d="M252.49,499.531h16.055v-16.074H252.49V499.531z"/>
	<path id="path126" d="M288.008,392.695h16.045v-15.864h-16.045V392.695z"/>
	<path id="path128" fill="none" stroke="#FFFFFF" stroke-width="3.9999" d="M288.008,392.695h16.045v-15.864h-16.045V392.695z"/>
	<path id="path130" d="M288.008,428.438h16.045v-16.074h-16.045V428.438z"/>
	<path id="path132" fill="none" stroke="#FFFFFF" stroke-width="3.9999" d="M288.008,428.438h16.045v-16.074h-16.045V428.438z"/>
	<path id="path134" d="M288.008,464.199h16.045v-16.074h-16.045V464.199z"/>
	<path id="path136" fill="none" stroke="#FFFFFF" stroke-width="3.9999" d="M288.008,464.199h16.045v-16.074h-16.045V464.199z"/>
	<path id="path138" d="M288.008,499.531h16.045v-16.074h-16.045V499.531z"/>
	<path id="path140" fill="none" stroke="#FFFFFF" stroke-width="3.9999" d="M288.008,499.531h16.045v-16.074h-16.045V499.531z"/>
	<path id="path142" d="M323.516,392.695h16.055v-15.864h-16.055V392.695z"/>
	<path id="path144" fill="none" stroke="#FFFFFF" stroke-width="3.9999" d="M323.516,392.695h16.055v-15.864h-16.055V392.695z"/>
	<path id="path146" d="M323.516,428.438h16.055v-16.074h-16.055V428.438z"/>
	<path id="path148" fill="none" stroke="#FFFFFF" stroke-width="3.9999" d="M323.516,428.438h16.055v-16.074h-16.055V428.438z"/>
	<path id="path150" d="M323.516,464.199h16.055v-16.074h-16.055V464.199z"/>
	<path id="path152" fill="none" stroke="#FFFFFF" stroke-width="3.9999" d="M323.516,464.199h16.055v-16.074h-16.055V464.199z"/>
	<path id="path154" d="M323.516,499.531h16.055v-16.074h-16.055V499.531z"/>
	<path id="path156" fill="none" stroke="#FFFFFF" stroke-width="3.9999" d="M323.516,499.531h16.055v-16.074h-16.055V499.531z"/>
	<path id="path158" d="M359.229,392.695h15.84v-15.864h-15.84V392.695z"/>
	<path id="path160" fill="none" stroke="#FFFFFF" stroke-width="3.9999" d="M359.229,392.695h15.84v-15.864h-15.84V392.695z"/>
	<path id="path162" d="M359.229,428.438h15.84v-16.074h-15.84V428.438z"/>
	<path id="path164" fill="none" stroke="#FFFFFF" stroke-width="3.9999" d="M359.229,428.438h15.84v-16.074h-15.84V428.438z"/>
	<path id="path166" d="M359.229,464.199h15.84v-16.074h-15.84V464.199z"/>
	<path id="path168" fill="none" stroke="#FFFFFF" stroke-width="3.9999" d="M359.229,464.199h15.84v-16.074h-15.84V464.199z"/>
	<path id="path170" d="M359.229,499.531h15.84v-16.074h-15.84V499.531z"/>
	<path id="path172" fill="none" stroke="#FFFFFF" stroke-width="3.9999" d="M359.229,499.531h15.84v-16.074h-15.84V499.531z"/>
</g>
</svg>
