<?xml version="1.0" encoding="utf-8"?>
<!-- Generator: Adobe Illustrator 16.0.0, SVG Export Plug-In . SVG Version: 6.00 Build 0)  -->
<!DOCTYPE svg PUBLIC "-//W3C//DTD SVG 1.1//EN" "http://www.w3.org/Graphics/SVG/1.1/DTD/svg11.dtd">
<svg version="1.1" id="Layer_1" xmlns="http://www.w3.org/2000/svg" xmlns:xlink="http://www.w3.org/1999/xlink" x="0px" y="0px"
	 width="66px" height="75px" viewBox="0 0 66 75" enable-background="new 0 0 66 75" xml:space="preserve">
<g>
	
		<linearGradient id="SVGID_1_" gradientUnits="userSpaceOnUse" x1="32.9995" y1="-4.582" x2="32.9995" y2="69.9092" gradientTransform="matrix(1 0 0 1 0 5)">
		<stop  offset="0" style="stop-color:#F58435"/>
		<stop  offset="1" style="stop-color:#D16A28"/>
	</linearGradient>
	<polygon fill="url(#SVGID_1_)" points="0,18.75 33,0 66,18.75 66,56.25 33,75 0,56.25 	"/>
	<path fill="#FFFFFF" d="M52.084,24.883v5.775v2.22l-19.708,8.708l-19.712-8.708v-2.22v-5.775H9.186v2.308v7.998v19.018h46.288
		V35.189v-7.998v-2.308C55.563,24.883,52.084,24.883,52.084,24.883z M52.084,50.829h-39.33V36.788l19.713,8.711l19.709-8.711V50.83
		L52.084,50.829L52.084,50.829z"/>
	<polygon fill="#FFFFFF" points="32.375,12.354 9.273,22.659 9.273,27.191 12.754,27.191 12.754,24.97 32.375,16.171 52.084,24.97 
		52.084,27.191 55.563,27.191 55.563,22.659 	"/>
	<g>
		<polygon fill="#FFFFFF" points="19.713,36.079 19.713,30.481 45.039,30.481 45.039,36.079 48.612,34.479 48.612,26.927 
			16.232,26.927 16.232,34.479 		"/>
	</g>
</g>
</svg>
