<?xml version="1.0" encoding="utf-8"?>
<!-- Generator: Adobe Illustrator 16.0.0, SVG Export Plug-In . SVG Version: 6.00 Build 0)  -->
<!DOCTYPE svg PUBLIC "-//W3C//DTD SVG 1.1//EN" "http://www.w3.org/Graphics/SVG/1.1/DTD/svg11.dtd">
<svg version="1.1"
	 id="图层_1" xmlns:dc="http://purl.org/dc/elements/1.1/" xmlns:cc="http://creativecommons.org/ns#" xmlns:rdf="http://www.w3.org/1999/02/22-rdf-syntax-ns#"
	 xmlns="http://www.w3.org/2000/svg" xmlns:xlink="http://www.w3.org/1999/xlink" x="0px" y="0px" width="47px" height="75px"
	 viewBox="0 0 47 75" enable-background="new 0 0 47 75" xml:space="preserve">
<path fill="#00BCF2" d="M0,0c8.078,0,16.156,0,24.233,0c0,25,0,49.999,0,75C16.156,75,8.078,75,0,75C0,49.999,0,25,0,0z
	 M10.134,54.411c-2.105,0-4.211,0-6.315,0c0,2.108,0,4.217,0,6.323c2.104,0,4.21,0,6.315,0
	C10.134,58.627,10.134,56.52,10.134,54.411z M19.901,54.411c-2.105,0-4.21,0-6.316,0c0,2.108,0,4.217,0,6.323
	c2.105,0,4.21,0,6.316,0C19.901,58.627,19.901,56.52,19.901,54.411z M10.134,44.852c-2.105,0-4.211,0-6.315,0
	c0,2.109,0,4.217,0,6.324c2.104,0,4.21,0,6.315,0C10.134,49.068,10.134,46.961,10.134,44.852z M19.901,44.852
	c-2.105,0-4.21,0-6.316,0c0,2.109,0,4.217,0,6.324c2.105,0,4.21,0,6.316,0C19.901,49.068,19.901,46.961,19.901,44.852z
	 M10.134,35.147c-2.105,0-4.211,0-6.315,0c0,2.107,0,4.214,0,6.322c2.104,0,4.21,0,6.315,0
	C10.134,39.361,10.134,37.254,10.134,35.147z M19.901,35.147c-2.105,0-4.21,0-6.316,0c0,2.107,0,4.214,0,6.322
	c2.105,0,4.21,0,6.316,0C19.901,39.361,19.901,37.254,19.901,35.147z M10.134,25.294c-2.105,0-4.211,0-6.315,0
	c0,2.107,0,4.215,0,6.323c2.104,0,4.21,0,6.315,0C10.134,29.509,10.134,27.401,10.134,25.294z M19.901,25.294
	c-2.105,0-4.21,0-6.316,0c0,2.107,0,4.215,0,6.323c2.105,0,4.21,0,6.316,0C19.901,29.509,19.901,27.401,19.901,25.294z
	 M10.134,15.588c-2.105,0-4.211,0-6.315,0c0,2.108,0,4.215,0,6.324c2.104,0,4.21,0,6.315,0
	C10.134,19.803,10.134,17.696,10.134,15.588z M19.901,15.588c-2.105,0-4.21,0-6.316,0c0,2.108,0,4.215,0,6.324
	c2.105,0,4.21,0,6.316,0C19.901,19.803,19.901,17.696,19.901,15.588z M10.134,6.029c-2.105,0-4.211,0-6.315,0
	c0,2.107,0,4.215,0,6.323c2.104,0,4.21,0,6.315,0C10.134,10.245,10.134,8.137,10.134,6.029z M19.901,6.029c-2.105,0-4.21,0-6.316,0
	c0,2.107,0,4.215,0,6.323c2.105,0,4.21,0,6.316,0C19.901,10.245,19.901,8.137,19.901,6.029z M27.099,24.442
	c0.954-0.027,1.908,0.028,2.864,0c0-2.559,0-5.118,0-7.678c1.174,0,2.351,0,3.524,0c0-2.5,0-5,0-7.5c0.833,0,1.664,0,2.496,0
	c0-2.353,0-4.706,0-7.059c0.734,0,1.47,0,2.204,0c0,2.353,0,4.706,0,7.059c0.833,0,1.665,0,2.496,0c0,2.5,0,5,0,7.5
	c1.176,0,2.351,0,3.525,0c0,2.56,0,5.119,0,7.678c0.932,0,1.86,0,2.791,0C47,41.307,47,58.137,47,75c-6.659,0-13.317,0-19.977,0
	C27.051,58.161,27.073,41.282,27.099,24.442L27.099,24.442z M36.865,48.53c-2.154,0-4.308,0-6.462,0c0,2.106,0,4.215,0,6.321
	c2.154,0,4.308,0,6.462,0C36.865,52.745,36.865,50.637,36.865,48.53z M44.356,38.53c-2.104,0-4.21,0-6.315,0
	c0,2.106,0,4.215,0,6.321c2.105,0,4.211,0,6.315,0C44.356,42.745,44.356,40.637,44.356,38.53z M36.865,28.676
	c-2.154,0-4.308,0-6.462,0c0,2.108,0,4.216,0,6.324c2.154,0,4.308,0,6.462,0C36.865,32.892,36.865,30.784,36.865,28.676z"/>
</svg>
