<?xml version="1.0" encoding="utf-8"?>
<!-- Generator: Adobe Illustrator 16.0.0, SVG Export Plug-In . SVG Version: 6.00 Build 0)  -->
<!DOCTYPE svg PUBLIC "-//W3C//DTD SVG 1.1//EN" "http://www.w3.org/Graphics/SVG/1.1/DTD/svg11.dtd">
<svg version="1.1" id="图层_1" xmlns="http://www.w3.org/2000/svg" xmlns:xlink="http://www.w3.org/1999/xlink" x="0px" y="0px"
	 width="512px" height="512px" viewBox="0 0 512 512" enable-background="new 0 0 512 512" xml:space="preserve">
<g>
	<path fill="#47A6E9" d="M258.256,510h-0.008c-59.003,0-116.025-4.052-156.434-11.121c-63.337-11.091-78.335-25.959-89.152-88.42
		c-14.404-83.149-14.183-224.212,0.48-308.031c11.06-63.299,25.937-78.297,88.405-89.152c39.64-6.886,93.615-10.687,151.978-10.687
		c58.881,0,115.781,4.045,156.091,11.098c63.313,11.083,78.305,25.959,89.151,88.42c14.428,83.164,14.229,224.258-0.441,308.092
		c-11.045,63.313-25.929,78.305-88.405,89.167C370.343,506.222,316.474,510,258.256,510 M253.526,18.188
		c-57.495,0-110.518,3.717-149.312,10.458c-55.88,9.704-65.782,19.713-75.7,76.461c-14.419,82.38-14.633,220.997-0.48,302.699
		c9.674,55.85,19.683,65.768,76.469,75.716c39.564,6.915,95.596,10.877,153.745,10.877h0.008c57.365,0,110.274-3.688,149-10.391
		c55.896-9.72,65.797-19.729,75.715-76.492c14.412-82.402,14.61-221.036,0.442-302.745c-9.72-55.872-19.729-65.782-76.478-75.715
		C367.464,22.149,311.538,18.188,253.526,18.188"/>
	<path fill="#47A6E9" d="M349.804,342.236H160.586c-32.845,0-58.548-16.175-64.239-45.342c-0.762,4.005-1.2,8.117-1.2,12.325
		c0,35.478,28.132,57.667,65.439,57.667h189.218c36.082,0,65.431-24.792,65.431-60.863c0-4.16-0.446-8.234-1.222-12.216
		C408.186,323.948,381.629,342.236,349.804,342.236"/>
	<path fill="#47A6E9" d="M360.495,212.011c0.371-2.997,0.731-6.573,0.731-9.169c0-40.29-32.774-73.051-73.035-73.051
		c-25.868,0-49.695,13.782-62.772,35.673c-8.261-5.816-18.052-8.937-28.337-8.937c-27.256,0-49.41,22.18-49.41,49.419
		c0,3.184,0.308,6.346,0.917,9.423c-23.695,8.371-39.764,30.744-39.764,56.388c0,32.446,25.728,52.343,59.85,52.343h173.048
		c32.993,0,59.828-22.283,59.828-55.264C401.551,243.031,384.592,220.014,360.495,212.011 M333.792,281H300.74v-33.056h3.151
		l-22.066-26.859v7.99h-20.616l-43.04,33.207l-0.097-0.127v12.684h-33.054v-33.055h10.935l10.029-29.511h-4.845v-18.08h18.08v18.08
		h-8.658l-10.03,29.511h17.542v15.127l37.912-28.836v-24.842h25.84v11.025l27.097,32.981l-0.857,0.704h25.729L333.792,281
		L333.792,281z"/>
</g>
</svg>
