<?xml version="1.0" encoding="utf-8"?>
<!-- Generator: Adobe Illustrator 16.0.0, SVG Export Plug-In . SVG Version: 6.00 Build 0)  -->
<!DOCTYPE svg PUBLIC "-//W3C//DTD SVG 1.1//EN" "http://www.w3.org/Graphics/SVG/1.1/DTD/svg11.dtd">
<svg version="1.1" id="图层_1" xmlns="http://www.w3.org/2000/svg" xmlns:xlink="http://www.w3.org/1999/xlink" x="0px" y="0px"
	 width="512px" height="512px" viewBox="0 0 512 512" enable-background="new 0 0 512 512" xml:space="preserve">
<g>
	<path fill="#33CCFF" d="M499.037,101.813c-10.847-62.461-25.838-77.337-89.152-88.42c-40.31-7.053-97.21-11.098-156.091-11.098
		c-58.363,0-112.338,3.801-151.978,10.687c-62.468,10.855-77.345,25.853-88.405,89.152c-14.663,83.819-14.884,224.882-0.48,308.031
		c10.817,62.461,25.815,77.329,89.152,88.42c40.409,7.069,97.431,11.121,156.434,11.121h0.009
		c58.218,0,112.087-3.778,151.665-10.634c62.476-10.862,77.359-25.854,88.404-89.167
		C513.266,326.071,513.464,184.977,499.037,101.813 M483.24,407.222c-9.918,56.764-19.82,66.772-75.715,76.492
		c-38.727,6.703-91.636,10.39-149,10.39h-0.009c-58.148,0-114.181-3.961-153.745-10.877c-56.786-9.947-66.795-19.865-76.469-75.715
		c-14.153-81.702-13.939-220.319,0.48-302.699c9.918-56.748,19.82-66.757,75.7-76.461c38.794-6.741,91.817-10.458,149.312-10.458
		c58.012,0,113.938,3.961,153.41,10.868c56.748,9.933,66.757,19.843,76.477,75.715C497.85,186.186,497.652,324.819,483.24,407.222"
		/>
	<path fill="#33CCFF" d="M437.006,221.645c-18.99-45.903-45.903-52.245-58.568-52.245c-7.924,0-20.589,3.162-33.238,14.247
		c-12.666-12.666-25.332-14.247-33.237-14.247c-14.247,0-39.579,6.325-58.569,52.245l-31.656,68.073l-30.075-68.073
		c-18.99-45.903-45.903-52.245-58.569-52.245c-14.247,0-39.579,6.325-58.569,52.245c-3.162,7.923,0,17.409,7.923,20.588
		c7.923,3.179,17.409,0,20.588-7.923c9.504-20.588,20.588-33.238,30.075-33.238c9.487,0,22.17,12.666,30.075,33.238l33.238,77.577
		c1.581,4.743,4.743,9.504,6.325,12.666c-4.743,6.325-11.085,9.504-15.828,9.504c-9.504,0-22.17-12.666-30.075-33.237
		c-3.162-7.923-12.666-11.085-20.588-7.923c-7.923,1.58-11.085,11.085-7.923,18.989c18.99,45.903,45.903,52.245,58.569,52.245
		c7.923,0,20.588-3.162,33.238-14.247c12.666,12.666,25.332,14.247,33.238,14.247c14.247,0,39.579-6.325,58.569-52.245
		l28.494-68.073l28.493,68.073c3.162,7.923,12.666,11.085,20.589,7.923c7.923-3.161,11.085-12.666,7.923-20.588l-33.237-77.577
		c-1.581-4.743-4.743-9.504-6.325-12.666c4.743-6.325,11.085-9.504,15.828-9.504c9.504,0,22.17,12.666,30.075,33.238
		c3.162,7.923,12.666,11.085,20.588,7.923c11.085-1.581,15.828-11.085,12.666-18.99H437.006z M285.015,299.222
		c-9.504,20.588-20.588,33.237-30.075,33.237c-4.743,0-9.504-3.162-15.828-9.504c1.581-3.162,4.743-7.923,6.325-12.666
		l33.238-77.577c9.504-20.588,20.588-33.238,30.075-33.238c4.743,0,9.504,3.162,15.828,9.504c-1.581,3.162-4.743,7.923-6.325,12.666
		C318.253,221.645,285.015,299.222,285.015,299.222"/>
</g>
</svg>
