<svg version="1.1" id="ilhwsa8q1" xmlns:xml="http://www.w3.org/XML/1998/namespace"
	 xmlns="http://www.w3.org/2000/svg" xmlns:xlink="http://www.w3.org/1999/xlink" x="0px" y="0px" width="75px" height="16px"
	 viewBox="0 0 75 16" enable-background="new 0 0 75 16" xml:space="preserve">
<g>
	<path fill="#092A35" d="M0.535,1.227c0,0,1.285-0.96,1.713-1.227h0.054h70.021c0.053,0,0.107,0,0.16,0.053l1.231,0.534
		c0.054,0.053,0.107,0.053,0.161,0.106c0.16,0.106,0.535,0.427,0.642,0.64"/>
	<path fill="#32485D" d="M75,16H0V2.293c0-0.747,0.642-1.386,1.392-1.386h72.217c0.749,0,1.392,0.64,1.392,1.386V16z"/>
	<path fill="#E1F1F9" d="M70.61,13.173H17.237c-0.589,0-1.07-0.479-1.07-1.066V5.813c0-0.587,0.481-1.067,1.07-1.067H70.61
		c0.589,0,1.07,0.48,1.07,1.067v6.293C71.681,12.693,71.199,13.173,70.61,13.173z"/>
	<g>
		<path fill="#475263" d="M67.72,6.56h-4.872c-0.16,0-0.268,0.106-0.268,0.267v2.56c0,0.16,0.107,0.267,0.268,0.267h0.589
			c0.161,0,0.268,0.106,0.268,0.267v0.854c0,0.16,0.107,0.267,0.268,0.267h0.589c0.161,0,0.268,0.106,0.268,0.267l0,0
			c0,0.16,0.107,0.267,0.268,0.267h0.269c0.16,0,0.268-0.106,0.268-0.267l0,0c0-0.16,0.106-0.267,0.268-0.267h0.588
			c0.161,0,0.269-0.106,0.269-0.267V9.92c0-0.16,0.106-0.267,0.268-0.267h0.589c0.16,0,0.268-0.106,0.268-0.267v-2.56
			C68.04,6.667,67.88,6.56,67.72,6.56z"/>
		<path fill="#475263" d="M59.207,6.56h-4.871c-0.161,0-0.268,0.106-0.268,0.267v2.56c0,0.16,0.106,0.267,0.268,0.267h0.589
			c0.16,0,0.268,0.106,0.268,0.267v0.854c0,0.16,0.107,0.267,0.268,0.267h0.589c0.161,0,0.268,0.106,0.268,0.267l0,0
			c0,0.16,0.107,0.267,0.268,0.267h0.268c0.161,0,0.268-0.106,0.268-0.267l0,0c0-0.16,0.107-0.267,0.268-0.267h0.59
			c0.16,0,0.268-0.106,0.268-0.267V9.92c0-0.16,0.107-0.267,0.268-0.267h0.589c0.16,0,0.268-0.106,0.268-0.267v-2.56
			C59.476,6.667,59.368,6.56,59.207,6.56z"/>
		<path fill="#475263" d="M50.643,6.56h-4.872c-0.161,0-0.268,0.106-0.268,0.267v2.56c0,0.16,0.106,0.267,0.268,0.267h0.589
			c0.16,0,0.268,0.106,0.268,0.267v0.854c0,0.16,0.107,0.267,0.268,0.267h0.589c0.161,0,0.268,0.106,0.268,0.267l0,0
			c0,0.16,0.107,0.267,0.268,0.267h0.268c0.161,0,0.268-0.106,0.268-0.267l0,0c0-0.16,0.107-0.267,0.269-0.267h0.589
			c0.16,0,0.268-0.106,0.268-0.267V9.92c0-0.16,0.107-0.267,0.268-0.267h0.589c0.16,0,0.268-0.106,0.268-0.267v-2.56
			C50.91,6.667,50.803,6.56,50.643,6.56z"/>
		<path fill="#475263" d="M42.077,6.56h-4.872c-0.16,0-0.268,0.106-0.268,0.267v2.56c0,0.16,0.107,0.267,0.268,0.267h0.589
			c0.16,0,0.267,0.106,0.267,0.267v0.854c0,0.16,0.107,0.267,0.268,0.267h0.589c0.161,0,0.268,0.106,0.268,0.267l0,0
			c0,0.16,0.107,0.267,0.268,0.267h0.269c0.16,0,0.268-0.106,0.268-0.267l0,0c0-0.16,0.106-0.267,0.268-0.267h0.589
			c0.16,0,0.268-0.106,0.268-0.267V9.92c0-0.16,0.107-0.267,0.268-0.267h0.589c0.16,0,0.268-0.106,0.268-0.267v-2.56
			C42.345,6.667,42.237,6.56,42.077,6.56z"/>
		<path fill="#475263" d="M33.512,6.56H28.64c-0.161,0-0.268,0.106-0.268,0.267v2.56c0,0.16,0.107,0.267,0.268,0.267h0.589
			c0.161,0,0.268,0.106,0.268,0.267v0.854c0,0.16,0.107,0.267,0.268,0.267h0.589c0.161,0,0.268,0.106,0.268,0.267l0,0
			c0,0.16,0.107,0.267,0.268,0.267h0.268c0.16,0,0.268-0.106,0.268-0.267l0,0c0-0.16,0.107-0.267,0.268-0.267h0.589
			c0.161,0,0.268-0.106,0.268-0.267V9.92c0-0.16,0.107-0.267,0.268-0.267h0.588c0.161,0,0.268-0.106,0.268-0.267v-2.56
			C33.779,6.667,33.672,6.56,33.512,6.56z"/>
		<path fill="#475263" d="M24.946,6.56h-4.872c-0.161,0-0.268,0.106-0.268,0.267v2.56c0,0.16,0.107,0.267,0.268,0.267h0.589
			c0.161,0,0.268,0.106,0.268,0.267v0.854c0,0.16,0.107,0.267,0.268,0.267h0.589c0.16,0,0.268,0.106,0.268,0.267l0,0
			c0,0.16,0.107,0.267,0.268,0.267h0.268c0.161,0,0.268-0.106,0.268-0.267l0,0c0-0.16,0.107-0.267,0.268-0.267h0.589
			c0.16,0,0.268-0.106,0.268-0.267V9.92c0-0.16,0.107-0.267,0.268-0.267h0.588c0.161,0,0.268-0.106,0.268-0.267v-2.56
			C25.214,6.667,25.107,6.56,24.946,6.56z"/>
	</g>
	<circle fill="#D86D3F" cx="5.514" cy="10.88" r="1.227"/>
	<circle fill="#D86D3F" cx="9.368" cy="10.88" r="1.227"/>
	<path fill="#27333F" d="M11.831,5.867H4.068c-0.107,0-0.161-0.053-0.161-0.16l0,0c0-0.107,0.053-0.16,0.161-0.16h7.762
		c0.107,0,0.161,0.053,0.161,0.16l0,0C11.991,5.813,11.938,5.867,11.831,5.867z"/>
	<path fill="#27333F" d="M11.831,7.626H4.068c-0.107,0-0.161-0.053-0.161-0.16l0,0c0-0.107,0.053-0.16,0.161-0.16h7.762
		c0.107,0,0.161,0.053,0.161,0.16l0,0C11.991,7.52,11.938,7.626,11.831,7.626z"/>
</g>
</svg>
