<?xml version="1.0" encoding="utf-8"?>
<!-- Generator: Adobe Illustrator 16.0.0, SVG Export Plug-In . SVG Version: 6.00 Build 0)  -->
<!DOCTYPE svg PUBLIC "-//W3C//DTD SVG 1.1//EN" "http://www.w3.org/Graphics/SVG/1.1/DTD/svg11.dtd">
<svg version="1.1"
	 id="图层_1" xmlns:dc="http://purl.org/dc/elements/1.1/" xmlns:cc="http://creativecommons.org/ns#" xmlns:rdf="http://www.w3.org/1999/02/22-rdf-syntax-ns#"
	 xmlns="http://www.w3.org/2000/svg" xmlns:xlink="http://www.w3.org/1999/xlink" x="0px" y="0px" width="75px" height="75px"
	 viewBox="0 0 75 75" enable-background="new 0 0 75 75" xml:space="preserve">
<path fill="#00BCF2" d="M12.158,0C5.596,0,0.952,5.156,0.952,11.719v14.282h4.687h0.659h68.262l-18.75-15.894v7.91H6.298v-6.299
	c0-3.047,2.872-6.592,6.153-6.592h50.61c3.048,0,6.079,3.311,6.079,6.592v2.783l5.127,5.2v-7.983C74.268,5.156,69.624,0,63.062,0
	H12.158z M0.439,31.201l18.75,15.454V36.548h49.513v8.423c0,3.047-2.638,7.324-6.152,7.324H12.158c-3.046,0-6.079-4.043-6.079-7.324
	v-2.783l-5.127-5.127v7.91c0,6.563,4.644,12.45,11.206,12.45h11.279L48.487,75l-1.832-17.798h16.406
	c6.563,0,11.206-6.123,11.206-12.451v-13.55h-4.395h-1.465H0.439z"/>
</svg>
