<?xml version="1.0" encoding="utf-8"?>
<!-- Generator: Adobe Illustrator 16.0.0, SVG Export Plug-In . SVG Version: 6.00 Build 0)  -->
<!DOCTYPE svg PUBLIC "-//W3C//DTD SVG 1.1//EN" "http://www.w3.org/Graphics/SVG/1.1/DTD/svg11.dtd">
<svg version="1.1"
	 id="图层_1" xmlns:dc="http://purl.org/dc/elements/1.1/" xmlns:cc="http://creativecommons.org/ns#" xmlns:rdf="http://www.w3.org/1999/02/22-rdf-syntax-ns#"
	 xmlns="http://www.w3.org/2000/svg" xmlns:xlink="http://www.w3.org/1999/xlink" x="0px" y="0px" width="75px" height="46px"
	 viewBox="0 0 75 46" enable-background="new 0 0 75 46" xml:space="preserve">
<path fill="#00BCF2" d="M7.404,45.977c-3.218-0.474-5.925-2.686-7.009-5.727c-0.425-1.195-0.523-3.213-0.218-4.515
	c0.747-3.174,3.206-5.634,6.382-6.382c1.291-0.304,3.308-0.201,4.519,0.228l0.879,0.313l8.951-8.952l8.951-8.952l-0.307-0.911
	c-1.02-3.027-0.209-6.342,2.112-8.632c4.125-4.072,10.903-2.904,13.468,2.321c0.941,1.917,1.096,4.081,0.439,6.206l-0.313,1.009
	l8.9,8.903l8.901,8.901l0.98-0.321c5.406-1.773,10.946,2.31,10.959,8.078c0,2.24-0.801,4.169-2.428,5.823
	c-3.352,3.411-8.532,3.409-11.928,0c-0.688-0.69-1.187-1.355-1.471-1.959l-0.43-0.912l-21.23-0.013l-21.23-0.01l-0.227,0.546
	c-0.905,2.164-3.309,4.176-5.643,4.722c-0.828,0.193-2.432,0.316-3.016,0.229v0.005H7.404z M9.269,40.122
	c0.509-0.106,1.246-0.729,1.545-1.312c0.129-0.25,0.241-0.791,0.248-1.201c0.029-2.011-2.087-3.339-3.87-2.431
	c-2.241,1.144-1.817,4.444,0.644,5.013C8.281,40.294,8.499,40.284,9.269,40.122L9.269,40.122z M67.738,39.904
	c1.87-0.85,2.066-3.528,0.34-4.673c-0.469-0.31-0.768-0.392-1.43-0.392c-1.614,0-2.685,1.02-2.705,2.568
	C63.914,39.458,65.879,40.749,67.738,39.904z M58.832,34.28c0.156-0.29-0.514-0.995-8.767-9.251l-8.937-8.939l-0.812,0.285
	c-1.7,0.599-3.814,0.598-5.521,0l-0.802-0.283l-8.919,8.922c-4.906,4.907-8.919,9.026-8.919,9.153c0,0.128,0.044,0.276,0.098,0.331
	c0.054,0.054,9.618,0.1,21.253,0.1h21.156l0.167-0.314L58.832,34.28L58.832,34.28z M38.715,10.853
	c1.429-0.598,1.979-2.607,1.08-3.942c-0.541-0.804-1.338-1.173-2.398-1.118c-1.091,0.06-1.85,0.556-2.274,1.492
	c-0.465,1.024-0.275,2.173,0.498,3.012C36.289,11.022,37.699,11.277,38.715,10.853z"/>
</svg>
