<?xml version="1.0" encoding="utf-8"?>
<!-- Generator: Adobe Illustrator 16.0.0, SVG Export Plug-In . SVG Version: 6.00 Build 0)  -->
<!DOCTYPE svg PUBLIC "-//W3C//DTD SVG 1.1//EN" "http://www.w3.org/Graphics/SVG/1.1/DTD/svg11.dtd">
<svg version="1.1"
	 id="svg2" xmlns:dc="http://purl.org/dc/elements/1.1/" xmlns:cc="http://creativecommons.org/ns#" xmlns:rdf="http://www.w3.org/1999/02/22-rdf-syntax-ns#" xmlns:svg="http://www.w3.org/2000/svg"
	 xmlns="http://www.w3.org/2000/svg" xmlns:xlink="http://www.w3.org/1999/xlink" x="0px" y="0px" width="75px" height="35px"
	 viewBox="0 0 75 35" enable-background="new 0 0 75 35" xml:space="preserve">
<g id="g12" transform="scale(0.1,0.1)">
	<path id="path22" fill="#02709F" d="M0,350h500.684V186.328H0V350z"/>
	<path id="path24" fill="none" stroke="#FFFFFF" stroke-width="3.9999" d="M0,350h500.684V186.328H0V350z"/>
	<path id="path26" fill="#02709F" d="M0,186.328h500.684l79.443-78.73H96.865L0,186.328"/>
	<path id="path28" fill="none" stroke="#FFFFFF" stroke-width="3.9999" d="M0,186.328h500.684l79.443-78.73H96.865L0,186.328z"/>
	<path id="path30" fill="#02709F" d="M500.684,350l79.443-89.297V107.598l-79.443,78.73V350"/>
	<path id="path32" fill="none" stroke="#FFFFFF" stroke-width="3.9999" d="M500.684,350l79.443-89.297V107.598l-79.443,78.73V350z"
		/>
	<path id="path34" fill="#02709F" d="M137.334,89.004l-6.396,33.848h61.655l-6.396-33.848H137.334"/>
	<path id="path36" fill="none" stroke="#FFFFFF" stroke-width="3.9999" d="M137.334,89.004l-6.396,33.848h61.655l-6.396-33.848
		H137.334z"/>
	<path id="path38" fill="#02709F" d="M60.996,143.633l-6.382,33.848h61.636l-6.406-33.848H60.996"/>
	<path id="path40" fill="none" stroke="#FFFFFF" stroke-width="3.9999" d="M60.996,143.633l-6.382,33.848h61.636l-6.406-33.848
		H60.996z"/>
	<path id="path42" fill="#02709F" d="M144.736,130.244h37.539l-8.853-20.234L144.736,130.244"/>
	<path id="path44" fill="none" stroke="#FFFFFF" stroke-width="3.9999" d="M144.736,130.244h37.539l-8.853-20.234L144.736,130.244z"
		/>
	<path id="path46" fill="#02709F" d="M137.334,89.004c-40.898-4.209-77.817,43.652-76.338,54.629h48.848
		c-1.484-10.977,35.43-58.838,76.353-54.629H137.334"/>
	<path id="path48" fill="none" stroke="#FFFFFF" stroke-width="3.9999" d="M137.334,89.004
		c-40.898-4.209-77.817,43.652-76.338,54.629h48.848c-1.484-10.977,35.43-58.838,76.353-54.629H137.334z"/>
	<path id="path50" fill="#02709F" d="M192.593,122.852l-10.317,7.393l-8.853-20.234l-30.635,21.914l-3.164,28.838L116.25,177.48
		l-6.406-33.848c-1.484-10.977,35.43-58.838,76.353-54.629L192.593,122.852"/>
	<path id="path52" fill="none" stroke="#FFFFFF" stroke-width="3.9999" d="M192.593,122.852l-10.317,7.393l-8.853-20.234
		l-30.635,21.914l-3.164,28.838L116.25,177.48l-6.406-33.848c-1.484-10.977,35.43-58.838,76.353-54.629L192.593,122.852z"/>
	<path id="path54" fill="#02709F" d="M254.473,0L175.02,78.73h10.869L265.322,0H254.473"/>
	<path id="path56" fill="none" stroke="#FFFFFF" stroke-width="3.9999" d="M254.473,0L175.02,78.73h10.869L265.322,0H254.473z"/>
	<path id="path58" fill="#02709F" d="M333.721,107.598l-79.429,78.73L185.889,78.73L265.322,0L333.721,107.598"/>
	<path id="path60" fill="none" stroke="#FFFFFF" stroke-width="3.9999" d="M333.721,107.598l-79.429,78.73L185.889,78.73L265.322,0
		L333.721,107.598z"/>
	<path id="path62" fill="#02709F" d="M243.418,186.328L175.02,78.73h10.869l68.403,107.598H243.418"/>
	<path id="path64" fill="none" stroke="#FFFFFF" stroke-width="3.9999" d="M243.418,186.328L175.02,78.73h10.869l68.403,107.598
		H243.418z"/>
	<path id="path66" fill="#02709F" d="M749.365,132.48l-80.498,80.41l-168.828,59.658l80.518-80.42L749.365,132.48"/>
	<path id="path68" fill="none" stroke="#FFFFFF" stroke-width="3.9999" d="M749.365,132.48l-80.498,80.41l-168.828,59.658
		l80.518-80.42L749.365,132.48z"/>
	<path id="path70" fill="#02709F" d="M750,146.387l-80.488,80.41l-0.645-13.906l80.498-80.41L750,146.387"/>
	<path id="path72" fill="none" stroke="#FFFFFF" stroke-width="3.9999" d="M750,146.387l-80.488,80.41l-0.645-13.906l80.498-80.41
		L750,146.387z"/>
	<path id="path74" fill="#02709F" d="M500.039,272.549v9.102l169.473-54.854v-13.906L500.039,272.549"/>
	<path id="path76" fill="none" stroke="#FFFFFF" stroke-width="3.9999" d="M500.039,272.549v9.102l169.473-54.854v-13.906
		L500.039,272.549z"/>
	<path id="path78" fill="#02709F" d="M251.138,18.438l64.98,102.217"/>
	<path id="path80" fill="none" stroke="#FFFFFF" stroke-width="3.9999" d="M251.138,18.438l64.98,102.217"/>
	<path id="path82" fill="#02709F" d="M235.269,34.18l64.966,102.217"/>
	<path id="path84" fill="none" stroke="#FFFFFF" stroke-width="3.9999" d="M235.269,34.18l64.966,102.217"/>
	<path id="path86" fill="#02709F" d="M219.375,49.941l64.985,102.207"/>
	<path id="path88" fill="none" stroke="#FFFFFF" stroke-width="3.9999" d="M219.375,49.941l64.985,102.207"/>
	<path id="path90" fill="#02709F" d="M203.481,65.674l64.966,102.217"/>
	<path id="path92" fill="none" stroke="#FFFFFF" stroke-width="3.9999" d="M203.481,65.674l64.966,102.217"/>
</g>
</svg>
