<?xml version="1.0" encoding="utf-8"?>
<!-- Generator: Adobe Illustrator 16.0.0, SVG Export Plug-In . SVG Version: 6.00 Build 0)  -->
<!DOCTYPE svg PUBLIC "-//W3C//DTD SVG 1.1//EN" "http://www.w3.org/Graphics/SVG/1.1/DTD/svg11.dtd">
<svg version="1.1"
	 id="svg2" xmlns:dc="http://purl.org/dc/elements/1.1/" xmlns:cc="http://creativecommons.org/ns#" xmlns:rdf="http://www.w3.org/1999/02/22-rdf-syntax-ns#" xmlns:svg="http://www.w3.org/2000/svg"
	 xmlns="http://www.w3.org/2000/svg" xmlns:xlink="http://www.w3.org/1999/xlink" x="0px" y="0px" width="78px" height="46px"
	 viewBox="0 0 78 46" enable-background="new 0 0 78 46" xml:space="preserve">
<g id="g12" transform="scale(0.1,0.1)">
	<path id="path22" fill="#087FBF" d="M15,445h693.491V71.514H15V445z"/>
	<path id="path24" fill="none" stroke="#FFFFFF" stroke-width="4" d="M15,445h693.491V71.514H15V445z"/>
	<path id="path26" fill="#087FBF" d="M15,445h693.491V71.514H15V445z"/>
	<path id="path28" fill="none" stroke="#FFFFFF" stroke-width="4" d="M708.491,445V71.514H15V445H708.491"/>
	<path id="path30" fill="#087FBF" d="M15,71.514L71.655,15h693.34l-56.504,56.514H15"/>
	<path id="path32" fill="none" stroke="#FFFFFF" stroke-width="4" d="M15,71.514L71.655,15h693.34l-56.504,56.514H15z"/>
	<path id="path34" fill="#087FBF" d="M15,71.514L71.655,15h693.34l-56.504,56.514H15"/>
	<path id="path36" fill="none" stroke="#FFFFFF" stroke-width="4" d="M15,71.514L71.655,15h693.34l-56.504,56.514H15"/>
	<path id="path38" fill="#087FBF" d="M708.491,445l56.504-42.432V15l-56.504,56.514V445"/>
	<path id="path40" fill="none" stroke="#FFFFFF" stroke-width="4" d="M708.491,445l56.504-42.432V15l-56.504,56.514V445z"/>
	<path id="path42" fill="#087FBF" d="M708.491,445l56.504-42.432V15l-56.504,56.514V445"/>
	<path id="path44" fill="none" stroke="#FFFFFF" stroke-width="4" d="M708.491,445l56.504-42.432V15l-56.504,56.514V445"/>
	<path id="path46" fill="#087FBF" d="M71.655,198.848v127.51L85.703,340.4h127.412l14.185-14.043v-127.51l-14.185-14.033H85.703
		L71.655,198.848"/>
	<path id="path48" fill="none" stroke="#FFFFFF" stroke-width="4" d="M71.655,198.848v127.51L85.703,340.4h127.412l14.185-14.043
		v-127.51l-14.185-14.033H85.703L71.655,198.848z"/>
	<path id="path50" fill="#087FBF" d="M71.655,198.848v127.51L85.703,340.4h127.412l14.185-14.043v-127.51l-14.185-14.033H85.703
		L71.655,198.848"/>
	<path id="path52" fill="none" stroke="#FFFFFF" stroke-width="4" d="M71.655,198.848v127.51L85.703,340.4h127.412l14.185-14.043
		v-127.51l-14.185-14.033H85.703L71.655,198.848"/>
	<path id="path54" fill="#087FBF" d="M71.655,198.848l14.048,14.209l70.728,14.043l56.685-14.043l14.185-14.209"/>
	<path id="path56" fill="none" stroke="#FFFFFF" stroke-width="4" d="M71.655,198.848l14.048,14.209l70.728,14.043l56.685-14.043
		l14.185-14.209"/>
	<path id="path58" fill="#087FBF" d="M283.843,198.848v127.51l14.18,14.043h127.285l14.316-14.043v-127.51l-14.316-14.033H298.022
		L283.843,198.848"/>
	<path id="path60" fill="none" stroke="#FFFFFF" stroke-width="4" d="M283.843,198.848v127.51l14.18,14.043h127.285l14.316-14.043
		v-127.51l-14.316-14.033H298.022L283.843,198.848z"/>
	<path id="path62" fill="#087FBF" d="M283.843,198.848v127.51l14.18,14.043h127.285l14.316-14.043v-127.51l-14.316-14.033H298.022
		L283.843,198.848"/>
	<path id="path64" fill="none" stroke="#FFFFFF" stroke-width="4" d="M283.843,198.848v127.51l14.18,14.043h127.285l14.316-14.043
		v-127.51l-14.316-14.033H298.022L283.843,198.848"/>
	<path id="path66" fill="#087FBF" d="M283.843,198.848l14.18,14.209l70.742,14.043l56.543-14.043l14.316-14.209"/>
	<path id="path68" fill="none" stroke="#FFFFFF" stroke-width="4" d="M283.843,198.848l14.18,14.209l70.742,14.043l56.543-14.043
		l14.316-14.209"/>
	<path id="path70" fill="#087FBF" d="M496.167,213.057v113.301L510.21,340.4l70.879,14.053l56.543-14.053l14.043-14.043V213.057
		l-14.043-14.209l-56.543-14.033l-70.879,14.033L496.167,213.057"/>
	<path id="path72" fill="none" stroke="#FFFFFF" stroke-width="4" d="M496.167,213.057v113.301L510.21,340.4l70.879,14.053
		l56.543-14.053l14.043-14.043V213.057l-14.043-14.209l-56.543-14.033l-70.879,14.033L496.167,213.057z"/>
	<path id="path74" fill="#087FBF" d="M496.167,213.057v113.301L510.21,340.4l70.879,14.053l56.543-14.053l14.043-14.043V213.057
		l-14.043-14.209l-56.543-14.033l-70.879,14.033L496.167,213.057"/>
	<path id="path76" fill="none" stroke="#FFFFFF" stroke-width="4" d="M496.167,213.057v113.301L510.21,340.4l70.879,14.053
		l56.543-14.053l14.043-14.043V213.057l-14.043-14.209l-56.543-14.033l-70.879,14.033L496.167,213.057"/>
	<path id="path78" fill="#087FBF" d="M496.167,213.057L510.21,227.1h127.422l14.043-14.043"/>
	<path id="path80" fill="none" stroke="#FFFFFF" stroke-width="4" d="M496.167,213.057L510.21,227.1h127.422l14.043-14.043"/>
</g>
</svg>
