<?xml version="1.0" encoding="utf-8"?>
<!-- Generator: Adobe Illustrator 16.0.0, SVG Export Plug-In . SVG Version: 6.00 Build 0)  -->
<!DOCTYPE svg PUBLIC "-//W3C//DTD SVG 1.1//EN" "http://www.w3.org/Graphics/SVG/1.1/DTD/svg11.dtd">
<svg version="1.1"
	 id="svg2" xmlns:dc="http://purl.org/dc/elements/1.1/" xmlns:cc="http://creativecommons.org/ns#" xmlns:rdf="http://www.w3.org/1999/02/22-rdf-syntax-ns#" xmlns:svg="http://www.w3.org/2000/svg"
	 xmlns="http://www.w3.org/2000/svg" xmlns:xlink="http://www.w3.org/1999/xlink" x="0px" y="0px" width="80px" height="30px"
	 viewBox="0 0 80 30" enable-background="new 0 0 80 30" xml:space="preserve">
<g id="g12" transform="scale(0.1,0.1)">
	<path id="path22" fill="none" stroke="#087FBF" stroke-width="4" d="M506.313,262.588c137.363,0,248.711-50.41,248.711-112.598
		c0-62.178-111.348-112.583-248.711-112.583c-137.339,0-248.677,50.405-248.677,112.583
		C257.637,212.178,368.975,262.588,506.313,262.588z"/>
	<g id="g24" transform="scale(10,10)" style="font-variant:normal;font-weight:normal;font-size:9.5774px;font-family:Helvetica;-inkscape-font-specification:Helvetica;writing-mode:lr-tb;fill:#231f20;fill-opacity:1;fill-rule:nonzero;stroke:none">
		<text transform="matrix(1.004 0 0 1 37.7617 16.9404)">F</text>
		<text transform="matrix(1.004 0 0 1 43.6392 16.9404)">D</text>
		<text transform="matrix(1.004 0 0 1 50.5806 16.9404)">D</text>
		<text transform="matrix(1.004 0 0 1 57.5259 16.9404)">I</text>
	</g>
	<path id="path30" fill="none" stroke="#087FBF" stroke-width="4" d="M506.314,285c153.906,0,278.691-60.488,278.691-135.01
		C785.005,75.439,660.22,15,506.314,15c-153.901,0-278.687,60.439-278.687,134.99C227.627,224.511,352.412,285,506.314,285z"/>
	<path id="path32" fill="none" stroke="#087FBF" stroke-width="4" d="M45.054,167.949h216.362"/>
	<path id="path34" fill="none" stroke="#087FBF" stroke-width="4" d="M15,139.516h216.367"/>
</g>
</svg>
