<?xml version="1.0" encoding="utf-8"?>
<!-- Generator: Adobe Illustrator 16.0.0, SVG Export Plug-In . SVG Version: 6.00 Build 0)  -->
<!DOCTYPE svg PUBLIC "-//W3C//DTD SVG 1.1//EN" "http://www.w3.org/Graphics/SVG/1.1/DTD/svg11.dtd">
<svg version="1.1"
	 id="svg2" xmlns:dc="http://purl.org/dc/elements/1.1/" xmlns:cc="http://creativecommons.org/ns#" xmlns:rdf="http://www.w3.org/1999/02/22-rdf-syntax-ns#" xmlns:svg="http://www.w3.org/2000/svg"
	 xmlns="http://www.w3.org/2000/svg" xmlns:xlink="http://www.w3.org/1999/xlink" x="0px" y="0px" width="80px" height="60px"
	 viewBox="0 0 80 60" enable-background="new 0 0 80 60" xml:space="preserve">
<g id="g12" transform="scale(0.1,0.1)">
	<path id="path22" fill="#087FBF" d="M11.519,394.209h583.408V204.897H11.519V394.209z"/>
	<path id="path24" fill="none" stroke="#FFFFFF" stroke-width="4" d="M11.519,394.209h583.408V204.897H11.519V394.209z"/>
	<path id="path26" fill="#087FBF" d="M10,205.898L245.664,15h544.341L594.341,205.898H10"/>
	<path id="path28" fill="none" stroke="#FFFFFF" stroke-width="4" d="M10,205.898L245.664,15h544.341L594.341,205.898H10z"/>
	<path id="path30" fill="#087FBF" d="M594.497,400.039l194.922-210.346l0.098-174.355l-195.02,190.254V400.039"/>
	<path id="path32" fill="none" stroke="#FFFFFF" stroke-width="4" d="M594.497,400.039l194.922-210.346l0.098-174.355
		l-195.02,190.254V400.039z"/>
	<path id="path34" fill="#FFFFFF" d="M351.978,156.191l-11.348,9.248H195.132l-14.502,14.575l-39.482-17.256l79.365-22.617
		l-14.043,16.05H351.978"/>
	<path id="path36" fill="#FFFFFF" d="M466.274,84.751l-11.348,9.336H309.443l-14.502,14.492l-39.395-17.173l79.282-22.7
		l-14.043,16.045H466.274"/>
	<path id="path38" fill="#FFFFFF" d="M377.612,131.006l11.318-9.336h145.605l14.492-14.497l39.316,17.168l-79.297,22.7
		l14.141-16.035H377.612"/>
	<path id="path40" fill="#FFFFFF" d="M453.208,59.565l11.328-9.248h145.508l14.492-14.497l39.492,17.168l-79.473,22.617
		l14.141-16.04H453.208"/>
	<path id="path42" fill="#087FBF" d="M11.519,579.189h583.408V389.873H11.519V579.189z"/>
	<path id="path44" fill="none" stroke="#FFFFFF" stroke-width="4" d="M11.519,579.189h583.408V389.873H11.519V579.189z"/>
	<path id="path46" fill="#087FBF" d="M594.497,585l194.922-210.322l0.098-174.355l-195.02,190.234V585"/>
	<path id="path48" fill="none" stroke="#FFFFFF" stroke-width="4" d="M594.497,585l194.922-210.322l0.098-174.355l-195.02,190.234
		V585z"/>
	<path id="path50" fill="#FFFFFF" d="M234.307,294.424h-109.18v-9.971l-41.172,14.766l41.172,14.658v-9.951h109.18V294.424"/>
	<path id="path52" fill="#FFFFFF" d="M296.011,325.811v38.701h-28.193l41.543,14.561l41.553-14.561h-28.174v-38.701H296.011"/>
	<path id="path54" fill="#FFFFFF" d="M296.011,273.73v-38.691h-28.193l41.543-14.565l41.553,14.565h-28.174v38.691H296.011"/>
	<path id="path56" fill="#FFFFFF" d="M384.438,303.926h109.18v9.951l41.191-14.658l-41.191-14.766v9.971h-109.18V303.926"/>
	<path id="path58" fill="none" stroke="#FFFFFF" stroke-width="4" d="M485.044,361.181c-20.508,7.842-114.707-13.281-210.273-46.894
		c-95.591-33.691-156.367-67.168-135.947-74.824c20.508-7.656,114.629,13.379,210.195,46.982
		C444.692,320.059,505.356,353.545,485.044,361.181z"/>
	<path id="path60" fill="none" stroke="#FFFFFF" stroke-width="4" d="M479.458,238.828c21.719,7.266-37.734,40.645-132.734,74.404
		c-94.956,33.955-189.443,55.459-211.089,48.301c-21.646-7.344,37.793-40.732,132.734-74.492
		C363.384,253.184,457.876,231.602,479.458,238.828z"/>
	<path id="path62" fill="#BFBEBE" d="M354.165,321.592c36.006-8.818,44.746-26.475,19.531-39.189
		c-25.215-12.822-74.917-15.898-110.923-7.002c-36.079,8.975-44.834,26.563-19.6,39.268
		C268.369,327.49,318.091,330.566,354.165,321.592"/>
</g>
</svg>
