<?xml version="1.0" encoding="utf-8"?>
<!-- Generator: Adobe Illustrator 16.0.0, SVG Export Plug-In . SVG Version: 6.00 Build 0)  -->
<!DOCTYPE svg PUBLIC "-//W3C//DTD SVG 1.1//EN" "http://www.w3.org/Graphics/SVG/1.1/DTD/svg11.dtd">
<svg version="1.1"
	 id="svg2" xmlns:dc="http://purl.org/dc/elements/1.1/" xmlns:cc="http://creativecommons.org/ns#" xmlns:rdf="http://www.w3.org/1999/02/22-rdf-syntax-ns#" xmlns:svg="http://www.w3.org/2000/svg"
	 xmlns="http://www.w3.org/2000/svg" xmlns:xlink="http://www.w3.org/1999/xlink" x="0px" y="0px" width="56px" height="80px"
	 viewBox="0 0 56 80" enable-background="new 0 0 56 80" xml:space="preserve">
<g id="g12" transform="scale(0.1,0.1)">
	<path id="path22" fill="#087FBF" d="M14.995,785.005h401.719V143.589H14.995V785.005z"/>
	<path id="path24" fill="#087FBF" d="M416.714,785.005l128.281-128.594V15H143.481L14.995,143.589h401.719V785.005"/>
	<path id="path26" fill="#087FBF" d="M416.714,143.589L544.995,15"/>
	<path id="path28" fill="#087FBF" d="M14.995,785.005h401.719V143.589H14.995V785.005z"/>
	<path id="path30" fill="none" stroke="#FFFFFF" stroke-width="4" d="M416.714,143.589H14.995v641.416h401.719"/>
	<path id="path32" fill="#087FBF" d="M416.714,785.005l128.281-128.594V15H143.481L14.995,143.589h401.719V785.005"/>
	<path id="path34" fill="none" stroke="#FFFFFF" stroke-width="4" d="M416.714,785.005l128.281-128.594V15H143.481L14.995,143.589
		h401.719V785.005z"/>
	<path id="path36" fill="#231F20" d="M416.714,143.589L544.995,15"/>
	<path id="path38" fill="none" stroke="#FFFFFF" stroke-width="4" stroke-linecap="round" stroke-linejoin="round" d="
		M416.714,143.589L544.995,15"/>
	<path id="path40" fill="none" stroke="#FFFFFF" stroke-width="4" d="M416.714,143.589H14.995v641.416h401.719"/>
	<path id="path42" fill="none" stroke="#FFFFFF" stroke-width="4" d="M416.714,785.005l128.281-128.594V15H143.481L14.995,143.589
		h401.719V785.005z"/>
	<path id="path44" fill="none" stroke="#FFFFFF" stroke-width="4" d="M416.714,143.589L544.995,15"/>
	<path id="path46" fill="#FFFFFF" d="M205.737,630.044c0,15.84-34.092,28.672-76.123,28.672c-42.231,0-76.157-12.832-76.157-28.672
		s33.926-28.672,76.157-28.672C171.646,601.372,205.737,614.204,205.737,630.044"/>
	<path id="path48" fill="none" stroke="#231F20" stroke-width="3.5" stroke-linecap="round" stroke-linejoin="round" d="
		M205.737,630.044c0,15.84-34.092,28.672-76.123,28.672c-42.231,0-76.157-12.832-76.157-28.672s33.926-28.672,76.157-28.672
		C171.646,601.372,205.737,614.204,205.737,630.044z"/>
	<path id="path50" fill="#231F20" d="M152.114,628.54c0,4.609-10.381,8.418-22.866,8.418c-12.705,0-22.861-3.809-22.861-8.418
		c0-5.059,10.156-8.867,22.861-8.867C141.733,619.673,152.114,623.481,152.114,628.54"/>
	<path id="path52" fill="#231F20" d="M152.114,612.759c0,4.629-10.381,8.457-22.866,8.457c-12.705,0-22.861-3.828-22.861-8.457
		s10.156-8.848,22.861-8.848C141.733,603.911,152.114,608.13,152.114,612.759"/>
	<path id="path54" fill="#FFFFFF" d="M205.737,598.559c0,15.84-34.092,28.672-76.123,28.672c-42.231,0-76.157-12.832-76.157-28.672
		c0-15.859,33.926-28.691,76.157-28.691C171.646,569.868,205.737,582.7,205.737,598.559"/>
	<path id="path56" fill="none" stroke="#231F20" stroke-width="3.5" stroke-linecap="round" stroke-linejoin="round" d="
		M205.737,598.559c0,15.84-34.092,28.672-76.123,28.672c-42.231,0-76.157-12.832-76.157-28.672
		c0-15.859,33.926-28.691,76.157-28.691C171.646,569.868,205.737,582.7,205.737,598.559z"/>
	<path id="path58" fill="#231F20" d="M152.114,597.016c0,4.629-10.381,8.438-22.866,8.438c-12.705,0-22.861-3.809-22.861-8.438
		s10.156-8.457,22.861-8.457C141.733,588.559,152.114,592.387,152.114,597.016"/>
	<path id="path60" fill="#231F20" d="M152.114,581.274c0,4.629-10.381,8.828-22.866,8.828c-12.705,0-22.861-4.199-22.861-8.828
		c0-4.648,10.156-8.438,22.861-8.438C141.733,572.837,152.114,576.626,152.114,581.274"/>
	<path id="path62" fill="#FFFFFF" d="M205.737,567.055c0,15.84-34.092,29.063-76.123,29.063c-42.231,0-76.157-13.223-76.157-29.063
		s33.926-28.672,76.157-28.672C171.646,538.384,205.737,551.216,205.737,567.055"/>
	<path id="path64" fill="none" stroke="#231F20" stroke-width="3.5" stroke-linecap="round" stroke-linejoin="round" d="
		M205.737,567.055c0,15.84-34.092,29.063-76.123,29.063c-42.231,0-76.157-13.223-76.157-29.063s33.926-28.672,76.157-28.672
		C171.646,538.384,205.737,551.216,205.737,567.055z"/>
	<path id="path66" fill="#231F20" d="M152.114,565.532c0,5.02-10.381,8.809-22.866,8.809c-12.705,0-22.861-3.789-22.861-8.809
		c0-4.648,10.156-8.457,22.861-8.457C141.733,557.075,152.114,560.884,152.114,565.532"/>
	<path id="path68" fill="#FFFFFF" d="M205.737,504.477c0,15.82-34.092,28.633-76.123,28.633c-42.231,0-76.157-12.813-76.157-28.633
		c0-15.859,33.926-28.691,76.157-28.691C171.646,475.786,205.737,488.618,205.737,504.477"/>
	<path id="path70" fill="none" stroke="#231F20" stroke-width="3.5" stroke-linecap="round" stroke-linejoin="round" d="
		M205.737,504.477c0,15.82-34.092,28.633-76.123,28.633c-42.231,0-76.157-12.813-76.157-28.633
		c0-15.859,33.926-28.691,76.157-28.691C171.646,475.786,205.737,488.618,205.737,504.477z"/>
	<path id="path72" fill="#231F20" d="M152.114,502.934c0,4.609-10.381,8.438-22.866,8.438c-12.705,0-22.861-3.828-22.861-8.438
		c0-5.039,10.156-8.848,22.861-8.848C141.733,494.087,152.114,497.895,152.114,502.934"/>
	<path id="path74" fill="#231F20" d="M152.114,487.192c0,4.629-10.381,8.418-22.866,8.418c-12.705,0-22.861-3.789-22.861-8.418
		c0-4.648,10.156-8.848,22.861-8.848C141.733,478.344,152.114,482.544,152.114,487.192"/>
	<path id="path76" fill="#FFFFFF" d="M205.737,472.954c0,15.859-34.092,28.672-76.123,28.672c-42.231,0-76.157-12.813-76.157-28.672
		c0-15.84,33.926-28.672,76.157-28.672C171.646,444.282,205.737,457.114,205.737,472.954"/>
	<path id="path78" fill="none" stroke="#231F20" stroke-width="3.5" stroke-linecap="round" stroke-linejoin="round" d="
		M205.737,472.954c0,15.859-34.092,28.672-76.123,28.672c-42.231,0-76.157-12.813-76.157-28.672
		c0-15.84,33.926-28.672,76.157-28.672C171.646,444.282,205.737,457.114,205.737,472.954z"/>
	<path id="path80" fill="#231F20" d="M152.114,471.45c0,4.629-10.381,8.418-22.866,8.418c-12.705,0-22.861-3.789-22.861-8.418
		c0-4.668,10.156-8.867,22.861-8.867C141.733,462.583,152.114,466.782,152.114,471.45"/>
	<path id="path82" fill="#231F20" d="M152.114,455.688c0,4.609-10.381,8.828-22.866,8.828c-12.705,0-22.861-4.219-22.861-8.828
		c0-4.648,10.156-8.457,22.861-8.457C141.733,447.231,152.114,451.04,152.114,455.688"/>
	<path id="path84" fill="#FFFFFF" d="M205.737,441.469c0,15.84-34.092,29.063-76.123,29.063c-42.231,0-76.157-13.223-76.157-29.063
		c0-15.859,33.926-28.691,76.157-28.691C171.646,412.778,205.737,425.61,205.737,441.469"/>
	<path id="path86" fill="none" stroke="#231F20" stroke-width="3.5" stroke-linecap="round" stroke-linejoin="round" d="
		M205.737,441.469c0,15.84-34.092,29.063-76.123,29.063c-42.231,0-76.157-13.223-76.157-29.063
		c0-15.859,33.926-28.691,76.157-28.691C171.646,412.778,205.737,425.61,205.737,441.469z"/>
	<path id="path88" fill="#231F20" d="M152.114,439.946c0,5-10.381,8.828-22.866,8.828c-12.705,0-22.861-3.828-22.861-8.828
		c0-4.648,10.156-8.457,22.861-8.457C141.733,431.489,152.114,435.298,152.114,439.946"/>
	<path id="path90" fill="#FFFFFF" d="M205.737,378.872c0,15.84-34.092,28.672-76.123,28.672c-42.231,0-76.157-12.832-76.157-28.672
		c0-16.035,33.926-28.867,76.157-28.867C171.646,350.005,205.737,362.837,205.737,378.872"/>
	<path id="path92" fill="none" stroke="#231F20" stroke-width="3.5" stroke-linecap="round" stroke-linejoin="round" d="
		M205.737,378.872c0,15.84-34.092,28.672-76.123,28.672c-42.231,0-76.157-12.832-76.157-28.672
		c0-16.035,33.926-28.867,76.157-28.867C171.646,350.005,205.737,362.837,205.737,378.872z"/>
	<path id="path94" fill="#231F20" d="M152.114,377.134c0,4.824-10.381,8.652-22.866,8.652c-12.705,0-22.861-3.828-22.861-8.652
		c0-4.629,10.156-8.643,22.861-8.643C141.733,368.491,152.114,372.505,152.114,377.134"/>
	<path id="path96" fill="#231F20" d="M152.114,361.587c0,4.619-10.381,8.652-22.866,8.652c-12.705,0-22.861-4.033-22.861-8.652
		c0-4.824,10.156-8.643,22.861-8.643C141.733,352.944,152.114,356.762,152.114,361.587"/>
	<path id="path98" fill="#FFFFFF" d="M205.737,347.387c0,15.82-34.092,28.848-76.123,28.848c-42.231,0-76.157-13.027-76.157-28.848
		c0-15.869,33.926-28.887,76.157-28.887C171.646,318.501,205.737,331.518,205.737,347.387"/>
	<path id="path100" fill="none" stroke="#231F20" stroke-width="3.5" stroke-linecap="round" stroke-linejoin="round" d="
		M205.737,347.387c0,15.82-34.092,28.848-76.123,28.848c-42.231,0-76.157-13.027-76.157-28.848
		c0-15.869,33.926-28.887,76.157-28.887C171.646,318.501,205.737,331.518,205.737,347.387z"/>
	<path id="path102" fill="#231F20" d="M152.114,345.844c0,4.824-10.381,8.643-22.866,8.643c-12.705,0-22.861-3.818-22.861-8.643
		c0-4.844,10.156-8.643,22.861-8.643C141.733,337.202,152.114,341.001,152.114,345.844"/>
	<path id="path104" fill="#231F20" d="M152.114,330.102c0,4.824-10.381,8.623-22.866,8.623c-12.705,0-22.861-3.799-22.861-8.623
		c0-4.844,10.156-8.633,22.861-8.633C141.733,321.469,152.114,325.259,152.114,330.102"/>
	<path id="path106" fill="#FFFFFF" d="M205.737,316.069c0,15.85-34.092,28.682-76.123,28.682c-42.231,0-76.157-12.832-76.157-28.682
		c0-16.035,33.926-28.857,76.157-28.857C171.646,287.212,205.737,300.034,205.737,316.069"/>
	<path id="path108" fill="none" stroke="#231F20" stroke-width="3.5" stroke-linecap="round" stroke-linejoin="round" d="
		M205.737,316.069c0,15.85-34.092,28.682-76.123,28.682c-42.231,0-76.157-12.832-76.157-28.682
		c0-16.035,33.926-28.857,76.157-28.857C171.646,287.212,205.737,300.034,205.737,316.069z"/>
	<path id="path110" fill="#231F20" d="M152.114,314.36c0,4.824-10.381,8.623-22.866,8.623c-12.705,0-22.861-3.799-22.861-8.623
		c0-4.648,10.156-8.672,22.861-8.672C141.733,305.688,152.114,309.712,152.114,314.36"/>
	<path id="path112" fill="#FFFFFF" d="M375.356,630.044c0,15.84-33.906,28.672-75.928,28.672c-42.236,0-76.357-12.832-76.357-28.672
		s34.121-28.672,76.357-28.672C341.45,601.372,375.356,614.204,375.356,630.044"/>
	<path id="path114" fill="none" stroke="#231F20" stroke-width="3.5" stroke-linecap="round" stroke-linejoin="round" d="
		M375.356,630.044c0,15.84-33.906,28.672-75.928,28.672c-42.236,0-76.357-12.832-76.357-28.672s34.121-28.672,76.357-28.672
		C341.45,601.372,375.356,614.204,375.356,630.044z"/>
	<path id="path116" fill="#231F20" d="M321.519,628.54c0,4.609-9.99,8.418-22.676,8.418c-12.676,0-22.842-3.809-22.842-8.418
		c0-5.059,10.166-8.867,22.842-8.867C311.528,619.673,321.519,623.481,321.519,628.54"/>
	<path id="path118" fill="#231F20" d="M321.519,612.759c0,4.629-9.99,8.457-22.676,8.457c-12.676,0-22.842-3.828-22.842-8.457
		s10.166-8.848,22.842-8.848C311.528,603.911,321.519,608.13,321.519,612.759"/>
	<path id="path120" fill="#FFFFFF" d="M375.356,598.559c0,15.84-33.906,28.672-75.928,28.672c-42.236,0-76.357-12.832-76.357-28.672
		c0-15.859,34.121-28.691,76.357-28.691C341.45,569.868,375.356,582.7,375.356,598.559"/>
	<path id="path122" fill="none" stroke="#231F20" stroke-width="3.5" stroke-linecap="round" stroke-linejoin="round" d="
		M375.356,598.559c0,15.84-33.906,28.672-75.928,28.672c-42.236,0-76.357-12.832-76.357-28.672
		c0-15.859,34.121-28.691,76.357-28.691C341.45,569.868,375.356,582.7,375.356,598.559z"/>
	<path id="path124" fill="#231F20" d="M321.519,597.016c0,4.629-9.99,8.438-22.676,8.438c-12.676,0-22.842-3.809-22.842-8.438
		s10.166-8.457,22.842-8.457C311.528,588.559,321.519,592.387,321.519,597.016"/>
	<path id="path126" fill="#231F20" d="M321.519,581.274c0,4.629-9.99,8.828-22.676,8.828c-12.676,0-22.842-4.199-22.842-8.828
		c0-4.648,10.166-8.438,22.842-8.438C311.528,572.837,321.519,576.626,321.519,581.274"/>
	<path id="path128" fill="#FFFFFF" d="M375.356,567.055c0,15.84-33.906,29.063-75.928,29.063c-42.236,0-76.357-13.223-76.357-29.063
		s34.121-28.672,76.357-28.672C341.45,538.384,375.356,551.216,375.356,567.055"/>
	<path id="path130" fill="none" stroke="#231F20" stroke-width="3.5" stroke-linecap="round" stroke-linejoin="round" d="
		M375.356,567.055c0,15.84-33.906,29.063-75.928,29.063c-42.236,0-76.357-13.223-76.357-29.063s34.121-28.672,76.357-28.672
		C341.45,538.384,375.356,551.216,375.356,567.055z"/>
	<path id="path132" fill="#231F20" d="M321.519,565.532c0,5.02-9.99,8.809-22.676,8.809c-12.676,0-22.842-3.789-22.842-8.809
		c0-4.648,10.166-8.457,22.842-8.457C311.528,557.075,321.519,560.884,321.519,565.532"/>
	<path id="path134" fill="#FFFFFF" d="M375.356,504.477c0,15.82-33.906,28.633-75.928,28.633c-42.236,0-76.357-12.813-76.357-28.633
		c0-15.859,34.121-28.691,76.357-28.691C341.45,475.786,375.356,488.618,375.356,504.477"/>
	<path id="path136" fill="none" stroke="#231F20" stroke-width="3.5" stroke-linecap="round" stroke-linejoin="round" d="
		M375.356,504.477c0,15.82-33.906,28.633-75.928,28.633c-42.236,0-76.357-12.813-76.357-28.633
		c0-15.859,34.121-28.691,76.357-28.691C341.45,475.786,375.356,488.618,375.356,504.477z"/>
	<path id="path138" fill="#231F20" d="M321.519,502.934c0,4.609-9.99,8.438-22.676,8.438c-12.676,0-22.842-3.828-22.842-8.438
		c0-5.039,10.166-8.848,22.842-8.848C311.528,494.087,321.519,497.895,321.519,502.934"/>
	<path id="path140" fill="#231F20" d="M321.519,487.192c0,4.629-9.99,8.418-22.676,8.418c-12.676,0-22.842-3.789-22.842-8.418
		c0-4.648,10.166-8.848,22.842-8.848C311.528,478.344,321.519,482.544,321.519,487.192"/>
	<path id="path142" fill="#FFFFFF" d="M375.356,472.954c0,15.859-33.906,28.672-75.928,28.672
		c-42.236,0-76.357-12.813-76.357-28.672c0-15.84,34.121-28.672,76.357-28.672C341.45,444.282,375.356,457.114,375.356,472.954"/>
	<path id="path144" fill="none" stroke="#231F20" stroke-width="3.5" stroke-linecap="round" stroke-linejoin="round" d="
		M375.356,472.954c0,15.859-33.906,28.672-75.928,28.672c-42.236,0-76.357-12.813-76.357-28.672
		c0-15.84,34.121-28.672,76.357-28.672C341.45,444.282,375.356,457.114,375.356,472.954z"/>
	<path id="path146" fill="#231F20" d="M321.519,471.45c0,4.629-9.99,8.418-22.676,8.418c-12.676,0-22.842-3.789-22.842-8.418
		c0-4.668,10.166-8.867,22.842-8.867C311.528,462.583,321.519,466.782,321.519,471.45"/>
	<path id="path148" fill="#231F20" d="M321.519,455.688c0,4.609-9.99,8.828-22.676,8.828c-12.676,0-22.842-4.219-22.842-8.828
		c0-4.648,10.166-8.457,22.842-8.457C311.528,447.231,321.519,451.04,321.519,455.688"/>
	<path id="path150" fill="#FFFFFF" d="M375.356,441.469c0,15.84-33.906,29.063-75.928,29.063c-42.236,0-76.357-13.223-76.357-29.063
		c0-15.859,34.121-28.691,76.357-28.691C341.45,412.778,375.356,425.61,375.356,441.469"/>
	<path id="path152" fill="none" stroke="#231F20" stroke-width="3.5" stroke-linecap="round" stroke-linejoin="round" d="
		M375.356,441.469c0,15.84-33.906,29.063-75.928,29.063c-42.236,0-76.357-13.223-76.357-29.063
		c0-15.859,34.121-28.691,76.357-28.691C341.45,412.778,375.356,425.61,375.356,441.469z"/>
	<path id="path154" fill="#231F20" d="M321.519,439.946c0,5-9.99,8.828-22.676,8.828c-12.676,0-22.842-3.828-22.842-8.828
		c0-4.648,10.166-8.457,22.842-8.457C311.528,431.489,321.519,435.298,321.519,439.946"/>
	<path id="path156" fill="#FFFFFF" d="M375.356,378.872c0,15.84-33.906,28.672-75.928,28.672c-42.236,0-76.357-12.832-76.357-28.672
		c0-16.035,34.121-28.867,76.357-28.867C341.45,350.005,375.356,362.837,375.356,378.872"/>
	<path id="path158" fill="none" stroke="#231F20" stroke-width="3.5" stroke-linecap="round" stroke-linejoin="round" d="
		M375.356,378.872c0,15.84-33.906,28.672-75.928,28.672c-42.236,0-76.357-12.832-76.357-28.672
		c0-16.035,34.121-28.867,76.357-28.867C341.45,350.005,375.356,362.837,375.356,378.872z"/>
	<path id="path160" fill="#231F20" d="M321.519,377.134c0,4.824-9.99,8.652-22.676,8.652c-12.676,0-22.842-3.828-22.842-8.652
		c0-4.629,10.166-8.643,22.842-8.643C311.528,368.491,321.519,372.505,321.519,377.134"/>
	<path id="path162" fill="#231F20" d="M321.519,361.587c0,4.619-9.99,8.652-22.676,8.652c-12.676,0-22.842-4.033-22.842-8.652
		c0-4.824,10.166-8.643,22.842-8.643C311.528,352.944,321.519,356.762,321.519,361.587"/>
	<path id="path164" fill="#FFFFFF" d="M375.356,347.387c0,15.82-33.906,28.848-75.928,28.848c-42.236,0-76.357-13.027-76.357-28.848
		c0-15.869,34.121-28.887,76.357-28.887C341.45,318.501,375.356,331.518,375.356,347.387"/>
	<path id="path166" fill="none" stroke="#231F20" stroke-width="3.5" stroke-linecap="round" stroke-linejoin="round" d="
		M375.356,347.387c0,15.82-33.906,28.848-75.928,28.848c-42.236,0-76.357-13.027-76.357-28.848
		c0-15.869,34.121-28.887,76.357-28.887C341.45,318.501,375.356,331.518,375.356,347.387z"/>
	<path id="path168" fill="#231F20" d="M321.519,345.844c0,4.824-9.99,8.643-22.676,8.643c-12.676,0-22.842-3.818-22.842-8.643
		c0-4.844,10.166-8.643,22.842-8.643C311.528,337.202,321.519,341.001,321.519,345.844"/>
	<path id="path170" fill="#231F20" d="M321.519,330.102c0,4.824-9.99,8.623-22.676,8.623c-12.676,0-22.842-3.799-22.842-8.623
		c0-4.844,10.166-8.633,22.842-8.633C311.528,321.469,321.519,325.259,321.519,330.102"/>
	<path id="path172" fill="#FFFFFF" d="M375.356,316.069c0,15.85-33.906,28.682-75.928,28.682c-42.236,0-76.357-12.832-76.357-28.682
		c0-16.035,34.121-28.857,76.357-28.857C341.45,287.212,375.356,300.034,375.356,316.069"/>
	<path id="path174" fill="none" stroke="#231F20" stroke-width="3.5" stroke-linecap="round" stroke-linejoin="round" d="
		M375.356,316.069c0,15.85-33.906,28.682-75.928,28.682c-42.236,0-76.357-12.832-76.357-28.682
		c0-16.035,34.121-28.857,76.357-28.857C341.45,287.212,375.356,300.034,375.356,316.069z"/>
	<path id="path176" fill="#231F20" d="M321.519,314.36c0,4.824-9.99,8.623-22.676,8.623c-12.676,0-22.842-3.799-22.842-8.623
		c0-4.648,10.166-8.672,22.842-8.672C311.528,305.688,321.519,309.712,321.519,314.36"/>
</g>
</svg>
