<?xml version="1.0" encoding="utf-8"?>
<!-- Generator: Adobe Illustrator 16.0.0, SVG Export Plug-In . SVG Version: 6.00 Build 0)  -->
<!DOCTYPE svg PUBLIC "-//W3C//DTD SVG 1.1//EN" "http://www.w3.org/Graphics/SVG/1.1/DTD/svg11.dtd">
<svg version="1.1"
	 id="图层_1" xmlns:dc="http://purl.org/dc/elements/1.1/" xmlns:cc="http://creativecommons.org/ns#" xmlns:rdf="http://www.w3.org/1999/02/22-rdf-syntax-ns#"
	 xmlns="http://www.w3.org/2000/svg" xmlns:xlink="http://www.w3.org/1999/xlink" x="0px" y="0px" width="75px" height="75px"
	 viewBox="0 0 75 75" enable-background="new 0 0 75 75" xml:space="preserve">
<path fill="#00BCF2" d="M8.806,74.709c-3.399-0.89-6.138-3.576-7.12-6.982l-0.339-1.178V37.574c0-23.788,0.035-29.12,0.198-29.784
	c0.108-0.444,0.498-1.438,0.864-2.206c0.569-1.194,0.85-1.579,1.935-2.649c1.451-1.433,2.742-2.169,4.638-2.647
	c1.14-0.287,1.671-0.293,25.372-0.288l24.207,0.005l7.547,7.459l7.545,7.459l-0.045,25.959l-0.045,25.959l-0.348,1.03
	c-1.197,3.548-3.736,5.966-7.191,6.849c-1.078,0.276-1.902,0.285-28.629,0.276C10.804,74.992,9.843,74.981,8.806,74.709
	L8.806,74.709z M65.307,68.479c0.893-0.438,1.604-1.236,1.957-2.197c0.131-0.352,0.176-6.401,0.186-24.109l0.01-23.642l-5.992-0.038
	l-5.994-0.039l-0.039-6.14l-0.037-6.141L32.931,6.174L10.466,6.175L9.731,6.518c-0.405,0.188-0.98,0.615-1.279,0.946
	c-1.074,1.192-1-1.007-1,30.04c0,30.135-0.039,28.611,0.761,29.794c0.449,0.663,1.29,1.24,2.15,1.473
	c0.55,0.148,6.154,0.182,27.388,0.159l26.695-0.027L65.307,68.479L65.307,68.479z M20.394,50.738v-3.237l16.73,0.037l16.731,0.038
	v3.162V53.9l-16.731,0.037l-16.73,0.038V50.738L20.394,50.738z M20.394,38.897v-3.162l16.73,0.037l16.731,0.037l0.039,3.126
	l0.039,3.124h-16.77h-16.77V38.897L20.394,38.897z M20.394,27.058v-3.237l16.73,0.038l16.731,0.037v3.163v3.162l-16.731,0.038
	l-16.73,0.037V27.058L20.394,27.058z"/>
</svg>
