<?xml version="1.0" encoding="utf-8"?>
<!-- Generator: Adobe Illustrator 16.0.0, SVG Export Plug-In . SVG Version: 6.00 Build 0)  -->
<!DOCTYPE svg PUBLIC "-//W3C//DTD SVG 1.1//EN" "http://www.w3.org/Graphics/SVG/1.1/DTD/svg11.dtd">
<svg version="1.1"
	 id="svg2" xmlns:dc="http://purl.org/dc/elements/1.1/" xmlns:cc="http://creativecommons.org/ns#" xmlns:rdf="http://www.w3.org/1999/02/22-rdf-syntax-ns#" xmlns:svg="http://www.w3.org/2000/svg"
	 xmlns="http://www.w3.org/2000/svg" xmlns:xlink="http://www.w3.org/1999/xlink" x="0px" y="0px" width="60px" height="78px"
	 viewBox="0 0 60 78" enable-background="new 0 0 60 78" xml:space="preserve">
<g id="g12" transform="scale(0.1,0.1)">
	<path id="path14" fill="#087BBB" d="M15,769.995h432.007V148.047H15V769.995z"/>
	<path id="path16" fill="none" stroke="#FFFFFF" stroke-width="4" d="M447.007,148.047H15v621.948h432.007"/>
	<path id="path18" fill="#087BBB" d="M447.007,769.995l137.988-138.047V10H152.954L15,148.047h432.007V769.995"/>
	<path id="path20" fill="none" stroke="#FFFFFF" stroke-width="4" d="M447.007,769.995l137.988-138.047V10H152.954L15,148.047
		h432.007V769.995z"/>
	<path id="path22" fill="#087BBB" d="M447.007,148.047L584.995,10"/>
	<path id="path24" fill="none" stroke="#FFFFFF" stroke-width="4" d="M447.007,148.047L584.995,10"/>
	<path id="path26" fill="none" stroke="#FFFFFF" stroke-width="4" d="M22.021,319.204h421.216"/>
	<path id="path28" fill="none" stroke="#FFFFFF" stroke-width="4" d="M22.021,516.909h421.216"/>
	<path id="path30" fill="none" stroke="#FFFFFF" stroke-width="4" d="M164.37,436.909h122.793"/>
	<path id="path32" fill="none" stroke="#FFFFFF" stroke-width="4" d="M164.37,399.643h122.793"/>
	<path id="path34" fill="none" stroke="#FFFFFF" stroke-width="4" d="M115.337,479.135h217.432V361.089H115.337V479.135z"/>
</g>
</svg>
