<?xml version="1.0" encoding="utf-8"?>
<!-- Generator: Adobe Illustrator 16.0.0, SVG Export Plug-In . SVG Version: 6.00 Build 0)  -->
<!DOCTYPE svg PUBLIC "-//W3C//DTD SVG 1.1//EN" "http://www.w3.org/Graphics/SVG/1.1/DTD/svg11.dtd">
<svg version="1.1"
	 id="svg2" xmlns:dc="http://purl.org/dc/elements/1.1/" xmlns:cc="http://creativecommons.org/ns#" xmlns:rdf="http://www.w3.org/1999/02/22-rdf-syntax-ns#" xmlns:svg="http://www.w3.org/2000/svg"
	 xmlns="http://www.w3.org/2000/svg" xmlns:xlink="http://www.w3.org/1999/xlink" x="0px" y="0px" width="56px" height="80px"
	 viewBox="0 0 56 80" enable-background="new 0 0 56 80" xml:space="preserve">
<g id="g12" transform="scale(0.1,0.1)">
	<path id="path22" fill="#087FBF" d="M15,785.005h401.714V143.589H15V785.005z"/>
	<path id="path24" fill="none" stroke="#FFFFFF" stroke-width="4" d="M416.714,143.589H15v641.416h401.714"/>
	<path id="path26" fill="#087FBF" d="M416.714,785.005l128.281-128.594V15H143.481L15,143.589h401.714V785.005"/>
	<path id="path28" fill="none" stroke="#FFFFFF" stroke-width="4" d="M416.714,785.005l128.281-128.594V15H143.481L15,143.589
		h401.714V785.005z"/>
	<path id="path30" fill="#087FBF" d="M416.714,143.589L544.995,15"/>
	<path id="path32" fill="none" stroke="#FFFFFF" stroke-width="4" d="M416.714,143.589L544.995,15"/>
	<path id="path34" fill="none" stroke="#FFFFFF" stroke-width="4" d="M21.636,393.54h391.387"/>
	<path id="path36" fill="none" stroke="#FFFFFF" stroke-width="4" d="M21.636,687.915h391.387"/>
	<path id="path38" fill="none" stroke="#FFFFFF" stroke-width="4" d="M112.891,242.915h114.312"/>
	<path id="path40" fill="none" stroke="#FFFFFF" stroke-width="4" d="M67.363,282.29h202.241v-81.875H67.363V282.29z"/>
</g>
</svg>
