<?xml version="1.0" encoding="utf-8"?>
<!-- Generator: Adobe Illustrator 16.0.0, SVG Export Plug-In . SVG Version: 6.00 Build 0)  -->
<!DOCTYPE svg PUBLIC "-//W3C//DTD SVG 1.1//EN" "http://www.w3.org/Graphics/SVG/1.1/DTD/svg11.dtd">
<svg version="1.1"
	 id="svg2" xmlns:dc="http://purl.org/dc/elements/1.1/" xmlns:cc="http://creativecommons.org/ns#" xmlns:rdf="http://www.w3.org/1999/02/22-rdf-syntax-ns#" xmlns:svg="http://www.w3.org/2000/svg"
	 xmlns="http://www.w3.org/2000/svg" xmlns:xlink="http://www.w3.org/1999/xlink" x="0px" y="0px" width="64px" height="78px"
	 viewBox="0 0 64 78" enable-background="new 0 0 64 78" xml:space="preserve">
	<g id="g12" transform="scale(0.1,0.1)">
		<path id="path22" fill="#02709F" d="M111.509,760.512h389.414V139.238H111.509V760.512z"/>
		<path id="path24" fill="none" stroke="#FFFFFF" stroke-width="3.9999" d="M500.923,139.409H111.509v621.103h389.414"/>
		<path id="path26" fill="#02709F" d="M500.923,760.512l124.453-124.297V14.795H235.933L111.509,139.409h389.414V760.512"/>
		<path id="path28" fill="none" stroke="#FFFFFF" stroke-width="3.9999" d="M500.923,760.512l124.453-124.297V14.795H235.933
					L111.509,139.409h389.414V760.512z"/>
		<path id="path30" fill="#02709F" d="M117.808,330.259h379.521"/>
		<path id="path32" fill="none" stroke="#FFFFFF" stroke-width="3.9999" d="M117.808,330.259h379.521"/>
		<path id="path34" fill="#02709F" d="M117.808,523.442h379.521"/>
		<path id="path36" fill="none" stroke="#FFFFFF" stroke-width="3.9999" d="M117.808,523.442h379.521"/>
		<path id="path38" fill="#02709F" d="M257.446,230.454h110.762"/>
		<path id="path40" fill="none" stroke="#FFFFFF" stroke-width="3.9999" d="M257.446,230.454h110.762"/>
		<path id="path42" fill="#02709F" d="M213.071,268.56h196.074v-79.287H213.071V268.56z"/>
		<path id="path44" fill="none" stroke="#FFFFFF" stroke-width="3.9999" d="M213.071,268.56h196.074v-79.287H213.071V268.56z"/>
		<path id="path46" fill="#02709F" d="M257.446,627.29h110.762"/>
		<path id="path48" fill="none" stroke="#FFFFFF" stroke-width="3.9999" d="M257.446,627.29h110.762"/>
		<path id="path50" fill="#02709F" d="M213.071,665.239h196.074v-79.316H213.071V665.239z"/>
		<path id="path52" fill="none" stroke="#FFFFFF" stroke-width="3.9999" d="M213.071,665.239h196.074v-79.316H213.071V665.239z"/>
		<path id="path54" fill="#02709F" d="M117.808,716.43h379.521"/>
		<path id="path56" fill="none" stroke="#FFFFFF" stroke-width="3.9999" d="M117.808,716.43h379.521"/>
		<path id="path58" fill="#02709F" d="M411.821,609.067l85.508-85.625V380.044H108.057l-85.83,85.801h389.595V609.067"/>
		<path id="path60" fill="none" stroke="#FFFFFF" stroke-width="3.9999" d="M411.821,609.067l85.508-85.625V380.044H108.057
					l-85.83,85.801h389.595V609.067z"/>
		<path id="path62" fill="#02709F" d="M411.821,465.844l85.508-85.801"/>
		<path id="path64" fill="none" stroke="#FFFFFF" stroke-width="3.9999" d="M411.821,465.844l85.508-85.801"/>
		<path id="path66" fill="#02709F" d="M22.227,609.067h389.595V415.063H22.227V609.067z"/>
		<path id="path68" fill="none" stroke="#FFFFFF" stroke-width="3.9999" d="M22.227,609.067h389.595V415.063H22.227V609.067z"/>
		<path id="path70" fill="#02709F" d="M168.149,514.614h110.752"/>
		<path id="path72" fill="none" stroke="#FFFFFF" stroke-width="3.9999" d="M168.149,514.614h110.752"/>
		<path id="path74" fill="#02709F" d="M123.774,552.544h196.25v-79.297h-196.25V552.544z"/>
		<path id="path76" fill="none" stroke="#FFFFFF" stroke-width="3.9999" d="M123.774,552.544h196.25v-79.297h-196.25V552.544z"/>
	</g>
</svg>
