<?xml version="1.0" encoding="utf-8"?>
<!-- Generator: Adobe Illustrator 16.0.0, SVG Export Plug-In . SVG Version: 6.00 Build 0)  -->
<!DOCTYPE svg PUBLIC "-//W3C//DTD SVG 1.1//EN" "http://www.w3.org/Graphics/SVG/1.1/DTD/svg11.dtd">
<svg version="1.1"
	 id="图层_1" xmlns:dc="http://purl.org/dc/elements/1.1/" xmlns:cc="http://creativecommons.org/ns#" xmlns:rdf="http://www.w3.org/1999/02/22-rdf-syntax-ns#"
	 xmlns="http://www.w3.org/2000/svg" xmlns:xlink="http://www.w3.org/1999/xlink" x="0px" y="0px" width="75px" height="75px"
	 viewBox="0 0 75 75" enable-background="new 0 0 75 75" xml:space="preserve">
<path fill="#00BCF2" d="M8.807,74.709c-3.399-0.892-6.138-3.576-7.121-6.982l-0.339-1.178V37.574
	c0-23.787,0.036-29.119,0.198-29.783C1.655,7.347,2.044,6.354,2.41,5.585c0.57-1.194,0.85-1.579,1.935-2.649
	c1.451-1.433,2.742-2.169,4.638-2.646c1.139-0.287,1.671-0.293,25.371-0.288l24.207,0.005l7.546,7.459l7.546,7.459l-0.044,25.959
	l-0.046,25.959l-0.347,1.03c-1.198,3.547-3.737,5.965-7.192,6.849c-1.078,0.276-1.902,0.284-28.628,0.276
	C10.804,74.99,9.842,74.981,8.807,74.709L8.807,74.709z M53.781,50.738v-3.089H37.088H20.395v3.089v3.089h16.693h16.693V50.738
	L53.781,50.738z M53.781,38.971v-3.088H37.088H20.395v3.088v3.089h16.693h16.693V38.971L53.781,38.971z M53.781,27.059V23.97H37.088
	H20.395v3.089v3.088h16.693h16.693V27.059L53.781,27.059z M62.68,11.174c-3.963-3.963-7.223-7.206-7.242-7.206
	c-0.021,0-0.039,3.243-0.039,7.206v7.207h7.243h7.244L62.68,11.174L62.68,11.174z"/>
</svg>
