<svg version="1.1" id="ilhwsa8q1" xmlns:xml="http://www.w3.org/XML/1998/namespace"
	 xmlns="http://www.w3.org/2000/svg" xmlns:xlink="http://www.w3.org/1999/xlink" x="0px" y="0px" width="75px" height="53px"
	 viewBox="0 0 75 53" enable-background="new 0 0 75 53" xml:space="preserve">
<g>
	<path fill="#F28A56" d="M22.412,9.099H0.707C0.266,9.099,0,8.833,0,8.481V0.618C0,0.267,0.266,0,0.707,0h21.705
		c0.351,0,0.708,0.267,0.708,0.618v7.863C23.029,8.833,22.763,9.099,22.412,9.099z"/>
	<path fill="#F28A56" d="M48.265,9.099H26.646c-0.352,0-0.703-0.266-0.703-0.617V0.618C25.943,0.267,26.294,0,26.646,0h21.709
		c0.352,0,0.702,0.267,0.702,0.618v7.863C49.057,8.833,48.706,9.099,48.265,9.099z"/>
	<path fill="#F28A56" d="M74.298,9.099h-21.71c-0.351,0-0.702-0.266-0.702-0.617V0.618C51.886,0.267,52.146,0,52.588,0h21.71
		C74.739,0,75,0.267,75,0.618v7.863C75,8.833,74.739,9.099,74.298,9.099z"/>
	<path fill="#F28A56" d="M22.412,31.088H0.707C0.351,31.088,0,30.827,0,30.475v-7.863c0-0.352,0.266-0.618,0.707-0.618h21.705
		c0.351,0,0.708,0.267,0.708,0.618v7.863C23.029,30.827,22.763,31.088,22.412,31.088z"/>
	<path fill="#F28A56" d="M48.265,31.088H26.646c-0.352,0-0.703-0.261-0.703-0.613v-7.863c0-0.352,0.261-0.618,0.703-0.618h21.709
		c0.352,0,0.702,0.267,0.702,0.618v7.863C49.057,30.827,48.706,31.088,48.265,31.088z"/>
	<path fill="#F28A56" d="M74.298,31.088h-21.71c-0.351,0-0.702-0.261-0.702-0.613v-7.863c0-0.352,0.261-0.618,0.702-0.618h21.71
		c0.351,0,0.702,0.267,0.702,0.618v7.863C75,30.827,74.739,31.088,74.298,31.088z"/>
	<path fill="#F28A56" d="M35.293,20.227H13.678c-0.355,0-0.706-0.267-0.706-0.618v-7.773c0-0.351,0.266-0.617,0.706-0.617h21.615
		c0.356,0,0.707,0.267,0.707,0.617v7.863C36,19.96,35.649,20.227,35.293,20.227z"/>
	<path fill="#F28A56" d="M9.44,20.227H0v-9.099h9.44c0.355,0,0.707,0.266,0.707,0.617v7.863C10.147,19.96,9.796,20.227,9.44,20.227z
		"/>
	<path fill="#F28A56" d="M61.326,20.227H39.617c-0.352,0-0.703-0.267-0.703-0.618v-7.773c0-0.351,0.262-0.617,0.703-0.617h21.709
		c0.352,0,0.702,0.267,0.702,0.617v7.863C62.028,19.96,61.678,20.227,61.326,20.227z"/>
	<path fill="#F28A56" d="M75,20.227H64.677c-0.351,0-0.702-0.267-0.702-0.618v-7.773c0-0.351,0.261-0.617,0.702-0.617H75V20.227z"/>
	<path fill="#F28A56" d="M22.412,53H0.707C0.266,53,0,52.729,0,52.378v-7.863c0-0.352,0.266-0.612,0.707-0.612h21.705
		c0.351,0,0.708,0.261,0.708,0.612v7.863C23.029,52.639,22.763,53,22.412,53z"/>
	<path fill="#F28A56" d="M48.265,53H26.646c-0.352,0-0.703-0.271-0.703-0.622v-7.863c0-0.352,0.261-0.612,0.703-0.612h21.709
		c0.352,0,0.702,0.261,0.702,0.612v7.863C49.057,52.639,48.706,53,48.265,53z"/>
	<path fill="#F28A56" d="M74.298,53h-21.71c-0.351,0-0.702-0.271-0.702-0.622v-7.863c0-0.352,0.261-0.612,0.702-0.612h21.71
		c0.351,0,0.702,0.261,0.702,0.612v7.863C75,52.639,74.739,53,74.298,53z"/>
	<path fill="#F28A56" d="M35.293,42.135H13.678c-0.355,0-0.706-0.271-0.706-0.623v-7.943c0-0.359,0.266-0.623,0.706-0.623h21.615
		c0.356,0,0.707,0.264,0.707,0.623v7.943C36,41.782,35.649,42.135,35.293,42.135z"/>
	<path fill="#F28A56" d="M9.44,42.135H0v-9.189h9.44c0.355,0,0.707,0.264,0.707,0.623v7.854C10.147,41.782,9.796,42.135,9.44,42.135
		z"/>
	<path fill="#F28A56" d="M61.326,42.135H39.617c-0.352,0-0.703-0.271-0.703-0.623v-7.943c0-0.359,0.262-0.623,0.703-0.623h21.709
		c0.352,0,0.702,0.264,0.702,0.623v7.943C62.028,41.782,61.678,42.135,61.326,42.135z"/>
	<path fill="#F28A56" d="M75,42.135H64.677c-0.351,0-0.702-0.271-0.702-0.623v-7.943c0-0.359,0.261-0.623,0.702-0.623H75V42.135z"/>
	<path pointer-events="none" fill="#F28A56" stroke="#FFFFFF" stroke-width="2" stroke-miterlimit="10" d="M31.688,49.157
		c0.429-3.101,1.497-6.021,3.185-8.62c0.517-0.856,0.986-1.717,1.412-2.622c0.488-0.85,0.62-1.884,0.337-2.824
		c0.858,0.819,1.313,1.986,1.274,3.163c-0.325,2.412-0.033,4.842,0.849,7.093c0.881,1.702,2.212,3.134,3.872,4.153
		c3.591-0.792,6.837-2.713,9.298-5.449c2.388-2.75,3.185-6.537,2.121-10.03c-1.196-3.45-2.803-6.743-4.788-9.826
		c-1.157-1.68-1.787-3.677-1.832-5.714c0.235-0.888,0.823-1.651,1.613-2.122c-1.187-0.022-2.331,0.381-3.244,1.128
		c-1.862,1.866-2.97,4.364-3.103,7.003c-0.717-2.023-0.829-4.218-0.284-6.29c0.694-2.785,0.363-5.707-0.913-8.264
		c-0.862-1.349-1.912-2.562-3.104-3.617c-0.983-0.78-1.812-1.734-2.461-2.82c-0.134,1.354-0.019,2.724,0.363,4.032
		c0.486,2.087,0.187,4.278-0.858,6.143c-0.715,1.179-1.482,2.307-2.328,3.396c-1.19,1.779-1.945,3.802-2.255,5.94
		c-0.3-2.453-1.007-4.81-2.112-7.01c-1.032-2.112-2.584-3.933-4.51-5.297c0.83,2.062,1.166,4.286,0.989,6.509
		c-0.261,1.886-0.741,3.728-1.412,5.503c-1.684,3.482-2.781,7.191-3.252,11.024c-0.312,3.785,0.919,7.52,3.386,10.387
		C25.948,46.552,28.664,48.308,31.688,49.157z"/>
</g>
</svg>
