<?xml version="1.0" encoding="utf-8"?>
<!-- Generator: Adobe Illustrator 16.0.0, SVG Export Plug-In . SVG Version: 6.00 Build 0)  -->
<!DOCTYPE svg PUBLIC "-//W3C//DTD SVG 1.1//EN" "http://www.w3.org/Graphics/SVG/1.1/DTD/svg11.dtd">
<svg version="1.1"
	 id="svg2" xmlns:dc="http://purl.org/dc/elements/1.1/" xmlns:cc="http://creativecommons.org/ns#" xmlns:rdf="http://www.w3.org/1999/02/22-rdf-syntax-ns#" xmlns:svg="http://www.w3.org/2000/svg"
	 xmlns="http://www.w3.org/2000/svg" xmlns:xlink="http://www.w3.org/1999/xlink" x="0px" y="0px" width="36px" height="80px"
	 viewBox="0 0 36 80" enable-background="new 0 0 36 80" xml:space="preserve">
<g id="g12" transform="scale(0.1,0.1)">
	<path id="path22" fill="#087FBF" d="M10,789.167h192.275V146.316H10V789.167z"/>
	<path id="path24" fill="none" stroke="#FFFFFF" stroke-width="4" d="M10,789.167h192.275V146.316H10V789.167z"/>
	<path id="path26" fill="#087FBF" d="M202.275,146.316H10L182.344,9.998H350L202.275,146.316"/>
	<path id="path28" fill="none" stroke="#FFFFFF" stroke-width="4" d="M202.275,146.316H10L182.344,9.998H350L202.275,146.316z"/>
	<path id="path30" fill="#087FBF" d="M350,9.998v613.281L202.275,789.997V146.316L350,9.998"/>
	<path id="path32" fill="none" stroke="#FFFFFF" stroke-width="4" d="M350,9.998v613.281L202.275,789.997V146.316L350,9.998z"/>
	<path id="path34" fill="#087FBF" d="M304.814,153.914V50.735"/>
	<path id="path36" fill="none" stroke="#FFFFFF" stroke-width="4" d="M304.814,153.914V50.735"/>
	<path id="path38" fill="#087FBF" d="M304.814,362.702V259.519"/>
	<path id="path40" fill="none" stroke="#FFFFFF" stroke-width="4" d="M304.814,362.702V259.519"/>
	<path id="path42" fill="#087FBF" d="M304.814,571.472V468.464"/>
	<path id="path44" fill="none" stroke="#FFFFFF" stroke-width="4" d="M304.814,571.472V468.464"/>
	<path id="path46" fill="#087FBF" d="M350,521.111L202.275,682.654"/>
	<path id="path48" fill="none" stroke="#FFFFFF" stroke-width="4" d="M350,521.111L202.275,682.654"/>
	<path id="path50" fill="#087FBF" d="M350,418.972L202.275,575.32"/>
	<path id="path52" fill="none" stroke="#FFFFFF" stroke-width="4" d="M350,418.972L202.275,575.32"/>
	<path id="path54" fill="#087FBF" d="M350,316.648L202.275,467.956"/>
	<path id="path56" fill="none" stroke="#FFFFFF" stroke-width="4" d="M350,316.648L202.275,467.956"/>
	<path id="path58" fill="#087FBF" d="M350,214.48L202.275,360.808"/>
	<path id="path60" fill="none" stroke="#FFFFFF" stroke-width="4" d="M350,214.48L202.275,360.808"/>
	<path id="path62" fill="#087FBF" d="M350,112.346L202.275,253.679"/>
	<path id="path64" fill="none" stroke="#FFFFFF" stroke-width="4" d="M350,112.346L202.275,253.679"/>
	<path id="path66" fill="#087FBF" d="M202.275,146.316L350,9.998"/>
	<path id="path68" fill="none" stroke="#FFFFFF" stroke-width="4" d="M202.275,146.316L350,9.998"/>
	<path id="path70" fill="#087FBF" d="M202.275,681.902H10"/>
	<path id="path72" fill="none" stroke="#FFFFFF" stroke-width="4" d="M202.275,681.902H10"/>
	<path id="path74" fill="#087FBF" d="M202.275,574.988H10"/>
	<path id="path76" fill="none" stroke="#FFFFFF" stroke-width="4" d="M202.275,574.988H10"/>
	<path id="path78" fill="#087FBF" d="M202.275,467.741H10"/>
	<path id="path80" fill="none" stroke="#FFFFFF" stroke-width="4" d="M202.275,467.741H10"/>
	<path id="path82" fill="#087FBF" d="M202.275,360.476H10"/>
	<path id="path84" fill="none" stroke="#FFFFFF" stroke-width="4" d="M202.275,360.476H10"/>
	<path id="path86" fill="#087FBF" d="M202.275,253.386H10"/>
	<path id="path88" fill="none" stroke="#FFFFFF" stroke-width="4" d="M202.275,253.386H10"/>
	<path id="path90" fill="#087FBF" d="M254.668,730.71V627.077"/>
	<path id="path92" fill="none" stroke="#FFFFFF" stroke-width="4" d="M254.668,730.71V627.077"/>
	<path id="path94" fill="#087FBF" d="M254.668,518.904V415.271"/>
	<path id="path96" fill="none" stroke="#FFFFFF" stroke-width="4" d="M254.668,518.904V415.271"/>
	<path id="path98" fill="#087FBF" d="M254.668,309.05V205.417"/>
	<path id="path100" fill="none" stroke="#FFFFFF" stroke-width="4" d="M254.668,309.05V205.417"/>
</g>
</svg>
