<?xml version="1.0" encoding="utf-8"?>
<!-- Generator: Adobe Illustrator 16.0.0, SVG Export Plug-In . SVG Version: 6.00 Build 0)  -->
<!DOCTYPE svg PUBLIC "-//W3C//DTD SVG 1.1//EN" "http://www.w3.org/Graphics/SVG/1.1/DTD/svg11.dtd">
<svg version="1.1"
	 id="svg2" xmlns:dc="http://purl.org/dc/elements/1.1/" xmlns:cc="http://creativecommons.org/ns#" xmlns:rdf="http://www.w3.org/1999/02/22-rdf-syntax-ns#" xmlns:svg="http://www.w3.org/2000/svg"
	 xmlns="http://www.w3.org/2000/svg" xmlns:xlink="http://www.w3.org/1999/xlink" x="0px" y="0px" width="47px" height="76px"
	 viewBox="0 0 47 76" enable-background="new 0 0 47 76" xml:space="preserve">
<g id="g12" transform="scale(0.1,0.1)">
	<path id="path22" fill="#087FBF" d="M468.75,2.139L416.074,61.67H0L68.105,2.139H468.75"/>
	<path id="path24" fill="none" stroke="#FFFFFF" stroke-width="4" d="M468.75,2.139L416.074,61.67H0L68.105,2.139H468.75z"/>
	<path id="path26" fill="#087FBF" d="M0,228.315h416.074V59.258H0V228.315z"/>
	<path id="path28" fill="none" stroke="#FFFFFF" stroke-width="4" d="M0,228.315h416.074V59.258H0V228.315z"/>
	<path id="path30" fill="#087FBF" d="M468.691,172.949V3.75l-52.617,55.508v169.058L468.691,172.949"/>
	<path id="path32" fill="none" stroke="#FFFFFF" stroke-width="4" d="M468.691,172.949V3.75l-52.617,55.508v169.058L468.691,172.949
		z"/>
	<path id="path34" fill="#087FBF" d="M416.074,226.489v332.563l52.617-55.254V171.104L416.074,226.489"/>
	<path id="path36" fill="none" stroke="#FFFFFF" stroke-width="4" d="M416.074,226.489v332.563l52.617-55.254V171.104
		L416.074,226.489z"/>
	<path id="path38" fill="none" stroke="#FFFFFF" stroke-width="4" stroke-linecap="round" stroke-linejoin="round" d="
		M413.984,112.368H2.021"/>
	<path id="path40" fill="none" stroke="#FFFFFF" stroke-width="4" stroke-linecap="round" stroke-linejoin="round" d="
		M445.605,26.396H33.516"/>
	<path id="path42" fill="none" stroke="#FFFFFF" stroke-width="4" stroke-linecap="round" stroke-linejoin="round" d="
		M413.984,169.492H2.021"/>
	<path id="path44" fill="none" stroke="#FFFFFF" stroke-width="4" stroke-linecap="round" stroke-linejoin="round" d="M470,53.027
		l-52.52,57.451"/>
	<path id="path46" fill="none" stroke="#FFFFFF" stroke-width="4" stroke-linecap="round" stroke-linejoin="round" d="M470,110.156
		l-52.52,57.314"/>
	<path id="path48" fill="#231F20" d="M124.082,60.024v51.758"/>
	<path id="path50" fill="none" stroke="#FFFFFF" stroke-width="4" stroke-linecap="round" stroke-linejoin="round" d="
		M124.082,60.024v51.758"/>
	<path id="path52" fill="none" stroke="#FFFFFF" stroke-width="4" stroke-linecap="round" stroke-linejoin="round" d="
		M283.359,60.024v51.758"/>
	<path id="path54" fill="none" stroke="#FFFFFF" stroke-width="4" stroke-linecap="round" stroke-linejoin="round" d="
		M124.082,172.246v51.846"/>
	<path id="path56" fill="none" stroke="#FFFFFF" stroke-width="4" stroke-linecap="round" stroke-linejoin="round" d="
		M283.359,172.246v51.846"/>
	<path id="path58" fill="none" stroke="#FFFFFF" stroke-width="4" stroke-linecap="round" stroke-linejoin="round" d="
		M207.017,114.78v51.89"/>
	<path id="path60" fill="none" stroke="#FFFFFF" stroke-width="4" stroke-linecap="round" stroke-linejoin="round" d="
		M47.612,114.78v51.89"/>
	<path id="path62" fill="none" stroke="#FFFFFF" stroke-width="4" stroke-linecap="round" stroke-linejoin="round" d="
		M366.289,114.78v51.89"/>
	<path id="path64" fill="none" stroke="#FFFFFF" stroke-width="4" stroke-linecap="round" stroke-linejoin="round" d="M183.267,0
		l-59.185,59.038"/>
	<path id="path66" fill="none" stroke="#FFFFFF" stroke-width="4" stroke-linecap="round" stroke-linejoin="round" d="M342.52,0
		l-59.16,59.038"/>
	<path id="path68" fill="#087FBF" d="M0,556.474h416.074V226.489H0V556.474z"/>
	<path id="path70" fill="none" stroke="#FFFFFF" stroke-width="4" d="M416.074,226.489v329.985H0V226.489"/>
	<path id="path72" fill="#087FBF" d="M0,760h416.074V555.761H0V760z"/>
	<path id="path74" fill="none" stroke="#FFFFFF" stroke-width="4" d="M0,760h416.074V555.761H0V760z"/>
	<path id="path76" fill="#087FBF" d="M468.691,704.521V501.66l-52.617,55.508V760L468.691,704.521"/>
	<path id="path78" fill="none" stroke="#FFFFFF" stroke-width="4" d="M468.691,704.521V501.66l-52.617,55.508V760L468.691,704.521z"
		/>
	<path id="path80" fill="#FFFFFF" d="M214.907,352.949v-71.992h12.207l-18.057-27.139l-17.959,27.139h12.227v71.992H214.907"/>
	<path id="path82" fill="#FFFFFF" d="M178.179,363.35l-50.869-50.898l8.608-8.594l-31.934-6.533l6.396,31.943l8.735-8.604
		l50.859,50.889L178.179,363.35"/>
	<path id="path84" fill="#FFFFFF" d="M159.59,396.826H87.622v-12.363l-27.139,17.969l27.139,18.203v-12.354h71.968V396.826"/>
	<path id="path86" fill="#FFFFFF" d="M169.976,433.428l-50.859,50.996l-8.735-8.711l-6.396,31.943l31.934-6.543l-8.608-8.477
		l50.869-51.016L169.976,433.428"/>
	<path id="path88" fill="#FFFFFF" d="M203.325,426.797v138.906h-12.227l17.959,27.285l18.057-27.285h-12.207V426.797H203.325"/>
	<path id="path90" fill="#FFFFFF" d="M240.039,441.621l50.742,51.016l-8.457,8.477l31.934,6.543l-6.543-31.943l-8.477,8.711
		l-51.016-50.996L240.039,441.621"/>
	<path id="path92" fill="#FFFFFF" d="M258.633,408.281h71.973v12.354l27.266-18.203l-27.266-17.969v12.363h-71.973V408.281"/>
	<path id="path94" fill="#FFFFFF" d="M248.223,371.553l51.016-50.889l8.477,8.604l6.543-31.943l-31.934,6.533l8.457,8.594
		l-50.742,50.898L248.223,371.553"/>
	<path id="path96" fill="#FFFFFF" d="M253.242,462.93c33.594-23.652,41.777-70.225,18.145-103.955
		c-23.672-33.613-70.103-41.943-103.706-18.271c-33.716,23.662-41.904,70.234-18.374,103.848
		C172.954,478.154,219.39,486.338,253.242,462.93"/>
	<path id="path98" fill="none" stroke="#FFFFFF" stroke-width="4" stroke-linecap="round" stroke-linejoin="round" d="
		M445.723,27.939v165.747"/>
	<path id="path100" fill="#FFFFFF" d="M204.595,636.123h109.644V625.42l35.781,21.68l-35.781,22.305v-10.957H204.595V636.123"/>
	<path id="path102" fill="#FFFFFF" d="M204.595,704.336h109.644v-10.967l35.781,21.934l-35.781,22.305V726.65H204.595V704.336"/>
	<path id="path104" fill="#FFFFFF" d="M207.095,603.496H97.563v-10.703l-35.908,21.67l35.908,22.305V625.82h109.531V603.496"/>
	<path id="path106" fill="#FFFFFF" d="M207.095,671.689H97.563v-10.947l-35.908,21.924l35.908,22.314v-10.947h109.531V671.689"/>
	<path id="path108" fill="none" stroke="#FFFFFF" stroke-width="4" stroke-linecap="round" stroke-linejoin="round" d="
		M413.984,227.227H2.021"/>
	<path id="path110" fill="none" stroke="#FFFFFF" stroke-width="4" stroke-linecap="round" stroke-linejoin="round" d="M470,168.003
		l-52.52,57.329"/>
	<path id="path112" fill="none" stroke="#FFFFFF" stroke-width="4" stroke-linecap="round" stroke-linejoin="round" d="
		M413.984,555.302H2.021"/>
	<path id="path114" fill="none" stroke="#FFFFFF" stroke-width="4" stroke-linecap="round" stroke-linejoin="round" d="
		M467.168,504.18l-48.301,50.771"/>
</g>
</svg>
