<?xml version="1.0" encoding="utf-8"?>
<!-- Generator: Adobe Illustrator 16.0.0, SVG Export Plug-In . SVG Version: 6.00 Build 0)  -->
<!DOCTYPE svg PUBLIC "-//W3C//DTD SVG 1.1//EN" "http://www.w3.org/Graphics/SVG/1.1/DTD/svg11.dtd">
<svg version="1.1"
	 id="svg2" xmlns:dc="http://purl.org/dc/elements/1.1/" xmlns:cc="http://creativecommons.org/ns#" xmlns:rdf="http://www.w3.org/1999/02/22-rdf-syntax-ns#" xmlns:svg="http://www.w3.org/2000/svg"
	 xmlns="http://www.w3.org/2000/svg" xmlns:xlink="http://www.w3.org/1999/xlink" x="0px" y="0px" width="64px" height="78px"
	 viewBox="0 0 64 78" enable-background="new 0 0 64 78" xml:space="preserve">
<g id="g12" transform="scale(0.1,0.1)">
	<path id="path22" fill="#087FBF" d="M-0.005,780h172.52v-658.1H-0.005V780z"/>
	<path id="path24" fill="none" stroke="#FFFFFF" stroke-width="4" d="M172.515,121.899H-0.005V780h172.52"/>
	<path id="path26" fill="#087FBF" d="M172.515,780l121.943-121.924V0H121.934L-0.005,121.899h172.52V780"/>
	<path id="path28" fill="none" stroke="#FFFFFF" stroke-width="4" d="M172.515,780l121.943-121.924V0H121.934L-0.005,121.899h172.52
		V780z"/>
	<path id="path30" fill="#087FBF" d="M172.515,121.899L294.458,0"/>
	<path id="path32" fill="none" stroke="#FFFFFF" stroke-width="4" d="M172.515,121.899L294.458,0"/>
	<path id="path34" fill="#087FBF" d="M172.896,780h172.285v-658.1H172.896V780z"/>
	<path id="path36" fill="none" stroke="#FFFFFF" stroke-width="4" d="M345.181,121.899H172.896V780h172.285"/>
	<path id="path38" fill="#087FBF" d="M345.181,780l121.924-121.924V0H294.829L172.896,121.899h172.285V780"/>
	<path id="path40" fill="none" stroke="#FFFFFF" stroke-width="4" d="M345.181,780l121.924-121.924V0H294.829L172.896,121.899
		h172.285V780z"/>
	<path id="path42" fill="#087FBF" d="M345.181,121.899L467.104,0"/>
	<path id="path44" fill="none" stroke="#FFFFFF" stroke-width="4" d="M345.181,121.899L467.104,0"/>
	<path id="path46" fill="#087FBF" d="M345.776,780h172.285v-658.1H345.776V780z"/>
	<path id="path48" fill="none" stroke="#FFFFFF" stroke-width="4" d="M518.062,121.899H345.776V780h172.285"/>
	<path id="path50" fill="#087FBF" d="M518.062,780l121.934-121.924V0H467.72L345.776,121.899h172.285V780"/>
	<path id="path52" fill="none" stroke="#FFFFFF" stroke-width="4" d="M518.062,780l121.934-121.924V0H467.72L345.776,121.899
		h172.285V780z"/>
	<path id="path54" fill="#087FBF" d="M518.062,121.899L639.995,0"/>
	<path id="path56" fill="none" stroke="#FFFFFF" stroke-width="4" d="M518.062,121.899L639.995,0"/>
	<path id="path58" fill="#087FBF" d="M368.091,237.285h124.814V144.8H368.091V237.285z"/>
	<path id="path60" fill="none" stroke="#FFFFFF" stroke-width="4" d="M368.091,237.285h124.814V144.8H368.091V237.285z"/>
	<path id="path62" fill="#087FBF" d="M368.091,343.867h124.814v-92.5H368.091V343.867z"/>
	<path id="path64" fill="none" stroke="#FFFFFF" stroke-width="4" d="M368.091,343.867h124.814v-92.5H368.091V343.867z"/>
	<path id="path66" fill="#087FBF" d="M368.091,711.426h124.814V619.16H368.091V711.426z"/>
	<path id="path68" fill="none" stroke="#FFFFFF" stroke-width="4" d="M368.091,711.426h124.814V619.16H368.091V711.426z"/>
</g>
</svg>
