<?xml version="1.0" encoding="utf-8"?>
<!-- Generator: Adobe Illustrator 16.0.0, SVG Export Plug-In . SVG Version: 6.00 Build 0)  -->
<!DOCTYPE svg PUBLIC "-//W3C//DTD SVG 1.1//EN" "http://www.w3.org/Graphics/SVG/1.1/DTD/svg11.dtd">
<svg version="1.1" id="图层_1" xmlns="http://www.w3.org/2000/svg" xmlns:xlink="http://www.w3.org/1999/xlink" x="0px" y="0px"
	 width="512px" height="512px" viewBox="0 0 512 512" enable-background="new 0 0 512 512" xml:space="preserve">
<g>
	
		<ellipse fill="none" stroke="#FA4D45" stroke-width="11.09" stroke-miterlimit="10" cx="252.999" cy="191.221" rx="90.262" ry="90.333"/>
	<path fill-rule="evenodd" clip-rule="evenodd" fill="#FA4D45" d="M338.429,165.18h-34.256c-6.953-36.013-27.3-59.034-27.3-59.034
		s-8.335,0.237-14.258,0.263c1.183,1.643,21.994,23.783,29.518,58.771H260.09v-59.631h-13.361v59.631h-32.242
		c7.894-34.988,29.675-57.128,30.857-58.771c-5.923-0.026-14.257-0.263-14.257-0.263s-21.165,23.016-28.823,59.034h-37.979v13.22
		h35.897c-0.434,4.219-0.666,8.574-0.643,13.059c0.027,5.162,0.321,10.094,0.834,14.801h-36.656v12.509h38.615
		c7.458,36.193,27.647,56.136,33.235,59.713c6.863,0.366,15.602,0.12,15.602,0.12s-1.04-0.832-2.775-2.457h11.067
		c-1.669,1.625-2.669,2.457-2.669,2.457s8.739,0.246,15.603-0.12c5.531-3.541,23.619-24.969,30.952-59.713h35.083V206.26h-33.017
		c0.571-4.736,0.935-9.671,1.035-14.801c0.089-4.485-0.073-8.84-0.435-13.059h32.416V165.18z M246.729,274.544
		c-7.944-7.841-24.433-26.896-31.609-55.774h31.609V274.544z M246.729,206.26H212.73c-0.62-4.59-0.995-9.379-1.062-14.371
		c-0.063-4.645,0.164-9.145,0.626-13.489h34.434V206.26z M260.09,275.525V218.77h31.39
		C284.257,248.933,267.271,268.383,260.09,275.525 M293.782,206.26H260.09V178.4h34.132c0.438,4.344,0.652,8.844,0.59,13.489
		C294.744,196.881,294.381,201.67,293.782,206.26"/>
	<path fill-rule="evenodd" clip-rule="evenodd" fill="#FA4D45" d="M420.943,319.524c-38.306,22.018-145.182,81.484-156.007,87.734
		c-10.826,6.249-12.161,3.81-21.479,0.317c-16.794-6.293-54.443-20.241-69.928-26.454c-10.769-4.321-11.953-3.993-15.396-2.52
		c-12.287,5.264-29.085,11.698-29.085,11.698l-42.847-75.587c0,0,44.304-18.881,66.513-28.842
		c16.725-7.501,27.249-6.552,74.675,13.533c6.723,2.847,13.479,4.914,20.215,4.761c16.528-0.373,52.603-0.175,66.28-0.02
		c5.481,0.062,30.594,20.538,21.12,23.729c-47.3,15.93-74.904,25.811-85.039,24.424c-30.413-4.162-56.782-9.579-56.782-9.579
		s55.609,18.786,62.406,16.928c20.626-5.643,65.641-19.804,88.23-28.691c5.193-2.262,4.964-6.604-2.728-15.731
		c-8.859-10.512-19.792-17.307-24.095-17.367c-5.866-0.084-29.706-0.139-29.706-0.139s44.264-14.477,51.383-15.945
		c4.846-1.001,22.006,6.479,13.9,9.618c10.841-2.6,13.89-3.194,20.243-4.417c5.745-1.104,23.211,9.616,16.091,13.604
		c2.036-0.514,8.993-1.757,17.335-2.617c4.677-0.483,15.852,7.639,18.868,10.006C430.317,312.053,427.816,315.573,420.943,319.524"
		/>
	<path fill="#FA4D45" d="M259.573,509.706h-0.008c-59.003,0-116.025-4.053-156.434-11.121
		c-63.337-11.092-78.335-25.959-89.152-88.42c-14.404-83.149-14.183-224.212,0.48-308.031c11.06-63.299,25.937-78.297,88.406-89.152
		c39.639-6.886,93.614-10.687,151.977-10.687c58.881,0,115.781,4.045,156.091,11.098c63.313,11.083,78.305,25.959,89.151,88.42
		c14.427,83.164,14.229,224.257-0.441,308.092c-11.045,63.314-25.93,78.306-88.405,89.167
		C371.659,505.928,317.791,509.706,259.573,509.706 M254.843,17.894c-57.495,0-110.518,3.717-149.311,10.458
		c-55.881,9.704-65.783,19.713-75.701,76.461c-14.419,82.38-14.633,220.998-0.48,302.699c9.674,55.849,19.683,65.767,76.47,75.715
		c39.563,6.916,95.595,10.877,153.744,10.877h0.008c57.365,0,110.274-3.687,149-10.39c55.895-9.721,65.796-19.729,75.714-76.492
		c14.412-82.404,14.611-221.036,0.443-302.745c-9.721-55.872-19.729-65.782-76.478-75.715
		C368.781,21.854,312.855,17.894,254.843,17.894"/>
</g>
</svg>
