<?xml version="1.0" encoding="utf-8"?>
<!-- Generator: Adobe Illustrator 16.0.0, SVG Export Plug-In . SVG Version: 6.00 Build 0)  -->
<!DOCTYPE svg PUBLIC "-//W3C//DTD SVG 1.1//EN" "http://www.w3.org/Graphics/SVG/1.1/DTD/svg11.dtd">
<svg version="1.1" id="图层_1" xmlns="http://www.w3.org/2000/svg" xmlns:xlink="http://www.w3.org/1999/xlink" x="0px" y="0px"
	 width="512px" height="512px" viewBox="0 0 512 512" enable-background="new 0 0 512 512" xml:space="preserve">
<g>
	<path fill="#FFC000" d="M254.908,223.45v0.127c0,0,0.064-0.048,0.096-0.064c0.032,0.016,0.096,0.064,0.096,0.064v-0.127
		c4-2.773,77.741-53.771,92.195-63.636c14.854-10.136,2.438-34.982,2.438-34.982L283.722,16.747
		C269.698-2.377,256.055,0.061,255.004,0.268c-0.94-0.223-14.391-3.076-28.734,16.479l-65.995,108.085
		c0,0-12.415,24.846,2.438,34.982C177.167,169.678,250.908,220.677,254.908,223.45"/>
	<path fill="#FFC000" d="M255.099,286.56v-0.128c0,0-0.064,0.049-0.096,0.064c-0.032-0.016-0.096-0.064-0.096-0.064v0.128
		c-4,2.773-77.741,53.771-92.195,63.637c-14.853,10.136-2.438,34.981-2.438,34.981l65.995,108.085
		c14.343,19.539,27.794,16.702,28.734,16.479c1.052,0.223,14.694,2.661,28.718-16.479l65.995-108.085
		c0,0,12.415-24.846-2.438-34.981C332.84,340.331,259.099,289.333,255.099,286.56"/>
	<path fill="#FFC000" d="M493.245,226.286L385.16,160.291c0,0-24.846-12.415-34.982,2.438
		c-9.849,14.455-60.862,88.179-63.636,92.195h-0.128c0,0,0.048,0.064,0.063,0.096c-0.016,0.032-0.063,0.096-0.063,0.096h0.128
		c2.773,4,53.771,77.741,63.636,92.179c10.137,14.854,34.982,2.438,34.982,2.438l108.085-65.995
		c19.124-14.025,16.702-27.667,16.479-28.718C509.947,254.065,512.8,240.63,493.245,226.286"/>
	<path fill="#FFC000" d="M223.448,255.101h0.128c0,0-0.048-0.064-0.064-0.096c0.016-0.032,0.064-0.096,0.064-0.096h-0.128
		c-2.773-4-53.771-77.741-63.636-92.195c-10.136-14.853-34.982-2.438-34.982-2.438l-108.084,66.01
		C-2.793,240.63,0.044,254.081,0.267,255.021c-0.223,1.052-2.661,14.694,16.479,28.718l108.085,65.995
		c0,0,24.846,12.415,34.982-2.438C169.677,332.841,220.675,259.117,223.448,255.101"/>
</g>
</svg>
