<?xml version="1.0" encoding="utf-8"?>
<!-- Generator: Adobe Illustrator 16.0.0, SVG Export Plug-In . SVG Version: 6.00 Build 0)  -->
<!DOCTYPE svg PUBLIC "-//W3C//DTD SVG 1.1//EN" "http://www.w3.org/Graphics/SVG/1.1/DTD/svg11.dtd">
<svg version="1.1"
	 id="svg2" xmlns:dc="http://purl.org/dc/elements/1.1/" xmlns:cc="http://creativecommons.org/ns#" xmlns:rdf="http://www.w3.org/1999/02/22-rdf-syntax-ns#" xmlns:svg="http://www.w3.org/2000/svg"
	 xmlns="http://www.w3.org/2000/svg" xmlns:xlink="http://www.w3.org/1999/xlink" x="0px" y="0px" width="80px" height="58px"
	 viewBox="0 0 80 58" enable-background="new 0 0 80 58" xml:space="preserve">
<g id="g12" transform="scale(0.1,0.1)">
	<path id="path14" fill="#FFFFFF" d="M281.619,66.641C146.335,39.609,75.007,108.857,86.262,168.843l0.884,3.169
		C-18.337,189.995,9.309,314.565,59.929,314.565l4.976-0.4c-12.739,58.545,110.503,118.018,179.106,88.428l4.463-5
		c24.473,52.617,111.611,61.484,197.568,63.711c74.834,1.758,118.389-3.965,150.254-36.758l5.049,1.465
		c119.199,9.678,173.789-72.891,147.598-132.021l6.523-1.826c40.703-10.82,45.332-104.785-24.551-118.691l1.396-3.535
		c30.234-61.191-41.25-118.838-140.498-108.066l-6.846-3.511C513.816-5.933,309.402,4.561,285.73,68.135L281.619,66.641"/>
	<path id="path16" fill="none" stroke="#1286BE" stroke-width="4" d="M281.619,66.641C146.335,39.609,75.007,108.857,86.262,168.843
		l0.884,3.169C-18.337,189.995,9.309,314.565,59.929,314.565l4.976-0.4c-12.739,58.545,110.503,118.018,179.106,88.428l4.463-5
		c24.473,52.617,111.611,61.484,197.568,63.711c74.834,1.758,118.389-3.965,150.254-36.758l5.049,1.465
		c119.199,9.678,173.789-72.891,147.598-132.021l6.523-1.826c40.703-10.82,45.332-104.785-24.551-118.691l1.396-3.535
		c30.234-61.191-41.25-118.838-140.498-108.066l-6.846-3.511C513.816-5.933,309.402,4.561,285.73,68.135L281.619,66.641z"/>
	<path id="path18" fill="none" stroke="#1286BE" stroke-width="20" d="M339.431,164.888V509.76h328.408V161.445L339.431,164.888z"/>
	<path id="path20" fill="none" stroke="#1286BE" stroke-width="20" d="M339.431,164.888L667.839,509.76"/>
	<path id="path22" fill="none" stroke="#1286BE" stroke-width="20" d="M339.431,509.76l328.408-348.315"/>
	<path id="path24" fill="#FFFFFF" d="M288.386,214.292h105.635V106.621H288.386V214.292z"/>
	<path id="path26" fill="none" stroke="#1286BE" stroke-width="4" d="M288.386,214.292h105.635V106.621H288.386V214.292z"/>
	<path id="path28" fill="#FFFFFF" d="M614.9,214.292h105.488V106.621H614.9V214.292z"/>
	<path id="path30" fill="none" stroke="#1286BE" stroke-width="4" d="M614.9,214.292h105.488V106.621H614.9V214.292z"/>
	<path id="path32" fill="#FFFFFF" d="M288.386,565.005h105.635V457.466H288.386V565.005z"/>
	<path id="path34" fill="none" stroke="#1286BE" stroke-width="4" d="M288.386,565.005h105.635V457.466H288.386V565.005z"/>
	<path id="path36" fill="#FFFFFF" d="M614.9,565.005h105.488V457.466H614.9V565.005z"/>
	<path id="path38" fill="none" stroke="#1286BE" stroke-width="4" d="M614.9,565.005h105.488V457.466H614.9V565.005z"/>
	<path id="path40" fill="#FFFFFF" d="M448.835,389.712h105.488V282.046H448.835V389.712z"/>
	<path id="path42" fill="none" stroke="#1286BE" stroke-width="4" d="M448.835,389.712h105.488V282.046H448.835V389.712z"/>
</g>
</svg>
