<?xml version="1.0" encoding="utf-8"?>
<!-- Generator: Adobe Illustrator 16.0.0, SVG Export Plug-In . SVG Version: 6.00 Build 0)  -->
<!DOCTYPE svg PUBLIC "-//W3C//DTD SVG 1.1//EN" "http://www.w3.org/Graphics/SVG/1.1/DTD/svg11.dtd">
<svg version="1.1" id="Layer_1" xmlns="http://www.w3.org/2000/svg" xmlns:xlink="http://www.w3.org/1999/xlink" x="0px" y="0px"
	 width="75px" height="75px" viewBox="0 0 75 75" enable-background="new 0 0 75 75" xml:space="preserve">
<g>
	<path fill="none" d="M66.732,64.784H43.077c-1.209,0-2.284,1.075-2.284,2.284l0,0H69.02l0,0
		C69.02,65.859,67.941,64.784,66.732,64.784z"/>
	<path fill="none" d="M43.077,69.354h23.655c1.209,0,2.285-1.073,2.285-2.285H40.793C40.793,68.28,41.732,69.354,43.077,69.354z"/>
	<path fill="#7D7C7C" d="M69.02,67.068c0,1.212-1.076,2.285-2.285,2.285H43.077c-1.209,0-2.284-1.073-2.284-2.285H0.202v2.285
		C0.202,72.445,2.756,75,5.847,75h63.305c3.093,0,5.646-2.555,5.646-5.646v-2.285H69.02z"/>
	<path fill="#7D7C7C" d="M72.379,40.055l-3.629,4.032c0,1.478-1.21,2.554-2.555,2.554H8.938c-1.479,0-2.554-1.209-2.554-2.554
		l-3.092-4.032H0.336v4.032c0,4.704,3.898,8.601,8.603,8.601h57.256c4.705,0,8.604-3.896,8.604-8.601v-4.032H72.379z"/>
	<path fill="#D2D3D3" d="M69.152,55.779c3.092,0,5.646,2.554,5.646,5.645v4.571c0,3.091-2.554,5.646-5.646,5.646H5.847
		c-3.091,0-5.645-2.555-5.645-5.646v-4.571c0-3.091,2.554-5.645,5.645-5.645H69.152z M66.732,65.995
		c1.209,0,2.285-1.075,2.285-2.286c0-1.21-1.076-2.285-2.285-2.285H43.077c-1.209,0-2.284,1.075-2.284,2.285
		c0,1.211,1.075,2.286,2.284,2.286H66.732"/>
	<path fill="#D2D3D3" d="M66.195,0.135c4.703,0,8.603,3.898,8.603,8.602v32.123c0,4.705-3.897,8.604-8.603,8.604H8.938
		c-4.704,0-8.603-3.898-8.603-8.604V8.602C0.336,3.898,4.234,0,8.938,0h57.257V0.135z M68.75,40.727V8.602
		c0-1.479-1.21-2.553-2.555-2.553H8.938c-1.479,0-2.554,1.209-2.554,2.553v32.125c0,1.479,1.21,2.554,2.554,2.554h57.257
		C67.54,43.279,68.75,42.204,68.75,40.727"/>
</g>
</svg>
