<?xml version="1.0" encoding="utf-8"?>
<!-- Generator: Adobe Illustrator 16.0.0, SVG Export Plug-In . SVG Version: 6.00 Build 0)  -->
<!DOCTYPE svg PUBLIC "-//W3C//DTD SVG 1.1//EN" "http://www.w3.org/Graphics/SVG/1.1/DTD/svg11.dtd">
<svg version="1.1"
	 id="svg2" xmlns:dc="http://purl.org/dc/elements/1.1/" xmlns:cc="http://creativecommons.org/ns#" xmlns:rdf="http://www.w3.org/1999/02/22-rdf-syntax-ns#" xmlns:svg="http://www.w3.org/2000/svg"
	 xmlns="http://www.w3.org/2000/svg" xmlns:xlink="http://www.w3.org/1999/xlink" x="0px" y="0px" width="77px" height="70px"
	 viewBox="0 0 77 70" enable-background="new 0 0 77 70" xml:space="preserve">
<g id="g12" transform="scale(0.1,0.1)">
	<path id="path22" fill="#087FBF" d="M639.087,700.005l130.918-124.629V0L639.087,124.829V700.005"/>
	<path id="path24" fill="none" stroke="#FFFFFF" stroke-width="4" d="M639.087,700.005l130.918-124.629V0L639.087,124.829V700.005z"
		/>
	<path id="path26" fill="#087FBF" d="M770.005,0L639.087,124.829H0L166.528,0H770.005"/>
	<path id="path28" fill="none" stroke="#FFFFFF" stroke-width="4" d="M770.005,0L639.087,124.829H0L166.528,0H770.005z"/>
	<path id="path30" fill="#087FBF" d="M1.548,700.005h637.539V124.829H1.548V700.005z"/>
	<path id="path32" fill="none" stroke="#FFFFFF" stroke-width="4" d="M1.548,700.005h637.539V124.829H1.548V700.005z"/>
	<path id="path34" fill="#FFFFFF" d="M310.981,191.724v412.734h-23.359l34.297,51.758l34.473-51.758h-23.242V191.724"/>
	<path id="path36" fill="#FFFFFF" d="M133.55,191.724v412.734h-23.364l34.482,51.758l34.268-51.758h-23.213V191.724"/>
	<path id="path38" fill="#FFFFFF" d="M480.571,191.724v412.734h-23.359l34.492,51.758l34.063-51.758h-22.813V191.724"/>
	<path id="path40" fill="none" stroke="#FFFFFF" stroke-width="10" d="M69.233,343.725h508.154v-162.06H69.233V343.725z"/>
</g>
</svg>
