<?xml version="1.0" encoding="utf-8"?>
<!-- Generator: Adobe Illustrator 16.0.0, SVG Export Plug-In . SVG Version: 6.00 Build 0)  -->
<!DOCTYPE svg PUBLIC "-//W3C//DTD SVG 1.1//EN" "http://www.w3.org/Graphics/SVG/1.1/DTD/svg11.dtd">
<svg version="1.1" id="Layer_1" xmlns="http://www.w3.org/2000/svg" xmlns:xlink="http://www.w3.org/1999/xlink" x="0px" y="0px"
	 width="50px" height="77px" viewBox="0 0 50 77" enable-background="new 0 0 50 77" xml:space="preserve">
<g>
	<path fill="#7D7C7C" d="M35.89,3.288c2.33,0,4.246,1.92,4.246,4.247L50,72.754C50,75.081,48.081,77,45.752,77H4.248
		C1.919,77,0,75.081,0,72.754L12.192,7.672c0-2.33,1.917-4.248,4.247-4.248H35.89V3.288z"/>
	<path fill="#D2D3D3" d="M45.614,0c2.33,0,4.249,1.918,4.249,4.248v65.081c0,2.33-1.919,4.246-4.249,4.246H4.248
		C1.919,73.574,0,71.658,0,69.328V4.248C0.001,1.918,1.92,0,4.248,0H45.614z"/>
	<path fill="#FFFFFF" d="M12.467,4.658h24.93c1.508,0,2.739,1.234,2.739,2.74c0,1.507-1.231,2.74-2.739,2.74h-24.93
		c-1.508,0-2.74-1.233-2.74-2.74C9.589,5.893,10.823,4.658,12.467,4.658z M24.932,71.657c-2.74,0-4.932-2.192-4.932-4.796
		c0-2.739,2.192-4.796,4.932-4.796c2.741,0,4.932,2.193,4.932,4.796C29.726,69.465,27.536,71.657,24.932,71.657z M45.068,56.175
		c0,1.37-1.232,2.604-2.877,2.604H7.534c-1.643,0-2.875-1.097-2.875-2.604V17.401c0-1.371,1.233-2.604,2.875-2.604h34.658
		c1.645,0,2.877,1.095,2.877,2.604V56.175z"/>
</g>
</svg>
