<?xml version="1.0" encoding="utf-8"?>
<!-- Generator: Adobe Illustrator 16.0.0, SVG Export Plug-In . SVG Version: 6.00 Build 0)  -->
<!DOCTYPE svg PUBLIC "-//W3C//DTD SVG 1.1//EN" "http://www.w3.org/Graphics/SVG/1.1/DTD/svg11.dtd">
<svg version="1.1" id="Layer_1" xmlns="http://www.w3.org/2000/svg" xmlns:xlink="http://www.w3.org/1999/xlink" x="0px" y="0px"
	 width="58px" height="75px" viewBox="0 0 58 75" enable-background="new 0 0 58 75" xml:space="preserve">
<g>
	<g>
		<g>
			<path id="SVGID_3_" fill="#4F4F4F" d="M57.868,6.877v3.703c0,1.72-4.746,4.497-13.709,6.083c-4.22,0.794-9.228,1.19-15.159,1.19
				c-18.718,0-29-4.895-29-7.273V6.877c0,2.513,10.281,7.273,29,7.273c5.932,0,11.072-0.53,15.159-1.191
				C53.122,11.241,57.868,8.464,57.868,6.877z"/>
		</g>
		<g>
			<g>
				<g>
					<defs>
						<path id="SVGID_1_" d="M57.868,6.877v3.703c0,1.72-4.746,4.497-13.709,6.083c-4.22,0.794-9.228,1.19-15.159,1.19
							c-18.718,0-29-4.895-29-7.273V6.877c0,2.513,10.281,7.273,29,7.273c5.932,0,11.072-0.53,15.159-1.191
							C53.122,11.241,57.868,8.464,57.868,6.877z"/>
					</defs>
					<clipPath id="SVGID_2_">
						<use xlink:href="#SVGID_1_"  overflow="visible"/>
					</clipPath>
					<path clip-path="url(#SVGID_2_)" fill="#4F4F4F" d="M57.868,6.877v3.703v0.133V7.009C57.868,6.877,57.868,6.877,57.868,6.877"
						/>
				</g>
			</g>
		</g>
		<g>
			<g>
				<g>
					<defs>
						<path id="SVGID_4_" d="M57.868,6.877v3.703c0,1.72-4.746,4.497-13.709,6.083c-4.22,0.794-9.228,1.19-15.159,1.19
							c-18.718,0-29-4.895-29-7.273V6.877c0,2.513,10.281,7.273,29,7.273c5.932,0,11.072-0.53,15.159-1.191
							C53.122,11.241,57.868,8.464,57.868,6.877z"/>
					</defs>
					<clipPath id="SVGID_5_">
						<use xlink:href="#SVGID_4_"  overflow="visible"/>
					</clipPath>
					<path clip-path="url(#SVGID_5_)" fill="#4F4F4F" d="M57.868,7.009v3.704c0,0.132,0,0.132,0,0.264V7.273
						C57.868,7.143,57.868,7.009,57.868,7.009"/>
				</g>
			</g>
		</g>
		<g>
			<g>
				<g>
					<defs>
						<path id="SVGID_6_" d="M57.868,6.877v3.703c0,1.72-4.746,4.497-13.709,6.083c-4.22,0.794-9.228,1.19-15.159,1.19
							c-18.718,0-29-4.895-29-7.273V6.877c0,2.513,10.281,7.273,29,7.273c5.932,0,11.072-0.53,15.159-1.191
							C53.122,11.241,57.868,8.464,57.868,6.877z"/>
					</defs>
					<clipPath id="SVGID_7_">
						<use xlink:href="#SVGID_6_"  overflow="visible"/>
					</clipPath>
					<path clip-path="url(#SVGID_7_)" fill="#4F4F4F" d="M57.868,7.143v3.704c0,0.132-0.134,0.265-0.134,0.265V7.408
						C57.734,7.408,57.734,7.273,57.868,7.143"/>
				</g>
			</g>
		</g>
		<g>
			<g>
				<g>
					<defs>
						<path id="SVGID_8_" d="M57.868,6.877v3.703c0,1.72-4.746,4.497-13.709,6.083c-4.22,0.794-9.228,1.19-15.159,1.19
							c-18.718,0-29-4.895-29-7.273V6.877c0,2.513,10.281,7.273,29,7.273c5.932,0,11.072-0.53,15.159-1.191
							C53.122,11.241,57.868,8.464,57.868,6.877z"/>
					</defs>
					<clipPath id="SVGID_9_">
						<use xlink:href="#SVGID_8_"  overflow="visible"/>
					</clipPath>
					<path clip-path="url(#SVGID_9_)" fill="#4F4F4F" d="M57.734,7.54v3.703c-1.055,1.72-5.668,3.969-13.575,5.422
						c-4.22,0.794-9.228,1.19-15.159,1.19c-18.718,0-29-4.895-29-7.273V6.877c0,2.513,10.281,7.273,29,7.273
						c5.932,0,11.072-0.53,15.159-1.191C52.066,11.507,56.682,9.125,57.734,7.54"/>
				</g>
			</g>
		</g>
	</g>
	<path fill="#4F4F4F" d="M57.868,62.292c0-0.132,0.132-0.396,0.132-0.527v5.953c0,0.131,0,0.131,0,0.264s0,0.133-0.132,0.265l0,0
		l0,0c0,0.134-0.134,0.265-0.134,0.397c0,0,0,0,0,0.131s-0.131,0.131-0.131,0.264c-0.133,0.133-0.133,0.267-0.264,0.267
		c-0.133,0.131-0.133,0.131-0.266,0.264c-0.131,0.134-0.264,0.265-0.395,0.265c-0.133,0.134-0.266,0.134-0.396,0.267
		c-0.133,0.133-0.264,0.266-0.527,0.266c-0.13,0.132-0.264,0.132-0.395,0.265c-0.131,0.134-0.395,0.265-0.658,0.265
		c-0.133,0.134-0.266,0.134-0.527,0.266c-0.264,0.133-0.527,0.266-0.789,0.396c-0.134,0.133-0.266,0.133-0.529,0.265
		c-0.395,0.133-0.922,0.396-1.448,0.53c-0.134,0-0.396,0.131-0.528,0.131c-0.395,0.134-0.79,0.266-1.186,0.396
		c-0.264,0.134-0.527,0.134-0.793,0.134c-0.394,0.133-0.789,0.133-1.185,0.266c-0.263,0-0.526,0.132-0.922,0.132
		c-0.396,0.132-0.791,0.132-1.187,0.265c-0.264,0-0.659,0.133-0.922,0.133c-0.396,0.133-0.924,0.133-1.318,0.266
		c-0.396,0-0.659,0.132-1.057,0.132c-0.525,0-1.054,0.133-1.449,0.133c-0.395,0-0.791,0.134-1.187,0.134
		c-0.263,0.265-0.922,0.265-1.45,0.265c-0.395,0-0.791,0-1.186,0.132c-0.659,0-1.318,0.133-1.977,0.133c-0.396,0-0.66,0-1.057,0
		c-1.055,0-2.107,0-3.295,0c-10.546,0-18.454-1.322-23.727-3.042c-3.822-1.321-6.592-2.909-6.854-3.966V62.04
		c0.263,1.059,2.769,2.514,6.195,3.703l-0.263-0.266c5.141,1.72,13.972,3.702,24.518,3.702c1.186,0,2.242,0,3.296,0
		c0.396,0,0.66,0,1.056,0c0.657,0,1.448,0,2.107-0.134c0.396,0,0.791,0,1.057-0.133c0.525,0,1.186-0.132,1.713-0.132
		c0.396,0,0.66-0.13,1.055-0.13c0.527,0,1.056-0.133,1.582-0.133c0.396,0,0.66-0.133,1.056-0.133
		c0.526-0.134,0.923-0.134,1.45-0.266l6.589-1.588c0.528-0.132,1.056-0.396,1.451-0.528l1.317-0.528
		c0.131,0,0.265-0.131,0.265-0.131c0.264-0.135,0.526-0.267,0.791-0.397c0.131,0,0.265-0.132,0.265-0.132
		c0.264-0.133,0.395-0.266,0.525-0.396c0.132,0,0.132-0.134,0.265-0.266c0.134-0.133,0.265-0.266,0.396-0.396
		c0.133-0.133,0.133-0.133,0.264-0.265c0.134-0.132,0.266-0.265,0.266-0.396l0.131-0.135L57.868,62.292z"/>
	<path fill="#7D7C7C" d="M29,0c5.932,0,11.072,0.529,15.159,1.19c8.963,1.588,13.709,4.365,13.709,6.083
		c0,1.72-4.746,4.497-13.709,6.083c-4.22,0.794-9.228,1.19-15.159,1.19c-18.718,0-29-4.895-29-7.273C0,4.763,10.282,0,29,0z"/>
	<path fill="#7D7C7C" d="M43.764,19.178c-0.793,0.133-1.582,0.266-2.373,0.396c-0.396,0-0.793,0.133-1.187,0.133
		c-0.79,0.133-1.449,0.133-2.241,0.265c-0.527,0-0.923,0.133-1.449,0.133c-0.924,0.132-1.976,0.132-2.898,0.132h-0.528
		c-1.185,0-2.371,0.132-3.56,0.132c-0.263,0-0.525,0-0.791,0c-11.468,0-23.067-1.983-28.735-5.819v49.99
		c0.265,1.191,3.031,2.646,6.855,3.971c5.14,1.718,13.181,3.038,23.727,3.038c19.244,0,27.287-4.76,27.287-7.271V14.019
		C54.968,16.268,50.09,18.12,43.764,19.178z"/>
</g>
</svg>
