<?xml version="1.0" encoding="utf-8"?>
<!-- Generator: Adobe Illustrator 16.0.0, SVG Export Plug-In . SVG Version: 6.00 Build 0)  -->
<!DOCTYPE svg PUBLIC "-//W3C//DTD SVG 1.1//EN" "http://www.w3.org/Graphics/SVG/1.1/DTD/svg11.dtd">
<svg version="1.1" id="Layer_1" xmlns="http://www.w3.org/2000/svg" xmlns:xlink="http://www.w3.org/1999/xlink" x="0px" y="0px"
	 width="75px" height="49px" viewBox="0 0 75 49" enable-background="new 0 0 75 49" xml:space="preserve">
<g>
	<path fill="#9D5125" d="M75,33.058v3.4C75,42.624,68.182,49,59.872,49H15.128C6.712,49.002,0,42.729,0,36.458v-3.4H75z"/>
	<path fill="#F58535" d="M28.871,0c7.777,0,14.488,4.571,17.471,11.267c1.6-1.063,3.409-1.7,5.54-1.7
		c5.327,0,9.589,4.144,9.694,9.354C69.141,19.558,75,26.786,75,32.631v1.274c0,6.272-6.818,12.543-15.234,12.543H15.128
		C6.712,46.45,0,40.18,0,33.907v-1.274c0-4.784,4.049-11.372,9.695-12.969c0-0.212,0-0.318,0-0.531C9.695,8.504,18.217,0,28.871,0z"
		/>
	<path fill="#FFFFFF" d="M18.111,22.215h2.983l2.983,14.031l0,0l3.196-14.031h2.983l-4.475,17.539h-3.515L18.111,22.215z"/>
	<path fill="#FFFFFF" d="M32.067,22.215h5.54c3.409,0,4.793,2.126,4.793,5.102c0,3.188-1.812,5.209-5.113,5.209h-2.45v7.229h-2.77
		V22.215z M34.836,30.399h2.024c1.492,0,2.77-0.85,2.77-2.976c0-1.911-0.746-3.083-2.983-3.083h-1.812L34.836,30.399L34.836,30.399z
		"/>
	<path fill="#FFFFFF" d="M55.609,33.482V33.8c0,3.19-1.277,6.271-5.434,6.271c-4.475,0-5.753-2.868-5.753-9.14
		c0-6.271,1.386-9.142,5.859-9.142c5.007,0,5.325,3.721,5.325,5.526v0.426h-2.771v-0.318c0-1.594-0.532-3.508-2.558-3.4
		c-2.023,0-2.981,1.274-2.981,6.908c0,5.633,0.958,7.016,2.981,7.016c2.345,0,2.558-2.552,2.558-4.253v-0.317h2.771v0.105H55.609z"
		/>
</g>
</svg>
