<?xml version="1.0" encoding="utf-8"?>
<!-- Generator: Adobe Illustrator 16.0.0, SVG Export Plug-In . SVG Version: 6.00 Build 0)  -->
<!DOCTYPE svg PUBLIC "-//W3C//DTD SVG 1.1//EN" "http://www.w3.org/Graphics/SVG/1.1/DTD/svg11.dtd">
<svg version="1.1" id="Layer_1" xmlns="http://www.w3.org/2000/svg" xmlns:xlink="http://www.w3.org/1999/xlink" x="0px" y="0px"
	 width="78px" height="75px" viewBox="0 0 78 75" enable-background="new 0 0 78 75" xml:space="preserve">
<g>
	<polygon fill="#9D5125" points="0,16.508 77.9,16.508 77.9,13.96 38.95,3.77 0,13.96 	"/>
	<rect fill="#F58535" width="78" height="13.858"/>
	<polygon fill="#9D5125" points="0,35.971 77.9,35.971 77.9,33.424 38.95,23.233 0,33.424 	"/>
	<rect y="19.565" fill="#F58535" width="78" height="13.859"/>
	<polygon fill="#9D5125" points="0,55.436 77.9,55.436 77.9,52.887 38.95,42.695 0,52.887 	"/>
	<rect y="39.027" fill="#F58535" width="78" height="13.858"/>
	<polygon fill="#9D5125" points="0,75 77.9,75 77.9,72.452 38.95,62.262 0,72.452 	"/>
	<rect y="58.492" fill="#F58535" width="78" height="13.859"/>
	<rect x="14.989" y="2.955" fill="#FFFFFF" width="60.056" height="8.05"/>
	<rect x="2.958" y="22.418" fill="#FFFFFF" width="60.056" height="8.05"/>
	<rect x="14.989" y="41.984" fill="#FFFFFF" width="60.056" height="8.05"/>
	<rect x="2.958" y="61.447" fill="#FFFFFF" width="60.056" height="8.051"/>
</g>
</svg>
