<?xml version="1.0" encoding="utf-8"?>
<!-- Generator: Adobe Illustrator 16.0.0, SVG Export Plug-In . SVG Version: 6.00 Build 0)  -->
<!DOCTYPE svg PUBLIC "-//W3C//DTD SVG 1.1//EN" "http://www.w3.org/Graphics/SVG/1.1/DTD/svg11.dtd">
<svg version="1.1" id="Layer_1" xmlns="http://www.w3.org/2000/svg" xmlns:xlink="http://www.w3.org/1999/xlink" x="0px" y="0px"
	 width="75px" height="72px" viewBox="0 0 75 72" enable-background="new 0 0 75 72" xml:space="preserve">
<g>
	<g>
		<path fill="#7D7C7C" d="M69.984,3.08C72.814,3.08,75,5.391,75,8.086v58.909C75,69.818,72.686,72,69.984,72H5.018
			C2.188,72,0,69.816,0,66.993V8.214c0-2.823,2.316-5.007,5.018-5.007h64.966V3.08L69.984,3.08z"/>
	</g>
	<g>
		<path fill="#D2D3D3" d="M69.984,0C72.814,0,75,2.31,75,5.006v58.908c0,2.823-2.314,5.005-5.016,5.005H5.018
			C2.188,68.919,0,66.737,0,63.914V5.006C0,2.183,2.316,0,5.018,0H69.984z"/>
	</g>
	<g>
		<path fill="#FFFFFF" d="M58.792,5.775c0-1.155,0.899-2.054,2.058-2.054h8.105c1.156,0,2.059,0.897,2.059,2.054v3.337
			c0,1.154-0.9,2.055-2.059,2.055H60.85c-1.156,0-2.058-0.899-2.058-2.055V5.775z M40.652,5.775c0-1.155,0.899-2.054,2.059-2.054
			h8.104c1.158,0,2.06,0.897,2.06,2.054v3.337c0,1.154-0.899,2.055-2.06,2.055h-8.104c-1.158,0-2.059-0.899-2.059-2.055V5.775z
			 M22.514,5.775c0-1.155,0.9-2.054,2.058-2.054h8.105c1.157,0,2.058,0.897,2.058,2.054v3.337c0,1.154-0.9,2.055-2.058,2.055h-8.105
			c-1.157,0-2.058-0.899-2.058-2.055V5.775z M4.375,5.775c0-1.155,0.899-2.054,2.058-2.054h8.104c1.158,0,2.059,0.897,2.059,2.054
			v3.337c0,1.154-0.9,2.055-2.059,2.055H6.433c-1.158,0-2.058-0.899-2.058-2.055V5.775z M16.596,63.144
			c0,1.155-0.9,2.055-2.059,2.055H6.433c-1.158,0-2.058-0.898-2.058-2.055v-3.337c0-1.155,0.899-2.054,2.058-2.054h8.104
			c1.158,0,2.059,0.897,2.059,2.054V63.144z M34.734,63.144c0,1.155-0.9,2.055-2.058,2.055h-8.105c-1.157,0-2.058-0.898-2.058-2.055
			v-3.337c0-1.155,0.9-2.054,2.058-2.054h8.105c1.157,0,2.058,0.897,2.058,2.054V63.144z M52.874,63.144
			c0,1.155-0.899,2.055-2.06,2.055h-8.104c-1.158,0-2.059-0.898-2.059-2.055v-3.337c0-1.155,0.899-2.054,2.059-2.054h8.104
			c1.158,0,2.06,0.897,2.06,2.054V63.144z M71.014,63.144c0,1.155-0.9,2.055-2.059,2.055H60.85c-1.156,0-2.058-0.898-2.058-2.055
			v-3.337c0-1.155,0.899-2.054,2.058-2.054h8.105c1.156,0,2.059,0.897,2.059,2.054V63.144z M69.984,54.289H5.146
			c-0.644,0-1.158-0.515-1.158-1.156c0-0.641,0.515-1.153,1.158-1.153h64.838c0.643,0,1.156,0.513,1.156,1.153
			C71.141,53.774,70.627,54.289,69.984,54.289z M27.531,33.368c0.514-4.748,4.245-8.342,9.005-8.855v8.855H27.531z M36.536,35.551
			v8.983c-4.76-0.513-8.491-4.233-9.005-8.983H36.536z M25.215,33.368h-1.93c0.515-7.059,6.176-12.576,13.251-13.09v1.925
			C30.489,22.589,25.729,27.336,25.215,33.368z M25.215,35.551c0.515,5.904,5.274,10.653,11.321,11.165v1.925
			c-7.075-0.512-12.736-6.16-13.251-13.09H25.215z M47.855,33.368h-9.004v-8.855C43.482,24.898,47.342,28.621,47.855,33.368z
			 M38.852,22.075v-1.926c7.075,0.514,12.736,6.16,13.25,13.091h-1.93C49.529,27.336,44.77,22.589,38.852,22.075z M47.855,35.551
			c-0.515,4.75-4.244,8.342-9.004,8.983v-8.983H47.855z M50.172,35.551h1.93c-0.514,7.059-6.175,12.578-13.25,13.09v-1.925
			C44.77,46.204,49.529,41.455,50.172,35.551z M69.984,16.428H5.146c-0.644,0-1.158-0.513-1.158-1.154s0.515-1.156,1.158-1.156
			h64.838c0.643,0,1.156,0.515,1.156,1.156S70.627,16.428,69.984,16.428z"/>
	</g>
</g>
</svg>
