<?xml version="1.0" encoding="utf-8"?>
<!-- Generator: Adobe Illustrator 16.0.0, SVG Export Plug-In . SVG Version: 6.00 Build 0)  -->
<!DOCTYPE svg PUBLIC "-//W3C//DTD SVG 1.1//EN" "http://www.w3.org/Graphics/SVG/1.1/DTD/svg11.dtd">
<svg version="1.1"
	 id="svg2" xmlns:dc="http://purl.org/dc/elements/1.1/" xmlns:cc="http://creativecommons.org/ns#" xmlns:rdf="http://www.w3.org/1999/02/22-rdf-syntax-ns#" xmlns:svg="http://www.w3.org/2000/svg"
	 xmlns="http://www.w3.org/2000/svg" xmlns:xlink="http://www.w3.org/1999/xlink" x="0px" y="0px" width="53px" height="76px"
	 viewBox="0 0 53 76" enable-background="new 0 0 53 76" xml:space="preserve">
<g id="g12" transform="scale(0.1,0.1)">
	<path id="path22" fill="#087FBF" d="M66.27,231.255L0,297.334V760h463.608l66.387-66.084V231.255H66.27"/>
	<path id="path24" fill="none" stroke="#FFFFFF" stroke-width="4" d="M66.27,231.255L0,297.334V760h463.608l66.387-66.084V231.255
		H66.27z"/>
	<path id="path26" fill="#087FBF" d="M0,297.334h463.608l66.387-66.079H66.27L0,297.334"/>
	<path id="path28" fill="none" stroke="#FFFFFF" stroke-width="4" d="M0,297.334h463.608l66.387-66.079H66.27L0,297.334z"/>
	<path id="path30" fill="#087FBF" d="M463.608,297.334l66.387-66.079v462.661L463.608,760V297.334"/>
	<path id="path32" fill="none" stroke="#FFFFFF" stroke-width="4" d="M463.608,297.334l66.387-66.079v462.661L463.608,760V297.334z"
		/>
	<path id="path34" fill="#087FBF" d="M66.27,231.255L0,297.334V760h463.608l66.387-66.084V231.255H66.27"/>
	<path id="path36" fill="none" stroke="#FFFFFF" stroke-width="4" d="M66.27,231.255L0,297.334V760h463.608l66.387-66.084V231.255
		H66.27z"/>
	<path id="path38" fill="#087FBF" d="M0,297.334h463.608l66.387-66.079"/>
	<path id="path40" fill="none" stroke="#FFFFFF" stroke-width="4" d="M0,297.334h463.608l66.387-66.079"/>
	<path id="path42" fill="#087FBF" d="M463.608,297.334V760"/>
	<path id="path44" fill="none" stroke="#FFFFFF" stroke-width="4" d="M463.608,297.334V760"/>
	<path id="path46" fill="#087FBF" d="M66.27,0L0,66.079v231.255h463.608l66.387-66.079V0H66.27"/>
	<path id="path48" fill="none" stroke="#FFFFFF" stroke-width="4" d="M66.27,0L0,66.079v231.255h463.608l66.387-66.079V0H66.27z"/>
	<path id="path50" fill="#087FBF" d="M463.608,66.079L529.995,0v231.255l-66.387,66.079V66.079"/>
	<path id="path52" fill="none" stroke="#FFFFFF" stroke-width="4" d="M463.608,66.079L529.995,0v231.255l-66.387,66.079V66.079z"/>
	<path id="path54" fill="#087FBF" d="M66.27,0L0,66.079v231.255h463.608l66.387-66.079V0H66.27"/>
	<path id="path56" fill="none" stroke="#FFFFFF" stroke-width="4" d="M66.27,0L0,66.079v231.255h463.608l66.387-66.079V0H66.27z"/>
	<path id="path58" fill="#087FBF" d="M463.608,297.334V66.079H0"/>
	<path id="path60" fill="none" stroke="#FFFFFF" stroke-width="4" d="M463.608,297.334V66.079H0"/>
	<path id="path62" fill="#FFFFFF" d="M33.071,165.19h132.529V99.106H33.071V165.19z"/>
	<path id="path64" fill="#FFFFFF" d="M66.27,693.916h331.206V363.418H66.27V693.916z"/>
	<path id="path66" fill="none" stroke="#FFFFFF" stroke-width="4" stroke-miterlimit="1" d="M66.27,693.916h331.206V363.418H66.27
		V693.916z"/>
	<path id="path68" fill="#FFFFFF" d="M298.12,165.19h132.539V99.106H298.12V165.19z"/>
	<path id="path70" fill="#FFFFFF" d="M33.071,264.297h132.529v-66.069H33.071V264.297z"/>
	<path id="path72" fill="#FFFFFF" d="M298.12,264.297h132.539v-66.069H298.12V264.297z"/>
	<path id="path74" fill="#231F20" d="M165.601,132.148h132.52"/>
	<path id="path76" fill="none" stroke="#FFFFFF" stroke-width="4" stroke-miterlimit="1" d="M165.601,132.148h132.52"/>
	<path id="path78" fill="#231F20" d="M165.601,231.255h132.52"/>
	<path id="path80" fill="none" stroke="#FFFFFF" stroke-width="4" stroke-miterlimit="1" d="M165.601,231.255h132.52"/>
	<path id="path82" fill="#231F20" d="M165.601,198.228l132.52-33.037"/>
	<path id="path84" fill="none" stroke="#FFFFFF" stroke-width="4" stroke-miterlimit="1" d="M165.601,198.228l132.52-33.037"/>
	<path id="path86" fill="#231F20" d="M165.601,165.19l132.52,33.037"/>
	<path id="path88" fill="none" stroke="#FFFFFF" stroke-width="4" stroke-miterlimit="1" d="M165.601,165.19l132.52,33.037"/>
	<path id="path90" fill="#087FBF" d="M231.87,429.619c53.77,0,99.199,41.123,99.199,98.975c0,53.877-45.43,99.238-99.199,99.238
		c-58.037,0-99.468-45.361-99.468-99.238C132.402,470.742,173.833,429.619,231.87,429.619"/>
	<path id="path92" fill="none" stroke="#FFFFFF" stroke-width="4" d="M231.87,429.619c53.77,0,99.199,41.123,99.199,98.975
		c0,53.877-45.43,99.238-99.199,99.238c-58.037,0-99.468-45.361-99.468-99.238C132.402,470.742,173.833,429.619,231.87,429.619"/>
	<path id="path94" fill="#FFFFFF" d="M231.87,495.703c16.465,0,33.066,12.461,33.066,32.891c0,16.719-16.602,33.174-33.066,33.174
		c-20.723,0-33.203-16.455-33.203-33.174C198.667,508.164,211.147,495.703,231.87,495.703"/>
	<path id="path96" fill="none" stroke="#FFFFFF" stroke-width="4" stroke-miterlimit="1" d="M231.87,495.703
		c16.465,0,33.066,12.461,33.066,32.891c0,16.719-16.602,33.174-33.066,33.174c-20.723,0-33.203-16.455-33.203-33.174
		C198.667,508.164,211.147,495.703,231.87,495.703"/>
</g>
</svg>
