<?xml version="1.0" encoding="utf-8"?>
<!-- Generator: Adobe Illustrator 16.0.0, SVG Export Plug-In . SVG Version: 6.00 Build 0)  -->
<!DOCTYPE svg PUBLIC "-//W3C//DTD SVG 1.1//EN" "http://www.w3.org/Graphics/SVG/1.1/DTD/svg11.dtd">
<svg version="1.1" id="Layer_1" xmlns="http://www.w3.org/2000/svg" xmlns:xlink="http://www.w3.org/1999/xlink" x="0px" y="0px"
	 width="57px" height="78px" viewBox="0 0 57 78" enable-background="new 0 0 57 78" xml:space="preserve">
<g>
	<path fill="#4F4F4F" d="M36.484,3.327c2.36,0,4.148,1.81,4.148,4.17L57,69.943v3.886C57,76.189,55.069,78,52.853,78H4.298
		c-2.358,0-4.157-1.811-4.157-4.171v-3.458l18.44-62.875c0-2.36,1.81-4.17,4.167-4.17H36.484z"/>
	<path fill="#7D7C7C" d="M52.709,0c2.36,0,4.168,1.801,4.168,4.161v66.21c0,2.36-1.951,4.149-4.168,4.149H4.157
		C1.808,74.521,0,72.729,0,70.371V4.161C0,1.801,1.809,0,4.157,0H52.709z"/>
	<path fill="#FFFFFF" d="M38.416,9.44h11.508v4.577H38.416V9.44z M22.607,9.44h11.519v4.577H22.607V9.44z M6.8,9.44h11.508v4.577
		H6.8V9.44z M6.8,17.354h11.508v4.578H6.8V17.354z M6.932,25.4H18.45v4.577H6.932V25.4z M18.45,33.314v4.578H6.932v-4.578H18.45z
		 M6.932,41.36H18.45v4.577H6.932V41.36z M18.45,53.993H6.932v-4.576H18.45V53.993z M22.607,17.354h11.519v4.578H22.607V17.354z
		 M22.607,25.4h11.519v4.577H22.607V25.4z M34.27,33.314v4.578H22.75v-4.578H34.27z M22.75,41.36h11.52v4.577H22.75V41.36z
		 M34.27,53.993H22.75v-4.576h11.52V53.993z M38.416,17.354h11.508v4.578H38.416V17.354z M38.416,25.4h11.508v4.577H38.416V25.4z
		 M49.924,33.314v4.578H38.416v-4.578H49.924z M38.416,41.36h11.508v4.577H38.416V41.36z M50.066,53.993H38.559v-4.576h11.508
		V53.993z"/>
</g>
</svg>
