<?xml version="1.0" encoding="utf-8"?>
<!-- Generator: Adobe Illustrator 16.0.0, SVG Export Plug-In . SVG Version: 6.00 Build 0)  -->
<!DOCTYPE svg PUBLIC "-//W3C//DTD SVG 1.1//EN" "http://www.w3.org/Graphics/SVG/1.1/DTD/svg11.dtd">
<svg version="1.1" id="Layer_1" xmlns="http://www.w3.org/2000/svg" xmlns:xlink="http://www.w3.org/1999/xlink" x="0px" y="0px"
	 width="54px" height="75px" viewBox="0 0 54 75" enable-background="new 0 0 54 75" xml:space="preserve">
<g>
	<path fill="#7D7C7C" d="M26.933,3.354l15.812,12.344v3.354c0,8.721-7.103,15.697-15.812,15.697c-8.71,0-15.811-6.976-15.811-15.697
		v-3.354L26.933,3.354z"/>
	<path fill="#7D7C7C" d="M35.911,39.177C45.827,39.177,54,45.215,54,55.143V75H43.683V61.046H41.94V75H12.462V61.046h-1.743V75H0
		V55.143c0-9.928,8.041-15.966,18.09-15.966H35.911z"/>
	<path fill="#D2D3D3" d="M26.933,0c8.709,0,15.812,6.977,15.812,15.698c0,8.721-7.103,15.697-15.812,15.697
		c-8.71,0-15.811-6.977-15.811-15.697C11.123,7.111,18.223,0,26.933,0z"/>
	<path fill="#D2D3D3" d="M35.911,35.823C45.827,35.823,54,41.861,54,51.788v19.856H43.683V57.691H41.94v13.953H12.462V57.691h-1.743
		v13.953H0V51.788c0-9.929,8.041-15.965,18.09-15.965H35.911z"/>
</g>
</svg>
