<?xml version="1.0" encoding="utf-8"?>
<!-- Generator: Adobe Illustrator 16.0.0, SVG Export Plug-In . SVG Version: 6.00 Build 0)  -->
<!DOCTYPE svg PUBLIC "-//W3C//DTD SVG 1.1//EN" "http://www.w3.org/Graphics/SVG/1.1/DTD/svg11.dtd">
<svg version="1.1" id="Layer_1" xmlns="http://www.w3.org/2000/svg" xmlns:xlink="http://www.w3.org/1999/xlink" x="0px" y="0px"
	 width="75px" height="49px" viewBox="0 0 75 49" enable-background="new 0 0 75 49" xml:space="preserve">
<g>
	<path fill="#9D5125" d="M75,33.058v3.402C75,42.625,68.182,49,59.87,49H15.128C6.711,49.002,0,42.729,0,36.46v-3.402H75z"/>
	<path fill="#F58535" d="M28.87,0c7.778,0,14.489,4.573,17.473,11.269c1.599-1.063,3.407-1.702,5.538-1.702
		c5.327,0,9.588,4.146,9.696,9.354C69.141,19.56,75,26.786,75,32.631v1.278c0,6.272-6.818,12.539-15.234,12.539H15.128
		C6.711,46.449,0,40.183,0,33.909v-1.276c0-4.782,4.049-11.373,9.695-12.966c0-0.213,0-0.319,0-0.532C9.695,8.504,18.216,0,28.87,0z
		"/>
	<path fill="#FFFFFF" d="M18.75,22.215l-5.007,17.433h2.984l1.172-4.252h5.112l1.065,4.252h2.984l-4.688-17.433H18.75z
		 M18.323,33.167l2.132-8.612l0,0l2.023,8.612H18.323z"/>
	<polygon fill="#FFFFFF" points="39.63,35.928 39.525,35.928 37.18,22.215 34.198,22.215 31.96,35.823 31.854,35.823 29.51,22.215 
		26.74,22.215 30.149,39.756 33.346,39.756 35.583,26.573 35.689,26.573 37.927,39.756 41.229,39.756 44.744,22.215 41.869,22.215 	
		"/>
	<path fill="#FFFFFF" d="M53.801,30.189l-1.92-0.64c-1.917-0.744-2.662-1.596-2.662-3.083c0-1.913,1.172-2.55,2.344-2.55
		c1.703,0,2.449,0.956,2.449,2.55v0.318h2.771v-0.427c0-1.806-0.427-4.567-5.005-4.567c-3.303,0-5.435,1.805-5.435,4.994
		c0,2.447,1.063,3.829,3.729,4.785l1.916,0.636c1.6,0.425,2.559,1.277,2.559,3.085c0,1.273-0.854,2.552-2.666,2.552
		c-1.917,0-2.876-1.063-2.876-3.19v-0.426h-2.771v0.426c0,2.443,0.957,5.316,5.328,5.316c3.516,0,5.858-1.49,5.858-5.212
		C57.316,32.421,56.249,31.037,53.801,30.189z"/>
</g>
</svg>
