<?xml version="1.0" encoding="utf-8"?>
<!-- Generator: Adobe Illustrator 16.0.0, SVG Export Plug-In . SVG Version: 6.00 Build 0)  -->
<!DOCTYPE svg PUBLIC "-//W3C//DTD SVG 1.1//EN" "http://www.w3.org/Graphics/SVG/1.1/DTD/svg11.dtd">
<svg version="1.1"
	 id="svg2" xmlns:dc="http://purl.org/dc/elements/1.1/" xmlns:cc="http://creativecommons.org/ns#" xmlns:rdf="http://www.w3.org/1999/02/22-rdf-syntax-ns#" xmlns:svg="http://www.w3.org/2000/svg"
	 xmlns="http://www.w3.org/2000/svg" xmlns:xlink="http://www.w3.org/1999/xlink" x="0px" y="0px" width="52px" height="80px"
	 viewBox="0 0 52 80" enable-background="new 0 0 52 80" xml:space="preserve">
<g id="g12" transform="scale(0.1,0.1)">
	<path id="path22" fill="#087FBF" d="M10,784.997h400.64V97.346H10V784.997z"/>
	<path id="path24" fill="none" stroke="#FFFFFF" stroke-width="4" d="M10,784.997h400.64V97.346H10V784.997z"/>
	<path id="path26" fill="#087FBF" d="M130.229,14.998L10,97.346h400.64l99.355-82.349H130.229"/>
	<path id="path28" fill="none" stroke="#FFFFFF" stroke-width="4" d="M130.229,14.998L10,97.346h400.64l99.355-82.349H130.229z"/>
	<path id="path30" fill="#087FBF" d="M509.995,675.339V14.998L410.64,97.346v687.651L509.995,675.339"/>
	<path id="path32" fill="none" stroke="#FFFFFF" stroke-width="4" d="M509.995,675.339V14.998L410.64,97.346v687.651
		L509.995,675.339z"/>
	<path id="path34" fill="#FFFFFF" d="M165.601,219.431l180.723-0.22v22.925l-180.723,0.039l-0.02,35.918l-82.075-47.3l82.075-47.3
		L165.601,219.431"/>
	<path id="path36" fill="#FFFFFF" d="M281.206,408.24l-180.557,0.088v-22.93l180.557-0.059l0.039-35.761l82.207,47.304
		l-82.207,47.305L281.206,408.24"/>
</g>
</svg>
