<?xml version="1.0" encoding="utf-8"?>
<!-- Generator: Adobe Illustrator 16.0.0, SVG Export Plug-In . SVG Version: 6.00 Build 0)  -->
<!DOCTYPE svg PUBLIC "-//W3C//DTD SVG 1.1//EN" "http://www.w3.org/Graphics/SVG/1.1/DTD/svg11.dtd">
<svg version="1.1" id="Layer_1" xmlns="http://www.w3.org/2000/svg" xmlns:xlink="http://www.w3.org/1999/xlink" x="0px" y="0px"
	 width="75px" height="75px" viewBox="0 0 75 75" enable-background="new 0 0 75 75" xml:space="preserve">
<g>
	<path fill="none" d="M66.73,64.793H43.074c-1.199,0-2.28,1.063-2.28,2.282l0,0h28.22l0,0C69.014,65.855,67.949,64.793,66.73,64.793
		z"/>
	<path fill="none" d="M43.074,69.355H66.73c1.219,0,2.281-1.08,2.281-2.28H40.794C40.794,68.275,41.736,69.355,43.074,69.355z"/>
	<path fill="#9D5125" d="M69.014,67.075c0,1.2-1.063,2.28-2.281,2.28H43.074c-1.199,0-2.28-1.08-2.28-2.28H0.206v2.28
		C0.206,72.443,2.753,75,5.85,75h63.3c3.088,0,5.645-2.557,5.645-5.645v-2.28H69.014z"/>
	<path fill="#9D5125" d="M72.375,40.057l-3.619,4.031c0,1.475-1.219,2.557-2.557,2.557H8.938c-1.476,0-2.557-1.219-2.557-2.557
		l-3.088-4.031H0.334v4.031c0,4.7,3.903,8.594,8.604,8.594H66.2c4.7,0,8.595-3.894,8.595-8.594v-4.031H72.375z"/>
	<path fill="#F58535" d="M69.148,55.787c3.088,0,5.646,2.538,5.646,5.645v4.563c0,3.087-2.558,5.645-5.646,5.645H5.85
		c-3.097,0-5.644-2.558-5.644-5.645v-4.563c0-3.105,2.547-5.645,5.644-5.645H69.148z M66.73,65.994c1.219,0,2.281-1.081,2.281-2.282
		c0-1.219-1.063-2.28-2.281-2.28H43.074c-1.199,0-2.28,1.063-2.28,2.28c0,1.201,1.081,2.282,2.28,2.282H66.73"/>
	<path fill="#F58535" d="M66.199,0.138c4.699,0,8.595,3.894,8.595,8.603v32.122c0,4.699-3.896,8.595-8.595,8.595H8.938
		c-4.7,0-8.604-3.896-8.604-8.595V8.603C0.334,3.894,4.237,0,8.938,0H66.2L66.199,0.138L66.199,0.138z M68.756,40.727V8.603
		c0-1.475-1.219-2.556-2.557-2.556H8.938c-1.476,0-2.557,1.209-2.557,2.556v32.124c0,1.475,1.21,2.556,2.557,2.556H66.2
		C67.537,43.281,68.756,42.2,68.756,40.727"/>
</g>
</svg>
