<?xml version="1.0" encoding="utf-8"?>
<!-- Generator: Adobe Illustrator 16.0.0, SVG Export Plug-In . SVG Version: 6.00 Build 0)  -->
<!DOCTYPE svg PUBLIC "-//W3C//DTD SVG 1.1//EN" "http://www.w3.org/Graphics/SVG/1.1/DTD/svg11.dtd">
<svg version="1.1" id="Layer_1" xmlns="http://www.w3.org/2000/svg" xmlns:xlink="http://www.w3.org/1999/xlink" x="0px" y="0px"
	 width="75px" height="49px" viewBox="0 0 75 49" enable-background="new 0 0 75 49" xml:space="preserve">
<g>
	<path fill="#7D7C7C" d="M75,33.058v3.4C75,42.624,68.182,49,59.872,49H15.128C6.712,49.002,0,42.729,0,36.458v-3.4H75z"/>
	<path fill="#D2D3D3" d="M28.871,0c7.777,0,14.488,4.571,17.471,11.267c1.6-1.063,3.409-1.7,5.54-1.7
		c5.327,0,9.589,4.145,9.694,9.354C69.141,19.558,75,26.786,75,32.631v1.275c0,6.272-6.818,12.543-15.234,12.543H15.128
		C6.712,46.45,0,40.18,0,33.907v-1.274c0-4.784,4.049-11.373,9.695-12.968c0-0.212,0-0.318,0-0.53C9.695,8.504,18.217,0,28.871,0z"
		/>
</g>
</svg>
