<?xml version="1.0" encoding="utf-8"?>
<!-- Generator: Adobe Illustrator 16.0.0, SVG Export Plug-In . SVG Version: 6.00 Build 0)  -->
<!DOCTYPE svg PUBLIC "-//W3C//DTD SVG 1.1//EN" "http://www.w3.org/Graphics/SVG/1.1/DTD/svg11.dtd">
<svg version="1.1"
	 id="svg2" xmlns:dc="http://purl.org/dc/elements/1.1/" xmlns:cc="http://creativecommons.org/ns#" xmlns:rdf="http://www.w3.org/1999/02/22-rdf-syntax-ns#" xmlns:svg="http://www.w3.org/2000/svg"
	 xmlns="http://www.w3.org/2000/svg" xmlns:xlink="http://www.w3.org/1999/xlink" x="0px" y="0px" width="67px" height="75px"
	 viewBox="0 0 67 75" enable-background="new 0 0 67 75" xml:space="preserve">
<g id="g12" transform="scale(0.1,0.1)">
	<path id="path22" fill="#087FBF" d="M669.995,130.083c0,71.973-150.078,130.234-334.99,130.234
		C149.956,260.317,0,202.056,0,130.083V619.76c0,71.855,149.956,130.234,335.005,130.234c184.912,0,334.99-58.379,334.99-130.234
		V130.083"/>
	<path id="path24" fill="none" stroke="#FFFFFF" stroke-width="4" d="M669.995,130.083c0,71.973-150.078,130.234-334.99,130.234
		C149.956,260.317,0,202.056,0,130.083V619.76c0,71.855,149.956,130.234,335.005,130.234c184.912,0,334.99-58.379,334.99-130.234
		V130.083z"/>
	<path id="path26" fill="#087FBF" d="M335.005,260.317c184.912,0,334.99-58.262,334.99-130.234C669.995,58.237,519.917,0,335.005,0
		C149.956,0,0,58.237,0,130.083C0,202.056,149.956,260.317,335.005,260.317"/>
	<path id="path28" fill="none" stroke="#FFFFFF" stroke-width="4" d="M335.005,260.317c184.912,0,334.99-58.262,334.99-130.234
		C669.995,58.237,519.917,0,335.005,0C149.956,0,0,58.237,0,130.083C0,202.056,149.956,260.317,335.005,260.317z"/>
	<path id="path30" fill="#FFFFFF" d="M258.452,79.185l27.754,41.572L181.67,144.922l22.798-19.023L42.832,98.188l40.601-30.366
		l155.898,26.362L258.452,79.185"/>
	<path id="path32" fill="#FFFFFF" d="M405.562,179.766l-18.672-42.764l94.16-18.77l-16.27,14.639l157.07,26.792l-37.559,30.103
		l-156.25-29.316L405.562,179.766"/>
	<path id="path34" fill="#FFFFFF" d="M354.097,56.665l105.605-28.906l1.348,45.156l-26.387-5.073l-51.797,42.764l-49.004-7.065
		l53.184-41.919L354.097,56.665"/>
	<path id="path36" fill="#FFFFFF" d="M308.901,218.687l-100.723,18.916l-3.721-46.509l28.936,6.26l55.371-47.231l49.082,8.188
		l-59.238,51.572L308.901,218.687"/>
	<path id="path38" fill="#FFFFFF" d="M340.151,432.007V326.353h18.105l-26.582-39.697l-26.426,39.697h17.93v105.654H340.151"/>
	<path id="path40" fill="#FFFFFF" d="M286.274,447.3l-74.717-74.795l12.734-12.568l-46.904-9.502l9.512,46.709l12.573-12.559
		l74.731,74.629L286.274,447.3"/>
	<path id="path42" fill="#FFFFFF" d="M259.058,495.952h-105.61v-17.773l-39.907,26.367l39.907,26.426v-18.086h105.61V495.952"/>
	<path id="path44" fill="#FFFFFF" d="M274.204,549.917l-74.731,74.648l-12.573-12.871l-9.512,46.855l46.904-9.492l-12.734-12.578
		l74.717-74.668L274.204,549.917"/>
	<path id="path46" fill="#FFFFFF" d="M323.179,577.124v105.488h-17.93l26.426,39.727l26.582-39.727h-18.105V577.124H323.179"/>
	<path id="path48" fill="#FFFFFF" d="M376.929,561.811l74.707,74.668l-12.598,12.578l46.914,9.492l-9.512-46.855l-12.578,12.871
		l-74.707-74.648L376.929,561.811"/>
	<path id="path50" fill="#FFFFFF" d="M404.448,512.885h105.605v18.086l39.746-26.426l-39.746-26.367v17.773H404.448V512.885"/>
	<path id="path52" fill="#FFFFFF" d="M389.155,459.214l74.707-74.629l12.578,12.559l9.512-46.709l-46.914,9.502l12.598,12.568
		L376.929,447.3L389.155,459.214"/>
	<path id="path54" fill="#FFFFFF" d="M396.401,593.081c49.316-34.844,61.211-102.949,26.66-152.246
		c-34.59-49.57-102.754-61.465-152.236-26.934c-49.463,34.531-61.514,102.656-26.797,152.246
		C278.608,615.425,346.772,627.612,396.401,593.081"/>
</g>
</svg>
