<?xml version="1.0" encoding="utf-8"?>
<!-- Generator: Adobe Illustrator 16.0.0, SVG Export Plug-In . SVG Version: 6.00 Build 0)  -->
<!DOCTYPE svg PUBLIC "-//W3C//DTD SVG 1.1//EN" "http://www.w3.org/Graphics/SVG/1.1/DTD/svg11.dtd">
<svg version="1.1" id="Layer_1" xmlns="http://www.w3.org/2000/svg" xmlns:xlink="http://www.w3.org/1999/xlink" x="0px" y="0px"
	 width="75px" height="38px" viewBox="0 0 75 38" enable-background="new 0 0 75 38" xml:space="preserve">
<g>
	<rect y="15.665" fill="#4F4F4F" width="35.015" height="3.494"/>
	<rect x="39.984" y="16.341" fill="#4F4F4F" width="35.016" height="4.058"/>
	<path fill="#4F4F4F" d="M64.947,4.62c-8.698-4.17-19.202-0.451-23.268,8.341c-2.824,5.86-2.033,12.624,1.579,17.582
		c-4.065,1.016-8.132,1.128-12.875,1.128c0.791-0.79,1.017-1.128,1.694-2.029c1.92-2.817,3.049-6.198,3.049-9.917
		c0-9.693-7.793-17.469-17.507-17.469c-9.714,0-17.507,7.775-17.507,17.467c0,9.694,7.793,17.47,17.507,17.47
		c3.163,0,5.987-0.789,8.584-2.255c1.016,0.113,2.033,0.228,3.162,0.228c0,0,8.246,1.013,17.169-1.128
		c1.13,0.9,2.259,1.689,3.613,2.255c8.699,4.168,19.203,0.45,23.269-8.341C77.371,19.159,73.645,8.79,64.947,4.62z"/>
	<path fill="#7D7C7C" d="M64.947,2.366c-8.698-4.17-19.202-0.451-23.268,8.34c-2.824,5.861-2.033,12.623,1.579,17.581
		c-4.065,1.016-8.583,1.69-13.44,1.69c3.276-3.155,5.309-7.551,5.309-12.509C35.128,7.776,27.335,0,17.621,0
		S0.113,7.776,0.113,17.469S7.906,34.937,17.62,34.937c3.163,0,5.987-0.787,8.584-2.254c1.016,0.112,2.033,0.228,3.162,0.228
		c0,0,8.246,1.014,17.169-1.129c1.13,0.901,2.259,1.691,3.613,2.255c8.699,4.169,19.203,0.45,23.269-8.34
		C77.371,16.905,73.645,6.536,64.947,2.366z"/>
	<path fill="#FFFFFF" d="M13.667,21.64c-1.129-1.354-3.162-1.578-4.518-0.452l-2.484,2.029c-1.355,1.126-1.582,3.154-0.452,4.508
		l0.226,0.226c1.129,1.353,3.163,1.578,4.518,0.451l2.485-2.028c1.355-1.128,1.582-3.156,0.452-4.509L13.667,21.64z"/>
	<path fill="#FFFFFF" d="M32.982,18.257c0-1.803-1.355-3.155-3.163-3.268h-3.163c-1.808,0-3.163,1.353-3.275,3.156v0.338
		c0,1.803,1.355,3.157,3.162,3.269h3.163c1.807,0,3.162-1.352,3.275-3.156L32.982,18.257L32.982,18.257z"/>
	<path fill="#FFFFFF" d="M15.926,11.27c1.694-0.564,2.598-2.367,2.033-4.057l-1.017-3.043c-0.565-1.691-2.372-2.593-4.066-2.029
		l-0.339,0.112c-1.694,0.564-2.598,2.367-2.033,4.058l1.016,3.043c0.565,1.69,2.373,2.593,4.066,2.029L15.926,11.27z"/>
	<ellipse fill="#FFFFFF" cx="17.507" cy="17.468" rx="2.485" ry="2.48"/>
	<path fill="#FFFFFF" d="M59.525,23.554c-1.694,0.45-2.711,2.141-2.371,3.832l0.789,3.043c0.451,1.69,2.146,2.704,3.841,2.366
		l0.339-0.112c1.693-0.451,2.711-2.141,2.373-3.832l-0.791-3.043c-0.452-1.69-2.146-2.704-3.842-2.366L59.525,23.554z"/>
	<path fill="#FFFFFF" d="M64.834,4.62c-1.581-0.79-3.502-0.112-4.291,1.466l-1.355,2.817c-0.791,1.578-0.113,3.494,1.469,4.283
		l0.338,0.113c1.582,0.789,3.503,0.112,4.292-1.465l1.356-2.817c0.789-1.579,0.112-3.494-1.47-4.283L64.834,4.62z"/>
	<path fill="#FFFFFF" d="M51.167,17.018c0.226-1.691-1.017-3.382-2.824-3.493l-3.161-0.339c-1.695-0.225-3.275,1.014-3.502,2.818
		v0.338c-0.227,1.69,1.016,3.268,2.823,3.493l3.163,0.337c1.693,0.227,3.275-1.013,3.501-2.816V17.018z"/>
	<ellipse fill="#FFFFFF" cx="57.492" cy="18.144" rx="2.484" ry="2.479"/>
</g>
</svg>
