<?xml version="1.0" encoding="utf-8"?>
<!-- Generator: Adobe Illustrator 16.0.0, SVG Export Plug-In . SVG Version: 6.00 Build 0)  -->
<!DOCTYPE svg PUBLIC "-//W3C//DTD SVG 1.1//EN" "http://www.w3.org/Graphics/SVG/1.1/DTD/svg11.dtd">
<svg version="1.1" id="Layer_1" xmlns="http://www.w3.org/2000/svg" xmlns:xlink="http://www.w3.org/1999/xlink" x="0px" y="0px"
	 width="57px" height="78px" viewBox="0 0 57 78" enable-background="new 0 0 57 78" xml:space="preserve">
<g>
	<path fill="#4F4F4F" d="M36.477,3.331c2.358,0,4.158,1.805,4.158,4.164L57,69.949v3.886C57,76.195,55.062,78,52.842,78H4.299
		c-2.358,0-4.16-1.805-4.16-4.165v-3.468L18.584,7.495c0-2.359,1.803-4.164,4.161-4.164H36.477z"/>
	<path fill="#7D7C7C" d="M52.703,0c2.358,0,4.161,1.804,4.161,4.163v66.205c0,2.36-1.942,4.161-4.161,4.161H4.16
		c-2.358,0-4.16-1.801-4.16-4.161V4.163C0,1.804,1.804,0,4.16,0H52.703z"/>
	<path fill="#FFFFFF" d="M47.987,31.505H8.876v-4.58h39.111V31.505z M47.987,23.732H8.876v-4.58h39.111V23.732z M47.987,15.545
		H8.876v-4.58h39.111V15.545z"/>
</g>
</svg>
