<?xml version="1.0" encoding="utf-8"?>
<!-- Generator: Adobe Illustrator 16.0.0, SVG Export Plug-In . SVG Version: 6.00 Build 0)  -->
<!DOCTYPE svg PUBLIC "-//W3C//DTD SVG 1.1//EN" "http://www.w3.org/Graphics/SVG/1.1/DTD/svg11.dtd">
<svg version="1.1" id="Layer_1" xmlns="http://www.w3.org/2000/svg" xmlns:xlink="http://www.w3.org/1999/xlink" x="0px" y="0px"
	 width="75px" height="75px" viewBox="0 0 75 75" enable-background="new 0 0 75 75" xml:space="preserve">
<g>
	<g>
		<g>
			<path id="SVGID_1_" fill="#4F4F4F" d="M73.621,35.858v3.285C73.621,58.977,57.466,75,37.5,75
				C17.535,75,1.379,58.977,1.379,39.143v-3.285H73.621L73.621,35.858z"/>
		</g>
		<g>
			<g>
				<defs>
					<path id="SVGID_2_" d="M73.621,35.858v3.285C73.621,58.977,57.466,75,37.5,75C17.535,75,1.379,58.977,1.379,39.143v-3.285
						H73.621L73.621,35.858z"/>
				</defs>
				<clipPath id="SVGID_3_">
					<use xlink:href="#SVGID_2_"  overflow="visible"/>
				</clipPath>
				<path clip-path="url(#SVGID_3_)" fill="#4F4F4F" d="M73.621,35.858v3.285c0,1.84-0.131,3.547-0.395,5.387v-3.284
					C73.49,39.405,73.621,37.698,73.621,35.858"/>
			</g>
		</g>
		<g>
			<g>
				<defs>
					<path id="SVGID_4_" d="M73.621,35.858v3.285C73.621,58.977,57.466,75,37.5,75C17.535,75,1.379,58.977,1.379,39.143v-3.285
						H73.621L73.621,35.858z"/>
				</defs>
				<clipPath id="SVGID_5_">
					<use xlink:href="#SVGID_4_"  overflow="visible"/>
				</clipPath>
				<path clip-path="url(#SVGID_5_)" fill="#4F4F4F" d="M73.229,41.244v3.283c-0.265,2.102-0.789,4.072-1.446,5.91v-3.282
					C72.438,45.186,72.964,43.215,73.229,41.244"/>
			</g>
		</g>
		<g>
			<g>
				<defs>
					<path id="SVGID_6_" d="M73.621,35.858v3.285C73.621,58.977,57.466,75,37.5,75C17.535,75,1.379,58.977,1.379,39.143v-3.285
						H73.621L73.621,35.858z"/>
				</defs>
				<clipPath id="SVGID_7_">
					<use xlink:href="#SVGID_6_"  overflow="visible"/>
				</clipPath>
				<path clip-path="url(#SVGID_7_)" fill="#4F4F4F" d="M71.781,47.155v3.282c-0.787,2.232-1.707,4.336-2.889,6.437V53.59
					C70.074,51.489,70.994,49.387,71.781,47.155"/>
			</g>
		</g>
		<g>
			<g>
				<defs>
					<path id="SVGID_8_" d="M73.621,35.858v3.285C73.621,58.977,57.466,75,37.5,75C17.535,75,1.379,58.977,1.379,39.143v-3.285
						H73.621L73.621,35.858z"/>
				</defs>
				<clipPath id="SVGID_9_">
					<use xlink:href="#SVGID_8_"  overflow="visible"/>
				</clipPath>
				<path clip-path="url(#SVGID_9_)" fill="#4F4F4F" d="M68.893,53.59v3.284C62.721,67.645,50.896,74.869,37.5,74.869
					c-19.965,0-36.121-16.024-36.121-35.858v-3.283c0,19.833,16.156,35.857,36.121,35.857C50.896,71.716,62.721,64.361,68.893,53.59
					"/>
			</g>
		</g>
	</g>
	<path fill="#7D7C7C" d="M37.5,0c19.966,0,36.121,16.025,36.121,35.858c0,19.833-16.155,35.858-36.121,35.858
		c-19.965,0-36.121-16.022-36.121-35.858C1.379,16.025,17.535,0,37.5,0z"/>
	<circle fill="none" stroke="#FFFFFF" stroke-miterlimit="10" cx="37.5" cy="35.858" r="11.165"/>
	<circle fill="#FFFFFF" cx="37.5" cy="35.858" r="6.83"/>
</g>
</svg>
