<?xml version="1.0" encoding="utf-8"?>
<!-- Generator: Adobe Illustrator 16.0.0, SVG Export Plug-In . SVG Version: 6.00 Build 0)  -->
<!DOCTYPE svg PUBLIC "-//W3C//DTD SVG 1.1//EN" "http://www.w3.org/Graphics/SVG/1.1/DTD/svg11.dtd">
<svg version="1.1"
	 id="svg2" xmlns:dc="http://purl.org/dc/elements/1.1/" xmlns:cc="http://creativecommons.org/ns#" xmlns:rdf="http://www.w3.org/1999/02/22-rdf-syntax-ns#" xmlns:svg="http://www.w3.org/2000/svg"
	 xmlns="http://www.w3.org/2000/svg" xmlns:xlink="http://www.w3.org/1999/xlink" x="0px" y="0px" width="53px" height="80px"
	 viewBox="0 0 53 80" enable-background="new 0 0 53 80" xml:space="preserve">
<g id="g12" transform="scale(0.1,0.1)">
	<path id="path22" fill="#02709F" d="M0,800h106.582v-317.89H0V800z"/>
	<path id="path24" fill="none" stroke="#FFFFFF" stroke-width="3.9999" d="M106.582,482.09H0V800h106.582"/>
	<path id="path26" fill="#02709F" d="M106.582,800l58.936-58.926v-317.89H58.926L0,482.09h106.582V800"/>
	<path id="path28" fill="none" stroke="#FFFFFF" stroke-width="3.9999" d="M106.582,800l58.936-58.926v-317.89H58.926L0,482.09
		h106.582V800z"/>
	<path id="path30" fill="#02709F" d="M106.582,482.09l58.936-58.906"/>
	<path id="path32" fill="none" stroke="#FFFFFF" stroke-width="3.9999" d="M106.582,482.09l58.936-58.906"/>
	<path id="path34" fill="#02709F" d="M106.582,800h217.334V88.379H106.582V800z"/>
	<path id="path36" fill="none" stroke="#FFFFFF" stroke-width="3.9999" d="M323.916,88.374H106.582V800h217.334"/>
	<path id="path38" fill="#02709F" d="M323.916,800l88.408-88.379V0H194.971l-88.389,88.374h217.334V800"/>
	<path id="path40" fill="none" stroke="#FFFFFF" stroke-width="3.9999" d="M323.916,800l88.408-88.379V0H194.971l-88.389,88.374
		h217.334V800z"/>
	<path id="path42" fill="#02709F" d="M323.916,88.374L412.324,0"/>
	<path id="path44" fill="none" stroke="#FFFFFF" stroke-width="3.9999" d="M323.916,88.374L412.324,0"/>
	<path id="path46" fill="#02709F" d="M325.752,800h117.822V200.356H325.752V800z"/>
	<path id="path48" fill="none" stroke="#FFFFFF" stroke-width="3.9999" d="M443.574,200.356H325.752V800h117.822"/>
	<path id="path50" fill="#02709F" d="M443.574,800L530,713.594V113.965H412.168l-86.416,86.392h117.822V800"/>
	<path id="path52" fill="none" stroke="#FFFFFF" stroke-width="3.9999" d="M443.574,800L530,713.594V113.965H412.168l-86.416,86.392
		h117.822V800z"/>
	<path id="path54" fill="#02709F" d="M443.574,200.356L530,113.965"/>
	<path id="path56" fill="none" stroke="#FFFFFF" stroke-width="3.9999" d="M443.574,200.356L530,113.965"/>
	<path id="path58" fill="#02709F" d="M219.766,380.439v33.213h33.232"/>
	<path id="path60" fill="none" stroke="#FFFFFF" stroke-width="3.9999" d="M219.766,380.439v33.213h33.232"/>
	<path id="path62" fill="#02709F" d="M266.113,380.439v33.213h33.223"/>
	<path id="path64" fill="none" stroke="#FFFFFF" stroke-width="3.9999" d="M266.113,380.439v33.213h33.223"/>
	<path id="path66" fill="#02709F" d="M126.592,381.318v33.213h33.213"/>
	<path id="path68" fill="none" stroke="#FFFFFF" stroke-width="3.9999" d="M126.592,381.318v33.213h33.213"/>
	<path id="path70" fill="#02709F" d="M172.92,381.318v33.213h33.223"/>
	<path id="path72" fill="none" stroke="#FFFFFF" stroke-width="3.9999" d="M172.92,381.318v33.213h33.223"/>
	<path id="path74" fill="#02709F" d="M219.385,449.57v33.223h33.232"/>
	<path id="path76" fill="none" stroke="#FFFFFF" stroke-width="3.9999" d="M219.385,449.57v33.223h33.232"/>
	<path id="path78" fill="#02709F" d="M265.732,449.57v33.223h33.223"/>
	<path id="path80" fill="none" stroke="#FFFFFF" stroke-width="3.9999" d="M265.732,449.57v33.223h33.223"/>
	<path id="path82" fill="#02709F" d="M126.211,450.449v33.223h33.223"/>
	<path id="path84" fill="none" stroke="#FFFFFF" stroke-width="3.9999" d="M126.211,450.449v33.223h33.223"/>
	<path id="path86" fill="#02709F" d="M172.549,450.449v33.223h33.232"/>
	<path id="path88" fill="none" stroke="#FFFFFF" stroke-width="3.9999" d="M172.549,450.449v33.223h33.232"/>
	<path id="path90" fill="#02709F" d="M219.385,515.762v33.222h33.232"/>
	<path id="path92" fill="none" stroke="#FFFFFF" stroke-width="3.9999" d="M219.385,515.762v33.222h33.232"/>
	<path id="path94" fill="#02709F" d="M265.732,515.762v33.222h33.223"/>
	<path id="path96" fill="none" stroke="#FFFFFF" stroke-width="3.9999" d="M265.732,515.762v33.222h33.223"/>
	<path id="path98" fill="#02709F" d="M126.211,516.641v33.222h33.223"/>
	<path id="path100" fill="none" stroke="#FFFFFF" stroke-width="3.9999" d="M126.211,516.641v33.222h33.223"/>
	<path id="path102" fill="#02709F" d="M172.549,516.641v33.222h33.232"/>
	<path id="path104" fill="none" stroke="#FFFFFF" stroke-width="3.9999" d="M172.549,516.641v33.222h33.232"/>
	<path id="path106" fill="#02709F" d="M219.385,576.953v33.242h33.232"/>
	<path id="path108" fill="none" stroke="#FFFFFF" stroke-width="3.9999" d="M219.385,576.953v33.242h33.232"/>
	<path id="path110" fill="#02709F" d="M265.732,576.953v33.242h33.223"/>
	<path id="path112" fill="none" stroke="#FFFFFF" stroke-width="3.9999" d="M265.732,576.953v33.242h33.223"/>
	<path id="path114" fill="#02709F" d="M126.211,577.832v33.203h33.223"/>
	<path id="path116" fill="none" stroke="#FFFFFF" stroke-width="3.9999" d="M126.211,577.832v33.203h33.223"/>
	<path id="path118" fill="#02709F" d="M172.549,577.832v33.203h33.232"/>
	<path id="path120" fill="none" stroke="#FFFFFF" stroke-width="3.9999" d="M172.549,577.832v33.203h33.232"/>
	<path id="path122" fill="#02709F" d="M347.686,228.369v33.223h33.223"/>
	<path id="path124" fill="none" stroke="#FFFFFF" stroke-width="3.9999" d="M347.686,228.369v33.223h33.223"/>
	<path id="path126" fill="#02709F" d="M394.023,228.369v33.223h33.232"/>
	<path id="path128" fill="none" stroke="#FFFFFF" stroke-width="3.9999" d="M394.023,228.369v33.223h33.232"/>
	<path id="path130" fill="#02709F" d="M347.09,290.815v33.223h33.232"/>
	<path id="path132" fill="none" stroke="#FFFFFF" stroke-width="3.9999" d="M347.09,290.815v33.223h33.232"/>
	<path id="path134" fill="#02709F" d="M393.428,290.815v33.223h33.242"/>
	<path id="path136" fill="none" stroke="#FFFFFF" stroke-width="3.9999" d="M393.428,290.815v33.223h33.242"/>
	<path id="path138" fill="#02709F" d="M347.09,347.007v33.228h33.232"/>
	<path id="path140" fill="none" stroke="#FFFFFF" stroke-width="3.9999" d="M347.09,347.007v33.228h33.232"/>
	<path id="path142" fill="#02709F" d="M393.428,347.007v33.228h33.242"/>
	<path id="path144" fill="none" stroke="#FFFFFF" stroke-width="3.9999" d="M393.428,347.007v33.228h33.242"/>
	<path id="path146" fill="#02709F" d="M15.41,509.043v33.203h33.223"/>
	<path id="path148" fill="none" stroke="#FFFFFF" stroke-width="3.9999" d="M15.41,509.043v33.203h33.223"/>
	<path id="path150" fill="#02709F" d="M61.758,509.043v33.203H94.98"/>
	<path id="path152" fill="none" stroke="#FFFFFF" stroke-width="3.9999" d="M61.758,509.043v33.203H94.98"/>
	<path id="path154" fill="#02709F" d="M17.91,571.465v33.242h33.232"/>
	<path id="path156" fill="none" stroke="#FFFFFF" stroke-width="3.9999" d="M17.91,571.465v33.242h33.232"/>
	<path id="path158" fill="#02709F" d="M64.238,571.465v33.242h33.223"/>
	<path id="path160" fill="none" stroke="#FFFFFF" stroke-width="3.9999" d="M64.238,571.465v33.242h33.223"/>
	<path id="path162" fill="#02709F" d="M17.91,627.695v33.223h33.232"/>
	<path id="path164" fill="none" stroke="#FFFFFF" stroke-width="3.9999" d="M17.91,627.695v33.223h33.232"/>
	<path id="path166" fill="#02709F" d="M64.238,627.695v33.223h33.223"/>
	<path id="path168" fill="none" stroke="#FFFFFF" stroke-width="3.9999" d="M64.238,627.695v33.223h33.223"/>
	<path id="path170" fill="#02709F" d="M220.703,123.745v33.228h33.232"/>
	<path id="path172" fill="none" stroke="#FFFFFF" stroke-width="3.9999" d="M220.703,123.745v33.228h33.232"/>
	<path id="path174" fill="#02709F" d="M267.031,123.745v33.228h33.223"/>
	<path id="path176" fill="none" stroke="#FFFFFF" stroke-width="3.9999" d="M267.031,123.745v33.228h33.223"/>
	<path id="path178" fill="#02709F" d="M127.5,124.614v33.228h33.232"/>
	<path id="path180" fill="none" stroke="#FFFFFF" stroke-width="3.9999" d="M127.5,124.614v33.228h33.232"/>
	<path id="path182" fill="#02709F" d="M173.857,124.614v33.228h33.223"/>
	<path id="path184" fill="none" stroke="#FFFFFF" stroke-width="3.9999" d="M173.857,124.614v33.228h33.223"/>
	<path id="path186" fill="#02709F" d="M220.322,192.876v33.213h33.223"/>
	<path id="path188" fill="none" stroke="#FFFFFF" stroke-width="3.9999" d="M220.322,192.876v33.213h33.223"/>
	<path id="path190" fill="#02709F" d="M266.66,192.876v33.213h33.232"/>
	<path id="path192" fill="none" stroke="#FFFFFF" stroke-width="3.9999" d="M266.66,192.876v33.213h33.232"/>
	<path id="path194" fill="#02709F" d="M127.139,193.75v33.223h33.223"/>
	<path id="path196" fill="none" stroke="#FFFFFF" stroke-width="3.9999" d="M127.139,193.75v33.223h33.223"/>
	<path id="path198" fill="#02709F" d="M173.486,193.75v33.223h33.223"/>
	<path id="path200" fill="none" stroke="#FFFFFF" stroke-width="3.9999" d="M173.486,193.75v33.223h33.223"/>
	<path id="path202" fill="#02709F" d="M220.322,259.067v33.223h33.223"/>
	<path id="path204" fill="none" stroke="#FFFFFF" stroke-width="3.9999" d="M220.322,259.067v33.223h33.223"/>
	<path id="path206" fill="#02709F" d="M266.66,259.067v33.223h33.232"/>
	<path id="path208" fill="none" stroke="#FFFFFF" stroke-width="3.9999" d="M266.66,259.067v33.223h33.232"/>
	<path id="path210" fill="#02709F" d="M127.139,259.951v33.218h33.223"/>
	<path id="path212" fill="none" stroke="#FFFFFF" stroke-width="3.9999" d="M127.139,259.951v33.218h33.223"/>
	<path id="path214" fill="#02709F" d="M173.486,259.951v33.218h33.223"/>
	<path id="path216" fill="none" stroke="#FFFFFF" stroke-width="3.9999" d="M173.486,259.951v33.218h33.223"/>
	<path id="path218" fill="#02709F" d="M220.322,320.264v33.223h33.223"/>
	<path id="path220" fill="none" stroke="#FFFFFF" stroke-width="3.9999" d="M220.322,320.264v33.223h33.223"/>
	<path id="path222" fill="#02709F" d="M266.66,320.264v33.223h33.232"/>
	<path id="path224" fill="none" stroke="#FFFFFF" stroke-width="3.9999" d="M266.66,320.264v33.223h33.232"/>
	<path id="path226" fill="#02709F" d="M127.139,321.143v33.218h33.223"/>
	<path id="path228" fill="none" stroke="#FFFFFF" stroke-width="3.9999" d="M127.139,321.143v33.218h33.223"/>
	<path id="path230" fill="#02709F" d="M173.486,321.143v33.218h33.223"/>
	<path id="path232" fill="none" stroke="#FFFFFF" stroke-width="3.9999" d="M173.486,321.143v33.218h33.223"/>
	<path id="path234" fill="#02709F" d="M346.641,405.938v33.203"/>
	<path id="path236" fill="none" stroke="#FFFFFF" stroke-width="3.9999" d="M346.641,405.938v33.203"/>
	<path id="path238" fill="#02709F" d="M346.641,439.141h33.232"/>
	<path id="path240" fill="none" stroke="#FFFFFF" stroke-width="3.9999" d="M346.641,439.141h33.232"/>
	<path id="path242" fill="#02709F" d="M392.969,405.938v33.203h33.223"/>
	<path id="path244" fill="none" stroke="#FFFFFF" stroke-width="3.9999" d="M392.969,405.938v33.203h33.223"/>
	<path id="path246" fill="#02709F" d="M346.641,462.988v33.203"/>
	<path id="path248" fill="none" stroke="#FFFFFF" stroke-width="3.9999" d="M346.641,462.988v33.203"/>
	<path id="path250" fill="#02709F" d="M346.641,496.191h33.232"/>
	<path id="path252" fill="none" stroke="#FFFFFF" stroke-width="3.9999" d="M346.641,496.191h33.232"/>
	<path id="path254" fill="#02709F" d="M392.969,462.988v33.203h33.223"/>
	<path id="path256" fill="none" stroke="#FFFFFF" stroke-width="3.9999" d="M392.969,462.988v33.203h33.223"/>
</g>
</svg>
