<?xml version="1.0" encoding="utf-8"?>
<!-- Generator: Adobe Illustrator 16.0.0, SVG Export Plug-In . SVG Version: 6.00 Build 0)  -->
<!DOCTYPE svg PUBLIC "-//W3C//DTD SVG 1.1//EN" "http://www.w3.org/Graphics/SVG/1.1/DTD/svg11.dtd">
<svg version="1.1"
	 id="svg2" xmlns:dc="http://purl.org/dc/elements/1.1/" xmlns:cc="http://creativecommons.org/ns#" xmlns:rdf="http://www.w3.org/1999/02/22-rdf-syntax-ns#" xmlns:svg="http://www.w3.org/2000/svg"
	 xmlns="http://www.w3.org/2000/svg" xmlns:xlink="http://www.w3.org/1999/xlink" x="0px" y="0px" width="80px" height="80px"
	 viewBox="0 0 80 80" enable-background="new 0 0 80 80" xml:space="preserve">
<g id="g12" transform="scale(0.1,0.1)">
	<g id="g14">
		<path id="path22" fill="#087FBF" d="M790.005,160.767c0,83.291-174.648,150.752-390.01,150.752S10,244.058,10,160.767v478.447
			c0,83.438,174.634,150.791,389.995,150.791s390.01-67.354,390.01-150.791V160.767"/>
		<path id="path24" fill="none" stroke="#FFFFFF" stroke-width="4" d="M790.005,160.767c0,83.291-174.648,150.752-390.01,150.752
			S10,244.058,10,160.767v478.447c0,83.438,174.634,150.791,389.995,150.791s390.01-67.354,390.01-150.791V160.767z"/>
		<path id="path26" fill="#087FBF" d="M399.995,311.519c215.361,0,390.01-67.461,390.01-150.752
			c0-83.335-174.648-150.762-390.01-150.762S10,77.432,10,160.767C10,244.058,184.634,311.519,399.995,311.519"/>
		<path id="path28" fill="none" stroke="#FFFFFF" stroke-width="4" d="M399.995,311.519c215.361,0,390.01-67.461,390.01-150.752
			c0-83.335-174.648-150.762-390.01-150.762S10,77.432,10,160.767C10,244.058,184.634,311.519,399.995,311.519z"/>
	</g>
	<g id="g66">
		<path id="path74" fill="#FFFFFF" d="M422.212,75.552l123.125-33.496l1.211,52.456l-30.703-5.781l-59.922,49.497l-57.383-8.325
			l62.012-48.398L422.212,75.552"/>
		<path id="path76" fill="#FFFFFF" d="M482.153,218.247l-21.777-49.492l109.727-21.787l-19.082,16.899l183.066,31.118
			l-43.848,34.961l-182.07-34.058L482.153,218.247"/>
		<path id="path78" fill="#FFFFFF" d="M369.438,263.442l-117.031,21.719l-4.473-53.857l33.691,7.246l64.434-54.629l57.07,9.59
			l-68.73,59.688L369.438,263.442"/>
		<path id="path80" fill="#FFFFFF" d="M310.864,101.777l32.324,48.018l-121.787,28.042l26.543-22.041L59.81,123.818l47.173-35.122
			l181.577,30.527L310.864,101.777"/>
		<path id="path88" fill="#FFFFFF" d="M249.556,731.177V630.034l-61.274,48.604L249.556,731.177"/>
		<path id="path90" fill="#FFFFFF" d="M544.888,341.948V443.1l61.25-48.623L544.888,341.948"/>
		<path id="path94" fill="#FFFFFF" d="M249.556,446.538V345.64l-61.274,48.369L249.556,446.538"/>
		<path id="path98" fill="none" stroke="#FFFFFF" stroke-width="14.25" d="M584.399,679.487H479.028l-142.676-286.25H227.363"/>
		<path id="path100" fill="none" stroke="#FFFFFF" stroke-width="14.25" d="M228.066,679.223h101.577L471.196,394.37h110.156"/>
		<path id="path104" fill="#FFFFFF" d="M544.888,627.719v101.133l61.25-48.623L544.888,627.719"/>
	</g>
</g>
</svg>
