<?xml version="1.0" encoding="utf-8"?>
<!-- Generator: Adobe Illustrator 16.0.0, SVG Export Plug-In . SVG Version: 6.00 Build 0)  -->
<!DOCTYPE svg PUBLIC "-//W3C//DTD SVG 1.1//EN" "http://www.w3.org/Graphics/SVG/1.1/DTD/svg11.dtd">
<svg version="1.1"
	 id="图层_1" xmlns:dc="http://purl.org/dc/elements/1.1/" xmlns:cc="http://creativecommons.org/ns#" xmlns:rdf="http://www.w3.org/1999/02/22-rdf-syntax-ns#"
	 xmlns="http://www.w3.org/2000/svg" xmlns:xlink="http://www.w3.org/1999/xlink" x="0px" y="0px" width="75px" height="75px"
	 viewBox="0 0 75 75" enable-background="new 0 0 75 75" xml:space="preserve">
<path fill="#00BCF2" d="M35.733,74.673c-0.755-0.284-1.95-1.444-17.892-17.389C4.158,43.598,0.693,40.057,0.425,39.483
	c-0.791-1.688-0.468-3.608,0.876-5.215c0.385-0.46,5.646-5.731,11.691-11.713L23.984,11.68l4.206,4.206l4.206,4.206l-0.19,0.898
	c-0.523,2.465,0.658,5.036,2.85,6.198l0.679,0.36v10.334v10.333l-0.648,0.305c-1.55,0.729-2.848,2.668-2.993,4.469
	c-0.229,2.849,1.497,5.259,4.293,5.993c1.235,0.326,1.402,0.329,2.517,0.047c3.484-0.883,5.277-4.307,4.017-7.676
	c-0.321-0.86-1.363-2.104-2.211-2.639l-0.561-0.354V38.211c0-5.582,0.05-10.149,0.11-10.149s1.856,1.747,3.99,3.88l3.878,3.88
	l-0.17,0.515c-0.244,0.737-0.223,2.318,0.043,3.232c0.485,1.668,2.054,3.221,3.77,3.73c0.566,0.168,1.17,0.221,2.009,0.178
	c2.687-0.139,4.657-1.924,5.221-4.729c0.32-1.597-0.404-3.701-1.694-4.917c-1.46-1.376-3.253-1.894-5.034-1.455l-1.011,0.25
	l-4.099-4.099l-4.098-4.099l0.188-1.119c0.58-3.461-1.756-6.512-5.132-6.698c-0.589-0.032-1.38,0.019-1.756,0.114l-0.686,0.172
	l-4.23-4.238l-4.231-4.239L30.93,4.64c4.298-4.378,4.616-4.601,6.568-4.601c2.195,0,0.808-1.244,19.796,17.768
	c13.548,13.565,16.998,17.096,17.281,17.685c0.511,1.058,0.566,2.514,0.14,3.677c-0.313,0.856-0.835,1.394-17.482,18.043
	C40.785,73.656,40.038,74.383,39.223,74.68c-1.097,0.399-2.409,0.397-3.489-0.011V74.673z"/>
</svg>
