<svg version="1.1" id="ilhwsa8q1" xmlns:xml="http://www.w3.org/XML/1998/namespace"
	 xmlns="http://www.w3.org/2000/svg" xmlns:xlink="http://www.w3.org/1999/xlink" x="0px" y="0px" width="75px" height="75px"
	 viewBox="0 0 75 75" enable-background="new 0 0 75 75" xml:space="preserve">
<g>
	<path fill="#3085AA" d="M37.5,0C58.206,0,75,16.791,75,37.5C75,58.206,58.206,75,37.5,75C16.791,75,0,58.206,0,37.5
		C0,16.791,16.791,0,37.5,0z"/>
	<path fill="#9CAE38" d="M69.706,54.162c-0.234,1.333-2.758,6.228-2.838,6.547C71.84,54.237,75,46.256,75,37.339
		c0-11.283-5.053-21.548-13.104-28.495c-0.402,0.234-1.269,0.234-2.456-0.239c-2.758-1.262-5.837-1.661-6.229-1.262
		c-0.475,0.549-0.475,2.369,2.051,2.923c2.527,0.554,1.904,3.156,3.715,2.606c1.731-0.402,2.214-1.741,2.214-1.741
		s3.382,2.446,0.544,2.839c-2.839,0.401-6.24,0.16-8.757-2.051c-2.294-2.208-5.848-3.234-8.453-2.842
		c-2.054,0.791-6.24,2.999-3.785,4.66c-0.563,0-1.268,0.16-1.738,0.393c-4.34,1.741-7.269,1.107-8.769,3.553
		c-1.5,2.446-3.784,6.16-2.603,7.897c1.264,1.735,3.003,5.603,3.156,6.707c0.161,1.107,0.946,2.449,4.348,1.107
		c3.23-1.338,6.149,3.393,5.043,5.608c-1.25,2.202-1.49,6.711-1.731,7.898c-0.241,1.256-4.736,1.256-4.66,4.649
		c0.161,3.401-1.338,6.789-0.946,8.765c0.393,1.742,2.446,3.796,6.552,2.206c4.105-1.651,5.615-2.839,7.347-3.784
		c1.65-0.946,3.704,0.704,4.347-0.785c0.705-1.51,1.101-4.739,3.383-5.053c2.295-0.241,4.509-2.838,6.723-2.838
		c2.199,0,5.436-1.671,3.543-2.617c-1.731-0.945-2.597-1.65-2.758-3.16c-0.161-1.328-0.241-6.703-0.241-6.703l0.241-3.16
		c0,0,1.731-2.607,2.053,0.791c0.24,3.396-0.71,9.717-0.241,9.943c0.481,0.236,5.838,1.665,5.838,0.156
		c0-1.49-2.437-5.053-2.28-6.383c0.146-1.347,1.254-2.767,2.28-1.267c1.268,1.489,0.563,4.106,0.946,5.052
		c0.241,0.946,1.509,1.893,0.95,3.945C70.652,48.39,69.947,52.737,69.706,54.162z M63.949,28.341
		c-0.705,0.946-2.838,2.607-4.106,0.554c-1.349-2.053-3.945-3.16-5.294-3.945c-1.337-0.714-2.438-1.661-2.597-3.241
		c-0.161-1.732-2.053-2.285-2.455-2.999c-0.24-0.393-2.214-2.446-4.65-3.787c3.237,0.234,3.704-1.658,5.214-0.4
		c1.73,1.349,2.838,5.454,6.228,4.901c3.394-0.554,3.955,0.151,3.233,1.258c-0.544,1.107,0.402,2.847,1.268,3.16
		C61.654,24.003,64.734,27.396,63.949,28.341z"/>
	<path fill="#9CAE38" d="M11.997,27.234c-1.339-1.339-0.946-5.133-1.651-7.498c-0.714-2.213-3.553-0.393-6.4,1.339
		c-0.155,0-0.155,0.161-0.155,0.161c-0.549,1.107-1.103,2.293-1.501,3.392c0,1.501,0.398,3.003,0.237,3.955
		c-0.237,1.65,2.214,1.025,2.214,1.025s-0.554,1.34-1.349,2.051c-0.554,0.396-1.731,1.1-3.154,1.895C0.161,34.894,0,36.236,0,37.661
		c0,1.892,0.161,3.704,0.393,5.596c0.714,1.269,1.347,2.214,1.896,2.456c1.501,1.268,2.451,5.213,2.603,5.998
		c0.161,0.705,2.768,7.105,3.713,9.704c0.161,0.239,0.393,0.4,0.554,0.723c0.161-0.723,0.235-2.214-0.714-4.106
		c-1.258-2.616,0.241-5.294,0.553-6.799c0.161-1.494,0.714-5.199,1.5-7.734c0.795-2.52,2.768-4.267,4.74-5.759
		c2.053-1.502,1.736-2.845,2.053-5.21C17.45,29.841,13.345,28.656,11.997,27.234z"/>
</g>
</svg>
