<?xml version="1.0" encoding="utf-8"?>
<!-- Generator: Adobe Illustrator 16.0.0, SVG Export Plug-In . SVG Version: 6.00 Build 0)  -->
<!DOCTYPE svg PUBLIC "-//W3C//DTD SVG 1.1//EN" "http://www.w3.org/Graphics/SVG/1.1/DTD/svg11.dtd">
<svg version="1.1"
	 id="svg2" xmlns:dc="http://purl.org/dc/elements/1.1/" xmlns:cc="http://creativecommons.org/ns#" xmlns:rdf="http://www.w3.org/1999/02/22-rdf-syntax-ns#" xmlns:svg="http://www.w3.org/2000/svg"
	 xmlns="http://www.w3.org/2000/svg" xmlns:xlink="http://www.w3.org/1999/xlink" x="0px" y="0px" width="77px" height="56px"
	 viewBox="0 0 77 56" enable-background="new 0 0 77 56" xml:space="preserve">
<g id="g12" transform="scale(0.1,0.1)">
	<path id="path22" fill="#02709F" d="M215.386,265.215h339.526v-51.782H215.386V265.215z"/>
	<path id="path24" fill="none" stroke="#FFFFFF" stroke-width="3.9999" d="M215.386,265.215h339.526v-51.782H215.386V265.215z"/>
	<path id="path26" fill="#02709F" d="M555.449,213.433c0-75.991-76.25-140.474-170.142-140.474
		c-93.965,0-170.161,64.482-170.161,140.474H555.449"/>
	<path id="path28" fill="none" stroke="#FFFFFF" stroke-width="3.9999" d="M555.449,213.433c0-75.991-76.25-140.474-170.142-140.474
		c-93.965,0-170.161,64.482-170.161,140.474H555.449z"/>
	<path id="path30" fill="#02709F" d="M387.158,0.005v79.756"/>
	<path id="path32" fill="none" stroke="#FFFFFF" stroke-width="3.9999" d="M387.158,0.005v79.756"/>
	<path id="path34" fill="#02709F" d="M454.375,48.677c-2.432,3.662-30.928,3.604-35.977,0c-6.816-5.005-25.977-5.005-30.996,1.221
		V10.835c5.02-6.167,24.18-6.167,30.996-1.23c5.049,3.618,33.545,3.735,35.977,0V48.677"/>
	<path id="path36" fill="none" stroke="#FFFFFF" stroke-width="3.9999" d="M454.375,48.677c-2.432,3.662-30.928,3.604-35.977,0
		c-6.816-5.005-25.977-5.005-30.996,1.221V10.835c5.02-6.167,24.18-6.167,30.996-1.23c5.049,3.618,33.545,3.735,35.977,0V48.677z"/>
	<path id="path38" fill="#02709F" d="M-0.005,560H770V265.215H-0.005V560z"/>
	<path id="path40" fill="none" stroke="#FFFFFF" stroke-width="3.9999" d="M-0.005,560H770V265.215H-0.005V560z"/>
	<path id="path42" fill="#02709F" d="M479.229,557.5l0.283-97.656c0-44.238-42.031-80.058-94.165-80.058
		c-52.129,0-94.336,35.742-94.336,79.98v97.578"/>
	<path id="path44" fill="none" stroke="#FFFFFF" stroke-width="3.9999" d="M479.229,557.5l0.283-97.656
		c0-44.238-42.031-80.058-94.165-80.058c-52.129,0-94.336,35.742-94.336,79.98v97.578"/>
	<path id="path46" fill="#02709F" d="M34.355,352.734h50.22v-46.875h-50.22V352.734z"/>
	<path id="path48" fill="none" stroke="#FFFFFF" stroke-width="3.9999" d="M34.355,352.734h50.22v-46.875h-50.22V352.734z"/>
	<path id="path50" fill="#02709F" d="M34.355,436.914h50.22V390.02h-50.22V436.914z"/>
	<path id="path52" fill="none" stroke="#FFFFFF" stroke-width="3.9999" d="M34.355,436.914h50.22V390.02h-50.22V436.914z"/>
	<path id="path54" fill="#02709F" d="M34.355,520.957h50.22v-46.758h-50.22V520.957z"/>
	<path id="path56" fill="none" stroke="#FFFFFF" stroke-width="3.9999" d="M34.355,520.957h50.22v-46.758h-50.22V520.957z"/>
	<path id="path58" fill="#02709F" d="M108.687,352.734h50.215v-46.875h-50.215V352.734z"/>
	<path id="path60" fill="none" stroke="#FFFFFF" stroke-width="3.9999" d="M108.687,352.734h50.215v-46.875h-50.215V352.734z"/>
	<path id="path62" fill="#02709F" d="M108.687,436.914h50.215V390.02h-50.215V436.914z"/>
	<path id="path64" fill="none" stroke="#FFFFFF" stroke-width="3.9999" d="M108.687,436.914h50.215V390.02h-50.215V436.914z"/>
	<path id="path66" fill="#02709F" d="M108.687,520.957h50.215v-46.758h-50.215V520.957z"/>
	<path id="path68" fill="none" stroke="#FFFFFF" stroke-width="3.9999" d="M108.687,520.957h50.215v-46.758h-50.215V520.957z"/>
	<path id="path70" fill="#02709F" d="M685.508,352.734h50.078v-46.875h-50.078V352.734z"/>
	<path id="path72" fill="none" stroke="#FFFFFF" stroke-width="3.9999" d="M685.508,352.734h50.078v-46.875h-50.078V352.734z"/>
	<path id="path74" fill="#02709F" d="M685.508,436.914h50.078V390.02h-50.078V436.914z"/>
	<path id="path76" fill="none" stroke="#FFFFFF" stroke-width="3.9999" d="M685.508,436.914h50.078V390.02h-50.078V436.914z"/>
	<path id="path78" fill="#02709F" d="M685.508,520.957h50.078v-46.758h-50.078V520.957z"/>
	<path id="path80" fill="none" stroke="#FFFFFF" stroke-width="3.9999" d="M685.508,520.957h50.078v-46.758h-50.078V520.957z"/>
	<path id="path82" fill="#02709F" d="M611.162,352.734h50.107v-46.875h-50.107V352.734z"/>
	<path id="path84" fill="none" stroke="#FFFFFF" stroke-width="3.9999" d="M611.162,352.734h50.107v-46.875h-50.107V352.734z"/>
	<path id="path86" fill="#02709F" d="M611.162,436.914h50.107V390.02h-50.107V436.914z"/>
	<path id="path88" fill="none" stroke="#FFFFFF" stroke-width="3.9999" d="M611.162,436.914h50.107V390.02h-50.107V436.914z"/>
	<path id="path90" fill="#02709F" d="M611.162,520.957h50.107v-46.758h-50.107V520.957z"/>
	<path id="path92" fill="none" stroke="#FFFFFF" stroke-width="3.9999" d="M611.162,520.957h50.107v-46.758h-50.107V520.957z"/>
	<path id="path94" fill="#02709F" d="M568.164,359.98l-181.04-59.199L206.079,359.98H568.164"/>
	<path id="path96" fill="none" stroke="#FFFFFF" stroke-width="3.9999" d="M568.164,359.98l-181.04-59.199L206.079,359.98H568.164z"
		/>
	<path id="path98" fill="#02709F" d="M188.066,237.539h397.676v-24.106H188.066V237.539z"/>
	<path id="path100" fill="none" stroke="#FFFFFF" stroke-width="3.9999" d="M188.066,237.539h397.676v-24.106H188.066V237.539z"/>
	<path id="path102" fill="#02709F" d="M229.067,559.648h30.43V359.922h-30.43V559.648z"/>
	<path id="path104" fill="none" stroke="#FFFFFF" stroke-width="3.9999" d="M229.067,559.648h30.43V359.922h-30.43V559.648z"/>
	<path id="path106" fill="#02709F" d="M514.316,559.648h30.381V359.922h-30.381V559.648z"/>
	<path id="path108" fill="none" stroke="#FFFFFF" stroke-width="3.9999" d="M514.316,559.648h30.381V359.922h-30.381V559.648z"/>
</g>
</svg>
