<?xml version="1.0" encoding="utf-8"?>
<!-- Generator: Adobe Illustrator 16.0.0, SVG Export Plug-In . SVG Version: 6.00 Build 0)  -->
<!DOCTYPE svg PUBLIC "-//W3C//DTD SVG 1.1//EN" "http://www.w3.org/Graphics/SVG/1.1/DTD/svg11.dtd">
<svg version="1.1"
	 id="svg2" xmlns:dc="http://purl.org/dc/elements/1.1/" xmlns:cc="http://creativecommons.org/ns#" xmlns:rdf="http://www.w3.org/1999/02/22-rdf-syntax-ns#" xmlns:svg="http://www.w3.org/2000/svg"
	 xmlns="http://www.w3.org/2000/svg" xmlns:xlink="http://www.w3.org/1999/xlink" x="0px" y="0px" width="66px" height="80px"
	 viewBox="0 0 66 80" enable-background="new 0 0 66 80" xml:space="preserve">
<g id="g12" transform="scale(0.1,0.1)">
	<path id="path22" fill="#2B669E" d="M290.344,345.068h93.657v121.899c0,0-95.303,29.59-93.657,29.59
		C292,496.557,290.344,345.068,290.344,345.068"/>
	<path id="path24" fill="#FFFFFF" d="M330.427,250.146c173.75,0,314.57-26.709,314.57-59.648c0-32.954-140.82-59.663-314.57-59.663
		s-314.6,26.709-314.6,59.663C15.828,223.438,156.677,250.146,330.427,250.146"/>
	<path id="path26" fill="none" stroke="#231F20" stroke-width="1.5" d="M330.427,250.146c173.75,0,314.57-26.709,314.57-59.648
		c0-32.954-140.82-59.663-314.57-59.663s-314.6,26.709-314.6,59.663C15.828,223.438,156.677,250.146,330.427,250.146z"/>
	<path id="path28" fill="#2B669E" d="M332.117,354.79c173.721,0,312.881-131.353,312.881-164.292
		c0-32.954-140.82-59.663-314.57-59.663s-314.6,26.709-314.6,59.663C15.828,223.438,158.381,354.79,332.117,354.79"/>
	<path id="path30" fill="#FFFFFF" d="M330.427,250.146c173.75,0,314.57-26.709,314.57-59.648c0-32.954-140.82-59.663-314.57-59.663
		s-314.6,26.709-314.6,59.663C15.828,223.438,156.677,250.146,330.427,250.146"/>
	<path id="path32" fill="none" stroke="#2B669E" stroke-width="4" d="M330.427,250.146c173.75,0,314.57-26.709,314.57-59.648
		c0-32.954-140.82-59.663-314.57-59.663s-314.6,26.709-314.6,59.663C15.828,223.438,156.677,250.146,330.427,250.146z"/>
	<path id="path34" fill="none" stroke="#2B669E" stroke-width="3.75" d="M248.635,145.84c-49.639,3.022-93.677,8.794-128.086,16.523
		"/>
	<path id="path36" fill="none" stroke="#2B669E" stroke-width="3.75" d="M251.975,158.296c-48.149,3.54-90.303,9.98-122.158,18.384"
		/>
	<path id="path38" fill="none" stroke="#2B669E" stroke-width="3.75" d="M255.398,171.694
		c-47.119,4.087-87.72,11.304-117.056,20.557"/>
	<path id="path40" fill="none" stroke="#2B669E" stroke-width="3.75" d="M262.175,187.285
		c-46.021,4.458-85.22,12.251-112.524,22.163"/>
	<path id="path42" fill="none" stroke="#2B669E" stroke-width="3.75" d="M265.491,201.821
		c-43.662,5.034-80.171,13.481-104.482,24.004"/>
	<path id="path44" fill="none" stroke="#2B669E" stroke-width="3.75" d="M271.418,219.019
		c-34.619,4.717-64.023,11.865-85.161,20.605"/>
	<path id="path46" fill="none" stroke="#2B669E" stroke-width="3.75" d="M273.425,235.005c-13.97,2.539-26.807,5.537-38.276,8.926"
		/>
	<path id="path48" fill="none" stroke="#2B669E" stroke-width="4" d="M14.998,196.177L332.117,36.929l312.881,153.569"/>
	<path id="path50" fill="#2B669E" d="M333.796,77.197c11.865,0,21.475-4.79,21.475-10.728s-9.609-10.747-21.475-10.747
		c-11.836,0-21.445,4.81-21.445,10.747S321.96,77.197,333.796,77.197"/>
	<path id="path52" fill="#2B669E" d="M333.796,15l-6.738,221.055h15.146L333.796,15"/>
	<path id="path54" fill="#2B669E" d="M253.064,429.292h151.699v-60.273H253.064V429.292z"/>
	<path id="path56" fill="#FFFFFF" d="M276.36,408.413h46.675v-13.545H276.36V408.413z"/>
	<path id="path58" fill="#FFFFFF" d="M337.771,408.413h46.719v-13.545h-46.719V408.413z"/>
	<path id="path60" fill="#2B669E" d="M578.367,547.046c0,53.281-111.025,96.523-247.988,96.523
		c-136.953,0-247.954-43.242-247.954-96.523v141.426c0,53.32,111.001,96.523,247.954,96.523
		c136.963,0,247.988-43.203,247.988-96.523V547.046"/>
	<path id="path62" fill="none" stroke="#FFFFFF" stroke-width="4" d="M578.367,547.046c0,53.281-111.025,96.523-247.988,96.523
		c-136.953,0-247.954-43.242-247.954-96.523v141.426c0,53.32,111.001,96.523,247.954,96.523
		c136.963,0,247.988-43.203,247.988-96.523V547.046z"/>
	<path id="path64" fill="#2B669E" d="M330.378,643.569c136.963,0,247.988-43.242,247.988-96.523
		c0-53.359-111.025-96.582-247.988-96.582c-136.953,0-247.954,43.222-247.954,96.582
		C82.424,600.327,193.425,643.569,330.378,643.569"/>
	<path id="path66" fill="none" stroke="#FFFFFF" stroke-width="4" d="M330.378,643.569c136.963,0,247.988-43.242,247.988-96.523
		c0-53.359-111.025-96.582-247.988-96.582c-136.953,0-247.954,43.222-247.954,96.582
		C82.424,600.327,193.425,643.569,330.378,643.569z"/>
	<path id="path68" fill="#FFFFFF" d="M273.748,509.253l20.479,30.762l-77.412,17.93l16.924-14.121L114.08,523.354l30.02-22.539
		l115.435,19.57L273.748,509.253"/>
	<path id="path70" fill="#FFFFFF" d="M382.673,583.823l-13.936-31.699l69.824-13.945l-12.148,10.84L542.8,568.96l-27.91,22.324
		l-115.684-21.758L382.673,583.823"/>
	<path id="path72" fill="#FFFFFF" d="M344.49,492.475l78.223-21.465l0.938,33.594l-19.541-3.75l-38.174,31.699l-36.436-5.313
		l39.414-30.996L344.49,492.475"/>
	<path id="path74" fill="#FFFFFF" d="M310.974,612.749l-74.468,14.004l-2.778-34.492l21.401,4.648l41.001-35.078l36.26,6.133
		l-43.74,38.223L310.974,612.749"/>
</g>
</svg>
