<?xml version="1.0" encoding="utf-8"?>
<!-- Generator: Adobe Illustrator 16.0.0, SVG Export Plug-In . SVG Version: 6.00 Build 0)  -->
<!DOCTYPE svg PUBLIC "-//W3C//DTD SVG 1.1//EN" "http://www.w3.org/Graphics/SVG/1.1/DTD/svg11.dtd">
<svg version="1.1"
	 id="svg2" xmlns:dc="http://purl.org/dc/elements/1.1/" xmlns:cc="http://creativecommons.org/ns#" xmlns:rdf="http://www.w3.org/1999/02/22-rdf-syntax-ns#" xmlns:svg="http://www.w3.org/2000/svg"
	 xmlns="http://www.w3.org/2000/svg" xmlns:xlink="http://www.w3.org/1999/xlink" x="0px" y="0px" width="78px" height="50px"
	 viewBox="0 0 78 50" enable-background="new 0 0 78 50" xml:space="preserve">
<g id="g12" transform="scale(0.1,0.1)">
	<path id="path14" fill="#087BBB" d="M113.093,485.002h551.65V101.624h-551.65V485.002z"/>
	<path id="path16" fill="none" stroke="#FFFFFF" stroke-width="4" d="M113.093,485.002h551.65V101.624h-551.65V485.002z"/>
	<path id="path18" fill="#087BBB" d="M664.744,101.624l105.254-86.621H255.354l-142.261,86.621H664.744"/>
	<path id="path20" fill="none" stroke="#FFFFFF" stroke-width="4" d="M664.744,101.624l105.254-86.621H255.354l-142.261,86.621
		H664.744z"/>
	<path id="path22" fill="#087BBB" d="M769.998,398.371V15.002l-105.254,86.621v383.379L769.998,398.371"/>
	<path id="path24" fill="none" stroke="#FFFFFF" stroke-width="4" d="M769.998,398.371V15.002l-105.254,86.621v383.379
		L769.998,398.371z"/>
	<path id="path26" fill="none" stroke="#FFFFFF" stroke-width="8" stroke-dasharray="20,20" d="M642.087,220.618H119.866"/>
	<path id="path28" fill="#FFFFFF" d="M655.798,220.618l-79.443,32.373l19.014-32.373l-19.014-32.5L655.798,220.618"/>
	<path id="path30" fill="none" stroke="#D9D9D9" stroke-width="8" stroke-linejoin="round" stroke-dasharray="20,20" d="
		M475.906,408.615l73.438-55.762l-430.586-2.617"/>
	<path id="path32" fill="#D9D9D9" d="M427.087,449.377l40.01-76.025l6.27,36.982l35.41,12.695L427.087,449.377"/>
	<path id="path34" fill="none" stroke="#FFFFFF" stroke-width="5" d="M589.578,387.199V141.819l-67.412,55.459v245.39
		L589.578,387.199z"/>
	<path id="path36" fill="none" stroke="#FFFFFF" stroke-width="5" d="M235.574,387.199V141.819l-67.383,55.459v245.39
		L235.574,387.199z"/>
	<path id="path38" fill="none" stroke="#FFFFFF" stroke-width="5" d="M412.449,387.199V141.819l-67.266,55.459v245.39
		L412.449,387.199z"/>
	<path id="path40" fill="none" stroke="#000000" stroke-width="8" stroke-dasharray="20,20" d="M113.899,221.057H9.998"/>
	<path id="path42" fill="none" stroke="#D9D9D9" stroke-width="8" stroke-dasharray="20,20" d="M113.899,352.219H9.998"/>
	<path id="path44" fill="none" stroke="#8C8C8C" stroke-width="8" stroke-dasharray="20,20" d="M113.899,353.078H9.998"/>
</g>
</svg>
