<?xml version="1.0" encoding="utf-8"?>
<!-- Generator: Adobe Illustrator 16.0.0, SVG Export Plug-In . SVG Version: 6.00 Build 0)  -->
<!DOCTYPE svg PUBLIC "-//W3C//DTD SVG 1.1//EN" "http://www.w3.org/Graphics/SVG/1.1/DTD/svg11.dtd">
<svg version="1.1"
	 id="svg2" xmlns:dc="http://purl.org/dc/elements/1.1/" xmlns:cc="http://creativecommons.org/ns#" xmlns:rdf="http://www.w3.org/1999/02/22-rdf-syntax-ns#" xmlns:svg="http://www.w3.org/2000/svg"
	 xmlns="http://www.w3.org/2000/svg" xmlns:xlink="http://www.w3.org/1999/xlink" x="0px" y="0px" width="75px" height="74px"
	 viewBox="0 0 75 74" enable-background="new 0 0 75 74" xml:space="preserve">
<g id="g12" transform="scale(0.1,0.1)">
	<path id="path22" fill="#02709F" d="M5.127,630.781h744.878"/>
	<path id="path24" fill="none" stroke="#FFFFFF" stroke-width="3.9999" d="M5.127,630.781h744.878"/>
	<path id="path26" fill="#02709F" d="M641.567,740l108.438-109.219"/>
	<path id="path28" fill="none" stroke="#FFFFFF" stroke-width="3.9999" d="M641.567,740l108.438-109.219"/>
	<path id="path30" fill="#02709F" d="M0,737.695h640.786V254.59H0V737.695z"/>
	<path id="path32" fill="none" stroke="#FFFFFF" stroke-width="3.9999" d="M0,737.695h640.786V254.59H0V737.695z"/>
	<path id="path34" fill="#02709F" d="M640.786,737.695l109.219-109.209v-483.33H109.204L0,254.59h640.786V737.695"/>
	<path id="path36" fill="none" stroke="#FFFFFF" stroke-width="3.9999" d="M640.786,737.695l109.219-109.209v-483.33H109.204
		L0,254.59h640.786V737.695z"/>
	<path id="path38" fill="#02709F" d="M56.001,681.494h528.574V310.595H56.001V681.494z"/>
	<path id="path40" fill="none" stroke="#FFFFFF" stroke-width="3.9999" d="M56.001,681.494h528.574V310.595H56.001V681.494z"/>
	<path id="path42" fill="#02709F" d="M640.786,254.59l109.219-109.434"/>
	<path id="path44" fill="none" stroke="#FFFFFF" stroke-width="3.9999" d="M640.786,254.59l109.219-109.434"/>
	<path id="path46" fill="#02709F" d="M244.634,244.395H415.22V90.156H244.634V244.395z"/>
	<path id="path48" fill="none" stroke="#FFFFFF" stroke-width="3.9999" d="M244.634,244.395H415.22V90.156H244.634V244.395z"/>
	<path id="path50" fill="#02709F" d="M415.22,244.395l93.867-90.146V0H338.716l-94.082,90.156H415.22V244.395"/>
	<path id="path52" fill="none" stroke="#FFFFFF" stroke-width="3.9999" d="M415.22,244.395l93.867-90.146V0H338.716l-94.082,90.156
		H415.22V244.395z"/>
	<path id="path54" fill="#02709F" d="M415.22,90.156L509.087,0"/>
	<path id="path56" fill="none" stroke="#FFFFFF" stroke-width="3.9999" d="M415.22,90.156L509.087,0"/>
</g>
</svg>
