<?xml version="1.0" encoding="utf-8"?>
<!-- Generator: Adobe Illustrator 16.0.0, SVG Export Plug-In . SVG Version: 6.00 Build 0)  -->
<!DOCTYPE svg PUBLIC "-//W3C//DTD SVG 1.1//EN" "http://www.w3.org/Graphics/SVG/1.1/DTD/svg11.dtd">
<svg version="1.1"
	 id="svg2" xmlns:dc="http://purl.org/dc/elements/1.1/" xmlns:cc="http://creativecommons.org/ns#" xmlns:rdf="http://www.w3.org/1999/02/22-rdf-syntax-ns#" xmlns:svg="http://www.w3.org/2000/svg"
	 xmlns="http://www.w3.org/2000/svg" xmlns:xlink="http://www.w3.org/1999/xlink" x="0px" y="0px" width="75px" height="41px"
	 viewBox="0 0 75 41" enable-background="new 0 0 75 41" xml:space="preserve">
<g id="g12" transform="scale(0.1,0.1)">
	<path id="path22" fill="#02709F" d="M749.998,376.924V0l-37.92,33.237V410L749.998,376.924"/>
	<path id="path24" fill="none" stroke="#FFFFFF" stroke-width="3.9999" d="M749.998,376.924V0l-37.92,33.237V410L749.998,376.924z"
		/>
	<path id="path26" fill="#02709F" d="M-0.002,409.345h711.279V33.96H-0.002V409.345z"/>
	<path id="path28" fill="none" stroke="#FFFFFF" stroke-width="3.9999" d="M-0.002,409.345h711.279V33.96H-0.002V409.345z"/>
	<path id="path30" fill="#02709F" d="M43.254,116.313C43.254,78.618,82.4,72.92,82.4,72.92s408.994,0,445.098,0
		c47.529,0,46.113,44.668,46.113,44.668s0,184.189,0,210.996c0,26.445-36.113,37.51-36.113,37.51s-415.972,0-449.551,0
		c-33.452,0-44.692-35.01-44.692-35.01V116.313"/>
	<path id="path32" fill="none" stroke="#FFFFFF" stroke-width="3.9999" d="M43.254,116.313C43.254,78.618,82.4,72.92,82.4,72.92
		s408.994,0,445.098,0c47.529,0,46.113,44.668,46.113,44.668s0,184.189,0,210.996c0,26.445-36.113,37.51-36.113,37.51
		s-415.972,0-449.551,0c-33.452,0-44.692-35.01-44.692-35.01V116.313z"/>
	<path id="path34" fill="#02709F" d="M749.998,0.078H38.552L-0.002,33.96h711.279L749.998,0.078"/>
	<path id="path36" fill="none" stroke="#FFFFFF" stroke-width="3.9999" d="M749.998,0.078H38.552L-0.002,33.96h711.279
		L749.998,0.078z"/>
	<path id="path38" fill="#02709F" d="M661.218,111.279c0,5.918-8.809,10.723-19.736,10.723c-10.908,0-19.707-4.805-19.707-10.723
		s8.799-10.894,19.707-10.894C652.41,100.386,661.218,105.361,661.218,111.279"/>
	<path id="path40" fill="none" stroke="#FFFFFF" stroke-width="3.9999" d="M661.218,111.279c0,5.918-8.809,10.723-19.736,10.723
		c-10.908,0-19.707-4.805-19.707-10.723s8.799-10.894,19.707-10.894C652.41,100.386,661.218,105.361,661.218,111.279z"/>
	<path id="path42" fill="#02709F" d="M661.218,189.971c0,5.928-8.809,10.908-19.736,10.908c-10.908,0-19.707-4.98-19.707-10.908
		s8.799-10.908,19.707-10.908C652.41,179.063,661.218,184.043,661.218,189.971"/>
	<path id="path44" fill="none" stroke="#FFFFFF" stroke-width="3.9999" d="M661.218,189.971c0,5.928-8.809,10.908-19.736,10.908
		c-10.908,0-19.707-4.98-19.707-10.908s8.799-10.908,19.707-10.908C652.41,179.063,661.218,184.043,661.218,189.971z"/>
	<path id="path46" fill="#02709F" d="M661.218,268.672c0,5.908-8.809,10.879-19.736,10.879c-10.908,0-19.707-4.971-19.707-10.879
		c0-5.928,8.799-10.898,19.707-10.898C652.41,257.773,661.218,262.744,661.218,268.672"/>
	<path id="path48" fill="none" stroke="#FFFFFF" stroke-width="3.9999" d="M661.218,268.672c0,5.908-8.809,10.879-19.736,10.879
		c-10.908,0-19.707-4.971-19.707-10.879c0-5.928,8.799-10.898,19.707-10.898C652.41,257.773,661.218,262.744,661.218,268.672z"/>
	<path id="path50" fill="#02709F" d="M661.218,347.177c0,6.279-8.809,10.908-19.736,10.908c-10.908,0-19.707-4.629-19.707-10.908
		c0-5.918,8.799-10.557,19.707-10.557C652.41,336.621,661.218,341.26,661.218,347.177"/>
	<path id="path52" fill="none" stroke="#FFFFFF" stroke-width="3.9999" d="M661.218,347.177c0,6.279-8.809,10.908-19.736,10.908
		c-10.908,0-19.707-4.629-19.707-10.908c0-5.918,8.799-10.557,19.707-10.557C652.41,336.621,661.218,341.26,661.218,347.177z"/>
</g>
</svg>
