<?xml version="1.0" encoding="utf-8"?>
<!-- Generator: Adobe Illustrator 16.0.0, SVG Export Plug-In . SVG Version: 6.00 Build 0)  -->
<!DOCTYPE svg PUBLIC "-//W3C//DTD SVG 1.1//EN" "http://www.w3.org/Graphics/SVG/1.1/DTD/svg11.dtd">
<svg version="1.1" id="图层_1" xmlns="http://www.w3.org/2000/svg" xmlns:xlink="http://www.w3.org/1999/xlink" x="0px" y="0px"
	 width="421.549px" height="425.2px" viewBox="0 0 421.549 425.2" enable-background="new 0 0 421.549 425.2" xml:space="preserve">
<g>
	<path fill="#33CCFF" d="M229.18,297.558l29.315-0.249l-0.333-18.687h8.306v10.464l3.653-0.249l0.498-25.578l-5.064-5.314
		l-0.084-16.278l-14.45,0.083l-1.993-23.502c-0.166-1.162-5.896-30.893-38.201-30.727c-26.991,0.166-33.883,17.274-35.959,22.423
		c-0.498,1.245-1.661,7.225-1.661,8.304l-1.827,22.755h-2.076l-13.038-0.083l-0.083,16.194l-5.066,5.314l0.498,25.579l3.654,0.249
		v-10.464h8.305l-0.332,18.686l29.232,0.166l-0.249-18.686l7.89,0.664l-0.333-38.45l-14.616,0.249l1.993-19.35
		c0-0.582,0.332-4.734,3.156-8.886c2.741-4.069,8.471-9.052,20.014-9.883h0.083h0.083c7.476,0.249,13.786,1.993,18.853,6.561
		c4.568,3.986,7.142,9.883,7.142,16.028l0.166,16.359l-14.45-0.249l-0.332,38.451l7.89-0.665L229.18,297.558z"/>
	<path fill="#33CCFF" d="M211.324,163.188c21.426,0,40.942,12.208,50.16,31.226l13.288-8.388
		c-12.208-23.752-36.458-38.451-63.448-38.451c-27.073,0-51.323,14.699-63.614,38.617l13.205,8.637
		C170.133,175.479,189.732,163.188,211.324,163.188"/>
	<path fill="#33CCFF" d="M164.735,140.1c14.035-8.886,30.395-13.537,47.088-13.537c33.052,0,62.783,17.938,77.981,46.839
		l13.452-8.471c-18.27-33.468-53.149-54.23-91.434-54.23c-38.368,0-73.331,20.762-91.435,54.23l13.288,8.72
		C140.901,160.031,151.614,148.488,164.735,140.1"/>
	<path fill="#33CCFF" d="M287.396,94.341c-5.314-3.405-10.963-6.478-16.775-9.135c-18.52-8.554-38.284-12.872-58.797-12.872
		c-20.514,0-40.361,4.401-58.797,12.872c-5.813,2.657-11.461,5.73-16.776,9.135C95.557,120.252,71.308,164.6,71.308,212.767
		c0,77.482,63.032,140.432,140.433,140.432c77.482,0,140.432-63.031,140.432-140.432
		C352.255,164.517,328.089,120.252,287.396,94.341 M211.823,337.088c-68.598,0-124.321-55.808-124.321-124.321
		c0-40.61,19.848-78.729,53.15-101.982c5.066-3.488,10.381-6.644,15.862-9.384c17.274-8.637,35.959-13.038,55.393-13.038
		c19.433,0,38.034,4.484,55.309,13.038c5.48,2.74,10.796,5.896,15.862,9.384c33.302,23.253,53.149,61.372,53.149,101.982
		C336.227,281.363,280.42,337.088,211.823,337.088"/>
	<path fill="#33CCFF" d="M412.63,84.542c-8.969-51.904-21.426-64.195-74.077-73.414C305.085,5.232,257.831,1.91,208.916,1.91
		c-48.499,0-93.261,3.156-126.231,8.886C30.781,19.848,18.49,32.305,9.271,84.874C-2.937,154.467-3.103,271.646,8.855,340.658
		c8.97,51.905,21.427,64.196,74.078,73.414c33.551,5.896,80.888,9.218,129.886,9.218c48.333,0,93.096-3.156,125.982-8.803
		c51.904-9.052,64.278-21.509,73.413-74.078C424.506,270.816,424.672,153.637,412.63,84.542 M399.509,338.167
		c-8.222,47.171-16.443,55.476-62.866,63.531c-32.14,5.563-76.071,8.637-123.74,8.637c-48.25,0-94.84-3.322-127.643-9.052
		c-47.171-8.222-55.476-16.527-63.531-62.867C9.936,270.567,10.185,155.464,22.144,87.033c8.222-47.087,16.443-55.475,62.866-63.531
		c32.223-5.564,76.237-8.72,123.989-8.72c48.168,0,94.591,3.322,127.394,9.053c47.088,8.221,55.477,16.443,63.531,62.866
		C411.634,154.633,411.551,269.736,399.509,338.167"/>
</g>
</svg>
