<?xml version="1.0" encoding="utf-8"?>
<!-- Generator: Adobe Illustrator 16.0.0, SVG Export Plug-In . SVG Version: 6.00 Build 0)  -->
<!DOCTYPE svg PUBLIC "-//W3C//DTD SVG 1.1//EN" "http://www.w3.org/Graphics/SVG/1.1/DTD/svg11.dtd">
<svg version="1.1"
	 id="图层_1" xmlns:dc="http://purl.org/dc/elements/1.1/" xmlns:cc="http://creativecommons.org/ns#" xmlns:rdf="http://www.w3.org/1999/02/22-rdf-syntax-ns#"
	 xmlns="http://www.w3.org/2000/svg" xmlns:xlink="http://www.w3.org/1999/xlink" x="0px" y="0px" width="76px" height="58px"
	 viewBox="0 0 76 58" enable-background="new 0 0 76 58" xml:space="preserve">
<path fill="#00BCF2" d="M47.381,0c-0.187-0.001-0.372,0.006-0.562,0.014c-2.361,0.104-4.916,0.907-7.946,2.226
	c-2.813,1.225-3.81,2.461-5.542,4.677c0.019,0,0.038,0,0.056,0c1.76-0.043,3.508-0.1,5.317-0.268c-1.87,0.436-3.667,0.778-5.5,1.058
	c-2.028,0.308-2.647,0.257-4.178,1.748c-2.816,2.743-5.174,5.85-7.749,8.636c-1.49,1.612-2.232,3.22-3.107,5.059
	c-0.87,1.828-0.743,2.518,0.423,4.099c1.191,1.618,1.901,2.352,2.405,3.789c1.316-2.033,2.911-3.724,4.584-5.748
	c-1.367,2.192-2.613,4.266-3.741,6.495c-0.703,1.387-1.047,2.09-1.026,3.621c1.32,1.524,2.149,2.34,3.375,2.675
	c1.321,0.362,2.563,0.311,3.755-0.31c2.969-1.54,5.792-3.552,9.085-3.803c1.699-3.038,1.217-6.858,0.604-10.313
	c-0.506-2.867-0.374-5.405,0.31-8.284c0.172,2.795,0.391,5.4,0.942,8.142c0.809,4.015,0.982,7.475-0.703,11.624
	c-3.642,0.088-6.63,2.234-9.858,3.888c-1.453,0.743-2.805,0.811-4.43,0.423c-1.657-0.396-2.934-1.669-4.641-3.536
	c0.169-1.417,0.355-2.303,0.857-3.341c-0.608-1.833-1.363-2.675-2.757-4.549c-1.617-2.175-1.643-3.117-0.422-5.593
	c0.884-1.793,1.718-3.446,3.108-5.086c1.374-1.619,2.623-3.123,3.896-4.55c-5.296,0.808-8.673,2.074-12.291,5.254
	c-2.682,2.36-4.36,5.295-5.555,8.679c-0.754,2.135-0.961,4.284-0.605,7.777c0.458,4.497,2.848,9.566,5.414,13.271
	c-0.313,2.304-0.723,4.044-1.364,5.689c-0.728,1.871,2.171,2.434,3.571,2.817c1.138,0.313,5.438,1.501,5.865-0.027
	c0.256-0.921,0.26-1.553,0.196-2.521c0.771-1.536,1.012-1.756,1.562-2.663c0.587-0.972,0.629-1.353,0.633-2.495
	c0.005-1.472-0.032-4.105,0.027-5.058c0.2,0.853,0.438,2.034,0.633,3.171c3.068,0.548,6.118,0.517,9.184-0.112
	c0.04-0.214,0.102-0.458,0.184-0.747c0.206-0.718,0.61-1.437,0.816-2.156c-0.056,0.709-0.099,1.423-0.154,2.128
	c-0.058,0.732-0.062,1.319,0.028,2.045c0.05,0.401,0.091,0.796,0.141,1.198c-0.225-0.367-0.572-0.719-0.774-1.086
	c-1.366,0.898-2.105,1.404-3.445,2.114c-1.417,0.751,0.202,3.449,0.787,4.381c1.286,2.047,2.829,4.464,5.217,3.198
	c0.784-0.416,1.238-1.377,1.758-2.071c0.7-0.415,4.428-3.545,5.021-3.889c0.833-0.481,3.839-5.419,4.22-6.65
	c0.843-2.723,1.817-4.791,2.097-7.634c-1.916-0.804-2.849-1.71-4.222-3.325c1.93,1.432,3.604,2.203,5.684,2.86
	c0.756,0.671,1.525,1.348,2.319,2.055c1.153,1.027,2.213,2.069,3.881,2.1c1.807,0.031,3.85-1.355,4.374-3.071
	c0.202-0.66,0.403-1.311,0.604-1.97c-0.357-0.088-0.701-0.192-1.04-0.297c-0.376,0.904-0.357,1.253-0.533,1.917
	c-0.306,1.134-1.854,1.929-3.488,1.534c-0.58-0.14-0.932-0.229-1.139-0.38c0.167,0.448,0.485,0.833,1.083,0.945
	c0.657,0.122,1.15,0.175,2.109-0.044c-1.184,0.613-1.567,0.638-2.405,0.452c-2.206-0.49-1.438-3.151-0.957-4.775
	c0.305-1.025,0.2-2.115-0.027-3.143c0.837,0.527,1.497,1.003,2.448,1.324c4.454,1.503,9.749,3.027,14.232,0.522
	c3.516-1.968,5.432-6.32,5.863-10.313c0.386-3.56-0.273-9.121-1.73-12.651c-0.334-0.813-1.676-2.03-2.53-1.199
	c-0.86,0.84-1.507,2.02-2.448,2.761c-1.276,1.009-3.479,0.663-3.077,2.803c0.289,1.561,0.374,3.295,0.041,4.748
	c-0.319,1.396-0.65,3.375-1.378,4.311c0.217-0.791,0.575-2.847,0.676-4.239c0.056-0.764-0.027-1.693-0.169-2.622
	c-0.162,0.004-0.332,0.011-0.492,0.016c-0.588,0.013-1.542,0.854-1.799,1.38c-0.718,1.465-0.76,2.82-1.562,4.213
	c0.646-1.558,0.28-2.955,0.87-4.622c0.21-0.592,0.727-1.102,1.335-1.409c-0.337-0.052-0.664,0.092-1.166,0.211
	c-2.146,0.508-2.057,2.204-3.375,3.818c1.269-2.337,0.617-3.892,3.375-4.522c0.908-0.208,1.584-0.279,2.18,0.198
	c0.015-0.001,0.017-0.014,0.028-0.014c0.155-0.012,0.309-0.016,0.464-0.028c-0.077-0.428-0.155-0.855-0.238-1.253
	c-1.26-0.167-2.424-0.126-3.714,0.07c0.278-0.122,0.552-0.241,0.816-0.338c-0.081-0.082-0.158-0.187-0.209-0.31
	c-0.002-0.001,0-0.014,0-0.014c-0.167-0.321-0.25-0.686-0.212-1.07c0.026-0.291,0.129-0.553,0.267-0.79
	c-0.042,0.01-0.085,0.012-0.126,0.028c-0.309,0.122-0.956,0.087-1.252-0.015c0.58-0.093,1.439-0.404,1.998-0.676
	c0.015-0.008,0.027-0.008,0.043-0.014c0.347-0.214,0.759-0.324,1.194-0.282c0.221,0.021,0.428,0.081,0.619,0.169
	c0.259,0.077,0.552,0.171,0.898,0.296c-0.528-1.108-1.133-2.107-1.854-3.113c-0.683-0.952-1.256-1.277-2.266-1.874
	c-0.22-0.13-0.422-0.273-0.632-0.408c-0.744-0.138-1.588-0.265-2.306-0.127c0.592-0.232,1.042-0.336,1.562-0.381
	c-1.431-1.026-2.656-2.167-4.065-3.354C52.781,1.078,50.195,0.013,47.381,0L47.381,0z M49.225,9.579
	c-2.843,1.366-3.581,3.139-3.995,4.974C44.745,12.116,45.455,10.525,49.225,9.579z M38.059,9.791
	c-1.354,0.529-2.578,0.922-3.897,1.254c-1.204,1.583-1.931,2.399-2.208,4.522c-0.327-2.089-0.395-2.471,0.533-4.029
	c-0.268,0.138-0.527,0.327-0.886,0.634c-1.296,1.111-2.98,5.471-3.656,7.031c0.429-1.878,1.77-6.578,3.15-7.946
	c0.908-0.9,1.111-0.879,2.391-1C35.012,10.111,36.532,9.963,38.059,9.791z M73.048,9.96c-0.535,2.115-1.607,3.921-3.838,4.72
	c-1.096,0.391-1.811-0.019-2.927-0.338c1.098,0.104,1.733,0.276,2.716-0.211C70.83,13.222,72.175,11.732,73.048,9.96L73.048,9.96z
	 M65.256,12.819c-0.126,0.002-0.259,0.009-0.378,0.014c0.18,0.178,0.32,0.384,0.42,0.62c0.056-0.051,0.123-0.097,0.184-0.142
	C65.407,13.146,65.335,12.981,65.256,12.819z M54.09,14.2c-0.419,0.381-0.958,0.68-1.504,0.972c0.604,0.222,1.123,0.672,1.42,1.297
	c0.124,0.263,0.209,0.542,0.239,0.818c0.824-0.272,1.636-0.405,2.319-0.395c-2.448,0.688-5.053,2.304-6.849,4.437
	c0.202-0.556,0.476-1.059,0.816-1.506c-0.472-0.247-0.866-0.64-1.111-1.155c-0.163-0.345-0.25-0.71-0.252-1.071
	c-0.607,0.485-1.258,0.946-1.942,1.212c0.944-0.845,2.221-2.837,3.149-3.466C51.431,14.627,52.861,14.77,54.09,14.2z M3.334,18.469
	c-1.653,0.999-4.689,3.781-2.658,5.889c0.22,0.796,0.401,1.412,0.703,2.044c0.622,1.298,2.241,0.96,3.474,0.437
	c0.031-0.105,0.065-0.204,0.099-0.311c0.204-0.643,0.413-1.269,0.646-1.874c-0.49,0.444-1.036,0.818-1.701,1.084
	c-1.725,0.693-1.692,0.091-2.434-1.409c1.578-1.261,0.847-2.822,1.351-4.564C2.93,19.363,3.095,18.984,3.334,18.469L3.334,18.469z
	 M3.756,19.412c-0.029,0.099-0.059,0.184-0.084,0.282c-0.051,0.193-0.085,0.407-0.112,0.62c0.324-0.036,0.522,0.129,0.772,0.381
	C4.286,20.095,4.176,19.659,3.756,19.412L3.756,19.412z M54.625,30.614c-0.435,0.235-1.213,0.552-1.646,0.788
	c-0.611,0.332-0.782,0.398-1.071,1.028c-0.271,0.597-0.54,1.32-0.773,1.944c0.087-0.552,0.195-1.236,0.281-1.789
	c0.186-1.175,0.328-1.46,1.519-1.663C53.383,30.847,54.179,30.689,54.625,30.614L54.625,30.614z M5.12,38.841
	c-0.173,0.463-0.348,0.916-0.52,1.38c-0.791,0.801-1.573,1.607-2.363,2.408C1.65,43.224,1.528,43.24,1.646,44.08
	c0.162,1.154,0.855,2.385,1.871,3.424c0.929,0.951,4.139,3.439,5.401,1.748c0.269-0.359,0.396-0.808,0.507-1.269
	c0-0.018,0-0.041,0-0.057C7.658,45.25,6.055,42.079,5.12,38.841L5.12,38.841z M47.565,40.952c-0.422,1.502-0.976,2.926-1.492,4.551
	c-0.487,1.54-3.001,6.004-4.473,7.087c0.285,0.214,0.822,0.299,1.758,0.381c0.662,0.056,3.267,0.073,3.924,0.084
	c1.446,0.024,1.991-0.085,2.137-1.733c0.071-0.808,0.01-0.955-0.393-1.662c-0.036-1.261-0.063-2.529-0.099-3.79
	c-0.034-1.196-0.264-1.886-0.731-3.001C47.917,42.202,47.759,41.58,47.565,40.952L47.565,40.952z M29.239,47.968
	c-0.023,0.004-0.046,0.012-0.07,0.016l0.014,0.015C29.201,47.986,29.222,47.979,29.239,47.968z"/>
</svg>
