<?xml version="1.0" encoding="utf-8"?>
<!-- Generator: Adobe Illustrator 16.0.0, SVG Export Plug-In . SVG Version: 6.00 Build 0)  -->
<!DOCTYPE svg PUBLIC "-//W3C//DTD SVG 1.1//EN" "http://www.w3.org/Graphics/SVG/1.1/DTD/svg11.dtd">
<svg version="1.1"
	 id="图层_1" xmlns:dc="http://purl.org/dc/elements/1.1/" xmlns:cc="http://creativecommons.org/ns#" xmlns:rdf="http://www.w3.org/1999/02/22-rdf-syntax-ns#"
	 xmlns="http://www.w3.org/2000/svg" xmlns:xlink="http://www.w3.org/1999/xlink" x="0px" y="0px" width="75px" height="75px"
	 viewBox="0 0 75 75" enable-background="new 0 0 75 75" xml:space="preserve">
<path fill="#00BCF2" d="M30.396,0C13.97,0,0.662,3.993,0.146,9.008H0.073v40.283h14.941l4.175-4.688H9.375V28.198h24.243
	l6.226-7.032v7.032h9.375v11.719h11.499V9.008h-0.073C60.129,3.993,46.82,0,30.394,0H30.396z M60.718,39.917v4.687h4.907v4.688
	L75,42.26l-9.375-7.031v4.688H60.718z M60.718,44.603H49.219V61.01h-9.375v7.031H25.781V61.01H4.687l6.226-7.031H0.073v11.205
	C0.047,65.344,0,65.537,0,65.698c0,0.101,0.063,0.12,0.073,0.22C0.589,70.932,13.897,75,30.321,75
	c16.426,0,29.734-4.067,30.25-9.082h0.146V44.603L60.718,44.603z M0.073,53.979v-4.688H0v4.688H0.073z M30.761,4.321
	c12.732,0,23.072,2.649,23.072,5.858c0,3.211-10.34,5.86-23.072,5.86c-12.733,0-22.998-2.649-22.998-5.86
	C7.763,6.97,18.028,4.321,30.761,4.321z M14.062,32.885v7.031h9.229l6.226-7.031H14.062z M39.844,32.885v7.031h4.688v-7.031H39.844z
	 M35.156,35.229l-4.175,4.688h4.175V35.229z M26.806,44.603l-4.175,4.688h7.838v7.032h4.687v-11.72H26.806L26.806,44.603z
	 M39.844,44.603v11.72h4.688v-11.72H39.844L39.844,44.603z M18.457,53.979l-2.051,2.344h9.375v-2.344H18.457z M30.469,61.01v2.344
	h4.687V61.01H30.469z"/>
</svg>
