<?xml version="1.0" encoding="utf-8"?>
<!-- Generator: Adobe Illustrator 16.0.0, SVG Export Plug-In . SVG Version: 6.00 Build 0)  -->
<!DOCTYPE svg PUBLIC "-//W3C//DTD SVG 1.1//EN" "http://www.w3.org/Graphics/SVG/1.1/DTD/svg11.dtd">
<svg version="1.1"
	 id="图层_1" xmlns:dc="http://purl.org/dc/elements/1.1/" xmlns:cc="http://creativecommons.org/ns#" xmlns:rdf="http://www.w3.org/1999/02/22-rdf-syntax-ns#"
	 xmlns="http://www.w3.org/2000/svg" xmlns:xlink="http://www.w3.org/1999/xlink" x="0px" y="0px" width="75px" height="64px"
	 viewBox="0 0 75 64" enable-background="new 0 0 75 64" xml:space="preserve">
<path fill="#00BCF2" d="M36.333,63.415c-5.373-2.938-13.294-9.093-19.375-15.059c-9.379-9.2-14.903-17.8-16.6-25.834
	c-0.437-2.066-0.483-6.238-0.092-8.054c0.737-3.427,2.257-6.421,4.778-9.421c1.843-2.192,4.742-4.013,7.478-4.697
	c1.755-0.438,5.256-0.471,7.114-0.067c5.688,1.237,11.493,4.936,16.537,10.535c0.821,0.911,1.549,1.622,1.619,1.579
	c0.068-0.043,0.518-0.595,0.995-1.225c4.056-5.34,9.999-9.234,16.206-10.62c1.568-0.35,6.15-0.343,7.547,0.011
	c3.664,0.93,6.391,2.876,8.803,6.287c1.874,2.65,2.957,5.239,3.461,8.276c0.334,2.002,0.229,5.459-0.229,7.608
	c-1.48,6.982-6.261,14.896-13.78,22.82c-5.719,6.027-13.228,12.3-19.563,16.341c-1.314,0.838-3.609,2.112-3.788,2.103
	C37.422,64.001,36.922,63.737,36.333,63.415L36.333,63.415z M45.298,31.066c6.185-7.962,8.669-11.27,8.669-11.532
	c0-0.296-0.341-0.634-1.73-1.715c-1.739-1.355-2.177-1.543-2.598-1.122c-0.125,0.125-3.285,4.178-7.022,9.005
	c-3.737,4.828-6.841,8.778-6.895,8.778s-1.938-1.993-4.188-4.43c-2.4-2.599-4.198-4.428-4.353-4.428
	c-0.256,0-3.338,2.74-3.591,3.193c-0.072,0.129-0.074,0.347-0.004,0.495c0.068,0.146,2.908,3.266,6.307,6.934l6.182,6.67
	l0.276-0.343C36.503,42.384,40.529,37.207,45.298,31.066L45.298,31.066z"/>
</svg>
