<?xml version="1.0" encoding="utf-8"?>
<!-- Generator: Adobe Illustrator 16.0.0, SVG Export Plug-In . SVG Version: 6.00 Build 0)  -->
<!DOCTYPE svg PUBLIC "-//W3C//DTD SVG 1.1//EN" "http://www.w3.org/Graphics/SVG/1.1/DTD/svg11.dtd">
<svg version="1.1"
	 id="图层_1" xmlns:dc="http://purl.org/dc/elements/1.1/" xmlns:cc="http://creativecommons.org/ns#" xmlns:rdf="http://www.w3.org/1999/02/22-rdf-syntax-ns#"
	 xmlns="http://www.w3.org/2000/svg" xmlns:xlink="http://www.w3.org/1999/xlink" x="0px" y="0px" width="75px" height="64px"
	 viewBox="0 0 75 64" enable-background="new 0 0 75 64" xml:space="preserve">
<path fill="#00BCF2" d="M35.429,63.228c-7.07-3.536-19.077-14.756-26.69-24.938l-0.414-0.553h5.26c3.567,0,5.443-0.054,5.832-0.172
	c1.023-0.307,1.615-0.987,2.771-3.177c2.117-4.014,2.41-4.536,2.451-4.396c0.023,0.08,0.478,4.622,1.01,10.096
	c0.936,9.624,0.981,9.976,1.362,10.679c0.666,1.226,1.58,1.752,3.06,1.758c1.088,0,1.888-0.366,2.588-1.201
	c0.272-0.324,1.95-3.446,3.73-6.936l3.238-6.347L50.731,38c11.062-0.043,11.11-0.045,11.696-0.359c1.268-0.685,1.903-1.742,1.9-3.15
	c0-1.476-0.723-2.603-2.049-3.201c-0.549-0.248-1.395-0.269-12.646-0.307c-8.248-0.028-12.3,0.01-12.826,0.118
	c-1.363,0.284-1.9,0.846-3.226,3.376l-1.168,2.229l-0.111-0.554c-0.062-0.305-0.511-4.704-0.999-9.778
	c-0.486-5.071-0.948-9.455-1.025-9.741c-0.393-1.468-1.747-2.436-3.395-2.424c-1.123,0.011-2.087,0.473-2.663,1.282
	c-0.188,0.263-2.068,3.799-4.178,7.857l-3.837,7.378l-6.182,0.04l-6.179,0.038l-0.89-1.809c-2.21-4.493-3.102-8.178-2.935-12.139
	c0.134-3.146,0.744-5.388,2.19-8.044c1.187-2.18,3.284-4.681,5.026-5.996c1.911-1.442,4.45-2.414,7.122-2.731
	c2.258-0.266,4.937,0.096,7.9,1.071c1.302,0.429,4.517,2.05,6.032,3.043c2.625,1.72,6.091,4.796,8.4,7.456l0.867,0.998l1.008-1.332
	c2.021-2.673,5.129-5.489,8.092-7.331c5.563-3.459,11.85-4.598,16.79-3.044c4.019,1.262,7.26,4.292,9.622,8.996
	c2.355,4.685,2.564,10.594,0.576,16.271c-1.142,3.265-2.567,6.082-4.784,9.456c-2.741,4.167-5.225,7.143-9.737,11.666
	c-5.696,5.704-11.799,10.644-17.667,14.301c-1.72,1.073-4.117,2.368-4.374,2.366C37.027,64.004,36.28,63.656,35.429,63.228
	L35.429,63.228z"/>
</svg>
