<?xml version="1.0" encoding="utf-8"?>
<!-- Generator: Adobe Illustrator 16.0.0, SVG Export Plug-In . SVG Version: 6.00 Build 0)  -->
<!DOCTYPE svg PUBLIC "-//W3C//DTD SVG 1.1//EN" "http://www.w3.org/Graphics/SVG/1.1/DTD/svg11.dtd">
<svg version="1.1"
	 id="svg2" xmlns:dc="http://purl.org/dc/elements/1.1/" xmlns:cc="http://creativecommons.org/ns#" xmlns:rdf="http://www.w3.org/1999/02/22-rdf-syntax-ns#" xmlns:svg="http://www.w3.org/2000/svg"
	 xmlns="http://www.w3.org/2000/svg" xmlns:xlink="http://www.w3.org/1999/xlink" x="0px" y="0px" width="76px" height="56px"
	 viewBox="0 0 76 56" enable-background="new 0 0 76 56" xml:space="preserve">
<g id="g12" transform="scale(0.1,0.1)">
	<path id="path22" fill="#02709F" d="M0.664,558.564H531.25V434.209H0.664V558.564z"/>
	<path id="path24" fill="none" stroke="#FFFFFF" stroke-width="3.9999" d="M0.664,558.564H531.25V434.209H0.664V558.564z"/>
	<path id="path26" fill="#02709F" d="M531.25,434.209H0l252.373-365.41H760L531.25,434.209"/>
	<path id="path28" fill="none" stroke="#FFFFFF" stroke-width="3.9999" d="M531.25,434.209H0l252.373-365.41H760L531.25,434.209z"/>
	<path id="path30" fill="#02709F" d="M760,74.116v228.227L531.25,560V439.902L760,74.116"/>
	<path id="path32" fill="none" stroke="#FFFFFF" stroke-width="3.9999" d="M760,74.116v228.227L531.25,560V439.902L760,74.116z"/>
	<path id="path34" fill="#02709F" d="M353.711,135.2c-32.646,37.397-72.773,81.05-98.477,123.315l2.021,38.457l-80.273,123.809
		l-9.302-91.338C182.939,268.193,372.656,28.433,416.377,0l14.824,80.708l-75.361,91.147L353.711,135.2"/>
	<path id="path36" fill="none" stroke="#FFFFFF" stroke-width="3.9999" d="M353.711,135.2
		c-32.646,37.397-72.773,81.05-98.477,123.315l2.021,38.457l-80.273,123.809l-9.302-91.338
		C182.939,268.193,372.656,28.433,416.377,0l14.824,80.708l-75.361,91.147L353.711,135.2z"/>
	<path id="path38" fill="#02709F" d="M72.705,329.443l-9.307,91.338h113.584l-9.302-91.338H72.705"/>
	<path id="path40" fill="none" stroke="#FFFFFF" stroke-width="3.9999" d="M72.705,329.443l-9.307,91.338h113.584l-9.302-91.338
		H72.705z"/>
	<path id="path42" fill="#02709F" d="M416.377,0c-43.721,28.433-233.438,268.193-248.696,329.443H72.705
		C87.939,268.193,277.656,28.433,321.396,0H416.377"/>
	<path id="path44" fill="none" stroke="#FFFFFF" stroke-width="3.9999" d="M416.377,0
		c-43.721,28.433-233.438,268.193-248.696,329.443H72.705C87.939,268.193,277.656,28.433,321.396,0H416.377z"/>
	<path id="path46" fill="#02709F" d="M274.18,397.705h-34.15l16.338-19.092h34.18L274.18,397.705"/>
	<path id="path48" fill="none" stroke="#FFFFFF" stroke-width="3.9999" d="M274.18,397.705h-34.15l16.338-19.092h34.18
		L274.18,397.705z"/>
	<path id="path50" fill="#02709F" d="M349.961,397.705h-34.16l16.338-19.092h34.18L349.961,397.705"/>
	<path id="path52" fill="none" stroke="#FFFFFF" stroke-width="3.9999" d="M349.961,397.705h-34.16l16.338-19.092h34.18
		L349.961,397.705z"/>
	<path id="path54" fill="#02709F" d="M425.918,397.705h-34.15l16.328-19.092h34.18L425.918,397.705"/>
	<path id="path56" fill="none" stroke="#FFFFFF" stroke-width="3.9999" d="M425.918,397.705h-34.15l16.328-19.092h34.18
		L425.918,397.705z"/>
	<path id="path58" fill="#02709F" d="M501.689,397.705h-34.15l16.328-19.092h34.18L501.689,397.705"/>
	<path id="path60" fill="none" stroke="#FFFFFF" stroke-width="3.9999" d="M501.689,397.705h-34.15l16.328-19.092h34.18
		L501.689,397.705z"/>
</g>
</svg>
