<?xml version="1.0" encoding="utf-8"?>
<!-- Generator: Adobe Illustrator 16.0.0, SVG Export Plug-In . SVG Version: 6.00 Build 0)  -->
<!DOCTYPE svg PUBLIC "-//W3C//DTD SVG 1.1//EN" "http://www.w3.org/Graphics/SVG/1.1/DTD/svg11.dtd">
<svg version="1.1"
	 id="svg2" xmlns:dc="http://purl.org/dc/elements/1.1/" xmlns:cc="http://creativecommons.org/ns#" xmlns:rdf="http://www.w3.org/1999/02/22-rdf-syntax-ns#" xmlns:svg="http://www.w3.org/2000/svg"
	 xmlns="http://www.w3.org/2000/svg" xmlns:xlink="http://www.w3.org/1999/xlink" x="0px" y="0px" width="780px" height="400px"
	 viewBox="0 0 78 40" enable-background="new 0 0 780 400" xml:space="preserve">
<g id="g12" transform="scale(0.1,0.1)">
	<path id="path22" fill="#087FBF" d="M764.998,319.575V10.005l-68.164,70.361v309.638L764.998,319.575"/>
	<path id="path24" fill="none" stroke="#FFFFFF" stroke-width="4" d="M764.998,319.575V10.005l-68.164,70.361v309.638
		L764.998,319.575z"/>
	<path id="path26" fill="#087FBF" d="M14.998,390.005h681.836V80.376H14.998V390.005z"/>
	<path id="path28" fill="none" stroke="#FFFFFF" stroke-width="4" d="M14.998,390.005h681.836V80.376H14.998V390.005z"/>
	<g id="g30" transform="scale(10,10)" style="font-variant:normal;font-weight:normal;font-size:9.381px;font-family:Helvetica;-inkscape-font-specification:Helvetica;writing-mode:lr-tb;fill:#ffffff;fill-opacity:1;fill-rule:nonzero;stroke:none">
		<text transform="matrix(0.994 0 0 1 16.5755 28.1821)">X</text>
		<text transform="matrix(0.994 0 0 1 22.7952 28.1821)">.</text>
		<text transform="matrix(0.994 0 0 1 25.3865 28.1821)">2</text>
		<text transform="matrix(0.994 0 0 1 30.5721 28.1821)">5</text>
		<text transform="matrix(0.994 0 0 1 38.3455 28.1821)">H</text>
		<text transform="matrix(0.994 0 0 1 45.0799 28.1821)">o</text>
		<text transform="matrix(0.994 0 0 1 50.2674 28.1821)">s</text>
		<text transform="matrix(0.994 0 0 1 54.9285 28.1821)">t</text>
	</g>
	<path id="path36" fill="#087FBF" d="M83.167,10.004L14.998,80.366h681.836l68.164-70.361H83.167"/>
	<path id="path38" fill="none" stroke="#FFFFFF" stroke-width="4" d="M83.167,10.004L14.998,80.366h681.836l68.164-70.361H83.167z"
		/>
</g>
</svg>
