<?xml version="1.0" encoding="utf-8"?>
<!-- Generator: Adobe Illustrator 16.0.0, SVG Export Plug-In . SVG Version: 6.00 Build 0)  -->
<!DOCTYPE svg PUBLIC "-//W3C//DTD SVG 1.1//EN" "http://www.w3.org/Graphics/SVG/1.1/DTD/svg11.dtd">
<svg version="1.1"
	 id="svg2" xmlns:dc="http://purl.org/dc/elements/1.1/" xmlns:cc="http://creativecommons.org/ns#" xmlns:rdf="http://www.w3.org/1999/02/22-rdf-syntax-ns#" xmlns:svg="http://www.w3.org/2000/svg"
	 xmlns="http://www.w3.org/2000/svg" xmlns:xlink="http://www.w3.org/1999/xlink" x="0px" y="0px" width="73px" height="80px"
	 viewBox="0 0 73 80" enable-background="new 0 0 73 80" xml:space="preserve">
<g id="g12" transform="scale(0.1,0.1)">
	<path id="path22" fill="#02709F" d="M0,800.005h579.688V150.776H0V800.005z"/>
	<path id="path24" fill="none" stroke="#FFFFFF" stroke-width="3.9999" d="M0,800.005h579.688V150.776H0V800.005z"/>
	<path id="path26" fill="#02709F" d="M579.688,800.005L730,649.204V0H150.313L0,150.776h579.688V800.005"/>
	<path id="path28" fill="none" stroke="#FFFFFF" stroke-width="3.9999" d="M579.688,800.005L730,649.204V0H150.313L0,150.776
		h579.688V800.005z"/>
	<path id="path30" fill="#02709F" d="M579.688,150.776L730,0"/>
	<path id="path32" fill="none" stroke="#FFFFFF" stroke-width="3.9999" d="M579.688,150.776L730,0"/>
	<path id="path34" fill="#02709F" d="M579.688,310.102H0"/>
	<path id="path36" fill="none" stroke="#FFFFFF" stroke-width="3.9999" d="M579.688,310.102H0"/>
	<path id="path38" fill="#02709F" d="M579.688,636.626H0"/>
	<path id="path40" fill="none" stroke="#FFFFFF" stroke-width="3.9999" d="M579.688,636.626H0"/>
	<path id="path42" fill="#02709F" d="M579.688,478.227H0"/>
	<path id="path44" fill="none" stroke="#FFFFFF" stroke-width="3.9999" d="M579.688,478.227H0"/>
	<path id="path46" fill="#02709F" d="M391.367,227.798h126.855"/>
	<path id="path48" fill="none" stroke="#FFFFFF" stroke-width="3.9999" d="M391.367,227.798h126.855"/>
	<path id="path50" fill="#02709F" d="M391.367,396.147h126.855"/>
	<path id="path52" fill="none" stroke="#FFFFFF" stroke-width="3.9999" d="M391.367,396.147h126.855"/>
	<path id="path54" fill="#02709F" d="M391.367,554.555h126.855"/>
	<path id="path56" fill="none" stroke="#FFFFFF" stroke-width="3.9999" d="M391.367,554.555h126.855"/>
	<path id="path58" fill="#02709F" d="M391.367,717.837h126.855"/>
	<path id="path60" fill="none" stroke="#FFFFFF" stroke-width="3.9999" d="M391.367,717.837h126.855"/>
</g>
</svg>
