<?xml version="1.0" encoding="utf-8"?>
<!-- Generator: Adobe Illustrator 16.0.0, SVG Export Plug-In . SVG Version: 6.00 Build 0)  -->
<!DOCTYPE svg PUBLIC "-//W3C//DTD SVG 1.1//EN" "http://www.w3.org/Graphics/SVG/1.1/DTD/svg11.dtd">
<svg version="1.1" id="图层_1" xmlns="http://www.w3.org/2000/svg" xmlns:xlink="http://www.w3.org/1999/xlink" x="0px" y="0px"
	 width="425.559px" height="425.2px" viewBox="0 0 425.559 425.2" enable-background="new 0 0 425.559 425.2" xml:space="preserve">
<g>
	<path fill="#33CCFF" d="M319.508,193.391c-6.51-4.529-14.647-4.926-21.345-1.78l-1.338-1.381l-8.1,7.845l0.847,0.872
		c-6.581,9.69-4.162,22.892,5.478,29.599c9.708,6.754,23.052,4.36,29.807-5.348S329.216,200.145,319.508,193.391"/>
	<path fill="#33CCFF" d="M157.519,168.441l5.263-5.708l-8.291-7.641l-5.731,6.215l1.905,1.756
		c-12.66-8.475-27.824-11.688-42.849-8.995c-15.385,2.761-28.771,11.346-37.695,24.174c-8.927,12.83-12.324,28.366-9.563,43.751
		c2.761,15.385,11.347,28.771,24.177,37.697c10.16,7.069,21.798,10.462,33.329,10.462c18.523,0,36.76-8.755,48.118-25.075
		c8.927-12.83,12.323-28.366,9.562-43.751C173.439,188.48,167.027,177.068,157.519,168.441 M156.927,238.636
		c-14.876,21.38-44.376,26.674-65.754,11.801c-10.358-7.207-17.289-18.017-19.516-30.434c-2.23-12.42,0.512-24.964,7.718-35.32
		c7.207-10.358,18.014-17.29,30.431-19.516c2.819-0.507,5.643-0.757,8.446-0.757c9.551,0,18.867,2.901,26.874,8.472
		c10.359,7.207,17.293,18.017,19.52,30.434C166.875,215.736,164.134,228.28,156.927,238.636"/>
	<polygon fill="#33CCFF" points="160.635,148.427 168.926,156.068 181.211,142.745 172.92,135.104 	"/>
	
		<rect x="274.903" y="172.746" transform="matrix(0.7177 -0.6963 0.6963 0.7177 -47.2189 246.5819)" fill="#33CCFF" width="11.275" height="17.576"/>
	<polygon fill="#33CCFF" points="260.12,152.372 252.027,160.223 264.26,172.841 272.354,164.99 	"/>
	<path fill="#33CCFF" d="M242.192,133.883c2.094-2.307,3.973-4.868,5.513-7.736c10.182-18.958,3.067-42.581-15.891-52.763
		s-42.581-3.068-52.763,15.89c-6.693,12.463-5.872,26.922,0.836,38.273l-0.826,0.896l3.83,3.53
		c3.197,4.021,7.237,7.479,12.05,10.064c12.982,6.972,28.147,5.827,39.69-1.67l-0.957,0.928l12.233,12.619l8.093-7.851
		L242.192,133.883z"/>
	<path fill="#33CCFF" d="M135.729,223.197c6.754-9.708,4.359-23.053-5.348-29.807c-9.708-6.754-23.053-4.359-29.808,5.349
		c-6.753,9.708-4.359,23.052,5.349,29.806C115.629,235.301,128.975,232.905,135.729,223.197"/>
	<path fill="#33CCFF" d="M340.697,162.246c-26.486-18.424-63.021-11.867-81.45,14.614c-18.424,26.486-11.869,63.023,14.614,81.449
		c10.163,7.069,21.801,10.461,33.332,10.461c18.523,0,36.76-8.754,48.118-25.074C373.734,217.209,367.181,180.672,340.697,162.246
		 M346.057,237.254c-14.876,21.38-44.379,26.674-65.754,11.801c-21.38-14.876-26.673-44.374-11.8-65.754
		c9.169-13.18,23.89-20.246,38.846-20.246c9.306,0,18.707,2.739,26.907,8.445C355.636,186.376,360.93,215.874,346.057,237.254"/>
	<path fill="#33CCFF" d="M231.814,279.9c-18.958-10.182-42.581-3.067-52.763,15.891s-3.067,42.581,15.89,52.763
		c18.958,10.182,42.581,3.068,52.763-15.89C257.887,313.706,250.772,290.083,231.814,279.9"/>
	
		<rect x="256.332" y="254.041" transform="matrix(-0.7353 -0.6777 0.6777 -0.7353 279.5667 625.72)" fill="#33CCFF" width="11.275" height="8.454"/>
	<polygon fill="#33CCFF" points="236.529,277.54 244.82,285.181 257.105,271.857 248.814,264.217 	"/>
	<polygon fill="#33CCFF" points="135.128,228.517 127.036,236.368 139.271,248.989 147.364,241.138 	"/>
	
		<rect x="149.915" y="248.893" transform="matrix(0.7178 -0.6963 0.6963 0.7178 -135.5177 181.0353)" fill="#33CCFF" width="11.275" height="17.577"/>
	<polygon fill="#33CCFF" points="184.066,278.993 171.833,266.375 163.74,274.226 175.973,286.844 	"/>
	<path fill="#33CCFF" d="M412.63,84.542c-8.969-51.904-21.426-64.195-74.077-73.414C305.085,5.232,257.831,1.91,208.916,1.91
		c-48.499,0-93.261,3.156-126.231,8.886C30.781,19.848,18.49,32.305,9.271,84.874C-2.937,154.467-3.103,271.646,8.855,340.658
		c8.97,51.905,21.427,64.196,74.078,73.414c33.551,5.896,80.888,9.218,129.886,9.218c48.333,0,93.096-3.156,125.982-8.803
		c51.904-9.052,64.278-21.509,73.413-74.078C424.506,270.816,424.672,153.637,412.63,84.542 M399.509,338.167
		c-8.222,47.171-16.443,55.476-62.866,63.531c-32.14,5.563-76.071,8.637-123.74,8.637c-48.25,0-94.84-3.322-127.643-9.052
		c-47.171-8.222-55.476-16.527-63.531-62.867C9.936,270.567,10.185,155.464,22.144,87.033c8.222-47.087,16.443-55.475,62.866-63.531
		c32.223-5.564,76.237-8.72,123.989-8.72c48.168,0,94.591,3.322,127.394,9.053c47.088,8.221,55.477,16.443,63.531,62.866
		C411.634,154.633,411.551,269.736,399.509,338.167"/>
</g>
</svg>
