<?xml version="1.0" encoding="utf-8"?>
<!-- Generator: Adobe Illustrator 16.0.0, SVG Export Plug-In . SVG Version: 6.00 Build 0)  -->
<!DOCTYPE svg PUBLIC "-//W3C//DTD SVG 1.1//EN" "http://www.w3.org/Graphics/SVG/1.1/DTD/svg11.dtd">
<svg version="1.1" id="图层_1" xmlns="http://www.w3.org/2000/svg" xmlns:xlink="http://www.w3.org/1999/xlink" x="0px" y="0px"
	 width="421.549px" height="425.2px" viewBox="0 0 421.549 425.2" enable-background="new 0 0 421.549 425.2" xml:space="preserve">
<g>
	<path fill="#47A6E9" d="M212.873,421.758h-0.007c-49.042,0-96.438-3.368-130.027-9.243c-52.645-9.219-65.112-21.578-74.102-73.495
		C-3.235,269.907-3.051,152.656,9.137,82.986C18.33,30.372,30.694,17.905,82.618,8.883C115.566,3.16,160.431,0,208.941,0
		c48.942,0,96.237,3.362,129.742,9.225c52.627,9.212,65.087,21.577,74.103,73.495c11.991,69.126,11.827,186.402-0.366,256.085
		c-9.182,52.626-21.553,65.086-73.482,74.115C306.039,418.618,261.264,421.758,212.873,421.758 M208.941,12.967
		c-47.789,0-91.862,3.09-124.108,8.693c-46.447,8.066-54.677,16.386-62.921,63.554C9.928,153.688,9.75,268.906,21.514,336.816
		c8.041,46.421,16.361,54.665,63.561,62.935c32.885,5.748,79.459,9.041,127.792,9.041h0.007c47.682,0,91.659-3.065,123.849-8.636
		c46.459-8.079,54.689-16.398,62.934-63.58c11.979-68.493,12.144-183.725,0.367-251.64c-8.079-46.441-16.398-54.678-63.567-62.934
		C303.646,16.259,257.161,12.967,208.941,12.967"/>
	<path fill="#47A6E9" d="M152.76,108.27c17.334-9.349,30.695-18.288,39.642-24.789v108.932H91.765
		c-3.451-41.656,0.153-80.125,0.153-80.125S115.821,128.196,152.76,108.27"/>
	<path fill="#47A6E9" d="M318.404,112.288c0,0-23.845,15.909-60.682-4.018c-17.496-9.468-30.907-18.483-39.828-25.001v109.144
		h100.663C322,150.757,318.404,112.288,318.404,112.288"/>
	<path fill="#47A6E9" d="M110.561,268.347c24.924,44.372,62.34,64.444,81.841,72.431V217.904H94.857
		C97.908,236.573,102.777,254.472,110.561,268.347"/>
	<path fill="#47A6E9" d="M243.038,276.716c0-6.305,5.111-11.415,11.415-11.415h0.362v-5.401c0-19.914,16.144-36.057,36.057-36.057
		c8.38,0,16.091,2.857,22.212,7.651c0.935-4.267,1.755-8.617,2.473-13.014h-97.544v122.874c6.657-2.727,15.402-6.863,25.025-12.892
		V276.716z"/>
	<path fill="#47A6E9" d="M321.985,273.72h-61.629c-4.682,0-8.477,3.75-8.477,8.377v49.066c0,4.627,3.795,8.377,8.477,8.377h61.629
		c4.683,0,8.478-3.75,8.478-8.377v-49.066C330.463,277.47,326.668,273.72,321.985,273.72 M296.507,307.888v12.289
		c0,2.687-2.178,4.863-4.863,4.863h-0.945c-2.686,0-4.862-2.177-4.862-4.863v-12.289c-3.124-1.834-5.224-5.226-5.224-9.109
		c0-5.831,4.728-10.559,10.56-10.559c5.831,0,10.558,4.728,10.558,10.559C301.729,302.662,299.631,306.054,296.507,307.888"/>
	<path fill="#47A6E9" d="M276.889,265.4v-5.037h0.001c0.027-7.893,6.434-14.283,14.333-14.283s14.306,6.391,14.332,14.283h0.001
		v5.037h10.498c0.276-1.496,0.428-3.035,0.428-4.611c0-13.949-11.309-25.259-25.259-25.259c-13.951,0-25.26,11.31-25.26,25.259
		c0,1.576,0.152,3.115,0.428,4.611H276.889z"/>
</g>
</svg>
