<?xml version="1.0" encoding="utf-8"?>
<!-- Generator: Adobe Illustrator 16.0.0, SVG Export Plug-In . SVG Version: 6.00 Build 0)  -->
<!DOCTYPE svg PUBLIC "-//W3C//DTD SVG 1.1//EN" "http://www.w3.org/Graphics/SVG/1.1/DTD/svg11.dtd">
<svg version="1.1"
	 id="svg2" xmlns:dc="http://purl.org/dc/elements/1.1/" xmlns:cc="http://creativecommons.org/ns#" xmlns:rdf="http://www.w3.org/1999/02/22-rdf-syntax-ns#" xmlns:svg="http://www.w3.org/2000/svg"
	 xmlns="http://www.w3.org/2000/svg" xmlns:xlink="http://www.w3.org/1999/xlink" x="0px" y="0px" width="80px" height="71px"
	 viewBox="0 0 80 71" enable-background="new 0 0 80 71" xml:space="preserve">
<g id="g12" transform="scale(0.1,0.1)">
	<path id="path22" fill="#087FBF" d="M0,709.997h717.261V84.524H0V709.997z"/>
	<path id="path24" fill="none" stroke="#FFFFFF" stroke-width="4" d="M0,709.997h717.261V84.524H0V709.997z"/>
	<path id="path26" fill="#087FBF" d="M82.72-0.002L0,84.524h717.261l82.734-84.526H82.72"/>
	<path id="path28" fill="none" stroke="#FFFFFF" stroke-width="4" d="M82.72-0.002L0,84.524h717.261l82.734-84.526H82.72z"/>
	<path id="path30" fill="#087FBF" d="M799.995,625.271V-0.002l-82.734,84.526v625.473L799.995,625.271"/>
	<path id="path32" fill="none" stroke="#FFFFFF" stroke-width="4" d="M799.995,625.271V-0.002l-82.734,84.526v625.473
		L799.995,625.271z"/>
	<path id="path34" fill="none" stroke="#FFFFFF" stroke-width="4" d="M53.511,659.363h391.074V144.46H53.511V659.363z"/>
	<path id="path36" fill="none" stroke="#FFFFFF" stroke-width="4" d="M120.718,611.286V193.279"/>
	<path id="path38" fill="none" stroke="#FFFFFF" stroke-width="4" d="M182.48,611.286V193.279"/>
	<path id="path40" fill="none" stroke="#FFFFFF" stroke-width="4" d="M244.438,611.286V193.279"/>
	<path id="path42" fill="none" stroke="#FFFFFF" stroke-width="4" d="M307.476,611.286V193.279"/>
	<path id="path44" fill="none" stroke="#FFFFFF" stroke-width="4" d="M369.214,611.286V193.279"/>
</g>
</svg>
