<svg version="1.1" id="ilhwsa8q1" xmlns:xml="http://www.w3.org/XML/1998/namespace"
	 xmlns="http://www.w3.org/2000/svg" xmlns:xlink="http://www.w3.org/1999/xlink" x="0px" y="0px" width="82.5px" height="15px"
	 viewBox="0 0 82.5 15" enable-background="new 0 0 82.5 15" xml:space="preserve">
<g>
	<polygon fill="#2A2A3D" points="80.7,0.75 80.25,0.6 2.05,0.6 1.6,0.75 3.3,0 78.5,0 	"/>
	<path fill="#494956" d="M80.6,15H1.9C0.8,15,0,14,0,13.05v-9.9c0-1.5,1.35-2.7,2.95-2.7l76.6,0.2c1.65,0,2.95,1.2,2.95,2.7v9.9
		C82.5,14.2,81.65,15,80.6,15z"/>
	<g>
		<path fill="#EAEAEA" d="M78.35,13H49.4c-0.551,0-1-0.45-1-1V5.85c0-0.55,0.449-1,1-1H78.35c0.551,0,1,0.45,1,1V12
			C79.35,12.55,78.9,13,78.35,13z"/>
		<g>
			<g>
				<path fill="#292A2D" d="M77.15,9.4h-2.7c-0.101,0-0.15,0.05-0.15,0.15V11c0,0.1,0.05,0.15,0.15,0.15h0.3
					c0.1,0,0.15,0.05,0.15,0.15v0.5c0,0.1,0.05,0.15,0.149,0.15h0.3c0.101,0,0.15,0.05,0.15,0.15l0,0c0,0.1,0.05,0.15,0.15,0.15
					H75.8c0.101,0,0.15-0.05,0.15-0.15l0,0c0-0.1,0.05-0.15,0.149-0.15H76.4c0.1,0,0.149-0.05,0.149-0.15v-0.5
					c0-0.1,0.05-0.15,0.15-0.15H77c0.1,0,0.15-0.05,0.15-0.15V9.55C77.3,9.45,77.25,9.4,77.15,9.4z"/>
				<path fill="#292A2D" d="M72.4,9.4h-2.7c-0.101,0-0.15,0.05-0.15,0.15V11c0,0.1,0.05,0.15,0.15,0.15H70
					c0.1,0,0.15,0.05,0.15,0.15v0.5c0,0.1,0.05,0.15,0.149,0.15h0.3c0.101,0,0.15,0.05,0.15,0.15l0,0c0,0.1,0.05,0.15,0.15,0.15
					h0.149c0.101,0,0.15-0.05,0.15-0.15l0,0c0-0.1,0.05-0.15,0.149-0.15h0.301c0.1,0,0.149-0.05,0.149-0.15v-0.5
					c0-0.1,0.05-0.15,0.15-0.15h0.3c0.1,0,0.15-0.05,0.15-0.15V9.55C72.55,9.45,72.45,9.4,72.4,9.4z"/>
				<path fill="#292A2D" d="M67.6,9.4H64.9c-0.101,0-0.15,0.05-0.15,0.15V11c0,0.1,0.05,0.15,0.15,0.15h0.3
					c0.1,0,0.149,0.05,0.149,0.15v0.5c0,0.1,0.051,0.15,0.15,0.15h0.3c0.101,0,0.15,0.05,0.15,0.15l0,0c0,0.1,0.05,0.15,0.149,0.15
					h0.15c0.1,0,0.15-0.05,0.15-0.15l0,0c0-0.1,0.05-0.15,0.149-0.15h0.3c0.101,0,0.15-0.05,0.15-0.15v-0.5
					c0-0.1,0.05-0.15,0.15-0.15h0.3c0.1,0,0.149-0.05,0.149-0.15V9.55C67.8,9.45,67.7,9.4,67.6,9.4z"/>
				<path fill="#292A2D" d="M62.85,9.4H60.15C60.05,9.4,60,9.45,60,9.55V11c0,0.1,0.05,0.15,0.15,0.15h0.3
					c0.1,0,0.149,0.05,0.149,0.15v0.5c0,0.1,0.051,0.15,0.15,0.15h0.3c0.101,0,0.15,0.05,0.15,0.15l0,0c0,0.1,0.05,0.15,0.149,0.15
					h0.15c0.1,0,0.15-0.05,0.15-0.15l0,0c0-0.1,0.05-0.15,0.149-0.15h0.3c0.101,0,0.15-0.05,0.15-0.15v-0.5
					c0-0.1,0.05-0.15,0.15-0.15h0.3c0.1,0,0.149-0.05,0.149-0.15V9.55C63,9.45,62.95,9.4,62.85,9.4z"/>
				<path fill="#292A2D" d="M58.1,9.4H55.4c-0.101,0-0.15,0.05-0.15,0.15V11c0,0.1,0.05,0.15,0.15,0.15h0.3
					c0.1,0,0.149,0.05,0.149,0.15v0.5c0,0.1,0.051,0.15,0.15,0.15h0.3c0.101,0,0.15,0.05,0.15,0.15l0,0c0,0.1,0.05,0.15,0.149,0.15
					h0.15c0.1,0,0.15-0.05,0.15-0.15l0,0c0-0.1,0.05-0.15,0.149-0.15h0.3c0.101,0,0.15-0.05,0.15-0.15v-0.5
					c0-0.1,0.05-0.15,0.15-0.15h0.3c0.1,0,0.149-0.05,0.149-0.15V9.55C58.25,9.45,58.2,9.4,58.1,9.4z"/>
				<path fill="#292A2D" d="M53.35,9.4H50.65c-0.101,0-0.15,0.05-0.15,0.15V11c0,0.1,0.05,0.15,0.15,0.15h0.3
					c0.1,0,0.149,0.05,0.149,0.15v0.5c0,0.1,0.051,0.15,0.15,0.15h0.3c0.101,0,0.15,0.05,0.15,0.15l0,0c0,0.1,0.05,0.15,0.149,0.15
					H52c0.1,0,0.15-0.05,0.15-0.15l0,0c0-0.1,0.05-0.15,0.149-0.15h0.3c0.101,0,0.15-0.05,0.15-0.15v-0.5c0-0.1,0.05-0.15,0.15-0.15
					h0.3c0.1,0,0.149-0.05,0.149-0.15V9.55C53.5,9.45,53.45,9.4,53.35,9.4z"/>
			</g>
			<g>
				<path fill="#292A2D" d="M50.65,8.4h2.699c0.101,0,0.15-0.05,0.15-0.15V6.8c0-0.1-0.05-0.15-0.15-0.15H53
					c-0.1,0-0.15-0.05-0.15-0.15V6c0-0.1-0.05-0.15-0.149-0.15h-0.3c-0.101,0-0.15-0.05-0.15-0.15l0,0c0-0.1-0.05-0.15-0.15-0.15
					H51.95c-0.101,0-0.15,0.05-0.15,0.15l0,0c0,0.1-0.05,0.15-0.149,0.15H51.35C51.25,5.85,51.2,5.9,51.2,6v0.5
					c0,0.1-0.05,0.15-0.15,0.15h-0.3c-0.1,0-0.15,0.05-0.15,0.15v1.45C50.45,8.35,50.55,8.4,50.65,8.4z"/>
				<path fill="#292A2D" d="M55.4,8.4H58.1c0.101,0,0.15-0.05,0.15-0.15V6.8c0-0.1-0.05-0.15-0.15-0.15h-0.3
					c-0.1,0-0.149-0.05-0.149-0.15V6c0-0.1-0.051-0.15-0.15-0.15h-0.3c-0.101,0-0.15-0.05-0.15-0.15l0,0c0-0.1-0.05-0.15-0.149-0.15
					h-0.15c-0.1,0-0.15,0.05-0.15,0.15l0,0c0,0.1-0.05,0.15-0.149,0.15h-0.3C56.05,5.85,56,5.9,56,6v0.5c0,0.1-0.05,0.15-0.15,0.15
					h-0.3c-0.1,0-0.149,0.05-0.149,0.15v1.45C55.25,8.35,55.3,8.4,55.4,8.4z"/>
				<path fill="#292A2D" d="M60.15,8.4h2.699C62.95,8.4,63,8.35,63,8.25V6.8c0-0.1-0.05-0.15-0.15-0.15h-0.3
					c-0.1,0-0.149-0.05-0.149-0.15V6c0-0.1-0.051-0.15-0.15-0.15h-0.3c-0.101,0-0.15-0.05-0.15-0.15l0,0c0-0.1-0.05-0.15-0.149-0.15
					H61.5c-0.1,0-0.15,0.05-0.15,0.15l0,0c0,0.1-0.05,0.15-0.149,0.15h-0.3C60.8,5.85,60.75,5.9,60.75,6v0.5
					c0,0.1-0.05,0.15-0.15,0.15h-0.3c-0.1,0-0.149,0.05-0.149,0.15v1.45C60,8.35,60.05,8.4,60.15,8.4z"/>
				<path fill="#292A2D" d="M64.9,8.4H67.6c0.101,0,0.15-0.05,0.15-0.15V6.8c0-0.1-0.05-0.15-0.15-0.15h-0.3
					c-0.1,0-0.149-0.05-0.149-0.15V6c0-0.1-0.051-0.15-0.15-0.15h-0.3c-0.101,0-0.15-0.05-0.15-0.15l0,0c0-0.1-0.05-0.15-0.149-0.15
					h-0.15c-0.1,0-0.15,0.05-0.15,0.15l0,0c0,0.1-0.05,0.15-0.149,0.15h-0.3C65.55,5.85,65.5,5.9,65.5,6v0.5
					c0,0.1-0.05,0.15-0.15,0.15h-0.3c-0.1,0-0.149,0.05-0.149,0.15v1.45C64.75,8.35,64.85,8.4,64.9,8.4z"/>
				<path fill="#292A2D" d="M69.65,8.4h2.699c0.101,0,0.15-0.05,0.15-0.15V6.8c0-0.1-0.05-0.15-0.15-0.15h-0.3
					c-0.1,0-0.149-0.05-0.149-0.15V6c0-0.1-0.051-0.15-0.15-0.15h-0.3c-0.101,0-0.15-0.05-0.15-0.15l0,0c0-0.1-0.05-0.15-0.149-0.15
					H71c-0.1,0-0.15,0.05-0.15,0.15l0,0c0,0.1-0.05,0.15-0.149,0.15h-0.3C70.3,5.85,70.25,5.9,70.25,6v0.5
					c0,0.1-0.05,0.15-0.15,0.15h-0.3c-0.1,0-0.149,0.05-0.149,0.15v1.45C69.5,8.35,69.6,8.4,69.65,8.4z"/>
				<path fill="#292A2D" d="M74.45,8.4h2.7c0.1,0,0.149-0.05,0.149-0.15V6.8c0-0.1-0.05-0.15-0.149-0.15H76.85
					c-0.1,0-0.149-0.05-0.149-0.15V6c0-0.1-0.05-0.15-0.15-0.15h-0.3c-0.1,0-0.15-0.05-0.15-0.15l0,0c0-0.1-0.05-0.15-0.149-0.15
					H75.8c-0.1,0-0.149,0.05-0.149,0.15l0,0c0,0.1-0.051,0.15-0.15,0.15h-0.3C75.1,5.85,75.05,5.9,75.05,6v0.5
					c0,0.1-0.05,0.15-0.149,0.15H74.6c-0.1,0-0.149,0.05-0.149,0.15v1.45C74.3,8.35,74.35,8.4,74.45,8.4z"/>
			</g>
		</g>
	</g>
	<g>
		<path fill="#EAEAEA" d="M46,13.15H17.05c-0.55,0-1-0.45-1-1V6c0-0.55,0.45-1,1-1H46c0.55,0,1,0.45,1,1v6.15
			C47,12.7,46.55,13.15,46,13.15z"/>
		<g>
			<g>
				<path fill="#292A2D" d="M44.75,9.55h-2.7c-0.1,0-0.149,0.05-0.149,0.15v1.45c0,0.1,0.05,0.15,0.149,0.15h0.3
					c0.101,0,0.15,0.05,0.15,0.15v0.5c0,0.1,0.05,0.15,0.15,0.15H43c0.1,0,0.15,0.05,0.15,0.15l0,0c0,0.1,0.05,0.15,0.149,0.15h0.2
					c0.1,0,0.15-0.05,0.15-0.15l0,0c0-0.1,0.05-0.15,0.149-0.15h0.3c0.101,0,0.15-0.05,0.15-0.15v-0.5c0-0.1,0.05-0.15,0.15-0.15
					h0.3c0.1,0,0.149-0.05,0.149-0.15V9.7C44.95,9.6,44.85,9.55,44.75,9.55z"/>
				<path fill="#292A2D" d="M40,9.55h-2.7c-0.1,0-0.15,0.05-0.15,0.15v1.45c0,0.1,0.05,0.15,0.15,0.15h0.3
					c0.1,0,0.15,0.05,0.15,0.15v0.5c0,0.1,0.05,0.15,0.15,0.15h0.3c0.1,0,0.15,0.05,0.15,0.15l0,0c0,0.1,0.05,0.15,0.15,0.15h0.15
					c0.1,0,0.15-0.05,0.15-0.15l0,0c0-0.1,0.05-0.15,0.15-0.15h0.3c0.1,0,0.15-0.05,0.15-0.15v-0.5c0-0.1,0.05-0.15,0.15-0.15H40
					c0.1,0,0.15-0.05,0.15-0.15V9.7C40.15,9.6,40.1,9.55,40,9.55z"/>
				<path fill="#292A2D" d="M35.25,9.55h-2.7c-0.1,0-0.15,0.05-0.15,0.15v1.45c0,0.1,0.05,0.15,0.15,0.15h0.3
					c0.1,0,0.15,0.05,0.15,0.15v0.5c0,0.1,0.05,0.15,0.15,0.15h0.35c0.1,0,0.15,0.05,0.15,0.15l0,0c0,0.1,0.05,0.15,0.15,0.15H34
					c0.1,0,0.15-0.05,0.15-0.15l0,0c0-0.1,0.05-0.15,0.15-0.15h0.3c0.1,0,0.15-0.05,0.15-0.15v-0.5c0-0.1,0.05-0.15,0.15-0.15h0.3
					c0.1,0,0.15-0.05,0.15-0.15V9.7C35.4,9.6,35.35,9.55,35.25,9.55z"/>
				<path fill="#292A2D" d="M30.5,9.55h-2.7c-0.1,0-0.15,0.05-0.15,0.15v1.45c0,0.1,0.05,0.15,0.15,0.15h0.3
					c0.1,0,0.15,0.05,0.15,0.15v0.5c0,0.1,0.05,0.15,0.15,0.15h0.3c0.1,0,0.15,0.05,0.15,0.15l0,0c0,0.1,0.05,0.15,0.15,0.15h0.15
					c0.1,0,0.15-0.05,0.15-0.15l0,0c0-0.1,0.05-0.15,0.15-0.15h0.3c0.1,0,0.15-0.05,0.15-0.15v-0.5c0-0.1,0.05-0.15,0.15-0.15h0.45
					c0.1,0,0.15-0.05,0.15-0.15V9.7C30.65,9.6,30.6,9.55,30.5,9.55z"/>
				<path fill="#292A2D" d="M25.75,9.55h-2.7c-0.1,0-0.15,0.05-0.15,0.15v1.45c0,0.1,0.05,0.15,0.15,0.15h0.3
					c0.1,0,0.15,0.05,0.15,0.15v0.5c0,0.1,0.05,0.15,0.15,0.15H24c0.1,0,0.15,0.05,0.15,0.15l0,0c0,0.1,0.05,0.15,0.15,0.15h0.15
					c0.1,0,0.15-0.05,0.15-0.15l0,0c0-0.1,0.05-0.15,0.15-0.15h0.3c0.1,0,0.15-0.05,0.15-0.15v-0.5c0-0.1,0.05-0.15,0.15-0.15h0.3
					c0.1,0,0.15-0.05,0.15-0.15V9.7C25.9,9.6,25.8,9.55,25.75,9.55z"/>
				<path fill="#292A2D" d="M20.95,9.55h-2.7c-0.1,0-0.15,0.05-0.15,0.15v1.45c0,0.1,0.05,0.15,0.15,0.15h0.3
					c0.1,0,0.15,0.05,0.15,0.15v0.5c0,0.1,0.05,0.15,0.15,0.15h0.3c0.1,0,0.15,0.05,0.15,0.15l0,0c0,0.1,0.05,0.15,0.15,0.15h0.15
					c0.1,0,0.15-0.05,0.15-0.15l0,0c0-0.1,0.05-0.15,0.15-0.15h0.3c0.1,0,0.15-0.05,0.15-0.15v-0.5c0-0.1,0.05-0.15,0.15-0.15h0.3
					c0.1,0,0.15-0.05,0.15-0.15V9.7C21.15,9.6,21.05,9.55,20.95,9.55z"/>
			</g>
			<g>
				<path fill="#292A2D" d="M18.25,8.55h2.7c0.1,0,0.15-0.05,0.15-0.15V6.95c0-0.1-0.05-0.15-0.15-0.15h-0.3
					c-0.1,0-0.15-0.05-0.15-0.15v-0.5c0-0.1-0.05-0.15-0.15-0.15H20c-0.1,0-0.15-0.05-0.15-0.15l0,0c0-0.1-0.05-0.15-0.15-0.15
					h-0.15c-0.1,0-0.15,0.05-0.15,0.15l0,0c0,0.1-0.05,0.15-0.15,0.15h-0.3c-0.1,0-0.15,0.05-0.15,0.15v0.5
					c0,0.1-0.05,0.15-0.15,0.15h-0.3c-0.1,0-0.15,0.05-0.15,0.15V8.4C18.1,8.5,18.2,8.55,18.25,8.55z"/>
				<path fill="#292A2D" d="M23.05,8.55h2.7c0.1,0,0.15-0.05,0.15-0.15V6.95c0-0.1-0.05-0.15-0.15-0.15h-0.3
					c-0.1,0-0.15-0.05-0.15-0.15v-0.5c0-0.1-0.05-0.15-0.15-0.15h-0.3c-0.1,0-0.15-0.05-0.15-0.15l0,0c0-0.1-0.05-0.15-0.15-0.15
					H24.4c-0.1,0-0.15,0.05-0.15,0.15l0,0C24.25,5.95,24.2,6,24.1,6h-0.3c-0.1,0-0.15,0.05-0.15,0.15v0.5c0,0.1-0.05,0.15-0.15,0.15
					h-0.3c-0.1,0-0.15,0.05-0.15,0.15V8.4C22.85,8.5,22.95,8.55,23.05,8.55z"/>
				<path fill="#292A2D" d="M27.8,8.55h2.7c0.1,0,0.15-0.05,0.15-0.15V6.95c0-0.1-0.05-0.15-0.15-0.15h-0.3
					c-0.1,0-0.15-0.05-0.15-0.15v-0.5C30.05,6.05,30,6,29.9,6h-0.3c-0.1,0-0.15-0.05-0.15-0.15l0,0c0-0.1-0.05-0.15-0.15-0.15h-0.15
					C29.05,5.7,29,5.75,29,5.85l0,0C29,5.95,28.95,6,28.85,6h-0.3c-0.1,0-0.15,0.05-0.15,0.15v0.5c0,0.1-0.05,0.15-0.15,0.15h-0.3
					c-0.1,0-0.15,0.05-0.15,0.15V8.4C27.65,8.5,27.7,8.55,27.8,8.55z"/>
				<path fill="#292A2D" d="M32.55,8.55h2.7c0.1,0,0.15-0.05,0.15-0.15V6.95c0-0.1-0.05-0.15-0.15-0.15h-0.3
					c-0.1,0-0.15-0.05-0.15-0.15v-0.5c0-0.1-0.05-0.15-0.15-0.15h-0.3c-0.1,0-0.15-0.05-0.15-0.15l0,0c0-0.1-0.05-0.15-0.15-0.15
					H33.9c-0.1,0-0.15,0.05-0.15,0.15l0,0C33.75,5.95,33.7,6,33.6,6h-0.3c-0.1,0-0.15,0.05-0.15,0.15v0.5c0,0.1-0.05,0.15-0.15,0.15
					h-0.3c-0.1,0-0.15,0.05-0.15,0.15V8.4C32.4,8.5,32.45,8.55,32.55,8.55z"/>
				<path fill="#292A2D" d="M37.3,8.55H40c0.1,0,0.15-0.05,0.15-0.15V6.95c0-0.1-0.05-0.15-0.15-0.15h-0.3
					c-0.1,0-0.15-0.05-0.15-0.15v-0.5C39.55,6.05,39.5,6,39.4,6h-0.3c-0.1,0-0.15-0.05-0.15-0.15l0,0c0-0.1-0.05-0.15-0.15-0.15
					h-0.15c-0.1,0-0.15,0.05-0.15,0.15l0,0c0,0.1-0.05,0.15-0.15,0.15h-0.3c-0.1,0-0.15,0.05-0.15,0.15v0.5
					c0,0.1-0.05,0.15-0.15,0.15h-0.3c-0.1,0-0.15,0.05-0.15,0.15V8.4C37.15,8.5,37.2,8.55,37.3,8.55z"/>
				<path fill="#292A2D" d="M42.05,8.55h2.7c0.1,0,0.15-0.05,0.15-0.15V6.95c0-0.1-0.051-0.15-0.15-0.15h-0.3
					c-0.101,0-0.15-0.05-0.15-0.15v-0.5C44.3,6.05,44.25,6,44.15,6H43.85C43.75,6,43.7,5.95,43.7,5.85l0,0
					c0-0.1-0.05-0.15-0.15-0.15H43.4c-0.101,0-0.15,0.05-0.15,0.15l0,0C43.25,5.95,43.2,6,43.1,6h-0.3c-0.1,0-0.149,0.05-0.149,0.15
					v0.5c0,0.1-0.051,0.15-0.15,0.15h-0.3c-0.101,0-0.15,0.05-0.15,0.15V8.4C41.9,8.5,42,8.55,42.05,8.55z"/>
			</g>
		</g>
	</g>
	<g>
		<circle fill="#ED6B39" cx="3.65" cy="6.45" r="0.8"/>
		<circle fill="#ED6B39" cx="6.4" cy="6.45" r="0.8"/>
		<circle fill="#ED6B39" cx="9.15" cy="6.45" r="0.8"/>
		<circle fill="#ED6B39" cx="11.95" cy="6.45" r="0.8"/>
	</g>
	<g>
		<circle fill="#ED6B39" cx="3.65" cy="9.05" r="0.8"/>
		<circle fill="#ED6B39" cx="6.4" cy="9.05" r="0.8"/>
		<circle fill="#ED6B39" cx="9.15" cy="9.05" r="0.8"/>
		<circle fill="#ED6B39" cx="11.95" cy="9.05" r="0.8"/>
	</g>
	<g>
		<circle fill="#ED6B39" cx="3.65" cy="11.65" r="0.8"/>
		<circle fill="#ED6B39" cx="6.4" cy="11.65" r="0.8"/>
		<circle fill="#ED6B39" cx="9.15" cy="11.65" r="0.8"/>
		<circle fill="#ED6B39" cx="11.95" cy="11.65" r="0.8"/>
	</g>
	<path fill="#27333F" d="M7.75,3.2H2.7c-0.05,0-0.1-0.05-0.1-0.1l0,0C2.6,3.05,2.65,3,2.7,3h5.05c0.05,0,0.1,0.05,0.1,0.1l0,0
		C7.85,3.15,7.8,3.2,7.75,3.2z"/>
	<path fill="#27333F" d="M7.75,4.3H2.7c-0.05,0-0.1-0.05-0.1-0.1l0,0c0-0.05,0.05-0.1,0.1-0.1h5.05c0.05,0,0.1,0.05,0.1,0.1l0,0
		C7.85,4.3,7.8,4.3,7.75,4.3z"/>
</g>
</svg>
