<?xml version="1.0" encoding="utf-8"?>
<!-- Generator: Adobe Illustrator 16.0.0, SVG Export Plug-In . SVG Version: 6.00 Build 0)  -->
<!DOCTYPE svg PUBLIC "-//W3C//DTD SVG 1.1//EN" "http://www.w3.org/Graphics/SVG/1.1/DTD/svg11.dtd">
<svg version="1.1"
	 id="svg2" xmlns:dc="http://purl.org/dc/elements/1.1/" xmlns:cc="http://creativecommons.org/ns#" xmlns:rdf="http://www.w3.org/1999/02/22-rdf-syntax-ns#" xmlns:svg="http://www.w3.org/2000/svg"
	 xmlns="http://www.w3.org/2000/svg" xmlns:xlink="http://www.w3.org/1999/xlink" x="0px" y="0px" width="74px" height="54px"
	 viewBox="0 0 74 54" enable-background="new 0 0 74 54" xml:space="preserve">
<g id="g12" transform="scale(0.1,0.1)">
	<path id="path22" fill="#087FBF" d="M737.466,156.292c0,78.018-162.871,141.24-363.877,141.24C172.9,297.531,10,234.309,10,156.292
		v207.099c0,77.891,162.9,141.172,363.589,141.172c201.006,0,363.877-63.281,363.877-141.172V156.292"/>
	<path id="path24" fill="none" stroke="#FFFFFF" stroke-width="4" d="M737.466,156.292c0,78.018-162.871,141.24-363.877,141.24
		C172.9,297.531,10,234.309,10,156.292v207.099c0,77.891,162.9,141.172,363.589,141.172c201.006,0,363.877-63.281,363.877-141.172
		V156.292z"/>
	<path id="path26" fill="#087FBF" d="M373.589,297.531c201.006,0,363.877-63.222,363.877-141.24
		c0-78.027-162.871-141.289-363.877-141.289C172.9,15.002,10,78.264,10,156.292C10,234.309,172.9,297.531,373.589,297.531"/>
	<path id="path28" fill="none" stroke="#FFFFFF" stroke-width="4" d="M373.589,297.531c201.006,0,363.877-63.222,363.877-141.24
		c0-78.027-162.871-141.289-363.877-141.289C172.9,15.002,10,78.264,10,156.292C10,234.309,172.9,297.531,373.589,297.531z"/>
	<path id="path30" fill="#FFFFFF" d="M290.718,101.062l30.02,44.995l-113.579,26.221l24.858-20.645L56.455,121.682l44.082-32.944
		l169.302,28.628L290.718,101.062"/>
	<path id="path32" fill="#FFFFFF" d="M450.415,210.227l-20.518-46.416l102.578-20.464l-17.744,15.928l170.693,29.058l-41.016,32.832
		l-169.717-31.855L450.415,210.227"/>
	<path id="path34" fill="#FFFFFF" d="M394.556,76.501l114.551-31.387l1.416,49.121l-28.525-5.459l-56.104,46.396l-53.389-7.793
		L430.337,82L394.556,76.501"/>
	<path id="path36" fill="#FFFFFF" d="M345.259,252.512L236.069,273l-4.063-50.547l31.338,6.846l60.137-51.318l53.33,9.043
		l-64.316,55.938L345.259,252.512"/>
	<g id="g38" transform="scale(10,10)" style="font-variant:normal;font-weight:bold;font-size:17.78px;font-family:Helvetica;-inkscape-font-specification:Helvetica-Bold;writing-mode:lr-tb;fill:#ffffff;fill-opacity:1;fill-rule:nonzero;stroke:none">
		<text transform="matrix(1.001 0 0 1 23.6075 45.8069)">I</text>
		<text transform="matrix(1.001 0 0 1 28.5689 45.8069)">A</text>
		<text transform="matrix(1.001 0 0 1 41.4165 45.8069)">D</text>
	</g>
</g>
</svg>
