<?xml version="1.0" encoding="utf-8"?>
<!-- Generator: Adobe Illustrator 16.0.0, SVG Export Plug-In . SVG Version: 6.00 Build 0)  -->
<!DOCTYPE svg PUBLIC "-//W3C//DTD SVG 1.1//EN" "http://www.w3.org/Graphics/SVG/1.1/DTD/svg11.dtd">
<svg version="1.1"
	 id="svg2" xmlns:dc="http://purl.org/dc/elements/1.1/" xmlns:cc="http://creativecommons.org/ns#" xmlns:rdf="http://www.w3.org/1999/02/22-rdf-syntax-ns#" xmlns:svg="http://www.w3.org/2000/svg"
	 xmlns="http://www.w3.org/2000/svg" xmlns:xlink="http://www.w3.org/1999/xlink" x="0px" y="0px" width="53px" height="75px"
	 viewBox="0 0 53 75" enable-background="new 0 0 53 75" xml:space="preserve">
<g id="g12" transform="scale(0.1,0.1)">
	<path id="path22" fill="#02709F" d="M410.771,123.259H209.746L210.82,725.1h199.951V123.259"/>
	<path id="path24" fill="none" stroke="#FFFFFF" stroke-width="3.9999" d="M410.771,123.259H209.746L210.82,725.1h199.951V123.259z"
		/>
	<path id="path26" fill="#02709F" d="M238.32,342.59h141.836V206.389H238.32V342.59z"/>
	<path id="path28" fill="none" stroke="#FFFFFF" stroke-width="3.9999" d="M238.32,342.59h141.836V206.389H238.32V342.59z"/>
	<path id="path30" fill="#02709F" d="M530,2.043L411.025,125.71v599.526l118.896-141.045L530,2.043"/>
	<path id="path32" fill="none" stroke="#FFFFFF" stroke-width="3.9999" d="M530,2.043L411.025,125.71v599.526l118.896-141.045
		L530,2.043z"/>
	<path id="path34" fill="#02709F" d="M35.22,119.753h164.604"/>
	<path id="path36" fill="none" stroke="#FFFFFF" stroke-width="3.9999" d="M35.22,119.753h164.604"/>
	<path id="path38" fill="#02709F" d="M233.34,99.807l75.605-82.803"/>
	<path id="path40" fill="none" stroke="#FFFFFF" stroke-width="3.9999" d="M233.34,99.807l75.605-82.803"/>
	<path id="path42" fill="#02709F" d="M203.301,132.224c0,0-0.957,39.849-73.452,39.033L1.602,151.633v-7.72L181.963,0.002
		l347.051,0.313l-116.963,122.9H211.016"/>
	<path id="path44" fill="none" stroke="#FFFFFF" stroke-width="3.9999" d="M203.301,132.224c0,0-0.957,39.849-73.452,39.033
		L1.602,151.633v-7.72L181.963,0.002l347.051,0.313l-116.963,122.9H211.016"/>
	<path id="path46" fill="#02709F" d="M209.414,125.325c0,0-58.237,34.238-125.132,26.509L0,144.714v600.522l84.282,3.613
		c85.464,7.422,125.483-23.34,125.483-23.34L209.414,125.325"/>
	<path id="path48" fill="none" stroke="#FFFFFF" stroke-width="3.9999" d="M209.414,125.325c0,0-58.237,34.238-125.132,26.509
		L0,144.714v600.522l84.282,3.613c85.464,7.422,125.483-23.34,125.483-23.34L209.414,125.325z"/>
	<path id="path50" fill="#02709F" d="M36.812,117h164.644"/>
	<path id="path52" fill="none" stroke="#FFFFFF" stroke-width="3.9999" d="M36.812,117h164.644"/>
	<path id="path54" fill="#02709F" d="M249.824,97.073l90.303-83.32"/>
	<path id="path56" fill="none" stroke="#FFFFFF" stroke-width="3.9999" d="M249.824,97.073l90.303-83.32"/>
</g>
</svg>
