<?xml version="1.0" encoding="utf-8"?>
<!-- Generator: Adobe Illustrator 16.0.0, SVG Export Plug-In . SVG Version: 6.00 Build 0)  -->
<!DOCTYPE svg PUBLIC "-//W3C//DTD SVG 1.1//EN" "http://www.w3.org/Graphics/SVG/1.1/DTD/svg11.dtd">
<svg version="1.1"
	 id="svg2" xmlns:dc="http://purl.org/dc/elements/1.1/" xmlns:cc="http://creativecommons.org/ns#" xmlns:rdf="http://www.w3.org/1999/02/22-rdf-syntax-ns#" xmlns:svg="http://www.w3.org/2000/svg"
	 xmlns="http://www.w3.org/2000/svg" xmlns:xlink="http://www.w3.org/1999/xlink" x="0px" y="0px" width="53px" height="77px"
	 viewBox="0 0 53 77" enable-background="new 0 0 53 77" xml:space="preserve">
<g id="g12" transform="scale(0.1,0.1)">
	<path id="path22" fill="#02709F" d="M0.002,770.005h401.689V128.589H0.002V770.005z"/>
	<path id="path24" fill="none" stroke="#FFFFFF" stroke-width="3.9999" d="M401.692,128.589H0.002v641.416h401.689"/>
	<path id="path26" fill="#02709F" d="M401.692,770.005l128.311-128.594V0h-365.83L0.002,128.589h401.689V770.005"/>
	<path id="path28" fill="none" stroke="#FFFFFF" stroke-width="3.9999" d="M401.692,770.005l128.311-128.594V0h-365.83
		L0.002,128.589h401.689V770.005z"/>
	<path id="path30" fill="#02709F" d="M401.692,128.589L530.002,0"/>
	<path id="path32" fill="none" stroke="#FFFFFF" stroke-width="3.9999" d="M401.692,128.589L530.002,0"/>
	<path id="path34" fill="#02709F" d="M6.506,180.591h391.572"/>
	<path id="path36" fill="none" stroke="#FFFFFF" stroke-width="3.9999" d="M6.506,180.591h391.572"/>
	<path id="path38" fill="#02709F" d="M401.35,184.634L526.975,57.075"/>
	<path id="path40" fill="none" stroke="#FFFFFF" stroke-width="3.9999" d="M401.35,184.634L526.975,57.075"/>
	<path id="path42" fill="#02709F" d="M35.774,337.583h138.682v-32.715H35.774V337.583z"/>
	<path id="path44" fill="none" stroke="#FFFFFF" stroke-width="3.9999" d="M35.774,337.583h138.682v-32.715H35.774V337.583z"/>
	<path id="path46" fill="#02709F" d="M223.401,337.583h138.682v-32.715H223.401V337.583z"/>
	<path id="path48" fill="none" stroke="#FFFFFF" stroke-width="3.9999" d="M223.401,337.583h138.682v-32.715H223.401V337.583z"/>
</g>
</svg>
