<?xml version="1.0" encoding="utf-8"?>
<!-- Generator: Adobe Illustrator 16.0.0, SVG Export Plug-In . SVG Version: 6.00 Build 0)  -->
<!DOCTYPE svg PUBLIC "-//W3C//DTD SVG 1.1//EN" "http://www.w3.org/Graphics/SVG/1.1/DTD/svg11.dtd">
<svg version="1.1"
	 id="svg2" xmlns:dc="http://purl.org/dc/elements/1.1/" xmlns:cc="http://creativecommons.org/ns#" xmlns:rdf="http://www.w3.org/1999/02/22-rdf-syntax-ns#" xmlns:svg="http://www.w3.org/2000/svg"
	 xmlns="http://www.w3.org/2000/svg" xmlns:xlink="http://www.w3.org/1999/xlink" x="0px" y="0px" width="43px" height="78px"
	 viewBox="0 0 43 78" enable-background="new 0 0 43 78" xml:space="preserve">
<g id="g12" transform="scale(0.1,0.1)">
	<path id="path22" fill="#02709F" d="M30.952,749.385h323.081v-688.1H30.952V749.385z"/>
	<path id="path24" fill="none" stroke="#FFFFFF" stroke-width="3.9999" d="M30.952,749.385h323.081v-688.1H30.952V749.385z"/>
	<path id="path26" fill="#02709F" d="M30.952,61.279L92.739,0h311.548l-50.254,61.279H30.952"/>
	<path id="path28" fill="none" stroke="#FFFFFF" stroke-width="3.9999" d="M30.952,61.279L92.739,0h311.548l-50.254,61.279H30.952z"
		/>
	<path id="path30" fill="#02709F" d="M354.033,749.385l50.254-95.635V0l-50.254,61.279V749.385"/>
	<path id="path32" fill="none" stroke="#FFFFFF" stroke-width="3.9999" d="M354.033,749.385l50.254-95.635V0l-50.254,61.279V749.385
		z"/>
	<path id="path34" fill="#02709F" d="M379.844,780l-25.811-30.615H30.952L0,780H379.844"/>
	<path id="path36" fill="none" stroke="#FFFFFF" stroke-width="3.9999" d="M379.844,780l-25.811-30.615H30.952L0,780H379.844z"/>
	<path id="path38" fill="#02709F" d="M379.844,780L430,673.301l-25.713-19.551l-50.254,95.635L379.844,780"/>
	<path id="path40" fill="none" stroke="#FFFFFF" stroke-width="3.9999" d="M379.844,780L430,673.301l-25.713-19.551l-50.254,95.635
		L379.844,780z"/>
	<path id="path42" d="M354.033,749.385H30.952"/>
	<path id="path44" fill="none" stroke="#FFFFFF" stroke-width="3.9999" d="M354.033,749.385H30.952"/>
	<path id="path46" d="M404.287,653.75l-50.254,95.635"/>
	<path id="path48" fill="none" stroke="#FFFFFF" stroke-width="3.9999" d="M404.287,653.75l-50.254,95.635"/>
	<path id="path50" fill="#02709F" d="M31.05,92.969h321.919"/>
	<path id="path52" fill="none" stroke="#FFFFFF" stroke-width="3.9999" d="M31.05,92.969h321.919"/>
	<path id="path54" fill="#02709F" d="M30.879,96.826H352.49"/>
	<path id="path56" fill="none" stroke="#FFFFFF" stroke-width="3.9999" d="M30.879,96.826H352.49"/>
	<path id="path58" d="M287.285,179.302H52.681v21.455h43.247"/>
	<path id="path60" fill="none" stroke="#FFFFFF" stroke-width="3.9999" d="M287.285,179.302H52.681v21.455h43.247"/>
	<path id="path62" d="M287.285,219.263H52.681v21.46h43.247"/>
	<path id="path64" fill="none" stroke="#FFFFFF" stroke-width="3.9999" d="M287.285,219.263H52.681v21.46h43.247"/>
	<path id="path66" d="M287.285,259.082H52.681v21.611h43.247"/>
	<path id="path68" fill="none" stroke="#FFFFFF" stroke-width="3.9999" d="M287.285,259.082H52.681v21.611h43.247"/>
	<path id="path70" d="M287.285,299.053H52.681v21.611h43.247"/>
	<path id="path72" fill="none" stroke="#FFFFFF" stroke-width="3.9999" d="M287.285,299.053H52.681v21.611h43.247"/>
	<path id="path74" d="M287.285,339.023H52.681v21.611h43.247"/>
	<path id="path76" fill="none" stroke="#FFFFFF" stroke-width="3.9999" d="M287.285,339.023H52.681v21.611h43.247"/>
	<path id="path78" d="M287.285,378.984H52.681v21.611h43.247"/>
	<path id="path80" fill="none" stroke="#FFFFFF" stroke-width="3.9999" d="M287.285,378.984H52.681v21.611h43.247"/>
	<path id="path82" d="M287.285,418.945H52.681V440.4h43.247"/>
	<path id="path84" fill="none" stroke="#FFFFFF" stroke-width="3.9999" d="M287.285,418.945H52.681V440.4h43.247"/>
	<path id="path86" d="M287.285,458.779H52.681v21.768h43.247"/>
	<path id="path88" fill="none" stroke="#FFFFFF" stroke-width="3.9999" d="M287.285,458.779H52.681v21.768h43.247"/>
	<path id="path90" d="M287.285,498.887H52.681v21.455h43.247"/>
	<path id="path92" fill="none" stroke="#FFFFFF" stroke-width="3.9999" d="M287.285,498.887H52.681v21.455h43.247"/>
	<path id="path94" d="M287.285,538.711H52.681v21.768h43.247"/>
	<path id="path96" fill="none" stroke="#FFFFFF" stroke-width="3.9999" d="M287.285,538.711H52.681v21.768h43.247"/>
	<path id="path98" d="M287.285,578.828H52.681v21.455h43.247"/>
	<path id="path100" fill="none" stroke="#FFFFFF" stroke-width="3.9999" d="M287.285,578.828H52.681v21.455h43.247"/>
	<path id="path102" d="M287.285,618.633H52.681V640.4h43.247"/>
	<path id="path104" fill="none" stroke="#FFFFFF" stroke-width="3.9999" d="M287.285,618.633H52.681V640.4h43.247"/>
	<path id="path106" d="M287.285,658.76H52.681v21.455h43.247"/>
	<path id="path108" fill="none" stroke="#FFFFFF" stroke-width="3.9999" d="M287.285,658.76H52.681v21.455h43.247"/>
	<path id="path110" d="M287.285,698.574H52.681v21.455h43.247"/>
	<path id="path112" fill="none" stroke="#FFFFFF" stroke-width="3.9999" d="M287.285,698.574H52.681v21.455h43.247"/>
</g>
</svg>
