<?xml version="1.0" encoding="utf-8"?>
<!-- Generator: Adobe Illustrator 16.0.0, SVG Export Plug-In . SVG Version: 6.00 Build 0)  -->
<!DOCTYPE svg PUBLIC "-//W3C//DTD SVG 1.1//EN" "http://www.w3.org/Graphics/SVG/1.1/DTD/svg11.dtd">
<svg version="1.1"
	 id="svg2" xmlns:dc="http://purl.org/dc/elements/1.1/" xmlns:cc="http://creativecommons.org/ns#" xmlns:rdf="http://www.w3.org/1999/02/22-rdf-syntax-ns#" xmlns:svg="http://www.w3.org/2000/svg"
	 xmlns="http://www.w3.org/2000/svg" xmlns:xlink="http://www.w3.org/1999/xlink" x="0px" y="0px" width="36px" height="75px"
	 viewBox="0 0 36 75" enable-background="new 0 0 36 75" xml:space="preserve">
<g id="g12" transform="scale(0.1,0.1)">
	<path id="path22" fill="#087FBF" d="M26.287,746.36l36.074,3.643h150.488l36.719-3.867l20.469-15.996l2.061-8.652l0.645-586.772
		H3.894l-0.576,594.78L26.287,746.36"/>
	<path id="path24" fill="none" stroke="#FFFFFF" stroke-width="4" d="M26.287,746.36l36.074,3.643h150.488l36.719-3.867
		l20.469-15.996l2.061-8.652l0.645-586.772H3.894l-0.576,594.78L26.287,746.36z"/>
	<path id="path26" fill="#087FBF" d="M359.753,0.281l-86.846,81.826l-0.664,637.339l87.754-100.547L359.753,0.281"/>
	<path id="path28" fill="none" stroke="#FFFFFF" stroke-width="4" d="M359.753,0.281l-86.846,81.826l-0.664,637.339l87.754-100.547
		L359.753,0.281z"/>
	<path id="path30" fill="#087FBF" d="M273.494,133.269l85.781-83.535"/>
	<path id="path32" fill="none" stroke="#FFFFFF" stroke-width="4" d="M273.494,133.269l85.781-83.535"/>
	<path id="path34" fill="#087FBF" d="M258.406,186.799v-11.841"/>
	<path id="path36" fill="none" stroke="#FFFFFF" stroke-width="4" d="M258.406,186.799v-11.841"/>
	<path id="path38" fill="#087FBF" d="M258.406,186.799v-11.841"/>
	<path id="path40" fill="none" stroke="#FFFFFF" stroke-width="4" d="M258.406,186.799v-11.841"/>
	<path id="path42" fill="#087FBF" d="M272.244,672.971l85.322-93.477"/>
	<path id="path44" fill="none" stroke="#FFFFFF" stroke-width="4" d="M272.244,672.971l85.322-93.477"/>
	<path id="path46" fill="#087FBF" d="M81.423,0.002l278.33,0.278l-86.846,81.826c0,0-111.143,40.225-272.637-3.721L81.423,0.002"/>
	<path id="path48" fill="none" stroke="#FFFFFF" stroke-width="4" d="M81.423,0.002l278.33,0.278l-86.846,81.826
		c0,0-111.143,40.225-272.637-3.721L81.423,0.002z"/>
	<path id="path50" fill="#087FBF" d="M0.271,78.386c161.494,43.945,272.637,3.721,272.637,3.721l-0.02,50.098
		c0,0-111.357,41.079-272.891-2.866L0.271,78.386"/>
	<path id="path52" fill="none" stroke="#FFFFFF" stroke-width="4" d="M0.271,78.386c161.494,43.945,272.637,3.721,272.637,3.721
		l-0.02,50.098c0,0-111.357,41.079-272.891-2.866L0.271,78.386z"/>
	<path id="path54" fill="#087FBF" d="M270.515,322.346H4.324v7.998"/>
	<path id="path56" fill="none" stroke="#FFFFFF" stroke-width="4" d="M270.515,322.346H4.324v7.998"/>
	<path id="path58" fill="#087FBF" d="M5.066,226.658h266.211"/>
	<path id="path60" fill="none" stroke="#FFFFFF" stroke-width="4" d="M5.066,226.658h266.211"/>
	<path id="path62" fill="#087FBF" d="M5.066,268.704l266.211-0.195"/>
	<path id="path64" fill="none" stroke="#FFFFFF" stroke-width="4" d="M5.066,268.704l266.211-0.195"/>
	<path id="path66" fill="#087FBF" d="M5.066,226.658h266.211"/>
	<path id="path68" fill="none" stroke="#FFFFFF" stroke-width="4" d="M5.066,226.658h266.211"/>
	<path id="path70" fill="#087FBF" d="M5.388,351.536l20.459,15.859l36.875,4.004"/>
	<path id="path72" fill="none" stroke="#FFFFFF" stroke-width="4" d="M5.388,351.536l20.459,15.859l36.875,4.004"/>
	<path id="path74" fill="#087FBF" d="M20.349,206.804h238.496v-32.573H20.349V206.804z"/>
	<path id="path76" fill="none" stroke="#FFFFFF" stroke-width="4" d="M20.349,206.804h238.496v-32.573H20.349V206.804z"/>
	<path id="path78" fill="#087FBF" d="M62.361,343.157h150.488l36.719-4.014l20.469-15.85"/>
	<path id="path80" fill="none" stroke="#FFFFFF" stroke-width="4" d="M62.361,343.157h150.488l36.719-4.014l20.469-15.85"/>
	<path id="path82" fill="#087FBF" d="M62.361,371.33h150.488l36.719-3.994l20.469-15.859"/>
	<path id="path84" fill="none" stroke="#FFFFFF" stroke-width="4" d="M62.361,371.33h150.488l36.719-3.994l20.469-15.859"/>
	<path id="path86" fill="#087FBF" d="M5.017,323.293l20.479,15.85l36.865,4.014"/>
	<path id="path88" fill="none" stroke="#FFFFFF" stroke-width="4" d="M5.017,323.293l20.479,15.85l36.865,4.014"/>
	<path id="path90" fill="#087FBF" d="M5.388,410.051l20.459,15.713l36.875,4.15"/>
	<path id="path92" fill="none" stroke="#FFFFFF" stroke-width="4" d="M5.388,410.051l20.459,15.713l36.875,4.15"/>
	<path id="path94" fill="#087FBF" d="M62.361,401.535h150.488l36.719-3.877l20.469-15.986"/>
	<path id="path96" fill="none" stroke="#FFFFFF" stroke-width="4" d="M62.361,401.535h150.488l36.719-3.877l20.469-15.986"/>
	<path id="path98" fill="#087FBF" d="M62.361,429.846h150.488l36.719-4.15l20.469-15.693"/>
	<path id="path100" fill="none" stroke="#FFFFFF" stroke-width="4" d="M62.361,429.846h150.488l36.719-4.15l20.469-15.693"/>
	<path id="path102" fill="#087FBF" d="M5.017,381.672l20.479,15.986l36.865,3.877"/>
	<path id="path104" fill="none" stroke="#FFFFFF" stroke-width="4" d="M5.017,381.672l20.479,15.986l36.865,3.877"/>
	<path id="path106" fill="#087FBF" d="M5.388,468.576l20.459,15.703l36.875,4.16"/>
	<path id="path108" fill="none" stroke="#FFFFFF" stroke-width="4" d="M5.388,468.576l20.459,15.703l36.875,4.16"/>
	<path id="path110" fill="#087FBF" d="M62.361,460.051h150.488l36.719-3.867l20.469-15.996"/>
	<path id="path112" fill="none" stroke="#FFFFFF" stroke-width="4" d="M62.361,460.051h150.488l36.719-3.867l20.469-15.996"/>
	<path id="path114" fill="#087FBF" d="M62.361,488.371h150.488l36.719-4.15l20.469-15.986"/>
	<path id="path116" fill="none" stroke="#FFFFFF" stroke-width="4" d="M62.361,488.371h150.488l36.719-4.15l20.469-15.986"/>
	<path id="path118" fill="#087FBF" d="M5.017,440.188l20.479,15.996l36.865,3.867"/>
	<path id="path120" fill="none" stroke="#FFFFFF" stroke-width="4" d="M5.017,440.188l20.479,15.996l36.865,3.867"/>
	<path id="path122" fill="#087FBF" d="M5.388,526.809l20.459,15.996l36.875,4.15"/>
	<path id="path124" fill="none" stroke="#FFFFFF" stroke-width="4" d="M5.388,526.809l20.459,15.996l36.875,4.15"/>
	<path id="path126" fill="#087FBF" d="M62.361,518.567h150.488l36.719-3.867l20.469-15.996"/>
	<path id="path128" fill="none" stroke="#FFFFFF" stroke-width="4" d="M62.361,518.567h150.488l36.719-3.867l20.469-15.996"/>
	<path id="path130" fill="#087FBF" d="M62.361,546.604h150.488l36.719-3.867l20.469-15.977"/>
	<path id="path132" fill="none" stroke="#FFFFFF" stroke-width="4" d="M62.361,546.604h150.488l36.719-3.867l20.469-15.977"/>
	<path id="path134" fill="#087FBF" d="M5.017,498.703l20.479,15.996l36.865,3.867"/>
	<path id="path136" fill="none" stroke="#FFFFFF" stroke-width="4" d="M5.017,498.703l20.479,15.996l36.865,3.867"/>
	<path id="path138" fill="#087FBF" d="M5.388,585.324l20.459,15.996l36.875,3.867"/>
	<path id="path140" fill="none" stroke="#FFFFFF" stroke-width="4" d="M5.388,585.324l20.459,15.996l36.875,3.867"/>
	<path id="path142" fill="#087FBF" d="M62.361,577.092h150.488l36.719-4.16l20.469-15.703"/>
	<path id="path144" fill="none" stroke="#FFFFFF" stroke-width="4" d="M62.361,577.092h150.488l36.719-4.16l20.469-15.703"/>
	<path id="path146" fill="#087FBF" d="M62.361,605.119h150.488l36.719-3.857l20.469-15.996"/>
	<path id="path148" fill="none" stroke="#FFFFFF" stroke-width="4" d="M62.361,605.119h150.488l36.719-3.857l20.469-15.996"/>
	<path id="path150" fill="#087FBF" d="M5.017,557.229l20.479,15.703l36.865,4.16"/>
	<path id="path152" fill="none" stroke="#FFFFFF" stroke-width="4" d="M5.017,557.229l20.479,15.703l36.865,4.16"/>
	<path id="path154" fill="#087FBF" d="M5.388,643.84l20.459,15.996l36.875,3.867"/>
	<path id="path156" fill="none" stroke="#FFFFFF" stroke-width="4" d="M5.388,643.84l20.459,15.996l36.875,3.867"/>
	<path id="path158" fill="#087FBF" d="M62.361,635.608h150.488l36.719-4.15l20.469-15.713"/>
	<path id="path160" fill="none" stroke="#FFFFFF" stroke-width="4" d="M62.361,635.608h150.488l36.719-4.15l20.469-15.713"/>
	<path id="path162" fill="#087FBF" d="M62.361,663.635h150.488l36.719-3.867l20.469-15.977"/>
	<path id="path164" fill="none" stroke="#FFFFFF" stroke-width="4" d="M62.361,663.635h150.488l36.719-3.867l20.469-15.977"/>
	<path id="path166" fill="#087FBF" d="M5.017,615.744l20.479,15.713l36.865,4.15"/>
	<path id="path168" fill="none" stroke="#FFFFFF" stroke-width="4" d="M5.017,615.744l20.479,15.713l36.865,4.15"/>
	<path id="path170" fill="#087FBF" d="M5.388,702.365l20.459,15.986l36.875,3.877"/>
	<path id="path172" fill="none" stroke="#FFFFFF" stroke-width="4" d="M5.388,702.365l20.459,15.986l36.875,3.877"/>
	<path id="path174" fill="#087FBF" d="M62.361,694.123h150.488l36.719-4.15l20.469-15.996"/>
	<path id="path176" fill="none" stroke="#FFFFFF" stroke-width="4" d="M62.361,694.123h150.488l36.719-4.15l20.469-15.996"/>
	<path id="path178" fill="#087FBF" d="M62.361,722.16h150.488l36.719-3.867l20.469-15.986"/>
	<path id="path180" fill="none" stroke="#FFFFFF" stroke-width="4" d="M62.361,722.16h150.488l36.719-3.867l20.469-15.986"/>
	<path id="path182" fill="#087FBF" d="M5.017,673.977l20.479,15.996l36.865,4.15"/>
	<path id="path184" fill="none" stroke="#FFFFFF" stroke-width="4" d="M5.017,673.977l20.479,15.996l36.865,4.15"/>
</g>
</svg>
