<?xml version="1.0" encoding="utf-8"?>
<!-- Generator: Adobe Illustrator 16.0.0, SVG Export Plug-In . SVG Version: 6.00 Build 0)  -->
<!DOCTYPE svg PUBLIC "-//W3C//DTD SVG 1.1//EN" "http://www.w3.org/Graphics/SVG/1.1/DTD/svg11.dtd">
<svg version="1.1"
	 id="svg2" xmlns:dc="http://purl.org/dc/elements/1.1/" xmlns:cc="http://creativecommons.org/ns#" xmlns:rdf="http://www.w3.org/1999/02/22-rdf-syntax-ns#" xmlns:svg="http://www.w3.org/2000/svg"
	 xmlns="http://www.w3.org/2000/svg" xmlns:xlink="http://www.w3.org/1999/xlink" x="0px" y="0px" width="72px" height="78px"
	 viewBox="0 0 72 78" enable-background="new 0 0 72 78" xml:space="preserve">
<g id="g12" transform="scale(0.1,0.1)">
	<path id="path22" fill="#087FBF" d="M360.383,780.002L0.789,591.115V188.894l359.595,188.891V780.002"/>
	<path id="path24" fill="none" stroke="#FFFFFF" stroke-width="4" d="M360.383,780.002L0.789,591.115V188.894l359.595,188.891
		V780.002z"/>
	<path id="path26" fill="#087FBF" d="M360.383,780.002l359.619-188.887V188.894L360.383,377.785V780.002"/>
	<path id="path28" fill="none" stroke="#FFFFFF" stroke-width="4" d="M360.383,780.002l359.619-188.887V188.894L360.383,377.785
		V780.002z"/>
	<path id="path30" fill="#087FBF" d="M360.383,377.785l359.619-188.891L360.383,0.002L0.789,188.894L360.383,377.785"/>
	<path id="path32" fill="none" stroke="#FFFFFF" stroke-width="4" d="M360.383,377.785l359.619-188.891L360.383,0.002L0.789,188.894
		L360.383,377.785z"/>
	<path id="path34" fill="#087FBF" d="M720.002,589.612L360.383,780.002V379.289l359.619-190.395V589.612"/>
	<path id="path36" fill="none" stroke="#FFFFFF" stroke-width="4" d="M720.002,589.612L360.383,780.002V379.289l359.619-190.395
		V589.612z"/>
	<path id="path38" fill="#FFFFFF" d="M360.383,210.964l75.654,40.454h-45.488v75.684h-60.322v-75.684h-45.469L360.383,210.964"/>
	<path id="path40" fill="#FFFFFF" d="M634.856,188.953l-75.459,40.601v-24.321H418.45v-32.407h140.947v-24.312L634.856,188.953"/>
	<path id="path42" fill="#FFFFFF" d="M360.383,169.788l-75.625-40.591h45.469V53.65h60.322v75.547h45.488L360.383,169.788"/>
	<path id="path44" fill="#FFFFFF" d="M85.911,188.953l75.488-40.439v24.312h141.104v32.407H161.399v24.321L85.911,188.953"/>
	<path id="path46" fill="#FFFFFF" d="M686.477,474.397V245.696L410.051,392.258v228.535L686.477,474.397"/>
	<path id="path48" fill="none" stroke="#087FBF" stroke-width="4" stroke-linecap="round" stroke-linejoin="round" d="
		M686.477,474.397V245.696L410.051,392.258v228.535L686.477,474.397z"/>
	<path id="path50" fill="#FFFFFF" d="M449.963,394.856l194.492-103.008c12.461-6.602,22.871-0.84,22.871,12.949v134.638
		c0,13.799-10.41,30.498-22.871,37.256L449.963,579.563c-12.441,6.748-22.832,0.83-22.832-12.959V431.975
		C427.131,418.166,437.522,401.467,449.963,394.856"/>
	<path id="path52" fill="none" stroke="#087FBF" stroke-width="4" stroke-linecap="round" stroke-linejoin="round" d="
		M449.963,394.856l194.492-103.008c12.461-6.602,22.871-0.84,22.871,12.949v134.638c0,13.799-10.41,30.498-22.871,37.256
		L449.963,579.563c-12.441,6.748-22.832,0.83-22.832-12.959V431.975C427.131,418.166,437.522,401.467,449.963,394.856z"/>
	<path id="path54" fill="#FFFFFF" d="M625.54,534.797l-154.541,82.041v-28.232l154.541-82.041V534.797"/>
	<path id="path56" fill="none" stroke="#087FBF" stroke-width="4" stroke-linecap="round" stroke-linejoin="round" d="
		M625.54,534.797l-154.541,82.041v-28.232l154.541-82.041V534.797z"/>
	<path id="path58" fill="#FFFFFF" d="M686.477,569.231L410.051,715.92v-66.377l276.426-146.709V569.231"/>
	<path id="path60" fill="none" stroke="#087FBF" stroke-width="4" stroke-linecap="round" stroke-linejoin="round" d="
		M686.477,569.231L410.051,715.92v-66.377l276.426-146.709V569.231z"/>
	<path id="path62" fill="#FFFFFF" d="M695.1,578.274L401.174,734.172V705.94L695.1,550.041V578.274"/>
	<path id="path64" fill="none" stroke="#087FBF" stroke-width="4" stroke-linecap="round" stroke-linejoin="round" d="
		M695.1,578.274L401.174,734.172V705.94L695.1,550.041V578.274z"/>
	<path id="path66" fill="#087FBF" d="M555.471,450.334l-32.588,52.373V385.793l77.832,42.979L555.471,450.334"/>
	<path id="path68" fill="#747272" d="M552.473,453.332l22.158,44.199l6.016-5.684l-22.158-44.189L552.473,453.332"/>
	<path id="path70" fill="#FFFFFF" d="M335.188,656.076v-89.199l-53.691,15.039L335.188,656.076"/>
	<path id="path72" fill="none" stroke="#FFFFFF" stroke-width="0.76" d="M335.188,656.076v-89.199l-53.691,15.039L335.188,656.076z"
		/>
	<path id="path74" fill="#FFFFFF" d="M28.884,496.067v-89.16l53.667,70.771L28.884,496.067"/>
	<path id="path76" fill="none" stroke="#FFFFFF" stroke-width="0.76" d="M28.884,496.067v-89.16l53.667,70.771L28.884,496.067z"/>
	<path id="path78" fill="#FFFFFF" d="M64.797,337.854v89.326l-53.682-70.967L64.797,337.854"/>
	<path id="path80" fill="none" stroke="#FFFFFF" stroke-width="0.76" d="M64.797,337.854v89.326l-53.682-70.967L64.797,337.854z"/>
	<path id="path82" fill="#FFFFFF" d="M294.973,458.381v89.16l53.691-15.02L294.973,458.381"/>
	<path id="path84" fill="none" stroke="#FFFFFF" stroke-width="0.76" d="M294.973,458.381v89.16l53.691-15.02L294.973,458.381z"/>
	<path id="path86" fill="#FFFFFF" d="M306.702,507.883l-32.383-16.797"/>
	<path id="path88" fill="#FFFFFF" d="M270.676,503.547l32.559,16.807l6.953-14.502l-38.379-19.844L270.676,503.547"/>
	<path id="path90" fill="#FFFFFF" d="M318.059,600.217l40.469,21.191"/>
	<path id="path92" fill="none" stroke="#FFFFFF" stroke-width="7.6" d="M318.059,600.217l40.469,21.191"/>
	<path id="path94" fill="#FFFFFF" d="M43.274,456.467L0.002,434.143"/>
	<path id="path96" fill="none" stroke="#FFFFFF" stroke-width="7.6" d="M43.274,456.467L0.002,434.143"/>
	<path id="path98" fill="#FFFFFF" d="M45.002,373.664l40.635,21.221"/>
	<path id="path100" fill="#FFFFFF" d="M41.526,380.91l47.148,24.209l0.444-17.49L48.63,366.438L41.526,380.91"/>
	<path id="path102" fill="#FFFFFF" d="M245.393,475.246L245.071,655.1l-127.085-66.934l-0.308-180.02L245.393,475.246"/>
	<path id="path104" fill="#FFFFFF" d="M223.03,515.08l-82.339-43.555v-32.773l82.339,43.545V515.08"/>
	<path id="path106" fill="none" stroke="#087FBF" stroke-width="4" d="M223.03,515.08l-82.339-43.555v-32.773l82.339,43.545V515.08z
		"/>
	<path id="path108" fill="#FFFFFF" d="M223.03,626.262l-82.339-43.545v-82.08l82.339,43.857V626.262"/>
	<path id="path110" fill="none" stroke="#087FBF" stroke-width="4" d="M223.03,626.262l-82.339-43.545v-82.08l82.339,43.857V626.262
		z"/>
	<path id="path112" fill="#FFFFFF" d="M210.452,404.397c0,0,4.224,1.006,7.183,13.008l0.708,19.98l54.912,34.355l6.035-11.68
		l-16.006-36.348c-49.043-35.557-60.752-41.436-60.752-41.436l-15.195-8.545c0,0-42.236-17.52-64.751-23.701l-26.23,11.035
		l-3.208,17.158l57.456,21.67l0.552-15.957c1.782-9.473,12.134-2.969,12.134-2.969L210.452,404.397"/>
	<path id="path114" fill="#FFFFFF" d="M223.03,529.475l-82.339-43.555"/>
	<path id="path116" fill="none" stroke="#087FBF" stroke-width="4" d="M223.03,529.475l-82.339-43.555"/>
</g>
</svg>
