<?xml version="1.0" encoding="utf-8"?>
<!-- Generator: Adobe Illustrator 16.0.0, SVG Export Plug-In . SVG Version: 6.00 Build 0)  -->
<!DOCTYPE svg PUBLIC "-//W3C//DTD SVG 1.1//EN" "http://www.w3.org/Graphics/SVG/1.1/DTD/svg11.dtd">
<svg version="1.1" id="图层_1" xmlns="http://www.w3.org/2000/svg" xmlns:xlink="http://www.w3.org/1999/xlink" x="0px" y="0px"
	 width="75px" height="75px" viewBox="0 0 75 75" enable-background="new 0 0 75 75" xml:space="preserve">
<g id="Layer_1">
	<path fill="#19486F" d="M55.829,68.048H19.171c-5.267,0-9.585-4.318-9.585-9.585V21.804c0-5.267,4.318-9.585,9.585-9.585h36.658
		c5.267,0,9.586,4.318,9.586,9.585v36.659C65.415,63.729,61.096,68.048,55.829,68.048z"/>
	<path fill="#2E73B8" d="M55.829,65.415H19.171c-5.267,0-9.585-4.319-9.585-9.586V19.171c0-5.267,4.318-9.585,9.585-9.585h36.658
		c5.267,0,9.586,4.318,9.586,9.585v36.658C65.415,61.096,61.096,65.415,55.829,65.415z"/>
	<rect x="48.034" fill="#2E73B8" width="4.213" height="14.431"/>
	<rect x="22.752" fill="#2E73B8" width="4.214" height="14.431"/>
	<rect x="41.713" fill="#2E73B8" width="4.214" height="14.431"/>
	<rect x="29.073" fill="#2E73B8" width="4.214" height="14.431"/>
	<rect x="35.393" fill="#2E73B8" width="4.214" height="14.431"/>
	<rect y="48.034" fill="#2E73B8" width="19.066" height="4.213"/>
	<rect y="29.073" fill="#2E73B8" width="19.066" height="4.214"/>
	<rect y="41.713" fill="#2E73B8" width="19.066" height="4.214"/>
	<rect y="35.393" fill="#2E73B8" width="19.066" height="4.214"/>
	<rect y="22.752" fill="#2E73B8" width="19.066" height="4.214"/>
	<rect x="22.752" y="58.463" fill="#2E73B8" width="4.214" height="16.537"/>
	<rect x="48.034" y="58.463" fill="#2E73B8" width="4.213" height="16.537"/>
	<rect x="29.073" y="58.463" fill="#2E73B8" width="4.214" height="16.537"/>
	<rect x="41.713" y="58.463" fill="#2E73B8" width="4.214" height="16.537"/>
	<rect x="35.393" y="58.463" fill="#2E73B8" width="4.214" height="16.537"/>
	<rect x="58.252" y="41.713" fill="#2E73B8" width="16.748" height="4.214"/>
	<rect x="58.252" y="22.752" fill="#2E73B8" width="16.748" height="4.214"/>
	<rect x="58.252" y="35.393" fill="#2E73B8" width="16.748" height="4.214"/>
	<rect x="58.252" y="29.073" fill="#2E73B8" width="16.748" height="4.214"/>
	<rect x="58.252" y="48.034" fill="#2E73B8" width="16.748" height="4.213"/>
	<path fill="#FFFFFF" d="M52.879,42.135c0-0.317,0-0.527-0.104-0.843c0-0.21-0.105-0.316-0.105-0.527
		c0-0.21-0.105-0.527-0.105-0.737c0-0.21-0.105-0.316-0.105-0.526c-0.105-0.211-0.105-0.527-0.211-0.738
		c0-0.211-0.104-0.422-0.211-0.526c-0.104-0.211-0.104-0.527-0.211-0.738c-0.104-0.211-0.104-0.422-0.209-0.527
		c-0.106-0.211-0.211-0.526-0.211-0.737c-0.106-0.21-0.106-0.421-0.211-0.527c-0.105-0.21-0.211-0.421-0.316-0.736
		c-0.105-0.211-0.211-0.422-0.315-0.633c-0.106-0.21-0.211-0.421-0.317-0.632c-0.737-1.369-0.737-3.055,0-4.424l2.633-5.161
		l-1.474-1.475l0,0c-1.37,0.842-2.74,1.264-4.214,1.475c-4.213,0.42-8.638-1.371-9.796-3.055l0,0l0,0
		c-1.159,1.685-5.583,3.476-9.797,3.055c-1.369-0.211-2.843-0.633-4.213-1.475l0,0l-1.474,1.475l2.633,5.161
		c0.738,1.369,0.632,3.055,0,4.424c-0.106,0.211-0.211,0.422-0.315,0.632c-0.106,0.211-0.211,0.422-0.317,0.633
		c-0.105,0.209-0.21,0.42-0.316,0.736c-0.105,0.211-0.211,0.422-0.211,0.527c-0.105,0.211-0.21,0.526-0.21,0.737
		c-0.106,0.211-0.106,0.422-0.211,0.527c-0.106,0.211-0.106,0.527-0.211,0.738c-0.104,0.21-0.104,0.42-0.21,0.526
		c-0.105,0.211-0.105,0.527-0.211,0.738c0,0.21-0.105,0.316-0.105,0.526c0,0.21-0.105,0.527-0.105,0.737
		c0,0.211-0.106,0.317-0.106,0.527c0,0.316-0.106,0.526-0.106,0.843c0,0.105,0,0.316,0,0.421c0,0.422,0,0.842,0,1.264
		c0,7.479,5.267,10.007,12.22,10.639c1.053,0.106,3.16,1.37,3.16,2.317c0-1.053,2.213-2.317,3.16-2.317
		c6.953-0.526,12.22-3.16,12.22-10.639c0-0.422,0-0.842,0-1.264C52.879,42.451,52.879,42.24,52.879,42.135z"/>
</g>
</svg>
