<?xml version="1.0" encoding="utf-8"?>
<!-- Generator: Adobe Illustrator 16.0.0, SVG Export Plug-In . SVG Version: 6.00 Build 0)  -->
<!DOCTYPE svg PUBLIC "-//W3C//DTD SVG 1.1//EN" "http://www.w3.org/Graphics/SVG/1.1/DTD/svg11.dtd">
<svg version="1.1" id="图层_1" xmlns="http://www.w3.org/2000/svg" xmlns:xlink="http://www.w3.org/1999/xlink" x="0px" y="0px"
	 width="75px" height="75px" viewBox="0 0 75 75" enable-background="new 0 0 75 75" xml:space="preserve">
<g id="Layer_1">
	<path fill="#19486F" d="M55.828,68.048H19.172c-5.268,0-9.586-4.318-9.586-9.586V21.805c0-5.267,4.318-9.585,9.586-9.585h36.656
		c5.268,0,9.586,4.318,9.586,9.585v36.657C65.414,63.729,61.096,68.048,55.828,68.048z"/>
	<path fill="#2E73B8" d="M55.828,65.414H19.172c-5.268,0-9.586-4.318-9.586-9.586V19.172c0-5.268,4.318-9.586,9.586-9.586h36.656
		c5.268,0,9.586,4.318,9.586,9.586v36.656C65.414,61.096,61.096,65.414,55.828,65.414z"/>
	<rect x="48.034" fill="#2E73B8" width="4.212" height="14.431"/>
	<rect x="22.754" fill="#2E73B8" width="4.212" height="14.431"/>
	<rect x="41.715" fill="#2E73B8" width="4.212" height="14.431"/>
	<rect x="29.073" fill="#2E73B8" width="4.212" height="14.431"/>
	<rect x="35.393" fill="#2E73B8" width="4.215" height="14.431"/>
	<rect y="48.034" fill="#2E73B8" width="19.064" height="4.212"/>
	<rect y="29.073" fill="#2E73B8" width="19.064" height="4.212"/>
	<rect y="41.715" fill="#2E73B8" width="19.064" height="4.212"/>
	<rect y="35.393" fill="#2E73B8" width="19.064" height="4.215"/>
	<rect y="22.754" fill="#2E73B8" width="19.064" height="4.212"/>
	<rect x="22.754" y="58.462" fill="#2E73B8" width="4.212" height="16.538"/>
	<rect x="48.034" y="58.462" fill="#2E73B8" width="4.212" height="16.538"/>
	<rect x="29.073" y="58.462" fill="#2E73B8" width="4.212" height="16.538"/>
	<rect x="41.715" y="58.462" fill="#2E73B8" width="4.212" height="16.538"/>
	<rect x="35.393" y="58.462" fill="#2E73B8" width="4.215" height="16.538"/>
	<rect x="58.251" y="41.715" fill="#2E73B8" width="16.749" height="4.212"/>
	<rect x="58.251" y="22.754" fill="#2E73B8" width="16.749" height="4.212"/>
	<rect x="58.251" y="35.393" fill="#2E73B8" width="16.749" height="4.215"/>
	<rect x="58.251" y="29.073" fill="#2E73B8" width="16.749" height="4.212"/>
	<rect x="58.251" y="48.034" fill="#2E73B8" width="16.749" height="4.212"/>
	<polygon fill="#2E73B8" points="25.597,37.711 28.547,29.284 44.875,30.97 51.194,44.557 30.862,49.298 	"/>
	<g>
		<circle fill="#2E73B8" cx="23.491" cy="45.506" r="8.11"/>
		<path fill="#FFFFFF" d="M23.491,55.197c-5.375,0-9.693-4.318-9.693-9.692c0-5.371,4.318-9.689,9.693-9.689
			c5.371,0,9.69,4.318,9.69,9.689C33.285,50.879,28.862,55.197,23.491,55.197z M23.491,38.975c-3.582,0-6.531,2.948-6.531,6.53
			s2.949,6.53,6.531,6.53c3.581,0,6.53-2.948,6.53-6.53C30.125,41.923,27.177,38.975,23.491,38.975z"/>
	</g>
	<g>
		<path fill="#2E73B8" d="M43.293,45.505c0-4.53,3.687-8.108,8.112-8.108c4.53,0,8.112,3.686,8.112,8.108
			c0,4.426-3.689,8.111-8.112,8.111C46.979,53.616,43.293,50.035,43.293,45.505"/>
		<path fill="#FFFFFF" d="M51.509,55.197c-5.371,0-9.69-4.318-9.69-9.692c0-5.371,4.319-9.689,9.69-9.689
			c5.375,0,9.693,4.318,9.693,9.689C61.202,50.879,56.776,55.197,51.509,55.197z M51.509,38.975c-3.581,0-6.53,2.948-6.53,6.53
			s2.949,6.53,6.53,6.53c3.582,0,6.531-2.948,6.531-6.53S55.091,38.975,51.509,38.975z"/>
	</g>
	<g>
		<path fill="#FFFFFF" d="M23.491,47.086c-0.107,0-0.318,0-0.423-0.106c-0.844-0.209-1.264-1.156-1.052-2.001l5.056-16.221
			c0.209-0.633,0.737-1.055,1.368-1.159c0.633-0.106,1.266,0.211,1.581,0.842L37.5,42.135l6.005-11.903
			c0.314-0.525,0.842-0.844,1.474-0.844c0.634,0,1.159,0.423,1.371,0.949l6.634,14.538c0.212,0.525,0.212,1.052-0.104,1.475
			c-0.314,0.421-0.844,0.736-1.37,0.736H37.5c-0.211,0-0.526,0-0.737-0.211l0,0c-0.315-0.104-0.526-0.422-0.633-0.633l-7.161-12.957
			l-3.899,12.746C24.858,46.664,24.229,47.086,23.491,47.086z M40.03,43.926h8.953l-4.216-9.271L40.03,43.926z"/>
	</g>
	<g>
		<path fill="#FFFFFF" d="M53.932,47.086H34.97l10.009-19.698L53.932,47.086z M40.03,43.926h8.953l-4.216-9.271L40.03,43.926z"/>
	</g>
	<g>
		<path fill="#FFFFFF" d="M44.875,32.548c-0.107,0-0.107,0-0.212,0l-16.327-1.79c-0.526,0-3.16-0.21-4.53-2
			c-0.525-0.633-1.158-1.792-0.841-3.37c0-0.423,0.315-2.108,1.578-3.163c0.633-0.526,1.896-1.156,3.687-0.841
			c0.844,0.104,1.477,0.947,1.37,1.789c-0.104,0.845-0.949,1.475-1.79,1.37c-0.528-0.104-0.947,0-1.267,0.212
			c-0.314,0.314-0.418,0.841-0.418,1.052c0,0,0,0.106,0,0.21c-0.108,0.526,0,0.846,0.211,0.949c0.526,0.633,1.789,0.844,2.314,0.844
			l16.436,1.79c0.841,0.106,1.474,0.844,1.367,1.792C46.35,31.918,45.716,32.548,44.875,32.548z"/>
	</g>
	<g>
		<path fill="#FFFFFF" d="M44.768,34.444c-0.842,0-1.578-0.736-1.578-1.579V27.81c0-0.844,0.736-1.581,1.578-1.581
			c0.845,0,1.582,0.737,1.582,1.581v5.056C46.35,33.708,45.612,34.444,44.768,34.444z"/>
	</g>
	<g>
		<circle fill="#2E73B8" cx="37.5" cy="45.506" r="2.317"/>
		<path fill="#FFFFFF" d="M37.5,49.403c-2.107,0-3.897-1.791-3.897-3.898s1.79-3.896,3.897-3.896s3.897,1.789,3.897,3.896
			S39.607,49.403,37.5,49.403z M37.5,44.768c-0.423,0-0.737,0.318-0.737,0.737c0,0.422,0.314,0.737,0.737,0.737
			s0.737-0.315,0.737-0.737C38.237,45.086,37.923,44.768,37.5,44.768z"/>
	</g>
	<g>
		<path fill="#FFFFFF" d="M46.35,28.44h-5.164c-0.841,0-1.578-0.737-1.578-1.578c0-0.846,0.737-1.582,1.578-1.582h5.164
			c0.314,0,0.314-0.104,0.314-0.315c0-0.844,0.737-1.581,1.581-1.581c0.842,0,1.579,0.737,1.579,1.581
			C49.824,27.492,47.719,28.44,46.35,28.44z"/>
	</g>
</g>
</svg>
