<?xml version="1.0" encoding="utf-8"?>
<!-- Generator: Adobe Illustrator 16.0.0, SVG Export Plug-In . SVG Version: 6.00 Build 0)  -->
<!DOCTYPE svg PUBLIC "-//W3C//DTD SVG 1.1//EN" "http://www.w3.org/Graphics/SVG/1.1/DTD/svg11.dtd">
<svg version="1.1" id="图层_1" xmlns="http://www.w3.org/2000/svg" xmlns:xlink="http://www.w3.org/1999/xlink" x="0px" y="0px"
	 width="57px" height="76px" viewBox="0 0 57 76" enable-background="new 0 0 57 76" xml:space="preserve">
<g id="Layer_1">
	<path fill="#19486F" d="M56.125,10.504c-1.685,1.556-5.962,3.502-12.703,4.669c-4.147,0.778-9.072,1.166-14.906,1.166
		c-15.425,0-25.017-3.372-27.61-5.836H0v2.334c0,2.465,10.109,7.133,28.516,7.133c5.833,0,10.889-0.518,14.906-1.165
		c8.814-1.557,13.481-4.281,13.481-5.968v-2.334L56.125,10.504L56.125,10.504z"/>
	<path fill="#19486F" d="M56.903,65.495c0,0.129,0,0.129-0.131,0.261c0,0.129-0.129,0.257-0.129,0.388
		c-1.556,2.595-9.592,6.227-26.572,6.227c-10.368,0-19.052-1.945-24.109-3.632l0.131,0.389C2.721,67.832,0.389,66.533,0,65.496
		v3.631c0.26,1.168,2.98,2.594,6.74,3.893C11.795,74.704,19.702,76,30.071,76c16.98,0,25.017-3.761,26.572-6.225
		c0.129-0.131,0.129-0.261,0.129-0.39c0-0.131,0-0.131,0.131-0.261c0-0.128,0-0.128,0-0.259v-3.632
		C57.032,65.365,57.032,65.495,56.903,65.495z"/>
	<path fill="#2E73B8" d="M43.034,22.178c-0.779,0.13-1.557,0.26-2.333,0.389c-0.391,0-0.78,0.13-1.165,0.13
		c-0.779,0.129-1.427,0.129-2.206,0.261c-0.518,0-0.907,0.128-1.424,0.128c-0.908,0.13-1.944,0.13-2.853,0.13h-0.519
		c-1.166,0-2.334,0.13-3.499,0.13c-0.26,0-0.519,0-0.78,0c-11.276,0-22.682-1.945-28.255-5.707v49.024
		c0.26,1.167,2.981,2.594,6.74,3.891c5.054,1.687,12.962,2.984,23.33,2.984c18.925,0,26.832-4.67,26.832-7.134V17.12
		C54.05,19.323,49.256,21.139,43.034,22.178z"/>
	<path fill="#19486F" d="M0,10.504c0,1.556,4.148,4.021,12.054,5.707V4.928C4.148,6.354,0,8.948,0,10.504z"/>
	<path fill="#19486F" d="M56.903,10.504c0-1.557-4.147-4.02-11.925-5.577v11.284C52.756,14.526,56.903,12.061,56.903,10.504z"/>
	<polygon fill="#2E73B8" points="12.055,0 17.628,3.891 28.517,11.801 39.536,3.891 45.107,0 	"/>
	<path fill="#2E73B8" d="M43.034,4.409L28.646,14.784L14.129,4.409l-2.074-1.426V4.8v11.282c4.407,0.908,9.852,1.557,16.462,1.557
		c5.833,0,10.888-0.519,14.905-1.167c0.521-0.131,1.168-0.26,1.686-0.26V4.928V2.982L43.034,4.409z"/>
</g>
</svg>
