<?xml version="1.0" encoding="utf-8"?>
<!-- Generator: Adobe Illustrator 16.0.0, SVG Export Plug-In . SVG Version: 6.00 Build 0)  -->
<!DOCTYPE svg PUBLIC "-//W3C//DTD SVG 1.1//EN" "http://www.w3.org/Graphics/SVG/1.1/DTD/svg11.dtd">
<svg version="1.1" id="图层_1" xmlns="http://www.w3.org/2000/svg" xmlns:xlink="http://www.w3.org/1999/xlink" x="0px" y="0px"
	 width="75px" height="75px" viewBox="0 0 75 75" enable-background="new 0 0 75 75" xml:space="preserve">
<g id="Layer_1">
	<path fill="#19486F" d="M55.828,68.048H19.17c-5.266,0-9.584-4.318-9.584-9.586V21.804c0-5.266,4.318-9.584,9.584-9.584h36.658
		c5.268,0,9.586,4.319,9.586,9.584v36.658C65.414,63.836,61.096,68.048,55.828,68.048z"/>
	<path fill="#2E73B8" d="M55.828,65.521H19.17c-5.266,0-9.584-4.318-9.584-9.585v-36.66c0-5.266,4.318-9.584,9.584-9.584h36.658
		c5.268,0,9.586,4.318,9.586,9.584v36.66C65.414,61.202,61.096,65.521,55.828,65.521z"/>
	<rect x="48.034" y="0" fill="#2E73B8" width="4.212" height="14.432"/>
	<rect x="22.752" y="0" fill="#2E73B8" width="4.213" height="14.432"/>
	<rect x="41.713" y="0" fill="#2E73B8" width="4.213" height="14.432"/>
	<rect x="29.073" y="0" fill="#2E73B8" width="4.213" height="14.432"/>
	<rect x="35.393" y="0" fill="#2E73B8" width="4.215" height="14.432"/>
	<rect y="48.14" fill="#2E73B8" width="19.066" height="4.212"/>
	<rect y="29.179" fill="#2E73B8" width="19.066" height="4.213"/>
	<rect y="41.819" fill="#2E73B8" width="19.066" height="4.214"/>
	<rect y="35.498" fill="#2E73B8" width="19.066" height="4.213"/>
	<rect y="22.858" fill="#2E73B8" width="19.066" height="4.213"/>
	<rect x="22.752" y="58.462" fill="#2E73B8" width="4.213" height="16.538"/>
	<rect x="48.034" y="58.462" fill="#2E73B8" width="4.212" height="16.538"/>
	<rect x="29.073" y="58.462" fill="#2E73B8" width="4.213" height="16.538"/>
	<rect x="41.713" y="58.462" fill="#2E73B8" width="4.213" height="16.538"/>
	<rect x="35.393" y="58.462" fill="#2E73B8" width="4.215" height="16.538"/>
	<rect x="58.251" y="41.819" fill="#2E73B8" width="16.749" height="4.214"/>
	<rect x="58.251" y="22.858" fill="#2E73B8" width="16.749" height="4.213"/>
	<rect x="58.251" y="35.498" fill="#2E73B8" width="16.749" height="4.213"/>
	<rect x="58.251" y="29.179" fill="#2E73B8" width="16.749" height="4.213"/>
	<rect x="58.251" y="48.14" fill="#2E73B8" width="16.749" height="4.212"/>
	<path fill="#FFFFFF" d="M51.405,31.18l-0.314-16.96c0-0.315-0.212-0.526-0.528-0.526h-4.004c-0.315,0-0.526,0.211-0.526,0.526
		l-0.21,14.748L20.224,18.855c-0.736-0.316-1.474,0.211-1.474,0.948v40.028c0,0.635,0.42,1.053,1.054,1.053h35.499
		c0.633,0,1.052-0.418,1.052-1.053V33.813c0-0.421-0.315-0.843-0.631-0.948L51.405,31.18z"/>
	<path fill="#2E73B8" d="M39.502,46.559h-3.898c-0.315,0-0.526,0.211-0.526,0.528v11.798c0,0.313,0.211,0.526,0.526,0.526h3.898
		c0.315,0,0.526-0.213,0.526-0.526V47.086C40.028,46.77,39.817,46.559,39.502,46.559z"/>
	<path fill="#2E73B8" d="M29.494,46.559h-4.003c-0.316,0-0.526,0.211-0.526,0.528v4.741c0,0.315,0.209,0.525,0.526,0.525h4.003
		c0.316,0,0.527-0.21,0.527-0.525v-4.741C30.021,46.77,29.811,46.559,29.494,46.559z"/>
	<path fill="#2E73B8" d="M49.719,46.559h-4.003c-0.315,0-0.526,0.211-0.526,0.528v4.741c0,0.315,0.211,0.525,0.526,0.525h4.003
		c0.316,0,0.526-0.21,0.526-0.525v-4.741C50.246,46.77,49.929,46.559,49.719,46.559z"/>
	<path fill="#2E73B8" d="M29.494,36.552h-4.003c-0.316,0-0.526,0.211-0.526,0.528v4.739c0,0.316,0.209,0.526,0.526,0.526h4.003
		c0.316,0,0.527-0.21,0.527-0.526V37.08C30.021,36.868,29.811,36.552,29.494,36.552z"/>
	<path fill="#2E73B8" d="M39.502,36.552h-4.005c-0.315,0-0.526,0.211-0.526,0.528v4.739c0,0.316,0.211,0.526,0.526,0.526h4.005
		c0.315,0,0.526-0.21,0.526-0.526V37.08C40.028,36.868,39.817,36.552,39.502,36.552z"/>
	<path fill="#2E73B8" d="M49.719,36.552h-4.003c-0.315,0-0.526,0.211-0.526,0.528v4.739c0,0.316,0.211,0.526,0.526,0.526h4.003
		c0.316,0,0.526-0.21,0.526-0.526V37.08C50.246,36.868,49.929,36.552,49.719,36.552z"/>
</g>
</svg>
