<?xml version="1.0" encoding="utf-8"?>
<!-- Generator: Adobe Illustrator 16.0.0, SVG Export Plug-In . SVG Version: 6.00 Build 0)  -->
<!DOCTYPE svg PUBLIC "-//W3C//DTD SVG 1.1//EN" "http://www.w3.org/Graphics/SVG/1.1/DTD/svg11.dtd">
<svg version="1.1" id="图层_1" xmlns="http://www.w3.org/2000/svg" xmlns:xlink="http://www.w3.org/1999/xlink" x="0px" y="0px"
	 width="64px" height="75px" viewBox="0 0 64 75" enable-background="new 0 0 64 75" xml:space="preserve">
<g id="Layer_1">
	<path fill="#19486F" d="M42.042,12.858l-3.098,2.16l-1.596-3.475c-2.347-5.255-7.695-8.727-13.511-8.727
		c-3.944,0-7.695,1.5-10.417,4.317c-2.817,2.814-4.315,6.57-4.315,10.512l0.091,2.724l-2.343,0.657C3.097,22.152,0,26.938,0,30.222
		v1.223c0,3.942,4.786,8.636,11.073,8.636h41.852c6.194,0,11.074-4.599,11.074-8.636v-1.223c0-4.036-4.506-9.292-9.666-9.76
		l-2.815-0.189l-0.092-2.814c-0.096-3.192-2.723-5.726-5.913-5.726C44.198,11.827,42.979,12.11,42.042,12.858z"/>
	<path fill="#2E73B8" d="M42.042,10.045l-3.098,2.156L37.349,8.73C35.003,3.475,29.653,0,23.838,0
		c-3.944,0-7.695,1.501-10.417,4.317c-2.817,2.817-4.315,6.569-4.315,10.514l0.091,2.721l-2.343,0.657
		c-3.755,1.127-6.852,5.916-6.852,9.201v1.219c0,3.942,4.786,8.636,11.073,8.636h41.853c6.193,0,11.073-4.6,11.073-8.636V27.41
		c0-4.036-4.506-9.293-9.666-9.764l-2.816-0.187l-0.092-2.817c-0.095-3.189-2.722-5.727-5.913-5.727
		C44.198,9.011,42.979,9.388,42.042,10.045z"/>
	<rect x="3.847" y="54.161" fill="#19486F" width="54.429" height="20.839"/>
	<rect x="3.847" y="51.346" fill="#2E73B8" width="54.429" height="20.838"/>
	<g>
		<rect x="29.653" y="37.359" fill="#2E73B8" width="2.817" height="24.407"/>
	</g>
	<g>
		<rect x="29.653" y="27.877" fill="#FFFFFF" width="2.817" height="9.482"/>
	</g>
	<polygon fill="#FFFFFF" points="31.063,22.526 26.838,28.724 35.284,28.724 	"/>
	<path fill="#FFFFFF" d="M14.921,65.988L14.921,65.988c-2.533,0-4.504-2.066-4.504-4.504l0,0c0-2.537,2.065-4.508,4.504-4.508l0,0
		c2.535,0,4.506,2.065,4.506,4.508l0,0C19.427,64.018,17.456,65.988,14.921,65.988z"/>
	<polygon fill="#FFFFFF" points="36.788,65.988 25.057,65.988 30.968,56.979 	"/>
	<rect x="42.418" y="56.979" fill="#FFFFFF" width="9.102" height="9.105"/>
</g>
</svg>
