<?xml version="1.0" encoding="utf-8"?>
<!-- Generator: Adobe Illustrator 16.0.0, SVG Export Plug-In . SVG Version: 6.00 Build 0)  -->
<!DOCTYPE svg PUBLIC "-//W3C//DTD SVG 1.1//EN" "http://www.w3.org/Graphics/SVG/1.1/DTD/svg11.dtd">
<svg version="1.1" id="图层_1" xmlns="http://www.w3.org/2000/svg" xmlns:xlink="http://www.w3.org/1999/xlink" x="0px" y="0px"
	 width="75px" height="75px" viewBox="0 0 75 75" enable-background="new 0 0 75 75" xml:space="preserve">
<g id="Layer_1">
	<path fill="#19486F" d="M55.828,68.048H19.17c-5.266,0-9.584-4.318-9.584-9.586V21.804c0-5.266,4.318-9.584,9.584-9.584h36.658
		c5.268,0,9.586,4.319,9.586,9.584v36.658C65.414,63.729,61.096,68.048,55.828,68.048z"/>
	<path fill="#2E73B8" d="M55.828,65.414H19.17c-5.266,0-9.584-4.318-9.584-9.586V19.17c0-5.266,4.318-9.584,9.584-9.584h36.658
		c5.268,0,9.586,4.318,9.586,9.584v36.658C65.414,61.096,61.096,65.414,55.828,65.414z"/>
	<rect x="48.034" fill="#2E73B8" width="4.212" height="14.431"/>
	<rect x="22.752" fill="#2E73B8" width="4.213" height="14.431"/>
	<rect x="41.713" fill="#2E73B8" width="4.213" height="14.431"/>
	<rect x="29.073" fill="#2E73B8" width="4.213" height="14.431"/>
	<rect x="35.393" fill="#2E73B8" width="4.215" height="14.431"/>
	<rect y="48.034" fill="#2E73B8" width="19.066" height="4.212"/>
	<rect y="29.073" fill="#2E73B8" width="19.066" height="4.213"/>
	<rect y="41.713" fill="#2E73B8" width="19.066" height="4.213"/>
	<rect y="35.393" fill="#2E73B8" width="19.066" height="4.215"/>
	<rect y="22.752" fill="#2E73B8" width="19.066" height="4.213"/>
	<rect x="22.752" y="58.462" fill="#2E73B8" width="4.213" height="16.538"/>
	<rect x="48.034" y="58.462" fill="#2E73B8" width="4.212" height="16.538"/>
	<rect x="29.073" y="58.462" fill="#2E73B8" width="4.213" height="16.538"/>
	<rect x="41.713" y="58.462" fill="#2E73B8" width="4.213" height="16.538"/>
	<rect x="35.393" y="58.462" fill="#2E73B8" width="4.215" height="16.538"/>
	<rect x="58.251" y="41.713" fill="#2E73B8" width="16.749" height="4.213"/>
	<rect x="58.251" y="22.752" fill="#2E73B8" width="16.749" height="4.213"/>
	<rect x="58.251" y="35.393" fill="#2E73B8" width="16.749" height="4.215"/>
	<rect x="58.251" y="29.073" fill="#2E73B8" width="16.749" height="4.213"/>
	<rect x="58.251" y="48.034" fill="#2E73B8" width="16.749" height="4.212"/>
	<path fill="#FFFFFF" d="M46.875,59.306H28.23c-1.16,0-2.107-0.948-2.107-2.107V20.751c0-1.159,0.948-2.107,2.107-2.107h18.645
		c1.159,0,2.107,0.948,2.107,2.107v36.447C48.983,58.357,48.034,59.306,46.875,59.306z"/>
	<g>
		<circle fill="#FFFFFF" cx="37.5" cy="30.442" r="7.9"/>
		<path fill="#2E73B8" d="M37.5,39.396c-4.951,0-8.953-4.003-8.953-8.954c0-4.951,4.002-8.953,8.953-8.953s8.953,4.002,8.953,8.953
			C46.453,35.393,42.451,39.396,37.5,39.396z M37.5,23.595c-3.792,0-6.847,3.056-6.847,6.847c0,3.793,3.055,6.847,6.847,6.847
			s6.847-3.053,6.847-6.847C44.347,26.651,41.292,23.595,37.5,23.595z"/>
	</g>
	<g>
		<circle fill="#2E73B8" cx="37.5" cy="45.294" r="3.055"/>
		<polygon fill="#2E73B8" points="40.555,55.303 34.445,55.303 36.974,44.664 38.026,44.664 		"/>
	</g>
</g>
</svg>
