<?xml version="1.0" encoding="utf-8"?>
<!-- Generator: Adobe Illustrator 16.0.0, SVG Export Plug-In . SVG Version: 6.00 Build 0)  -->
<!DOCTYPE svg PUBLIC "-//W3C//DTD SVG 1.1//EN" "http://www.w3.org/Graphics/SVG/1.1/DTD/svg11.dtd">
<svg version="1.1" id="图层_1" xmlns="http://www.w3.org/2000/svg" xmlns:xlink="http://www.w3.org/1999/xlink" x="0px" y="0px"
	 width="75px" height="75px" viewBox="0 0 75 75" enable-background="new 0 0 75 75" xml:space="preserve">
<g id="Layer_1">
	<path fill="#19486F" d="M55.828,68.048H19.172c-5.268,0-9.586-4.318-9.586-9.586V21.805c0-5.267,4.318-9.585,9.586-9.585h36.656
		c5.268,0,9.586,4.318,9.586,9.585v36.657C65.414,63.729,61.096,68.048,55.828,68.048z"/>
	<path fill="#2E73B8" d="M55.828,65.414H19.172c-5.268,0-9.586-4.318-9.586-9.586V19.172c0-5.268,4.318-9.586,9.586-9.586h36.656
		c5.268,0,9.586,4.318,9.586,9.586v36.656C65.414,61.096,61.096,65.414,55.828,65.414z"/>
	<rect x="48.034" fill="#2E73B8" width="4.212" height="14.431"/>
	<rect x="22.754" fill="#2E73B8" width="4.212" height="14.431"/>
	<rect x="41.715" fill="#2E73B8" width="4.212" height="14.431"/>
	<rect x="29.073" fill="#2E73B8" width="4.212" height="14.431"/>
	<rect x="35.393" fill="#2E73B8" width="4.215" height="14.431"/>
	<rect y="48.034" fill="#2E73B8" width="19.064" height="4.212"/>
	<rect y="29.073" fill="#2E73B8" width="19.064" height="4.212"/>
	<rect y="41.715" fill="#2E73B8" width="19.064" height="4.212"/>
	<rect y="35.393" fill="#2E73B8" width="19.064" height="4.215"/>
	<rect y="22.754" fill="#2E73B8" width="19.064" height="4.212"/>
	<rect x="22.754" y="58.462" fill="#2E73B8" width="4.212" height="16.538"/>
	<rect x="48.034" y="58.462" fill="#2E73B8" width="4.212" height="16.538"/>
	<rect x="29.073" y="58.462" fill="#2E73B8" width="4.212" height="16.538"/>
	<rect x="41.715" y="58.462" fill="#2E73B8" width="4.212" height="16.538"/>
	<rect x="35.393" y="58.462" fill="#2E73B8" width="4.215" height="16.538"/>
	<rect x="58.251" y="41.715" fill="#2E73B8" width="16.749" height="4.212"/>
	<rect x="58.251" y="22.754" fill="#2E73B8" width="16.749" height="4.212"/>
	<rect x="58.251" y="35.393" fill="#2E73B8" width="16.749" height="4.215"/>
	<rect x="58.251" y="29.073" fill="#2E73B8" width="16.749" height="4.212"/>
	<rect x="58.251" y="48.034" fill="#2E73B8" width="16.749" height="4.212"/>
	<rect x="18.013" y="28.23" fill="#FFFFFF" width="38.975" height="27.809"/>
	<rect x="15.379" y="26.966" fill="#FFFFFF" width="44.242" height="2.634"/>
	<rect x="15.379" y="54.565" fill="#FFFFFF" width="44.242" height="2.737"/>
	<polygon fill="#FFFFFF" points="37.5,14.327 15.379,26.966 59.621,26.966 	"/>
	<g>
		<path fill="#2E73B8" d="M38.448,25.807c4.634,0.318,9.06,2.74,9.06,8.217h-6.533c0.107-1.791-1.053-2.632-2.526-3.054v4.739
			c0.842,0.211,1.686,0.421,2.634,0.632c3.581,1.055,7.268,2.739,7.268,7.269c0,5.899-4.741,8.007-9.901,8.218v3.159h-1.686v-3.159
			c-5.582-0.211-10.22-2.634-10.323-8.849h6.53c0.107,2.526,1.582,3.581,3.793,3.792v-5.479c-0.633-0.21-1.37-0.421-2.211-0.633
			c-3.582-1.052-7.375-2.633-7.375-7.268c0-5.371,4.952-7.585,9.586-7.794v-3.162h1.686V25.807L38.448,25.807z M36.763,30.862
			c-1.37,0-3.055,0.529-3.055,2.319c0,1.158,1.262,1.685,3.055,2.211V30.862z M38.448,46.875c1.582-0.104,3.37-0.737,3.37-2.423
			c0-1.37-1.37-2-3.37-2.634V46.875z"/>
	</g>
</g>
</svg>
