<?xml version="1.0" encoding="utf-8"?>
<!-- Generator: Adobe Illustrator 16.0.0, SVG Export Plug-In . SVG Version: 6.00 Build 0)  -->
<!DOCTYPE svg PUBLIC "-//W3C//DTD SVG 1.1//EN" "http://www.w3.org/Graphics/SVG/1.1/DTD/svg11.dtd">
<svg version="1.1" id="图层_1" xmlns="http://www.w3.org/2000/svg" xmlns:xlink="http://www.w3.org/1999/xlink" x="0px" y="0px"
	 width="75px" height="75px" viewBox="0 0 75 75" enable-background="new 0 0 75 75" xml:space="preserve">
<g id="Layer_1">
	<path fill="#19486F" d="M55.829,68.048H19.171c-5.267,0-9.585-4.318-9.585-9.585V21.804c0-5.267,4.318-9.585,9.585-9.585h36.658
		c5.267,0,9.586,4.318,9.586,9.585v36.659C65.415,63.729,61.096,68.048,55.829,68.048z"/>
	<path fill="#2E73B8" d="M55.829,65.415H19.171c-5.267,0-9.585-4.319-9.585-9.586V19.171c0-5.267,4.318-9.585,9.585-9.585h36.658
		c5.267,0,9.586,4.318,9.586,9.585v36.658C65.415,61.096,61.096,65.415,55.829,65.415z"/>
	<rect x="48.034" fill="#2E73B8" width="4.213" height="14.431"/>
	<rect x="22.752" fill="#2E73B8" width="4.214" height="14.431"/>
	<rect x="41.713" fill="#2E73B8" width="4.214" height="14.431"/>
	<rect x="29.073" fill="#2E73B8" width="4.214" height="14.431"/>
	<rect x="35.393" fill="#2E73B8" width="4.214" height="14.431"/>
	<rect y="48.034" fill="#2E73B8" width="19.066" height="4.213"/>
	<rect y="29.073" fill="#2E73B8" width="19.066" height="4.214"/>
	<rect y="41.713" fill="#2E73B8" width="19.066" height="4.214"/>
	<rect y="35.393" fill="#2E73B8" width="19.066" height="4.214"/>
	<rect y="22.752" fill="#2E73B8" width="19.066" height="4.214"/>
	<rect x="22.752" y="58.463" fill="#2E73B8" width="4.214" height="16.537"/>
	<rect x="48.034" y="58.463" fill="#2E73B8" width="4.213" height="16.537"/>
	<rect x="29.073" y="58.463" fill="#2E73B8" width="4.214" height="16.537"/>
	<rect x="41.713" y="58.463" fill="#2E73B8" width="4.214" height="16.537"/>
	<rect x="35.393" y="58.463" fill="#2E73B8" width="4.214" height="16.537"/>
	<rect x="58.252" y="41.713" fill="#2E73B8" width="16.748" height="4.214"/>
	<rect x="58.252" y="22.752" fill="#2E73B8" width="16.748" height="4.214"/>
	<rect x="58.252" y="35.393" fill="#2E73B8" width="16.748" height="4.214"/>
	<rect x="58.252" y="29.073" fill="#2E73B8" width="16.748" height="4.214"/>
	<rect x="58.252" y="48.034" fill="#2E73B8" width="16.748" height="4.213"/>
	<g>
		<path fill="#FFFFFF" d="M50.457,55.618H24.648c-2.844,0-5.267-2.317-5.267-5.267V24.543c0-2.844,2.317-5.267,5.267-5.267h25.808
			c2.844,0,5.267,2.317,5.267,5.267v25.808C55.618,53.301,53.301,55.618,50.457,55.618z M24.543,22.542
			c-1.159,0-2.106,0.948-2.106,2.106v25.808c0,1.16,0.947,2.107,2.106,2.107h25.808c1.158,0,2.106-0.947,2.106-2.107V24.648
			c0-1.158-0.948-2.106-2.106-2.106H24.543z"/>
	</g>
	<polygon fill="#FFFFFF" points="47.191,33.813 41.187,33.813 41.187,27.809 33.813,27.809 33.813,33.813 27.809,33.813 
		27.809,41.187 33.813,41.187 33.813,47.191 41.187,47.191 41.187,41.187 47.191,41.187 	"/>
</g>
</svg>
