<?xml version="1.0" encoding="utf-8"?>
<!-- Generator: Adobe Illustrator 16.0.0, SVG Export Plug-In . SVG Version: 6.00 Build 0)  -->
<!DOCTYPE svg PUBLIC "-//W3C//DTD SVG 1.1//EN" "http://www.w3.org/Graphics/SVG/1.1/DTD/svg11.dtd">
<svg version="1.1" id="图层_1" xmlns="http://www.w3.org/2000/svg" xmlns:xlink="http://www.w3.org/1999/xlink" x="0px" y="0px"
	 width="64px" height="75px" viewBox="0 0 64 75" enable-background="new 0 0 64 75" xml:space="preserve">
<g id="Layer_1">
	<path fill="#19486F" d="M42.041,12.86l-3.098,2.159l-1.595-3.473c-2.347-5.257-7.695-8.73-13.513-8.73
		c-3.94,0-7.695,1.501-10.416,4.317c-2.816,2.815-4.317,6.571-4.317,10.513l0.095,2.723l-2.347,0.657
		C3.096,22.151,0,26.939,0,30.225v1.219c0,3.944,4.784,8.637,11.073,8.637h41.853C59.122,40.081,64,35.48,64,31.444v-1.219
		c0-4.037-4.506-9.295-9.666-9.764l-2.815-0.188l-0.094-2.816c-0.095-3.191-2.72-5.724-5.913-5.724
		C44.2,11.827,42.979,12.108,42.041,12.86z"/>
	<path fill="#2E73B8" d="M42.041,10.044l-3.098,2.159L37.349,8.73C35.002,3.473,29.653,0,23.836,0c-3.94,0-7.695,1.501-10.416,4.317
		c-2.816,2.816-4.317,6.571-4.317,10.513l0.095,2.723L6.851,18.21C3.096,19.335,0,24.123,0,27.409v1.219
		c0,3.944,4.784,8.636,11.073,8.636h41.853c6.196,0,11.074-4.599,11.074-8.636V27.41c0-4.037-4.506-9.294-9.666-9.764l-2.815-0.188
		l-0.094-2.816c-0.095-3.191-2.72-5.726-5.913-5.726C44.2,9.011,42.979,9.387,42.041,10.044z"/>
	<rect x="3.847" y="54.162" fill="#19486F" width="54.429" height="20.838"/>
	<rect x="3.847" y="51.346" fill="#2E73B8" width="54.429" height="20.838"/>
	<g>
		<rect x="29.653" y="26.094" fill="#FFFFFF" width="2.814" height="11.265"/>
	</g>
	<g>
		<rect x="29.653" y="37.359" fill="#2E73B8" width="2.814" height="8.729"/>
	</g>
	<polygon fill="#2E73B8" points="31.063,51.346 35.283,45.148 26.839,45.148 	"/>
	<path fill="#FFFFFF" d="M14.921,65.988L14.921,65.988c-2.534,0-4.504-2.066-4.504-4.504l0,0c0-2.537,2.063-4.508,4.504-4.508l0,0
		c2.533,0,4.504,2.065,4.504,4.508l0,0C19.425,64.018,17.454,65.988,14.921,65.988z"/>
	<polygon fill="#FFFFFF" points="36.786,65.988 25.058,65.988 30.968,56.979 	"/>
	<rect x="42.416" y="56.979" fill="#FFFFFF" width="9.103" height="9.105"/>
	<circle fill="#FFFFFF" cx="30.968" cy="26.095" r="3.567"/>
</g>
</svg>
