<?xml version="1.0" encoding="utf-8"?>
<!-- Generator: Adobe Illustrator 16.0.0, SVG Export Plug-In . SVG Version: 6.00 Build 0)  -->
<!DOCTYPE svg PUBLIC "-//W3C//DTD SVG 1.1//EN" "http://www.w3.org/Graphics/SVG/1.1/DTD/svg11.dtd">
<svg version="1.1" id="图层_1" xmlns="http://www.w3.org/2000/svg" xmlns:xlink="http://www.w3.org/1999/xlink" x="0px" y="0px"
	 width="62px" height="75px" viewBox="0 0 62 75" enable-background="new 0 0 62 75" xml:space="preserve">
<g id="Layer_1">
	<polygon fill="#19486F" points="49.621,24.271 58.047,13.542 62,24.271 53.886,25.312 	"/>
	<polygon fill="#1F5B98" points="35.682,53.333 58.047,57.813 61.584,42.917 58.047,27.916 35.682,30 	"/>
	<polygon fill="#99BCE3" points="31,42.813 31,59.896 58.047,42.29 37.554,41.355 	"/>
	<polygon fill="#1F5B98" points="36.201,37.5 44.106,37.5 54.717,27.292 44.106,12.708 36.201,15 	"/>
	<polygon fill="#1F5B98" points="49.621,24.271 58.047,23.125 58.047,13.542 49.621,15.521 	"/>
	<polygon fill="#5294CF" points="62,41.876 31,44.999 31,75 62,59.479 	"/>
	<polygon fill="#5294CF" points="31,75 40.259,61.667 40.259,24.375 31,22.5 21.325,47.084 	"/>
	<polygon fill="#5294CF" points="58.047,52.604 62,59.479 62,28.75 58.047,27.916 	"/>
	<polygon fill="#5294CF" points="62,15.521 58.047,13.542 58.047,23.125 62,24.271 	"/>
	<polygon fill="#5294CF" points="55.757,17.396 44.106,12.708 44.106,37.5 55.757,37.5 	"/>
	<polygon fill="#19486F" points="12.379,24.271 3.953,13.542 0,24.271 8.114,25.312 	"/>
	<polygon fill="#5294CF" points="26.319,53.333 3.953,57.813 3.953,27.916 26.319,30 	"/>
	<polygon fill="#99BCE3" points="31,42.813 31,61.876 3.953,42.29 24.447,41.355 	"/>
	<polygon fill="#5294CF" points="25.799,37.5 17.893,37.5 8.114,25.833 17.893,12.708 25.799,15 	"/>
	<polygon fill="#5294CF" points="12.379,24.271 3.953,23.125 3.953,13.542 12.379,15.521 	"/>
	<polygon fill="#1F5B98" points="0,41.876 31,44.999 31,75 0,59.479 	"/>
	<polygon fill="#1F5B98" points="31,75 21.742,62.604 21.742,24.375 31,22.5 	"/>
	<polygon fill="#1F5B98" points="3.953,58.75 0,59.479 0,28.75 3.953,27.916 	"/>
	<polygon fill="#1F5B98" points="0,15.521 3.953,13.542 3.953,23.125 0,24.271 	"/>
	<polygon fill="#1F5B98" points="6.242,17.396 17.893,12.708 17.893,37.5 6.242,37.5 	"/>
	<polygon fill="#19486F" points="40.259,17.812 31,20 21.742,17.812 31,0 	"/>
	<polygon fill="#5294CF" points="31,0 40.259,4.688 40.259,17.812 31,15 	"/>
	<polygon fill="#1F5B98" points="31,0 21.742,4.688 21.742,17.812 31,15 	"/>
</g>
</svg>
