<?xml version="1.0" encoding="utf-8"?>
<!-- Generator: Adobe Illustrator 16.0.0, SVG Export Plug-In . SVG Version: 6.00 Build 0)  -->
<!DOCTYPE svg PUBLIC "-//W3C//DTD SVG 1.1//EN" "http://www.w3.org/Graphics/SVG/1.1/DTD/svg11.dtd">
<svg version="1.1" id="图层_1" xmlns="http://www.w3.org/2000/svg" xmlns:xlink="http://www.w3.org/1999/xlink" x="0px" y="0px"
	 width="75px" height="75px" viewBox="0 0 75 75" enable-background="new 0 0 75 75" xml:space="preserve">
<g id="Layer_1">
	<path fill="#19486F" d="M61.643,21.779c-0.859,0-1.609,0.11-2.469,0.215c0-0.32,0.105-0.64,0.105-1.07
		c0-4.293-3.539-7.832-7.834-7.832c-2.893,0-5.363,1.499-6.757,3.858c-1.395-7.828-8.152-13.731-16.31-13.731
		c-9.119,0-16.632,7.403-16.632,16.631c0,0.965,0.11,1.93,0.325,2.899C6.279,23.068,1.665,27.897,1.665,33.796
		c0,6.118,4.934,11.162,11.156,11.162c5.475,0,42.49,0,48.927,0c6.439,0,11.588-5.154,11.588-11.588
		C73.23,26.933,67.971,21.779,61.643,21.779z"/>
	<path fill="#2E73B8" d="M61.643,18.56c-0.859,0-1.609,0.11-2.469,0.216c0-0.32,0.105-0.64,0.105-1.07
		c0-4.294-3.539-7.833-7.834-7.833c-2.893,0-5.363,1.499-6.757,3.864C43.293,5.903,36.536,0,28.378,0
		c-9.119,0-16.632,7.403-16.632,16.631c0,0.965,0.11,1.929,0.325,2.899C6.279,19.85,1.665,24.679,1.665,30.582
		c0,6.113,4.934,11.157,11.156,11.157c5.475,0,42.49,0,48.927,0c6.439,0,11.588-5.149,11.588-11.588
		C73.23,23.713,67.971,18.56,61.643,18.56z"/>
	<path fill="#2E73B8" d="M37.607,28.972h-3.111c-0.215,0-0.43,0.211-0.43,0.426V36.8c0,0.215,0.215,0.431,0.43,0.431h3.111
		c0.213,0,0.428-0.216,0.428-0.431v-7.402C38.035,29.183,37.82,28.972,37.607,28.972z"/>
	<path fill="#2E73B8" d="M31.171,28.972h-2.469c-0.215,0-0.431,0.211-0.431,0.426v2.898c0,0.215,0.216,0.431,0.431,0.431h2.469
		c0.211,0,0.425-0.216,0.425-0.431v-2.898C31.596,29.183,31.382,28.972,31.171,28.972z"/>
	<path fill="#2E73B8" d="M43.403,28.972h-2.469c-0.216,0-0.43,0.211-0.43,0.426v2.898c0,0.215,0.214,0.431,0.43,0.431h2.469
		c0.214,0,0.426-0.216,0.426-0.431v-2.898C43.829,29.183,43.617,28.972,43.403,28.972z"/>
	<path fill="#FFFFFF" d="M46.297,39.055h-17.81c-1.395,0-2.47-1.069-2.47-2.465V18.775c0-1.395,1.075-2.465,2.47-2.465h17.81
		c1.395,0,2.469,1.07,2.469,2.465V36.59C48.766,37.875,47.692,39.055,46.297,39.055z"/>
	<g>
		<path fill="#2E73B8" d="M51.877,23.929H31.811c-0.854,0-1.609-0.755-1.609-1.61c0-0.859,0.755-1.609,1.609-1.609h20.066
			c0.859,0,1.609,0.75,1.609,1.609C53.486,23.174,52.736,23.929,51.877,23.929z"/>
	</g>
	<g>
		<path fill="#2E73B8" d="M42.973,34.551H22.909c-0.859,0-1.609-0.755-1.609-1.609c0-0.859,0.75-1.609,1.609-1.609h20.064
			c0.855,0,1.61,0.75,1.61,1.609C44.583,33.796,43.829,34.551,42.973,34.551z"/>
	</g>
	<path fill="#2E73B8" d="M31.811,18.455c2.134,0,3.865,1.73,3.865,3.863s-1.731,3.86-3.865,3.86c-2.133,0-3.858-1.728-3.858-3.86
		S29.678,18.455,31.811,18.455z"/>
	<circle fill="#2E73B8" cx="42.973" cy="32.938" r="3.861"/>
	<path fill="#2E73B8" d="M37.607,62.872h-3.111c-0.215,0-0.43,0.216-0.43,0.431v7.403c0,0.214,0.215,0.43,0.43,0.43h3.111
		c0.213,0,0.428-0.216,0.428-0.43v-7.403C38.035,62.983,37.82,62.872,37.607,62.872z"/>
	<path fill="#2E73B8" d="M31.171,62.872h-2.469c-0.215,0-0.431,0.216-0.431,0.431v2.899c0,0.215,0.216,0.43,0.431,0.43h2.469
		c0.211,0,0.425-0.215,0.425-0.43v-2.899C31.596,62.983,31.382,62.872,31.171,62.872z"/>
	<path fill="#2E73B8" d="M43.403,62.872h-2.469c-0.216,0-0.43,0.216-0.43,0.431v2.899c0,0.215,0.214,0.43,0.43,0.43h2.469
		c0.214,0,0.426-0.215,0.426-0.43v-2.899C43.829,62.983,43.617,62.872,43.403,62.872z"/>
	<path fill="#19486F" d="M46.297,75h-17.81c-1.395,0-2.47-1.074-2.47-2.47V54.72c0-1.394,1.075-2.469,2.47-2.469h17.81
		c1.395,0,2.469,1.075,2.469,2.469V72.53C48.766,73.926,47.692,75,46.297,75z"/>
	<path fill="#2E73B8" d="M46.297,72.855h-17.81c-1.395,0-2.47-1.074-2.47-2.47V52.575c0-1.394,1.075-2.469,2.47-2.469h17.81
		c1.395,0,2.469,1.075,2.469,2.469v17.811C48.766,71.781,47.692,72.855,46.297,72.855z"/>
	<g>
		<path fill="#FFFFFF" d="M48.766,57.724H31.811c-0.854,0-1.609-0.75-1.609-1.609s0.755-1.609,1.609-1.609h16.955V57.724z"/>
	</g>
	<g>
		<path fill="#FFFFFF" d="M42.973,68.456H26.018v-3.219h16.955c0.855,0,1.61,0.75,1.61,1.609
			C44.583,67.701,43.829,68.456,42.973,68.456z"/>
	</g>
	<circle fill="#FFFFFF" cx="31.811" cy="56.115" r="3.864"/>
	<circle fill="#FFFFFF" cx="42.973" cy="66.845" r="3.861"/>
</g>
</svg>
