<?xml version="1.0" encoding="utf-8"?>
<!-- Generator: Adobe Illustrator 16.0.0, SVG Export Plug-In . SVG Version: 6.00 Build 0)  -->
<!DOCTYPE svg PUBLIC "-//W3C//DTD SVG 1.1//EN" "http://www.w3.org/Graphics/SVG/1.1/DTD/svg11.dtd">
<svg version="1.1" id="图层_1" xmlns="http://www.w3.org/2000/svg" xmlns:xlink="http://www.w3.org/1999/xlink" x="0px" y="0px"
	 width="75px" height="75px" viewBox="0 0 75 75" enable-background="new 0 0 75 75" xml:space="preserve">
<g id="Layer_1">
	<path fill="#19486F" d="M55.829,68.048H19.171c-5.267,0-9.585-4.318-9.585-9.585V21.805c0-5.267,4.318-9.585,9.585-9.585h36.658
		c5.267,0,9.586,4.318,9.586,9.585v36.658C65.415,63.835,61.096,68.048,55.829,68.048z"/>
	<path fill="#2E73B8" d="M55.829,65.52H19.171c-5.267,0-9.585-4.318-9.585-9.585V19.276c0-5.267,4.318-9.585,9.585-9.585h36.658
		c5.267,0,9.586,4.318,9.586,9.585v36.658C65.415,61.201,61.096,65.52,55.829,65.52z"/>
	<rect x="48.034" y="0" fill="#2E73B8" width="4.213" height="14.432"/>
	<rect x="22.752" y="0" fill="#2E73B8" width="4.214" height="14.432"/>
	<rect x="41.713" y="0" fill="#2E73B8" width="4.214" height="14.432"/>
	<rect x="29.073" y="0" fill="#2E73B8" width="4.214" height="14.432"/>
	<rect x="35.393" y="0" fill="#2E73B8" width="4.214" height="14.432"/>
	<rect y="48.139" fill="#2E73B8" width="19.066" height="4.213"/>
	<rect y="29.178" fill="#2E73B8" width="19.066" height="4.214"/>
	<rect y="41.819" fill="#2E73B8" width="19.066" height="4.214"/>
	<rect y="35.499" fill="#2E73B8" width="19.066" height="4.214"/>
	<rect y="22.858" fill="#2E73B8" width="19.066" height="4.214"/>
	<rect x="22.752" y="58.463" fill="#2E73B8" width="4.214" height="16.537"/>
	<rect x="48.034" y="58.463" fill="#2E73B8" width="4.213" height="16.537"/>
	<rect x="29.073" y="58.463" fill="#2E73B8" width="4.214" height="16.537"/>
	<rect x="41.713" y="58.463" fill="#2E73B8" width="4.214" height="16.537"/>
	<rect x="35.393" y="58.463" fill="#2E73B8" width="4.214" height="16.537"/>
	<rect x="58.252" y="41.819" fill="#2E73B8" width="16.748" height="4.214"/>
	<rect x="58.252" y="22.858" fill="#2E73B8" width="16.748" height="4.214"/>
	<rect x="58.252" y="35.499" fill="#2E73B8" width="16.748" height="4.214"/>
	<rect x="58.252" y="29.178" fill="#2E73B8" width="16.748" height="4.214"/>
	<rect x="58.252" y="48.139" fill="#2E73B8" width="16.748" height="4.213"/>
	<path fill="#FFFFFF" d="M38.553,59.305h-2.106c-1.896,0-3.476-1.58-3.476-3.476v-5.583h9.165v5.583
		C42.029,57.725,40.449,59.305,38.553,59.305z"/>
	<g>
		<path fill="#FFFFFF" d="M42.029,49.824h-9.165c-0.843,0-1.58-0.736-1.58-1.58c0-0.842,0.737-1.58,1.58-1.58h9.165
			c0.843,0,1.58,0.738,1.58,1.58C43.609,49.088,42.978,49.824,42.029,49.824z"/>
	</g>
	<g>
		<path fill="#FFFFFF" d="M32.128,41.188c-0.526,0-1.053-0.317-1.37-0.738c-0.42-0.737-0.21-1.686,0.527-2.212l14.748-8.743
			c0.737-0.421,1.686-0.211,2.212,0.527c0.421,0.737,0.211,1.686-0.527,2.212l-14.747,8.743
			C32.76,41.188,32.444,41.188,32.128,41.188z"/>
	</g>
	<g>
		<path fill="#FFFFFF" d="M28.125,30.547c-0.527,0-1.053-0.315-1.369-0.737c-0.421-0.737-0.211-1.685,0.527-2.212l14.747-8.743
			c0.738-0.422,1.686-0.211,2.213,0.527c0.526,0.737,0.21,1.685-0.527,2.211l-14.748,8.743
			C28.757,30.443,28.441,30.547,28.125,30.547z"/>
	</g>
	<g>
		<path fill="#FFFFFF" d="M28.125,37.079c-0.527,0-1.053-0.315-1.369-0.737c-0.421-0.738-0.211-1.685,0.527-2.212l18.75-11.167
			c0.737-0.42,1.686-0.21,2.212,0.527c0.421,0.737,0.211,1.686-0.527,2.213l-18.75,11.165
			C28.757,36.974,28.441,37.079,28.125,37.079z"/>
	</g>
	<g>
		<path fill="#FFFFFF" d="M37.5,49.824c-0.842,0-1.58-0.736-1.58-1.58v-5.267c0-0.526,0.316-1.053,0.738-1.369l9.375-5.583
			c0.737-0.422,1.686-0.211,2.212,0.527c0.421,0.737,0.211,1.685-0.527,2.211l-8.638,5.162v4.318
			C39.08,49.088,38.342,49.824,37.5,49.824z"/>
	</g>
	<g>
		<path fill="#FFFFFF" d="M28.125,24.017c-0.527,0-1.053-0.316-1.369-0.737c-0.421-0.737-0.211-1.686,0.527-2.212l7.795-4.634
			c0.737-0.422,1.685-0.211,2.211,0.526c0.422,0.737,0.211,1.685-0.527,2.212l-7.794,4.635
			C28.757,24.017,28.441,24.017,28.125,24.017z"/>
	</g>
</g>
</svg>
