<?xml version="1.0" encoding="utf-8"?>
<!-- Generator: Adobe Illustrator 16.0.0, SVG Export Plug-In . SVG Version: 6.00 Build 0)  -->
<!DOCTYPE svg PUBLIC "-//W3C//DTD SVG 1.1//EN" "http://www.w3.org/Graphics/SVG/1.1/DTD/svg11.dtd">
<svg version="1.1" id="图层_1" xmlns="http://www.w3.org/2000/svg" xmlns:xlink="http://www.w3.org/1999/xlink" x="0px" y="0px"
	 width="75px" height="75px" viewBox="0 0 75 75" enable-background="new 0 0 75 75" xml:space="preserve">
<g id="Layer_1">
	<path fill="#19486F" d="M55.829,68.048H19.171c-5.267,0-9.585-4.318-9.585-9.585V21.804c0-5.267,4.318-9.585,9.585-9.585h36.658
		c5.267,0,9.586,4.318,9.586,9.585v36.659C65.415,63.729,61.096,68.048,55.829,68.048z"/>
	<path fill="#2E73B8" d="M55.829,65.415H19.171c-5.267,0-9.585-4.319-9.585-9.586V19.171c0-5.267,4.318-9.585,9.585-9.585h36.658
		c5.267,0,9.586,4.318,9.586,9.585v36.658C65.415,61.096,61.096,65.415,55.829,65.415z"/>
	<rect x="48.034" fill="#2E73B8" width="4.213" height="14.431"/>
	<rect x="22.752" fill="#2E73B8" width="4.214" height="14.431"/>
	<rect x="41.713" fill="#2E73B8" width="4.214" height="14.431"/>
	<rect x="29.073" fill="#2E73B8" width="4.214" height="14.431"/>
	<rect x="35.393" fill="#2E73B8" width="4.214" height="14.431"/>
	<rect y="48.034" fill="#2E73B8" width="19.066" height="4.213"/>
	<rect y="29.073" fill="#2E73B8" width="19.066" height="4.214"/>
	<rect y="41.713" fill="#2E73B8" width="19.066" height="4.214"/>
	<rect y="35.393" fill="#2E73B8" width="19.066" height="4.214"/>
	<rect y="22.752" fill="#2E73B8" width="19.066" height="4.214"/>
	<rect x="22.752" y="58.463" fill="#2E73B8" width="4.214" height="16.537"/>
	<rect x="48.034" y="58.463" fill="#2E73B8" width="4.213" height="16.537"/>
	<rect x="29.073" y="58.463" fill="#2E73B8" width="4.214" height="16.537"/>
	<rect x="41.713" y="58.463" fill="#2E73B8" width="4.214" height="16.537"/>
	<rect x="35.393" y="58.463" fill="#2E73B8" width="4.214" height="16.537"/>
	<rect x="58.252" y="41.713" fill="#2E73B8" width="16.748" height="4.214"/>
	<rect x="58.252" y="22.752" fill="#2E73B8" width="16.748" height="4.214"/>
	<rect x="58.252" y="35.393" fill="#2E73B8" width="16.748" height="4.214"/>
	<rect x="58.252" y="29.073" fill="#2E73B8" width="16.748" height="4.214"/>
	<rect x="58.252" y="48.034" fill="#2E73B8" width="16.748" height="4.213"/>
	<path fill="#FFFFFF" d="M27.388,48.561L27.388,48.561c-2.424-2.422,10.744-15.696,12.114-16.959l11.481-11.482
		c3.582-3.582,7.584-5.372,8.953-4.002l0,0c1.369,1.369-0.526,5.372-4.002,8.954L44.452,36.552
		C43.083,37.711,29.916,50.983,27.388,48.561z"/>
	<g>
		<polygon fill="#FFFFFF" points="25.175,50.772 13.588,47.718 17.17,44.136 30.231,45.716 		"/>
		<polygon fill="#FFFFFF" points="25.175,50.772 28.23,62.359 31.812,58.778 30.231,45.716 		"/>
	</g>
	<g>
		<polygon fill="#FFFFFF" points="39.607,36.342 15.906,24.648 18.223,22.331 48.456,27.493 		"/>
		<polygon fill="#FFFFFF" points="39.607,36.342 51.299,60.043 53.616,57.726 48.456,27.493 		"/>
	</g>
	
		<rect x="23.484" y="19.459" transform="matrix(-0.7073 -0.7069 0.7069 -0.7073 26.3084 55.4977)" fill="#FFFFFF" width="2.318" height="5.688"/>
	
		<rect x="33.358" y="20.833" transform="matrix(-0.7071 -0.7071 0.7071 -0.7071 42.1809 64.8259)" fill="#FFFFFF" width="2.317" height="5.688"/>
	
		<rect x="52.5" y="48.503" transform="matrix(0.7071 0.7071 -0.7071 0.7071 52.0238 -22.9037)" fill="#FFFFFF" width="2.317" height="5.688"/>
	
		<rect x="51.068" y="38.659" transform="matrix(0.7072 0.707 -0.707 0.7072 44.6336 -24.7724)" fill="#FFFFFF" width="2.316" height="5.688"/>
</g>
</svg>
