<?xml version="1.0" encoding="utf-8"?>
<!-- Generator: Adobe Illustrator 16.0.0, SVG Export Plug-In . SVG Version: 6.00 Build 0)  -->
<!DOCTYPE svg PUBLIC "-//W3C//DTD SVG 1.1//EN" "http://www.w3.org/Graphics/SVG/1.1/DTD/svg11.dtd">
<svg version="1.1" id="图层_1" xmlns="http://www.w3.org/2000/svg" xmlns:xlink="http://www.w3.org/1999/xlink" x="0px" y="0px"
	 width="75px" height="75px" viewBox="0 0 75 75" enable-background="new 0 0 75 75" xml:space="preserve">
<g id="Layer_1">
	<polygon fill="#19486F" points="73.263,75 11.514,75 11.514,71.784 42.903,54.931 73.263,71.784 	"/>
	<rect x="11.514" y="51.329" fill="#2E73B8" width="61.749" height="20.455"/>
	<g enable-background="new    ">
		<path fill="#FFFFFF" d="M14.859,54.674h2.186v5.532h4.117v-5.532h2.188v13.765h-2.188v-6.433h-4.117v6.433h-2.186V54.674z"/>
		<path fill="#FFFFFF" d="M28.623,56.475h-3.344v-1.801h8.747v1.801h-3.216v11.964h-2.188V56.475z"/>
		<path fill="#FFFFFF" d="M38.271,56.475h-3.345v-1.801h8.748v1.801h-3.216v11.964h-2.188V56.475z"/>
		<path fill="#FFFFFF" d="M45.733,54.674h4.373c2.702,0,3.859,1.673,3.859,3.988c0,2.443-1.414,4.117-3.987,4.117h-1.93v5.659
			h-2.188V54.674H45.733z M47.92,61.105h1.544c1.158,0,2.187-0.644,2.187-2.315c0-1.544-0.643-2.443-2.314-2.443H47.92V61.105
			L47.92,61.105z"/>
		<path fill="#FFFFFF" d="M59.241,54.287h1.672l-4.374,14.28h-1.672L59.241,54.287z"/>
		<path fill="#FFFFFF" d="M70.176,68.438H62.2c0-5.917,5.788-5.789,5.788-10.034c0-1.158-0.515-2.058-1.672-2.058
			c-1.673,0-1.93,1.415-1.93,2.829h-2.059c0-2.701,1.158-4.373,3.988-4.373c2.829,0,3.859,1.672,3.859,3.602
			c0,4.503-4.374,4.889-5.532,8.104h5.532V68.438z"/>
	</g>
	<path fill="#19486F" d="M58.211,3.216H13.443c-6.432,0-11.706,5.275-11.706,11.708v33.189v11.578c0,4.889,2.959,9.004,7.075,10.806
		V48.113h17.495H51.65h18.139V14.924C69.918,8.491,64.644,3.216,58.211,3.216z"/>
	<polygon fill="#19486F" points="69.918,51.329 8.04,51.329 8.04,48.113 39.43,31.262 69.918,48.113 	"/>
	<path fill="#2E73B8" d="M58.211,0H13.443C7.012,0,1.737,5.275,1.737,11.707v36.406v8.361c0,4.89,2.959,9.005,7.075,10.807V48.113
		h17.495H51.65h18.139V11.707C69.918,5.275,64.644,0,58.211,0z"/>
</g>
</svg>
