<?xml version="1.0" encoding="utf-8"?>
<!-- Generator: Adobe Illustrator 16.0.0, SVG Export Plug-In . SVG Version: 6.00 Build 0)  -->
<!DOCTYPE svg PUBLIC "-//W3C//DTD SVG 1.1//EN" "http://www.w3.org/Graphics/SVG/1.1/DTD/svg11.dtd">
<svg version="1.1" id="图层_1" xmlns="http://www.w3.org/2000/svg" xmlns:xlink="http://www.w3.org/1999/xlink" x="0px" y="0px"
	 width="75px" height="75px" viewBox="0 0 75 75" enable-background="new 0 0 75 75" xml:space="preserve">
<g id="Layer_1">
	<path fill="#19486F" d="M73.755,35.926v3.147C73.755,59.004,57.496,75,37.435,75C17.374,75,1.246,58.872,1.246,39.074v-3.147
		H73.755z"/>
	<path fill="#2E73B8" d="M37.435,0c20.062,0,36.32,16.127,36.32,35.926c0,19.93-16.259,35.927-36.32,35.927
		c-20.061,0-36.189-16.127-36.189-35.927C1.114,15.996,17.374,0,37.435,0z"/>
	<polygon fill="#FFFFFF" points="45.171,30.289 30.878,12.587 23.797,18.225 39.401,37.5 23.797,56.775 30.878,62.413 
		45.171,44.711 51.071,37.5 	"/>
</g>
</svg>
