<?xml version="1.0" encoding="utf-8"?>
<!-- Generator: Adobe Illustrator 16.0.0, SVG Export Plug-In . SVG Version: 6.00 Build 0)  -->
<!DOCTYPE svg PUBLIC "-//W3C//DTD SVG 1.1//EN" "http://www.w3.org/Graphics/SVG/1.1/DTD/svg11.dtd">
<svg version="1.1" id="图层_1" xmlns="http://www.w3.org/2000/svg" xmlns:xlink="http://www.w3.org/1999/xlink" x="0px" y="0px"
	 width="75px" height="75px" viewBox="0 0 75 75" enable-background="new 0 0 75 75" xml:space="preserve">
<g id="Layer_1">
	<path fill="#19486F" d="M55.829,68.048H19.171c-5.267,0-9.585-4.318-9.585-9.585V21.805c0-5.267,4.318-9.585,9.585-9.585h36.658
		c5.267,0,9.586,4.318,9.586,9.585v36.658C65.415,63.835,61.096,68.048,55.829,68.048z"/>
	<path fill="#2E73B8" d="M55.829,65.52H19.171c-5.267,0-9.585-4.318-9.585-9.585V19.276c0-5.267,4.318-9.585,9.585-9.585h36.658
		c5.267,0,9.586,4.318,9.586,9.585v36.658C65.415,61.201,61.096,65.52,55.829,65.52z"/>
	<rect x="48.034" y="0" fill="#2E73B8" width="4.213" height="14.432"/>
	<rect x="22.752" y="0" fill="#2E73B8" width="4.214" height="14.432"/>
	<rect x="41.713" y="0" fill="#2E73B8" width="4.214" height="14.432"/>
	<rect x="29.073" y="0" fill="#2E73B8" width="4.214" height="14.432"/>
	<rect x="35.393" y="0" fill="#2E73B8" width="4.214" height="14.432"/>
	<rect y="48.034" fill="#2E73B8" width="19.066" height="4.213"/>
	<rect y="29.073" fill="#2E73B8" width="19.066" height="4.214"/>
	<rect y="41.714" fill="#2E73B8" width="19.066" height="4.214"/>
	<rect y="35.394" fill="#2E73B8" width="19.066" height="4.214"/>
	<rect y="22.753" fill="#2E73B8" width="19.066" height="4.214"/>
	<rect x="22.752" y="58.463" fill="#2E73B8" width="4.214" height="16.537"/>
	<rect x="48.034" y="58.463" fill="#2E73B8" width="4.213" height="16.537"/>
	<rect x="29.073" y="58.463" fill="#2E73B8" width="4.214" height="16.537"/>
	<rect x="41.713" y="58.463" fill="#2E73B8" width="4.214" height="16.537"/>
	<rect x="35.393" y="58.463" fill="#2E73B8" width="4.214" height="16.537"/>
	<rect x="58.252" y="41.714" fill="#2E73B8" width="16.748" height="4.214"/>
	<rect x="58.252" y="22.753" fill="#2E73B8" width="16.748" height="4.214"/>
	<rect x="58.252" y="35.394" fill="#2E73B8" width="16.748" height="4.214"/>
	<rect x="58.252" y="29.073" fill="#2E73B8" width="16.748" height="4.214"/>
	<rect x="58.252" y="48.034" fill="#2E73B8" width="16.748" height="4.213"/>
	<path fill="#FFFFFF" d="M47.402,49.93H27.704c-1.369,0-2.422-1.053-2.422-2.422V27.809c0-1.369,1.053-2.422,2.422-2.422h19.699
		c1.369,0,2.422,1.053,2.422,2.422v19.699C49.825,48.771,48.771,49.93,47.402,49.93z"/>
	<g>
		<path fill="#2E73B8" d="M53.09,33.392H31.391c-0.843,0-1.58-0.738-1.58-1.58c0-0.843,0.737-1.58,1.58-1.58H53.09
			c0.843,0,1.58,0.737,1.58,1.58C54.67,32.654,54.038,33.392,53.09,33.392z"/>
	</g>
	<g>
		<path fill="#2E73B8" d="M43.504,44.874h-21.7c-0.842,0-1.58-0.737-1.58-1.58c0-0.843,0.738-1.58,1.58-1.58h21.7
			c0.843,0,1.58,0.737,1.58,1.58C45.084,44.137,44.452,44.874,43.504,44.874z"/>
	</g>
	<circle fill="#2E73B8" cx="31.496" cy="31.812" r="4.214"/>
	<circle fill="#2E73B8" cx="43.504" cy="43.294" r="4.214"/>
</g>
</svg>
