<?xml version="1.0" encoding="utf-8"?>
<!-- Generator: Adobe Illustrator 16.0.0, SVG Export Plug-In . SVG Version: 6.00 Build 0)  -->
<!DOCTYPE svg PUBLIC "-//W3C//DTD SVG 1.1//EN" "http://www.w3.org/Graphics/SVG/1.1/DTD/svg11.dtd">
<svg version="1.1"
	 id="svg2" xmlns:dc="http://purl.org/dc/elements/1.1/" xmlns:cc="http://creativecommons.org/ns#" xmlns:rdf="http://www.w3.org/1999/02/22-rdf-syntax-ns#" xmlns:svg="http://www.w3.org/2000/svg"
	 xmlns="http://www.w3.org/2000/svg" xmlns:xlink="http://www.w3.org/1999/xlink" x="0px" y="0px" width="75px" height="51px"
	 viewBox="0 0 75 51" enable-background="new 0 0 75 51" xml:space="preserve">
<g id="g12" transform="scale(0.1,0.1)">
	<path id="path154" fill="#20A3E4" d="M0,57.949V510h693.955V57.949H0L0,57.949"/>
	
		<path id="path156" fill="none" stroke="#AFDFF4" stroke-width="11.9275" stroke-linecap="square" stroke-linejoin="bevel" stroke-miterlimit="10" d="
		M0,57.949V510h693.955V57.949H0L0,57.949z"/>
	<path id="path158" fill="#43B6EA" d="M0,57.949L56.045,0H750l-56.045,57.949H0L0,57.949"/>
	
		<path id="path160" fill="none" stroke="#AFDFF4" stroke-width="11.9275" stroke-linecap="square" stroke-linejoin="bevel" stroke-miterlimit="10" d="
		M0,57.949L56.045,0H750l-56.045,57.949H0L0,57.949z"/>
	<path id="path162" fill="#1D76A0" d="M693.955,57.949L750,0v452.051L693.955,510V57.949"/>
	
		<path id="path164" fill="none" stroke="#AFDFF4" stroke-width="11.9275" stroke-linecap="square" stroke-linejoin="bevel" stroke-miterlimit="10" d="
		M693.955,57.949L750,0v452.051L693.955,510V57.949z"/>
	<path id="path166" fill="#242021" d="M557.578,155.942v-26.743l62.441,44.438l-62.441,44.585v-26.714h-85.234v-35.566H557.578
		L557.578,155.942"/>
	<path id="path168" fill="#242021" d="M209.111,269.453v-26.714l62.705,44.648l-62.705,44.438v-26.738H47.158v-35.635H209.111
		L209.111,269.453"/>
	<path id="path170" fill="#242021" d="M557.578,383.052v-26.719l62.441,44.487l-62.441,44.644v-26.719h-85.234v-35.693H557.578
		L557.578,383.052"/>
	<path id="path172" fill="#FFFFFF" d="M548.437,146.885v-24.487L611.23,164.8l-62.793,44.624v-26.719h-85.156v-35.82H548.437
		L548.437,146.885"/>
	<path id="path174" fill="#FFFFFF" d="M200.313,260.649v-26.738l62.344,44.448l-62.344,44.517v-26.709H40.303v-35.518H200.313
		L200.313,260.649"/>
	<path id="path176" fill="#242021" d="M613.398,269.453v-26.714l65.146,44.648l-65.146,44.438v-26.738H470.098v-35.635H613.398
		L613.398,269.453"/>
	<path id="path178" fill="#FFFFFF" d="M606.836,260.649v-26.738l62.578,44.448l-62.578,44.517v-26.709H461.055v-35.518H606.836
		L606.836,260.649"/>
	<path id="path180" fill="#FFFFFF" d="M548.437,374.102v-26.704l62.793,44.639l-62.793,44.521v-26.753h-85.156v-35.703H548.437
		L548.437,374.102"/>
	<path id="path182" fill="#1C7BA7" d="M440.879,95.664v376.504H275.244V95.664H440.879L440.879,95.664"/>
	<path id="path184" fill="none" stroke="#8ED0F2" stroke-width="17.8925" stroke-linecap="square" stroke-miterlimit="10" d="
		M440.879,95.664v376.504H275.244V95.664H440.879L440.879,95.664z"/>
	<path id="path186" fill="#FFFFFF" d="M396.182,385.322v51.235h-71.475v-51.235H396.182L396.182,385.322"/>
	<path id="path188" fill="none" stroke="#FFFFFF" stroke-width="5.965" stroke-linecap="square" stroke-miterlimit="10" d="
		M396.182,385.322v51.235h-71.475v-51.235H396.182L396.182,385.322z"/>
	<path id="path190" fill="#FFFFFF" d="M429.59,436.558v15.493h-13.184v-15.493H429.59L429.59,436.558"/>
	<path id="path192" fill="none" stroke="#FFFFFF" stroke-width="5.965" stroke-linecap="square" stroke-miterlimit="10" d="
		M429.59,436.558v15.493h-13.184v-15.493H429.59L429.59,436.558z"/>
	<path id="path194" fill="#FFFFFF" d="M429.59,405.298v15.64h-13.184v-15.64H429.59L429.59,405.298"/>
	<path id="path196" fill="none" stroke="#FFFFFF" stroke-width="5.965" stroke-linecap="square" stroke-miterlimit="10" d="
		M429.59,405.298v15.64h-13.184v-15.64H429.59L429.59,405.298z"/>
	<path id="path198" fill="#FFFFFF" d="M429.59,374.102v15.742h-13.184v-15.742H429.59L429.59,374.102"/>
	<path id="path200" fill="none" stroke="#FFFFFF" stroke-width="5.965" stroke-linecap="square" stroke-miterlimit="10" d="
		M429.59,374.102v15.742h-13.184v-15.742H429.59L429.59,374.102z"/>
	<path id="path202" fill="#FFFFFF" d="M429.59,345.2v13.379h-13.184V345.2H429.59L429.59,345.2"/>
	<path id="path204" fill="none" stroke="#FFFFFF" stroke-width="5.965" stroke-linecap="square" stroke-miterlimit="10" d="
		M429.59,345.2v13.379h-13.184V345.2H429.59L429.59,345.2z"/>
	<path id="path206" fill="#FFFFFF" d="M429.59,314.092v13.223h-13.184v-13.223H429.59L429.59,314.092"/>
	<path id="path208" fill="none" stroke="#FFFFFF" stroke-width="5.965" stroke-linecap="square" stroke-miterlimit="10" d="
		M429.59,314.092v13.223h-13.184v-13.223H429.59L429.59,314.092z"/>
	<path id="path210" fill="#FFFFFF" d="M429.59,282.876v15.488h-13.184v-15.488H429.59L429.59,282.876"/>
	<path id="path212" fill="none" stroke="#FFFFFF" stroke-width="5.965" stroke-linecap="square" stroke-miterlimit="10" d="
		M429.59,282.876v15.488h-13.184v-15.488H429.59L429.59,282.876z"/>
	<path id="path214" fill="#FFFFFF" d="M429.59,251.606v15.649h-13.184v-15.649H429.59L429.59,251.606"/>
	<path id="path216" fill="none" stroke="#FFFFFF" stroke-width="5.965" stroke-linecap="square" stroke-miterlimit="10" d="
		M429.59,251.606v15.649h-13.184v-15.649H429.59L429.59,251.606z"/>
	<path id="path218" fill="#FFFFFF" d="M429.59,220.42v15.732h-13.184V220.42H429.59L429.59,220.42"/>
	<path id="path220" fill="none" stroke="#FFFFFF" stroke-width="5.965" stroke-linecap="square" stroke-miterlimit="10" d="
		M429.59,220.42v15.732h-13.184V220.42H429.59L429.59,220.42z"/>
	<path id="path222" fill="#FFFFFF" d="M429.59,189.316v15.596h-13.184v-15.596H429.59L429.59,189.316"/>
	<path id="path224" fill="none" stroke="#FFFFFF" stroke-width="5.965" stroke-linecap="square" stroke-miterlimit="10" d="
		M429.59,189.316v15.596h-13.184v-15.596H429.59L429.59,189.316z"/>
	<path id="path226" fill="#FFFFFF" d="M429.59,160.41v13.228h-13.184V160.41H429.59L429.59,160.41"/>
	<path id="path228" fill="none" stroke="#FFFFFF" stroke-width="5.965" stroke-linecap="square" stroke-miterlimit="10" d="
		M429.59,160.41v13.228h-13.184V160.41H429.59L429.59,160.41z"/>
	<path id="path230" fill="#FFFFFF" d="M429.59,129.199v13.281l-13.184,2.192v-15.474H429.59L429.59,129.199"/>
	<path id="path232" fill="none" stroke="#FFFFFF" stroke-width="5.965" stroke-linecap="square" stroke-miterlimit="10" d="
		M429.59,129.199v13.281l-13.184,2.192v-15.474H429.59L429.59,129.199z"/>
	<path id="path234" fill="#FFFFFF" d="M304.316,436.558v15.493h-13.184v-15.493H304.316L304.316,436.558"/>
	<path id="path236" fill="none" stroke="#FFFFFF" stroke-width="5.965" stroke-linecap="square" stroke-miterlimit="10" d="
		M304.316,436.558v15.493h-13.184v-15.493H304.316L304.316,436.558z"/>
	<path id="path238" fill="#FFFFFF" d="M304.316,405.298v15.64h-13.184v-15.64H304.316L304.316,405.298"/>
	<path id="path240" fill="none" stroke="#FFFFFF" stroke-width="5.965" stroke-linecap="square" stroke-miterlimit="10" d="
		M304.316,405.298v15.64h-13.184v-15.64H304.316L304.316,405.298z"/>
	<path id="path242" fill="#FFFFFF" d="M304.316,374.102v15.742h-13.184v-15.742H304.316L304.316,374.102"/>
	<path id="path244" fill="none" stroke="#FFFFFF" stroke-width="5.965" stroke-linecap="square" stroke-miterlimit="10" d="
		M304.316,374.102v15.742h-13.184v-15.742H304.316L304.316,374.102z"/>
	<path id="path246" fill="#FFFFFF" d="M304.316,345.2v13.379h-13.184V345.2H304.316L304.316,345.2"/>
	<path id="path248" fill="none" stroke="#FFFFFF" stroke-width="5.965" stroke-linecap="square" stroke-miterlimit="10" d="
		M304.316,345.2v13.379h-13.184V345.2H304.316L304.316,345.2z"/>
	<path id="path250" fill="#FFFFFF" d="M304.316,314.092v13.223h-13.184v-13.223H304.316L304.316,314.092"/>
	<path id="path252" fill="none" stroke="#FFFFFF" stroke-width="5.965" stroke-linecap="square" stroke-miterlimit="10" d="
		M304.316,314.092v13.223h-13.184v-13.223H304.316L304.316,314.092z"/>
	<path id="path254" fill="#FFFFFF" d="M304.316,282.876v15.488h-13.184v-15.488H304.316L304.316,282.876"/>
	<path id="path256" fill="none" stroke="#FFFFFF" stroke-width="5.965" stroke-linecap="square" stroke-miterlimit="10" d="
		M304.316,282.876v15.488h-13.184v-15.488H304.316L304.316,282.876z"/>
	<path id="path258" fill="#FFFFFF" d="M304.316,251.606v15.649h-13.184v-15.649H304.316L304.316,251.606"/>
	<path id="path260" fill="none" stroke="#FFFFFF" stroke-width="5.965" stroke-linecap="square" stroke-miterlimit="10" d="
		M304.316,251.606v15.649h-13.184v-15.649H304.316L304.316,251.606z"/>
	<path id="path262" fill="#FFFFFF" d="M304.316,220.42v15.732h-13.184V220.42H304.316L304.316,220.42"/>
	<path id="path264" fill="none" stroke="#FFFFFF" stroke-width="5.965" stroke-linecap="square" stroke-miterlimit="10" d="
		M304.316,220.42v15.732h-13.184V220.42H304.316L304.316,220.42z"/>
	<path id="path266" fill="#FFFFFF" d="M304.316,189.316v15.596h-13.184v-15.596H304.316L304.316,189.316"/>
	<path id="path268" fill="none" stroke="#FFFFFF" stroke-width="5.965" stroke-linecap="square" stroke-miterlimit="10" d="
		M304.316,189.316v15.596h-13.184v-15.596H304.316L304.316,189.316z"/>
	<path id="path270" fill="#FFFFFF" d="M304.316,160.41v13.228h-13.184V160.41H304.316L304.316,160.41"/>
	<path id="path272" fill="none" stroke="#FFFFFF" stroke-width="5.965" stroke-linecap="square" stroke-miterlimit="10" d="
		M304.316,160.41v13.228h-13.184V160.41H304.316L304.316,160.41z"/>
	<path id="path274" fill="#FFFFFF" d="M304.316,129.199v15.474h-13.184v-15.474H304.316L304.316,129.199"/>
	<path id="path276" fill="none" stroke="#FFFFFF" stroke-width="5.965" stroke-linecap="square" stroke-miterlimit="10" d="
		M304.316,129.199v15.474h-13.184v-15.474H304.316L304.316,129.199z"/>
	<path id="path278" fill="#FFFFFF" d="M396.182,302.827v51.235h-71.475v-51.235H396.182L396.182,302.827"/>
	<path id="path280" fill="none" stroke="#FFFFFF" stroke-width="5.965" stroke-linecap="square" stroke-miterlimit="10" d="
		M396.182,302.827v51.235h-71.475v-51.235H396.182L396.182,302.827z"/>
	<path id="path282" fill="#FFFFFF" d="M396.182,220.42v51.226h-71.475V220.42H396.182L396.182,220.42"/>
	<path id="path284" fill="none" stroke="#FFFFFF" stroke-width="5.965" stroke-linecap="square" stroke-miterlimit="10" d="
		M396.182,220.42v51.226h-71.475V220.42H396.182L396.182,220.42z"/>
	<path id="path286" fill="#FFFFFF" d="M396.182,140.283v49.033h-71.475v-49.033H396.182L396.182,140.283"/>
	<path id="path288" fill="none" stroke="#FFFFFF" stroke-width="5.965" stroke-linecap="square" stroke-miterlimit="10" d="
		M396.182,140.283v49.033h-71.475v-49.033H396.182L396.182,140.283z"/>
	<path id="path290" fill="#FFFFFF" d="M104.375,94.648c-43.047-8.521-65.752,13.438-62.246,32.461l0.615,1.099
		c-33.584,5.771-24.795,45.371-8.682,45.371l1.465-0.098c-4.102,18.521,35.156,37.422,57.139,27.92l1.455-1.475
		c7.549,16.831,35.156,19.521,62.773,20.171c23.652,0.688,37.568-1.143,47.822-11.611l1.465,0.566
		c38.057,2.949,55.244-23.301,46.846-42.061l2.246-0.659c12.949-3.364,14.492-33.291-7.998-37.749l0.674-1.108
		c9.473-19.39-13.184-37.686-44.697-34.351l-2.197-1.143c-22.705-20.439-87.891-17.08-95.215,3.262L104.375,94.648"/>
	<path id="path292" fill="none" stroke="#000000" stroke-width="10" d="M104.375,94.648c-43.047-8.521-65.752,13.438-62.246,32.461
		l0.615,1.099c-33.584,5.771-24.795,45.371-8.682,45.371l1.465-0.098c-4.102,18.521,35.156,37.422,57.139,27.92l1.455-1.475
		c7.549,16.831,35.156,19.521,62.773,20.171c23.652,0.688,37.568-1.143,47.822-11.611l1.465,0.566
		c38.057,2.949,55.244-23.301,46.846-42.061l2.246-0.659c12.949-3.364,14.492-33.291-7.998-37.749l0.674-1.108
		c9.473-19.39-13.184-37.686-44.697-34.351l-2.197-1.143c-22.705-20.439-87.891-17.08-95.215,3.262L104.375,94.648L104.375,94.648z"
		/>
</g>
</svg>
