<?xml version="1.0" encoding="utf-8"?>
<!-- Generator: Adobe Illustrator 16.0.0, SVG Export Plug-In . SVG Version: 6.00 Build 0)  -->
<!DOCTYPE svg PUBLIC "-//W3C//DTD SVG 1.1//EN" "http://www.w3.org/Graphics/SVG/1.1/DTD/svg11.dtd">
<svg version="1.1" id="图层_1" xmlns="http://www.w3.org/2000/svg" xmlns:xlink="http://www.w3.org/1999/xlink" x="0px" y="0px"
	 width="46px" height="75px" viewBox="0 0 46 75" enable-background="new 0 0 46 75" xml:space="preserve">
<g id="Layer_1">
	<path fill="#19486F" d="M32.747,2.833H6.816C3.031,2.833,0,5.1,0,8.219v2.833v34.007v2.832c0,3.118,3.03,5.951,6.816,5.951l0,0
		h14.763v-2.833h-0.092c0.472-6.896,6.151-12.47,13.248-12.47c1.8,0,3.5,0.379,5.019,0.943V10.957V8.124
		C39.754,5.008,36.535,2.833,32.747,2.833z"/>
	<path fill="#2E73B8" d="M32.747,0H6.816C3.031,0,0,2.268,0,5.383v2.836v36.84c0,3.114,3.03,5.95,6.816,5.95h14.858
		c-0.095-0.661-0.187-1.321-0.187-1.983c0-7.369,5.959-13.227,13.248-13.227c1.8,0,3.5,0.378,5.019,0.944V8.219V5.383
		C39.754,2.171,36.535,0,32.747,0z"/>
	<polygon fill="#FFFFFF" points="8.897,37.879 6.246,35.047 3.313,37.975 3.313,37.975 8.897,43.451 18.175,34.193 15.995,32.022 	
		"/>
	<g enable-background="new    ">
		<path fill="#99BCE3" d="M3.505,20.118h3.217l3.501,3.307l3.693-3.307h3.027l-5.112,4.534l5.489,4.911h-3.313l-3.88-3.589
			l-3.973,3.589H3.125l5.49-4.911L3.505,20.118z"/>
	</g>
	<g enable-background="new    ">
		<path fill="#99BCE3" d="M3.505,6.422h3.217l3.501,3.307l3.693-3.307h3.027l-5.112,4.535l5.489,4.91h-3.313l-3.88-3.589
			l-3.973,3.589H3.125l5.49-4.91L3.505,6.422z"/>
	</g>
	<path fill="none" d="M28.68,48.552L28.68,48.552c-0.662,0-1.138,0.565-1.138,1.136c0,0.66,0.567,1.131,1.138,1.131l0,0
		c0.663,0,1.135-0.565,1.135-1.131C29.814,49.025,29.343,48.552,28.68,48.552z"/>
	<path fill="#19486F" d="M34.735,64.705c-3.597,0-6.718-1.609-8.802-4.25V75l8.802-6.045L43.537,75V60.455
		C41.454,63.096,38.332,64.705,34.735,64.705z"/>
	<path fill="#19486F" d="M34.735,39.955c-6.246,0-11.261,5.007-11.261,11.24c0,2.646,0.947,5.101,2.459,6.992
		c2.084,2.549,5.205,4.252,8.802,4.252s6.719-1.606,8.802-4.252C45.053,56.295,46,53.841,46,51.195
		C46,44.962,40.982,39.955,34.735,39.955z"/>
	<path fill="#2E73B8" d="M34.735,62.53c-3.597,0-6.718-1.605-8.802-4.251v14.55l8.802-6.048l8.802,6.048v-14.55
		C41.454,60.925,38.332,62.53,34.735,62.53z"/>
	<path fill="#2E73B8" d="M34.735,37.783c-6.246,0-11.261,5.007-11.261,11.242c0,2.645,0.947,5.099,2.459,6.986
		c2.084,2.551,5.205,4.252,8.802,4.252s6.719-1.605,8.802-4.252C45.053,54.123,46,51.669,46,49.025
		C46,42.79,40.982,37.783,34.735,37.783z"/>
	<path fill="#FFFFFF" d="M41.644,48.08l-1.421,0.85l-0.566-0.096l-0.566-0.661l-1.607,0.191l-0.662-1.136h-1.895h-0.474
		c0,0-0.379-0.662-0.945-1.039c-0.76-0.566-1.608-0.851-2.554-0.851c-0.946,0-1.803,0.283-2.56,0.944
		c-1.701,1.418-1.984,3.968-0.567,5.669c0.097,0.092,0.191,0.282,0.283,0.379c0.76,0.753,1.801,1.132,2.844,1.132
		c0.944,0,1.794-0.283,2.554-0.943c0.188-0.188,0.38-0.379,0.566-0.566c0.189-0.191,0.283-0.378,0.379-0.661
		s0.188-0.476,0.188-0.476h7.571l0.759-1.32L41.644,48.08z M29.246,50.348L29.246,50.348c-0.566,0-1.041-0.475-1.041-1.039
		c0-0.567,0.475-1.039,1.041-1.039l0,0c0.567,0,1.042,0.472,1.042,1.039C30.288,49.873,29.814,50.348,29.246,50.348z"/>
</g>
</svg>
