<?xml version="1.0" encoding="utf-8"?>
<!-- Generator: Adobe Illustrator 16.0.0, SVG Export Plug-In . SVG Version: 6.00 Build 0)  -->
<!DOCTYPE svg PUBLIC "-//W3C//DTD SVG 1.1//EN" "http://www.w3.org/Graphics/SVG/1.1/DTD/svg11.dtd">
<svg version="1.1" id="图层_1" xmlns="http://www.w3.org/2000/svg" xmlns:xlink="http://www.w3.org/1999/xlink" x="0px" y="0px"
	 width="75px" height="75px" viewBox="0 0 75 75" enable-background="new 0 0 75 75" xml:space="preserve">
<g id="Layer_1">
	<path fill="#19486F" d="M55.829,68.048H19.171c-5.267,0-9.585-4.318-9.585-9.585V21.804c0-5.267,4.318-9.585,9.585-9.585h36.658
		c5.267,0,9.586,4.318,9.586,9.585v36.659C65.415,63.729,61.096,68.048,55.829,68.048z"/>
	<path fill="#2E73B8" d="M55.829,65.415H19.171c-5.267,0-9.585-4.319-9.585-9.586V19.171c0-5.267,4.318-9.585,9.585-9.585h36.658
		c5.267,0,9.586,4.318,9.586,9.585v36.658C65.415,61.096,61.096,65.415,55.829,65.415z"/>
	<rect x="48.034" fill="#2E73B8" width="4.213" height="14.431"/>
	<rect x="22.752" fill="#2E73B8" width="4.214" height="14.431"/>
	<rect x="41.713" fill="#2E73B8" width="4.214" height="14.431"/>
	<rect x="29.073" fill="#2E73B8" width="4.214" height="14.431"/>
	<rect x="35.393" fill="#2E73B8" width="4.214" height="14.431"/>
	<rect y="48.034" fill="#2E73B8" width="19.066" height="4.213"/>
	<rect y="29.073" fill="#2E73B8" width="19.066" height="4.214"/>
	<rect y="41.713" fill="#2E73B8" width="19.066" height="4.214"/>
	<rect y="35.393" fill="#2E73B8" width="19.066" height="4.214"/>
	<rect y="22.752" fill="#2E73B8" width="19.066" height="4.214"/>
	<rect x="22.752" y="58.463" fill="#2E73B8" width="4.214" height="16.537"/>
	<rect x="48.034" y="58.463" fill="#2E73B8" width="4.213" height="16.537"/>
	<rect x="29.073" y="58.463" fill="#2E73B8" width="4.214" height="16.537"/>
	<rect x="41.713" y="58.463" fill="#2E73B8" width="4.214" height="16.537"/>
	<rect x="35.393" y="58.463" fill="#2E73B8" width="4.214" height="16.537"/>
	<rect x="58.252" y="41.713" fill="#2E73B8" width="16.748" height="4.214"/>
	<rect x="58.252" y="22.752" fill="#2E73B8" width="16.748" height="4.214"/>
	<rect x="58.252" y="35.393" fill="#2E73B8" width="16.748" height="4.214"/>
	<rect x="58.252" y="29.073" fill="#2E73B8" width="16.748" height="4.214"/>
	<rect x="58.252" y="48.034" fill="#2E73B8" width="16.748" height="4.213"/>
	<path fill="#FFFFFF" d="M54.144,32.971H20.857c-0.633,0-1.054,0.527-1.054,1.053v19.488c0,0.632,0.527,1.054,1.054,1.054h33.287
		c0.633,0,1.053-0.527,1.053-1.054V34.024C55.303,33.392,54.776,32.971,54.144,32.971z"/>
	<path fill="#2E73B8" d="M39.922,40.871h-4.634c-0.421,0-0.843,0.316-0.843,0.842v11.272c0,0.42,0.317,0.842,0.843,0.842h4.634
		c0.422,0,0.843-0.315,0.843-0.842V41.713C40.66,41.292,40.344,40.871,39.922,40.871z"/>
	<path fill="#2E73B8" d="M29.811,40.871h-3.476c-0.422,0-0.843,0.316-0.843,0.842v4.214c0,0.421,0.317,0.842,0.843,0.842h3.476
		c0.421,0,0.842-0.316,0.842-0.842v-4.214C30.548,41.292,30.231,40.871,29.811,40.871z"/>
	<path fill="#2E73B8" d="M48.771,40.871h-3.476c-0.422,0-0.843,0.316-0.843,0.842v4.214c0,0.421,0.316,0.842,0.843,0.842h3.476
		c0.42,0,0.842-0.316,0.842-0.842v-4.214C49.614,41.292,49.192,40.871,48.771,40.871z"/>
	<path fill="#FFFFFF" d="M37.5,18.644l-23.912,13.8v2.212c0,0.632,0.422,1.053,1.054,1.053h45.717c0.632,0,1.054-0.421,1.054-1.053
		v-2.212L37.5,18.644z"/>
</g>
</svg>
