<?xml version="1.0" encoding="utf-8"?>
<!-- Generator: Adobe Illustrator 16.0.0, SVG Export Plug-In . SVG Version: 6.00 Build 0)  -->
<!DOCTYPE svg PUBLIC "-//W3C//DTD SVG 1.1//EN" "http://www.w3.org/Graphics/SVG/1.1/DTD/svg11.dtd">
<svg version="1.1" id="图层_1" xmlns="http://www.w3.org/2000/svg" xmlns:xlink="http://www.w3.org/1999/xlink" x="0px" y="0px"
	 width="75px" height="75px" viewBox="0 0 75 75" enable-background="new 0 0 75 75" xml:space="preserve">
<g id="Layer_1">
	<path fill="#19486F" d="M55.828,68.048H19.17c-5.266,0-9.584-4.318-9.584-9.586V21.804c0-5.266,4.318-9.584,9.584-9.584h36.658
		c5.268,0,9.586,4.319,9.586,9.584v36.658C65.414,63.729,61.096,68.048,55.828,68.048z"/>
	<path fill="#2E73B8" d="M55.828,65.414H19.17c-5.266,0-9.584-4.318-9.584-9.586V19.17c0-5.266,4.318-9.584,9.584-9.584h36.658
		c5.268,0,9.586,4.318,9.586,9.584v36.658C65.414,61.096,61.096,65.414,55.828,65.414z"/>
	<rect x="48.034" fill="#2E73B8" width="4.212" height="14.431"/>
	<rect x="22.752" fill="#2E73B8" width="4.213" height="14.431"/>
	<rect x="41.713" fill="#2E73B8" width="4.213" height="14.431"/>
	<rect x="29.073" fill="#2E73B8" width="4.213" height="14.431"/>
	<rect x="35.393" fill="#2E73B8" width="4.215" height="14.431"/>
	<rect y="48.034" fill="#2E73B8" width="19.066" height="4.212"/>
	<rect y="29.073" fill="#2E73B8" width="19.066" height="4.213"/>
	<rect y="41.713" fill="#2E73B8" width="19.066" height="4.213"/>
	<rect y="35.393" fill="#2E73B8" width="19.066" height="4.215"/>
	<rect y="22.752" fill="#2E73B8" width="19.066" height="4.213"/>
	<rect x="22.752" y="58.462" fill="#2E73B8" width="4.213" height="16.538"/>
	<rect x="48.034" y="58.462" fill="#2E73B8" width="4.212" height="16.538"/>
	<rect x="29.073" y="58.462" fill="#2E73B8" width="4.213" height="16.538"/>
	<rect x="41.713" y="58.462" fill="#2E73B8" width="4.213" height="16.538"/>
	<rect x="35.393" y="58.462" fill="#2E73B8" width="4.215" height="16.538"/>
	<rect x="58.251" y="41.713" fill="#2E73B8" width="16.749" height="4.213"/>
	<rect x="58.251" y="22.752" fill="#2E73B8" width="16.749" height="4.213"/>
	<rect x="58.251" y="35.393" fill="#2E73B8" width="16.749" height="4.215"/>
	<rect x="58.251" y="29.073" fill="#2E73B8" width="16.749" height="4.213"/>
	<rect x="58.251" y="48.034" fill="#2E73B8" width="16.749" height="4.212"/>
	<path fill="#FFFFFF" d="M43.716,24.86l3.16,22.332c1.054,7.058,0.105,13.588-9.271,13.588h-6.847c-8.849,0-10.217-6.53-9.27-13.588
		l3.16-22.332H43.716z"/>
	<path fill="#FFFFFF" d="M24.754,22.752c0.631-4.425,4.213-7.584,8.321-7.584h2.317c4.11,0,7.689,3.16,8.323,7.584H24.754z"/>
	<polygon fill="#FFFFFF" points="28.968,43.293 22.015,46.664 14.01,26.966 18.539,24.754 	"/>
	<g>
		<path fill="#FFFFFF" d="M46.77,48.771h-1.685V45.61h1.685c2.422,0,4.425-2,4.425-4.423v-4.636c0-2.422-2.002-4.423-4.425-4.423
			h-3.16v-3.16h3.16c4.214,0,7.584,3.37,7.584,7.583v4.636C54.354,45.401,50.983,48.771,46.77,48.771z"/>
	</g>
	<g>
		<rect x="38.026" y="54.88" fill="#FFFFFF" width="14.749" height="3.16"/>
	</g>
	<path fill="#FFFFFF" d="M58.568,60.885h-2.422c-2.426,0-4.427-2.001-4.427-4.424v-0.106c0-2.423,2.001-4.423,4.427-4.423h2.422
		V60.885z"/>
	<g>
		<g>
			<path fill="#FFFFFF" d="M61.41,55.828h-5.793c-0.841,0-1.578-0.737-1.578-1.578c0-0.845,0.737-1.581,1.578-1.581h5.793
				c0.845,0,1.582,0.736,1.582,1.581C62.992,55.091,62.358,55.828,61.41,55.828z"/>
		</g>
		<g>
			<path fill="#FFFFFF" d="M61.41,60.254h-5.793c-0.841,0-1.578-0.736-1.578-1.582c0-0.841,0.737-1.578,1.578-1.578h5.793
				c0.845,0,1.582,0.737,1.582,1.578C62.992,59.518,62.358,60.254,61.41,60.254z"/>
		</g>
	</g>
</g>
</svg>
