<?xml version="1.0" encoding="utf-8"?>
<!-- Generator: Adobe Illustrator 16.0.0, SVG Export Plug-In . SVG Version: 6.00 Build 0)  -->
<!DOCTYPE svg PUBLIC "-//W3C//DTD SVG 1.1//EN" "http://www.w3.org/Graphics/SVG/1.1/DTD/svg11.dtd">
<svg version="1.1" id="图层_1" xmlns="http://www.w3.org/2000/svg" xmlns:xlink="http://www.w3.org/1999/xlink" x="0px" y="0px"
	 width="71px" height="75px" viewBox="0 0 71 75" enable-background="new 0 0 71 75" xml:space="preserve">
<g id="Layer_1">
	<path fill="#19486F" d="M46.612,13.986l-3.484,2.347l-1.695-3.849c-2.637-5.82-8.569-9.669-14.973-9.669
		c-4.426,0-8.569,1.689-11.583,4.787c-3.107,3.099-4.803,7.229-4.803,11.641l0.095,3.004l-2.542,0.75C3.39,24.218,0,29.568,0,33.229
		v1.313c0,4.412,5.367,9.574,12.241,9.574H58.76c6.874,0,12.24-5.162,12.24-9.574v-1.313c0-4.412-4.991-10.326-10.733-10.795
		l-3.107-0.282l-0.095-3.098c-0.094-3.566-3.014-6.289-6.593-6.289C49.061,12.86,47.742,13.235,46.612,13.986z"/>
	<path fill="#2E73B8" d="M46.612,11.171l-3.484,2.347l-1.695-3.85C38.796,3.849,32.864,0,26.46,0c-4.426,0-8.569,1.689-11.583,4.787
		c-3.107,3.099-4.803,7.228-4.803,11.64l0.095,3.004l-2.542,0.751C3.39,21.402,0,26.752,0,30.413v1.313
		c0,4.412,5.367,9.575,12.241,9.575H58.76c6.874,0,12.24-5.163,12.24-9.575v-1.313c0-4.412-4.991-10.325-10.733-10.795l-3.107-0.282
		l-0.095-3.097c-0.094-3.567-3.014-6.29-6.593-6.29C49.061,10.044,47.742,10.419,46.612,11.171z"/>
	<rect x="7.249" y="54.161" fill="#19486F" width="54.618" height="20.839"/>
	<rect x="7.249" y="51.346" fill="#2E73B8" width="54.618" height="20.838"/>
	<path fill="#FFFFFF" d="M18.362,66.083L18.362,66.083c-2.542,0-4.521-2.065-4.521-4.507l0,0c0-2.533,2.071-4.506,4.521-4.506l0,0
		c2.542,0,4.521,2.064,4.521,4.506l0,0C22.882,64.018,20.905,66.083,18.362,66.083z"/>
	<polygon fill="#FFFFFF" points="40.304,66.083 28.532,66.083 34.463,56.979 	"/>
	<rect x="45.952" y="56.979" fill="#FFFFFF" width="9.136" height="9.104"/>
	<rect x="10.829" y="21.965" fill="#FFFFFF" width="47.083" height="14.831"/>
	<path fill="#2E73B8" d="M18.362,33.886L18.362,33.886c-2.542,0-4.521-2.063-4.521-4.506l0,0c0-2.534,2.071-4.505,4.521-4.505l0,0
		c2.542,0,4.521,2.065,4.521,4.505l0,0C22.882,31.821,20.905,33.886,18.362,33.886z"/>
	<polygon fill="#2E73B8" points="40.304,33.886 28.532,33.886 34.463,24.781 	"/>
	<rect x="45.952" y="24.781" fill="#2E73B8" width="9.136" height="9.104"/>
</g>
</svg>
