<?xml version="1.0" encoding="utf-8"?>
<!-- Generator: Adobe Illustrator 16.0.0, SVG Export Plug-In . SVG Version: 6.00 Build 0)  -->
<!DOCTYPE svg PUBLIC "-//W3C//DTD SVG 1.1//EN" "http://www.w3.org/Graphics/SVG/1.1/DTD/svg11.dtd">
<svg version="1.1" id="图层_1" xmlns="http://www.w3.org/2000/svg" xmlns:xlink="http://www.w3.org/1999/xlink" x="0px" y="0px"
	 width="75px" height="75px" viewBox="0 0 75 75" enable-background="new 0 0 75 75" xml:space="preserve">
<g id="Layer_1">
	<path fill="#19486F" d="M55.828,68.048H19.17c-5.266,0-9.584-4.317-9.584-9.586V21.804c0-5.266,4.318-9.584,9.584-9.584h36.658
		c5.268,0,9.586,4.319,9.586,9.584v36.658C65.414,63.729,61.096,68.048,55.828,68.048z"/>
	<path fill="#2E73B8" d="M55.828,65.414H19.17c-5.266,0-9.584-4.318-9.584-9.586V19.17c0-5.266,4.318-9.584,9.584-9.584h36.658
		c5.268,0,9.586,4.318,9.586,9.584v36.658C65.414,61.096,61.096,65.414,55.828,65.414z"/>
	<rect x="48.034" fill="#2E73B8" width="4.212" height="14.431"/>
	<rect x="22.752" fill="#2E73B8" width="4.213" height="14.431"/>
	<rect x="41.713" fill="#2E73B8" width="4.213" height="14.431"/>
	<rect x="29.073" fill="#2E73B8" width="4.213" height="14.431"/>
	<rect x="35.393" fill="#2E73B8" width="4.215" height="14.431"/>
	<rect y="48.034" fill="#2E73B8" width="19.066" height="4.212"/>
	<rect y="29.073" fill="#2E73B8" width="19.066" height="4.213"/>
	<rect y="41.713" fill="#2E73B8" width="19.066" height="4.213"/>
	<rect y="35.393" fill="#2E73B8" width="19.066" height="4.215"/>
	<rect y="22.752" fill="#2E73B8" width="19.066" height="4.213"/>
	<rect x="22.752" y="58.462" fill="#2E73B8" width="4.213" height="16.538"/>
	<rect x="48.034" y="58.462" fill="#2E73B8" width="4.212" height="16.538"/>
	<rect x="29.073" y="58.462" fill="#2E73B8" width="4.213" height="16.538"/>
	<rect x="41.713" y="58.462" fill="#2E73B8" width="4.213" height="16.538"/>
	<rect x="35.393" y="58.462" fill="#2E73B8" width="4.215" height="16.538"/>
	<rect x="58.251" y="41.713" fill="#2E73B8" width="16.749" height="4.213"/>
	<rect x="58.251" y="22.752" fill="#2E73B8" width="16.749" height="4.213"/>
	<rect x="58.251" y="35.393" fill="#2E73B8" width="16.749" height="4.215"/>
	<rect x="58.251" y="29.073" fill="#2E73B8" width="16.749" height="4.213"/>
	<rect x="58.251" y="48.034" fill="#2E73B8" width="16.749" height="4.212"/>
	<g>
		<path fill="#FFFFFF" d="M14.853,46.032h-0.739c-0.843,0-1.58-0.737-1.58-1.58c0-0.842,0.737-1.58,1.58-1.58h0.739
			c0.842,0,1.58,0.738,1.58,1.58C16.433,45.295,15.695,46.032,14.853,46.032z"/>
	</g>
	<g>
		<path fill="#FFFFFF" d="M62.255,46.349h-0.737c-0.845,0-1.582-0.739-1.582-1.581c0-0.844,0.737-1.58,1.582-1.58h0.737
			c0.841,0,1.581,0.736,1.581,1.58C63.836,45.61,63.096,46.349,62.255,46.349z"/>
	</g>
	<g>
		<path fill="#2E73B8" d="M55.828,45.927h4.004v-3.582c0-7.373-8.85-7.373-8.85-7.373l-3.372-7.795H30.969l-2.318,7.584
			l-12.535,3.476v4.213v3.582h3.054"/>
		<path fill="#FFFFFF" d="M59.832,47.507h-4.004c-0.842,0-1.578-0.737-1.578-1.58c0-0.842,0.736-1.58,1.578-1.58h2.423v-2.002
			c0-5.582-6.53-5.793-7.269-5.793c-0.631,0-1.157-0.42-1.474-0.947l-2.951-6.847H32.233l-1.896,6.426
			c-0.104,0.526-0.526,0.949-1.052,1.052l-11.376,3.161v4.951h1.474c0.842,0,1.58,0.737,1.58,1.58c0,0.843-0.737,1.58-1.58,1.58
			h-3.054c-0.843,0-1.58-0.737-1.58-1.58v-7.795c0-0.736,0.42-1.369,1.158-1.474L27.6,33.393l2.001-6.741
			c0.211-0.634,0.843-1.16,1.477-1.16H47.72c0.631,0,1.159,0.423,1.474,0.949l2.951,6.952c3.687,0.316,9.375,2.528,9.375,8.953
			v3.582C61.41,46.77,60.673,47.507,59.832,47.507z"/>
	</g>
	<g>
		<path fill="#2E73B8" d="M55.828,45.927h4.004v-3.582c0-7.373-8.85-7.373-8.85-7.373l-3.372-7.795H30.969l-2.318,7.584
			l-12.535,3.476v4.213v3.582h3.054"/>
		<path fill="#FFFFFF" d="M59.832,47.507h-4.004c-0.842,0-1.578-0.737-1.578-1.58c0-0.842,0.736-1.58,1.578-1.58h2.423v-2.002
			c0-5.582-6.53-5.793-7.269-5.793c-0.631,0-1.157-0.42-1.474-0.947l-2.951-6.847H32.233l-1.896,6.426
			c-0.104,0.526-0.526,0.949-1.052,1.052l-11.376,3.161v4.951h1.474c0.842,0,1.58,0.737,1.58,1.58c0,0.843-0.737,1.58-1.58,1.58
			h-3.054c-0.843,0-1.58-0.737-1.58-1.58v-7.795c0-0.736,0.42-1.369,1.158-1.474L27.6,33.393l2.001-6.741
			c0.211-0.634,0.843-1.16,1.477-1.16H47.72c0.631,0,1.159,0.423,1.474,0.949l2.951,6.952c3.687,0.316,9.375,2.528,9.375,8.953
			v3.582C61.41,46.77,60.673,47.507,59.832,47.507z"/>
	</g>
	<g>
		<circle fill="#2E73B8" cx="23.806" cy="45.927" r="4.108"/>
		<path fill="#FFFFFF" d="M23.806,51.616c-3.16,0-5.688-2.53-5.688-5.689c0-3.159,2.528-5.688,5.688-5.688
			c3.16,0,5.688,2.528,5.688,5.688C29.494,49.087,26.966,51.616,23.806,51.616z M23.806,43.398c-1.369,0-2.529,1.16-2.529,2.528
			c0,1.37,1.16,2.529,2.529,2.529c1.368,0,2.528-1.159,2.528-2.529C26.334,44.558,25.174,43.398,23.806,43.398z"/>
	</g>
	<g>
		<circle fill="#2E73B8" cx="50.982" cy="45.927" r="4.108"/>
		<path fill="#FFFFFF" d="M50.982,51.616c-3.159,0-5.688-2.53-5.688-5.689c0-3.159,2.528-5.688,5.688-5.688
			c3.16,0,5.689,2.528,5.689,5.688C56.672,49.087,54.143,51.616,50.982,51.616z M50.982,43.398c-1.369,0-2.527,1.16-2.527,2.528
			c0,1.37,1.159,2.529,2.527,2.529c1.369,0,2.529-1.159,2.529-2.529C53.514,44.558,52.458,43.398,50.982,43.398z"/>
	</g>
	<g>
		<path fill="#FFFFFF" d="M46.243,47.507H28.757c-0.843,0-1.58-0.737-1.58-1.58c0-0.842,0.737-1.58,1.58-1.58h17.486
			c0.843,0,1.58,0.737,1.58,1.58C47.823,46.77,47.086,47.507,46.243,47.507z"/>
	</g>
</g>
</svg>
