<?xml version="1.0" encoding="utf-8"?>
<!-- Generator: Adobe Illustrator 16.0.0, SVG Export Plug-In . SVG Version: 6.00 Build 0)  -->
<!DOCTYPE svg PUBLIC "-//W3C//DTD SVG 1.1//EN" "http://www.w3.org/Graphics/SVG/1.1/DTD/svg11.dtd">
<svg version="1.1"
	 id="svg2" xmlns:dc="http://purl.org/dc/elements/1.1/" xmlns:cc="http://creativecommons.org/ns#" xmlns:rdf="http://www.w3.org/1999/02/22-rdf-syntax-ns#" xmlns:svg="http://www.w3.org/2000/svg"
	 xmlns="http://www.w3.org/2000/svg" xmlns:xlink="http://www.w3.org/1999/xlink" x="0px" y="0px" width="72px" height="78px"
	 viewBox="0 0 72 78" enable-background="new 0 0 72 78" xml:space="preserve">
<g id="g12" transform="scale(0.1,0.1)">
	<path id="path14" fill="none" stroke="#FFFFFF" stroke-width="4.14" d="M10.632,374.585h528.652"/>
	<path id="path16" fill="#087BBB" d="M10.652,764.995h528.652V590.874H10.652V764.995z"/>
	<path id="path18" fill="none" stroke="#FFFFFF" stroke-width="4" d="M10.652,764.995h528.652V590.874H10.652V764.995z"/>
	<path id="path20" d="M709.607,433.393L539.304,590.776H9.998l189.092-157.383H709.607"/>
	<path id="path22" fill="none" stroke="#FFFFFF" stroke-width="3.6" d="M709.607,433.393L539.304,590.776H9.998l189.092-157.383
		H709.607z"/>
	<path id="path24" fill="#087BBB" d="M709.998,596.577V433.921l-170.693,157.48v171.426L709.998,596.577"/>
	<path id="path26" fill="none" stroke="#FFFFFF" stroke-width="4" d="M709.998,596.577V433.921l-170.693,157.48v171.426
		L709.998,596.577z"/>
	<path id="path28" fill="#087BBB" d="M10.652,555.581h528.652V381.655H10.652V555.581z"/>
	<path id="path30" fill="none" stroke="#FFFFFF" stroke-width="4" d="M10.652,555.581h528.652V381.655H10.652V555.581z"/>
	<path id="path32" d="M709.607,218.315L539.304,375.718H9.998l189.092-157.402H709.607"/>
	<path id="path34" fill="none" stroke="#FFFFFF" stroke-width="3.6" d="M709.607,218.315L539.304,375.718H9.998l189.092-157.402
		H709.607z"/>
	<path id="path36" fill="#087BBB" d="M709.998,404.741V231.87L539.304,389.331v171.426L709.998,404.741"/>
	<path id="path38" fill="none" stroke="#FFFFFF" stroke-width="4" d="M709.998,404.741V231.87L539.304,389.331v171.426
		L709.998,404.741z"/>
	<path id="path40" fill="#087BBB" d="M10.652,346.44h528.652V172.48H10.652V346.44z"/>
	<path id="path42" fill="none" stroke="#FFFFFF" stroke-width="4" d="M10.652,346.44h528.652V172.48H10.652V346.44z"/>
	<path id="path44" fill="#087BBB" d="M709.607,15L539.304,172.383H9.998L199.089,15H709.607"/>
	<path id="path46" fill="none" stroke="#FFFFFF" stroke-width="4" d="M709.607,15L539.304,172.383H9.998L199.089,15H709.607z"/>
	<path id="path48" fill="#087BBB" d="M709.998,185.342V15.352l-170.693,157.48v171.44L709.998,185.342"/>
	<path id="path50" fill="none" stroke="#FFFFFF" stroke-width="4" d="M709.998,185.342V15.352l-170.693,157.48v171.44
		L709.998,185.342z"/>
	<path id="path52" d="M443.337,105.4l22.441-16.855l61.074,19.775l-122.344,26.475l20.479-20.225H303.679l18.525-9.17H443.337"/>
	<path id="path54" d="M383.591,59.717l-9.824,10.869H273.328l-20.303,12.09l-60.605-20.029L314.47,36.289l-31.172,23.428H383.591"/>
	<path id="path56" d="M297.068,129.189l-14.238,10.713H182.38l-16.035,12.119l-60.605-19.902l122.051-26.357l-31.006,23.428H297.068
		"/>
	<path id="path58" d="M539.5,42.178l22.432-16.855l61.064,19.785L500.652,71.729l22.637-18.691H401.814l16.533-10.859H539.5"/>
	<path id="path60" fill="#FFFFFF" d="M443.337,111.25l22.441-16.855l61.074,19.775l-122.344,26.465l20.479-20.205H303.679
		l18.525-9.18H443.337"/>
	<path id="path62" fill="#FFFFFF" d="M383.591,65.576l-9.824,10.869H273.328l-20.303,12.08l-60.605-20.029L314.47,42.139
		l-31.172,23.438H383.591"/>
	<path id="path64" fill="#FFFFFF" d="M297.068,135.039l-14.238,10.723H182.38l-16.035,12.119l-60.605-19.912l122.051-26.357
		l-31.006,23.428H297.068"/>
	<path id="path66" fill="#FFFFFF" d="M539.5,48.037l22.432-16.855l61.064,19.775L500.652,77.578l22.637-18.682H401.814
		l16.533-10.859H539.5"/>
	<path id="path68" fill="#FFFFFF" d="M293.044,366.225V248.608h19.941l-29.395-44.37l-29.229,44.37h19.775v117.617H293.044"/>
	<path id="path70" fill="#FFFFFF" d="M233.328,406.733l-82.744-83.32l14.121-14.023l-52.021-10.625l10.537,52.324l13.955-14.199
		l82.744,83.164L233.328,406.733"/>
	<path id="path72" fill="#FFFFFF" d="M203.074,461.069H86.072v-19.863L41.921,470.6l44.15,29.375v-19.883h117.002V461.069"/>
	<path id="path74" fill="#FFFFFF" d="M219.919,521.128l-82.744,83.32l-13.955-14.336l-10.537,52.441l52.021-10.762l-14.121-14.023
		l82.744-83.32L219.919,521.128"/>
	<path id="path76" fill="#FFFFFF" d="M274.138,551.675v117.48h-19.775l29.229,44.531l29.395-44.531h-19.941v-117.48H274.138"/>
	<path id="path78" fill="#FFFFFF" d="M333.865,534.448l82.891,83.32l-14.277,14.023l52.188,10.762l-10.703-52.441l-13.945,14.336
		l-82.734-83.32L333.865,534.448"/>
	<path id="path80" fill="#FFFFFF" d="M364.119,480.093H481.13v19.883l44.287-29.375l-44.287-29.395v19.863H364.119V480.093"/>
	<path id="path82" fill="#FFFFFF" d="M347.283,420.053l82.734-83.164l13.945,14.199l10.703-52.324l-52.188,10.625l14.277,14.023
		l-82.891,83.32L347.283,420.053"/>
	<path id="path84" fill="#FFFFFF" d="M334.568,542.28c38.633-27.148,48.066-80.684,21.035-119.863
		c-27.168-38.672-80.42-48.145-119.063-20.84c-38.633,27.168-48.057,80.723-21.025,119.551
		C242.673,559.975,295.925,569.448,334.568,542.28"/>
	<path id="path86" fill="none" stroke="#000000" stroke-width="2.52" d="M334.568,542.28
		c38.633-27.148,48.066-80.684,21.035-119.863c-27.168-38.672-80.42-48.145-119.063-20.84
		c-38.633,27.168-48.057,80.723-21.025,119.551C242.673,559.975,295.925,569.448,334.568,542.28z"/>
	<path id="path88" fill="none" stroke="#FFFFFF" stroke-width="9" d="M684.363,398.12c-8.604,110.449-40.908,197.793-72.734,195.449
		c-31.484-2.363-50.332-93.828-41.748-204.297c8.564-110.293,40.908-197.807,72.705-195.298
		C674.099,196.309,692.947,287.808,684.363,398.12z"/>
</g>
</svg>
