<?xml version="1.0" encoding="utf-8"?>
<!-- Generator: Adobe Illustrator 16.0.0, SVG Export Plug-In . SVG Version: 6.00 Build 0)  -->
<!DOCTYPE svg PUBLIC "-//W3C//DTD SVG 1.1//EN" "http://www.w3.org/Graphics/SVG/1.1/DTD/svg11.dtd">
<svg version="1.1" id="图层_1" xmlns="http://www.w3.org/2000/svg" xmlns:xlink="http://www.w3.org/1999/xlink" x="0px" y="0px"
	 width="75px" height="75px" viewBox="0 0 75 75" enable-background="new 0 0 75 75" xml:space="preserve">
<g id="Layer_1">
	<path fill="#19486F" d="M61.057,75H13.943C7.175,75,1.625,69.448,1.625,62.68V15.568C1.625,8.8,7.175,3.25,13.943,3.25h47.113
		c6.769,0,12.318,5.55,12.318,12.318V62.68C73.375,69.585,67.825,75,61.057,75z"/>
	<path fill="#2E73B8" d="M61.057,71.75H13.943c-6.769,0-12.318-5.55-12.318-12.318V12.32C1.625,5.551,7.175,0,13.943,0h47.113
		c6.769,0,12.318,5.551,12.318,12.32v47.111C73.375,66.2,67.825,71.75,61.057,71.75z"/>
	<rect x="10.425" y="35.469" fill="#FFFFFF" width="16.922" height="27.076"/>
	<rect x="28.972" y="8.394" fill="#FFFFFF" width="16.922" height="54.151"/>
	<rect x="47.653" y="21.932" fill="#FFFFFF" width="16.922" height="40.613"/>
	<path fill="#2E73B8" d="M18.818,59.566L18.818,59.566c-3.385,0-6.092-2.708-6.092-6.092l0,0c0-3.385,2.707-6.092,6.092-6.092l0,0
		c3.384,0,6.092,2.707,6.092,6.092l0,0C24.91,56.858,22.202,59.566,18.818,59.566z"/>
	<rect x="49.955" y="47.383" fill="#2E73B8" width="12.184" height="12.184"/>
	<polygon fill="#2E73B8" points="43.592,59.566 31.408,59.566 37.5,47.383 	"/>
</g>
</svg>
