<?xml version="1.0" encoding="utf-8"?>
<!-- Generator: Adobe Illustrator 16.0.0, SVG Export Plug-In . SVG Version: 6.00 Build 0)  -->
<!DOCTYPE svg PUBLIC "-//W3C//DTD SVG 1.1//EN" "http://www.w3.org/Graphics/SVG/1.1/DTD/svg11.dtd">
<svg version="1.1" id="图层_1" xmlns="http://www.w3.org/2000/svg" xmlns:xlink="http://www.w3.org/1999/xlink" x="0px" y="0px"
	 width="75px" height="75px" viewBox="0 0 75 75" enable-background="new 0 0 75 75" xml:space="preserve">
<g id="Layer_1">
	<polygon fill="#19486F" points="69.918,51.329 15.373,51.329 15.373,48.113 42.646,27.916 69.918,48.113 	"/>
	<polygon fill="#19486F" points="73.263,75 29.523,75 29.523,71.784 51.779,54.931 73.263,71.784 	"/>
	<rect x="29.523" y="51.329" fill="#2E73B8" width="43.739" height="20.455"/>
	<g enable-background="new    ">
		<path fill="#FFFFFF" d="M31.839,54.674h2.188v5.532h4.117v-5.532h2.187v13.765h-2.187v-6.433h-4.117v6.433h-2.188V54.674z"/>
		<path fill="#FFFFFF" d="M45.604,56.475H42.26v-1.801h8.748v1.801h-3.217v11.964h-2.187V56.475z"/>
		<path fill="#FFFFFF" d="M55.382,56.475h-3.346v-1.801h8.748v1.801h-3.216v11.964h-2.187V56.475z"/>
		<path fill="#FFFFFF" d="M62.843,54.674h4.373c2.702,0,3.859,1.673,3.859,3.988c0,2.443-1.414,4.117-3.987,4.117h-1.93v5.659
			h-2.188V54.674H62.843z M65.03,61.105h1.543c1.158,0,2.187-0.644,2.187-2.315c0-1.544-0.643-2.443-2.315-2.443H65.03V61.105
			L65.03,61.105z"/>
	</g>
	<path fill="#19486F" d="M69.918,48.113V14.924c0-6.433-5.274-11.708-11.707-11.708H13.443c-6.432,0-11.706,5.275-11.706,11.708
		v44.768c0,6.432,5.274,11.705,11.706,11.705h12.864V48.113H69.918z"/>
	<path fill="#2E73B8" d="M69.918,48.113V11.707C69.918,5.275,64.644,0,58.211,0H13.443C7.012,0,1.737,5.275,1.737,11.707v44.768
		c0,6.433,5.274,11.706,11.706,11.706h12.864V48.113H69.918z"/>
</g>
</svg>
