<?xml version="1.0" encoding="utf-8"?>
<!-- Generator: Adobe Illustrator 16.0.0, SVG Export Plug-In . SVG Version: 6.00 Build 0)  -->
<!DOCTYPE svg PUBLIC "-//W3C//DTD SVG 1.1//EN" "http://www.w3.org/Graphics/SVG/1.1/DTD/svg11.dtd">
<svg version="1.1" id="图层_1" xmlns="http://www.w3.org/2000/svg" xmlns:xlink="http://www.w3.org/1999/xlink" x="0px" y="0px"
	 width="75px" height="75px" viewBox="0 0 75 75" enable-background="new 0 0 75 75" xml:space="preserve">
<g id="Layer_1">
	<path fill="#19486F" d="M55.828,68.048H19.17c-5.266,0-9.584-4.318-9.584-9.586V21.804c0-5.266,4.318-9.584,9.584-9.584h36.658
		c5.268,0,9.586,4.319,9.586,9.584v36.658C65.414,63.729,61.096,68.048,55.828,68.048z"/>
	<path fill="#2E73B8" d="M55.828,65.414H19.17c-5.266,0-9.584-4.318-9.584-9.586V19.17c0-5.266,4.318-9.584,9.584-9.584h36.658
		c5.268,0,9.586,4.318,9.586,9.584v36.658C65.414,61.096,61.096,65.414,55.828,65.414z"/>
	<rect x="48.034" fill="#2E73B8" width="4.212" height="14.431"/>
	<rect x="22.752" fill="#2E73B8" width="4.213" height="14.431"/>
	<rect x="41.713" fill="#2E73B8" width="4.213" height="14.431"/>
	<rect x="29.073" fill="#2E73B8" width="4.213" height="14.431"/>
	<rect x="35.393" fill="#2E73B8" width="4.215" height="14.431"/>
	<rect y="48.034" fill="#2E73B8" width="19.066" height="4.212"/>
	<rect y="29.073" fill="#2E73B8" width="19.066" height="4.213"/>
	<rect y="41.713" fill="#2E73B8" width="19.066" height="4.213"/>
	<rect y="35.393" fill="#2E73B8" width="19.066" height="4.215"/>
	<rect y="22.752" fill="#2E73B8" width="19.066" height="4.213"/>
	<rect x="22.752" y="58.462" fill="#2E73B8" width="4.213" height="16.538"/>
	<rect x="48.034" y="58.462" fill="#2E73B8" width="4.212" height="16.538"/>
	<rect x="29.073" y="58.462" fill="#2E73B8" width="4.213" height="16.538"/>
	<rect x="41.713" y="58.462" fill="#2E73B8" width="4.213" height="16.538"/>
	<rect x="35.393" y="58.462" fill="#2E73B8" width="4.215" height="16.538"/>
	<rect x="58.251" y="41.713" fill="#2E73B8" width="16.749" height="4.213"/>
	<rect x="58.251" y="22.752" fill="#2E73B8" width="16.749" height="4.213"/>
	<rect x="58.251" y="35.393" fill="#2E73B8" width="16.749" height="4.215"/>
	<rect x="58.251" y="29.073" fill="#2E73B8" width="16.749" height="4.213"/>
	<rect x="58.251" y="48.034" fill="#2E73B8" width="16.749" height="4.212"/>
	<path fill="#FFFFFF" d="M46.453,46.558l-24.964-2.211c-0.528,0-1.054-0.423-1.159-1.054l-2.317-12.957
		c-0.105-0.737,0.421-1.369,1.157-1.475l31.076-3.265c0.845-0.106,1.582,0.631,1.371,1.474l-3.793,18.435
		C47.612,46.243,47.086,46.664,46.453,46.558z"/>
	<circle fill="#FFFFFF" cx="22.752" cy="57.619" r="3.266"/>
	<circle fill="#FFFFFF" cx="50.352" cy="57.619" r="3.266"/>
	<g>
		<path fill="#2E73B8" d="M22.542,49.509c-0.316,0-0.528-0.211-0.528-0.526V25.597c0-0.316,0.211-0.526,0.528-0.526
			c0.315,0,0.526,0.21,0.526,0.526v23.386C23.068,49.298,22.857,49.509,22.542,49.509z"/>
	</g>
	<g>
		<path fill="#2E73B8" d="M27.914,49.509c-0.316,0-0.526-0.211-0.526-0.526V25.597c0-0.316,0.21-0.526,0.526-0.526
			c0.316,0,0.528,0.21,0.528,0.526v23.386C28.442,49.298,28.125,49.509,27.914,49.509z"/>
	</g>
	<g>
		<path fill="#2E73B8" d="M33.182,49.509c-0.317,0-0.526-0.211-0.526-0.526V25.597c0-0.316,0.209-0.526,0.526-0.526
			c0.316,0,0.526,0.21,0.526,0.526v23.386C33.708,49.298,33.498,49.509,33.182,49.509z"/>
	</g>
	<g>
		<path fill="#2E73B8" d="M60.465,32.021H15.063c-0.315,0-0.526-0.209-0.526-0.526s0.211-0.526,0.526-0.526h45.402
			c0.315,0,0.526,0.21,0.526,0.526S60.673,32.021,60.465,32.021z"/>
	</g>
	<g>
		<path fill="#2E73B8" d="M60.465,36.869H15.063c-0.315,0-0.526-0.211-0.526-0.527c0-0.316,0.211-0.526,0.526-0.526h45.402
			c0.315,0,0.526,0.21,0.526,0.526C60.991,36.658,60.673,36.869,60.465,36.869z"/>
	</g>
	<g>
		<path fill="#2E73B8" d="M60.465,41.818H15.063c-0.315,0-0.526-0.21-0.526-0.526c0-0.316,0.211-0.528,0.526-0.528h45.402
			c0.315,0,0.526,0.211,0.526,0.528C60.991,41.608,60.673,41.818,60.465,41.818z"/>
	</g>
	<g>
		<path fill="#2E73B8" d="M38.554,49.509c-0.316,0-0.527-0.211-0.527-0.526V25.597c0-0.316,0.211-0.526,0.527-0.526
			c0.315,0,0.526,0.21,0.526,0.526v23.386C39.08,49.298,38.765,49.509,38.554,49.509z"/>
	</g>
	<g>
		<path fill="#2E73B8" d="M43.821,48.983c-0.316,0-0.527-0.211-0.527-0.527V25.702c0-0.316,0.211-0.528,0.527-0.528
			c0.315,0,0.526,0.211,0.526,0.528v22.753C44.347,48.666,44.136,48.983,43.821,48.983z"/>
	</g>
	<g>
		<path fill="#FFFFFF" d="M51.405,53.302H21.384c-0.843,0-1.58-0.737-1.58-1.582c0-0.841,0.737-1.58,1.58-1.58h26.86l-3.266-4.318
			c-0.315-0.316-0.42-0.843-0.315-1.264l5.372-25.914c0.105-0.526,0.527-0.948,0.948-1.159l6.11-2.317
			c0.842-0.315,1.687,0.106,2.001,0.948c0.315,0.843-0.106,1.685-0.948,2.002l-5.268,2l-5.056,24.334l4.741,6.319
			c0.314,0.526,0.419,1.159,0.104,1.686C52.353,52.983,52.035,53.302,51.405,53.302z"/>
	</g>
	<g>
		<path fill="#FFFFFF" d="M46.98,47.507l-25.597-1.58c-1.265-0.105-2.317-1.054-2.634-2.317l-2.317-12.957
			c-0.105-0.737,0.105-1.58,0.526-2.211c0.422-0.634,1.159-1.054,2.002-1.16l31.074-3.265l0.316,3.16l-30.759,3.16l2.211,12.431
			l25.282,1.475L46.98,47.507z"/>
	</g>
</g>
</svg>
