<?xml version="1.0" encoding="utf-8"?>
<!-- Generator: Adobe Illustrator 16.0.0, SVG Export Plug-In . SVG Version: 6.00 Build 0)  -->
<!DOCTYPE svg PUBLIC "-//W3C//DTD SVG 1.1//EN" "http://www.w3.org/Graphics/SVG/1.1/DTD/svg11.dtd">
<svg version="1.1" id="图层_1" xmlns="http://www.w3.org/2000/svg" xmlns:xlink="http://www.w3.org/1999/xlink" x="0px" y="0px"
	 width="57px" height="78px" viewBox="0 0 57 78" enable-background="new 0 0 57 78" xml:space="preserve">
<g id="Layer_1">
	<path fill="none" d="M15.462,27.583L15.462,27.583c-1.412,0-2.527,1.109-2.527,2.527c0,1.313,1.114,2.423,2.527,2.423l0,0
		c1.416,0,2.528-1.111,2.528-2.526C17.989,28.693,16.878,27.583,15.462,27.583z"/>
	<polygon fill="#19486F" points="43.659,61.229 37.091,57.895 33.756,64.461 28.5,59.308 23.245,64.461 19.909,57.895 
		13.341,61.229 12.128,53.953 9.6,54.359 9.6,78 28.5,65.066 47.399,78 47.399,54.359 44.873,53.953 	"/>
	<polygon fill="#2E73B8" points="9.6,43.547 9.6,74.969 28.5,62.035 47.399,74.969 47.399,43.547 	"/>
	<polygon fill="#19486F" points="52.554,31.524 57,26.975 57,23.945 51.443,24.045 54.271,18.39 54.271,15.356 48.006,17.377 
		48.916,11.115 48.916,8.083 42.65,12.024 41.639,5.757 35.979,8.587 33.048,3.031 28.5,7.475 23.953,3.031 21.022,8.587 
		15.36,5.757 14.352,12.024 8.084,8.083 8.084,11.115 8.995,17.377 2.727,15.356 2.727,18.39 5.558,24.045 0,23.945 0,26.975 
		4.448,31.524 0,33.038 0,36.069 5.558,38.897 2.727,41.625 2.727,44.656 8.995,45.668 8.084,48.902 8.084,51.934 9.6,51.73 
		14.352,51.023 15.36,57.287 21.022,54.359 23.953,60.016 28.5,55.572 33.048,60.016 35.979,54.359 41.639,57.287 42.65,51.023 
		47.399,51.73 48.916,51.934 48.916,48.902 48.006,45.668 54.271,44.656 54.271,41.625 51.443,38.897 57,36.069 57,33.038 	"/>
	<polygon fill="#2E73B8" points="52.554,28.492 57,23.945 51.443,21.016 54.271,15.356 48.006,14.347 48.916,8.083 42.65,8.992 
		41.639,2.728 35.979,5.558 33.048,0 28.5,4.445 23.953,0 21.022,5.558 15.36,2.728 14.352,8.992 8.084,8.083 8.995,14.347 
		2.727,15.356 5.558,21.016 0,23.945 4.448,28.492 0,33.038 5.558,35.868 2.727,41.625 8.995,42.637 8.084,48.902 9.6,48.699 
		14.352,47.992 15.36,54.256 21.022,51.328 23.953,56.984 28.5,52.539 33.048,56.984 35.979,51.328 41.639,54.256 42.65,47.992 
		47.399,48.699 48.916,48.902 48.006,42.637 54.271,41.625 51.443,35.868 57,33.038 	"/>
	<g>
		<ellipse fill="#2E73B8" cx="28.5" cy="28.492" rx="22.032" ry="22.027"/>
		<path fill="#FFFFFF" d="M28.5,52.034c-13.038,0-23.548-10.608-23.548-23.542C4.952,15.458,15.563,4.95,28.5,4.95
			c12.938,0,23.549,10.61,23.549,23.542C52.049,41.526,41.538,52.034,28.5,52.034z M28.5,7.981
			c-11.318,0-20.518,9.195-20.518,20.511c0,11.317,9.199,20.511,20.518,20.511c11.319,0,20.517-9.194,20.517-20.511
			C49.017,17.177,39.819,7.981,28.5,7.981z"/>
	</g>
	<path fill="#FFFFFF" d="M43.457,26.672l-3.133,1.819l-1.213-0.304l-1.313-1.313l-3.437,0.303l-1.415-2.425l-4.041,0.103h-0.91
		c0-0.103-0.811-1.315-2.021-2.225c-1.618-1.313-3.537-1.919-5.56-1.919c-1.922,0-3.942,0.605-5.559,2.021
		c-3.74,3.031-4.346,8.588-1.213,12.327c0.201,0.305,0.407,0.504,0.709,0.707c1.717,1.618,3.941,2.426,6.164,2.426
		c1.922,0,3.942-0.605,5.559-2.021c0.505-0.405,0.809-0.806,1.213-1.213c0.407-0.405,0.709-0.909,0.911-1.314
		c0.303-0.504,0.503-0.91,0.503-1.008h16.375l1.616-2.932L43.457,26.672z M16.573,31.524L16.573,31.524
		c-1.313,0-2.323-1.012-2.323-2.225c0-1.313,1.013-2.323,2.223-2.323l0,0c1.317,0,2.324,1.012,2.324,2.226
		C18.899,30.413,17.887,31.524,16.573,31.524z"/>
</g>
</svg>
