<?xml version="1.0" encoding="utf-8"?>
<!-- Generator: Adobe Illustrator 16.0.0, SVG Export Plug-In . SVG Version: 6.00 Build 0)  -->
<!DOCTYPE svg PUBLIC "-//W3C//DTD SVG 1.1//EN" "http://www.w3.org/Graphics/SVG/1.1/DTD/svg11.dtd">
<svg version="1.1" id="图层_1" xmlns="http://www.w3.org/2000/svg" xmlns:xlink="http://www.w3.org/1999/xlink" x="0px" y="0px"
	 width="75px" height="75px" viewBox="0 0 75 75" enable-background="new 0 0 75 75" xml:space="preserve">
<g id="Layer_1">
	<path fill="#19486F" d="M55.829,68.048H19.171c-5.267,0-9.585-4.318-9.585-9.585V21.804c0-5.267,4.318-9.585,9.585-9.585h36.658
		c5.267,0,9.586,4.318,9.586,9.585v36.659C65.415,63.729,61.096,68.048,55.829,68.048z"/>
	<path fill="#2E73B8" d="M55.829,65.415H19.171c-5.267,0-9.585-4.319-9.585-9.586V19.171c0-5.267,4.318-9.585,9.585-9.585h36.658
		c5.267,0,9.586,4.318,9.586,9.585v36.658C65.415,61.096,61.096,65.415,55.829,65.415z"/>
	<rect x="48.034" fill="#2E73B8" width="4.213" height="14.431"/>
	<rect x="22.752" fill="#2E73B8" width="4.214" height="14.431"/>
	<rect x="41.713" fill="#2E73B8" width="4.214" height="14.431"/>
	<rect x="29.073" fill="#2E73B8" width="4.214" height="14.431"/>
	<rect x="35.393" fill="#2E73B8" width="4.214" height="14.431"/>
	<rect y="48.034" fill="#2E73B8" width="19.066" height="4.213"/>
	<rect y="29.073" fill="#2E73B8" width="19.066" height="4.214"/>
	<rect y="41.713" fill="#2E73B8" width="19.066" height="4.214"/>
	<rect y="35.393" fill="#2E73B8" width="19.066" height="4.214"/>
	<rect y="22.752" fill="#2E73B8" width="19.066" height="4.214"/>
	<rect x="22.752" y="58.463" fill="#2E73B8" width="4.214" height="16.537"/>
	<rect x="48.034" y="58.463" fill="#2E73B8" width="4.213" height="16.537"/>
	<rect x="29.073" y="58.463" fill="#2E73B8" width="4.214" height="16.537"/>
	<rect x="41.713" y="58.463" fill="#2E73B8" width="4.214" height="16.537"/>
	<rect x="35.393" y="58.463" fill="#2E73B8" width="4.214" height="16.537"/>
	<rect x="58.252" y="41.713" fill="#2E73B8" width="16.748" height="4.214"/>
	<rect x="58.252" y="22.752" fill="#2E73B8" width="16.748" height="4.214"/>
	<rect x="58.252" y="35.393" fill="#2E73B8" width="16.748" height="4.214"/>
	<rect x="58.252" y="29.073" fill="#2E73B8" width="16.748" height="4.214"/>
	<rect x="58.252" y="48.034" fill="#2E73B8" width="16.748" height="4.213"/>
	<path fill="#19486F" d="M55.829,68.048H19.171c-5.267,0-9.585-4.318-9.585-9.585V21.804c0-5.267,4.318-9.585,9.585-9.585h36.658
		c5.267,0,9.586,4.318,9.586,9.585v36.659C65.415,63.729,61.096,68.048,55.829,68.048z"/>
	<path fill="#2E73B8" d="M55.829,65.415H19.171c-5.267,0-9.585-4.319-9.585-9.586V19.171c0-5.267,4.318-9.585,9.585-9.585h36.658
		c5.267,0,9.586,4.318,9.586,9.585v36.658C65.415,61.096,61.096,65.415,55.829,65.415z"/>
	<rect x="48.034" fill="#2E73B8" width="4.213" height="14.431"/>
	<rect x="22.752" fill="#2E73B8" width="4.214" height="14.431"/>
	<rect x="41.713" fill="#2E73B8" width="4.214" height="14.431"/>
	<rect x="29.073" fill="#2E73B8" width="4.214" height="14.431"/>
	<rect x="35.393" fill="#2E73B8" width="4.214" height="14.431"/>
	<rect y="48.034" fill="#2E73B8" width="19.066" height="4.213"/>
	<rect y="29.073" fill="#2E73B8" width="19.066" height="4.214"/>
	<rect y="41.713" fill="#2E73B8" width="19.066" height="4.214"/>
	<rect y="35.393" fill="#2E73B8" width="19.066" height="4.214"/>
	<rect y="22.752" fill="#2E73B8" width="19.066" height="4.214"/>
	<rect x="22.752" y="58.463" fill="#2E73B8" width="4.214" height="16.537"/>
	<rect x="48.034" y="58.463" fill="#2E73B8" width="4.213" height="16.537"/>
	<rect x="29.073" y="58.463" fill="#2E73B8" width="4.214" height="16.537"/>
	<rect x="41.713" y="58.463" fill="#2E73B8" width="4.214" height="16.537"/>
	<rect x="35.393" y="58.463" fill="#2E73B8" width="4.214" height="16.537"/>
	<rect x="58.252" y="41.713" fill="#2E73B8" width="16.748" height="4.214"/>
	<rect x="58.252" y="22.752" fill="#2E73B8" width="16.748" height="4.214"/>
	<rect x="58.252" y="35.393" fill="#2E73B8" width="16.748" height="4.214"/>
	<rect x="58.252" y="29.073" fill="#2E73B8" width="16.748" height="4.214"/>
	<rect x="58.252" y="48.034" fill="#2E73B8" width="16.748" height="4.213"/>
	<path fill="#FFFFFF" d="M36.447,41.818c2.633,0,4.845-1.369,6.109-3.476h1.159c3.897,0,3.37,4.003,3.37,4.003V45.4h7.058v-7.058
		c0-3.897-3.16-7.058-7.058-7.058l-4.529-0.105c-0.632-1.053-1.474-2.002-2.528-2.528v-4.423l0,0h3.581
		c1.896,0,3.476-1.58,3.476-3.477c0-1.896-1.58-3.476-3.476-3.476H29.495c-1.897,0-3.477,1.58-3.477,3.476
		c0,1.897,1.58,3.477,3.477,3.477h3.476v4.423c-1.053,0.632-2.002,1.475-2.529,2.528H18.855v7.058h11.587
		C31.602,40.449,33.813,41.818,36.447,41.818z"/>
	<path fill="#FFFFFF" d="M50.457,47.929c-1.896,3.477-3.16,5.372-3.16,8.11c0,1.791,1.369,3.16,3.16,3.16
		c1.791,0,3.16-1.369,3.16-3.16C53.616,53.301,52.036,51.299,50.457,47.929z"/>
</g>
</svg>
