<?xml version="1.0" encoding="utf-8"?>
<!-- Generator: Adobe Illustrator 16.0.0, SVG Export Plug-In . SVG Version: 6.00 Build 0)  -->
<!DOCTYPE svg PUBLIC "-//W3C//DTD SVG 1.1//EN" "http://www.w3.org/Graphics/SVG/1.1/DTD/svg11.dtd">
<svg version="1.1" id="图层_1" xmlns="http://www.w3.org/2000/svg" xmlns:xlink="http://www.w3.org/1999/xlink" x="0px" y="0px"
	 width="75px" height="75px" viewBox="0 0 75 75" enable-background="new 0 0 75 75" xml:space="preserve">
<g id="Layer_1">
	<polygon fill="#19486F" points="69.918,51.329 15.373,51.329 15.373,48.113 42.646,27.916 69.918,48.113 	"/>
	<polygon fill="#19486F" points="73.263,75 25.021,75 25.021,71.784 49.593,54.931 73.263,71.784 	"/>
	<rect x="25.021" y="51.329" fill="#2E73B8" width="48.241" height="20.455"/>
	<g enable-background="new    ">
		<path fill="#FFFFFF" d="M27.337,54.674h3.474l2.444,10.163l0,0l2.443-10.163h3.346v13.765h-2.059V56.99l0,0l-2.829,11.448h-1.802
			L29.523,56.99l0,0v11.448h-2.058V54.674H27.337z"/>
		<path fill="#FFFFFF" d="M48.435,68.181c-0.515,0.388-1.286,0.516-2.188,0.516c-3.216,0-4.502-2.188-4.502-7.204
			c0-4.889,1.416-7.204,4.502-7.204c3.089,0,4.503,2.187,4.503,7.204c0,2.573-0.514,4.503-1.029,5.402l1.415,1.544l-1.286,1.158
			L48.435,68.181z M47.276,64.579l0.9,0.901c0.258-0.771,0.386-2.059,0.386-3.988c0-4.632-1.028-5.402-2.315-5.402
			c-1.286,0-2.314,0.771-2.314,5.402c0,4.76,1.028,5.531,2.314,5.531c0.258,0,0.516,0,0.773-0.129l-1.03-1.029L47.276,64.579z"/>
		<path fill="#FFFFFF" d="M55.896,56.475h-3.344v-1.801h8.747v1.801h-3.216v11.964h-2.188V56.475z"/>
		<path fill="#FFFFFF" d="M65.674,56.475h-3.217v-1.801h8.748v1.801h-3.217v11.964h-2.187V56.475H65.674z"/>
	</g>
	<path fill="#19486F" d="M69.918,48.113V14.924c0-6.433-5.274-11.708-11.707-11.708H13.443c-6.432,0-11.706,5.275-11.706,11.708
		v44.768c0,6.432,5.274,11.705,11.706,11.705h9.005V48.113H69.918z"/>
	<path fill="#2E73B8" d="M69.918,48.113V11.707C69.918,5.275,64.644,0,58.211,0H13.443C7.012,0,1.737,5.275,1.737,11.707v44.768
		c0,6.433,5.274,11.706,11.706,11.706h9.005V48.113H69.918z"/>
</g>
</svg>
