<?xml version="1.0" encoding="utf-8"?>
<!-- Generator: Adobe Illustrator 16.0.0, SVG Export Plug-In . SVG Version: 6.00 Build 0)  -->
<!DOCTYPE svg PUBLIC "-//W3C//DTD SVG 1.1//EN" "http://www.w3.org/Graphics/SVG/1.1/DTD/svg11.dtd">
<svg version="1.1" id="图层_1" xmlns="http://www.w3.org/2000/svg" xmlns:xlink="http://www.w3.org/1999/xlink" x="0px" y="0px"
	 width="63px" height="75px" viewBox="0 0 63 75" enable-background="new 0 0 63 75" xml:space="preserve">
<g id="Layer_1">
	<rect y="41.253" fill="#19486F" width="63" height="18.687"/>
	<rect y="15.254" fill="#2E73B8" width="63" height="41.992"/>
	<g>
		<path fill="#FFFFFF" d="M63,47.818H52.419c-0.676,0-1.264-0.59-1.264-1.259v-7.576c0-0.672,0.588-1.262,1.264-1.262
			c0.675,0,1.264,0.59,1.264,1.262v6.311H63V47.818z"/>
	</g>
	<g>
		<path fill="#FFFFFF" d="M63,54.298H43.432c-0.675,0-1.264-0.59-1.264-1.259V38.983c0-0.672,0.589-1.262,1.264-1.262
			c0.674,0,1.263,0.59,1.263,1.262v12.791H63V54.298z"/>
	</g>
	<path fill="#FFFFFF" d="M52.419,35.871c1.71,0,3.101,1.391,3.101,3.112s-1.391,3.112-3.101,3.112c-1.724,0-3.115-1.391-3.115-3.112
		S50.695,35.871,52.419,35.871z"/>
	<path fill="#FFFFFF" d="M43.432,35.871c1.709,0,3.101,1.391,3.101,3.112s-1.392,3.112-3.101,3.112
		c-1.724,0-3.116-1.391-3.116-3.112S41.708,35.871,43.432,35.871z"/>
	<path fill="#FFFFFF" d="M34.773,44.539c1.723,0,3.115,1.394,3.115,3.113c0,1.72-1.393,3.115-3.115,3.115
		c-1.71,0-3.101-1.395-3.101-3.115C31.673,45.933,33.063,44.539,34.773,44.539z"/>
	<path fill="#FFFFFF" d="M28.557,22.742c1.723,0,3.116,1.395,3.116,3.114c0,1.719-1.394,3.114-3.116,3.114
		c-1.715,0-3.106-1.395-3.106-3.114C25.451,24.137,26.841,22.742,28.557,22.742z"/>
	<path fill="#FFFFFF" d="M33.007,32.502c1.724,0,3.116,1.394,3.116,3.112c0,1.721-1.393,3.114-3.116,3.114
		c-1.709,0-3.101-1.394-3.101-3.114C29.906,33.896,31.298,32.502,33.007,32.502z"/>
	<ellipse fill="#FFFFFF" cx="13.776" cy="25.856" rx="3.107" ry="3.114"/>
	<circle fill="#FFFFFF" cx="5.377" cy="47.735" r="3.113"/>
	<path fill="#FFFFFF" d="M59.052,33.932H45.786c-0.762,0-1.35-0.588-1.35-1.344V19.291c0-0.755,0.588-1.345,1.35-1.345h13.266
		c0.762,0,1.351,0.59,1.351,1.345v13.296C60.402,33.263,59.813,33.932,59.052,33.932z"/>
	<g>
		<path fill="#FFFFFF" d="M34.773,48.911c-0.33,0-0.675-0.08-0.919-0.334L20.998,35.701c-0.251-0.252-0.335-0.59-0.335-0.928V15.254
			h2.522V34.27l12.437,12.455c0.502,0.504,0.502,1.265,0,1.769C35.361,48.831,35.032,48.911,34.773,48.911z"/>
	</g>
	<ellipse fill="#FFFFFF" cx="13.607" cy="35.615" rx="3.108" ry="3.113"/>
	<ellipse fill="#FFFFFF" cx="15.456" cy="47.735" rx="3.107" ry="3.113"/>
	<g>
		<polygon fill="#FFFFFF" points="26.798,57.246 24.279,57.246 24.279,48.156 12.85,36.713 14.616,34.946 26.798,47.063 		"/>
	</g>
	<g>
		<path fill="#FFFFFF" d="M52.419,27.119H28.31c-0.671,0-1.26-0.587-1.26-1.263c0-0.676,0.589-1.263,1.26-1.263h24.109
			c0.675,0,1.264,0.587,1.264,1.263C53.683,26.532,53.094,27.119,52.419,27.119z"/>
	</g>
	<g>
		<path fill="#FFFFFF" d="M37.803,27.119c-0.675,0-1.264-0.587-1.264-1.263V15.254h2.527v10.603
			C39.066,26.611,38.478,27.119,37.803,27.119z"/>
	</g>
	<g>
		<path fill="#FFFFFF" d="M15.369,48.998c-0.334,0-0.668-0.087-0.921-0.338L4.365,38.563c-0.251-0.251-0.334-0.59-0.334-0.927
			V15.254h2.521v21.877l9.658,9.679c0.506,0.504,0.506,1.259,0,1.766C16.044,48.911,15.707,48.998,15.369,48.998z"/>
	</g>
	<g>
		<path fill="#FFFFFF" d="M15.456,27.119H5.291c-0.672,0-1.26-0.587-1.26-1.263c0-0.676,0.587-1.263,1.26-1.263h10.166
			c0.673,0,1.259,0.587,1.259,1.263C16.715,26.532,16.209,27.119,15.456,27.119z"/>
	</g>
	<g>
		<rect x="4.114" y="47.734" fill="#FFFFFF" width="2.52" height="9.512"/>
	</g>
	<g>
		<polygon fill="#FFFFFF" points="33.401,33.445 35.188,35.229 28.763,41.656 26.985,39.868 		"/>
	</g>
	<g>
		<path fill="#2E73B8" d="M37.214,12.141c-0.416,0-0.847-0.171-1.177-0.508c-2.526-2.524-6.633-2.524-9.16,0
			c-0.667,0.674-1.68,0.674-2.347,0c-0.675-0.67-0.675-1.683,0-2.353c3.864-3.874,10.077-3.874,13.862,0
			c0.675,0.67,0.675,1.683,0,2.353C38.134,11.97,37.717,12.141,37.214,12.141z"/>
	</g>
	<g>
		<path fill="#2E73B8" d="M41.837,7.597c-0.431,0-0.847-0.171-1.177-0.507c-5.039-5.049-13.194-5.049-18.234,0
			c-0.668,0.673-1.68,0.673-2.349,0c-0.674-0.672-0.674-1.683,0-2.355c6.298-6.314,16.635-6.314,23.011,0
			c0.673,0.672,0.673,1.683,0,2.355C42.67,7.426,42.254,7.597,41.837,7.597z"/>
	</g>
	<g>
		<path fill="#2E73B8" d="M31.5,68.517c-2.522,0-5.04-0.923-6.97-2.858c-0.675-0.668-0.675-1.684,0-2.351
			c0.667-0.676,1.68-0.676,2.347,0c2.527,2.518,6.634,2.518,9.16,0c0.675-0.676,1.68-0.676,2.354,0c0.675,0.667,0.675,1.683,0,2.351
			C36.539,67.594,34.022,68.517,31.5,68.517z"/>
	</g>
	<g>
		<path fill="#2E73B8" d="M31.5,75c-4.2,0-8.315-1.596-11.508-4.799c-0.674-0.668-0.674-1.685,0-2.351
			c0.67-0.675,1.68-0.675,2.351,0c5.043,5.05,13.191,5.05,18.23,0c0.675-0.675,1.681-0.675,2.354,0c0.67,0.666,0.67,1.683,0,2.351
			C39.813,73.404,35.704,75,31.5,75z"/>
	</g>
</g>
</svg>
