<?xml version="1.0" encoding="utf-8"?>
<!-- Generator: Adobe Illustrator 16.0.0, SVG Export Plug-In . SVG Version: 6.00 Build 0)  -->
<!DOCTYPE svg PUBLIC "-//W3C//DTD SVG 1.1//EN" "http://www.w3.org/Graphics/SVG/1.1/DTD/svg11.dtd">
<svg version="1.1" id="图层_1" xmlns="http://www.w3.org/2000/svg" xmlns:xlink="http://www.w3.org/1999/xlink" x="0px" y="0px"
	 width="75px" height="53px" viewBox="0 0 75 53" enable-background="new 0 0 75 53" xml:space="preserve">
<g id="Layer_1">
	<rect y="30.8" fill="#19486F" width="75" height="22.2"/>
	<rect fill="#2E73B8" width="75" height="49.9"/>
	<path fill="#FFFFFF" d="M20.3,29.5L20.3,29.5c-2.7,0-4.8-2.2-4.8-4.8l0,0c0-2.7,2.2-4.8,4.8-4.8l0,0c2.7,0,4.8,2.199,4.8,4.8l0,0
		C25.2,27.3,23,29.5,20.3,29.5z"/>
	<polygon fill="#FFFFFF" points="43.7,29.5 31.2,29.5 37.4,19.8 	"/>
	<rect x="49.7" y="19.8" fill="#FFFFFF" width="9.7" height="9.7"/>
	<path fill="#FFFFFF" d="M38.3,0l0.2,1.6C38.5,1.901,38.8,2,39,2l1.8-0.2C41.2,2.9,41.7,4,42.4,4.9l-1.2,1.3c-0.2,0.2-0.2,0.5,0,0.7
		l2.3,2c0.2,0.199,0.5,0.199,0.7,0l1.2-1.301c1,0.601,2.1,1,3.199,1.301l-0.101,1.8c0,0.3,0.2,0.5,0.5,0.5l3,0.1
		c0.3,0,0.5-0.2,0.5-0.5L52.6,9C53.2,8.9,53.7,8.8,54.299,8.6C54.9,8.4,55.4,8.2,55.9,7.9L57,9.3c0.2,0.2,0.5,0.2,0.7,0.101
		l2.399-1.9c0.199-0.2,0.199-0.5,0.101-0.7L59.1,5.4C59.9,4.5,60.5,3.5,60.9,2.5L62.6,2.9C62.9,3,63.1,2.8,63.2,2.5L63.7,0H38.3z"/>
	<path fill="#FFFFFF" d="M34.1,48.2l1.601-0.8C35.9,47.3,36,47,35.9,46.8l-1.4-2.7c-0.1-0.199-0.4-0.3-0.6-0.199L32.3,44.8
		c-0.7-0.899-1.6-1.7-2.5-2.3l0.7-1.7c0.1-0.2,0-0.5-0.3-0.6L27.4,39.1c-0.2-0.1-0.5,0-0.601,0.301L26.1,41.1
		C25,40.9,23.8,40.8,22.7,41l-0.6-1.8c-0.1-0.2-0.3-0.4-0.6-0.3L18.6,39.8c-0.2,0.101-0.4,0.3-0.3,0.601l0.601,1.8
		c-1,0.6-1.9,1.3-2.7,2.1l-1.601-1c-0.2-0.1-0.5-0.1-0.7,0.101L12.3,46c-0.1,0.2-0.1,0.5,0.101,0.7l1.5,1
		C13.6,48.5,13.4,49.3,13.3,50.1h21.2C34.4,49.3,34.2,48.8,34.1,48.2z"/>
</g>
</svg>
