<?xml version="1.0" encoding="utf-8"?>
<!-- Generator: Adobe Illustrator 16.0.0, SVG Export Plug-In . SVG Version: 6.00 Build 0)  -->
<!DOCTYPE svg PUBLIC "-//W3C//DTD SVG 1.1//EN" "http://www.w3.org/Graphics/SVG/1.1/DTD/svg11.dtd">
<svg version="1.1" id="图层_1" xmlns="http://www.w3.org/2000/svg" xmlns:xlink="http://www.w3.org/1999/xlink" x="0px" y="0px"
	 width="75px" height="75px" viewBox="0 0 75 75" enable-background="new 0 0 75 75" xml:space="preserve">
<g id="Layer_1">
	<path fill="#19486F" d="M55.828,68.048H19.17c-5.266,0-9.584-4.318-9.584-9.586V21.804c0-5.266,4.318-9.584,9.584-9.584h36.658
		c5.268,0,9.586,4.319,9.586,9.584v36.658C65.414,63.729,61.096,68.048,55.828,68.048z"/>
	<path fill="#2E73B8" d="M55.828,65.414H19.17c-5.266,0-9.584-4.318-9.584-9.586V19.17c0-5.266,4.318-9.584,9.584-9.584h36.658
		c5.268,0,9.586,4.318,9.586,9.584v36.658C65.414,61.096,61.096,65.414,55.828,65.414z"/>
	<rect x="48.034" fill="#2E73B8" width="4.212" height="14.431"/>
	<rect x="22.752" fill="#2E73B8" width="4.213" height="14.431"/>
	<rect x="41.713" fill="#2E73B8" width="4.213" height="14.431"/>
	<rect x="29.073" fill="#2E73B8" width="4.213" height="14.431"/>
	<rect x="35.393" fill="#2E73B8" width="4.215" height="14.431"/>
	<rect y="48.034" fill="#2E73B8" width="19.066" height="4.212"/>
	<rect y="29.073" fill="#2E73B8" width="19.066" height="4.213"/>
	<rect y="41.713" fill="#2E73B8" width="19.066" height="4.213"/>
	<rect y="35.393" fill="#2E73B8" width="19.066" height="4.215"/>
	<rect y="22.752" fill="#2E73B8" width="19.066" height="4.213"/>
	<rect x="22.752" y="58.462" fill="#2E73B8" width="4.213" height="16.538"/>
	<rect x="48.034" y="58.462" fill="#2E73B8" width="4.212" height="16.538"/>
	<rect x="29.073" y="58.462" fill="#2E73B8" width="4.213" height="16.538"/>
	<rect x="41.713" y="58.462" fill="#2E73B8" width="4.213" height="16.538"/>
	<rect x="35.393" y="58.462" fill="#2E73B8" width="4.215" height="16.538"/>
	<rect x="58.251" y="41.713" fill="#2E73B8" width="16.749" height="4.213"/>
	<rect x="58.251" y="22.752" fill="#2E73B8" width="16.749" height="4.213"/>
	<rect x="58.251" y="35.393" fill="#2E73B8" width="16.749" height="4.215"/>
	<rect x="58.251" y="29.073" fill="#2E73B8" width="16.749" height="4.213"/>
	<rect x="58.251" y="48.034" fill="#2E73B8" width="16.749" height="4.212"/>
	<path fill="#FFFFFF" d="M55.617,52.246H18.961c-1.477,0-2.634-1.155-2.634-2.632v-20.33c0-1.476,1.157-2.633,2.634-2.633h36.656
		c1.477,0,2.634,1.157,2.634,2.633v20.33C58.251,51.091,57.094,52.246,55.617,52.246z"/>
	<g>
		<path fill="#2E73B8" d="M40.66,50.035c-5.793,0-10.533-4.74-10.533-10.533c0-5.795,4.739-10.535,10.533-10.535
			s10.535,4.74,10.535,10.535C51.194,45.295,46.453,50.035,40.66,50.035z M40.66,32.128c-4.108,0-7.373,3.265-7.373,7.375
			c0,4.107,3.265,7.373,7.373,7.373s7.375-3.266,7.375-7.373C48.034,35.393,44.768,32.128,40.66,32.128z"/>
	</g>
	<circle fill="#2E73B8" cx="40.66" cy="39.501" r="5.583"/>
	<rect x="19.698" y="30.127" fill="#2E73B8" width="6.742" height="3.16"/>
	<polygon fill="#FFFFFF" points="49.614,25.597 31.707,25.597 34.129,20.646 47.192,20.646 	"/>
</g>
</svg>
