<?xml version="1.0" encoding="utf-8"?>
<!-- Generator: Adobe Illustrator 16.0.0, SVG Export Plug-In . SVG Version: 6.00 Build 0)  -->
<!DOCTYPE svg PUBLIC "-//W3C//DTD SVG 1.1//EN" "http://www.w3.org/Graphics/SVG/1.1/DTD/svg11.dtd">
<svg version="1.1" id="图层_1" xmlns="http://www.w3.org/2000/svg" xmlns:xlink="http://www.w3.org/1999/xlink" x="0px" y="0px"
	 width="75px" height="75px" viewBox="0 0 75 75" enable-background="new 0 0 75 75" xml:space="preserve">
<g id="Layer_1">
	<path fill="#19486F" d="M55.829,68.048H19.171c-5.267,0-9.585-4.318-9.585-9.585V21.804c0-5.267,4.318-9.585,9.585-9.585h36.658
		c5.267,0,9.586,4.318,9.586,9.585v36.659C65.415,63.729,61.096,68.048,55.829,68.048z"/>
	<path fill="#2E73B8" d="M55.829,65.415H19.171c-5.267,0-9.585-4.319-9.585-9.586V19.171c0-5.267,4.318-9.585,9.585-9.585h36.658
		c5.267,0,9.586,4.318,9.586,9.585v36.658C65.415,61.096,61.096,65.415,55.829,65.415z"/>
	<rect x="48.034" fill="#2E73B8" width="4.213" height="14.431"/>
	<rect x="22.752" fill="#2E73B8" width="4.214" height="14.431"/>
	<rect x="41.713" fill="#2E73B8" width="4.214" height="14.431"/>
	<rect x="29.073" fill="#2E73B8" width="4.214" height="14.431"/>
	<rect x="35.393" fill="#2E73B8" width="4.214" height="14.431"/>
	<rect y="48.034" fill="#2E73B8" width="19.066" height="4.213"/>
	<rect y="29.073" fill="#2E73B8" width="19.066" height="4.214"/>
	<rect y="41.713" fill="#2E73B8" width="19.066" height="4.214"/>
	<rect y="35.393" fill="#2E73B8" width="19.066" height="4.214"/>
	<rect y="22.752" fill="#2E73B8" width="19.066" height="4.214"/>
	<rect x="22.752" y="58.463" fill="#2E73B8" width="4.214" height="16.537"/>
	<rect x="48.034" y="58.463" fill="#2E73B8" width="4.213" height="16.537"/>
	<rect x="29.073" y="58.463" fill="#2E73B8" width="4.214" height="16.537"/>
	<rect x="41.713" y="58.463" fill="#2E73B8" width="4.214" height="16.537"/>
	<rect x="35.393" y="58.463" fill="#2E73B8" width="4.214" height="16.537"/>
	<rect x="58.252" y="41.713" fill="#2E73B8" width="16.748" height="4.214"/>
	<rect x="58.252" y="22.752" fill="#2E73B8" width="16.748" height="4.214"/>
	<rect x="58.252" y="35.393" fill="#2E73B8" width="16.748" height="4.214"/>
	<rect x="58.252" y="29.073" fill="#2E73B8" width="16.748" height="4.214"/>
	<rect x="58.252" y="48.034" fill="#2E73B8" width="16.748" height="4.213"/>
	<circle fill="#FFFFFF" cx="37.5" cy="37.816" r="22.753"/>
	<g>
		<path fill="#2E73B8" d="M33.182,23.49c-0.738,0-1.37-0.422-1.475-1.159l-0.422-1.474c-0.21-0.843,0.317-1.686,1.159-1.896
			c0.843-0.211,1.685,0.316,1.896,1.158l0.422,1.475c0.21,0.843-0.317,1.685-1.16,1.896C33.498,23.49,33.392,23.49,33.182,23.49z"/>
	</g>
	<g>
		<path fill="#2E73B8" d="M41.818,23.49c-0.105,0-0.316,0-0.42-0.106c-0.843-0.21-1.37-1.053-1.16-1.896l0.422-1.474
			c0.211-0.843,1.053-1.37,1.896-1.159c0.842,0.211,1.369,1.053,1.159,1.896l-0.422,1.475C43.083,22.963,42.451,23.49,41.818,23.49z
			"/>
	</g>
	<g>
		<path fill="#2E73B8" d="M49.192,27.704c-0.42,0-0.842-0.106-1.158-0.421c-0.631-0.632-0.631-1.58,0-2.212l1.054-1.053
			c0.631-0.633,1.58-0.633,2.211,0c0.633,0.631,0.633,1.58,0,2.211l-1.053,1.054C49.93,27.598,49.614,27.704,49.192,27.704z"/>
	</g>
	<g>
		<path fill="#2E73B8" d="M25.808,27.704c-0.422,0-0.844-0.106-1.16-0.421l-1.053-1.054c-0.632-0.631-0.632-1.58,0-2.211
			c0.633-0.633,1.58-0.633,2.213,0l1.053,1.053c0.631,0.632,0.631,1.58,0,2.212C26.65,27.598,26.229,27.704,25.808,27.704z"/>
	</g>
	<circle fill="#2E73B8" cx="37.5" cy="51.405" r="4.951"/>
	<g>
		<path fill="#2E73B8" d="M37.5,52.985c-0.842,0-1.58-0.738-1.58-1.58v-23.07c0-0.843,0.738-1.58,1.58-1.58s1.58,0.737,1.58,1.58
			v23.07C39.08,52.247,38.342,52.985,37.5,52.985z"/>
	</g>
	<g>
		<path fill="#2E73B8" d="M34.656,29.284h-1.791c-0.316,0-0.527-0.211-0.527-0.526c0-0.316,0.211-0.527,0.527-0.527h1.791
			c0.316,0,0.526,0.211,0.526,0.527C35.182,29.073,34.867,29.284,34.656,29.284z"/>
	</g>
	<g>
		<path fill="#2E73B8" d="M34.656,32.128h-3.265c-0.316,0-0.527-0.21-0.527-0.526c0-0.317,0.211-0.527,0.527-0.527h3.265
			c0.316,0,0.526,0.21,0.526,0.527C35.182,31.917,34.867,32.128,34.656,32.128z"/>
	</g>
	<g>
		<path fill="#2E73B8" d="M34.656,34.972h-1.791c-0.316,0-0.527-0.21-0.527-0.527c0-0.316,0.211-0.527,0.527-0.527h1.791
			c0.316,0,0.526,0.211,0.526,0.527C35.182,34.762,34.867,34.972,34.656,34.972z"/>
	</g>
	<g>
		<path fill="#2E73B8" d="M34.656,37.816h-3.265c-0.316,0-0.527-0.211-0.527-0.527s0.211-0.527,0.527-0.527h3.265
			c0.316,0,0.526,0.211,0.526,0.527S34.867,37.816,34.656,37.816z"/>
	</g>
	<g>
		<path fill="#2E73B8" d="M34.656,40.555h-1.791c-0.316,0-0.527-0.211-0.527-0.527c0-0.316,0.211-0.526,0.527-0.526h1.791
			c0.316,0,0.526,0.21,0.526,0.526C35.182,40.344,34.867,40.555,34.656,40.555z"/>
	</g>
	<g>
		<path fill="#2E73B8" d="M34.656,43.398h-3.265c-0.316,0-0.527-0.21-0.527-0.526c0-0.316,0.211-0.527,0.527-0.527h3.265
			c0.316,0,0.526,0.211,0.526,0.527C35.182,43.188,34.867,43.398,34.656,43.398z"/>
	</g>
	<g>
		<path fill="#2E73B8" d="M34.656,46.243h-1.791c-0.316,0-0.527-0.21-0.527-0.526s0.211-0.527,0.527-0.527h1.791
			c0.316,0,0.526,0.211,0.526,0.527S34.867,46.243,34.656,46.243z"/>
	</g>
</g>
</svg>
