<?xml version="1.0" encoding="utf-8"?>
<!-- Generator: Adobe Illustrator 16.0.0, SVG Export Plug-In . SVG Version: 6.00 Build 0)  -->
<!DOCTYPE svg PUBLIC "-//W3C//DTD SVG 1.1//EN" "http://www.w3.org/Graphics/SVG/1.1/DTD/svg11.dtd">
<svg version="1.1"
	 id="svg2" xmlns:dc="http://purl.org/dc/elements/1.1/" xmlns:cc="http://creativecommons.org/ns#" xmlns:rdf="http://www.w3.org/1999/02/22-rdf-syntax-ns#" xmlns:svg="http://www.w3.org/2000/svg"
	 xmlns="http://www.w3.org/2000/svg" xmlns:xlink="http://www.w3.org/1999/xlink" x="0px" y="0px" width="50px" height="80px"
	 viewBox="0 0 50 80" enable-background="new 0 0 50 80" xml:space="preserve">
<g id="g12" transform="scale(0.1,0.1)">
	<path id="path22" fill="#087FBF" d="M15.076,789.997h406.982V346.589H15.076V789.997z"/>
	<path id="path24" fill="none" stroke="#FFFFFF" stroke-width="4" d="M15.076,789.997h406.982V346.589H15.076V789.997z"/>
	<path id="path26" fill="#087FBF" d="M15.076,345.837h406.982V77.493H15.076V345.837z"/>
	<path id="path28" fill="none" stroke="#FFFFFF" stroke-width="4" d="M15.076,345.837h406.982V77.493H15.076V345.837z"/>
	<path id="path30" fill="#087FBF" d="M15.076,74.666l77.764-63.843h392.158l-62.939,63.843H15.076"/>
	<path id="path32" fill="none" stroke="#FFFFFF" stroke-width="4" d="M15.076,74.666l77.764-63.843h392.158l-62.939,63.843H15.076z"
		/>
	<path id="path34" fill="#087FBF" d="M422.058,789.997l62.939-78.428V277.351l-62.939,65.517V789.997"/>
	<path id="path36" fill="none" stroke="#FFFFFF" stroke-width="4" d="M422.058,789.997l62.939-78.428V277.351l-62.939,65.517
		V789.997z"/>
	<path id="path38" fill="#087FBF" d="M422.058,345.163l62.939-69.316V15.032l-62.939,63.848V345.163"/>
	<path id="path40" fill="none" stroke="#FFFFFF" stroke-width="4" d="M422.058,345.163l62.939-69.316V15.032l-62.939,63.848V345.163
		z"/>
	<path id="path42" fill="#087FBF" d="M15.369,734.431h404.756"/>
	<path id="path44" fill="none" stroke="#FFFFFF" stroke-width="4" d="M15.369,734.431h404.756"/>
	<path id="path46" fill="#087FBF" d="M15.369,344.353h404.756"/>
	<path id="path48" fill="none" stroke="#FFFFFF" stroke-width="4" d="M15.369,344.353h404.756"/>
	<path id="path50" fill="#FFFFFF" d="M187.664,582.995v59.063h-22.715l45.439,58.652l46.973-58.652H234.49v-59.063H187.664"/>
	<path id="path52" fill="#FFFFFF" d="M187.664,536.462V477.79h-22.715l45.439-58.672l46.973,58.672H234.49v58.672H187.664"/>
	<path id="path54" fill="#FFFFFF" d="M69.05,539.353h58.184v-22.9l58.184,45.82l-58.184,47.217v-22.91H69.05V539.353"/>
	<path id="path56" fill="#FFFFFF" d="M351.384,539.353h-58.193v-22.9l-58.008,45.82l58.008,47.217v-22.91h58.193V539.353"/>
	<path id="path58" fill="#087FBF" d="M422.058,164.583H15.076"/>
	<path id="path60" fill="none" stroke="#FFFFFF" stroke-width="4" d="M422.058,164.583H15.076"/>
	<path id="path62" fill="#087FBF" d="M459.812,41.926H52.839"/>
	<path id="path64" fill="none" stroke="#FFFFFF" stroke-width="4" d="M459.812,41.926H52.839"/>
	<path id="path66" fill="#087FBF" d="M422.058,257.097H15.076"/>
	<path id="path68" fill="none" stroke="#FFFFFF" stroke-width="4" d="M422.058,257.097H15.076"/>
	<path id="path70" fill="#087FBF" d="M482.781,111.389l-54.375,54.448"/>
	<path id="path72" fill="none" stroke="#FFFFFF" stroke-width="4" d="M482.781,111.389l-54.375,54.448"/>
	<path id="path74" fill="#087FBF" d="M482.781,203.904l-54.375,54.424"/>
	<path id="path76" fill="none" stroke="#FFFFFF" stroke-width="4" d="M482.781,203.904l-54.375,54.424"/>
	<path id="path78" fill="#087FBF" d="M456.355,44.338v257.31"/>
	<path id="path80" fill="none" stroke="#FFFFFF" stroke-width="4" d="M456.355,44.338v257.31"/>
	<path id="path82" fill="#087FBF" d="M135.564,79.749v84.043"/>
	<path id="path84" fill="none" stroke="#FFFFFF" stroke-width="4" d="M135.564,79.749v84.043"/>
	<path id="path86" fill="#087FBF" d="M292.966,79.749v84.043"/>
	<path id="path88" fill="none" stroke="#FFFFFF" stroke-width="4" d="M292.966,79.749v84.043"/>
	<path id="path90" fill="#087FBF" d="M135.564,261.667v83.847"/>
	<path id="path92" fill="none" stroke="#FFFFFF" stroke-width="4" d="M135.564,261.667v83.847"/>
	<path id="path94" fill="#087FBF" d="M292.966,261.667v83.847"/>
	<path id="path96" fill="none" stroke="#FFFFFF" stroke-width="4" d="M292.966,261.667v83.847"/>
	<path id="path98" fill="#087FBF" d="M217.449,168.728v83.857"/>
	<path id="path100" fill="none" stroke="#FFFFFF" stroke-width="4" d="M217.449,168.728v83.857"/>
	<path id="path102" fill="#087FBF" d="M60.037,168.728v83.857"/>
	<path id="path104" fill="none" stroke="#FFFFFF" stroke-width="4" d="M60.037,168.728v83.857"/>
	<path id="path106" fill="#087FBF" d="M374.666,168.728v83.857"/>
	<path id="path108" fill="none" stroke="#FFFFFF" stroke-width="4" d="M374.666,168.728v83.857"/>
	<path id="path110" fill="#087FBF" d="M214.138,9.998L135.564,78.21"/>
	<path id="path112" fill="none" stroke="#FFFFFF" stroke-width="4" d="M214.138,9.998L135.564,78.21"/>
	<path id="path114" fill="#087FBF" d="M371.541,9.998L292.966,78.21"/>
	<path id="path116" fill="none" stroke="#FFFFFF" stroke-width="4" d="M371.541,9.998L292.966,78.21"/>
	<path id="path118" fill="none" stroke="#FFFFFF" stroke-width="4" d="M484.998,275.847l-65.059,72.636H14.998"/>
	<path id="path120" fill="#087FBF" d="M484.998,665.085l-65.059,72.441"/>
	<path id="path122" fill="none" stroke="#FFFFFF" stroke-width="4" d="M484.998,665.085l-65.059,72.441"/>
</g>
</svg>
