<?xml version="1.0" encoding="utf-8"?>
<!-- Generator: Adobe Illustrator 16.0.0, SVG Export Plug-In . SVG Version: 6.00 Build 0)  -->
<!DOCTYPE svg PUBLIC "-//W3C//DTD SVG 1.1//EN" "http://www.w3.org/Graphics/SVG/1.1/DTD/svg11.dtd">
<svg version="1.1"
	 id="svg2" xmlns:dc="http://purl.org/dc/elements/1.1/" xmlns:cc="http://creativecommons.org/ns#" xmlns:rdf="http://www.w3.org/1999/02/22-rdf-syntax-ns#" xmlns:svg="http://www.w3.org/2000/svg"
	 xmlns="http://www.w3.org/2000/svg" xmlns:xlink="http://www.w3.org/1999/xlink" x="0px" y="0px" width="75px" height="37px"
	 viewBox="0 0 75 37" enable-background="new 0 0 75 37" xml:space="preserve">
<g id="g12" transform="scale(0.1,0.1)">
	<path id="path14" fill="#087BBB" d="M1.455,364.231h560.981V182.454H1.455V364.231z"/>
	<path id="path16" fill="none" stroke="#FFFFFF" stroke-width="4" d="M1.455,364.231h560.981V182.454H1.455V364.231z"/>
	<path id="path18" fill="#087BBB" d="M0,183.42L226.616,0.002h523.379L561.851,183.42H0"/>
	<path id="path20" fill="none" stroke="#FFFFFF" stroke-width="4" d="M0,183.42L226.616,0.002h523.379L561.851,183.42H0z"/>
	<path id="path22" fill="#087BBB" d="M562.007,370.002l187.402-187.529l0.078-182.139l-187.48,182.793V370.002"/>
	<path id="path24" fill="none" stroke="#FFFFFF" stroke-width="4" d="M562.007,370.002l187.402-187.529l0.078-182.139
		l-187.48,182.793V370.002z"/>
	<path id="path26" fill="#FFFFFF" d="M328.823,135.657l-10.918,8.877H178.003l-13.931,14.023l-37.979-16.592l76.333-21.719
		l-13.511,15.41H328.823"/>
	<path id="path28" fill="#FFFFFF" d="M438.726,67.024l-10.898,8.975H287.905l-13.926,13.916L236.108,73.43l76.221-21.826
		l-13.506,15.42H438.726"/>
	<path id="path30" fill="#FFFFFF" d="M353.462,111.438l10.908-8.955h140l13.926-13.936l37.793,16.504l-76.23,21.797l13.594-15.41
		H353.462"/>
	<path id="path32" fill="#FFFFFF" d="M426.167,42.805l10.898-8.867h139.902l13.945-13.926l37.969,16.504l-76.445,21.689l13.613-15.4
		H426.167"/>
	<path id="path34" fill="#FFFFFF" d="M281.704,283.479h101.104v15.791l38.086-23.486l-38.086-23.515v15.976H281.704V283.479"/>
	<path id="path36" fill="#FFFFFF" d="M279.404,257.307l94.868-32.158l5.879,14.893l27.129-34.287l-44.414-9.834l5.859,14.883
		l-94.873,32.148L279.404,257.307"/>
	<path id="path38" fill="#FFFFFF" d="M279.404,293.821l94.868,32.148l5.879-15.088l27.129,34.277l-44.414,10.049l5.859-15.088
		l-94.873-32.158L279.404,293.821"/>
	<path id="path40" fill="#FFFFFF" d="M125.195,283.479h97.358v15.791l38.11-23.486l-38.11-23.515v15.976h-97.358V283.479"/>
</g>
</svg>
