<?xml version="1.0" encoding="utf-8"?>
<!-- Generator: Adobe Illustrator 16.0.0, SVG Export Plug-In . SVG Version: 6.00 Build 0)  -->
<!DOCTYPE svg PUBLIC "-//W3C//DTD SVG 1.1//EN" "http://www.w3.org/Graphics/SVG/1.1/DTD/svg11.dtd">
<svg version="1.1" id="图层_1" xmlns="http://www.w3.org/2000/svg" xmlns:xlink="http://www.w3.org/1999/xlink" x="0px" y="0px"
	 width="512px" height="512px" viewBox="0 0 512 512" enable-background="new 0 0 512 512" xml:space="preserve">
<g>
	<path fill="#6363F6" d="M167.567,63.04c32.483-15.28,54.256-37.357,48.645-49.318c-2.437-5.179-9.636-7.6-19.641-7.455
		c-32.948,7.952-63.395,22.254-90.01,41.558c-7.343,8.113-10.566,15.729-7.985,21.212C104.188,80.997,135.084,78.304,167.567,63.04"
		/>
	<path fill="#6363F6" d="M212.332,156.674c82.475-38.464,147.714-97.979,128.73-142.936c-23.696-8.754-49.478-12.474-75.885-13.837
		c2.116,1.748,6.397,7.904,7.504,10.261c10.471,22.27-22.703,60.99-83.196,89.433c-60.493,28.443-122.863,31.73-133.332,9.46
		c-1.507-3.207-1.924-6.83-1.411-10.726c-15.937,20.394-24.387,36.443-35.129,60.654
		C35.598,205.736,128.286,195.859,212.332,156.674"/>
	<path fill="#6363F6" d="M266.733,282.743c113.691-53.006,187.043-140.82,175.194-204.808C430.48,66.022,417.91,55.2,404.346,45.66
		c4.858,52.252-62.546,125.235-162.978,172.068C138.146,265.86,36.207,269.5,1.88,228.76c-0.914,8.818-1.443,17.749-1.443,26.824
		c0,12.249,0.914,24.274,2.565,36.059C48.569,335.461,157.996,333.44,266.733,282.743"/>
	<rect x="439.026" y="343.525" fill="#6363F6" width="13.724" height="19.753"/>
	<path fill="#6363F6" d="M511.929,228.311c-3.014-28.491-10.582-55.603-22.157-80.519c-16.307,67.66-86.772,142.247-187.156,189.064
		c-112.425,52.429-227.431,53.742-285.744,9.122c10.309,27.354,25.14,52.478,43.61,74.475c46.352,26.214,128.25,25.396,216.08-3.848
		v3.255h47.522v-21.678c60.573-26.872,111.014-62.433,145.213-99.454v28.813h23.264c-19.319,26.519-42.327,48.196-75.612,70.963
		v-20.651h-35.354v32.805h16.515c-16.546,10.068-38.448,23.553-57.304,31.842c-32.033,14.077-64.148,23.889-94.836,29.613v-14.896
		h-24.531v18.069c-42.44,5.531-77.216,2.981-108.32-7.359c41.029,27.851,90.524,44.172,143.85,44.172
		c116.674,0,215.037-77.938,246.158-184.573h0.096c0.417-1.443,0.786-2.918,1.187-4.377c0.096-0.369,0.208-0.755,0.305-1.122
		c5.676-21.244,8.786-43.53,8.786-66.57C513.5,246.284,511.929,228.311,511.929,228.311 M250.122,418.994h-14.735v-20.202h14.735
		V418.994z M318.584,405.927h-30.158v-23.922h30.158V405.927z M473.577,285.325h-11.512v-11.512h11.512V285.325z M414.254,416.332
		h-14.558v-14.558h14.558V416.332z"/>
</g>
</svg>
