<?xml version="1.0" encoding="utf-8"?>
<!-- Generator: Adobe Illustrator 16.0.0, SVG Export Plug-In . SVG Version: 6.00 Build 0)  -->
<!DOCTYPE svg PUBLIC "-//W3C//DTD SVG 1.1//EN" "http://www.w3.org/Graphics/SVG/1.1/DTD/svg11.dtd">
<svg version="1.1"
	 id="svg2" xmlns:dc="http://purl.org/dc/elements/1.1/" xmlns:cc="http://creativecommons.org/ns#" xmlns:rdf="http://www.w3.org/1999/02/22-rdf-syntax-ns#" xmlns:svg="http://www.w3.org/2000/svg"
	 xmlns="http://www.w3.org/2000/svg" xmlns:xlink="http://www.w3.org/1999/xlink" x="0px" y="0px" width="70px" height="80px"
	 viewBox="0 0 70 80" enable-background="new 0 0 70 80" xml:space="preserve">
<g id="g12" transform="scale(0.1,0.1)">
	<path id="path22" fill="#087FBF" d="M580.669,800.005l119.336-113.379V0L580.669,113.374V800.005"/>
	<path id="path24" fill="none" stroke="#FFFFFF" stroke-width="4" d="M580.669,800.005l119.336-113.379V0L580.669,113.374V800.005z"
		/>
	<path id="path26" fill="#087FBF" d="M700.005,0L580.669,113.374H0L151.318,0H700.005"/>
	<path id="path28" fill="none" stroke="#FFFFFF" stroke-width="4" d="M700.005,0L580.669,113.374H0L151.318,0H700.005z"/>
	<path id="path30" fill="#087FBF" d="M1.323,800.005h579.346V113.374H1.323V800.005z"/>
	<path id="path32" fill="none" stroke="#FFFFFF" stroke-width="4" d="M1.323,800.005h579.346V113.374H1.323V800.005z"/>
	<path id="path34" fill="#FFFFFF" d="M302.915,213.232h21.191l-31.25-47.153l-31.25,47.153h21.084V712.7h-21.201l31.074,47.324
		l31.25-47.324h-20.898V213.232"/>
	<path id="path36" fill="#FFFFFF" d="M141.558,213.232h21.187l-31.235-47.153l-31.069,47.153h20.898V712.7h-21.201l31.25,47.324
		l31.235-47.324h-21.064V213.232"/>
	<path id="path38" fill="#FFFFFF" d="M457.017,213.232h21.172l-31.23-47.153l-31.25,47.153h21.055V712.7h-21.191l31.27,47.324
		l31.23-47.324h-21.055V213.232"/>
</g>
</svg>
