<?xml version="1.0" encoding="utf-8"?>
<!-- Generator: Adobe Illustrator 16.0.0, SVG Export Plug-In . SVG Version: 6.00 Build 0)  -->
<!DOCTYPE svg PUBLIC "-//W3C//DTD SVG 1.1//EN" "http://www.w3.org/Graphics/SVG/1.1/DTD/svg11.dtd">
<svg version="1.1"
	 id="svg2" xmlns:dc="http://purl.org/dc/elements/1.1/" xmlns:cc="http://creativecommons.org/ns#" xmlns:rdf="http://www.w3.org/1999/02/22-rdf-syntax-ns#" xmlns:svg="http://www.w3.org/2000/svg"
	 xmlns="http://www.w3.org/2000/svg" xmlns:xlink="http://www.w3.org/1999/xlink" x="0px" y="0px" width="80px" height="43px"
	 viewBox="0 0 80 43" enable-background="new 0 0 80 43" xml:space="preserve">
<g id="g12" transform="scale(0.1,0.1)">
	<path id="path14" fill="#087FBF" d="M486.819,227.559L530.1,0H200.09l-48.613,227.559H486.819"/>
	<path id="path16" fill="none" stroke="#FFFFFF" stroke-width="4" d="M486.819,227.559L530.1,0H200.09l-48.613,227.559H486.819z"/>
	<path id="path18" fill="#087FBF" d="M530.1,0l12.891,16.694l-40.225,220.737l-15.947-9.873L530.1,0"/>
	<path id="path20" fill="none" stroke="#FFFFFF" stroke-width="4" d="M530.1,0l12.891,16.694l-40.225,220.737l-15.947-9.873L530.1,0
		z"/>
	<path id="path22" fill="#087FBF" d="M151.477,227.559l14.424,9.873h336.865l-15.947-9.873H151.477"/>
	<path id="path24" fill="none" stroke="#FFFFFF" stroke-width="4" d="M151.477,227.559l14.424,9.873h336.865l-15.947-9.873H151.477z
		"/>
	<path id="path26" fill="#087FBF" d="M489.866,243.135v33.77l-8.721,7.607c0,0-20.508,6.055-15.957,18.193l-91.406,85.049v-37.217
		L489.866,243.135"/>
	<path id="path28" fill="none" stroke="#FFFFFF" stroke-width="4" d="M489.866,243.135v33.77l-8.721,7.607
		c0,0-20.508,6.055-15.957,18.193l-91.406,85.049v-37.217L489.866,243.135z"/>
	<path id="path30" fill="#087FBF" d="M10.002,387.754h363.779v-37.217H10.002V387.754z"/>
	<path id="path32" fill="none" stroke="#FFFFFF" stroke-width="4" d="M10.002,350.537v37.217h363.779v-37.217H10.002"/>
	<path id="path34" fill="#087FBF" d="M155.281,245.42l334.585-2.285L373.782,350.537H10.002L155.281,245.42"/>
	<path id="path36" fill="none" stroke="#FFFFFF" stroke-width="4" d="M155.281,245.42l334.585-2.285L373.782,350.537H10.002
		L155.281,245.42z"/>
	<path id="path38" fill="#087FBF" d="M458.831,205.396l34.551-178.218H225.027l-34.546,178.218H458.831"/>
	<path id="path40" fill="none" stroke="#FFFFFF" stroke-width="4" d="M458.831,205.396l34.551-178.218H225.027l-34.546,178.218
		H458.831z"/>
	<path id="path42" fill="none" stroke="#FFFFFF" stroke-linejoin="round" d="M163.142,247.773l-84.385,68.203"/>
	<path id="path44" fill="none" stroke="#FFFFFF" stroke-linejoin="round" d="M190.237,247.773l-84.39,68.203"/>
	<path id="path46" fill="none" stroke="#FFFFFF" stroke-linejoin="round" d="M217.332,247.773l-84.385,68.203"/>
	<path id="path48" fill="none" stroke="#FFFFFF" stroke-linejoin="round" d="M244.431,247.773l-84.385,68.203"/>
	<path id="path50" fill="none" stroke="#FFFFFF" stroke-linejoin="round" d="M271.526,247.773l-84.385,68.203"/>
	<path id="path52" fill="none" stroke="#FFFFFF" stroke-linejoin="round" d="M298.621,247.773l-84.385,68.203"/>
	<path id="path54" fill="none" stroke="#FFFFFF" stroke-linejoin="round" d="M325.715,247.773l-84.38,68.203"/>
	<path id="path56" fill="none" stroke="#FFFFFF" stroke-linejoin="round" d="M352.81,247.773l-84.38,68.203"/>
	<path id="path58" fill="none" stroke="#FFFFFF" stroke-linejoin="round" d="M379.91,247.773l-84.385,68.203"/>
	<path id="path60" fill="none" stroke="#FFFFFF" stroke-linejoin="round" d="M406.995,247.773l-84.375,68.203"/>
	<path id="path62" fill="none" stroke="#FFFFFF" stroke-linejoin="round" d="M434.104,247.773l-84.39,68.203"/>
	<path id="path64" fill="none" stroke="#FFFFFF" stroke-linejoin="round" d="M461.204,247.773l-84.395,68.203"/>
	<path id="path66" fill="none" stroke="#FFFFFF" stroke-linejoin="round" d="M88.191,308.77h300.396"/>
	<path id="path68" fill="none" stroke="#FFFFFF" stroke-linejoin="round" d="M108.396,293.145h295.752"/>
	<path id="path70" fill="none" stroke="#FFFFFF" stroke-linejoin="round" d="M129.348,277.529h294.98"/>
	<path id="path72" fill="none" stroke="#FFFFFF" stroke-linejoin="round" d="M147.996,261.875h297.319"/>
	<path id="path74" fill="#FFFFFF" d="M330.959,84.956h48.477c11.763,3.584,10.576,13.003,10.576,13.003
		c0,9.399-8.228,11.821-8.228,11.821h-88.33c-16.465-1.25-10.513-15.361-10.513-15.361l37.451-43.086c5.972-5.977,19.595,0,19.595,0
		c8.604,8.589,4.78,16.255,4.78,16.255L330.959,84.956"/>
	<path id="path76" fill="#FFFFFF" d="M365.75,153.032h-48.481c-11.758-3.599-10.566-13.008-10.566-13.008
		c0-9.414,8.223-11.826,8.223-11.826h88.325c16.489,1.235,10.522,15.356,10.522,15.356l-37.456,43.101
		c-5.977,5.981-19.595,0-19.595,0c-8.613-8.623-4.78-16.265-4.78-16.265L365.75,153.032"/>
	<path id="path78" fill="#231F20" d="M467.053,380.469c0,7.617-6.152,13.779-13.789,13.779c-7.598,0-13.779-6.162-13.779-13.779
		c0-7.607,6.182-13.779,13.779-13.779C460.901,366.689,467.053,372.861,467.053,380.469"/>
	<path id="path80" fill="none" stroke="#000000" stroke-width="4" stroke-linejoin="round" d="M708.987,403.447
		c-42.002,14.502-119.219,18.105-182.158,7.568c-41.484-6.934-67.422-18.447-73.545-30.547"/>
	<path id="path82" fill="none" stroke="#000000" stroke-width="10" stroke-linejoin="round" d="M546.565,333.262
		c9.326-22.236,26.26-44.756,49.922-64.248c58.691-48.389,136.514-59.761,173.828-25.381
		c37.324,34.355,20.02,101.436-38.662,149.844c-5.566,4.59-11.289,8.828-17.158,12.734"/>
	<path id="path84" fill="#231F20" d="M738.274,406.211c0,13.154-10.645,23.789-23.779,23.789s-23.789-10.635-23.789-23.789
		c0-13.145,10.654-23.799,23.789-23.799S738.274,393.066,738.274,406.211"/>
	<path id="path86" fill="none" stroke="#FFFFFF" stroke-width="4" d="M738.274,406.211c0,13.154-10.645,23.789-23.779,23.789
		s-23.789-10.635-23.789-23.789c0-13.145,10.654-23.799,23.789-23.799S738.274,393.066,738.274,406.211z"/>
	<path id="path88" fill="#231F20" d="M560.09,333.115c0,7.607-6.182,13.789-13.779,13.789c-7.617,0-13.77-6.181-13.77-13.789
		c0-7.598,6.152-13.779,13.77-13.779C553.909,319.336,560.09,325.518,560.09,333.115"/>
</g>
</svg>
