<?xml version="1.0" encoding="utf-8"?>
<!-- Generator: Adobe Illustrator 16.0.0, SVG Export Plug-In . SVG Version: 6.00 Build 0)  -->
<!DOCTYPE svg PUBLIC "-//W3C//DTD SVG 1.1//EN" "http://www.w3.org/Graphics/SVG/1.1/DTD/svg11.dtd">
<svg version="1.1"
	 id="svg2" xmlns:dc="http://purl.org/dc/elements/1.1/" xmlns:cc="http://creativecommons.org/ns#" xmlns:rdf="http://www.w3.org/1999/02/22-rdf-syntax-ns#" xmlns:svg="http://www.w3.org/2000/svg"
	 xmlns="http://www.w3.org/2000/svg" xmlns:xlink="http://www.w3.org/1999/xlink" x="0px" y="0px" width="77px" height="70px"
	 viewBox="0 0 77 70" enable-background="new 0 0 77 70" xml:space="preserve">
<path id="path22" fill="#087FBF" d="M76,13.367v23.741L54.637,56.71V32.97L76,13.367"/>
<path id="path24" fill="none" stroke="#FFFFFF" stroke-width="4" d="M76,13.367v23.741L54.637,56.71V32.97L76,13.367z"/>
<path id="path26" fill="#087FBF" d="M17.983,19.219H-1L20.359,0h19.002l26.176,13.367H76L54.637,32.97H44.176"/>
<path id="path28" fill="none" stroke="#FFFFFF" stroke-width="4" d="M17.983,19.219H-1L20.359,0h19.002l26.176,13.367H76
	L54.637,32.97H44.176"/>
<path id="path30" fill="#087FBF" d="M18.016,19.251L44.19,32.97h-0.015h10.462v23.74H44.176h0.015L18.016,70l-0.033-0.058H-1V19.187
	h18.983L18.016,19.251"/>
<path id="path32" fill="none" stroke="#FFFFFF" stroke-width="4" d="M18.016,19.251L44.19,32.97h-0.015h10.462v23.74H44.176h0.015
	L18.016,70l-0.033-0.058H-1V19.187h18.983L18.016,19.251z"/>
<path id="path34" fill="#FFFFFF" d="M40.122,13.552l-10.029-4.66"/>
<path id="path36" fill="none" stroke="#FFFFFF" stroke-width="4" stroke-linecap="round" stroke-linejoin="round" d="M40.122,13.552
	l-10.029-4.66"/>
<path id="path38" fill="#FFFFFF" d="M44.058,21.466l7.199-5.513l-8.037,0.163L44.058,21.466"/>
<path id="path40" fill="#FFFFFF" d="M32.452,14.48l7.169-5.513l1.183,5.412L32.452,14.48"/>
<path id="path42" fill="#FFFFFF" d="M53.832,21.136l-8.81-4.346"/>
<path id="path44" fill="none" stroke="#FFFFFF" stroke-width="4" stroke-linecap="round" stroke-linejoin="round" d="M53.832,21.136
	l-8.81-4.346"/>
<path id="path46" fill="#FFFFFF" d="M43.154,14.495l5.007-3.695"/>
<path id="path48" fill="none" stroke="#FFFFFF" stroke-width="4" stroke-linecap="round" stroke-linejoin="round" d="M43.154,14.495
	l5.007-3.695"/>
<path id="path50" fill="#FFFFFF" d="M33.552,16.816l7.616,4.094l-7.993,1.353L33.552,16.816"/>
<path id="path52" fill="#FFFFFF" d="M43.662,8.894l7.596,4.097l-0.528-4.66L43.662,8.894"/>
<path id="path54" fill="#FFFFFF" d="M35.387,20.566l5.576-4.274"/>
<path id="path56" fill="none" stroke="#FFFFFF" stroke-width="4" stroke-linecap="round" stroke-linejoin="round" d="M35.387,20.566
	l5.576-4.274"/>
<path id="path58" fill="none" stroke="#FFFFFF" stroke-width="14.25" d="M33.1,54.372h-7.705L14.937,33.277H8.023"/>
<path id="path60" fill="none" stroke="#FFFFFF" stroke-width="14.25" d="M7.492,54.321h7.445l10.354-20.972h8.076"/>
<path id="path62" fill="#FFFFFF" d="M30.7,29.485v7.459l4.5-3.59L30.7,29.485"/>
<path id="path64" fill="none" stroke="#FFFFFF" stroke-width="1.9" d="M30.7,29.485v7.459l4.5-3.59L30.7,29.485z"/>
<path id="path66" fill="#FFFFFF" d="M30.7,50.476v7.44l4.5-3.59L30.7,50.476"/>
<path id="path68" fill="none" stroke="#FFFFFF" stroke-width="1.9" d="M30.7,50.476v7.44l4.5-3.59L30.7,50.476z"/>
<path id="path70" fill="#FFFFFF" d="M9.069,37.088V29.63l-4.498,3.571L9.069,37.088"/>
<path id="path72" fill="none" stroke="#FFFFFF" stroke-width="1.9" d="M9.069,37.088V29.63l-4.498,3.571L9.069,37.088z"/>
<path id="path74" fill="#FFFFFF" d="M9.069,58.153v-7.44l-4.498,3.589L9.069,58.153"/>
<path id="path76" fill="none" stroke="#FFFFFF" stroke-width="1.9" d="M9.069,58.153v-7.44l-4.498,3.589L9.069,58.153z"/>
</svg>
