<svg version="1.1" id="ilhwsa8q1" xmlns:xml="http://www.w3.org/XML/1998/namespace"
	 xmlns="http://www.w3.org/2000/svg" xmlns:xlink="http://www.w3.org/1999/xlink" x="0px" y="0px" width="40px" height="76px"
	 viewBox="0 0 40 76" enable-background="new 0 0 40 76" xml:space="preserve">
<g>
	<path fill="#31333D" d="M40,69.126C40,72.961,36.805,76,32.876,76H7.119C3.202,76,0,72.879,0,69.126V6.885C0,3.121,3.202,0,7.119,0
		h25.757C36.805,0,40,3.121,40,6.885V69.126z"/>
	<rect x="2.56" y="10.719" fill="#FFFFFF" width="34.877" height="56.163"/>
	<g>
		<path fill="#DDDDDD" d="M15.042,5.201c0.489,0,0.877,0.391,0.877,0.877c0,0.486-0.389,0.88-0.877,0.88
			c-0.487,0-0.884-0.394-0.884-0.88C14.158,5.592,14.555,5.201,15.042,5.201z"/>
		<path fill="#164C6D" d="M15.042,5.843c0.129,0,0.235,0.107,0.235,0.235c0,0.138-0.106,0.244-0.235,0.244
			c-0.138,0-0.244-0.106-0.244-0.244C14.798,5.95,14.904,5.843,15.042,5.843z"/>
		<path fill="#DDDDDD" d="M25.833,6.323c0,0.154-0.082,0.235-0.229,0.235h-8c-0.163,0-0.244-0.082-0.244-0.235V6.079
			c0-0.159,0.081-0.235,0.244-0.235h8.081c0.15,0,0.232,0.077,0.232,0.235v0.244H25.833z"/>
	</g>
	<path fill="#DDDDDD" d="M19.999,68.167c1.765,0,3.202,1.419,3.202,3.196c0,1.77-1.438,3.188-3.202,3.188
		c-1.764,0-3.202-1.418-3.202-3.188C16.797,69.586,18.235,68.167,19.999,68.167z"/>
</g>
</svg>
