<svg version="1.1" id="ilhwsa8q1" xmlns:xml="http://www.w3.org/XML/1998/namespace"
	 xmlns="http://www.w3.org/2000/svg" xmlns:xlink="http://www.w3.org/1999/xlink" x="0px" y="0px" width="75px" height="65px"
	 viewBox="0 0 75 65" enable-background="new 0 0 75 65" xml:space="preserve">
<g>
	<path fill="#57585A" d="M74.925,57.682c0,3.004-2.392,5.399-5.387,5.399H5.397c-3,0-5.397-2.395-5.397-5.399V22.703
		c0-3,2.398-5.405,5.397-5.405h64.216c2.994,0,5.387,2.404,5.387,5.405v34.979H74.925z"/>
	<path fill="#222222" d="M21.732,54.456c0,3.524-2.854,6.378-6.37,6.378h-5.169c-3.599,0-6.443-2.853-6.443-6.378V10.172
		c0-3.53,2.844-6.38,6.368-6.38h5.171c3.516,0,6.367,2.85,6.367,6.38v44.284H21.732L21.732,54.456z"/>
	<path fill="#777C82" d="M15.213,64.437c-1.875,0.751-3.75,0.751-5.549,0c-3.374-1.355-5.692-7.659-5.322-10.582
		c1.426-14.271,1.426-28.454,0-42.708C3.9,8.218,6.216,1.99,9.588,0.563c1.875-0.751,3.75-0.751,5.549,0
		c3.373,1.351,5.688,7.654,5.316,10.583c-1.429,14.255-1.429,28.437,0,42.708C20.902,56.777,18.584,63.006,15.213,64.437z"/>
	<path fill="#222222" d="M68.179,22.551H25.47V6.117c0-3.001,2.176-5.333,5.171-5.333h32.078c2.918,0,5.46,2.332,5.46,5.333V22.551z
		"/>
	<path fill="#EEEEEE" d="M64.43,19.551h-35.21V7.02c0-1.802,1.271-3.229,3.07-3.229H60.98c1.813,0,3.449,1.426,3.449,3.229V19.551z"
		/>
	<path fill="#344451" d="M46.687,17.673c2.222,0,4.032,1.82,4.032,4.058s-1.811,4.047-4.032,4.047c-2.246,0-4.052-1.809-4.052-4.047
		S44.44,17.673,46.687,17.673z"/>
	<path fill="#1B2733" d="M46.687,20.155c0.98,0,1.786,0.807,1.786,1.797c0,0.994-0.806,1.797-1.786,1.797
		c-1.007,0-1.813-0.803-1.813-1.797C44.874,20.961,45.68,20.155,46.687,20.155z"/>
	<g>
		<g>
			<path fill="#1B2733" d="M34.468,31.563c0,0.829-0.68,1.489-1.499,1.489h-5.997c-0.822,0-1.502-0.66-1.502-1.489l0,0
				c0-0.831,0.679-1.504,1.502-1.504h5.997C33.787,30.06,34.468,30.733,34.468,31.563L34.468,31.563z"/>
			<path fill="#1B2733" d="M45.705,31.563c0,0.829-0.681,1.489-1.504,1.489h-5.996c-0.819,0-1.492-0.66-1.492-1.489l0,0
				c0-0.831,0.672-1.504,1.492-1.504h5.996C45.024,30.06,45.705,30.733,45.705,31.563L45.705,31.563z"/>
			<path fill="#1B2733" d="M56.944,31.563c0,0.829-0.671,1.489-1.5,1.489h-5.99c-0.829,0-1.51-0.66-1.51-1.489l0,0
				c0-0.831,0.681-1.504,1.51-1.504h5.99C56.273,30.06,56.944,30.733,56.944,31.563L56.944,31.563z"/>
		</g>
		<g>
			<path fill="#1B2733" d="M34.468,38.321c0,0.817-0.68,1.488-1.499,1.488h-5.997c-0.822,0-1.502-0.67-1.502-1.488l0,0
				c0-0.831,0.679-1.512,1.502-1.512h5.997C33.787,36.809,34.468,37.49,34.468,38.321L34.468,38.321z"/>
			<path fill="#1B2733" d="M45.705,38.321c0,0.817-0.681,1.488-1.504,1.488h-5.996c-0.819,0-1.492-0.67-1.492-1.488l0,0
				c0-0.831,0.672-1.512,1.492-1.512h5.996C45.024,36.809,45.705,37.49,45.705,38.321L45.705,38.321z"/>
			<path fill="#1B2733" d="M56.944,38.321c0,0.817-0.671,1.488-1.5,1.488h-5.99c-0.829,0-1.51-0.67-1.51-1.488l0,0
				c0-0.831,0.681-1.512,1.51-1.512h5.99C56.273,36.809,56.944,37.49,56.944,38.321L56.944,38.321z"/>
		</g>
		<g>
			<path fill="#1B2733" d="M34.468,45.072c0,0.818-0.68,1.495-1.499,1.495h-5.997c-0.822,0-1.502-0.677-1.502-1.495l0,0
				c0-0.825,0.679-1.506,1.502-1.506h5.997C33.787,43.566,34.468,44.247,34.468,45.072L34.468,45.072z"/>
			<path fill="#1B2733" d="M45.705,45.072c0,0.818-0.681,1.495-1.504,1.495h-5.996c-0.819,0-1.492-0.677-1.492-1.495l0,0
				c0-0.825,0.672-1.506,1.492-1.506h5.996C45.024,43.566,45.705,44.247,45.705,45.072L45.705,45.072z"/>
			<path fill="#1B2733" d="M56.944,45.072c0,0.818-0.671,1.495-1.5,1.495h-5.99c-0.829,0-1.51-0.677-1.51-1.495l0,0
				c0-0.825,0.681-1.506,1.51-1.506h5.99C56.273,43.566,56.944,44.247,56.944,45.072L56.944,45.072z"/>
		</g>
		<g>
			<path fill="#1B2733" d="M34.468,51.834c0,0.809-0.68,1.49-1.499,1.49h-5.997c-0.822,0-1.502-0.682-1.502-1.49l0,0
				c0-0.829,0.679-1.511,1.502-1.511h5.997C33.787,50.323,34.468,51.005,34.468,51.834L34.468,51.834z"/>
			<path fill="#1B2733" d="M45.705,51.834c0,0.809-0.681,1.49-1.504,1.49h-5.996c-0.819,0-1.492-0.682-1.492-1.49l0,0
				c0-0.829,0.672-1.511,1.492-1.511h5.996C45.024,50.323,45.705,51.005,45.705,51.834L45.705,51.834z"/>
			<path fill="#1B2733" d="M56.944,51.834c0,0.809-0.671,1.49-1.5,1.49h-5.99c-0.829,0-1.51-0.682-1.51-1.49l0,0
				c0-0.829,0.681-1.511,1.51-1.511h5.99C56.273,50.323,56.944,51.005,56.944,51.834L56.944,51.834z"/>
		</g>
	</g>
	<g>
		<g>
			<path fill="#BBBBC4" d="M33.344,32.157h-6.075c-0.818,0-1.498-0.667-1.498-1.5l0,0c0-0.819,0.679-1.5,1.498-1.5h6.075
				c0.82,0,1.501,0.681,1.501,1.5l0,0C34.845,31.489,34.165,32.157,33.344,32.157z"/>
			<path fill="#BBBBC4" d="M44.273,32.157h-6.068c-0.819,0-1.492-0.667-1.492-1.5l0,0c0-0.819,0.672-1.5,1.492-1.5h6.068
				c0.828,0,1.506,0.681,1.506,1.5l0,0C45.78,31.489,45.102,32.157,44.273,32.157z"/>
			<path fill="#BBBBC4" d="M55.294,32.157h-6.065c-0.831,0-1.51-0.667-1.51-1.5l0,0c0-0.819,0.679-1.5,1.51-1.5h6.065
				c0.831,0,1.504,0.681,1.504,1.5l0,0C56.798,31.489,56.125,32.157,55.294,32.157z"/>
		</g>
		<g>
			<path fill="#BBBBC4" d="M33.344,38.992h-6.075c-0.818,0-1.498-0.671-1.498-1.503l0,0c0-0.832,0.679-1.505,1.498-1.505h6.075
				c0.82,0,1.501,0.672,1.501,1.505l0,0C34.845,38.321,34.165,38.992,33.344,38.992z"/>
			<path fill="#BBBBC4" d="M44.273,38.992h-6.068c-0.819,0-1.492-0.671-1.492-1.503l0,0c0-0.832,0.672-1.505,1.492-1.505h6.068
				c0.828,0,1.506,0.672,1.506,1.505l0,0C45.78,38.321,45.102,38.992,44.273,38.992z"/>
			<path fill="#BBBBC4" d="M55.294,38.992h-6.065c-0.831,0-1.51-0.671-1.51-1.503l0,0c0-0.832,0.679-1.505,1.51-1.505h6.065
				c0.831,0,1.504,0.672,1.504,1.505l0,0C56.798,38.321,56.125,38.992,55.294,38.992z"/>
		</g>
		<g>
			<path fill="#BBBBC4" d="M33.344,45.449h-6.075c-0.818,0-1.498-0.673-1.498-1.506l0,0c0-0.831,0.679-1.502,1.498-1.502h6.075
				c0.82,0,1.501,0.67,1.501,1.502l0,0C34.845,44.776,34.165,45.449,33.344,45.449z"/>
			<path fill="#BBBBC4" d="M44.273,45.449h-6.068c-0.819,0-1.492-0.673-1.492-1.506l0,0c0-0.831,0.672-1.502,1.492-1.502h6.068
				c0.828,0,1.506,0.67,1.506,1.502l0,0C45.78,44.776,45.102,45.449,44.273,45.449z"/>
			<path fill="#BBBBC4" d="M55.294,45.449h-6.065c-0.831,0-1.51-0.673-1.51-1.506l0,0c0-0.831,0.679-1.502,1.51-1.502h6.065
				c0.831,0,1.504,0.67,1.504,1.502l0,0C56.798,44.776,56.125,45.449,55.294,45.449z"/>
		</g>
		<g>
			<path fill="#BBBBC4" d="M33.344,52.274h-6.075c-0.818,0-1.498-0.671-1.498-1.497l0,0c0-0.831,0.679-1.519,1.498-1.519h6.075
				c0.82,0,1.501,0.688,1.501,1.519l0,0C34.845,51.603,34.165,52.274,33.344,52.274z"/>
			<path fill="#BBBBC4" d="M44.273,52.274h-6.068c-0.819,0-1.492-0.671-1.492-1.497l0,0c0-0.831,0.672-1.519,1.492-1.519h6.068
				c0.828,0,1.506,0.688,1.506,1.519l0,0C45.78,51.603,45.102,52.274,44.273,52.274z"/>
			<path fill="#BBBBC4" d="M55.294,52.274h-6.065c-0.831,0-1.51-0.671-1.51-1.497l0,0c0-0.831,0.679-1.519,1.51-1.519h6.065
				c0.831,0,1.504,0.688,1.504,1.519l0,0C56.798,51.603,56.125,52.274,55.294,52.274z"/>
		</g>
	</g>
	<path fill="#BBBBC4" d="M67.674,58.208c0,0.591-0.513,1.117-1.108,1.117l0,0c-0.604,0-1.127-0.526-1.127-1.117V27.43
		c0-0.599,0.523-1.122,1.127-1.122l0,0c0.596,0,1.108,0.523,1.108,1.122V58.208z"/>
	<path fill="#466B8E" d="M41.2,57.231c0.546,0,0.981,0.438,0.981,0.977c0,0.529-0.436,0.966-0.981,0.966
		c-0.521,0-0.957-0.437-0.957-0.966C40.243,57.668,40.679,57.231,41.2,57.231z"/>
	<polygon fill="#466B8E" points="46.006,19.399 46.459,18.577 46.983,19.399 	"/>
	<polygon fill="#466B8E" points="46.983,24.733 46.459,25.554 46.006,24.733 	"/>
	<polygon fill="#466B8E" points="43.98,22.476 43.161,21.952 43.98,21.506 	"/>
	<polygon fill="#466B8E" points="49.229,21.506 50.133,21.952 49.229,22.476 	"/>
</g>
</svg>
