<?xml version="1.0" encoding="utf-8"?>
<!-- Generator: Adobe Illustrator 16.0.0, SVG Export Plug-In . SVG Version: 6.00 Build 0)  -->
<!DOCTYPE svg PUBLIC "-//W3C//DTD SVG 1.1//EN" "http://www.w3.org/Graphics/SVG/1.1/DTD/svg11.dtd">
<svg version="1.1"
	 id="svg2" xmlns:dc="http://purl.org/dc/elements/1.1/" xmlns:cc="http://creativecommons.org/ns#" xmlns:rdf="http://www.w3.org/1999/02/22-rdf-syntax-ns#" xmlns:svg="http://www.w3.org/2000/svg"
	 xmlns="http://www.w3.org/2000/svg" xmlns:xlink="http://www.w3.org/1999/xlink" x="0px" y="0px" width="75px" height="37px"
	 viewBox="0 0 75 37" enable-background="new 0 0 75 37" xml:space="preserve">
<g id="g12" transform="scale(0.1,0.1)">
	<path id="path22" fill="#087FBF" d="M324.48,29.48H170.017L-0.002,274.558c148.945,0,148.945-0.127,149.941,0
		c186.426,27.139,230.732,14.678,404.883,0L680.916,73.342h-44.111l29.053-43.862h-304.6L328.22,73.342h-37.803L324.48,29.48"/>
	<path id="path24" fill="none" stroke="#FFFFFF" stroke-width="4" d="M324.48,29.48H170.017L-0.002,274.558
		c148.945,0,148.945-0.127,149.941,0c186.426,27.139,230.732,14.678,404.883,0L680.916,73.342h-44.111l29.053-43.862h-304.6
		L328.22,73.342h-37.803L324.48,29.48z"/>
	<path id="path26" fill="#087FBF" d="M323.152,261.619H214.558l60.488-79.473h104.902L323.152,261.619"/>
	<path id="path28" fill="none" stroke="#FFFFFF" stroke-width="4" d="M323.152,261.619H214.558l60.488-79.473h104.902
		L323.152,261.619z"/>
	<path id="path30" fill="#087FBF" d="M680.916,73.342V221.15L554.822,353.991v-79.434L680.916,73.342"/>
	<path id="path32" fill="none" stroke="#FFFFFF" stroke-width="4" d="M680.916,73.342V221.15L554.822,353.991v-79.434
		L680.916,73.342z"/>
	<path id="path34" fill="#231F20" d="M554.822,274.558L680.916,73.342"/>
	<path id="path36" fill="none" stroke="#FFFFFF" stroke-width="4" d="M554.822,274.558L680.916,73.342"/>
	<path id="path38" fill="#087FBF" d="M243.298,85.452c-20.674,23.647-46.143,51.172-62.48,77.983l1.387,17.285l-50.977,78.438
		l-5.908-50.986c9.688-38.604,129.99-190.259,157.695-208.174l5.908,50.991l-44.326,50.747L243.298,85.452"/>
	<path id="path40" fill="none" stroke="#FFFFFF" stroke-width="4" d="M243.298,85.452c-20.674,23.647-46.143,51.172-62.48,77.983
		l1.387,17.285l-50.977,78.438l-5.908-50.986c9.688-38.604,129.99-190.259,157.695-208.174l5.908,50.991l-44.326,50.747
		L243.298,85.452z"/>
	<path id="path42" fill="#087FBF" d="M30.457,208.171l-5.928,50.986h106.699l-5.908-50.986H30.457"/>
	<path id="path44" fill="none" stroke="#FFFFFF" stroke-width="4" d="M30.457,208.171l-5.928,50.986h106.699l-5.908-50.986H30.457z"
		/>
	<path id="path46" fill="#087FBF" d="M283.015-0.002C255.31,17.913,135.007,169.568,125.32,208.171H30.457
		c9.717-38.604,130-190.259,157.705-208.174H283.015"/>
	<path id="path48" fill="none" stroke="#FFFFFF" stroke-width="4" d="M283.015-0.002C255.31,17.913,135.007,169.568,125.32,208.171
		H30.457c9.717-38.604,130-190.259,157.705-208.174H283.015z"/>
	<path id="path50" fill="#FFFFFF" d="M315.242,130.378l62.52-82.144h243.984l-56.133,82.144H315.242"/>
	<path id="path52" fill="none" stroke="#FFFFFF" stroke-width="3.5" d="M315.242,130.378l62.52-82.144h243.984l-56.133,82.144
		H315.242z"/>
	<path id="path54" fill="#087FBF" d="M341.765,115.129l42.041-55.215h164.082l-37.695,55.215H341.765"/>
	<path id="path56" fill="none" stroke="#FFFFFF" stroke-width="4" d="M341.765,115.129l42.041-55.215h164.082l-37.695,55.215
		H341.765z"/>
	<path id="path58" fill="#087FBF" d="M342.771,182.146l-56.768,79.473"/>
	<path id="path60" fill="none" stroke="#FFFFFF" stroke-width="4" d="M342.771,182.146l-56.768,79.473"/>
	<path id="path62" fill="#087FBF" d="M308.357,182.146l-56.758,79.473"/>
	<path id="path64" fill="none" stroke="#FFFFFF" stroke-width="4" d="M308.357,182.146l-56.758,79.473"/>
	<path id="path66" fill="#087FBF" d="M261.404,201.199h104.209"/>
	<path id="path68" fill="none" stroke="#FFFFFF" stroke-width="4" d="M261.404,201.199h104.209"/>
	<path id="path70" fill="#087FBF" d="M245.564,221.511H351.98"/>
	<path id="path72" fill="none" stroke="#FFFFFF" stroke-width="4" d="M245.564,221.511H351.98"/>
	<path id="path74" fill="#087FBF" d="M228.748,243.083H336.57"/>
	<path id="path76" fill="none" stroke="#FFFFFF" stroke-width="4" d="M228.748,243.083H336.57"/>
	<path id="path78" fill="#087FBF" d="M554.822,353.991c-174.15,14.668-218.457,27.129-404.883,0H-0.002v-79.434
		c148.945,0,148.945-0.127,149.941,0c186.426,27.139,230.732,14.678,404.883,0V353.991"/>
	<path id="path80" fill="none" stroke="#FFFFFF" stroke-width="4" d="M554.822,353.991c-174.15,14.668-218.457,27.129-404.883,0
		H-0.002v-79.434c148.945,0,148.945-0.127,149.941,0c186.426,27.139,230.732,14.678,404.883,0V353.991z"/>
	<path id="path82" fill="#087FBF" d="M324.48,29.48v43.862h-34.063L324.48,29.48"/>
	<path id="path84" fill="none" stroke="#FFFFFF" stroke-width="4" d="M324.48,29.48v43.862h-34.063L324.48,29.48z"/>
	<path id="path86" fill="#231F20" d="M665.857,29.48v43.862h-29.053L665.857,29.48"/>
	<path id="path88" fill="none" stroke="#FFFFFF" stroke-width="4" d="M665.857,29.48v43.862h-29.053L665.857,29.48z"/>
	<g id="g90" transform="scale(10,10)" style="font-variant:normal;font-weight:bold;font-size:14.3524px;font-family:Helvetica;-inkscape-font-specification:Helvetica-Bold;writing-mode:lr-tb;fill:#ffffff;fill-opacity:1;fill-rule:nonzero;stroke:none">
		<text transform="matrix(1.0051 0 0 1 41.3308 26.2605)">I</text>
		<text transform="matrix(1.0051 0 0 1 45.3387 26.2605)">P</text>
	</g>
</g>
</svg>
