<?xml version="1.0" encoding="utf-8"?>
<!-- Generator: Adobe Illustrator 16.0.0, SVG Export Plug-In . SVG Version: 6.00 Build 0)  -->
<!DOCTYPE svg PUBLIC "-//W3C//DTD SVG 1.1//EN" "http://www.w3.org/Graphics/SVG/1.1/DTD/svg11.dtd">
<svg version="1.1"
	 id="svg2" xmlns:dc="http://purl.org/dc/elements/1.1/" xmlns:cc="http://creativecommons.org/ns#" xmlns:rdf="http://www.w3.org/1999/02/22-rdf-syntax-ns#" xmlns:svg="http://www.w3.org/2000/svg"
	 xmlns="http://www.w3.org/2000/svg" xmlns:xlink="http://www.w3.org/1999/xlink" x="0px" y="0px" width="79px" height="44px"
	 viewBox="0 0 79 44" enable-background="new 0 0 79 44" xml:space="preserve">
<g id="g12" transform="scale(0.1,0.1)">
	<path id="path22" fill="#087FBF" d="M0,193.252L238.77,0h551.226L592.417,193.252H0"/>
	<path id="path24" fill="none" stroke="#FFFFFF" stroke-width="4" d="M0,193.252L238.77,0h551.226L592.417,193.252H0z"/>
	<path id="path26" fill="#087FBF" d="M592.417,439.863l197.578-201.494V0.371L592.417,193.252V439.863"/>
	<path id="path28" fill="none" stroke="#FFFFFF" stroke-width="4" d="M592.417,439.863l197.578-201.494V0.371L592.417,193.252
		V439.863z"/>
	<path id="path30" fill="#087FBF" d="M0.796,440h591.621V193.252H0.796V440z"/>
	<path id="path32" fill="none" stroke="#FFFFFF" stroke-width="4" d="M0.796,440h591.621V193.252H0.796V440z"/>
	<path id="path34" fill="#FFFFFF" d="M101.416,285.039h89.507v-46.553h-89.507V285.039z"/>
	<path id="path36" fill="#FFFFFF" d="M395.464,285.039h89.59v-46.553h-89.59V285.039z"/>
	<path id="path38" fill="#FFFFFF" d="M101.416,401.572h89.507v-46.543h-89.507V401.572z"/>
	<path id="path40" fill="#FFFFFF" d="M395.464,401.572h89.59v-46.543h-89.59V401.572z"/>
	<path id="path42" fill="none" stroke="#FFFFFF" stroke-width="4" d="M162.119,261.758h275.024"/>
	<path id="path44" fill="none" stroke="#FFFFFF" stroke-width="4" d="M162.119,377.636h275.024"/>
	<path id="path46" fill="none" stroke="#FFFFFF" stroke-width="4" d="M146.187,378.281l290.957-116.523"/>
	<path id="path48" fill="none" stroke="#FFFFFF" stroke-width="4" d="M146.187,261.758l290.957,116.523"/>
	<path id="path50" fill="#FFFFFF" d="M338.96,37.705l122.969-12.002l-23.711,39.248l-31.465-6.006l-183.926,69.521l-32.988-9.102
		L370.015,50.85L338.96,37.705"/>
	<path id="path52" fill="#FFFFFF" d="M481.304,81.318l122.871-12.1l-23.516,39.336l-31.504-6.006L365.054,172.09l-32.871-9.111
		l180.156-68.525L481.304,81.318"/>
</g>
</svg>
