<?xml version="1.0" encoding="utf-8"?>
<!-- Generator: Adobe Illustrator 16.0.0, SVG Export Plug-In . SVG Version: 6.00 Build 0)  -->
<!DOCTYPE svg PUBLIC "-//W3C//DTD SVG 1.1//EN" "http://www.w3.org/Graphics/SVG/1.1/DTD/svg11.dtd">
<svg version="1.1"
	 id="svg2" xmlns:dc="http://purl.org/dc/elements/1.1/" xmlns:cc="http://creativecommons.org/ns#" xmlns:rdf="http://www.w3.org/1999/02/22-rdf-syntax-ns#" xmlns:svg="http://www.w3.org/2000/svg"
	 xmlns="http://www.w3.org/2000/svg" xmlns:xlink="http://www.w3.org/1999/xlink" x="0px" y="0px" width="78px" height="68px"
	 viewBox="0 0 78 68" enable-background="new 0 0 78 68" xml:space="preserve">
<g id="g12" transform="scale(0.1,0.1)">
	<path id="path22" fill="#087FBF" d="M765.005,156.34c0,80.801-167.832,146.221-375,146.221C182.832,302.561,15,237.141,15,156.34
		v367.451c0,80.781,167.832,146.211,375.005,146.211c207.168,0,375-65.43,375-146.211V156.34"/>
	<path id="path24" fill="none" stroke="#FFFFFF" stroke-width="4" d="M765.005,156.34c0,80.801-167.832,146.221-375,146.221
		C182.832,302.561,15,237.141,15,156.34v367.451c0,80.781,167.832,146.211,375.005,146.211c207.168,0,375-65.43,375-146.211V156.34z
		"/>
	<path id="path26" fill="#087FBF" d="M390.005,302.561c207.168,0,375-65.42,375-146.221c0-80.762-167.832-146.338-375-146.338
		C182.832,10.002,15,75.579,15,156.34C15,237.141,182.832,302.561,390.005,302.561"/>
	<path id="path28" fill="none" stroke="#FFFFFF" stroke-width="4" d="M390.005,302.561c207.168,0,375-65.42,375-146.221
		c0-80.762-167.832-146.338-375-146.338C182.832,10.002,15,75.579,15,156.34C15,237.141,182.832,302.561,390.005,302.561z"/>
	<path id="path30" fill="#FFFFFF" d="M304.331,99.124l31.035,46.602l-117.114,27.158l25.601-21.475L62.91,120.452l45.4-34.131
		l174.644,29.688L304.331,99.124"/>
	<path id="path32" fill="#FFFFFF" d="M469.106,212.004l-21.172-47.92l105.547-21.211l-18.301,16.475l176.191,30.146l-42.324,33.838
		l-174.98-32.842L469.106,212.004"/>
	<path id="path34" fill="#FFFFFF" d="M411.313,73.743l118.438-32.568l1.406,50.928l-29.746-5.742l-57.754,48.047l-55.049-8.057
		l59.775-46.992L411.313,73.743"/>
	<path id="path36" fill="#FFFFFF" d="M360.669,255.901l-112.676,21.074l-4.141-52.217l32.305,7.041l62.109-53.018l54.746,9.268
		l-66.074,57.939L360.669,255.901"/>
	<path id="path38" fill="#FFFFFF" d="M579.067,561.819v-93.975l-56.445,45.01L579.067,561.819"/>
	<path id="path40" fill="none" stroke="#FFFFFF" stroke-width="0.76" d="M579.067,561.819v-93.975l-56.445,45.01L579.067,561.819z"
		/>
	<path id="path42" fill="#FFFFFF" d="M180.151,561.819v-93.975l56.416,45.01L180.151,561.819"/>
	<path id="path44" fill="none" stroke="#FFFFFF" stroke-width="0.76" d="M180.151,561.819v-93.975l56.416,45.01L180.151,561.819z"/>
	<path id="path46" fill="#FFFFFF" d="M217.964,375.285v93.984l-56.436-45.283L217.964,375.285"/>
	<path id="path48" fill="none" stroke="#FFFFFF" stroke-width="0.76" d="M217.964,375.285v93.984l-56.436-45.283L217.964,375.285z"
		/>
	<path id="path50" fill="#FFFFFF" d="M537.056,375.285v93.984l56.426-45.283L537.056,375.285"/>
	<path id="path52" fill="none" stroke="#FFFFFF" stroke-width="0.76" d="M537.056,375.285v93.984l56.426-45.283L537.056,375.285z"/>
	<path id="path54" fill="none" stroke="#FFFFFF" stroke-width="7.6" d="M549.106,420.969h-33.926"/>
	<path id="path56" fill="none" stroke="#FFFFFF" stroke-width="7.6" d="M561.216,512.102h42.578"/>
	<path id="path58" fill="none" stroke="#FFFFFF" stroke-width="7.6" d="M195.215,512.102h-45.43"/>
	<path id="path60" fill="none" stroke="#FFFFFF" stroke-width="7.6" d="M197.114,423.85h42.734"/>
	<path id="path62" fill="#FFFFFF" d="M477.817,425.91l-0.449,170.576H280.22l-0.156-170.576H477.817"/>
	<path id="path64" fill="none" stroke="#087FBF" stroke-width="3.5" d="M477.817,425.91l-0.449,170.576H280.22l-0.156-170.576
		H477.817z"/>
	<path id="path66" fill="none" stroke="#087FBF" stroke-width="3.5" d="M301.704,474.66h154.961v-31.006H301.704V474.66z"/>
	<path id="path68" fill="none" stroke="#087FBF" stroke-width="3.5" d="M301.704,580.207h154.961v-77.754H301.704V580.207z"/>
	<path id="path70" fill="#FFFFFF" d="M419.36,365.129c0,0,9.668-0.957,11.855,8.76l2.168,31.563l65.137,10.918l6.523-14.063
		l-16.211-39.355c-83.516-20.645-112.793-14.072-112.793-14.072h3.262c0,0-29.277-6.572-112.813,14.072l-16.328,39.355l6.523,14.063
		l65.146-10.918l2.158-31.563c2.031-9.717,11.865-8.76,11.865-8.76H419.36"/>
	<path id="path72" fill="none" stroke="#087FBF" stroke-width="3.5" d="M456.665,488.391H301.704"/>
</g>
</svg>
