<?xml version="1.0" encoding="utf-8"?>
<!-- Generator: Adobe Illustrator 16.0.0, SVG Export Plug-In . SVG Version: 6.00 Build 0)  -->
<!DOCTYPE svg PUBLIC "-//W3C//DTD SVG 1.1//EN" "http://www.w3.org/Graphics/SVG/1.1/DTD/svg11.dtd">
<svg version="1.1"
	 id="svg2" xmlns:dc="http://purl.org/dc/elements/1.1/" xmlns:cc="http://creativecommons.org/ns#" xmlns:rdf="http://www.w3.org/1999/02/22-rdf-syntax-ns#" xmlns:svg="http://www.w3.org/2000/svg"
	 xmlns="http://www.w3.org/2000/svg" xmlns:xlink="http://www.w3.org/1999/xlink" x="0px" y="0px" width="78px" height="52px"
	 viewBox="0 0 78 52" enable-background="new 0 0 78 52" xml:space="preserve">
<g id="g12" transform="scale(0.1,0.1)">
	<path id="path22" fill="#087FBF" d="M15,503.364h620.239V153.145H15V503.364z"/>
	<path id="path24" fill="none" stroke="#FFFFFF" stroke-width="4" d="M15,503.364h620.239V153.145H15V503.364z"/>
	<path id="path26" fill="#087FBF" d="M635.532,505.005V154.79L763.618,15.405v348.427L635.532,505.005"/>
	<path id="path28" fill="none" stroke="#FFFFFF" stroke-width="4" d="M635.532,505.005V154.79L763.618,15.405v348.427
		L635.532,505.005z"/>
	<path id="path30" fill="#087FBF" d="M635.552,152.837H15.283L168.55,15.454L765.005,15L635.552,152.837"/>
	<path id="path32" fill="none" stroke="#FFFFFF" stroke-width="4" d="M635.552,152.837H15.283L168.55,15.454L765.005,15
		L635.552,152.837z"/>
	<path id="path34" fill="#FFFFFF" d="M145.347,282.544L34.36,282.602v-20.752l110.986-0.049l0.024-32.246l64.155,42.578
		l-64.155,42.715L145.347,282.544"/>
	<path id="path36" fill="#FFFFFF" d="M548.95,227.827l-94.336,0.029v-17.578l94.336-0.039l0.02-27.441l54.727,36.25l-54.727,36.25
		L548.95,227.827"/>
	<path id="path38" fill="#FFFFFF" d="M548.95,337.524l-94.336,0.039v-17.578l94.336-0.039l0.02-27.578l54.727,36.387l-54.727,36.367
		L548.95,337.524"/>
	<path id="path40" fill="#FFFFFF" d="M548.95,447.212l-94.336,0.059v-17.578l94.336-0.039l0.02-27.305l54.727,36.094l-54.727,36.387
		L548.95,447.212"/>
	<path id="path42" fill="#FFFFFF" d="M225.156,347.895h157.505V214.771H225.156V347.895z"/>
	<path id="path44" fill="#FFFFFF" d="M396.411,292.173h31.543v-59.961h-31.543V292.173z"/>
	<path id="path46" fill="none" stroke="#231F20" stroke-width="2.178" d="M396.411,292.173h31.543v-59.961h-31.543V292.173z"/>
	<path id="path48" fill="none" stroke="#FFFFFF" stroke-width="9.68" stroke-linecap="round" d="M245.649,433.344l58.262-151.992
		l60.186,152.519"/>
	<path id="path50" fill="none" stroke="#FFFFFF" stroke-width="15" stroke-linecap="round" d="M347.954,263.911H395.2"/>
</g>
</svg>
