<?xml version="1.0" encoding="utf-8"?>
<!-- Generator: Adobe Illustrator 16.0.0, SVG Export Plug-In . SVG Version: 6.00 Build 0)  -->
<!DOCTYPE svg PUBLIC "-//W3C//DTD SVG 1.1//EN" "http://www.w3.org/Graphics/SVG/1.1/DTD/svg11.dtd">
<svg version="1.1"
	 id="svg2" xmlns:dc="http://purl.org/dc/elements/1.1/" xmlns:cc="http://creativecommons.org/ns#" xmlns:rdf="http://www.w3.org/1999/02/22-rdf-syntax-ns#" xmlns:svg="http://www.w3.org/2000/svg"
	 xmlns="http://www.w3.org/2000/svg" xmlns:xlink="http://www.w3.org/1999/xlink" x="0px" y="0px" width="76px" height="50px"
	 viewBox="0 0 76 50" enable-background="new 0 0 76 50" xml:space="preserve">
<g id="g12" transform="scale(0.1,0.1)">
	<path id="path22" fill="#087FBF" d="M0.342,500h627.729V143.633H0.342V500z"/>
	<path id="path24" fill="none" stroke="#FFFFFF" stroke-width="4" d="M0.342,500h627.729V143.633H0.342V500z"/>
	<path id="path26" fill="#087FBF" d="M630.317,500V143.633L760.005,0v356.347L630.317,500"/>
	<path id="path28" fill="none" stroke="#FFFFFF" stroke-width="4" d="M630.317,500V143.633L760.005,0v356.347L630.317,500z"/>
	<path id="path30" fill="#087FBF" d="M628.032,143.652H0L155.229,3.994l603.936-0.469L628.032,143.652"/>
	<path id="path32" fill="none" stroke="#FFFFFF" stroke-width="4" d="M628.032,143.652H0L155.229,3.994l603.936-0.469
		L628.032,143.652z"/>
	<path id="path34" fill="#FFFFFF" d="M132.368,275.303l-112.427,0.049v-20.957l112.427-0.205l0.015-32.803l64.985,43.457
		l-64.985,43.31L132.368,275.303"/>
	<path id="path36" fill="#FFFFFF" d="M536.489,402.011l-112.559,0.352v-21.26l112.559-0.049l0.039-32.832l64.824,43.33
		l-64.824,43.613L536.489,402.011"/>
	<path id="path38" fill="#FFFFFF" d="M210.825,337.314h94.922V181.943h-94.922V337.314z"/>
	<path id="path40" fill="none" stroke="#231F20" stroke-width="4" d="M210.825,337.314h94.922V181.943h-94.922V337.314z"/>
	<path id="path42" fill="#FFFFFF" d="M264.907,401.162h94.785V245.635h-94.785V401.162z"/>
	<path id="path44" fill="none" stroke="#231F20" stroke-width="4" d="M264.907,401.162h94.785V245.635h-94.785V401.162z"/>
	<path id="path46" fill="#FFFFFF" d="M318.853,465.01h95.078V309.492h-95.078V465.01z"/>
	<path id="path48" fill="none" stroke="#231F20" stroke-width="4" d="M318.853,465.01h95.078V309.492h-95.078V465.01z"/>
</g>
</svg>
