<?xml version="1.0" encoding="utf-8"?>
<!-- Generator: Adobe Illustrator 16.0.0, SVG Export Plug-In . SVG Version: 6.00 Build 0)  -->
<!DOCTYPE svg PUBLIC "-//W3C//DTD SVG 1.1//EN" "http://www.w3.org/Graphics/SVG/1.1/DTD/svg11.dtd">
<svg version="1.1"
	 id="svg2" xmlns:dc="http://purl.org/dc/elements/1.1/" xmlns:cc="http://creativecommons.org/ns#" xmlns:rdf="http://www.w3.org/1999/02/22-rdf-syntax-ns#" xmlns:svg="http://www.w3.org/2000/svg"
	 xmlns="http://www.w3.org/2000/svg" xmlns:xlink="http://www.w3.org/1999/xlink" x="0px" y="0px" width="78px" height="60px"
	 viewBox="0 0 78 60" enable-background="new 0 0 78 60" xml:space="preserve">
<g id="g12" transform="scale(0.1,0.1)">
	<path id="path14" fill="#087FBF" d="M11.479,384.184h568.447V199.883H11.479V384.184z"/>
	<path id="path16" fill="none" stroke="#FFFFFF" stroke-width="4" d="M11.479,384.184h568.447V199.883H11.479V384.184z"/>
	<path id="path18" fill="#087FBF" d="M10,200.771L239.619,15.005h530.386L579.36,200.771H10"/>
	<path id="path20" fill="none" stroke="#FFFFFF" stroke-width="4" d="M10,200.771L239.619,15.005h530.386L579.36,200.771H10z"/>
	<path id="path22" fill="#087FBF" d="M579.517,389.878l189.922-193.374l0.098-181.182l-190.02,185.234V389.878"/>
	<path id="path24" fill="none" stroke="#FFFFFF" stroke-width="4" d="M579.517,389.878l189.922-193.374l0.098-181.182
		l-190.02,185.234V389.878z"/>
	<path id="path26" fill="#78B5DD" d="M11.479,579.184h568.447V379.966H11.479V579.184z"/>
	<path id="path28" fill="none" stroke="#FFFFFF" stroke-width="4" d="M11.479,579.184h568.447V379.966H11.479V579.184z"/>
	<path id="path30" fill="#78B5DD" d="M579.517,585.005l189.922-193.457l0.098-196.157L579.517,380.63V585.005"/>
	<path id="path32" fill="none" stroke="#FFFFFF" stroke-width="4" d="M579.517,585.005l189.922-193.457l0.098-196.157
		L579.517,380.63V585.005z"/>
	<path id="path34" fill="#FFFFFF" d="M419.087,93.818l35,8.77l96.367-26.421l35.02,8.823l-17.422-26.484H454.087l52.578,8.828
		L419.087,93.818"/>
	<path id="path36" fill="#FFFFFF" d="M217.7,67.334l34.985-8.828l96.392,26.484l35-8.823l-17.5,26.421H252.686l52.603-8.77
		L217.7,67.334"/>
	<path id="path38" fill="#FFFFFF" d="M576.841,155.513l-35.156,8.833l-87.598-26.436l-43.809,8.77l17.598-26.436h113.809
		l-43.809,8.848L576.841,155.513"/>
	<path id="path40" fill="#FFFFFF" d="M375.298,129.092l-35-8.848l-87.612,26.436l-43.779-8.77l17.5,26.758l113.892,1.118
		l-52.588-10.273L375.298,129.092"/>
	<path id="path42" fill="#FFFFFF" d="M297.236,358.481c38.325,0,69.438-9.472,69.438-20.986c0-11.65-31.113-21.104-69.438-21.104
		c-38.34,0-69.453,9.453-69.453,21.104C227.783,349.009,258.896,358.481,297.236,358.481"/>
	<path id="path44" fill="none" stroke="#231F20" stroke-width="3" stroke-linecap="round" stroke-linejoin="round" d="
		M297.236,358.481c38.325,0,69.438-9.472,69.438-20.986c0-11.65-31.113-21.104-69.438-21.104c-38.34,0-69.453,9.453-69.453,21.104
		C227.783,349.009,258.896,358.481,297.236,358.481z"/>
	<path id="path46" fill="#FFFFFF" d="M366.675,240.21c0,11.592-31.113,20.967-69.438,20.967c-38.34,0-69.453-9.375-69.453-20.967
		v86.963c0,11.543,31.113,20.957,69.453,20.957c38.325,0,69.438-9.414,69.438-20.957V240.21"/>
	<path id="path48" fill="none" stroke="#231F20" stroke-width="3" stroke-linecap="round" stroke-linejoin="round" d="
		M366.675,240.21c0,11.592-31.113,20.967-69.438,20.967c-38.34,0-69.453-9.375-69.453-20.967v86.963
		c0,11.543,31.113,20.957,69.453,20.957c38.325,0,69.438-9.414,69.438-20.957V240.21z"/>
	<path id="path50" fill="#FFFFFF" d="M297.163,261.177c38.33,0,69.443-9.375,69.443-20.967c0-11.655-31.113-21.021-69.443-21.021
		c-38.418,0-69.448,9.365-69.448,21.021C227.715,251.802,258.745,261.177,297.163,261.177"/>
	<path id="path52" fill="none" stroke="#231F20" stroke-width="3" stroke-linecap="round" stroke-linejoin="round" d="
		M297.163,261.177c38.33,0,69.443-9.375,69.443-20.967c0-11.655-31.113-21.021-69.443-21.021c-38.418,0-69.448,9.365-69.448,21.021
		C227.715,251.802,258.745,261.177,297.163,261.177z"/>
	<path id="path54" fill="none" stroke="#FFFFFF" stroke-width="4" stroke-linecap="round" stroke-linejoin="round" d="M11.479,383.1
		h568.447"/>
	<path id="path56" fill="#FFFFFF" d="M229.312,476.225H122.935v-9.717l-40.122,14.307l40.122,14.258v-9.688h106.377V476.225"/>
	<path id="path58" fill="#FFFFFF" d="M289.434,506.684v37.695h-27.466l40.474,14.16l40.493-14.16h-27.461v-37.695H289.434"/>
	<path id="path60" fill="#FFFFFF" d="M289.434,456.069v-37.666h-27.466l40.474-14.18l40.493,14.18h-27.461v37.666H289.434"/>
	<path id="path62" fill="#FFFFFF" d="M375.591,485.385h106.387v9.688l40.117-14.258l-40.117-14.307v9.717H375.591V485.385"/>
	<path id="path64" fill="none" stroke="#FFFFFF" stroke-width="4" d="M473.618,541.333c-19.98,7.451-111.758-13.135-204.873-45.84
		c-93.14-32.754-152.368-65.342-132.461-72.793c19.971-7.607,111.68,12.959,204.805,45.664
		C434.282,501.274,493.423,533.862,473.618,541.333z"/>
	<path id="path66" fill="none" stroke="#FFFFFF" stroke-width="4" d="M468.188,422.094c21.172,6.992-36.777,39.482-129.346,72.529
		c-92.515,32.891-184.58,53.828-205.679,46.855c-21.089-7.158,36.831-39.639,129.424-72.51
		C355.083,436.059,447.153,414.985,468.188,422.094z"/>
	<path id="path68" fill="#ACD0EA" d="M346.099,502.759c35.078-8.789,43.604-25.859,19.043-38.34
		c-24.58-12.471-73.013-15.459-108.096-6.719c-35.146,8.74-43.682,25.869-19.092,38.154
		C262.588,508.335,310.952,511.333,346.099,502.759"/>
	<path id="path70" fill="none" stroke="#FFFFFF" stroke-width="4" d="M346.099,502.759c35.078-8.789,43.604-25.859,19.043-38.34
		c-24.58-12.471-73.013-15.459-108.096-6.719c-35.146,8.74-43.682,25.869-19.092,38.154
		C262.588,508.335,310.952,511.333,346.099,502.759z"/>
</g>
</svg>
