<?xml version="1.0" encoding="utf-8"?>
<!-- Generator: Adobe Illustrator 16.0.0, SVG Export Plug-In . SVG Version: 6.00 Build 0)  -->
<!DOCTYPE svg PUBLIC "-//W3C//DTD SVG 1.1//EN" "http://www.w3.org/Graphics/SVG/1.1/DTD/svg11.dtd">
<svg version="1.1"
	 id="svg2" xmlns:dc="http://purl.org/dc/elements/1.1/" xmlns:cc="http://creativecommons.org/ns#" xmlns:rdf="http://www.w3.org/1999/02/22-rdf-syntax-ns#" xmlns:svg="http://www.w3.org/2000/svg"
	 xmlns="http://www.w3.org/2000/svg" xmlns:xlink="http://www.w3.org/1999/xlink" x="0px" y="0px" width="76px" height="78px"
	 viewBox="0 0 76 78" enable-background="new 0 0 76 78" xml:space="preserve">
<g id="g12" transform="scale(0.1,0.1)">
	<path id="path22" fill="#087FBF" d="M10.73,764.995h614.165V139.536H10.73V764.995z"/>
	<path id="path24" fill="none" stroke="#FFFFFF" stroke-width="4" d="M10.73,764.995h614.165V139.536H10.73V764.995z"/>
	<path id="path26" fill="#FFFFFF" d="M108.113,351.987l91.821-91.914l-99.463-11.094L108.113,351.987"/>
	<path id="path28" fill="#FFFFFF" d="M508.069,564.936l-91.631,91.719l99.463,11.504L508.069,564.936"/>
	<path id="path30" fill="#087FBF" d="M749.26,15L624.895,139.434H10.002L142.795,15H749.26"/>
	<path id="path32" fill="none" stroke="#FFFFFF" stroke-width="4" d="M749.26,15L624.895,139.434H10.002L142.795,15H749.26z"/>
	<path id="path34" fill="#087FBF" d="M750.002,614.214V15.391L624.895,139.907V762.69L750.002,614.214"/>
	<path id="path36" fill="none" stroke="#FFFFFF" stroke-width="4" d="M750.002,614.214V15.391L624.895,139.907V762.69
		L750.002,614.214z"/>
	<path id="path38" fill="none" stroke="#FFFFFF" stroke-width="14.25" stroke-miterlimit="3.86" stroke-dasharray="32.001,12.8" d="
		M149.031,297.632l322.368,322.5"/>
</g>
</svg>
