<svg version="1.1" id="ilhwsa8q1" xmlns:xml="http://www.w3.org/XML/1998/namespace"
	 xmlns="http://www.w3.org/2000/svg" xmlns:xlink="http://www.w3.org/1999/xlink" x="0px" y="0px" width="67px" height="80px"
	 viewBox="0 0 67 80" enable-background="new 0 0 67 80" xml:space="preserve">
<g>
	<rect x="1.92" y="68.482" fill="#85963A" width="63.354" height="10.879"/>
	<path fill="#21354A" d="M65.528,68.158c0,0.194-0.13,0.324-0.448,0.324H1.92c-0.19,0-0.447-0.13-0.447-0.324l0,0
		c0-0.19,0.127-0.32,0.447-0.32h63.289C65.398,67.838,65.528,67.968,65.528,68.158L65.528,68.158z"/>
	<polygon fill="#425972" points="17.919,79.361 9.6,79.361 9.6,50.305 17.919,48.767 	"/>
	<g>
		<path fill="#646277" d="M33.543,3.392L33.543,3.392c-0.066,0-0.197-0.064-0.197-0.192V0.192C33.346,0.065,33.412,0,33.543,0l0,0
			c0.066,0,0.193,0.065,0.193,0.192v3.073C33.67,3.265,33.609,3.392,33.543,3.392z"/>
		<path fill="#646277" d="M32.388,4.481L32.388,4.481c-0.064,0-0.189-0.065-0.189-0.192V1.281c0-0.065,0.064-0.192,0.189-0.192l0,0
			c0.13-0.065,0.255,0,0.255,0.192v3.07C32.582,4.351,32.518,4.481,32.388,4.481z"/>
		<path fill="#646277" d="M34.628,4.481L34.628,4.481c-0.064,0-0.194-0.065-0.194-0.192V1.281c0-0.065,0.064-0.192,0.194-0.192l0,0
			c0.065,0,0.189,0.063,0.189,0.192v3.07C34.883,4.351,34.753,4.481,34.628,4.481z"/>
		<g>
			<path fill="#646277" d="M33.796,16.128h-0.45V3.455c0-0.127,0.065-0.189,0.195-0.189l0,0c0.13,0,0.189,0.063,0.189,0.189v12.674
				H33.796z"/>
			<path fill="#646277" d="M34.753,3.265L34.753,3.265c0,0.063-0.06,0.127-0.125,0.127h-1.985c-0.061,0-0.125-0.064-0.125-0.127l0,0
				c0-0.065,0.064-0.13,0.125-0.13h1.985C34.694,3.135,34.753,3.2,34.753,3.265z"/>
		</g>
	</g>
	<rect x="17.342" y="14.848" fill="#CEEBF1" width="32.572" height="64.703"/>
	<path fill="#40586F" d="M50.617,14.848c0,0.32-0.189,0.512-0.509,0.512H17.023c-0.32,0-0.512-0.192-0.512-0.512l0,0
		c0-0.319,0.192-0.512,0.512-0.512h33.086C50.428,14.144,50.617,14.528,50.617,14.848L50.617,14.848z"/>
	<g>
		<rect x="19.519" y="17.983" fill="#1D2538" width="2.623" height="1.408"/>
		<rect x="23.23" y="17.983" fill="#1D2538" width="2.624" height="1.408"/>
		<rect x="26.749" y="17.983" fill="#1D2538" width="2.624" height="1.408"/>
		<rect x="30.398" y="17.983" fill="#1D2538" width="2.623" height="1.408"/>
		<rect x="34.11" y="17.983" fill="#1D2538" width="2.621" height="1.408"/>
		<rect x="19.519" y="20.479" fill="#1D2538" width="2.623" height="1.408"/>
		<rect x="23.23" y="20.479" fill="#1D2538" width="2.624" height="1.408"/>
		<rect x="26.749" y="20.479" fill="#1D2538" width="2.624" height="1.408"/>
		<rect x="30.398" y="20.479" fill="#1D2538" width="2.623" height="1.408"/>
		<rect x="34.11" y="20.479" fill="#1D2538" width="2.621" height="1.408"/>
		<rect x="19.519" y="23.041" fill="#1D2538" width="2.623" height="1.408"/>
		<rect x="23.23" y="23.041" fill="#1D2538" width="2.624" height="1.408"/>
		<rect x="26.749" y="23.041" fill="#1D2538" width="2.624" height="1.408"/>
		<rect x="30.398" y="23.041" fill="#1D2538" width="2.623" height="1.408"/>
		<rect x="34.11" y="23.041" fill="#1D2538" width="2.621" height="1.408"/>
		<rect x="19.519" y="25.664" fill="#1D2538" width="2.623" height="1.408"/>
		<rect x="23.23" y="25.664" fill="#1D2538" width="2.624" height="1.408"/>
		<rect x="26.749" y="25.664" fill="#1D2538" width="2.624" height="1.408"/>
		<rect x="30.398" y="25.664" fill="#1D2538" width="2.623" height="1.408"/>
		<rect x="34.11" y="25.664" fill="#1D2538" width="2.621" height="1.408"/>
		<rect x="19.519" y="28.288" fill="#1D2538" width="2.623" height="1.408"/>
		<rect x="23.23" y="28.288" fill="#1D2538" width="2.624" height="1.408"/>
		<rect x="26.749" y="28.288" fill="#1D2538" width="2.624" height="1.408"/>
		<rect x="30.398" y="28.288" fill="#1D2538" width="2.623" height="1.408"/>
		<rect x="34.11" y="28.288" fill="#1D2538" width="2.621" height="1.408"/>
		<rect x="37.883" y="17.983" fill="#1D2538" width="2.626" height="1.408"/>
		<rect x="41.598" y="17.983" fill="#1D2538" width="2.619" height="1.408"/>
		<rect x="44.987" y="17.983" fill="#1D2538" width="2.626" height="1.408"/>
		<rect x="37.883" y="20.479" fill="#1D2538" width="2.626" height="1.408"/>
		<rect x="41.598" y="20.479" fill="#1D2538" width="2.619" height="1.408"/>
		<rect x="44.987" y="20.479" fill="#1D2538" width="2.626" height="1.408"/>
		<rect x="37.883" y="23.041" fill="#1D2538" width="2.626" height="1.408"/>
		<rect x="41.598" y="23.041" fill="#1D2538" width="2.619" height="1.408"/>
		<rect x="44.987" y="23.041" fill="#1D2538" width="2.626" height="1.408"/>
		<rect x="37.883" y="25.664" fill="#1D2538" width="2.626" height="1.408"/>
		<rect x="41.598" y="25.664" fill="#1D2538" width="2.619" height="1.408"/>
		<rect x="44.987" y="25.664" fill="#1D2538" width="2.626" height="1.408"/>
		<rect x="37.883" y="28.288" fill="#1D2538" width="2.626" height="1.408"/>
		<rect x="41.598" y="28.288" fill="#1D2538" width="2.619" height="1.408"/>
		<rect x="44.987" y="28.288" fill="#1D2538" width="2.626" height="1.408"/>
		<rect x="19.519" y="30.784" fill="#1D2538" width="2.623" height="1.408"/>
		<rect x="23.23" y="30.784" fill="#1D2538" width="2.624" height="1.408"/>
		<rect x="26.749" y="30.784" fill="#1D2538" width="2.624" height="1.408"/>
		<rect x="30.398" y="30.784" fill="#1D2538" width="2.623" height="1.408"/>
		<rect x="34.11" y="30.784" fill="#1D2538" width="2.621" height="1.408"/>
		<rect x="19.519" y="33.28" fill="#1D2538" width="2.623" height="1.408"/>
		<rect x="23.23" y="33.28" fill="#1D2538" width="2.624" height="1.408"/>
		<rect x="26.749" y="33.28" fill="#1D2538" width="2.624" height="1.408"/>
		<rect x="30.398" y="33.28" fill="#1D2538" width="2.623" height="1.408"/>
		<rect x="34.11" y="33.28" fill="#1D2538" width="2.621" height="1.408"/>
		<rect x="19.519" y="35.904" fill="#1D2538" width="2.623" height="1.408"/>
		<rect x="23.23" y="35.904" fill="#1D2538" width="2.624" height="1.408"/>
		<rect x="26.749" y="35.904" fill="#1D2538" width="2.624" height="1.408"/>
		<rect x="30.398" y="35.904" fill="#1D2538" width="2.623" height="1.408"/>
		<rect x="34.11" y="35.904" fill="#1D2538" width="2.621" height="1.408"/>
		<rect x="19.519" y="38.527" fill="#1D2538" width="2.623" height="1.408"/>
		<rect x="23.23" y="38.527" fill="#1D2538" width="2.624" height="1.408"/>
		<rect x="26.749" y="38.527" fill="#1D2538" width="2.624" height="1.408"/>
		<rect x="30.398" y="38.527" fill="#1D2538" width="2.623" height="1.408"/>
		<rect x="34.11" y="38.527" fill="#1D2538" width="2.621" height="1.408"/>
		<rect x="19.519" y="41.023" fill="#1D2538" width="2.623" height="1.408"/>
		<rect x="23.23" y="41.023" fill="#1D2538" width="2.624" height="1.408"/>
		<rect x="26.749" y="41.023" fill="#1D2538" width="2.624" height="1.408"/>
		<rect x="30.398" y="41.023" fill="#1D2538" width="2.623" height="1.408"/>
		<rect x="34.11" y="41.023" fill="#1D2538" width="2.621" height="1.408"/>
		<rect x="37.883" y="30.784" fill="#1D2538" width="2.626" height="1.408"/>
		<rect x="41.598" y="30.784" fill="#1D2538" width="2.619" height="1.408"/>
		<rect x="44.987" y="30.784" fill="#1D2538" width="2.626" height="1.408"/>
		<rect x="37.883" y="33.28" fill="#1D2538" width="2.626" height="1.408"/>
		<rect x="41.598" y="33.28" fill="#1D2538" width="2.619" height="1.408"/>
		<rect x="44.987" y="33.28" fill="#1D2538" width="2.626" height="1.408"/>
		<rect x="37.883" y="35.904" fill="#1D2538" width="2.626" height="1.408"/>
		<rect x="41.598" y="35.904" fill="#1D2538" width="2.619" height="1.408"/>
		<rect x="44.987" y="35.904" fill="#1D2538" width="2.626" height="1.408"/>
		<rect x="37.883" y="38.527" fill="#1D2538" width="2.626" height="1.408"/>
		<rect x="41.598" y="38.527" fill="#1D2538" width="2.619" height="1.408"/>
		<rect x="44.987" y="38.527" fill="#1D2538" width="2.626" height="1.408"/>
		<rect x="37.883" y="41.023" fill="#1D2538" width="2.626" height="1.408"/>
		<rect x="41.598" y="41.023" fill="#1D2538" width="2.619" height="1.408"/>
		<rect x="44.987" y="41.023" fill="#1D2538" width="2.626" height="1.408"/>
		<rect x="19.519" y="43.33" fill="#1D2538" width="2.623" height="1.408"/>
		<rect x="23.23" y="43.33" fill="#1D2538" width="2.624" height="1.408"/>
		<rect x="26.749" y="43.33" fill="#1D2538" width="2.624" height="1.408"/>
		<rect x="30.398" y="43.33" fill="#1D2538" width="2.623" height="1.408"/>
		<rect x="34.11" y="43.33" fill="#1D2538" width="2.621" height="1.408"/>
		<rect x="19.519" y="45.951" fill="#1D2538" width="2.623" height="1.408"/>
		<rect x="23.23" y="45.951" fill="#1D2538" width="2.624" height="1.408"/>
		<rect x="26.749" y="45.951" fill="#1D2538" width="2.624" height="1.408"/>
		<rect x="30.398" y="45.951" fill="#1D2538" width="2.623" height="1.408"/>
		<rect x="34.11" y="45.951" fill="#1D2538" width="2.621" height="1.408"/>
		<rect x="19.519" y="48.447" fill="#1D2538" width="2.623" height="1.408"/>
		<rect x="23.23" y="48.447" fill="#1D2538" width="2.624" height="1.408"/>
		<rect x="26.749" y="48.447" fill="#1D2538" width="2.624" height="1.408"/>
		<rect x="30.398" y="48.447" fill="#1D2538" width="2.623" height="1.408"/>
		<rect x="34.11" y="48.447" fill="#1D2538" width="2.621" height="1.408"/>
		<rect x="19.519" y="51.009" fill="#1D2538" width="2.623" height="1.408"/>
		<rect x="23.23" y="51.009" fill="#1D2538" width="2.624" height="1.408"/>
		<rect x="26.749" y="51.009" fill="#1D2538" width="2.624" height="1.408"/>
		<rect x="30.398" y="51.009" fill="#1D2538" width="2.623" height="1.408"/>
		<rect x="34.11" y="51.009" fill="#1D2538" width="2.621" height="1.408"/>
		<rect x="19.519" y="53.569" fill="#1D2538" width="2.623" height="1.408"/>
		<rect x="23.23" y="53.569" fill="#1D2538" width="2.624" height="1.408"/>
		<rect x="26.749" y="53.569" fill="#1D2538" width="2.624" height="1.408"/>
		<rect x="30.398" y="53.569" fill="#1D2538" width="2.623" height="1.408"/>
		<rect x="34.11" y="53.569" fill="#1D2538" width="2.621" height="1.408"/>
		<rect x="37.883" y="43.33" fill="#1D2538" width="2.626" height="1.408"/>
		<rect x="41.598" y="43.33" fill="#1D2538" width="2.619" height="1.408"/>
		<rect x="44.987" y="43.33" fill="#1D2538" width="2.626" height="1.408"/>
		<rect x="37.883" y="45.951" fill="#1D2538" width="2.626" height="1.408"/>
		<rect x="41.598" y="45.951" fill="#1D2538" width="2.619" height="1.408"/>
		<rect x="44.987" y="45.951" fill="#1D2538" width="2.626" height="1.408"/>
		<rect x="37.883" y="48.447" fill="#1D2538" width="2.626" height="1.408"/>
		<rect x="41.598" y="48.447" fill="#1D2538" width="2.619" height="1.408"/>
		<rect x="44.987" y="48.447" fill="#1D2538" width="2.626" height="1.408"/>
		<rect x="37.883" y="51.009" fill="#1D2538" width="2.626" height="1.408"/>
		<rect x="41.598" y="51.009" fill="#1D2538" width="2.619" height="1.408"/>
		<rect x="44.987" y="51.009" fill="#1D2538" width="2.626" height="1.408"/>
		<rect x="37.883" y="53.569" fill="#1D2538" width="2.626" height="1.408"/>
		<rect x="41.598" y="53.569" fill="#1D2538" width="2.619" height="1.408"/>
		<rect x="44.987" y="53.569" fill="#1D2538" width="2.626" height="1.408"/>
		<rect x="19.519" y="56.126" fill="#1D2538" width="2.623" height="1.408"/>
		<rect x="23.23" y="56.126" fill="#1D2538" width="2.624" height="1.408"/>
		<rect x="26.749" y="56.126" fill="#1D2538" width="2.624" height="1.408"/>
		<rect x="30.398" y="56.126" fill="#1D2538" width="2.623" height="1.408"/>
		<rect x="34.11" y="56.126" fill="#1D2538" width="2.621" height="1.408"/>
		<rect x="19.519" y="58.752" fill="#1D2538" width="2.623" height="1.408"/>
		<rect x="23.23" y="58.752" fill="#1D2538" width="2.624" height="1.408"/>
		<rect x="26.749" y="58.752" fill="#1D2538" width="2.624" height="1.408"/>
		<rect x="30.398" y="58.752" fill="#1D2538" width="2.623" height="1.408"/>
		<rect x="34.11" y="58.752" fill="#1D2538" width="2.621" height="1.408"/>
		<rect x="19.519" y="61.378" fill="#1D2538" width="2.623" height="1.407"/>
		<rect x="23.23" y="61.378" fill="#1D2538" width="2.624" height="1.407"/>
		<rect x="26.749" y="61.378" fill="#1D2538" width="2.624" height="1.407"/>
		<rect x="30.398" y="61.378" fill="#1D2538" width="2.623" height="1.407"/>
		<rect x="34.11" y="61.378" fill="#1D2538" width="2.621" height="1.407"/>
		<rect x="19.519" y="63.874" fill="#1D2538" width="2.623" height="1.408"/>
		<rect x="23.23" y="63.874" fill="#1D2538" width="2.624" height="1.408"/>
		<rect x="26.749" y="63.874" fill="#1D2538" width="2.624" height="1.408"/>
		<rect x="30.398" y="63.874" fill="#1D2538" width="2.623" height="1.408"/>
		<rect x="34.11" y="63.874" fill="#1D2538" width="2.621" height="1.408"/>
		<rect x="19.519" y="66.495" fill="#1D2538" width="2.623" height="1.408"/>
		<rect x="23.23" y="66.495" fill="#1D2538" width="2.624" height="1.408"/>
		<rect x="26.749" y="66.495" fill="#1D2538" width="2.624" height="1.408"/>
		<rect x="30.398" y="66.495" fill="#1D2538" width="2.623" height="1.408"/>
		<rect x="34.11" y="66.495" fill="#1D2538" width="2.621" height="1.408"/>
		<rect x="37.883" y="56.126" fill="#1D2538" width="2.626" height="1.408"/>
		<rect x="41.598" y="56.126" fill="#1D2538" width="2.619" height="1.408"/>
		<rect x="44.987" y="56.126" fill="#1D2538" width="2.626" height="1.408"/>
		<rect x="37.883" y="58.752" fill="#1D2538" width="2.626" height="1.408"/>
		<rect x="41.598" y="58.752" fill="#1D2538" width="2.619" height="1.408"/>
		<rect x="44.987" y="58.752" fill="#1D2538" width="2.626" height="1.408"/>
		<rect x="37.883" y="61.378" fill="#1D2538" width="2.626" height="1.407"/>
		<rect x="41.598" y="61.378" fill="#1D2538" width="2.619" height="1.407"/>
		<rect x="44.987" y="61.378" fill="#1D2538" width="2.626" height="1.407"/>
		<rect x="37.883" y="63.874" fill="#1D2538" width="2.626" height="1.408"/>
		<rect x="41.598" y="63.874" fill="#1D2538" width="2.619" height="1.408"/>
		<rect x="44.987" y="63.874" fill="#1D2538" width="2.626" height="1.408"/>
		<rect x="37.883" y="66.495" fill="#1D2538" width="2.626" height="1.408"/>
		<rect x="41.598" y="66.495" fill="#1D2538" width="2.619" height="1.408"/>
		<rect x="44.987" y="66.495" fill="#1D2538" width="2.626" height="1.408"/>
	</g>
	<rect x="28.414" y="72.191" fill="#425972" width="9.918" height="7.809"/>
	<g>
		<rect x="10.88" y="55.682" fill="#C0E7F5" width="2.559" height="21.757"/>
		<rect x="14.08" y="55.682" fill="#C0E7F5" width="1.919" height="21.757"/>
	</g>
	<polygon fill="#425972" points="49.914,79.361 57.592,79.361 57.592,50.305 49.914,48.767 	"/>
	<g>
		<rect x="53.752" y="55.682" fill="#C0E7F5" width="2.562" height="21.757"/>
		<rect x="51.197" y="55.682" fill="#C0E7F5" width="1.917" height="21.757"/>
	</g>
	<g>
		<rect x="61.69" y="71.104" fill="#CEEBF1" width="2.366" height="5.566"/>
		<rect x="58.554" y="71.104" fill="#CEEBF1" width="2.367" height="5.566"/>
	</g>
	<path fill="#21354A" d="M66.551,80H0.45C0.13,80,0,79.87,0,79.681l0,0c0-0.319,0.192-0.319,0.45-0.319h66.101
		c0.319,0,0.449,0.125,0.449,0.319l0,0C67,79.87,66.806,80,66.551,80z"/>
	<g>
		<rect x="6.016" y="71.104" fill="#CEEBF1" width="2.368" height="5.566"/>
		<rect x="2.881" y="71.104" fill="#CEEBF1" width="2.369" height="5.566"/>
	</g>
</g>
</svg>
