<?xml version="1.0" encoding="utf-8"?>
<!-- Generator: Adobe Illustrator 16.0.0, SVG Export Plug-In . SVG Version: 6.00 Build 0)  -->
<!DOCTYPE svg PUBLIC "-//W3C//DTD SVG 1.1//EN" "http://www.w3.org/Graphics/SVG/1.1/DTD/svg11.dtd">
<svg version="1.1"
	 id="svg2" xmlns:dc="http://purl.org/dc/elements/1.1/" xmlns:cc="http://creativecommons.org/ns#" xmlns:rdf="http://www.w3.org/1999/02/22-rdf-syntax-ns#" xmlns:svg="http://www.w3.org/2000/svg"
	 xmlns="http://www.w3.org/2000/svg" xmlns:xlink="http://www.w3.org/1999/xlink" x="0px" y="0px" width="76px" height="52px"
	 viewBox="0 0 76 52" enable-background="new 0 0 76 52" xml:space="preserve">
<g id="g12" transform="scale(0.1,0.1)">
	<path id="path14" fill="#1286BE" d="M236.699,283.869C97.891,262.102,0,209.192,0,147.405v216.074
		c0,60.928,100.166,113.398,236.509,135.723L236.699,283.869"/>
	<path id="path16" fill="none" stroke="#FFFFFF" stroke-width="4" d="M236.699,283.869C97.891,262.102,0,209.192,0,147.405v216.074
		c0,60.928,100.166,113.398,236.509,135.723L236.699,283.869z"/>
	<path id="path18" fill="#54A2CE" d="M236.509,499.201c45.518,7.441,91.074,11.689,143.496,11.689
		c209.932,0,379.99-66.035,379.99-147.412V147.405c0,81.445-170.059,147.412-379.99,147.412c-50.771,0-99.111-3.789-143.306-10.947
		L236.509,499.201"/>
	<path id="path20" fill="none" stroke="#FFFFFF" stroke-width="4" d="M236.509,499.201c45.518,7.441,91.074,11.689,143.496,11.689
		c209.932,0,379.99-66.035,379.99-147.412V147.405c0,81.445-170.059,147.412-379.99,147.412c-50.771,0-99.111-3.789-143.306-10.947
		L236.509,499.201z"/>
	<path id="path22" fill="#1286BE" d="M527.827,11.55C482.437,4.104,432.554,0.002,380.005,0.002C170.205,0.002,0,65.969,0,147.405
		c0,60.635,94.209,112.607,228.882,135.39L527.827,11.55"/>
	<path id="path24" fill="none" stroke="#FFFFFF" stroke-width="4" d="M527.827,11.55C482.437,4.104,432.554,0.002,380.005,0.002
		C170.205,0.002,0,65.969,0,147.405c0,60.635,94.209,112.607,228.882,135.39L527.827,11.55z"/>
	<path id="path26" fill="#54A2CE" d="M228.882,282.795c46.348,7.646,97.363,12.021,151.123,12.021
		c209.932,0,379.99-65.967,379.99-147.412c0-61.089-95.723-113.398-232.168-135.854L228.882,282.795"/>
	<path id="path28" fill="none" stroke="#FFFFFF" stroke-width="4" d="M228.882,282.795c46.348,7.646,97.363,12.021,151.123,12.021
		c209.932,0,379.99-65.967,379.99-147.412c0-61.089-95.723-113.398-232.168-135.854L228.882,282.795z"/>
	<path id="path30" fill="#FFFFFF" d="M288.081,92.009l31.406,46.958l-118.677,27.363l25.947-21.509L43.413,113.63l46.001-34.424
		l176.968,29.824L288.081,92.009"/>
	<path id="path32" fill="#FFFFFF" d="M455.015,205.92l-21.465-48.452l106.973-21.24l-18.555,16.499l178.555,30.498l-42.891,34.121
		l-177.324-33.252L455.015,205.92"/>
	<path id="path34" fill="#FFFFFF" d="M396.44,66.37l120.02-32.676l1.445,51.191l-30.137-5.64l-58.555,48.442l-55.615-8.125
		l60.42-47.373L396.44,66.37"/>
	<path id="path36" fill="#FFFFFF" d="M345.142,250.032l-114.048,21.24l-4.351-52.471l32.9,7.07l62.773-53.574l55.635,9.463
		l-67.1,58.281L345.142,250.032"/>
	<g id="g38" transform="scale(10,10)" style="font-variant:normal;font-weight:bold;font-size:16.4833px;font-family:Helvetica;-inkscape-font-specification:Helvetica-Bold;writing-mode:lr-tb;fill:#ffffff;fill-opacity:1;fill-rule:nonzero;stroke:none">
		<text transform="matrix(1.0023 0 0 1 25.1831 45.7951)">I</text>
		<text transform="matrix(1.0023 0 0 1 29.7779 45.7951)">T</text>
		<text transform="matrix(1.0023 0 0 1 39.8745 45.7951)">P</text>
	</g>
</g>
</svg>
