<?xml version="1.0" encoding="utf-8"?>
<!-- Generator: Adobe Illustrator 16.0.0, SVG Export Plug-In . SVG Version: 6.00 Build 0)  -->
<!DOCTYPE svg PUBLIC "-//W3C//DTD SVG 1.1//EN" "http://www.w3.org/Graphics/SVG/1.1/DTD/svg11.dtd">
<svg version="1.1"
	 id="svg2" xmlns:dc="http://purl.org/dc/elements/1.1/" xmlns:cc="http://creativecommons.org/ns#" xmlns:rdf="http://www.w3.org/1999/02/22-rdf-syntax-ns#" xmlns:svg="http://www.w3.org/2000/svg"
	 xmlns="http://www.w3.org/2000/svg" xmlns:xlink="http://www.w3.org/1999/xlink" x="0px" y="0px" width="36px" height="75px"
	 viewBox="0 0 36 75" enable-background="new 0 0 36 75" xml:space="preserve">
<g id="g12" transform="scale(0.1,0.1)">
	<path id="path22" fill="#087FBF" d="M0,750.005h233.784V125.249H0V750.005z"/>
	<path id="path24" fill="#087FBF" d="M233.784,750.005l126.211-125.254V0h-234.17L0,125.244h233.784V750.005"/>
	<path id="path26" fill="#087FBF" d="M233.784,125.244L359.995,0"/>
	<path id="path28" fill="#087FBF" d="M0,750.005h233.784V125.249H0V750.005z"/>
	<path id="path30" fill="none" stroke="#FFFFFF" stroke-width="4" d="M233.784,125.244H0v624.76h233.784"/>
	<path id="path32" fill="#087FBF" d="M233.784,750.005l126.211-125.254V0h-234.17L0,125.244h233.784V750.005"/>
	<path id="path34" fill="none" stroke="#FFFFFF" stroke-width="4" d="M233.784,750.005l126.211-125.254V0h-234.17L0,125.244h233.784
		V750.005z"/>
	<path id="path36" fill="#231F20" d="M233.784,125.244L359.995,0"/>
	<path id="path38" fill="none" stroke="#FFFFFF" stroke-width="4" stroke-linecap="round" stroke-linejoin="round" d="
		M233.784,125.244L359.995,0"/>
	<path id="path40" fill="none" stroke="#FFFFFF" stroke-width="4" d="M233.784,125.244H0v624.76h233.784"/>
	<path id="path42" fill="none" stroke="#FFFFFF" stroke-width="4" d="M233.784,750.005l126.211-125.254V0h-234.17L0,125.244h233.784
		V750.005z"/>
	<path id="path44" fill="none" stroke="#FFFFFF" stroke-width="4" d="M233.784,125.244L359.995,0"/>
	<path id="path46" fill="#FFFFFF" d="M193.218,599.087c0,15.41-33.262,27.91-74.668,27.91c-41.24,0-74.707-12.5-74.707-27.91
		c0-15.469,33.467-27.949,74.707-27.949C159.956,571.137,193.218,583.618,193.218,599.087"/>
	<path id="path48" fill="none" stroke="#231F20" stroke-width="3.5" stroke-linecap="round" stroke-linejoin="round" d="
		M193.218,599.087c0,15.41-33.262,27.91-74.668,27.91c-41.24,0-74.707-12.5-74.707-27.91c0-15.469,33.467-27.949,74.707-27.949
		C159.956,571.137,193.218,583.618,193.218,599.087z"/>
	<path id="path50" fill="#231F20" d="M140.61,597.583c0,4.512-9.99,8.242-22.432,8.242c-12.266,0-22.231-3.73-22.231-8.242
		c0-4.902,9.966-8.594,22.231-8.594C130.62,588.989,140.61,592.68,140.61,597.583"/>
	<path id="path52" fill="#231F20" d="M140.61,582.251c0,4.512-9.99,8.203-22.432,8.203c-12.266,0-22.231-3.691-22.231-8.203
		c0-4.531,9.966-8.594,22.231-8.594C130.62,573.657,140.61,577.719,140.61,582.251"/>
	<path id="path54" fill="#FFFFFF" d="M193.218,568.403c0,15.43-33.262,27.93-74.668,27.93c-41.24,0-74.707-12.5-74.707-27.93
		s33.467-27.93,74.707-27.93C159.956,540.473,193.218,552.973,193.218,568.403"/>
	<path id="path56" fill="none" stroke="#231F20" stroke-width="3.5" stroke-linecap="round" stroke-linejoin="round" d="
		M193.218,568.403c0,15.43-33.262,27.93-74.668,27.93c-41.24,0-74.707-12.5-74.707-27.93s33.467-27.93,74.707-27.93
		C159.956,540.473,193.218,552.973,193.218,568.403z"/>
	<path id="path58" fill="#231F20" d="M140.61,566.919c0,4.512-9.99,8.203-22.432,8.203c-12.266,0-22.231-3.691-22.231-8.203
		c0-4.531,9.966-8.262,22.231-8.262C130.62,558.657,140.61,562.387,140.61,566.919"/>
	<path id="path60" fill="#231F20" d="M140.61,551.567c0,4.492-9.99,8.594-22.432,8.594c-12.266,0-22.231-4.102-22.231-8.594
		c0-4.512,9.966-8.242,22.231-8.242C130.62,543.325,140.61,547.055,140.61,551.567"/>
	<path id="path62" fill="#FFFFFF" d="M193.218,537.739c0,15.801-33.262,28.301-74.668,28.301c-41.24,0-74.707-12.5-74.707-28.301
		c0-15.469,33.467-27.969,74.707-27.969C159.956,509.77,193.218,522.27,193.218,537.739"/>
	<path id="path64" fill="none" stroke="#231F20" stroke-width="3.5" stroke-linecap="round" stroke-linejoin="round" d="
		M193.218,537.739c0,15.801-33.262,28.301-74.668,28.301c-41.24,0-74.707-12.5-74.707-28.301c0-15.469,33.467-27.969,74.707-27.969
		C159.956,509.77,193.218,522.27,193.218,537.739z"/>
	<path id="path66" fill="#231F20" d="M140.61,536.235c0,4.883-9.99,8.613-22.432,8.613c-12.266,0-22.231-3.73-22.231-8.613
		c0-4.512,9.966-8.242,22.231-8.242C130.62,527.993,140.61,531.723,140.61,536.235"/>
	<path id="path68" fill="#FFFFFF" d="M193.218,476.743c0,15.449-33.262,27.93-74.668,27.93c-41.24,0-74.707-12.48-74.707-27.93
		c0-15.43,33.467-27.93,74.707-27.93C159.956,448.813,193.218,461.313,193.218,476.743"/>
	<path id="path70" fill="none" stroke="#231F20" stroke-width="3.5" stroke-linecap="round" stroke-linejoin="round" d="
		M193.218,476.743c0,15.449-33.262,27.93-74.668,27.93c-41.24,0-74.707-12.48-74.707-27.93c0-15.43,33.467-27.93,74.707-27.93
		C159.956,448.813,193.218,461.313,193.218,476.743z"/>
	<path id="path72" fill="#231F20" d="M140.61,475.239c0,4.512-9.99,8.242-22.432,8.242c-12.266,0-22.231-3.73-22.231-8.242
		c0-4.863,9.966-8.594,22.231-8.594C130.62,466.645,140.61,470.376,140.61,475.239"/>
	<path id="path74" fill="#231F20" d="M140.61,459.907c0,4.512-9.99,8.242-22.432,8.242c-12.266,0-22.231-3.73-22.231-8.242
		s9.966-8.594,22.231-8.594C130.62,451.313,140.61,455.395,140.61,459.907"/>
	<path id="path76" fill="#FFFFFF" d="M193.218,446.079c0,15.41-33.262,27.91-74.668,27.91c-41.24,0-74.707-12.5-74.707-27.91
		c0-15.449,33.467-27.949,74.707-27.949C159.956,418.13,193.218,430.63,193.218,446.079"/>
	<path id="path78" fill="none" stroke="#231F20" stroke-width="3.5" stroke-linecap="round" stroke-linejoin="round" d="
		M193.218,446.079c0,15.41-33.262,27.91-74.668,27.91c-41.24,0-74.707-12.5-74.707-27.91c0-15.449,33.467-27.949,74.707-27.949
		C159.956,418.13,193.218,430.63,193.218,446.079z"/>
	<path id="path80" fill="#231F20" d="M140.61,444.594c0,4.492-9.99,8.223-22.432,8.223c-12.266,0-22.231-3.73-22.231-8.223
		c0-4.551,9.966-8.242,22.231-8.242C130.62,436.352,140.61,440.044,140.61,444.594"/>
	<path id="path82" fill="#231F20" d="M140.61,429.243c0,4.512-9.99,8.594-22.432,8.594c-12.266,0-22.231-4.082-22.231-8.594
		c0-4.531,9.966-8.223,22.231-8.223C130.62,421.02,140.61,424.712,140.61,429.243"/>
	<path id="path84" fill="#FFFFFF" d="M193.218,415.376c0,15.449-33.262,28.301-74.668,28.301c-41.24,0-74.707-12.852-74.707-28.301
		c0-15.41,33.467-27.91,74.707-27.91C159.956,387.466,193.218,399.966,193.218,415.376"/>
	<path id="path86" fill="none" stroke="#231F20" stroke-width="3.5" stroke-linecap="round" stroke-linejoin="round" d="
		M193.218,415.376c0,15.449-33.262,28.301-74.668,28.301c-41.24,0-74.707-12.852-74.707-28.301c0-15.41,33.467-27.91,74.707-27.91
		C159.956,387.466,193.218,399.966,193.218,415.376z"/>
	<path id="path88" fill="#231F20" d="M140.61,413.911c0,4.883-9.99,8.574-22.432,8.574c-12.266,0-22.231-3.691-22.231-8.574
		c0-4.531,9.966-8.262,22.231-8.262C130.62,405.649,140.61,409.38,140.61,413.911"/>
	<path id="path90" fill="#FFFFFF" d="M193.218,354.409c0,15.439-33.262,27.939-74.668,27.939c-41.24,0-74.707-12.5-74.707-27.939
		c0-15.625,33.467-28.115,74.707-28.115C159.956,326.294,193.218,338.784,193.218,354.409"/>
	<path id="path92" fill="none" stroke="#231F20" stroke-width="3.5" stroke-linecap="round" stroke-linejoin="round" d="
		M193.218,354.409c0,15.439-33.262,27.939-74.668,27.939c-41.24,0-74.707-12.5-74.707-27.939c0-15.625,33.467-28.115,74.707-28.115
		C159.956,326.294,193.218,338.784,193.218,354.409z"/>
	<path id="path94" fill="#231F20" d="M140.61,352.739c0,4.707-9.99,8.398-22.432,8.398c-12.266,0-22.231-3.691-22.231-8.398
		c0-4.531,9.966-8.223,22.231-8.223C130.62,344.516,140.61,348.208,140.61,352.739"/>
	<path id="path96" fill="#231F20" d="M140.61,337.602c0,4.512-9.99,8.398-22.432,8.398c-12.266,0-22.231-3.887-22.231-8.398
		c0-4.727,9.966-8.447,22.231-8.447C130.62,329.155,140.61,332.876,140.61,337.602"/>
	<path id="path98" fill="#FFFFFF" d="M193.218,323.735c0,15.449-33.262,28.115-74.668,28.115c-41.24,0-74.707-12.666-74.707-28.115
		c0-15.439,33.467-28.125,74.707-28.125C159.956,295.61,193.218,308.296,193.218,323.735"/>
	<path id="path100" fill="none" stroke="#231F20" stroke-width="3.5" stroke-linecap="round" stroke-linejoin="round" d="
		M193.218,323.735c0,15.449-33.262,28.115-74.668,28.115c-41.24,0-74.707-12.666-74.707-28.115
		c0-15.439,33.467-28.125,74.707-28.125C159.956,295.61,193.218,308.296,193.218,323.735z"/>
	<path id="path102" fill="#231F20" d="M140.61,322.241c0,4.502-9.99,8.428-22.432,8.428c-12.266,0-22.231-3.926-22.231-8.428
		c0-4.707,9.966-8.408,22.231-8.408C130.62,313.833,140.61,317.534,140.61,322.241"/>
	<path id="path104" fill="#231F20" d="M140.61,306.919c0,4.697-9.99,8.398-22.432,8.398c-12.266,0-22.231-3.701-22.231-8.398
		c0-4.717,9.966-8.418,22.231-8.418C130.62,298.501,140.61,302.202,140.61,306.919"/>
	<path id="path106" fill="#FFFFFF" d="M193.218,293.247c0,15.43-33.262,27.929-74.668,27.929c-41.24,0-74.707-12.5-74.707-27.929
		c0-15.605,33.467-28.105,74.707-28.105C159.956,265.142,193.218,277.642,193.218,293.247"/>
	<path id="path108" fill="none" stroke="#231F20" stroke-width="3.5" stroke-linecap="round" stroke-linejoin="round" d="
		M193.218,293.247c0,15.43-33.262,27.929-74.668,27.929c-41.24,0-74.707-12.5-74.707-27.929c0-15.605,33.467-28.105,74.707-28.105
		C159.956,265.142,193.218,277.642,193.218,293.247z"/>
	<path id="path110" fill="#231F20" d="M140.61,291.587c0,4.697-9.99,8.398-22.432,8.398c-12.266,0-22.231-3.701-22.231-8.398
		c0-4.531,9.966-8.438,22.231-8.438C130.62,283.149,140.61,287.056,140.61,291.587"/>
</g>
</svg>
