<?xml version="1.0" encoding="utf-8"?>
<!-- Generator: Adobe Illustrator 16.0.0, SVG Export Plug-In . SVG Version: 6.00 Build 0)  -->
<!DOCTYPE svg PUBLIC "-//W3C//DTD SVG 1.1//EN" "http://www.w3.org/Graphics/SVG/1.1/DTD/svg11.dtd">
<svg version="1.1"
	 id="svg2" xmlns:dc="http://purl.org/dc/elements/1.1/" xmlns:cc="http://creativecommons.org/ns#" xmlns:rdf="http://www.w3.org/1999/02/22-rdf-syntax-ns#" xmlns:svg="http://www.w3.org/2000/svg"
	 xmlns="http://www.w3.org/2000/svg" xmlns:xlink="http://www.w3.org/1999/xlink" x="0px" y="0px" width="80px" height="35px"
	 viewBox="0 0 80 35" enable-background="new 0 0 80 35" xml:space="preserve">
<g id="g12" transform="scale(0.1,0.1)">
	<path id="path22" fill="none" stroke="#B2B2B2" stroke-width="15" d="M207.095,186.875c40.625,0,73.652-32.612,73.652-73.237
		c0-40.386-33.027-72.993-73.652-72.993c-40.615,0-73.652,32.607-73.652,72.993C133.442,154.263,166.479,186.875,207.095,186.875z"
		/>
	<path id="path24" fill="none" stroke="#B2B2B2" stroke-width="15" d="M207.095,329.004c40.625,0,73.652-32.363,73.652-72.773
		c0-40.391-33.027-73.203-73.652-73.203c-40.615,0-73.652,32.813-73.652,73.203C133.442,296.641,166.479,329.004,207.095,329.004z"
		/>
	<path id="path26" fill="none" stroke="#B2B2B2" stroke-width="15" d="M98.125,242.754c32.632,0,58.979-26.641,58.979-58.848
		c0-32.212-26.348-58.394-58.979-58.394c-32.402,0-58.74,26.182-58.74,58.394C39.385,216.113,65.723,242.754,98.125,242.754z"/>
	<path id="path28" fill="none" stroke="#B2B2B2" stroke-width="15" d="M275.181,68.755c0.352,27.266,11.289,51.875,22.207,76.26
		c8.252,19.063,27.422,35.298,49.277,43.442"/>
	<path id="path30" fill="none" stroke="#B2B2B2" stroke-width="15" d="M275.181,305.722c0.352-27.031,11.289-51.64,22.207-76.269
		c8.252-18.828,27.422-35.234,49.277-43.438"/>
	<path id="path32" fill="none" stroke="#02709F" stroke-width="15" d="M182.72,156.226c40.605,0,73.652-32.607,73.652-73.008
		c0-40.61-33.047-73.218-73.652-73.218c-40.63,0-73.667,32.607-73.667,73.218C109.053,123.618,142.09,156.226,182.72,156.226z"/>
	<path id="path34" fill="none" stroke="#02709F" stroke-width="15" d="M182.72,298.379c40.605,0,73.652-32.422,73.652-72.793
		s-33.047-73.452-73.652-73.452c-40.63,0-73.667,33.081-73.667,73.452S142.09,298.379,182.72,298.379z"/>
	<path id="path36" fill="none" stroke="#02709F" stroke-width="15" d="M73.97,212.129c32.402,0,58.73-26.66,58.73-58.862
		c0-32.217-26.328-58.398-58.73-58.398C41.333,94.868,15,121.05,15,153.267C15,185.469,41.333,212.129,73.97,212.129z"/>
	<path id="path38" fill="none" stroke="#02709F" stroke-width="15" d="M250.786,38.115c0.371,27.261,11.289,51.87,22.451,76.245
		c8.018,19.072,27.197,35.479,49.268,43.682"/>
	<path id="path40" fill="none" stroke="#02709F" stroke-width="15" d="M250.786,275.078c0.371-27.051,11.289-51.641,22.451-76.25
		c8.018-19.214,27.197-35.474,49.268-43.452"/>
	<path id="path42" fill="#B2B2B2" d="M785,231.641v-76.265H449.727c-4.473-18.232-12.207-30.293-21.289-30.293
		c-9.57,0-17.305,12.061-21.758,30.293h-5.874c-4.199-18.994-12.451-31.738-21.875-31.738s-17.676,12.744-22.109,31.738h-56.035
		v62.729h56.758c4.492,17.266,12.383,28.613,21.387,28.613c9.023,0,16.895-11.348,21.396-28.613h6.353
		c4.453,18.027,12.188,30.059,21.758,30.059c9.082,0,16.816-12.031,21.289-30.059h251.055V340h79.805v-29.922h-36.133v-21.484
		h38.359v-29.922h-38.359v-27.031H785"/>
	<path id="path44" fill="#02709F" d="M760.84,200.996v-76.265H425.547c-4.453-18.242-12.148-30.293-21.733-30.293
		c-9.102,0-17.285,12.051-21.504,30.293h-5.664c-4.424-19.004-12.695-31.738-22.109-31.738s-17.676,12.734-21.875,31.738h-56.035
		v62.729h56.768c4.248,17.266,12.139,28.613,21.143,28.613c9.023,0,16.914-11.348,21.387-28.613h6.387
		c4.219,18.008,12.402,30.078,21.504,30.078c9.585,0,17.28-12.07,21.733-30.078h251.074v121.894h79.805v-29.922h-36.133v-21.484
		h38.379v-29.922h-38.379v-27.031H760.84"/>
</g>
</svg>
