<?xml version="1.0" encoding="utf-8"?>
<!-- Generator: Adobe Illustrator 16.0.0, SVG Export Plug-In . SVG Version: 6.00 Build 0)  -->
<!DOCTYPE svg PUBLIC "-//W3C//DTD SVG 1.1//EN" "http://www.w3.org/Graphics/SVG/1.1/DTD/svg11.dtd">
<svg version="1.1"
	 id="svg2" xmlns:dc="http://purl.org/dc/elements/1.1/" xmlns:cc="http://creativecommons.org/ns#" xmlns:rdf="http://www.w3.org/1999/02/22-rdf-syntax-ns#" xmlns:svg="http://www.w3.org/2000/svg"
	 xmlns="http://www.w3.org/2000/svg" xmlns:xlink="http://www.w3.org/1999/xlink" x="0px" y="0px" width="57px" height="77px"
	 viewBox="0 0 57 77" enable-background="new 0 0 57 77" xml:space="preserve">
<g id="g12" transform="scale(0.1,0.1)">
	<path id="path22" fill="#231F20" d="M559.995,152.695l-0.811-14.199l-1.602-14.209l-4.199-14.209l-4.199-12.49l-6.563-12.5
		l-6.67-11.689l-8.164-11.699l-9.043-9.976l-9.951-9.18l-11.592-8.354l-11.611-6.655l-12.227-6.66l-12.402-4.214l-14.15-4.146
		l-14.043-1.704L418.784,10l-14.814,0.811l-14.15,1.704l-13.232,4.146l-13.174,4.214l-12.422,6.66l-11.406,6.655l-10.84,8.354
		l-9.961,9.18l-9.004,9.976l-8.203,11.699l-6.621,11.689l-6.66,12.5l-4.121,12.49l-4.199,14.209l-1.602,14.209l-0.781,14.199
		l0.781,13.311l0.82,12.51l2.471,11.68l4.121,11.685l-9.092-4.146l-6.582-3.389l-4.902-1.646l-1.738-0.806l-3.281-1.699h-4.131
		l-3.291,1.699l-2.461,2.451l-64.424,69.316l-1.685,2.432l-0.83,2.495l-0.781,3.345l0.781,3.35l1.733,5.005l4.897,12.51
		l4.985,14.209l4.121,11.699l-3.291,4.131l-3.306,3.301l-3.34,3.418l-0.771,0.811l-1.685,1.641l-0.83,2.51l-0.781,1.689v5.869
		l0.781,8.252v16.738l-3.296,3.32l-5.796,6.67l-9.097,10.059l-11.606,11.68l-13.164,14.121l-14.839,15.898l-14.893,16.738
		l-16.504,17.363l-15.684,16.719l-14.893,16.719L51.211,512.27l-12.314,13.301L28.115,537.29l-8.237,9.082l-5.757,5.82l-1.733,1.816
		l-1.611,2.441l-0.781,3.35v3.291l0.781,2.568l18.12,50.01l1.675,3.408l2.515,2.451l3.301,0.781l3.335,0.82l66.06-1.602l2.441-0.82
		l2.461-0.811l1.729-0.82l1.563-1.748l15.732-17.539l1.68-1.66l0.786-1.602l0.815-2.617v-16.553l-0.815-7.627h7.407l7.48-0.82h9.028
		l2.505-0.781l1.689-0.82l1.602-1.65l16.519-17.51l2.505-3.438l0.781-5.02l-1.611-4.072l-2.461-3.369l-2.505-3.398l-1.611-4.063
		v-5.039l3.291-5.02l3.286-2.461l4.121-1.797h4.971l4.902,3.418l4.204,2.441l4.116,0.967l4.126-0.967l4.185-2.441l15.688-17.539
		l1.602-1.602l0.82-2.617l0.869-1.602v-10.059l-0.869-6.66v-7.48l7.451-0.801h16.504l1.611-0.82l2.51-1.797l1.68-0.801l1.621-1.621
		l3.281-4.199l4.121-4.082l3.301-4.238h9.99l4.072-0.82l4.121,4.258l4.941,5.82l4.98,4.883l3.379,4.219l-1.777,44.141l-2.422,87.656
		l-3.223,85.898l-1.758,38.486l0.82,3.232l0.938,2.588l1.611,2.451l2.432,2.588l46.23,25.02l3.359,1.611h3.223l4.199-1.611
		l2.383-1.621l48.818-45.996l1.582-1.602l0.967-1.748l0.82-2.451v-1.66l0.781-24.18v-4.199l-1.602-2.598l-0.967-1.592l-1.582-1.67
		l-3.242-3.369l-4.99-5.049l-4.961-5.859l5.781-4.883l4.98-5.039l3.223-3.35l1.758-1.66l1.602-1.65l0.84-1.738l0.762-2.451
		l0.84-2.432l0.781-23.418l-0.781-5.029l-2.441-3.359l-3.359-2.441l-4.844-0.82l-4.18-0.811l-3.379-2.627l-3.223-3.232l-0.82-5.859
		l0.82-4.209l2.412-4.199l3.359-2.422l5.82-0.84l4.824-0.791l3.408-2.627l2.383-3.252l1.748-5.01l0.83-23.359v-2.637l-0.83-1.602
		l-1.748-2.461l-0.781-1.738l-1.602-1.621l-3.408-4.258l-4.824-4.883l-4.99-4.98l5.801-5.039l4.98-5.039l3.203-3.262l1.621-1.758
		l1.748-1.66l1.66-2.441l0.791-1.777v-21.582l5.801-5.02l7.412-5.859l5.82-5.84l2.373-2.422l0.986-1.777l1.602-2.48l0.811-1.602
		v-2.617l0.811-21.562l8.174-8.457l6.65-9.082l6.582-9.258l5.801-10l4.17-10.84l3.223-11.68l2.539-11.729l0.83-12.48v-14.121
		l-2.393-13.389l-3.389-13.33l-4.17-12.495l18.984-9.229l16.563-12.52l14.834-14.131l13.154-16.724l10.029-17.524l7.402-19.155
		l4.98-20.869L559.995,152.695z M43.018,587.29l7.412-7.5l9.043-10.059l10.83-11.66l12.314-13.359l13.164-14.121l14.902-15.859
		l14.121-15.938l14.775-15.742l14.897-15.098l13.218-14.941l13.213-14.277l11.602-12.48l9.883-9.922l7.417-8.457l5.796-5.82
		l2.466-3.262l1.611,1.641l1.729,0.801l0.781,1.797l1.685,1.602l-2.466,2.461l-5.806,5.82l-7.407,8.457l-9.092,9.902l-11.611,12.5
		l-12.383,13.457l-14.009,14.121l-14.043,15.889l-14.888,15.791l-14.077,15.898l-14.824,15.723l-14.072,15.098l-12.314,14.121
		l-12.383,12.52L54.497,587.29l-8.188,9.238l-0.83-1.787l-0.85-2.432l-0.835-2.451L43.018,587.29z M245.288,442.134h-3.301
		l-4.121,0.801h-21.479l-2.393,0.84l-1.724,0.82l-2.461,0.957l-1.611,1.602l-0.913,1.641l-0.767,1.641l-0.83,2.578v5.859l0.83,8.281
		v16.699l-1.611,1.66l-1.685,1.729l-0.83,0.85l-2.515,2.441l-5.806-2.441l-5.674-0.85l-5.811,0.85l-4.971,0.781l-4.946,1.66
		l-4.976,2.568l-4.126,2.412l-3.286,3.281l-7.49,10.898l-2.441,10.84l0.83,10.059l4.121,9.102l-2.51,2.637l-1.611,0.781l-0.83,1.602
		l-1.631,1.66h-16.548l-4.087,0.928h-9.99l-2.393,0.85l-1.729,1.602l-1.563,0.82l-1.729,1.621l-0.781,2.598l-0.83,1.66v5.82
		l0.83,8.301v17.48l-2.51,2.637l-1.611,2.402l-2.51,2.627l-2.461,2.412H89.199l-5.732,0.82H71.084l-6.582,0.84h-5.811
		l173.433-187.676l21.475,20.937l-2.51,2.441l-1.611,2.441l-2.461,2.598L245.288,442.134z M303.96,413.716l-2.383,2.617
		l-2.578,2.422l-2.432,2.617l-2.549,2.422h-5.723l-3.34,0.82h-20.654l-0.83,0.82h-0.791l-22.295-21.601l-4.98-4.238l-18.115-17.5
		L37.998,575.591l-0.781-3.262l-0.83-2.598l-0.781-2.422l-0.898-2.617l3.291-3.223l6.631-7.461l9.087-10.059l11.563-12.52
		L78.496,517.3l13.994-15.928l15.732-15.859l15.674-17.559l14.902-16.543l14.893-15.918l14.004-15.078l12.383-13.32l10.703-11.699
		l8.325-8.281l4.897-5.84l1.685-1.729l1.597-1.611l0.913-2.52l0.781-1.68v-14.141l-0.781-9.268v-7.441l4.072-4.16l4.116-5.01
		l3.296-3.35l1.729-1.689l1.675-2.539l0.791-3.301v-2.539l-0.791-3.32l-1.675-4.961l-5.024-13.379l-4.902-14.126l-4.199-10.884
		l4.199-4.204l6.587-6.66l7.412-8.359l8.32-9.17l8.184-9.17l8.32-8.301l6.582-6.719l4.121-4.966l3.291,1.646l4.189,1.685
		l4.902,2.515l4.98,2.451l5.801,2.51l5.801,2.529l5.82,3.311l5.781,2.515h1.563l3.281,5.029l4.141,4.966l4.18,4.204l4.043,4.966
		l5,4.224l4.199,4.136l4.805,4.204l5.039,3.34l0.781,3.32l1.738,3.33l1.621,3.33l2.432,2.52l4.189,2.51l4.16,2.529l4.043,0.811h9.16
		l4.043-1.694l4.199-2.451l3.359-3.389l4.844-7.495l1.768-9.17l-2.549-8.359l-5.029-7.466l-4.053-3.398l-4.121-2.451l-5-0.879h-5.02
		l-3.223-1.636l-2.422-2.52l-3.379-2.51l-3.203-2.515l4.043-1.626l4.141-1.685l4.043-0.835h5.02l5,0.835l4.971,2.495l4.971,3.33
		l5.811,4.136l0.811,0.894l0.791,0.83l5.791,6.646l4.043,11.685v14.199l-9.834,16.655l-1.602,2.515l-0.986,4.209v3.33l0.986,3.33
		l0.811,1.631l3.223,5.84l4.18,7.568l5,9.971l5.781,10.049l4.844,9.189l4.199,8.281l3.223,5.859l-4.063,5.01l-6.582,6.67
		l-8.369,8.359l-8.213,9.238l-8.242,9.102l-7.422,8.281l-6.582,7.617l-4.199,4.082l-4.961-1.66l-5.801-1.602l-7.422-2.598
		l-6.582-2.441l-7.422-1.621l-5.781-1.777l-3.223-0.84l-1.777-0.781l-3.203-0.82l-3.359,0.82l-2.441,0.781l-2.578,2.617l-0.781,0.82
		l-1.621,0.801L303.96,413.716L303.96,413.716z M330.415,215.195l-7.412-14.131l-6.641-15.898l-3.359-15.83l-1.621-16.641
		l2.598-21.748l5.654-19.98l9.932-18.34l13.242-15.908l15.586-13.306l18.193-10.063l20.791-5.85l21.406-2.437L440.19,47.5
		l19.795,5.85l18.184,10.063l15.791,13.306l13.193,15.908l9.854,18.34l5.791,19.98l2.539,21.748l-1.768,17.461l-3.203,15.898
		l-6.582,15.825l-8.232,14.199l-10.781,12.5l-12.402,10.796l-13.984,9.258l-15.811,6.655l-5.762-5.85l-5.635-5.84l-6.807-5.024
		l-7.402-5.039l-6.582-4.121l-8.184-4.165l-7.422-3.325l-8.369-2.515l-9.043-6.646l-9.014-4.229l-9.18-2.51h-8.174l-9.189,0.898
		l-7.412,1.611l-7.412,2.515L330.415,215.195z M345.229,732.397l-1.66-1.611l-1.602-0.85l-2.383-1.602l-1.758-0.82l2.52-58.438
		l2.461-84.248l3.359-77.598l0.762-38.438l2.441,0.957h5.801l-1.582,36.66l-2.598,76.807l-3.223,85.059L345.229,732.397z
		 M395.601,483.852l-4.883,5.02l-7.539,6.641l-5.625,5.859l-2.568,2.461l-1.602,1.729l-0.85,1.67l-0.752,2.461v6.641l1.602,1.758
		l0.811,1.66l2.393,2.441l5.811,5.82l6.592,7.607l5.029,5.859v3.232l-0.83,2.588v3.271l-5.82,1.621l-4.971,3.418l-4.043,4.189
		l-3.369,4.072l-2.451,4.258l-2.539,5.039l-0.82,5.02l-0.762,5.029l1.582,12.5l4.99,9.893l7.412,6.699l8.32,5.02v9.229l-4.951,5.039
		l-7.412,5.801l-5.82,5.859l-2.539,2.471l-1.582,1.602l-1.621,2.588l-0.84,1.611v4.248l0.84,2.451l0.781,2.432l1.602,1.758
		l2.607,2.451l5.771,5.879l6.611,7.451l4.824,5.029l-0.791,3.369v10.898l-1.602,1.621l-3.418,2.451l-3.223,3.408l-4.141,4.199
		l-5.02,4.072l-4.004,4.238l-5.039,4.189l-4.121,4.072l9.16-255.996l29.619,1.602v6.66l-0.811,3.369V483.852z M459.985,337.046
		l-1.602,12.471l-2.383,11.709l-4.199,11.67l-5.801,10.879l-4.824,7.559l-5.83,6.66l-6.572,5.84l-6.787,5.84l-0.771,9.082v19.179
		h-0.83l-5.801,5l-6.582,6.699l-5.82,5.02l-2.383,2.578l-0.82,0.801v0.84l-0.83,0.801l-31.357-1.641h-5.791l-24.834-0.801
		l-9.961,264.443l-2.422-1.787l-2.383-1.602l-2.617-0.801l-2.422-1.67l1.602-45.068l3.438-86.748l2.383-83.447l1.602-37.637v-2.422
		l-0.781-2.461l-0.82-1.738l-1.621-1.641l-0.762-1.641l-3.438-3.379l-3.984-4.082l-4.199-5.02l2.441-1.797l2.52-2.422l1.621-2.461
		l2.422-2.578l5,1.777l5.781,1.621l7.422,2.441l7.412,1.621l6.592,2.598l5.801,1.602l4.209,0.84l1.602,0.82h5.811l3.369-1.66
		l2.412-1.602l63.623-69.238l2.373-2.52l0.986-4.219v-3.301l-0.986-3.35l-0.771-2.51l-3.242-4.961l-4.18-8.35l-5.811-10.01
		l-5.801-10.039l-4.961-9.98l-4.063-8.369l-3.359-4.956l6.582-11.685l4.199-11.689l0.771-10.879l-1.563-9.99l8.975,7.476
		l9.209,7.544l6.602,9.17l6.572,9.99l5.029,11.68l3.223,10.869l1.621,12.529L459.985,337.046L459.985,337.046z M466.763,274.448
		l-1.768-2.515l-1.66-2.51l-1.563-2.456l-1.787-2.51l16.602-7.554l14.814-9.966l13.213-12.5l10.771-13.394l9.16-15.854l6.611-16.616
		l4.043-17.539l1.729-18.34l-2.529-24.268l-6.611-22.49l-10.781-20.039l-14.814-17.529l-17.373-15.02l-19.824-10.806l-22.217-6.65
		l-23.994-2.51l-23.994,2.51l-22.256,6.65L352.749,53.35l-18.203,15.02l-13.984,17.529l-11.563,20.039l-6.621,22.49l-2.588,24.268
		l0.811,17.461l4.199,16.704l5.762,15.835l8.223,14.194l4.219,5.84l4.189,5.85l4.844,5.859l4.951,4.937l1.621,1.724l2.578,1.685
		l2.383,2.451l2.598,1.704l2.422,1.694l2.402,1.626l2.598,2.52l2.422,1.626l1.621,0.884l0.762,0.811l1.758,0.806l1.602,0.903
		l0.85,0.82v1.626l0.811,0.874v3.33l-0.811,0.82l-1.602,1.689l-1.621,0.82l-1.748,0.801l-1.621-1.621l-2.422-0.874l-2.598-1.636
		l-1.621-0.796l-2.441-1.724l-2.529-1.685l-2.432-1.626l-2.383-1.724l-3.418-3.311l-3.379-2.52l-3.223-2.441l-3.359-3.398
		l-4.043-4.136l-3.379-4.15l-3.203-4.224l-3.359-4.961l-3.223-4.199l-2.578-4.961l-2.461-4.219l-2.383-5.029l-5.781-13.325
		l-4.199-14.194l-2.52-14.131l-0.781-15.01l2.52-25.889l7.363-25.01l12.383-21.738l15.645-19.976l19.961-15.913l22.246-12.5
		l23.965-7.476l26.406-2.5l25.615,2.5l24.756,7.476l21.455,12.5l19.824,15.913l15.732,19.976l12.383,21.738l7.432,25.01
		l2.422,25.889l-1.602,19.98l-4.18,18.33l-7.422,18.35l-9.033,16.714l-12.383,15.029l-14.053,13.306l-15.742,10.874L466.763,274.448
		"/>
	<path id="path24" fill="#C1DEF5" d="M318.784,407.095l1.777,0.781l3.223,0.84l5.781,1.777l7.422,1.621l6.582,2.441l7.422,2.598
		l5.801,1.602l4.961,1.66l4.199-4.082l6.582-7.617l7.422-8.281l8.242-9.102l8.213-9.238l8.369-8.359l6.582-6.67l4.063-5.01
		l-3.223-5.859l-4.199-8.281l-4.844-9.189l-5.781-10.049l-5-9.971l-4.18-7.568l-3.223-5.84l-0.811-1.631l-0.986-3.33v-3.33
		l0.986-4.209l1.602-2.515l9.834-16.655v-14.199l-4.043-11.685l-5.791-6.646l-0.791-0.83l-0.811-0.894l-5.811-4.136l-4.971-3.33
		l-4.971-2.495l-5-0.835h-5.02l-4.043,0.835l-4.141,1.685l-4.043,1.626l3.203,2.515l3.379,2.51l2.422,2.52l3.223,1.636h5.02l5,0.879
		l4.121,2.451l4.053,3.398l5.029,7.466l2.549,8.359l-1.768,9.17l-4.844,7.495l-3.359,3.389l-4.199,2.451l-4.043,1.694h-9.16
		l-4.043-0.811l-4.16-2.529l-4.189-2.51l-2.432-2.52l-1.621-3.33l-1.738-3.33l-0.781-3.32l-5.039-3.34l-4.805-4.204l-4.199-4.136
		l-5-4.224l-4.043-4.966l-4.18-4.204l-4.141-4.966l-3.281-5.029h-1.563l-5.781-2.515l-5.82-3.311l-5.801-2.529l-5.801-2.51
		l-4.98-2.451l-4.902-2.515l-4.189-1.685l-3.291-1.646l-4.121,4.966l-6.582,6.719l-8.32,8.301l-8.184,9.17l-8.32,9.17l-7.412,8.359
		l-6.587,6.66l-4.199,4.204l4.199,10.884l4.902,14.126l5.024,13.379l1.675,4.961l0.791,3.32v2.539l-0.791,3.301l-1.675,2.539
		l-1.729,1.689l-3.296,3.35l-4.116,5.01l-4.072,4.16v7.441l0.781,9.268v14.141l-0.781,1.68l-0.913,2.52l-1.597,1.611l-1.685,1.729
		l-4.897,5.84l-8.325,8.281l-10.703,11.699l-12.383,13.32l-14.004,15.078l-14.893,15.918l-14.902,16.543l-15.674,17.559
		L92.49,501.372L78.496,517.3L65.278,531.43l-11.563,12.52l-9.087,10.059l-6.631,7.461l-3.291,3.223l0.898,2.617l0.781,2.422
		l0.83,2.598l0.781,3.262L217.29,382.095l18.115,17.5l4.98,4.238l22.295,21.601h0.791l0.83-0.82h20.654l3.34-0.82h5.723l2.549-2.422
		l2.432-2.617l2.578-2.422l2.383-2.617l0.84-1.602l1.621-0.801l0.781-0.82l2.578-2.598l2.441-0.801l3.359-0.82L318.784,407.095"/>
	<path id="path26" fill="#C1DEF5" d="M58.691,599.79h5.811l6.582-0.84h12.383l5.732-0.82h11.611l2.461-2.412l2.51-2.627l1.611-2.402
		l2.51-2.637v-17.48l-0.83-8.301v-5.82l0.83-1.66l0.781-2.598l1.729-1.621l1.563-0.82l1.729-1.602l2.393-0.85h9.99l4.087-0.928
		h16.548l1.631-1.66l0.83-1.602l1.611-0.781l2.51-2.637l-4.121-9.102l-0.83-10.059l2.441-10.84l7.49-10.898l3.286-3.281l4.126-2.412
		l4.976-2.568l4.946-1.66l4.971-0.781l5.811-0.85l5.674,0.85l5.806,2.441l2.515-2.441l0.83-0.85l1.685-1.729l1.611-1.66v-16.699
		l-0.83-8.281v-5.859l0.83-2.578l0.767-1.641l0.913-1.641l1.611-1.602l2.461-0.957l1.724-0.82l2.393-0.84h21.479l4.121-0.801h3.301
		l1.729-1.602l2.461-2.598l1.611-2.441l2.51-2.441l-21.475-20.937L58.691,599.79"/>
	<path id="path28" fill="#3CA7E4" d="M218.071,398.794l-2.466,3.262l-5.796,5.82l-7.417,8.457l-9.883,9.922l-11.602,12.48
		l-13.213,14.277l-13.218,14.941l-14.897,15.098l-14.775,15.742l-14.121,15.938l-14.902,15.859l-13.164,14.121l-12.314,13.359
		l-10.83,11.66L50.43,579.79l-7.412,7.5l0.776,2.568l0.835,2.451l0.85,2.432l0.83,1.787l8.188-9.238l10.005-10.898l12.383-12.52
		l12.314-14.121l14.072-15.098l14.824-15.723l14.077-15.898l14.888-15.791l14.043-15.889l14.009-14.121l12.383-13.457l11.611-12.5
		l9.092-9.902l7.407-8.457l5.806-5.82l2.466-2.461l-1.685-1.602l-0.781-1.797l-1.729-0.801L218.071,398.794"/>
	<path id="path30" fill="#C1DEF5" d="M357.632,725.747l4.121-4.072l5.039-4.189l4.004-4.238l5.02-4.072l4.141-4.199l3.223-3.408
		l3.418-2.451l1.602-1.621v-10.898l0.791-3.369l-4.824-5.029l-6.611-7.451l-5.771-5.879l-2.607-2.451l-1.602-1.758l-0.781-2.432
		l-0.84-2.451v-4.248l0.84-1.611l1.621-2.588l1.582-1.602l2.539-2.471l5.82-5.859l7.412-5.801l4.951-5.039v-9.229l-8.32-5.02
		l-7.412-6.699l-4.99-9.893l-1.582-12.5l0.762-5.029l0.82-5.02l2.539-5.039l2.451-4.258l3.369-4.072l4.043-4.189l4.971-3.418
		l5.82-1.621V547.3l0.83-2.588v-3.232l-5.029-5.859l-6.592-7.607l-5.811-5.82l-2.393-2.441l-0.811-1.66l-1.602-1.758v-6.641
		l0.752-2.461l0.85-1.67l1.602-1.729l2.568-2.461l5.625-5.859l7.539-6.641l4.883-5.02v-2.471l0.811-3.369v-6.66l-29.619-1.602
		L357.632,725.747"/>
	<path id="path32" fill="#3CA7E4" d="M418.784,21.694l-26.406,2.5l-23.965,7.476l-22.246,12.5l-19.961,15.913l-15.645,19.976
		l-12.383,21.738l-7.363,25.01l-2.52,25.889l0.781,15.01l2.52,14.131l4.199,14.194l5.781,13.325l2.383,5.029l2.461,4.219
		l2.578,4.961l3.223,4.199l3.359,4.961l3.203,4.224l3.379,4.15l4.043,4.136l3.359,3.398l3.223,2.441l3.379,2.52l3.418,3.311
		l2.383,1.724l2.432,1.626l2.529,1.685l2.441,1.724l1.621,0.796l2.598,1.636l2.422,0.874l1.621,1.621l1.748-0.801l1.621-0.82
		l1.602-1.689l0.811-0.82v-3.33l-0.811-0.874v-1.626l-0.85-0.82l-1.602-0.903l-1.758-0.806l-0.762-0.811l-1.621-0.884l-2.422-1.626
		l-2.598-2.52l-2.402-1.626l-2.422-1.694l-2.598-1.704l-2.383-2.451l-2.578-1.685l-1.621-1.724l-4.951-4.937l-4.844-5.859
		l-4.189-5.85l-4.219-5.84l-8.223-14.194L304.8,186.86l-4.199-16.704l-0.811-17.461l2.588-24.268l6.621-22.49l11.563-20.039
		l13.984-17.529l18.203-15.02l19.785-10.806l22.256-6.65l23.994-2.51l23.994,2.51l22.217,6.65l19.824,10.806l17.373,15.02
		l14.814,17.529l10.781,20.039l6.611,22.49l2.529,24.268l-1.729,18.34l-4.043,17.539l-6.611,16.616l-9.16,15.854l-10.771,13.394
		l-13.213,12.5l-14.814,9.966l-16.602,7.554l1.787,2.51l1.563,2.456l1.66,2.51l1.768,2.515l17.227-9.17l15.742-10.874l14.053-13.306
		l12.383-15.029l9.033-16.714l7.422-18.35l4.18-18.33l1.602-19.98l-2.422-25.889l-7.432-25.01l-12.383-21.738l-15.732-19.976
		L490.61,44.17l-21.455-12.5l-24.756-7.476L418.784,21.694"/>
	<path id="path34" fill="#3CA7E4" d="M337.827,727.514l1.758,0.82l2.383,1.602l1.602,0.85l1.66,1.611l2.539-64.121l3.223-85.059
		l2.598-76.807l1.582-36.66h-5.801l-2.441-0.957l-0.762,38.438l-3.359,77.598l-2.461,84.248L337.827,727.514"/>
	<path id="path36" fill="#C1DEF5" d="M417.993,255.288l1.563,9.99l-0.771,10.879l-4.199,11.689l-6.582,11.685l3.359,4.956
		l4.063,8.369l4.961,9.98l5.801,10.039l5.811,10.01l4.18,8.35l3.242,4.961l0.771,2.51l0.986,3.35v3.301l-0.986,4.219l-2.373,2.52
		l-63.623,69.238l-2.412,1.602l-3.369,1.66h-5.811l-1.602-0.82l-4.209-0.84l-5.801-1.602l-6.592-2.598l-7.412-1.621l-7.422-2.441
		l-5.781-1.621l-5-1.777l-2.422,2.578l-1.621,2.461l-2.52,2.422l-2.441,1.797l4.199,5.02l3.984,4.082l3.438,3.379l0.762,1.641
		l1.621,1.641l0.82,1.738l0.781,2.461v2.422l-1.602,37.637l-2.383,83.447l-3.438,86.748l-1.602,45.068l2.422,1.67l2.617,0.801
		l2.383,1.602l2.422,1.787l9.961-264.443l24.834,0.801h5.791l31.357,1.641l0.83-0.801v-0.84l0.82-0.801l2.383-2.578l5.82-5.02
		l6.582-6.699l5.801-5h0.83v-19.179l0.771-9.082l6.787-5.84l6.572-5.84l5.83-6.66l4.824-7.559l5.801-10.879l4.199-11.67
		l2.383-11.709l1.602-12.471l-0.762-12.5l-1.621-12.529l-3.223-10.869l-5.029-11.68l-6.572-9.99l-6.602-9.17l-9.209-7.544
		L417.993,255.288"/>
	<path id="path38" fill="#FFFFFF" d="M238.706,322.017l-15.62-45.059l51.089-55.034l-4.063-1.704l-3.35-1.616l-3.291-0.879
		l-2.461-1.646l-4.121,4.966l-6.582,6.719l-8.32,8.301l-8.184,9.17l-8.32,9.17l-7.412,8.359l-6.587,6.66l-4.199,4.204l4.199,10.884
		l4.902,14.126l5.024,13.379l1.675,4.961l0.791,3.32v2.539l-0.791,3.301l-1.675,2.539l-1.729,1.689l-3.296,3.35l-4.116,5.01
		l-4.072,4.16v7.441l0.781,9.268v14.141l-0.781,1.68l-0.913,2.52l-1.597,1.611l-1.685,1.729l-4.897,5.84l-8.325,8.281
		l-10.703,11.699l-12.383,13.32l-14.004,15.078l-14.893,15.918l-14.902,16.543l-15.674,17.559L92.49,501.372L78.496,517.3
		L65.278,531.43l-11.563,12.52l-9.087,10.059l-6.631,7.461l-3.291,3.223l0.898,2.617l0.781,2.422l0.83,2.598l0.781,3.262
		L217.29,382.896v-34.98L238.706,322.017"/>
	<path id="path40" fill="#FFFFFF" d="M309.78,440.532l4.199,5.02l3.984,4.082l3.438,3.379l0.762,1.641l1.621,1.641l0.82,1.738
		l0.781,2.461v2.422l-1.602,37.637l-2.383,83.447l-3.438,86.748l-1.602,45.068l2.422,1.67l2.617,0.801l2.383,1.602l2.422,1.787
		l9.961-264.443l-19.805-22.559l-1.621,1.641l-1.738,1.621l-1.621,0.801L309.78,440.532"/>
</g>
</svg>
