<?xml version="1.0" encoding="utf-8"?>
<!-- Generator: Adobe Illustrator 16.0.0, SVG Export Plug-In . SVG Version: 6.00 Build 0)  -->
<!DOCTYPE svg PUBLIC "-//W3C//DTD SVG 1.1//EN" "http://www.w3.org/Graphics/SVG/1.1/DTD/svg11.dtd">
<svg version="1.1" id="图层_1" xmlns="http://www.w3.org/2000/svg" xmlns:xlink="http://www.w3.org/1999/xlink" x="0px" y="0px"
	 width="512px" height="512px" viewBox="0 0 512 512" enable-background="new 0 0 512 512" xml:space="preserve">
<g>
	<path fill="#4BECBC" d="M499.037,101.813c-10.847-62.461-25.838-77.337-89.152-88.42c-40.31-7.053-97.21-11.098-156.091-11.098
		c-58.363,0-112.338,3.801-151.978,10.687c-62.468,10.855-77.345,25.853-88.405,89.152c-14.663,83.819-14.884,224.882-0.48,308.031
		c10.817,62.461,25.815,77.329,89.152,88.42c40.409,7.069,97.431,11.121,156.434,11.121h0.009
		c58.218,0,112.087-3.778,151.665-10.634c62.476-10.862,77.359-25.854,88.404-89.167
		C513.266,326.071,513.464,184.977,499.037,101.813 M483.24,407.222c-9.918,56.764-19.82,66.772-75.715,76.492
		c-38.727,6.703-91.636,10.39-149,10.39h-0.009c-58.148,0-114.181-3.961-153.745-10.877c-56.786-9.947-66.795-19.865-76.469-75.715
		c-14.153-81.702-13.939-220.319,0.48-302.699c9.918-56.748,19.82-66.757,75.7-76.461c38.794-6.741,91.817-10.458,149.312-10.458
		c58.012,0,113.938,3.961,153.41,10.868c56.748,9.933,66.757,19.843,76.477,75.715C497.85,186.186,497.652,324.819,483.24,407.222"
		/>
	<polygon fill="#4BECBC" points="254.525,143.766 296.412,157.403 321.646,142.856 255.02,118.531 188.904,142.25 214.649,157.403 	
		"/>
	<polygon fill="#4BECBC" points="255.02,222.658 213.133,209.02 187.899,223.567 254.525,247.892 320.641,224.157 294.897,209.02 	
		"/>
	<polygon fill="#4BECBC" points="194.264,202.321 146.507,183.148 194.455,165.698 168.711,150.481 80.391,183.148 167.195,215.448 
			"/>
	<polygon fill="#4BECBC" points="364.506,183.148 316.733,202.321 343.802,215.448 430.621,183.148 342.286,150.481 
		316.542,165.698 	"/>
	<polygon fill="#4BECBC" points="255.02,298.456 430.286,230.904 430.286,195.877 255.02,263.635 79.753,195.111 80.136,229.884 	
		"/>
	<polygon fill="#4BECBC" points="80.136,243.107 80.503,277.879 255.403,346.451 430.669,278.9 430.669,243.872 255.403,311.631 	
		"/>
	<polygon fill="#4BECBC" points="80.136,291.517 80.503,326.274 255.403,394.862 430.669,327.311 430.669,292.267 255.403,360.026 	
		"/>
</g>
</svg>
