<?xml version="1.0" encoding="utf-8"?>
<!-- Generator: Adobe Illustrator 16.0.0, SVG Export Plug-In . SVG Version: 6.00 Build 0)  -->
<!DOCTYPE svg PUBLIC "-//W3C//DTD SVG 1.1//EN" "http://www.w3.org/Graphics/SVG/1.1/DTD/svg11.dtd">
<svg version="1.1"
	 id="svg2" xmlns:dc="http://purl.org/dc/elements/1.1/" xmlns:cc="http://creativecommons.org/ns#" xmlns:rdf="http://www.w3.org/1999/02/22-rdf-syntax-ns#" xmlns:svg="http://www.w3.org/2000/svg"
	 xmlns="http://www.w3.org/2000/svg" xmlns:xlink="http://www.w3.org/1999/xlink" x="0px" y="0px" width="74px" height="75px"
	 viewBox="0 0 74 75" enable-background="new 0 0 74 75" xml:space="preserve">
<g id="g12" transform="scale(0.1,0.1)">
	<path id="path22" fill="#026B9A" d="M0.002,750.002H655.95V83.821H0.002V750.002z"/>
	<path id="path24" fill="none" stroke="#FFFFFF" stroke-width="1.5199" d="M0.002,750.002H655.95V83.821H0.002V750.002z"/>
	<path id="path26" fill="none" stroke="#FFFFFF" stroke-width="15.2" d="M383.235,184.504H540.92"/>
	<path id="path28" fill="#FFFFFF" d="M541.721,151.56v63.442l66.445-30.449L541.721,151.56"/>
	<path id="path30" fill="none" stroke="#FFFFFF" stroke-width="3.8001" d="M541.721,151.56v63.442l66.445-30.449L541.721,151.56z"/>
	<path id="path32" fill="none" stroke="#FFFFFF" stroke-width="15.2" d="M383.235,468.625H540.92"/>
	<path id="path34" fill="#FFFFFF" d="M541.721,435.676v63.262l66.445-30.264L541.721,435.676"/>
	<path id="path36" fill="none" stroke="#FFFFFF" stroke-width="3.8001" d="M541.721,435.676v63.262l66.445-30.264L541.721,435.676z"
		/>
	<path id="path38" fill="none" stroke="#FFFFFF" stroke-width="15.2" d="M612.795,617.453H455.51"/>
	<path id="path40" fill="#FFFFFF" d="M454.69,650.393V586.76l-66.445,30.645L454.69,650.393"/>
	<path id="path42" fill="none" stroke="#FFFFFF" stroke-width="3.8001" d="M454.69,650.393V586.76l-66.445,30.645L454.69,650.393z"
		/>
	<path id="path44" fill="none" stroke="#FFFFFF" stroke-width="15.2" d="M612.795,333.323H455.51"/>
	<path id="path46" fill="#FFFFFF" d="M454.69,366.262v-63.427l-66.445,30.449L454.69,366.262"/>
	<path id="path48" fill="none" stroke="#FFFFFF" stroke-width="3.8001" d="M454.69,366.262v-63.427l-66.445,30.449L454.69,366.262z"
		/>
	<path id="path50" fill="none" stroke="#FFFFFF" stroke-width="7.5999" d="M291.936,340.598H101.218"/>
	<path id="path52" fill="#FFFFFF" d="M108.821,362.248v-40.664l-44.976,19.658L108.821,362.248"/>
	<path id="path54" fill="none" stroke="#FFFFFF" stroke-width="3.8001" d="M108.821,362.248v-40.664l-44.976,19.658L108.821,362.248
		z"/>
	<path id="path56" fill="none" stroke="#FFFFFF" stroke-width="7.5999" d="M291.936,619.709H101.218"/>
	<path id="path58" fill="#FFFFFF" d="M108.821,641.545v-40.859l-44.976,19.658L108.821,641.545"/>
	<path id="path60" fill="none" stroke="#FFFFFF" stroke-width="3.8001" d="M108.821,641.545v-40.859l-44.976,19.658L108.821,641.545
		z"/>
	<path id="path62" fill="none" stroke="#FFFFFF" stroke-width="7.5999" d="M47.556,470.93h184.36"/>
	<path id="path64" fill="#FFFFFF" d="M230.872,449.094v40.82l44.961-19.629L230.872,449.094"/>
	<path id="path66" fill="none" stroke="#FFFFFF" stroke-width="3.8001" d="M230.872,449.094v40.82l44.961-19.629L230.872,449.094z"
		/>
	<path id="path68" fill="none" stroke="#FFFFFF" stroke-width="7.5999" d="M47.556,191.809h184.36"/>
	<path id="path70" fill="#FFFFFF" d="M230.872,169.978v40.64l44.961-19.453L230.872,169.978"/>
	<path id="path72" fill="none" stroke="#FFFFFF" stroke-width="3.8001" d="M230.872,169.978v40.64l44.961-19.453L230.872,169.978z"
		/>
	<path id="path74" fill="#026B9A" d="M654.514,83.21H0.413L103.083,1.135H739.27v663.789l-83.574,84.971V85.676L654.514,83.21"/>
	<path id="path76" fill="none" stroke="#FFFFFF" stroke-width="1.5199" d="M654.514,83.21H0.413L103.083,1.135H739.27v663.789
		l-83.574,84.971V85.676L654.514,83.21z"/>
	<path id="path78" fill="#026B9A" d="M655.227,82.688l84.775-82.686"/>
	<path id="path80" fill="none" stroke="#FFFFFF" stroke-width="1.5199" d="M655.227,82.688l84.775-82.686"/>
	<path id="path82" d="M333.118,749.895V85.676"/>
	<path id="path84" fill="none" stroke="#FFFFFF" stroke-width="1.5199" d="M333.118,749.895V85.676"/>
</g>
</svg>
