<?xml version="1.0" encoding="utf-8"?>
<!-- Generator: Adobe Illustrator 16.0.0, SVG Export Plug-In . SVG Version: 6.00 Build 0)  -->
<!DOCTYPE svg PUBLIC "-//W3C//DTD SVG 1.1//EN" "http://www.w3.org/Graphics/SVG/1.1/DTD/svg11.dtd">
<svg version="1.1"
	 id="图层_1" xmlns:dc="http://purl.org/dc/elements/1.1/" xmlns:cc="http://creativecommons.org/ns#" xmlns:rdf="http://www.w3.org/1999/02/22-rdf-syntax-ns#"
	 xmlns="http://www.w3.org/2000/svg" xmlns:xlink="http://www.w3.org/1999/xlink" x="0px" y="0px" width="76px" height="46px"
	 viewBox="0 0 76 46" enable-background="new 0 0 76 46" xml:space="preserve">
<path fill="#00BCF2" d="M3.182,45.896C1.527,45.566,0,44.064,0,42.766c0-0.198,1.147-1.542,3.203-3.742l3.204-3.432l0.04-16.9
	l0.04-16.901l0.455-0.563c0.25-0.31,0.72-0.701,1.044-0.872l0.588-0.309l29.199-0.039c20.237-0.026,29.381,0.01,29.787,0.12
	c0.709,0.19,1.733,1.078,2.011,1.74c0.163,0.392,0.201,3.504,0.201,17.117v16.637l3.095,3.364c3.35,3.646,3.415,3.755,2.892,4.777
	c-0.438,0.858-0.978,1.364-1.925,1.809l-0.855,0.401l-34.591,0.024C19.365,46.01,3.522,45.965,3.182,45.896L3.182,45.896z
	 M44.198,43.014c0.271-0.196,0.267-0.227-0.104-0.858c-0.214-0.358-0.594-0.938-0.85-1.288l-0.461-0.632l-5.329,0.002
	c-2.931,0.001-5.398,0.05-5.484,0.11c-0.083,0.061-0.481,0.64-0.881,1.287c-0.689,1.116-0.712,1.188-0.45,1.379
	C31.048,43.313,43.791,43.313,44.198,43.014L44.198,43.014z M67.384,19.351c0-17.667,0.039-16.872-0.816-17.26
	C66,1.833,10.328,1.833,9.76,2.091c-0.853,0.388-0.815-0.408-0.815,17.26v16.262h29.22h29.219L67.384,19.351L67.384,19.351z"/>
</svg>
