<?xml version="1.0" encoding="utf-8"?>
<!-- Generator: Adobe Illustrator 16.0.0, SVG Export Plug-In . SVG Version: 6.00 Build 0)  -->
<!DOCTYPE svg PUBLIC "-//W3C//DTD SVG 1.1//EN" "http://www.w3.org/Graphics/SVG/1.1/DTD/svg11.dtd">
<svg version="1.1"
	 id="svg2" xmlns:dc="http://purl.org/dc/elements/1.1/" xmlns:cc="http://creativecommons.org/ns#" xmlns:rdf="http://www.w3.org/1999/02/22-rdf-syntax-ns#" xmlns:svg="http://www.w3.org/2000/svg"
	 xmlns="http://www.w3.org/2000/svg" xmlns:xlink="http://www.w3.org/1999/xlink" x="0px" y="0px" width="78px" height="53px"
	 viewBox="0 0 78 53" enable-background="new 0 0 78 53" xml:space="preserve">
<g id="g12" transform="scale(0.1,0.1)">
	<path id="path22" fill="#02709F" d="M760.938,0.005L780,24.741l-51.641,282.993l-23.594-14.551L760.938,0.005"/>
	<path id="path24" fill="none" stroke="#FFFFFF" stroke-width="3.9999" d="M760.938,0.005L780,24.741l-51.641,282.993
		l-23.594-14.551L760.938,0.005z"/>
	<path id="path26" d="M209.126,293.184l21.323,14.551h497.91l-23.594-14.551H209.126"/>
	<path id="path28" fill="none" stroke="#FFFFFF" stroke-width="2" d="M209.126,293.184l21.323,14.551h497.91l-23.594-14.551H209.126
		z"/>
	<path id="path30" fill="#02709F" d="M709.297,316.152v49.844l-12.92,11.309c0,0-30.127,9.043-23.584,27.09L537.773,530v-55
		L709.297,316.152"/>
	<path id="path32" fill="none" stroke="#FFFFFF" stroke-width="3.9999" d="M709.297,316.152v49.844l-12.92,11.309
		c0,0-30.127,9.043-23.584,27.09L537.773,530v-55L709.297,316.152z"/>
	<path id="path34" fill="#02709F" d="M0.005,530h537.769v-55H0.005V530z"/>
	<path id="path36" fill="none" stroke="#FFFFFF" stroke-width="3.9999" d="M0.005,475v55h537.769v-55H0.005"/>
	<path id="path38" fill="#02709F" d="M214.775,319.434l494.521-3.281L537.773,475H0.005L214.775,319.434"/>
	<path id="path40" fill="none" stroke="#FFFFFF" stroke-width="3.9999" d="M214.775,319.434l494.521-3.281L537.773,475H0.005
		L214.775,319.434z"/>
	<path id="path42" fill="#02709F" d="M704.766,293.184L760.938,0.005H273.086l-63.96,293.179H704.766"/>
	<path id="path44" fill="none" stroke="#FFFFFF" stroke-width="3.9999" d="M704.766,293.184L760.938,0.005H273.086l-63.96,293.179
		H704.766z"/>
	<path id="path46" fill="#02709F" d="M663.467,260.386l43.232-220.225H309.98l-43.247,220.225H663.467"/>
	<path id="path48" fill="none" stroke="#FFFFFF" stroke-width="3.9999" d="M663.467,260.386l43.232-220.225H309.98l-43.247,220.225
		H663.467z"/>
	<path id="path50" fill="none" stroke="#FFFFFF" stroke-width="1.0001" stroke-linejoin="round" d="M226.338,323.047L101.65,423.847
		"/>
	<path id="path52" fill="none" stroke="#FFFFFF" stroke-width="1.0001" stroke-linejoin="round" d="M266.484,323.047l-124.8,100.801
		"/>
	<path id="path54" fill="none" stroke="#FFFFFF" stroke-width="1.0001" stroke-linejoin="round" d="M306.519,323.047
		L181.724,423.847"/>
	<path id="path56" fill="none" stroke="#FFFFFF" stroke-width="1.0001" stroke-linejoin="round" d="M346.553,323.047
		L221.758,423.847"/>
	<path id="path58" fill="none" stroke="#FFFFFF" stroke-width="1.0001" stroke-linejoin="round" d="M386.592,323.047
		L261.909,423.847"/>
	<path id="path60" fill="none" stroke="#FFFFFF" stroke-width="1.0001" stroke-linejoin="round" d="M426.621,323.047
		L301.948,423.847"/>
	<path id="path62" fill="none" stroke="#FFFFFF" stroke-width="1.0001" stroke-linejoin="round" d="M466.777,323.047
		l-124.79,100.801"/>
	<path id="path64" fill="none" stroke="#FFFFFF" stroke-width="1.0001" stroke-linejoin="round" d="M506.699,323.047
		L382.017,423.847"/>
	<path id="path66" fill="none" stroke="#FFFFFF" stroke-width="1.0001" stroke-linejoin="round" d="M546.855,323.047
		L422.051,423.847"/>
	<path id="path68" fill="none" stroke="#FFFFFF" stroke-width="1.0001" stroke-linejoin="round" d="M586.768,323.047
		L462.207,423.847"/>
	<path id="path70" fill="none" stroke="#FFFFFF" stroke-width="1.0001" stroke-linejoin="round" d="M626.914,323.047
		L502.119,423.847"/>
	<path id="path72" fill="none" stroke="#FFFFFF" stroke-width="1.0001" stroke-linejoin="round" d="M667.061,323.047
		L542.266,423.847"/>
	<path id="path74" fill="none" stroke="#FFFFFF" stroke-width="1.0001" stroke-linejoin="round" d="M115.537,413.203h444.189"/>
	<path id="path76" fill="none" stroke="#FFFFFF" stroke-width="1.0001" stroke-linejoin="round" d="M145.464,390.156h437.212"/>
	<path id="path78" fill="none" stroke="#FFFFFF" stroke-width="1.0001" stroke-linejoin="round" d="M176.401,367.109h436.06"/>
	<path id="path80" fill="none" stroke="#FFFFFF" stroke-width="1.0001" stroke-linejoin="round" d="M204.038,343.828h439.497"/>
</g>
</svg>
