<?xml version="1.0" encoding="utf-8"?>
<!-- Generator: Adobe Illustrator 16.0.0, SVG Export Plug-In . SVG Version: 6.00 Build 0)  -->
<!DOCTYPE svg PUBLIC "-//W3C//DTD SVG 1.1//EN" "http://www.w3.org/Graphics/SVG/1.1/DTD/svg11.dtd">
<svg version="1.1"
	 id="svg2" xmlns:dc="http://purl.org/dc/elements/1.1/" xmlns:cc="http://creativecommons.org/ns#" xmlns:rdf="http://www.w3.org/1999/02/22-rdf-syntax-ns#" xmlns:svg="http://www.w3.org/2000/svg"
	 xmlns="http://www.w3.org/2000/svg" xmlns:xlink="http://www.w3.org/1999/xlink" x="0px" y="0px" width="78px" height="78px"
	 viewBox="0 0 78 78" enable-background="new 0 0 78 78" xml:space="preserve">
<g id="g12" transform="scale(0.1,0.1)">
	<path id="path22" fill="#087FBF" d="M14.995,765.002h665.664V102.605H14.995V765.002z"/>
	<path id="path24" fill="none" stroke="#FFFFFF" stroke-width="4" d="M14.995,765.002h665.664V102.605H14.995V765.002z"/>
	<path id="path26" fill="#087FBF" d="M764.995,682.16V19.758l-84.336,82.847v662.397L764.995,682.16"/>
	<path id="path28" fill="none" stroke="#FFFFFF" stroke-width="4" d="M764.995,682.16V19.758l-84.336,82.847v662.397L764.995,682.16
		z"/>
	<path id="path30" fill="#087FBF" d="M130.586,15.002L14.995,97.839h665.664l84.336-82.837H130.586"/>
	<path id="path32" fill="none" stroke="#FFFFFF" stroke-width="4" d="M130.586,15.002L14.995,97.839h665.664l84.336-82.837H130.586z
		"/>
	<path id="path34" fill="#087FBF" d="M680.659,102.605H14.995"/>
	<path id="path36" fill="none" stroke="#FFFFFF" stroke-width="4" d="M680.659,102.605H14.995"/>
	<path id="path38" fill="#087FBF" d="M680.659,102.605l84.336-82.847"/>
	<path id="path40" fill="none" stroke="#FFFFFF" stroke-width="4" d="M680.659,102.605l84.336-82.847"/>
	<path id="path42" fill="#087FBF" d="M680.659,102.605v662.397"/>
	<path id="path44" fill="none" stroke="#FFFFFF" stroke-width="4" d="M680.659,102.605v662.397"/>
	<path id="path46" fill="#087FBF" d="M680.659,102.605H14.995"/>
	<path id="path48" fill="none" stroke="#FFFFFF" stroke-width="4" d="M680.659,102.605H14.995"/>
	<path id="path50" fill="#087FBF" d="M680.659,102.605l84.336-82.847"/>
	<path id="path52" fill="none" stroke="#FFFFFF" stroke-width="4" d="M680.659,102.605l84.336-82.847"/>
	<path id="path54" fill="#FFFFFF" d="M362.31,337.58V194.158h24.346l-36.045-53.975l-36.045,53.975h24.521V337.58H362.31"/>
	<path id="path56" fill="#FFFFFF" d="M288.804,358.176L187.148,256.985l17.085-17.207l-63.765-13.037l12.915,63.682l17.271-17.207
		l101.831,101.386L288.804,358.176"/>
	<path id="path58" fill="#FFFFFF" d="M251.616,424.504H107.725v-24.238l-54.39,35.879l54.39,35.859v-24.229h143.892V424.504"/>
	<path id="path60" fill="#FFFFFF" d="M272.485,497.678L170.654,598.869l-17.271-17.012l-12.915,63.662l63.765-13.018l-17.085-17.031
		l101.655-101.572L272.485,497.678"/>
	<path id="path62" fill="#FFFFFF" d="M339.087,534.875v143.057h-24.521l36.045,54.17l36.045-54.17H362.31V534.875H339.087"/>
	<path id="path64" fill="#FFFFFF" d="M412.593,513.899l101.67,101.572l-17.109,17.031l63.584,13.018l-12.725-63.662l-17.451,17.012
		l-101.65-101.191L412.593,513.899"/>
	<path id="path66" fill="#FFFFFF" d="M449.614,447.776h144.063v24.229l54.395-35.859l-54.395-35.879v24.238H449.614V447.776"/>
	<path id="path68" fill="#FFFFFF" d="M428.911,374.602l101.65-101.386l17.451,17.207l12.725-63.682l-63.584,13.037l17.109,17.207
		l-101.67,101.191L428.911,374.602"/>
	<path id="path70" fill="#FFFFFF" d="M439.106,557.58c67.813-47.471,84.141-140.586,36.816-208.271
		c-47.676-67.676-141.221-84.14-209.18-36.65c-67.803,47.295-84.341,140.4-36.846,207.89
		C277.417,588.41,371.128,604.69,439.106,557.58"/>
	<path id="path72" fill="none" stroke="#087FBF" stroke-width="4" d="M439.106,557.58c67.813-47.471,84.141-140.586,36.816-208.271
		c-47.676-67.676-141.221-84.14-209.18-36.65c-67.803,47.295-84.341,140.4-36.846,207.89
		C277.417,588.41,371.128,604.69,439.106,557.58z"/>
</g>
</svg>
