<?xml version="1.0" encoding="utf-8"?>
<!-- Generator: Adobe Illustrator 16.0.0, SVG Export Plug-In . SVG Version: 6.00 Build 0)  -->
<!DOCTYPE svg PUBLIC "-//W3C//DTD SVG 1.1//EN" "http://www.w3.org/Graphics/SVG/1.1/DTD/svg11.dtd">
<svg version="1.1"
	 id="svg2" xmlns:dc="http://purl.org/dc/elements/1.1/" xmlns:cc="http://creativecommons.org/ns#" xmlns:rdf="http://www.w3.org/1999/02/22-rdf-syntax-ns#" xmlns:svg="http://www.w3.org/2000/svg"
	 xmlns="http://www.w3.org/2000/svg" xmlns:xlink="http://www.w3.org/1999/xlink" x="0px" y="0px" width="78px" height="40px"
	 viewBox="0 0 78 40" enable-background="new 0 0 78 40" xml:space="preserve">
<g id="g12" transform="scale(0.1,0.1)">
	<path id="path14" fill="#087BBB" d="M10,200.422l229.702-185.42H770l-190.078,185.42H10"/>
	<path id="path16" fill="none" stroke="#FFFFFF" stroke-width="4" d="M10,200.422l229.702-185.42H770l-190.078,185.42H10z"/>
	<path id="path18" d="M530.986,112.957l14.121-14.116l44.248,20.039l-77.559,22.227l17.627-23.071H388.242l5.078-5.078H530.986"/>
	<path id="path20" d="M446.25,65.71l-5.088,5H297.227l-21.821,16.934l-37.07-18.135l84.985-24.834L302.319,65.71H446.25"/>
	<path id="path22" d="M366.855,145.613l-5.098,5.093H217.114l-21.816,16.201l-38.398-18.101l87.002-24.141l-19.653,20.947H366.855"
		/>
	<path id="path24" d="M612.51,46.204l14.121-14.116l44.092,19.331L593.33,73.655l16.904-22.383H468.428l4.932-5.068H612.51"/>
	<path id="path26" fill="#FFFFFF" d="M531.689,117.8l14.131-14.106l38.594,16.592l-77.402,22.236l19.58-19.629H384.785l5.088-5.093
		H531.689"/>
	<path id="path28" fill="#FFFFFF" d="M441.318,70.569l-5.098,4.995H294.404l-14.126,14.111l-38.413-16.719l77.275-22.012
		l-19.653,19.624H441.318"/>
	<path id="path30" fill="#087BBB" d="M579.922,384.719L770,179.866V15.334L579.922,200.422V384.719"/>
	<path id="path32" fill="none" stroke="#FFFFFF" stroke-width="4" d="M579.922,384.719L770,179.866V15.334L579.922,200.422V384.719z
		"/>
	<path id="path34" fill="#FFFFFF" d="M361.289,150.549l-5.098,5.005H214.375l-14.131,14.106l-38.486-16.714l77.275-22.017
		l-19.658,19.619H361.289"/>
	<path id="path36" fill="#FFFFFF" d="M612.51,51.047l14.121-14.097l38.604,16.577l-77.539,22.231l19.727-19.614H465.586l5.098-5.098
		H612.51"/>
	<path id="path38" fill="none" stroke="#000000" stroke-width="2.8" stroke-linecap="round" d="M603.232,56.956l-17.344,17.393"/>
	<path id="path40" fill="none" stroke="#000000" stroke-width="1.68" stroke-linecap="round" d="M518.34,127.937l-10.43,10.42"/>
	<path id="path42" fill="none" stroke="#000000" stroke-width="1.68" stroke-linecap="round" d="M390.605,116.829l-5.039,4.136"/>
	<path id="path44" fill="none" stroke="#000000" stroke-width="2.8" stroke-linecap="round" d="M473.77,47.942l-7.607,6.895"/>
	<path id="path46" fill="#087BBB" d="M10.781,385.002h569.141v-184.58H10.781V385.002z"/>
	<path id="path48" fill="none" stroke="#FFFFFF" stroke-width="4" d="M10.781,385.002h569.141v-184.58H10.781V385.002z"/>
	<path id="path50" fill="#FFFFFF" d="M162.095,270.442v-36.914h6.284l-9.258-13.789l-9.253,13.789h6.274v36.914H162.095"/>
	<path id="path52" fill="#FFFFFF" d="M143.242,275.725l-26.084-26.035l4.429-4.424l-16.45-3.232l3.32,16.357l4.438-4.434
		l26.167,26.045L143.242,275.725"/>
	<path id="path54" fill="#FFFFFF" d="M133.667,292.805H96.782v-6.172l-13.97,9.141l13.97,9.307v-6.328h36.885V292.805"/>
	<path id="path56" fill="#FFFFFF" d="M139.063,311.711l-26.167,26.055l-4.438-4.424l-3.32,16.348l16.45-3.242l-4.429-4.434
		l26.084-26.201L139.063,311.711"/>
	<path id="path58" fill="#FFFFFF" d="M156.143,321.252v36.777h-6.274l9.253,13.955l9.258-13.955h-6.284v-36.777H156.143"/>
	<path id="path60" fill="#FFFFFF" d="M179.189,280.002l26.089-26.045l4.419,4.434l3.33-16.357l-16.377,3.232l4.429,4.424
		L175,275.725L179.189,280.002"/>
	<path id="path62" fill="#FFFFFF" d="M181.724,326.721c17.251-12.041,21.514-35.83,9.36-53.193
		c-12.134-17.246-35.947-21.494-53.281-9.287c-17.251,12.041-21.426,35.83-9.37,53.056
		C140.576,334.68,164.399,338.772,181.724,326.721"/>
	<path id="path64" fill="#FFFFFF" d="M178.394,315.813l26.074,26.201l-4.424,4.434l16.377,3.242l-3.33-16.348l-4.424,4.424
		l-26.089-26.055L178.394,315.813"/>
	<path id="path66" fill="none" stroke="#FFFFFF" stroke-width="10" d="M180.991,296.291h243.032"/>
	<path id="path68" fill="#FFFFFF" d="M439.971,312.551v25.85h-4.414l6.533,9.707l6.514-9.707h-4.404v-25.85H439.971"/>
	<path id="path70" fill="#FFFFFF" d="M453.193,308.83l18.34,18.32l-3.086,3.066l11.396,2.285l-2.295-11.543l-3.057,3.232
		l-18.34-18.311L453.193,308.83"/>
	<path id="path72" fill="#FFFFFF" d="M459.883,296.897h25.859v4.404l9.736-6.504l-9.736-6.504v4.395h-25.859V296.897"/>
	<path id="path74" fill="#FFFFFF" d="M456.152,283.703l18.34-18.32l3.057,3.232l2.295-11.543l-11.396,2.295l3.086,3.057
		l-18.34,18.33L456.152,283.703"/>
	<path id="path76" fill="#FFFFFF" d="M444.199,277.024v-25.83h4.404l-6.514-9.727l-6.533,9.727h4.414v25.83H444.199"/>
	<path id="path78" fill="#FFFFFF" d="M428.027,305.881l-18.184,18.311l-3.232-3.232l-2.305,11.543l11.553-2.285l-3.066-3.066
		l18.184-18.32L428.027,305.881"/>
	<path id="path80" fill="#FFFFFF" d="M426.309,273.196c-12.051,8.398-15.01,25.136-6.582,37.177
		c8.408,12.051,25.166,14.98,37.236,6.592c12.217-8.555,15.166-25.156,6.582-37.178
		C455.156,267.581,438.369,264.641,426.309,273.196"/>
	<path id="path82" fill="#FFFFFF" d="M428.613,280.754l-18.32-18.33l3.213-3.057l-11.553-2.295l2.314,11.543l3.057-3.232
		l18.34,18.32L428.613,280.754"/>
</g>
</svg>
