<?xml version="1.0" encoding="utf-8"?>
<!-- Generator: Adobe Illustrator 16.0.0, SVG Export Plug-In . SVG Version: 6.00 Build 0)  -->
<!DOCTYPE svg PUBLIC "-//W3C//DTD SVG 1.1//EN" "http://www.w3.org/Graphics/SVG/1.1/DTD/svg11.dtd">
<svg version="1.1"
	 id="svg2" xmlns:dc="http://purl.org/dc/elements/1.1/" xmlns:cc="http://creativecommons.org/ns#" xmlns:rdf="http://www.w3.org/1999/02/22-rdf-syntax-ns#" xmlns:svg="http://www.w3.org/2000/svg"
	 xmlns="http://www.w3.org/2000/svg" xmlns:xlink="http://www.w3.org/1999/xlink" x="0px" y="0px" width="76px" height="37px"
	 viewBox="0 0 76 37" enable-background="new 0 0 76 37" xml:space="preserve">
	<g id="g12" transform="scale(0.1,0.1)">
		<path id="path14" fill="#087BBB" d="M0,162.471L200.718,0h463.354L497.979,162.471H0"/>
		<path id="path16" fill="none" stroke="#FFFFFF" stroke-width="4" d="M0,162.471L200.718,0h463.354L497.979,162.471H0z"/>
		<path id="path18" fill="#087BBB" d="M497.979,369.824L664.072,200.41V0.283L497.979,162.471V369.824"/>
		<path id="path20" fill="none" stroke="#FFFFFF" stroke-width="4" d="M497.979,369.824L664.072,200.41V0.283L497.979,162.471
		V369.824z"/>
		<path id="path22" fill="#087BBB" d="M0.654,370h497.324V162.471H0.654V370z"/>
		<path id="path24" fill="none" stroke="#FFFFFF" stroke-width="4" d="M0.654,370h497.324V162.471H0.654V370z"/>
		<path id="path26" fill="none" stroke="#FFFFFF" stroke-width="4.5" stroke-linecap="round" stroke-miterlimit="1" d="
		M469.941,272.051c0,0-33.086,85.195-72.871-0.225c-39.707-85.361-72.91-0.195-72.91-0.195s-33.066,85.244-72.808-0.156
		c-39.731-85.391-72.695,0.527-72.695,0.527s-33.008,85.244-72.793-0.176c-39.736-85.361-72.72-0.264-72.72-0.264"/>
		<path id="path28" fill="none" stroke="#FFFFFF" stroke-width="9" stroke-linecap="round" stroke-miterlimit="1" d="M33.145,272.051
		c0,0,33.096,85.195,72.866-0.225c39.736-85.361,72.92-0.195,72.92-0.195s33.052,85.244,72.788-0.156
		c39.746-85.391,72.715,0.527,72.715,0.527s33.008,85.244,72.754-0.176c39.785-85.361,72.754-0.264,72.754-0.264"/>
		<path id="path30" fill="none" stroke="#231F20" stroke-width="4.5" stroke-linecap="round" stroke-miterlimit="1" d="
		M477.607,272.08c0,0-33.086,85.166-72.9-0.254c-39.707-85.361-72.891-0.195-72.891-0.195s-33.042,85.244-72.788-0.127
		c-39.746-85.42-72.715,0.527-72.715,0.527s-32.988,85.215-72.793-0.205c-39.717-85.361-72.71-0.215-72.71-0.215"/>
		<path id="path32" fill="none" stroke="#231F20" stroke-width="9" stroke-linecap="round" stroke-miterlimit="1" d="M40.811,272.08
		c0,0,33.076,85.166,72.866-0.254c39.756-85.361,72.896-0.195,72.896-0.195s33.076,85.244,72.817-0.127
		c39.741-85.42,72.681,0.527,72.681,0.527s33.027,85.215,72.822-0.205c39.727-85.361,72.715-0.215,72.715-0.215"/>
		<path id="path34" fill="none" stroke="#FFFFFF" stroke-width="4.5" stroke-linecap="round" stroke-miterlimit="1" d="
		M469.941,272.051c0,0-33.086,85.195-72.871-0.225c-39.707-85.361-72.91-0.195-72.91-0.195s-33.066,85.244-72.808-0.156
		c-39.731-85.391-72.695,0.527-72.695,0.527s-33.008,85.244-72.793-0.176c-39.736-85.361-72.72-0.264-72.72-0.264"/>
		<path id="path36" fill="none" stroke="#FFFFFF" stroke-width="9" stroke-linecap="round" stroke-miterlimit="1" d="M33.145,272.051
		c0,0,33.096,85.195,72.866-0.225c39.736-85.361,72.92-0.195,72.92-0.195s33.052,85.244,72.788-0.156
		c39.746-85.391,72.715,0.527,72.715,0.527s33.008,85.244,72.754-0.176c39.785-85.361,72.754-0.264,72.754-0.264"/>
		<path id="path38" fill="none" stroke="#231F20" stroke-width="4.5" stroke-linecap="round" stroke-miterlimit="1" d="
		M477.607,272.08c0,0-33.086,85.166-72.9-0.254c-39.707-85.361-72.891-0.195-72.891-0.195s-33.042,85.244-72.788-0.127
		c-39.746-85.42-72.715,0.527-72.715,0.527s-32.988,85.215-72.793-0.205c-39.717-85.361-72.71-0.215-72.71-0.215"/>
		<path id="path40" fill="none" stroke="#231F20" stroke-width="9" stroke-linecap="round" stroke-miterlimit="1" d="M40.811,272.08
		c0,0,33.076,85.166,72.866-0.254c39.756-85.361,72.896-0.195,72.896-0.195s33.076,85.244,72.817-0.127
		c39.741-85.42,72.681,0.527,72.681,0.527s33.027,85.215,72.822-0.205c39.727-85.361,72.715-0.215,72.715-0.215"/>
		<path id="path42" fill="none" stroke="#FFFFFF" stroke-width="4.5" stroke-linecap="round" stroke-miterlimit="1" d="
		M469.941,272.051c0,0-33.086,85.195-72.871-0.225c-39.707-85.361-72.91-0.195-72.91-0.195s-33.066,85.244-72.808-0.156
		c-39.731-85.391-72.695,0.527-72.695,0.527s-33.008,85.244-72.793-0.176c-39.736-85.361-72.72-0.264-72.72-0.264"/>
		<path id="path44" fill="none" stroke="#FFFFFF" stroke-width="9" stroke-linecap="round" stroke-miterlimit="1" d="M33.145,272.051
		c0,0,33.096,85.195,72.866-0.225c39.736-85.361,72.92-0.195,72.92-0.195s33.052,85.244,72.788-0.156
		c39.746-85.391,72.715,0.527,72.715,0.527s33.008,85.244,72.754-0.176c39.785-85.361,72.754-0.264,72.754-0.264"/>
		<g id="g46" transform="scale(10,10)" style="font-variant:normal;font-weight:bold;font-size:14.2306px;font-family:Helvetica;-inkscape-font-specification:Helvetica-Bold;writing-mode:lr-tb;fill:#ffffff;fill-opacity:1;fill-rule:nonzero;stroke:none">
			<text transform="matrix(0.8469 0 -0.7578 0.6525 8.1719 11.5151)">L</text>
			<text transform="matrix(0.8469 0 -0.7578 0.6525 14.5742 11.5151)">W</text>
			<text transform="matrix(0.8469 0 -0.7578 0.6525 25.2246 11.5151)">A</text>
			<text transform="matrix(0.8469 0 -0.7578 0.6525 33.9317 11.5151)">P</text>
			<text transform="matrix(0.8469 0 -0.7578 0.6525 41.9668 11.5151)">P</text>
		</g>
	</g>
</svg>
