<?xml version="1.0" encoding="utf-8"?>
<!-- Generator: Adobe Illustrator 16.0.0, SVG Export Plug-In . SVG Version: 6.00 Build 0)  -->
<!DOCTYPE svg PUBLIC "-//W3C//DTD SVG 1.1//EN" "http://www.w3.org/Graphics/SVG/1.1/DTD/svg11.dtd">
<svg version="1.1"
	 id="图层_1" xmlns:dc="http://purl.org/dc/elements/1.1/" xmlns:cc="http://creativecommons.org/ns#" xmlns:rdf="http://www.w3.org/1999/02/22-rdf-syntax-ns#"
	 xmlns="http://www.w3.org/2000/svg" xmlns:xlink="http://www.w3.org/1999/xlink" x="0px" y="0px" width="57px" height="77px"
	 viewBox="0 0 57 77" enable-background="new 0 0 57 77" xml:space="preserve">
<path fill="#00BCF2" d="M22.171,71.075c-5.156-5.178-5.917-5.999-6.004-6.492c-0.305-1.715,1.137-3.089,2.893-2.76
	c0.479,0.09,1.051,0.589,3.699,3.219l3.135,3.11V50.115V32.078l-8.909,8.908l-8.91,8.91l4.267,0.075
	c4.18,0.074,4.277,0.082,4.851,0.438c0.614,0.384,1.146,1.3,1.146,1.978c0,0.683-0.532,1.598-1.146,1.979l-0.584,0.363H8.304H0
	v-8.406c0-8.257,0.006-8.416,0.311-8.826c0.586-0.786,1.077-1.04,2.003-1.04c0.645,0,0.974,0.083,1.33,0.337
	c0.918,0.655,0.962,0.913,0.962,5.648v4.281L15.25,36.081l10.644-10.646v-5.555v-5.556l-0.641-0.278
	c-1.245-0.537-2.653-1.795-3.396-3.034c-1.005-1.676-1.246-4.193-0.582-6.074c1.498-4.245,6.477-6.193,10.415-4.077
	c1.008,0.539,2.544,2.082,3.029,3.039c1.854,3.661,0.496,8.011-3.089,9.895l-1.057,0.556v5.542v5.542l10.869,10.872l10.871,10.871
	v-4.51c0-4.313,0.015-4.534,0.322-5.078c0.635-1.132,2.151-1.546,3.164-0.865c0.279,0.189,0.663,0.574,0.854,0.854L57,38.087
	l-0.038,8.32l-0.04,8.32l-7.775,0.043c-4.277,0.024-8.072,0.002-8.429-0.049c-0.455-0.064-0.837-0.258-1.245-0.627
	c-1.31-1.184-1.051-2.771,0.651-4c0.022-0.016,1.892-0.066,4.153-0.114l4.115-0.084l-8.908-8.911l-8.908-8.908v17.969v17.968
	l2.979-2.974c1.642-1.637,3.176-3.046,3.409-3.133c1.016-0.379,2.161-0.009,2.782,0.897c0.416,0.615,0.466,1.858,0.093,2.422
	C39.572,65.629,28.287,77,28.153,77C28.109,77,25.417,74.334,22.171,71.075L22.171,71.075z"/>
</svg>
