<?xml version="1.0" encoding="utf-8"?>
<!-- Generator: Adobe Illustrator 16.0.0, SVG Export Plug-In . SVG Version: 6.00 Build 0)  -->
<!DOCTYPE svg PUBLIC "-//W3C//DTD SVG 1.1//EN" "http://www.w3.org/Graphics/SVG/1.1/DTD/svg11.dtd">
<svg version="1.1"
	 id="svg2" xmlns:dc="http://purl.org/dc/elements/1.1/" xmlns:cc="http://creativecommons.org/ns#" xmlns:rdf="http://www.w3.org/1999/02/22-rdf-syntax-ns#" xmlns:svg="http://www.w3.org/2000/svg"
	 xmlns="http://www.w3.org/2000/svg" xmlns:xlink="http://www.w3.org/1999/xlink" x="0px" y="0px" width="80px" height="52px"
	 viewBox="0 0 80 52" enable-background="new 0 0 80 52" xml:space="preserve">
<g id="g10" transform="matrix(1.25,0,0,-1.25,0,31.8625)">
	<g id="g12" transform="scale(0.1,0.1)">
		<path id="path22" fill="#087FBF" d="M0-161.096h571.695v333.07H0V-161.096z"/>
		<path id="path24" fill="none" stroke="#FFFFFF" stroke-width="4" d="M0-161.096h571.695v333.07H0V-161.096z"/>
		<path id="path26" fill="#087FBF" d="M640-61.19l-68.305-99.906v333.07L640,254.9V-61.19"/>
		<path id="path28" fill="none" stroke="#FFFFFF" stroke-width="4" d="M640-61.19l-68.305-99.906v333.07L640,254.9V-61.19z"/>
		<path id="path30" fill="#087FBF" d="M102.734,254.9H640l-68.305-82.926H0L102.734,254.9"/>
		<path id="path32" fill="none" stroke="#FFFFFF" stroke-width="4" d="M102.734,254.9H640l-68.305-82.926H0L102.734,254.9z"/>
		<path id="path34" fill="#FFFFFF" d="M197.172-1.909L74.461-1.971v19.43l122.711,0.039l0.031,30.352l71-40.195l-71-40.07
			L197.172-1.909"/>
		<path id="path36" fill="#FFFFFF" d="M452.414-1.909L329.828-1.971v19.43l122.586,0.039l0.023,30.352l71.141-40.195l-71.141-40.07
			L452.414-1.909"/>
		<path id="path38" fill="#FFFFFF" d="M431.211,96.146L328.273,29.365l-10.492,16.297l102.82,66.766l-16.688,25.547l81.648,4.965
			l-37.609-72.332L431.211,96.146"/>
		<path id="path40" fill="#FFFFFF" d="M431.211-79.354L328.273-12.581l-10.492-16.547l102.82-66.492l-16.688-25.555l81.648-4.984
			l-37.609,72.336L431.211-79.354"/>
	</g>
</g>
</svg>
