<?xml version="1.0" encoding="utf-8"?>
<!-- Generator: Adobe Illustrator 16.0.0, SVG Export Plug-In . SVG Version: 6.00 Build 0)  -->
<!DOCTYPE svg PUBLIC "-//W3C//DTD SVG 1.1//EN" "http://www.w3.org/Graphics/SVG/1.1/DTD/svg11.dtd">
<svg version="1.1"
	 id="svg2" xmlns:dc="http://purl.org/dc/elements/1.1/" xmlns:cc="http://creativecommons.org/ns#" xmlns:rdf="http://www.w3.org/1999/02/22-rdf-syntax-ns#" xmlns:svg="http://www.w3.org/2000/svg"
	 xmlns="http://www.w3.org/2000/svg" xmlns:xlink="http://www.w3.org/1999/xlink" x="0px" y="0px" width="68px" height="78px"
	 viewBox="0 0 68 78" enable-background="new 0 0 68 78" xml:space="preserve">
<g id="g12" transform="scale(0.1,0.1)">
	<path id="path22" fill="#02709F" d="M534.851,765c14.482,0,26.172-11.689,26.172-25.811V420.635
		c0-14.502-11.689-26.182-26.172-26.182H40.984c-14.316,0-25.986,11.68-25.986,26.182v318.555c0,14.121,11.67,25.811,25.986,25.811
		H534.851"/>
	<path id="path24" fill="none" stroke="#FFFFFF" stroke-width="3.9999" d="M534.851,765c14.482,0,26.172-11.689,26.172-25.811
		V420.635c0-14.502-11.689-26.182-26.172-26.182H40.984c-14.316,0-25.986,11.68-25.986,26.182v318.555
		c0,14.121,11.67,25.811,25.986,25.811H534.851z"/>
	<path id="path26" fill="#02709F" d="M561.023,393.73l103.975-104.004H118.962L14.998,393.73H561.023"/>
	<path id="path28" fill="none" stroke="#FFFFFF" stroke-width="3.9999" d="M561.023,393.73l103.975-104.004H118.962L14.998,393.73
		H561.023z"/>
	<path id="path30" fill="#02709F" d="M664.998,660.273V289.727L561.023,393.73v370.547L664.998,660.273"/>
	<path id="path32" fill="none" stroke="#FFFFFF" stroke-width="3.9999" d="M664.998,660.273V289.727L561.023,393.73v370.547
		L664.998,660.273z"/>
	<path id="path34" fill="#02709F" d="M343.376,60.83c-78.457,0-142.158,63.726-142.158,142.393l0.098,126.377
		c1.084,10.146-8.906,20.518-24.141,22.227c-15.039,1.523-31.27-6.074-32.324-16.055l-0.01-125.576
		C144.841,102.461,232.078,15,339.968,15c107.715,0,194.971,87.461,194.971,195.195v136.953c-0.908,9.971-11.816,16.826-27.1,16.211
		c-13.535-0.42-26.426-18.418-25.166-28.574l0.645-131.562C483.318,124.556,422.019,60.83,343.376,60.83"/>
	<path id="path36" fill="none" stroke="#FFFFFF" stroke-width="3.9999" d="M343.376,60.83c-78.457,0-142.158,63.726-142.158,142.393
		l0.098,126.377c1.084,10.146-8.906,20.518-24.141,22.227c-15.039,1.523-31.27-6.074-32.324-16.055l-0.01-125.576
		C144.841,102.461,232.078,15,339.968,15c107.715,0,194.971,87.461,194.971,195.195v136.953c-0.908,9.971-11.816,16.826-27.1,16.211
		c-13.535-0.42-26.426-18.418-25.166-28.574l0.645-131.562C483.318,124.556,422.019,60.83,343.376,60.83z"/>
	<path id="path38" fill="#FFFFFF" d="M287.312,612.08c24.785,0,44.668-25.742,44.668-57.422c0-32.051-19.883-57.793-44.668-57.793
		c-24.59,0-44.658,25.742-44.658,57.793C242.654,586.338,262.722,612.08,287.312,612.08"/>
	<path id="path40" fill="#FFFFFF" d="M300.75,671.347V557.881l-28.066,20.488v113.447L300.75,671.347"/>
</g>
</svg>
