<?xml version="1.0" encoding="utf-8"?>
<!-- Generator: Adobe Illustrator 16.0.0, SVG Export Plug-In . SVG Version: 6.00 Build 0)  -->
<!DOCTYPE svg PUBLIC "-//W3C//DTD SVG 1.1//EN" "http://www.w3.org/Graphics/SVG/1.1/DTD/svg11.dtd">
<svg version="1.1"
	 id="svg2" xmlns:dc="http://purl.org/dc/elements/1.1/" xmlns:cc="http://creativecommons.org/ns#" xmlns:rdf="http://www.w3.org/1999/02/22-rdf-syntax-ns#" xmlns:svg="http://www.w3.org/2000/svg"
	 xmlns="http://www.w3.org/2000/svg" xmlns:xlink="http://www.w3.org/1999/xlink" x="0px" y="0px" width="75px" height="72px"
	 viewBox="0 0 75 72" enable-background="new 0 0 75 72" xml:space="preserve">
<g id="g12" transform="scale(0.1,0.1)">
	<path id="path22" fill="#087FBF" d="M5.515,720h610.283V96.67H5.515V720z"/>
	<path id="path24" fill="none" stroke="#FFFFFF" stroke-width="4" d="M5.515,720h610.283V96.67H5.515V720z"/>
	<path id="path26" fill="#087FBF" d="M749.88,617.011l0.117-616.289L616.609,96.67V720L749.88,617.011"/>
	<path id="path28" fill="none" stroke="#FFFFFF" stroke-width="4" d="M749.88,617.011l0.117-616.289L616.609,96.67V720
		L749.88,617.011z"/>
	<path id="path30" fill="#087FBF" d="M610.105,98.135L749.998,0.723L145.725,0L-0.002,98.135H610.105"/>
	<path id="path32" fill="none" stroke="#FFFFFF" stroke-width="4" d="M610.105,98.135L749.998,0.723L145.725,0L-0.002,98.135
		H610.105z"/>
	<path id="path34" fill="#FFFFFF" d="M98.552,619.472H501.55v-94.287H98.552V619.472z"/>
	<path id="path36" fill="#FFFFFF" d="M98.552,496.484H501.55v-62.217H98.552V496.484z"/>
	<path id="path38" fill="#FFFFFF" d="M98.552,403.486H501.55v-55.664H98.552V403.486z"/>
	<path id="path40" fill="#FFFFFF" d="M98.552,322.148H501.55v-45.205H98.552V322.148z"/>
	<path id="path42" fill="#FFFFFF" d="M98.552,250.166H501.55v-26.748H98.552V250.166z"/>
</g>
</svg>
