<svg version="1.1" id="ilhwsa8q1" xmlns:xml="http://www.w3.org/XML/1998/namespace"
	 xmlns="http://www.w3.org/2000/svg" xmlns:xlink="http://www.w3.org/1999/xlink" x="0px" y="0px" width="76px" height="69px"
	 viewBox="0 0 76 69" enable-background="new 0 0 76 69" xml:space="preserve">
<g>
	<path fill="#A3A3A3" d="M47.145,59.34h-4.142c-0.274,0-0.413-0.275-0.62-0.482c-2.141-2.76-2.484-4.277-2.002-10.28
		c0-0.345-0.346-0.554-0.689-0.482c-2.417,0.482-4.832,0.554-7.178,0.069c-0.345-0.069-0.691,0.138-0.691,0.482
		c0.277,6.071-0.068,7.59-2,10.211c-0.208,0.209-0.276,0.483-0.622,0.483h-4.625c-0.622,0-1.036-0.345-1.036,0.276v0.206
		c0,0.76,0.553,0.896,1.313,0.896h22.292c0.76,0,1.244-0.344,1.244-1.033v0.068C48.318,59.064,47.835,59.34,47.145,59.34z"/>
	<path fill="#B7B7B7" d="M69.232,51.198H2.761C1.242,51.198,0,49.955,0,48.439V2.759C0,1.242,1.242,0,2.761,0h66.471
		c1.52,0,2.762,1.242,2.762,2.759v45.681C71.994,50.023,70.751,51.198,69.232,51.198z"/>
	<path fill="#31333D" d="M71.994,45.747H0V2.898C0,1.311,1.311,0,2.899,0H69.51c1.379,0,2.415,1.104,2.415,2.415v43.333
		L71.994,45.747L71.994,45.747z"/>
	<path fill="#D8D8D8" d="M5.04,68.379l5.729-5.104c0.415-0.209,1.036-0.483,1.242-0.483h46.938c0.275,0,0.762,0.206,1.104,0.414
		l4.559,5.104H4.832"/>
	<g>
		<path fill="#FFFFFF" d="M52.6,67.414H19.189c-0.276,0-0.552-0.208-0.552-0.553v-0.069c0-0.274,0.207-0.552,0.552-0.552h33.479
			c0.275,0,0.553,0.208,0.553,0.552v0.069C53.15,67.139,52.943,67.414,52.6,67.414z"/>
		<path fill="#FFFFFF" d="M11.874,67.414H8.766c-0.275,0-0.552-0.208-0.552-0.553v-0.069c0-0.274,0.208-0.552,0.552-0.552h3.107
			c0.275,0,0.552,0.208,0.552,0.552v0.069C12.425,67.139,12.218,67.414,11.874,67.414z"/>
		<g>
			<path fill="#FFFFFF" d="M16.36,65.205c0,0.138-0.069,0.346-0.208,0.346h-4.693c-0.069,0-0.208-0.208-0.208-0.346l0,0
				c0-0.139,0.069-0.346,0.208-0.346h4.693C16.291,64.859,16.36,65.066,16.36,65.205L16.36,65.205z"/>
			<path fill="#FFFFFF" d="M59.982,65.205c0,0.138-0.067,0.346-0.207,0.346h-4.693c-0.068,0-0.205-0.208-0.205-0.346l0,0
				c0-0.139,0.066-0.346,0.205-0.346h4.693C59.915,64.859,59.982,65.066,59.982,65.205L59.982,65.205z"/>
			<path fill="#FFFFFF" d="M19.673,65.205c0,0.138-0.07,0.346-0.208,0.346h-2.553c-0.069,0-0.208-0.208-0.208-0.346l0,0
				c0-0.139,0.069-0.346,0.208-0.346h2.553C19.603,64.859,19.673,65.066,19.673,65.205L19.673,65.205z"/>
			<path fill="#FFFFFF" d="M22.917,65.205c0,0.138-0.068,0.346-0.206,0.346h-2.554c-0.07,0-0.208-0.208-0.208-0.346l0,0
				c0-0.139,0.069-0.346,0.208-0.346h2.623C22.848,64.859,22.917,65.066,22.917,65.205L22.917,65.205z"/>
			<path fill="#FFFFFF" d="M27.266,65.205c0,0.138-0.069,0.346-0.208,0.346h-2.554c-0.069,0-0.207-0.208-0.207-0.346l0,0
				c0-0.139,0.069-0.346,0.207-0.346h2.554C27.197,64.859,27.266,65.066,27.266,65.205L27.266,65.205z"/>
			<path fill="#FFFFFF" d="M30.579,65.205c0,0.138-0.069,0.346-0.208,0.346h-2.553c-0.068,0-0.207-0.208-0.207-0.346l0,0
				c0-0.139,0.069-0.346,0.207-0.346h2.553C30.51,64.859,30.579,65.066,30.579,65.205L30.579,65.205z"/>
			<path fill="#FFFFFF" d="M34.928,65.205c0,0.138-0.069,0.346-0.207,0.346h-2.554c-0.069,0-0.207-0.208-0.207-0.346l0,0
				c0-0.139,0.069-0.346,0.207-0.346h2.554C34.858,64.859,34.928,65.066,34.928,65.205L34.928,65.205z"/>
			<path fill="#FFFFFF" d="M38.932,65.205c0,0.138-0.068,0.346-0.207,0.346H36.17c-0.069,0-0.207-0.208-0.207-0.346l0,0
				c0-0.139,0.069-0.346,0.207-0.346h2.555C38.861,64.859,38.932,65.066,38.932,65.205L38.932,65.205z"/>
			<path fill="#FFFFFF" d="M42.59,65.205c0,0.138-0.068,0.346-0.207,0.346h-2.555c-0.068,0-0.206-0.208-0.206-0.346l0,0
				c0-0.139,0.069-0.346,0.206-0.346h2.555C42.452,64.859,42.59,65.066,42.59,65.205L42.59,65.205z"/>
			<path fill="#FFFFFF" d="M46.594,65.205c0,0.138-0.07,0.346-0.207,0.346h-2.554c-0.069,0-0.208-0.208-0.208-0.346l0,0
				c0-0.139,0.068-0.346,0.208-0.346h2.554C46.454,64.859,46.594,65.066,46.594,65.205L46.594,65.205z"/>
			<path fill="#FFFFFF" d="M49.838,65.205c0,0.138-0.068,0.346-0.207,0.346h-2.556c-0.069,0-0.206-0.208-0.206-0.346l0,0
				c0-0.139,0.068-0.346,0.206-0.346h2.556C49.77,64.859,49.838,65.066,49.838,65.205L49.838,65.205z"/>
			<path fill="#FFFFFF" d="M54.186,65.205c0,0.138-0.068,0.346-0.207,0.346h-2.554c-0.069,0-0.207-0.208-0.207-0.346l0,0
				c0-0.139,0.069-0.346,0.207-0.346h2.554C54.117,64.859,54.186,65.066,54.186,65.205L54.186,65.205z"/>
		</g>
		<g>
			<path fill="#FFFFFF" d="M15.669,63.825c0,0.067-0.069,0.346-0.207,0.346h-1.795c-0.069,0-0.207-0.276-0.207-0.346l0,0
				c0-0.069,0.068-0.345,0.207-0.345h1.795C15.6,63.48,15.669,63.756,15.669,63.825L15.669,63.825z"/>
			<path fill="#FFFFFF" d="M18.568,63.825c0,0.067-0.069,0.346-0.206,0.346h-1.795c-0.069,0-0.207-0.276-0.207-0.346l0,0
				c0-0.069,0.069-0.345,0.207-0.345h1.795C18.499,63.48,18.568,63.756,18.568,63.825L18.568,63.825z"/>
			<path fill="#FFFFFF" d="M21.813,63.825c0,0.067-0.069,0.346-0.208,0.346h-1.793c-0.069,0-0.208-0.276-0.208-0.346l0,0
				c0-0.069,0.07-0.345,0.208-0.345h1.793C21.744,63.48,21.813,63.756,21.813,63.825L21.813,63.825z"/>
			<path fill="#FFFFFF" d="M24.781,63.825c0,0.067-0.069,0.346-0.207,0.346h-1.795c-0.068,0-0.207-0.276-0.207-0.346l0,0
				c0-0.069,0.069-0.345,0.207-0.345h1.795C24.643,63.48,24.781,63.756,24.781,63.825L24.781,63.825z"/>
			<path fill="#FFFFFF" d="M28.37,63.825c0,0.067-0.068,0.346-0.207,0.346h-1.795c-0.068,0-0.207-0.276-0.207-0.346l0,0
				c0-0.069,0.069-0.345,0.207-0.345h1.795C28.301,63.48,28.37,63.756,28.37,63.825L28.37,63.825z"/>
			<path fill="#FFFFFF" d="M31.27,63.825c0,0.067-0.069,0.346-0.208,0.346h-1.794c-0.069,0-0.207-0.276-0.207-0.346l0,0
				c0-0.069,0.069-0.345,0.207-0.345h1.794C31.201,63.48,31.27,63.756,31.27,63.825L31.27,63.825z"/>
			<path fill="#FFFFFF" d="M34.168,63.825c0,0.067-0.069,0.346-0.207,0.346h-1.795c-0.069,0-0.207-0.276-0.207-0.346l0,0
				c0-0.069,0.069-0.345,0.207-0.345h1.795C34.099,63.48,34.168,63.756,34.168,63.825L34.168,63.825z"/>
			<path fill="#FFFFFF" d="M37.481,63.825c0,0.067-0.069,0.346-0.207,0.346h-1.795c-0.069,0-0.206-0.276-0.206-0.346l0,0
				c0-0.069,0.068-0.345,0.206-0.345h1.795C37.412,63.48,37.481,63.756,37.481,63.825L37.481,63.825z"/>
			<path fill="#FFFFFF" d="M40.727,63.825c0,0.067-0.07,0.346-0.207,0.346h-1.795c-0.068,0-0.207-0.276-0.207-0.346l0,0
				c0-0.069,0.068-0.345,0.207-0.345h1.795C40.656,63.48,40.727,63.756,40.727,63.825L40.727,63.825z"/>
			<path fill="#FFFFFF" d="M44.039,63.825c0,0.067-0.068,0.346-0.206,0.346h-1.797c-0.069,0-0.205-0.276-0.205-0.346l0,0
				c0-0.069,0.067-0.345,0.205-0.345h1.797C43.9,63.48,44.039,63.756,44.039,63.825L44.039,63.825z"/>
			<path fill="#FFFFFF" d="M46.938,63.825c0,0.067-0.067,0.346-0.207,0.346h-1.795c-0.067,0-0.207-0.276-0.207-0.346l0,0
				c0-0.069,0.069-0.345,0.207-0.345h1.795C46.87,63.48,46.938,63.756,46.938,63.825L46.938,63.825z"/>
			<path fill="#FFFFFF" d="M50.529,63.825c0,0.067-0.07,0.346-0.209,0.346h-1.793c-0.07,0-0.207-0.276-0.207-0.346l0,0
				c0-0.069,0.068-0.345,0.207-0.345h1.863C50.459,63.48,50.529,63.756,50.529,63.825L50.529,63.825z"/>
			<path fill="#FFFFFF" d="M53.497,63.825c0,0.067-0.069,0.346-0.208,0.346h-1.794c-0.069,0-0.208-0.276-0.208-0.346l0,0
				c0-0.069,0.068-0.345,0.208-0.345h1.794C53.357,63.48,53.497,63.756,53.497,63.825L53.497,63.825z"/>
			<path fill="#FFFFFF" d="M56.395,63.825c0,0.067-0.068,0.346-0.207,0.346h-1.795c-0.069,0-0.207-0.276-0.207-0.346l0,0
				c0-0.069,0.068-0.345,0.207-0.345h1.795C56.326,63.48,56.395,63.756,56.395,63.825L56.395,63.825z"/>
		</g>
		<path fill="#FFFFFF" d="M17.049,67.414h-3.105c-0.277,0-0.553-0.208-0.553-0.553v-0.069c0-0.274,0.207-0.552,0.553-0.552h3.105
			c0.277,0,0.552,0.208,0.552,0.552v0.069C17.602,67.139,17.395,67.414,17.049,67.414z"/>
		<path fill="#FFFFFF" d="M56.74,67.414h-2.417c-0.275,0-0.552-0.208-0.552-0.553v-0.069c0-0.274,0.207-0.552,0.552-0.552h2.417
			c0.277,0,0.552,0.208,0.552,0.552v0.069C57.292,67.139,57.084,67.414,56.74,67.414z"/>
		<path fill="#FFFFFF" d="M60.88,67.414h-2.415c-0.277,0-0.553-0.208-0.553-0.553v-0.069c0-0.274,0.207-0.552,0.553-0.552h2.415
			c0.276,0,0.554,0.208,0.554,0.552v0.069C61.434,67.139,61.227,67.414,60.88,67.414z"/>
	</g>
	<rect x="2.071" y="4.14" fill="#FFFFFF" width="66.955" height="38.641"/>
	<circle fill="#A8AEAF" cx="35.894" cy="2.208" r="0.483"/>
	<path fill="#BBBCBC" d="M63.85,69H5.798c-0.345,0-0.69-0.275-0.69-0.689l0,0h59.433l0,0C64.541,68.654,64.264,69,63.85,69z"/>
	<g>
		<path fill="#B5B5B5" d="M64.332,64.102c0,0,0.07-0.76,2.348-0.76c0.969,0,1.588,0.553,2.832,1.174c0,0,1.172,0.688,3.448,0.688
			c2.349,0,2.763-0.206,2.83-0.274c0,0,0,0.62-1.653,0.76c-1.107,0.066-5.451-0.347-6.558-0.416
			c-1.106-0.068-2.833-0.207-3.177-1.104"/>
		<path fill="#DBDBDB" d="M64.402,64.032c0,0,0.482-1.175,3.519-1.242c3.037-0.069,3.937,0,6.006,0.414
			c0.623,0.138,2.14,0.621,2.071,1.451c-0.068,0.827-1.174,0.964-1.863,0.964c0,0-2.209-0.068-3.105-0.414
			c-0.967-0.346-2.899-1.52-3.936-1.725C66.126,63.204,65.09,63.342,64.402,64.032z"/>
		<path fill="#EAEAEA" d="M68.197,63.895c-0.413-0.207-0.826-0.345-1.172-0.481c-0.83-0.208-1.864-0.07-2.623,0.552
			c0,0,0.482-1.173,3.519-1.242c1.521-0.068,2.487-0.068,3.313,0c0,0-2.69-0.068-3.45,0.207
			C67.025,63.204,68.197,63.895,68.197,63.895z"/>
	</g>
</g>
</svg>
