<svg version="1.1" id="ilhwsa8q1" xmlns:xml="http://www.w3.org/XML/1998/namespace"
	 xmlns="http://www.w3.org/2000/svg" xmlns:xlink="http://www.w3.org/1999/xlink" x="0px" y="0px" width="77px" height="43px"
	 viewBox="0 0 77 43" enable-background="new 0 0 77 43" xml:space="preserve">
<g>
	<path fill="#31333D" d="M68.572,39.854c0,1.153-0.942,2.098-2.094,2.098H10.992c-1.151,0-2.093-0.943-2.093-2.098V2.098
		C8.899,0.943,9.841,0,10.992,0h55.486c1.15,0,2.094,0.943,2.094,2.098V39.854z"/>
	<rect x="11.516" y="3.146" fill="#FFFFFF" width="53.916" height="33.562"/>
	<path fill="#A5A5A5" d="M64.541,43H13.034c-0.733,0-1.623-0.262-1.623-0.262S0,40.063,0,39.854v-0.315
		c0-0.313,0.367-0.575,0.732-0.575c0,0,11.255,0.367,37.951,0.367c27.219,0,37.793-0.367,37.793-0.367
		c0.365,0,0.471,0.262,0.471,0.575v0.315c0,0.262-7.641,2.203-11.098,2.938C65.852,42.791,65.171,43,64.541,43z"/>
	<g opacity="0.37">
		<path fill="#FFFFFF" d="M76.58,39.854c-25.492,0.524-50.983,0.524-76.475,0c-0.053,0-0.105,0-0.105,0c0-0.053,0-0.211,0-0.367
			c0-0.053,0-0.053,0.052-0.105c0.104-0.156,0.209-0.262,0.314-0.262c25.492,0.523,50.931,0.523,76.423,0
			c0,0.054,0.156,0.105,0.21,0.367c0,0.052,0,0.104,0,0.156C76.947,39.802,76.688,39.854,76.58,39.854z"/>
	</g>
	<g>
		<g>
			<path fill="#848484" d="M31.355,39.33c0.105,0,0.209,0.313,0.314,0.472c0.209,0.313,0.68,0.577,0.995,0.577
				c4.135,0,8.27,0,12.404,0c0.316,0,0.787-0.316,0.996-0.577c0.104-0.104,0.209-0.472,0.313-0.472
				C41.406,39.33,36.38,39.33,31.355,39.33z"/>
		</g>
		<g>
			<path fill="#848484" d="M28.267,40.691c0,0.104-0.105,0.213-0.209,0.213h-1.204c-0.105,0-0.209-0.107-0.209-0.213v-0.155
				c0-0.106,0.104-0.21,0.209-0.21h1.204c0.104,0,0.209,0.104,0.209,0.21V40.691z"/>
			<path fill="#848484" d="M50.251,40.691c0,0.104-0.104,0.213-0.21,0.213h-1.204c-0.104,0-0.207-0.107-0.207-0.213v-0.155
				c0-0.106,0.104-0.21,0.207-0.21h1.204c0.105,0,0.21,0.104,0.21,0.21V40.691z"/>
		</g>
	</g>
	<circle fill="#E6E8E8" cx="38.735" cy="1.416" r="0.472"/>
</g>
</svg>
