<?xml version="1.0" encoding="utf-8"?>
<!-- Generator: Adobe Illustrator 16.0.0, SVG Export Plug-In . SVG Version: 6.00 Build 0)  -->
<!DOCTYPE svg PUBLIC "-//W3C//DTD SVG 1.1//EN" "http://www.w3.org/Graphics/SVG/1.1/DTD/svg11.dtd">
<svg version="1.1"
	 id="图层_1" xmlns:dc="http://purl.org/dc/elements/1.1/" xmlns:cc="http://creativecommons.org/ns#" xmlns:rdf="http://www.w3.org/1999/02/22-rdf-syntax-ns#"
	 xmlns="http://www.w3.org/2000/svg" xmlns:xlink="http://www.w3.org/1999/xlink" x="0px" y="0px" width="75px" height="75px"
	 viewBox="0 0 75 75" enable-background="new 0 0 75 75" xml:space="preserve">
<g>
	<path fill="#00BCF2" d="M19.103,0v8.594h4.365v12.69L2.115,63.921L8.695,75h8.594h46.396h2.552l6.647-11.079h-0.134L51.399,21.284
		V8.594h4.229V0H19.103L19.103,0z M32.195,8.594h10.61V21.15h-0.067l5.572,11.079H34.143L17.021,66.404H12.12l-1.41-2.417
		l21.352-42.703h0.133V8.594L32.195,8.594z"/>
	<path fill="#FFFFFF" d="M32.207,8.61v12.686H32.06L10.723,64.007l1.393,2.42h4.913L34.15,32.258h14.151l-5.573-11.072h0.073V8.61
		H32.207z"/>
</g>
</svg>
