<?xml version="1.0" encoding="utf-8"?>
<!-- Generator: Adobe Illustrator 16.0.0, SVG Export Plug-In . SVG Version: 6.00 Build 0)  -->
<!DOCTYPE svg PUBLIC "-//W3C//DTD SVG 1.1//EN" "http://www.w3.org/Graphics/SVG/1.1/DTD/svg11.dtd">
<svg version="1.1"
	 id="svg2" xmlns:dc="http://purl.org/dc/elements/1.1/" xmlns:cc="http://creativecommons.org/ns#" xmlns:rdf="http://www.w3.org/1999/02/22-rdf-syntax-ns#" xmlns:svg="http://www.w3.org/2000/svg"
	 xmlns="http://www.w3.org/2000/svg" xmlns:xlink="http://www.w3.org/1999/xlink" x="0px" y="0px" width="80px" height="56px"
	 viewBox="0 0 80 56" enable-background="new 0 0 80 56" xml:space="preserve">
<g id="g12" transform="scale(0.1,0.1)">
	<path id="path14" fill="#02709F" d="M173.135,29.724H12.046v457.583l151.782-1.426"/>
	<path id="path16" fill="none" stroke="#FFFFFF" stroke-width="3.9999" d="M173.135,29.724H12.046v457.583l151.782-1.426"/>
	<path id="path18" fill="#02709F" d="M163.828,29.724v457.583l12.393-9.326V26.633L163.828,29.724"/>
	<path id="path20" fill="none" stroke="#FFFFFF" stroke-width="3.9999" d="M163.828,29.724v457.583l12.393-9.326V26.633
		L163.828,29.724z"/>
	<path id="path22" fill="#02709F" d="M208.945,28.909v453.584l69.922-60.752V1.565L208.945,28.909"/>
	<path id="path24" fill="none" stroke="#FFFFFF" stroke-width="3.9999" d="M208.945,28.909v453.584l69.922-60.752V1.565
		L208.945,28.909z"/>
	<path id="path26" fill="#02709F" d="M149.253,57.869H21.03"/>
	<path id="path28" fill="none" stroke="#FFFFFF" stroke-width="3.9999" d="M149.253,57.869H21.03"/>
	<path id="path30" fill="#02709F" d="M136.792,104.49H31.919"/>
	<path id="path32" fill="none" stroke="#FFFFFF" stroke-width="3.9999" d="M136.792,104.49H31.919"/>
	<path id="path34" fill="#02709F" d="M175.303,481.067h32.09V27.507h-32.09V481.067z"/>
	<path id="path36" fill="none" stroke="#FFFFFF" stroke-width="3.9999" d="M207.393,27.507h-32.09v453.559h32.09"/>
	<path id="path38" fill="#02709F" d="M4.331,80.413h160.122"/>
	<path id="path40" fill="none" stroke="#FFFFFF" stroke-width="3.9999" d="M4.331,80.413h160.122"/>
	<path id="path42" fill="#02709F" d="M4.331,125.535h160.122"/>
	<path id="path44" fill="none" stroke="#FFFFFF" stroke-width="3.9999" d="M4.331,125.535h160.122"/>
	<path id="path46" fill="#02709F" d="M192.515,431.711c2.954,0,5.449-2.412,5.449-5.449c0-3.057-2.495-5.449-5.449-5.449
		c-3.042,0-5.439,2.393-5.439,5.449C187.075,429.299,189.473,431.711,192.515,431.711"/>
	<path id="path48" fill="none" stroke="#FFFFFF" stroke-width="3.9999" d="M192.515,431.711c2.954,0,5.449-2.412,5.449-5.449
		c0-3.057-2.495-5.449-5.449-5.449c-3.042,0-5.439,2.393-5.439,5.449C187.075,429.299,189.473,431.711,192.515,431.711z"/>
	<path id="path50" fill="#02709F" d="M192.515,469.035c2.954,0,5.449-2.48,5.449-5.439c0-3.047-2.495-5.459-5.449-5.459
		c-3.042,0-5.439,2.412-5.439,5.459C187.075,466.555,189.473,469.035,192.515,469.035"/>
	<path id="path52" fill="none" stroke="#FFFFFF" stroke-width="3.9999" d="M192.515,469.035c2.954,0,5.449-2.48,5.449-5.439
		c0-3.047-2.495-5.459-5.449-5.459c-3.042,0-5.439,2.412-5.439,5.459C187.075,466.555,189.473,469.035,192.515,469.035z"/>
	<path id="path54" fill="#02709F" d="M212.969,27.8l71.064-27.798h-164.38L0,31.023h161.152l10.127-1.885L212.969,27.8"/>
	<path id="path56" fill="none" stroke="#FFFFFF" stroke-width="3.9999" d="M212.969,27.8l71.064-27.798h-164.38L0,31.023h161.152
		l10.127-1.885L212.969,27.8z"/>
	<path id="path58" fill="#02709F" d="M686.719,377.531H259.771"/>
	<path id="path60" fill="none" stroke="#FFFFFF" stroke-width="3.9999" d="M686.719,377.531H259.771"/>
	<path id="path62" fill="#02709F" d="M259.771,375.881h426.313V54.036H259.771V375.881z"/>
	<path id="path64" fill="none" stroke="#FFFFFF" stroke-width="3.9999" d="M686.084,375.881V54.036H259.771v321.845"/>
	<path id="path66" fill="#02709F" d="M686.084,376.965l49.551-88.056V6.877H423.467L259.771,54.036h426.313V376.965"/>
	<path id="path68" fill="none" stroke="#FFFFFF" stroke-width="3.9999" d="M686.084,376.965l49.551-88.056V6.877H423.467
		L259.771,54.036h426.313V376.965z"/>
	<path id="path70" fill="#02709F" d="M296.953,338.576h352.07V91.262h-352.07V338.576z"/>
	<path id="path72" fill="none" stroke="#FFFFFF" stroke-width="3.9999" d="M296.953,338.576h352.07V91.262h-352.07V338.576z"/>
	<path id="path74" fill="#02709F" d="M686.084,54.036l49.551-47.158"/>
	<path id="path76" fill="none" stroke="#FFFFFF" stroke-width="3.9999" d="M686.084,54.036l49.551-47.158"/>
	<path id="path78" fill="#02709F" d="M658.633,560.002v-47.188H167.954l81.543-56.035h465.015v40.439L658.633,560.002"/>
	<path id="path80" fill="none" stroke="#FFFFFF" stroke-width="3.9999" d="M658.633,560.002v-47.188H167.954l81.543-56.035h465.015
		v40.439L658.633,560.002z"/>
	<path id="path82" fill="#02709F" d="M167.954,560.002h490.679v-47.188H167.954V560.002z"/>
	<path id="path84" fill="none" stroke="#FFFFFF" stroke-width="3.9999" d="M167.954,560.002h490.679v-47.188H167.954V560.002z"/>
	<path id="path86" fill="#02709F" d="M658.633,512.815l55.879-56.035"/>
	<path id="path88" fill="none" stroke="#FFFFFF" stroke-width="3.9999" d="M658.633,512.815l55.879-56.035"/>
	<path id="path90" fill="#02709F" d="M689.404,537.248l-7.49,22.686h82.109l-3.789-22.686"/>
	<path id="path92" fill="none" stroke="#FFFFFF" stroke-width="3.9999" d="M689.404,537.248l-7.49,22.686h82.109l-3.789-22.686"/>
	<path id="path94" fill="#02709F" d="M760.234,537.248l-1.787-30.313h-35.908l-34.121,30.313H760.234"/>
	<path id="path96" fill="none" stroke="#FFFFFF" stroke-width="3.9999" d="M760.234,537.248l-1.787-30.313h-35.908l-34.121,30.313
		H760.234z"/>
	<path id="path98" fill="#02709F" d="M618.652,414.514l17.393,40.771l49.043-53.516l-5.957-19.99"/>
	<path id="path100" fill="none" stroke="#FFFFFF" stroke-width="3.9999" d="M618.652,414.514l17.393,40.771l49.043-53.516
		l-5.957-19.99"/>
	<path id="path102" fill="#02709F" d="M618.652,414.514l67.48-37.412H259.468l94.468,37.412H618.652"/>
	<path id="path104" fill="none" stroke="#FFFFFF" stroke-width="3.9999" d="M618.652,414.514l67.48-37.412H259.468l94.468,37.412
		H618.652z"/>
	<path id="path106" fill="#02709F" d="M637.334,456.584l-18.682-42.07H353.936l-24.521,42.07H637.334"/>
	<path id="path108" fill="none" stroke="#FFFFFF" stroke-width="3.9999" d="M637.334,456.584l-18.682-42.07H353.936l-24.521,42.07
		H637.334z"/>
	<path id="path110" fill="none" stroke="#02709F" stroke-width="3.9999" d="M742.334,510.041
		c7.676-8.975-33.779-21.377,12.979-29.102c29.775-4.834,120-57.979-91.836-60.869"/>
</g>
</svg>
