<?xml version="1.0" encoding="utf-8"?>
<!-- Generator: Adobe Illustrator 16.0.0, SVG Export Plug-In . SVG Version: 6.00 Build 0)  -->
<!DOCTYPE svg PUBLIC "-//W3C//DTD SVG 1.1//EN" "http://www.w3.org/Graphics/SVG/1.1/DTD/svg11.dtd">
<svg version="1.1"
	 id="svg2" xmlns:dc="http://purl.org/dc/elements/1.1/" xmlns:cc="http://creativecommons.org/ns#" xmlns:rdf="http://www.w3.org/1999/02/22-rdf-syntax-ns#" xmlns:svg="http://www.w3.org/2000/svg"
	 xmlns="http://www.w3.org/2000/svg" xmlns:xlink="http://www.w3.org/1999/xlink" x="0px" y="0px" width="50px" height="80px"
	 viewBox="0 0 50 80" enable-background="new 0 0 50 80" xml:space="preserve">
<g id="g12" transform="scale(0.1,0.1)">
	<path id="path22" fill="#02709F" d="M439.299,288.665c22.012-10.615-0.498-55.61-67.451-18.984"/>
	<path id="path24" fill="none" stroke="#FFFFFF" stroke-width="3.9999" d="M439.299,288.665
		c22.012-10.615-0.498-55.61-67.451-18.984"/>
	<path id="path26" fill="#02709F" d="M183.176,281.194h202.109V128.342H183.176V281.194z"/>
	<path id="path28" fill="none" stroke="#FFFFFF" stroke-width="3.9999" d="M385.286,281.194V128.342H183.176v152.852"/>
	<path id="path30" fill="#02709F" d="M385.286,128.342v153.364l23.467-41.753V105.95L385.286,128.342"/>
	<path id="path32" fill="none" stroke="#FFFFFF" stroke-width="3.9999" d="M385.286,128.342v153.364l23.467-41.753V105.95
		L385.286,128.342z"/>
	<path id="path34" fill="#02709F" d="M408.752,105.95h-147.92l-77.656,22.393h202.109L408.752,105.95"/>
	<path id="path36" fill="none" stroke="#FFFFFF" stroke-width="3.9999" d="M408.752,105.95h-147.92l-77.656,22.393h202.109
		L408.752,105.95z"/>
	<path id="path38" fill="#02709F" d="M200.828,263.474h166.802V146.028H200.828V263.474z"/>
	<path id="path40" fill="none" stroke="#FFFFFF" stroke-width="3.9999" d="M200.828,263.474h166.802V146.028H200.828V263.474z"/>
	<path id="path42" fill="#02709F" d="M353.293,299.539l8.281,19.448l23.145-25.513l-2.793-9.453"/>
	<path id="path44" fill="none" stroke="#FFFFFF" stroke-width="3.9999" d="M353.293,299.539l8.281,19.448l23.145-25.513
		l-2.793-9.453"/>
	<path id="path46" fill="#02709F" d="M353.293,299.539l32.021-17.729H183.079l44.746,17.729H353.293"/>
	<path id="path48" fill="none" stroke="#FFFFFF" stroke-width="3.9999" d="M353.293,299.539l32.021-17.729H183.079l44.746,17.729
		H353.293z"/>
	<path id="path50" fill="#02709F" d="M362.024,319.5l-8.73-19.961H227.825L216.252,319.5H362.024"/>
	<path id="path52" fill="none" stroke="#FFFFFF" stroke-width="3.9999" d="M362.024,319.5l-8.73-19.961H227.825L216.252,319.5
		H362.024z"/>
	<path id="path54" fill="#02709F" d="M97.595,379.124h-1.807l0.605,232.402c-0.605,0.4-18.809-0.703-19.146,0.4
		c-0.107,20.322,0.239,26.064,0.693,44.092c-1.05,0.078-21.719,0.078-21.719,0.283c0.21-67.754-0.796-209.453-1.528-285.566"/>
	<path id="path56" fill="none" stroke="#FFFFFF" stroke-width="3.9999" d="M97.595,379.124h-1.807l0.605,232.402
		c-0.605,0.4-18.809-0.703-19.146,0.4c-0.107,20.322,0.239,26.064,0.693,44.092c-1.05,0.078-21.719,0.078-21.719,0.283
		c0.21-67.754-0.796-209.453-1.528-285.566"/>
	<path id="path58" fill="#02709F" d="M476.213,362.229c0.225-29.443,12.041-31.592,13.438-35.918c0-4.629,0.752-11.333,0.049-15.303
		c-11.221-0.356-13.242,0.347-28.584,0l-323.984-2.92c0,1.167-51.748,14.59-52.69,15.049c-15.762-0.967-21.577,5.137-36.675,5.791
		c-1.855,4.229,0.254,2.549,0.703,7.686c3.003,2.568,7.412,3.721,10.444,7.246c1.846,10.664,1.938,15.039,1.846,24.199
		c-0.039,5.82-0.063,11.602-0.093,17.451"/>
	<path id="path60" fill="none" stroke="#FFFFFF" stroke-width="3.9999" d="M476.213,362.229
		c0.225-29.443,12.041-31.592,13.438-35.918c0-4.629,0.752-11.333,0.049-15.303c-11.221-0.356-13.242,0.347-28.584,0l-323.984-2.92
		c0,1.167-51.748,14.59-52.69,15.049c-15.762-0.967-21.577,5.137-36.675,5.791c-1.855,4.229,0.254,2.549,0.703,7.686
		c3.003,2.568,7.412,3.721,10.444,7.246c1.846,10.664,1.938,15.039,1.846,24.199c-0.039,5.82-0.063,11.602-0.093,17.451"/>
	<path id="path62" fill="#02709F" d="M474.875,372.883h-1.758l0.488,232.47c-0.488,0.293-18.74-0.713-19.16,0.293
		c-0.098,20.42,0.322,26.055,0.713,44.17c-0.986,0.107-21.66,0.107-21.66,0.303c0.137-67.754-0.791-209.463-1.523-285.625"/>
	<path id="path64" fill="none" stroke="#FFFFFF" stroke-width="3.9999" d="M474.875,372.883h-1.758l0.488,232.47
		c-0.488,0.293-18.74-0.713-19.16,0.293c-0.098,20.42,0.322,26.055,0.713,44.17c-0.986,0.107-21.66,0.107-21.66,0.303
		c0.137-67.754-0.791-209.463-1.523-285.625"/>
	<path id="path66" fill="#02709F" d="M467.424,394.817v-45.361l-407.271-5.85v41.914L467.424,394.817"/>
	<path id="path68" fill="none" stroke="#FFFFFF" stroke-width="3.9999" d="M467.424,394.817v-45.361l-407.271-5.85v41.914
		L467.424,394.817z"/>
	<path id="path70" fill="#02709F" d="M486.584,374.524v-45.703l-19.16,20.283v45.371L486.584,374.524"/>
	<path id="path72" fill="none" stroke="#FFFFFF" stroke-width="3.9999" d="M486.584,374.524v-45.703l-19.16,20.283v45.371
		L486.584,374.524z"/>
	<path id="path74" fill="#02709F" d="M487.463,311.008l-22.344,23.291l-417.754-5.84l91.68-22.07L487.463,311.008"/>
	<path id="path76" fill="none" stroke="#FFFFFF" stroke-width="3.9999" d="M487.463,311.008l-22.344,23.291l-417.754-5.84
		l91.68-22.07L487.463,311.008z"/>
	<path id="path78" fill="#02709F" d="M433.723,320.637l0.166-8.154l12.256-24.678l-0.059,16.938L433.723,320.637"/>
	<path id="path80" fill="none" stroke="#FFFFFF" stroke-width="3.9999" d="M433.723,320.637l0.166-8.154l12.256-24.678
		l-0.059,16.938L433.723,320.637z"/>
	<path id="path82" fill="#02709F" d="M434.036,312.483l12.236-24.678h-28.154l-12.236,24.678H434.036"/>
	<path id="path84" fill="none" stroke="#FFFFFF" stroke-width="3.9999" d="M434.036,312.483l12.236-24.678h-28.154l-12.236,24.678
		H434.036z"/>
	<path id="path86" fill="#02709F" d="M405.881,320.452h28.154v-7.969h-28.154V320.452z"/>
	<path id="path88" fill="none" stroke="#FFFFFF" stroke-width="3.9999" d="M405.881,320.452h28.154v-7.969h-28.154V320.452z"/>
	<path id="path90" fill="#02709F" d="M369.543,325.12v-9.766l21.035-29.243v17.881L369.543,325.12"/>
	<path id="path92" fill="none" stroke="#FFFFFF" stroke-width="3.9999" d="M369.543,325.12v-9.766l21.035-29.243v17.881
		L369.543,325.12z"/>
	<path id="path94" fill="#02709F" d="M369.543,315.481H184.382l21.001-29.37h185.195L369.543,315.481"/>
	<path id="path96" fill="none" stroke="#FFFFFF" stroke-width="3.9999" d="M369.543,315.481H184.382l21.001-29.37h185.195
		L369.543,315.481z"/>
	<path id="path98" fill="#02709F" d="M184.226,325.12h185.317v-9.639H184.226V325.12z"/>
	<path id="path100" fill="none" stroke="#FFFFFF" stroke-width="3.9999" d="M184.226,325.12h185.317v-9.639H184.226V325.12z"/>
	<path id="path102" fill="#02709F" d="M316.536,647.903c-3.066,21.016-7.246,25.879,16.934,29.551v1.094c0,0,2.568-5.635,3.77,4.824
		c0,0,4.609,16.309-60.381-1.211c0,0-3.711-11.982-11.846-4.941l1.221,1.113c2.227-8.74,9.014-11.377,5.332-25l0.322,1.328
		L316.536,647.903"/>
	<path id="path104" fill="none" stroke="#FFFFFF" stroke-width="3.9999" d="M316.536,647.903
		c-3.066,21.016-7.246,25.879,16.934,29.551v1.094c0,0,2.568-5.635,3.77,4.824c0,0,4.609,16.309-60.381-1.211
		c0,0-3.711-11.982-11.846-4.941l1.221,1.113c2.227-8.74,9.014-11.377,5.332-25l0.322,1.328L316.536,647.903z"/>
	<path id="path106" fill="#02709F" d="M354.202,322.483c3.994-4.634,0.879-2.686,5.195-7.378
		c6.445-6.992,12.598-13.188,18.018-20.811c3.35-4.531,6.24-8.984,9.678-13.35c3.516-4.248,11.348-4.487,16.064-2.153
		c4.111,2.046,6.045,3.135,10.303,4.282c2.49,0.693,4.57,6.353,1.621,6.719c2.344,1.06,4.561,2.485,5.576,4.878
		c0.156,0.566-0.508,1.782-0.4,2.207c1.396,4.199,9.473,8.413,5.01,11.699c-2.314,1.65-6.475-1.05-9.717-0.088
		c-2.842,0.908-4.375,3.599-6.504,5.776c-2.168,2.188-4.902,2.71-7.432,3.506c-3.809,1.235-7.334,2.412-11.143,3.794
		c-2.891,0.967-5,3.105-7.773,4.531c-7.09,3.682-5.537,3.799-12.295,8.174C364.954,331.467,358.108,327.053,354.202,322.483"/>
	<path id="path108" fill="none" stroke="#FFFFFF" stroke-width="3.9999" d="M354.202,322.483c3.994-4.634,0.879-2.686,5.195-7.378
		c6.445-6.992,12.598-13.188,18.018-20.811c3.35-4.531,6.24-8.984,9.678-13.35c3.516-4.248,11.348-4.487,16.064-2.153
		c4.111,2.046,6.045,3.135,10.303,4.282c2.49,0.693,4.57,6.353,1.621,6.719c2.344,1.06,4.561,2.485,5.576,4.878
		c0.156,0.566-0.508,1.782-0.4,2.207c1.396,4.199,9.473,8.413,5.01,11.699c-2.314,1.65-6.475-1.05-9.717-0.088
		c-2.842,0.908-4.375,3.599-6.504,5.776c-2.168,2.188-4.902,2.71-7.432,3.506c-3.809,1.235-7.334,2.412-11.143,3.794
		c-2.891,0.967-5,3.105-7.773,4.531c-7.09,3.682-5.537,3.799-12.295,8.174C364.954,331.467,358.108,327.053,354.202,322.483z"/>
	<path id="path110" fill="#02709F" d="M333.469,678.547c12.275,1.943,25.566-3.848,21.885,5.137
		c-1.299,13.945-0.117,15.049-7.656,24.336c-2.725,2.803-2.393-0.049-6.563,2.852c-19.57,3.438-50.166-16.406-52.734-1.367
		c0.811-0.771-9.648,12.559-9.99,14.834c-1.191,0.762-4.023-0.557-5.322,0c-13.418-20.313-14.443-34.336-11.465-46.006
		c8.135-6.934,15.234,3.828,15.234,3.828c69.6,16.299,60.381,1.211,60.381,1.211C336.038,672.912,333.469,678.547,333.469,678.547"
		/>
	<path id="path112" fill="none" stroke="#FFFFFF" stroke-width="3.9999" d="M333.469,678.547
		c12.275,1.943,25.566-3.848,21.885,5.137c-1.299,13.945-0.117,15.049-7.656,24.336c-2.725,2.803-2.393-0.049-6.563,2.852
		c-19.57,3.438-50.166-16.406-52.734-1.367c0.811-0.771-9.648,12.559-9.99,14.834c-1.191,0.762-4.023-0.557-5.322,0
		c-13.418-20.313-14.443-34.336-11.465-46.006c8.135-6.934,15.234,3.828,15.234,3.828c69.6,16.299,60.381,1.211,60.381,1.211
		C336.038,672.912,333.469,678.547,333.469,678.547z"/>
	<path id="path114" fill="#02709F" d="M94.875,389.661c-9.736,43.789-11.309,86.836,2.729,128.32
		c2.568,3.057,6.196,4.346,10.771,6.436c25.518-1.865,24.453-1.553,54.238-0.791l35.493,3.076c2.49,0.762,5.601,0,7.871,1.748
		c13.77,21.289,92.695-11.797,94.99,11.025c1.396-6.689-31.133,7.432-33.018,23.809c6.426,26.074-0.078,77.041-1.387,101.602
		c5.586,4.189-7.744,5.039,5.322,11.904c18.564,4.619,44.648-6.758,44.648-6.758c7.178-4.355,9.492,2.598,16.895-1.436
		c1.729-69.463-2.324-114.307,7.021-180.156c1.104-13.545-3.008-12.686-3.77-21.084c-0.42-5.684-6.865-7.246-10.254-12.588
		c-13.721-3.32-31.777-4.199-41.563-5.244l-36.748-8.135c3.867-8.896,1.182-58.437,2.91-68.095
		c4.902-4.18,6.182-36.758,9.863-41.787l2.598-26.802c0.664,5.869-1.699,14.36,9.473,20.21c6.328,0.977,3.711,3.086,9.873,4.443
		c0.732,0.674,1.465,1.416,2.197,2.148c1.963,0.576,3.906,1.24,5.576,2.207c6.191,5.186,14.746,3.682,20.928,8.857
		c9.541,1.533,17.178,7.715,26.758,4.844c3.438-0.957,6.914-1.475,10.342-1.094c9.414-6.895,17.783-1.875,24.346-11.328
		c2.012-2.393,10.615-2.393,13.115-3.711c2.959-4.277,2.285,0.078,3.74-5.42c4.268-2.061,6.162-0.439,11.309-0.439
		c0.742-0.879,7.275-16.064,7.734-17.72c0,0-10.02-23.481-29.424-20.254l-23.76-2.515c-14.902,0.444-30.713-0.615-43.34-15.293
		l-3.623-7.539l1.943-12.251c4.229-8.613-4.912-28.525-7.305-39.116c-13.252-9.717-5.371-2.69-18.789-13.33l-179.873-17.1
		c-1.787,0.942-4.99,1.177-6.25,0.942c-14.287,0.483-25.757-2.178-38.574,6.45c-3.066,7.266-9.004,18.989-8.374,27.607
		c3.296,12.173-18.862,10.83-12.671,23.438c3.057,3.989,1.533,8.413,3.057,12.173c-3.057,17.271,0.688,1.538-3.057,16.348
		l-1.201,0.161c-19.863,52.48-27.637,107.471-27.637,107.471c1.411,1.67,3.022,3.086,3.965,4.688
		c11.587,13.984,74.624,32.754,74.624,32.754l0.195-0.703"/>
	<path id="path116" fill="none" stroke="#FFFFFF" stroke-width="3.9999" d="M94.875,389.661
		c-9.736,43.789-11.309,86.836,2.729,128.32c2.568,3.057,6.196,4.346,10.771,6.436c25.518-1.865,24.453-1.553,54.238-0.791
		l35.493,3.076c2.49,0.762,5.601,0,7.871,1.748c13.77,21.289,92.695-11.797,94.99,11.025c1.396-6.689-31.133,7.432-33.018,23.809
		c6.426,26.074-0.078,77.041-1.387,101.602c5.586,4.189-7.744,5.039,5.322,11.904c18.564,4.619,44.648-6.758,44.648-6.758
		c7.178-4.355,9.492,2.598,16.895-1.436c1.729-69.463-2.324-114.307,7.021-180.156c1.104-13.545-3.008-12.686-3.77-21.084
		c-0.42-5.684-6.865-7.246-10.254-12.588c-13.721-3.32-31.777-4.199-41.563-5.244l-36.748-8.135
		c3.867-8.896,1.182-58.437,2.91-68.095c4.902-4.18,6.182-36.758,9.863-41.787l2.598-26.802c0.664,5.869-1.699,14.36,9.473,20.21
		c6.328,0.977,3.711,3.086,9.873,4.443c0.732,0.674,1.465,1.416,2.197,2.148c1.963,0.576,3.906,1.24,5.576,2.207
		c6.191,5.186,14.746,3.682,20.928,8.857c9.541,1.533,17.178,7.715,26.758,4.844c3.438-0.957,6.914-1.475,10.342-1.094
		c9.414-6.895,17.783-1.875,24.346-11.328c2.012-2.393,10.615-2.393,13.115-3.711c2.959-4.277,2.285,0.078,3.74-5.42
		c4.268-2.061,6.162-0.439,11.309-0.439c0.742-0.879,7.275-16.064,7.734-17.72c0,0-10.02-23.481-29.424-20.254l-23.76-2.515
		c-14.902,0.444-30.713-0.615-43.34-15.293l-3.623-7.539l1.943-12.251c4.229-8.613-4.912-28.525-7.305-39.116
		c-13.252-9.717-5.371-2.69-18.789-13.33l-179.873-17.1c-1.787,0.942-4.99,1.177-6.25,0.942c-14.287,0.483-25.757-2.178-38.574,6.45
		c-3.066,7.266-9.004,18.989-8.374,27.607c3.296,12.173-18.862,10.83-12.671,23.438c3.057,3.989,1.533,8.413,3.057,12.173
		c-3.057,17.271,0.688,1.538-3.057,16.348l-1.201,0.161c-19.863,52.48-27.637,107.471-27.637,107.471
		c1.411,1.67,3.022,3.086,3.965,4.688c11.587,13.984,74.624,32.754,74.624,32.754l0.195-0.703"/>
	<path id="path118" fill="#02709F" d="M167.478,660.442c-7.388,7.52-11.709,13.564-13.623,19.463c8.12-11.572,17.48,1.25,17.48,1.25
		c23.228,9.238,33.652,13.975,33.652,13.975c30.815-2.598,20.327-19.893,20.327-19.893c-15.508-6.689-19.849-11.064-18.96-13.916"/>
	<path id="path120" fill="#02709F" d="M156.101,578.762l-9.302,66.709l-5.62,19.6l52.979,8.145l1.768-0.215
		c0.879-2.852,12.925,1.68,18.599,1.133c7.705-4.336,1.113-1.27,9.004-5.459c-0.811-1.23-2.061-24.795-1.758-91.045"/>
	<path id="path122" fill="none" stroke="#FFFFFF" stroke-width="3.9999" d="M156.101,578.762l-9.302,66.709l-5.62,19.6l52.979,8.145
		l1.768-0.215c0.879-2.852,12.925,1.68,18.599,1.133c7.705-4.336,1.113-1.27,9.004-5.459c-0.811-1.23-2.061-24.795-1.758-91.045"/>
	<path id="path124" fill="#02709F" d="M179.666,731.76l7.51-51.816"/>
	<path id="path126" fill="#02709F" d="M165.525,535.949c3.589-0.645,6.05-4.033,5.396-7.695l-14.37-82.021
		c-0.605-3.662-4.106-6.045-7.676-5.4l-20.039,3.554c-3.604,0.664-6.055,4.053-5.4,7.715l14.37,82.002
		c0.596,3.652,4.102,6.064,7.744,5.4L165.525,535.949"/>
	<path id="path128" fill="none" stroke="#FFFFFF" stroke-width="3.9999" d="M165.525,535.949c3.589-0.645,6.05-4.033,5.396-7.695
		l-14.37-82.021c-0.605-3.662-4.106-6.045-7.676-5.4l-20.039,3.554c-3.604,0.664-6.055,4.053-5.4,7.715l14.37,82.002
		c0.596,3.652,4.102,6.064,7.744,5.4L165.525,535.949z"/>
	<path id="path130" fill="#02709F" d="M166.868,658.83c-13.428,3.008-29.331,0.703-30.483,9.043
		c-1.147,8.34,4.961,10.156,11.04,10.459"/>
	<path id="path132" fill="none" stroke="#FFFFFF" stroke-width="3.9999" d="M166.868,658.83
		c-13.428,3.008-29.331,0.703-30.483,9.043c-1.147,8.34,4.961,10.156,11.04,10.459"/>
	<path id="path134" fill="#02709F" d="M313.088,535.354c3.711-3.789,4.229-4.932,4.229-8.623v-44.463
		c0-3.711-2.979-6.709-6.68-6.709l-48.877,47.314c-3.691,0-6.67,3.008-6.67,6.719v49.385c0,3.691,2.979,6.689,6.67,6.689
		L313.088,535.354"/>
	<path id="path136" fill="none" stroke="#FFFFFF" stroke-width="3.9999" d="M313.088,535.354c3.711-3.789,4.229-4.932,4.229-8.623
		v-44.463c0-3.711-2.979-6.709-6.68-6.709l-48.877,47.314c-3.691,0-6.67,3.008-6.67,6.719v49.385c0,3.691,2.979,6.689,6.67,6.689
		L313.088,535.354z"/>
	<path id="path138" fill="#02709F" d="M70.676,352.112c-1.04-10.01,11.162-37.017,11.641-45.19
		c-2.202,9.097-4.033,50.874-1.709,57.007L70.676,352.112"/>
	<path id="path140" fill="none" stroke="#FFFFFF" stroke-width="3.9999" d="M70.676,352.112c-1.04-10.01,11.162-37.017,11.641-45.19
		c-2.202,9.097-4.033,50.874-1.709,57.007L70.676,352.112z"/>
	<path id="path142" fill="#02709F" d="M62.117,443.244l-0.898-2.89c3.247-29.688-12.568-71.787,20.093-91.826
		c139.189-0.586,30.439,3.301,169.668,2.949l8.115,6.23c17.393-2.49,13.057,87.373,13.057,87.373l-12.461,7.881"/>
	<path id="path144" fill="none" stroke="#FFFFFF" stroke-width="3.9999" d="M62.117,443.244l-0.898-2.89
		c3.247-29.688-12.568-71.787,20.093-91.826c139.189-0.586,30.439,3.301,169.668,2.949l8.115,6.23
		c17.393-2.49,13.057,87.373,13.057,87.373l-12.461,7.881"/>
	<path id="path146" fill="#02709F" d="M47.82,451.438c3.306-29.697-14.253-84.023,18.389-104.052
		c139.058-0.664,39.258,0.977,178.354,0.635l2.959,1.533c17.314-2.48,11.904,103.076,11.904,103.076L47.82,451.438"/>
	<path id="path148" fill="none" stroke="#FFFFFF" stroke-width="3.9999" d="M47.82,451.438
		c3.306-29.697-14.253-84.023,18.389-104.052c139.058-0.664,39.258,0.977,178.354,0.635l2.959,1.533
		c17.314-2.48,11.904,103.076,11.904,103.076L47.82,451.438z"/>
	<path id="path150" fill="#02709F" d="M255.081,105.178c0,0,0.479,2.363,1.152,3.56c-0.186,6.353,3.545,11.875,3.965,18.13
		c-2.158,3.105-4.717,5.972-6.436,9.39c-4.941,2.612-10.762,2.021-15.869,4.097c-4.912,3.955-7.852,9.893-13.379,13.228
		c-6.416,1.436-13.076,0.864-19.17,3.789c-3.53,3.438-8.159,5.781-10.85,10.088c-6.045,4.253-13.32,3.53-20.2,2.603
		c-3.037-1.953-6.509-3.101-9.438-5.298c-7.217-7.646-14.59-15.054-22.388-22.007c-6.245-0.156-12.529,0.474-18.716-0.625
		c-4.238-1.987-6.841-6.392-11.465-7.725c-2.593-6.152-5.85-12.061-5.928-18.838c-0.684-0.801-3.179-2.197-1.68-3.73
		c22.861-7.9,10.82-24.316,14.385-38.877c10.815-7.236,0.269-12.744,4.526-21.221c8.506-32.52,46.982-26.367,73.184-31.738
		c7.637,1.357,16.157,0.142,18.228,8.56c-0.283,1.284,8.594,2.437,7.119,3.862c5.332,6.929,6.719,2.568,12.686,9.99
		c5.469,7.852,3.633,10.708,5.107,13.633c7.373,9.116,14.893,14.023,15.957,26.753c0.527,6.611-3.574,12.339-5.156,12.876
		C253.997,103.513,258.245,96.487,255.081,105.178"/>
	<path id="path152" fill="none" stroke="#FFFFFF" stroke-width="3.9999" d="M255.081,105.178c0,0,0.479,2.363,1.152,3.56
		c-0.186,6.353,3.545,11.875,3.965,18.13c-2.158,3.105-4.717,5.972-6.436,9.39c-4.941,2.612-10.762,2.021-15.869,4.097
		c-4.912,3.955-7.852,9.893-13.379,13.228c-6.416,1.436-13.076,0.864-19.17,3.789c-3.53,3.438-8.159,5.781-10.85,10.088
		c-6.045,4.253-13.32,3.53-20.2,2.603c-3.037-1.953-6.509-3.101-9.438-5.298c-7.217-7.646-14.59-15.054-22.388-22.007
		c-6.245-0.156-12.529,0.474-18.716-0.625c-4.238-1.987-6.841-6.392-11.465-7.725c-2.593-6.152-5.85-12.061-5.928-18.838
		c-0.684-0.801-3.179-2.197-1.68-3.73c22.861-7.9,10.82-24.316,14.385-38.877c10.815-7.236,0.269-12.744,4.526-21.221
		c8.506-32.52,46.982-26.367,73.184-31.738c7.637,1.357,16.157,0.142,18.228,8.56c-0.283,1.284,8.594,2.437,7.119,3.862
		c5.332,6.929,6.719,2.568,12.686,9.99c5.469,7.852,3.633,10.708,5.107,13.633c7.373,9.116,14.893,14.023,15.957,26.753
		c0.527,6.611-3.574,12.339-5.156,12.876C253.997,103.513,258.245,96.487,255.081,105.178"/>
	<path id="path154" fill="#02709F" d="M262.561,177.932c-0.498,1.67-1.416,3.037-2.656,4.224
		c-6.602-0.601-4.395,15.903-10.244,13.491c-3.467,1.816-6.787-1.597-10.059-2.197c-2.529,1.343-5.4,1.631-8.027,2.593
		c-3.428,3.599-8.096,5.093-12.734,6.616c-17.329-4.399-32.822,5.679-49.517,8.809c-4.033-0.103-14.878,2.412-16.123-2.119
		c-8.208-4.995-9.575-15.166-17.192-20.908c-10.996-1.021-21.987-2.031-32.935-3.008c-1.865-0.713-3.047-2.769-5.317-2.734
		c-0.093-3.96-0.996-4.941-2.085-8.105c-0.537-1.05-3.472-3.457-1.421-4.307c1.865-0.781,2.329-2.495-2.036-5.63
		c-3.008-10.718,3.105-44.033,10.898-51.948c-1.499,1.514,2.603-1.069,3.286-0.278c0.078,6.729,2.285,13.135,4.873,19.321
		c4.688,1.348,7.28,5.693,11.46,7.729c6.25,1.099,12.524,0.474,18.784,0.586c7.793,6.987,15.171,14.409,22.319,22.056
		c2.935,2.188,6.406,3.335,9.502,5.283c6.821,0.933,14.097,1.646,20.142-2.593c2.754-4.36,7.319-6.67,10.913-10.093
		c6.03-2.93,12.7-2.363,19.106-3.779c5.518-3.345,8.457-9.282,13.438-13.242c5.059-2.104,10.869-1.475,15.811-4.087
		c1.719-3.423,4.209-6.289,6.367-9.395c-0.283-6.255-4.014-11.777-3.848-18.13c-0.723-1.206-1.885-1.86-3.545-3.11l2.334-0.459
		c25.576,22.432-2.676,47.461,10.107,70.073L262.561,177.932"/>
	<path id="path156" fill="none" stroke="#FFFFFF" stroke-width="3.9999" d="M262.561,177.932c-0.498,1.67-1.416,3.037-2.656,4.224
		c-6.602-0.601-4.395,15.903-10.244,13.491c-3.467,1.816-6.787-1.597-10.059-2.197c-2.529,1.343-5.4,1.631-8.027,2.593
		c-3.428,3.599-8.096,5.093-12.734,6.616c-17.329-4.399-32.822,5.679-49.517,8.809c-4.033-0.103-14.878,2.412-16.123-2.119
		c-8.208-4.995-9.575-15.166-17.192-20.908c-10.996-1.021-21.987-2.031-32.935-3.008c-1.865-0.713-3.047-2.769-5.317-2.734
		c-0.093-3.96-0.996-4.941-2.085-8.105c-0.537-1.05-3.472-3.457-1.421-4.307c1.865-0.781,2.329-2.495-2.036-5.63
		c-3.008-10.718,3.105-44.033,10.898-51.948c-1.499,1.514,2.603-1.069,3.286-0.278c0.078,6.729,2.285,13.135,4.873,19.321
		c4.688,1.348,7.28,5.693,11.46,7.729c6.25,1.099,12.524,0.474,18.784,0.586c7.793,6.987,15.171,14.409,22.319,22.056
		c2.935,2.188,6.406,3.335,9.502,5.283c6.821,0.933,14.097,1.646,20.142-2.593c2.754-4.36,7.319-6.67,10.913-10.093
		c6.03-2.93,12.7-2.363,19.106-3.779c5.518-3.345,8.457-9.282,13.438-13.242c5.059-2.104,10.869-1.475,15.811-4.087
		c1.719-3.423,4.209-6.289,6.367-9.395c-0.283-6.255-4.014-11.777-3.848-18.13c-0.723-1.206-1.885-1.86-3.545-3.11l2.334-0.459
		c25.576,22.432-2.676,47.461,10.107,70.073L262.561,177.932z"/>
	<path id="path158" fill="#02709F" d="M225.618,706.555c-3.74,1.338-14.17,2.939-19.165,3.701
		c-17.739-5.898,1.382-2.783-24.98-6.563c-6.978,5.996-4.805,17.598-7.295,26.709c-1.392,0.791-3.936-0.469-5.229-0.01
		c-11.807-25.205-19.399-37.314-15.093-50.488c8.12-11.572,17.48,1.25,17.48,1.25c23.228,9.238,33.652,13.975,33.652,13.975
		c30.815-6.23,20.327-19.893,20.327-19.893c15.098,2.305,14.551,1.279,14.551,1.279
		C247.922,681.155,225.618,706.555,225.618,706.555"/>
	<path id="path160" fill="#02709F" d="M155.642,580.334c0.698,60.967,1.152,11.875,0.449,72.139
		c0.962,1.924-1.597,4.941-3.955,6.357c-13.447,3.008-29.697-3.428-30.508,9.043c-1.143,8.34,4.971,10.156,11.045,10.459
		c-14.844,12.061-29.038,27.275-43.423,38.438c-10.449,12.256-4.619,23.223-5.581,37.422c3.965,4.932,8.14,2.373,13.955,0.703
		c-1.411-10.654,1.392-18.096,1.147-27.48c18.35-16.289,36.65-32.285,55.22-48.564c1.392-0.518,2.1,0.703,3.247,1.094
		c-5.308,27.461-16.704,67.793-12.285,92.227c0.703,1.641-0.239,4.668,2.817,6.064c4.365,0.703,11.318,4.121,13.887-1.006
		c1.768-16.152-3.838-28.984,4.409-47.5c-0.894,0.518-0.444-0.381,0,0c2.554,8.145,1.411,12.881,1.152,22.441
		c5.122,0.615,12.095,3.438,15.103-2.793c2.109-17.246-3.462-36.318-5.112-58.662c0.693-2.324-1.157-4.424,1.846-6.738
		c17.412,11.357,33.906,30.156,51.064,43.057c6.963,6.934,4.414,30.879,4.414,30.879c10.43,2.422,12.793,1.211,12.793,1.211h1.689
		c0,0,4.678-25.674-5.762-42.461l-46.45-38.525c0.61-0.605,9.639-0.41,11.743-0.918c6.729-2.793,8.135-9.346,4.414-15.186
		c-6.724-1.113-11.489-1.797-20.562-2.109c-4.863,0.42-4.966-2.949-4.966-13.486c0.708-56.543-1.406-6.035,0.459-63.271"/>
	<path id="path162" fill="none" stroke="#FFFFFF" stroke-width="2" d="M155.642,580.334c0.698,60.967,1.152,11.875,0.449,72.139
		c0.962,1.924-1.597,4.941-3.955,6.357c-13.447,3.008-29.697-3.428-30.508,9.043c-1.143,8.34,4.971,10.156,11.045,10.459
		c-14.844,12.061-29.038,27.275-43.423,38.438c-10.449,12.256-4.619,23.223-5.581,37.422c3.965,4.932,8.14,2.373,13.955,0.703
		c-1.411-10.654,1.392-18.096,1.147-27.48c18.35-16.289,36.65-32.285,55.22-48.564c1.392-0.518,2.1,0.703,3.247,1.094
		c-5.308,27.461-16.704,67.793-12.285,92.227c0.703,1.641-0.239,4.668,2.817,6.064c4.365,0.703,11.318,4.121,13.887-1.006
		c1.768-16.152-3.838-28.984,4.409-47.5c-0.894,0.518-0.444-0.381,0,0c2.554,8.145,1.411,12.881,1.152,22.441
		c5.122,0.615,12.095,3.438,15.103-2.793c2.109-17.246-3.462-36.318-5.112-58.662c0.693-2.324-1.157-4.424,1.846-6.738
		c17.412,11.357,33.906,30.156,51.064,43.057c6.963,6.934,4.414,30.879,4.414,30.879c10.43,2.422,12.793,1.211,12.793,1.211h1.689
		c0,0,4.678-25.674-5.762-42.461l-46.45-38.525c0.61-0.605,9.639-0.41,11.743-0.918c6.729-2.793,8.135-9.346,4.414-15.186
		c-6.724-1.113-11.489-1.797-20.562-2.109c-4.863,0.42-4.966-2.949-4.966-13.486c0.708-56.543-1.406-6.035,0.459-63.271"/>
	<path id="path164" fill="#02709F" d="M207.537,660.715c3.687,0,6.685,2.998,6.685,6.699v3.516c0,3.701-2.998,6.699-6.685,6.699
		h-1.46c0,0-37.935,9.365-76.797,0c-3.701,0-6.733-2.998-6.733-6.699v-3.516c0-3.701,3.032-6.699,6.733-6.699
		C164.084,672.405,207.537,660.715,207.537,660.715"/>
	<path id="path166" fill="none" stroke="#FFFFFF" stroke-width="3.9999" d="M207.537,660.715c3.687,0,6.685,2.998,6.685,6.699v3.516
		c0,3.701-2.998,6.699-6.685,6.699h-1.46c0,0-37.935,9.365-76.797,0c-3.701,0-6.733-2.998-6.733-6.699v-3.516
		c0-3.701,3.032-6.699,6.733-6.699C164.084,672.405,207.537,660.715,207.537,660.715z"/>
	<path id="path168" fill="#02709F" d="M138.44,421.702c8.657,0,15.635-7.373,15.635-16.426s-6.978-16.426-15.635-16.426
		c-8.599,0-15.601,7.373-15.601,16.426S129.841,421.702,138.44,421.702"/>
	<path id="path170" fill="none" stroke="#FFFFFF" stroke-width="3.9999" d="M138.44,421.702c8.657,0,15.635-7.373,15.635-16.426
		s-6.978-16.426-15.635-16.426c-8.599,0-15.601,7.373-15.601,16.426S129.841,421.702,138.44,421.702z"/>
	<path id="path172" fill="#02709F" d="M132.673,422.932c8.594,0,15.576-7.383,15.576-16.436c0-9.121-6.982-16.504-15.576-16.504
		c-8.623,0-15.591,7.383-15.591,16.504C117.083,415.549,124.05,422.932,132.673,422.932"/>
	<path id="path174" fill="none" stroke="#FFFFFF" stroke-width="3.9999" d="M132.673,422.932c8.594,0,15.576-7.383,15.576-16.436
		c0-9.121-6.982-16.504-15.576-16.504c-8.623,0-15.591,7.383-15.591,16.504C117.083,415.549,124.05,422.932,132.673,422.932z"/>
	<path id="path176" fill="#02709F" d="M136.741,524.602l34.189,0.605"/>
	<path id="path178" fill="none" stroke="#FFFFFF" stroke-width="3.9999" d="M136.741,524.602l34.189,0.605"/>
	<path id="path180" fill="#02709F" d="M258.831,585.666c3.701,0,6.689-2.998,1.094-8.477v-49.502
		c5.596-1.807,2.607-4.814-1.094-4.814H105.388l-8.408-4.727c-3.701,0-46.099,3.613-46.099,7.314v53.516
		c0,3.691,2.979,6.689,6.68,6.689H258.831"/>
	<path id="path182" fill="none" stroke="#FFFFFF" stroke-width="3.9999" d="M258.831,585.666c3.701,0,6.689-2.998,1.094-8.477
		v-49.502c5.596-1.807,2.607-4.814-1.094-4.814H105.388l-8.408-4.727c-3.701,0-46.099,3.613-46.099,7.314v53.516
		c0,3.691,2.979,6.689,6.68,6.689H258.831z"/>
	<path id="path184" fill="#02709F" d="M63.933,582.6c-3.335,0-6.011-2.744-6.011-6.016v-44.502c0-3.408,2.676-6.016,6.011-6.016
		H245.1c3.33,0,6.006,2.607,6.006,6.016v44.502c0,3.271-2.676,6.016-6.006,6.016H63.933"/>
	<path id="path186" fill="none" stroke="#FFFFFF" stroke-width="3.9999" d="M63.933,582.6c-3.335,0-6.011-2.744-6.011-6.016v-44.502
		c0-3.408,2.676-6.016,6.011-6.016H245.1c3.33,0,6.006,2.607,6.006,6.016v44.502c0,3.271-2.676,6.016-6.006,6.016H63.933z"/>
	<path id="path188" fill="#02709F" d="M309.358,533.371c4.297-3.994,3.447-10.254,3.447-5.83V488.01c0-3.379-2.734-6.123-5.4-4.287
		l-41.592,40.078c-3.398,2.979-5.508,6.65-5.508,9.932v37.09c0,3.398,2.734,6.006,5.986,6.006L309.358,533.371"/>
	<path id="path190" fill="none" stroke="#FFFFFF" stroke-width="3.9999" d="M309.358,533.371c4.297-3.994,3.447-10.254,3.447-5.83
		V488.01c0-3.379-2.734-6.123-5.4-4.287l-41.592,40.078c-3.398,2.979-5.508,6.65-5.508,9.932v37.09c0,3.398,2.734,6.006,5.986,6.006
		L309.358,533.371z"/>
	<path id="path192" fill="#02709F" d="M57.961,446.506c2.969-26.719-12.876-75.722,16.504-93.711
		c125.181-0.615,35.376,0.84,160.518,0.518l2.715,1.416c15.576-2.217,10.596,92.754,10.596,92.754L57.961,446.506"/>
	<path id="path194" fill="none" stroke="#FFFFFF" stroke-width="3.9999" d="M57.961,446.506
		c2.969-26.719-12.876-75.722,16.504-93.711c125.181-0.615,35.376,0.84,160.518,0.518l2.715,1.416
		c15.576-2.217,10.596,92.754,10.596,92.754L57.961,446.506z"/>
	<path id="path196" fill="#02709F" d="M99.519,512.961l14.751,9.297H57.195l33.115-20.391L99.519,512.961"/>
	<path id="path198" fill="none" stroke="#FFFFFF" stroke-width="3.9999" d="M99.519,512.961l14.751,9.297H57.195l33.115-20.391
		L99.519,512.961z"/>
</g>
</svg>
