<?xml version="1.0" encoding="utf-8"?>
<!-- Generator: Adobe Illustrator 16.0.0, SVG Export Plug-In . SVG Version: 6.00 Build 0)  -->
<!DOCTYPE svg PUBLIC "-//W3C//DTD SVG 1.1//EN" "http://www.w3.org/Graphics/SVG/1.1/DTD/svg11.dtd">
<svg version="1.1"
	 id="svg2" xmlns:dc="http://purl.org/dc/elements/1.1/" xmlns:cc="http://creativecommons.org/ns#" xmlns:rdf="http://www.w3.org/1999/02/22-rdf-syntax-ns#" xmlns:svg="http://www.w3.org/2000/svg"
	 xmlns="http://www.w3.org/2000/svg" xmlns:xlink="http://www.w3.org/1999/xlink" x="0px" y="0px" width="56px" height="80px"
	 viewBox="0 0 56 80" enable-background="new 0 0 56 80" xml:space="preserve">
<g id="g12" transform="scale(0.1,0.1)">
	<path id="path22" fill="#02709F" d="M332.046,696.631l-11.27,24.561c0,0,0,10.557,14.912,5.273l12.813-5.273l13.721-15.85
		l2.266-0.996c0.342-4.658,0.752-9.482,1.729-14.307c1.855-8.35-0.977-17.334,1.66-24.873c6.68-18.994,13.242-37.695,20.283-56.641
		c5.518-14.805-2.471-32.119,3.301-46.679l-41.299-13.242c-2.832,43.896-3.369,87.304-5.557,130.976
		c-3.984,6.025-8.291,11.66-12.715,17.148L332.046,696.631"/>
	<path id="path24" fill="#02709F" d="M444.556,693.359L444.556,693.359l0.488,4.775l11.777,14.746l19.033,15.83l12.842-1.064
		c3.115-8.418,7.441-10.557,7.441-10.557c-7.793-7.227-17.422-12.383-21.826-22.666c-2.676-6.543-4.551-13.633-4.414-20.068
		c1.455-41.582,5.771-82.666,10.117-124.531l-44.014,10.518c-3.711,1.787-2.139,5.986-2.432,8.525
		c-0.918,9.746-2.432,19.541-0.195,29.336c2.031,8.896,5.635,16.787,7.188,25.586C444.741,647.285,446.44,670.107,444.556,693.359"
		/>
	<path id="path26" fill="#02709F" d="M132.998,42.412c1.636,1.958,2.3,4.629,2.515,6.436c0.864,8.472-2.261,17.104-5.308,25.02
		c-0.771,2.046-0.728,7.441-3.13,5.85c-2.832-1.836-5.195-6.006-8.198-7.041c-3.73-1.294-7.686,2.49-11.426,4.609
		c6.875,9.204,15.298,18.604,11.704,30.62c-8.76-12.866-18.022-25.591-24.531-39.521c-3.54-7.598-2.188-18.677,2.471-24.976
		C104.219,33.74,115,25.537,126.87,22.539c16.064-4.043,32.08-7.363,48.618-7.544c-14.951,7.417-29.043,14.546-43.408,24.546
		C131.323,40.073,132.266,41.494,132.998,42.412"/>
	<path id="path28" fill="#02709F" d="M189.429,43.564c-3.745,7.266-7.324,14.321-11.836,21.06c0.337-1.035-0.229-1.846-1.074-1.992
		c-2.09-0.381-4.902,0.586-5.986-0.493c-1.064-1.079-1.064-4.463,0-5.649c1.245-1.348,5.142,0.703,5.405,0.356
		c7.29-11.646-6.182-21.128-11.084-31.294c10.811-0.225,19.497,6.904,29.756,8.438C192.51,36.968,191.162,40.303,189.429,43.564"/>
	<path id="path30" d="M148.872,63.667c-1.738-0.337-4.59,0.22-4.717-0.259c-3.105-10.273,11.084-5.459,17.515-8.296
		C160.127,61.826,156.123,65.029,148.872,63.667"/>
	<path id="path32" d="M166.968,80.454c-2.451,0-4.951,0-7.427,0c2.91-2.51,6.025-4.756,9.595-6.338
		c-0.391,2.236,0.269,4.297,1.05,6.338C169.136,80.454,168.071,80.454,166.968,80.454"/>
	<path id="path34" d="M164.854,93.125c-4.971,0-9.917,0-14.897,0c1.841-1.68,4.629-2.31,6.431-2.52
		c4.785-0.542,11.03-3.892,14.858,2.52C169.136,93.125,166.968,93.125,164.854,93.125"/>
	<path id="path36" d="M163.691,97.598c3.604,1.499-1.499,1.558-0.942,2.915c-2.803,0.63-3.701-1.904-5.327-3.154
		C159.541,97.358,161.88,96.831,163.691,97.598"/>
	<path id="path38" fill="#02709F" d="M204.199,746.64c14.048,9.248,27.715,18.945,41.523,28.506c-2.085,1.65-1.44,5.781-3.242,5.781
		c-11.289,0.068-22.598,0.508-33.887-1.26c-10.391-1.582-19.063-8.184-29.067-11.211c-1.592-0.469-1.792,4.736-3.105,4.971
		c-8.374,1.621-17.388-1.123-23.496-5.703c-4.717-3.486,0.024-12.539-3.14-18.887L204.199,746.64"/>
	<path id="path40" fill="#02709F" d="M149.785,748.838c-0.171-0.244-1.724-0.078-1.724-0.107
		c-3.105-95.068-1.44-189.97-4.487-285.068c-15.391,92.939-27.432,182.881-45.513,278.623c-0.317,1.758-6.484,0.723-6.978,3.418
		l-46.445-0.752c1.719-3.027-1.538-9.023-0.957-14.141c5.532-50.566,12.051-99.727,14.595-149.932
		c2.607-51.094,3.916-101.943,6.396-153.032c0.41-9.082,4.468-18.428,3.672-27.402c-0.254-2.881-5.044-4.536-8.774-5.371
		c3.564-8.481,4.59-17.705,7.441-26.406c-15.557-16.577-31.973-31.27-45.703-50.381c-4.385-6.113-6.67-15.107-6.265-22.373
		c2.578-44.287,12.793-87.554,12.637-132.046c21.768-13.628,47.622-16.86,70.757-27.383c8.652-3.921,17.559-9.033,20.718-19.082
		c11.797,8.218,21.348,19.326,34.302,25.815c1.216,0.576,2.129-2.754,2.886-4.707c0.381,0.361,0.728,0.708,1.079,1.074
		c1.187-3.418,1.162-5.903,4.248-8.457c-0.767-0.518-1.582-1.318-0.928-1.982c2.007-1.934,2.295-4.629,4.111-6.465
		c1.963,3.716,5.493,6.382,8.789,7.881c18.315,8.359,36.978,15.015,55.84,22.246c6.758,2.593,14.185,7.29,17.031,12.754
		c2.134,4.023-0.586,11.172-1.987,17.275c-1.68,7.246-3.34,14.307-3.345,21.138c-0.166,31.167,8.457,61.743,10.894,92.905
		c-13.564,16.987-23.74,36.118-36.191,53.853c2.72,14.98,9.824,29.556,9.404,44.292c-0.044,1.279-8.301,2.852-8.354,5.366
		c-0.41,17.104,3.022,34.331,1.968,51.724c-5.693,98.521-5.83,196.509-14.702,294.526L149.785,748.838"/>
	<path id="path42" fill="#02709F" d="M91.084,745.703c-1.084,6.162,2.739,13.574-0.591,18.184
		c-4.448,6.25-12.754,8.906-20.063,12.744c-2.563,1.377-1.108,7.148-4.536,7.471c-14.146,1.592-28.286,0.576-42.471,0.576
		c0.361-6.699-1.401-14.277,1.987-19.473c5.19-7.793,14.878-12.402,19.229-20.254L91.084,745.703"/>
	<path id="path44" fill="#02709F" d="M76.318,284.233c-0.259-12.373-1.812-24.727-3.984-36.978
		c-4.946,11.865-7.334,24.966-7.08,36.938c0.107,5.068,6.392,10.586,10.293,15.879C78.13,294.907,76.406,289.468,76.318,284.233"/>
	<path id="path46" fill="#02709F" d="M358.384,155.41c-3.32-3.579-9.6-3.628-9.58-9.492c3.682,0.02,7.422,0.317,10.615-2.129
		c-6.26-2.28-9.355-7.915-10.029-13.774c-0.078-0.737,1.436-3.818,2.578-3.691c2.637,0.21,2.666,4.536,5.4,5.801
		c1.006,0.464,1.807-0.166,1.953-1.025c0.811-3.267-0.303-6.318-0.938-9.482c3.506,1.108,9.902,2.456,9.902-1.035
		c-0.068-5.186-7.451-10.962-2.93-15.205c1.377-1.211,6.455,5.283,6.924,1.362c0.527-3.75-5.029-8.208-4.736-12.505
		c0.303-2.993,6.133-3.745,7.344-6.606c1.836-4.795-2.07-10.889-0.645-15.347c3.906-13.213,11.865-24.878,18.242-37.231
		c16.289-0.498,22.451-16.328,48.809-2.5c0.664,0.361-2.598-0.2-1.904,1.401c0.254,0.854,1.211,1.885,1.992,1.934
		c4.307,0.347,9.395-0.425,11.172,3.594c1.348,2.935-3.066,6.465-2.119,9.097c1.387,3.989,9.404,2.163,10.244,5.688
		c1.572,6.816-6.338,13.501-5.303,19.639c0.684,3.442,8.408,4.951,10.84,9.033c2.793,4.722-0.84,11.558,3.838,16.523
		c1.846-2.144,4.092-3.76,6.445-5.298c0.605,4.175,2.314,7.944,4.189,11.626c2.715-3.594,5.938-6.812,8.535-10.557
		c2.52,2.158,1.387,6.025,0.488,6.851c-4.531,4.307-8.818,10.01-15.293,11.704c-0.82,0.229-1.289,0.801-1.641,1.533l-7.51-4.233
		c-0.859,1.807,5.273,4.512,2.666,5.259l1.074,4.224c3.818,4.146,8.33,1.318,12.783,0c2.246,7.393-7.793,8.359-8.818,13.882
		c-0.488,2.842,4.824,2.026,7.715,0.908c-0.986,5.249-5.566,7.856-8.555,11.616"/>
	<path id="path48" d="M496.138,716.064c6.973,6.514,11.563,16.26,17.832,23.33c1.309,1.504-3.271,5.195-5.586,5.02
		c-12.109-0.693-22.744,1.484-33.672-2.52c-9.482-3.486-9.775-16.973-22.734-23.232c-4.297,4.287-1.563,10.088-3.438,14.688
		c-0.176,0.322-2.49,0.293-2.598,0.029c-4.16-13.555-14.824-30.049-1.387-41.094l0.488,4.746l11.777,14.795l19.033,15.82
		l12.842-1.035C491.812,718.164,496.138,716.064,496.138,716.064"/>
	<path id="path50" fill="#02709F" d="M391.46,567.598c2.256-5.625,11.641-6.514,17.861-5.889c2.832,0.332,4.932,6.455,7.637,6.699
		c5.098,0.459,9.336-6.338,14.902-7.021c1.572-0.146,3.047,2.803,4.141,4.727l17.549-5.283l14.873,7.988l9.014-13.271l2.578,0.039
		c0.156-1.035,3.32-1.797,3.35-2.197c6.025-51.279,8.184-100.63,14.434-151.982c0.879-7.603-1.699-14.766-1.143-22.178
		c2.295,0.688,4.17-1.387,6.406-1.04c-0.674-11.45-5.068-22.314-5.332-33.784c15.615-18.701,31.855-36.27,44.766-57.568
		c2.314-3.853,3.369-10.029,1.67-15.205c-5.176-16.211-10.84-31.646-16.768-47.554c-8.682-23.633-15.586-47.393-24.336-70.776
		c-10.029-3.364-20.869-2.91-30.928-6.328l-48.359-5.82l-65.391,14.258c-14.785,4.736-29.258,9.858-42.476,17.954
		c-2.666,22.466,0.088,44.404-4.639,67.471c-2.842,13.188-4.297,25.151-6.514,38.228c-0.869,5.552-3.252,11.187-1.406,16.655
		c2.363,6.719,2.441,14.814,6.895,19.458c12.417,12.808,29.272,19.653,42.856,31.318c-1.318,9.194-4.551,17.612-7.451,26.431
		c-1.055,3.403,3.77,2.852,3.662,4.092c-1.104,5.938-5.303,11.553-5.879,17.139c-5.664,53.438-3.516,106.157-0.938,159.233
		c0.029,1.201,7.9-1.934,7.666,1.133l10.41,9.98l17.52-5.283l13.271,9.6"/>
	<path id="path52" d="M457.31,126.904c-2.725-3.379-6.592-5.361-9.541-8.442c-1.113,1.064-2.959,2.124-2.939,3.145
		c0.137,3.887-1.27,10.757,2.91,10.566c2.51-0.112,0.381-5.996,1.025-9.492c1.279,2.588,2.148,5.552,4.453,7.07
		C455.151,130.981,455.483,127.495,457.31,126.904"/>
	<path id="path54" fill="#FFFFFF" d="M445.62,171.094c-0.713-0.269-1.094-1.177-2.168-0.903c0-1.387-0.439-3.247,0.264-3.975
		c0.732-0.718,2.568-0.254,4.053-0.254c-0.332,1.04,0.254,1.606,0.996,2.124c2.432-7.402,0.273-14.858-0.83-22.065
		c-0.313-2.803-6.318-2.671-8.057-4.834c-3.408-4.258-5.176-19.585-0.781-19.263c11.357,0.82,11.895-21.138,15.225-33.442
		c1.289-5.029-1.24-6.816-3.457-12.251c-1.504,0.679-0.664,2.607-1.162,2.861c-2.451,1.221-6.055,2.744-7.979,0.967
		c-1.113-0.981-1.113-4.59,0-5.532c1.895-1.685,10.195-3.003,10.088-2.744c2.051-5.776-1.309-10.405-5.156-15.62
		c-1.914,2.959-3.896,3.706-7.412,3.179c2.295-1.948,2.119-8.188-0.547-6.587c-4.531,2.637-3.926,10.796-11.211,10.806
		c0.186-3.066,0.186-6.074-2.1-8.447c-2.334,3.335-4.893,7.075-8.428,6.66c-2.295-0.278-1.523-7.046-4.844-4.004
		c-3.916,3.525,2.861,8.389,1.426,13.13c-2.881,9.453-2.803,18.677-8.135,27.656c-0.771,1.348-0.713,3.56-0.02,5.01
		c1.084,2.339,3.33,3.955,6.152,3.281c-0.088,4.092-4.58,1.792-6.172,4.331c-0.537,0.791-0.518,2.144,0,2.979
		c1.973,3.379,5.82,3.623,9.375,3.247c-1.035,6.362-8.223,7.334-12.734,4.214c-1.104,6.499,2.383,12.173,8.535,13.74
		c-2.891,3.916-7.441,0.708-10.283,2.715c-3.574,2.617,0.928,7.842-0.371,12.065c-0.664-1.499-2.588-1.382-2.861-0.859
		c-3.213,4.561,0.781,10.64,1.729,15.635c0.693-1.499,2.148-1.255,3.203-0.913c1.914,0.664,0.889,2.656,1.143,4.087
		c-1.094,0-2.295-0.273-3.125,0.122c-2.988,1.382,1.016,3.389-0.088,5.156c10.039,5.713,21.504,9.092,32.803,7.627
		c3.008-0.381,6.807-2.153,9.766-4.463c-2.822-1.973-8.252-0.22-6.201-5.21c0.889-2.192,3.613-1.406,4.873-0.796
		c1.709,0.786-0.166,3.218,0.332,4.922c0.244,0.845,1.045,1.602,1.904,0.991c2.871-1.958,6.016-3.374,7.295-6.362
		c0.146-0.371-1.201-1.743-1.904-1.772C447.29,168.257,447.974,171.948,445.62,171.094"/>
	<path id="path56" d="M432.7,80.098c-0.391,0.859-1.396,1.987-1.963,1.899c-4.609-0.635-9.307-0.288-11.709-5.01
		c5.693-1.719,11.514-4.141,16.65-0.547C437.056,77.422,433.599,78.452,432.7,80.098"/>
	<path id="path58" d="M447.095,95.02c-1.152,3.286-5.293,0.474-8.379,1.27c1.904-3.281,3.447-4.653,7.461-5.278
		C446.235,92.847,447.505,94.087,447.095,95.02"/>
	<path id="path60" d="M443.198,105.366c-3.623,0.391-7.09,1.367-10.684,0.264c5.469-3.35,11.934-1.738,17.773-3.262
		c-0.674,0.61-1.172,1.24-0.83,2.236C447.388,104.863,445.298,105.127,443.198,105.366"/>
	<path id="path62" d="M432.661,178.403c-2.227,1.401-6.084-0.781-4.971-3.911c0.518-1.484,2.09-2.935,4.063-2.075
		C434.136,173.472,435.151,176.821,432.661,178.403"/>
	<path id="path64" d="M423.276,177.578c-1.377,0.654-1.846-1.655-3.213-1.05c0.273-1.445-0.879-3.521,1.182-4.023
		c1.289-0.342,3.311-1.011,3.994,0.903C425.864,175.186,425.093,176.743,423.276,177.578"/>
	<path id="path66" fill="#02709F" d="M414.741,175.396c-1.113,0.181-2.754,0.605-3.057-0.991c-0.215-1.411-1.016-3.477,0.986-4.033
		c2.822-0.815,5.342,1.377,4.063,3.975C416.479,174.927,415.493,175.278,414.741,175.396"/>
	<path id="path68" d="M408.325,171.089c-0.908,0.439-2.539,0.649-3.047-0.913c-1.084-2.92,2.48-4.121,3.906-2.866
		C409.946,168.032,409.751,170.371,408.325,171.089"/>
	<path id="path70" d="M442.603,109.819c-2.1,0.107-3.828-0.576-5.439-1.563c3.447-0.444,6.934-0.869,10.557-1.318
		C446.567,108.906,444.937,109.697,442.603,109.819"/>
	<path id="path72" fill="#FFFFFF" d="M107.944,133.77l15.972,47.51l34.019,80.225l15.957-83.389l-3.164-46.455l-6.421-6.333
		l-10.625,19.526l-35.098-24.814C118.584,126.904,107.944,133.77,107.944,133.77"/>
	<path id="path74" fill="#02709F" d="M149.956,145.918l4.253,2.637l2.661-3.174l4.287,5.811l-5.327,7.393l7.974,73.906
		l-5.869,31.147l-15.4-35.361l7.422-70.229l-4.229-5.273L149.956,145.918"/>
	<path id="path76" fill="#FFFFFF" d="M400.396,173.364l3.701,16.909l40.947,74.932l14.365-69.658l-9.531-24.819
		C432.31,192.91,400.396,173.364,400.396,173.364"/>
	<path id="path78" d="M362.173,704.404l-13.867,15.84l-12.734,5.283c-14.98,5.273-14.98-5.283-14.98-5.283l11.299-24.551
		c-5.967,7.598-11.963,15.127-17.056,23.633c-4.336,7.285-10.098,15.117-9.912,23.623c0.029,1.484,3.506,4.053,6.611,3.096
		c9.692-2.852,19.8-2.852,28.384-7.109c7.656-3.76,10.908-13.213,17.412-19.17c2.578,3.184-0.068,7.285,2.09,10.557
		c4.268-8.682,4.473-17.725,5.068-26.973L362.173,704.404"/>
	<path id="path80" fill="#FFFFFF" d="M501.479,227.729c-10.684-14.785-21.289-0.522-21.289-0.522
		c-5.889,8.447,1.602,15.82,1.602,15.82l0.986-1.563c-6.279-8.975,1.611-15.317,1.611-15.317
		C492.417,234.609,501.479,227.729,501.479,227.729"/>
	<path id="path82" fill="#FFFFFF" d="M497.495,208.203c0.02-5.015-6.123-2.52-8.271,0c-0.693-1.675,1.426-2.778,0.957-4.189
		c-0.713-1.904-2.93-1.299-4.092-0.874c-2.217,0.781-0.791,3.315-1.152,5.063c-3.779-2.456-8.271-4.795-9.15,1.113
		c-0.703,3.706,5.068,2.031,6.006,5.21c-1.846,0.366-4.404-1.074-5.176,1.133c-0.391,1.24-1.006,3.472,0.918,3.975
		c2.676,0.659,5.166-0.327,7.402-1.909c-0.273,3.179-2.002,7.886,3.086,6.104c2.969-1.035,2.227-4.424,2.217-7.173
		c1.035,2.285,3.857,1.543,5.293,3.154c1.074-1.23,1.572-2.71,2.285-4.165c1.846-4.038-3.506-2.349-4.424-4.268
		C496.05,211.865,497.466,210.215,497.495,208.203"/>
</g>
</svg>
