<?xml version="1.0" encoding="utf-8"?>
<!-- Generator: Adobe Illustrator 16.0.0, SVG Export Plug-In . SVG Version: 6.00 Build 0)  -->
<!DOCTYPE svg PUBLIC "-//W3C//DTD SVG 1.1//EN" "http://www.w3.org/Graphics/SVG/1.1/DTD/svg11.dtd">
<svg version="1.1" id="Layer_1" xmlns="http://www.w3.org/2000/svg" xmlns:xlink="http://www.w3.org/1999/xlink" x="0px" y="0px"
	 width="75px" height="75px" viewBox="0 0 75 75" enable-background="new 0 0 75 75" xml:space="preserve">
<g>
	<rect y="14.583" fill="#4B612C" width="18.75" height="4.167"/>
	<rect x="28.125" y="14.583" fill="#4B612C" width="18.75" height="4.167"/>
	<rect fill="#759C3E" width="18.75" height="16.146"/>
	<rect x="56.25" y="14.583" fill="#4B612C" width="18.75" height="4.167"/>
	<rect y="42.708" fill="#4B612C" width="18.75" height="4.167"/>
	<rect x="28.125" y="42.708" fill="#4B612C" width="18.75" height="4.167"/>
	<rect x="56.25" y="42.708" fill="#4B612C" width="18.75" height="4.167"/>
	<rect y="70.833" fill="#4B612C" width="18.75" height="4.167"/>
	<rect x="28.125" y="70.833" fill="#4B612C" width="18.75" height="4.167"/>
	<rect x="56.25" y="70.833" fill="#4B612C" width="18.75" height="4.167"/>
	<rect x="28.125" fill="#759C3E" width="18.75" height="16.146"/>
	<rect x="56.25" fill="#759C3E" width="18.75" height="16.146"/>
	<rect y="28.125" fill="#759C3E" width="18.75" height="16.146"/>
	<rect x="28.125" y="28.125" fill="#759C3E" width="18.75" height="16.146"/>
	<rect x="56.25" y="28.125" fill="#759C3E" width="18.75" height="16.146"/>
	<rect y="56.25" fill="#759C3E" width="18.75" height="16.146"/>
	<rect x="28.125" y="56.25" fill="#759C3E" width="18.75" height="16.146"/>
	<rect x="56.25" y="56.25" fill="#759C3E" width="18.75" height="16.146"/>
</g>
</svg>
