<?xml version="1.0" encoding="utf-8"?>
<!-- Generator: Adobe Illustrator 16.0.0, SVG Export Plug-In . SVG Version: 6.00 Build 0)  -->
<!DOCTYPE svg PUBLIC "-//W3C//DTD SVG 1.1//EN" "http://www.w3.org/Graphics/SVG/1.1/DTD/svg11.dtd">
<svg version="1.1" id="Layer_1" xmlns="http://www.w3.org/2000/svg" xmlns:xlink="http://www.w3.org/1999/xlink" x="0px" y="0px"
	 width="62px" height="75px" viewBox="0 0 62 75" enable-background="new 0 0 62 75" xml:space="preserve">
<g>
	<polygon fill="#3C4929" points="8.818,33.313 6.819,33.404 0,33.131 1.91,23.756 	"/>
	<polygon fill="#B7CA9D" points="8.818,42.051 6.819,41.869 0,42.143 1.91,51.518 	"/>
	<polygon fill="#4B612C" points="1.91,42.324 0,42.143 0,50.971 1.91,51.518 	"/>
	<polygon fill="#759C3E" points="8.818,50.605 1.91,51.518 1.91,42.324 8.818,42.051 	"/>
	<polygon fill="#B7CA9D" points="21.546,42.779 16,42.324 6.181,42.779 11.455,59.617 	"/>
	<polygon fill="#4B612C" points="1.91,32.949 0,33.131 0,24.302 1.91,23.756 	"/>
	<polygon fill="#759C3E" points="8.818,24.666 1.91,23.756 1.91,32.949 8.818,33.313 	"/>
	<polygon fill="#3C4929" points="21.546,32.585 16,32.949 6.181,32.494 11.455,15.655 	"/>
	<polygon fill="#4B612C" points="6.181,17.476 11.455,15.655 11.455,31.948 6.181,32.494 	"/>
	<polygon fill="#759C3E" points="21.546,17.931 11.455,15.655 11.455,31.948 21.546,32.585 	"/>
	<polygon fill="#4B612C" points="6.181,57.706 11.455,59.617 11.455,43.325 6.181,42.779 	"/>
	<polygon fill="#759C3E" points="21.546,57.523 11.455,59.617 11.455,43.325 21.546,42.779 	"/>
	<polygon fill="#4B612C" points="17.91,68.445 31,75 61.728,37.5 31,0 17.91,6.553 	"/>
	<polygon fill="#759C3E" points="62,59.436 31,75 31,0 62,15.564 	"/>
</g>
</svg>
