<?xml version="1.0" encoding="utf-8"?>
<!-- Generator: Adobe Illustrator 16.0.0, SVG Export Plug-In . SVG Version: 6.00 Build 0)  -->
<!DOCTYPE svg PUBLIC "-//W3C//DTD SVG 1.1//EN" "http://www.w3.org/Graphics/SVG/1.1/DTD/svg11.dtd">
<svg version="1.1" id="Layer_1" xmlns="http://www.w3.org/2000/svg" xmlns:xlink="http://www.w3.org/1999/xlink" x="0px" y="0px"
	 width="67px" height="77px" viewBox="0 0 67 77" enable-background="new 0 0 67 77" xml:space="preserve">
<g>
	<polygon fill="#B7CA9D" points="67.5,52.984 33.5,47.936 -0.5,52.984 33.5,77 	"/>
	<polygon fill="#4B612C" points="6.319,52.424 12.016,54.106 25.562,33.454 12.016,12.708 6.319,14.858 	"/>
	<polygon fill="#759C3E" points="32.38,50.648 12.016,54.199 12.016,12.708 32.38,17.287 	"/>
	<polygon fill="#4B612C" points="23.319,57.561 15.379,55.226 15.379,4.019 23.319,0 46.857,30.37 	"/>
	<polygon fill="#759C3E" points="50.499,51.302 23.319,57.657 23.319,0 50.499,10.652 	"/>
	<polygon fill="#4B612C" points="33.5,65.039 -0.5,52.984 -0.5,59.994 33.5,77 	"/>
	<polygon fill="#759C3E" points="67.5,59.994 33.5,77 33.5,65.039 67.5,52.984 	"/>
	<polygon fill="#B7CA9D" points="57.975,41.396 49.659,41.396 26.214,42.986 33.5,60.646 	"/>
	<polygon fill="#4B612C" points="26.214,58.404 33.5,60.646 33.5,43.734 26.214,42.986 	"/>
	<polygon fill="#759C3E" points="57.975,41.396 33.5,43.734 33.5,60.646 57.975,53.264 	"/>
</g>
</svg>
