<?xml version="1.0" encoding="utf-8"?>
<!-- Generator: Adobe Illustrator 16.0.0, SVG Export Plug-In . SVG Version: 6.00 Build 0)  -->
<!DOCTYPE svg PUBLIC "-//W3C//DTD SVG 1.1//EN" "http://www.w3.org/Graphics/SVG/1.1/DTD/svg11.dtd">
<svg version="1.1" id="Layer_1" xmlns="http://www.w3.org/2000/svg" xmlns:xlink="http://www.w3.org/1999/xlink" x="0px" y="0px"
	 width="62px" height="75px" viewBox="0 0 62 75" enable-background="new 0 0 62 75" xml:space="preserve">
<g>
	<polygon fill="#3C4929" points="50,28.762 58.182,17.384 62,28.762 54.091,29.399 	"/>
	<polygon fill="#B7CA9D" points="49.364,46.236 58.182,49.516 62,46.236 53.727,45.602 	"/>
	<polygon fill="#B7CA9D" points="38.455,47.876 47.273,49.605 54.364,47.876 45,46.875 	"/>
	<polygon fill="#4B612C" points="44.092,27.852 53.272,26.851 53.272,47.967 44.092,46.875 	"/>
	<polygon fill="#3C4929" points="39.363,26.851 48.728,25.576 54.818,26.851 45.727,27.852 	"/>
	<polygon fill="#759C3E" points="58,23.119 53.272,21.753 53.272,53.246 58,51.881 	"/>
	<polygon fill="#3C4929" points="12,28.762 6.001,22.026 0,28.762 7.909,29.399 	"/>
	<polygon fill="#B7CA9D" points="12.636,46.236 4.092,52.245 0,46.236 8.273,45.602 	"/>
	<polygon fill="#B7CA9D" points="23.545,47.876 15.09,51.063 7.637,47.876 17,46.875 	"/>
	<polygon fill="#759C3E" points="17.91,27.852 7.273,26.851 8.728,47.967 17.91,46.875 	"/>
	<polygon fill="#3C4929" points="22.727,26.851 13.273,25.667 7.273,26.851 16.364,27.852 	"/>
	<polygon fill="#759C3E" points="31.091,56.432 19.454,54.156 19.91,20.206 31.091,20.57 	"/>
	<polygon fill="#4B612C" points="14.456,55.066 21.727,57.16 21.727,17.84 14.456,19.933 	"/>
	<polygon fill="#4B612C" points="31,53.064 41.728,52.427 41.455,23.483 31,24.12 	"/>
	<polygon fill="#4B612C" points="4,23.119 8.728,21.753 8.728,53.246 4,51.881 	"/>
	<polygon fill="#4B612C" points="31,0 0,15.564 0,28.762 31,22.481 	"/>
	<polygon fill="#3C4929" points="40.272,24.302 31,25.758 21.727,24.302 31,22.481 	"/>
	<polygon fill="#B7CA9D" points="40.363,50.605 31,49.061 21.727,50.697 31,75 	"/>
	<polygon fill="#4B612C" points="0,46.236 31,52.518 31,75 0,59.436 	"/>
	<polygon fill="#759C3E" points="62,46.236 31,52.518 31,75 62,59.436 	"/>
	<polygon fill="#759C3E" points="47.544,55.066 40.363,57.16 40.363,17.84 47.544,19.933 	"/>
	<polygon fill="#759C3E" points="31,0 62,15.564 62,28.762 31,22.481 	"/>
</g>
</svg>
