<?xml version="1.0" encoding="utf-8"?>
<!-- Generator: Adobe Illustrator 16.0.0, SVG Export Plug-In . SVG Version: 6.00 Build 0)  -->
<!DOCTYPE svg PUBLIC "-//W3C//DTD SVG 1.1//EN" "http://www.w3.org/Graphics/SVG/1.1/DTD/svg11.dtd">
<svg version="1.1" id="Layer_1" xmlns="http://www.w3.org/2000/svg" xmlns:xlink="http://www.w3.org/1999/xlink" x="0px" y="0px"
	 width="65px" height="77px" viewBox="0 0 65 77" enable-background="new 0 0 65 77" xml:space="preserve">
<path fill="#4B612C" d="M55.684,35.246V16.593c0-7.699-6.284-13.99-13.975-13.99H23.184c-7.692,0-13.976,6.291-13.976,13.99v18.545
	H0V77h65V35.246H55.684z M46.476,35.246h-27.95V20.388c0-4.663,3.791-8.351,8.342-8.351h11.16c4.659,0,8.341,3.795,8.341,8.351
	L46.476,35.246L46.476,35.246z"/>
<path fill="#759C3E" d="M55.684,32.535V13.99C55.684,6.29,49.399,0,41.709,0H23.184C15.491,0,9.208,6.29,9.208,13.99v18.544H0
	v41.861h65V32.535H55.684z M46.476,32.535h-27.95V17.678c0-4.663,3.791-8.351,8.342-8.351h11.16c4.659,0,8.341,3.796,8.341,8.351
	L46.476,32.535L46.476,32.535z"/>
</svg>
