<?xml version="1.0" encoding="utf-8"?>
<!-- Generator: Adobe Illustrator 16.0.0, SVG Export Plug-In . SVG Version: 6.00 Build 0)  -->
<!DOCTYPE svg PUBLIC "-//W3C//DTD SVG 1.1//EN" "http://www.w3.org/Graphics/SVG/1.1/DTD/svg11.dtd">
<svg version="1.1" id="Layer_1" xmlns="http://www.w3.org/2000/svg" xmlns:xlink="http://www.w3.org/1999/xlink" x="0px" y="0px"
	 width="62px" height="75px" viewBox="0 0 62 75" enable-background="new 0 0 62 75" xml:space="preserve">
<g>
	<polygon fill="#3C4929" points="37.091,22.118 53.182,11.195 61.909,22.118 46.909,24.302 	"/>
	<polygon fill="#3C4929" points="24.909,22.118 8.818,11.195 0.091,22.118 15.091,24.302 	"/>
	<polygon fill="#B7CA9D" points="62,44.054 31,42.142 0,44.054 31,75 	"/>
	<polygon fill="#759C3E" points="24.909,22.118 8.818,19.023 8.818,11.195 24.909,15.564 	"/>
	<polygon fill="#4B612C" points="0.091,22.118 8.818,19.023 8.818,11.195 0.091,15.564 	"/>
	<polygon fill="#4B612C" points="37.091,22.118 53.182,19.023 53.182,11.195 37.091,15.564 	"/>
	<polygon fill="#759C3E" points="61.909,22.118 53.182,19.023 53.182,11.195 61.909,15.564 	"/>
	<polygon fill="#4B612C" points="0,37.5 31,37.5 62,32.858 31,22.481 0,28.762 	"/>
	<polygon fill="#4B612C" points="31,75 0,59.436 0,44.054 31,48.604 	"/>
	<polygon fill="#759C3E" points="62,59.436 31,75 31,48.604 62,44.054 	"/>
	<polygon fill="#759C3E" points="62,37.5 31,37.5 31,22.481 62,28.762 	"/>
	<polygon fill="#3C4929" points="47.545,17.021 31,20.752 14.455,17.021 31,0 	"/>
	<polygon fill="#4B612C" points="14.455,17.021 31,11.286 31,0 14.455,8.283 	"/>
	<polygon fill="#759C3E" points="47.545,17.021 31,11.286 31,0 47.545,8.283 	"/>
</g>
</svg>
