<?xml version="1.0" encoding="utf-8"?>
<!-- Generator: Adobe Illustrator 16.0.0, SVG Export Plug-In . SVG Version: 6.00 Build 0)  -->
<!DOCTYPE svg PUBLIC "-//W3C//DTD SVG 1.1//EN" "http://www.w3.org/Graphics/SVG/1.1/DTD/svg11.dtd">
<svg version="1.1" id="Layer_1" xmlns="http://www.w3.org/2000/svg" xmlns:xlink="http://www.w3.org/1999/xlink" x="0px" y="0px"
	 width="63px" height="76px" viewBox="0 0 63 76" enable-background="new 0 0 63 76" xml:space="preserve">
<g>
	<polygon fill="#4B612C" points="63,56.584 63,38 43.97,38 43.97,61.946 54.224,64.628 	"/>
	<polygon fill="#4B612C" points="31.5,53.532 54.04,58.063 54.04,11.279 31.5,17.381 9.514,32.268 	"/>
	<polygon fill="#759C3E" points="63,38 63,60.282 54.224,64.628 	"/>
	<polygon fill="#759C3E" points="0,56.584 0,38 19.03,38 19.03,61.946 8.776,64.628 	"/>
	<polygon fill="#759C3E" points="31.5,53.532 8.96,58.063 8.96,11.279 31.5,17.381 	"/>
	<polygon fill="#4B612C" points="31.5,38 42.771,9.8 31.5,0 14.872,8.321 	"/>
	<polygon fill="#4B612C" points="0,38 0,60.282 8.776,64.628 	"/>
	<polygon fill="#759C3E" points="31.5,38 31.5,0 48.128,8.321 	"/>
	<polygon fill="#4B612C" points="0,24.779 0,15.718 8.96,11.279 31.5,53.532 44.986,62.963 31.5,76 14.78,67.679 	"/>
	<polygon fill="#759C3E" points="63,24.779 63,15.718 54.04,11.279 31.5,53.532 31.5,76 48.221,67.679 	"/>
</g>
</svg>
