<?xml version="1.0" encoding="utf-8"?>
<!-- Generator: Adobe Illustrator 16.0.0, SVG Export Plug-In . SVG Version: 6.00 Build 0)  -->
<!DOCTYPE svg PUBLIC "-//W3C//DTD SVG 1.1//EN" "http://www.w3.org/Graphics/SVG/1.1/DTD/svg11.dtd">
<svg version="1.1" id="Layer_1" xmlns="http://www.w3.org/2000/svg" xmlns:xlink="http://www.w3.org/1999/xlink" x="0px" y="0px"
	 width="62px" height="75px" viewBox="0 0 62 75" enable-background="new 0 0 62 75" xml:space="preserve">
<g>
	<polygon fill="#4B612C" points="0,33.125 6.242,32.5 14.044,40.521 6.242,47.396 0,46.146 	"/>
	<polygon fill="#3C4929" points="44.107,25.104 31,26.875 17.893,25.104 31,0 	"/>
	<polygon fill="#4B612C" points="47.436,46.563 55.759,47.396 60.647,39.896 55.759,32.5 47.436,32.813 	"/>
	<polygon fill="#759C3E" points="44.107,25.104 31,22.396 31,0 44.107,6.563 	"/>
	<polygon fill="#759C3E" points="62,33.125 55.759,32.5 55.759,47.396 62,46.146 	"/>
	<polygon fill="#759C3E" points="14.563,46.563 6.242,47.396 6.242,32.5 14.563,32.813 	"/>
	<polygon fill="#4B612C" points="17.893,25.104 31,22.396 31,0 17.893,6.563 	"/>
	<polygon fill="#4B612C" points="11.34,65.209 31,75 48.477,51.771 31,29.896 11.34,31.979 	"/>
	<polygon fill="#759C3E" points="50.661,65.209 31,75 31,29.896 50.661,31.979 	"/>
</g>
</svg>
