<?xml version="1.0" encoding="utf-8"?>
<!-- Generator: Adobe Illustrator 16.0.0, SVG Export Plug-In . SVG Version: 6.00 Build 0)  -->
<!DOCTYPE svg PUBLIC "-//W3C//DTD SVG 1.1//EN" "http://www.w3.org/Graphics/SVG/1.1/DTD/svg11.dtd">
<svg version="1.1" id="Layer_1" xmlns="http://www.w3.org/2000/svg" xmlns:xlink="http://www.w3.org/1999/xlink" x="0px" y="0px"
	 width="75px" height="71px" viewBox="0 0 75 71" enable-background="new 0 0 75 71" xml:space="preserve">
<g>
	<polygon fill="#4B612C" points="0,50.117 16.667,71 33.333,50.117 	"/>
	<rect y="45.941" fill="#4B612C" width="33.333" height="4.176"/>
	<polygon fill="#4B612C" points="41.667,50.117 58.334,71 75,50.117 	"/>
	<polygon fill="#4B612C" points="62.5,35.5 41.667,14.617 43.75,4.177 31.25,4.177 33.333,14.617 12.5,35.5 12.5,50.117 
		20.833,50.117 20.833,39.677 37.5,22.971 37.5,22.971 54.167,39.677 54.167,50.117 62.5,50.117 	"/>
	<rect x="41.667" y="45.941" fill="#4B612C" width="33.333" height="4.176"/>
	<polygon fill="#759C3E" points="0,45.941 16.667,66.823 33.333,45.941 	"/>
	<polygon fill="#759C3E" points="41.667,45.941 58.334,66.823 75,45.941 	"/>
	<polygon fill="#759C3E" points="63.542,31.323 43.75,11.485 43.75,0 31.25,0 31.25,11.485 11.458,31.323 11.458,45.941 
		21.875,45.941 21.875,35.5 37.5,18.794 37.5,18.794 53.125,35.5 53.125,45.941 63.542,45.941 	"/>
</g>
</svg>
