<?xml version="1.0" encoding="utf-8"?>
<!-- Generator: Adobe Illustrator 16.0.0, SVG Export Plug-In . SVG Version: 6.00 Build 0)  -->
<!DOCTYPE svg PUBLIC "-//W3C//DTD SVG 1.1//EN" "http://www.w3.org/Graphics/SVG/1.1/DTD/svg11.dtd">
<svg version="1.1" id="Layer_1" xmlns="http://www.w3.org/2000/svg" xmlns:xlink="http://www.w3.org/1999/xlink" x="0px" y="0px"
	 width="64px" height="78px" viewBox="0 0 64 78" enable-background="new 0 0 64 78" xml:space="preserve">
<g>
	<polygon fill="#759C3E" points="13.065,60.773 2.178,58.121 2.178,20.636 13.065,18.553 	"/>
	<polygon fill="#B7CA9D" points="4.071,53.955 32.283,74.782 32.283,57.555 13.065,52.725 	"/>
	<polygon fill="#4B612C" points="51.03,57.555 61.632,58.121 61.919,22.813 51.03,19.311 	"/>
	<polygon fill="#3C4929" points="32.283,20.825 13.065,25.274 4.071,24.043 32.283,3.786 	"/>
	<polygon fill="#B7CA9D" points="59.931,53.955 31.717,73.553 31.717,57.555 50.937,52.725 	"/>
	<polygon fill="#3C4929" points="31.717,20.825 51.03,25.274 59.931,24.043 32,2.934 	"/>
	<path fill="#4B612C" d="M32,0L0,16.093v45.625l32,16.09l8.143-38.431L32,0z M22.627,59.445L4.166,53.861V24.043l18.461-5.584
		V59.445z"/>
	<path fill="#759C3E" d="M32,78l32-16.093V16.281L32,0V78z M41.373,18.553l18.46,5.585v29.816l-18.46,5.587V18.553z"/>
</g>
</svg>
