<?xml version="1.0" encoding="utf-8"?>
<!-- Generator: Adobe Illustrator 16.0.0, SVG Export Plug-In . SVG Version: 6.00 Build 0)  -->
<!DOCTYPE svg PUBLIC "-//W3C//DTD SVG 1.1//EN" "http://www.w3.org/Graphics/SVG/1.1/DTD/svg11.dtd">
<svg version="1.1"
	 id="图层_1" xmlns:dc="http://purl.org/dc/elements/1.1/" xmlns:cc="http://creativecommons.org/ns#" xmlns:rdf="http://www.w3.org/1999/02/22-rdf-syntax-ns#"
	 xmlns="http://www.w3.org/2000/svg" xmlns:xlink="http://www.w3.org/1999/xlink" x="0px" y="0px" width="76px" height="57px"
	 viewBox="0 0 76 57" enable-background="new 0 0 76 57" xml:space="preserve">
<path fill="#00BCF2" d="M8.445,0C3.766,0,0,3.767,0,8.445v40.11C0,53.234,3.766,57,8.445,57h59.11C72.234,57,76,53.234,76,48.555
	V8.445C76,3.766,72.234,0,67.556,0H8.445z M8.445,4.223h59.11c2.341,0,4.223,1.883,4.223,4.223v40.111
	c0,2.34-1.882,4.221-4.223,4.221H8.445c-2.341,0-4.223-1.881-4.223-4.221V8.445C4.223,6.106,6.105,4.223,8.445,4.223z M8.445,8.445
	v40.11h12.666V8.445H8.445z M25.333,8.445V19h42.222V8.445H25.333z M30.612,10.556c1.749,0,3.167,1.418,3.167,3.167
	s-1.417,3.167-3.167,3.167s-3.167-1.417-3.167-3.167S28.864,10.556,30.612,10.556z M41.234,10.556c1.749,0,3.166,1.418,3.166,3.167
	s-1.417,3.167-3.166,3.167c-1.75,0-3.168-1.417-3.168-3.167S39.484,10.556,41.234,10.556z M51.789,10.556
	c1.749,0,3.166,1.418,3.166,3.167s-1.417,3.167-3.166,3.167s-3.167-1.417-3.167-3.167S50.04,10.556,51.789,10.556z M62.346,10.556
	c1.749,0,3.167,1.418,3.167,3.167s-1.418,3.167-3.167,3.167c-1.751,0-3.167-1.417-3.167-3.167S60.595,10.556,62.346,10.556z
	 M25.333,23.223v25.332h4.222V33.779h2.112v14.776h4.222v-21.11h2.112v21.11h4.222v-6.332h2.11v6.332h4.223V33.779h2.111v14.776
	h4.223V35.89h2.111v12.665h4.223V29.556h2.11v18.999h4.222V23.223H25.333L25.333,23.223z"/>
</svg>
