<?xml version="1.0" encoding="utf-8"?>
<!-- Generator: Adobe Illustrator 16.0.0, SVG Export Plug-In . SVG Version: 6.00 Build 0)  -->
<!DOCTYPE svg PUBLIC "-//W3C//DTD SVG 1.1//EN" "http://www.w3.org/Graphics/SVG/1.1/DTD/svg11.dtd">
<svg version="1.1" id="图层_1" xmlns="http://www.w3.org/2000/svg" xmlns:xlink="http://www.w3.org/1999/xlink" x="0px" y="0px"
	 width="512px" height="512px" viewBox="0 0 512 512" enable-background="new 0 0 512 512" xml:space="preserve">
<g>
	<path fill="#38C4F5" d="M499.305,101.513c-10.842-62.465-25.834-77.347-89.15-88.423C369.842,6.04,312.932,2,254.06,2
		C195.7,2,141.724,5.809,102.082,12.688C39.622,23.544,24.74,38.535,13.68,101.84C-0.984,185.659-1.205,326.73,13.196,409.878
		c10.826,62.465,25.818,77.329,89.154,88.423c40.401,7.065,97.422,11.123,156.438,11.123c58.219,0,112.086-3.773,151.679-10.641
		c62.479-10.856,77.358-25.854,88.403-89.17C513.532,325.763,513.738,184.676,499.305,101.513 M483.488,406.945
		c-9.921,56.753-19.827,66.769-75.725,76.483c-38.721,6.709-91.636,10.394-148.994,10.394c-58.144,0-114.176-3.962-153.735-10.873
		c-56.784-9.952-66.801-19.874-76.473-75.726c-14.147-81.694-13.934-220.315,0.481-302.702
		c9.922-56.737,19.828-66.753,75.707-76.456c38.797-6.739,91.809-10.452,149.311-10.452c57.999,0,113.927,3.962,153.396,10.858
		c56.735,9.937,66.75,19.843,76.471,75.722C498.105,185.909,497.903,324.546,483.488,406.945"/>
	<polygon fill="#38C4F5" points="73.36,188.834 103.475,188.791 161.168,349.201 217.561,188.834 248.442,188.834 295.402,349.807 
		359.591,202.273 314.865,182.05 409.623,130.197 433.177,235.154 401.261,221.418 385.843,214.783 309.024,395.396 
		278.601,395.307 229.284,244.849 176.146,395.292 145.049,395.292 	"/>
</g>
</svg>
