<?xml version="1.0" encoding="utf-8"?>
<!-- Generator: Adobe Illustrator 16.0.0, SVG Export Plug-In . SVG Version: 6.00 Build 0)  -->
<!DOCTYPE svg PUBLIC "-//W3C//DTD SVG 1.1//EN" "http://www.w3.org/Graphics/SVG/1.1/DTD/svg11.dtd">
<svg version="1.1"
	 id="svg2" xmlns:dc="http://purl.org/dc/elements/1.1/" xmlns:cc="http://creativecommons.org/ns#" xmlns:rdf="http://www.w3.org/1999/02/22-rdf-syntax-ns#" xmlns:svg="http://www.w3.org/2000/svg"
	 xmlns="http://www.w3.org/2000/svg" xmlns:xlink="http://www.w3.org/1999/xlink" x="0px" y="0px" width="74px" height="75px"
	 viewBox="0 0 74 75" enable-background="new 0 0 74 75" xml:space="preserve">
<g id="g12" transform="scale(0.1,0.1)">
	<path id="path22" fill="#087FBF" d="M0.73,749.995h614.165V124.536H0.73V749.995z"/>
	<path id="path24" fill="none" stroke="#FFFFFF" stroke-width="4" d="M0.73,749.995h614.165V124.536H0.73V749.995z"/>
	<path id="path26" fill="#087FBF" d="M739.26,0L614.895,124.434H0.002L132.795,0H739.26"/>
	<path id="path28" fill="none" stroke="#FFFFFF" stroke-width="4" d="M739.26,0L614.895,124.434H0.002L132.795,0H739.26z"/>
	<path id="path30" fill="#087FBF" d="M740.002,599.214V0.391L614.895,124.907V747.69L740.002,599.214"/>
	<path id="path32" fill="none" stroke="#FFFFFF" stroke-width="4" d="M740.002,599.214V0.391L614.895,124.907V747.69
		L740.002,599.214z"/>
	<path id="path34" fill="#FFFFFF" d="M370.969,596.362l51.504-51.367l-77.461-22.617L370.969,596.362"/>
	<path id="path36" fill="none" stroke="#FFFFFF" stroke-width="8" stroke-miterlimit="3.86" d="M377.415,549.175l92.07,91.855"/>
	<path id="path38" fill="#FFFFFF" d="M91.096,327.749l51.323-51.543l-77.266-22.441L91.096,327.749"/>
	<path id="path40" fill="none" stroke="#FFFFFF" stroke-width="8" stroke-miterlimit="3.86" d="M97.712,280.19l92.114,92.226"/>
	<path id="path42" fill="#FFFFFF" d="M114.592,481.323v-72.637l-70.601,38.809L114.592,481.323"/>
	<path id="path44" fill="none" stroke="#FFFFFF" stroke-width="8" stroke-miterlimit="3.86" d="M85.701,443.139l130.21,0.02"/>
	<path id="path46" fill="#FFFFFF" d="M370.969,298.071l51.504,51.357l-77.461,22.637L370.969,298.071"/>
	<path id="path48" fill="none" stroke="#FFFFFF" stroke-width="8" stroke-miterlimit="3.86" d="M377.415,345.639l92.07-92.236"/>
	<path id="path50" fill="#FFFFFF" d="M91.096,566.87l51.323,51.367l-77.266,22.617L91.096,566.87"/>
	<path id="path52" fill="none" stroke="#FFFFFF" stroke-width="8" stroke-miterlimit="3.86" d="M97.712,614.448l92.114-92.246"/>
	<path id="path54" fill="#087FBF" d="M188.372,522.846H331.79V369.155H188.372V522.846z"/>
	<path id="path56" fill="none" stroke="#FFFFFF" stroke-width="4" d="M188.372,522.846H331.79V369.155H188.372V522.846z"/>
	<path id="path58" fill="#087FBF" d="M449.612,670.913h117.803v-121.66H449.612V670.913z"/>
	<path id="path60" fill="none" stroke="#FFFFFF" stroke-width="4" d="M449.612,670.913h117.803v-121.66H449.612V670.913z"/>
	<path id="path62" fill="#087FBF" d="M449.612,342.749h117.803V220.894H449.612V342.749z"/>
	<path id="path64" fill="none" stroke="#FFFFFF" stroke-width="4" d="M449.612,342.749h117.803V220.894H449.612V342.749z"/>
</g>
</svg>
