<?xml version="1.0" encoding="utf-8"?>
<!-- Generator: Adobe Illustrator 16.0.0, SVG Export Plug-In . SVG Version: 6.00 Build 0)  -->
<!DOCTYPE svg PUBLIC "-//W3C//DTD SVG 1.1//EN" "http://www.w3.org/Graphics/SVG/1.1/DTD/svg11.dtd">
<svg version="1.1"
	 id="svg2" xmlns:dc="http://purl.org/dc/elements/1.1/" xmlns:cc="http://creativecommons.org/ns#" xmlns:rdf="http://www.w3.org/1999/02/22-rdf-syntax-ns#" xmlns:svg="http://www.w3.org/2000/svg"
	 xmlns="http://www.w3.org/2000/svg" xmlns:xlink="http://www.w3.org/1999/xlink" x="0px" y="0px" width="76px" height="24px"
	 viewBox="0 0 76 24" enable-background="new 0 0 76 24" xml:space="preserve">
<g id="g12" transform="scale(0.1,0.1)">
	<path id="path22" fill="#02709F" d="M0,240h659.57V74.795H0V240z"/>
	<path id="path24" fill="none" stroke="#FFFFFF" stroke-width="3.9999" d="M0,240h659.57V74.795H0V240z"/>
	<path id="path26" fill="#02709F" d="M42.671,154.16h116.431v-22.109H42.671V154.16z"/>
	<path id="path28" fill="none" stroke="#FFFFFF" stroke-width="3.9999" d="M42.671,154.16h116.431v-22.109H42.671V154.16z"/>
	<path id="path30" fill="#02709F" d="M191.821,154.16h116.304v-22.109H191.821V154.16z"/>
	<path id="path32" fill="none" stroke="#FFFFFF" stroke-width="3.9999" d="M191.821,154.16h116.304v-22.109H191.821V154.16z"/>
	<path id="path34" fill="#02709F" d="M340.977,154.16h116.318v-22.109H340.977V154.16z"/>
	<path id="path36" fill="none" stroke="#FFFFFF" stroke-width="3.9999" d="M340.977,154.16h116.318v-22.109H340.977V154.16z"/>
	<path id="path38" fill="#02709F" d="M489.99,154.16h116.455v-22.109H489.99V154.16z"/>
	<path id="path40" fill="none" stroke="#FFFFFF" stroke-width="3.9999" d="M489.99,154.16h116.455v-22.109H489.99V154.16z"/>
	<path id="path42" fill="#02709F" d="M659.57,74.795H0L97.28,0H760L659.57,74.795"/>
	<path id="path44" fill="none" stroke="#FFFFFF" stroke-width="3.9999" d="M659.57,74.795H0L97.28,0H760L659.57,74.795z"/>
	<path id="path46" fill="#02709F" d="M659.57,240V74.795L760,0v151.24L659.57,240"/>
	<path id="path48" fill="none" stroke="#FFFFFF" stroke-width="3.9999" d="M659.57,240V74.795L760,0v151.24L659.57,240z"/>
</g>
</svg>
