<?xml version="1.0" encoding="utf-8"?>
<!-- Generator: Adobe Illustrator 16.0.0, SVG Export Plug-In . SVG Version: 6.00 Build 0)  -->
<!DOCTYPE svg PUBLIC "-//W3C//DTD SVG 1.1//EN" "http://www.w3.org/Graphics/SVG/1.1/DTD/svg11.dtd">
<svg version="1.1"
	 id="svg2" xmlns:dc="http://purl.org/dc/elements/1.1/" xmlns:cc="http://creativecommons.org/ns#" xmlns:rdf="http://www.w3.org/1999/02/22-rdf-syntax-ns#" xmlns:svg="http://www.w3.org/2000/svg"
	 xmlns="http://www.w3.org/2000/svg" xmlns:xlink="http://www.w3.org/1999/xlink" x="0px" y="0px" width="66px" height="75px"
	 viewBox="0 0 66 75" enable-background="new 0 0 66 75" xml:space="preserve">
<g id="g12" transform="scale(0.1,0.1)">
	<path id="path14" fill="#FFFFFF" d="M110.015,177.993H9.995v82.725l87.988-0.293h10.527"/>
	<path id="path16" fill="none" stroke="#0881C1" stroke-width="4" d="M110.015,177.993H9.995v82.725l87.988-0.293h10.527"/>
	<path id="path18" fill="#FFFFFF" d="M535.845,260.425h11.738c88.438,0,102.422,79.433,102.422,79.433v-82.422
		c0,0-13.965-79.443-102.422-79.443h-19.238"/>
	<path id="path20" fill="none" stroke="#0881C1" stroke-width="4" d="M535.845,260.425h11.738
		c88.438,0,102.422,79.433,102.422,79.433v-82.422c0,0-13.965-79.443-102.422-79.443h-19.238"/>
	<path id="path22" fill="#0881C1" d="M94.263,749.995H488.97V61.25H94.263V749.995z"/>
	<path id="path24" fill="none" stroke="#FFFFFF" stroke-width="4" d="M94.263,749.995H488.97V61.25H94.263V749.995z"/>
	<path id="path26" fill="#0881C1" d="M94.263,61.255L169.673,0h380.664L488.97,61.255H94.263"/>
	<path id="path28" fill="none" stroke="#FFFFFF" stroke-width="4" d="M94.263,61.255L169.673,0h380.664L488.97,61.255H94.263z"/>
	<path id="path30" fill="#0881C1" d="M488.97,749.995l61.367-75.43V0L488.97,61.255V749.995"/>
	<path id="path32" fill="none" stroke="#FFFFFF" stroke-width="4" d="M488.97,749.995l61.367-75.43V0L488.97,61.255V749.995z"/>
	<path id="path34" fill="#FFFFFF" d="M650.005,252.769v97.754C640.454,466.596,434.731,460.6,434.731,460.6v85.586L300.396,411.635
		l134.336-134.394v85.605C434.731,362.846,644.009,368.843,650.005,252.769"/>
	<path id="path36" fill="none" stroke="#0881C1" stroke-width="4" d="M650.005,252.769v97.754
		C640.454,466.596,434.731,460.6,434.731,460.6v85.586L300.396,411.635l134.336-134.394v85.605
		C434.731,362.846,644.009,368.843,650.005,252.769"/>
	<path id="path38" fill="#FFFFFF" d="M163.11,194.839l-22.451,21.963l0.02-103.701h103.662l-22.969,23.462l-4.395,4.717
		l154.609,154.185l-50.459,50.293L166.772,191.504L163.11,194.839"/>
	<path id="path40" fill="#FFFFFF" d="M163.11,628.452l-22.451-21.973l0.02,103.906h103.662l-22.969-23.516l-4.395-4.863
		l154.609-154.004l-50.459-50.469L166.772,631.928L163.11,628.452"/>
</g>
</svg>
