<?xml version="1.0" encoding="utf-8"?>
<!-- Generator: Adobe Illustrator 16.0.0, SVG Export Plug-In . SVG Version: 6.00 Build 0)  -->
<!DOCTYPE svg PUBLIC "-//W3C//DTD SVG 1.1//EN" "http://www.w3.org/Graphics/SVG/1.1/DTD/svg11.dtd">
<svg version="1.1"
	 id="svg2" xmlns:dc="http://purl.org/dc/elements/1.1/" xmlns:cc="http://creativecommons.org/ns#" xmlns:rdf="http://www.w3.org/1999/02/22-rdf-syntax-ns#" xmlns:svg="http://www.w3.org/2000/svg"
	 xmlns="http://www.w3.org/2000/svg" xmlns:xlink="http://www.w3.org/1999/xlink" x="0px" y="0px" width="64px" height="79px"
	 viewBox="0 0 64 79" enable-background="new 0 0 64 79" xml:space="preserve">
<g id="g12" transform="scale(0.1,0.1)">
	<path id="path14" fill="#02709F" d="M640,626.582V49.063L501.211,188.276V790L640,626.582"/>
	<path id="path16" fill="none" stroke="#FFFFFF" stroke-width="3.9999" d="M640,626.582V49.063L501.211,188.276V790L640,626.582z"/>
	<path id="path18" fill="#02709F" d="M0,790h501.211V188.276H0V790z"/>
	<path id="path20" fill="none" stroke="#FFFFFF" stroke-width="3.9999" d="M0,790h501.211V188.276H0V790z"/>
	<path id="path22" fill="#02709F" d="M501.211,188.276L640,49.063L571.221,0H91.802L0,188.276H501.211"/>
	<path id="path24" fill="none" stroke="#FFFFFF" stroke-width="3.9999" d="M501.211,188.276L640,49.063L571.221,0H91.802L0,188.276
		H501.211z"/>
	<path id="path26" fill="#02709F" d="M105.654,413.359v52.5h52.48"/>
	<path id="path28" fill="none" stroke="#FFFFFF" stroke-width="3.9999" d="M105.654,413.359v52.5h52.48"/>
	<path id="path30" fill="#02709F" d="M100.21,465.859h57.925"/>
	<path id="path32" fill="none" stroke="#FFFFFF" stroke-width="3.9999" d="M100.21,465.859h57.925"/>
	<path id="path34" fill="#02709F" d="M32.422,413.359v52.5h52.461"/>
	<path id="path36" fill="none" stroke="#FFFFFF" stroke-width="3.9999" d="M32.422,413.359v52.5h52.461"/>
	<path id="path38" fill="#02709F" d="M26.968,465.859h57.93"/>
	<path id="path40" fill="none" stroke="#FFFFFF" stroke-width="3.9999" d="M26.968,465.859h57.93"/>
	<path id="path42" fill="#02709F" d="M32.422,312.476v52.51h52.461"/>
	<path id="path44" fill="none" stroke="#FFFFFF" stroke-width="3.9999" d="M32.422,312.476v52.51h52.461"/>
	<path id="path46" fill="#02709F" d="M26.968,364.985h57.93"/>
	<path id="path48" fill="none" stroke="#FFFFFF" stroke-width="3.9999" d="M26.968,364.985h57.93"/>
	<path id="path50" fill="#02709F" d="M105.654,211.733v52.51h52.48"/>
	<path id="path52" fill="none" stroke="#FFFFFF" stroke-width="3.9999" d="M105.654,211.733v52.51h52.48"/>
	<path id="path54" fill="#02709F" d="M100.21,264.243h57.925"/>
	<path id="path56" fill="none" stroke="#FFFFFF" stroke-width="3.9999" d="M100.21,264.243h57.925"/>
	<path id="path58" fill="#02709F" d="M32.422,211.733v52.51h52.461"/>
	<path id="path60" fill="none" stroke="#FFFFFF" stroke-width="3.9999" d="M32.422,211.733v52.51h52.461"/>
	<path id="path62" fill="#02709F" d="M26.968,264.243h57.93"/>
	<path id="path64" fill="none" stroke="#FFFFFF" stroke-width="3.9999" d="M26.968,264.243h57.93"/>
	<path id="path66" fill="#02709F" d="M190.879,413.359v52.5h52.48"/>
	<path id="path68" fill="none" stroke="#FFFFFF" stroke-width="3.9999" d="M190.879,413.359v52.5h52.48"/>
	<path id="path70" fill="#02709F" d="M185.43,465.859h57.93"/>
	<path id="path72" fill="none" stroke="#FFFFFF" stroke-width="3.9999" d="M185.43,465.859h57.93"/>
	<path id="path74" fill="#02709F" d="M190.879,312.476v52.51h52.48"/>
	<path id="path76" fill="none" stroke="#FFFFFF" stroke-width="3.9999" d="M190.879,312.476v52.51h52.48"/>
	<path id="path78" fill="#02709F" d="M185.43,364.985h57.93"/>
	<path id="path80" fill="none" stroke="#FFFFFF" stroke-width="3.9999" d="M185.43,364.985h57.93"/>
	<path id="path82" fill="#02709F" d="M190.879,211.733v52.51h52.48"/>
	<path id="path84" fill="none" stroke="#FFFFFF" stroke-width="3.9999" d="M190.879,211.733v52.51h52.48"/>
	<path id="path86" fill="#02709F" d="M185.43,264.243h57.93"/>
	<path id="path88" fill="none" stroke="#FFFFFF" stroke-width="3.9999" d="M185.43,264.243h57.93"/>
	<path id="path90" fill="#02709F" d="M343.223,413.359v52.5h52.48"/>
	<path id="path92" fill="none" stroke="#FFFFFF" stroke-width="3.9999" d="M343.223,413.359v52.5h52.48"/>
	<path id="path94" fill="#02709F" d="M337.773,465.859h57.93"/>
	<path id="path96" fill="none" stroke="#FFFFFF" stroke-width="3.9999" d="M337.773,465.859h57.93"/>
	<path id="path98" fill="#02709F" d="M269.99,413.359v52.5h52.617"/>
	<path id="path100" fill="none" stroke="#FFFFFF" stroke-width="3.9999" d="M269.99,413.359v52.5h52.617"/>
	<path id="path102" fill="#02709F" d="M264.531,465.859h58.086"/>
	<path id="path104" fill="none" stroke="#FFFFFF" stroke-width="3.9999" d="M264.531,465.859h58.086"/>
	<path id="path106" fill="#02709F" d="M269.99,312.476v52.51h52.617"/>
	<path id="path108" fill="none" stroke="#FFFFFF" stroke-width="3.9999" d="M269.99,312.476v52.51h52.617"/>
	<path id="path110" fill="#02709F" d="M264.531,364.985h58.086"/>
	<path id="path112" fill="none" stroke="#FFFFFF" stroke-width="3.9999" d="M264.531,364.985h58.086"/>
	<path id="path114" fill="#02709F" d="M343.223,211.733v52.51h52.48"/>
	<path id="path116" fill="none" stroke="#FFFFFF" stroke-width="3.9999" d="M343.223,211.733v52.51h52.48"/>
	<path id="path118" fill="#02709F" d="M337.773,264.243h57.93"/>
	<path id="path120" fill="none" stroke="#FFFFFF" stroke-width="3.9999" d="M337.773,264.243h57.93"/>
	<path id="path122" fill="#02709F" d="M269.99,211.733v52.51h52.617"/>
	<path id="path124" fill="none" stroke="#FFFFFF" stroke-width="3.9999" d="M269.99,211.733v52.51h52.617"/>
	<path id="path126" fill="#02709F" d="M264.531,264.243h58.086"/>
	<path id="path128" fill="none" stroke="#FFFFFF" stroke-width="3.9999" d="M264.531,264.243h58.086"/>
	<path id="path130" fill="#02709F" d="M428.594,413.359v52.5h52.48"/>
	<path id="path132" fill="none" stroke="#FFFFFF" stroke-width="3.9999" d="M428.594,413.359v52.5h52.48"/>
	<path id="path134" fill="#02709F" d="M423.135,465.859h57.939"/>
	<path id="path136" fill="none" stroke="#FFFFFF" stroke-width="3.9999" d="M423.135,465.859h57.939"/>
	<path id="path138" fill="#02709F" d="M428.594,312.476v52.51h52.48"/>
	<path id="path140" fill="none" stroke="#FFFFFF" stroke-width="3.9999" d="M428.594,312.476v52.51h52.48"/>
	<path id="path142" fill="#02709F" d="M423.135,364.985h57.939"/>
	<path id="path144" fill="none" stroke="#FFFFFF" stroke-width="3.9999" d="M423.135,364.985h57.939"/>
	<path id="path146" fill="#02709F" d="M428.594,211.733v52.51h52.48"/>
	<path id="path148" fill="none" stroke="#FFFFFF" stroke-width="3.9999" d="M428.594,211.733v52.51h52.48"/>
	<path id="path150" fill="#02709F" d="M423.135,264.243h57.939"/>
	<path id="path152" fill="none" stroke="#FFFFFF" stroke-width="3.9999" d="M423.135,264.243h57.939"/>
	<path id="path154" fill="#02709F" d="M612.158,125.371v59.692l-33.33,30.918"/>
	<path id="path156" fill="none" stroke="#FFFFFF" stroke-width="3.9999" d="M612.158,125.371v59.692l-33.33,30.918"/>
	<path id="path158" fill="#02709F" d="M612.158,332.153v59.697l-33.33,30.923"/>
	<path id="path160" fill="none" stroke="#FFFFFF" stroke-width="3.9999" d="M612.158,332.153v59.697l-33.33,30.923"/>
	<path id="path162" fill="#02709F" d="M556.016,380.034v59.712l-33.34,30.898"/>
	<path id="path164" fill="none" stroke="#FFFFFF" stroke-width="3.9999" d="M556.016,380.034v59.712l-33.34,30.898"/>
	<path id="path166" fill="#02709F" d="M556.016,173.267v59.688l-33.34,30.928"/>
	<path id="path168" fill="none" stroke="#FFFFFF" stroke-width="3.9999" d="M556.016,173.267v59.688l-33.34,30.928"/>
	<path id="path170" fill="#02709F" d="M578.867,0l-77.754,188.276"/>
	<path id="path172" fill="none" stroke="#FFFFFF" stroke-width="3.9999" d="M578.867,0l-77.754,188.276"/>
</g>
</svg>
