<?xml version="1.0" encoding="utf-8"?>
<!-- Generator: Adobe Illustrator 16.0.0, SVG Export Plug-In . SVG Version: 6.00 Build 0)  -->
<!DOCTYPE svg PUBLIC "-//W3C//DTD SVG 1.1//EN" "http://www.w3.org/Graphics/SVG/1.1/DTD/svg11.dtd">
<svg version="1.1"
	 id="svg2" xmlns:dc="http://purl.org/dc/elements/1.1/" xmlns:cc="http://creativecommons.org/ns#" xmlns:rdf="http://www.w3.org/1999/02/22-rdf-syntax-ns#" xmlns:svg="http://www.w3.org/2000/svg"
	 xmlns="http://www.w3.org/2000/svg" xmlns:xlink="http://www.w3.org/1999/xlink" x="0px" y="0px" width="76px" height="40px"
	 viewBox="0 0 76 40" enable-background="new 0 0 76 40" xml:space="preserve">
<g id="g12" transform="scale(0.1,0.1)">
	<path id="path22" fill="#087FBF" d="M0.002,144.526L179.646-0.005h580.356L611.389,144.526H0.002"/>
	<path id="path24" fill="none" stroke="#FFFFFF" stroke-width="4" d="M0.002,144.526L179.646-0.005h580.356L611.389,144.526H0.002z"
		/>
	<path id="path26" fill="#087FBF" d="M611.389,399.917l148.613-151.006V0.181L611.389,144.526V399.917"/>
	<path id="path28" fill="none" stroke="#FFFFFF" stroke-width="4" d="M611.389,399.917l148.613-151.006V0.181L611.389,144.526
		V399.917z"/>
	<path id="path30" fill="#087FBF" d="M0.642,399.995h610.747V144.526H0.642V399.995z"/>
	<path id="path32" fill="none" stroke="#FFFFFF" stroke-width="4" d="M0.642,399.995h610.747V144.526H0.642V399.995z"/>
	<path id="path34" fill="#087FBF" d="M433.293,237.72c0,24.443-51.348,44.306-114.541,44.306
		c-63.198,0-114.551-19.863-114.551-44.306v64.931c0,24.453,51.353,44.316,114.551,44.316c63.193,0,114.541-19.863,114.541-44.316
		V237.72"/>
	<path id="path36" fill="none" stroke="#FFFFFF" stroke-width="4" d="M433.293,237.72c0,24.443-51.348,44.306-114.541,44.306
		c-63.198,0-114.551-19.863-114.551-44.306v64.931c0,24.453,51.353,44.316,114.551,44.316c63.193,0,114.541-19.863,114.541-44.316
		V237.72z"/>
	<path id="path38" fill="#087FBF" d="M318.752,282.026c63.193,0,114.541-19.863,114.541-44.306
		c0-24.453-51.348-44.336-114.541-44.336c-63.198,0-114.551,19.883-114.551,44.336C204.202,262.163,255.554,282.026,318.752,282.026
		"/>
	<path id="path40" fill="none" stroke="#FFFFFF" stroke-width="4" d="M318.752,282.026c63.193,0,114.541-19.863,114.541-44.306
		c0-24.453-51.348-44.336-114.541-44.336c-63.198,0-114.551,19.883-114.551,44.336C204.202,262.163,255.554,282.026,318.752,282.026
		z"/>
	<path id="path42" fill="none" stroke="#FFFFFF" stroke-width="8" d="M142.38,195.483H3.298"/>
	<path id="path44" fill="#FFFFFF" d="M192.161,195.483l-84.473,34.219l20.039-34.219l-20.039-34.326L192.161,195.483"/>
	<path id="path46" fill="none" stroke="#FFFFFF" stroke-width="8" d="M142.38,269.917H3.298"/>
	<path id="path48" fill="#FFFFFF" d="M192.161,269.917l-84.473,34.219l20.039-34.219l-20.039-34.453L192.161,269.917"/>
	<path id="path50" fill="none" stroke="#FFFFFF" stroke-width="8" d="M561.096,269.917h-64.697"/>
	<path id="path52" fill="#FFFFFF" d="M601.018,269.917l-67.549,27.412l15.908-27.412l-15.908-27.637L601.018,269.917"/>
	<path id="path54" fill="none" stroke="#FFFFFF" stroke-width="8" d="M142.38,344.116H3.298"/>
	<path id="path56" fill="#FFFFFF" d="M192.161,344.116l-84.473,34.443l20.039-34.443l-20.039-34.199L192.161,344.116"/>
	<path id="path58" fill="#FFFFFF" d="M510.11,242.954l-15.898,27.412l15.898,27.627l-67.539-27.627L510.11,242.954"/>
</g>
</svg>
