<?xml version="1.0" encoding="utf-8"?>
<!-- Generator: Adobe Illustrator 16.0.0, SVG Export Plug-In . SVG Version: 6.00 Build 0)  -->
<!DOCTYPE svg PUBLIC "-//W3C//DTD SVG 1.1//EN" "http://www.w3.org/Graphics/SVG/1.1/DTD/svg11.dtd">
<svg version="1.1"
	 id="svg2" xmlns:dc="http://purl.org/dc/elements/1.1/" xmlns:cc="http://creativecommons.org/ns#" xmlns:rdf="http://www.w3.org/1999/02/22-rdf-syntax-ns#" xmlns:svg="http://www.w3.org/2000/svg"
	 xmlns="http://www.w3.org/2000/svg" xmlns:xlink="http://www.w3.org/1999/xlink" x="0px" y="0px" width="72px" height="80px"
	 viewBox="0 0 72 80" enable-background="new 0 0 72 80" xml:space="preserve">
<g id="g12" transform="scale(0.1,0.1)">
	<path id="path22" fill="#2C6AA2" d="M578.022,799.895L577.3,134.451L0.371,134.001L0,800.002L578.022,799.895"/>
	<path id="path24" fill="none" stroke="#FFFFFF" stroke-width="5.0373" d="M578.022,799.895L577.3,134.451L0.371,134.001L0,800.002
		L578.022,799.895z"/>
	<path id="path26" fill="#2C6AA2" d="M577.3,134.451L0.371,134.001L173.477,1.873h545.19v661.45L578.022,799.895L577.3,134.451
		L577.3,134.451"/>
	<path id="path28" fill="none" stroke="#FFFFFF" stroke-width="5.0373" d="M577.3,134.451L0.371,134.001L173.477,1.873h545.19
		v661.45L578.022,799.895L577.3,134.451L577.3,134.451z"/>
	<path id="path30" fill="#2C6AA2" d="M577.3,134.451L719.995,0.002"/>
	<path id="path32" fill="none" stroke="#FFFFFF" stroke-width="5.0373" d="M577.3,134.451L719.995,0.002"/>
	<path id="path34" fill="#2C6AA2" d="M40.674,669.67h98.789V506.418H40.674V669.67z"/>
	<path id="path36" fill="none" stroke="#FFFFFF" stroke-width="3.7213" stroke-linecap="round" stroke-linejoin="round" d="
		M139.463,506.418H40.674V669.67h98.789"/>
	<path id="path38" fill="#2C6AA2" d="M139.463,669.67l54.634-30.02V476.389H95.269l-54.595,30.029h98.789V669.67"/>
	<path id="path40" fill="none" stroke="#FFFFFF" stroke-width="3.7213" stroke-linecap="round" stroke-linejoin="round" d="
		M139.463,669.67l54.634-30.02V476.389H95.269l-54.595,30.029h98.789V669.67z"/>
	<path id="path42" fill="#2C6AA2" d="M139.463,506.418l54.634-30.029"/>
	<path id="path44" fill="none" stroke="#FFFFFF" stroke-width="3.7213" stroke-linecap="round" stroke-linejoin="round" d="
		M139.463,506.418l54.634-30.029"/>
	<path id="path46" fill="#2C6AA2" d="M139.463,669.67h201.45V304.329h-201.45V669.67z"/>
	<path id="path48" fill="none" stroke="#FFFFFF" stroke-width="3.7213" stroke-linecap="round" stroke-linejoin="round" d="
		M340.913,304.329h-201.45V669.67h201.45"/>
	<path id="path50" fill="#2C6AA2" d="M340.913,669.67l82.109-45.303v-365.39H221.416l-81.953,45.352h201.45V669.67"/>
	<path id="path52" fill="none" stroke="#FFFFFF" stroke-width="3.7213" stroke-linecap="round" stroke-linejoin="round" d="
		M340.913,669.67l82.109-45.303v-365.39H221.416l-81.953,45.352h201.45V669.67z"/>
	<path id="path54" fill="#2C6AA2" d="M340.913,304.329l82.109-45.352"/>
	<path id="path56" fill="none" stroke="#FFFFFF" stroke-width="3.7213" stroke-linecap="round" stroke-linejoin="round" d="
		M340.913,304.329l82.109-45.352"/>
	<path id="path58" fill="#2C6AA2" d="M342.729,669.67h109.238v-307.9H342.729V669.67z"/>
	<path id="path60" fill="none" stroke="#FFFFFF" stroke-width="3.7213" stroke-linecap="round" stroke-linejoin="round" d="
		M451.968,361.77H342.729v307.9h109.238"/>
	<path id="path62" fill="#2C6AA2" d="M451.968,669.67l79.961-44.092V317.522H422.71l-79.98,44.248h109.238V669.67"/>
	<path id="path64" fill="none" stroke="#FFFFFF" stroke-width="3.7213" stroke-linecap="round" stroke-linejoin="round" d="
		M451.968,669.67l79.961-44.092V317.522H422.71l-79.98,44.248h109.238V669.67z"/>
	<path id="path66" fill="#2C6AA2" d="M451.968,361.77l79.961-44.248"/>
	<path id="path68" fill="none" stroke="#FFFFFF" stroke-width="3.7213" stroke-linecap="round" stroke-linejoin="round" d="
		M451.968,361.77l79.961-44.248"/>
	<path id="path70" fill="#2C6AA2" d="M244.429,454.465v16.807h30.83"/>
	<path id="path72" fill="none" stroke="#FFFFFF" stroke-width="3.7213" stroke-linecap="round" stroke-linejoin="round" d="
		M244.429,454.465v16.807h30.83"/>
	<path id="path74" fill="#2C6AA2" d="M287.417,454.465v16.807h30.791"/>
	<path id="path76" fill="none" stroke="#FFFFFF" stroke-width="3.7213" stroke-linecap="round" stroke-linejoin="round" d="
		M287.417,454.465v16.807h30.791"/>
	<path id="path78" fill="#2C6AA2" d="M158.081,454.748v17.1h30.835"/>
	<path id="path80" fill="none" stroke="#FFFFFF" stroke-width="3.7213" stroke-linecap="round" stroke-linejoin="round" d="
		M158.081,454.748v17.1h30.835"/>
	<path id="path82" fill="#2C6AA2" d="M201.064,454.748v17.1h30.825"/>
	<path id="path84" fill="none" stroke="#FFFFFF" stroke-width="3.7213" stroke-linecap="round" stroke-linejoin="round" d="
		M201.064,454.748v17.1h30.825"/>
	<path id="path86" fill="#2C6AA2" d="M244.058,489.826v17.09h30.83"/>
	<path id="path88" fill="none" stroke="#FFFFFF" stroke-width="3.7213" stroke-linecap="round" stroke-linejoin="round" d="
		M244.058,489.826v17.09h30.83"/>
	<path id="path90" fill="#2C6AA2" d="M287.007,489.826v17.09h30.811"/>
	<path id="path92" fill="none" stroke="#FFFFFF" stroke-width="3.7213" stroke-linecap="round" stroke-linejoin="round" d="
		M287.007,489.826v17.09h30.811"/>
	<path id="path94" fill="#2C6AA2" d="M157.734,490.403v16.816h30.786"/>
	<path id="path96" fill="none" stroke="#FFFFFF" stroke-width="3.7213" stroke-linecap="round" stroke-linejoin="round" d="
		M157.734,490.403v16.816h30.786"/>
	<path id="path98" fill="#2C6AA2" d="M200.654,490.403v16.816h30.864"/>
	<path id="path100" fill="none" stroke="#FFFFFF" stroke-width="3.7213" stroke-linecap="round" stroke-linejoin="round" d="
		M200.654,490.403v16.816h30.864"/>
	<path id="path102" fill="#2C6AA2" d="M244.058,523.987v16.807h30.83"/>
	<path id="path104" fill="none" stroke="#FFFFFF" stroke-width="3.7213" stroke-linecap="round" stroke-linejoin="round" d="
		M244.058,523.987v16.807h30.83"/>
	<path id="path106" fill="#2C6AA2" d="M287.007,523.987v16.807h30.811"/>
	<path id="path108" fill="none" stroke="#FFFFFF" stroke-width="3.7213" stroke-linecap="round" stroke-linejoin="round" d="
		M287.007,523.987v16.807h30.811"/>
	<path id="path110" fill="#2C6AA2" d="M157.734,524.25v17.109h30.786"/>
	<path id="path112" fill="none" stroke="#FFFFFF" stroke-width="3.7213" stroke-linecap="round" stroke-linejoin="round" d="
		M157.734,524.25v17.109h30.786"/>
	<path id="path114" fill="#2C6AA2" d="M200.654,524.25v17.109h30.864"/>
	<path id="path116" fill="none" stroke="#FFFFFF" stroke-width="3.7213" stroke-linecap="round" stroke-linejoin="round" d="
		M200.654,524.25v17.109h30.864"/>
	<path id="path118" fill="#2C6AA2" d="M244.058,555.344v17.139h30.83"/>
	<path id="path120" fill="none" stroke="#FFFFFF" stroke-width="3.7213" stroke-linecap="round" stroke-linejoin="round" d="
		M244.058,555.344v17.139h30.83"/>
	<path id="path122" fill="#2C6AA2" d="M287.007,555.344v17.139h30.811"/>
	<path id="path124" fill="none" stroke="#FFFFFF" stroke-width="3.7213" stroke-linecap="round" stroke-linejoin="round" d="
		M287.007,555.344v17.139h30.811"/>
	<path id="path126" fill="#2C6AA2" d="M157.734,555.608v17.129h30.786"/>
	<path id="path128" fill="none" stroke="#FFFFFF" stroke-width="3.7213" stroke-linecap="round" stroke-linejoin="round" d="
		M157.734,555.608v17.129h30.786"/>
	<path id="path130" fill="#2C6AA2" d="M200.654,555.608v17.129h30.864"/>
	<path id="path132" fill="none" stroke="#FFFFFF" stroke-width="3.7213" stroke-linecap="round" stroke-linejoin="round" d="
		M200.654,555.608v17.129h30.864"/>
	<path id="path134" fill="#2C6AA2" d="M363.062,376.174v17.139h30.645"/>
	<path id="path136" fill="none" stroke="#FFFFFF" stroke-width="3.7213" stroke-linecap="round" stroke-linejoin="round" d="
		M363.062,376.174v17.139h30.645"/>
	<path id="path138" fill="#2C6AA2" d="M405.991,376.174v17.139h30.703"/>
	<path id="path140" fill="none" stroke="#FFFFFF" stroke-width="3.7213" stroke-linecap="round" stroke-linejoin="round" d="
		M405.991,376.174v17.139h30.703"/>
	<path id="path142" fill="#2C6AA2" d="M362.456,408.313v16.885h30.957"/>
	<path id="path144" fill="none" stroke="#FFFFFF" stroke-width="3.7213" stroke-linecap="round" stroke-linejoin="round" d="
		M362.456,408.313v16.885h30.957"/>
	<path id="path146" fill="#2C6AA2" d="M405.405,408.313v16.885h30.938"/>
	<path id="path148" fill="none" stroke="#FFFFFF" stroke-width="3.7213" stroke-linecap="round" stroke-linejoin="round" d="
		M405.405,408.313v16.885h30.938"/>
	<path id="path150" fill="#2C6AA2" d="M362.456,437.287v16.777h30.957"/>
	<path id="path152" fill="none" stroke="#FFFFFF" stroke-width="3.7213" stroke-linecap="round" stroke-linejoin="round" d="
		M362.456,437.287v16.777h30.957"/>
	<path id="path154" fill="#2C6AA2" d="M405.405,437.287v16.777h30.938"/>
	<path id="path156" fill="none" stroke="#FFFFFF" stroke-width="3.7213" stroke-linecap="round" stroke-linejoin="round" d="
		M405.405,437.287v16.777h30.938"/>
	<path id="path158" fill="#2C6AA2" d="M54.995,520.354v17.09h30.82"/>
	<path id="path160" fill="none" stroke="#FFFFFF" stroke-width="3.7213" stroke-linecap="round" stroke-linejoin="round" d="
		M54.995,520.354v17.09h30.82"/>
	<path id="path162" fill="#2C6AA2" d="M97.969,520.354v17.09h30.835"/>
	<path id="path164" fill="none" stroke="#FFFFFF" stroke-width="3.7213" stroke-linecap="round" stroke-linejoin="round" d="
		M97.969,520.354v17.09h30.835"/>
	<path id="path166" fill="#2C6AA2" d="M57.319,552.365v17.168h30.845"/>
	<path id="path168" fill="none" stroke="#FFFFFF" stroke-width="3.7213" stroke-linecap="round" stroke-linejoin="round" d="
		M57.319,552.365v17.168h30.845"/>
	<path id="path170" fill="#2C6AA2" d="M100.269,552.365v17.168h30.84"/>
	<path id="path172" fill="none" stroke="#FFFFFF" stroke-width="3.7213" stroke-linecap="round" stroke-linejoin="round" d="
		M100.269,552.365v17.168h30.84"/>
	<path id="path174" fill="#2C6AA2" d="M57.319,581.281v17.08h30.845"/>
	<path id="path176" fill="none" stroke="#FFFFFF" stroke-width="3.7213" stroke-linecap="round" stroke-linejoin="round" d="
		M57.319,581.281v17.08h30.845"/>
	<path id="path178" fill="#2C6AA2" d="M100.269,581.281v17.08h30.84"/>
	<path id="path180" fill="none" stroke="#FFFFFF" stroke-width="3.7213" stroke-linecap="round" stroke-linejoin="round" d="
		M100.269,581.281v17.08h30.84"/>
	<path id="path182" fill="#2C6AA2" d="M245.259,322.542v16.963h30.811"/>
	<path id="path184" fill="none" stroke="#FFFFFF" stroke-width="3.7213" stroke-linecap="round" stroke-linejoin="round" d="
		M245.259,322.542v16.963h30.811"/>
	<path id="path186" fill="#2C6AA2" d="M288.218,322.542v16.963h30.82"/>
	<path id="path188" fill="none" stroke="#FFFFFF" stroke-width="3.7213" stroke-linecap="round" stroke-linejoin="round" d="
		M288.218,322.542v16.963h30.82"/>
	<path id="path190" fill="#2C6AA2" d="M158.926,323v16.953h30.781"/>
	<path id="path192" fill="none" stroke="#FFFFFF" stroke-width="3.7213" stroke-linecap="round" stroke-linejoin="round" d="
		M158.926,323v16.953h30.781"/>
	<path id="path194" fill="#2C6AA2" d="M201.831,323v16.953h30.84"/>
	<path id="path196" fill="none" stroke="#FFFFFF" stroke-width="3.7213" stroke-linecap="round" stroke-linejoin="round" d="
		M201.831,323v16.953h30.84"/>
	<path id="path198" fill="#2C6AA2" d="M244.858,357.932v17.119h30.84"/>
	<path id="path200" fill="none" stroke="#FFFFFF" stroke-width="3.7213" stroke-linecap="round" stroke-linejoin="round" d="
		M244.858,357.932v17.119h30.84"/>
	<path id="path202" fill="#2C6AA2" d="M287.837,357.932v17.119h30.791"/>
	<path id="path204" fill="none" stroke="#FFFFFF" stroke-width="3.7213" stroke-linecap="round" stroke-linejoin="round" d="
		M287.837,357.932v17.119h30.791"/>
	<path id="path206" fill="#2C6AA2" d="M158.569,358.508v16.953h30.806"/>
	<path id="path208" fill="none" stroke="#FFFFFF" stroke-width="3.7213" stroke-linecap="round" stroke-linejoin="round" d="
		M158.569,358.508v16.953h30.806"/>
	<path id="path210" fill="#2C6AA2" d="M201.523,358.508v16.953h30.796"/>
	<path id="path212" fill="none" stroke="#FFFFFF" stroke-width="3.7213" stroke-linecap="round" stroke-linejoin="round" d="
		M201.523,358.508v16.953h30.796"/>
	<path id="path214" fill="#2C6AA2" d="M244.858,391.897v17.207h30.84"/>
	<path id="path216" fill="none" stroke="#FFFFFF" stroke-width="3.7213" stroke-linecap="round" stroke-linejoin="round" d="
		M244.858,391.897v17.207h30.84"/>
	<path id="path218" fill="#2C6AA2" d="M287.837,391.897v17.207h30.791"/>
	<path id="path220" fill="none" stroke="#FFFFFF" stroke-width="3.7213" stroke-linecap="round" stroke-linejoin="round" d="
		M287.837,391.897v17.207h30.791"/>
	<path id="path222" fill="#2C6AA2" d="M158.569,392.512v16.943h30.806"/>
	<path id="path224" fill="none" stroke="#FFFFFF" stroke-width="3.7213" stroke-linecap="round" stroke-linejoin="round" d="
		M158.569,392.512v16.943h30.806"/>
	<path id="path226" fill="#2C6AA2" d="M201.523,392.512v16.943h30.796"/>
	<path id="path228" fill="none" stroke="#FFFFFF" stroke-width="3.7213" stroke-linecap="round" stroke-linejoin="round" d="
		M201.523,392.512v16.943h30.796"/>
	<path id="path230" fill="#2C6AA2" d="M244.858,423.44v17.119h30.84"/>
	<path id="path232" fill="none" stroke="#FFFFFF" stroke-width="3.7213" stroke-linecap="round" stroke-linejoin="round" d="
		M244.858,423.44v17.119h30.84"/>
	<path id="path234" fill="#2C6AA2" d="M287.837,423.44v17.119h30.791"/>
	<path id="path236" fill="none" stroke="#FFFFFF" stroke-width="3.7213" stroke-linecap="round" stroke-linejoin="round" d="
		M287.837,423.44v17.119h30.791"/>
	<path id="path238" fill="#2C6AA2" d="M158.569,423.987v16.836h30.806"/>
	<path id="path240" fill="none" stroke="#FFFFFF" stroke-width="3.7213" stroke-linecap="round" stroke-linejoin="round" d="
		M158.569,423.987v16.836h30.806"/>
	<path id="path242" fill="#2C6AA2" d="M201.523,423.987v16.836h30.796"/>
	<path id="path244" fill="none" stroke="#FFFFFF" stroke-width="3.7213" stroke-linecap="round" stroke-linejoin="round" d="
		M201.523,423.987v16.836h30.796"/>
	<path id="path246" fill="#2C6AA2" d="M362.065,467.307v17.119"/>
	<path id="path248" fill="none" stroke="#FFFFFF" stroke-width="3.7213" stroke-linecap="round" stroke-linejoin="round" d="
		M362.065,467.307v17.119"/>
	<path id="path250" fill="#2C6AA2" d="M362.065,484.426h30.781"/>
	<path id="path252" fill="none" stroke="#FFFFFF" stroke-width="3.7213" stroke-linecap="round" stroke-linejoin="round" d="
		M362.065,484.426h30.781"/>
	<path id="path254" fill="#2C6AA2" d="M405.132,467.307v17.119h30.684"/>
	<path id="path256" fill="none" stroke="#FFFFFF" stroke-width="3.7213" stroke-linecap="round" stroke-linejoin="round" d="
		M405.132,467.307v17.119h30.684"/>
	<path id="path258" fill="#2C6AA2" d="M362.065,496.799v17.08"/>
	<path id="path260" fill="none" stroke="#FFFFFF" stroke-width="3.7213" stroke-linecap="round" stroke-linejoin="round" d="
		M362.065,496.799v17.08"/>
	<path id="path262" fill="#2C6AA2" d="M362.065,513.879h30.781"/>
	<path id="path264" fill="none" stroke="#FFFFFF" stroke-width="3.7213" stroke-linecap="round" stroke-linejoin="round" d="
		M362.065,513.879h30.781"/>
	<path id="path266" fill="#2C6AA2" d="M405.132,496.799v17.08h30.684"/>
	<path id="path268" fill="none" stroke="#FFFFFF" stroke-width="3.7213" stroke-linecap="round" stroke-linejoin="round" d="
		M405.132,496.799v17.08h30.684"/>
	<path id="path270" fill="#FFFFFF" d="M313.413,292.551v-8.477l0.117-5.664l0.449-5.459l0.771-5.303l1.104-4.805l1.25-4.629
		l1.533-4.297l1.807-4.038l1.777-3.833l2.188-3.55l2.285-3.394l2.363-3.115l2.422-2.808l2.48-2.681l2.637-2.407l2.705-2.28
		l2.686-2.017l2.695-1.895l2.549-1.646l2.646-1.538l2.617-1.411l2.432-1.196l2.354-0.972l2.285-1.006l2.041-0.781l2.08-0.728
		l1.66-0.474l1.523-0.425l1.113-0.366l2.031-0.4l0.684-0.107h-59.531l-0.684,0.107l-1.719,0.4l-1.406,0.366l-1.533,0.425
		l-1.66,0.474l-1.943,0.728l-2.041,0.781l-2.266,1.006l-2.354,0.972l-2.422,1.167l-2.617,1.44l-2.656,1.538l-2.559,1.646
		l-2.686,1.895l-2.705,2.017l-2.676,2.28l-2.676,2.388l-2.471,2.681l-2.412,2.827l-2.5,3.115l-2.129,3.374l-2.188,3.55l-1.934,3.853
		l-1.68,3.999l-1.533,4.336l-1.26,4.629l-1.074,4.805l-0.781,5.303l-0.449,2.451l-0.234,5.801v13.799L313.413,292.551
		L313.413,292.551"/>
	<path id="path272" fill="#181817" d="M317.378,284.075h-8.047v8.477h8.047v-8.906l-0.205-0.439l-0.068-0.4l-0.098-0.391
		l-0.234-0.371l-0.146-0.352l-0.283-0.332l-0.176-0.166l-0.332-0.283l-0.342-0.117l-0.361-0.273l-0.361-0.068l-0.361-0.088
		l-0.361-0.176l-0.391-0.029l-0.244-0.02l-0.371,0.02l-0.352,0.029l-0.391,0.176l-0.361,0.088l-0.361,0.068l-0.371,0.273
		l-0.332,0.117l-0.166,0.283l-0.322,0.166l-0.303,0.332l-0.117,0.352l-0.273,0.371l-0.088,0.391l-0.068,0.4l-0.176,0.439
		l-0.029,0.43H317.378"/>
	<path id="path274" fill="#181817" d="M370.698,214.792l-0.703-7.808l-0.82,0.117l-2.09,0.405l-1.465,0.376l-1.582,0.601
		l-1.738,0.513l-1.992,0.747l-2.227,0.801l-2.344,0.894l-1.211,0.625l-1.23,0.503l-1.387,0.669l-1.27,0.552l-1.27,0.747
		l-1.416,0.742l-1.299,0.762l-1.445,0.806l-1.289,0.845l-1.475,1.011l-1.475,0.884l-1.309,1.04l-1.475,0.972l-1.494,1.123
		l-1.289,1.177l-1.475,1.201l-1.299,1.353l-1.445,1.279l-1.289,1.289l-1.426,1.484l-1.27,1.509l-1.25,1.567l-1.367,1.597
		l-1.211,1.626l-1.201,1.812l-1.182,1.714l-1.123,1.865l-1.143,1.953l-0.918,1.982l-1.074,2.002l-0.879,2.217l-0.84,2.08
		l-0.967,2.305l-0.791,2.314l-0.566,2.373l-0.713,2.412l-0.498,2.598l-0.625,2.48l-0.146,1.445l-0.283,1.289l-0.098,1.445
		l-0.273,1.289l-0.088,1.465l-0.244,1.465l-0.068,1.328l-0.049,1.494l-0.039,1.514l-0.029,1.494l-0.205,1.396v1.543h8.047v-1.328
		l0.02-1.455l0.02-1.328l0.059-1.396l0.039-1.289l0.225-1.406l0.068-1.27l0.098-1.211l0.234-1.406l0.117-1.191l0.264-1.211
		l0.117-1.191l0.459-2.354l0.605-2.305l0.527-2.119l0.703-2.227l0.723-2.031l0.742-1.992l0.801-1.963l0.82-1.885l0.83-1.899
		l0.889-1.675l1.035-1.797l0.908-1.626l1.094-1.558l1.123-1.558l1.104-1.509l1.006-1.489l1.152-1.284l1.152-1.279l1.211-1.362
		l1.348-1.221l1.201-1.172l1.201-1.157l1.23-0.962l1.221-1.064l1.377-1.079l1.221-0.864l1.23-0.869l1.24-0.977l1.387-0.811
		l1.211-0.776l1.211-0.601l1.23-0.747l1.191-0.703l1.172-0.679l1.211-0.522l1.152-0.625l1.152-0.479l1.113-0.454l2.236-0.84
		l1.963-0.776l1.719-0.664l1.641-0.469l1.484-0.425l1.328-0.317l1.641-0.405l0.313-0.059l-0.449-7.837l0.449,7.837l0.566-0.21
		l0.547-0.103l0.254-0.098l0.527-0.288l0.176-0.278l0.195-0.166l0.43-0.337l0.137-0.337l0.117-0.342l0.078-0.215l0.059-0.356
		l0.352-0.386l0.059-0.356v-0.381l-0.02-0.376l-0.039-0.396l-0.352-0.347l-0.059-0.371l-0.078-0.366l-0.117-0.356l-0.117-0.186
		l-0.43-0.327l-0.137-0.322l-0.195-0.146l-0.488-0.278l-0.195-0.127l-0.508-0.229l-0.234-0.068l-0.527-0.059l-0.313-0.029h-0.566
		l-0.273,0.059L370.698,214.792"/>
	<path id="path276" fill="#181817" d="M310.464,206.985l0.703,7.808h59.531v-7.866h-59.531L310.464,206.985l0.703-0.059l-0.43,0.029
		l-0.449,0.059l-0.547,0.039l-0.381,0.088l-0.215,0.269l-0.361,0.288l-0.332,0.137l-0.293,0.322l-0.156,0.166l-0.283,0.356
		l-0.088,0.337l-0.254,0.356l-0.059,0.371l-0.049,0.376l-0.029,0.386v0.732l0.029,0.381l0.049,0.225l0.059,0.376l0.254,0.356
		l0.088,0.342l0.283,0.347l0.156,0.317l0.293,0.176l0.332,0.298l0.361,0.127l0.215,0.249l0.381,0.103l0.547,0.21l0.449,0.049h0.43
		L310.464,206.985"/>
	<path id="path278" fill="#181817" d="M258.003,281.204v-2.793l0.039-1.455l0.059-1.26l0.039,1.582l0.215-1.406l0.078-1.27
		l0.098-1.25l0.234-1.367l0.127-1.211l0.264-1.191l0.117-1.211l0.293-1.172l0.146-1.162l0.313-1.162l0.303-1.123l0.508-2.295
		l0.703-2.09l0.566-2.012l0.781-1.992l0.791-1.963l0.967-1.904l0.84-1.88l0.889-1.846l1.025-1.626l0.918-1.626l1.094-1.577
		l1.094-1.538l1.133-1.509l0.986-1.489l1.143-1.284l1.191-1.279l1.172-1.392l1.211-1.191l1.328-1.172l1.25-1.157l1.221-0.962
		l1.201-1.064l1.24-1.079l1.377-0.894l1.23-0.869l1.25-0.947l1.201-0.811l1.396-0.776l1.201-0.762l1.201-0.586l1.23-0.703
		l1.172-0.679l1.172-0.493l1.182-0.654l1.143-0.479l1.113-0.454l2.1-0.84l2.109-0.776l1.738-0.664l1.611-0.469l1.465-0.425
		l1.182-0.317l1.826-0.405l0.41-0.059l-1.426-7.778l-0.811,0.117l-1.934,0.405l-1.309,0.376l-1.729,0.601l-1.738,0.513l-1.992,0.718
		l-2.266,0.82l-2.334,0.874l-1.201,0.654l-1.221,0.503l-1.396,0.669l-1.25,0.552l-1.27,0.718l-1.426,0.771l-1.299,0.762
		l-1.445,0.806l-1.328,0.815l-1.455,1.001l-1.445,0.923l-1.348,1.04l-1.465,0.972l-1.465,1.123l-1.309,1.147l-1.465,1.23
		l-1.318,1.353l-1.445,1.279l-1.27,1.289l-1.416,1.484l-1.27,1.509l-1.25,1.567l-1.387,1.577l-1.221,1.626l-1.182,1.831
		l-1.172,1.694l-1.152,1.885l-1.113,1.953l-0.938,1.953l-1.055,2.012l-0.879,2.236l-0.859,2.08l-0.957,2.285l-0.791,2.334
		l-0.576,2.373l-0.703,2.402l-0.332,1.396l-0.332,1.211l-0.166,1.24l-0.303,1.416l-0.137,1.27l-0.293,1.27l-0.264,1.445
		l-0.088,1.309l-0.098,1.465l-0.254,1.465l-0.059,1.328l-0.049,1.494l-0.049-1.494l-0.195,1.504l-0.02,1.523v1.992l0.186,0.43
		l0.078,0.41l0.098,0.391l0.264,0.352l0.117,0.361l0.293,0.322l0.156,0.156l0.342,0.293l0.342,0.127l0.352,0.244l0.371,0.098
		l0.352,0.215l0.361,0.059l0.381,0.02h0.635l0.361-0.02l0.391-0.059l0.352-0.215l0.361-0.098l0.361-0.244l0.332-0.127l0.176-0.293
		l0.313-0.156l0.313-0.322l0.117-0.361l0.273-0.352l0.078-0.391l0.059-0.41l0.176-0.43L258.003,281.204L258.003,281.204"/>
	<path id="path280" fill="#181817" d="M254.272,298.899l3.73-3.896v-13.799h-8.027v13.799L254.272,298.899l-4.297-3.896v0.586
		l0.186,0.439l0.078,0.41l0.098,0.391l0.264,0.352l0.117,0.215l0.293,0.313l0.156,0.313l0.342,0.137l0.342,0.293l0.352,0.098
		l0.371,0.234l0.352,0.078l0.361,0.039l0.381,0.029h0.635l0.361-0.029l0.391-0.039l0.352-0.078l0.361-0.234l0.361-0.098l0.332-0.293
		l0.176-0.137l0.313-0.313l0.313-0.313l0.117-0.215l0.273-0.352l0.078-0.391l0.059-0.41l0.176-0.439l0.039-0.586L254.272,298.899"/>
	<path id="path282" fill="#181817" d="M317.378,292.551l-4.316-3.906l-59.395,2.441l0.605,7.813l59.365-2.441L317.378,292.551
		l-3.74,3.906l0.605-0.02l0.41-0.234l0.41-0.078l0.381-0.137l0.361-0.254l0.195-0.146l0.313-0.303l0.283-0.342l0.127-0.342
		l0.264-0.352l0.068-0.195l0.068-0.381l0.049-0.361l0.176-0.371l0.029-0.371l-0.029-0.391l-0.176-0.371l-0.049-0.361l-0.068-0.361
		l-0.088-0.361l-0.244-0.215l-0.127-0.322l-0.283-0.352l-0.313-0.313l-0.166-0.137l-0.371-0.293l-0.352-0.098l-0.361-0.234
		l-0.4-0.068l-0.42-0.049l-0.43-0.02l-0.439,0.02L317.378,292.551"/>
	<path id="path284" fill="#100F0D" d="M309.331,292.551h8.047v-8.477h-8.047V292.551z"/>
	<path id="path286" fill="#100F0D" d="M311.167,214.792h59.531v-7.866h-59.531V214.792z"/>
	<path id="path288" fill="#100F0D" d="M249.976,295.002h8.027v-13.799h-8.027V295.002z"/>
	<path id="path290" fill="#FFFFFF" d="M307.798,210.852h70.361l7.656,0.972l7.051,1.865l6.758,2.612l5.879,3.154l5.918,3.716
		l5.059,4.478l5.059,4.819l4.238,5.376l4.316,5.786l3.477,5.986l3.574,6.333l3.047,6.621l2.578,6.914l2.402,6.953l2.188,6.885
		l1.777,7.207l1.602,7.051l1.465,6.982l1.328-6.074l0.918,6.66l0.82,6.523l0.684,6.191l0.645,5.674l0.234,5.439l0.156-22.656
		l0.41,4.59l0.078,3.926l0.059,3.242v4.697l-0.039,1.748h61.641l-96.816,96.338l-96.953-96.338h61.816v-6.504l-0.02-3.301
		l-0.391-4.121l-0.117-4.434l-0.176,22.461l-0.547-5.488l-0.313-5.898l-0.703-6.23l-0.84-6.426l-0.879,5.996l-1.348-6.953
		l-1.465-7.031l-1.621-7.09l-1.758-7.09l-2.207-7.051l-2.402-7.012l-2.852-6.895l-3.066-6.504l-3.262-6.465l-3.633-5.991
		l-4.16-5.747l-4.375-5.195l-4.785-4.902l-5.332-4.297l-5.596-3.638l-6.182-3.066l-6.621-2.368l-7.07-1.606L307.798,210.852
		L307.798,210.852"/>
	<path id="path292" fill="#181817" d="M378.628,206.956l-0.469-0.029h-70.361v7.866h70.361L378.628,206.956l-0.469,7.837h0.566
		l0.586-0.049l0.254-0.21l0.527-0.103l0.234-0.249l0.195-0.127l0.488-0.298l0.176-0.176l0.449-0.317l0.117-0.347l0.098-0.342
		l0.078-0.356l0.078-0.376l0.039-0.225l0.02-0.381l0.332-0.386l-0.332-0.347l-0.02-0.386l-0.039-0.376l-0.078-0.371l-0.078-0.356
		l-0.098-0.337l-0.117-0.356l-0.449-0.166l-0.176-0.322l-0.488-0.137l-0.195-0.288l-0.234-0.269l-0.527-0.088l-0.254-0.039
		l-0.586-0.059l-0.566-0.029L378.628,206.956"/>
	<path id="path294" fill="#181817" d="M457.495,320.598l3.965,4.004l0.02-1.826v-4.697l-0.039-3.301l-0.078-4.121l-0.43-4.453
		l-0.176,22.637l-0.098-2.715l-0.156-2.773l-0.449-2.979l-0.176-2.881l-0.488-3.115l-0.215-3.154l-0.527-3.32l-0.293-3.242
		l-0.605-3.398l-0.313-3.32l-0.664,9.375l-0.684-3.486l-0.703-3.525l-0.781-3.545l-0.801-3.701l-0.801-3.555l-0.879-3.574
		l-0.918-3.564l-1.25-3.564l-0.977-3.535l-0.664-1.855l-0.684-1.855l-0.391-1.689l-0.684-1.826l-0.723-1.699l-0.742-1.816
		l-0.703-1.68l-0.742-1.797l-0.762-1.68l-0.762-1.66l-0.801-1.797l-0.801-1.621l-0.801-1.636l-0.82-1.768l-0.859-1.597l-0.859-1.606
		l-0.859-1.587l-1.191-1.577l-0.879-1.558l-0.918-1.558l-0.938-1.528l-1.25-1.538l-0.957-1.519l-1.289-1.362l-0.996-1.45
		l-0.977-1.489l-1.348-1.299l-1.309-1.44l-1.094-1.26l-1.387-1.25l-1.055-1.216l-1.426-1.372l-1.406-1.201l-1.465-1.162
		l-1.152-1.147l-1.504-1.133l-1.523-0.972l-1.484-1.089l-1.563-1.064l-1.523-0.874l-1.602-0.859l-1.582-0.996l-1.641-0.801
		l-1.621-0.806l-1.66-0.732l-1.953-0.605l-1.699-0.693l-1.699-0.664l-2.051-0.488l-1.758-0.464l-1.758-0.444l-2.109-0.552
		l-1.777-0.215l-2.148-0.327l-2.129-0.308l-1.875-0.127l-0.684,7.837l1.719,0.088l2.031,0.298l1.66,0.166l1.699,0.347l1.641,0.371
		l1.621,0.405l1.914,0.425l1.621,0.596l1.563,0.488l1.563,0.493l1.523,0.674l1.543,0.698l1.172,0.571l1.504,0.767l1.504,0.771
		l1.445,0.786l1.445,0.981l1.113,0.854l1.426,0.85l1.387,1.025l1.133,0.923l1.328,1.04l1.367,0.972l1.035,1.099l1.348,1.133
		l0.996,1.143l1.309,1.172l0.957,1.206l0.996,1.221l1.27,1.211l0.918,1.392l0.957,1.26l1.211,1.284l0.898,1.421l0.879,1.309
		l0.898,1.47l1.172,1.47l0.84,1.348l0.879,1.509l0.801,1.538l0.82,1.528l0.82,1.528l0.801,1.563l0.762,1.582l0.801,1.582
		l0.742,1.563l0.742,1.602l0.742,1.602l0.723,1.621l0.684,1.748l0.41,1.641l0.723,1.631l0.664,1.797l0.664,1.65l0.664,1.65
		l0.352,1.758l1.25,3.359l0.938,3.457l0.879,3.496l0.859,3.506l0.801,3.477l0.781,3.467l0.723,3.467l0.742,3.311l0.664,3.438
		l0.645-9.395l0.313,3.223l0.586,3.34l0.313,3.193l0.488,3.145l0.234,3.096l0.488,2.891l0.156,2.988l0.137,2.813l0.469,2.725
		l0.078,2.666l0.176-22.676l0.43,4.375l0.078,3.906l0.02,3.203v6.23l3.906,4.15l-3.906-4.15v0.605v0.43l0.078,0.41l0.059,0.371
		l0.137,0.371l0.43,0.352l0.117,0.195l0.176,0.313l0.469,0.293l0.195,0.137l0.195,0.234l0.508,0.098l0.215,0.078l0.527,0.205
		l0.215,0.029l0.527,0.029h0.215l0.547-0.029l0.215-0.195l0.547-0.059l0.195-0.078l0.195-0.254l0.508-0.107l0.156-0.283l0.176-0.176
		l0.469-0.303l0.137-0.371l0.098-0.361l0.41-0.381l0.078-0.4l0.059-0.41l0.02-0.449L457.495,320.598"/>
	<path id="path296" fill="#181817" d="M461.733,328.459v-7.861h-4.238v7.861H461.733h0.566l0.586-0.059l0.254-0.205l0.547-0.098
		l0.215-0.254l0.508-0.127l0.195-0.283l0.156-0.176l0.449-0.332l0.117-0.342l0.117-0.361l0.059-0.361l0.059-0.361l0.059-0.215
		l0.02-0.371l0.332-0.391l-0.332-0.352l-0.02-0.381l-0.059-0.391l-0.059-0.361l-0.059-0.352l-0.117-0.332l-0.117-0.371l-0.449-0.156
		l-0.156-0.322l-0.195-0.303l-0.508-0.117l-0.215-0.273l-0.547-0.088l-0.254-0.049l-0.586-0.049l-0.566-0.029V328.459"/>
	<path id="path298" fill="#181817" d="M521.753,327.297l-2.617-6.699h-57.402v7.861h57.402L521.753,327.297l-2.617,1.162h0.293
		l0.586-0.059l0.234-0.205l0.547-0.098l0.215-0.254l0.527-0.127l0.137-0.283l0.195-0.176l0.449-0.332l0.098-0.342l0.117-0.361
		l0.117-0.361l0.332-0.361l0.039-0.215l0.059-0.371v-0.742l-0.059-0.381l-0.039-0.391l-0.332-0.361l-0.117-0.352l-0.117-0.332
		l-0.098-0.371l-0.449-0.156l-0.195-0.322l-0.137-0.303l-0.527-0.117l-0.215-0.273l-0.547-0.088l-0.234-0.049l-0.586-0.049
		l-0.293-0.029L521.753,327.297"/>
	<path id="path300" fill="#181817" d="M419.409,423.459h5.547l96.797-96.162l-5.547-5.527l-96.797,96.162V423.459v-5.527
		l-0.195,0.205l-0.488,0.547l-0.137,0.215l-0.078,0.547l-0.078,0.195l-0.059,0.547l-0.039,0.225v0.527l0.059,0.244l0.039,0.508
		l0.078,0.234l0.059,0.186l0.117,0.508l0.43,0.195l0.137,0.479L419.409,423.459l0.488,0.166l0.156,0.43l0.195,0.137l0.488,0.098
		l0.195,0.078l0.527,0.068l0.215,0.352l0.547,0.02h0.215l0.234-0.02l0.547-0.352l0.234-0.068l0.527-0.107l0.234-0.127l0.527-0.459
		l0.215-0.215H419.409"/>
	<path id="path302" fill="#181817" d="M325.366,320.598l-2.754,6.68l96.797,96.181l5.547-5.527l-96.641-96.162L325.366,320.598
		l2.949,1.172l-0.361-0.332l-0.381-0.313l-0.371-0.156l-0.391-0.244l-0.381-0.078l-0.381-0.049l-0.391-0.176h-0.381l-0.361,0.176
		l-0.391,0.049l-0.352,0.078l-0.215,0.088l-0.361,0.254l-0.342,0.098l-0.313,0.303l-0.332,0.303l-0.146,0.176l-0.293,0.332
		l-0.117,0.332l-0.264,0.332l-0.098,0.215l-0.059,0.361l-0.205,0.391l-0.029,0.361v0.381l0.029,0.381l0.205,0.391l0.059,0.381
		l0.117,0.381l0.273,0.352l0.342,0.391l0.186,0.352L325.366,320.598"/>
	<path id="path304" fill="#181817" d="M391.108,324.602l-3.926-4.004h-61.816v7.861h61.816L391.108,324.602l-3.926,3.857h0.273
		l0.586-0.059l0.254-0.205l0.527-0.098l0.215-0.254l0.527-0.127l0.176-0.283l0.156-0.176l0.449-0.332l0.117-0.342l0.098-0.361
		l0.098-0.361l0.371-0.361l0.039-0.215l0.039-0.371l0.02-0.391l-0.02-0.352l-0.039-0.381l-0.039-0.391l-0.371-0.361l-0.098-0.352
		l-0.098-0.332l-0.117-0.371l-0.449-0.156l-0.156-0.322l-0.176-0.303l-0.527-0.117l-0.215-0.273l-0.527-0.088l-0.254-0.049
		l-0.586-0.049l-0.273-0.029L391.108,324.602"/>
	<path id="path306" fill="#181817" d="M307.798,206.926l-0.127,7.866l1.895,0.078l1.699,0.249l1.826,0.127l1.68,0.337l1.787,0.327
		l1.621,0.22l1.621,0.547l1.582,0.425l1.582,0.464l1.543,0.488l1.543,0.645l1.543,0.513l1.484,0.708l1.348,0.703l1.465,0.776
		l1.465,0.762l1.299,0.815l1.416,0.82l1.26,0.835l1.24,0.879l1.406,1.045l1.201,0.913l1.201,1.069l1.201,1.104l1.182,1.104
		l1.152,0.996l1.152,1.162l1.133,1.172l0.977,1.187l1.113,1.372l1.074,1.25l0.938,1.25l1.064,1.401l1.064,1.299l0.879,1.426
		l0.889,1.328l1.006,1.489l0.879,1.479l0.83,1.367l0.967,1.519l0.82,1.528l0.82,1.538l0.781,1.543l0.801,1.592l0.781,1.553
		l0.723,1.611l0.762,1.572l0.742,1.611l0.723,1.768l0.391,1.641l0.703,1.621l0.723,1.621l0.664,1.797l0.684,1.66l0.371,1.787
		l0.625,1.67l0.957,3.496l1.23,3.477l0.879,3.477l0.879,3.525l0.781,3.506l0.801,3.34l0.723,3.506l0.723,3.467l0.664,3.477
		l0.664-9.414l0.293,3.428l0.605,3.232l0.254,3.193l0.547,3.184l0.215,3.115l0.488,3.057l0.156,3.027l0.176,2.822l0.41,2.754
		l0.117,2.686l0.156-22.656l0.117,4.6l0.391,3.926l0.02,3.262v6.27l7.871,0.293l0.02-1.846v-4.736l-0.059-3.486l-0.059-4.014
		l-0.43,23.066l-0.176-5.107l-0.098-2.725l-0.43-2.813l-0.176-3.008l-0.137-3.066l-0.527-3.105l-0.215-3.184l-0.527-3.203
		l-0.273-3.408l-0.586-3.291l-0.332,9.375l-0.664-3.496l-0.703-3.516l-0.723-3.691l-0.723-3.574l-0.801-3.555l-0.859-3.574
		l-0.859-3.604l-0.898-3.73l-1.25-3.564l-0.996-3.574l-0.664-1.836l-0.684-1.709l-0.664-1.846l-0.41-1.699l-0.703-1.836
		l-0.723-1.689l-0.742-1.816l-0.742-1.689l-0.781-1.797l-0.762-1.66l-0.801-1.641l-0.781-1.782l-0.82-1.636l-0.801-1.626
		l-0.859-1.748l-0.859-1.611l-1.172-1.582l-0.859-1.567l-0.898-1.567l-0.918-1.558l-1.133-1.528l-1.055-1.519l-1.113-1.348
		l-1.133-1.519l-0.977-1.46l-1.152-1.318l-1.182-1.44l-1.201-1.27l-1.348-1.406l-1.23-1.25l-1.25-1.221l-1.416-1.201l-1.279-1.167
		l-1.289-1.182l-1.465-1.123l-1.494-1.133l-1.494-0.928l-1.387-1.084l-1.543-0.879l-1.543-1.006l-1.582-0.864l-1.758-0.811
		l-1.621-0.806l-1.621-0.752l-1.66-0.723l-1.826-0.698l-1.865-0.542l-1.699-0.63l-1.875-0.474l-1.924-0.425l-1.748-0.415
		l-1.953-0.361l-1.953-0.337l-2.148-0.317l-1.982-0.107l-2.021-0.078l-0.264,7.837l0.264-7.837h-0.43l-0.43,0.029l-0.41,0.049
		l-0.381,0.068l-0.391,0.249l-0.361,0.137l-0.332,0.278l-0.313,0.146l-0.146,0.322l-0.293,0.337l-0.117,0.356l-0.244,0.176
		l-0.068,0.366l-0.068,0.391l-0.195,0.356l-0.02,0.376v0.386l0.02,0.361l0.195,0.386l0.049,0.366l0.068,0.376l0.098,0.327
		l0.254,0.22l0.303,0.337l0.137,0.308l0.342,0.308l0.332,0.146l0.361,0.259l0.391,0.112l0.4,0.068l0.41,0.21l0.449,0.029
		L307.798,206.926"/>
	<path id="path308" fill="#FFFFFF" d="M246.694,708.03h-70.503l-7.524-0.957l-7.051-1.738l-6.611-2.451l-6.177-3.457l-5.63-3.564
		l-5.303-4.482l-4.785-4.814l-4.556-5.391l-4.014-5.615l-3.628-6.152l-3.413-6.328l-3.062-6.768l-2.715-6.904l-2.388-6.973
		l-2.08-6.738l-1.899-7.344l-1.611-7.041l-1.465-6.709l-1.172-6.895l-1.069-6.826l-0.815-6.348l-0.557-6.221l-0.61,35.859
		l-0.396-5.439l-0.176-4.873l-0.249-4.57l-0.083-3.945l-0.049-3.242v-4.98l0.024-1.602H35.513l96.802-96.191l96.802,96.191h-61.65
		v6.65l0.024,3.271l0.073,3.965l0.249,4.619l0.195,4.951l0.542,5.479l0.479-35.498l0.542,6.221l0.962,6.426l0.928,6.846l1.172,6.943
		l1.475,7.041l1.611,7.09l1.895,7.1l2.075,7.041l2.529,7.012l2.578,6.895l3.057,6.494l3.413,6.328l3.643,6.123l4.15,5.605
		l4.38,5.352l4.785,4.766l5.337,4.443l5.591,3.467l6.182,3.076l6.616,2.383l7.07,1.611L246.694,708.03L246.694,708.03"/>
	<path id="path310" fill="none" stroke="#211C1D" stroke-width="6" d="M246.694,708.03h-70.503l-7.524-0.957l-7.051-1.738
		l-6.611-2.451l-6.177-3.457l-5.63-3.564l-5.303-4.482l-4.785-4.814l-4.556-5.391l-4.014-5.615l-3.628-6.152l-3.413-6.328
		l-3.062-6.768l-2.715-6.904l-2.388-6.973l-2.08-6.738l-1.899-7.344l-1.611-7.041l-1.465-6.709l-1.172-6.895l-1.069-6.826
		l-0.815-6.348l-0.557-6.221l-0.61,35.859l-0.396-5.439l-0.176-4.873l-0.249-4.57l-0.083-3.945l-0.049-3.242v-4.98l0.024-1.602
		H35.513l96.802-96.191l96.802,96.191h-61.65v6.65l0.024,3.271l0.073,3.965l0.249,4.619l0.195,4.951l0.542,5.479l0.479-35.498
		l0.542,6.221l0.962,6.426l0.928,6.846l1.172,6.943l1.475,7.041l1.611,7.09l1.895,7.1l2.075,7.041l2.529,7.012l2.578,6.895
		l3.057,6.494l3.413,6.328l3.643,6.123l4.15,5.605l4.38,5.352l4.785,4.766l5.337,4.443l5.591,3.467l6.182,3.076l6.616,2.383
		l7.07,1.611L246.694,708.03L246.694,708.03z"/>
	<path id="path312" fill="#FFFFFF" d="M284.595,681.448c-9.385,18.77-40.176,28.164-40.176,28.164
		c-13.662-0.84-29.966-12.715-29.966-12.715l13.672-15.449"/>
	<path id="path314" fill="none" stroke="#211C1D" stroke-width="6" d="M284.595,681.448c-9.385,18.77-40.176,28.164-40.176,28.164
		c-13.662-0.84-29.966-12.715-29.966-12.715l13.672-15.449"/>
</g>
</svg>
