<?xml version="1.0" encoding="utf-8"?>
<!-- Generator: Adobe Illustrator 16.0.0, SVG Export Plug-In . SVG Version: 6.00 Build 0)  -->
<!DOCTYPE svg PUBLIC "-//W3C//DTD SVG 1.1//EN" "http://www.w3.org/Graphics/SVG/1.1/DTD/svg11.dtd">
<svg version="1.1"
	 id="图层_1" xmlns:dc="http://purl.org/dc/elements/1.1/" xmlns:cc="http://creativecommons.org/ns#" xmlns:rdf="http://www.w3.org/1999/02/22-rdf-syntax-ns#"
	 xmlns="http://www.w3.org/2000/svg" xmlns:xlink="http://www.w3.org/1999/xlink" x="0px" y="0px" width="69px" height="77px"
	 viewBox="0 0 69 77" enable-background="new 0 0 69 77" xml:space="preserve">
<path fill="#00BCF2" d="M17.287,67.559L0,58.068v-6.779V44.51l1.586-0.047c1.813-0.052,3.933,0.158,5.113,0.51
	c1.189,0.354,2.066,1.297,2.724,2.937c2.826,7.05,7.079,11.885,13.074,14.866c3.268,1.625,6.084,2.381,9.865,2.652
	c5.949,0.426,11.708-1.007,16.405-4.084c4.453-2.916,7.911-7.201,10.139-12.555c0.496-1.201,1.089-2.366,1.366-2.689
	c0.996-1.162,2.882-1.666,6.252-1.666h2.104l0.146,0.388c0.088,0.229,0.149,2.879,0.149,6.459v6.071L52,67.148
	C42.69,72.537,34.961,76.973,34.823,77C34.688,77.027,26.796,72.781,17.287,67.559L17.287,67.559z M32.979,56.793
	C25.592,56.26,19.314,50.95,17.323,43.55c-0.352-1.31-0.391-1.733-0.399-4.249c-0.009-2.422,0.038-2.976,0.334-4.146
	c1.409-5.576,5.256-10.075,10.449-12.218c1.317-0.543,3.146-1.052,4.42-1.229c1.24-0.172,4.056-0.1,5.394,0.137
	c6.667,1.183,12.245,6.287,13.955,12.773c2.392,9.071-2.479,18.244-11.315,21.306C37.954,56.689,35.549,56.98,32.979,56.793z
	 M38.549,44.889c4.324-2.865,7.87-5.25,7.874-5.297c0-0.047-3.546-2.422-7.884-5.276c-4.341-2.854-8.077-5.318-8.306-5.476
	l-0.416-0.284v11.052v11.051l0.431-0.28C30.485,50.226,34.222,47.754,38.549,44.889z M64.244,35.275
	c-2.636-0.397-3.745-1.3-4.83-3.932c-2.168-5.273-3.951-8.07-7.249-11.381c-2.413-2.422-4.173-3.714-6.869-5.046
	c-3.663-1.809-6.755-2.52-10.947-2.52c-7.056,0-13.122,2.616-18.121,7.817c-2.95,3.067-4.672,5.836-7.02,11.281
	c-0.729,1.692-1.241,2.394-2.12,2.909c-1.069,0.628-2.139,0.813-4.71,0.816H0.073l0.04-7.787l0.039-7.786L17.31,9.823L34.466,0
	l17.115,9.593l17.117,9.593l0.105,6.015c0.06,3.308,0.127,6.95,0.15,8.092L69,35.37l-2.191-0.021
	c-1.202-0.012-2.358-0.046-2.564-0.078V35.275L64.244,35.275z"/>
</svg>
