<?xml version="1.0" encoding="utf-8"?>
<!-- Generator: Adobe Illustrator 16.0.0, SVG Export Plug-In . SVG Version: 6.00 Build 0)  -->
<!DOCTYPE svg PUBLIC "-//W3C//DTD SVG 1.1//EN" "http://www.w3.org/Graphics/SVG/1.1/DTD/svg11.dtd">
<svg version="1.1"
	 id="svg2" xmlns:dc="http://purl.org/dc/elements/1.1/" xmlns:cc="http://creativecommons.org/ns#" xmlns:rdf="http://www.w3.org/1999/02/22-rdf-syntax-ns#" xmlns:svg="http://www.w3.org/2000/svg"
	 xmlns="http://www.w3.org/2000/svg" xmlns:xlink="http://www.w3.org/1999/xlink" x="0px" y="0px" width="47px" height="76px"
	 viewBox="0 0 47 76" enable-background="new 0 0 47 76" xml:space="preserve">
<g id="g12" transform="scale(0.1,0.1)">
	<path id="path14" fill="#087BBB" d="M6.833,759.995h400.82V62.065H6.833V759.995z"/>
	<path id="path16" fill="none" stroke="#FFFFFF" stroke-width="4" d="M6.833,759.995h400.82V62.065H6.833V759.995z"/>
	<path id="path18" fill="#087BBB" d="M6.833,62.07L83.416,0h386.582l-62.344,62.07H6.833"/>
	<path id="path20" fill="none" stroke="#FFFFFF" stroke-width="4" d="M6.833,62.07L83.416,0h386.582l-62.344,62.07H6.833z"/>
	<path id="path22" fill="#087BBB" d="M407.654,759.995l62.344-76.445V0l-62.344,62.07V759.995"/>
	<path id="path24" fill="none" stroke="#FFFFFF" stroke-width="4" d="M407.654,759.995l62.344-76.445V0l-62.344,62.07V759.995z"/>
	<path id="path26" fill="none" stroke="#FFFFFF" stroke-width="4" d="M-0.002,709.487h399.189"/>
	<path id="path28" fill="none" stroke="#FFFFFF" stroke-width="4" d="M-0.002,335.884h399.189"/>
	<path id="path30" fill="#FFFFFF" d="M176.98,558.178v57.207h-22.383l44.766,57.207l46.123-57.207h-22.383v-57.207H176.98"/>
	<path id="path32" fill="#FFFFFF" d="M176.98,512.807V455.6h-22.383l44.766-57.188l46.123,57.188h-22.383v57.207H176.98"/>
	<path id="path34" fill="#FFFFFF" d="M59.978,515.62h57.48v-22.676l57.314,45.039l-57.314,46.035v-22.363h-57.48V515.62"/>
	<path id="path36" fill="#FFFFFF" d="M338.406,515.62h-57.305v-22.676l-57.314,45.039l57.314,46.035v-22.363h57.305V515.62"/>
	<path id="path38" fill="#087BBB" d="M38.708,187.852h185.967v-76.235H38.708V187.852z"/>
	<path id="path40" fill="none" stroke="#FFFFFF" stroke-width="4" d="M38.708,187.852h185.967v-76.235H38.708V187.852z"/>
	<path id="path42" fill="none" stroke="#FFFFFF" stroke-width="4" d="M57.312,152.422H208.24"/>
</g>
</svg>
