<?xml version="1.0" encoding="utf-8"?>
<!-- Generator: Adobe Illustrator 16.0.0, SVG Export Plug-In . SVG Version: 6.00 Build 0)  -->
<!DOCTYPE svg PUBLIC "-//W3C//DTD SVG 1.1//EN" "http://www.w3.org/Graphics/SVG/1.1/DTD/svg11.dtd">
<svg version="1.1"
	 id="svg2" xmlns:dc="http://purl.org/dc/elements/1.1/" xmlns:cc="http://creativecommons.org/ns#" xmlns:rdf="http://www.w3.org/1999/02/22-rdf-syntax-ns#" xmlns:svg="http://www.w3.org/2000/svg"
	 xmlns="http://www.w3.org/2000/svg" xmlns:xlink="http://www.w3.org/1999/xlink" x="0px" y="0px" width="79px" height="44px"
	 viewBox="0 0 79 44" enable-background="new 0 0 79 44" xml:space="preserve">
<g id="g12" transform="scale(0.1,0.1)">
	<path id="path14" fill="#0881C1" d="M0,193.242L238.765,0h551.23L592.397,193.242H0"/>
	<path id="path16" fill="none" stroke="#FFFFFF" stroke-width="4" d="M0,193.242L238.765,0h551.23L592.397,193.242H0z"/>
	<path id="path18" fill="#0881C1" d="M592.397,439.863l197.598-201.504V0.361L592.397,193.242V439.863"/>
	<path id="path20" fill="none" stroke="#FFFFFF" stroke-width="4" d="M592.397,439.863l197.598-201.504V0.361L592.397,193.242
		V439.863z"/>
	<path id="path22" fill="#0881C1" d="M0.806,440h591.592V193.242H0.806V440z"/>
	<path id="path24" fill="none" stroke="#FFFFFF" stroke-width="4" d="M0.806,440h591.592V193.242H0.806V440z"/>
	<path id="path26" fill="none" stroke="#FFFFFF" stroke-width="4.5" stroke-linecap="round" stroke-miterlimit="1" d="
		M559.097,323.515c0,0-39.355,101.25-86.797-0.234c-47.227-101.504-86.641-0.322-86.641-0.322s-39.336,101.455-86.665-0.176
		c-47.212-101.523-86.475,0.684-86.475,0.684s-39.263,101.299-86.626-0.186c-47.217-101.504-86.484-0.4-86.484-0.4"/>
	<path id="path28" fill="none" stroke="#FFFFFF" stroke-width="9" stroke-linecap="round" stroke-miterlimit="1" d="M39.409,323.515
		c0,0,39.37,101.25,86.714-0.234c47.324-101.504,86.738-0.322,86.738-0.322s39.336,101.455,86.563-0.176
		c47.31-101.523,86.46,0.684,86.46,0.684s39.287,101.299,86.533-0.186c47.422-101.504,86.68-0.4,86.68-0.4"/>
	<path id="path30" fill="none" stroke="#231F20" stroke-width="4.5" stroke-linecap="round" stroke-miterlimit="1" d="
		M568.062,323.535c0,0-39.355,101.23-86.621-0.254c-47.227-101.504-86.738-0.322-86.738-0.322s-39.326,101.465-86.558-0.166
		c-47.314-101.533-86.475,0.684-86.475,0.684s-39.268,101.289-86.626-0.195c-47.222-101.504-86.484-0.352-86.484-0.352"/>
	<path id="path32" fill="none" stroke="#231F20" stroke-width="9" stroke-linecap="round" stroke-miterlimit="1" d="M48.56,323.535
		c0,0,39.36,101.23,86.714-0.254c47.227-101.504,86.641-0.322,86.641-0.322s39.341,101.465,86.66-0.166
		c47.222-101.533,86.44,0.684,86.44,0.684s39.297,101.289,86.543-0.195c47.422-101.504,86.504-0.352,86.504-0.352"/>
	<path id="path34" fill="none" stroke="#FFFFFF" stroke-width="4.5" stroke-linecap="round" stroke-miterlimit="1" d="
		M559.097,323.515c0,0-39.355,101.25-86.797-0.234c-47.227-101.504-86.641-0.322-86.641-0.322s-39.336,101.455-86.665-0.176
		c-47.212-101.523-86.475,0.684-86.475,0.684s-39.263,101.299-86.626-0.186c-47.217-101.504-86.484-0.4-86.484-0.4"/>
	<path id="path36" fill="none" stroke="#FFFFFF" stroke-width="9" stroke-linecap="round" stroke-miterlimit="1" d="M39.409,323.515
		c0,0,39.37,101.25,86.714-0.234c47.324-101.504,86.738-0.322,86.738-0.322s39.336,101.455,86.563-0.176
		c47.31-101.523,86.46,0.684,86.46,0.684s39.287,101.299,86.533-0.186c47.422-101.504,86.68-0.4,86.68-0.4"/>
	<path id="path38" fill="none" stroke="#231F20" stroke-width="4.5" stroke-linecap="round" stroke-miterlimit="1" d="
		M568.062,323.535c0,0-39.355,101.23-86.621-0.254c-47.227-101.504-86.738-0.322-86.738-0.322s-39.326,101.465-86.558-0.166
		c-47.314-101.533-86.475,0.684-86.475,0.684s-39.268,101.289-86.626-0.195c-47.222-101.504-86.484-0.352-86.484-0.352"/>
	<path id="path40" fill="none" stroke="#231F20" stroke-width="9" stroke-linecap="round" stroke-miterlimit="1" d="M48.56,323.535
		c0,0,39.36,101.23,86.714-0.254c47.227-101.504,86.641-0.322,86.641-0.322s39.341,101.465,86.66-0.166
		c47.222-101.533,86.44,0.684,86.44,0.684s39.297,101.289,86.543-0.195c47.422-101.504,86.504-0.352,86.504-0.352"/>
	<path id="path42" fill="none" stroke="#FFFFFF" stroke-width="4.5" stroke-linecap="round" stroke-miterlimit="1" d="
		M559.097,323.515c0,0-39.355,101.25-86.797-0.234c-47.227-101.504-86.641-0.322-86.641-0.322s-39.336,101.455-86.665-0.176
		c-47.212-101.523-86.475,0.684-86.475,0.684s-39.263,101.299-86.626-0.186c-47.217-101.504-86.484-0.4-86.484-0.4"/>
	<path id="path44" fill="none" stroke="#FFFFFF" stroke-width="9" stroke-linecap="round" stroke-miterlimit="1" d="M39.409,323.515
		c0,0,39.37,101.25,86.714-0.234c47.324-101.504,86.738-0.322,86.738-0.322s39.336,101.455,86.563-0.176
		c47.31-101.523,86.46,0.684,86.46,0.684s39.287,101.299,86.533-0.186c47.422-101.504,86.68-0.4,86.68-0.4"/>
	<path id="path46" fill="none" stroke="#231F20" stroke-width="2.51" stroke-linecap="round" stroke-miterlimit="1" d="
		M777.476,135.161c0,0-17.051,117.847-27.48,28.735c-10.234-89.023-27.285,28.76-27.285,28.76s-17.09,117.773-27.5,28.809
		c-10.234-89.087-27.285,29.512-27.285,29.512s-17.031,117.871-27.422,28.662c-10.254-88.936-27.285,28.886-27.285,28.886"/>
	<path id="path48" fill="none" stroke="#231F20" stroke-width="5.02" stroke-linecap="round" stroke-miterlimit="1" d="
		M613.179,308.945c0,0,7.813,91.514,27.344-29.345c19.727-120.566,27.5-29.219,27.5-29.219s7.773,91.582,27.305-29.131
		c19.727-120.601,27.402-28.242,27.402-28.242s7.793,91.592,27.305-29.248c19.707-120.566,27.48-29.106,27.48-29.106"/>
	<path id="path50" fill="none" stroke="#FFFFFF" stroke-width="2.51" stroke-linecap="round" stroke-miterlimit="1" d="
		M774.546,138.223c0,0-17.07,117.813-27.5,28.633c-10.195-88.926-27.285,28.867-27.285,28.867S702.71,313.476,692.3,224.512
		c-10.234-89.063-27.305,29.521-27.305,29.521s-17.031,117.871-27.266,28.682c-10.41-88.936-27.422,28.633-27.422,28.633"/>
	<path id="path52" fill="none" stroke="#FFFFFF" stroke-width="5.02" stroke-linecap="round" stroke-miterlimit="1" d="
		M610.269,311.992c0,0,7.793,91.523,27.52-29.336c19.512-120.557,27.305-29.219,27.305-29.219s7.793,91.562,27.5-29.121
		c19.492-120.625,27.227-28.252,27.227-28.252s7.754,91.602,27.48-29.243c19.512-120.576,27.266-29.165,27.266-29.165"/>
	<path id="path54" fill="#FFFFFF" d="M430.679,39.355l-22.383-1.484l73.105-18.706l31.855,24.897l-23.496-1.24l-4.629-0.244
		l-39.375,28.11l-53.516,0.337l42.031-31.372L430.679,39.355"/>
	<path id="path56" fill="#FFFFFF" d="M373.901,150.552l22.383,1.484l-73.008,18.696l-31.948-24.893l23.579,1.24l4.639,0.249
		l39.453-28.11l53.535-0.337l-42.119,31.377L373.901,150.552"/>
	<path id="path58" fill="#FFFFFF" d="M264.956,96.87l-86.602,0.044l25.698-22.085l86.504-0.034l11.87-13.364l40.361,28.535
		l-100.625,28.53L264.956,96.87"/>
	<path id="path60" fill="#FFFFFF" d="M537.183,86.069l86.699-0.044l-25.801,22.085l-86.504,0.044L499.8,121.514l-40.273-28.535
		l100.547-28.535L537.183,86.069"/>
</g>
</svg>
