<?xml version="1.0" encoding="utf-8"?>
<!-- Generator: Adobe Illustrator 16.0.0, SVG Export Plug-In . SVG Version: 6.00 Build 0)  -->
<!DOCTYPE svg PUBLIC "-//W3C//DTD SVG 1.1//EN" "http://www.w3.org/Graphics/SVG/1.1/DTD/svg11.dtd">
<svg version="1.1"
	 id="图层_1" xmlns:dc="http://purl.org/dc/elements/1.1/" xmlns:cc="http://creativecommons.org/ns#" xmlns:rdf="http://www.w3.org/1999/02/22-rdf-syntax-ns#"
	 xmlns="http://www.w3.org/2000/svg" xmlns:xlink="http://www.w3.org/1999/xlink" x="0px" y="0px" width="75px" height="58px"
	 viewBox="0 0 75 58" enable-background="new 0 0 75 58" xml:space="preserve">
<path fill="#00BCF2" d="M2.262,57.656c-0.886-0.412-1.709-1.288-2.042-2.17c-0.226-0.599-0.242-2.688-0.205-26.713L0.056,2.708
	l0.39-0.662c0.48-0.814,0.885-1.197,1.743-1.644l0.662-0.345l34.342-0.038c38.086-0.04,35.234-0.114,36.474,0.947
	c0.354,0.304,0.795,0.882,0.985,1.293L75,3.005v25.99v25.99l-0.348,0.735c-0.424,0.892-1.114,1.574-2.004,1.978
	c-0.66,0.297-0.782,0.299-35.155,0.3L2.998,58L2.262,57.656L2.262,57.656z M67.354,33.183c0-13.573-0.039-16.995-0.186-16.908
	c-0.102,0.061-6.343,4.891-13.868,10.735c-7.526,5.845-13.952,10.806-14.278,11.021c-0.922,0.608-2.003,0.781-3.031,0.481
	c-0.928-0.271,0.384,0.723-18.172-13.755l-10.04-7.834v16.638v16.638h29.788h29.788V33.183L67.354,33.183z M52.689,17.656
	L65.3,7.863L51.176,7.826c-7.77-0.02-20.488-0.02-28.264,0L8.774,7.862L22.863,18.86l14.088,10.997l1.563-1.204
	C39.375,27.99,45.753,23.042,52.689,17.656z"/>
</svg>
