<?xml version="1.0" encoding="utf-8"?>
<!-- Generator: Adobe Illustrator 16.0.0, SVG Export Plug-In . SVG Version: 6.00 Build 0)  -->
<!DOCTYPE svg PUBLIC "-//W3C//DTD SVG 1.1//EN" "http://www.w3.org/Graphics/SVG/1.1/DTD/svg11.dtd">
<svg version="1.1"
	 id="svg2" xmlns:dc="http://purl.org/dc/elements/1.1/" xmlns:cc="http://creativecommons.org/ns#" xmlns:rdf="http://www.w3.org/1999/02/22-rdf-syntax-ns#" xmlns:svg="http://www.w3.org/2000/svg"
	 xmlns="http://www.w3.org/2000/svg" xmlns:xlink="http://www.w3.org/1999/xlink" x="0px" y="0px" width="75px" height="67px"
	 viewBox="0 0 75 67" enable-background="new 0 0 75 67" xml:space="preserve">
<g id="g12" transform="scale(0.1,0.1)">
	<path id="path22" fill="#087FBF" d="M0,670.002h672.456V79.788H0V670.002z"/>
	<path id="path24" fill="none" stroke="#FFFFFF" stroke-width="4" d="M0,670.002h672.456V79.788H0V670.002z"/>
	<path id="path26" fill="#087FBF" d="M77.554,0.002L0,79.788h672.456l77.539-79.785H77.554"/>
	<path id="path28" fill="none" stroke="#FFFFFF" stroke-width="4" d="M77.554,0.002L0,79.788h672.456l77.539-79.785H77.554z"/>
	<path id="path30" fill="#087FBF" d="M749.995,590.051V0.002l-77.539,79.785v590.215L749.995,590.051"/>
	<path id="path32" fill="none" stroke="#FFFFFF" stroke-width="4" d="M749.995,590.051V0.002l-77.539,79.785v590.215
		L749.995,590.051z"/>
	<path id="path34" fill="#087FBF" d="M62.998,623.02h555.161V134.124H62.998V623.02z"/>
	<path id="path36" fill="none" stroke="#FFFFFF" stroke-width="4" d="M62.998,623.02h555.161V134.124H62.998V623.02z"/>
	<path id="path38" fill="none" stroke="#FFFFFF" stroke-width="4" stroke-dasharray="10,10" d="M285.698,333.03l-196.44,65.088"/>
	<path id="path40" fill="#087FBF" d="M376.88,284.172l239.99-89.58v52.9L376.88,284.172"/>
	<path id="path42" fill="none" stroke="#FFFFFF" stroke-width="4" d="M376.88,284.172l239.99-89.58v52.9L376.88,284.172z"/>
	<path id="path44" fill="#087FBF" d="M376.88,284.172l239.99-32.617v52.91L376.88,284.172"/>
	<path id="path46" fill="none" stroke="#FFFFFF" stroke-width="4" d="M376.88,284.172l239.99-32.617v52.91L376.88,284.172"/>
	<path id="path48" fill="#087FBF" d="M376.88,284.172l239.99,20.888v52.725L376.88,284.172"/>
	<path id="path50" fill="none" stroke="#FFFFFF" stroke-width="4" d="M376.88,284.172l239.99,20.888v52.725L376.88,284.172"/>
	<path id="path52" fill="#FFFFFF" d="M519.253,547.571H174.316l172.466-346.103L519.253,547.571"/>
</g>
</svg>
