<?xml version="1.0" encoding="utf-8"?>
<!-- Generator: Adobe Illustrator 16.0.0, SVG Export Plug-In . SVG Version: 6.00 Build 0)  -->
<!DOCTYPE svg PUBLIC "-//W3C//DTD SVG 1.1//EN" "http://www.w3.org/Graphics/SVG/1.1/DTD/svg11.dtd">
<svg version="1.1"
	 id="svg2" xmlns:dc="http://purl.org/dc/elements/1.1/" xmlns:cc="http://creativecommons.org/ns#" xmlns:rdf="http://www.w3.org/1999/02/22-rdf-syntax-ns#" xmlns:svg="http://www.w3.org/2000/svg"
	 xmlns="http://www.w3.org/2000/svg" xmlns:xlink="http://www.w3.org/1999/xlink" x="0px" y="0px" width="78px" height="78px"
	 viewBox="0 0 78 78" enable-background="new 0 0 78 78" xml:space="preserve">
<g id="g12" transform="scale(0.1,0.1)">
	<g id="g14">
		<path id="path22" fill="#087BBB" d="M765.005,159.978c0,79.966-167.92,144.966-375,144.966s-375-65-375-144.966v460.053
			c0,79.961,167.92,144.971,375,144.971s375-65.01,375-144.971V159.978"/>
		<path id="path24" fill="none" stroke="#FFFFFF" stroke-width="3.9999" d="M765.005,159.978c0,79.966-167.92,144.966-375,144.966
			s-375-65-375-144.966v460.053c0,79.961,167.92,144.971,375,144.971s375-65.01,375-144.971V159.978z"/>
		<path id="path26" fill="#087BBB" d="M390.005,304.944c207.08,0,375-65,375-144.966c0-80.122-167.92-144.976-375-144.976
			s-375,64.854-375,144.976C15.005,239.944,182.925,304.944,390.005,304.944"/>
		<path id="path28" fill="none" stroke="#FFFFFF" stroke-width="3.9999" d="M390.005,304.944c207.08,0,375-65,375-144.966
			c0-80.122-167.92-144.976-375-144.976s-375,64.854-375,144.976C15.005,239.944,182.925,304.944,390.005,304.944z"/>
	</g>
	<g id="g66">
		<path id="path74" fill="#FFFFFF" d="M411.362,78.054l118.135-32.212l1.426,50.435l-29.521-5.542l-57.627,47.583l-55.156-8.008
			l59.619-46.538L411.362,78.054"/>
		<path id="path76" fill="#FFFFFF" d="M469.019,215.266l-20.957-47.598l105.508-21.084l-18.35,16.382l176.025,29.922l-42.129,33.491
			l-175.107-32.622L469.019,215.266"/>
		<path id="path78" fill="#FFFFFF" d="M360.64,258.577l-112.549,20.938l-4.307-51.714l32.393,6.992l61.973-52.539l54.873,9.214
			l-66.094,57.266L360.64,258.577"/>
		<path id="path80" fill="#FFFFFF" d="M304.438,103.269l30.938,46.167l-117.095,26.963l25.542-21.206L62.891,124.451l45.508-33.901
			l174.458,29.487L304.438,103.269"/>
		<path id="path88" fill="#FFFFFF" d="M245.483,708.449v-97.256l-58.916,46.748L245.483,708.449"/>
		<path id="path90" fill="#FFFFFF" d="M529.321,334.065v97.119l58.926-46.611L529.321,334.065"/>
		<path id="path94" fill="#FFFFFF" d="M245.483,434.758v-97.119l-58.916,46.601L245.483,434.758"/>
		<path id="path98" fill="none" stroke="#FFFFFF" stroke-width="14.25" d="M567.065,658.762H465.991L328.804,383.498H224.15"/>
		<path id="path100" fill="none" stroke="#FFFFFF" stroke-width="14.25" d="M224.692,658.235h97.793l135.986-273.76h105.977"/>
		<path id="path104" fill="#FFFFFF" d="M529.321,608.967v97.256l58.926-46.748L529.321,608.967"/>
	</g>
</g>
</svg>
