<?xml version="1.0" encoding="utf-8"?>
<!-- Generator: Adobe Illustrator 16.0.0, SVG Export Plug-In . SVG Version: 6.00 Build 0)  -->
<!DOCTYPE svg PUBLIC "-//W3C//DTD SVG 1.1//EN" "http://www.w3.org/Graphics/SVG/1.1/DTD/svg11.dtd">
<svg version="1.1"
	 id="svg2" xmlns:dc="http://purl.org/dc/elements/1.1/" xmlns:cc="http://creativecommons.org/ns#" xmlns:rdf="http://www.w3.org/1999/02/22-rdf-syntax-ns#" xmlns:svg="http://www.w3.org/2000/svg"
	 xmlns="http://www.w3.org/2000/svg" xmlns:xlink="http://www.w3.org/1999/xlink" x="0px" y="0px" width="80px" height="54px"
	 viewBox="0 0 80 54" enable-background="new 0 0 80 54" xml:space="preserve">
<g id="g12" transform="scale(0.1,0.1)">
	<path id="path22" fill="#026C9B" d="M785,160.039c0,82.886-172.305,150.034-385,150.034c-212.705,0-385-67.148-385-150.034v219.917
		c0,82.891,172.295,150.039,385,150.039c212.695,0,385-67.148,385-150.039V160.039"/>
	<path id="path24" fill="none" stroke="#FFFFFF" stroke-width="4" d="M785,160.039c0,82.886-172.305,150.034-385,150.034
		c-212.705,0-385-67.148-385-150.034v219.917c0,82.891,172.295,150.039,385,150.039c212.695,0,385-67.148,385-150.039V160.039z"/>
	<path id="path26" fill="#026C9B" d="M785,160.039c0,82.886-172.305,150.034-385,150.034c-212.705,0-385-67.148-385-150.034v219.917
		c0,82.891,172.295,150.039,385,150.039c212.695,0,385-67.148,385-150.039V160.039"/>
	<path id="path28" fill="none" stroke="#FFFFFF" stroke-width="4" d="M785,160.039c0,82.886-172.305,150.034-385,150.034
		c-212.705,0-385-67.148-385-150.034v219.917c0,82.891,172.295,150.039,385,150.039c212.695,0,385-67.148,385-150.039V160.039z"/>
	<path id="path30" fill="#026C9B" d="M400,310.073c212.695,0,385-67.148,385-150.034C785,77.144,612.695,10,400,10
		C187.295,10,15,77.144,15,160.039C15,242.925,187.295,310.073,400,310.073"/>
	<path id="path32" fill="none" stroke="#FFFFFF" stroke-width="4" d="M400,310.073c212.695,0,385-67.148,385-150.034
		C785,77.144,612.695,10,400,10C187.295,10,15,77.144,15,160.039C15,242.925,187.295,310.073,400,310.073z"/>
	<path id="path34" fill="#026C9B" d="M575.254,205.112l84.082,30.957l-83.525,39.453l-0.078-23.672l-418.906-0.645l-0.869-31.396
		l419.199-1.006L575.254,205.112"/>
	<path id="path36" fill="#FFFFFF" d="M240.156,118.472h19.15c10.947,47.09,12.041,53.096,13.584,62.91h0.137
		c1.699-8.984,2.93-17.715,11.992-62.91h19.072c10.078,47.168,10.869,51.719,12.764,62.91h0.156
		c1.465-8.203,2.92-15.664,14.111-62.91h18.115l-24.121,85.996h-17.227c-8.916-42.207-10.469-50.537-13.223-67.1h-0.293
		c-2.637,16.563-4.111,22.861-13.223,67.1h-16.816L240.156,118.472"/>
	<path id="path38" fill="#FFFFFF" d="M352.91,118.472h19.16c10.957,47.09,12.051,53.096,13.594,62.91h0.137
		c1.68-8.984,2.93-17.715,11.982-62.91h18.926c10.234,47.168,11.035,51.719,12.783,62.91h0.459
		c1.436-8.203,2.92-15.664,13.789-62.91h18.105l-24.092,85.996h-17.246c-8.633-42.207-10.156-50.537-13.066-67.1h-0.42
		c-2.51,16.563-3.975,22.861-13.105,67.1h-16.807L352.91,118.472"/>
	<path id="path40" fill="#FFFFFF" d="M465.537,118.472h19.297c10.811,47.09,12.061,53.096,13.604,62.91h0.137
		c1.543-8.984,2.92-17.715,11.992-62.91h18.906c10.234,47.168,11.045,51.719,12.793,62.91h0.43
		c1.475-8.203,2.627-15.664,13.809-62.91h18.125l-24.111,85.996h-17.246c-8.613-42.207-10.137-50.537-13.076-67.1h-0.439
		c-2.471,16.563-3.945,22.861-13.076,67.1h-16.641L465.537,118.472"/>
</g>
</svg>
