<?xml version="1.0" encoding="utf-8"?>
<!-- Generator: Adobe Illustrator 16.0.0, SVG Export Plug-In . SVG Version: 6.00 Build 0)  -->
<!DOCTYPE svg PUBLIC "-//W3C//DTD SVG 1.1//EN" "http://www.w3.org/Graphics/SVG/1.1/DTD/svg11.dtd">
<svg version="1.1"
	 id="图层_1" xmlns:dc="http://purl.org/dc/elements/1.1/" xmlns:cc="http://creativecommons.org/ns#" xmlns:rdf="http://www.w3.org/1999/02/22-rdf-syntax-ns#"
	 xmlns="http://www.w3.org/2000/svg" xmlns:xlink="http://www.w3.org/1999/xlink" x="0px" y="0px" width="77px" height="48px"
	 viewBox="0 0 77 48" enable-background="new 0 0 77 48" xml:space="preserve">
<path fill="#00BCF2" d="M14.32,47.888c-4.464-0.517-9.113-3.331-11.5-6.961c-2.074-3.154-2.958-6.281-2.802-9.928
	c0.183-4.354,1.609-7.646,4.634-10.705c2.399-2.426,4.455-3.631,7.679-4.5c1.28-0.345,1.761-0.396,3.878-0.398
	c1.991,0,2.631,0.054,3.627,0.318c0.663,0.176,1.313,0.362,1.44,0.412c0.18,0.069,0.349-0.198,0.735-1.161
	C24.973,7.557,31.223,2.275,39.224,0.42c1.682-0.39,6.014-0.552,7.927-0.297C57.677,1.53,65.971,9.721,67.672,20.38
	c0.386,2.427,0.153,6.985-0.465,9.139l-0.142,0.494h0.93c3.444,0.01,6.642,1.99,8.087,5.015c0.764,1.598,0.995,2.776,0.896,4.577
	c-0.209,3.772-2.625,6.802-6.461,8.095c-0.796,0.267-2.013,0.282-27.949,0.3c-14.913,0.01-27.625-0.042-28.25-0.114L14.32,47.888
	L14.32,47.888z M40.188,33.646c0.317-0.086,0.805-0.409,1.097-0.711l0.53-0.544v0.632v0.63h1.132h1.134v-3.865v-3.872h-1.134h-1.132
	v2.479c0,2.332-0.021,2.511-0.35,2.996c-0.289,0.445-0.435,0.522-1.034,0.558c-0.603,0.045-0.739-0.01-1.017-0.356
	c-0.299-0.379-0.319-0.59-0.319-3.044v-2.635h-1.229h-1.225l0.074,2.921c0.045,1.736,0.146,3.103,0.254,3.376
	C37.485,33.507,38.719,34.052,40.188,33.646L40.188,33.646z M57.865,33.484c0.562-0.188,0.567-0.193,0.567-1
	c0-0.439-0.023-0.802-0.061-0.802c-0.028,0-0.301,0.1-0.6,0.227c-0.709,0.3-2.251,0.294-2.834-0.01
	c-0.372-0.195-0.887-0.978-0.887-1.352c0-0.047,1.123-0.078,2.493-0.078h2.491v-1.104c-0.01-2.246-1.286-3.602-3.396-3.602
	c-2.502,0-4.191,2.252-3.736,4.979c0.266,1.554,1.131,2.545,2.541,2.9c0.724,0.181,2.65,0.09,3.425-0.159H57.865z M54.146,28.982
	c-0.151-0.245,0.471-1.334,0.873-1.513c0.499-0.231,0.727-0.233,1.201-0.016c0.41,0.184,0.703,0.713,0.703,1.278
	c0,0.361-0.018,0.372-1.351,0.372C54.827,29.105,54.188,29.048,54.146,28.982L54.146,28.982z M20.649,32.395l0.382-1.176
	l1.962,0.038l1.961,0.046l0.379,1.172l0.38,1.179h1.264c1.241,0,1.261-0.012,1.155-0.345c-0.057-0.185-0.903-2.592-1.879-5.342
	l-1.771-5.008l-1.434-0.044l-1.433-0.042l-1.912,5.274c-1.051,2.899-1.911,5.33-1.911,5.394c0,0.065,0.557,0.104,1.237,0.075
	l1.238-0.039L20.649,32.395L20.649,32.395z M21.572,29.29c0-0.063,0.266-0.929,0.591-1.936c0.325-1,0.64-2.02,0.697-2.274
	c0.097-0.404,0.144-0.317,0.457,0.835c0.193,0.711,0.491,1.695,0.663,2.186c0.467,1.348,0.503,1.308-1.048,1.308
	C22.183,29.408,21.572,29.354,21.572,29.29z M35.469,32.818v-0.834H33.74c-0.95,0-1.756-0.053-1.793-0.117
	c-0.037-0.064,0.739-1.165,1.729-2.452c1.567-2.048,1.793-2.413,1.793-2.921v-0.579h-3.247h-3.247v0.833v0.833h1.737
	c0.954,0,1.735,0.055,1.733,0.118c0,0.064-0.853,1.205-1.887,2.543c-1.529,1.966-1.884,2.517-1.884,2.913v0.497h3.397h3.398
	L35.469,32.818L35.469,32.818z M48.487,31.412c0.041-1.918,0.094-2.306,0.363-2.764c0.421-0.729,0.986-0.981,1.742-0.793l0.592,0.15
	v-1.03c0-1.155-0.172-1.311-1.102-1.043c-0.658,0.184-0.762,0.266-1.222,0.95l-0.4,0.592v-0.777v-0.784h-1.134h-1.133v3.872v3.866
	h1.12h1.12L48.487,31.412L48.487,31.412z"/>
</svg>
