<?xml version="1.0" encoding="utf-8"?>
<!-- Generator: Adobe Illustrator 16.0.0, SVG Export Plug-In . SVG Version: 6.00 Build 0)  -->
<!DOCTYPE svg PUBLIC "-//W3C//DTD SVG 1.1//EN" "http://www.w3.org/Graphics/SVG/1.1/DTD/svg11.dtd">
<svg version="1.1"
	 id="svg2" xmlns:dc="http://purl.org/dc/elements/1.1/" xmlns:cc="http://creativecommons.org/ns#" xmlns:rdf="http://www.w3.org/1999/02/22-rdf-syntax-ns#" xmlns:svg="http://www.w3.org/2000/svg"
	 xmlns="http://www.w3.org/2000/svg" xmlns:xlink="http://www.w3.org/1999/xlink" x="0px" y="0px" width="64px" height="77px"
	 viewBox="0 0 64 77" enable-background="new 0 0 64 77" xml:space="preserve">
<g id="g12" transform="scale(0.1,0.1)">
	<path id="path22" fill="#02709F" d="M167.324,102.256l142.158,254.541c20.01,35.664,7.158,80.703-28.486,100.537
		c-35.547,20.01-80.591,7.256-100.503-28.496L40.762,178.872"/>
	<path id="path24" fill="none" stroke="#FFFFFF" stroke-width="3.9999" d="M167.324,102.256l142.158,254.541
		c20.01,35.664,7.158,80.703-28.486,100.537c-35.547,20.01-80.591,7.256-100.503-28.496L40.762,178.872"/>
	<path id="path26" fill="#02709F" d="M167.324,102.256l142.158,254.541c20.01,35.664,7.158,80.703-28.486,100.537
		c-35.547,20.01-80.591,7.256-100.503-28.496L40.762,178.872"/>
	<path id="path28" fill="none" stroke="#FFFFFF" stroke-width="3.9999" d="M167.324,102.256l142.158,254.541
		c20.01,35.664,7.158,80.703-28.486,100.537c-35.547,20.01-80.591,7.256-100.503-28.496L40.762,178.872"/>
	<path id="path30" fill="#02709F" d="M211.763,770c-108.633,0-196.67-27.607-196.67-61.543c0-33.926,88.037-61.533,196.67-61.533
		c108.647,0,196.772,27.607,196.772,61.533C408.535,742.392,320.41,770,211.763,770"/>
	<path id="path32" fill="none" stroke="#FFFFFF" stroke-width="3.9999" d="M211.763,770c-108.633,0-196.67-27.607-196.67-61.543
		c0-33.926,88.037-61.533,196.67-61.533c108.647,0,196.772,27.607,196.772,61.533C408.535,742.392,320.41,770,211.763,770z"/>
	<path id="path34" fill="#02709F" d="M211.763,693.525c-54.263,0-98.364-13.721-98.364-30.771c0-16.865,44.102-30.615,98.364-30.615
		c54.37,0,98.394,13.75,98.394,30.615C310.156,679.804,266.133,693.525,211.763,693.525"/>
	<path id="path36" fill="none" stroke="#FFFFFF" stroke-width="3.9999" d="M211.763,693.525c-54.263,0-98.364-13.721-98.364-30.771
		c0-16.865,44.102-30.615,98.364-30.615c54.37,0,98.394,13.75,98.394,30.615C310.156,679.804,266.133,693.525,211.763,693.525z"/>
	<path id="path38" d="M169.282,104.702c19.917,35.601-1.523,63.291-37.173,83.208c-35.562,19.917-71.89,24.531-91.812-11.118
		l-25.576-45.771l-3.853-10.093C-9.033,85.278-1.758,27.173,33.896,7.261c35.645-19.902,82.778,3.711,102.695,39.341l4.609,7.847
		L169.282,104.702"/>
	<path id="path40" fill="none" stroke="#FFFFFF" stroke-width="3.9999" d="M169.282,104.702
		c19.917,35.601-1.523,63.291-37.173,83.208c-35.562,19.917-71.89,24.531-91.812-11.118l-25.576-45.771l-3.853-10.093
		C-9.033,85.278-1.758,27.173,33.896,7.261c35.645-19.902,82.778,3.711,102.695,39.341l4.609,7.847L169.282,104.702z"/>
	<path id="path42" fill="#02709F" d="M169.282,104.702c19.917,35.601-1.523,63.291-37.173,83.208
		c-35.562,19.917-71.89,24.531-91.812-11.118l-25.576-45.771l-3.853-10.093C-9.033,85.278-1.758,27.173,33.896,7.261
		c35.645-19.902,82.778,3.711,102.695,39.341l4.609,7.847L169.282,104.702"/>
	<path id="path44" fill="none" stroke="#FFFFFF" stroke-width="3.9999" d="M169.282,104.702
		c19.917,35.601-1.523,63.291-37.173,83.208c-35.562,19.917-71.89,24.531-91.812-11.118l-25.576-45.771l-3.853-10.093
		C-9.033,85.278-1.758,27.173,33.896,7.261c35.645-19.902,82.778,3.711,102.695,39.341l4.609,7.847L169.282,104.702z"/>
	<path id="path46" fill="#02709F" d="M211.763,675.918c-12.012,0-21.758-9.736-21.758-21.758V304.131
		c0-12.012,9.746-21.768,21.758-21.768s21.748,9.756,21.748,21.768V654.16C233.511,666.181,223.774,675.918,211.763,675.918"/>
	<path id="path48" fill="none" stroke="#FFFFFF" stroke-width="3.9999" d="M211.763,675.918c-12.012,0-21.758-9.736-21.758-21.758
		V304.131c0-12.012,9.746-21.768,21.758-21.768s21.748,9.756,21.748,21.768V654.16C233.511,666.181,223.774,675.918,211.763,675.918
		z"/>
	<path id="path50" fill="#02709F" d="M217.246,343.525c12.729,0,23.027-10.386,23.027-23.14c0-12.734-10.298-23.003-23.027-23.003
		s-23.105,10.273-23.105,23.003C194.141,333.145,204.517,343.525,217.246,343.525"/>
	<path id="path52" fill="none" stroke="#FFFFFF" stroke-width="3.9999" d="M217.246,343.525c12.729,0,23.027-10.386,23.027-23.14
		c0-12.734-10.298-23.003-23.027-23.003s-23.105,10.273-23.105,23.003C194.141,333.145,204.517,343.525,217.246,343.525z"/>
	<path id="path54" fill="none" stroke="#FFFFFF" stroke-width="3.9999" d="M171.479,106.855
		c19.917,35.645-1.523,63.315-37.173,83.242c-35.645,19.883-71.895,24.546-91.821-11.123"/>
	<path id="path56" fill="none" stroke="#FFFFFF" stroke-width="3" d="M160.596,87.275c19.927,35.659-1.514,63.33-37.163,83.262
		c-35.63,19.854-71.899,24.541-91.816-11.123"/>
	<path id="path58" fill="none" stroke="#FFFFFF" stroke-width="3" d="M149.365,75.439c19.131,34.209-1.475,60.703-35.669,79.839
		c-34.185,19.121-69.023,23.604-88.13-10.61"/>
	<path id="path60" fill="none" stroke="#FFFFFF" stroke-width="3" d="M139.585,59.092c19.136,34.209-1.47,60.781-35.669,79.917
		c-34.18,19.126-69.023,23.525-88.145-10.693"/>
	<path id="path62" fill="none" stroke="#FFFFFF" stroke-width="3" d="M130.908,41.709c19.131,34.219-1.47,60.791-35.674,79.854
		C61.04,140.674,26.162,145.146,7.08,110.928"/>
	<path id="path64" fill="none" stroke="#FFFFFF" stroke-width="3" d="M120.762,27.539c18.379,32.881-1.431,58.33-34.229,76.67
		c-32.822,18.359-66.299,22.632-84.639-10.195"/>
	<path id="path66" fill="none" stroke="#FFFFFF" stroke-width="3" d="M104.912,19.077c15.752,28.159-1.177,50.015-29.326,65.757
		c-28.164,15.684-56.909,19.346-72.598-8.818"/>
	<path id="path68" fill="none" stroke="#FFFFFF" stroke-width="3" d="M88.916,9.473c13.408,23.955-0.972,42.5-24.937,55.889
		C40.034,78.726,15.635,81.875,2.3,57.91"/>
	<path id="path70" fill="none" stroke="#02709F" stroke-width="3.9999" d="M283.506,443.506
		c13.281,60.293,13.486,152.763,78.643,179.082c18.867,7.617,40.996,3.994,60.029,11.113
		c45.225,16.416,64.561,63.408,101.396,93.203c33.242,26.787,78.301,23.594,116.426,9.902"/>
</g>
</svg>
