<?xml version="1.0" encoding="utf-8"?>
<!-- Generator: Adobe Illustrator 16.0.0, SVG Export Plug-In . SVG Version: 6.00 Build 0)  -->
<!DOCTYPE svg PUBLIC "-//W3C//DTD SVG 1.1//EN" "http://www.w3.org/Graphics/SVG/1.1/DTD/svg11.dtd">
<svg version="1.1"
	 id="svg2" xmlns:dc="http://purl.org/dc/elements/1.1/" xmlns:cc="http://creativecommons.org/ns#" xmlns:rdf="http://www.w3.org/1999/02/22-rdf-syntax-ns#" xmlns:svg="http://www.w3.org/2000/svg"
	 xmlns="http://www.w3.org/2000/svg" xmlns:xlink="http://www.w3.org/1999/xlink" x="0px" y="0px" width="75px" height="67px"
	 viewBox="0 0 75 67" enable-background="new 0 0 75 67" xml:space="preserve">
<g id="g12" transform="scale(0.1,0.1)">
	<path id="path22" fill="#02709F" d="M0,670.005h645.327V104.624H0V670.005z"/>
	<path id="path24" fill="none" stroke="#FFFFFF" stroke-width="3.9999" d="M0,670.005h645.327V104.624H0V670.005z"/>
	<path id="path26" fill="#02709F" d="M645.327,670.005l104.668-104.844V-0.005H104.668L0,104.624h645.327V670.005"/>
	<path id="path28" fill="none" stroke="#FFFFFF" stroke-width="3.9999" d="M645.327,670.005l104.668-104.844V-0.005H104.668
		L0,104.624h645.327V670.005z"/>
	<path id="path30" fill="#02709F" d="M645.327,104.624L749.995-0.005"/>
	<path id="path32" fill="none" stroke="#FFFFFF" stroke-width="3.9999" d="M645.327,104.624L749.995-0.005"/>
	<path id="path34" fill="#02709F" d="M438.726,670.005V104.624"/>
	<path id="path36" fill="none" stroke="#FFFFFF" stroke-width="3.9999" d="M438.726,670.005V104.624"/>
	<path id="path38" fill="#02709F" d="M645.327,247.563H0"/>
	<path id="path40" fill="none" stroke="#FFFFFF" stroke-width="3.9999" d="M645.327,247.563H0"/>
	<path id="path42" fill="#02709F" d="M219.37,670.005V104.624"/>
	<path id="path44" fill="none" stroke="#FFFFFF" stroke-width="3.9999" d="M219.37,670.005V104.624"/>
</g>
</svg>
