<?xml version="1.0" encoding="utf-8"?>
<!-- Generator: Adobe Illustrator 16.0.0, SVG Export Plug-In . SVG Version: 6.00 Build 0)  -->
<!DOCTYPE svg PUBLIC "-//W3C//DTD SVG 1.1//EN" "http://www.w3.org/Graphics/SVG/1.1/DTD/svg11.dtd">
<svg version="1.1" id="图层_1" xmlns="http://www.w3.org/2000/svg" xmlns:xlink="http://www.w3.org/1999/xlink" x="0px" y="0px"
	 width="512px" height="512px" viewBox="0 0 512 512" enable-background="new 0 0 512 512" xml:space="preserve">
<g>
	<path fill="#C8F280" d="M500.096,101.334c-10.875-62.73-25.877-77.632-89.513-88.809c-40.478-7.149-97.67-11.177-156.774-11.177
		c-58.602,0-112.773,3.826-152.646,10.774C38.434,22.997,23.431,38.1,12.355,101.635c-14.701,84.177-15.003,225.849-0.504,309.42
		c10.875,62.73,25.877,77.632,89.513,88.809c40.578,7.148,97.871,11.177,157.177,11.177c58.501,0,112.672-3.826,152.344-10.572
		c62.73-10.975,77.733-25.978,88.81-89.614C514.393,326.578,514.595,184.907,500.096,101.334 M484.186,408.036
		c-9.968,56.99-19.836,67.059-76.021,76.826c-38.866,6.746-92.03,10.472-149.625,10.472c-58.4,0-114.686-4.027-154.458-10.975
		c-57.091-9.969-67.059-19.937-76.827-76.021c-14.197-82.062-13.996-221.316,0.504-304.084
		c9.968-56.991,19.937-67.059,76.021-76.827c38.967-6.746,92.232-10.471,150.028-10.471c58.299,0,114.484,4.027,153.955,10.975
		c56.991,9.968,67.06,19.937,76.826,76.021C498.887,186.015,498.685,325.269,484.186,408.036"/>
	<path fill="#C8F280" d="M368.997,238.877c-9.063,0-20.541,7.35-20.541,16.412v81.156H140.23c-9.062,0-16.412,16.109-16.412,25.172
		v47.525l32.825-32.824H373.63c9.063,0,15.506-16.11,15.506-25.172v-95.857C389.236,246.227,378.059,238.877,368.997,238.877"/>
	<path fill="#C8F280" d="M205.779,240.085c9.064,0,16.412,7.348,16.412,16.412c0,9.063-7.348,16.412-16.412,16.412
		s-16.412-7.349-16.412-16.412C189.367,247.433,196.715,240.085,205.779,240.085"/>
	<path fill="#C8F280" d="M373.629,134.662h-233.4c-9.062,0-20.138,7.35-20.138,16.412v104.214
		c-0.001,9.063,11.075,16.312,20.138,16.312c9.062,0,20.541-7.35,20.541-16.412v-80.25h212.859c9.063,0,16.412-10.673,16.412-19.735
		S382.691,134.662,373.629,134.662"/>
	<path fill="#C8F280" d="M252.901,240.085c9.064,0,16.412,7.348,16.412,16.412c0,9.063-7.348,16.412-16.412,16.412
		s-16.412-7.349-16.412-16.412C236.489,247.433,243.837,240.085,252.901,240.085"/>
	<path fill="#C8F280" d="M300.326,240.085c9.063,0,16.412,7.348,16.412,16.412c0,9.063-7.349,16.412-16.412,16.412
		c-9.064,0-16.412-7.349-16.412-16.412C283.914,247.433,291.262,240.085,300.326,240.085"/>
</g>
</svg>
