<?xml version="1.0" encoding="utf-8"?>
<!-- Generator: Adobe Illustrator 16.0.0, SVG Export Plug-In . SVG Version: 6.00 Build 0)  -->
<!DOCTYPE svg PUBLIC "-//W3C//DTD SVG 1.1//EN" "http://www.w3.org/Graphics/SVG/1.1/DTD/svg11.dtd">
<svg version="1.1" id="图层_1" xmlns="http://www.w3.org/2000/svg" xmlns:xlink="http://www.w3.org/1999/xlink" x="0px" y="0px"
	 width="65px" height="79px" viewBox="0 0 65 79" enable-background="new 0 0 65 79" xml:space="preserve">
<g id="Layer_1">
	<polygon fill="#CFB2C1" points="32.309,43.142 27.996,42.951 0,44.104 4.219,64.621 	"/>
	<polygon fill="#CFB2C1" points="65,44.199 59.633,44.004 49.948,44.771 55.701,67.303 	"/>
	<polygon fill="#512843" points="65,34.898 32.693,36.239 0.096,34.898 32.596,0 	"/>
	<polygon fill="#AD688B" points="32.309,43.142 4.219,44.581 4.219,64.621 32.309,58.1 	"/>
	<polygon fill="#CFB2C1" points="49.759,43.43 43.622,43.142 9.205,45.059 15.054,70.181 	"/>
	<polygon fill="#AD688B" points="65,34.898 32.596,31.638 32.596,0 65,16.299 	"/>
	<polygon fill="#692F56" points="0.096,34.898 32.596,31.638 32.596,0 0.096,16.299 	"/>
	<polygon fill="#692F56" points="4.219,44.581 0,44.104 0,62.509 4.219,64.621 	"/>
	<polygon fill="#AD688B" points="49.759,59.345 15.054,70.181 15.054,45.639 49.759,43.43 	"/>
	<polygon fill="#692F56" points="9.205,45.059 15.054,45.639 15.054,70.181 9.205,67.112 	"/>
	<polygon fill="#AD688B" points="65,44.199 65,62.604 55.701,67.303 55.701,45.155 	"/>
	<polygon fill="#692F56" points="49.948,65.578 55.701,67.303 55.701,45.155 49.948,44.771 	"/>
	<polygon fill="#CFB2C1" points="49.759,45.732 39.979,45.059 22.912,46.402 32.596,79 	"/>
	<polygon fill="#AD688B" points="49.759,45.732 49.759,70.275 32.596,79 32.596,47.457 	"/>
	<polygon fill="#692F56" points="22.912,46.402 32.596,47.457 32.596,79 22.912,74.111 	"/>
</g>
</svg>
