<?xml version="1.0" encoding="utf-8"?>
<!-- Generator: Adobe Illustrator 16.0.0, SVG Export Plug-In . SVG Version: 6.00 Build 0)  -->
<!DOCTYPE svg PUBLIC "-//W3C//DTD SVG 1.1//EN" "http://www.w3.org/Graphics/SVG/1.1/DTD/svg11.dtd">
<svg version="1.1" id="图层_1" xmlns="http://www.w3.org/2000/svg" xmlns:xlink="http://www.w3.org/1999/xlink" x="0px" y="0px"
	 width="77px" height="48px" viewBox="0 0 77 48" enable-background="new 0 0 77 48" xml:space="preserve">
<g id="Layer_1">
	<g>
		<rect x="6.617" y="36" fill="#692F56" width="70.383" height="12"/>
	</g>
	<g>
		<rect x="6.617" y="22.286" fill="#692F56" width="70.383" height="10.885"/>
	</g>
	<g>
		<polygon fill="#692F56" points="77,16.457 77,18.601 15.21,18.601 15.21,16.457 50.789,4.8 		"/>
	</g>
	<g>
		<g>
			<path id="SVGID_3_" fill="#692F56" d="M31.454,9.515L19.25,9.942c0-1.457-0.258-2.915-0.859-4.286V3.515
				c0.258,0.685,11.258,2.742,11.258,2.742L31.454,9.515z"/>
		</g>
		<g>
			<g>
				<defs>
					<path id="SVGID_1_" d="M31.454,9.515L19.25,9.942c0-1.457-0.258-2.915-0.859-4.286V3.515
						c0.258,0.685,11.258,2.742,11.258,2.742L31.454,9.515z"/>
				</defs>
				<clipPath id="SVGID_2_">
					<use xlink:href="#SVGID_1_"  overflow="visible"/>
				</clipPath>
				<g clip-path="url(#SVGID_2_)">
					<path fill="#692F56" d="M19.25,7.801v2.143c0-1.457-0.258-2.915-0.859-4.286V3.516C18.906,4.886,19.25,6.342,19.25,7.801"/>
				</g>
			</g>
		</g>
	</g>
	<g>
		<path fill="#AD688B" d="M77,3.6v12.857H15.21c2.493-2.057,4.04-5.142,4.04-8.657c0-1.458-0.258-2.915-0.859-4.201L77,3.6L77,3.6z"
			/>
	</g>
	<g>
		<path fill="#AD688B" d="M6.617,20.228H77v10.715H6.617V20.228z"/>
	</g>
	<g>
		<path fill="#AD688B" d="M6.617,35.144H77v10.712H6.617V35.144z"/>
	</g>
	<g>
		<path fill="#FFFFFF" d="M37.813,5.485v1.372h-3.18v2.058h3.008v1.457h-2.922v2.314h3.266v1.457h-5.07V5.484L37.813,5.485
			L37.813,5.485z"/>
		<path fill="#FFFFFF" d="M38.758,7.628h1.633v0.687l0,0c0.43-0.6,0.945-0.857,1.719-0.857s1.375,0.343,1.549,1.028l0,0
			c0.256-0.685,0.857-1.028,1.717-1.028c1.117,0,1.634,0.686,1.634,1.971v4.8h-1.72V9.601c0-0.514-0.172-0.857-0.688-0.857
			s-0.859,0.342-0.859,1.114v4.286h-1.719V9.516c0-0.515-0.17-0.857-0.688-0.857c-0.516,0-0.86,0.343-0.86,1.114v4.285h-1.718V7.628
			z"/>
		<path fill="#FFFFFF" d="M48.125,9.601V9.428c0-1.542,1.032-2.057,2.322-2.057c2.061,0,2.406,0.856,2.406,1.971v3.43
			c0,0.6,0,0.856,0.17,1.285h-1.633c-0.086-0.171-0.172-0.428-0.172-0.685l0,0c-0.43,0.685-0.859,0.856-1.72,0.856
			c-1.202,0-1.631-1.027-1.631-1.886c0-1.199,0.514-1.714,1.631-2.058l0.948-0.257c0.516-0.17,0.686-0.343,0.686-0.771
			c0-0.514-0.256-0.771-0.773-0.771c-0.516,0-0.773,0.343-0.773,0.857v0.173h-1.461V9.601z M51.219,10.885
			c-0.256,0.171-0.516,0.257-0.688,0.342c-0.688,0.171-0.945,0.515-0.945,1.029c0,0.514,0.172,0.943,0.601,0.943
			c0.43,0,1.032-0.257,1.032-1.028V10.885z"/>
		<path fill="#FFFFFF" d="M54.141,5.314h1.72v1.457h-1.72V5.314z M54.141,7.628h1.72v6.599h-1.72V7.628z"/>
		<path fill="#FFFFFF" d="M57.063,5.485h1.719v8.743h-1.719V5.485z"/>
	</g>
	<path fill="#8D090A" d="M15.813,10.028c0,4.372-3.523,7.887-7.907,7.887C3.524,17.915,0,14.4,0,10.028V7.886l7.906-5.828
		l7.907,5.828V10.028z"/>
	<ellipse fill="#EA2227" cx="7.906" cy="7.886" rx="7.907" ry="7.886"/>
	<rect x="8.938" y="22.543" fill="#FFFFFF" width="65.828" height="6.171"/>
	<rect x="8.938" y="37.371" fill="#FFFFFF" width="65.828" height="6.173"/>
</g>
</svg>
