<?xml version="1.0" encoding="utf-8"?>
<!-- Generator: Adobe Illustrator 16.0.0, SVG Export Plug-In . SVG Version: 6.00 Build 0)  -->
<!DOCTYPE svg PUBLIC "-//W3C//DTD SVG 1.1//EN" "http://www.w3.org/Graphics/SVG/1.1/DTD/svg11.dtd">
<svg version="1.1" id="图层_1" xmlns="http://www.w3.org/2000/svg" xmlns:xlink="http://www.w3.org/1999/xlink" x="0px" y="0px"
	 width="75px" height="75px" viewBox="0 0 75 75" enable-background="new 0 0 75 75" xml:space="preserve">
<g id="Layer_1">
	<polygon fill="#875078" points="28.998,67.805 21.257,65.625 13.954,57.34 22.129,57.994 	"/>
	<polygon fill="#AD688B" points="28.998,67.805 34.557,56.25 29.324,55.486 22.129,57.994 	"/>
	<polygon fill="#875078" points="11.119,62.354 6.759,61.155 1.962,55.596 7.086,56.469 	"/>
	<polygon fill="#AD688B" points="11.119,62.354 14.281,55.813 11.337,55.378 7.086,56.469 	"/>
	<polygon fill="#692F56" points="0.109,55.813 4.579,56.795 26.272,37.827 4.579,16.679 0.109,18.859 	"/>
	<polygon fill="#AD688B" points="21.693,20.385 21.693,55.16 4.579,56.795 4.579,16.679 	"/>
	<polygon fill="#692F56" points="10.029,57.886 17.66,59.411 38.698,35.102 17.66,10.029 10.029,13.844 	"/>
	<polygon fill="#AD688B" points="61.046,23.874 61.046,53.852 17.66,59.411 17.66,10.029 	"/>
	<polygon fill="#875078" points="53.198,75 42.297,71.839 31.831,60.065 43.496,61.046 	"/>
	<polygon fill="#AD688B" points="53.198,75 61.046,58.539 53.743,57.449 43.496,61.046 	"/>
	<polygon fill="#692F56" points="26.272,61.046 37.5,63.227 52.653,31.613 37.5,0 26.272,5.668 	"/>
	<polygon fill="#AD688B" points="37.5,63.227 74.891,55.705 74.891,18.75 37.5,0 	"/>
</g>
</svg>
