<?xml version="1.0" encoding="utf-8"?>
<!-- Generator: Adobe Illustrator 16.0.0, SVG Export Plug-In . SVG Version: 6.00 Build 0)  -->
<!DOCTYPE svg PUBLIC "-//W3C//DTD SVG 1.1//EN" "http://www.w3.org/Graphics/SVG/1.1/DTD/svg11.dtd">
<svg version="1.1" id="图层_1" xmlns="http://www.w3.org/2000/svg" xmlns:xlink="http://www.w3.org/1999/xlink" x="0px" y="0px"
	 width="75px" height="75px" viewBox="0 0 75 75" enable-background="new 0 0 75 75" xml:space="preserve">
<g id="Layer_1">
	<polygon fill="#512843" points="1.002,25.667 60.346,11.56 60.346,24.12 8.283,27.306 	"/>
	<polygon fill="#CFB2C1" points="30.856,42.779 68.174,59.617 73.998,46.329 37.955,41.869 	"/>
	<polygon fill="#692F56" points="30.856,42.779 68.174,48.149 68.174,59.617 30.856,50.607 	"/>
	<polygon fill="#CFB2C1" points="18.387,44.326 56.25,65.625 64.441,49.242 26.942,43.234 	"/>
	<polygon fill="#AD688B" points="64.441,49.242 56.25,51.698 56.25,65.625 64.441,61.529 	"/>
	<polygon fill="#AD688B" points="73.998,46.329 68.174,48.149 68.174,59.617 73.998,56.705 	"/>
	<polygon fill="#692F56" points="18.387,44.326 56.25,51.698 56.25,65.625 18.387,53.246 	"/>
	<polygon fill="#CFB2C1" points="1.002,46.329 37.5,75 50.607,53.338 12.562,44.872 	"/>
	<polygon fill="#875078" points="1.002,15.473 48.513,4.187 48.422,0 2.185,14.472 	"/>
	<polygon fill="#875078" points="57.16,12.106 73.998,9.193 73.998,5.006 57.16,8.465 	"/>
	<polygon fill="#AD688B" points="73.998,30.856 37.5,30.856 5.006,35.225 37.5,48.24 73.998,41.05 	"/>
	<polygon fill="#692F56" points="1.002,30.856 37.5,30.856 37.5,48.24 1.002,41.05 	"/>
	<polygon fill="#692F56" points="1.002,25.667 37.5,22.118 52.7,9.83 37.5,4.642 1.002,15.473 	"/>
	<polygon fill="#AD688B" points="50.607,53.338 37.5,57.251 37.5,75 50.607,68.446 	"/>
	<polygon fill="#692F56" points="1.002,46.329 37.5,57.251 37.5,75 1.002,56.705 	"/>
	<polygon fill="#AD688B" points="37.5,22.118 37.5,4.642 48.422,0 60.346,11.104 73.998,5.006 73.998,15.473 60.346,24.12 
		48.332,15.109 	"/>
</g>
<g id="Layer_2">
	<line fill="none" x1="37.5" y1="75" x2="73.998" y2="56.705"/>
</g>
</svg>
