<?xml version="1.0" encoding="utf-8"?>
<!-- Generator: Adobe Illustrator 16.0.0, SVG Export Plug-In . SVG Version: 6.00 Build 0)  -->
<!DOCTYPE svg PUBLIC "-//W3C//DTD SVG 1.1//EN" "http://www.w3.org/Graphics/SVG/1.1/DTD/svg11.dtd">
<svg version="1.1"
	 id="图层_1" xmlns:dc="http://purl.org/dc/elements/1.1/" xmlns:cc="http://creativecommons.org/ns#" xmlns:rdf="http://www.w3.org/1999/02/22-rdf-syntax-ns#"
	 xmlns="http://www.w3.org/2000/svg" xmlns:xlink="http://www.w3.org/1999/xlink" x="0px" y="0px" width="52px" height="77px"
	 viewBox="0 0 52 77" enable-background="new 0 0 52 77" xml:space="preserve">
<path fill="#00BCF2" d="M4.354,0C1.936,0,0,1.936,0,4.357v68.221C0,74.998,1.936,77,4.354,77h43.29C50.063,77,52,74.999,52,72.578
	V4.357C52,1.936,50.063,0,47.645,0H4.354z M16.64,4.164H35.36v2.081H16.64V4.164z M4.16,10.406h43.68v54.107H4.16V10.406z
	 M25.87,25.494l-11.309,5.723l11.309,6.763l11.569-6.763L25.87,25.494z M14.561,33.298v12.486l10.399,6.243V39.543L14.561,33.298
	L14.561,33.298z M37.439,33.361l-10.401,6.245v12.487l10.401-6.243V33.361L37.439,33.361z M18.719,68.676h14.559v4.164H18.719
	V68.676z"/>
</svg>
