<?xml version="1.0" encoding="utf-8"?>
<!-- Generator: Adobe Illustrator 16.0.0, SVG Export Plug-In . SVG Version: 6.00 Build 0)  -->
<!DOCTYPE svg PUBLIC "-//W3C//DTD SVG 1.1//EN" "http://www.w3.org/Graphics/SVG/1.1/DTD/svg11.dtd">
<svg version="1.1"
	 id="svg2" xmlns:dc="http://purl.org/dc/elements/1.1/" xmlns:cc="http://creativecommons.org/ns#" xmlns:rdf="http://www.w3.org/1999/02/22-rdf-syntax-ns#" xmlns:svg="http://www.w3.org/2000/svg"
	 xmlns="http://www.w3.org/2000/svg" xmlns:xlink="http://www.w3.org/1999/xlink" x="0px" y="0px" width="78px" height="70px"
	 viewBox="0 0 78 70" enable-background="new 0 0 78 70" xml:space="preserve">
<g id="g12" transform="scale(0.1,0.1)">
	<path id="path14" fill="none" stroke="#1089C2" stroke-width="8" stroke-linecap="round" stroke-linejoin="round" d="
		M14.998,395.422h230.645"/>
	<path id="path16" fill="none" stroke="#1089C2" stroke-width="8" stroke-linecap="round" stroke-linejoin="round" d="
		M88.928,461.711h153.77"/>
	<path id="path18" fill="none" stroke="#1089C2" stroke-width="8" stroke-linecap="round" stroke-linejoin="round" d="
		M245.642,301.145H118.518"/>
	<path id="path20" fill="none" stroke="#1089C2" stroke-width="8" stroke-linecap="round" stroke-linejoin="round" d="
		M59.333,361.624h183.364"/>
	<path id="path22" fill="none" stroke="#1089C2" stroke-width="8" stroke-linecap="round" stroke-linejoin="round" d="
		M609.128,682.336H264.304l150.82-91.25l349.873-0.732L609.128,682.336z"/>
	<path id="path24" fill="none" stroke="#1089C2" stroke-width="8" stroke-linecap="round" stroke-linejoin="round" d="
		M415.125,591.086l-150.82,91.25l-0.166-578.452L415.144,16.16L415.125,591.086z"/>
	<path id="path26" fill="none" stroke="#1089C2" stroke-width="8" stroke-linecap="round" stroke-linejoin="round" d="
		M609.089,103.884H264.138L415.144,16.16l349.717-1.157L609.089,103.884z"/>
	<path id="path28" fill="none" stroke="#1089C2" stroke-width="8" stroke-linecap="round" stroke-linejoin="round" d="
		M609.128,685.002H264.304l-0.166-581.118h344.951L609.128,685.002z"/>
	<path id="path30" fill="none" stroke="#231F20" stroke-width="8.8" stroke-linecap="round" stroke-linejoin="round" d="
		M764.998,590.354l-155.869,91.982l-0.039-578.452l155.771-88.882L764.998,590.354z"/>
	<path id="path32" fill="none" stroke="#1089C2" stroke-width="8" stroke-linecap="round" stroke-linejoin="round" d="
		M764.998,590.354l-155.869,91.982l-0.039-578.452l155.771-88.882L764.998,590.354z"/>
	<path id="path34" fill="none" stroke="#1089C2" stroke-width="8" stroke-linecap="round" stroke-linejoin="round" d="
		M764.998,590.354l-155.869,91.982l-0.039-578.452l155.771-88.882L764.998,590.354z"/>
	<path id="path36" fill="none" stroke="#FFFFFF" stroke-width="2.3" stroke-linejoin="round" d="M575.535,134.578
		c0,0-6.836-2.08-12.764-3.672c-5.264-1.479-12.568-3.34-12.568-3.34"/>
	<path id="path38" fill="#1089C2" d="M573.298,354.885c4.863-17.354,24.766-103.906,25.586-115.962
		c0.83-11.943-3.594-27.144-9.854-30.186c0.234-4.331,0.313-6.67,0.313-6.67c-1.543-0.674-3.096-1.338-4.639-1.885l0.361,0.137
		c0,0,4.746-19.36,7.256-32.715c5.068-25.698,6.572-33.472,6.572-33.472c-0.068-3.56-0.938-6.733-4.072-7.588l-15.078-4.092
		c-3.154-0.977-5.361,1.113-7.451,4.199c0,0-5.811,12.007-14.004,36.455c-4.385,12.9-9.551,23.945-9.551,23.945l0.146,0.078
		c-8.887-2.92-18.047-5.615-27.1-8.149c-23.32-6.494-46.66-11.387-69.766-14.961c0,0-1.25,2.129-3.271,6.055
		c-6.914-0.693-18.525,9.99-24.082,20.728c-5.303,10.83-32.49,95.342-37.256,112.627c-4.766,17.305-13.965,61.357-18.027,83.291
		c-4.18,21.973-7.832,60.186-21.865,111.328c-8.33,30.098-21.689,74.912-28.809,93.496c-1.826,4.951-16.514,29.863,4.902,38.418
		c20.967,8.252,52.178,17.178,67.939,21.543c15.879,4.385,47.305,12.637,69.502,16.279c22.656,3.691,22.754-25.117,23.623-30.254
		c3.574-19.697,15.098-65.117,23.32-95.205c14.014-50.938,30.557-85.791,38.174-106.611
		C553.982,414.68,568.64,372.131,573.298,354.885"/>
	<path id="path40" fill="#1089C2" d="M550.251,357.219c4.648-17.285,24.551-103.838,25.586-115.913
		c0.84-12.041-3.613-27.144-10.059-30.146c0.234-4.37,0.508-6.812,0.508-6.812c-1.768-0.669-3.311-1.196-4.844-1.86l0.557,0.107
		c0,0,4.541-19.214,7.266-32.686c5.068-25.718,6.572-33.486,6.572-33.486c-0.059-3.574-1.133-6.621-4.307-7.573l-15.029-4.111
		c-3.184-0.85-5.361,1.133-7.48,4.316c0,0-5.791,11.899-14.004,36.328c-4.385,12.91-9.561,23.965-9.561,23.965l0.156,0.176
		c-8.867-2.92-17.822-5.713-27.09-8.262c-23.32-6.372-46.455-11.372-69.775-14.849c0,0-1.25,2.031-3.037,5.947
		c-7.129-0.693-18.74,9.99-24.082,20.835c-5.43,10.728-32.617,95.225-37.383,112.627c-4.766,17.324-14.063,61.25-18.125,83.213
		c-4.063,21.943-7.734,60.166-21.777,111.328c-8.32,30.078-21.787,74.893-28.77,93.691c-1.855,4.746-16.533,29.648,4.785,38.223
		c21.074,8.213,52.266,17.158,68.047,21.514c15.762,4.385,47.168,12.852,69.385,16.299c22.656,3.906,22.754-25.137,23.828-30.273
		c3.584-19.668,14.883-65.107,23.105-95.205c14.238-50.928,30.566-85.586,38.389-106.602
		C530.72,417.199,545.369,374.641,550.251,357.219"/>
	<path id="path42" fill="none" stroke="#FFFFFF" stroke-width="3.5" d="M550.251,357.219
		c4.648-17.285,24.551-103.838,25.586-115.913c0.84-12.041-3.613-27.144-10.059-30.146c0.234-4.37,0.508-6.812,0.508-6.812
		c-1.768-0.669-3.311-1.196-4.844-1.86l0.557,0.107c0,0,4.541-19.214,7.266-32.686c5.068-25.718,6.572-33.486,6.572-33.486
		c-0.059-3.574-1.133-6.621-4.307-7.573l-15.029-4.111c-3.184-0.85-5.361,1.133-7.48,4.316c0,0-5.791,11.899-14.004,36.328
		c-4.385,12.91-9.561,23.965-9.561,23.965l0.156,0.176c-8.867-2.92-17.822-5.713-27.09-8.262
		c-23.32-6.372-46.455-11.372-69.775-14.849c0,0-1.25,2.031-3.037,5.947c-7.129-0.693-18.74,9.99-24.082,20.835
		c-5.43,10.728-32.617,95.225-37.383,112.627c-4.766,17.324-14.063,61.25-18.125,83.213c-4.063,21.943-7.734,60.166-21.777,111.328
		c-8.32,30.078-21.787,74.893-28.77,93.691c-1.855,4.746-16.533,29.648,4.785,38.223c21.074,8.213,52.266,17.158,68.047,21.514
		c15.762,4.385,47.168,12.852,69.385,16.299c22.656,3.906,22.754-25.137,23.828-30.273c3.584-19.668,14.883-65.107,23.105-95.205
		c14.238-50.928,30.566-85.586,38.389-106.602C530.72,417.199,545.369,374.641,550.251,357.219z"/>
	<path id="path44" fill="none" stroke="#FFFFFF" stroke-width="2.3" stroke-linejoin="round" d="M440.75,670.09
		c22.646,3.906,22.744-25.137,23.818-30.273c3.584-19.668,14.893-65.107,23.32-95.205c14.014-50.928,30.352-85.586,38.174-106.602
		c7.607-20.811,22.266-63.369,27.148-80.791c4.648-17.285,24.766-103.838,25.576-115.913c0.83-12.041-3.604-27.144-10.059-30.146
		c0.234-4.37,0.508-6.812,0.508-6.812c-1.758-0.669-3.301-1.196-4.844-1.86l0.547,0.107c0,0,4.551-19.214,7.285-32.686
		c5.068-25.718,6.563-33.486,6.563-33.486c-0.059-3.574-1.123-6.621-4.307-7.573l-15.039-4.111"/>
	<path id="path46" fill="#231F20" d="M377.625,631.028c-0.156,0.801-1.592,1.25-3.125,0.742c-1.621-0.322-2.686-1.465-2.441-2.256
		c0.273-0.811,1.738-1.26,3.252-0.723C376.843,629.28,377.878,630.227,377.625,631.028z M372.058,629.514l-5.205,19.072
		 M373.035,631.057l-4.98,17.988 M377.625,631.028l-5.215,19.082 M376.091,631.887l-4.863,17.979 M409.753,354.885l-3.633,13.281
		 M411.228,355.256l-3.691,13.545 M485.945,375.862l-3.662,13.203 M484.48,375.578l-3.701,13.34"/>
	<path id="path48" fill="none" stroke="#FFFFFF" stroke-width="2.3" stroke-linejoin="round" d="M377.625,631.028
		c-0.156,0.801-1.592,1.25-3.125,0.742c-1.621-0.322-2.686-1.465-2.441-2.256c0.273-0.811,1.738-1.26,3.252-0.723
		C376.843,629.28,377.878,630.227,377.625,631.028z M372.058,629.514l-5.205,19.072 M373.035,631.057l-4.98,17.988 M377.625,631.028
		l-5.215,19.082 M376.091,631.887l-4.863,17.979 M409.753,354.885l-3.633,13.281 M411.228,355.256l-3.691,13.545 M485.945,375.862
		l-3.662,13.203 M484.48,375.578l-3.701,13.34"/>
	<path id="path50" fill="#1089C2" d="M562,202.595c0,0,4.561-19.214,7.266-32.686c5.068-25.718,6.572-33.486,6.572-33.486
		c-0.059-3.574-1.133-6.621-4.307-7.573l-15.029-4.111c-3.184-0.85-5.361,1.133-7.48,4.316c0,0-5.791,11.899-14.004,36.328
		c-4.385,12.91-9.561,23.965-9.561,23.965 M563.66,195.613c-11.865-4.556-24.121-8.901-36.504-12.847 M431.687,166.843
		c0,0-30.664,62.529-48.184,126.138c-20.84,75.488-23.848,100.81-20.664,135.957c0.664,7.07,7.783,15.908,15.82,18.105
		c3.203,1.045,6.885,1.982,8.398,2.51c1.523,0.313,7.402,1.748,12.383,5.537c4.98,3.994,6.035,4.912,8.955,6.465
		c2.92,1.563,3.418,2.705,11.602,4.961c8.193,2.266,9.043,1.592,12.451,1.67c3.203,0.088,4.941-0.078,11.025-0.84
		c6.084-0.752,11.904,0.957,13.652,1.465c1.514,0.508,5.186,1.455,8.281,2.285c8.047,2.227,18.594-1.631,22.9-7.51
		c20.85-28.545,31.113-51.826,51.855-127.304c17.52-63.496,23.311-133.042,23.311-133.042 M413.582,198.171
		c24.717,3.589,51.24,9.336,75.947,16.079c24.502,6.865,50.41,15.654,73.301,25.229"/>
	<path id="path52" fill="#1089C2" d="M471.316,418.996c-5.371,19.795-25.82,31.445-45.596,26.084
		c-19.756-5.576-31.396-26.084-26.006-45.879c5.547-19.805,26.006-31.435,45.781-25.869
		C465.232,378.703,476.638,399.201,471.316,418.996"/>
	<path id="path54" fill="none" stroke="#FFFFFF" stroke-width="3.5" d="M471.316,418.996c-5.371,19.795-25.82,31.445-45.596,26.084
		c-19.756-5.576-31.396-26.084-26.006-45.879c5.547-19.805,26.006-31.435,45.781-25.869
		C465.232,378.703,476.638,399.201,471.316,418.996z"/>
	<path id="path56" fill="#231F20" d="M483.611,224.895l12.08-44.385"/>
	<path id="path58" fill="none" stroke="#FFFFFF" stroke-width="2.3" stroke-linejoin="round" d="M483.611,224.895l12.08-44.385"/>
	<path id="path60" fill="#231F20" d="M487.546,226.013l12.314-44.39"/>
	<path id="path62" fill="none" stroke="#FFFFFF" stroke-width="2.3" stroke-linejoin="round" d="M487.546,226.013l12.314-44.39"/>
	<path id="path64" fill="#231F20" d="M524.714,363.645c-0.859,3.174-4.297,5.156-7.461,4.092l-128.594-35.42
		c-3.164-0.957-5.176-4.297-4.199-7.559l22.393-81.309c0.859-3.267,4.287-5.146,7.461-4.292l128.594,35.522
		c3.154,0.879,5.166,4.209,4.082,7.48L524.714,363.645"/>
	<path id="path66" fill="none" stroke="#FFFFFF" stroke-width="2.3" stroke-linejoin="round" d="M524.714,363.645
		c-0.859,3.174-4.297,5.156-7.461,4.092l-128.594-35.42c-3.164-0.957-5.176-4.297-4.199-7.559l22.393-81.309
		c0.859-3.267,4.287-5.146,7.461-4.292l128.594,35.522c3.154,0.879,5.166,4.209,4.082,7.48L524.714,363.645z"/>
	<path id="path68" fill="#FFFFFF" d="M380.486,477.678c-2.119,7.48-9.902,11.895-17.471,9.99c-7.461-2.119-11.885-9.99-9.883-17.48
		c2.119-7.5,9.883-12.129,17.451-10.02C378.171,462.287,382.585,470.188,380.486,477.678"/>
	<path id="path70" fill="#FFFFFF" d="M354.773,564.699c-2.139,7.48-9.883,11.914-17.471,9.805c-7.49-2.139-11.885-9.785-9.873-17.5
		c2.129-7.49,9.873-11.924,17.461-9.785C352.361,549.319,356.765,557.004,354.773,564.699"/>
	<path id="path72" fill="#FFFFFF" d="M474.128,504.739c-2.1,7.48-9.971,11.895-17.451,9.766c-7.471-1.895-11.895-9.766-9.756-17.256
		c1.895-7.705,9.756-12.129,17.236-10.01C471.843,489.358,476.267,497.248,474.128,504.739"/>
	<path id="path74" fill="#FFFFFF" d="M448.416,591.545c-2.09,7.715-9.971,12.129-17.441,10c-7.471-2.109-11.895-10-9.99-17.48
		c2.119-7.49,9.99-11.904,17.461-9.775C446.14,576.184,450.544,584.045,448.416,591.545"/>
	<path id="path76" fill="#FFFFFF" d="M424.9,501.614c-2.1,7.48-9.961,11.895-17.451,9.805c-7.646-2.129-11.992-9.805-9.873-17.51
		c2.002-7.471,9.873-11.914,17.344-9.775C422.4,486.242,426.824,493.908,424.9,501.614"/>
	<path id="path78" fill="#FFFFFF" d="M367.957,521.399c-2.119,7.49-9.902,11.895-17.48,9.785c-7.461-2.119-11.992-9.785-9.883-17.49
		c2.119-7.5,9.883-11.895,17.461-9.805C365.544,506.008,369.958,513.694,367.957,521.399"/>
	<path id="path80" fill="#FFFFFF" d="M461.599,548.244c-2.109,7.695-9.98,12.119-17.471,9.99c-7.451-2.109-11.875-9.99-9.971-17.48
		c2.119-7.49,9.971-11.914,17.461-9.785C459.089,532.873,463.728,540.754,461.599,548.244"/>
	<path id="path82" fill="#FFFFFF" d="M412.146,545.139c-1.895,7.48-9.746,11.885-17.344,9.99c-7.451-2.109-11.885-9.99-9.863-17.49
		c2.1-7.686,9.863-12.129,17.451-10C409.851,529.758,414.275,537.639,412.146,545.139"/>
	<path id="path84" fill="#FFFFFF" d="M399.031,588.44c-2.051,7.48-9.814,11.895-17.402,10.02c-7.461-2.139-11.885-10.02-9.873-17.5
		c2.119-7.725,9.873-12.119,17.461-10.01C396.687,573.059,401.091,580.959,399.031,588.44"/>
</g>
</svg>
