<?xml version="1.0" encoding="utf-8"?>
<!-- Generator: Adobe Illustrator 16.0.0, SVG Export Plug-In . SVG Version: 6.00 Build 0)  -->
<!DOCTYPE svg PUBLIC "-//W3C//DTD SVG 1.1//EN" "http://www.w3.org/Graphics/SVG/1.1/DTD/svg11.dtd">
<svg version="1.1" id="图层_1" xmlns="http://www.w3.org/2000/svg" xmlns:xlink="http://www.w3.org/1999/xlink" x="0px" y="0px"
	 width="77px" height="48px" viewBox="0 0 77 48" enable-background="new 0 0 77 48" xml:space="preserve">
<g id="Layer_1">
	<g>
		<rect x="6.617" y="36" fill="#692F56" width="70.383" height="12"/>
	</g>
	<g>
		<rect x="6.617" y="22.287" fill="#692F56" width="70.383" height="10.889"/>
	</g>
	<g>
		<polygon fill="#692F56" points="77,16.457 77,18.6 15.208,18.6 15.208,16.457 50.795,4.8 		"/>
	</g>
	<g>
		<g>
			<path id="SVGID_1_" fill="#692F56" d="M31.451,9.513L19.25,9.944c0-1.457-0.257-2.913-0.858-4.288V3.513
				C18.648,4.2,29.646,6.256,29.646,6.256L31.451,9.513z"/>
		</g>
		<g>
			<defs>
				<path id="SVGID_2_" d="M31.451,9.513L19.25,9.944c0-1.457-0.257-2.913-0.858-4.288V3.513C18.648,4.2,29.646,6.256,29.646,6.256
					L31.451,9.513z"/>
			</defs>
			<clipPath id="SVGID_3_">
				<use xlink:href="#SVGID_2_"  overflow="visible"/>
			</clipPath>
			<g clip-path="url(#SVGID_3_)">
				<path fill="#692F56" d="M19.25,7.8v2.144c0-1.457-0.257-2.913-0.858-4.288V3.513C18.905,4.888,19.25,6.343,19.25,7.8"/>
			</g>
		</g>
	</g>
	<g>
		<path fill="#AD688B" d="M77,3.6v12.856H15.208C17.702,14.4,19.25,11.313,19.25,7.8c0-1.457-0.257-2.912-0.858-4.2H77z"/>
	</g>
	<g>
		<path fill="#AD688B" d="M6.617,20.231H77v10.706H6.617V20.231z"/>
	</g>
	<g>
		<path fill="#AD688B" d="M6.617,35.137H77v10.727H6.617V35.137z"/>
	</g>
	<path fill="#8D090A" d="M15.81,10.031c0,4.369-3.522,7.881-7.902,7.881C3.521,17.912,0,14.4,0,10.031V7.888l7.908-5.832
		l7.902,5.832V10.031z"/>
	<path fill="#EA2227" d="M7.908,0c4.367,0,7.902,3.531,7.902,7.888s-3.535,7.881-7.902,7.881S0,12.244,0,7.888S3.541,0,7.908,0z"/>
	<rect x="8.936" y="22.543" fill="#FFFFFF" width="65.834" height="6.168"/>
	<rect x="8.936" y="37.374" fill="#FFFFFF" width="65.834" height="6.163"/>
	<g>
		<path fill="#FFFFFF" d="M32.999,6.169h1.805v3.344h2.062V6.169h1.804V15h-1.804v-3.944h-2.062V15h-1.805V6.169z"/>
		<path fill="#FFFFFF" d="M45.117,6.169v1.462h-1.979V15h-1.806V7.631h-1.967V6.169H45.117z"/>
		<path fill="#FFFFFF" d="M51.133,6.169v1.462h-1.979V15h-1.806V7.631h-1.967V6.169H51.133z"/>
		<path fill="#FFFFFF" d="M51.909,6.169h3.171c1.805,0,2.406,1.288,2.406,2.663c0,1.8-1.115,2.656-2.832,2.656h-0.939V15h-1.806
			V6.169z M53.626,10.112h0.778c0.676,0,1.203-0.425,1.203-1.281c0-0.863-0.352-1.375-1.203-1.375h-0.778V10.112z"/>
	</g>
</g>
</svg>
