<?xml version="1.0" encoding="utf-8"?>
<!-- Generator: Adobe Illustrator 16.0.0, SVG Export Plug-In . SVG Version: 6.00 Build 0)  -->
<!DOCTYPE svg PUBLIC "-//W3C//DTD SVG 1.1//EN" "http://www.w3.org/Graphics/SVG/1.1/DTD/svg11.dtd">
<svg version="1.1" id="图层_1" xmlns="http://www.w3.org/2000/svg" xmlns:xlink="http://www.w3.org/1999/xlink" x="0px" y="0px"
	 width="62px" height="75px" viewBox="0 0 62 75" enable-background="new 0 0 62 75" xml:space="preserve">
<g id="Layer_1">
	<polygon fill="#692F56" points="19.909,45.327 31,46.691 41.272,38.318 31,28.307 19.909,29.672 	"/>
	<polygon fill="#692F56" points="50.545,14.563 56.818,13.016 61.455,32.585 56.818,58.436 50.545,57.523 	"/>
	<polygon fill="#AD688B" points="56.818,56.614 62,59.436 62,15.564 56.818,13.016 	"/>
	<polygon fill="#CFB2C1" points="50.545,51.335 56.818,52.245 31,75 24.091,57.889 	"/>
	<polygon fill="#AD688B" points="11.455,60.438 5.182,61.984 1.637,17.385 11.455,18.932 	"/>
	<polygon fill="#512843" points="11.455,23.665 5.182,22.755 31,0 37.909,17.112 	"/>
	<polygon fill="#CFB2C1" points="37.909,57.889 21.182,53.701 14.544,54.977 31,74.271 	"/>
	<polygon fill="#512843" points="24.091,17.112 31,0.091 47.455,20.024 40.818,21.299 	"/>
	<polygon fill="#AD688B" points="42.09,45.327 31,46.691 31,28.307 42.09,29.672 	"/>
	<polygon fill="#AD688B" points="62,59.436 31,75 31,59.98 58.545,51.698 60.363,52.245 	"/>
	<polygon fill="#692F56" points="14.544,54.977 31,59.98 31,74.908 14.544,66.717 	"/>
	<polygon fill="#AD688B" points="47.455,20.024 31,15.018 31,0.091 47.455,8.283 	"/>
	<polygon fill="#692F56" points="0,15.564 31,0 31,15.018 0,24.302 	"/>
	<polygon fill="#692F56" points="5.182,18.841 0,15.564 0,59.436 5.182,61.984 	"/>
</g>
</svg>
