<?xml version="1.0" encoding="utf-8"?>
<!-- Generator: Adobe Illustrator 16.0.0, SVG Export Plug-In . SVG Version: 6.00 Build 0)  -->
<!DOCTYPE svg PUBLIC "-//W3C//DTD SVG 1.1//EN" "http://www.w3.org/Graphics/SVG/1.1/DTD/svg11.dtd">
<svg version="1.1"
	 id="svg2" xmlns:dc="http://purl.org/dc/elements/1.1/" xmlns:cc="http://creativecommons.org/ns#" xmlns:rdf="http://www.w3.org/1999/02/22-rdf-syntax-ns#" xmlns:svg="http://www.w3.org/2000/svg"
	 xmlns="http://www.w3.org/2000/svg" xmlns:xlink="http://www.w3.org/1999/xlink" x="0px" y="0px" width="78px" height="46px"
	 viewBox="0 0 78 46" enable-background="new 0 0 78 46" xml:space="preserve">
<g id="g12" transform="scale(0.1,0.1)">
	<path id="path14" fill="#FFFFFF" d="M636.716,450.005H191.912l124.385-74.707l448.701-0.645L636.716,450.005"/>
	<path id="path16" fill="none" stroke="#1286BE" stroke-width="8" stroke-linecap="round" stroke-linejoin="round" d="
		M636.716,450.005H191.912l124.385-74.707l448.701-0.645L636.716,450.005z"/>
	<path id="path18" fill="none" stroke="#1286BE" stroke-width="8" stroke-linecap="round" stroke-linejoin="round" d="
		M316.296,375.298l-124.385,74.707l-0.049-367.368l124.434-71.919V375.298z"/>
	<path id="path20" fill="#FFFFFF" d="M14.998,277.427h210.342"/>
	<path id="path22" fill="none" stroke="#1286BE" stroke-width="8" stroke-linecap="round" d="M14.998,277.427h210.342"/>
	<path id="path24" fill="#FFFFFF" d="M225.251,240.142H33.992"/>
	<path id="path26" fill="none" stroke="#1286BE" stroke-width="8" stroke-linecap="round" d="M225.251,240.142H33.992"/>
	<path id="path28" fill="#FFFFFF" d="M256.033,320.512H72.732"/>
	<path id="path30" fill="none" stroke="#1286BE" stroke-width="8" stroke-linecap="round" d="M256.033,320.512H72.732"/>
	<path id="path32" fill="#FFFFFF" d="M237.214,208.071H100.793"/>
	<path id="path34" fill="none" stroke="#1286BE" stroke-width="8" stroke-linecap="round" d="M237.214,208.071H100.793"/>
	<path id="path36" fill="#1286BE" d="M696.921,180.317c0,48.711-101.875,88.262-227.617,88.262
		c-125.693,0-227.568-39.551-227.568-88.262v129.258c0,48.77,101.875,88.262,227.568,88.262
		c125.742,0,227.617-39.492,227.617-88.262V180.317"/>
	<path id="path38" fill="none" stroke="#FFFFFF" stroke-width="3.08" d="M696.921,180.317c0,48.711-101.875,88.262-227.617,88.262
		c-125.693,0-227.568-39.551-227.568-88.262v129.258c0,48.77,101.875,88.262,227.568,88.262
		c125.742,0,227.617-39.492,227.617-88.262V180.317z"/>
	<path id="path40" fill="#1286BE" d="M469.304,268.579c125.742,0,227.617-39.551,227.617-88.262
		c0-48.779-101.875-88.262-227.617-88.262c-125.693,0-227.568,39.482-227.568,88.262
		C241.736,229.028,343.611,268.579,469.304,268.579"/>
	<path id="path42" fill="none" stroke="#FFFFFF" stroke-width="3.08" d="M469.304,268.579c125.742,0,227.617-39.551,227.617-88.262
		c0-48.779-101.875-88.262-227.617-88.262c-125.693,0-227.568,39.482-227.568,88.262
		C241.736,229.028,343.611,268.579,469.304,268.579z"/>
	<path id="path44" fill="#FFFFFF" d="M417.322,145.776l18.838,28.115l-71.055,16.387l15.488-12.871l-109.741-18.691l27.534-20.64
		l106.016,17.891L417.322,145.776"/>
	<path id="path46" fill="#FFFFFF" d="M517.371,213.97l-12.891-28.955l64.16-12.778l-11.084,9.922l106.846,18.198l-25.635,20.449
		l-106.182-19.922L517.371,213.97"/>
	<path id="path48" fill="#FFFFFF" d="M482.302,130.425l71.787-19.531l0.82,30.674l-17.861-3.472l-35.059,29.028l-33.486-4.912
		l36.27-28.286L482.302,130.425"/>
	<path id="path50" fill="#FFFFFF" d="M451.541,240.356l-68.379,12.852l-2.568-31.572l19.668,4.268l37.568-32.051l33.389,5.586
		l-40.186,34.971L451.541,240.356"/>
	<path id="path52" fill="none" stroke="#1286BE" stroke-width="8" stroke-linecap="round" stroke-linejoin="round" d="
		M764.998,374.653l-128.281,75.352l-0.049-367.368L764.88,10L764.998,374.653z"/>
	<path id="path54" fill="none" stroke="#1286BE" stroke-width="8" stroke-linecap="round" stroke-linejoin="round" d="
		M636.667,82.637H191.863l124.434-71.919L764.88,10L636.667,82.637z"/>
	<g id="g56" transform="scale(10,10)" style="font-variant:normal;font-weight:bold;font-size:9.6134px;font-family:Helvetica;-inkscape-font-specification:Helvetica-Bold;writing-mode:lr-tb;fill:#ffffff;fill-opacity:1;fill-rule:nonzero;stroke:none">
		<text transform="matrix(1.003 0 0 1 27.8543 33.9126)">8</text>
		<text transform="matrix(1.003 0 0 1 33.7625 35.9633)">0</text>
		<text transform="matrix(1.003 0 0 1 39.907 37.1762)">2</text>
		<text transform="matrix(1.003 0 0 1 45.2674 37.1762)">.</text>
		<text transform="matrix(1.003 0 0 1 48.7459 37.2329)">1</text>
		<text transform="matrix(1.003 0 0 1 54.4226 36.3149)">1</text>
	</g>
	<path id="path70" fill="none" stroke="#FFFFFF" stroke-width="15" stroke-linecap="round" stroke-linejoin="round" d="
		M636.717,450.004H191.912l-0.049-367.368h444.805L636.717,450.004z"/>
	<path id="path72" fill="none" stroke="#1286BE" stroke-width="8" stroke-linecap="round" stroke-linejoin="round" d="
		M636.717,450.004H191.912l-0.049-367.368h444.805L636.717,450.004z"/>
</g>
</svg>
