<?xml version="1.0" encoding="utf-8"?>
<!-- Generator: Adobe Illustrator 16.0.0, SVG Export Plug-In . SVG Version: 6.00 Build 0)  -->
<!DOCTYPE svg PUBLIC "-//W3C//DTD SVG 1.1//EN" "http://www.w3.org/Graphics/SVG/1.1/DTD/svg11.dtd">
<svg version="1.1"
	 id="图层_1" xmlns:dc="http://purl.org/dc/elements/1.1/" xmlns:cc="http://creativecommons.org/ns#" xmlns:rdf="http://www.w3.org/1999/02/22-rdf-syntax-ns#"
	 xmlns="http://www.w3.org/2000/svg" xmlns:xlink="http://www.w3.org/1999/xlink" x="0px" y="0px" width="51px" height="75px"
	 viewBox="0 0 51 75" enable-background="new 0 0 51 75" xml:space="preserve">
<path fill="#00BCF2" d="M3.115,74.693c-1.005-0.387-2.146-1.497-2.658-2.593l-0.399-0.847L0.02,37.815
	C-0.022,0.852-0.091,3.552,0.914,2.145c0.629-0.886,1.42-1.495,2.41-1.864c0.803-0.299,0.952-0.302,22.365-0.263l21.557,0.04
	l0.999,0.489c1.167,0.574,1.975,1.479,2.45,2.753L51,4.117l-0.036,33.572l-0.039,33.572l-0.482,0.981
	c-0.581,1.178-1.506,2.043-2.633,2.464c-0.794,0.298-1.035,0.3-22.358,0.292C4.179,74.988,3.879,74.986,3.115,74.693L3.115,74.693z
	 M30.727,69.681c0.471-0.214,0.808-0.82,0.808-1.448c0-0.332-0.144-0.607-0.501-0.966l-0.497-0.497h-4.743
	c-5.227,0-5.387,0.022-5.841,0.901c-0.324,0.624-0.171,1.335,0.396,1.812l0.448,0.375h4.773
	C28.956,69.857,30.453,69.806,30.727,69.681z M45.838,34.919V7.924H25.491H5.143v26.995v26.993H25.49h20.347L45.838,34.919
	L45.838,34.919z M35.215,4.955c0.207-0.222,0.301-0.521,0.301-0.962c0-0.826-0.447-1.302-1.345-1.433
	c-0.963-0.14-17.559-0.024-17.863,0.125c-0.713,0.347-0.908,1.66-0.333,2.232l0.36,0.361h9.291h9.29L35.215,4.955z"/>
</svg>
