<?xml version="1.0" encoding="utf-8"?>
<!-- Generator: Adobe Illustrator 16.0.0, SVG Export Plug-In . SVG Version: 6.00 Build 0)  -->
<!DOCTYPE svg PUBLIC "-//W3C//DTD SVG 1.1//EN" "http://www.w3.org/Graphics/SVG/1.1/DTD/svg11.dtd">
<svg version="1.1"
	 id="svg2" xmlns:dc="http://purl.org/dc/elements/1.1/" xmlns:cc="http://creativecommons.org/ns#" xmlns:rdf="http://www.w3.org/1999/02/22-rdf-syntax-ns#" xmlns:svg="http://www.w3.org/2000/svg"
	 xmlns="http://www.w3.org/2000/svg" xmlns:xlink="http://www.w3.org/1999/xlink" x="0px" y="0px" width="75px" height="51px"
	 viewBox="0 0 75 51" enable-background="new 0 0 75 51" xml:space="preserve">
<g id="g12" transform="scale(0.1,0.1)">
	<path id="path306" fill="#20A3E4" d="M0,57.954V510h693.945V57.954H0L0,57.954"/>
	
		<path id="path308" fill="none" stroke="#AFDFF4" stroke-width="11.9275" stroke-linecap="square" stroke-linejoin="bevel" stroke-miterlimit="10" d="
		M0,57.954V510h693.945V57.954H0L0,57.954L0,57.954z"/>
	<path id="path310" fill="#43B6EA" d="M0,57.954L56.035,0H750l-56.055,57.954H0L0,57.954"/>
	
		<path id="path312" fill="none" stroke="#AFDFF4" stroke-width="11.9275" stroke-linecap="square" stroke-linejoin="bevel" stroke-miterlimit="10" d="
		M0,57.954L56.035,0H750l-56.055,57.954H0L0,57.954L0,57.954z"/>
	<path id="path314" fill="#1D76A0" d="M693.945,57.954L750,0v452.07L693.945,510V57.954"/>
	
		<path id="path316" fill="none" stroke="#AFDFF4" stroke-width="11.9275" stroke-linecap="square" stroke-linejoin="bevel" stroke-miterlimit="10" d="
		M693.945,57.954L750,0v452.07L693.945,510V57.954L693.945,57.954z"/>
	<path id="path318" fill="#242021" d="M557.559,155.942v-26.748l62.461,44.458l-62.461,44.57v-26.694h-85.195v-35.586H557.559
		L557.559,155.942"/>
	<path id="path320" fill="#242021" d="M209.092,381.436v-26.694l62.695,44.639l-62.695,44.561v-26.763H47.148v-35.742H209.092
		L209.092,381.436"/>
	<path id="path322" fill="#242021" d="M557.559,383.081v-26.743l62.461,44.507l-62.461,44.639V418.76h-85.195v-35.679H557.559
		L557.559,383.081"/>
	<path id="path324" fill="#FFFFFF" d="M548.398,146.914v-24.473L611.23,164.8l-62.832,44.624v-26.748h-85.117v-35.762H548.398
		L548.398,146.914"/>
	<path id="path326" fill="#FFFFFF" d="M200.303,372.651v-26.694l62.324,44.497l-62.324,44.468v-26.763H40.313v-35.508H200.303
		L200.303,372.651"/>
	<path id="path328" fill="#242021" d="M613.379,269.463v-26.709l65.127,44.658l-65.127,44.414v-26.724H470.088v-35.64H613.379
		L613.379,269.463"/>
	<path id="path330" fill="#FFFFFF" d="M606.836,260.664v-26.748l62.5,44.448l-62.5,44.526v-26.699H461.035v-35.527H606.836
		L606.836,260.664"/>
	<path id="path332" fill="#FFFFFF" d="M548.398,374.116v-26.694l62.832,44.639l-62.832,44.492v-26.733h-85.117v-35.703H548.398
		L548.398,374.116"/>
	<path id="path334" fill="#1C7BA7" d="M440.859,95.693v376.479H275.254V95.693H440.859L440.859,95.693"/>
	<path id="path336" fill="none" stroke="#8ED0F2" stroke-width="17.8925" stroke-linecap="square" stroke-miterlimit="10" d="
		M440.859,95.693v376.479H275.254V95.693H440.859L440.859,95.693L440.859,95.693z"/>
	<path id="path338" fill="#FFFFFF" d="M396.191,385.322v51.23h-71.504v-51.23H396.191L396.191,385.322"/>
	<path id="path340" fill="none" stroke="#FFFFFF" stroke-width="5.965" stroke-linecap="square" stroke-miterlimit="10" d="
		M396.191,385.322v51.23h-71.504v-51.23H396.191L396.191,385.322z"/>
	<path id="path342" fill="#FFFFFF" d="M429.59,436.553v15.518h-13.184v-15.518H429.59L429.59,436.553"/>
	<path id="path344" fill="none" stroke="#FFFFFF" stroke-width="5.965" stroke-linecap="square" stroke-miterlimit="10" d="
		M429.59,436.553v15.518h-13.184v-15.518H429.59L429.59,436.553z"/>
	<path id="path346" fill="#FFFFFF" d="M429.59,405.308v15.645h-13.184v-15.645H429.59L429.59,405.308"/>
	<path id="path348" fill="none" stroke="#FFFFFF" stroke-width="5.965" stroke-linecap="square" stroke-miterlimit="10" d="
		M429.59,405.308v15.645h-13.184v-15.645H429.59L429.59,405.308z"/>
	<path id="path350" fill="#FFFFFF" d="M429.59,374.116v15.723h-13.184v-15.723H429.59L429.59,374.116"/>
	<path id="path352" fill="none" stroke="#FFFFFF" stroke-width="5.965" stroke-linecap="square" stroke-miterlimit="10" d="
		M429.59,374.116v15.723h-13.184v-15.723H429.59L429.59,374.116z"/>
	<path id="path354" fill="#FFFFFF" d="M429.59,345.225v13.364h-13.184v-13.364H429.59L429.59,345.225"/>
	<path id="path356" fill="none" stroke="#FFFFFF" stroke-width="5.965" stroke-linecap="square" stroke-miterlimit="10" d="
		M429.59,345.225v13.364h-13.184v-13.364H429.59L429.59,345.225z"/>
	<path id="path358" fill="#FFFFFF" d="M429.59,314.106v13.228h-13.184v-13.228H429.59L429.59,314.106"/>
	<path id="path360" fill="none" stroke="#FFFFFF" stroke-width="5.965" stroke-linecap="square" stroke-miterlimit="10" d="
		M429.59,314.106v13.228h-13.184v-13.228H429.59L429.59,314.106z"/>
	<path id="path362" fill="#FFFFFF" d="M429.59,282.881v15.508h-13.184v-15.508H429.59L429.59,282.881"/>
	<path id="path364" fill="none" stroke="#FFFFFF" stroke-width="5.965" stroke-linecap="square" stroke-miterlimit="10" d="
		M429.59,282.881v15.508h-13.184v-15.508H429.59L429.59,282.881z"/>
	<path id="path366" fill="#FFFFFF" d="M429.59,251.631v15.64h-13.184v-15.64H429.59L429.59,251.631"/>
	<path id="path368" fill="none" stroke="#FFFFFF" stroke-width="5.965" stroke-linecap="square" stroke-miterlimit="10" d="
		M429.59,251.631v15.64h-13.184v-15.64H429.59L429.59,251.631z"/>
	<path id="path370" fill="#FFFFFF" d="M429.59,220.42v15.747h-13.184V220.42H429.59L429.59,220.42"/>
	<path id="path372" fill="none" stroke="#FFFFFF" stroke-width="5.965" stroke-linecap="square" stroke-miterlimit="10" d="
		M429.59,220.42v15.747h-13.184V220.42H429.59L429.59,220.42z"/>
	<path id="path374" fill="#FFFFFF" d="M429.59,189.331v15.586h-13.184v-15.586H429.59L429.59,189.331"/>
	<path id="path376" fill="none" stroke="#FFFFFF" stroke-width="5.965" stroke-linecap="square" stroke-miterlimit="10" d="
		M429.59,189.331v15.586h-13.184v-15.586H429.59L429.59,189.331z"/>
	<path id="path378" fill="#FFFFFF" d="M429.59,160.41v13.242h-13.184V160.41H429.59L429.59,160.41"/>
	<path id="path380" fill="none" stroke="#FFFFFF" stroke-width="5.965" stroke-linecap="square" stroke-miterlimit="10" d="
		M429.59,160.41v13.242h-13.184V160.41H429.59L429.59,160.41z"/>
	<path id="path382" fill="#FFFFFF" d="M429.59,129.194v13.296l-13.184,2.202v-15.498H429.59L429.59,129.194"/>
	<path id="path384" fill="none" stroke="#FFFFFF" stroke-width="5.965" stroke-linecap="square" stroke-miterlimit="10" d="
		M429.59,129.194v13.296l-13.184,2.202v-15.498H429.59L429.59,129.194L429.59,129.194z"/>
	<path id="path386" fill="#FFFFFF" d="M304.307,436.553v15.518h-13.184v-15.518H304.307L304.307,436.553"/>
	<path id="path388" fill="none" stroke="#FFFFFF" stroke-width="5.965" stroke-linecap="square" stroke-miterlimit="10" d="
		M304.307,436.553v15.518h-13.184v-15.518H304.307L304.307,436.553z"/>
	<path id="path390" fill="#FFFFFF" d="M304.307,405.308v15.645h-13.184v-15.645H304.307L304.307,405.308"/>
	<path id="path392" fill="none" stroke="#FFFFFF" stroke-width="5.965" stroke-linecap="square" stroke-miterlimit="10" d="
		M304.307,405.308v15.645h-13.184v-15.645H304.307L304.307,405.308z"/>
	<path id="path394" fill="#FFFFFF" d="M304.307,374.116v15.723h-13.184v-15.723H304.307L304.307,374.116"/>
	<path id="path396" fill="none" stroke="#FFFFFF" stroke-width="5.965" stroke-linecap="square" stroke-miterlimit="10" d="
		M304.307,374.116v15.723h-13.184v-15.723H304.307L304.307,374.116z"/>
	<path id="path398" fill="#FFFFFF" d="M304.307,345.225v13.364h-13.184v-13.364H304.307L304.307,345.225"/>
	<path id="path400" fill="none" stroke="#FFFFFF" stroke-width="5.965" stroke-linecap="square" stroke-miterlimit="10" d="
		M304.307,345.225v13.364h-13.184v-13.364H304.307L304.307,345.225z"/>
	<path id="path402" fill="#FFFFFF" d="M304.307,314.106v13.228h-13.184v-13.228H304.307L304.307,314.106"/>
	<path id="path404" fill="none" stroke="#FFFFFF" stroke-width="5.965" stroke-linecap="square" stroke-miterlimit="10" d="
		M304.307,314.106v13.228h-13.184v-13.228H304.307L304.307,314.106z"/>
	<path id="path406" fill="#FFFFFF" d="M304.307,282.881v15.508h-13.184v-15.508H304.307L304.307,282.881"/>
	<path id="path408" fill="none" stroke="#FFFFFF" stroke-width="5.965" stroke-linecap="square" stroke-miterlimit="10" d="
		M304.307,282.881v15.508h-13.184v-15.508H304.307L304.307,282.881z"/>
	<path id="path410" fill="#FFFFFF" d="M304.307,251.631v15.64h-13.184v-15.64H304.307L304.307,251.631"/>
	<path id="path412" fill="none" stroke="#FFFFFF" stroke-width="5.965" stroke-linecap="square" stroke-miterlimit="10" d="
		M304.307,251.631v15.64h-13.184v-15.64H304.307L304.307,251.631z"/>
	<path id="path414" fill="#FFFFFF" d="M304.307,220.42v15.747h-13.184V220.42H304.307L304.307,220.42"/>
	<path id="path416" fill="none" stroke="#FFFFFF" stroke-width="5.965" stroke-linecap="square" stroke-miterlimit="10" d="
		M304.307,220.42v15.747h-13.184V220.42H304.307L304.307,220.42z"/>
	<path id="path418" fill="#FFFFFF" d="M304.307,189.331v15.586h-13.184v-15.586H304.307L304.307,189.331"/>
	<path id="path420" fill="none" stroke="#FFFFFF" stroke-width="5.965" stroke-linecap="square" stroke-miterlimit="10" d="
		M304.307,189.331v15.586h-13.184v-15.586H304.307L304.307,189.331z"/>
	<path id="path422" fill="#FFFFFF" d="M304.307,160.41v13.242h-13.184V160.41H304.307L304.307,160.41"/>
	<path id="path424" fill="none" stroke="#FFFFFF" stroke-width="5.965" stroke-linecap="square" stroke-miterlimit="10" d="
		M304.307,160.41v13.242h-13.184V160.41H304.307L304.307,160.41z"/>
	<path id="path426" fill="#FFFFFF" d="M304.307,129.194v15.498h-13.184v-15.498H304.307L304.307,129.194"/>
	<path id="path428" fill="none" stroke="#FFFFFF" stroke-width="5.965" stroke-linecap="square" stroke-miterlimit="10" d="
		M304.307,129.194v15.498h-13.184v-15.498H304.307L304.307,129.194z"/>
	<path id="path430" fill="#FFFFFF" d="M396.191,302.852v51.23h-71.504v-51.23H396.191L396.191,302.852"/>
	<path id="path432" fill="none" stroke="#FFFFFF" stroke-width="5.965" stroke-linecap="square" stroke-miterlimit="10" d="
		M396.191,302.852v51.23h-71.504v-51.23H396.191L396.191,302.852z"/>
	<path id="path434" fill="#FFFFFF" d="M396.191,220.42v51.245h-71.504V220.42H396.191L396.191,220.42"/>
	<path id="path436" fill="none" stroke="#FFFFFF" stroke-width="5.965" stroke-linecap="square" stroke-miterlimit="10" d="
		M396.191,220.42v51.245h-71.504V220.42H396.191L396.191,220.42z"/>
	<path id="path438" fill="#FFFFFF" d="M396.191,140.298v49.033h-71.504v-49.033H396.191L396.191,140.298"/>
	<path id="path440" fill="none" stroke="#FFFFFF" stroke-width="5.965" stroke-linecap="square" stroke-miterlimit="10" d="
		M396.191,140.298v49.033h-71.504v-49.033H396.191L396.191,140.298z"/>
	<path id="path442" fill="#1089C2" d="M206.973,195.83c2.129-7.964,11.66-47.48,11.689-52.988
		c0.684-5.469-1.494-12.441-4.424-13.901c0-1.816,0.078-2.925,0.078-2.925c-0.684-0.352-1.436-0.713-2.139-0.928l0.498,0.146
		c0,0,2.002-8.848,3.027-14.941c2.314-11.748,2.803-17.72,2.803-17.72c-0.049-1.689-0.625-3.14-2.09-3.501l-6.68-1.846
		c-1.533-0.352-2.822,0.469-3.574,1.89c0,0-2.783,5.449-6.572,16.787c-1.924,5.854-3.682,13.174-3.682,13.174l0,0
		c-4.15-1.226-8.037-2.578-12.432-3.662c-10.664-2.925-21.26-5.122-32.119-6.86c0,0-0.313,1.006-1.348,2.817l0,0
		c-3.154-0.347-8.301,4.492-11.025,9.517c-2.383,4.78-14.854,43.56-17.031,51.377c-2.217,7.9-6.582,28.042-8.105,38.091
		c-2.148,10.063-3.613,27.544-10.225,50.767c-3.643,13.843-9.893,34.336-13.184,42.739c-0.713,2.261-7.324,13.633,2.217,17.559
		c9.502,3.745,24.15,7.915,31.309,9.897c7.109,1.953,21.426,5.854,31.68,7.427c10.254,1.704,10.303-11.465,10.967-13.848
		c1.465-8.945,6.611-29.771,10.508-43.345c6.357-23.428,14.014-39.219,17.412-48.857c3.594-9.57,10.273-29.063,12.441-36.86"/>
	<path id="path444" fill="#1089C2" d="M207.627,92.734c0,0-2.93-0.869-5.859-1.65c-2.256-0.601-5.859-1.582-5.859-1.582"/>
	<path id="path446" fill="#1089C2" d="M196.66,196.87c2.178-7.92,10.967-47.441,11.719-52.91c0.088-5.503-1.797-12.441-4.697-13.911
		c0.303-1.86,0.303-2.949,0.303-2.949c-0.752-0.352-1.465-0.703-2.217-0.972v0.137c0,0,2.217-8.848,3.574-14.893
		c2.285-11.787,2.285-17.778,2.285-17.778c0-1.597-0.293-3.062-1.836-3.442l-6.953-1.812c-1.465-0.381-2.178,0.4-3.311,1.812
		c0,0-2.549,5.508-6.27,16.738c-2.139,5.952-4.219,13.271-4.219,13.271h0.186c-3.965-1.279-8.35-2.554-12.344-3.662
		c-10.664-2.925-21.416-5.151-31.885-6.929c0,0-0.752,1.074-1.465,2.92l0,0c-3.32-0.381-8.789,4.414-11.006,9.473
		c-2.588,4.785-15.049,43.569-17.207,51.338c-2.178,7.979-6.23,28.091-8.408,38.071c-1.631,10.161-3.496,27.539-9.824,50.801
		c-3.916,13.877-9.971,34.375-13.096,42.803c-0.996,2.192-7.842,13.569,2.168,17.563c9.736,3.657,23.682,7.813,31.006,9.863
		c7.324,1.904,21.768,5.84,31.953,7.383c10.469,1.782,10.527-11.392,10.713-13.862c1.777-8.887,7.139-29.731,10.781-43.345
		c6.563-23.364,13.936-39.229,17.578-48.848C187.734,224.126,194.443,204.697,196.66,196.87"/>
	<path id="path448" fill="#1089C2" d="M121.953,252.271c-1.426,4.009-5.449,6.484-9.541,5.337c-4.092-1.113-6.572-5.337-5.146-9.38
		c0.791-4.014,5.146-6.509,9.238-5.381C120.488,243.999,122.813,248.228,121.953,252.271"/>
	<path id="path450" fill="#1089C2" d="M140.996,260.342c-1.074,4.067-5.146,6.572-9.541,5.464c-3.721-1.084-6.289-5.464-5.107-9.526
		c1.074-4.009,5.107-6.323,9.502-5.176C139.619,252.246,142.217,256.279,140.996,260.342"/>
	<path id="path452" fill="#1089C2" d="M161.611,263.252c-0.859,4.019-5.254,6.558-9.209,5.425c-4.082-1.143-6.299-5.425-5.488-9.463
		c1.406-4.019,5.488-6.411,9.443-5.293C160.596,255.088,162.969,259.214,161.611,263.252"/>
	<path id="path454" fill="#1089C2" d="M117.188,269.111c-1.094,4.014-5.488,6.318-9.248,5.142c-4.316-1.113-6.494-5.142-5.508-9.209
		c1.191-4.077,5.508-6.563,9.268-5.454C116.094,260.679,118.271,265.044,117.188,269.111"/>
	<path id="path456" fill="#1089C2" d="M136.582,277.163c-1.445,4.014-5.547,6.46-9.521,5.327c-4.18-1.138-6.572-5.327-5.234-9.365
		c0.84-4.014,5.234-6.533,9.209-5.366C135.137,268.916,137.344,273.125,136.582,277.163"/>
	<path id="path458" fill="#1089C2" d="M157.109,280.093c-1.104,4.014-5.146,6.387-9.541,5.259c-3.711-1.157-6.309-5.259-5.107-9.302
		c1.113-4.033,5.107-6.587,9.502-5.449C155.742,271.738,158.311,276.05,157.109,280.093"/>
	<path id="path460" fill="#1089C2" d="M112.412,285.801c-0.83,4.063-5.107,6.353-9.355,5.269c-3.828-1.108-6.27-5.269-5.293-9.37
		c1.318-4.087,5.293-6.382,9.541-5.269C111.25,277.52,113.848,281.68,112.412,285.801"/>
	<path id="path462" fill="#1089C2" d="M131.709,293.994c-0.967,4.014-5.361,6.274-9.229,5.171c-4.209-1.157-6.387-5.171-5.498-9.224
		c1.289-4.102,5.498-6.572,9.365-5.459C130.684,285.566,132.92,289.941,131.709,293.994"/>
	<path id="path464" fill="#1089C2" d="M152.666,296.855c-1.416,4.077-5.518,6.284-9.492,5.19c-4.189-1.113-6.572-5.19-5.225-9.312
		c0.83-4.077,5.225-6.436,9.199-5.322C151.25,288.491,153.457,292.734,152.666,296.855"/>
	<path id="path466" fill="#1089C2" d="M108.018,302.422c-1.348,4.082-5.352,6.563-9.502,5.479c-4.014-1.113-6.572-5.454-5.146-9.512
		c0.869-4.043,5.146-6.348,9.297-5.181C106.553,294.346,108.965,298.389,108.018,302.422 M127.061,310.664
		c-0.947,4.072-5.107,6.372-9.424,5.288c-3.76-1.113-6.289-5.288-5.225-9.375c1.221-4.097,5.225-6.377,9.541-5.264
		C125.801,302.397,128.389,306.577,127.061,310.664"/>
	<path id="path468" fill="#1089C2" d="M147.803,313.491c-0.947,4.092-5.342,6.47-9.199,5.386c-4.219-1.108-6.396-5.386-5.527-9.463
		c1.309-4.087,5.527-6.284,9.385-5.171C146.758,305.327,149.033,309.375,147.803,313.491"/>
	<path id="path470" fill="#1089C2" d="M117.559,321.943c0,0.4-0.752,0.596-1.465,0.317c-0.752-0.103-1.416-0.625-1.23-0.996
		c0.205-0.391,0.82-0.571,1.514-0.288C117.07,321.074,117.559,321.563,117.559,321.943 M114.863,321.265l-2.451,8.662
		 M115.342,321.992l-2.178,8.218 M117.559,321.943l-2.393,8.672 M116.807,322.407l-2.178,8.184 M132.207,195.83l-1.523,5.942
		 M132.92,195.918l-1.689,6.206 M167.188,205.43l-1.875,6.006 M166.553,205.22l-1.934,6.064"/>
	<path id="path472" fill="#1089C2" d="M201.768,126.265c0,0,2.217-8.848,3.574-14.893c2.285-11.787,2.285-17.778,2.285-17.778
		c0-1.597-0.293-3.062-1.836-3.442l-6.953-1.812c-1.465-0.381-2.178,0.4-3.311,1.812c0,0-2.549,5.508-6.27,16.738
		c-2.139,5.952-4.219,13.271-4.219,13.271 M182.646,206.821c-0.635,1.504-2.1,2.271-3.564,1.89l-58.76-16.177
		c-1.504-0.449-2.568-2.061-2.051-3.574l10.254-37.021c0.469-1.528,2.031-2.51,3.604-2.075l58.672,16.333
		c1.465,0.449,2.207,1.909,2.09,3.379L182.646,206.821 M202.52,123.086c-5.146-2.197-11.006-4.067-16.602-5.854 M142.344,109.912
		c0,0-14.131,28.545-22.09,57.49c-9.58,34.697-10.889,46.074-9.463,62.178c0.156,3.281,3.496,7.319,7.178,8.403
		c1.455,0.376,3.232,0.728,3.984,1.108c0.713,0.02,3.213,0.737,5.527,2.549c2.285,1.748,2.656,2.197,3.975,2.925
		c1.465,0.732,1.465,1.118,5.342,2.202c3.877,1.108,4.199,0.728,5.664,0.728c1.465,0.049,2.178,0,5.107-0.347
		c2.93-0.381,5.615,0.435,6.299,0.728c0.654,0.107,2.49,0.703,3.955,1.084c3.682,0.981,8.389-0.786,10.254-3.599
		c9.541-12.9,14.316-23.477,23.867-58.135c7.979-29.014,10.576-60.757,10.576-60.757 M133.896,124.199
		c11.494,1.626,23.496,4.238,34.932,7.319c10.977,3.159,22.803,7.163,33.594,11.558"/>
	<path id="path474" fill="#1089C2" d="M159.287,229.78c-2.578,8.931-11.797,14.414-21.113,11.86
		c-8.896-2.549-14.082-11.86-11.826-20.84c2.646-9.165,11.826-14.37,21.143-11.943C156.357,211.284,161.553,220.801,159.287,229.78
		 M127.813,201.875c2.178,0.63,4.229,1.675,5.107,2.095c0.752,0.728,0.801,1.46,0.107,1.812c-0.82,0.576-2.168,1.519-2.93,2.197
		c-0.82,0.767-1.543,1.113-2.744,0.381c-2.305-1.465-6.865-4.81-8.33-6.587c-0.684-0.732,0-1.113,1.445-1.113
		C121.953,200.591,125.566,201.235,127.813,201.875 M115.918,219.683c1.064,0.449,4.238,2.148,5.264,2.69
		c0.771,0.62,2.236,2.085,2.148,3.828c-0.313,1.919-0.029,5.981,0.801,7.393c0.879,1.841,0.752,2.573-0.713,2.212
		c-1.465-0.103-4.414-1.372-5.596-1.831c-1.016-0.381-2.451-1.172-2.559-2.578c-1.064-2.549-1.387-8.052-0.635-10.64
		C114.629,219.561,115.342,219.609,115.918,219.683"/>
	<path id="path476" fill="#1089C2" d="M167.52,212.798c-2.373-0.537-4.15-0.684-5.303-0.586c-0.713,0.098-1.465,0.537-1.172,1.265
		c0.459,0.903,1.172,2.554,1.318,3.442c0.605,1.133,0.82,1.685,2.383,1.685c2.617,0,8.477-0.405,10.605-1.27
		c0.801-0.415,0.449-0.928-0.664-1.655C173.223,214.658,170.293,213.477,167.52,212.798 M168.828,234.326
		c-1.465-0.308-4.707-0.352-5.859-0.352c-1.055,0.029-2.93,0.654-3.682,2.192c-0.84,1.787-3.057,5.122-4.473,5.854
		c-2.1,1.084-2.119,1.816-0.635,2.275c1.074,0.537,4.395,1.162,5.664,1.348c0.908,0.039,2.373,0.039,3.643-0.869
		c2.109-1.826,5.049-6.416,6.055-8.989C169.902,234.707,169.541,234.58,168.828,234.326"/>
	<path id="path478" fill="#1089C2" d="M165.898,136.362l5.859-20.215"/>
	<path id="path480" fill="#1089C2" d="M167.969,136.992l5.332-20.4"/>
	<path id="path482" fill="#1089C2" d="M206.973,195.83c2.129-7.964,11.66-47.48,11.689-52.988
		c0.684-5.469-1.494-12.441-4.424-13.901c0-1.816,0.078-2.925,0.078-2.925c-0.684-0.352-1.436-0.713-2.139-0.928l0.498,0.146
		c0,0,2.002-8.848,3.027-14.941c2.314-11.748,2.803-17.72,2.803-17.72c-0.049-1.689-0.625-3.14-2.09-3.501l-6.68-1.846
		c-1.533-0.352-2.822,0.469-3.574,1.89c0,0-2.783,5.449-6.572,16.787c-1.924,5.854-3.682,13.174-3.682,13.174l0,0
		c-4.15-1.226-8.037-2.578-12.432-3.662c-10.664-2.925-21.26-5.122-32.119-6.86c0,0-0.313,1.006-1.348,2.817l0,0
		c-3.154-0.347-8.301,4.492-11.025,9.517c-2.383,4.78-14.854,43.56-17.031,51.377c-2.217,7.9-6.582,28.042-8.105,38.091
		c-2.148,10.063-3.613,27.544-10.225,50.767c-3.643,13.843-9.893,34.336-13.184,42.739c-0.713,2.261-7.324,13.633,2.217,17.559
		c9.502,3.745,24.15,7.915,31.309,9.897c7.109,1.953,21.426,5.854,31.68,7.427c10.254,1.704,10.303-11.465,10.967-13.848
		c1.465-8.945,6.611-29.771,10.508-43.345c6.357-23.428,14.014-39.219,17.412-48.857c3.594-9.57,10.273-29.063,12.441-36.86"/>
	<path id="path484" fill="#1089C2" d="M207.627,92.734c0,0-2.93-0.869-5.859-1.65c-2.256-0.601-5.859-1.582-5.859-1.582"/>
	<path id="path486" fill="none" stroke="#FFFFFF" stroke-width="10" d="M207.627,92.734c0,0-2.93-0.869-5.859-1.65
		c-2.256-0.601-5.859-1.582-5.859-1.582"/>
	<path id="path488" fill="#1089C2" d="M196.66,196.87c2.178-7.92,10.967-47.441,11.719-52.91c0.088-5.503-1.797-12.441-4.697-13.911
		c0.303-1.86,0.303-2.949,0.303-2.949c-0.752-0.352-1.465-0.703-2.217-0.972v0.137c0,0,2.217-8.848,3.574-14.893
		c2.285-11.787,2.285-17.778,2.285-17.778c0-1.597-0.293-3.062-1.836-3.442l-6.953-1.812c-1.465-0.381-2.178,0.4-3.311,1.812
		c0,0-2.549,5.508-6.27,16.738c-2.139,5.952-4.219,13.271-4.219,13.271h0.186c-3.965-1.279-8.35-2.554-12.344-3.662
		c-10.664-2.925-21.416-5.151-31.885-6.929c0,0-0.752,1.074-1.465,2.92l0,0c-3.32-0.381-8.789,4.414-11.006,9.473
		c-2.588,4.785-15.049,43.569-17.207,51.338c-2.178,7.979-6.23,28.091-8.408,38.071c-1.631,10.161-3.496,27.539-9.824,50.801
		c-3.916,13.877-9.971,34.375-13.096,42.803c-0.996,2.192-7.842,13.569,2.168,17.563c9.736,3.657,23.682,7.813,31.006,9.863
		c7.324,1.904,21.768,5.84,31.953,7.383c10.469,1.782,10.527-11.392,10.713-13.862c1.777-8.887,7.139-29.731,10.781-43.345
		c6.563-23.364,13.936-39.229,17.578-48.848C187.734,224.126,194.443,204.697,196.66,196.87"/>
	<path id="path490" fill="none" stroke="#FFFFFF" stroke-width="10" d="M196.66,196.87c2.178-7.92,10.967-47.441,11.719-52.91
		c0.088-5.503-1.797-12.441-4.697-13.911c0.303-1.86,0.303-2.949,0.303-2.949c-0.752-0.352-1.465-0.703-2.217-0.972v0.137
		c0,0,2.217-8.848,3.574-14.893c2.285-11.787,2.285-17.778,2.285-17.778c0-1.597-0.293-3.062-1.836-3.442l-6.953-1.812
		c-1.465-0.381-2.178,0.4-3.311,1.812c0,0-2.549,5.508-6.27,16.738c-2.139,5.952-4.219,13.271-4.219,13.271h0.186
		c-3.965-1.279-8.35-2.554-12.344-3.662c-10.664-2.925-21.416-5.151-31.885-6.929c0,0-0.752,1.074-1.465,2.92l0,0
		c-3.32-0.381-8.789,4.414-11.006,9.473c-2.588,4.785-15.049,43.569-17.207,51.338c-2.178,7.979-6.23,28.091-8.408,38.071
		c-1.631,10.161-3.496,27.539-9.824,50.801c-3.916,13.877-9.971,34.375-13.096,42.803c-0.996,2.192-7.842,13.569,2.168,17.563
		c9.736,3.657,23.682,7.813,31.006,9.863c7.324,1.904,21.768,5.84,31.953,7.383c10.469,1.782,10.527-11.392,10.713-13.862
		c1.777-8.887,7.139-29.731,10.781-43.345c6.563-23.364,13.936-39.229,17.578-48.848C187.734,224.126,194.443,204.697,196.66,196.87
		L196.66,196.87z"/>
	<path id="path492" fill="#1089C2" d="M121.953,252.271c-1.426,4.009-5.449,6.484-9.541,5.337c-4.092-1.113-6.572-5.337-5.146-9.38
		c0.791-4.014,5.146-6.509,9.238-5.381C120.488,243.999,122.813,248.228,121.953,252.271"/>
	<path id="path494" fill="none" stroke="#FFFFFF" stroke-width="10" d="M121.953,252.271c-1.426,4.009-5.449,6.484-9.541,5.337
		c-4.092-1.113-6.572-5.337-5.146-9.38c0.791-4.014,5.146-6.509,9.238-5.381C120.488,243.999,122.813,248.228,121.953,252.271z"/>
	<path id="path496" fill="#1089C2" d="M140.996,260.342c-1.074,4.067-5.146,6.572-9.541,5.464c-3.721-1.084-6.289-5.464-5.107-9.526
		c1.074-4.009,5.107-6.323,9.502-5.176C139.619,252.246,142.217,256.279,140.996,260.342"/>
	<path id="path498" fill="none" stroke="#FFFFFF" stroke-width="10" d="M140.996,260.342c-1.074,4.067-5.146,6.572-9.541,5.464
		c-3.721-1.084-6.289-5.464-5.107-9.526c1.074-4.009,5.107-6.323,9.502-5.176C139.619,252.246,142.217,256.279,140.996,260.342
		L140.996,260.342z"/>
	<path id="path500" fill="#1089C2" d="M161.611,263.252c-0.859,4.019-5.254,6.558-9.209,5.425c-4.082-1.143-6.299-5.425-5.488-9.463
		c1.406-4.019,5.488-6.411,9.443-5.293C160.596,255.088,162.969,259.214,161.611,263.252"/>
	<path id="path502" fill="none" stroke="#FFFFFF" stroke-width="10" d="M161.611,263.252c-0.859,4.019-5.254,6.558-9.209,5.425
		c-4.082-1.143-6.299-5.425-5.488-9.463c1.406-4.019,5.488-6.411,9.443-5.293C160.596,255.088,162.969,259.214,161.611,263.252
		L161.611,263.252z"/>
	<path id="path504" fill="#1089C2" d="M117.188,269.111c-1.094,4.014-5.488,6.318-9.248,5.142c-4.316-1.113-6.494-5.142-5.508-9.209
		c1.191-4.077,5.508-6.563,9.268-5.454C116.094,260.679,118.271,265.044,117.188,269.111"/>
	<path id="path506" fill="none" stroke="#FFFFFF" stroke-width="10" d="M117.188,269.111c-1.094,4.014-5.488,6.318-9.248,5.142
		c-4.316-1.113-6.494-5.142-5.508-9.209c1.191-4.077,5.508-6.563,9.268-5.454C116.094,260.679,118.271,265.044,117.188,269.111z"/>
	<path id="path508" fill="#1089C2" d="M136.582,277.163c-1.445,4.014-5.547,6.46-9.521,5.327c-4.18-1.138-6.572-5.327-5.234-9.365
		c0.84-4.014,5.234-6.533,9.209-5.366C135.137,268.916,137.344,273.125,136.582,277.163"/>
	<path id="path510" fill="none" stroke="#FFFFFF" stroke-width="10" d="M136.582,277.163c-1.445,4.014-5.547,6.46-9.521,5.327
		c-4.18-1.138-6.572-5.327-5.234-9.365c0.84-4.014,5.234-6.533,9.209-5.366C135.137,268.916,137.344,273.125,136.582,277.163z"/>
	<path id="path512" fill="#1089C2" d="M157.109,280.093c-1.104,4.014-5.146,6.387-9.541,5.259c-3.711-1.157-6.309-5.259-5.107-9.302
		c1.113-4.033,5.107-6.587,9.502-5.449C155.742,271.738,158.311,276.05,157.109,280.093"/>
	<path id="path514" fill="none" stroke="#FFFFFF" stroke-width="10" d="M157.109,280.093c-1.104,4.014-5.146,6.387-9.541,5.259
		c-3.711-1.157-6.309-5.259-5.107-9.302c1.113-4.033,5.107-6.587,9.502-5.449C155.742,271.738,158.311,276.05,157.109,280.093z"/>
	<path id="path516" fill="#1089C2" d="M112.412,285.801c-0.83,4.063-5.107,6.353-9.355,5.269c-3.828-1.108-6.27-5.269-5.293-9.37
		c1.318-4.087,5.293-6.382,9.541-5.269C111.25,277.52,113.848,281.68,112.412,285.801"/>
	<path id="path518" fill="none" stroke="#FFFFFF" stroke-width="10" d="M112.412,285.801c-0.83,4.063-5.107,6.353-9.355,5.269
		c-3.828-1.108-6.27-5.269-5.293-9.37c1.318-4.087,5.293-6.382,9.541-5.269C111.25,277.52,113.848,281.68,112.412,285.801z"/>
	<path id="path520" fill="#1089C2" d="M131.709,293.994c-0.967,4.014-5.361,6.274-9.229,5.171c-4.209-1.157-6.387-5.171-5.498-9.224
		c1.289-4.102,5.498-6.572,9.365-5.459C130.684,285.566,132.92,289.941,131.709,293.994"/>
	<path id="path522" fill="none" stroke="#FFFFFF" stroke-width="10" d="M131.709,293.994c-0.967,4.014-5.361,6.274-9.229,5.171
		c-4.209-1.157-6.387-5.171-5.498-9.224c1.289-4.102,5.498-6.572,9.365-5.459C130.684,285.566,132.92,289.941,131.709,293.994
		L131.709,293.994z"/>
	<path id="path524" fill="#1089C2" d="M152.666,296.855c-1.416,4.077-5.518,6.284-9.492,5.19c-4.189-1.113-6.572-5.19-5.225-9.312
		c0.83-4.077,5.225-6.436,9.199-5.322C151.25,288.491,153.457,292.734,152.666,296.855"/>
	<path id="path526" fill="none" stroke="#FFFFFF" stroke-width="10" d="M152.666,296.855c-1.416,4.077-5.518,6.284-9.492,5.19
		c-4.189-1.113-6.572-5.19-5.225-9.312c0.83-4.077,5.225-6.436,9.199-5.322C151.25,288.491,153.457,292.734,152.666,296.855z"/>
	<path id="path528" fill="#1089C2" d="M108.018,302.422c-1.348,4.082-5.352,6.563-9.502,5.479c-4.014-1.113-6.572-5.454-5.146-9.512
		c0.869-4.043,5.146-6.348,9.297-5.181C106.553,294.346,108.965,298.389,108.018,302.422 M127.061,310.664
		c-0.947,4.072-5.107,6.372-9.424,5.288c-3.76-1.113-6.289-5.288-5.225-9.375c1.221-4.097,5.225-6.377,9.541-5.264
		C125.801,302.397,128.389,306.577,127.061,310.664"/>
	<path id="path530" fill="none" stroke="#FFFFFF" stroke-width="10" d="M108.018,302.422c-1.348,4.082-5.352,6.563-9.502,5.479
		c-4.014-1.113-6.572-5.454-5.146-9.512c0.869-4.043,5.146-6.348,9.297-5.181C106.553,294.346,108.965,298.389,108.018,302.422
		 M127.061,310.664c-0.947,4.072-5.107,6.372-9.424,5.288c-3.76-1.113-6.289-5.288-5.225-9.375c1.221-4.097,5.225-6.377,9.541-5.264
		C125.801,302.397,128.389,306.577,127.061,310.664L127.061,310.664z"/>
	<path id="path532" fill="#1089C2" d="M147.803,313.491c-0.947,4.092-5.342,6.47-9.199,5.386c-4.219-1.108-6.396-5.386-5.527-9.463
		c1.309-4.087,5.527-6.284,9.385-5.171C146.758,305.327,149.033,309.375,147.803,313.491"/>
	<path id="path534" fill="none" stroke="#FFFFFF" stroke-width="10" d="M147.803,313.491c-0.947,4.092-5.342,6.47-9.199,5.386
		c-4.219-1.108-6.396-5.386-5.527-9.463c1.309-4.087,5.527-6.284,9.385-5.171C146.758,305.327,149.033,309.375,147.803,313.491z"/>
	<path id="path536" fill="#1089C2" d="M117.559,321.943c0,0.4-0.752,0.596-1.465,0.317c-0.752-0.103-1.416-0.625-1.23-0.996
		c0.205-0.391,0.82-0.571,1.514-0.288C117.07,321.074,117.559,321.563,117.559,321.943 M114.863,321.265l-2.451,8.662
		 M115.342,321.992l-2.178,8.218 M117.559,321.943l-2.393,8.672 M116.807,322.407l-2.178,8.184 M132.207,195.83l-1.523,5.942
		 M132.92,195.918l-1.689,6.206 M167.188,205.43l-1.875,6.006 M166.553,205.22l-1.934,6.064"/>
	<path id="path538" fill="none" stroke="#FFFFFF" stroke-width="10" d="M117.559,321.943c0,0.4-0.752,0.596-1.465,0.317
		c-0.752-0.103-1.416-0.625-1.23-0.996c0.205-0.391,0.82-0.571,1.514-0.288C117.07,321.074,117.559,321.563,117.559,321.943
		 M114.863,321.265l-2.451,8.662 M115.342,321.992l-2.178,8.218 M117.559,321.943l-2.393,8.672 M116.807,322.407l-2.178,8.184
		 M132.207,195.83l-1.523,5.942 M132.92,195.918l-1.689,6.206 M167.188,205.43l-1.875,6.006 M166.553,205.22l-1.934,6.064"/>
	<path id="path540" fill="#1089C2" d="M201.768,126.265c0,0,2.217-8.848,3.574-14.893c2.285-11.787,2.285-17.778,2.285-17.778
		c0-1.597-0.293-3.062-1.836-3.442l-6.953-1.812c-1.465-0.381-2.178,0.4-3.311,1.812c0,0-2.549,5.508-6.27,16.738
		c-2.139,5.952-4.219,13.271-4.219,13.271 M182.646,206.821c-0.635,1.504-2.1,2.271-3.564,1.89l-58.76-16.177
		c-1.504-0.449-2.568-2.061-2.051-3.574l10.254-37.021c0.469-1.528,2.031-2.51,3.604-2.075l58.672,16.333
		c1.465,0.449,2.207,1.909,2.09,3.379L182.646,206.821 M202.52,123.086c-5.146-2.197-11.006-4.067-16.602-5.854 M142.344,109.912
		c0,0-14.131,28.545-22.09,57.49c-9.58,34.697-10.889,46.074-9.463,62.178c0.156,3.281,3.496,7.319,7.178,8.403
		c1.455,0.376,3.232,0.728,3.984,1.108c0.713,0.02,3.213,0.737,5.527,2.549c2.285,1.748,2.656,2.197,3.975,2.925
		c1.465,0.732,1.465,1.118,5.342,2.202c3.877,1.108,4.199,0.728,5.664,0.728c1.465,0.049,2.178,0,5.107-0.347
		c2.93-0.381,5.615,0.435,6.299,0.728c0.654,0.107,2.49,0.703,3.955,1.084c3.682,0.981,8.389-0.786,10.254-3.599
		c9.541-12.9,14.316-23.477,23.867-58.135c7.979-29.014,10.576-60.757,10.576-60.757 M133.896,124.199
		c11.494,1.626,23.496,4.238,34.932,7.319c10.977,3.159,22.803,7.163,33.594,11.558"/>
	<path id="path542" fill="#1089C2" d="M159.287,229.78c-2.578,8.931-11.797,14.414-21.113,11.86
		c-8.896-2.549-14.082-11.86-11.826-20.84c2.646-9.165,11.826-14.37,21.143-11.943C156.357,211.284,161.553,220.801,159.287,229.78
		 M127.813,201.875c2.178,0.63,4.229,1.675,5.107,2.095c0.752,0.728,0.801,1.46,0.107,1.812c-0.82,0.576-2.168,1.519-2.93,2.197
		c-0.82,0.767-1.543,1.113-2.744,0.381c-2.305-1.465-6.865-4.81-8.33-6.587c-0.684-0.732,0-1.113,1.445-1.113
		C121.953,200.591,125.566,201.235,127.813,201.875 M115.918,219.683c1.064,0.449,4.238,2.148,5.264,2.69
		c0.771,0.62,2.236,2.085,2.148,3.828c-0.313,1.919-0.029,5.981,0.801,7.393c0.879,1.841,0.752,2.573-0.713,2.212
		c-1.465-0.103-4.414-1.372-5.596-1.831c-1.016-0.381-2.451-1.172-2.559-2.578c-1.064-2.549-1.387-8.052-0.635-10.64
		C114.629,219.561,115.342,219.609,115.918,219.683"/>
	<path id="path544" fill="none" stroke="#FFFFFF" stroke-width="10" d="M159.287,229.78c-2.578,8.931-11.797,14.414-21.113,11.86
		c-8.896-2.549-14.082-11.86-11.826-20.84c2.646-9.165,11.826-14.37,21.143-11.943C156.357,211.284,161.553,220.801,159.287,229.78
		 M127.813,201.875c2.178,0.63,4.229,1.675,5.107,2.095c0.752,0.728,0.801,1.46,0.107,1.812c-0.82,0.576-2.168,1.519-2.93,2.197
		c-0.82,0.767-1.543,1.113-2.744,0.381c-2.305-1.465-6.865-4.81-8.33-6.587c-0.684-0.732,0-1.113,1.445-1.113
		C121.953,200.591,125.566,201.235,127.813,201.875 M115.918,219.683c1.064,0.449,4.238,2.148,5.264,2.69
		c0.771,0.62,2.236,2.085,2.148,3.828c-0.313,1.919-0.029,5.981,0.801,7.393c0.879,1.841,0.752,2.573-0.713,2.212
		c-1.465-0.103-4.414-1.372-5.596-1.831c-1.016-0.381-2.451-1.172-2.559-2.578c-1.064-2.549-1.387-8.052-0.635-10.64
		C114.629,219.561,115.342,219.609,115.918,219.683L115.918,219.683z"/>
	<path id="path546" fill="#1089C2" d="M167.52,212.798c-2.373-0.537-4.15-0.684-5.303-0.586c-0.713,0.098-1.465,0.537-1.172,1.265
		c0.459,0.903,1.172,2.554,1.318,3.442c0.605,1.133,0.82,1.685,2.383,1.685c2.617,0,8.477-0.405,10.605-1.27
		c0.801-0.415,0.449-0.928-0.664-1.655C173.223,214.658,170.293,213.477,167.52,212.798 M168.828,234.326
		c-1.465-0.308-4.707-0.352-5.859-0.352c-1.055,0.029-2.93,0.654-3.682,2.192c-0.84,1.787-3.057,5.122-4.473,5.854
		c-2.1,1.084-2.119,1.816-0.635,2.275c1.074,0.537,4.395,1.162,5.664,1.348c0.908,0.039,2.373,0.039,3.643-0.869
		c2.109-1.826,5.049-6.416,6.055-8.989C169.902,234.707,169.541,234.58,168.828,234.326"/>
	<path id="path548" fill="none" stroke="#FFFFFF" stroke-width="10" d="M167.52,212.798c-2.373-0.537-4.15-0.684-5.303-0.586
		c-0.713,0.098-1.465,0.537-1.172,1.265c0.459,0.903,1.172,2.554,1.318,3.442c0.605,1.133,0.82,1.685,2.383,1.685
		c2.617,0,8.477-0.405,10.605-1.27c0.801-0.415,0.449-0.928-0.664-1.655C173.223,214.658,170.293,213.477,167.52,212.798
		 M168.828,234.326c-1.465-0.308-4.707-0.352-5.859-0.352c-1.055,0.029-2.93,0.654-3.682,2.192c-0.84,1.787-3.057,5.122-4.473,5.854
		c-2.1,1.084-2.119,1.816-0.635,2.275c1.074,0.537,4.395,1.162,5.664,1.348c0.908,0.039,2.373,0.039,3.643-0.869
		c2.109-1.826,5.049-6.416,6.055-8.989C169.902,234.707,169.541,234.58,168.828,234.326L168.828,234.326z"/>
	<path id="path550" fill="#1089C2" d="M165.898,136.362l5.859-20.215"/>
	<path id="path552" fill="none" stroke="#FFFFFF" stroke-width="10" d="M165.898,136.362l5.859-20.215"/>
	<path id="path554" fill="#1089C2" d="M167.969,136.992l5.332-20.4"/>
	<path id="path556" fill="none" stroke="#FFFFFF" stroke-width="10" d="M167.969,136.992l5.332-20.4"/>
	<path id="path558" fill="none" stroke="#FFFFFF" stroke-width="10" d="M206.973,195.83c2.129-7.964,11.66-47.48,11.689-52.988
		c0.684-5.469-1.494-12.441-4.424-13.901c0-1.816,0.078-2.925,0.078-2.925c-0.684-0.352-1.436-0.713-2.139-0.928l0.498,0.146
		c0,0,2.002-8.848,3.027-14.941c2.314-11.748,2.803-17.72,2.803-17.72c-0.049-1.689-0.625-3.14-2.09-3.501l-6.68-1.846
		c-1.533-0.352-2.822,0.469-3.574,1.89c0,0-2.783,5.449-6.572,16.787c-1.924,5.854-3.682,13.174-3.682,13.174l0,0
		c-4.15-1.226-8.037-2.578-12.432-3.662c-10.664-2.925-21.26-5.122-32.119-6.86c0,0-0.313,1.006-1.348,2.817l0,0
		c-3.154-0.347-8.301,4.492-11.025,9.517c-2.383,4.78-14.854,43.56-17.031,51.377c-2.217,7.9-6.582,28.042-8.105,38.091
		c-2.148,10.063-3.613,27.544-10.225,50.767c-3.643,13.843-9.893,34.336-13.184,42.739c-0.713,2.261-7.324,13.633,2.217,17.559
		c9.502,3.745,24.15,7.915,31.309,9.897c7.109,1.953,21.426,5.854,31.68,7.427c10.254,1.704,10.303-11.465,10.967-13.848
		c1.465-8.945,6.611-29.771,10.508-43.345c6.357-23.428,14.014-39.219,17.412-48.857c3.594-9.57,10.273-29.063,12.441-36.86V195.83z
		"/>
	<path id="path560" fill="none" stroke="#FFFFFF" stroke-width="10" d="M207.627,92.734c0,0-2.93-0.869-5.859-1.65
		c-2.256-0.601-5.859-1.582-5.859-1.582"/>
	<path id="path562" fill="none" stroke="#FFFFFF" stroke-width="10" d="M196.66,196.87c2.178-7.92,10.967-47.441,11.719-52.91
		c0.088-5.503-1.797-12.441-4.697-13.911c0.303-1.86,0.303-2.949,0.303-2.949c-0.752-0.352-1.465-0.703-2.217-0.972v0.137
		c0,0,2.217-8.848,3.574-14.893c2.285-11.787,2.285-17.778,2.285-17.778c0-1.597-0.293-3.062-1.836-3.442l-6.953-1.812
		c-1.465-0.381-2.178,0.4-3.311,1.812c0,0-2.549,5.508-6.27,16.738c-2.139,5.952-4.219,13.271-4.219,13.271h0.186
		c-3.965-1.279-8.35-2.554-12.344-3.662c-10.664-2.925-21.416-5.151-31.885-6.929c0,0-0.752,1.074-1.465,2.92l0,0
		c-3.32-0.381-8.789,4.414-11.006,9.473c-2.588,4.785-15.049,43.569-17.207,51.338c-2.178,7.979-6.23,28.091-8.408,38.071
		c-1.631,10.161-3.496,27.539-9.824,50.801c-3.916,13.877-9.971,34.375-13.096,42.803c-0.996,2.192-7.842,13.569,2.168,17.563
		c9.736,3.657,23.682,7.813,31.006,9.863c7.324,1.904,21.768,5.84,31.953,7.383c10.469,1.782,10.527-11.392,10.713-13.862
		c1.777-8.887,7.139-29.731,10.781-43.345c6.563-23.364,13.936-39.229,17.578-48.848C187.734,224.126,194.443,204.697,196.66,196.87
		L196.66,196.87z"/>
	<path id="path564" fill="none" stroke="#FFFFFF" stroke-width="10" d="M121.953,252.271c-1.426,4.009-5.449,6.484-9.541,5.337
		c-4.092-1.113-6.572-5.337-5.146-9.38c0.791-4.014,5.146-6.509,9.238-5.381C120.488,243.999,122.813,248.228,121.953,252.271z"/>
	<path id="path566" fill="none" stroke="#FFFFFF" stroke-width="10" d="M140.996,260.342c-1.074,4.067-5.146,6.572-9.541,5.464
		c-3.721-1.084-6.289-5.464-5.107-9.526c1.074-4.009,5.107-6.323,9.502-5.176C139.619,252.246,142.217,256.279,140.996,260.342
		L140.996,260.342z"/>
	<path id="path568" fill="none" stroke="#FFFFFF" stroke-width="10" d="M161.611,263.252c-0.859,4.019-5.254,6.558-9.209,5.425
		c-4.082-1.143-6.299-5.425-5.488-9.463c1.406-4.019,5.488-6.411,9.443-5.293C160.596,255.088,162.969,259.214,161.611,263.252
		L161.611,263.252z"/>
	<path id="path570" fill="none" stroke="#FFFFFF" stroke-width="10" d="M117.188,269.111c-1.094,4.014-5.488,6.318-9.248,5.142
		c-4.316-1.113-6.494-5.142-5.508-9.209c1.191-4.077,5.508-6.563,9.268-5.454C116.094,260.679,118.271,265.044,117.188,269.111z"/>
	<path id="path572" fill="none" stroke="#FFFFFF" stroke-width="10" d="M136.582,277.163c-1.445,4.014-5.547,6.46-9.521,5.327
		c-4.18-1.138-6.572-5.327-5.234-9.365c0.84-4.014,5.234-6.533,9.209-5.366C135.137,268.916,137.344,273.125,136.582,277.163z"/>
	<path id="path574" fill="none" stroke="#FFFFFF" stroke-width="10" d="M157.109,280.093c-1.104,4.014-5.146,6.387-9.541,5.259
		c-3.711-1.157-6.309-5.259-5.107-9.302c1.113-4.033,5.107-6.587,9.502-5.449C155.742,271.738,158.311,276.05,157.109,280.093z"/>
	<path id="path576" fill="none" stroke="#FFFFFF" stroke-width="10" d="M112.412,285.801c-0.83,4.063-5.107,6.353-9.355,5.269
		c-3.828-1.108-6.27-5.269-5.293-9.37c1.318-4.087,5.293-6.382,9.541-5.269C111.25,277.52,113.848,281.68,112.412,285.801z"/>
	<path id="path578" fill="none" stroke="#FFFFFF" stroke-width="10" d="M131.709,293.994c-0.967,4.014-5.361,6.274-9.229,5.171
		c-4.209-1.157-6.387-5.171-5.498-9.224c1.289-4.102,5.498-6.572,9.365-5.459C130.684,285.566,132.92,289.941,131.709,293.994
		L131.709,293.994z"/>
	<path id="path580" fill="none" stroke="#FFFFFF" stroke-width="10" d="M152.666,296.855c-1.416,4.077-5.518,6.284-9.492,5.19
		c-4.189-1.113-6.572-5.19-5.225-9.312c0.83-4.077,5.225-6.436,9.199-5.322C151.25,288.491,153.457,292.734,152.666,296.855z"/>
	<path id="path582" fill="none" stroke="#FFFFFF" stroke-width="10" d="M108.018,302.422c-1.348,4.082-5.352,6.563-9.502,5.479
		c-4.014-1.113-6.572-5.454-5.146-9.512c0.869-4.043,5.146-6.348,9.297-5.181C106.553,294.346,108.965,298.389,108.018,302.422
		 M127.061,310.664c-0.947,4.072-5.107,6.372-9.424,5.288c-3.76-1.113-6.289-5.288-5.225-9.375c1.221-4.097,5.225-6.377,9.541-5.264
		C125.801,302.397,128.389,306.577,127.061,310.664L127.061,310.664z"/>
	<path id="path584" fill="none" stroke="#FFFFFF" stroke-width="10" d="M147.803,313.491c-0.947,4.092-5.342,6.47-9.199,5.386
		c-4.219-1.108-6.396-5.386-5.527-9.463c1.309-4.087,5.527-6.284,9.385-5.171C146.758,305.327,149.033,309.375,147.803,313.491z"/>
	<path id="path586" fill="none" stroke="#FFFFFF" stroke-width="10" d="M117.559,321.943c0,0.4-0.752,0.596-1.465,0.317
		c-0.752-0.103-1.416-0.625-1.23-0.996c0.205-0.391,0.82-0.571,1.514-0.288C117.07,321.074,117.559,321.563,117.559,321.943
		 M114.863,321.265l-2.451,8.662 M115.342,321.992l-2.178,8.218 M117.559,321.943l-2.393,8.672 M116.807,322.407l-2.178,8.184
		 M132.207,195.83l-1.523,5.942 M132.92,195.918l-1.689,6.206 M167.188,205.43l-1.875,6.006 M166.553,205.22l-1.934,6.064"/>
	<path id="path588" fill="none" stroke="#FFFFFF" stroke-width="10" d="M201.768,126.265c0,0,2.217-8.848,3.574-14.893
		c2.285-11.787,2.285-17.778,2.285-17.778c0-1.597-0.293-3.062-1.836-3.442l-6.953-1.812c-1.465-0.381-2.178,0.4-3.311,1.812
		c0,0-2.549,5.508-6.27,16.738c-2.139,5.952-4.219,13.271-4.219,13.271 M182.646,206.821c-0.635,1.504-2.1,2.271-3.564,1.89
		l-58.76-16.177c-1.504-0.449-2.568-2.061-2.051-3.574l10.254-37.021c0.469-1.528,2.031-2.51,3.604-2.075l58.672,16.333
		c1.465,0.449,2.207,1.909,2.09,3.379L182.646,206.821 M202.52,123.086c-5.146-2.197-11.006-4.067-16.602-5.854 M142.344,109.912
		c0,0-14.131,28.545-22.09,57.49c-9.58,34.697-10.889,46.074-9.463,62.178c0.156,3.281,3.496,7.319,7.178,8.403
		c1.455,0.376,3.232,0.728,3.984,1.108c0.713,0.02,3.213,0.737,5.527,2.549c2.285,1.748,2.656,2.197,3.975,2.925
		c1.465,0.732,1.465,1.118,5.342,2.202c3.877,1.108,4.199,0.728,5.664,0.728c1.465,0.049,2.178,0,5.107-0.347
		c2.93-0.381,5.615,0.435,6.299,0.728c0.654,0.107,2.49,0.703,3.955,1.084c3.682,0.981,8.389-0.786,10.254-3.599
		c9.541-12.9,14.316-23.477,23.867-58.135c7.979-29.014,10.576-60.757,10.576-60.757 M133.896,124.199
		c11.494,1.626,23.496,4.238,34.932,7.319c10.977,3.159,22.803,7.163,33.594,11.558"/>
	<path id="path590" fill="none" stroke="#FFFFFF" stroke-width="10" d="M159.287,229.78c-2.578,8.931-11.797,14.414-21.113,11.86
		c-8.896-2.549-14.082-11.86-11.826-20.84c2.646-9.165,11.826-14.37,21.143-11.943C156.357,211.284,161.553,220.801,159.287,229.78
		 M127.813,201.875c2.178,0.63,4.229,1.675,5.107,2.095c0.752,0.728,0.801,1.46,0.107,1.812c-0.82,0.576-2.168,1.519-2.93,2.197
		c-0.82,0.767-1.543,1.113-2.744,0.381c-2.305-1.465-6.865-4.81-8.33-6.587c-0.684-0.732,0-1.113,1.445-1.113
		C121.953,200.591,125.566,201.235,127.813,201.875 M115.918,219.683c1.064,0.449,4.238,2.148,5.264,2.69
		c0.771,0.62,2.236,2.085,2.148,3.828c-0.313,1.919-0.029,5.981,0.801,7.393c0.879,1.841,0.752,2.573-0.713,2.212
		c-1.465-0.103-4.414-1.372-5.596-1.831c-1.016-0.381-2.451-1.172-2.559-2.578c-1.064-2.549-1.387-8.052-0.635-10.64
		C114.629,219.561,115.342,219.609,115.918,219.683L115.918,219.683z"/>
	<path id="path592" fill="none" stroke="#FFFFFF" stroke-width="10" d="M167.52,212.798c-2.373-0.537-4.15-0.684-5.303-0.586
		c-0.713,0.098-1.465,0.537-1.172,1.265c0.459,0.903,1.172,2.554,1.318,3.442c0.605,1.133,0.82,1.685,2.383,1.685
		c2.617,0,8.477-0.405,10.605-1.27c0.801-0.415,0.449-0.928-0.664-1.655C173.223,214.658,170.293,213.477,167.52,212.798
		 M168.828,234.326c-1.465-0.308-4.707-0.352-5.859-0.352c-1.055,0.029-2.93,0.654-3.682,2.192c-0.84,1.787-3.057,5.122-4.473,5.854
		c-2.1,1.084-2.119,1.816-0.635,2.275c1.074,0.537,4.395,1.162,5.664,1.348c0.908,0.039,2.373,0.039,3.643-0.869
		c2.109-1.826,5.049-6.416,6.055-8.989C169.902,234.707,169.541,234.58,168.828,234.326L168.828,234.326z"/>
	<path id="path594" fill="none" stroke="#FFFFFF" stroke-width="10" d="M165.898,136.362l5.859-20.215"/>
	<path id="path596" fill="none" stroke="#FFFFFF" stroke-width="10" d="M167.969,136.992l5.332-20.4"/>
</g>
</svg>
