<?xml version="1.0" encoding="utf-8"?>
<!-- Generator: Adobe Illustrator 16.0.0, SVG Export Plug-In . SVG Version: 6.00 Build 0)  -->
<!DOCTYPE svg PUBLIC "-//W3C//DTD SVG 1.1//EN" "http://www.w3.org/Graphics/SVG/1.1/DTD/svg11.dtd">
<svg version="1.1"
	 id="svg2" xmlns:dc="http://purl.org/dc/elements/1.1/" xmlns:cc="http://creativecommons.org/ns#" xmlns:rdf="http://www.w3.org/1999/02/22-rdf-syntax-ns#" xmlns:svg="http://www.w3.org/2000/svg"
	 xmlns="http://www.w3.org/2000/svg" xmlns:xlink="http://www.w3.org/1999/xlink" x="0px" y="0px" width="77px" height="28px"
	 viewBox="0 0 77 28" enable-background="new 0 0 77 28" xml:space="preserve">
<g id="g12" transform="scale(0.1,0.1)">
	<path id="path22" fill="#02709F" d="M0.354,279.236H639.26V120.105H0.354V279.236z"/>
	<path id="path24" fill="none" stroke="#FFFFFF" stroke-width="3.9999" d="M0.354,279.236H639.26V120.105H0.354V279.236z"/>
	<path id="path26" fill="#02709F" d="M639.26,279.997V120.105H0.002L157.991-0.002h612.012V133.25L639.26,279.997"/>
	<path id="path28" fill="none" stroke="#FFFFFF" stroke-width="3.9999" d="M639.26,279.997V120.105H0.002L157.991-0.002h612.012
		V133.25L639.26,279.997z"/>
	<path id="path30" fill="#02709F" d="M646.038,117.195L760.803,2.542"/>
	<path id="path32" fill="none" stroke="#FFFFFF" stroke-width="3.9999" d="M646.038,117.195L760.803,2.542"/>
	<path id="path34" fill="#FFFFFF" d="M110.828,226.902c12.505,0,22.681-9.98,22.681-22.588c0-12.607-10.176-22.578-22.681-22.578
		c-12.661,0-22.827,9.971-22.827,22.578C88,216.921,98.167,226.902,110.828,226.902"/>
	<path id="path36" fill="#FFFFFF" d="M212.742,226.902c12.505,0,22.681-9.98,22.681-22.588c0-12.607-10.176-22.578-22.681-22.578
		c-12.661,0-22.827,9.971-22.827,22.578C189.915,216.921,200.081,226.902,212.742,226.902"/>
	<path id="path38" fill="#FFFFFF" d="M314.661,226.902c12.5,0,22.676-9.98,22.676-22.588c0-12.607-10.176-22.578-22.676-22.578
		c-12.666,0-22.832,9.971-22.832,22.578C291.829,216.921,301.995,226.902,314.661,226.902"/>
	<path id="path40" fill="#FFFFFF" d="M416.565,226.902c12.666,0,22.686-9.98,22.686-22.588c0-12.607-10.02-22.578-22.686-22.578
		c-12.656,0-22.666,9.971-22.666,22.578C393.899,216.921,403.909,226.902,416.565,226.902"/>
	<path id="path42" fill="#FFFFFF" d="M518.635,226.902c12.344,0,22.676-9.98,22.676-22.588c0-12.607-10.332-22.578-22.676-22.578
		c-12.656,0-22.979,9.971-22.979,22.578C495.657,216.921,505.979,226.902,518.635,226.902"/>
</g>
</svg>
