<?xml version="1.0" encoding="utf-8"?>
<!-- Generator: Adobe Illustrator 16.0.0, SVG Export Plug-In . SVG Version: 6.00 Build 0)  -->
<!DOCTYPE svg PUBLIC "-//W3C//DTD SVG 1.1//EN" "http://www.w3.org/Graphics/SVG/1.1/DTD/svg11.dtd">
<svg version="1.1"
	 id="svg2" xmlns:dc="http://purl.org/dc/elements/1.1/" xmlns:cc="http://creativecommons.org/ns#" xmlns:rdf="http://www.w3.org/1999/02/22-rdf-syntax-ns#" xmlns:svg="http://www.w3.org/2000/svg"
	 xmlns="http://www.w3.org/2000/svg" xmlns:xlink="http://www.w3.org/1999/xlink" x="0px" y="0px" width="56px" height="80px"
	 viewBox="0 0 56 80" enable-background="new 0 0 56 80" xml:space="preserve">
<g id="g12" transform="scale(0.1,0.1)">
	<path id="path22" fill="#02709F" d="M14.998,785.005h401.641V143.55H14.998V785.005z"/>
	<path id="path24" fill="none" stroke="#FFFFFF" stroke-width="3.9999" d="M416.638,143.55H14.998v641.455h401.641"/>
	<path id="path26" fill="#02709F" d="M544.998,15h-401.67L14.998,143.55h401.641L544.998,15"/>
	<path id="path28" fill="none" stroke="#FFFFFF" stroke-width="3.9999" d="M544.998,15h-401.67L14.998,143.55h401.641L544.998,15z"
		/>
	<path id="path30" fill="#02709F" d="M416.638,143.55v641.455L544.998,656.45V15L416.638,143.55"/>
	<path id="path32" fill="none" stroke="#FFFFFF" stroke-width="3.9999" d="M416.638,143.55v641.455L544.998,656.45V15
		L416.638,143.55z"/>
	<path id="path34" fill="#02709F" d="M416.638,143.55L544.998,15"/>
	<path id="path36" fill="none" stroke="#FFFFFF" stroke-width="3.9999" d="M416.638,143.55L544.998,15"/>
	<path id="path38" fill="none" stroke="#FFFFFF" stroke-width="3.9999" d="M21.428,393.618h391.528"/>
	<path id="path40" fill="none" stroke="#FFFFFF" stroke-width="3.9999" d="M21.428,687.934h391.528"/>
	<path id="path42" fill="none" stroke="#FFFFFF" stroke-width="3.9999" d="M112.908,242.866h114.15"/>
	<path id="path44" fill="none" stroke="#FFFFFF" stroke-width="3.9999" d="M67.166,282.368H269.48v-81.992H67.166V282.368z"/>
	<path id="path46" fill="#FFFFFF" d="M149.021,672.29l-8.584-297.461l216.27-82.793l4.395,337.949h-12.744l-14.941-191.504
		l-173.838,61.641v169.961L149.021,672.29"/>
	<path id="path48" fill="#FFFFFF" d="M360.144,636.899c0.977,20.41-23.936,38.887-56.143,40.586
		c-32.217,2.109-59.277-12.93-60.449-33.73c-1.172-20.41,23.75-38.496,55.977-40.586
		C331.765,601.45,358.787,616.489,360.144,636.899"/>
	<path id="path50" fill="#FFFFFF" d="M159.48,681.391c1.172,20.801-23.945,38.887-56.182,40.605
		c-32.026,2.09-59.053-12.949-60.42-33.359c-1.172-20.781,23.945-38.887,56.172-40.586
		C131.057,645.923,158.308,660.981,159.48,681.391"/>
	<path id="path52" fill="#7F7F7F" d="M330.876,408.071l-165.674,57.305v-31.719l165.674-57.637V408.071"/>
</g>
</svg>
