<?xml version="1.0" encoding="utf-8"?>
<!-- Generator: Adobe Illustrator 16.0.0, SVG Export Plug-In . SVG Version: 6.00 Build 0)  -->
<!DOCTYPE svg PUBLIC "-//W3C//DTD SVG 1.1//EN" "http://www.w3.org/Graphics/SVG/1.1/DTD/svg11.dtd">
<svg version="1.1" id="图层_1" xmlns="http://www.w3.org/2000/svg" xmlns:xlink="http://www.w3.org/1999/xlink" x="0px" y="0px"
	 width="512px" height="512px" viewBox="0 0 512 512" enable-background="new 0 0 512 512" xml:space="preserve">
<g>
	<path fill="#41E3BE" d="M501.191,100.55c-11-62.9-26.1-77.9-89.899-89.1c-40.7-7.1-98-11.2-157.4-11.2
		c-58.8,0-113.2,3.9-153.2,10.8c-63,11-78,26.1-89.1,89.9c-14.8,84.5-15,226.7-0.5,310.5c10.9,62.899,26.1,77.899,89.9,89.1
		c40.7,7.101,98.2,11.2,157.7,11.2c58.7,0,113-3.8,153-10.7c63-11,78-26.1,89.101-89.899
		C515.492,326.65,515.691,184.35,501.191,100.55 M485.292,408.45c-10,57.2-20,67.3-76.3,77.1c-39,6.8-92.4,10.5-150.2,10.5
		c-58.6,0-115.1-4-155-11c-57.3-10-67.3-20-77.1-76.3c-14.3-82.4-14-222.2,0.5-305.2c10-57.2,20-67.3,76.3-77.1
		c39.1-6.8,92.5-10.5,150.5-10.5c58.4,0,114.8,4,154.6,11c57.2,10,67.3,20,77.1,76.3C499.992,185.65,499.792,325.35,485.292,408.45"
		/>
	<polygon fill="#41E3BE" points="122.892,122.75 200.692,122.75 214.892,96.25 96.492,96.25 96.492,215.25 122.892,201.05 	"/>
	<polygon fill="#41E3BE" points="122.892,389.25 122.892,311.65 96.492,297.25 96.492,415.75 214.792,415.75 200.592,389.25 	"/>
	<polygon fill="#41E3BE" points="389.492,389.25 311.292,389.25 297.191,415.75 415.892,415.75 415.892,297.35 389.492,311.45 	"/>
	<polygon fill="#41E3BE" points="389.492,122.75 389.492,200.15 415.892,214.35 415.892,96.25 297.392,96.25 311.592,122.75 	"/>
	<path fill="#41E3BE" d="M267.092,155.75l58.5,30.8l-69.4-131.9l-69.399,131.9l58.5-30.8
		C252.092,152.15,260.292,152.15,267.092,155.75"/>
	<path fill="#41E3BE" d="M245.292,356.25l-58.5-30.8l69.399,131.899l69.4-131.899l-58.5,30.8
		C260.292,359.85,252.092,359.85,245.292,356.25"/>
	<path fill="#41E3BE" d="M356.392,245.15c3.601,6.8,3.601,15,0,21.8l-30.8,58.5l131.9-69.4l-131.9-69.5L356.392,245.15z"/>
	<path fill="#41E3BE" d="M155.992,245.15l30.8-58.5l-131.9,69.3l131.9,69.399l-30.8-58.5
		C152.392,260.05,152.392,251.95,155.992,245.15"/>
</g>
</svg>
