<svg version="1.1" id="ilhwsa8q1" xmlns:xml="http://www.w3.org/XML/1998/namespace"
	 xmlns="http://www.w3.org/2000/svg" xmlns:xlink="http://www.w3.org/1999/xlink" x="0px" y="0px" width="78px" height="65px"
	 viewBox="0 0 78 65" enable-background="new 0 0 78 65" xml:space="preserve">
<g>
	<path fill="#AEB7BE" d="M51.089,63.051h-4.42c-0.323,0-0.455-0.064-0.647-0.326c-2.275-2.99-2.666-4.42-2.146-10.854
		c0-0.391-0.391-0.586-0.779-0.455c-2.533,0.521-5.137,0.585-7.67,0.064c-0.391-0.064-0.781,0.194-0.781,0.521
		c0.262,6.501-0.064,7.931-2.145,10.724c-0.195,0.262-0.325,0.326-0.65,0.326h-4.94c-0.65,0-1.04,0.064-1.04,0.715v0.195
		c0,0.779,0.521,1.039,1.3,1.039h23.854c0.781,0,0.847-0.391,0.847-1.168v0.064C51.87,63.115,51.87,63.051,51.089,63.051z"/>
	<path fill="#D1D8E0" d="M46.669,63.051h4.42c0.781,0,0.847,0.064,0.847,0.846v-0.063c0,0.776-0.129,1.168-0.91,1.168H27.17
		c-0.779,0-1.234-0.26-1.234-1.039v-0.194c0-0.65,0.39-0.716,0.975-0.716h4.939L46.669,63.051L46.669,63.051z"/>
	<path fill="#D1D8E0" d="M78,52.65c0,1.17-0.975,2.145-2.146,2.145H2.145C0.975,54.794,0,53.82,0,52.65V2.146
		C0,0.976,0.975,0,2.145,0h73.71C77.025,0,78,0.976,78,2.146V52.65z"/>
	<path fill="#2D343D" d="M78,48.945H0V2.341C0,1.041,1.041,0,2.34,0h73.45C77.025,0,78,0.976,78,2.21V48.945z"/>
	<rect x="2.47" y="4.551" fill="#FFFFFF" width="72.801" height="41.6"/>
	<circle fill="#A8AEAF" cx="39" cy="2.341" r="0.455"/>
</g>
</svg>
