<?xml version="1.0" encoding="utf-8"?>
<!-- Generator: Adobe Illustrator 16.0.0, SVG Export Plug-In . SVG Version: 6.00 Build 0)  -->
<!DOCTYPE svg PUBLIC "-//W3C//DTD SVG 1.1//EN" "http://www.w3.org/Graphics/SVG/1.1/DTD/svg11.dtd">
<svg version="1.1"
	 id="svg2" xmlns:dc="http://purl.org/dc/elements/1.1/" xmlns:cc="http://creativecommons.org/ns#" xmlns:rdf="http://www.w3.org/1999/02/22-rdf-syntax-ns#" xmlns:svg="http://www.w3.org/2000/svg"
	 xmlns="http://www.w3.org/2000/svg" xmlns:xlink="http://www.w3.org/1999/xlink" x="0px" y="0px" width="78px" height="44px"
	 viewBox="0 0 78 44" enable-background="new 0 0 78 44" xml:space="preserve">
	<g id="g12" transform="scale(0.1,0.1)">
					<path id="path22" fill="#087BBB" d="M9.28,193.987L239.895,7.502h532.329L581.316,193.987H9.28"/>
					<path id="path24" fill="none" stroke="#FFFFFF" stroke-width="4" d="M9.28,193.987L239.895,7.502h532.329L581.316,193.987H9.28z
					"/>
					<path id="path26" fill="#087BBB" d="M581.316,431.858l190.908-194.385V7.864L581.316,193.987V431.858"/>
					<path id="path28" fill="none" stroke="#FFFFFF" stroke-width="4" d="M581.316,431.858l190.908-194.385V7.864L581.316,193.987
					V431.858z"/>
					<path id="path30" fill="#087BBB" d="M10.149,432.014h571.167V193.987H10.149V432.014z"/>
					<path id="path32" fill="none" stroke="#FFFFFF" stroke-width="4" d="M10.149,432.014h571.167V193.987H10.149V432.014z"/>
					<path id="path34" fill="none" stroke="#FFFFFF" stroke-width="8" stroke-miterlimit="1" d="M358.826,160.959
					c34.326-26.533,78.291-39.365,78.291-39.365c51.748-18.857,71.758-40.957,71.758-40.957
					c49.229-54.941-44.316-56.26-44.316-56.26s-98.135-0.41-147.988,49.424c0,0-25.156,24.238-11.797,44.561
					c0,0,17.139,14.395-0.84,41.328"/>
					<path id="path36" fill="none" stroke="#FFFFFF" stroke-width="2.5" stroke-miterlimit="1" d="M359.988,161.877
					c-1.367,1.475-4.668,2.617-7.207,2.559l-49.756-1.172c-2.563-0.049-3.403-1.279-2.031-2.754l0,0
					c1.455-1.484,4.717-2.627,7.188-2.588l49.854,1.172C360.593,159.143,361.414,160.471,359.988,161.877L359.988,161.877z"/>
					<path id="path38" fill="none" stroke="#FFFFFF" stroke-width="2.5" stroke-miterlimit="1" d="M353.562,168.459
					c-1.367,1.406-4.629,2.549-7.109,2.51l-49.839-1.182c-2.554-0.049-3.403-1.279-1.953-2.773l0,0
					c1.372-1.465,4.644-2.627,7.124-2.578l49.844,1.191C354.167,165.676,355.037,166.975,353.562,168.459L353.562,168.459z"/>
					<path id="path40" fill="none" stroke="#FFFFFF" stroke-width="2.5" stroke-miterlimit="1" d="M347.253,174.983
					c-1.465,1.484-4.746,2.627-7.207,2.49l-49.849-1.172c-2.549-0.039-3.408-1.279-1.948-2.764l0,0
					c1.475-1.494,4.653-2.627,7.212-2.578l49.839,1.182C347.781,172.268,348.621,173.489,347.253,174.983L347.253,174.983z"/>
					<path id="path42" fill="#FFFFFF" d="M499.626,132.131l21.221,48.271l-71.523-26.27"/>
					<path id="path44" fill="none" stroke="#FFFFFF" stroke-width="4" stroke-linecap="round" stroke-miterlimit="1" d="
					M494.255,154.417l-35.518-21.943"/>
					<path id="path46" fill="#FFFFFF" d="M317.927,34.895l-73.096-14.961l23.667,37.686"/>
					<path id="path48" fill="none" stroke="#FFFFFF" stroke-width="4" stroke-linecap="round" stroke-miterlimit="1" d="
					M313.699,52.854L279.68,38.352"/>
					<path id="path50" fill="#FFFFFF" d="M267.776,154.026L164.026,163l69.907-37.148"/>
					<path id="path52" fill="none" stroke="#FFFFFF" stroke-width="4" stroke-linecap="round" stroke-miterlimit="1" d="
					M233.733,144.973l42.822-12.451"/>
					<path id="path54" fill="#FFFFFF" d="M558.572,34.807l84.434,8.066l-78.018,25.303"/>
					<path id="path56" fill="none" stroke="#FFFFFF" stroke-width="4" stroke-linecap="round" stroke-miterlimit="1" d="
					M586.726,49.875l-45.01,8.545"/>
					<path id="path58" fill="#FFFFFF" d="M198.406,106.819l87.139-19.375l-61.65-12.227"/>
					<path id="path60" fill="none" stroke="#FFFFFF" stroke-width="4" stroke-linecap="round" stroke-miterlimit="1" d="
					M170.583,90.012l49.155,0.195"/>
					<path id="path62" fill="none" stroke="#FFFFFF" stroke-width="4" stroke-linecap="round" stroke-miterlimit="1" d="
					M565.007,107.786l49.082,0.293"/>
					<path id="path64" fill="#FFFFFF" d="M587.146,88.606l-76.934,15.156l74.131,23.33"/>
					<path id="path66" fill="none" stroke="#FFFFFF" stroke-width="2.5" stroke-miterlimit="1" d="M299.07,180.696
					c12.422,9.248,29.941,0.732,29.941,0.732"/>
					<g id="g68" transform="scale(10,10)" style="font-variant:normal;font-weight:bold;font-size:13.1924px;font-family:Helvetica;-inkscape-font-specification:Helvetica-Bold;writing-mode:lr-tb;fill:#ffffff;fill-opacity:1;fill-rule:nonzero;stroke:none">
						<text transform="matrix(1 0 0 1 16.5262 36.4738)">M</text>
						<text transform="matrix(1 0 0 1 27.5144 36.4738)">S</text>
						<text transform="matrix(1 0 0 1 36.3142 36.4738)">E</text>
					</g>
	</g>
</svg>
