<?xml version="1.0" encoding="utf-8"?>
<!-- Generator: Adobe Illustrator 16.0.0, SVG Export Plug-In . SVG Version: 6.00 Build 0)  -->
<!DOCTYPE svg PUBLIC "-//W3C//DTD SVG 1.1//EN" "http://www.w3.org/Graphics/SVG/1.1/DTD/svg11.dtd">
<svg version="1.1" id="图层_1" xmlns="http://www.w3.org/2000/svg" xmlns:xlink="http://www.w3.org/1999/xlink" x="0px" y="0px"
	 width="512px" height="512px" viewBox="0 0 512 512" enable-background="new 0 0 512 512" xml:space="preserve">
<g>
	<path fill="#47A6E9" d="M258.256,510h-0.008c-59.003,0-116.025-4.052-156.434-11.121c-63.337-11.091-78.335-25.959-89.152-88.42
		c-14.404-83.149-14.183-224.212,0.48-308.031c11.06-63.299,25.937-78.297,88.405-89.152c39.64-6.886,93.615-10.687,151.978-10.687
		c58.881,0,115.781,4.045,156.091,11.098c63.313,11.083,78.305,25.959,89.151,88.42c14.428,83.164,14.229,224.258-0.441,308.092
		c-11.045,63.313-25.929,78.305-88.405,89.167C370.343,506.222,316.474,510,258.256,510 M253.526,18.188
		c-57.495,0-110.518,3.717-149.312,10.458c-55.88,9.704-65.782,19.713-75.7,76.461c-14.419,82.38-14.633,220.997-0.48,302.699
		c9.674,55.85,19.683,65.768,76.469,75.716c39.564,6.915,95.596,10.877,153.745,10.877h0.008c57.365,0,110.274-3.688,149-10.391
		c55.896-9.72,65.797-19.729,75.715-76.492c14.412-82.402,14.61-221.036,0.442-302.745c-9.72-55.872-19.729-65.782-76.478-75.715
		C367.464,22.149,311.538,18.188,253.526,18.188"/>
	<path fill="#47A6E9" d="M403.902,285.6c-0.034,1.103-0.702,22.021-7.4,34.606c-33.687,63.287-113.472,101.745-139.045,113.13
		c-0.053,0.027-0.63,0.32-1.253,0.584v0.412c-0.007,0.001-0.015,0.006-0.021,0.006c-0.177-0.003-0.431-0.063-0.704-0.142
		c-0.234,0.074-0.456,0.136-0.612,0.139v-0.348c-0.766-0.28-1.53-0.625-1.595-0.655c-25.579-11.385-105.36-49.844-139.046-113.131
		c-6.699-12.585-6.699-33.506-6.699-34.607l-9.144-165.703l156.484-41.473v-0.165h0.62l0.009-0.002h0.708v0.138l156.872,41.504
		L403.902,285.6z M318.406,194.942c-2.245,0.002-4.56,0.108-6.928,0.324c-0.577-2.171-11.396-42.743-55.313-44.117v-0.025
		c-0.259-0.002-0.512-0.011-0.773-0.011c-3.265,0-6.708,0.229-10.326,0.708c-54.434,7.228-47.834,53.652-47.487,56.095
		c-0.054-0.005-1.09-0.063-2.97-0.063c-10.636,0-46.501,2.664-53.064,37.636c-7.449,39.73,29.043,57.255,48.865,60.411
		l35.211-66.773l21.196,38.757l-15.058,28.557h25.932v0.003h19.945l-43.082-81.699l21.196-38.756l63.222,119.891
		c11.923-1.652,35.777-8.139,48.804-33.601C384.348,239.913,364.802,194.94,318.406,194.942"/>
</g>
</svg>
