<?xml version="1.0" encoding="utf-8"?>
<!-- Generator: Adobe Illustrator 16.0.0, SVG Export Plug-In . SVG Version: 6.00 Build 0)  -->
<!DOCTYPE svg PUBLIC "-//W3C//DTD SVG 1.1//EN" "http://www.w3.org/Graphics/SVG/1.1/DTD/svg11.dtd">
<svg version="1.1" id="图层_1" xmlns="http://www.w3.org/2000/svg" xmlns:xlink="http://www.w3.org/1999/xlink" x="0px" y="0px"
	 width="421.549px" height="425.2px" viewBox="0 0 421.549 425.2" enable-background="new 0 0 421.549 425.2" xml:space="preserve">
<g>
	<path fill="#47A6E9" d="M212.874,422.009h-0.006c-49.072,0-96.497-3.371-130.105-9.25c-52.676-9.225-65.15-21.59-74.146-73.538
		C-3.363,270.066-3.179,152.747,9.017,83.035C18.215,30.39,30.587,17.916,82.542,8.889C115.51,3.162,160.4,0,208.94,0
		c48.971,0,96.294,3.364,129.819,9.23c52.657,9.218,65.125,21.59,74.146,73.538c11.998,69.167,11.834,186.512-0.368,256.237
		c-9.186,52.656-21.564,65.125-73.524,74.158C306.096,418.865,261.293,422.009,212.874,422.009 M208.94,12.975
		c-47.818,0-91.916,3.092-124.181,8.698C38.284,29.744,30.049,38.067,21.8,85.265C9.809,153.778,9.631,269.065,21.401,337.017
		c8.046,46.449,16.37,54.697,63.599,62.971c32.904,5.752,79.505,9.046,127.868,9.046h0.006c47.71,0,91.714-3.065,123.921-8.641
		c46.488-8.084,54.724-16.408,62.973-63.617c11.985-68.534,12.149-183.833,0.367-251.79c-8.084-46.468-16.408-54.71-63.605-62.971
		C303.701,16.269,257.188,12.975,208.94,12.975"/>
	<path fill="#47A6E9" d="M129.437,182.782h166.826v-35.761H129.437V182.782z M165.632,174.011c-5.05,0-9.147-4.078-9.147-9.109
		c0-5.031,4.097-9.109,9.147-9.109c5.05,0,9.147,4.078,9.147,9.109C174.779,169.933,170.682,174.011,165.632,174.011"/>
	<path fill="#47A6E9" d="M129.437,228.686h166.826v-35.761H129.437V228.686z M165.632,219.913c-5.05,0-9.147-4.077-9.147-9.109
		c0.001-5.03,4.097-9.108,9.147-9.108c5.05,0,9.147,4.078,9.147,9.108C174.779,215.836,170.682,219.913,165.632,219.913"/>
	<path fill="#47A6E9" d="M129.189,135.966h166.826v-35.76H129.189V135.966z M165.384,127.195c-5.05,0-9.147-4.078-9.147-9.109
		s4.097-9.108,9.147-9.108c5.05,0,9.147,4.077,9.147,9.108S170.434,127.195,165.384,127.195"/>
	<path fill="#47A6E9" d="M333.639,278.864c3.23-3.202-38.447,44.204-38.447,44.204h-78.405c-18.737,0-53.847-23.918-92.621,5.227
		c-2.906-3.206-42.218-44.304-42.218-44.304s71.518-43.449,75.39-45.694c29.079-14.092,50.406,8.117,58.158,8.117h60.955
		c9.692,0,20.683,19,0,25.407h-50.61c0,0,0.75,10.354,10.764,10.354h49.115c0,0,20.456-20.286,23.687-23.808
		c8.078-10.568,14.655-0.851,14.655-0.851S348.179,256.126,333.639,278.864"/>
</g>
</svg>
