<?xml version="1.0" encoding="utf-8"?>
<!-- Generator: Adobe Illustrator 16.0.0, SVG Export Plug-In . SVG Version: 6.00 Build 0)  -->
<!DOCTYPE svg PUBLIC "-//W3C//DTD SVG 1.1//EN" "http://www.w3.org/Graphics/SVG/1.1/DTD/svg11.dtd">
<svg version="1.1" id="图层_1" xmlns="http://www.w3.org/2000/svg" xmlns:xlink="http://www.w3.org/1999/xlink" x="0px" y="0px"
	 width="512px" height="512px" viewBox="0 0 512 512" enable-background="new 0 0 512 512" xml:space="preserve">
<g>
	<path fill="#38C4F5" d="M499.037,101.813c-10.847-62.461-25.838-77.337-89.152-88.42c-40.31-7.053-97.21-11.098-156.091-11.098
		c-58.363,0-112.338,3.801-151.978,10.687c-62.468,10.855-77.345,25.853-88.405,89.152c-14.663,83.819-14.884,224.882-0.48,308.031
		c10.817,62.461,25.815,77.329,89.152,88.42c40.409,7.069,97.431,11.121,156.434,11.121h0.009
		c58.218,0,112.087-3.778,151.665-10.634c62.476-10.862,77.359-25.854,88.404-89.167
		C513.266,326.071,513.464,184.977,499.037,101.813 M483.24,407.222c-9.918,56.764-19.82,66.772-75.715,76.492
		c-38.727,6.703-91.636,10.39-149,10.39h-0.009c-58.148,0-114.181-3.961-153.745-10.877c-56.786-9.947-66.795-19.865-76.469-75.715
		c-14.153-81.702-13.939-220.319,0.48-302.699c9.918-56.748,19.82-66.757,75.7-76.461c38.794-6.741,91.817-10.458,149.312-10.458
		c58.012,0,113.938,3.961,153.41,10.868c56.748,9.933,66.757,19.843,76.477,75.715C497.85,186.186,497.652,324.819,483.24,407.222"
		/>
	<path fill="#38C4F5" d="M254.67,382.86c-31.959-0.16-63.167-13.718-85.294-37.043c-10.68-11.271-19.009-24.365-24.765-38.946
		c-5.756-14.581-8.633-29.897-8.553-45.485c0.08-16.163,3.341-31.927,9.688-46.876c6.347-14.948,15.412-28.186,26.955-39.361
		c11.143-10.808,24.093-19.233,38.514-25.053c5.835-2.35,8.681-9.033,6.347-14.932s-8.937-8.777-14.773-6.411
		c-17.155,6.923-32.567,16.947-45.82,29.801c-13.749,13.318-24.541,29.097-32.103,46.876c-7.562,17.794-11.431,36.564-11.527,55.829
		c-0.096,18.563,3.325,36.771,10.168,54.134c6.843,17.331,16.755,32.918,29.481,46.332c16.355,17.251,36.867,30.09,59.282,37.348
		l-27.019,10.903c-5.835,2.351-8.681,9.033-6.347,14.933c1.167,2.958,3.405,5.147,6.075,6.299c2.67,1.167,5.787,1.295,8.697,0.112
		l65.182-26.301c5.052-2.046,7.978-7.418,6.954-12.821C264.774,386.793,260.106,382.844,254.67,382.86"/>
	<path fill="#38C4F5" d="M205.156,219.898v81.92c0,9.305,4.908,17.905,12.87,22.542c3.981,2.317,8.425,3.484,12.87,3.484
		s8.889-1.167,12.87-3.484l70.153-40.96c7.962-4.652,12.87-13.254,12.87-22.542c0-9.305-4.908-17.906-12.87-22.542l-70.153-40.96
		c-7.962-4.652-17.778-4.652-25.74,0S205.156,210.594,205.156,219.898"/>
	<path fill="#38C4F5" d="M359.596,162.279c-16.339-17.251-36.883-30.089-59.281-37.331l31.879-22.351
		c5.835-2.35,8.681-9.033,6.347-14.932s-8.938-8.777-14.772-6.411l-70.025,37.731c-5.052,2.046-7.962,7.418-6.955,12.822
		c1.007,5.404,5.676,9.337,11.111,9.353c31.942,0.176,63.183,13.733,85.294,37.043c10.68,11.271,19.009,24.365,24.765,38.946
		c5.756,14.597,8.633,29.897,8.553,45.485c-0.08,16.147-3.341,31.911-9.688,46.86c-6.348,14.948-15.412,28.202-26.955,39.377
		c-11.144,10.808-24.109,19.217-38.515,25.037c-5.835,2.35-8.681,9.033-6.347,14.932c1.167,2.958,3.405,5.148,6.075,6.299
		c2.67,1.167,5.787,1.295,8.697,0.112c17.139-6.907,32.566-16.947,45.836-29.801c13.732-13.318,24.541-29.098,32.103-46.893
		c7.563-17.794,11.447-36.58,11.527-55.813c0.096-18.578-3.325-36.787-10.168-54.134
		C382.235,191.281,372.306,175.693,359.596,162.279"/>
</g>
</svg>
