<?xml version="1.0" encoding="utf-8"?>
<!-- Generator: Adobe Illustrator 16.0.0, SVG Export Plug-In . SVG Version: 6.00 Build 0)  -->
<!DOCTYPE svg PUBLIC "-//W3C//DTD SVG 1.1//EN" "http://www.w3.org/Graphics/SVG/1.1/DTD/svg11.dtd">
<svg version="1.1"
	 id="svg2" xmlns:dc="http://purl.org/dc/elements/1.1/" xmlns:cc="http://creativecommons.org/ns#" xmlns:rdf="http://www.w3.org/1999/02/22-rdf-syntax-ns#" xmlns:svg="http://www.w3.org/2000/svg"
	 xmlns="http://www.w3.org/2000/svg" xmlns:xlink="http://www.w3.org/1999/xlink" x="0px" y="0px" width="78px" height="50px"
	 viewBox="0 0 78 50" enable-background="new 0 0 78 50" xml:space="preserve">
<g id="g12" transform="scale(0.1,0.1)">
	<path id="path22" fill="#026C9B" d="M15,193.013L241.68,9.995H765L577.432,193.013H15"/>
	<path id="path24" fill="none" stroke="#FFFFFF" stroke-width="4" d="M15,193.013L241.68,9.995H765L577.432,193.013H15z"/>
	<path id="path26" fill="#FFFFFF" d="M432.715,73.223l-5.42,5.479H273.271l-15.347,15.332l-41.738-18.096l83.975-23.994
		l-21.396,21.279H432.715"/>
	<path id="path28" fill="#026C9B" d="M577.432,489.878L765,299.058V10.332L577.432,193.013V489.878"/>
	<path id="path30" fill="none" stroke="#FFFFFF" stroke-width="4" d="M577.432,489.878L765,299.058V10.332L577.432,193.013V489.878z
		"/>
	<path id="path32" fill="#FFFFFF" d="M610.635,44.268l15.352-15.327l41.885,19.165l-83.965,24.121l21.318-22.471H447.412
		l9.287-5.488H610.635"/>
	<path id="path34" fill="#FFFFFF" d="M350.332,159.487l-5.498,5.474H190.811l-15.347,15.332l-41.738-18.096l83.896-23.989
		l-21.323,21.279H350.332"/>
	<path id="path36" fill="#FFFFFF" d="M528.252,130.518l15.342-15.308l41.885,19.087l-84.102,24.111l21.309-22.402H365.02
		l9.219-5.488H528.252"/>
	<path id="path38" fill="#026C9B" d="M15.762,489.995h561.67V193.013H15.762V489.995z"/>
	<path id="path40" fill="none" stroke="#FFFFFF" stroke-width="4" d="M15.762,489.995h561.67V193.013H15.762V489.995z"/>
	<path id="path42" fill="#FFFFFF" d="M105.674,320.151h84.966v-44.072h-84.966V320.151z"/>
	<path id="path44" fill="#FFFFFF" d="M384.824,320.151h84.971v-44.072h-84.971V320.151z"/>
	<path id="path46" fill="#FFFFFF" d="M105.674,430.532h84.966v-44.229h-84.966V430.532z"/>
	<path id="path48" fill="#FFFFFF" d="M384.824,430.532h84.971v-44.229h-84.971V430.532z"/>
	<path id="path50" fill="none" stroke="#FFFFFF" stroke-width="4" d="M163.301,298.12h260.977"/>
	<path id="path52" fill="none" stroke="#FFFFFF" stroke-width="4" d="M163.301,408.491h260.977"/>
	<path id="path54" fill="none" stroke="#FFFFFF" stroke-width="4" d="M148.159,408.491L424.277,298.12"/>
	<path id="path56" fill="none" stroke="#FFFFFF" stroke-width="4" d="M148.159,298.12l276.118,110.371"/>
	<path id="path58" fill="#FFFFFF" d="M667.051,231.841l20.83-105.269l20.059-21.807l0.078-21.787l34.834-1.172l-31.533,66.196
		l0.469-31.489l-14.199,19.688l-18.828,99.868l-4.541,21.201L649.131,371.45l-21.699,24.795l0.029,21.113l-32.842,10.518
		l30.273-77.461l0.137,30.313l13.516-16.484l23.994-111.22L667.051,231.841"/>
	<path id="path60" fill="#FFFFFF" d="M622.363,211.675l-0.156-0.107l13.291-12.207l25.41,48.398l9.629,15.996l26.904,45.703
		l23.438-16.455l-1.055,27.715l32.129-61.328l-32.9,2.549l-0.205,18.691l-18.926,14.951l-28.867-50.371l-7.617-14.453
		l-26.641-46.182l-14.072,12.534l-0.068-29.795l-33.955,70.171l33.457-6.885L622.363,211.675"/>
</g>
</svg>
