<?xml version="1.0" encoding="utf-8"?>
<!-- Generator: Adobe Illustrator 16.0.0, SVG Export Plug-In . SVG Version: 6.00 Build 0)  -->
<!DOCTYPE svg PUBLIC "-//W3C//DTD SVG 1.1//EN" "http://www.w3.org/Graphics/SVG/1.1/DTD/svg11.dtd">
<svg version="1.1"
	 id="图层_1" xmlns:dc="http://purl.org/dc/elements/1.1/" xmlns:cc="http://creativecommons.org/ns#" xmlns:rdf="http://www.w3.org/1999/02/22-rdf-syntax-ns#"
	 xmlns="http://www.w3.org/2000/svg" xmlns:xlink="http://www.w3.org/1999/xlink" x="0px" y="0px" width="38px" height="75px"
	 viewBox="0 0 38 75" enable-background="new 0 0 38 75" xml:space="preserve">
<path fill="#00BCF2" d="M11.248,74.721c-0.674-0.358-1.306-0.997-1.544-1.565C9.6,72.911,8.254,65.18,6.721,55.993
	C3.636,37.521,3.758,38.636,4.696,37.556c0.268-0.303,0.415-0.605,0.362-0.738C4.862,36.298,0,6.612,0,5.923
	c0-1.293,0.913-2.404,2.339-2.846c1.075-0.334,19.502-3.142,20.195-3.075c0.979,0.09,1.98,0.749,2.4,1.581
	c0.265,0.522,0.763,3.258,2.403,13.192c1.881,11.356,2.052,12.58,1.881,13.003c-0.356,0.861-1.491,1.271-2.323,0.839
	c-0.785-0.406-0.826-0.571-2.208-8.938c-0.934-5.656-1.415-8.206-1.629-8.654c-0.182-0.381-0.542-0.795-0.894-1.028
	c-0.994-0.663-1.843-0.617-8.797,0.48c-5.043,0.795-6.275,1.033-6.91,1.347c-0.918,0.451-1.492,1.226-1.596,2.164
	c-0.048,0.424,0.524,4.259,1.713,11.441c0.982,5.943,1.808,10.829,1.835,10.858c0.025,0.03,4.737-0.682,10.466-1.583
	c5.728-0.9,10.689-1.636,11.024-1.636c1.064,0,1.979,0.555,2.467,1.497c0.113,0.216,1.456,7.958,2.985,17.202
	c2.762,16.683,2.782,16.819,2.565,17.565c-0.24,0.832-0.917,1.634-1.635,1.938C35.692,71.528,13.456,75.009,12.499,75
	C12.073,74.995,11.545,74.878,11.248,74.721L11.248,74.721z M23.998,71.056c3.851-0.603,4.201-0.723,4.201-1.469
	c0-0.55-0.401-0.907-1.029-0.907c-0.987,0-7.22,1.04-7.556,1.26c-0.669,0.441-0.265,1.688,0.544,1.68
	C20.281,71.62,22.007,71.369,23.998,71.056z M21.587,57.226c0.903-0.146,1.673-0.299,1.711-0.337
	c0.036-0.037-0.12-1.186-0.353-2.563l-0.418-2.494l0.646-0.566c1.102-0.963,1.491-2.14,1.219-3.679
	c-0.739-4.153-6.43-4.954-8.271-1.162c-0.469,0.966-0.535,2.395-0.153,3.302c0.281,0.67,1.276,1.774,1.985,2.205
	c0.292,0.181,0.55,0.334,0.573,0.351c0.032,0.022,0.895,4.963,0.905,5.182C19.434,57.542,20.022,57.477,21.587,57.226L21.587,57.226
	z M13.185,6.796c1.795-0.269,2.157-0.466,2.157-1.172c0-0.382-0.092-0.567-0.375-0.754c-0.351-0.234-0.479-0.234-2.008,0
	c-1.402,0.208-1.68,0.298-1.962,0.621c-0.421,0.48-0.416,0.728,0.029,1.175c0.424,0.425,0.285,0.417,2.16,0.133L13.185,6.796
	L13.185,6.796z"/>
</svg>
