<?xml version="1.0" encoding="utf-8"?>
<!-- Generator: Adobe Illustrator 16.0.0, SVG Export Plug-In . SVG Version: 6.00 Build 0)  -->
<!DOCTYPE svg PUBLIC "-//W3C//DTD SVG 1.1//EN" "http://www.w3.org/Graphics/SVG/1.1/DTD/svg11.dtd">
<svg version="1.1"
	 id="svg2" xmlns:dc="http://purl.org/dc/elements/1.1/" xmlns:cc="http://creativecommons.org/ns#" xmlns:rdf="http://www.w3.org/1999/02/22-rdf-syntax-ns#" xmlns:svg="http://www.w3.org/2000/svg"
	 xmlns="http://www.w3.org/2000/svg" xmlns:xlink="http://www.w3.org/1999/xlink" x="0px" y="0px" width="58px" height="78px"
	 viewBox="0 0 58 78" enable-background="new 0 0 58 78" xml:space="preserve">
<g id="g12" transform="scale(0.1,0.1)">
	<path id="path14" fill="#087BBB" d="M10,770.002h497.324V273.45H10V770.002z"/>
	<path id="path16" fill="none" stroke="#FFFFFF" stroke-width="4" d="M10,770.002h497.324V273.45H10V770.002z"/>
	<path id="path18" fill="#087BBB" d="M570,707.776V211.243l-62.676,62.207v496.552L570,707.776"/>
	<path id="path20" fill="none" stroke="#FFFFFF" stroke-width="4" d="M570,707.776V211.243l-62.676,62.207v496.552L570,707.776z"/>
	<path id="path22" fill="#087BBB" d="M100.923,10.002L10,72.097h497.324L570,10.002H100.923"/>
	<path id="path24" fill="none" stroke="#FFFFFF" stroke-width="4" d="M100.923,10.002L10,72.097h497.324L570,10.002H100.923z"/>
	<path id="path26" fill="#087BBB" d="M10,273.45h497.324V72.097H10V273.45z"/>
	<path id="path28" fill="none" stroke="#FFFFFF" stroke-width="4" d="M10,273.45h497.324V72.097H10V273.45z"/>
	<path id="path30" fill="#087BBB" d="M570,211.243V10.002l-62.676,62.095V273.45L570,211.243"/>
	<path id="path32" fill="none" stroke="#FFFFFF" stroke-width="4" d="M570,211.243V10.002l-62.676,62.095V273.45L570,211.243z"/>
	<path id="path34" fill="#087BBB" d="M507.324,273.45H10"/>
	<path id="path36" fill="none" stroke="#FFFFFF" stroke-width="4" d="M507.324,273.45H10"/>
	<path id="path38" fill="#087BBB" d="M507.324,273.45L570,211.243"/>
	<path id="path40" fill="none" stroke="#FFFFFF" stroke-width="4" d="M507.324,273.45L570,211.243"/>
	<path id="path42" fill="#FFFFFF" d="M91.069,140.945h80.19V99.163h-80.19V140.945z"/>
	<path id="path44" fill="#FFFFFF" d="M354.619,140.945h80.186V99.163h-80.186V140.945z"/>
	<path id="path46" fill="#FFFFFF" d="M91.069,245.237h80.19v-41.782h-80.19V245.237z"/>
	<path id="path48" fill="#FFFFFF" d="M354.619,245.237h80.186v-41.782h-80.186V245.237z"/>
	<path id="path50" d="M145.537,120.11h246.27"/>
	<path id="path52" fill="none" stroke="#FFFFFF" stroke-width="4" d="M145.537,120.11h246.27"/>
	<path id="path54" d="M145.537,224.412h246.27"/>
	<path id="path56" fill="none" stroke="#FFFFFF" stroke-width="4" d="M145.537,224.412h246.27"/>
	<path id="path58" d="M131.177,224.412l260.63-104.302"/>
	<path id="path60" fill="none" stroke="#FFFFFF" stroke-width="4" d="M131.177,224.412l260.63-104.302"/>
	<path id="path62" d="M131.177,120.11l260.63,104.302"/>
	<path id="path64" fill="none" stroke="#FFFFFF" stroke-width="4" d="M131.177,120.11l260.63,104.302"/>
	<path id="path66" fill="#FFFFFF" d="M284.033,409.446h34.326v5.879l13.096-8.467l-13.096-8.701v5.869h-34.326V409.446"/>
	<path id="path68" fill="#FFFFFF" d="M279.121,391.955l24.248-24.248l4.238,4.102l3.057-15.254l-15.381,3.066l4.229,4.102
		l-24.375,24.375L279.121,391.955"/>
	<path id="path70" fill="#FFFFFF" d="M263.184,383.059v-34.307h5.742l-8.594-12.979l-8.574,12.979h5.859v34.307H263.184"/>
	<path id="path72" fill="#FFFFFF" d="M245.547,388.098l-24.277-24.375l4.121-4.102l-15.273-3.066l3.076,15.254l4.111-4.102
		l24.385,24.248L245.547,388.098"/>
	<path id="path74" fill="#FFFFFF" d="M236.641,404.026h-34.336v-5.869l-12.964,8.701l12.964,8.467v-5.879h34.336V404.026"/>
	<path id="path76" fill="#FFFFFF" d="M275.137,425.5l24.375,24.365l-4.229,3.984l15.381,3.066l-3.057-15.137l-4.238,3.994
		l-24.248-24.355L275.137,425.5"/>
	<path id="path78" fill="#FFFFFF" d="M231.582,427.815c11.23,16.172,33.477,20.029,49.531,8.779
		c16.191-11.455,20.049-33.428,8.799-49.619c-11.348-16.162-33.584-20.01-49.639-8.779
		C224.189,389.524,220.225,411.653,231.582,427.815"/>
	<path id="path80" fill="#FFFFFF" d="M241.689,424.758l-24.385,24.121l-4.111-3.984l-3.076,15.361l15.273-3.291l-4.121-3.984
		l24.277-24.365L241.689,424.758"/>
	<path id="path82" fill="none" stroke="#FFFFFF" stroke-width="8" d="M259.922,427.112v226.289"/>
	<path id="path84" fill="#FFFFFF" d="M244.746,668.313h-24.102v-4.209l-9.023,6.24l9.023,5.996v-4.199h24.102V668.313"/>
	<path id="path86" fill="#FFFFFF" d="M248.301,680.696l-17.041,16.807l-2.92-2.686l-2.168,10.576l10.703-2.168l-2.93-2.91
		l17.051-17.031L248.301,680.696"/>
	<path id="path88" fill="#FFFFFF" d="M259.434,686.828v23.955h-4.082l5.996,9.268l6.016-9.268h-4.082v-23.955H259.434"/>
	<path id="path90" fill="#FFFFFF" d="M271.699,683.283l16.934,17.031l-2.783,2.91l10.703,2.168l-2.178-10.576l-2.91,2.686
		l-17.051-16.807L271.699,683.283"/>
	<path id="path92" fill="#FFFFFF" d="M277.842,672.141h24.111v4.199l9.033-5.996l-9.033-6.24v4.209h-24.111V672.141"/>
	<path id="path94" fill="#FFFFFF" d="M250.996,657.17l-17.051-17.031l2.93-2.91l-10.703-2.188l2.168,10.82l2.92-2.91l17.041,17.031
		L250.996,657.17"/>
	<path id="path96" fill="#FFFFFF" d="M281.494,655.578c-7.881-11.221-23.428-14.043-34.658-6.055
		c-11.348,7.734-14.053,23.271-6.191,34.512c7.871,11.23,23.438,14.043,34.785,6.299
		C286.67,682.365,289.355,666.809,281.494,655.578"/>
	<path id="path98" fill="#FFFFFF" d="M274.414,657.766l17.051-17.031l2.91,2.91l2.178-10.83l-10.703,2.188l2.783,2.9l-16.934,17.051
		L274.414,657.766"/>
</g>
</svg>
