<?xml version="1.0" encoding="utf-8"?>
<!-- Generator: Adobe Illustrator 16.0.0, SVG Export Plug-In . SVG Version: 6.00 Build 0)  -->
<!DOCTYPE svg PUBLIC "-//W3C//DTD SVG 1.1//EN" "http://www.w3.org/Graphics/SVG/1.1/DTD/svg11.dtd">
<svg version="1.1"
	 id="svg2" xmlns:dc="http://purl.org/dc/elements/1.1/" xmlns:cc="http://creativecommons.org/ns#" xmlns:rdf="http://www.w3.org/1999/02/22-rdf-syntax-ns#" xmlns:svg="http://www.w3.org/2000/svg"
	 xmlns="http://www.w3.org/2000/svg" xmlns:xlink="http://www.w3.org/1999/xlink" x="0px" y="0px" width="58px" height="80px"
	 viewBox="0 0 58 80" enable-background="new 0 0 58 80" xml:space="preserve">
<g id="g12" transform="scale(0.1,0.1)">
	<path id="path14" fill="#1582BA" d="M9.998,784.997h464.004V310.876H9.998V784.997z"/>
	<path id="path16" fill="none" stroke="#FFFFFF" stroke-width="4" d="M9.998,784.997h464.004V310.876H9.998V784.997z"/>
	<path id="path18" fill="#1582BA" d="M474.001,310.876l95.996-94.458"/>
	<path id="path20" fill="none" stroke="#FFFFFF" stroke-width="4" d="M474.001,310.876l95.996-94.458"/>
	<path id="path22" fill="#1582BA" d="M290.535,310.876v474.121"/>
	<path id="path24" fill="none" stroke="#FFFFFF" stroke-width="4" d="M290.535,310.876v474.121"/>
	<path id="path26" fill="#1582BA" d="M9.998,583.572h464.004V109.456H9.998V583.572z"/>
	<path id="path28" fill="none" stroke="#FFFFFF" stroke-width="4" d="M9.998,583.572h464.004V109.456H9.998V583.572z"/>
	<path id="path30" fill="#1582BA" d="M569.998,14.998v665.478l-95.996,97.051V109.456L569.998,14.998"/>
	<path id="path32" fill="none" stroke="#FFFFFF" stroke-width="4" d="M569.998,14.998v665.478l-95.996,97.051V109.456
		L569.998,14.998z"/>
	<path id="path34" fill="#1582BA" d="M474.001,109.456H10.466l117.295-94.458h442.236L474.001,109.456"/>
	<path id="path36" fill="none" stroke="#FFFFFF" stroke-width="4" d="M474.001,109.456H10.466l117.295-94.458h442.236
		L474.001,109.456z"/>
	<path id="path38" fill="#1582BA" d="M474.001,109.456l95.996-94.458"/>
	<path id="path40" fill="none" stroke="#FFFFFF" stroke-width="4" d="M474.001,109.456l95.996-94.458"/>
	<path id="path42" fill="#1582BA" d="M74.49,231.985h374.727"/>
	<path id="path44" fill="none" stroke="#FFFFFF" stroke-width="4" d="M74.49,231.985h374.727"/>
	<path id="path46" fill="#1582BA" d="M56.853,346.902h377.266"/>
	<path id="path48" fill="none" stroke="#FFFFFF" stroke-width="4" d="M56.853,346.902h377.266"/>
	<path id="path50" fill="#1582BA" d="M40.251,455.837h374.932"/>
	<path id="path52" fill="none" stroke="#FFFFFF" stroke-width="4" d="M40.251,455.837h374.932"/>
	<path id="path54" fill="#1582BA" d="M91.433,520.241l77.441-357.187"/>
	<path id="path56" fill="none" stroke="#FFFFFF" stroke-width="4" d="M91.433,520.241l77.441-357.187"/>
	<path id="path58" fill="#1582BA" d="M332.068,520.241l77.285-357.187"/>
	<path id="path60" fill="none" stroke="#FFFFFF" stroke-width="4" d="M332.068,520.241l77.285-357.187"/>
	<path id="path62" fill="#1582BA" d="M211.755,517.361l77.275-357.182"/>
	<path id="path64" fill="none" stroke="#FFFFFF" stroke-width="4" d="M211.755,517.361l77.275-357.182"/>
	<path id="path66" fill="#FFFFFF" d="M182.83,230.896c0,10.869-13.125,19.736-29.297,19.736c-16.328,0-29.463-8.867-29.463-19.736
		c0-10.698,13.135-19.57,29.463-19.57C169.705,211.326,182.83,220.198,182.83,230.896"/>
	<path id="path68" fill="#FFFFFF" d="M304.343,226.008c0,10.874-13.115,19.741-29.297,19.741c-16.172,0-29.297-8.867-29.297-19.741
		c0-10.698,13.125-19.59,29.297-19.59C291.228,206.418,304.343,215.31,304.343,226.008"/>
	<path id="path70" fill="#FFFFFF" d="M426.345,234.636c0,10.879-13.301,19.59-29.609,19.59c-16.025,0-29.297-8.711-29.297-19.59
		c0-10.688,13.271-19.58,29.297-19.58C413.044,215.056,426.345,223.948,426.345,234.636"/>
	<path id="path72" fill="#FFFFFF" d="M155.134,347.4c0,10.869-13.145,19.599-29.307,19.599c-16.172,0-29.297-8.73-29.297-19.599
		c0-10.85,13.125-19.59,29.297-19.59C141.99,327.81,155.134,336.55,155.134,347.4"/>
	<path id="path74" fill="#FFFFFF" d="M276.658,351.16c0,10.859-13.135,19.57-29.297,19.57c-16.172,0-29.307-8.711-29.307-19.57
		c0-10.879,13.135-19.6,29.307-19.6C263.523,331.56,276.658,340.281,276.658,351.16"/>
	<path id="path76" fill="#FFFFFF" d="M398.65,345.437c0,10.879-13.301,19.59-29.287,19.59c-16.348,0-29.639-8.711-29.639-19.59
		c0-10.84,13.291-19.57,29.639-19.57C385.349,325.867,398.65,334.597,398.65,345.437"/>
	<path id="path78" fill="#FFFFFF" d="M130.984,457.995c0,11.025-13.281,19.59-29.443,19.59s-29.316-8.564-29.316-19.59
		c0-10.713,13.154-19.59,29.316-19.59S130.984,447.282,130.984,457.995"/>
	<path id="path80" fill="#FFFFFF" d="M252.517,458.806c0,11.025-13.115,19.59-29.453,19.59c-16.182,0-29.316-8.564-29.316-19.59
		c0-10.693,13.135-19.6,29.316-19.6C239.402,439.206,252.517,448.113,252.517,458.806"/>
	<path id="path82" fill="#FFFFFF" d="M374.187,458.806c0,11.025-12.969,19.59-29.287,19.59c-16.025,0-29.307-8.564-29.307-19.59
		c0-10.693,13.281-19.6,29.307-19.6C361.218,439.206,374.187,448.113,374.187,458.806"/>
	<path id="path84" fill="#1582BA" d="M443.201,636.238c0,11.768-25.088,21.016-56.436,21.016s-56.748-9.248-56.748-21.016v103.74
		c0,11.797,25.4,21.055,56.748,21.055s56.436-9.258,56.436-21.055V636.238"/>
	<path id="path86" fill="none" stroke="#FFFFFF" stroke-width="4" d="M443.201,636.238c0,11.768-25.088,21.016-56.436,21.016
		s-56.748-9.248-56.748-21.016v103.74c0,11.797,25.4,21.055,56.748,21.055s56.436-9.258,56.436-21.055V636.238z"/>
	<path id="path88" fill="#1582BA" d="M386.765,657.253c31.348,0,56.436-9.248,56.436-21.016c0-11.475-25.088-21.035-56.436-21.035
		s-56.748,9.561-56.748,21.035C330.017,648.005,355.417,657.253,386.765,657.253"/>
	<path id="path90" fill="none" stroke="#FFFFFF" stroke-width="4" d="M386.765,657.253c31.348,0,56.436-9.248,56.436-21.016
		c0-11.475-25.088-21.035-56.436-21.035s-56.748,9.561-56.748,21.035C330.017,648.005,355.417,657.253,386.765,657.253z"/>
	<path id="path92" fill="#FFFFFF" d="M71.882,739.753h112.061l-0.449,23.408l51.182-33.105l-51.182-35.234l0.449,24.639H71.882"/>
	<path id="path94" fill="#FFFFFF" d="M227.498,641.57H115.437l0.605-23.418l-51.338,33.125l51.338,35.234l-0.605-24.639h112.061"/>
</g>
</svg>
