<?xml version="1.0" encoding="utf-8"?>
<!-- Generator: Adobe Illustrator 16.0.0, SVG Export Plug-In . SVG Version: 6.00 Build 0)  -->
<!DOCTYPE svg PUBLIC "-//W3C//DTD SVG 1.1//EN" "http://www.w3.org/Graphics/SVG/1.1/DTD/svg11.dtd">
<svg version="1.1"
	 id="svg2" xmlns:dc="http://purl.org/dc/elements/1.1/" xmlns:cc="http://creativecommons.org/ns#" xmlns:rdf="http://www.w3.org/1999/02/22-rdf-syntax-ns#" xmlns:svg="http://www.w3.org/2000/svg"
	 xmlns="http://www.w3.org/2000/svg" xmlns:xlink="http://www.w3.org/1999/xlink" x="0px" y="0px" width="76px" height="57px"
	 viewBox="0 0 76 57" enable-background="new 0 0 76 57" xml:space="preserve">
<g id="g12" transform="scale(0.1,0.1)">
	<path id="path22" fill="#02709F" d="M0,570h107.983V111.641H0V570z"/>
	<path id="path24" fill="none" stroke="#FFFFFF" stroke-width="3.9999" d="M0,570h107.983V111.641H0V570z"/>
	<path id="path26" fill="#02709F" d="M107.983,570h108.008V111.641H107.983V570z"/>
	<path id="path28" fill="none" stroke="#FFFFFF" stroke-width="3.9999" d="M107.983,570h108.008V111.641H107.983V570z"/>
	<path id="path30" fill="#02709F" d="M215.991,570h108.013V111.641H215.991V570z"/>
	<path id="path32" fill="none" stroke="#FFFFFF" stroke-width="3.9999" d="M215.991,570h108.013V111.641H215.991V570z"/>
	<path id="path34" fill="#02709F" d="M324.004,570h107.988V111.641H324.004V570z"/>
	<path id="path36" fill="none" stroke="#FFFFFF" stroke-width="3.9999" d="M324.004,570h107.988V111.641H324.004V570z"/>
	<path id="path38" fill="#02709F" d="M431.992,570h108.174V111.641H431.992V570z"/>
	<path id="path40" fill="none" stroke="#FFFFFF" stroke-width="3.9999" d="M431.992,570h108.174V111.641H431.992V570z"/>
	<path id="path42" fill="#02709F" d="M540.166,570h107.842V111.641H540.166V570z"/>
	<path id="path44" fill="none" stroke="#FFFFFF" stroke-width="3.9999" d="M540.166,570h107.842V111.641H540.166V570z"/>
	<path id="path46" fill="#02709F" d="M648.008,570L760,458.213V0H111.997L0,111.641h648.008V570"/>
	<path id="path48" fill="none" stroke="#FFFFFF" stroke-width="3.9999" d="M648.008,570L760,458.213V0H111.997L0,111.641h648.008
		V570z"/>
	<path id="path50" fill="#02709F" d="M648.008,111.641L760,0"/>
	<path id="path52" fill="none" stroke="#FFFFFF" stroke-width="3.9999" d="M648.008,111.641L760,0"/>
	<path id="path54" fill="#02709F" d="M648.008,340.664H0"/>
	<path id="path56" fill="none" stroke="#FFFFFF" stroke-width="3.9999" d="M648.008,340.664H0"/>
	<path id="path58" fill="#02709F" d="M18.916,375.215h70.151"/>
	<path id="path60" fill="none" stroke="#FFFFFF" stroke-width="3.9999" d="M18.916,375.215h70.151"/>
	<path id="path62" fill="#02709F" d="M18.916,402.07h70.151"/>
	<path id="path64" fill="none" stroke="#FFFFFF" stroke-width="3.9999" d="M18.916,402.07h70.151"/>
	<path id="path66" fill="#02709F" d="M18.916,429.248h70.151"/>
	<path id="path68" fill="none" stroke="#FFFFFF" stroke-width="3.9999" d="M18.916,429.248h70.151"/>
	<path id="path70" fill="#02709F" d="M18.916,456.103h70.151"/>
	<path id="path72" fill="none" stroke="#FFFFFF" stroke-width="3.9999" d="M18.916,456.103h70.151"/>
	<path id="path74" fill="#02709F" d="M18.916,483.291h70.151"/>
	<path id="path76" fill="none" stroke="#FFFFFF" stroke-width="3.9999" d="M18.916,483.291h70.151"/>
	<path id="path78" fill="#02709F" d="M126.914,375.215h70.161"/>
	<path id="path80" fill="none" stroke="#FFFFFF" stroke-width="3.9999" d="M126.914,375.215h70.161"/>
	<path id="path82" fill="#02709F" d="M126.914,402.07h70.161"/>
	<path id="path84" fill="none" stroke="#FFFFFF" stroke-width="3.9999" d="M126.914,402.07h70.161"/>
	<path id="path86" fill="#02709F" d="M126.914,429.248h70.161"/>
	<path id="path88" fill="none" stroke="#FFFFFF" stroke-width="3.9999" d="M126.914,429.248h70.161"/>
	<path id="path90" fill="#02709F" d="M126.914,456.103h70.161"/>
	<path id="path92" fill="none" stroke="#FFFFFF" stroke-width="3.9999" d="M126.914,456.103h70.161"/>
	<path id="path94" fill="#02709F" d="M126.914,483.291h70.161"/>
	<path id="path96" fill="none" stroke="#FFFFFF" stroke-width="3.9999" d="M126.914,483.291h70.161"/>
</g>
</svg>
