<?xml version="1.0" encoding="utf-8"?>
<!-- Generator: Adobe Illustrator 16.0.0, SVG Export Plug-In . SVG Version: 6.00 Build 0)  -->
<!DOCTYPE svg PUBLIC "-//W3C//DTD SVG 1.1//EN" "http://www.w3.org/Graphics/SVG/1.1/DTD/svg11.dtd">
<svg version="1.1"
	 id="svg2" xmlns:dc="http://purl.org/dc/elements/1.1/" xmlns:cc="http://creativecommons.org/ns#" xmlns:rdf="http://www.w3.org/1999/02/22-rdf-syntax-ns#" xmlns:svg="http://www.w3.org/2000/svg"
	 xmlns="http://www.w3.org/2000/svg" xmlns:xlink="http://www.w3.org/1999/xlink" x="0px" y="0px" width="72px" height="75px"
	 viewBox="0 0 72 75" enable-background="new 0 0 72 75" xml:space="preserve">
<g id="g10">
	<g id="g16">
		<path id="path22" fill="#087BBB" d="M0,75h63.949V8.114H0V75z"/>
		<path id="path26" fill="#087BBB" d="M72,68.153L65.703,75V8.334L72,1.469V68.153"/>
		<path id="path30" fill="#087BBB" d="M70.732,0H6.884L0,6.878h63.827L70.732,0"/>
	</g>
	<g id="g36">
		
			<linearGradient id="path50_1_" gradientUnits="userSpaceOnUse" x1="-257.303" y1="376.2852" x2="-255.2224" y2="376.2852" gradientTransform="matrix(9.9451 0 0 -9.9451 2586.1279 3762.3799)">
			<stop  offset="0" style="stop-color:#087BBB"/>
			<stop  offset="0.4452" style="stop-color:#FFFFFF"/>
			<stop  offset="1" style="stop-color:#FFFFFF"/>
		</linearGradient>
		<path id="path50" fill="url(#path50_1_)" d="M40.891,20.978l-1.363,2.186l8.397-0.412l-3.555-7.365l-1.219,1.97
			c-9.555-5.22-15.917,4.384-15.917,4.384l3.251,3.249C34.385,18.109,40.891,20.978,40.891,20.978"/>
	</g>
	<g id="g54">
		
			<linearGradient id="path68_1_" gradientUnits="userSpaceOnUse" x1="-256.8528" y1="375.7891" x2="-254.7742" y2="375.7891" gradientTransform="matrix(9.9445 0 0 -9.9445 2590.0806 3766.6934)">
			<stop  offset="0" style="stop-color:#087BBB"/>
			<stop  offset="0.4452" style="stop-color:#FFFFFF"/>
			<stop  offset="1" style="stop-color:#FFFFFF"/>
		</linearGradient>
		<path id="path68" fill="url(#path68_1_)" d="M49.454,30.46l-1.362,2.167l8.397-0.392l-3.556-7.367l-1.219,1.973
			c-9.533-5.221-15.894,4.384-15.894,4.384l3.251,3.247C42.949,27.592,49.454,30.46,49.454,30.46"/>
	</g>
	<g id="g72">
		
			<linearGradient id="path86_1_" gradientUnits="userSpaceOnUse" x1="-256.4797" y1="375.2383" x2="-254.3972" y2="375.2383" gradientTransform="matrix(9.9451 0 0 -9.9451 2593.7217 3772.0361)">
			<stop  offset="0" style="stop-color:#087BBB"/>
			<stop  offset="0.4452" style="stop-color:#FFFFFF"/>
			<stop  offset="1" style="stop-color:#FFFFFF"/>
		</linearGradient>
		<path id="path86" fill="url(#path86_1_)" d="M56.693,41.042l-1.359,2.188l8.395-0.43l-3.553-7.347l-1.262,1.97
			c-9.531-5.221-15.895,4.385-15.895,4.385l3.252,3.249C50.189,38.176,56.693,41.042,56.693,41.042"/>
	</g>
	<g id="g90">
		
			<linearGradient id="path108_1_" gradientUnits="userSpaceOnUse" x1="-325.4016" y1="439.7256" x2="-323.3215" y2="439.7256" gradientTransform="matrix(-10.63 -3.869 -3.869 10.63 -1719.222 -5872.7466)">
			<stop  offset="0" style="stop-color:#FFFFFF"/>
			<stop  offset="0.1391" style="stop-color:#FFFFFF"/>
			<stop  offset="0.9045" style="stop-color:#087BBB"/>
			<stop  offset="0.9199" style="stop-color:#087BBB"/>
			<stop  offset="1" style="stop-color:#087BBB"/>
		</linearGradient>
		<path id="path108" fill="url(#path108_1_)" d="M32.867,58.746c-1.354,1.211-3.09,1.885-4.902,1.885
			c-1.938,0-3.759-0.755-5.146-2.121c-1.367-1.366-2.126-3.186-2.126-5.142c0-1.98,0.794-3.854,2.231-5.226l-2.716-2.802
			c-2.2,2.12-3.413,4.985-3.413,8.027c0,3.004,1.168,5.805,3.264,7.878c2.115,2.113,4.916,3.3,7.906,3.3
			c2.79,0,5.445-1.044,7.516-2.88l1.922,1.903l2.188-8.456l-8.954,1.293L32.867,58.746"/>
	</g>
	<g id="g112">
		
			<linearGradient id="path130_1_" gradientUnits="userSpaceOnUse" x1="-324.8298" y1="439.4639" x2="-322.7493" y2="439.4639" gradientTransform="matrix(-10.63 -3.869 -3.869 10.63 -1723.9017 -5877.3716)">
			<stop  offset="0" style="stop-color:#FFFFFF"/>
			<stop  offset="0.1391" style="stop-color:#FFFFFF"/>
			<stop  offset="0.9045" style="stop-color:#087BBB"/>
			<stop  offset="0.9199" style="stop-color:#087BBB"/>
			<stop  offset="1" style="stop-color:#087BBB"/>
		</linearGradient>
		<path id="path130" fill="url(#path130_1_)" d="M23.119,49.142c-1.334,1.212-3.071,1.886-4.886,1.886
			c-1.936,0-3.777-0.755-5.146-2.124c-1.368-1.366-2.125-3.186-2.125-5.141c0-2.019,0.793-3.856,2.231-5.227l-2.716-2.821
			c-2.201,2.128-3.434,4.968-3.434,8.048c0,2.966,1.168,5.766,3.283,7.879c2.115,2.113,4.917,3.3,7.905,3.3
			c2.772,0,5.448-1.043,7.498-2.92l1.922,1.941l2.188-8.455l-8.955,1.293L23.119,49.142"/>
	</g>
	<g id="g134">
		
			<linearGradient id="path152_1_" gradientUnits="userSpaceOnUse" x1="-325.199" y1="439.8115" x2="-323.1184" y2="439.8115" gradientTransform="matrix(-10.3754 -3.7763 -3.7763 10.3754 -1693.5161 -5749.3091)">
			<stop  offset="0" style="stop-color:#FFFFFF"/>
			<stop  offset="0.1391" style="stop-color:#FFFFFF"/>
			<stop  offset="0.9045" style="stop-color:#087BBB"/>
			<stop  offset="0.9199" style="stop-color:#087BBB"/>
			<stop  offset="1" style="stop-color:#087BBB"/>
		</linearGradient>
		<path id="path152" fill="url(#path152_1_)" d="M0.522,41.889c0.227,0.288,0.461,0.533,0.721,0.815
			c2.115,2.111,4.918,3.258,7.906,3.258c2.771,0,5.446-1.043,7.497-2.879l1.922,1.903l2.166-8.438l-8.933,1.302l2.23,2.354
			c-1.352,1.212-3.069,1.885-4.883,1.885c-1.956,0-3.777-0.756-5.146-2.161c-1.387-1.367-2.145-3.188-2.145-5.121
			c0-2,0.793-3.856,2.231-5.249l-2.694-2.799c-0.377,0.348-0.719,0.727-1.048,1.135"/>
	</g>
	<g id="g156">
		<path id="path162" fill="#087BBB" d="M16.448,11.606L4.997,23.631l45.059,42.748l11.431-12.023L16.448,11.606"/>
		<path id="path166" fill="#FFFFFF" d="M48.756,64.097l0.853-0.912l0.954,0.853l-0.891,0.911L48.756,64.097z M46.928,62.357
			l0.854-0.914l0.911,0.85l-0.849,0.914L46.928,62.357z M45.063,60.614l0.891-0.913l0.914,0.851l-0.891,0.914L45.063,60.614z
			 M43.237,58.872l0.851-0.952l0.953,0.892l-0.892,0.913L43.237,58.872z M41.408,57.131l0.853-0.952l0.913,0.891l-0.85,0.912
			L41.408,57.131z M39.542,55.35l0.892-0.912l0.912,0.891l-0.89,0.912L39.542,55.35z M37.716,53.607l0.893-0.911l0.911,0.89
			l-0.891,0.913L37.716,53.607z M35.868,51.867l0.872-0.914l0.914,0.892l-0.854,0.913L35.868,51.867z M34.041,50.125l0.871-0.912
			l0.916,0.89l-0.874,0.912L34.041,50.125z M32.194,48.382l0.873-0.909l0.914,0.89l-0.872,0.911L32.194,48.382z M30.348,46.643
			l0.892-0.913l0.913,0.851l-0.87,0.953L30.348,46.643z M28.52,44.901l0.872-0.912l0.913,0.85l-0.87,0.952L28.52,44.901z
			 M26.673,43.159l0.871-0.912L28.48,43.1l-0.873,0.91L26.673,43.159z M24.846,41.419l0.872-0.913l0.914,0.851l-0.87,0.913
			L24.846,41.419z M22.999,39.676l0.874-0.91l0.912,0.85l-0.871,0.912L22.999,39.676z M21.154,37.926l0.872-0.923l0.933,0.871
			l-0.871,0.91L21.154,37.926z M19.327,36.173l0.871-0.912l0.914,0.871l-0.872,0.912L19.327,36.173z M17.481,34.433l0.871-0.914
			l0.934,0.871l-0.894,0.912L17.481,34.433z M15.654,32.691l0.871-0.935l0.914,0.892l-0.872,0.912L15.654,32.691z M13.807,30.947
			l0.871-0.932l0.914,0.871L14.72,31.82L13.807,30.947z M11.96,29.187l0.871-0.912l0.934,0.871l-0.872,0.933L11.96,29.187z
			 M10.133,27.445l0.871-0.911l0.913,0.87l-0.871,0.912L10.133,27.445z M8.286,25.704l0.871-0.912l0.914,0.871L9.2,26.575
			L8.286,25.704z M6.439,23.962L7.33,23.05l0.914,0.87l-0.872,0.913L6.439,23.962z M40.961,53.896l7.579-8l10.127,9.597
			l-7.618,8.002L40.961,53.896z M29.919,43.448l7.579-8.001l10.13,9.597l-7.581,8.003L29.919,43.448z M18.879,32.959l7.598-7.982
			l10.109,9.599l-7.601,7.982L18.879,32.959z M7.837,22.49l7.599-7.982l10.127,9.599l-7.6,7.981L7.837,22.49z M58.28,54.064
			l0.854-0.913l0.912,0.89l-0.85,0.915L58.28,54.064z M56.415,52.325l0.893-0.916l0.911,0.892l-0.892,0.912L56.415,52.325z
			 M54.589,50.581l0.892-0.913l0.912,0.892l-0.892,0.913L54.589,50.581z M52.762,48.84l0.85-0.912l0.915,0.888l-0.851,0.916
			L52.762,48.84z M50.893,47.1l0.892-0.913l0.916,0.891l-0.854,0.911L50.893,47.1z M49.066,45.357l0.894-0.915l0.91,0.854
			l-0.888,0.951L49.066,45.357z M47.24,43.616l0.852-0.914l0.915,0.853l-0.854,0.951L47.24,43.616z M45.374,41.874l0.891-0.913
			l0.914,0.85l-0.854,0.915L45.374,41.874z M43.547,40.132l0.892-0.912l0.914,0.85l-0.892,0.913L43.547,40.132z M41.719,38.391
			l0.854-0.932l0.91,0.871l-0.85,0.911L41.719,38.391z M39.853,36.629l0.892-0.912l0.912,0.869L40.806,37.5L39.853,36.629z
			 M38.027,34.888l0.889-0.913l0.915,0.87l-0.893,0.913L38.027,34.888z M36.199,33.145l0.853-0.911l0.952,0.871l-0.89,0.913
			L36.199,33.145z M34.353,31.405l0.871-0.934l0.933,0.871l-0.869,0.932L34.353,31.405z M32.527,29.663l0.87-0.933l0.911,0.871
			l-0.869,0.933L32.527,29.663z M30.68,27.901l0.871-0.912l0.912,0.872l-0.872,0.91L30.68,27.901z M28.833,26.161l0.871-0.915
			l0.932,0.871l-0.87,0.914L28.833,26.161z M27.008,24.42l0.87-0.913l0.911,0.869l-0.87,0.913L27.008,24.42z M25.159,22.676
			l0.871-0.911l0.914,0.869l-0.871,0.914L25.159,22.676z M23.311,20.936l0.892-0.933l0.914,0.871l-0.872,0.932L23.311,20.936z
			 M21.484,19.193l0.871-0.932l0.916,0.871L22.4,20.065L21.484,19.193z M19.636,17.434l0.873-0.914l0.934,0.872l-0.87,0.911
			L19.636,17.434z M17.81,15.691l0.871-0.914l0.915,0.872l-0.872,0.913L17.81,15.691z M15.965,13.949l0.872-0.912l0.914,0.87
			l-0.871,0.914L15.965,13.949z M61.487,54.354L17.36,12.476l-0.912-0.87l-1.925,2.011l-7.6,8.002l-1.926,2.012l45.059,42.748
			L61.487,54.354"/>
	</g>
</g>
</svg>
