<?xml version="1.0" encoding="utf-8"?>
<!-- Generator: Adobe Illustrator 16.0.0, SVG Export Plug-In . SVG Version: 6.00 Build 0)  -->
<!DOCTYPE svg PUBLIC "-//W3C//DTD SVG 1.1//EN" "http://www.w3.org/Graphics/SVG/1.1/DTD/svg11.dtd">
<svg version="1.1"
	 id="图层_1" xmlns:dc="http://purl.org/dc/elements/1.1/" xmlns:cc="http://creativecommons.org/ns#" xmlns:rdf="http://www.w3.org/1999/02/22-rdf-syntax-ns#"
	 xmlns="http://www.w3.org/2000/svg" xmlns:xlink="http://www.w3.org/1999/xlink" x="0px" y="0px" width="57px" height="77px"
	 viewBox="0 0 57 77" enable-background="new 0 0 57 77" xml:space="preserve">
<path fill="#00BCF2" d="M24.211,76.971c-0.292-0.031-1.178-0.132-1.968-0.218c-6.654-0.741-12.902-2.787-17.417-5.702
	c-1.655-1.069-3.71-3.143-4.316-4.351l-0.453-0.907L0.018,38.084C-0.022,10.667-0.02,10.367,0.28,9.572
	c1.37-3.626,8.025-7.083,16.661-8.654C21.065,0.167,23.036,0.007,28.301,0c5.018-0.007,6.369,0.086,10.071,0.69
	c4.442,0.724,8.55,1.938,11.701,3.46c3.363,1.624,5.494,3.411,6.438,5.401L57,10.583v27.453c0,26.556-0.011,27.478-0.284,28.21
	c-1.405,3.711-7.053,7.219-14.861,9.229c-4.329,1.112-7.087,1.444-12.57,1.508C26.786,77.009,24.502,77.005,24.211,76.971
	L24.211,76.971z M47.727,54.17c2.018-0.575,3.495-1.72,3.95-3.05c0.22-0.641,0.251-1.59,0.251-7.362v-6.629h-2.8h-2.8l-0.042,4.047
	l-0.039,4.043l-2.964-0.011c-1.628-0.005-3.079-0.056-3.217-0.106c-0.234-0.09-0.257-0.482-0.257-4.037v-3.937l-3.825,0.004
	l-3.823,0.005l0.72,0.411l0.719,0.411v3.715c0,4.23,0.101,4.817,1.014,5.881c0.743,0.871,2.288,1.588,3.882,1.809
	c0.649,0.093,2.228,0.167,3.505,0.167c1.882,0,2.507-0.058,3.279-0.296c0.523-0.163,0.979-0.271,1.011-0.238
	c0.034,0.032-0.021,0.303-0.117,0.598c-0.335,1.013-0.212,0.996-6.474,0.996h-5.647v1.979v1.979l6.4-0.063
	C45.807,54.432,46.996,54.379,47.727,54.17L47.727,54.17z M20.536,49.326c0.429-0.218,0.954-0.623,1.167-0.9
	c0.213-0.279,1.142-2.168,2.065-4.2c0.923-2.032,1.742-3.759,1.82-3.837c0.086-0.089,0.14,1.676,0.14,4.575v4.72h2.802h2.804V43.33
	c0-4.974,0.04-6.354,0.189-6.364c0.149-0.009,0.149-0.026,0-0.088c-0.135-0.054-0.191-0.514-0.192-1.539
	c0-1.708-0.252-2.407-1.11-3.161c-1.121-0.983-4.097-1.352-5.575-0.688c-1.527,0.685-1.751,1.076-5.787,10.14
	c-0.342,0.769-0.667,1.397-0.722,1.397s-0.966-2.024-2.027-4.498c-2.312-5.396-2.357-5.486-3.03-6.159
	c-1.069-1.067-2.322-1.403-4.24-1.136c-1.651,0.229-2.479,0.658-2.913,1.509l-0.341,0.668v8.137v8.136H8.16h2.574v-4.72
	c0-2.81,0.056-4.661,0.138-4.575c0.075,0.078,0.83,1.674,1.676,3.546c1.82,4.022,2.11,4.55,2.821,5.089
	C16.56,49.933,19.049,50.078,20.536,49.326L20.536,49.326z M32.922,16.248c7.135-0.528,12.777-2.118,14.853-4.188
	c0.88-0.879,1.105-1.616,0.768-2.503c-0.861-2.254-5.434-4.088-12.592-5.055c-2.899-0.389-12.167-0.388-15.07,0.002
	c-5.632,0.759-9.815,2.118-11.609,3.77c-1.157,1.068-1.378,1.874-0.813,2.98c0.417,0.817,1.202,1.423,2.957,2.283
	c2.914,1.427,7.346,2.354,13.252,2.767C26.342,16.423,30.987,16.391,32.922,16.248z"/>
</svg>
