<?xml version="1.0" encoding="utf-8"?>
<!-- Generator: Adobe Illustrator 16.0.0, SVG Export Plug-In . SVG Version: 6.00 Build 0)  -->
<!DOCTYPE svg PUBLIC "-//W3C//DTD SVG 1.1//EN" "http://www.w3.org/Graphics/SVG/1.1/DTD/svg11.dtd">
<svg version="1.1"
	 id="svg2" xmlns:dc="http://purl.org/dc/elements/1.1/" xmlns:cc="http://creativecommons.org/ns#" xmlns:rdf="http://www.w3.org/1999/02/22-rdf-syntax-ns#" xmlns:svg="http://www.w3.org/2000/svg"
	 xmlns="http://www.w3.org/2000/svg" xmlns:xlink="http://www.w3.org/1999/xlink" x="0px" y="0px" width="79px" height="60px"
	 viewBox="0 0 79 60" enable-background="new 0 0 79 60" xml:space="preserve">
<g id="g12" transform="scale(0.1,0.1)">
	<path id="path14" fill="#087BBB" d="M211.064,587.573h516.362V70.21H211.064V587.573z"/>
	<path id="path16" fill="none" stroke="#FFFFFF" stroke-width="4" d="M211.064,587.573h516.362V70.21H211.064V587.573z"/>
	<path id="path18" fill="#087BBB" d="M271.489,3.379h516.27l-64.688,65.347H206.816L271.489,3.379"/>
	<path id="path20" fill="none" stroke="#FFFFFF" stroke-width="4" d="M271.489,3.379h516.27l-64.688,65.347H206.816L271.489,3.379z"
		/>
	<path id="path22" fill="#087BBB" d="M790.005,505.503l-64.688,94.492V65.322L790.005,0V505.503"/>
	<path id="path24" fill="none" stroke="#FFFFFF" stroke-width="4" d="M790.005,505.503l-64.688,94.492V65.322L790.005,0V505.503z"/>
	<path id="path26" fill="#087BBB" d="M1.836,587.573h209.229V70.21H1.836V587.573z"/>
	<path id="path28" fill="none" stroke="#FFFFFF" stroke-width="4" d="M1.836,587.573h209.229V70.21H1.836V587.573z"/>
	<path id="path30" fill="#087BBB" d="M70.195,3.379h209.36l-64.702,65.347H5.498L70.195,3.379"/>
	<path id="path32" fill="none" stroke="#FFFFFF" stroke-width="4" d="M70.195,3.379h209.36l-64.702,65.347H5.498L70.195,3.379z"/>
	<path id="path34" d="M211.064,70.21v517.363"/>
	<path id="path36" fill="none" stroke="#FFFFFF" stroke-width="4" d="M211.064,70.21v517.363"/>
	<path id="path38" fill="#B2B2B2" d="M214.189,68.726l64.702-65.347"/>
	<path id="path40" fill="none" stroke="#FFFFFF" stroke-width="4" d="M214.189,68.726l64.702-65.347"/>
	<path id="path42" fill="#FFFFFF" d="M99.902,213.462l-1.904,2.529c-13.018,19.648-23.594,29.531-31.953,29.531
		c-9.473,0-18.936-7.666-28.193-22.852c1.211,0.059,2.217,0.098,2.734,0.098c10.996,0,23.066-8.467,36.494-25.396l3.408-4.302
		l-4.463-4.727c-12.373-13.057-18.545-24.15-18.545-33.184c0-7.383,6.826-16.196,20.361-26.27
		c1.904,12.876,7.529,25.522,17.061,37.847l3.77,4.717l3.027-3.887c13.75-17.852,26.396-26.758,37.676-26.758
		c8.828,0,15.605,6.709,20.195,20.234c-1.406-0.088-2.324-0.293-3.027-0.293c-3.887,0-9.531,2.686-16.797,8.076
		c-7.129,5.386-13.271,11.484-18.262,18.169l-3.867,5.21l3.77,3.506c13.32,12.896,27.217,19.429,41.758,19.429
		c-7.734,15.771-15.83,23.604-24.316,23.604c-7.676,0-18.77-6.66-33.184-20.137L99.902,213.462"/>
	<path id="path44" fill="#FFFFFF" d="M159.355,407.612c-12.666,13.633-26.543,31.328-41.621,53.047
		c-15.078,21.738-26.27,40.313-33.594,55.742l-9.248,6.23c-7.666,5.332-12.822,9.316-15.547,12.09
		c-1.104-3.945-3.447-10.566-7.188-19.336l-3.467-8.164c-5-11.699-9.629-20.273-13.906-25.82
		c-4.268-5.801-9.023-9.238-14.365-11.172c8.945-9.57,17.295-14.375,24.795-14.375c6.387,0,13.418,8.672,21.211,26.27l3.848,8.711
		c14.707-24.766,37.656-52.52,68.633-83.223l8.486-7.949l23.545-18.652c5.996-3.965,11.523-7.52,16.826-10.449l4.619,6.621
		c-4.492,3.223-9.434,7.168-14.678,11.816L159.355,407.612"/>
	<path id="path46" fill="#087BBB" d="M209.355,319.468H0"/>
	<path id="path48" fill="none" stroke="#FFFFFF" stroke-width="4" d="M209.355,319.468H0"/>
	<path id="path50" fill="none" stroke="#FFFFFF" stroke-width="4" stroke-linecap="round" stroke-linejoin="round" d="
		M723.696,442.124H210.273"/>
	<path id="path52" fill="none" stroke="#FFFFFF" stroke-width="4" stroke-linecap="round" stroke-linejoin="round" d="
		M723.696,513.257H210.273"/>
	<path id="path54" fill="none" stroke="#FFFFFF" stroke-width="4" stroke-linecap="round" stroke-linejoin="round" d="
		M784.692,428.1l-56.66,86.152"/>
	<path id="path56" fill="none" stroke="#FFFFFF" stroke-width="4" stroke-linecap="round" stroke-linejoin="round" d="
		M362.31,516.928v64.473"/>
	<path id="path58" fill="none" stroke="#FFFFFF" stroke-width="4" stroke-linecap="round" stroke-linejoin="round" d="
		M560.903,516.928v64.473"/>
	<path id="path60" fill="none" stroke="#FFFFFF" stroke-width="4" stroke-linecap="round" stroke-linejoin="round" d="
		M465.747,445.229v64.746"/>
	<path id="path62" fill="none" stroke="#FFFFFF" stroke-width="4" stroke-linecap="round" stroke-linejoin="round" d="
		M267.036,445.229v64.746"/>
	<path id="path64" fill="none" stroke="#FFFFFF" stroke-width="4" stroke-linecap="round" stroke-linejoin="round" d="
		M664.204,445.229v64.746"/>
	<path id="path66" d="M724.478,443.569l63.906-94.18"/>
	<path id="path68" fill="none" stroke="#FFFFFF" stroke-width="4" d="M724.478,443.569l63.906-94.18"/>
	<path id="path70" fill="none" stroke="#FFFFFF" stroke-width="4" stroke-linecap="round" stroke-linejoin="round" d="
		M755.044,482.534v76.387"/>
	<path id="path72" fill="none" stroke="#FFFFFF" stroke-width="4" stroke-linecap="round" stroke-linejoin="round" d="
		M768.481,387.163v76.113"/>
	<path id="path74" fill="#FFFFFF" d="M355.571,419.546c9.063,0,16.582-7.52,16.582-16.719c0-9.238-7.52-16.484-16.582-16.484
		c-9.199,0-16.582,7.246-16.582,16.484C338.989,412.026,346.372,419.546,355.571,419.546"/>
	<path id="path76" fill="none" stroke="#000000" stroke-width="4" d="M355.571,419.546c9.063,0,16.582-7.52,16.582-16.719
		c0-9.238-7.52-16.484-16.582-16.484c-9.199,0-16.582,7.246-16.582,16.484C338.989,412.026,346.372,419.546,355.571,419.546z"/>
	<path id="path78" fill="#FFFFFF" d="M341.353,385.073l32.402,31.68l91.484-93.691l-32.402-31.797L341.353,385.073"/>
	<path id="path80" fill="none" stroke="#000000" stroke-width="4" d="M341.353,385.073l32.402,31.68l91.484-93.691l-32.402-31.797
		L341.353,385.073z"/>
	<path id="path82" fill="#FFFFFF" d="M419.849,222.144c0,68.652,55.918,124.355,124.199,124.355
		c68.574,0,124.238-55.703,124.238-124.355c0-68.496-55.664-124.365-124.238-124.365
		C475.767,97.778,419.849,153.647,419.849,222.144z M437.329,222.144c0-58.901,47.91-106.992,106.719-106.992
		c59.082,0,106.992,48.091,106.992,106.992c0,59.023-47.91,107.109-106.992,107.109
		C485.239,329.253,437.329,281.167,437.329,222.144"/>
	<path id="path84" fill="none" stroke="#000000" stroke-width="4" d="M419.849,222.144c0,68.652,55.918,124.355,124.199,124.355
		c68.574,0,124.238-55.703,124.238-124.355c0-68.496-55.664-124.365-124.238-124.365
		C475.767,97.778,419.849,153.647,419.849,222.144z M437.329,222.144c0-58.901,47.91-106.992,106.719-106.992
		c59.082,0,106.992,48.091,106.992,106.992c0,59.023-47.91,107.109-106.992,107.109
		C485.239,329.253,437.329,281.167,437.329,222.144z"/>
	<path id="path86" fill="#FFFFFF" d="M405.259,229.37c0,68.652,55.918,124.511,124.219,124.511
		c68.535,0,124.219-55.859,124.219-124.511c0-68.633-55.684-124.37-124.219-124.37C461.177,105,405.259,160.737,405.259,229.37z
		 M422.759,229.37c0-59.014,47.891-106.982,106.719-106.982c59.082,0,106.973,47.969,106.973,106.982
		c0,59.043-47.891,107.011-106.973,107.011C470.649,336.382,422.759,288.413,422.759,229.37"/>
	<path id="path88" fill="none" stroke="#000000" stroke-width="4" d="M405.259,229.37c0,68.652,55.918,124.511,124.219,124.511
		c68.535,0,124.219-55.859,124.219-124.511c0-68.633-55.684-124.37-124.219-124.37C461.177,105,405.259,160.737,405.259,229.37z
		 M422.759,229.37c0-59.014,47.891-106.982,106.719-106.982c59.082,0,106.973,47.969,106.973,106.982
		c0,59.043-47.891,107.011-106.973,107.011C470.649,336.382,422.759,288.413,422.759,229.37z"/>
</g>
</svg>
