<?xml version="1.0" encoding="utf-8"?>
<!-- Generator: Adobe Illustrator 16.0.0, SVG Export Plug-In . SVG Version: 6.00 Build 0)  -->
<!DOCTYPE svg PUBLIC "-//W3C//DTD SVG 1.1//EN" "http://www.w3.org/Graphics/SVG/1.1/DTD/svg11.dtd">
<svg version="1.1"
	 id="svg2" xmlns:dc="http://purl.org/dc/elements/1.1/" xmlns:cc="http://creativecommons.org/ns#" xmlns:rdf="http://www.w3.org/1999/02/22-rdf-syntax-ns#" xmlns:svg="http://www.w3.org/2000/svg"
	 xmlns="http://www.w3.org/2000/svg" xmlns:xlink="http://www.w3.org/1999/xlink" x="0px" y="0px" width="77px" height="55px"
	 viewBox="0 0 77 55" enable-background="new 0 0 77 55" xml:space="preserve">
<g id="g12" transform="scale(0.1,0.1)">
	<path id="path22" fill="#2C6AA2" d="M0.002,529.995H690.51V76.299H0.002V529.995z"/>
	<path id="path24" fill="none" stroke="#FFFFFF" stroke-width="4" d="M0.002,529.995H690.51V76.299H0.002V529.995z"/>
	<path id="path26" fill="#2C6AA2" d="M770.002,413.716L690.51,529.995V76.299L770.002-20V413.716"/>
	<path id="path28" fill="none" stroke="#FFFFFF" stroke-width="4" d="M770.002,413.716L690.51,529.995V76.299L770.002-20V413.716z"
		/>
	<path id="path30" fill="#2C6AA2" d="M119.177-20h650.825L690.51,76.299H0.002L119.177-20"/>
	<path id="path32" fill="none" stroke="#FFFFFF" stroke-width="4" d="M119.177-20h650.825L690.51,76.299H0.002L119.177-20z"/>
	<path id="path34" fill="#FFFFFF" d="M120.969,206.528l-0.142,28.975l-67.412-38.184l67.554-38.252v29.004l-0.615-1.289
		l116.548-0.132l0.034-28.828l67.559,38.174l-67.593,38.237l-0.01-28.975l-116.538,0.01L120.969,206.528"/>
	<path id="path36" fill="#FFFFFF" d="M120.969,416.88l-0.142,29.072l-67.412-38.33l67.554-38.252v29.111l-0.615-1.367l116.548-0.02
		l0.034-28.838l67.559,38.076l-67.593,38.203l-0.01-28.867l-116.538,0.029L120.969,416.88"/>
	<path id="path38" fill="#FFFFFF" d="M120.969,314.175l-0.142,28.857l-67.412-38.291l67.554-38.027v28.887l-0.615-1.387l81.221-0.02
		l0.029-28.828l67.573,38.291l-67.603,38.232l-0.015-29.082l-81.206,0.02L120.969,314.175"/>
	<path id="path40" fill="#FFFFFF" d="M644.68,387.3c-11.416-0.059-20.449-33.008-19.98-73.545
		c0.234-40.537,9.854-73.154,21.279-73.115l-85.859-0.703c-11.426-0.068-21.016,32.539-21.475,73.105
		c-0.234,40.537,8.76,73.476,20.186,73.564L644.68,387.3"/>
	<path id="path42" fill="#2C6AA2" d="M624.7,313.794c-0.449,37.959,8.584,68.74,20.234,68.799
		c11.406,0.078,21.025-30.605,21.24-68.349c0.244-38.018-8.818-68.682-20.234-68.74C634.514,245.435,624.934,275.972,624.7,313.794"
		/>
	<path id="path44" fill="none" stroke="#FFFFFF" stroke-width="4" d="M624.7,313.794c-0.449,37.959,8.584,68.74,20.234,68.799
		c11.406,0.078,21.025-30.605,21.24-68.349c0.244-38.018-8.818-68.682-20.234-68.74C634.514,245.435,624.934,275.972,624.7,313.794z
		"/>
	<path id="path46" fill="#FFFFFF" d="M578.87,308.452c-0.703,80.273-66.211,144.834-146.553,144.17
		c-80.273-0.713-144.697-66.23-144.004-146.543c0.566-80.166,66.201-144.722,146.377-144.043
		C515.032,162.754,579.573,228.286,578.87,308.452"/>
	<path id="path48" fill="#2C6AA2" d="M504.475,310.571c-0.449,38.437-31.748,69.394-70.43,69.16
		c-38.457-0.234-69.365-31.758-69.033-70.429c0.332-38.438,31.807-69.395,70.283-69.053
		C473.782,240.552,504.7,272.075,504.475,310.571"/>
</g>
</svg>
