<?xml version="1.0" encoding="utf-8"?>
<!-- Generator: Adobe Illustrator 16.0.0, SVG Export Plug-In . SVG Version: 6.00 Build 0)  -->
<!DOCTYPE svg PUBLIC "-//W3C//DTD SVG 1.1//EN" "http://www.w3.org/Graphics/SVG/1.1/DTD/svg11.dtd">
<svg version="1.1"
	 id="svg2" xmlns:dc="http://purl.org/dc/elements/1.1/" xmlns:cc="http://creativecommons.org/ns#" xmlns:rdf="http://www.w3.org/1999/02/22-rdf-syntax-ns#" xmlns:svg="http://www.w3.org/2000/svg"
	 xmlns="http://www.w3.org/2000/svg" xmlns:xlink="http://www.w3.org/1999/xlink" x="0px" y="0px" width="80px" height="54px"
	 viewBox="0 0 80 54" enable-background="new 0 0 80 54" xml:space="preserve">
<g id="g12" transform="scale(0.1,0.1)">
	<path id="path22" fill="#2C6AA2" d="M784.995,160.042c0,82.891-172.285,150.039-384.99,150.039
		C187.305,310.08,15,242.932,15,160.042v219.931c0,82.891,172.305,150.029,385.005,150.029c212.705,0,384.99-67.139,384.99-150.029
		V160.042"/>
	<path id="path24" fill="none" stroke="#FFFFFF" stroke-width="4" d="M784.995,160.042c0,82.891-172.285,150.039-384.99,150.039
		C187.305,310.08,15,242.932,15,160.042v219.931c0,82.891,172.305,150.029,385.005,150.029c212.705,0,384.99-67.139,384.99-150.029
		V160.042z"/>
	<path id="path26" fill="#2C6AA2" d="M400.005,310.08c212.705,0,384.99-67.148,384.99-150.039
		c0-82.9-172.285-150.039-384.99-150.039C187.305,10.002,15,77.141,15,160.042C15,242.932,187.305,310.08,400.005,310.08"/>
	<path id="path28" fill="none" stroke="#FFFFFF" stroke-width="4" d="M400.005,310.08c212.705,0,384.99-67.148,384.99-150.039
		c0-82.9-172.285-150.039-384.99-150.039C187.305,10.002,15,77.141,15,160.042C15,242.932,187.305,310.08,400.005,310.08z"/>
	<path id="path30" fill="#FFFFFF" d="M312.065,101.462l31.846,47.671l-120.239,27.871l26.284-21.899L64.204,123.347l46.611-35.029
		l179.297,30.469L312.065,101.462"/>
	<path id="path32" fill="#FFFFFF" d="M481.226,217.278l-21.758-49.297l108.379-21.631l-18.789,16.914l180.898,30.928l-43.457,34.727
		l-179.668-33.848L481.226,217.278"/>
	<path id="path34" fill="#FFFFFF" d="M421.89,75.256l121.582-33.262l1.465,52.109l-30.547-5.747l-59.316,49.316l-56.494-8.286
		l61.377-48.213L421.89,75.256"/>
	<path id="path36" fill="#FFFFFF" d="M369.907,262.2l-115.703,21.914l-4.248-53.72l33.164,7.207l63.77-54.541l56.211,9.648
		l-67.842,59.473L369.907,262.2"/>
	<path id="path38" fill="#FFFFFF" d="M253.315,350.451l-0.02,18.438l-43.457-24.434l43.467-24.717l0.01,18.76l-0.381-0.83
		l74.863-0.01l0.01-18.711l43.32,24.727l-43.33,24.395l-0.01-18.73l-74.844,0.01L253.315,350.451"/>
	<path id="path40" fill="#FFFFFF" d="M253.315,485.705l-0.02,18.75l-43.457-24.746l43.467-24.414l0.01,18.75l-0.381-1.123
		l74.863-0.01l0.01-18.408l43.32,24.424l-43.33,24.707l-0.01-18.74l-74.844,0.01L253.315,485.705"/>
	<path id="path42" fill="#FFFFFF" d="M253.315,419.446l-0.02,18.74l-43.457-24.746l43.467-24.404l0.01,18.74l-0.381-0.82
		l52.217-0.313l0.02-18.398l43.32,24.414l-43.34,24.707l-0.156-18.73l-52.051,0.01L253.315,419.446"/>
	<path id="path44" fill="#FFFFFF" d="M589.663,466.731c-7.129-0.029-13.008-21.191-12.871-47.393
		c0.117-25.898,6.523-47.002,13.652-46.973l-55.078-0.576c-7.441-0.029-13.496,21.064-13.633,47.275
		c-0.137,25.898,5.449,47.061,12.871,47.109L589.663,466.731"/>
	<path id="path46" fill="#2C6AA2" d="M576.792,419.348c-0.137,24.561,5.762,44.287,12.891,44.326
		c7.441,0.029,13.516-19.639,13.945-43.887c0.117-24.6-5.762-44.297-13.203-44.336C583.296,375.412,576.909,395.051,576.792,419.348
		"/>
	<path id="path48" fill="none" stroke="#FFFFFF" stroke-width="4" d="M576.792,419.348c-0.137,24.561,5.762,44.287,12.891,44.326
		c7.441,0.029,13.516-19.639,13.945-43.887c0.117-24.6-5.762-44.297-13.203-44.336C583.296,375.412,576.909,395.051,576.792,419.348
		z"/>
	<path id="path50" fill="#FFFFFF" d="M547.397,416.057c-0.547,51.514-42.656,93.018-94.063,92.773
		c-51.514-0.576-92.92-42.773-92.51-94.297c0.4-51.797,42.52-93.301,94.033-93.057C506.577,322.053,547.964,364.28,547.397,416.057"
		/>
	<path id="path52" fill="#2C6AA2" d="M499.487,417.17c-0.117,24.824-20.391,44.941-45.156,44.824
		c-24.453-0.439-44.531-20.752-44.395-45.576c0.43-24.512,20.352-44.639,45.137-44.521
		C479.858,372.317,499.897,392.326,499.487,417.17"/>
</g>
</svg>
