<?xml version="1.0" encoding="utf-8"?>
<!-- Generator: Adobe Illustrator 16.0.0, SVG Export Plug-In . SVG Version: 6.00 Build 0)  -->
<!DOCTYPE svg PUBLIC "-//W3C//DTD SVG 1.1//EN" "http://www.w3.org/Graphics/SVG/1.1/DTD/svg11.dtd">
<svg version="1.1"
	 id="svg2" xmlns:dc="http://purl.org/dc/elements/1.1/" xmlns:cc="http://creativecommons.org/ns#" xmlns:rdf="http://www.w3.org/1999/02/22-rdf-syntax-ns#" xmlns:svg="http://www.w3.org/2000/svg"
	 xmlns="http://www.w3.org/2000/svg" xmlns:xlink="http://www.w3.org/1999/xlink" x="0px" y="0px" width="80px" height="54px"
	 viewBox="0 0 80 54" enable-background="new 0 0 80 54" xml:space="preserve">
<g id="g12">
	<path id="path22" fill="#026C9B" d="M40.002,31.458c21.27,0,38.498-6.704,38.498-14.979C78.5,8.204,61.27,1.5,40.002,1.5
		c-21.271,0-38.5,6.704-38.5,14.979C1.501,24.754,18.731,31.458,40.002,31.458"/>
	<path id="path24" fill="none" stroke="#FFFFFF" d="M40.002,31.458c21.27,0,38.498-6.704,38.498-14.979
		C78.5,8.204,61.27,1.5,40.002,1.5c-21.271,0-38.5,6.704-38.5,14.979C1.501,24.754,18.731,31.458,40.002,31.458z"/>
</g>
<g id="g16">
	<path id="path26" fill="#026C9B" d="M77.616,13.358c-11.535-3.308-14.993,3.297-21.698,3.297c-8.912,0-5.629-3.977-15.847-4.013
		c-12.108-0.04-7.186,3.896-15.974,3.919c-6.359,0.031-8.846-5.197-21.741-3.203c-0.672,1.344-0.902,2.17-0.788,4.211
		c11.992-2.713,15.335,3.429,22.517,3.121c9.934-0.433,4.737-4.229,15.961-3.92c10.503,0.296,5.235,4.001,15.83,4.001
		c9.17,0,10.282-6.433,22.467-3.513C78.342,17.259,78.884,15.412,77.616,13.358"/>
	<path id="path28" fill="none" stroke="#FFFFFF" stroke-width="0.5" d="M77.616,13.358c-11.535-3.308-14.993,3.297-21.698,3.297
		c-8.912,0-5.629-3.977-15.847-4.013c-12.108-0.04-7.186,3.896-15.974,3.919c-6.359,0.031-8.846-5.197-21.741-3.203
		c-0.672,1.344-0.902,2.17-0.788,4.211c11.992-2.713,15.335,3.429,22.517,3.121c9.934-0.433,4.737-4.229,15.961-3.92
		c10.503,0.296,5.235,4.001,15.83,4.001c9.17,0,10.282-6.433,22.467-3.513C78.342,17.259,78.884,15.412,77.616,13.358z"/>
	<path id="path30" fill="#026C9B" d="M68.027,6.173c-6.316-1.145-4.711,2.928-12.109,2.928c-8.912,0-5.321-3.977-15.539-4
		c-12.107-0.055-8.053,4.364-16.842,4.408c-5.805,0.035-7.551-2.75-12.895-2.672c-1.575,0.541-4.17,2.193-5.807,3.537
		c9.189-2.208,12.709,2.721,18.926,2.758c9.952,0.068,5.369-4.226,16.607-3.917c10.517,0.294,4.913,4.013,15.507,4.013
		c7.44,0,7.581-6.189,18.128-3.719C74.004,9.509,71.303,7.516,68.027,6.173"/>
	<path id="path32" fill="none" stroke="#FFFFFF" stroke-width="0.5" d="M68.027,6.173c-6.316-1.145-4.711,2.928-12.109,2.928
		c-8.912,0-5.321-3.977-15.539-4c-12.107-0.055-8.053,4.364-16.842,4.408c-5.805,0.035-7.551-2.75-12.895-2.672
		c-1.575,0.541-4.17,2.193-5.807,3.537c9.189-2.208,12.709,2.721,18.926,2.758c9.952,0.068,5.369-4.226,16.607-3.917
		c10.517,0.294,4.913,4.013,15.507,4.013c7.44,0,7.581-6.189,18.128-3.719C74.004,9.509,71.303,7.516,68.027,6.173z"/>
	<path id="path34" fill="#026C9B" d="M76.906,20.814c-11.722-2.836-11.783,3.396-20.063,3.396c-8.88,0-5.321-4.129-15.508-4.172
		c-12.122-0.035-7.832,3.88-16.606,3.936c-5.818,0.022-13.223-5.891-21.392-2.982c1.205,1.887,5.227,4.133,5.227,4.133
		c4.75-1.524,8.378,2.952,16.14,2.952c9.952,0,5.37-4.226,16.593-3.918c10.517,0.295,4.946,3.762,15.537,4
		c7.736,0.194,9.657-5.569,16.396-4.092C73.23,24.066,75.471,22.799,76.906,20.814"/>
	<path id="path36" fill="none" stroke="#FFFFFF" stroke-width="0.5" d="M76.906,20.814c-11.722-2.836-11.783,3.396-20.063,3.396
		c-8.88,0-5.321-4.129-15.508-4.172c-12.122-0.035-7.832,3.88-16.606,3.936c-5.818,0.022-13.223-5.891-21.392-2.982
		c1.205,1.887,5.227,4.133,5.227,4.133c4.75-1.524,8.378,2.952,16.14,2.952c9.952,0,5.37-4.226,16.593-3.918
		c10.517,0.295,4.946,3.762,15.537,4c7.736,0.194,9.657-5.569,16.396-4.092C73.23,24.066,75.471,22.799,76.906,20.814z"/>
	<path id="path38" fill="#FFFFFF" d="M31.805,28.068l-13.87,0.583l1.946-6.781l2.752,1.525l13.224-6.44l5.739,3.258l-13.14,6.207
		L31.805,28.068"/>
</g>
<g id="g42">
	<path id="path48" fill="#FFFFFF" d="M50.304,5.6L64.12,5.646l-1.876,6.164l-2.771-1.538l-13.212,6.536l-5.741-3.573l13.146-6.308
		L50.304,5.6"/>
</g>
<g id="g52">
	<path id="path58" fill="#FFFFFF" d="M34.627,10.181l3.879,4.931l-17.417,0.88l3.386-1.512L11.843,9.112l6.574-3.559l13.08,5.982
		L34.627,10.181"/>
</g>
<g id="g62">
	<path id="path68" fill="#FFFFFF" d="M45.114,24.527l-1.866-5.996l14.251,0.1l-3.416,1.523l13.531,5.49l-5.943,2.962l-13.402-5.442
		L45.114,24.527"/>
</g>
<g id="g74">
	<path id="path80" fill="#026C9B" d="M78.498,15.565c0,8.275-17.229,14.979-38.498,14.979c-21.27,0-38.5-6.704-38.5-14.979v21.955
		C1.5,45.768,18.73,52.5,40,52.5c21.27,0,38.498-6.732,38.498-14.979V15.565"/>
	<path id="path82" fill="none" stroke="#FFFFFF" d="M78.498,15.565c0,8.275-17.229,14.979-38.498,14.979
		c-21.27,0-38.5-6.704-38.5-14.979v21.955C1.5,45.768,18.73,52.5,40,52.5c21.27,0,38.498-6.732,38.498-14.979V15.565z"/>
</g>
</svg>
