<?xml version="1.0" encoding="utf-8"?>
<!-- Generator: Adobe Illustrator 16.0.0, SVG Export Plug-In . SVG Version: 6.00 Build 0)  -->
<!DOCTYPE svg PUBLIC "-//W3C//DTD SVG 1.1//EN" "http://www.w3.org/Graphics/SVG/1.1/DTD/svg11.dtd">
<svg version="1.1"
	 id="svg2" xmlns:dc="http://purl.org/dc/elements/1.1/" xmlns:cc="http://creativecommons.org/ns#" xmlns:rdf="http://www.w3.org/1999/02/22-rdf-syntax-ns#" xmlns:svg="http://www.w3.org/2000/svg"
	 xmlns="http://www.w3.org/2000/svg" xmlns:xlink="http://www.w3.org/1999/xlink" x="0px" y="0px" width="77px" height="52px"
	 viewBox="0 0 77 52" enable-background="new 0 0 77 52" xml:space="preserve">
<g id="g12" transform="scale(0.1,0.1)">
	<path id="path22" fill="#026C9B" d="M0,110.762L132.368,0.005h637.627L664.663,110.762H0"/>
	<path id="path24" fill="none" stroke="#FFFFFF" stroke-width="4" d="M0,110.762L132.368,0.005h637.627L664.663,110.762H0z"/>
	<path id="path26" fill="#026C9B" d="M769.995,0.005L664.663,110.762v409.243l105.332-139.658V0.005"/>
	<path id="path28" fill="none" stroke="#FFFFFF" stroke-width="4" d="M769.995,0.005L664.663,110.762v409.243l105.332-139.658V0.005
		z"/>
	<path id="path30" fill="#026C9B" d="M0,520.005h664.663V110.762H0V520.005z"/>
	<path id="path32" fill="none" stroke="#FFFFFF" stroke-width="4" d="M0,520.005h664.663V110.762H0V520.005z"/>
	<path id="path34" fill="none" stroke="#FFFFFF" stroke-width="10" d="M327.417,486.772c95.742,0,173.262-77.646,173.262-173.428
		c0-95.937-77.52-173.589-173.262-173.589c-95.776,0-173.281,77.651-173.281,173.589
		C154.136,409.126,231.641,486.772,327.417,486.772z"/>
	<path id="path36" fill="#FFFFFF" d="M56.68,221.265h490.874v-21.807l43.691,31.982l-43.691,31.973v-21.504H56.68"/>
	<path id="path38" fill="#FFFFFF" d="M582.769,412.759H91.733v21.475l-43.662-31.816l43.662-31.807v21.338h491.035"/>
</g>
</svg>
