<?xml version="1.0" encoding="utf-8"?>
<!-- Generator: Adobe Illustrator 16.0.0, SVG Export Plug-In . SVG Version: 6.00 Build 0)  -->
<!DOCTYPE svg PUBLIC "-//W3C//DTD SVG 1.1//EN" "http://www.w3.org/Graphics/SVG/1.1/DTD/svg11.dtd">
<svg version="1.1"
	 id="svg2" xmlns:dc="http://purl.org/dc/elements/1.1/" xmlns:cc="http://creativecommons.org/ns#" xmlns:rdf="http://www.w3.org/1999/02/22-rdf-syntax-ns#" xmlns:svg="http://www.w3.org/2000/svg"
	 xmlns="http://www.w3.org/2000/svg" xmlns:xlink="http://www.w3.org/1999/xlink" x="0px" y="0px" width="76px" height="51px"
	 viewBox="0 0 76 51" enable-background="new 0 0 76 51" xml:space="preserve">
<g id="g12" transform="scale(0.1,0.1)">
	<path id="path22" fill="#026C9B" d="M760,147.134c0,81.309-170.059,147.148-379.99,147.148C170.234,294.282,0,228.442,0,147.134
		v215.703c0,81.328,170.234,147.168,380.01,147.168c209.932,0,379.99-65.84,379.99-147.168V147.134"/>
	<path id="path24" fill="none" stroke="#FFFFFF" stroke-width="4" d="M760,147.134c0,81.309-170.059,147.148-379.99,147.148
		C170.234,294.282,0,228.442,0,147.134v215.703c0,81.328,170.234,147.168,380.01,147.168c209.932,0,379.99-65.84,379.99-147.168
		V147.134z"/>
	<path id="path26" fill="#026C9B" d="M380.01,294.282c209.932,0,379.99-65.84,379.99-147.148C760,65.854,589.941,0,380.01,0
		C170.234,0,0,65.854,0,147.134C0,228.442,170.234,294.282,380.01,294.282"/>
	<path id="path28" fill="none" stroke="#FFFFFF" stroke-width="4" d="M380.01,294.282c209.932,0,379.99-65.84,379.99-147.148
		C760,65.854,589.941,0,380.01,0C170.234,0,0,65.854,0,147.134C0,228.442,170.234,294.282,380.01,294.282z"/>
	<path id="path30" fill="#FFFFFF" d="M385.918,118.892L332.9,36.88l23.74-2.91l-49.668-19.922l-20.215,28.438l23.545-2.915
		l53.018,81.992L385.918,118.892"/>
	<path id="path32" fill="#FFFFFF" d="M355.859,129.043l-185.581-47.31l12.007-8.184l-65.4,1.836l29.736,26.914l12.163-9.834
		l185.552,47.305L355.859,129.043"/>
	<path id="path34" fill="#FFFFFF" d="M344.648,146.03l-208.184,26.143l-4.727-8.896l-43.022,22.314l62.388,9.59l-6.445-10.791
		l207.979-26.133L344.648,146.03"/>
	<path id="path36" fill="#FFFFFF" d="M352.891,164.038L246.699,244.37l-21.465-5.586l4.561,30.107l58.564-13.476l-21.445-5.596
		l106.357-80.508L352.891,164.038"/>
	<path id="path38" fill="#FFFFFF" d="M405.908,121.279l90.654-75.161l-21.455-5.767l58.584-13.301l4.551,29.932l-21.123-5.591
		l-90.996,75.342L405.908,121.279"/>
	<path id="path40" fill="#FFFFFF" d="M391.699,171.519l54.229,88.379l-23.721,3.066l49.668,19.941l20.215-28.603l-23.75,2.93
		l-54.219-88.369L391.699,171.519"/>
	<path id="path42" fill="#FFFFFF" d="M430.303,162.622l180.352,46.113l-12.324,9.658l65.752-1.826l-30.068-26.914l-12.002,6.875
		l-180.391-46.104L430.303,162.622"/>
	<path id="path44" fill="#FFFFFF" d="M435.527,150.454l206.592-25.967l6.621,10.786l43.057-22.485l-62.422-9.6l6.641,8.105
		l-206.943,26.143L435.527,150.454"/>
	<path id="path46" fill="#026C9B" d="M387.246,174.419c34.512,1.182,63.291-10.654,63.945-26.514
		c0.645-15.684-27.305-29.624-62.109-30.781c-34.668-1.162-63.271,10.669-63.916,26.348
		C324.707,159.331,352.48,173.257,387.246,174.419"/>
	<path id="path48" fill="none" stroke="#FFFFFF" stroke-width="4" d="M387.246,174.419c34.512,1.182,63.291-10.654,63.945-26.514
		c0.645-15.684-27.305-29.624-62.109-30.781c-34.668-1.162-63.271,10.669-63.916,26.348
		C324.707,159.331,352.48,173.257,387.246,174.419z"/>
</g>
</svg>
