<?xml version="1.0" encoding="utf-8"?>
<!-- Generator: Adobe Illustrator 16.0.0, SVG Export Plug-In . SVG Version: 6.00 Build 0)  -->
<!DOCTYPE svg PUBLIC "-//W3C//DTD SVG 1.1//EN" "http://www.w3.org/Graphics/SVG/1.1/DTD/svg11.dtd">
<svg version="1.1" id="图层_1" xmlns="http://www.w3.org/2000/svg" xmlns:xlink="http://www.w3.org/1999/xlink" x="0px" y="0px"
	 width="75px" height="75px" viewBox="0 0 75 75" enable-background="new 0 0 75 75" xml:space="preserve">
<g id="Layer_1">
	<circle fill="#9D5025" cx="37.5" cy="39.038" r="35.962"/>
	<circle fill="#F58536" cx="37.5" cy="35.962" r="35.962"/>
	<g>
		<g>
			<path fill="#FFFFFF" d="M37.5,62.815l-0.591-0.236c-0.237-0.118-5.56-2.012-11.002-8.163c-3.076-3.549-5.56-7.808-7.334-12.657
				c-2.129-6.033-3.313-13.013-3.313-20.702v-1.656h1.656c1.538,0,4.377-0.474,5.56-1.656c1.656-1.656,1.893-4.614,1.893-4.614
				l0.118-1.064l1.065-0.355c0.236-0.237,6.033-2.484,11.948-2.484c5.678,0,11.593,2.129,11.948,2.248l1.064,0.355l0.118,1.065
				c0,0,0.236,2.957,1.893,4.613c1.065,1.065,4.141,1.538,5.561,1.538l1.655,0.118v1.656c0,7.689-1.064,14.668-3.312,20.702
				c-1.774,4.85-4.259,9.108-7.335,12.775c-5.323,6.151-10.765,8.044-11.001,8.163L37.5,62.815z M18.809,22.713
				c0.237,12.185,3.549,22.239,9.582,29.338c3.786,4.377,7.689,6.388,9.109,7.098c1.42-0.592,5.205-2.603,9.108-7.098
				c6.033-7.099,9.346-17.153,9.583-29.456c-1.775-0.237-4.614-0.828-6.152-2.484c-1.774-1.774-2.484-4.259-2.721-5.678
				c-1.774-0.591-5.914-1.774-9.7-1.774c-3.904,0-7.926,1.183-9.7,1.774c-0.236,1.419-0.946,3.904-2.721,5.678
				C23.304,21.885,20.583,22.476,18.809,22.713z"/>
		</g>
		<path fill="#FFFFFF" d="M48.265,34.424c-2.129,2.129-8.636,6.625-11.12,9.109c0-1.184,0-5.915,0-7.098c-4.259,0-24.487,0-28.627,0
			c0-2.484,0-1.656,0-4.259c4.14,0,24.369,0,28.627,0c0-1.183,0-6.033,0-6.979C39.393,27.563,45.899,32.059,48.265,34.424z"/>
	</g>
</g>
</svg>
