<?xml version="1.0" encoding="utf-8"?>
<!-- Generator: Adobe Illustrator 16.0.0, SVG Export Plug-In . SVG Version: 6.00 Build 0)  -->
<!DOCTYPE svg PUBLIC "-//W3C//DTD SVG 1.1//EN" "http://www.w3.org/Graphics/SVG/1.1/DTD/svg11.dtd">
<svg version="1.1" id="图层_1" xmlns="http://www.w3.org/2000/svg" xmlns:xlink="http://www.w3.org/1999/xlink" x="0px" y="0px"
	 width="75px" height="69px" viewBox="0 0 75 69" enable-background="new 0 0 75 69" xml:space="preserve">
<g id="Layer_1">
	<g>
		<rect y="2.24" fill="#9D5025" width="75" height="18.37"/>
	</g>
	<g>
		<rect fill="#F58536" width="75" height="17.922"/>
	</g>
	<g>
		<rect y="26.211" fill="#9D5025" width="75" height="19.267"/>
	</g>
	<g>
		<rect y="24.755" fill="#F58536" width="75" height="17.921"/>
	</g>
	<g>
		<rect y="50.404" fill="#9D5025" width="75" height="18.596"/>
	</g>
	<g>
		<rect y="48.389" fill="#F58536" width="75" height="17.923"/>
	</g>
	<path fill="#FFFFFF" d="M9.305,14.338H7.623V6.384H5.381v-1.12h0.112c1.009,0,2.242-0.224,2.579-1.681V3.36h1.233V14.338z
		 M18.946,5.041c-1.682,2.24-3.139,6.048-3.363,9.297H13.79c0.224-3.249,1.793-6.944,3.475-9.184h-4.708V3.585h6.39L18.946,5.041
		L18.946,5.041z M26.569,14.338h-6.278c0-4.704,4.484-4.593,4.484-8.064c0-0.896-0.337-1.681-1.346-1.681
		c-1.233,0-1.457,1.12-1.457,2.24H20.29c0-2.129,0.896-3.473,3.139-3.473c2.243,0,3.027,1.344,3.027,2.913
		c0,3.583-3.476,3.809-4.261,6.496h4.373L26.569,14.338L26.569,14.338z M30.269,14.338h-1.682v-2.017h1.682V14.338z M36.547,14.338
		h-1.682V6.384h-2.242v-1.12h0.112c1.009,0,2.242-0.224,2.578-1.681V3.36h1.233L36.547,14.338L36.547,14.338z M42.938,14.562
		c-2.689,0-3.25-2.128-3.25-5.265c0-3.248,0.561-5.936,3.362-5.936c1.904,0,2.914,0.895,2.914,2.688h-1.682
		c0-0.672-0.337-1.456-1.121-1.456c-1.57,0-1.683,2.128-1.683,3.809l0,0c0.449-0.785,1.121-1.12,2.131-1.12
		c1.457,0,2.689,1.12,2.689,3.248C46.188,13.105,45.18,14.562,42.938,14.562z M49.775,14.338h-1.682v-2.017h1.682V14.338z
		 M54.82,14.562c-2.02,0-3.252-1.343-3.252-5.6c0-4.257,1.121-5.6,3.252-5.6c2.019,0,3.25,1.344,3.25,5.6
		C57.96,13.218,56.839,14.562,54.82,14.562z M61.547,14.338h-1.682v-2.017h1.682V14.338z M66.592,14.562
		c-2.019,0-3.251-1.343-3.251-5.6c0-4.257,1.121-5.6,3.251-5.6c2.018,0,3.251,1.344,3.251,5.6
		C69.73,13.218,68.609,14.562,66.592,14.562z"/>
	<path fill="#FFFFFF" d="M66.592,28.115c2.018,0,3.251,1.344,3.251,5.6c0,4.256-1.12,5.601-3.251,5.601
		c-2.019,0-3.251-1.345-3.251-5.601C63.341,29.459,64.462,28.115,66.592,28.115z M59.753,37.077h1.683v2.017h-1.683V37.077z
		 M52.02,30.02h0.11c1.009,0,2.242-0.224,2.578-1.681v-0.224h1.233v10.977H54.26V31.14h-2.24V30.02z M47.98,37.077h1.683v2.017
		H47.98V37.077z M43.161,28.115c1.905,0,2.914,0.895,2.914,2.688h-1.793c0-0.672-0.337-1.457-1.121-1.457
		c-1.57,0-1.683,2.129-1.683,3.809l0,0c0.449-0.784,1.121-1.12,2.131-1.12c1.457,0,2.689,1.12,2.689,3.247
		c0,2.464-1.008,4.032-3.25,4.032c-2.691,0-3.252-2.129-3.252-5.264C39.688,30.804,40.357,28.115,43.161,28.115z M32.511,30.02
		h0.112c1.009,0,2.242-0.224,2.579-1.681v-0.224h1.233v10.977h-1.682V31.14h-2.242V30.02z M28.475,37.077h1.682v2.017h-1.682V37.077
		z M23.542,29.347c-1.233,0-1.457,1.12-1.457,2.24h-1.682c0-2.128,0.896-3.472,3.139-3.472s3.027,1.344,3.027,2.912
		c0,3.585-3.475,3.809-4.26,6.496h4.372v1.568h-6.277c0-4.704,4.484-4.592,4.484-8.065C24.888,30.132,24.439,29.347,23.542,29.347z
		 M12.556,28.339h6.39v1.345c-1.682,2.24-3.139,6.047-3.363,9.296H13.79c0.224-3.249,1.793-6.944,3.475-9.185h-4.708L12.556,28.339
		L12.556,28.339z M5.381,30.02h0.112c1.009,0,2.242-0.224,2.579-1.681v-0.224h1.233v10.977H7.623V31.14H5.381V30.02z"/>
	<path fill="#FFFFFF" d="M66.592,51.749c2.018,0,3.251,1.345,3.251,5.601s-1.12,5.601-3.251,5.601c-2.019,0-3.251-1.345-3.251-5.601
		S64.462,51.749,66.592,51.749z M59.753,60.71h1.683v2.017h-1.683V60.71z M54.82,52.982c-1.233,0-1.459,1.12-1.459,2.24H51.68
		c0-2.129,0.897-3.474,3.141-3.474c2.242,0,3.025,1.345,3.025,2.914c0,3.583-3.475,3.807-4.26,6.496h4.373v1.456H51.68
		c0-4.705,4.484-4.593,4.484-8.065C56.165,53.765,55.718,52.982,54.82,52.982z M47.98,60.71h1.683v2.017H47.98V60.71z
		 M43.161,51.749c1.905,0,2.914,0.896,2.914,2.689h-1.793c0-0.674-0.337-1.456-1.121-1.456c-1.57,0-1.683,2.127-1.683,3.808l0,0
		c0.449-0.785,1.121-1.12,2.131-1.12c1.457,0,2.689,1.12,2.689,3.249c0,2.466-1.008,4.031-3.25,4.031
		c-2.691,0-3.252-2.127-3.252-5.265C39.688,54.438,40.357,51.749,43.161,51.749z M32.511,53.653h0.112
		c1.009,0,2.242-0.224,2.579-1.68v-0.225h1.233v10.978h-1.682v-7.952h-2.242V53.653z M28.475,60.71h1.682v2.017h-1.682V60.71z
		 M23.542,52.982c-1.233,0-1.457,1.12-1.457,2.24h-1.682c0-2.129,0.896-3.474,3.139-3.474s3.027,1.345,3.027,2.914
		c0,3.583-3.475,3.807-4.26,6.496h4.372v1.456h-6.277c0-4.705,4.484-4.593,4.484-8.065C24.888,53.765,24.439,52.982,23.542,52.982z
		 M12.556,51.974h6.39v1.345c-1.682,2.24-3.139,6.048-3.363,9.297H13.79c0.224-3.249,1.793-6.945,3.475-9.186h-4.708L12.556,51.974
		L12.556,51.974z M5.381,53.653h0.112c1.009,0,2.242-0.224,2.579-1.68v-0.225h1.233v10.978H7.623v-7.952H5.381V53.653z"/>
	<path fill="#F58536" d="M54.82,4.817c-1.233,0-1.459,1.12-1.459,4.369c0,3.137,0.338,4.369,1.459,4.369
		c1.232,0,1.457-1.12,1.457-4.369C56.277,5.937,55.941,4.817,54.82,4.817z"/>
	<path fill="#F58536" d="M66.592,4.817c-1.232,0-1.458,1.12-1.458,4.369c0,3.137,0.337,4.369,1.458,4.369
		c1.233,0,1.457-1.12,1.457-4.369C68.049,5.937,67.713,4.817,66.592,4.817z"/>
	<path fill="#F58536" d="M66.592,38.197c1.233,0,1.457-1.12,1.457-4.37c0-3.136-0.336-4.368-1.457-4.368
		c-1.232,0-1.458,1.12-1.458,4.368C65.134,37.077,65.357,38.197,66.592,38.197z"/>
	<path fill="#F58536" d="M43.05,38.197c1.009,0,1.457-1.12,1.457-2.353c0-1.457-0.448-2.352-1.457-2.352
		c-1.233,0-1.459,1.12-1.459,2.464C41.591,37.188,42.04,38.197,43.05,38.197z"/>
	<path fill="#F58536" d="M66.592,61.83c1.233,0,1.457-1.12,1.457-4.367c0-3.138-0.336-4.369-1.457-4.369
		c-1.232,0-1.458,1.12-1.458,4.369C65.134,60.71,65.357,61.83,66.592,61.83z"/>
	<path fill="#F58536" d="M43.05,61.83c1.009,0,1.457-1.12,1.457-2.352c0-1.455-0.448-2.354-1.457-2.354
		c-1.233,0-1.459,1.121-1.459,2.465C41.591,60.823,42.04,61.83,43.05,61.83z"/>
	<path fill="#F58536" d="M43.05,13.441c1.009,0,1.457-1.12,1.457-2.352c0-1.456-0.448-2.352-1.457-2.352
		c-1.233,0-1.459,1.12-1.459,2.465C41.591,12.434,42.04,13.441,43.05,13.441z"/>
</g>
</svg>
