<?xml version="1.0" encoding="utf-8"?>
<!-- Generator: Adobe Illustrator 16.0.0, SVG Export Plug-In . SVG Version: 6.00 Build 0)  -->
<!DOCTYPE svg PUBLIC "-//W3C//DTD SVG 1.1//EN" "http://www.w3.org/Graphics/SVG/1.1/DTD/svg11.dtd">
<svg version="1.1" id="图层_1" xmlns="http://www.w3.org/2000/svg" xmlns:xlink="http://www.w3.org/1999/xlink" x="0px" y="0px"
	 width="63px" height="76px" viewBox="0 0 63 76" enable-background="new 0 0 63 76" xml:space="preserve">
<g id="Layer_1">
	<g>
		<polygon fill="#F58536" points="44.769,69.313 31.398,76 31.398,0 44.769,6.688 		"/>
		<polygon fill="#9D5025" points="18.13,69.313 31.398,76 31.398,0 18.13,6.688 		"/>
		<polygon fill="#F58536" points="26.436,27.664 4.051,24.827 4.051,13.68 26.436,19.05 		"/>
		<polygon fill="#9D5025" points="0,15.707 4.051,13.68 4.051,24.827 0,25.941 		"/>
		<polygon fill="#6B3A19" points="26.436,27.664 21.776,28.374 0,25.941 4.051,24.827 		"/>
		<polygon fill="#F37825" points="59.658,47.525 63,46.917 63,38 59.658,38 		"/>
		<polygon fill="#924821" points="36.362,45.499 59.658,47.728 59.658,38 36.362,38 		"/>
	</g>
</g>
</svg>
