<?xml version="1.0" encoding="utf-8"?>
<!-- Generator: Adobe Illustrator 16.0.0, SVG Export Plug-In . SVG Version: 6.00 Build 0)  -->
<!DOCTYPE svg PUBLIC "-//W3C//DTD SVG 1.1//EN" "http://www.w3.org/Graphics/SVG/1.1/DTD/svg11.dtd">
<svg version="1.1" id="图层_1" xmlns="http://www.w3.org/2000/svg" xmlns:xlink="http://www.w3.org/1999/xlink" x="0px" y="0px"
	 width="62px" height="75px" viewBox="0 0 62 75" enable-background="new 0 0 62 75" xml:space="preserve">
<g id="Layer_1">
	<polygon fill="#FBBF93" points="40.883,42.708 31,42.085 0,44.063 8.738,63.854 	"/>
	<polygon fill="#9D5025" points="8.634,11.146 0,15.521 0,37.5 8.634,37.5 20.91,26.354 	"/>
	<polygon fill="#F58536" points="40.883,42.708 8.738,45.416 8.738,63.854 40.883,55.104 	"/>
	<polygon fill="#F58536" points="24.342,37.5 8.634,37.5 8.634,11.146 24.342,15.417 	"/>
	<polygon fill="#9D5025" points="46.812,37.5 58.047,37.5 58.047,15.937 46.812,17.709 	"/>
	<polygon fill="#6B3A19" points="24.758,19.896 34.953,9.791 58.047,23.125 46.812,24.688 	"/>
	<polygon fill="#9D5025" points="14.46,37.5 31,37.5 39.635,20.104 31,0 14.46,8.229 	"/>
	<polygon fill="#F58536" points="31,0 31,37.5 40.259,37.5 40.259,17.812 58.047,23.125 58.047,37.5 62,37.5 62,15.521 	"/>
	<polygon fill="#9D5025" points="0,44.063 8.738,45.416 8.738,63.854 0,59.479 	"/>
	<polygon fill="#FBBF93" points="62,44.063 47.021,43.126 14.46,46.249 31,75 	"/>
	<polygon fill="#F58536" points="62,44.063 31,48.646 31,75 62,59.479 	"/>
	<polygon fill="#9D5025" points="14.46,46.249 31,48.646 31,75 14.46,66.771 	"/>
</g>
</svg>
