<?xml version="1.0" encoding="utf-8"?>
<!-- Generator: Adobe Illustrator 16.0.0, SVG Export Plug-In . SVG Version: 6.00 Build 0)  -->
<!DOCTYPE svg PUBLIC "-//W3C//DTD SVG 1.1//EN" "http://www.w3.org/Graphics/SVG/1.1/DTD/svg11.dtd">
<svg version="1.1" id="图层_1" xmlns="http://www.w3.org/2000/svg" xmlns:xlink="http://www.w3.org/1999/xlink" x="0px" y="0px"
	 width="75px" height="75px" viewBox="0 0 75 75" enable-background="new 0 0 75 75" xml:space="preserve">
<g id="Layer_1">
	<circle fill="#9D5025" cx="37.5" cy="39.038" r="35.962"/>
	<circle fill="#F58536" cx="37.5" cy="35.962" r="35.962"/>
	<rect x="47.199" y="19.282" fill="#FFFFFF" width="3.787" height="33.478"/>
	<polygon fill="#FFFFFF" points="57.964,27.8 67.902,35.844 57.964,44.242 	"/>
	<polygon fill="#FFFFFF" points="22.831,34.069 24.96,35.844 22.594,37.974 59.621,37.974 59.621,34.069 	"/>
	<polygon fill="#FFFFFF" points="22.594,21.175 51.103,21.175 51.103,17.39 22.831,17.39 24.96,19.164 	"/>
	<polygon fill="#FFFFFF" points="24.96,52.643 22.594,54.652 51.103,54.652 51.103,50.867 22.831,50.867 	"/>
	<polygon fill="#FFFFFF" points="14.668,29.456 22.594,35.844 14.668,42.586 	"/>
	<polygon fill="#FFFFFF" points="14.668,12.658 22.594,19.164 14.668,25.907 	"/>
	<polygon fill="#FFFFFF" points="14.668,46.135 22.594,52.643 14.668,59.385 	"/>
</g>
</svg>
