<?xml version="1.0" encoding="utf-8"?>
<!-- Generator: Adobe Illustrator 16.0.0, SVG Export Plug-In . SVG Version: 6.00 Build 0)  -->
<!DOCTYPE svg PUBLIC "-//W3C//DTD SVG 1.1//EN" "http://www.w3.org/Graphics/SVG/1.1/DTD/svg11.dtd">
<svg version="1.1" id="图层_1" xmlns="http://www.w3.org/2000/svg" xmlns:xlink="http://www.w3.org/1999/xlink" x="0px" y="0px"
	 width="62px" height="75px" viewBox="0 0 62 75" enable-background="new 0 0 62 75" xml:space="preserve">
<g id="Layer_1">
	<polygon fill="#6B3A19" points="62,24.271 31,28.229 0,24.271 31,0 	"/>
	<polygon fill="#FBBF93" points="62,50.73 31,46.771 0,50.73 31,75 	"/>
	<polygon fill="#F58536" points="62,24.271 31,15 31,0 62,15.521 	"/>
	<polygon fill="#F58536" points="44.106,43.646 62,41.876 62,33.125 44.106,31.354 	"/>
	<polygon fill="#F58536" points="62,50.73 31,59.999 31,75 62,59.479 	"/>
	<polygon fill="#9D5025" points="0,24.271 31,15 31,0 0,15.521 	"/>
	<polygon fill="#9D5025" points="14.46,49.166 31,52.501 47.54,37.5 31,22.5 14.46,25.833 	"/>
	<polygon fill="#F58536" points="47.54,49.166 31,52.501 31,22.5 47.54,25.833 	"/>
	<polygon fill="#9D5025" points="17.893,43.646 0,41.876 0,33.125 17.893,31.354 	"/>
	<polygon fill="#9D5025" points="0,50.73 31,59.999 31,75 0,59.479 	"/>
</g>
</svg>
