<?xml version="1.0" encoding="utf-8"?>
<!-- Generator: Adobe Illustrator 16.0.0, SVG Export Plug-In . SVG Version: 6.00 Build 0)  -->
<!DOCTYPE svg PUBLIC "-//W3C//DTD SVG 1.1//EN" "http://www.w3.org/Graphics/SVG/1.1/DTD/svg11.dtd">
<svg version="1.1" id="图层_1" xmlns="http://www.w3.org/2000/svg" xmlns:xlink="http://www.w3.org/1999/xlink" x="0px" y="0px"
	 width="75px" height="75px" viewBox="0 0 75 75" enable-background="new 0 0 75 75" xml:space="preserve">
<g id="Layer_1">
	<path fill="#9D5025" d="M38.248,3.278c0.393,0,0.786,0.131,0.918,0.263c3.934,4.326,7.735,5.9,11.275,5.9
		c6.949,0,22.552,4.851,22.815,4.589v3.278c-0.263,0.393-5.639,6.556-5.377,13.897c0.132,4.327,2.361,7.344,4.196,10.49
		c0.787,1.181,2.622,4.852,2.622,4.852v3.277c0,0.918-0.131,1.967-0.263,3.016c-3.539,17.57-20.716,10.489-34.746,21.897
		C39.427,75,39.166,75,39.034,75c-0.394,0-0.524-0.262-0.524-0.262C30.118,64.511,4.025,73.034,0.747,52.841
		c-0.262-1.312-0.262-2.49-0.262-3.54v-3.146c0,0,1.835-4.196,2.491-5.244c1.442-2.492,2.884-4.853,3.146-8.786
		c0.263-6.425-4.982-13.111-5.245-13.505v-3.277c0.262,0.262,17.832-6.295,25.043-6.295c3.671,0,7.736-1.311,11.801-5.376
		C37.723,3.409,37.984,3.278,38.248,3.278z"/>
	<path fill="#F58536" d="M38.248,0c0.393,0,0.786,0.132,0.918,0.263c3.934,4.327,7.735,5.9,11.275,5.9
		c6.949,0,11.932-5.639,12.193-5.9L73.256,14.03c-0.263,0.393-5.639,6.556-5.377,13.897c0.395,8.654,8.392,11.671,6.425,21.505
		c-3.54,17.569-20.716,10.489-34.746,21.896c-0.263,0.262-0.524,0.262-0.655,0.262c-0.394,0-0.525-0.262-0.525-0.262
		C29.987,61.102,3.894,69.624,0.616,49.433C-1.22,38.287,5.599,36.976,5.86,28.715C6.123,22.29,0.878,15.604,0.616,15.21
		L12.941,0.263c0.262,0.262,5.375,5.375,12.718,5.375c3.672,0,7.736-1.311,11.801-5.375C37.723,0.132,37.984,0,38.248,0z"/>
</g>
</svg>
