<?xml version="1.0" encoding="utf-8"?>
<!-- Generator: Adobe Illustrator 16.0.0, SVG Export Plug-In . SVG Version: 6.00 Build 0)  -->
<!DOCTYPE svg PUBLIC "-//W3C//DTD SVG 1.1//EN" "http://www.w3.org/Graphics/SVG/1.1/DTD/svg11.dtd">
<svg version="1.1" id="图层_1" xmlns="http://www.w3.org/2000/svg" xmlns:xlink="http://www.w3.org/1999/xlink" x="0px" y="0px"
	 width="75px" height="75px" viewBox="0 0 75 75" enable-background="new 0 0 75 75" xml:space="preserve">
<g id="Layer_1">
	<circle fill="#9D5025" cx="37.5" cy="39.038" r="35.962"/>
	<circle fill="#F58536" cx="37.5" cy="35.962" r="35.962"/>
	<polygon fill="#FFFFFF" points="71.806,36.199 59.03,28.746 59.03,33.241 40.457,33.241 40.457,14.551 44.835,14.551 37.5,1.774 
		30.166,14.551 34.542,14.551 34.542,33.241 15.97,33.241 15.97,28.746 3.194,36.199 15.97,43.532 15.97,39.156 34.542,39.156 
		34.542,57.729 30.166,57.729 37.5,70.505 44.835,57.729 40.457,57.729 40.457,39.156 59.03,39.156 59.03,43.532 	"/>
	<g>
		<g>
			<path fill="#F58536" d="M27.682,44.716c-3.667,0-6.389-2.721-6.389-5.204V38.92c0-2.011,1.775-4.851,4.023-5.442l0.236-0.118
				v-0.355c0-2.248,0.829-4.259,2.366-5.797c1.538-1.538,3.549-2.366,5.796-2.366c3.194,0,6.152,1.893,7.453,4.85l0.119,0.355
				l0.354-0.237c0.709-0.473,1.42-0.709,2.248-0.709c2.129,0,3.903,1.656,4.021,3.786v0.236h0.236
				c3.194,0.237,5.678,3.313,5.678,5.797v0.592c0,2.483-2.721,5.204-6.387,5.204H27.682z"/>
			<path fill="#FFFFFF" d="M33.714,26.025c2.721,0,5.206,1.657,6.388,4.141l0.709,1.657l1.42-1.065
				c0.474-0.354,1.065-0.473,1.538-0.473c1.537,0,2.721,1.183,2.84,2.721v1.301l1.301,0.119c2.484,0.237,4.613,2.721,4.613,4.614
				v0.591c0,1.894-2.248,4.022-5.205,4.022H27.682c-2.958,0-5.206-2.129-5.206-4.022v-0.591c0-1.538,1.42-3.786,3.194-4.377
				l1.064-0.355v-1.301c0-1.893,0.71-3.667,2.011-4.969C30.047,26.735,31.822,26.025,33.714,26.025 M33.714,23.659
				c-2.484,0-4.85,0.947-6.624,2.721c-1.657,1.656-2.603,3.785-2.721,6.151c-2.603,1.065-4.259,4.141-4.259,6.389v0.592
				c0,3.43,3.549,6.387,7.571,6.387h19.756c4.021,0,7.57-2.957,7.57-6.387V38.92c0-2.84-2.484-6.152-6.033-6.862
				c-0.474-2.366-2.484-4.259-5.086-4.259c-0.711,0-1.42,0.119-2.012,0.474C40.103,25.434,37.027,23.659,33.714,23.659
				L33.714,23.659z"/>
		</g>
	</g>
</g>
</svg>
