<?xml version="1.0" encoding="utf-8"?>
<!-- Generator: Adobe Illustrator 16.0.0, SVG Export Plug-In . SVG Version: 6.00 Build 0)  -->
<!DOCTYPE svg PUBLIC "-//W3C//DTD SVG 1.1//EN" "http://www.w3.org/Graphics/SVG/1.1/DTD/svg11.dtd">
<svg version="1.1"
	 id="图层_1" xmlns:dc="http://purl.org/dc/elements/1.1/" xmlns:cc="http://creativecommons.org/ns#" xmlns:rdf="http://www.w3.org/1999/02/22-rdf-syntax-ns#"
	 xmlns="http://www.w3.org/2000/svg" xmlns:xlink="http://www.w3.org/1999/xlink" x="0px" y="0px" width="76px" height="41px"
	 viewBox="0 0 76 41" enable-background="new 0 0 76 41" xml:space="preserve">
<path fill="#00BCF2" d="M20.608,0c-0.302,0-0.612,0.157-0.843,0.388L0.362,19.648c-0.013,0.012,0.012,0.05,0,0.064
	c-0.096,0.106-0.209,0.198-0.259,0.322c-0.202,0.435-0.101,0.936,0.259,1.293l19.403,19.326c0.462,0.461,1.16,0.461,1.622,0
	c0.463-0.462,0.463-1.221,0-1.68L2.827,20.489L21.386,2.003c0.463-0.46,0.463-1.156,0-1.615C21.155,0.157,20.91,0,20.608,0L20.608,0
	z M55.455,0c-0.301,0-0.611,0.157-0.842,0.388c-0.463,0.459-0.463,1.155,0,1.615l18.559,18.486L54.613,38.975
	c-0.463,0.459-0.463,1.218,0,1.68c0.463,0.461,1.225,0.461,1.689,0L75.639,21.33c0.359-0.358,0.459-0.859,0.262-1.293
	c-0.055-0.124-0.166-0.216-0.262-0.322c-0.014-0.015,0.012-0.053,0-0.064L56.303,0.388C56.066,0.157,55.756,0,55.455,0L55.455,0z
	 M23.658,15.319c-2.878,0-5.191,2.303-5.191,5.17c0,2.867,2.313,5.235,5.191,5.235s5.256-2.368,5.256-5.235
	C28.914,17.622,26.537,15.319,23.658,15.319z M38,15.319c-2.878,0-5.192,2.303-5.192,5.17c0,2.867,2.314,5.235,5.192,5.235
	c2.879,0,5.192-2.368,5.192-5.235C43.191,17.622,40.879,15.319,38,15.319z M52.34,15.319c-2.879,0-5.191,2.303-5.191,5.17
	c0,2.867,2.313,5.235,5.191,5.235c2.881,0,5.191-2.368,5.191-5.235C57.531,17.622,55.221,15.319,52.34,15.319z"/>
</svg>
