<?xml version="1.0" encoding="utf-8"?>
<!-- Generator: Adobe Illustrator 16.0.0, SVG Export Plug-In . SVG Version: 6.00 Build 0)  -->
<!DOCTYPE svg PUBLIC "-//W3C//DTD SVG 1.1//EN" "http://www.w3.org/Graphics/SVG/1.1/DTD/svg11.dtd">
<svg version="1.1" id="图层_1" xmlns="http://www.w3.org/2000/svg" xmlns:xlink="http://www.w3.org/1999/xlink" x="0px" y="0px"
	 width="78px" height="62px" viewBox="0 0 78 62" enable-background="new 0 0 78 62" xml:space="preserve">
<g id="Layer_1">
	<path fill="#9D5025" d="M78,23.103v-3.727l-13.248-0.447h-8.185v-0.745c0-9.39-8.34-14.606-17.567-14.606
		c-9.08,0-16.671,5.813-17.714,15.351h-8.038L0,19.375v3.727l13.248,9.094v-5.221h8.038v9.838h-5.805V62h46.741V36.813h-5.806
		v-9.838h8.187v5.221L78,23.103z M46.891,36.814H30.068v-9.838h16.823V36.814z M30.068,19.077c0-1.49,0.298-7.899,8.336-7.899l0,0
		c7.741,0,8.338,6.409,8.486,7.899H30.068z"/>
	<path fill="#F58536" d="M78,19.525l-13.248-9.092v4.92h-8.185v-0.747C56.567,5.217,48.228,0,39,0
		c-9.08,0-16.671,5.814-17.714,15.354h-8.038v-4.92L0,19.525l13.248,9.091V23.4h8.038v9.836h-5.805v25.191h46.741V33.087h-5.806
		V23.4h8.187v5.216L78,19.525z M46.891,33.087H30.068V23.4h16.823V33.087z M30.068,15.353c0-1.49,0.298-7.901,8.336-7.901l0,0
		c7.741,0,8.338,6.411,8.486,7.901H30.068z"/>
</g>
</svg>
