<?xml version="1.0" encoding="utf-8"?>
<!-- Generator: Adobe Illustrator 16.0.0, SVG Export Plug-In . SVG Version: 6.00 Build 0)  -->
<!DOCTYPE svg PUBLIC "-//W3C//DTD SVG 1.1//EN" "http://www.w3.org/Graphics/SVG/1.1/DTD/svg11.dtd">
<svg version="1.1"
	 id="svg2" xmlns:dc="http://purl.org/dc/elements/1.1/" xmlns:cc="http://creativecommons.org/ns#" xmlns:rdf="http://www.w3.org/1999/02/22-rdf-syntax-ns#" xmlns:svg="http://www.w3.org/2000/svg"
	 xmlns="http://www.w3.org/2000/svg" xmlns:xlink="http://www.w3.org/1999/xlink" x="0px" y="0px" width="75px" height="69px"
	 viewBox="0 0 75 69" enable-background="new 0 0 75 69" xml:space="preserve">
<g id="g12" transform="scale(0.1,0.1)">
	<path id="path22" fill="#026C9B" d="M0,690.002h595.469V126.99H0V690.002z"/>
	<path id="path24" fill="none" stroke="#FFFFFF" stroke-width="4" d="M0,690.002h595.469V126.99H0V690.002z"/>
	<path id="path26" fill="#026C9B" d="M595.469,126.99L750,0.002H209.102L0,126.99H595.469"/>
	<path id="path28" fill="none" stroke="#FFFFFF" stroke-width="4" d="M595.469,126.99L750,0.002H209.102L0,126.99H595.469z"/>
	<path id="path30" fill="#026C9B" d="M750,562.824V0.002L595.469,126.99v563.012L750,562.824"/>
	<path id="path32" fill="none" stroke="#FFFFFF" stroke-width="4" d="M750,562.824V0.002L595.469,126.99v563.012L750,562.824z"/>
	<path id="path34" fill="#FFFFFF" d="M61.841,661.701c14.043,0,25.659-11.221,25.659-25.625c0-14.014-11.616-25.596-25.659-25.596
		c-14.238,0-25.664,11.582-25.664,25.596C36.177,650.481,47.603,661.701,61.841,661.701"/>
	<path id="path36" fill="none" stroke="#000000" stroke-width="2" d="M61.841,661.701c14.043,0,25.659-11.221,25.659-25.625
		c0-14.014-11.616-25.596-25.659-25.596c-14.238,0-25.664,11.582-25.664,25.596C36.177,650.481,47.603,661.701,61.841,661.701z"/>
	<path id="path38" fill="#FFFFFF" d="M39.844,608.889l50.176,48.984L231.787,513.01l-50.176-48.984L39.844,608.889"/>
	<path id="path40" fill="none" stroke="#000000" stroke-width="2" d="M39.844,608.889l50.176,48.984L231.787,513.01l-50.176-48.984
		L39.844,608.889z"/>
	<path id="path42" fill="#FFFFFF" d="M161.504,357.268c0,105.996,86.377,191.855,192.324,191.855
		c106.152,0,192.529-85.859,192.529-191.855c0-105.996-86.377-192.256-192.529-192.256
		C247.881,165.012,161.504,251.272,161.504,357.268 M188.32,357.268c0-91.289,74.297-165.283,165.508-165.283
		c91.436,0,165.527,73.994,165.527,165.283c0,90.879-74.092,165.273-165.527,165.273C262.617,522.541,188.32,448.147,188.32,357.268
		"/>
	<path id="path44" fill="none" stroke="#000000" stroke-width="2" d="M161.504,357.268c0,105.996,86.377,191.855,192.324,191.855
		c106.152,0,192.529-85.859,192.529-191.855c0-105.996-86.377-192.256-192.529-192.256
		C247.881,165.012,161.504,251.272,161.504,357.268 M188.32,357.268c0-91.289,74.297-165.283,165.508-165.283
		c91.436,0,165.527,73.994,165.527,165.283c0,90.879-74.092,165.273-165.527,165.273C262.617,522.541,188.32,448.147,188.32,357.268
		z"/>
	<path id="path46" fill="#FFFFFF" d="M138.877,368.293c0,105.986,86.377,192.246,192.529,192.246
		c105.947,0,192.305-86.26,192.305-192.246c0-106.006-86.357-192.256-192.305-192.256
		C225.254,176.038,138.877,262.288,138.877,368.293 M165.884,368.293C165.884,277.19,240.176,203,331.406,203
		c91.191,0,165.293,74.189,165.293,165.293c0,91.27-74.102,165.283-165.293,165.283
		C240.176,533.576,165.884,459.563,165.884,368.293"/>
	<path id="path48" fill="none" stroke="#000000" stroke-width="2" d="M138.877,368.293c0,105.986,86.377,192.246,192.529,192.246
		c105.947,0,192.305-86.26,192.305-192.246c0-106.006-86.357-192.256-192.305-192.256
		C225.254,176.038,138.877,262.288,138.877,368.293 M165.884,368.293C165.884,277.19,240.176,203,331.406,203
		c91.191,0,165.293,74.189,165.293,165.293c0,91.27-74.102,165.283-165.293,165.283
		C240.176,533.576,165.884,459.563,165.884,368.293z"/>
	<path id="path50" fill="none" stroke="#FFFFFF" stroke-width="13.113" d="M266.602,435.539h144.15V291.555h-144.15V435.539z"/>
</g>
</svg>
