<?xml version="1.0" encoding="utf-8"?>
<!-- Generator: Adobe Illustrator 16.0.0, SVG Export Plug-In . SVG Version: 6.00 Build 0)  -->
<!DOCTYPE svg PUBLIC "-//W3C//DTD SVG 1.1//EN" "http://www.w3.org/Graphics/SVG/1.1/DTD/svg11.dtd">
<svg version="1.1" id="图层_1" xmlns="http://www.w3.org/2000/svg" xmlns:xlink="http://www.w3.org/1999/xlink" x="0px" y="0px"
	 width="75px" height="75px" viewBox="0 0 75 75" enable-background="new 0 0 75 75" xml:space="preserve">
<g id="Layer_1">
	<circle fill="#9D5025" cx="37.5" cy="39.038" r="35.962"/>
	<circle fill="#F58536" cx="37.5" cy="35.962" r="35.962"/>
	<g>
		<g>
			<g>
				<g>
					<rect x="23.541" y="48.146" fill="#FFFFFF" width="22.949" height="3.313"/>
				</g>
			</g>
			<g>
				<g>
					<rect x="23.541" y="41.285" fill="#FFFFFF" width="22.949" height="3.313"/>
				</g>
			</g>
			<g>
				<g>
					<rect x="23.541" y="27.445" fill="#FFFFFF" width="22.949" height="3.313"/>
				</g>
			</g>
			<g>
				<g>
					<rect x="7.098" y="34.069" fill="#FFFFFF" width="52.405" height="3.786"/>
				</g>
			</g>
			<g>
				<g>
					<rect x="23.541" y="20.583" fill="#FFFFFF" width="22.949" height="3.313"/>
				</g>
			</g>
			<g>
				<polygon fill="#FFFFFF" points="51.813,32.531 48.383,32.531 48.383,17.508 21.53,17.508 21.53,32.531 18.218,32.531 
					18.218,14.195 51.813,14.195 				"/>
			</g>
			<g>
				<polygon fill="#FFFFFF" points="51.813,57.847 18.218,57.847 18.218,39.629 21.53,39.629 21.53,54.535 48.383,54.535 
					48.383,39.866 51.813,39.866 				"/>
			</g>
		</g>
		<g>
			<polygon fill="#FFFFFF" points="57.965,27.918 67.902,35.962 57.965,44.479 			"/>
		</g>
	</g>
</g>
</svg>
