<?xml version="1.0" encoding="utf-8"?>
<!-- Generator: Adobe Illustrator 16.0.0, SVG Export Plug-In . SVG Version: 6.00 Build 0)  -->
<!DOCTYPE svg PUBLIC "-//W3C//DTD SVG 1.1//EN" "http://www.w3.org/Graphics/SVG/1.1/DTD/svg11.dtd">
<svg version="1.1"
	 id="svg2" xmlns:dc="http://purl.org/dc/elements/1.1/" xmlns:cc="http://creativecommons.org/ns#" xmlns:rdf="http://www.w3.org/1999/02/22-rdf-syntax-ns#" xmlns:svg="http://www.w3.org/2000/svg"
	 xmlns="http://www.w3.org/2000/svg" xmlns:xlink="http://www.w3.org/1999/xlink" x="0px" y="0px" width="76px" height="37px"
	 viewBox="0 0 76 37" enable-background="new 0 0 76 37" xml:space="preserve">
<g id="g12" transform="scale(0.1,0.1)">
	<path id="path22" fill="#087BBB" d="M0,185.405L229.702,0h530.293L569.937,185.405H0"/>
	<path id="path24" fill="none" stroke="#FFFFFF" stroke-width="4" d="M0,185.405L229.702,0h530.293L569.937,185.405H0z"/>
	<path id="path26" fill="#231F20" d="M520.991,97.954l14.121-14.116l44.258,20.039l-77.559,22.231l17.617-23.066H378.237
		l5.098-5.088H520.991"/>
	<path id="path28" fill="#231F20" d="M436.245,50.713l-5.078,4.99h-143.94L265.41,72.646l-37.075-18.135l84.971-24.834
		l-20.981,21.035H436.245"/>
	<path id="path30" fill="#231F20" d="M356.851,130.601l-5.098,5.083H207.114l-21.816,16.23l-38.403-18.105l87.007-24.146
		l-19.653,20.938H356.851"/>
	<path id="path32" fill="#231F20" d="M602.515,31.187L616.636,17.1l44.102,19.331l-77.402,22.222l16.895-22.373H458.413l4.941-5.093
		H602.515"/>
	<path id="path34" fill="#FFFFFF" d="M521.694,102.788l14.121-14.092l38.613,16.577L497.026,127.5l19.57-19.624H374.78l5.098-5.088
		H521.694"/>
	<path id="path36" fill="#FFFFFF" d="M431.304,55.557l-5.078,5.005H284.404l-14.141,14.121l-38.398-16.724l77.275-22.031
		l-19.653,19.629H431.304"/>
	<path id="path38" fill="#087BBB" d="M569.937,366.382l190.059-191.308V0.327L569.937,185.405V366.382"/>
	<path id="path40" fill="none" stroke="#FFFFFF" stroke-width="4" d="M569.937,366.382l190.059-191.308V0.327L569.937,185.405
		V366.382z"/>
	<path id="path42" fill="#FFFFFF" d="M351.196,135.542l-5.01,5.01H204.375l-14.141,14.116l-38.481-16.724l77.28-22.026
		l-19.658,19.624H351.196"/>
	<path id="path44" fill="#FFFFFF" d="M602.515,36.05l14.121-14.116l38.594,16.602l-77.559,22.227l19.746-19.624H455.601l5.098-5.088
		H602.515"/>
	<path id="path46" fill="none" stroke="#231F20" stroke-width="2.8" stroke-linecap="round" stroke-linejoin="round" d="
		M593.237,41.958l-17.344,17.393"/>
	<path id="path48" fill="none" stroke="#231F20" stroke-width="2.8" stroke-linecap="round" stroke-linejoin="round" d="
		M511.87,109.414l-17.5,17.393"/>
	<path id="path50" fill="none" stroke="#231F20" stroke-width="2.8" stroke-linecap="round" stroke-linejoin="round" d="
		M382.241,100.41l-8.301,6.968"/>
	<path id="path52" fill="none" stroke="#231F20" stroke-width="2.8" stroke-linecap="round" stroke-linejoin="round" d="
		M463.765,32.954l-7.598,6.895"/>
	<path id="path54" fill="#087BBB" d="M569.937,368.764V185.405H0.767v184.59L569.937,368.764"/>
	<path id="path56" fill="none" stroke="#FFFFFF" stroke-width="4" d="M569.937,368.764V185.405H0.767v184.59L569.937,368.764z"/>
	<path id="path58" fill="#FFFFFF" d="M211.191,279.018H104.775v-9.707l-40.122,14.277l40.122,14.277v-9.688h106.416V279.018"/>
	<path id="path60" fill="#FFFFFF" d="M271.338,309.487v37.695h-27.48l40.488,14.18l40.493-14.18h-27.451v-37.695H271.338"/>
	<path id="path62" fill="#FFFFFF" d="M271.338,258.843v-37.676h-27.48l40.488-14.18l40.493,14.18h-27.451v37.676H271.338"/>
	<path id="path64" fill="#FFFFFF" d="M357.593,288.178h106.328v9.688l40.156-14.277l-40.156-14.277v9.707H357.593V288.178"/>
	<path id="path66" fill="none" stroke="#FFFFFF" stroke-width="4" d="M455.562,344.116c-19.961,7.441-111.777-13.125-204.849-45.859
		c-93.242-32.715-152.49-65.332-132.578-72.773c19.976-7.441,111.714,12.949,204.946,45.684
		C416.245,304.057,475.562,336.655,455.562,344.116z"/>
	<path id="path68" fill="none" stroke="#FFFFFF" stroke-width="4" d="M450.288,224.878c21.035,6.992-36.934,39.512-129.531,72.539
		c-92.544,32.91-184.639,54.004-205.737,46.855c-21.104-7.148,36.836-39.473,129.458-72.539
		C336.997,238.823,429.097,217.729,450.288,224.878z"/>
	<path id="path70" fill="#BFBEBE" d="M328.013,305.542c35.176-8.75,43.701-25.859,19.053-38.34
		c-24.59-12.461-72.959-15.469-108.135-6.719c-35.161,8.73-43.691,25.859-19.014,38.32
		C244.478,311.128,292.852,314.135,328.013,305.542"/>
</g>
</svg>
