<?xml version="1.0" encoding="utf-8"?>
<!-- Generator: Adobe Illustrator 16.0.0, SVG Export Plug-In . SVG Version: 6.00 Build 0)  -->
<!DOCTYPE svg PUBLIC "-//W3C//DTD SVG 1.1//EN" "http://www.w3.org/Graphics/SVG/1.1/DTD/svg11.dtd">
<svg version="1.1"
	 id="svg2" xmlns:dc="http://purl.org/dc/elements/1.1/" xmlns:cc="http://creativecommons.org/ns#" xmlns:rdf="http://www.w3.org/1999/02/22-rdf-syntax-ns#" xmlns:svg="http://www.w3.org/2000/svg"
	 xmlns="http://www.w3.org/2000/svg" xmlns:xlink="http://www.w3.org/1999/xlink" x="0px" y="0px" width="57px" height="78px"
	 viewBox="0 0 57 78" enable-background="new 0 0 57 78" xml:space="preserve">
<g id="g12" transform="scale(0.1,0.1)">
	<path id="path22" fill="#231F20" d="M569.998,220.825l-97.52,92.305H-0.002l122.397-92.305H569.998"/>
	<path id="path24" fill="none" stroke="#FFFFFF" stroke-width="4" stroke-linecap="round" stroke-linejoin="round" d="
		M569.998,220.825l-97.52,92.305H-0.002l122.397-92.305H569.998z"/>
	<path id="path26" fill="#087BBB" d="M-0.002,780.005h472.48V313.13H-0.002V780.005z"/>
	<path id="path28" fill="none" stroke="#FFFFFF" stroke-width="4" d="M-0.002,780.005h472.48V313.13H-0.002V780.005z"/>
	<path id="path30" fill="#087BBB" d="M560.222,692.387V225.513l-90.674,87.617v466.875L560.222,692.387"/>
	<path id="path32" fill="none" stroke="#FFFFFF" stroke-width="4" d="M560.222,692.387V225.513l-90.674,87.617v466.875
		L560.222,692.387z"/>
	<path id="path34" fill="#FFFFFF" d="M167.82,533.989H66.062v-26.055l-38.428,38.398l38.428,38.75v-26.055H167.82V533.989"/>
	<path id="path36" fill="#FFFFFF" d="M225.339,616.294V718.11H199.06l38.623,38.203l38.809-38.203h-26.289V616.294H225.339"/>
	<path id="path38" fill="#FFFFFF" d="M225.339,479.692V377.876H199.06l38.623-38.203l38.809,38.203h-26.289v101.816H225.339"/>
	<path id="path40" fill="#FFFFFF" d="M307.742,559.028h101.563v26.055l38.613-38.75l-38.613-38.398v26.055H307.742V559.028"/>
	<path id="path42" fill="none" stroke="#FFFFFF" stroke-width="4" d="M401.453,709.731
		c-19.082,19.98-106.777-35.488-195.898-123.848C116.414,497.505,59.67,409.692,78.923,389.536
		c19.072-20.156,106.787,35.313,195.732,123.691C363.611,601.587,420.525,689.399,401.453,709.731z"/>
	<path id="path44" fill="none" stroke="#FFFFFF" stroke-width="4" d="M396.257,388.032c20.01,18.887-35.186,106.484-123.652,195.488
		C183.953,672.563,95.896,729.087,75.896,710.044c-20.181-19.063,35.161-106.68,123.643-195.703
		C288.005,425.649,376.238,368.96,396.257,388.032z"/>
	<path id="path46" fill="#BFBEBE" d="M279.5,605.552c33.574-23.555,41.836-69.883,18.262-103.418s-69.961-41.445-103.535-18.242
		c-33.579,23.516-41.665,69.883-18.076,103.398C199.539,620.825,245.925,629.067,279.5,605.552"/>
	<path id="path48" fill="#087BBB" d="M569.998,0l-97.52,92.476H-0.002L122.395,0H569.998"/>
	<path id="path50" fill="none" stroke="#FFFFFF" stroke-width="4" d="M569.998,0l-97.52,92.476H-0.002L122.395,0H569.998z"/>
	<path id="path52" fill="#087BBB" d="M-0.002,316.489h472.48V92.476H-0.002V316.489z"/>
	<path id="path54" fill="none" stroke="#FFFFFF" stroke-width="4" d="M-0.002,316.489h472.48V92.476H-0.002V316.489z"/>
	<path id="path56" fill="#087BBB" d="M560.222,228.853V4.668l-90.674,87.808v224.014L560.222,228.853"/>
	<path id="path58" fill="none" stroke="#FFFFFF" stroke-width="4" d="M560.222,228.853V4.668l-90.674,87.808v224.014
		L560.222,228.853z"/>
	<path id="path60" fill="#FFFFFF" d="M42.361,175.107h92.324v-48.213H42.361V175.107z"/>
	<path id="path62" fill="#FFFFFF" d="M345.867,175.107h92.324v-48.213h-92.324V175.107z"/>
	<path id="path64" fill="#FFFFFF" d="M42.361,295.122h92.324v-48.008H42.361V295.122z"/>
	<path id="path66" fill="#FFFFFF" d="M345.867,295.122h92.324v-48.008h-92.324V295.122z"/>
	<path id="path68" fill="#231F20" d="M104.968,151.104H388.66"/>
	<path id="path70" fill="none" stroke="#FFFFFF" stroke-width="4" d="M104.968,151.104H388.66"/>
	<path id="path72" fill="#231F20" d="M104.968,274.575H388.66"/>
	<path id="path74" fill="none" stroke="#FFFFFF" stroke-width="4" d="M104.968,274.575H388.66"/>
	<path id="path76" fill="#231F20" d="M88.518,271.147L388.66,151.104"/>
	<path id="path78" fill="none" stroke="#FFFFFF" stroke-width="4" d="M88.518,271.147L388.66,151.104"/>
	<path id="path80" fill="#231F20" d="M88.518,151.104L388.66,271.147"/>
	<path id="path82" fill="none" stroke="#FFFFFF" stroke-width="4" d="M88.518,151.104L388.66,271.147"/>
</g>
</svg>
