<?xml version="1.0" encoding="utf-8"?>
<!-- Generator: Adobe Illustrator 16.0.0, SVG Export Plug-In . SVG Version: 6.00 Build 0)  -->
<!DOCTYPE svg PUBLIC "-//W3C//DTD SVG 1.1//EN" "http://www.w3.org/Graphics/SVG/1.1/DTD/svg11.dtd">
<svg version="1.1"
	 id="svg2" xmlns:dc="http://purl.org/dc/elements/1.1/" xmlns:cc="http://creativecommons.org/ns#" xmlns:rdf="http://www.w3.org/1999/02/22-rdf-syntax-ns#" xmlns:svg="http://www.w3.org/2000/svg"
	 xmlns="http://www.w3.org/2000/svg" xmlns:xlink="http://www.w3.org/1999/xlink" x="0px" y="0px" width="75px" height="37px"
	 viewBox="0 0 75 37" enable-background="new 0 0 75 37" xml:space="preserve">
<g id="g12" transform="scale(0.1,0.1)">
	<path id="path22" fill="#087BBB" d="M1.458,364.246h560.972V182.517H1.458V364.246z"/>
	<path id="path24" fill="none" stroke="#FFFFFF" stroke-width="4" d="M1.458,364.246h560.972V182.517H1.458V364.246z"/>
	<path id="path26" fill="#087BBB" d="M-0.002,183.396L226.584-0.002h523.413L561.873,183.396H-0.002"/>
	<path id="path28" fill="none" stroke="#FFFFFF" stroke-width="4" d="M-0.002,183.396L226.584-0.002h523.413L561.873,183.396H-0.002
		z"/>
	<path id="path30" fill="#087BBB" d="M562.107,369.998l187.344-202.09l0.098-167.627L562.107,183.025V369.998"/>
	<path id="path32" fill="none" stroke="#FFFFFF" stroke-width="4" d="M562.107,369.998l187.344-202.09l0.098-167.627
		L562.107,183.025V369.998z"/>
	<path id="path34" fill="#087BBB" d="M162.903,160.623L338.289,19.246"/>
	<path id="path36" fill="none" stroke="#FFFFFF" stroke-width="4" d="M162.903,160.623L338.289,19.246"/>
	<path id="path38" fill="#087BBB" d="M302.18,160.623L477.551,19.246"/>
	<path id="path40" fill="none" stroke="#FFFFFF" stroke-width="4" d="M302.18,160.623L477.551,19.246"/>
	<path id="path42" fill="#087BBB" d="M441.526,160.623L616.824,19.246"/>
	<path id="path44" fill="none" stroke="#FFFFFF" stroke-width="4" d="M441.526,160.623L616.824,19.246"/>
	<path id="path46" fill="#087BBB" d="M234.436,44.529h415.093"/>
	<path id="path48" fill="none" stroke="#FFFFFF" stroke-width="4" d="M234.436,44.529h415.093"/>
	<path id="path50" fill="#FFFFFF" d="M215.686,268.464h-104.99v-9.58l-39.585,14.102l39.585,14.238v-9.57h104.99V268.464"/>
	<path id="path52" fill="#FFFFFF" d="M275.017,298.533v37.188h-27.109l39.941,13.994l39.961-13.994h-27.095v-37.188H275.017"/>
	<path id="path54" fill="#FFFFFF" d="M275.017,248.552v-37.148h-27.109l39.941-14.004l39.961,14.004h-27.095v37.148H275.017"/>
	<path id="path56" fill="#FFFFFF" d="M360.042,277.654h104.98v9.57l39.595-14.238l-39.595-14.102v9.58h-104.98V277.654"/>
	<path id="path58" fill="none" stroke="#FFFFFF" stroke-width="4" d="M456.692,332.673c-19.712,7.363-110.21-12.91-202.1-45.215
		c-91.909-32.295-150.449-64.453-130.718-71.816c19.717-7.344,110.215,12.803,202.114,45.225
		C417.893,293.152,476.399,325.339,456.692,332.673z"/>
	<path id="path60" fill="none" stroke="#FFFFFF" stroke-width="4" d="M451.482,215.046c20.815,7.051-36.436,38.984-127.705,71.572
		c-91.304,32.471-182.168,53.252-202.979,46.221c-20.806-6.885,36.348-38.955,127.71-71.553
		C339.797,228.826,430.652,208.171,451.482,215.046z"/>
	<path id="path62" fill="#BFBEBE" d="M330.93,294.656c34.624-8.652,43.032-25.537,18.784-37.822
		c-24.248-12.295-72.036-15.273-106.67-6.66c-34.683,8.613-43.101,25.537-18.833,37.822
		C248.508,300.3,296.248,303.259,330.93,294.656"/>
	<path id="path64" fill="#FFFFFF" d="M338.289,44.578c-3.931,11.943-60.337,13.145-60.786,0
		C277.083,32.39,336.853,31.296,338.289,44.578"/>
	<path id="path66" fill="#FFFFFF" d="M477.551,44.578c-3.911,11.943-60.337,13.145-60.771,0
		C416.36,32.39,476.121,31.296,477.551,44.578"/>
	<path id="path68" fill="#FFFFFF" d="M616.824,44.578c-3.838,11.943-60.264,13.145-60.771,0
		C555.652,32.39,615.398,31.296,616.824,44.578"/>
	<path id="path70" fill="#087BBB" d="M181.296,89.939h415.039"/>
	<path id="path72" fill="none" stroke="#FFFFFF" stroke-width="4" d="M181.296,89.939h415.039"/>
	<path id="path74" fill="#FFFFFF" d="M285.139,89.988c-3.911,12.08-60.332,13.154-60.771,0
		C223.884,77.937,283.713,76.707,285.139,89.988"/>
	<path id="path76" fill="#FFFFFF" d="M424.421,89.988c-3.916,12.08-60.337,13.154-60.781,0
		C363.23,77.937,422.991,76.707,424.421,89.988"/>
	<path id="path78" fill="#FFFFFF" d="M563.718,89.988c-3.877,12.08-60.293,13.154-60.801,0
		C502.498,77.937,562.273,76.707,563.718,89.988"/>
	<path id="path80" fill="#087BBB" d="M127.371,136.267h415.02"/>
	<path id="path82" fill="none" stroke="#FFFFFF" stroke-width="4" d="M127.371,136.267h415.02"/>
	<path id="path84" fill="#FFFFFF" d="M224.856,136.453c-3.916,11.953-60.337,13.008-60.771,0
		C163.669,124.275,223.425,123.025,224.856,136.453"/>
	<path id="path86" fill="#FFFFFF" d="M364.133,136.453c-3.843,11.953-60.264,13.008-60.781,0
		C302.932,124.275,362.776,123.025,364.133,136.453"/>
	<path id="path88" fill="#FFFFFF" d="M503.484,136.453c-3.926,11.953-60.347,13.008-60.786,0
		C442.283,124.275,502.039,123.025,503.484,136.453"/>
</g>
</svg>
