<?xml version="1.0" encoding="utf-8"?>
<!-- Generator: Adobe Illustrator 16.0.0, SVG Export Plug-In . SVG Version: 6.00 Build 0)  -->
<!DOCTYPE svg PUBLIC "-//W3C//DTD SVG 1.1//EN" "http://www.w3.org/Graphics/SVG/1.1/DTD/svg11.dtd">
<svg version="1.1"
	 id="svg2" xmlns:dc="http://purl.org/dc/elements/1.1/" xmlns:cc="http://creativecommons.org/ns#" xmlns:rdf="http://www.w3.org/1999/02/22-rdf-syntax-ns#" xmlns:svg="http://www.w3.org/2000/svg"
	 xmlns="http://www.w3.org/2000/svg" xmlns:xlink="http://www.w3.org/1999/xlink" x="0px" y="0px" width="77px" height="55px"
	 viewBox="0 0 77 55" enable-background="new 0 0 77 55" xml:space="preserve">
<g id="g12" transform="scale(0.1,0.1)">
	<path id="path22" fill="#087BBB" d="M0.002,529.995H690.51V76.396H0.002V529.995z"/>
	<path id="path24" fill="none" stroke="#FFFFFF" stroke-width="4" d="M0.002,529.995H690.51V76.396H0.002V529.995z"/>
	<path id="path26" fill="#087BBB" d="M770.002,413.706L690.51,529.995V76.396l79.492-96.289V413.706"/>
	<path id="path28" fill="none" stroke="#FFFFFF" stroke-width="4" d="M770.002,413.706L690.51,529.995V76.396l79.492-96.289V413.706
		z"/>
	<path id="path30" fill="#087BBB" d="M119.187-20h650.815L690.51,76.396H0.002l119.185-96.289"/>
	<path id="path32" fill="none" stroke="#FFFFFF" stroke-width="4" d="M119.187-20h650.815L690.51,76.396H0.002l119.185-96.289V-20z"
		/>
	<path id="path34" fill="#FFFFFF" d="M332.434,442.124l-0.059-61.426h18.398l0.049,61.426l28.662,0.02l-37.813,66.953l-37.93-66.953
		L332.434,442.124"/>
	<path id="path36" fill="#FFFFFF" d="M117.683,425.913l48.149-83.047l-19.258-11.172L98.45,414.956l-30.107-17.324l-0.791,93.145
		l80.215-47.266L117.683,425.913"/>
	<path id="path38" fill="#FFFFFF" d="M571.643,425.913l-48.154-83.047l19.355-11.172l48.135,83.262l30.107-17.324l0.781,93.145
		l-80.313-47.266L571.643,425.913"/>
	<path id="path40" fill="#FFFFFF" d="M451.975,434.663l-15.918-59.277l17.852-4.668l15.879,59.258l27.783-7.422l-19.365,74.473
		l-54.014-54.883L451.975,434.663"/>
	<path id="path42" fill="#FFFFFF" d="M233.875,434.663l15.913-59.277l-17.744-4.668l-15.884,59.258l-27.773-7.422l19.258,74.473
		l54.009-54.883L233.875,434.663"/>
	<path id="path44" fill="#FFFFFF" d="M192.122,186.885l0.078,96.021h-22.236l-0.049-96.021l-34.805-0.034l45.854-81.069
		l45.874,81.069L192.122,186.885"/>
	<path id="path46" fill="#FFFFFF" d="M506.184,186.885l0.068,96.021h-22.129l-0.049-96.021l-34.893-0.034l45.859-81.069
		l45.869,81.069L506.184,186.885"/>
	<path id="path48" fill="#087BBB" d="M424.202,281.05c0,45.879-37.217,82.988-83.105,82.988c-45.908,0-83.125-37.109-83.125-82.988
		c0-46.025,37.217-83.228,83.125-83.228C386.985,197.822,424.202,235.024,424.202,281.05"/>
	<path id="path50" fill="none" stroke="#FFFFFF" stroke-width="8" d="M424.202,281.05c0,45.879-37.217,82.988-83.105,82.988
		c-45.908,0-83.125-37.109-83.125-82.988c0-46.025,37.217-83.228,83.125-83.228C386.985,197.822,424.202,235.024,424.202,281.05z"/>
</g>
</svg>
