<svg version="1.1" id="ilhwsa8q1" xmlns:xml="http://www.w3.org/XML/1998/namespace"
	 xmlns="http://www.w3.org/2000/svg" xmlns:xlink="http://www.w3.org/1999/xlink" x="0px" y="0px" width="79px" height="48px"
	 viewBox="0 0 79 48" enable-background="new 0 0 79 48" xml:space="preserve">
<g>
	<path fill="#9BA5A8" d="M40.746,46.869h-0.62L0.073,46.531l0.395,0.507l0.791,0.847C1.314,48,1.54,48,1.708,48h37.177H39.9h0.168
		h0.793h36.441c0.168,0,0.396-0.115,0.508-0.227l0.791-0.679l0.395-0.395L40.746,46.869z"/>
	<path fill="#778184" d="M43.174,46.869c0,0-0.283,0.563-0.619,0.563H36.63c-0.339,0-0.621-0.563-0.621-0.563H43.174z"/>
	<path fill="#32475A" d="M68.502,36.141H11.073c-0.959,0-1.467-0.508-1.467-1.412V0.958C9.607,0.395,10.001,0,10.566,0h58.5
		c0.51,0,0.902,0.395,0.902,0.845v33.826C69.969,35.633,69.46,36.141,68.502,36.141z"/>
	<path fill="#BBC4CB" d="M78.432,46.869c-25.558,0-52.294,0-77.852,0c-0.62,0-0.789-0.621-0.281-1.184
		c2.481-2.938,5.472-5.763,7.954-8.699c0.452-0.563,1.241-0.848,1.748-0.848c19.689,0,39.377,0,59.063,0
		c0.511,0,1.24,0.228,1.75,0.789c2.481,2.938,5.473,5.932,7.955,8.867C79.164,46.361,79.053,46.869,78.432,46.869z"/>
	<path fill="#FFFFFF" d="M67.6,34.445H11.187c0,0,0-1.186,0-1.242V3.387c0,0,0.733,0,0.791,0H67.6v29.816
		C67.6,33.261,67.6,34.445,67.6,34.445z"/>
	<circle fill="#476472" cx="39.505" cy="1.58" r="0.564"/>
	<g>
		<path fill="#32475A" d="M13.838,37.328c-0.057,0.054-0.17,0.109-0.226,0.109c-1.015,0-1.974,0-2.99,0
			c-0.056,0-0.056-0.057,0-0.109c0.112-0.115,0.17-0.227,0.283-0.398c0.056-0.055,0.168-0.111,0.226-0.111c0.958,0,1.974,0,2.934,0
			c0.055,0,0.055,0.058,0.055,0.111C14.007,37.044,13.894,37.155,13.838,37.328z"/>
		<path fill="#32475A" d="M18.181,37.328c-0.055,0.054-0.113,0.109-0.224,0.109c-1.017,0-1.976,0-2.991,0
			c-0.055,0-0.113-0.057-0.055-0.109c0.055-0.115,0.168-0.227,0.224-0.398c0.057-0.055,0.17-0.111,0.226-0.111
			c0.959,0,1.975,0,2.934,0c0.057,0,0.113,0.058,0.057,0.111C18.351,37.044,18.294,37.155,18.181,37.328z"/>
		<path fill="#32475A" d="M22.3,37.328c-0.056,0.054-0.113,0.109-0.168,0.109c-1.017,0-1.974,0-2.991,0
			c-0.055,0-0.113-0.057-0.055-0.109c0.055-0.115,0.112-0.227,0.226-0.398c0.056-0.055,0.113-0.111,0.168-0.111
			c0.959,0,1.974,0,2.933,0c0.058,0,0.113,0.058,0.058,0.111C22.412,37.044,22.357,37.155,22.3,37.328z"/>
		<path fill="#32475A" d="M26.7,37.328c0,0.054-0.113,0.109-0.169,0.109c-1.016,0-1.974,0-2.991,0c-0.055,0-0.113-0.057-0.055-0.109
			c0.055-0.115,0.113-0.227,0.168-0.398c0.057-0.055,0.113-0.111,0.17-0.111c0.958,0,1.974,0,2.934,0
			c0.055,0,0.113,0.058,0.055,0.111C26.757,37.044,26.757,37.155,26.7,37.328z"/>
		<path fill="#32475A" d="M31.1,37.328c0,0.054-0.113,0.109-0.168,0.109c-1.015,0-1.974,0-2.991,0c-0.055,0-0.112-0.057-0.055-0.109
			c0.055-0.115,0.055-0.227,0.113-0.398c0-0.055,0.113-0.111,0.168-0.111c0.959,0,1.974,0,2.934,0c0.057,0,0.113,0.058,0.113,0.111
			C31.157,37.044,31.1,37.155,31.1,37.328z"/>
		<path fill="#32475A" d="M35.445,37.328c0,0.054-0.058,0.109-0.171,0.109c-1.015,0-1.974,0-2.989,0
			c-0.055,0-0.113-0.057-0.113-0.109c0-0.115,0.058-0.227,0.058-0.398c0-0.055,0.055-0.111,0.168-0.111c0.959,0,1.974,0,2.933,0
			c0.056,0,0.113,0.058,0.113,0.111C35.5,37.044,35.5,37.155,35.445,37.328z"/>
		<path fill="#32475A" d="M39.563,37.328c0,0.054-0.058,0.109-0.113,0.109c-1.017,0-1.974,0-2.991,0
			c-0.056,0-0.113-0.057-0.113-0.109c0-0.115,0-0.227,0.057-0.398c0-0.055,0.056-0.111,0.113-0.111c0.959,0,1.974,0,2.934,0
			c0.055,0,0.113,0.058,0.113,0.111C39.563,37.044,39.563,37.155,39.563,37.328z"/>
		<path fill="#32475A" d="M43.963,37.328c0,0.054-0.059,0.109-0.115,0.109c-1.015,0-1.972,0-2.986,0
			c-0.057,0-0.114-0.057-0.114-0.109c0-0.115,0-0.227,0-0.398c0-0.055,0.058-0.111,0.114-0.111c0.957,0,1.973,0,2.935,0
			c0.054,0,0.11,0.058,0.11,0.111C43.906,37.044,43.906,37.155,43.963,37.328z"/>
		<path fill="#32475A" d="M48.307,37.328c0,0.054,0,0.109-0.111,0.109c-1.016,0-1.977,0-2.99,0c-0.059,0-0.115-0.057-0.169-0.109
			c0-0.115-0.058-0.227-0.058-0.398c0-0.055,0.058-0.111,0.11-0.111c0.961,0,1.976,0,2.935,0c0.057,0,0.115,0.058,0.172,0.111
			C48.248,37.044,48.307,37.155,48.307,37.328z"/>
		<path fill="#32475A" d="M52.425,37.328c0,0.054,0,0.109-0.056,0.109c-1.016,0-1.977,0-2.991,0c-0.058,0-0.11-0.057-0.169-0.109
			c0-0.115-0.057-0.227-0.057-0.398c0-0.055,0-0.111,0.113-0.111c0.957,0,1.973,0,2.935,0c0.054,0,0.169,0.058,0.169,0.111
			C52.369,37.044,52.369,37.155,52.425,37.328z"/>
		<path fill="#32475A" d="M56.826,37.328c0.054,0.054,0,0.109-0.059,0.109c-1.015,0-1.976,0-2.99,0
			c-0.057,0-0.168-0.057-0.168-0.109c-0.059-0.115-0.059-0.227-0.114-0.398c0-0.055,0-0.111,0.057-0.111c0.962,0,1.978,0,2.935,0
			c0.058,0,0.168,0.058,0.168,0.111C56.711,37.044,56.77,37.155,56.826,37.328z"/>
		<path fill="#32475A" d="M61.169,37.328c0.058,0.054,0,0.109-0.058,0.109c-1.016,0-1.973,0-2.991,0
			c-0.054,0-0.168-0.057-0.168-0.109c-0.058-0.115-0.111-0.227-0.169-0.398c-0.057-0.055,0-0.111,0.058-0.111
			c0.957,0,1.972,0,2.935,0c0.054,0,0.168,0.058,0.168,0.111C61.055,37.044,61.111,37.155,61.169,37.328z"/>
		<path fill="#32475A" d="M65.285,37.328c0.058,0.054,0.058,0.109-0.057,0.109c-1.016,0-1.974,0-2.987,0
			c-0.058,0-0.169-0.057-0.228-0.109c-0.057-0.115-0.113-0.227-0.226-0.398c-0.058-0.055,0-0.111,0.058-0.111
			c0.957,0,1.973,0,2.934,0c0.055,0,0.169,0.058,0.227,0.111C65.117,37.044,65.229,37.155,65.285,37.328z"/>
		<path fill="#32475A" d="M69.686,37.328c0.059,0.054,0.059,0.109,0,0.109c-1.015,0-1.973,0-2.99,0
			c-0.053,0-0.168-0.057-0.223-0.109c-0.058-0.115-0.173-0.227-0.226-0.398c-0.058-0.055-0.058-0.111,0.053-0.111
			c0.962,0,1.978,0,2.935,0c0.058,0,0.173,0.058,0.227,0.111C69.518,37.044,69.575,37.155,69.686,37.328z"/>
		<path fill="#32475A" d="M12.992,38.568c-0.057,0.111-0.17,0.17-0.282,0.17c-1.017,0-2.031,0-3.046,0
			c-0.058,0-0.113-0.059-0.058-0.17c0.171-0.226,0.339-0.45,0.507-0.619c0.058-0.116,0.17-0.174,0.284-0.174
			c0.958,0,1.974,0,2.934,0c0.055,0,0.113,0.058,0.055,0.174C13.273,38.118,13.105,38.344,12.992,38.568z"/>
		<path fill="#32475A" d="M17.505,38.568c-0.058,0.111-0.17,0.17-0.226,0.17c-1.015,0-2.032,0-3.046,0
			c-0.055,0-0.113-0.059-0.055-0.17c0.113-0.226,0.281-0.45,0.395-0.619c0.055-0.116,0.168-0.174,0.226-0.174
			c0.959,0,1.974,0,2.934,0c0.055,0,0.113,0.058,0.055,0.174C17.731,38.118,17.618,38.344,17.505,38.568z"/>
		<path fill="#32475A" d="M21.737,38.568c-0.057,0.111-0.113,0.17-0.226,0.17c-1.017,0-2.032,0-3.047,0
			c-0.057,0-0.113-0.059-0.057-0.17c0.113-0.226,0.226-0.45,0.339-0.619c0.056-0.116,0.168-0.174,0.226-0.174
			c0.959,0,1.974,0,2.934,0c0.055,0,0.112,0.058,0.055,0.174C21.906,38.118,21.847,38.344,21.737,38.568z"/>
		<path fill="#32475A" d="M26.25,38.568c-0.058,0.111-0.113,0.17-0.226,0.17c-1.017,0-2.032,0-3.047,0
			c-0.057,0-0.113-0.059-0.057-0.17c0.113-0.226,0.17-0.45,0.283-0.619c0.056-0.116,0.112-0.174,0.224-0.174
			c0.959,0,1.976,0,2.934,0c0.058,0,0.113,0.058,0.113,0.174C26.419,38.118,26.305,38.344,26.25,38.568z"/>
		<path fill="#32475A" d="M30.76,38.568c0,0.111-0.11,0.17-0.168,0.17c-1.015,0-2.032,0-3.046,0c-0.056,0-0.113-0.059-0.113-0.17
			c0.057-0.226,0.113-0.45,0.226-0.619c0-0.116,0.113-0.174,0.226-0.174c0.959,0,1.974,0,2.934,0c0.055,0,0.113,0.058,0.113,0.174
			C30.874,38.118,30.819,38.344,30.76,38.568z"/>
		<path fill="#32475A" d="M35.331,38.568c0,0.111-0.113,0.17-0.168,0.17c-1.018,0-2.032,0-3.047,0c-0.057,0-0.113-0.059-0.113-0.17
			c0.056-0.226,0.113-0.45,0.113-0.619c0-0.116,0.113-0.174,0.168-0.174c0.959,0,1.974,0,2.934,0c0.055,0,0.113,0.058,0.113,0.174
			C35.387,38.118,35.331,38.344,35.331,38.568z"/>
		<path fill="#32475A" d="M39.505,38.568c0,0.111-0.055,0.17-0.168,0.17c-1.017,0-2.032,0-3.046,0c-0.058,0-0.171-0.059-0.113-0.17
			c0-0.226,0.055-0.45,0.055-0.619c0-0.116,0.058-0.174,0.17-0.174c0.959,0,1.974,0,2.934,0c0.056,0,0.168,0.058,0.168,0.174
			C39.563,38.118,39.563,38.344,39.505,38.568z"/>
		<path fill="#32475A" d="M44.074,38.568c0,0.111-0.055,0.17-0.111,0.17c-1.015,0-2.029,0-3.049,0c-0.053,0-0.168-0.059-0.168-0.17
			c0-0.226,0-0.45,0-0.619c0-0.116,0.059-0.174,0.168-0.174c0.962,0,1.977,0,2.934,0c0.059,0,0.174,0.058,0.174,0.174
			C44.021,38.118,44.021,38.344,44.074,38.568z"/>
		<path fill="#32475A" d="M48.589,38.568c0,0.111-0.058,0.17-0.114,0.17c-1.016,0-2.029,0-3.045,0c-0.058,0-0.168-0.059-0.168-0.17
			c0-0.226-0.058-0.45-0.058-0.619c0-0.116,0.058-0.174,0.11-0.174c0.961,0,1.977,0,2.934,0c0.059,0,0.173,0.058,0.173,0.174
			C48.475,38.118,48.531,38.344,48.589,38.568z"/>
		<path fill="#32475A" d="M52.82,38.568c0,0.111,0,0.17-0.113,0.17c-1.016,0-2.03,0-3.045,0c-0.059,0-0.174-0.059-0.174-0.17
			c-0.053-0.226-0.109-0.45-0.168-0.619c0-0.116,0.059-0.174,0.115-0.174c0.957,0,1.973,0,2.935,0c0.056,0,0.168,0.058,0.168,0.174
			C52.648,38.118,52.764,38.344,52.82,38.568z"/>
		<path fill="#32475A" d="M57.332,38.568c0.057,0.111,0,0.17-0.059,0.17c-1.016,0-2.029,0-3.045,0c-0.058,0-0.168-0.059-0.226-0.17
			c-0.058-0.226-0.169-0.45-0.226-0.619c-0.059-0.116,0-0.174,0.113-0.174c0.957,0,1.973,0,2.935,0c0.054,0,0.168,0.058,0.222,0.174
			C57.163,38.118,57.221,38.344,57.332,38.568z"/>
		<path fill="#32475A" d="M61.848,38.568c0.053,0.111,0,0.17-0.059,0.17c-1.016,0-2.029,0-3.048,0c-0.054,0-0.169-0.059-0.228-0.17
			c-0.111-0.226-0.168-0.45-0.279-0.619c-0.058-0.116,0-0.174,0.059-0.174c0.957,0,1.973,0,2.934,0c0.055,0,0.168,0.058,0.224,0.174
			C61.62,38.118,61.732,38.344,61.848,38.568z"/>
		<path fill="#32475A" d="M66.074,38.568c0.058,0.111,0.058,0.17-0.055,0.17c-1.015,0-2.033,0-3.047,0
			c-0.057,0-0.17-0.059-0.228-0.17c-0.11-0.226-0.226-0.45-0.337-0.619c-0.059-0.116,0-0.174,0.058-0.174c0.958,0,1.974,0,2.935,0
			c0.054,0,0.168,0.058,0.227,0.174C65.795,38.118,65.963,38.344,66.074,38.568z"/>
		<path fill="#32475A" d="M70.59,38.568c0.057,0.111,0.057,0.17-0.059,0.17c-1.016,0-2.029,0-3.045,0
			c-0.057,0-0.225-0.059-0.282-0.17c-0.168-0.226-0.283-0.45-0.452-0.619c-0.059-0.116-0.059-0.174,0.059-0.174
			c0.957,0,1.977,0,2.934,0c0.058,0,0.227,0.058,0.283,0.174C70.307,38.118,70.475,38.344,70.59,38.568z"/>
		<path fill="#32475A" d="M12.089,39.865c-0.056,0.115-0.169,0.173-0.282,0.173c-1.015,0-2.087,0-3.102,0
			c-0.113,0-0.113-0.058-0.057-0.173c0.17-0.223,0.339-0.448,0.507-0.621c0.058-0.11,0.17-0.168,0.284-0.168c1.015,0,2.03,0,3.046,0
			c0.056,0,0.113,0.058,0.056,0.168C12.427,39.417,12.259,39.643,12.089,39.865z"/>
		<path fill="#32475A" d="M16.772,39.865c-0.057,0.115-0.17,0.173-0.226,0.173c-1.015,0-2.087,0-3.102,0
			c-0.113,0-0.113-0.058-0.058-0.173c0.113-0.223,0.281-0.448,0.395-0.621c0.057-0.11,0.17-0.168,0.283-0.168
			c1.015,0,2.029,0,3.047,0c0.055,0,0.112,0.058,0.055,0.168C17.053,39.417,16.885,39.643,16.772,39.865z"/>
		<path fill="#32475A" d="M21.172,39.865c-0.057,0.115-0.168,0.173-0.226,0.173c-1.015,0-2.087,0-3.102,0
			c-0.113,0-0.113-0.058-0.058-0.173c0.113-0.223,0.226-0.448,0.339-0.621c0.055-0.11,0.168-0.168,0.226-0.168
			c1.015,0,2.03,0,3.046,0c0.055,0,0.113,0.058,0.055,0.168C21.341,39.417,21.227,39.643,21.172,39.865z"/>
		<path fill="#32475A" d="M25.798,39.865c-0.057,0.115-0.113,0.173-0.226,0.173c-1.015,0-2.087,0-3.102,0
			c-0.113,0-0.113-0.058-0.113-0.173c0.113-0.223,0.168-0.448,0.281-0.621c0.056-0.11,0.113-0.168,0.226-0.168
			c1.015,0,2.03,0,3.046,0c0.055,0,0.113,0.058,0.113,0.168C25.966,39.417,25.911,39.643,25.798,39.865z"/>
		<path fill="#32475A" d="M30.479,39.865c0,0.115-0.113,0.173-0.168,0.173c-1.017,0-2.087,0-3.104,0
			c-0.113,0-0.113-0.058-0.113-0.173c0.058-0.223,0.113-0.448,0.226-0.621c0-0.11,0.113-0.168,0.226-0.168c1.015,0,2.031,0,3.046,0
			c0.058,0,0.113,0.058,0.113,0.168C30.593,39.417,30.537,39.643,30.479,39.865z"/>
		<path fill="#32475A" d="M35.163,39.865c0,0.115-0.113,0.173-0.171,0.173c-1.015,0-2.087,0-3.102,0
			c-0.112,0-0.17-0.058-0.112-0.173c0.055-0.223,0.112-0.448,0.112-0.621c0-0.11,0.113-0.168,0.169-0.168c1.015,0,2.031,0,3.046,0
			c0.058,0,0.168,0.058,0.113,0.168C35.219,39.417,35.163,39.643,35.163,39.865z"/>
		<path fill="#32475A" d="M39.505,39.865c0,0.115-0.055,0.173-0.168,0.173c-1.017,0-2.087,0-3.104,0
			c-0.113,0-0.168-0.058-0.113-0.173c0-0.223,0.058-0.448,0.058-0.621c0-0.11,0.055-0.168,0.168-0.168c1.017,0,2.031,0,3.046,0
			c0.057,0,0.17,0.058,0.17,0.168C39.505,39.417,39.505,39.643,39.505,39.865z"/>
		<path fill="#32475A" d="M44.189,39.865c0,0.115-0.059,0.173-0.168,0.173c-1.02,0-2.088,0-3.106,0c-0.11,0-0.168-0.058-0.168-0.173
			c0-0.223,0-0.448,0-0.621c0-0.11,0.058-0.168,0.168-0.168c1.021,0,2.034,0,3.049,0c0.058,0,0.168,0.058,0.168,0.168
			C44.131,39.417,44.131,39.643,44.189,39.865z"/>
		<path fill="#32475A" d="M48.868,39.865c0,0.115-0.054,0.173-0.11,0.173c-1.015,0-2.088,0-3.104,0
			c-0.114,0-0.168-0.058-0.168-0.173c0-0.223-0.057-0.448-0.057-0.621c0-0.11,0.057-0.168,0.109-0.168c1.016,0,2.034,0,3.049,0
			c0.059,0,0.169,0.058,0.169,0.168C48.758,39.417,48.814,39.643,48.868,39.865z"/>
		<path fill="#32475A" d="M53.215,39.865c0,0.115,0,0.173-0.113,0.173c-1.017,0-2.088,0-3.104,0c-0.111,0-0.168-0.058-0.168-0.173
			c-0.059-0.223-0.115-0.448-0.169-0.621c0-0.11,0.054-0.168,0.11-0.168c1.016,0,2.029,0,3.049,0c0.054,0,0.168,0.058,0.226,0.168
			C53.046,39.417,53.157,39.643,53.215,39.865z"/>
		<path fill="#32475A" d="M57.895,39.865c0.059,0.115,0,0.173-0.11,0.173c-1.015,0-2.087,0-3.103,0
			c-0.115,0-0.168-0.058-0.227-0.173c-0.057-0.223-0.168-0.448-0.227-0.621c-0.058-0.11,0-0.168,0.111-0.168c1.02,0,2.033,0,3.049,0
			c0.057,0,0.168,0.058,0.227,0.168C57.672,39.417,57.783,39.643,57.895,39.865z"/>
		<path fill="#32475A" d="M62.521,39.865c0.058,0.115,0,0.173-0.055,0.173c-1.018,0-2.087,0-3.105,0
			c-0.11,0-0.168-0.058-0.221-0.173c-0.115-0.223-0.174-0.448-0.283-0.621c-0.06-0.11,0-0.168,0.057-0.168c1.016,0,2.029,0,3.045,0
			c0.057,0,0.168,0.058,0.227,0.168C62.295,39.417,62.409,39.643,62.521,39.865z"/>
		<path fill="#32475A" d="M66.921,39.865c0.058,0.115,0.058,0.173-0.054,0.173c-1.016,0-2.088,0-3.105,0
			c-0.111,0-0.169-0.058-0.223-0.173c-0.114-0.223-0.227-0.448-0.341-0.621c-0.058-0.11,0-0.168,0.058-0.168
			c1.016,0,2.029,0,3.044,0c0.058,0,0.228,0.058,0.283,0.168C66.643,39.417,66.752,39.643,66.921,39.865z"/>
		<path fill="#32475A" d="M71.547,39.865c0.059,0.115,0.059,0.173-0.054,0.173c-1.019,0-2.087,0-3.104,0
			c-0.111,0-0.224-0.058-0.281-0.173c-0.168-0.223-0.282-0.448-0.45-0.621c-0.058-0.11-0.058-0.168,0.057-0.168
			c1.017,0,2.03,0,3.045,0c0.058,0,0.228,0.058,0.283,0.168C71.268,39.417,71.436,39.643,71.547,39.865z"/>
		<path fill="#32475A" d="M20.72,41.448c-0.055,0.11-0.168,0.169-0.226,0.169c-4.343,0-8.63,0-12.975,0
			c-0.113,0-0.113-0.059-0.056-0.169c0.168-0.226,0.337-0.452,0.508-0.62c0.055-0.116,0.168-0.17,0.281-0.17
			c4.231,0,8.461,0,12.693,0c0.113,0,0.113,0.054,0.113,0.17C20.946,40.996,20.833,41.223,20.72,41.448z"/>
		<path fill="#32475A" d="M25.233,41.448c-0.056,0.11-0.113,0.169-0.226,0.169c-1.07,0-2.143,0-3.215,0
			c-0.113,0-0.113-0.059-0.113-0.169c0.113-0.226,0.168-0.452,0.281-0.62c0.057-0.116,0.113-0.17,0.226-0.17
			c1.072,0,2.087,0,3.159,0c0.113,0,0.113,0.054,0.113,0.17C25.403,40.996,25.346,41.223,25.233,41.448z"/>
		<path fill="#32475A" d="M54.004,41.448c0,0.11,0,0.169-0.111,0.169c-9.082,0-18.167,0-27.249,0c-0.113,0-0.113-0.059-0.113-0.169
			c0.056-0.226,0.113-0.452,0.226-0.62c0-0.116,0.113-0.17,0.226-0.17c8.855,0,17.769,0,26.626,0c0.111,0,0.168,0.054,0.226,0.17
			C53.893,40.996,53.947,41.223,54.004,41.448z"/>
		<path fill="#778184" d="M53.27,44.496c0.172,0.51-0.224,0.962-0.789,0.962c-8.35,0-16.696,0-25.046,0
			c-0.563,0-0.902-0.452-0.789-0.962c0.113-0.448,0.226-0.848,0.395-1.296c0.168-0.511,0.733-0.962,1.241-0.962
			c7.785,0,15.569,0,23.354,0c0.567,0,1.073,0.451,1.241,0.962C52.99,43.648,53.157,44.102,53.27,44.496z"/>
		<path fill="#32475A" d="M58.516,41.448c0.058,0.11,0,0.169-0.111,0.169c-1.071,0-2.146,0-3.217,0c-0.11,0-0.168-0.059-0.227-0.169
			c-0.053-0.226-0.168-0.452-0.227-0.62c-0.053-0.116,0-0.17,0.115-0.17c1.072,0,2.088,0,3.159,0c0.11,0,0.168,0.054,0.226,0.17
			C58.348,40.996,58.462,41.223,58.516,41.448z"/>
		<path fill="#32475A" d="M65.627,41.448c0.053,0.11,0,0.169-0.059,0.169c-1.86,0-3.668,0-5.529,0c-0.111,0-0.168-0.059-0.227-0.169
			c-0.11-0.226-0.168-0.452-0.279-0.62c-0.057-0.116,0-0.17,0.111-0.17c1.805,0,3.61,0,5.414,0c0.114,0,0.227,0.054,0.227,0.17
			C65.4,40.996,65.512,41.223,65.627,41.448z"/>
		<path fill="#32475A" d="M73.07,41.448c0.06,0.11,0.06,0.169-0.057,0.169c-1.861,0-3.664,0-5.525,0
			c-0.115,0-0.227-0.059-0.283-0.169c-0.111-0.226-0.283-0.452-0.395-0.62c-0.059-0.116,0-0.17,0.058-0.17c1.804,0,3.606,0,5.415,0
			c0.111,0,0.226,0.054,0.281,0.17C72.787,40.996,72.902,41.223,73.07,41.448z"/>
	</g>
</g>
</svg>
