<?xml version="1.0" encoding="utf-8"?>
<!-- Generator: Adobe Illustrator 16.0.0, SVG Export Plug-In . SVG Version: 6.00 Build 0)  -->
<!DOCTYPE svg PUBLIC "-//W3C//DTD SVG 1.1//EN" "http://www.w3.org/Graphics/SVG/1.1/DTD/svg11.dtd">
<svg version="1.1"
	 id="图层_1" xmlns:dc="http://purl.org/dc/elements/1.1/" xmlns:cc="http://creativecommons.org/ns#" xmlns:rdf="http://www.w3.org/1999/02/22-rdf-syntax-ns#"
	 xmlns="http://www.w3.org/2000/svg" xmlns:xlink="http://www.w3.org/1999/xlink" x="0px" y="0px" width="75px" height="75px"
	 viewBox="0 0 75 75" enable-background="new 0 0 75 75" xml:space="preserve">
<path fill="#00BCF2" d="M35.972,65.688L23.376,56.71L16.59,56.65c-7.766-0.067-7.833-0.077-10.636-1.435
	c-2.615-1.267-4.498-3.386-5.477-6.163l-0.399-1.135L0.029,42.72c-0.027-2.858-0.008-5.196,0.042-5.196
	c0.05,0,1.481,1.171,3.18,2.603l3.089,2.604l0.001,2.004c0,1.545,0.065,2.214,0.282,2.927c0.579,1.904,1.908,3.546,3.444,4.255
	l0.917,0.424h26.687h26.686l0.696-0.321c0.994-0.459,2.061-1.52,2.604-2.591c0.843-1.66,0.899-2.1,0.901-7.003l0.002-4.46H42.612
	H16.665l-0.039,4.709l-0.039,4.709L8.994,40.16c-4.176-3.972-7.891-7.518-8.254-7.879l-0.662-0.656h37.417h37.419l-0.046,8.22
	l-0.045,8.22l-0.398,1.18c-1.194,3.531-3.878,5.951-7.782,7.017c-1.238,0.339-1.36,0.343-10.579,0.395
	c-7.106,0.038-9.324,0.093-9.324,0.227c0.001,0.098,0.43,4.121,0.954,8.942c0.523,4.821,0.935,8.782,0.913,8.805
	C48.586,74.649,42.9,70.626,35.972,65.688L35.972,65.688z M0,19.234c0-6.963,0.037-8.441,0.234-9.399
	c0.987-4.803,4.943-8.498,9.972-9.314c0.605-0.098,10.149-0.149,27.539-0.149c25.688,0.001,26.661,0.01,27.987,0.285
	c3.537,0.729,6.441,3.006,8.006,6.273c1.04,2.172,1.063,2.347,1.127,8.234l0.055,5.287l-0.488-0.377
	c-0.27-0.208-1.685-1.394-3.144-2.636l-2.654-2.258l-0.074-2.356c-0.068-2.152-0.108-2.427-0.465-3.189
	c-0.688-1.472-1.989-2.461-3.651-2.776c-1.138-0.217-52.439-0.207-53.609,0.01C9.03,7.202,7.549,8.304,6.839,9.841l-0.425,0.922
	l-0.043,4.165l-0.043,4.165h24.922h24.922l0.038-4.228l0.039-4.229l9.216,8.156c5.068,4.485,9.346,8.279,9.505,8.431
	c0.284,0.268-0.609,0.274-37.339,0.274H0V19.234L0,19.234z"/>
</svg>
