<?xml version="1.0" encoding="utf-8"?>
<!-- Generator: Adobe Illustrator 16.0.0, SVG Export Plug-In . SVG Version: 6.00 Build 0)  -->
<!DOCTYPE svg PUBLIC "-//W3C//DTD SVG 1.1//EN" "http://www.w3.org/Graphics/SVG/1.1/DTD/svg11.dtd">
<svg version="1.1"
	 id="图层_1" xmlns:dc="http://purl.org/dc/elements/1.1/" xmlns:cc="http://creativecommons.org/ns#" xmlns:rdf="http://www.w3.org/1999/02/22-rdf-syntax-ns#"
	 xmlns="http://www.w3.org/2000/svg" xmlns:xlink="http://www.w3.org/1999/xlink" x="0px" y="0px" width="75px" height="75px"
	 viewBox="0 0 75 75" enable-background="new 0 0 75 75" xml:space="preserve">
<path fill="#00BCF2" d="M35.315,66.047l-12.56-8.939l-2.651-0.097c-1.458-0.053-4.778-0.097-7.377-0.097
	c-5.18,0-5.626-0.054-7.393-0.897c-0.526-0.251-1.363-0.846-1.911-1.355c-1.875-1.749-2.966-3.968-3.275-6.668
	C0.054,47.177-0.001,39.455,0,27.274C0.001,5.748-0.043,6.766,0.973,4.703c0.736-1.496,2.241-3.001,3.737-3.737
	c2.133-1.05-0.029-0.988,32.837-0.939c32.965,0.048,30.028-0.047,32.245,1.056c1.849,0.92,3.335,2.4,4.261,4.238
	c1.021,2.032,0.976,0.878,0.927,23.426c-0.051,22.681,0.036,20.868-1.105,23.167c-0.797,1.606-2.49,3.274-4.157,4.097
	c-2.138,1.054-2.04,1.046-13.568,1.049c-8.958,0-10.26,0.029-10.26,0.22c0,0.271,2.024,16.769,2.125,17.323
	c0.041,0.223,0.026,0.399-0.032,0.395C47.923,74.985,42.223,70.963,35.315,66.047L35.315,66.047z M60.677,47.866
	c1.537-0.786,2.143-2.275,1.583-3.896c-0.153-0.445-2.761-4.879-5.794-9.856c-3.034-4.976-7.83-13.014-10.658-17.865
	c-5.66-9.709-5.888-10.032-7.351-10.458c-1.375-0.4-2.568-0.05-3.618,1.061c-1.012,1.072-21.355,35.034-22.012,36.75
	c-0.456,1.19-0.33,2.366,0.353,3.269c0.403,0.533,1.458,1.202,2.163,1.37c0.256,0.063,10.367,0.103,22.468,0.091l22-0.023
	L60.677,47.866L60.677,47.866z M36.536,42.153c-1.465-0.479-2.193-1.512-2.193-3.11c0-1.337,0.425-2.15,1.459-2.789
	c0.633-0.39,0.86-0.447,1.789-0.447c0.945,0,1.138,0.051,1.702,0.442c0.844,0.584,1.448,1.752,1.444,2.784
	c-0.003,0.763-0.393,1.833-0.851,2.339C39.195,42.139,37.615,42.506,36.536,42.153L36.536,42.153z M35.436,32.607
	c-0.005-0.263-0.188-3.705-0.406-7.649l-0.396-7.171h2.904h2.903l-0.069,0.625c-0.038,0.344-0.205,3.57-0.372,7.17
	c-0.167,3.601-0.336,6.761-0.376,7.024l-0.072,0.478h-2.053h-2.053L35.436,32.607L35.436,32.607z"/>
</svg>
