<?xml version="1.0" encoding="utf-8"?>
<!-- Generator: Adobe Illustrator 16.0.0, SVG Export Plug-In . SVG Version: 6.00 Build 0)  -->
<!DOCTYPE svg PUBLIC "-//W3C//DTD SVG 1.1//EN" "http://www.w3.org/Graphics/SVG/1.1/DTD/svg11.dtd">
<svg version="1.1" id="图层_1" xmlns="http://www.w3.org/2000/svg" xmlns:xlink="http://www.w3.org/1999/xlink" x="0px" y="0px"
	 width="512px" height="512px" viewBox="0 0 512 512" enable-background="new 0 0 512 512" xml:space="preserve">
<g>
	<path fill="#306CF1" d="M350.56,97.284c-35.406,0-68.109,11.564-94.551,31.113c-26.441-19.549-59.144-31.113-94.551-31.113
		C73.525,97.284,2.242,168.567,2.242,256.5c0,87.933,71.283,159.216,159.216,159.216c35.407,0,68.11-11.563,94.551-31.113
		c26.441,19.55,59.145,31.113,94.551,31.113c87.933,0,159.217-71.283,159.217-159.216C509.776,168.567,438.493,97.284,350.56,97.284
		 M66.906,256.5c0-52.219,42.332-94.551,94.551-94.551c18.846,0,36.403,5.516,51.148,15.018
		c-13.521,23.402-21.261,50.563-21.261,79.533c0,28.97,7.74,56.131,21.261,79.533c-14.745,9.502-32.302,15.018-51.148,15.018
		C109.238,351.051,66.906,308.719,66.906,256.5 M350.56,351.051c-18.846,0-36.402-5.516-51.147-15.018
		c13.521-23.402,21.261-50.563,21.261-79.533c0-28.97-7.74-56.131-21.261-79.533c14.745-9.502,32.302-15.018,51.147-15.018
		c52.22,0,94.552,42.332,94.552,94.551S402.78,351.051,350.56,351.051"/>
</g>
</svg>
