<?xml version="1.0" encoding="utf-8"?>
<!-- Generator: Adobe Illustrator 16.0.0, SVG Export Plug-In . SVG Version: 6.00 Build 0)  -->
<!DOCTYPE svg PUBLIC "-//W3C//DTD SVG 1.1//EN" "http://www.w3.org/Graphics/SVG/1.1/DTD/svg11.dtd">
<svg version="1.1" id="图层_1" xmlns="http://www.w3.org/2000/svg" xmlns:xlink="http://www.w3.org/1999/xlink" x="0px" y="0px"
	 width="512px" height="512px" viewBox="0 0 512 512" enable-background="new 0 0 512 512" xml:space="preserve">
<g>
	<path fill="#C8F280" d="M499.038,101.802c-10.842-62.463-25.834-77.345-89.154-88.421C369.573,6.329,312.664,2.289,253.79,2.289
		c-58.359,0-112.336,3.806-151.975,10.686C39.353,23.833,24.471,38.824,13.41,102.129c-14.664,83.819-14.883,224.89-0.484,308.038
		c10.826,62.463,25.818,77.329,89.154,88.421c40.404,7.067,97.422,11.123,156.437,11.123c58.22,0,112.086-3.776,151.68-10.639
		c62.478-10.858,77.359-25.851,88.404-89.17C513.265,326.052,513.468,184.965,499.038,101.802 M483.218,407.234
		c-9.921,56.753-19.827,66.768-75.722,76.486c-38.72,6.709-91.635,10.391-148.996,10.391c-58.141,0-114.176-3.962-153.738-10.873
		c-56.784-9.952-66.799-19.874-76.471-75.723c-14.149-81.697-13.931-220.318,0.484-302.703
		c9.922-56.737,19.828-66.753,75.707-76.456c38.797-6.739,91.806-10.452,149.308-10.452c58.001,0,113.927,3.962,153.394,10.858
		c56.737,9.937,66.752,19.843,76.472,75.722C497.835,186.198,497.633,324.835,483.218,407.234"/>
	<path fill="#C8F280" d="M223.438,240.147h47.986h0.001h10.251c1.855,0,3.711-0.708,5.126-2.123
		c1.169-1.169,1.848-2.638,2.051-4.158c0.016-0.138,0.03-0.276,0.047-0.414c0.109-1.429-0.205-2.88-0.939-4.158
		c-0.312-0.543-0.692-1.058-1.157-1.522c-1.416-1.416-3.271-2.123-5.126-2.123h-58.239c-1.855,0-3.71,0.708-5.126,2.123
		c-2.36,2.36-2.745,5.939-1.17,8.706c0.314,0.552,0.699,1.075,1.17,1.546C219.728,239.44,221.583,240.147,223.438,240.147"/>
	<path fill="#C8F280" d="M217.142,259.281c0.314,0.552,0.699,1.075,1.17,1.546c1.416,1.416,3.271,2.123,5.126,2.123h47.986h0.001
		h10.251c1.855,0,3.711-0.708,5.126-2.123c1.169-1.169,1.848-2.638,2.051-4.158c0.016-0.138,0.03-0.276,0.047-0.414
		c0.109-1.429-0.205-2.88-0.939-4.158c-0.312-0.543-0.692-1.058-1.157-1.522c-1.416-1.416-3.271-2.123-5.126-2.123h-58.239
		c-1.855,0-3.71,0.708-5.126,2.123C215.952,252.935,215.567,256.514,217.142,259.281"/>
	<path fill="#C8F280" d="M217.142,282.084c0.314,0.552,0.699,1.075,1.17,1.546c1.416,1.416,3.271,2.123,5.126,2.123h47.986h0.001
		h10.251c1.855,0,3.711-0.708,5.126-2.123c1.169-1.169,1.848-2.638,2.051-4.158c0.016-0.138,0.03-0.275,0.047-0.414
		c0.109-1.429-0.205-2.879-0.939-4.157c-0.312-0.543-0.692-1.059-1.157-1.522c-1.416-1.416-3.271-2.123-5.126-2.123h-58.239
		c-1.855,0-3.71,0.708-5.126,2.123C215.952,275.738,215.567,279.317,217.142,282.084"/>
	<path fill="#C8F280" d="M365.146,299.792c-3.148-3.091-7.088-4.865-11.151-5.372c-0.369-0.036-0.738-0.072-1.106-0.113
		c-3.813-0.256-7.679,0.621-11.072,2.611c-1.443,0.846-2.809,1.874-4.036,3.125c-1.509,1.537-2.694,3.267-3.586,5.104
		c-11.426,18.137-29.069,32.477-51.089,39.341c-49.132,15.313-101.563-12.198-116.878-61.33l-0.023,0.007
		c-0.366-1.141-0.822-2.246-1.385-3.293c-0.184-0.322-0.368-0.645-0.548-0.968c-1.999-3.261-4.95-5.905-8.537-7.522
		c-1.525-0.687-3.153-1.206-4.883-1.483c-10.553-1.695-20.482,5.483-22.177,16.036c-0.486,3.026-0.226,5.993,0.619,8.734
		l-0.022,0.007c21.666,69.509,95.843,108.434,165.352,86.768c14.027-4.372,26.79-10.879,38.062-19.052l0.057,6.122
		c0.046,4.952,1.979,9.888,5.794,13.63c6.357,6.242,15.921,7.184,23.268,2.911c1.466-0.853,2.854-1.894,4.099-3.162
		c3.743-3.813,5.588-8.783,5.542-13.736l-0.503-54.731C370.894,308.471,368.96,303.536,365.146,299.792"/>
	<path fill="#C8F280" d="M381.768,216.263c-21.666-69.509-95.843-108.433-165.352-86.767c-14.026,4.372-26.789,10.879-38.061,19.05
		l-0.056-6.121c-0.046-4.952-1.98-9.887-5.794-13.63c-6.358-6.242-15.921-7.183-23.268-2.911c-1.467,0.853-2.853,1.894-4.098,3.162
		c-3.744,3.814-5.588,8.784-5.542,13.737l0.503,54.731c0.045,4.953,1.98,9.888,5.794,13.632c3.148,3.091,7.087,4.865,11.151,5.372
		c0.369,0.036,0.738,0.072,1.106,0.113c3.814,0.257,7.679-0.62,11.073-2.611c1.443-0.846,2.808-1.874,4.036-3.125
		c1.511-1.539,2.696-3.271,3.589-5.109c11.425-18.134,29.067-32.472,51.085-39.335c49.132-15.314,101.563,12.198,116.877,61.33
		l0.023-0.007c0.366,1.141,0.822,2.247,1.385,3.294c0.185,0.322,0.368,0.644,0.548,0.968c1.999,3.26,4.95,5.905,8.537,7.522
		c1.525,0.687,3.153,1.206,4.883,1.484c10.554,1.696,20.482-5.484,22.178-16.037c0.485-3.026,0.226-5.994-0.619-8.735
		L381.768,216.263z"/>
</g>
</svg>
