<?xml version="1.0" encoding="utf-8"?>
<!-- Generator: Adobe Illustrator 16.0.0, SVG Export Plug-In . SVG Version: 6.00 Build 0)  -->
<!DOCTYPE svg PUBLIC "-//W3C//DTD SVG 1.1//EN" "http://www.w3.org/Graphics/SVG/1.1/DTD/svg11.dtd">
<svg version="1.1" id="图层_1" xmlns="http://www.w3.org/2000/svg" xmlns:xlink="http://www.w3.org/1999/xlink" x="0px" y="0px"
	 width="512px" height="512px" viewBox="0 0 512 512" enable-background="new 0 0 512 512" xml:space="preserve">
<g>
	<path fill="#4BECBC" d="M258.525,509.706h-0.009c-59.002,0-116.024-4.052-156.434-11.121
		c-63.337-11.091-78.335-25.959-89.152-88.42c-14.404-83.149-14.183-224.212,0.48-308.031c11.06-63.299,25.937-78.297,88.405-89.152
		c39.64-6.886,93.615-10.687,151.978-10.687c58.881,0,115.781,4.045,156.091,11.098c63.314,11.083,78.306,25.959,89.152,88.42
		c14.427,83.164,14.229,224.258-0.442,308.092c-11.045,63.313-25.929,78.305-88.404,89.167
		C370.612,505.928,316.743,509.706,258.525,509.706 M253.795,17.894c-57.495,0-110.518,3.717-149.312,10.458
		c-55.88,9.704-65.782,19.713-75.7,76.461c-14.419,82.38-14.633,220.997-0.48,302.699c9.674,55.85,19.683,65.768,76.469,75.715
		c39.564,6.916,95.596,10.877,153.745,10.877h0.009c57.364,0,110.273-3.687,149-10.39c55.895-9.72,65.797-19.729,75.715-76.492
		c14.412-82.402,14.609-221.036,0.441-302.745c-9.72-55.872-19.729-65.782-76.477-75.715
		C367.733,21.855,311.807,17.894,253.795,17.894"/>
	<polygon fill="#4BECBC" points="341.8,187.334 341.8,145.803 255.819,104.279 170.244,145.803 170.154,187.266 256.073,228.79 	"/>
	<polygon fill="#4BECBC" points="341.754,188.056 341.754,229.56 254.175,270.51 170.041,229.474 170.041,187.956 84.468,229.415 
		84.468,312.462 169.845,353.889 253.339,394.443 253.339,395.251 253.341,395.251 254.188,394.856 255.208,395.351 
		255.208,394.379 341.714,353.967 427.532,312.522 427.532,229.501 	"/>
</g>
</svg>
