<?xml version="1.0" encoding="utf-8"?>
<!-- Generator: Adobe Illustrator 16.0.0, SVG Export Plug-In . SVG Version: 6.00 Build 0)  -->
<!DOCTYPE svg PUBLIC "-//W3C//DTD SVG 1.1//EN" "http://www.w3.org/Graphics/SVG/1.1/DTD/svg11.dtd">
<svg version="1.1"
	 id="svg2" xmlns:dc="http://purl.org/dc/elements/1.1/" xmlns:cc="http://creativecommons.org/ns#" xmlns:rdf="http://www.w3.org/1999/02/22-rdf-syntax-ns#" xmlns:svg="http://www.w3.org/2000/svg"
	 xmlns="http://www.w3.org/2000/svg" xmlns:xlink="http://www.w3.org/1999/xlink" x="0px" y="0px" width="75px" height="63px"
	 viewBox="0 0 75 63" enable-background="new 0 0 75 63" xml:space="preserve">
<g id="g12" transform="scale(0.1,0.1)">
	<path id="path22" fill="#02709F" d="M554.629,494.262c0-83.379-83.516-145.742-187.734-145.742
		c-93.994,0-177.48,62.363-177.48,145.742c0,73.047,83.486,135.742,177.48,135.742C471.113,630.005,554.629,567.309,554.629,494.262
		"/>
	<path id="path24" fill="none" stroke="#FFFFFF" stroke-width="3.9999" d="M554.629,494.262
		c0-83.379-83.516-145.742-187.734-145.742c-93.994,0-177.48,62.363-177.48,145.742c0,73.047,83.486,135.742,177.48,135.742
		C471.113,630.005,554.629,567.309,554.629,494.262z"/>
	<path id="path26" fill="#02709F" d="M492.129,489.79h73.145l52.109,10.313h73.125l20.732-10.313l10.371-20.723l10.635-20.977
		l-10.635-31.348l-62.48-62.383l-41.748-52.187l-52.109-52.031l-31.377-41.699L502.5,156.26l-31.387-41.699l-31.084-52.026
		l-10.654-41.68L387.637,0h-31.25l-41.738,20.854l-10.361,31.187l-20.869,41.694l-31.387,41.685l-20.879,41.689l-62.612,83.364
		l-41.743,52.217L22.441,416.743l-10.376,20.996v10.352l20.894,41.699h20.85l20.869,10.313h41.768l41.729-10.313H492.129"/>
	<path id="path28" fill="#02709F" d="M565.273,312.69c0-83.388-94.16-145.937-198.379-145.937
		c-104.355,0-187.847,62.549-187.847,145.937c0,83.369,83.491,145.752,187.847,145.752
		C471.113,458.442,565.273,396.059,565.273,312.69"/>
	<path id="path30" fill="none" stroke="#FFFFFF" stroke-width="3.9999" d="M565.273,312.69c0-83.388-94.16-145.937-198.379-145.937
		c-104.355,0-187.847,62.549-187.847,145.937c0,83.369,83.491,145.752,187.847,145.752
		C471.113,458.442,565.273,396.059,565.273,312.69z"/>
	<path id="path32" fill="#FFFFFF" d="M387.637,72.896h10.664V0h-10.664V72.896z"/>
	<path id="path34" fill="#FFFFFF" d="M366.895,72.896h10.371V0h-10.371V72.896z"/>
	<path id="path36" fill="#FFFFFF" d="M346.035,72.896h10.352V0h-10.352V72.896z"/>
	<path id="path38" fill="#FFFFFF" d="M24.136,493.305l5.967,8.359l59.648-42.012l-5.977-8.633L24.136,493.305"/>
	<path id="path40" fill="#FFFFFF" d="M12.065,476.372l5.967,8.34l59.634-41.992l-5.962-8.633L12.065,476.372"/>
	<path id="path42" fill="#FFFFFF" d="M0,459.145l5.962,8.613l59.634-42.266l-5.967-8.32L0,459.145"/>
	<path id="path44" fill="#FFFFFF" d="M725.869,493.305l-5.986,8.359l-59.756-42.012l6.24-8.633L725.869,493.305"/>
	<path id="path46" fill="#FFFFFF" d="M738.086,476.372l-6.24,8.34l-59.521-41.992l5.967-8.633L738.086,476.372"/>
	<path id="path48" fill="#FFFFFF" d="M750,459.145l-5.957,8.613l-59.775-42.266l6.24-8.32L750,459.145"/>
	<path id="path50" d="M312.041,519.848h31.885v-17.129h-31.885V519.848z"/>
	<path id="path52" fill="none" stroke="#FFFFFF" stroke-width="3.2001" d="M312.041,519.848h31.885v-17.129h-31.885V519.848z"/>
	<path id="path54" d="M352.656,519.848h31.875v-17.129h-31.875V519.848z"/>
	<path id="path56" fill="none" stroke="#FFFFFF" stroke-width="3.2001" d="M352.656,519.848h31.875v-17.129h-31.875V519.848z"/>
	<path id="path58" d="M393.271,519.848H425v-17.129h-31.729V519.848z"/>
	<path id="path60" fill="none" stroke="#FFFFFF" stroke-width="3.2001" d="M393.271,519.848H425v-17.129h-31.729V519.848z"/>
	<path id="path62" d="M312.041,548.93h31.885v-17.461h-31.885V548.93z"/>
	<path id="path64" fill="none" stroke="#FFFFFF" stroke-width="3.2001" d="M312.041,548.93h31.885v-17.461h-31.885V548.93z"/>
	<path id="path66" d="M352.656,548.93h31.875v-17.461h-31.875V548.93z"/>
	<path id="path68" fill="none" stroke="#FFFFFF" stroke-width="3.2001" d="M352.656,548.93h31.875v-17.461h-31.875V548.93z"/>
	<path id="path70" d="M393.271,548.93H425v-17.461h-31.729V548.93z"/>
	<path id="path72" fill="none" stroke="#FFFFFF" stroke-width="3.2001" d="M393.271,548.93H425v-17.461h-31.729V548.93z"/>
	<path id="path74" d="M312.041,577.719h31.885v-17.148h-31.885V577.719z"/>
	<path id="path76" fill="none" stroke="#FFFFFF" stroke-width="3.2001" d="M312.041,577.719h31.885v-17.148h-31.885V577.719z"/>
	<path id="path78" d="M352.656,577.719h31.875v-17.148h-31.875V577.719z"/>
	<path id="path80" fill="none" stroke="#FFFFFF" stroke-width="3.2001" d="M352.656,577.719h31.875v-17.148h-31.875V577.719z"/>
	<path id="path82" d="M393.271,577.719H425v-17.148h-31.729V577.719z"/>
	<path id="path84" fill="none" stroke="#FFFFFF" stroke-width="3.2001" d="M393.271,577.719H425v-17.148h-31.729V577.719z"/>
</g>
</svg>
