<?xml version="1.0" encoding="utf-8"?>
<!-- Generator: Adobe Illustrator 16.0.0, SVG Export Plug-In . SVG Version: 6.00 Build 0)  -->
<!DOCTYPE svg PUBLIC "-//W3C//DTD SVG 1.1//EN" "http://www.w3.org/Graphics/SVG/1.1/DTD/svg11.dtd">
<svg version="1.1" id="图层_1" xmlns="http://www.w3.org/2000/svg" xmlns:xlink="http://www.w3.org/1999/xlink" x="0px" y="0px"
	 width="512px" height="512px" viewBox="0 0 512 512" enable-background="new 0 0 512 512" xml:space="preserve">
<g>
	<path fill="#3B9CD9" d="M499.037,101.813c-10.847-62.461-25.838-77.337-89.152-88.42c-40.31-7.053-97.21-11.098-156.091-11.098
		c-58.363,0-112.338,3.801-151.978,10.687c-62.468,10.855-77.345,25.853-88.405,89.152c-14.663,83.819-14.884,224.882-0.48,308.031
		c10.817,62.461,25.815,77.329,89.152,88.42c40.409,7.069,97.431,11.121,156.434,11.121h0.009
		c58.218,0,112.087-3.778,151.665-10.634c62.476-10.862,77.359-25.854,88.404-89.167
		C513.266,326.071,513.464,184.977,499.037,101.813 M483.24,407.222c-9.918,56.764-19.82,66.772-75.715,76.492
		c-38.727,6.703-91.636,10.39-149,10.39h-0.009c-58.148,0-114.181-3.961-153.745-10.877c-56.786-9.947-66.795-19.865-76.469-75.715
		c-14.153-81.702-13.939-220.319,0.48-302.699c9.918-56.748,19.82-66.757,75.7-76.461c38.794-6.741,91.817-10.458,149.312-10.458
		c58.012,0,113.938,3.961,153.41,10.868c56.748,9.933,66.757,19.843,76.477,75.715C497.85,186.186,497.652,324.819,483.24,407.222"
		/>
	<path fill="#3B9CD9" d="M401.866,279.213c-2.549,0-5.034,0.255-7.424,0.749l-55.761-101.148c6.213-7.105,9.941-16.202,9.941-26.111
		c0-22.734-19.627-41.183-43.827-41.183s-43.811,18.433-43.811,41.183c0,11.773,5.257,22.384,13.685,29.887l-58.58,111.137
		c-4.015-0.859-8.189-1.338-12.474-1.338c-9.463,0-18.369,2.23-26.175,6.149l-43.891-54.74c1.498-3.33,2.326-6.994,2.326-10.849
		c0-15.422-13.303-27.912-29.712-27.912s-29.712,12.49-29.712,27.912c0,15.422,13.303,27.912,29.712,27.912
		c2.788,0,5.496-0.366,8.045-1.052l43.907,54.757c-6.404,8.522-10.164,18.909-10.164,30.109c0,28.884,24.917,52.303,55.664,52.303
		c30.747,0,55.647-23.419,55.647-52.303c0-16.17-7.806-30.62-20.073-40.211l58.581-111.137c2.294,0.35,4.636,0.542,7.041,0.542
		c4.302,0,8.476-0.589,12.41-1.689l55.761,101.148c-4.031,5.385-6.404,11.949-6.404,19.038c0,18.321,15.804,33.169,35.304,33.169
		s35.304-14.848,35.304-33.169s-15.804-33.169-35.304-33.169L401.866,279.213z"/>
</g>
</svg>
