<svg version="1.1" id="ilhwsa8q1" xmlns:xml="http://www.w3.org/XML/1998/namespace"
	 xmlns="http://www.w3.org/2000/svg" xmlns:xlink="http://www.w3.org/1999/xlink" x="0px" y="0px" width="78px" height="68px"
	 viewBox="0 0 78 68" enable-background="new 0 0 78 68" xml:space="preserve">
<g>
	<g>
		<path fill="#2E3335" d="M31.269,3.826L31.269,3.826c-0.147,0-0.24-0.148-0.24-0.238V0.287c0-0.148,0.139-0.241,0.24-0.241l0,0
			c0.146,0,0.238,0.148,0.238,0.241v3.392C31.563,3.734,31.415,3.826,31.269,3.826z"/>
		<path fill="#2E3335" d="M30.006,5.041L30.006,5.041c-0.147,0-0.249-0.147-0.249-0.24V1.501c0-0.148,0.148-0.24,0.249-0.24l0,0
			c0.148,0,0.241,0.148,0.241,0.24v3.392C30.2,4.893,30.053,5.041,30.006,5.041z"/>
		<path fill="#2E3335" d="M32.484,5.041L32.484,5.041c-0.145,0-0.238-0.147-0.238-0.24V1.501c0-0.148,0.139-0.24,0.238-0.24l0,0
			c0.148,0,0.241,0.148,0.241,0.24v3.392C32.678,4.893,32.577,5.041,32.484,5.041z"/>
		<g>
			<path fill="#2E3335" d="M31.563,17.851h-0.533V3.881c0-0.147,0.139-0.246,0.24-0.246l0,0c0.146,0,0.238,0.145,0.238,0.246
				C31.563,3.826,31.563,17.851,31.563,17.851z"/>
			<path fill="#2E3335" d="M32.577,3.78L32.577,3.78c0,0.046-0.046,0.194-0.192,0.194h-2.23c-0.056,0-0.194-0.046-0.194-0.194l0,0
				c0-0.046,0.046-0.192,0.194-0.192h2.23C32.53,3.588,32.577,3.635,32.577,3.78z"/>
		</g>
	</g>
	<rect x="19.354" y="18.863" fill="#DEAF44" width="15.03" height="48.125"/>
	<g opacity="0.65">
		<g>
			<rect x="20.568" y="31.821" fill="#FFFFFF" width="2.674" height="1.307"/>
			<rect x="23.878" y="31.821" fill="#FFFFFF" width="2.671" height="1.307"/>
			<rect x="27.233" y="31.821" fill="#FFFFFF" width="2.672" height="1.307"/>
			<rect x="30.54" y="31.821" fill="#FFFFFF" width="1.991" height="1.307"/>
			<rect x="20.568" y="34.49" fill="#FFFFFF" width="2.674" height="1.307"/>
			<rect x="23.878" y="34.49" fill="#FFFFFF" width="2.671" height="1.307"/>
			<rect x="27.233" y="34.49" fill="#FFFFFF" width="2.672" height="1.307"/>
			<rect x="30.54" y="34.49" fill="#FFFFFF" width="1.991" height="1.307"/>
			<rect x="20.568" y="36.475" fill="#FFFFFF" width="2.674" height="1.307"/>
			<rect x="23.878" y="36.475" fill="#FFFFFF" width="2.671" height="1.307"/>
			<rect x="27.233" y="36.475" fill="#FFFFFF" width="2.672" height="1.307"/>
			<rect x="30.54" y="36.475" fill="#FFFFFF" width="1.991" height="1.307"/>
			<rect x="20.568" y="38.463" fill="#FFFFFF" width="2.674" height="1.315"/>
			<rect x="23.878" y="38.463" fill="#FFFFFF" width="2.671" height="1.315"/>
			<rect x="27.233" y="38.463" fill="#FFFFFF" width="2.672" height="1.315"/>
			<rect x="30.54" y="38.463" fill="#FFFFFF" width="1.991" height="1.315"/>
			<rect x="20.568" y="41.081" fill="#FFFFFF" width="2.674" height="1.307"/>
			<rect x="23.878" y="41.081" fill="#FFFFFF" width="2.671" height="1.307"/>
			<rect x="27.233" y="41.081" fill="#FFFFFF" width="2.672" height="1.307"/>
			<rect x="30.54" y="41.081" fill="#FFFFFF" width="1.991" height="1.307"/>
		</g>
		<g>
			<rect x="20.568" y="43.751" fill="#FFFFFF" width="2.674" height="0.678"/>
			<rect x="23.878" y="43.751" fill="#FFFFFF" width="2.671" height="0.678"/>
			<rect x="27.233" y="43.751" fill="#FFFFFF" width="2.672" height="0.678"/>
			<rect x="30.54" y="43.751" fill="#FFFFFF" width="1.991" height="0.678"/>
			<rect x="20.568" y="45.737" fill="#FFFFFF" width="2.674" height="1.315"/>
			<rect x="23.878" y="45.737" fill="#FFFFFF" width="2.671" height="1.315"/>
			<rect x="27.233" y="45.737" fill="#FFFFFF" width="2.672" height="1.315"/>
			<rect x="30.54" y="45.737" fill="#FFFFFF" width="1.991" height="1.315"/>
			<rect x="20.568" y="47.735" fill="#FFFFFF" width="2.674" height="1.301"/>
			<rect x="23.878" y="47.735" fill="#FFFFFF" width="2.671" height="1.301"/>
			<rect x="27.233" y="47.735" fill="#FFFFFF" width="2.672" height="1.301"/>
			<rect x="30.54" y="47.735" fill="#FFFFFF" width="1.991" height="1.301"/>
			<rect x="20.568" y="50.4" fill="#FFFFFF" width="2.674" height="0.678"/>
			<rect x="23.878" y="50.4" fill="#FFFFFF" width="2.671" height="0.678"/>
			<rect x="27.233" y="50.4" fill="#FFFFFF" width="2.672" height="0.678"/>
			<rect x="30.54" y="50.4" fill="#FFFFFF" width="1.991" height="0.678"/>
			<rect x="20.568" y="52.385" fill="#FFFFFF" width="2.674" height="1.307"/>
			<rect x="23.878" y="52.385" fill="#FFFFFF" width="2.671" height="1.307"/>
			<rect x="27.233" y="52.385" fill="#FFFFFF" width="2.672" height="1.307"/>
			<rect x="30.54" y="52.385" fill="#FFFFFF" width="1.991" height="1.307"/>
		</g>
		<g>
			<rect x="20.568" y="21.2" fill="#FFFFFF" width="2.674" height="1.307"/>
			<rect x="23.878" y="21.2" fill="#FFFFFF" width="2.671" height="1.307"/>
			<rect x="27.233" y="21.2" fill="#FFFFFF" width="2.672" height="1.307"/>
			<rect x="30.54" y="21.2" fill="#FFFFFF" width="1.991" height="1.307"/>
			<rect x="20.568" y="23.186" fill="#FFFFFF" width="2.674" height="1.308"/>
			<rect x="23.878" y="23.186" fill="#FFFFFF" width="2.671" height="1.308"/>
			<rect x="27.233" y="23.186" fill="#FFFFFF" width="2.672" height="1.308"/>
			<rect x="30.54" y="23.186" fill="#FFFFFF" width="1.991" height="1.308"/>
			<rect x="20.568" y="25.173" fill="#FFFFFF" width="2.674" height="1.315"/>
			<rect x="23.878" y="25.173" fill="#FFFFFF" width="2.671" height="1.315"/>
			<rect x="27.233" y="25.173" fill="#FFFFFF" width="2.672" height="1.315"/>
			<rect x="30.54" y="25.173" fill="#FFFFFF" width="1.991" height="1.315"/>
			<rect x="20.568" y="27.839" fill="#FFFFFF" width="2.674" height="1.316"/>
			<rect x="23.878" y="27.839" fill="#FFFFFF" width="2.671" height="1.316"/>
			<rect x="27.233" y="27.839" fill="#FFFFFF" width="2.672" height="1.316"/>
			<rect x="30.54" y="27.839" fill="#FFFFFF" width="1.991" height="1.316"/>
			<rect x="20.568" y="29.826" fill="#FFFFFF" width="2.674" height="1.315"/>
			<rect x="23.878" y="29.826" fill="#FFFFFF" width="2.671" height="1.315"/>
			<rect x="27.233" y="29.826" fill="#FFFFFF" width="2.672" height="1.315"/>
			<rect x="30.54" y="29.826" fill="#FFFFFF" width="1.991" height="1.315"/>
		</g>
	</g>
	<rect x="20.568" y="31.821" fill="#FFFFFF" width="2.674" height="1.307"/>
	<rect x="23.878" y="31.821" fill="#FFFFFF" width="2.671" height="1.307"/>
	<rect x="27.233" y="31.821" fill="#FFFFFF" width="2.672" height="1.307"/>
	<rect x="30.54" y="31.821" fill="#FFFFFF" width="1.991" height="1.307"/>
	<rect x="20.568" y="34.49" fill="#FFFFFF" width="2.674" height="1.307"/>
	<rect x="23.878" y="34.49" fill="#FFFFFF" width="2.671" height="1.307"/>
	<rect x="27.233" y="34.49" fill="#FFFFFF" width="2.672" height="1.307"/>
	<rect x="30.54" y="34.49" fill="#FFFFFF" width="1.991" height="1.307"/>
	<rect x="20.568" y="36.475" fill="#FFFFFF" width="2.674" height="1.307"/>
	<rect x="23.878" y="36.475" fill="#FFFFFF" width="2.671" height="1.307"/>
	<rect x="27.233" y="36.475" fill="#FFFFFF" width="2.672" height="1.307"/>
	<rect x="30.54" y="36.475" fill="#FFFFFF" width="1.991" height="1.307"/>
	<rect x="20.568" y="38.463" fill="#FFFFFF" width="2.674" height="1.315"/>
	<rect x="23.878" y="38.463" fill="#FFFFFF" width="2.671" height="1.315"/>
	<rect x="27.233" y="38.463" fill="#FFFFFF" width="2.672" height="1.315"/>
	<rect x="30.54" y="38.463" fill="#FFFFFF" width="1.991" height="1.315"/>
	<rect x="20.568" y="41.081" fill="#FFFFFF" width="2.674" height="1.307"/>
	<rect x="23.878" y="41.081" fill="#FFFFFF" width="2.671" height="1.307"/>
	<rect x="27.233" y="41.081" fill="#FFFFFF" width="2.672" height="1.307"/>
	<rect x="30.54" y="41.081" fill="#FFFFFF" width="1.991" height="1.307"/>
	<rect x="20.568" y="43.751" fill="#FFFFFF" width="2.674" height="0.678"/>
	<rect x="23.878" y="43.751" fill="#FFFFFF" width="2.671" height="0.678"/>
	<rect x="27.233" y="43.751" fill="#FFFFFF" width="2.672" height="0.678"/>
	<rect x="30.54" y="43.751" fill="#FFFFFF" width="1.991" height="0.678"/>
	<rect x="20.568" y="45.737" fill="#FFFFFF" width="2.674" height="1.315"/>
	<rect x="23.878" y="45.737" fill="#FFFFFF" width="2.671" height="1.315"/>
	<rect x="27.233" y="45.737" fill="#FFFFFF" width="2.672" height="1.315"/>
	<rect x="30.54" y="45.737" fill="#FFFFFF" width="1.991" height="1.315"/>
	<rect x="20.568" y="47.735" fill="#FFFFFF" width="2.674" height="1.301"/>
	<rect x="23.878" y="47.735" fill="#FFFFFF" width="2.671" height="1.301"/>
	<rect x="27.233" y="47.735" fill="#FFFFFF" width="2.672" height="1.301"/>
	<rect x="30.54" y="47.735" fill="#FFFFFF" width="1.991" height="1.301"/>
	<rect x="20.568" y="50.4" fill="#FFFFFF" width="2.674" height="0.678"/>
	<rect x="23.878" y="50.4" fill="#FFFFFF" width="2.671" height="0.678"/>
	<rect x="27.233" y="50.4" fill="#FFFFFF" width="2.672" height="0.678"/>
	<rect x="30.54" y="50.4" fill="#FFFFFF" width="1.991" height="0.678"/>
	<rect x="20.568" y="52.385" fill="#FFFFFF" width="2.674" height="1.307"/>
	<rect x="23.878" y="52.385" fill="#FFFFFF" width="2.671" height="1.307"/>
	<rect x="27.233" y="52.385" fill="#FFFFFF" width="2.672" height="1.307"/>
	<rect x="30.54" y="52.385" fill="#FFFFFF" width="1.991" height="1.307"/>
	<rect x="20.568" y="21.2" fill="#FFFFFF" width="2.674" height="1.307"/>
	<rect x="23.878" y="21.2" fill="#FFFFFF" width="2.671" height="1.307"/>
	<rect x="27.233" y="21.2" fill="#FFFFFF" width="2.672" height="1.307"/>
	<rect x="30.54" y="21.2" fill="#FFFFFF" width="1.991" height="1.307"/>
	<rect x="20.568" y="23.186" fill="#FFFFFF" width="2.674" height="1.308"/>
	<rect x="23.878" y="23.186" fill="#FFFFFF" width="2.671" height="1.308"/>
	<rect x="27.233" y="23.186" fill="#FFFFFF" width="2.672" height="1.308"/>
	<rect x="30.54" y="23.186" fill="#FFFFFF" width="1.991" height="1.308"/>
	<rect x="20.568" y="25.173" fill="#FFFFFF" width="2.674" height="1.315"/>
	<rect x="23.878" y="25.173" fill="#FFFFFF" width="2.671" height="1.315"/>
	<rect x="27.233" y="25.173" fill="#FFFFFF" width="2.672" height="1.315"/>
	<rect x="30.54" y="25.173" fill="#FFFFFF" width="1.991" height="1.315"/>
	<rect x="20.568" y="27.839" fill="#FFFFFF" width="2.674" height="1.316"/>
	<rect x="23.878" y="27.839" fill="#FFFFFF" width="2.671" height="1.316"/>
	<rect x="27.233" y="27.839" fill="#FFFFFF" width="2.672" height="1.316"/>
	<rect x="30.54" y="27.839" fill="#FFFFFF" width="1.991" height="1.316"/>
	<rect x="20.568" y="29.826" fill="#FFFFFF" width="2.674" height="1.315"/>
	<rect x="23.878" y="29.826" fill="#FFFFFF" width="2.671" height="1.315"/>
	<rect x="27.233" y="29.826" fill="#FFFFFF" width="2.672" height="1.315"/>
	<rect x="30.54" y="29.826" fill="#FFFFFF" width="1.991" height="1.315"/>
	<rect x="3.162" y="18.863" fill="#B2CECD" width="15.03" height="48.125"/>
	<path fill="#9CAE3A" d="M74.795,67.274H58.693V3.734c0-0.385,0.49-0.68,0.922-0.68h7.253h7.244c0.388,0,0.728,0.239,0.728,0.68"/>
	<polygon fill="#636736" points="71.096,3.054 62.446,3.054 62.446,0 71.096,1.987 	"/>
	<g opacity="0.86">
		<rect x="61.762" y="5.96" fill="#FFFFFF" width="1.994" height="53.021"/>
		<rect x="69.734" y="5.96" fill="#FFFFFF" width="1.993" height="53.021"/>
		<rect x="64.434" y="5.96" fill="#FFFFFF" width="4.666" height="53.021"/>
	</g>
	<rect x="64.095" y="60.248" fill="#636736" width="4.912" height="7.176"/>
	<rect x="24.947" y="55.732" fill="#E1F1F8" width="4.912" height="11.203"/>
	<rect x="8.175" y="60.974" fill="#70AFB2" width="4.903" height="5.962"/>
	<rect x="28.209" y="39.483" fill="#3286AB" width="28.346" height="27.505"/>
	<rect x="40.023" y="39.483" fill="#E1F1F8" width="4.718" height="27.892"/>
	<rect x="34.53" y="42.445" fill="#E1F1F8" width="0.921" height="20.029"/>
	<rect x="32.678" y="42.445" fill="#E1F1F8" width="0.922" height="20.029"/>
	<rect x="30.734" y="42.445" fill="#E1F1F8" width="0.921" height="20.029"/>
	<rect x="36.474" y="42.445" fill="#E1F1F8" width="0.924" height="20.029"/>
	<g opacity="0.74">
		<rect x="4.912" y="22.597" fill="#FFFFFF" width="0.921" height="36.722"/>
		<rect x="6.708" y="22.597" fill="#FFFFFF" width="0.921" height="36.722"/>
		<rect x="8.415" y="22.597" fill="#FFFFFF" width="0.921" height="36.722"/>
		<rect x="10.211" y="22.597" fill="#FFFFFF" width="0.922" height="36.722"/>
		<rect x="11.916" y="22.597" fill="#FFFFFF" width="0.922" height="36.722"/>
		<rect x="13.712" y="22.597" fill="#FFFFFF" width="0.922" height="36.722"/>
		<rect x="15.465" y="22.597" fill="#FFFFFF" width="0.922" height="36.722"/>
	</g>
	<rect x="50.962" y="42.445" fill="#E1F1F8" width="0.921" height="20.029"/>
	<rect x="49.064" y="42.445" fill="#E1F1F8" width="0.93" height="20.029"/>
	<rect x="47.175" y="42.445" fill="#E1F1F8" width="0.922" height="20.029"/>
	<rect x="52.86" y="42.445" fill="#E1F1F8" width="0.922" height="20.029"/>
	<path fill="#20384C" d="M57.239,39.584H27.572c-0.339,0-0.58-0.25-0.58-0.588l0,0c0-0.339,0.241-0.581,0.58-0.581h29.759
		c0.34,0,0.587,0.242,0.587,0.581l0,0C57.918,39.292,57.579,39.584,57.239,39.584z"/>
	<path fill="#20384C" d="M57.045,46.176H27.767c-0.194,0-0.342-0.146-0.342-0.339l0,0c0-0.193,0.147-0.338,0.342-0.338h29.322
		c0.194,0,0.345,0.145,0.345,0.338l0,0C57.384,46.075,57.19,46.176,57.045,46.176z"/>
	<path fill="#20384C" d="M57.045,50.594H27.767c-0.194,0-0.342-0.15-0.342-0.344l0,0c0-0.193,0.147-0.338,0.342-0.338h29.322
		c0.194,0,0.345,0.145,0.345,0.338l0,0C57.384,50.444,57.19,50.594,57.045,50.594z"/>
	<path fill="#20384C" d="M57.045,54.958H27.767c-0.194,0-0.342-0.145-0.342-0.338l0,0c0-0.194,0.147-0.338,0.342-0.338h29.322
		c0.194,0,0.345,0.145,0.345,0.338l0,0C57.384,54.813,57.19,54.958,57.045,54.958z"/>
	<path fill="#20384C" d="M57.045,59.319H27.767c-0.194,0-0.342-0.135-0.342-0.338l0,0c0-0.194,0.147-0.33,0.342-0.33h29.322
		c0.194,0,0.345,0.135,0.345,0.33l0,0C57.384,59.184,57.19,59.319,57.045,59.319z"/>
	<path fill="#70AFB2" d="M18.137,23.085H3.162c-0.194,0-0.342-0.147-0.342-0.341l0,0c0-0.191,0.147-0.339,0.342-0.339h14.929
		c0.194,0,0.342,0.147,0.342,0.339l0,0C18.433,22.938,18.238,23.085,18.137,23.085z"/>
	<path fill="#70AFB2" d="M18.137,27.26H3.162c-0.194,0-0.342-0.147-0.342-0.34l0,0c0-0.194,0.147-0.342,0.342-0.342h14.929
		c0.194,0,0.342,0.148,0.342,0.342l0,0C18.433,27.113,18.238,27.26,18.137,27.26z"/>
	<path fill="#70AFB2" d="M18.137,31.289H3.162c-0.194,0-0.342-0.147-0.342-0.341l0,0c0-0.194,0.147-0.341,0.342-0.341h14.929
		c0.194,0,0.342,0.147,0.342,0.341l0,0C18.433,31.142,18.238,31.289,18.137,31.289z"/>
	<path fill="#70AFB2" d="M18.137,39.392H3.162c-0.194,0-0.342-0.149-0.342-0.344l0,0c0-0.189,0.147-0.34,0.342-0.34h14.929
		c0.194,0,0.342,0.15,0.342,0.34l0,0C18.433,39.189,18.238,39.392,18.137,39.392z"/>
	<path fill="#70AFB2" d="M18.137,43.365H3.162c-0.194,0-0.342-0.15-0.342-0.344l0,0c0-0.188,0.147-0.338,0.342-0.338h14.929
		c0.194,0,0.342,0.15,0.342,0.338l0,0C18.433,43.215,18.238,43.365,18.137,43.365z"/>
	<path fill="#70AFB2" d="M18.137,47.391H3.162c-0.194,0-0.342-0.145-0.342-0.338l0,0c0-0.194,0.147-0.339,0.342-0.339h14.929
		c0.194,0,0.342,0.145,0.342,0.339l0,0C18.433,47.246,18.238,47.391,18.137,47.391z"/>
	<path fill="#70AFB2" d="M18.137,51.421H3.162c-0.194,0-0.342-0.15-0.342-0.344l0,0c0-0.189,0.147-0.339,0.342-0.339h14.929
		c0.194,0,0.342,0.15,0.342,0.339l0,0C18.433,51.32,18.238,51.421,18.137,51.421z"/>
	<path fill="#70AFB2" d="M18.137,55.394H3.162c-0.194,0-0.342-0.149-0.342-0.343l0,0c0-0.188,0.147-0.338,0.342-0.338h14.929
		c0.194,0,0.342,0.15,0.342,0.338l0,0C18.433,55.302,18.238,55.394,18.137,55.394z"/>
	<path fill="#70AFB2" d="M18.137,59.469H3.162c-0.194,0-0.342-0.15-0.342-0.344l0,0c0-0.194,0.147-0.339,0.342-0.339h14.929
		c0.194,0,0.342,0.146,0.342,0.339l0,0C18.433,59.319,18.238,59.469,18.137,59.469z"/>
	<path fill="#70AFB2" d="M18.137,35.309H3.162c-0.194,0-0.342-0.142-0.342-0.33l0,0c0-0.203,0.147-0.344,0.342-0.344h14.929
		c0.194,0,0.342,0.141,0.342,0.344l0,0C18.433,35.215,18.238,35.309,18.137,35.309z"/>
	<path fill="#20384C" d="M54.805,38.463H30.006c-0.342,0-0.58-0.243-0.58-0.581l0,0c0-0.339,0.238-0.582,0.58-0.582h24.799
		c0.342,0,0.581,0.243,0.581,0.582l0,0C55.386,38.177,55.146,38.463,54.805,38.463z"/>
	<path fill="#4A4B58" d="M78,67.331C78,67.67,77.816,68,77.633,68H0.367C0.146,68,0,67.719,0,67.331l0,0
		c0-0.342,0.182-0.632,0.367-0.632h77.267C77.854,66.699,78,66.989,78,67.331L78,67.331z"/>
	<path fill="#D86E3F" d="M19.261,19.112h15.407c0.194,0,0.25-0.194,0.148-0.341l-7.686-6.062c-0.046-0.055-0.139-0.055-0.194,0
		l-7.778,6.015C18.966,18.863,19.067,19.112,19.261,19.112z"/>
</g>
</svg>
