<?xml version="1.0" encoding="utf-8"?>
<!-- Generator: Adobe Illustrator 16.0.0, SVG Export Plug-In . SVG Version: 6.00 Build 0)  -->
<!DOCTYPE svg PUBLIC "-//W3C//DTD SVG 1.1//EN" "http://www.w3.org/Graphics/SVG/1.1/DTD/svg11.dtd">
<svg version="1.1" id="图层_1" xmlns="http://www.w3.org/2000/svg" xmlns:xlink="http://www.w3.org/1999/xlink" x="0px" y="0px"
	 width="62px" height="75px" viewBox="0 0 62 75" enable-background="new 0 0 62 75" xml:space="preserve">
<g id="Layer_1">
	<polygon fill="#373737" points="44.106,25.105 31,26.979 17.893,25.105 31,0 	"/>
	<polygon fill="#4F4F4F" points="43.38,37.5 55.757,37.5 61.166,44.27 55.757,52.501 43.38,50.73 	"/>
	<polygon fill="#ACACAC" points="18.622,37.5 6.242,37.5 0.728,44.167 6.242,52.604 18.622,50.73 	"/>
	<polygon fill="#ACACAC" points="44.106,25.105 31,22.5 31,0 44.106,6.562 	"/>
	<polygon fill="#4F4F4F" points="17.893,25.105 31,22.5 31,0 17.893,6.562 	"/>
	<polygon fill="#ACACAC" points="50.556,37.5 31,37.5 14.46,49.271 31,75 50.556,65.207 	"/>
	<polygon fill="#4F4F4F" points="11.443,37.5 31,37.5 31,75 11.443,65.207 	"/>
	<polygon fill="#ACACAC" points="55.757,52.501 62,50.73 62,37.5 55.757,37.5 	"/>
	<polygon fill="#4F4F4F" points="6.242,52.604 0,50.73 0,37.5 6.242,37.5 	"/>
</g>
</svg>
