<?xml version="1.0" encoding="utf-8"?>
<!-- Generator: Adobe Illustrator 16.0.0, SVG Export Plug-In . SVG Version: 6.00 Build 0)  -->
<!DOCTYPE svg PUBLIC "-//W3C//DTD SVG 1.1//EN" "http://www.w3.org/Graphics/SVG/1.1/DTD/svg11.dtd">
<svg version="1.1" id="图层_1" xmlns="http://www.w3.org/2000/svg" xmlns:xlink="http://www.w3.org/1999/xlink" x="0px" y="0px"
	 width="55px" height="75px" viewBox="0 0 55 75" enable-background="new 0 0 55 75" xml:space="preserve">
<g id="Layer_1">
	<path fill="#4F4F4F" d="M35.195,3.203c2.275,0,4.014,1.735,4.014,4.003L55,67.26v3.736C55,73.266,53.128,75,50.986,75H4.148
		c-2.275,0-4.014-1.734-4.014-4.004V67.66L17.933,7.206c0-2.268,1.739-4.003,4.014-4.003H35.195z"/>
	<path fill="#ACACAC" d="M50.853,0c2.275,0,4.015,1.735,4.015,4.003V67.66c0,2.27-1.874,4.003-4.015,4.003H4.014
		C1.739,71.663,0,69.93,0,67.66V4.003C0,1.735,1.74,0,4.014,0H50.853z"/>
	<path fill="#FFFFFF" d="M37.068,9.075h11.108v4.404H37.068V9.075z M21.813,9.075h11.106v4.404H21.813V9.075z M6.557,9.075h11.107
		v4.404H6.557V9.075z M6.557,16.681h11.107v4.404H6.557V16.681z M6.691,24.422h11.107v4.404H6.691V24.422z M17.798,32.028v4.404
		H6.691v-4.404H17.798z M6.691,39.77h11.107v4.403H6.691V39.77z M17.798,51.913H6.691v-4.404h11.107V51.913z M21.813,16.681h11.106
		v4.404H21.813V16.681z M21.813,24.422h11.106v4.404H21.813V24.422z M33.055,32.028v4.404H21.946v-4.404H33.055z M21.946,39.77
		h11.108v4.403H21.946V39.77z M33.055,51.913H21.946v-4.404h11.108V51.913z M37.068,16.681h11.108v4.404H37.068V16.681z
		 M37.068,24.422h11.108v4.404H37.068V24.422z M48.177,32.028v4.404H37.068v-4.404H48.177z M37.068,39.77h11.108v4.403H37.068V39.77
		z M48.31,51.913H37.203v-4.404H48.31V51.913z"/>
</g>
</svg>
