<?xml version="1.0" encoding="utf-8"?>
<!-- Generator: Adobe Illustrator 16.0.0, SVG Export Plug-In . SVG Version: 6.00 Build 0)  -->
<!DOCTYPE svg PUBLIC "-//W3C//DTD SVG 1.1//EN" "http://www.w3.org/Graphics/SVG/1.1/DTD/svg11.dtd">
<svg version="1.1" id="图层_1" xmlns="http://www.w3.org/2000/svg" xmlns:xlink="http://www.w3.org/1999/xlink" x="0px" y="0px"
	 width="75px" height="75px" viewBox="0 0 75 75" enable-background="new 0 0 75 75" xml:space="preserve">
<g id="Layer_1">
	<path fill="#4F4F4F" d="M63.244,31.048C70.144,31.048,75,35.392,75,41.652v13.544h-6.135v-9.199h-1.66v9.199h-9.327
		c-0.639-6.899-6.133-11.499-13.927-11.499h-5.365v-3.706c6.004-0.511,10.731-2.811,11.243-8.815c0.256,0,0.383,0,0.51,0h12.905
		V31.048z"/>
	<path fill="#4F4F4F" d="M24.531,31.048c0.255,0,0.383,0,0.511,0c0.512,6.005,5.238,8.305,11.244,8.816v3.705h-5.239
		c-7.794,0-13.287,4.728-13.927,11.499H8.049v-9.2H6.388v9.2H0V41.652c0-6.26,4.854-10.604,11.754-10.604H24.531z"/>
	<path fill="#4F4F4F" d="M43.951,49.318c6.899,0,11.755,4.345,11.755,10.604v13.544h-6.133v-9.199h-1.661v9.199H27.214v-9.199h-1.66
		v9.199h-6.389V59.923c0-6.26,4.854-10.604,11.754-10.604H43.951z"/>
	<path fill="#4F4F4F" d="M18.143,4.728l10.222,7.283v3.194c0,5.75-4.601,10.477-10.222,10.477c-5.622,0-10.222-4.727-10.222-10.86
		v-2.938L18.143,4.728z"/>
	<path fill="#4F4F4F" d="M56.728,4.728l10.222,7.283v3.194c0,5.75-4.6,10.477-10.222,10.477c-5.621,0-10.222-4.727-10.222-10.86
		v-2.938L56.728,4.728z"/>
	<path fill="#4F4F4F" d="M37.436,18.91l9.07,6.388v2.811c0,5.111-4.087,9.199-9.07,9.199c-4.982,0-9.071-4.088-9.071-9.71V25.17
		L37.436,18.91z"/>
	<path fill="#ACACAC" d="M56.856,1.533c5.621,0,10.222,4.728,10.222,10.35c0,5.75-4.601,10.477-10.222,10.477
		c-5.622,0-10.222-4.728-10.222-10.477S51.234,1.533,56.856,1.533z"/>
	<path fill="#ACACAC" d="M37.436,15.716c4.983,0,9.07,4.089,9.07,9.2c0,5.11-4.087,9.199-9.07,9.199
		c-4.982,0-9.071-4.088-9.071-9.199C28.364,19.932,32.453,15.716,37.436,15.716z"/>
	<path fill="#ACACAC" d="M63.244,27.854C70.144,27.854,75,32.198,75,38.458v13.544h-6.135v-9.199h-1.66v9.199h-9.327
		c-0.639-6.899-6.133-11.499-13.927-11.499h-5.365v-1.15c6.004-0.512,10.731-5.366,11.243-11.371c0.256,0,0.383,0,0.51,0h12.905
		V27.854z"/>
	<path fill="#ACACAC" d="M24.531,27.854c0.255,0,0.383,0,0.511,0c0.512,6.005,5.238,10.86,11.244,11.372v1.149h-5.239
		c-7.794,0-13.287,4.728-13.927,11.499H8.049v-9.2H6.388v9.2H0V38.458c0-6.26,4.854-10.604,11.754-10.604H24.531z"/>
	<path fill="#ACACAC" d="M43.951,46.124c6.899,0,11.755,4.345,11.755,10.604v13.544h-6.133v-9.199h-1.661v9.199H27.214v-9.199h-1.66
		v9.199h-6.389V56.729c0-6.26,4.854-10.604,11.754-10.604H43.951z"/>
	<path fill="#ACACAC" d="M18.143,1.533c5.621,0,10.222,4.728,10.222,10.35c0,5.75-4.601,10.477-10.222,10.477
		c-5.622,0-10.222-4.728-10.222-10.477C7.921,6.261,12.521,1.533,18.143,1.533z"/>
</g>
</svg>
