<?xml version="1.0" encoding="utf-8"?>
<!-- Generator: Adobe Illustrator 16.0.0, SVG Export Plug-In . SVG Version: 6.00 Build 0)  -->
<!DOCTYPE svg PUBLIC "-//W3C//DTD SVG 1.1//EN" "http://www.w3.org/Graphics/SVG/1.1/DTD/svg11.dtd">
<svg version="1.1" id="图层_1" xmlns="http://www.w3.org/2000/svg" xmlns:xlink="http://www.w3.org/1999/xlink" x="0px" y="0px"
	 width="75px" height="75px" viewBox="0 0 75 75" enable-background="new 0 0 75 75" xml:space="preserve">
<g id="Layer_1">
	<path fill="#4F4F4F" d="M67.561,32.669c-0.767-3.527-2.146-6.749-3.987-9.816l3.835-3.834v-3.834l-13.344-1.841
		c-2.913-1.84-6.288-3.22-9.815-3.987V7.516H30.751v1.841c-3.527,0.767-6.748,2.147-9.815,3.987L7.592,15.184v3.834l3.834,3.834
		c-1.841,2.914-3.221,6.289-3.987,9.816H1.917v13.497h5.521c0.767,3.527,2.146,6.748,3.987,9.815H7.592v3.834l9.51,9.51l3.834-3.834
		c2.914,1.84,6.288,3.222,9.815,3.988V75h13.498v-5.521c3.527-0.767,6.748-2.148,9.815-3.988l3.834,3.834l9.51-9.51v-3.987h-3.835
		c1.841-2.914,3.221-6.287,3.987-9.816h5.522V32.515h-5.522V32.669z M56.672,48.927c-1.993,4.142-5.368,7.361-9.51,9.51
		c-0.92,0.459-1.993,0.919-2.913,1.227c-2.147,0.767-4.448,1.073-6.749,1.073s-4.602-0.459-6.749-1.073
		c-1.073-0.308-1.994-0.768-2.913-1.227c-4.142-1.994-7.363-5.368-9.51-9.51c-0.46-0.92-0.921-1.994-1.227-2.915
		c-0.768-2.146-1.074-4.294-1.074-6.747c0-2.455,0.46-4.602,1.074-6.75c0.306-1.073,0.767-1.994,1.227-2.914
		c1.993-4.141,5.368-7.361,9.51-9.509c0.919-0.46,1.993-0.92,2.913-1.227c2.147-0.767,4.295-1.073,6.749-1.073
		c2.453,0,4.602,0.459,6.749,1.073c1.072,0.307,1.993,0.767,2.913,1.227c4.142,1.994,7.362,5.368,9.51,9.509
		c0.46,0.92,0.92,1.995,1.227,2.914c0.767,2.148,1.074,4.295,1.074,6.75c0,2.453-0.46,4.601-1.074,6.747
		C57.592,47.086,57.132,48.007,56.672,48.927z"/>
	<path fill="#ACACAC" d="M67.561,28.834c-0.919-3.527-2.301-6.749-4.14-9.816l3.834-3.834l-9.509-9.509l-3.835,3.834
		c-2.914-1.84-6.289-3.22-9.816-3.987V0H30.598v5.522c-3.527,0.767-6.748,2.147-9.815,3.987l-3.835-3.834l-9.509,9.509l3.834,3.834
		c-1.84,2.914-3.221,6.289-3.987,9.816H1.764v13.498h5.521c0.767,3.527,2.147,6.747,3.987,9.814l-3.527,3.682l9.509,9.51
		l3.835-3.834c2.914,1.841,6.288,3.22,9.816,3.987v5.521h13.497v-5.521c3.526-0.768,6.749-2.146,9.816-3.987l3.834,3.834l9.508-9.51
		l-3.834-3.834c1.841-2.915,3.222-6.288,3.988-9.816h5.521V28.681h-5.676V28.834z M56.672,45.245
		c-1.993,4.142-5.368,7.363-9.51,9.51c-0.92,0.459-1.993,0.921-2.913,1.227c-2.147,0.767-4.296,1.073-6.749,1.073
		c-2.454,0-4.602-0.459-6.749-1.073c-1.073-0.306-1.994-0.768-2.913-1.227c-4.142-1.994-7.363-5.368-9.51-9.51
		c-0.46-0.92-0.921-1.994-1.227-2.913c-0.768-2.148-1.074-4.295-1.074-6.75c0-2.453,0.46-4.601,1.074-6.748
		c0.306-1.073,0.767-1.994,1.227-2.914c1.993-4.142,5.368-7.362,9.51-9.51c0.919-0.459,1.993-0.919,2.913-1.227
		c2.147-0.767,4.295-1.074,6.749-1.074c2.453,0,4.602,0.46,6.749,1.074c1.072,0.307,1.993,0.767,2.913,1.227
		c4.142,1.995,7.362,5.368,9.51,9.51c0.46,0.92,0.92,1.994,1.227,2.914c0.767,2.147,1.074,4.295,1.074,6.748
		c0,2.455-0.46,4.601-1.074,6.75C57.592,43.251,57.132,44.173,56.672,45.245z"/>
</g>
</svg>
