<?xml version="1.0" encoding="utf-8"?>
<!-- Generator: Adobe Illustrator 16.0.0, SVG Export Plug-In . SVG Version: 6.00 Build 0)  -->
<!DOCTYPE svg PUBLIC "-//W3C//DTD SVG 1.1//EN" "http://www.w3.org/Graphics/SVG/1.1/DTD/svg11.dtd">
<svg version="1.1" id="图层_1" xmlns="http://www.w3.org/2000/svg" xmlns:xlink="http://www.w3.org/1999/xlink" x="0px" y="0px"
	 width="512px" height="512px" viewBox="0 0 512 512" enable-background="new 0 0 512 512" xml:space="preserve">
<g>
	<path fill="#38C4F5" d="M499.037,101.813c-10.847-62.461-25.838-77.337-89.152-88.42c-40.31-7.053-97.21-11.098-156.091-11.098
		c-58.363,0-112.338,3.801-151.978,10.687c-62.468,10.855-77.345,25.853-88.405,89.152c-14.663,83.819-14.884,224.882-0.48,308.031
		c10.817,62.461,25.815,77.329,89.152,88.42c40.409,7.069,97.431,11.121,156.434,11.121h0.009
		c58.218,0,112.087-3.778,151.665-10.634c62.476-10.862,77.359-25.854,88.404-89.167
		C513.266,326.071,513.464,184.977,499.037,101.813 M483.24,407.222c-9.918,56.764-19.82,66.772-75.715,76.492
		c-38.727,6.703-91.636,10.39-149,10.39h-0.009c-58.148,0-114.181-3.961-153.745-10.877c-56.786-9.947-66.795-19.865-76.469-75.715
		c-14.153-81.702-13.939-220.319,0.48-302.699c9.918-56.748,19.82-66.757,75.7-76.461c38.794-6.741,91.817-10.458,149.312-10.458
		c58.012,0,113.938,3.961,153.41,10.868c56.748,9.933,66.757,19.843,76.477,75.715C497.85,186.186,497.652,324.819,483.24,407.222"
		/>
	<path fill="#38C4F5" d="M353.62,317.684c-6.677,0-13.354,1.669-18.362,3.34l-18.361-21.7
		c13.354-16.692,21.699-36.724,21.699-58.424s-8.346-41.731-20.03-58.424l11.685-10.015c6.677,3.338,13.354,5.008,21.7,5.008
		c26.708,0,46.739-21.7,46.739-46.739s-21.7-46.739-46.739-46.739c-26.708,0-46.739,21.7-46.739,46.739
		c0,6.677,1.669,11.685,3.339,16.692l-15.022,13.354c-13.354-8.346-30.046-11.685-46.739-11.685
		c-18.362,0-35.054,5.008-50.077,13.354l-16.692-21.7c0-3.338,1.669-5.008,1.669-8.346c0-16.692-13.354-30.046-30.046-30.046
		s-31.716,13.354-31.716,30.046s13.354,30.046,30.046,30.046h3.338l18.362,23.369c-11.685,15.023-18.362,35.054-18.362,55.085
		c0,15.023,3.338,28.377,10.015,41.731l-15.023,13.354c-3.338-1.669-8.346-1.669-13.354-1.669
		c-20.031,0-36.723,16.691-36.723,36.723s16.692,36.723,36.723,36.723c20.031,0,36.723-16.691,36.723-36.723
		c0-3.339,0-6.677-1.669-10.015l11.685-10.016c16.692,15.023,38.393,23.369,61.762,23.369c13.354,0,26.708-3.339,36.723-8.346
		l18.362,23.369c-5.008,8.346-8.347,18.361-8.347,28.377c0,31.716,26.709,56.754,58.425,56.754s58.424-25.039,58.424-56.754
		C412.044,344.392,385.336,317.684,353.62,317.684 M246.788,312.677c-40.062,0-73.447-33.385-73.447-73.447
		s33.385-73.447,73.447-73.447c40.062,0,73.447,33.385,73.447,73.447C320.235,280.961,286.85,312.677,246.788,312.677"/>
	<path fill="#38C4F5" d="M221.75,239.23c0,7.378-5.976,13.354-13.354,13.354s-13.354-5.976-13.354-13.354
		s5.976-13.354,13.354-13.354S221.75,231.852,221.75,239.23"/>
	<path fill="#38C4F5" d="M258.473,239.23c0,7.378-5.976,13.354-13.354,13.354s-13.354-5.976-13.354-13.354
		s5.976-13.354,13.354-13.354S258.473,231.852,258.473,239.23"/>
	<path fill="#38C4F5" d="M295.196,239.23c0,7.378-5.977,13.354-13.354,13.354s-13.354-5.976-13.354-13.354
		s5.976-13.354,13.354-13.354S295.196,231.852,295.196,239.23"/>
</g>
</svg>
