<?xml version="1.0" encoding="utf-8"?>
<!-- Generator: Adobe Illustrator 16.0.0, SVG Export Plug-In . SVG Version: 6.00 Build 0)  -->
<!DOCTYPE svg PUBLIC "-//W3C//DTD SVG 1.1//EN" "http://www.w3.org/Graphics/SVG/1.1/DTD/svg11.dtd">
<svg version="1.1"
	 id="svg2" xmlns:dc="http://purl.org/dc/elements/1.1/" xmlns:cc="http://creativecommons.org/ns#" xmlns:rdf="http://www.w3.org/1999/02/22-rdf-syntax-ns#" xmlns:svg="http://www.w3.org/2000/svg"
	 xmlns="http://www.w3.org/2000/svg" xmlns:xlink="http://www.w3.org/1999/xlink" x="0px" y="0px" width="75px" height="70px"
	 viewBox="0 0 75 70" enable-background="new 0 0 75 70" xml:space="preserve">
<g id="g12" transform="scale(0.1,0.1)">
	<path id="path22" fill="#026C9B" d="M750,0.264L624.58,119.326H-0.005L151.567,0.264H750"/>
	<path id="path24" fill="none" stroke="#FFFFFF" stroke-width="4" d="M750,0.264L624.58,119.326H-0.005L151.567,0.264H750z"/>
	<path id="path26" fill="#026C9B" d="M-0.005,700.005H624.58V119.336H-0.005V700.005z"/>
	<path id="path28" fill="none" stroke="#FFFFFF" stroke-width="4" d="M-0.005,700.005H624.58V119.336H-0.005V700.005z"/>
	<path id="path30" fill="#026C9B" d="M735.557,580.669V0L619.121,119.326v580.678L735.557,580.669"/>
	<path id="path32" fill="none" stroke="#FFFFFF" stroke-width="4" d="M735.557,580.669V0L619.121,119.326v580.678L735.557,580.669z"
		/>
	<path id="path34" fill="#026C9B" d="M31.138,653.11h557.905V163.677H31.138V653.11z"/>
	<path id="path36" fill="none" stroke="#FFFFFF" stroke-width="4" d="M31.138,653.11h557.905V163.677H31.138V653.11z"/>
	<path id="path38" fill="none" stroke="#FFFFFF" stroke-width="4.8" stroke-dasharray="12,12" d="M255.898,381.294L58.237,446.45"/>
	<path id="path40" fill="#026C9B" d="M347.529,332.349l241.328-89.639v52.998L347.529,332.349"/>
	<path id="path42" fill="none" stroke="#FFFFFF" stroke-width="4" d="M347.529,332.349l241.328-89.639v52.998L347.529,332.349z"/>
	<path id="path44" fill="#026C9B" d="M347.529,332.349l241.328-32.588v52.871L347.529,332.349"/>
	<path id="path46" fill="none" stroke="#FFFFFF" stroke-width="4" d="M347.529,332.349l241.328-32.588v52.871L347.529,332.349"/>
	<path id="path48" fill="#026C9B" d="M347.529,332.349l241.328,20.849v52.979L347.529,332.349"/>
	<path id="path50" fill="none" stroke="#FFFFFF" stroke-width="4" d="M347.529,332.349l241.328,20.849v52.979L347.529,332.349"/>
	<path id="path52" fill="#FFFFFF" d="M508.994,609.194H127.529l190.732-381.211L508.994,609.194"/>
	<path id="path54" fill="#026C9B" d="M292.207,449.702l-37.412-37.393l6.309-6.436l-23.477-4.629l4.766,23.496l6.289-6.455
		l37.412,37.666L292.207,449.702"/>
	<path id="path56" fill="#026C9B" d="M278.438,474.35h-52.852v-9.17l-20.068,13.486l20.068,13.232V482.7h52.852V474.35"/>
	<path id="path58" fill="#026C9B" d="M286.094,501.401l-37.412,37.383l-6.289-6.426l-4.766,23.467l23.477-4.639l-6.309-6.436
		l37.412-37.383L286.094,501.401"/>
	<path id="path60" fill="#026C9B" d="M310.625,514.887v53.115h-8.906l13.203,19.902l13.242-19.902h-8.926v-53.115H310.625"/>
	<path id="path62" fill="#026C9B" d="M310.625,443.686v-52.861h-8.906l13.203-20.156l13.242,20.156h-8.926v52.861H310.625"/>
	<path id="path64" fill="#026C9B" d="M337.656,507.368l37.402,37.383l-6.289,6.436l23.623,4.639l-4.902-23.467l-6.416,6.426
		l-37.305-37.383L337.656,507.368"/>
	<path id="path66" fill="#026C9B" d="M351.289,482.7h53.008v9.199l19.902-13.232l-19.902-13.486v9.17h-53.008V482.7"/>
	<path id="path68" fill="#026C9B" d="M343.77,455.952l37.305-37.666l6.416,6.455l4.902-23.496l-23.623,4.629l6.289,6.436
		l-37.402,37.393L343.77,455.952"/>
	<path id="path70" fill="#026C9B" d="M347.48,523.423c24.922-17.52,30.928-51.943,13.535-76.875
		c-17.539-24.961-51.934-31.201-76.904-13.672c-24.932,17.5-31.064,51.924-13.564,76.855
		C287.949,534.663,322.52,540.942,347.48,523.423"/>
	<path id="path72" fill="none" stroke="#FFFFFF" stroke-width="4" d="M347.48,523.423c24.922-17.52,30.928-51.943,13.535-76.875
		c-17.539-24.961-51.934-31.201-76.904-13.672c-24.932,17.5-31.064,51.924-13.564,76.855
		C287.949,534.663,322.52,540.942,347.48,523.423z"/>
</g>
</svg>
