<?xml version="1.0" encoding="utf-8"?>
<!-- Generator: Adobe Illustrator 16.0.0, SVG Export Plug-In . SVG Version: 6.00 Build 0)  -->
<!DOCTYPE svg PUBLIC "-//W3C//DTD SVG 1.1//EN" "http://www.w3.org/Graphics/SVG/1.1/DTD/svg11.dtd">
<svg version="1.1" id="图层_1" xmlns="http://www.w3.org/2000/svg" xmlns:xlink="http://www.w3.org/1999/xlink" x="0px" y="0px"
	 width="512px" height="512px" viewBox="0 0 512 512" enable-background="new 0 0 512 512" xml:space="preserve">
<g>
	<path fill="#38C4F5" d="M498.933,101.447c-10.907-62.718-25.956-77.665-89.48-88.775c-40.5-7.07-97.563-11.109-156.645-11.109
		c-58.578,0-112.812,3.838-152.503,10.705C37.587,23.176,22.74,38.224,11.631,101.75c-14.745,84.129-14.947,225.623-0.505,309.045
		c10.806,62.718,25.855,77.666,89.38,88.775c40.6,7.069,97.764,11.108,157.048,11.108c58.375,0,112.509-3.736,152.302-10.604
		c62.718-10.908,77.563-25.956,88.674-89.482C513.173,326.464,513.375,184.869,498.933,101.447 M483.178,407.866
		c-9.999,56.962-19.896,67.061-76.049,76.757c-38.884,6.665-92.007,10.402-149.574,10.402c-58.375,0-114.63-3.939-154.321-10.908
		c-57.063-9.999-67.061-19.997-76.757-76.049C12.338,326.162,12.54,186.99,26.982,104.275c10.099-56.86,19.997-66.859,76.049-76.555
		c38.984-6.766,92.108-10.503,149.877-10.503c58.072,0,114.225,3.939,153.917,10.807c56.962,9.999,67.061,19.896,76.757,76.049
		C497.822,186.081,497.62,325.151,483.178,407.866"/>
	<path fill="#38C4F5" d="M389.555,351.915c-8.585-8.585-22.319-8.585-30.904,0s-8.585,22.32,0,30.905l38.378,38.378
		c8.585,8.585,22.319,8.585,30.904,0s8.585-22.32,0-30.905L389.555,351.915z"/>
	<path fill="#38C4F5" d="M385.311,298.287c6.769-18.079,10.304-36.763,10.304-55.447c0-18.684-3.637-37.368-10.705-54.941
		c-7.069-17.573-17.876-34.137-32.116-48.377c-14.24-14.24-30.703-24.946-48.377-32.116c-17.573-7.07-36.257-10.705-54.941-10.705
		h-0.202c-1.111,0-2.121,0.202-3.131,0.404c-2.323,0.606-4.343,1.919-5.858,3.737c-0.101,0.202-0.303,0.404-0.404,0.505
		c-1.414,1.919-2.323,4.141-2.424,6.767c0.101,0.808,0.101,1.616,0.202,2.424c0.808,4.545,4.242,8.282,8.786,9.493
		c0.909,0.202,1.919,0.404,2.929,0.404h0.202c15.653,0,31.309,3.03,46.054,8.989c14.745,5.958,28.481,14.947,40.499,26.965
		c12.019,12.018,20.906,25.754,26.965,40.499c5.958,14.745,8.989,30.4,8.989,46.054s-3.03,31.309-8.989,46.054
		c-2.626,6.262-5.555,12.321-9.292,18.28c0.102-2.425,0-4.849-0.101-7.271c-0.404-5.353-1.313-10.705-2.626-15.654
		c-0.202-0.808-0.505-1.615-0.707-2.424c-0.102-0.403-0.202-0.707-0.303-1.11c-0.304-0.909-0.606-1.818-0.909-2.728
		c-0.102-0.404-0.304-0.707-0.404-1.01c-0.202-0.606-0.505-1.212-0.707-1.818c-0.202-0.605-0.505-1.212-0.808-1.817
		c-0.202-0.505-0.404-1.011-0.707-1.516c-0.202-0.403-0.404-0.808-0.505-1.11c-0.304-0.606-0.606-1.212-0.909-1.818
		c-0.202-0.404-0.404-0.707-0.606-1.111c-0.303-0.605-0.707-1.212-1.01-1.817c-0.202-0.304-0.404-0.707-0.606-1.011
		c-0.403-0.605-0.707-1.212-1.11-1.817c-0.202-0.303-0.404-0.606-0.606-0.909c-0.403-0.606-0.808-1.313-1.313-1.919
		c-0.304-0.404-0.505-0.808-0.809-1.212l-0.101-0.102c0,0,0-0.101-0.102-0.101c-0.605-0.808-1.11-1.515-1.717-2.323l-0.101-0.101
		c-0.606-0.707-1.111-1.414-1.717-2.121l-0.102-0.101c-0.202-0.303-0.505-0.606-0.808-0.909c-0.303-0.404-0.707-0.808-1.01-1.212
		c-2.223-2.525-4.546-4.747-7.07-6.868c-0.808-0.707-1.616-1.414-2.424-2.02c-0.102-0.101-0.202-0.202-0.304-0.303
		c-0.707-0.606-1.515-1.111-2.222-1.717c-0.202-0.101-0.303-0.202-0.505-0.404c-0.707-0.505-1.414-1.01-2.222-1.515
		c-0.202-0.101-0.404-0.303-0.606-0.404c-0.707-0.505-1.414-0.909-2.121-1.414c-0.202-0.101-0.403-0.303-0.605-0.404
		c-0.707-0.404-1.414-0.808-2.223-1.313c-0.201-0.101-0.403-0.202-0.707-0.404c-0.808-0.404-1.515-0.808-2.322-1.212
		c-0.202-0.101-0.404-0.202-0.606-0.303c-0.808-0.404-1.616-0.808-2.525-1.212c-0.201-0.101-0.303-0.101-0.505-0.202
		c-1.01-0.404-1.919-0.808-2.929-1.212h0.505c-5.15-2.121-10.604-3.636-16.26-4.444c-0.707-0.101-1.414-0.202-2.121-0.303h-0.202
		c-5.05-0.707-10.302-0.909-15.553-0.505c-2.728,0.202-5.252,0.505-7.877,0.909c-0.303,0-0.606,0.101-0.909,0.101
		c-0.202,0-0.303,0.101-0.505,0.101c-4.646,0.909-9.292,2.222-13.836,3.939c-0.202,0.101-0.404,0.202-0.606,0.303
		c-0.303,0.101-0.606,0.202-0.909,0.404c-0.404,0.101-0.707,0.303-1.111,0.505c-0.505,0.202-0.909,0.303-1.414,0.505
		c-2.121,0.707-4.141,1.414-6.363,1.919c-0.505,0.101-1.111,0.202-1.616,0.303c-0.101,0-0.303,0.101-0.404,0.101
		c-0.404,0.101-0.808,0.202-1.313,0.202c-0.303,0-0.505,0.101-0.808,0.101c-0.303,0-0.606,0.101-0.909,0.101
		c-0.404,0.101-0.808,0.101-1.212,0.101c-0.202,0-0.303,0-0.505,0.101h-0.404c-0.202,0-0.505,0-0.707,0.101
		c-0.404,0-0.909,0.101-1.313,0.101c-0.606,0-1.212,0.101-1.818,0.101h-1.111h-1.717h-0.909c-0.707,0-1.515-0.101-2.222-0.101
		c-0.202,0-0.505,0-0.707-0.101c-0.606-0.101-1.313-0.101-1.919-0.202c-0.202,0-0.404,0-0.505-0.101
		c-0.505-0.101-1.01-0.202-1.414-0.202h-0.202c-0.303,0-0.505-0.101-0.808-0.101c-0.202,0-0.404-0.101-0.606-0.101
		c-0.303-0.101-0.606-0.101-0.909-0.202c-0.101,0-0.202,0-0.303-0.101c-0.303-0.101-0.505-0.101-0.808-0.202
		c-0.101,0-0.303-0.101-0.404-0.101c-0.303-0.101-0.707-0.202-1.01-0.303h-0.202c-0.707-0.202-1.515-0.404-2.222-0.606
		c-0.101,0-0.101,0-0.202-0.101c-0.808-0.202-1.515-0.505-2.323-0.808h-0.101c-2.323-0.909-4.545-1.919-6.767-3.03
		c-0.101,0-0.101-0.101-0.202-0.101c-0.606-0.303-1.313-0.707-1.919-1.111c-0.101-0.101-0.303-0.202-0.404-0.202
		c-0.505-0.303-1.111-0.606-1.616-1.01c-0.202-0.101-0.303-0.202-0.505-0.303c-0.505-0.303-1.01-0.707-1.515-1.01
		c-0.202-0.101-0.303-0.202-0.505-0.404c-0.505-0.303-1.01-0.707-1.414-1.111c-0.202-0.101-0.303-0.202-0.505-0.404
		c-0.505-0.404-1.01-0.808-1.515-1.313c-0.101-0.101-0.202-0.202-0.303-0.202c-1.212-1.01-2.424-2.121-3.535-3.333
		c-0.101-0.101-0.202-0.202-0.303-0.303c-0.404-0.505-0.909-0.909-1.313-1.414c-0.202-0.202-0.303-0.404-0.505-0.505
		c-0.404-0.404-0.707-0.808-1.111-1.212c-0.202-0.202-0.404-0.404-0.505-0.606c-0.303-0.404-0.606-0.808-0.909-1.212
		c-0.202-0.202-0.404-0.505-0.505-0.707c-0.303-0.404-0.606-0.808-0.909-1.212c-0.202-0.202-0.303-0.505-0.505-0.707
		c-0.303-0.404-0.606-0.909-0.808-1.313c-0.101-0.202-0.303-0.505-0.404-0.707c-0.303-0.505-0.606-1.01-0.909-1.515
		c-0.101-0.202-0.202-0.303-0.303-0.505c-0.404-0.707-0.707-1.414-1.111-2.121c-0.101-0.202-0.202-0.505-0.404-0.808
		c-0.202-0.505-0.404-0.909-0.707-1.414c-0.101-0.303-0.303-0.707-0.404-1.01c-0.202-0.404-0.303-0.808-0.505-1.212
		c-0.101-0.404-0.303-0.707-0.404-1.111c-0.101-0.404-0.303-0.707-0.404-1.111c-0.101-0.404-0.303-0.808-0.404-1.212
		c-0.101-0.303-0.202-0.707-0.303-1.01c-0.101-0.404-0.303-0.909-0.404-1.313c-0.101-0.303-0.202-0.606-0.303-0.909
		c-0.101-0.505-0.202-0.909-0.404-1.414c-0.101-0.202-0.101-0.505-0.202-0.707c-0.606-2.828-1.01-5.555-1.212-8.483
		c-1.414-21.31,9.493-40.701,26.662-51.104c2.828-1.414,5.555-2.626,8.383-3.838c4.242-1.717,7.373-5.958,7.373-10.908
		c0-3.434-1.414-6.363-3.737-8.483c-0.303-0.202-0.606-0.505-0.909-0.707c-1.111-0.909-2.424-1.616-3.838-2.02
		c-1.111-0.303-2.323-0.505-3.535-0.505c-1.111,0-2.121,0.202-3.131,0.404c-0.505,0.101-0.909,0.303-1.414,0.505
		c-0.101,0-0.101,0.101-0.202,0.101s-0.101,0-0.202,0.101c-17.472,7.07-33.834,17.775-47.973,31.915
		c-14.24,14.24-24.946,30.703-32.116,48.377c-7.07,17.573-10.705,36.257-10.705,54.941s3.636,37.368,10.705,54.941
		c7.07,17.573,17.876,34.137,32.116,48.377c14.24,14.24,30.703,24.946,48.377,32.116c17.573,7.07,36.257,10.705,54.941,10.705
		c1.01,0,2.02-0.202,2.929-0.404c4.949-1.414,8.687-5.857,8.687-11.412c0-3.434-1.414-6.362-3.737-8.482
		c-0.303-0.202-0.606-0.505-0.909-0.707c-1.111-0.909-2.424-1.616-3.838-2.021c-1.111-0.303-2.323-0.505-3.535-0.505h-0.808
		c-15.352-0.101-30.602-3.131-45.044-8.989c-14.745-5.958-28.481-14.946-40.499-26.966c-11.917-11.917-20.906-25.754-26.965-40.499
		c-5.958-14.745-8.989-30.399-8.989-46.054c0-15.654,3.03-31.309,8.989-46.054c2.525-6.262,5.555-12.321,9.292-18.179v0.202v1.212
		v2.929v1.212c0,0.606,0.101,1.212,0.101,1.818c0.101,1.414,0.202,2.727,0.404,3.939v0.101c0.101,0.606,0.101,1.111,0.202,1.717
		v0.101c0,0.303,0.101,0.606,0.101,0.909c0,0.202,0.101,0.505,0.101,0.707v0.303c0.101,0.505,0.202,0.909,0.202,1.414
		c0,0.202,0.101,0.303,0.101,0.505s0.101,0.303,0.101,0.505c0.101,0.303,0.101,0.505,0.202,0.808c0,0.202,0.101,0.303,0.101,0.505
		c0.101,0.505,0.202,0.909,0.303,1.414v0.101c0.101,0.606,0.303,1.313,0.505,1.919c0,0.101,0.101,0.303,0.101,0.404v0.101
		c0,0.101,0,0.101,0.101,0.202c0.202,0.808,0.505,1.616,0.707,2.424c0.101,0.404,0.202,0.707,0.303,1.111
		c0.303,0.909,0.606,1.818,0.909,2.727c0.101,0.404,0.303,0.707,0.404,1.01c0.202,0.606,0.505,1.212,0.707,1.818
		c0.202,0.606,0.505,1.212,0.808,1.717c0.202,0.505,0.404,1.01,0.707,1.515c0.202,0.404,0.404,0.808,0.505,1.111
		c0.303,0.606,0.606,1.212,0.909,1.818c0.202,0.404,0.404,0.707,0.606,1.111c0.303,0.606,0.707,1.212,1.01,1.818
		c0.202,0.303,0.404,0.707,0.606,1.01c0.404,0.606,0.707,1.212,1.111,1.818c0.202,0.303,0.404,0.606,0.606,0.909
		c0.404,0.606,0.808,1.313,1.313,1.919c0.303,0.404,0.505,0.808,0.808,1.212l0.101,0.101l0.101,0.101
		c0.606,0.808,1.111,1.515,1.717,2.323l0.101,0.101c0.606,0.707,1.111,1.414,1.717,2.121l0.101,0.101
		c0.303,0.303,0.505,0.606,0.808,0.909c0.303,0.404,0.707,0.808,1.01,1.111c2.222,2.525,4.545,4.747,7.07,6.969
		c0.808,0.707,1.616,1.414,2.525,2.02c0.101,0.101,0.202,0.202,0.303,0.303c0.707,0.606,1.515,1.111,2.222,1.717
		c0.202,0.101,0.303,0.202,0.505,0.404c0.707,0.505,1.414,1.01,2.222,1.515c0.202,0.101,0.404,0.303,0.606,0.404
		c0.707,0.505,1.414,0.909,2.121,1.414c0.202,0.101,0.404,0.303,0.606,0.404c0.707,0.404,1.414,0.808,2.222,1.313
		c0.202,0.101,0.404,0.202,0.707,0.404c0.808,0.404,1.515,0.808,2.323,1.212c0.202,0.101,0.404,0.202,0.606,0.303
		c0.808,0.404,1.616,0.808,2.525,1.212c0.202,0.101,0.303,0.101,0.505,0.202c1.01,0.404,1.919,0.808,2.929,1.212h0.101
		c5.151,2.021,10.605,3.637,16.26,4.444c0.707,0.101,1.414,0.202,2.121,0.303h0.202c5.05,0.707,10.302,0.909,15.553,0.505
		c2.727-0.202,5.252-0.505,7.877-0.909c0.303,0,0.606-0.101,0.909-0.101c0.202,0,0.303-0.101,0.404-0.101
		c4.646-0.909,9.292-2.222,13.836-3.939c0.202-0.101,0.404-0.202,0.606-0.303c0.303-0.101,0.606-0.202,0.909-0.404
		c0.404-0.101,0.707-0.303,1.111-0.505c0.505-0.202,0.909-0.303,1.414-0.505c2.121-0.707,4.141-1.414,6.363-1.919
		c0.505-0.101,1.11-0.202,1.615-0.303c0.102,0,0.304-0.101,0.404-0.101c0.404-0.101,0.809-0.202,1.313-0.202
		c0.303,0,0.505-0.101,0.808-0.101s0.606-0.101,0.909-0.101c0.404-0.101,0.808-0.101,1.313-0.101c0.202,0,0.304,0,0.505-0.101h0.404
		c0.202,0,0.505,0,0.707-0.101c0.404,0,0.909-0.101,1.313-0.101c0.605,0,1.212-0.101,1.817-0.101h1.111h1.717h0.909
		c0.707,0,1.515,0.101,2.222,0.101c0.202,0,0.505,0,0.707,0.101c0.606,0.101,1.313,0.101,1.919,0.202c0.202,0,0.404,0,0.505,0.101
		c0.506,0.101,1.011,0.202,1.414,0.202h0.202c0.304,0,0.505,0.101,0.809,0.101c0.202,0,0.403,0.101,0.605,0.101
		c0.303,0.101,0.606,0.101,0.909,0.202c0.101,0,0.202,0,0.303,0.101c0.304,0.101,0.505,0.101,0.809,0.202
		c0.101,0,0.303,0.101,0.403,0.101c0.304,0.101,0.707,0.202,1.011,0.303h0.201c0.707,0.202,1.516,0.404,2.223,0.606
		c0.101,0,0.101,0,0.202,0.101c0.808,0.202,1.515,0.505,2.322,0.808c2.323,0.909,4.545,1.919,6.768,3.03
		c0.101,0,0.101,0.101,0.202,0.101c0.605,0.303,1.313,0.707,1.919,1.111c0.101,0.102,0.303,0.202,0.403,0.202
		c0.506,0.303,1.111,0.606,1.616,1.01c0.202,0.102,0.303,0.202,0.505,0.303c0.505,0.304,1.011,0.707,1.516,1.011
		c0.201,0.101,0.303,0.202,0.505,0.403c0.505,0.404,1.01,0.707,1.515,1.111c0.202,0.101,0.303,0.202,0.505,0.303
		c0.505,0.404,1.011,0.809,1.516,1.313c0.101,0.101,0.201,0.202,0.303,0.202c1.212,1.01,2.424,2.121,3.535,3.333l0.303,0.303
		c0.404,0.505,0.909,0.909,1.313,1.414c0.201,0.202,0.303,0.404,0.505,0.505c0.403,0.404,0.707,0.808,1.11,1.212
		c0.202,0.202,0.404,0.404,0.505,0.606c0.304,0.403,0.606,0.808,0.909,1.212c0.202,0.202,0.404,0.505,0.505,0.707
		c0.304,0.403,0.606,0.808,0.909,1.212c0.202,0.202,0.303,0.505,0.505,0.707c0.304,0.403,0.606,0.909,0.809,1.313
		c0.101,0.202,0.303,0.505,0.403,0.707c0.304,0.505,0.606,1.01,0.909,1.516c0.102,0.201,0.202,0.303,0.303,0.505
		c0.404,0.707,0.707,1.414,1.111,2.121c0.102,0.201,0.202,0.505,0.404,0.808c0.202,0.505,0.404,0.909,0.707,1.414
		c0.202,0.303,0.303,0.707,0.403,1.01c0.202,0.404,0.304,0.809,0.506,1.212c0.101,0.404,0.303,0.707,0.403,1.111
		c0.102,0.404,0.304,0.707,0.404,1.111c0.101,0.403,0.303,0.808,0.404,1.212c0.101,0.303,0.202,0.707,0.303,1.01
		c0.101,0.404,0.303,0.909,0.404,1.313c0.101,0.304,0.202,0.606,0.303,0.909c0.101,0.505,0.202,0.909,0.404,1.414
		c0.101,0.202,0.101,0.505,0.201,0.707c0.606,2.828,1.011,5.555,1.213,8.483c1.413,21.31-9.493,40.701-26.663,51.104
		c-2.828,1.414-5.556,2.626-8.384,3.838c-1.817,0.707-3.434,1.818-4.545,3.333c-0.101,0.202-0.303,0.404-0.403,0.505
		c-1.414,1.92-2.323,4.142-2.424,6.768c0.101,0.808,0.101,1.616,0.201,2.424c0.809,4.545,4.242,8.282,8.786,9.493
		c0.909,0.202,1.919,0.404,2.93,0.404c1.11,0,2.12-0.202,3.131-0.404c0.505-0.102,0.908-0.303,1.414-0.505
		c17.572-7.07,34.137-17.876,48.377-32.116C367.434,332.426,378.141,315.961,385.311,298.287"/>
</g>
</svg>
