<?xml version="1.0" encoding="utf-8"?>
<!-- Generator: Adobe Illustrator 16.0.0, SVG Export Plug-In . SVG Version: 6.00 Build 0)  -->
<!DOCTYPE svg PUBLIC "-//W3C//DTD SVG 1.1//EN" "http://www.w3.org/Graphics/SVG/1.1/DTD/svg11.dtd">
<svg version="1.1"
	 id="图层_1" xmlns:dc="http://purl.org/dc/elements/1.1/" xmlns:cc="http://creativecommons.org/ns#" xmlns:rdf="http://www.w3.org/1999/02/22-rdf-syntax-ns#"
	 xmlns="http://www.w3.org/2000/svg" xmlns:xlink="http://www.w3.org/1999/xlink" x="0px" y="0px" width="75px" height="75px"
	 viewBox="0 0 75 75" enable-background="new 0 0 75 75" xml:space="preserve">
<path fill="#00BCF2" d="M0.006,37.495V0H37.5h37.494v16.944v16.943L74.13,32.93c-3.103-3.439-7.938-6.43-12.737-7.879
	c-4.412-1.333-9.562-1.542-14.133-0.575c-11.009,2.333-19.744,10.94-22.162,21.843c-1.99,8.979,0.323,18.143,6.351,25.143
	c1.756,2.041,3.163,3.292,3.596,3.193c0.178-0.038,1.481-0.517,2.897-1.056c3.146-1.207,15.334-5.722,22.716-8.421
	c4.551-1.664,5.614-1.998,6.492-2.061c0.906-0.065,1.13-0.03,1.654,0.265c1.209,0.682,1.623,2.069,1.011,3.399
	c-0.365,0.798-1.123,1.544-7.047,6.927L61.349,75l-1.357-0.044l-1.353-0.041l4.633-4.233c2.646-2.417,4.708-4.413,4.812-4.656
	c0.132-0.325,0.132-0.494,0-0.749c-0.376-0.693-0.508-0.65-20.316,6.68l-8.187,3.032H19.795H0.006V37.495L0.006,37.495z
	 M51.442,64.113c-4.488-0.823-7.952-3.803-9.327-8.018c-0.287-0.883-0.399-1.602-0.458-2.875c-0.104-2.283,0.181-3.702,1.132-5.655
	c1.468-3.013,3.928-5.096,7.212-6.114c0.924-0.289,1.428-0.345,3.16-0.35c2.303-0.01,3.324,0.224,5.292,1.19
	c2.854,1.408,5.142,4.273,5.971,7.482c0.381,1.485,0.416,3.971,0.079,5.398c-1.228,5.172-5.619,8.8-10.9,9.009
	C52.793,64.216,51.823,64.182,51.442,64.113L51.442,64.113z M55.113,61.965c2.843-0.58,5.355-2.521,6.625-5.13
	c0.662-1.359,0.943-2.604,0.945-4.194c0.004-2.714-0.851-4.788-2.758-6.696c-3.024-3.026-7.277-3.715-11.101-1.802
	c-2.407,1.202-4.264,3.56-4.945,6.29c-0.319,1.282-0.216,3.813,0.216,5.148C45.58,60.189,50.331,62.94,55.113,61.965z
	 M52.666,60.348c-0.242-0.101-0.55-0.396-0.684-0.655c-0.697-1.342,1.064-2.556,2.144-1.477c0.542,0.54,0.566,1.154,0.064,1.748
	C53.755,60.48,53.271,60.601,52.666,60.348z M48.275,58.551c-0.391-0.058-1.067-0.828-1.067-1.21c0-0.714,0.714-1.466,1.396-1.466
	c0.45,0,1.068,0.436,1.215,0.855C50.186,57.782,49.386,58.728,48.275,58.551z M57.242,58.442c-0.908-0.38-1.077-1.551-0.323-2.188
	c0.616-0.515,1.219-0.499,1.765,0.052C59.746,57.364,58.622,59.024,57.242,58.442L57.242,58.442z M51.849,56.175
	c-2.549-1.025-3.242-4.317-1.319-6.239c0.962-0.962,2.635-1.367,3.832-0.925c2.634,0.971,3.45,4.318,1.524,6.244
	C54.793,56.349,53.187,56.713,51.849,56.175z M45.992,53.806c-0.314-0.187-0.701-0.901-0.701-1.303c0-0.497,0.746-1.204,1.281-1.219
	c0.897-0.024,1.644,0.813,1.445,1.618C47.803,53.758,46.73,54.232,45.992,53.806z M58.766,53.574
	c-0.524-0.525-0.536-1.385-0.025-1.895c0.81-0.81,2.284-0.216,2.284,0.917c0,0.363-0.118,0.629-0.429,0.937
	C60.029,54.104,59.312,54.119,58.766,53.574L58.766,53.574z M47.984,49.259c-0.33-0.135-0.776-0.845-0.776-1.235
	c0-1.093,1.479-1.723,2.28-0.971C50.606,48.106,49.426,49.835,47.984,49.259z M56.899,48.977c-0.892-0.896-0.359-2.221,0.893-2.221
	c0.797,0,1.323,0.501,1.323,1.259c0,0.7-0.655,1.393-1.323,1.393C57.476,49.407,57.192,49.27,56.899,48.977L56.899,48.977z
	 M52.562,47.324c-0.172-0.081-0.423-0.344-0.563-0.583c-0.647-1.094,0.567-2.372,1.728-1.824c0.914,0.436,1.088,1.415,0.38,2.122
	C53.631,47.514,53.133,47.604,52.562,47.324z"/>
</svg>
