<?xml version="1.0" encoding="utf-8"?>
<!-- Generator: Adobe Illustrator 16.0.0, SVG Export Plug-In . SVG Version: 6.00 Build 0)  -->
<!DOCTYPE svg PUBLIC "-//W3C//DTD SVG 1.1//EN" "http://www.w3.org/Graphics/SVG/1.1/DTD/svg11.dtd">
<svg version="1.1"
	 id="图层_1" xmlns:dc="http://purl.org/dc/elements/1.1/" xmlns:cc="http://creativecommons.org/ns#" xmlns:rdf="http://www.w3.org/1999/02/22-rdf-syntax-ns#"
	 xmlns="http://www.w3.org/2000/svg" xmlns:xlink="http://www.w3.org/1999/xlink" x="0px" y="0px" width="75px" height="75px"
	 viewBox="0 0 75 75" enable-background="new 0 0 75 75" xml:space="preserve">
<path fill="#00BCF2" d="M49.063,0C34.842,0,23.314,11.528,23.314,25.748c0.104,6.648,0.366,25.478,0.366,25.478
	s18.203-0.059,25.382,0.273c14.22,0,25.75-11.53,25.75-25.751C74.813,11.528,63.282,0,49.063,0L49.063,0z M22.025,28.921
	c-1.437,0.092-2.862,0.316-4.258,0.669v3.543h4.258V28.921L22.025,28.921z M16.133,30.069c-1.479,0.486-2.905,1.123-4.258,1.895
	v1.169h4.258V30.069z M7.908,34.82c-0.782,0.688-1.517,1.429-2.198,2.217v2.046h4.262V34.82H7.908L7.908,34.82z M11.875,34.82v4.263
	h4.258V34.82H11.875z M3.177,40.665c-0.769,1.354-1.399,2.78-1.883,4.259h2.751v-4.259H3.177L3.177,40.665z M11.875,40.665v4.259
	h4.258v-4.259H11.875z M17.768,40.665v4.259h4.258v-4.259H17.768z M0.821,46.62c-0.343,1.398-0.555,2.825-0.634,4.263h3.857V46.62
	H0.821L0.821,46.62z M5.711,46.62v4.263h4.261V46.62H5.711z M11.875,46.62v4.263h4.259V46.62H11.875z M17.768,46.62v4.263h4.258
	V46.62H17.768z M5.71,52.785v4.262h4.261v-4.262H5.71z M17.768,52.785v4.262h4.258v-4.262H17.768z M23.951,52.785v4.262h4.259
	v-4.262H23.951z M29.862,52.785v4.262h4.259v-4.262H29.862z M35.736,52.785v4.262h4.258v-4.262H35.736z M41.786,52.785v4.262h4.261
	v-4.262H41.786z M1.114,58.794c0.438,1.474,1.021,2.902,1.74,4.261h1.191v-4.261H1.114L1.114,58.794z M5.711,58.794v4.261h4.262
	v-4.261H5.711z M11.876,58.794v4.261h4.259v-4.261H11.876z M17.768,58.794v4.261h4.259v-4.261H17.768z M23.952,58.794v4.261h4.258
	v-4.261H23.952z M35.736,58.794v4.261h4.258v-4.261H35.736z M41.786,58.794v4.261h2.176c0.72-1.358,1.305-2.787,1.742-4.261H41.786z
	 M5.711,64.984v2.255c0.602,0.705,1.244,1.374,1.925,2.003h2.337v-4.258H5.711z M11.876,64.984v4.258h4.259v-4.258H11.876z
	 M23.952,64.984v4.258h4.258v-4.258H23.952z M29.862,64.984v4.258h4.259v-4.258H29.862z M35.736,64.984v4.258h3.446
	c0.277-0.256,0.547-0.518,0.812-0.787v-3.471H35.736L35.736,64.984z M11.876,70.737v1.622c1.353,0.771,2.779,1.404,4.258,1.892
	v-3.514H11.876z M17.768,70.737v3.974c0.404,0.107,0.811,0.203,1.22,0.289h3.038v-4.263H17.768L17.768,70.737z M23.952,70.737V75
	h3.831c0.143-0.03,0.285-0.062,0.427-0.094v-4.169H23.952L23.952,70.737z M29.862,70.737v3.773c1.472-0.425,2.898-0.995,4.259-1.7
	v-2.073H29.862z"/>
</svg>
