<?xml version="1.0" encoding="utf-8"?>
<!-- Generator: Adobe Illustrator 16.0.0, SVG Export Plug-In . SVG Version: 6.00 Build 0)  -->
<!DOCTYPE svg PUBLIC "-//W3C//DTD SVG 1.1//EN" "http://www.w3.org/Graphics/SVG/1.1/DTD/svg11.dtd">
<svg version="1.1"
	 id="svg2" xmlns:dc="http://purl.org/dc/elements/1.1/" xmlns:cc="http://creativecommons.org/ns#" xmlns:rdf="http://www.w3.org/1999/02/22-rdf-syntax-ns#" xmlns:svg="http://www.w3.org/2000/svg"
	 xmlns="http://www.w3.org/2000/svg" xmlns:xlink="http://www.w3.org/1999/xlink" x="0px" y="0px" width="80px" height="70px"
	 viewBox="0 0 80 70" enable-background="new 0 0 80 70" xml:space="preserve">
<g id="g12" transform="scale(0.1,0.1)">
	<path id="path22" fill="#026C9B" d="M789.998,158.535v379.99L600.447,690H206.858L9.998,538.525v-379.99"/>
	<path id="path24" fill="none" stroke="#FFFFFF" stroke-width="4" d="M789.998,158.535v379.99L600.447,690H206.858L9.998,538.525
		v-379.99"/>
	<path id="path26" fill="#026C9B" d="M596.697,10H210.618L9.998,158.535L206.858,310h393.589l189.551-151.465L596.697,10"/>
	<path id="path28" fill="none" stroke="#FFFFFF" stroke-width="4" d="M596.697,10H210.618L9.998,158.535L206.858,310h393.589
		l189.551-151.465L596.697,10z"/>
	<path id="path30" fill="none" stroke="#FFFFFF" stroke-width="3.85" d="M203.435,687.304V310"/>
	<path id="path32" fill="none" stroke="#FFFFFF" stroke-width="3.85" d="M599.685,687.304V310"/>
	<path id="path34" fill="none" stroke="#FFFFFF" stroke-width="5.775" stroke-miterlimit="1" d="M405.281,47.744v219.219"/>
	<path id="path36" fill="none" stroke="#FFFFFF" stroke-width="5.775" stroke-miterlimit="1" d="M611.902,157.344H209.294"/>
	<path id="path38" fill="none" stroke="#FFFFFF" stroke-width="5.775" stroke-miterlimit="1" d="M209.294,58.74h98.076
		l206.797,208.223h86.963"/>
	<path id="path40" fill="none" stroke="#FFFFFF" stroke-width="5.775" stroke-miterlimit="1" d="M601.13,58.74h-86.963
		L307.371,266.963h-98.076"/>
	<path id="path42" fill="none" stroke="#FFFFFF" stroke-width="5.775" stroke-miterlimit="1" d="M611.902,157.344H209.294"/>
	<path id="path44" fill="none" stroke="#FFFFFF" stroke-width="5.775" stroke-miterlimit="1" d="M209.294,58.74h98.076
		l206.797,208.223h86.963"/>
	<path id="path46" fill="none" stroke="#FFFFFF" stroke-width="5.775" stroke-miterlimit="1" d="M601.13,58.74h-86.963
		L307.371,266.963h-98.076"/>
	<path id="path48" fill="none" stroke="#FFFFFF" stroke-width="5.775" stroke-miterlimit="1" d="M405.281,47.744v230.215"/>
	<path id="path50" fill="none" stroke="#FFFFFF" stroke-width="5.775" stroke-miterlimit="1" d="M405.281,47.744v219.219"/>
	<path id="path52" fill="none" stroke="#FFFFFF" stroke-width="5.775" stroke-miterlimit="1" d="M611.902,157.344H209.294"/>
	<path id="path54" fill="none" stroke="#FFFFFF" stroke-width="5.775" stroke-miterlimit="1" d="M209.294,58.74h98.076
		l206.797,208.223h86.963"/>
	<path id="path56" fill="none" stroke="#FFFFFF" stroke-width="5.775" stroke-miterlimit="1" d="M601.13,58.74h-86.963
		L307.371,266.963h-98.076"/>
	<path id="path58" fill="none" stroke="#FFFFFF" stroke-width="5.775" stroke-miterlimit="1" d="M209.294,58.74h98.076
		l206.797,208.223h86.963"/>
	<path id="path60" fill="none" stroke="#FFFFFF" stroke-width="5.775" stroke-miterlimit="1" d="M601.13,58.74h-86.963
		L307.371,266.963h-98.076"/>
	<path id="path62" fill="none" stroke="#FFFFFF" stroke-width="5.775" stroke-miterlimit="1" d="M611.902,157.344H209.294"/>
	<path id="path64" fill="none" stroke="#FFFFFF" stroke-width="5.775" stroke-miterlimit="1" d="M209.294,58.74h98.076
		l206.797,208.223h86.963"/>
	<path id="path66" fill="none" stroke="#FFFFFF" stroke-width="5.775" stroke-miterlimit="1" d="M601.13,58.74h-86.963
		L307.371,266.963h-98.076"/>
	<path id="path68" fill="none" stroke="#FFFFFF" stroke-width="5.775" stroke-miterlimit="1" d="M209.294,58.74h98.076
		l206.797,208.223h86.963"/>
	<path id="path70" fill="none" stroke="#FFFFFF" stroke-width="5.775" stroke-miterlimit="1" d="M601.13,58.74h-86.963
		L307.371,266.963h-98.076"/>
	<path id="path72" fill="none" stroke="#FFFFFF" stroke-width="5.775" stroke-miterlimit="1" d="M405.281,47.744v230.215"/>
	<path id="path74" fill="#FFFFFF" d="M355.818,529.463h78.389V461.26h-78.389V529.463z"/>
	<path id="path76" fill="none" stroke="#FFFFFF" stroke-width="10" d="M518.826,489.433h-104.18"/>
	<path id="path78" fill="#FFFFFF" d="M573.513,490.537l-95.85,38.994l22.773-38.994l-22.773-39.287L573.513,490.537"/>
	<path id="path80" fill="none" stroke="#FFFFFF" stroke-width="10" d="M278.171,489.433h85.918"/>
	<path id="path82" fill="#FFFFFF" d="M317.761,448.974l-22.793,39.297l22.793,38.994l-95.688-38.994L317.761,448.974"/>
	<path id="path84" fill="none" stroke="#FFFFFF" stroke-width="10" d="M395.398,384.101v97.529"/>
	<path id="path86" fill="#FFFFFF" d="M396.091,330.605l38.994,95.605l-38.994-22.441l-39.15,22.441L396.091,330.605"/>
	<path id="path88" fill="none" stroke="#FFFFFF" stroke-width="10" d="M395.398,614.228v-95.996"/>
	<path id="path90" fill="#FFFFFF" d="M356.179,573.857l39.16,22.773l39.004-22.773l-39.004,95.801L356.179,573.857"/>
</g>
</svg>
