<?xml version="1.0" encoding="utf-8"?>
<!-- Generator: Adobe Illustrator 16.0.0, SVG Export Plug-In . SVG Version: 6.00 Build 0)  -->
<!DOCTYPE svg PUBLIC "-//W3C//DTD SVG 1.1//EN" "http://www.w3.org/Graphics/SVG/1.1/DTD/svg11.dtd">
<svg version="1.1"
	 id="svg2" xmlns:dc="http://purl.org/dc/elements/1.1/" xmlns:cc="http://creativecommons.org/ns#" xmlns:rdf="http://www.w3.org/1999/02/22-rdf-syntax-ns#" xmlns:svg="http://www.w3.org/2000/svg"
	 xmlns="http://www.w3.org/2000/svg" xmlns:xlink="http://www.w3.org/1999/xlink" x="0px" y="0px" width="75px" height="75px"
	 viewBox="0 0 75 75" enable-background="new 0 0 75 75" xml:space="preserve">
<g id="g12" transform="scale(0.1,0.1)">
	<path id="path22" fill="#026C9B" d="M750,143.643c0,80.029-167.783,144.824-375.01,144.824C167.91,288.467,0,223.672,0,143.643
		v461.533C0,685.351,167.91,750,374.99,750C582.217,750,750,685.351,750,605.176V143.643"/>
	<path id="path24" fill="none" stroke="#FFFFFF" stroke-width="4" d="M750,143.643c0,80.029-167.783,144.824-375.01,144.824
		C167.91,288.467,0,223.672,0,143.643v461.533C0,685.351,167.91,750,374.99,750C582.217,750,750,685.351,750,605.176V143.643z"/>
	<path id="path26" fill="#026C9B" d="M375.02,289.043c206.816,0,374.746-64.624,374.746-144.453C749.766,64.756,581.836,0,375.02,0
		C168.213,0,0.42,64.78,0.42,144.59C0.42,224.419,168.213,289.043,375.02,289.043"/>
	<path id="path28" fill="none" stroke="#FFFFFF" stroke-width="4" d="M375.02,289.043c206.816,0,374.746-64.624,374.746-144.453
		C749.766,64.756,581.836,0,375.02,0C168.213,0,0.42,64.78,0.42,144.59C0.42,224.419,168.213,289.043,375.02,289.043z"/>
	<path id="path30" fill="#FFFFFF" d="M286.768,58.257l153.74-14.941l-29.57,48.862l-39.346-7.588L141.68,170.718l-41.211-11.128
		l225.127-84.971L286.768,58.257"/>
	<path id="path32" fill="#FFFFFF" d="M464.473,112.354l153.584-14.941l-29.541,48.716l-39.238-7.446l-229.902,86.133l-41.055-11.27
		l225.127-84.971L464.473,112.354"/>
	<path id="path34" fill="#FFFFFF" d="M220.752,697.08v-98.574l-59.746,47.383L220.752,697.08"/>
	<path id="path36" fill="#FFFFFF" d="M508.682,317.969v98.574l59.736-47.393L508.682,317.969"/>
	<path id="path38" fill="#FFFFFF" d="M220.752,419.863v-98.301l-59.746,47.246L220.752,419.863"/>
	<path id="path40" fill="none" stroke="#FFFFFF" stroke-width="14.25" d="M547.031,646.728H444.482l-139.18-278.662H199.229"/>
	<path id="path42" fill="none" stroke="#FFFFFF" stroke-width="14.25" d="M199.766,646.191h99.15l137.959-277.139h107.236"/>
	<path id="path44" fill="#FFFFFF" d="M508.682,596.26v98.291l59.736-47.109L508.682,596.26"/>
</g>
</svg>
