<?xml version="1.0" encoding="utf-8"?>
<!-- Generator: Adobe Illustrator 16.0.0, SVG Export Plug-In . SVG Version: 6.00 Build 0)  -->
<!DOCTYPE svg PUBLIC "-//W3C//DTD SVG 1.1//EN" "http://www.w3.org/Graphics/SVG/1.1/DTD/svg11.dtd">
<svg version="1.1" id="图层_1" xmlns="http://www.w3.org/2000/svg" xmlns:xlink="http://www.w3.org/1999/xlink" x="0px" y="0px"
	 width="512px" height="512px" viewBox="0 0 512 512" enable-background="new 0 0 512 512" xml:space="preserve">
<g>
	<path fill="#C8F280" d="M258.525,509.706h-0.009c-59.002,0-116.024-4.052-156.434-11.121
		c-63.337-11.091-78.335-25.959-89.152-88.42c-14.404-83.149-14.183-224.212,0.48-308.031c11.06-63.299,25.937-78.297,88.405-89.152
		c39.64-6.886,93.615-10.687,151.978-10.687c58.881,0,115.781,4.045,156.091,11.098c63.314,11.083,78.306,25.959,89.152,88.42
		c14.427,83.164,14.229,224.258-0.442,308.092c-11.045,63.313-25.929,78.305-88.404,89.167
		C370.612,505.928,316.743,509.706,258.525,509.706 M253.795,17.894c-57.495,0-110.518,3.717-149.312,10.458
		c-55.88,9.704-65.782,19.713-75.7,76.461c-14.419,82.38-14.633,220.997-0.48,302.699c9.674,55.85,19.683,65.768,76.469,75.715
		c39.564,6.916,95.596,10.877,153.745,10.877h0.009c57.364,0,110.273-3.687,149-10.39c55.895-9.72,65.797-19.729,75.715-76.492
		c14.412-82.402,14.609-221.036,0.441-302.745c-9.72-55.872-19.729-65.782-76.477-75.715
		C367.733,21.855,311.807,17.894,253.795,17.894"/>
	<path fill="#C8F280" d="M300.096,113.535c-66.946,0-123.095,46.178-138.358,108.417c-1.362-0.062-2.73-0.101-4.106-0.101
		c-48.702,0-88.184,39.476-88.191,88.176c0.003,24.35,9.873,46.364,25.831,62.318c15.959,15.962,38.008,25.774,62.361,25.774
		s46.402-9.982,62.361-25.941c13.823-13.825,23.065-32.333,25.295-52.905l-20.199-2.493c-7.256-0.897-9.591-6.402-5.187-12.24
		l39.453-52.288c4.403-5.837,10.34-5.104,13.19,1.627l25.562,60.312c2.853,6.73-0.75,11.505-8.007,10.612l-17.869-2.207
		c-2.714,24.857-13.133,46.752-28.771,64.136c17.36,7.534,36.504,11.733,56.636,11.733c78.683,0,142.464-63.784,142.464-142.465
		C442.56,177.319,378.777,113.535,300.096,113.535"/>
</g>
</svg>
