<?xml version="1.0" encoding="utf-8"?>
<!-- Generator: Adobe Illustrator 16.0.0, SVG Export Plug-In . SVG Version: 6.00 Build 0)  -->
<!DOCTYPE svg PUBLIC "-//W3C//DTD SVG 1.1//EN" "http://www.w3.org/Graphics/SVG/1.1/DTD/svg11.dtd">
<svg version="1.1" id="图层_1" xmlns="http://www.w3.org/2000/svg" xmlns:xlink="http://www.w3.org/1999/xlink" x="0px" y="0px"
	 width="512px" height="512px" viewBox="0 0 512 512" enable-background="new 0 0 512 512" xml:space="preserve">
<g>
	<path fill="#4BECBC" d="M499.037,101.813c-10.847-62.461-25.838-77.337-89.152-88.42c-40.31-7.053-97.21-11.098-156.091-11.098
		c-58.363,0-112.338,3.801-151.978,10.687c-62.468,10.855-77.345,25.853-88.405,89.152c-14.663,83.819-14.884,224.882-0.48,308.031
		c10.817,62.461,25.815,77.329,89.152,88.42c40.409,7.069,97.431,11.121,156.434,11.121h0.009
		c58.218,0,112.087-3.778,151.665-10.634c62.476-10.862,77.359-25.854,88.404-89.167
		C513.266,326.071,513.464,184.977,499.037,101.813 M483.24,407.222c-9.918,56.764-19.82,66.772-75.715,76.492
		c-38.727,6.703-91.636,10.39-149,10.39h-0.009c-58.148,0-114.181-3.961-153.745-10.877c-56.786-9.947-66.795-19.865-76.469-75.715
		c-14.153-81.702-13.939-220.319,0.48-302.699c9.918-56.748,19.82-66.757,75.7-76.461c38.794-6.741,91.817-10.458,149.312-10.458
		c58.012,0,113.938,3.961,153.41,10.868c56.748,9.933,66.757,19.843,76.477,75.715C497.85,186.186,497.652,324.819,483.24,407.222"
		/>
	<path fill="#4BECBC" d="M399.625,236.604c-9.229,0-17.772,2.735-24.787,7.373l-56.667-41.324
		c5.003-9.062,7.845-19.341,7.845-30.248c0-36.339-31.345-65.796-70.016-65.796s-70.019,29.457-70.019,65.796
		c0,10.908,2.844,21.186,7.844,30.248l-56.669,41.324c-7.014-4.638-15.556-7.373-24.787-7.373
		c-23.823,0-43.139,18.152-43.139,40.541c0,22.39,19.316,40.54,43.139,40.54c23.826,0,43.142-18.15,43.142-40.54
		c0-5.051-0.991-9.879-2.783-14.338l56.661-41.323c9.383,7.873,21.033,13.396,33.922,15.611v63.139
		c-25.189,5.415-43.987,26.59-43.987,51.902c0,29.408,25.373,53.255,56.676,53.255c31.297,0,56.673-23.848,56.673-53.255
		c0-25.313-18.796-46.487-43.986-51.902v-63.139c12.885-2.215,24.539-7.738,33.923-15.611l56.66,41.323
		c-1.796,4.458-2.787,9.287-2.787,14.338c0,22.39,19.315,40.54,43.142,40.54c23.827,0,43.143-18.15,43.143-40.54
		C442.769,254.756,423.453,236.604,399.625,236.604"/>
</g>
</svg>
