<?xml version="1.0" encoding="utf-8"?>
<!-- Generator: Adobe Illustrator 16.0.0, SVG Export Plug-In . SVG Version: 6.00 Build 0)  -->
<!DOCTYPE svg PUBLIC "-//W3C//DTD SVG 1.1//EN" "http://www.w3.org/Graphics/SVG/1.1/DTD/svg11.dtd">
<svg version="1.1"
	 id="svg2" xmlns:dc="http://purl.org/dc/elements/1.1/" xmlns:cc="http://creativecommons.org/ns#" xmlns:rdf="http://www.w3.org/1999/02/22-rdf-syntax-ns#" xmlns:svg="http://www.w3.org/2000/svg"
	 xmlns="http://www.w3.org/2000/svg" xmlns:xlink="http://www.w3.org/1999/xlink" x="0px" y="0px" width="77px" height="44px"
	 viewBox="0 0 77 44" enable-background="new 0 0 77 44" xml:space="preserve">
<g id="g12" transform="scale(0.1,0.1)">
	<path id="path22" fill="#02709F" d="M38.982,402.397h693.34V37.485H38.982V402.397z"/>
	<path id="path24" fill="none" stroke="#FFFFFF" stroke-width="3.9999" d="M38.982,402.397h693.34V37.485H38.982V402.397z"/>
	<path id="path26" fill="#02709F" d="M732.322,37.485l37.676-37.48h-770l38.984,37.48H732.322"/>
	<path id="path28" fill="none" stroke="#FFFFFF" stroke-width="3.9999" d="M732.322,37.485l37.676-37.48h-770l38.984,37.48H732.322z
		"/>
	<path id="path30" fill="#02709F" d="M769.998,440.005v-440l-37.676,37.48v364.912L769.998,440.005"/>
	<path id="path32" fill="none" stroke="#FFFFFF" stroke-width="3.9999" d="M769.998,440.005v-440l-37.676,37.48v364.912
		L769.998,440.005z"/>
	<path id="path34" fill="#02709F" d="M732.322,402.788l37.676,37.217h-770l38.984-37.217H732.322"/>
	<path id="path36" fill="none" stroke="#FFFFFF" stroke-width="3.9999" d="M732.322,402.788l37.676,37.217h-770l38.984-37.217
		H732.322z"/>
	<path id="path38" fill="#02709F" d="M-0.002,440.005v-440l38.984,37.48v364.912L-0.002,440.005"/>
	<path id="path40" fill="none" stroke="#FFFFFF" stroke-width="3.9999" d="M-0.002,440.005v-440l38.984,37.48v364.912
		L-0.002,440.005z"/>
</g>
</svg>
