<?xml version="1.0" encoding="utf-8"?>
<!-- Generator: Adobe Illustrator 16.0.0, SVG Export Plug-In . SVG Version: 6.00 Build 0)  -->
<!DOCTYPE svg PUBLIC "-//W3C//DTD SVG 1.1//EN" "http://www.w3.org/Graphics/SVG/1.1/DTD/svg11.dtd">
<svg version="1.1"
	 id="svg2" xmlns:dc="http://purl.org/dc/elements/1.1/" xmlns:cc="http://creativecommons.org/ns#" xmlns:rdf="http://www.w3.org/1999/02/22-rdf-syntax-ns#" xmlns:svg="http://www.w3.org/2000/svg"
	 xmlns="http://www.w3.org/2000/svg" xmlns:xlink="http://www.w3.org/1999/xlink" x="0px" y="0px" width="76px" height="61px"
	 viewBox="0 0 76 61" enable-background="new 0 0 76 61" xml:space="preserve">
<g id="g10" transform="matrix(1.25,0,0,-1.25,0,42.6875)">
	<g id="g12" transform="scale(0.1,0.1)">
		<path id="path22" fill="#02709F" d="M607.996,108.117L199.707,341.5v-466.758L607.996,108.117"/>
		<path id="path24" fill="none" stroke="#FFFFFF" stroke-width="3.9999" d="M607.996,108.117L199.707,341.5v-466.758
			L607.996,108.117z"/>
		<path id="path26" fill="#02709F" d="M180,238.148v-25.734H0.051L0,238.148H180"/>
		<path id="path28" d="M170.043,213.531l31.469,33.359"/>
		<path id="path30" fill="none" stroke="#FFFFFF" stroke-width="3.9999" d="M170.043,213.531l31.469,33.359"/>
		<path id="path32" fill="#02709F" d="M180,157.953v-25.734H0.051L0,157.953H180"/>
		<path id="path34" d="M170.043,133.336l31.469,33.359"/>
		<path id="path36" fill="none" stroke="#FFFFFF" stroke-width="3.9999" d="M170.043,133.336l31.469,33.359"/>
		<path id="path38" fill="#02709F" d="M180,77.758V51.93H0.051L0,77.758H180"/>
		<path id="path40" d="M170.043,53.047L201.511,86.5"/>
		<path id="path42" fill="none" stroke="#FFFFFF" stroke-width="3.9999" d="M170.043,53.047L201.511,86.5"/>
		<path id="path44" fill="#02709F" d="M180-2.43v-25.836H0.051L0-2.43H180"/>
		<path id="path46" d="M170.043-27.141l31.469,33.359"/>
		<path id="path48" fill="none" stroke="#FFFFFF" stroke-width="3.9999" d="M170.043-27.141l31.469,33.359"/>
		<path id="path50" d="M198.008,299.43l-44.18,22.219l44.477,17.719L198.008,299.43"/>
		<path id="path52" fill="none" stroke="#000000" stroke-width="6.0001" stroke-linecap="round" stroke-linejoin="round" d="
			M199.808,333.57v-33.672"/>
		<path id="path54" fill="#02709F" d="M563.527,86.875L155.226,320.336V-146.5L563.527,86.875"/>
		<path id="path56" fill="none" stroke="#FFFFFF" stroke-width="3.9999" d="M563.527,86.875L155.226,320.336V-146.5L563.527,86.875z
			"/>
		<g id="g58" transform="scale(10,10)" style="font-variant:normal;font-weight:bold;font-size:14.5854px;font-family:Helvetica;-inkscape-font-specification:Helvetica-Bold;writing-mode:lr-tb;fill:#ffffff;fill-opacity:1;fill-rule:nonzero;stroke:none">
			<text transform="matrix(0.8 0 0 -0.8 19.5316 5.7695)">P</text>
			<text transform="matrix(0.8 0 0 -0.8 26.1488 5.7695)">A</text>
			<text transform="matrix(0.8 0 0 -0.8 34.573 5.7695)">D</text>
		</g>
	</g>
</g>
</svg>
