<?xml version="1.0" encoding="utf-8"?>
<!-- Generator: Adobe Illustrator 16.0.0, SVG Export Plug-In . SVG Version: 6.00 Build 0)  -->
<!DOCTYPE svg PUBLIC "-//W3C//DTD SVG 1.1//EN" "http://www.w3.org/Graphics/SVG/1.1/DTD/svg11.dtd">
<svg version="1.1"
	 id="svg2" xmlns:dc="http://purl.org/dc/elements/1.1/" xmlns:cc="http://creativecommons.org/ns#" xmlns:rdf="http://www.w3.org/1999/02/22-rdf-syntax-ns#" xmlns:svg="http://www.w3.org/2000/svg"
	 xmlns="http://www.w3.org/2000/svg" xmlns:xlink="http://www.w3.org/1999/xlink" x="0px" y="0px" width="74px" height="75px"
	 viewBox="0 0 74 75" enable-background="new 0 0 74 75" xml:space="preserve">
<g id="g12" transform="scale(0.1,0.1)">
	<path id="path22" fill="#02709F" d="M-0.002,749.995h614.17V124.517H-0.002V749.995z"/>
	<path id="path24" fill="none" stroke="#FFFFFF" stroke-width="3.9999" d="M-0.002,749.995h614.17V124.517H-0.002V749.995z"/>
	<path id="path26" d="M511.882,346.499v136.895l82.529-65.82L511.882,346.499"/>
	<path id="path28" d="M258.308,232.163h136.563l-65.566-82.407L258.308,232.163"/>
	<path id="path30" d="M397.585,627.651H260.818l66.25,82.227L397.585,627.651"/>
	<path id="path32" d="M128.186,499.526V362.632l-82.319,65.82L128.186,499.526"/>
	<path id="path34" fill="#FFFFFF" d="M497.839,360.757v136.699l82.129-65.43L497.839,360.757"/>
	<path id="path36" fill="none" stroke="#FFFFFF" stroke-width="2" d="M497.839,360.757v136.699l82.129-65.43L497.839,360.757z"/>
	<path id="path38" fill="#FFFFFF" d="M244.07,246.431h136.748l-65.762-82.422L244.07,246.431"/>
	<path id="path40" fill="none" stroke="#FFFFFF" stroke-width="2" d="M244.07,246.431h136.748l-65.762-82.422L244.07,246.431z"/>
	<path id="path42" fill="#FFFFFF" d="M383.142,641.714H246.589l66.25,82.598L383.142,641.714"/>
	<path id="path44" fill="none" stroke="#FFFFFF" stroke-width="2" d="M383.142,641.714H246.589l66.25,82.598L383.142,641.714z"/>
	<path id="path46" fill="#FFFFFF" d="M112.327,513.608V376.889l-82.329,65.625L112.327,513.608"/>
	<path id="path48" fill="none" stroke="#FFFFFF" stroke-width="2" d="M112.327,513.608V376.889l-82.329,65.625L112.327,513.608z"/>
	<path id="path50" fill="#02709F" d="M612.009,123.794H0.715L155.574,0h584.424v0.718h-1.973l-124.57,122.72v3.979L612.009,123.794"
		/>
	<path id="path52" fill="none" stroke="#FFFFFF" stroke-width="3.9999" d="M612.009,123.794H0.715L155.574,0h584.424v0.718h-1.973
		l-124.57,122.72v3.979L612.009,123.794z"/>
	<path id="path54" fill="#02709F" d="M738.562,625.307V0.718L614.167,125.229v624.59L738.562,625.307"/>
	<path id="path56" fill="none" stroke="#FFFFFF" stroke-width="3.9999" d="M738.562,625.307V0.718L614.167,125.229v624.59
		L738.562,625.307z"/>
	<path id="path58" d="M411.472,350.913v52.031h66.631V367.3c0-58.525-73.887-89.638-164.971-89.638h2.598
		c-91.094,0-164.98,31.113-164.98,89.638v35.645h66.621v-52.031C305.476,235.767,411.472,350.913,411.472,350.913"/>
	<path id="path60" d="M325.945,333.198h57.734v65.117l63.926,53.574V580.19H180.413V451.889l64.302-53.574v-65.117H325.945"/>
	<path id="path62" fill="#FFFFFF" d="M410.925,365.561v52.012h66.621V381.85c0-58.428-73.877-89.551-164.766-89.551h2.588
		c-91.104,0-164.976,31.123-164.976,89.551v35.723h66.626v-52.012C305.125,250.405,410.925,365.561,410.925,365.561"/>
	<path id="path64" fill="#FFFFFF" d="M325.603,347.827h57.539v65.137l64.307,53.574v128.34H180.061v-128.34l64.302-53.574v-65.137
		H325.603"/>
</g>
</svg>
