<?xml version="1.0" encoding="utf-8"?>
<!-- Generator: Adobe Illustrator 16.0.0, SVG Export Plug-In . SVG Version: 6.00 Build 0)  -->
<!DOCTYPE svg PUBLIC "-//W3C//DTD SVG 1.1//EN" "http://www.w3.org/Graphics/SVG/1.1/DTD/svg11.dtd">
<svg version="1.1"
	 id="svg2" xmlns:dc="http://purl.org/dc/elements/1.1/" xmlns:cc="http://creativecommons.org/ns#" xmlns:rdf="http://www.w3.org/1999/02/22-rdf-syntax-ns#" xmlns:svg="http://www.w3.org/2000/svg"
	 xmlns="http://www.w3.org/2000/svg" xmlns:xlink="http://www.w3.org/1999/xlink" x="0px" y="0px" width="80px" height="74px"
	 viewBox="0 0 80 74" enable-background="new 0 0 80 74" xml:space="preserve">
<g id="g12" transform="scale(0.1,0.1)">
	<path id="path22" fill="#02709F" d="M650.688,725l139.316-139.316V15H149.316L10,154.102h640.688V725"/>
	<path id="path24" fill="none" stroke="#FFFFFF" stroke-width="3.9999" d="M650.688,725l139.316-139.316V15H149.316L10,154.102
		h640.688V725z"/>
	<path id="path26" fill="#02709F" d="M650.688,154.102L790.005,15"/>
	<path id="path28" fill="none" stroke="#FFFFFF" stroke-width="3.9999" d="M650.688,154.102L790.005,15"/>
	<path id="path30" fill="#02709F" d="M10,725h640.688V154.102H10V725z"/>
	<path id="path32" fill="none" stroke="#FFFFFF" stroke-width="3.9999" d="M10,725h640.688V154.102H10V725z"/>
	<path id="path34" fill="none" stroke="#FFFFFF" stroke-width="3.9999" d="M650.688,439.433H10"/>
	<path id="path36" d="M73.198,514.853h156.24"/>
	<path id="path38" fill="none" stroke="#FFFFFF" stroke-width="3.9999" d="M73.198,514.853h156.24"/>
	<path id="path40" d="M73.198,548.847h156.24"/>
	<path id="path42" fill="none" stroke="#FFFFFF" stroke-width="3.9999" d="M73.198,548.847h156.24"/>
	<path id="path44" d="M73.198,582.422h156.24"/>
	<path id="path46" fill="none" stroke="#FFFFFF" stroke-width="3.9999" d="M73.198,582.422h156.24"/>
	<path id="path48" d="M73.198,615.996h156.24"/>
	<path id="path50" fill="none" stroke="#FFFFFF" stroke-width="3.9999" d="M73.198,615.996h156.24"/>
	<path id="path52" d="M73.198,649.57h156.24"/>
	<path id="path54" fill="none" stroke="#FFFFFF" stroke-width="3.9999" d="M73.198,649.57h156.24"/>
</g>
</svg>
