<?xml version="1.0" encoding="utf-8"?>
<!-- Generator: Adobe Illustrator 16.0.0, SVG Export Plug-In . SVG Version: 6.00 Build 0)  -->
<!DOCTYPE svg PUBLIC "-//W3C//DTD SVG 1.1//EN" "http://www.w3.org/Graphics/SVG/1.1/DTD/svg11.dtd">
<svg version="1.1"
	 id="svg2" xmlns:dc="http://purl.org/dc/elements/1.1/" xmlns:cc="http://creativecommons.org/ns#" xmlns:rdf="http://www.w3.org/1999/02/22-rdf-syntax-ns#" xmlns:svg="http://www.w3.org/2000/svg"
	 xmlns="http://www.w3.org/2000/svg" xmlns:xlink="http://www.w3.org/1999/xlink" x="0px" y="0px" width="78px" height="70px"
	 viewBox="0 0 78 70" enable-background="new 0 0 78 70" xml:space="preserve">
<g id="g12" transform="scale(0.1,0.1)">
	<path id="path22" fill="#02709F" d="M-0.005,597.871H667.93V472.695H-0.005V597.871z"/>
	<path id="path24" fill="none" stroke="#FFFFFF" stroke-width="3.9999" d="M-0.005,597.871H667.93V472.695H-0.005V597.871z"/>
	<path id="path26" fill="#02709F" d="M463.232,543.613h168.408"/>
	<path id="path28" fill="none" stroke="#FFFFFF" stroke-width="3.9999" d="M463.232,543.613h168.408"/>
	<path id="path30" fill="#02709F" d="M463.232,537.578h168.408"/>
	<path id="path32" fill="none" stroke="#FFFFFF" stroke-width="3.9999" d="M463.232,537.578h168.408"/>
	<path id="path34" fill="#02709F" d="M780,479.023v-112.09L667.881,473.301v124.57L780,479.023"/>
	<path id="path36" fill="none" stroke="#FFFFFF" stroke-width="3.9999" d="M780,479.023v-112.09L667.881,473.301v124.57L780,479.023
		z"/>
	<path id="path38" fill="#02709F" d="M549.229,700v-27.637l60.781-84.414v51.563L549.229,700"/>
	<path id="path40" fill="none" stroke="#FFFFFF" stroke-width="3.9999" d="M549.229,700v-27.637l60.781-84.414v51.563L549.229,700z"
		/>
	<path id="path42" fill="#02709F" d="M14.814,700h534.414v-27.637H14.814V700z"/>
	<path id="path44" fill="none" stroke="#FFFFFF" stroke-width="3.9999" d="M14.814,700h534.414v-27.637H14.814V700z"/>
	<path id="path46" fill="#02709F" d="M549.229,672.363H14.814l61.782-84.414H610.01L549.229,672.363"/>
	<path id="path48" fill="none" stroke="#FFFFFF" stroke-width="3.9999" d="M549.229,672.363H14.814l61.782-84.414H610.01
		L549.229,672.363z"/>
	<path id="path50" fill="#02709F" d="M780,366.934H111.938L-0.005,472.695H667.93L780,366.934"/>
	<path id="path52" fill="none" stroke="#FFFFFF" stroke-width="3.9999" d="M780,366.934H111.938L-0.005,472.695H667.93L780,366.934z
		"/>
	<path id="path54" fill="#02709F" d="M119.512,410.859h460.313V72.798H119.512V410.859z"/>
	<path id="path56" fill="none" stroke="#FFFFFF" stroke-width="3.9999" d="M119.512,410.859h460.313V72.798H119.512V410.859z"/>
	<path id="path58" fill="#02709F" d="M158.389,147.007c0-33.887,35.088-38.887,35.088-38.887s271.094,0,303.75,0
		c42.676,0,41.309,40.098,41.309,40.098s0,165.674,0,189.6c0,23.745-32.676,33.726-32.676,33.726s-277.28,0-307.402,0
		c-30.098,0-40.073-31.323-40.073-31.323V147.007"/>
	<path id="path60" fill="none" stroke="#FFFFFF" stroke-width="3.9999" d="M158.389,147.007c0-33.887,35.088-38.887,35.088-38.887
		s271.094,0,303.75,0c42.676,0,41.309,40.098,41.309,40.098s0,165.674,0,189.6c0,23.745-32.676,33.726-32.676,33.726
		s-277.28,0-307.402,0c-30.098,0-40.073-31.323-40.073-31.323V147.007H158.389z"/>
	<path id="path62" fill="#02709F" d="M657.207,0.093h-460.63l-77.061,72.705h460.308L657.207,0.093"/>
	<path id="path64" fill="none" stroke="#FFFFFF" stroke-width="3.9999" d="M657.207,0.093h-460.63l-77.061,72.705h460.308
		L657.207,0.093z"/>
	<path id="path66" fill="#02709F" d="M657.207,338.735V-0.005l-76.621,72.803v338.062L657.207,338.735"/>
	<path id="path68" fill="none" stroke="#FFFFFF" stroke-width="3.9999" d="M657.207,338.735V-0.005l-76.621,72.803v338.062
		L657.207,338.735z"/>
</g>
</svg>
