<svg version="1.1" id="ilhwsa8q1" xmlns:xml="http://www.w3.org/XML/1998/namespace"
	 xmlns="http://www.w3.org/2000/svg" xmlns:xlink="http://www.w3.org/1999/xlink" x="0px" y="0px" width="77px" height="65px"
	 viewBox="0 0 77 65" enable-background="new 0 0 77 65" xml:space="preserve">
<g>
	<g>
		<path fill="#1B2E3D" d="M75.757,65H49.973c-0.711,0-1.242-0.592-1.242-1.24V1.241C48.73,0.532,49.322,0,49.973,0h25.784
			C76.467,0,77,0.591,77,1.241V63.7C77,64.408,76.407,65,75.757,65z"/>
		<path fill="#D8DDE1" d="M74.279,62.104H51.154c-0.709,0-1.24-0.59-1.24-1.24V2.482c0-0.709,0.592-1.241,1.24-1.241h23.125
			c0.709,0,1.24,0.591,1.24,1.241v58.381C75.52,61.574,74.93,62.104,74.279,62.104z"/>
		<path fill="#36485C" d="M72.801,6.086h-19.93c-0.355,0-0.594-0.296-0.594-0.591V4.787c0-0.354,0.298-0.591,0.594-0.591h19.93
			c0.355,0,0.592,0.295,0.592,0.591v0.709C73.393,5.791,73.156,6.086,72.801,6.086z"/>
		<path fill="#36485C" d="M72.918,14.595h-19.93c-0.355,0-0.592-0.294-0.592-0.59v-2.364c0-0.354,0.297-0.591,0.592-0.591h19.93
			c0.355,0,0.592,0.296,0.592,0.591v2.364C73.51,14.301,73.271,14.595,72.918,14.595z"/>
		<g>
			<rect x="48.671" y="46.092" fill="#495A5E" width="28.329" height="0.59"/>
		</g>
		<g>
			<rect x="48.671" y="8.272" fill="#495A5E" width="28.329" height="0.591"/>
		</g>
		<ellipse fill="#2A6ED1" cx="62.982" cy="34.154" rx="1.539" ry="1.595"/>
	</g>
	<path fill="#1B2E3D" d="M31.048,59.386h-4.022c-0.65,0-1.183-0.53-1.183-1.182V51.23c0-0.647,0.533-1.182,1.183-1.182h4.022
		c0.65,0,1.182,0.533,1.182,1.182v6.974C32.23,58.855,31.698,59.386,31.048,59.386z"/>
	<path fill="#324556" d="M57.426,53.771H0.591C0.237,53.771,0,53.477,0,53.182V17.728c0-0.355,0.295-0.591,0.591-0.591h56.834
		c0.353,0,0.591,0.295,0.591,0.591v35.454C58.016,53.536,57.777,53.771,57.426,53.771z"/>
	<path fill="#FFFFFF" d="M56.359,52.59H1.715c-0.355,0-0.592-0.296-0.592-0.59V18.968c0-0.354,0.296-0.591,0.592-0.591h54.645
		c0.354,0,0.591,0.295,0.591,0.591V52C56.95,52.294,56.654,52.59,56.359,52.59z"/>
	<path fill="#324556" d="M42.462,59.979H15.554c-0.237,0-0.414-0.18-0.414-0.414v-0.828c0-0.235,0.177-0.412,0.414-0.412h26.908
		c0.237,0,0.413,0.177,0.413,0.412v0.826C42.875,59.799,42.699,59.979,42.462,59.979z"/>
</g>
</svg>
