<?xml version="1.0" encoding="utf-8"?>
<!-- Generator: Adobe Illustrator 16.0.0, SVG Export Plug-In . SVG Version: 6.00 Build 0)  -->
<!DOCTYPE svg PUBLIC "-//W3C//DTD SVG 1.1//EN" "http://www.w3.org/Graphics/SVG/1.1/DTD/svg11.dtd">
<svg version="1.1"
	 id="svg2" xmlns:dc="http://purl.org/dc/elements/1.1/" xmlns:cc="http://creativecommons.org/ns#" xmlns:rdf="http://www.w3.org/1999/02/22-rdf-syntax-ns#" xmlns:svg="http://www.w3.org/2000/svg"
	 xmlns="http://www.w3.org/2000/svg" xmlns:xlink="http://www.w3.org/1999/xlink" x="0px" y="0px" width="57px" height="77px"
	 viewBox="0 0 57 77" enable-background="new 0 0 57 77" xml:space="preserve">
<g id="g12" transform="scale(0.1,0.1)">
	<path id="path22" d="M273.567,725.649V519.555l-46.855,44.355v206.094L273.567,725.649"/>
	<path id="path24" fill="none" stroke="#FFFFFF" stroke-width="4" d="M273.567,725.649V519.555l-46.855,44.355v206.094
		L273.567,725.649z"/>
	<path id="path26" fill="#026C9B" d="M0.002,770.005h226.709V563.911H0.002V770.005z"/>
	<path id="path28" fill="none" stroke="#FFFFFF" stroke-width="4" d="M0.002,770.005h226.709V563.911H0.002V770.005z"/>
	<path id="path30" fill="#026C9B" d="M245.461,770.005h226.836V563.911H245.461V770.005z"/>
	<path id="path32" fill="none" stroke="#FFFFFF" stroke-width="4" d="M245.461,770.005h226.836V563.911H245.461V770.005z"/>
	<path id="path34" fill="#026C9B" d="M570.002,466.821V0l-97.559,92.432v466.811L570.002,466.821"/>
	<path id="path36" fill="none" stroke="#FFFFFF" stroke-width="4" d="M570.002,466.821V0l-97.559,92.432v466.811L570.002,466.821z"
		/>
	<path id="path38" fill="#026C9B" d="M569.622,677.563V471.469l-97.324,92.441v206.094L569.622,677.563"/>
	<path id="path40" fill="none" stroke="#FFFFFF" stroke-width="4" d="M569.622,677.563V471.469l-97.324,92.441v206.094
		L569.622,677.563z"/>
	<path id="path42" fill="#026C9B" d="M570.002,0l-97.559,92.432H0.002L122.375,0H570.002"/>
	<path id="path44" fill="none" stroke="#FFFFFF" stroke-width="4" d="M570.002,0l-97.559,92.432H0.002L122.375,0H570.002z"/>
	<path id="path46" fill="#026C9B" d="M0.002,559.243h472.441V92.432H0.002V559.243z"/>
	<path id="path48" fill="none" stroke="#FFFFFF" stroke-width="4" d="M0.002,559.243h472.441V92.432H0.002V559.243z"/>
	<path id="path50" fill="#FFFFFF" d="M194.153,270.396l-71.895-71.807l12.139-12.129l-45.146-9.087l9.111,45.083l12.266-12.251
		l71.904,71.812L194.153,270.396"/>
	<path id="path52" fill="#FFFFFF" d="M167.834,317.407H66.184v-17.129L27.815,325.63l38.369,25.469v-17.256h101.65V317.407"/>
	<path id="path54" fill="#FFFFFF" d="M182.532,369.243l-71.904,71.933l-12.266-12.383l-9.111,45.078l45.146-9.082l-12.139-12.129
		l71.895-71.816L182.532,369.243"/>
	<path id="path56" fill="#FFFFFF" d="M229.592,395.512v101.543h-17.285l25.508,38.34l25.371-38.34h-17.285V395.512H229.592"/>
	<path id="path58" fill="#FFFFFF" d="M229.592,258.687V157.144h-17.285l25.508-38.335l25.371,38.335h-17.285v101.543H229.592"/>
	<path id="path60" fill="#FFFFFF" d="M281.477,380.845l71.895,71.816l-12.158,12.129l45.146,9.082l-9.355-45.078l-12.148,12.383
		l-71.768-71.933L281.477,380.845"/>
	<path id="path62" fill="#FFFFFF" d="M307.649,333.843H409.29v17.256l38.398-25.469l-38.398-25.352v17.129H307.649V333.843"/>
	<path id="path64" fill="#FFFFFF" d="M293.088,282.017l71.768-71.816l12.148,12.256l9.355-45.083l-45.146,9.087l12.158,12.129
		l-71.895,71.807L293.088,282.017"/>
	<path id="path66" fill="#FFFFFF" d="M42.639,616.665h14.6L35.833,584.38l-21.436,32.285h14.512v105.781H14.299l21.436,32.285
		l21.406-32.285H42.639V616.665"/>
	<path id="path68" fill="#FFFFFF" d="M94.543,616.665h14.6L87.737,584.38l-21.426,32.285h14.492v105.781h-14.59l21.396,32.285
		l21.436-32.285H94.543V616.665"/>
	<path id="path70" fill="#FFFFFF" d="M146.418,616.665h14.629l-21.436-32.285l-21.396,32.285h14.365v105.781h-14.463l21.27,32.285
		l21.436-32.285h-14.404V616.665"/>
	<path id="path72" fill="#FFFFFF" d="M198.323,616.665h14.629l-21.426-32.285l-21.406,32.285h14.375v105.781h-14.629l21.426,32.285
		l21.436-32.285h-14.404V616.665"/>
	<path id="path74" fill="#FFFFFF" d="M288.235,616.665h14.59l-21.396-32.285l-21.436,32.285h14.375v105.781h-14.6l21.436,32.285
		l21.27-32.285h-14.238V616.665"/>
	<path id="path76" fill="#FFFFFF" d="M340.002,616.665h14.727l-21.533-32.285l-21.299,32.285h14.375v105.781h-14.473l21.27,32.285
		l21.309-32.285h-14.375V616.665"/>
	<path id="path78" fill="#FFFFFF" d="M391.877,616.665h14.502l-21.309-32.285l-21.27,32.285h14.375v105.781H363.45l21.523,32.285
		l21.309-32.285h-14.404V616.665"/>
	<path id="path80" fill="#FFFFFF" d="M443.782,616.665h14.512l-21.318-32.285l-21.27,32.285h14.375v105.781h-14.756l21.553,32.285
		l21.309-32.285h-14.404V616.665"/>
</g>
</svg>
