<?xml version="1.0" encoding="utf-8"?>
<!-- Generator: Adobe Illustrator 16.0.0, SVG Export Plug-In . SVG Version: 6.00 Build 0)  -->
<!DOCTYPE svg PUBLIC "-//W3C//DTD SVG 1.1//EN" "http://www.w3.org/Graphics/SVG/1.1/DTD/svg11.dtd">
<svg version="1.1"
	 id="svg2" xmlns:dc="http://purl.org/dc/elements/1.1/" xmlns:cc="http://creativecommons.org/ns#" xmlns:rdf="http://www.w3.org/1999/02/22-rdf-syntax-ns#" xmlns:svg="http://www.w3.org/2000/svg"
	 xmlns="http://www.w3.org/2000/svg" xmlns:xlink="http://www.w3.org/1999/xlink" x="0px" y="0px" width="56px" height="80px"
	 viewBox="0 0 56 80" enable-background="new 0 0 56 80" xml:space="preserve">
<g id="g12" transform="scale(0.1,0.1)">
	<path id="path22" fill="#02709F" d="M537.485,290.21c17.627-25.112-30.078-37.69-30.078-37.69"/>
	<path id="path24" fill="none" stroke="#FFFFFF" stroke-width="3.9999" d="M537.485,290.21c17.627-25.112-30.078-37.69-30.078-37.69
		"/>
	<path id="path26" fill="#02709F" d="M508.228,70.444l-24.248,20.127H296.772l24.18-20.127H508.228"/>
	<path id="path28" fill="none" stroke="#FFFFFF" stroke-width="3.9999" d="M508.228,70.444l-24.248,20.127H296.772l24.18-20.127
		H508.228z"/>
	<path id="path30" fill="#02709F" d="M295.073,240.786h188.906V90.918H295.073V240.786z"/>
	<path id="path32" fill="none" stroke="#FFFFFF" stroke-width="3.9999" d="M295.073,240.786h188.906V90.918H295.073V240.786z"/>
	<path id="path34" fill="#02709F" d="M508.228,223.11V70.801l-25.078,20.117v152.319L508.228,223.11"/>
	<path id="path36" fill="none" stroke="#FFFFFF" stroke-width="3.9999" d="M508.228,223.11V70.801l-25.078,20.117v152.319
		L508.228,223.11z"/>
	<path id="path38" fill="#02709F" d="M231.548,55.747c1.675,16.753-9.194,28.486,10,52.744c2.822,3.55-4.155,10.449-6.68,14.468
		c-2.485,3.96-3.32,9.819-1.646,14.829c-1.675,0-3.345,4.199-3.345,7.544c-1.675,8.389,1.67,14.224-3.379,15.923
		c-8.325,3.354-20.029,3.354-25.068,8.364c-6.68,5.01-13.345,13.403-16.699,23.447c-1.694,0-5.024,0-6.685,0
		c-15.029-15.098-33.428-46.885-55.166-53.569c-8.35-21.782,6.689-40.21,16.719-58.633c11.685-20.103,33.438-33.481,56.851-35.186"
		/>
	<path id="path40" fill="none" stroke="#FFFFFF" stroke-width="3.9999" d="M231.548,55.747c1.675,16.753-9.194,28.486,10,52.744
		c2.822,3.55-4.155,10.449-6.68,14.468c-2.485,3.96-3.32,9.819-1.646,14.829c-1.675,0-3.345,4.199-3.345,7.544
		c-1.675,8.389,1.67,14.224-3.379,15.923c-8.325,3.354-20.029,3.354-25.068,8.364c-6.68,5.01-13.345,13.403-16.699,23.447
		c-1.694,0-5.024,0-6.685,0c-15.029-15.098-33.428-46.885-55.166-53.569c-8.35-21.782,6.689-40.21,16.719-58.633
		c11.685-20.103,33.438-33.481,56.851-35.186"/>
	<path id="path42" fill="#02709F" d="M118.711,137.959c2.637,2.646,9.16-1.816,14.18-0.171c8.364,3.345,20.049,5.054,25.078,0
		c6.699-5.01,10.02-15.073,15.068-23.428c0-1.675,1.65-5.015,5.01-6.714c8.335,0,20.059,3.359,23.384-1.65
		c10.049-10.063-3.325-30.151,11.724-38.545c11.694-5.01,31.743-8.354,28.394-25.103C209.8,25.596,174.688,8.843,139.6,17.236
		c-10.029,3.34-18.398,15.073-26.768,23.433c-1.65,3.345-5.01,6.714-5.01,10.063c-1.67,21.768-3.34,41.86,1.66,63.628
		C111.182,121.069,113.662,132.925,118.711,137.959"/>
	<path id="path44" fill="none" stroke="#FFFFFF" stroke-width="3.9999" d="M118.711,137.959c2.637,2.646,9.16-1.816,14.18-0.171
		c8.364,3.345,20.049,5.054,25.078,0c6.699-5.01,10.02-15.073,15.068-23.428c0-1.675,1.65-5.015,5.01-6.714
		c8.335,0,20.059,3.359,23.384-1.65c10.049-10.063-3.325-30.151,11.724-38.545c11.694-5.01,31.743-8.354,28.394-25.103
		C209.8,25.596,174.688,8.843,139.6,17.236c-10.029,3.34-18.398,15.073-26.768,23.433c-1.65,3.345-5.01,6.714-5.01,10.063
		c-1.67,21.768-3.34,41.86,1.66,63.628C111.182,121.069,113.662,132.925,118.711,137.959z"/>
	<path id="path46" fill="#02709F" d="M292.544,538.047c0,13.486,0,26.826,0,40.215c-9.189,8.389-8.32,21.768-8.32,33.496
		c13.389,7.539,29.209,4.199,43.477,5.039c0-2.529,0-5.83,0.771-5.83c13.467-1.699,25.957-2.549,39.316-4.258
		c3.379-9.209,4.99-20.059,4.99-30.127c-11.65-5.859-29.258-5-35.088-18.389c-4.99-13.408-4.99-27.666-4.15-41.074"/>
	<path id="path48" fill="none" stroke="#FFFFFF" stroke-width="3.9999" d="M292.544,538.047c0,13.486,0,26.826,0,40.215
		c-9.189,8.389-8.32,21.768-8.32,33.496c13.389,7.539,29.209,4.199,43.477,5.039c0-2.529,0-5.83,0.771-5.83
		c13.467-1.699,25.957-2.549,39.316-4.258c3.379-9.209,4.99-20.059,4.99-30.127c-11.65-5.859-29.258-5-35.088-18.389
		c-4.99-13.408-4.99-27.666-4.15-41.074"/>
	<path id="path50" fill="#02709F" d="M245.728,520.498c30.957,3.301,57.715-13.379,86.143-25.156c7.5-3.291,18.359-0.84,27.549-0.84
		c2.539,31.855-2.432,63.691-0.84,95.449c15.898,0,30.928,1.689,46.855-0.791c8.359-0.791,16.729-5.039,24.248-9.189
		c0-44.404,2.461-88.769-2.529-133.994c-0.85-4.971-4.121-10.088-7.51-15.098c-1.719-2.529-5.01-4.99-8.369-5.82
		c-37.637-8.389-43.486-4.238-80.264-9.238c-3.311,0,8.359-18.433,5.83-21.772c-6.572-8.828-93.594-4.189-104.458-3.345"/>
	<path id="path52" fill="none" stroke="#FFFFFF" stroke-width="3.9999" d="M245.728,520.498
		c30.957,3.301,57.715-13.379,86.143-25.156c7.5-3.291,18.359-0.84,27.549-0.84c2.539,31.855-2.432,63.691-0.84,95.449
		c15.898,0,30.928,1.689,46.855-0.791c8.359-0.791,16.729-5.039,24.248-9.189c0-44.404,2.461-88.769-2.529-133.994
		c-0.85-4.971-4.121-10.088-7.51-15.098c-1.719-2.529-5.01-4.99-8.369-5.82c-37.637-8.389-43.486-4.238-80.264-9.238
		c-3.311,0,8.359-18.433,5.83-21.772c-6.572-8.828-93.594-4.189-104.458-3.345"/>
	<path id="path54" fill="#02709F" d="M401.274,588.369c0,5.811-1.68,11.66,0.762,16.67c0.869,2.529,5.908,2.529,9.238,5.078
		c2.52,2.451,5.01,5.84,8.369,7.559c4.961,2.422,10.889,3.271,16.729,4.131c8.398,0.85,16.719-1.709,24.209,1.68
		c0.83,0.85,3.34,0.85,5.059,2.529c4.961,5.85,6.66,13.408,3.281,18.389c-6.689,10.107-15.83,17.646-27.568,20.088
		c-15.898,2.529-31.787,0-47.588,3.389c-1.709,0-0.85,0-1.709,0.85c-0.84,2.471,0.859,9.189,0,9.189
		c-15.879,0.801-34.307,4.189-45.137-10.898c-3.398-4.971-4.209-12.51-1.699-19.209c3.398-6.738,5.01-13.477,6.68-20.996
		c2.529-5.869,1.67-5.869,4.229-11.719c3.291-8.389,1.621-17.598,1.621-26.729"/>
	<path id="path56" fill="none" stroke="#FFFFFF" stroke-width="3.9999" d="M401.274,588.369c0,5.811-1.68,11.66,0.762,16.67
		c0.869,2.529,5.908,2.529,9.238,5.078c2.52,2.451,5.01,5.84,8.369,7.559c4.961,2.422,10.889,3.271,16.729,4.131
		c8.398,0.85,16.719-1.709,24.209,1.68c0.83,0.85,3.34,0.85,5.059,2.529c4.961,5.85,6.66,13.408,3.281,18.389
		c-6.689,10.107-15.83,17.646-27.568,20.088c-15.898,2.529-31.787,0-47.588,3.389c-1.709,0-0.85,0-1.709,0.85
		c-0.84,2.471,0.859,9.189,0,9.189c-15.879,0.801-34.307,4.189-45.137-10.898c-3.398-4.971-4.209-12.51-1.699-19.209
		c3.398-6.738,5.01-13.477,6.68-20.996c2.529-5.869,1.67-5.869,4.229-11.719c3.291-8.389,1.621-17.598,1.621-26.729"/>
	<path id="path58" fill="#02709F" d="M203.955,597.5v41.924l81.089-33.545c13.369-2.441,16.704,14.219,16.704,14.219v11.768h-6.675
		v10.859c-6.66,11.787-17.529,0-17.529,0v-13.389l-64.39,29.307l76.079,61.992c9.99,18.389,0.869,35.166,0.869,35.166
		c8.311,15.908-6.748,26.758-6.748,26.758c-20.068,10.068-19.229-14.229-19.229-14.229c-2.49-14.238,11.719-14.238,11.719-14.238
		l4.189-8.389l-88.633-80.381L76.035,731.484l-4.18,10.068c9.229,20.088-7.51,26.777-7.51,26.777
		c-23.389,4.258-14.229-16.719-14.229-16.719c-0.811-11.738,8.379-11.738,8.379-11.738l6.67-7.539c0,0,5.869,2.539-0.82-3.301
		c-6.685-5.928-1.665-21.807-1.665-21.807l108.643-53.584l-35.913-35.156l-11.729,7.529c0,19.238-13.34,13.408-13.34,13.408
		c-14.209,0-5.859-15.088-5.859-15.088c5-4.238,11.67-6.66,11.67-6.66l8.369-18.496l27.627,14.238l31.748,26.855v-36.836"/>
	<path id="path60" fill="#02709F" d="M252.432,554.814l94.487-42.695c6.65-8.389-4.209-20.918-4.209-20.918l-88.604,33.447"/>
	<path id="path62" fill="none" stroke="#FFFFFF" stroke-width="3.9999" d="M252.432,554.814l94.487-42.695
		c6.65-8.389-4.209-20.918-4.209-20.918l-88.604,33.447"/>
	<path id="path64" fill="#02709F" d="M310.991,224.053H468.13V111.006H310.991V224.053z"/>
	<path id="path66" fill="none" stroke="#FFFFFF" stroke-width="3.9999" d="M310.991,224.053H468.13V111.006H310.991V224.053z"/>
	<path id="path68" fill="#02709F" d="M296.646,276.084h189.746v-27.627H296.646V276.084z"/>
	<path id="path70" fill="none" stroke="#FFFFFF" stroke-width="3.9999" d="M296.646,276.084h189.746v-27.627H296.646V276.084z"/>
	<path id="path72" fill="#02709F" d="M253.267,322.861h210.654v-9.194H253.267V322.861z"/>
	<path id="path74" fill="none" stroke="#FFFFFF" stroke-width="3.9999" d="M253.267,322.861h210.654v-9.194H253.267V322.861z"/>
	<path id="path76" fill="#02709F" d="M504.917,318.667h30.879v-6.685h-30.879V318.667z"/>
	<path id="path78" fill="none" stroke="#FFFFFF" stroke-width="3.9999" d="M504.917,318.667h30.879v-6.685h-30.879V318.667z"/>
	<path id="path80" fill="#02709F" d="M535.796,310.308l13.418-21.802h-30.898l-13.398,21.802H535.796"/>
	<path id="path82" fill="none" stroke="#FFFFFF" stroke-width="3.9999" d="M535.796,310.308l13.418-21.802h-30.898l-13.398,21.802
		H535.796z"/>
	<path id="path84" fill="#02709F" d="M550.005,307.793v-19.287l-15.049,23.477v6.685L550.005,307.793"/>
	<path id="path86" fill="none" stroke="#FFFFFF" stroke-width="3.9999" d="M550.005,307.793v-19.287l-15.049,23.477v6.685
		L550.005,307.793z"/>
	<path id="path88" fill="#02709F" d="M494.019,293.56v-15.938l-30.908,36.045v9.194L494.019,293.56"/>
	<path id="path90" fill="none" stroke="#FFFFFF" stroke-width="3.9999" d="M494.019,293.56v-15.938l-30.908,36.045v9.194
		L494.019,293.56z"/>
	<path id="path92" fill="#02709F" d="M511.626,260.908v-35.195l-25.264,21.768v36.865L511.626,260.908"/>
	<path id="path94" fill="none" stroke="#FFFFFF" stroke-width="3.9999" d="M511.626,260.908v-35.195l-25.264,21.768v36.865
		L511.626,260.908z"/>
	<path id="path96" fill="#02709F" d="M300.913,248.33h183.906v-6.694H300.913V248.33z"/>
	<path id="path98" fill="none" stroke="#FFFFFF" stroke-width="3.9999" d="M300.913,248.33h183.906v-6.694H300.913V248.33z"/>
	<path id="path100" fill="#02709F" d="M509.097,229.077v-4.268l-25.947,19.272v4.248L509.097,229.077"/>
	<path id="path102" fill="none" stroke="#FFFFFF" stroke-width="3.9999" d="M509.097,229.077v-4.268l-25.947,19.272v4.248
		L509.097,229.077z"/>
	<path id="path104" fill="#02709F" d="M492.358,276.816l-28.438,37.651H254.106l33.447-37.651H492.358"/>
	<path id="path106" fill="none" stroke="#FFFFFF" stroke-width="3.9999" d="M492.358,276.816l-28.438,37.651H254.106l33.447-37.651
		H492.358z"/>
	<path id="path108" fill="#02709F" d="M418.774,261.758h51.826"/>
	<path id="path110" fill="none" stroke="#FFFFFF" stroke-width="3.9999" d="M418.774,261.758h51.826"/>
	<path id="path112" fill="#02709F" d="M227.09,89.229l-5.571,10.059l8.896-1.113"/>
	<path id="path114" fill="none" stroke="#FFFFFF" stroke-width="3.9999" d="M227.09,89.229l-5.571,10.059l8.896-1.113"/>
	<path id="path116" fill="#02709F" d="M325.591,289.297l11.123,0.093"/>
	<path id="path118" fill="none" stroke="#FFFFFF" stroke-width="3.9999" d="M325.591,289.297l11.123,0.093"/>
	<path id="path120" fill="#02709F" d="M341.216,289.414l11.191,0.083"/>
	<path id="path122" fill="none" stroke="#FFFFFF" stroke-width="3.9999" d="M341.216,289.414l11.191,0.083"/>
	<path id="path124" fill="#02709F" d="M293.267,289.116l11.152,0.083"/>
	<path id="path126" fill="none" stroke="#FFFFFF" stroke-width="3.9999" d="M293.267,289.116l11.152,0.083"/>
	<path id="path128" fill="#02709F" d="M308.931,289.224l11.143,0.034"/>
	<path id="path130" fill="none" stroke="#FFFFFF" stroke-width="3.9999" d="M308.931,289.224l11.143,0.034"/>
	<path id="path132" fill="#02709F" d="M356.86,289.536l11.133,0.073"/>
	<path id="path134" fill="none" stroke="#FFFFFF" stroke-width="3.9999" d="M356.86,289.536l11.133,0.073"/>
	<path id="path136" fill="#02709F" d="M372.427,289.624l11.133,0.063"/>
	<path id="path138" fill="none" stroke="#FFFFFF" stroke-width="3.9999" d="M372.427,289.624l11.133,0.063"/>
	<path id="path140" fill="#02709F" d="M388.022,289.712l11.143,0.083"/>
	<path id="path142" fill="none" stroke="#FFFFFF" stroke-width="3.9999" d="M388.022,289.712l11.143,0.083"/>
	<path id="path144" fill="#02709F" d="M403.599,289.834l11.182,0.073"/>
	<path id="path146" fill="none" stroke="#FFFFFF" stroke-width="3.9999" d="M403.599,289.834l11.182,0.073"/>
	<path id="path148" fill="#02709F" d="M419.282,289.941l11.133,0.063"/>
	<path id="path150" fill="none" stroke="#FFFFFF" stroke-width="3.9999" d="M419.282,289.941l11.133,0.063"/>
	<path id="path152" fill="#02709F" d="M434.868,290.01l11.152,0.078"/>
	<path id="path154" fill="none" stroke="#FFFFFF" stroke-width="3.9999" d="M434.868,290.01l11.152,0.078"/>
	<path id="path156" fill="#02709F" d="M450.444,290.127l11.133,0.073"/>
	<path id="path158" fill="none" stroke="#FFFFFF" stroke-width="3.9999" d="M450.444,290.127l11.133,0.073"/>
	<path id="path160" fill="#02709F" d="M320.073,298.262l11.133,0.039"/>
	<path id="path162" fill="none" stroke="#FFFFFF" stroke-width="3.9999" d="M320.073,298.262l11.133,0.039"/>
	<path id="path164" fill="#02709F" d="M335.64,298.345l11.152,0.073"/>
	<path id="path166" fill="none" stroke="#FFFFFF" stroke-width="3.9999" d="M335.64,298.345l11.152,0.073"/>
	<path id="path168" fill="#02709F" d="M287.749,298.037l11.133,0.083"/>
	<path id="path170" fill="none" stroke="#FFFFFF" stroke-width="3.9999" d="M287.749,298.037l11.133,0.083"/>
	<path id="path172" fill="#02709F" d="M303.325,298.145l11.133,0.083"/>
	<path id="path174" fill="none" stroke="#FFFFFF" stroke-width="3.9999" d="M303.325,298.145l11.133,0.083"/>
	<path id="path176" fill="#02709F" d="M351.255,298.457l11.133,0.083"/>
	<path id="path178" fill="none" stroke="#FFFFFF" stroke-width="3.9999" d="M351.255,298.457l11.133,0.083"/>
	<path id="path180" fill="#02709F" d="M366.812,298.564l11.201,0.068"/>
	<path id="path182" fill="none" stroke="#FFFFFF" stroke-width="3.9999" d="M366.812,298.564l11.201,0.068"/>
	<path id="path184" fill="#02709F" d="M382.495,298.657l11.133,0.059"/>
	<path id="path186" fill="none" stroke="#FFFFFF" stroke-width="3.9999" d="M382.495,298.657l11.133,0.059"/>
	<path id="path188" fill="#02709F" d="M398.091,298.75l11.133,0.088"/>
	<path id="path190" fill="none" stroke="#FFFFFF" stroke-width="3.9999" d="M398.091,298.75l11.133,0.088"/>
	<path id="path192" fill="#02709F" d="M413.667,298.862l11.123,0.088"/>
	<path id="path194" fill="none" stroke="#FFFFFF" stroke-width="3.9999" d="M413.667,298.862l11.123,0.088"/>
	<path id="path196" fill="#02709F" d="M429.263,298.984l11.143,0.044"/>
	<path id="path198" fill="none" stroke="#FFFFFF" stroke-width="3.9999" d="M429.263,298.984l11.143,0.044"/>
	<path id="path200" fill="#02709F" d="M444.839,299.038l11.24,0.093"/>
	<path id="path202" fill="none" stroke="#FFFFFF" stroke-width="3.9999" d="M444.839,299.038l11.24,0.093"/>
	<path id="path204" fill="#02709F" d="M314.458,307.197l11.133,0.073"/>
	<path id="path206" fill="none" stroke="#FFFFFF" stroke-width="3.9999" d="M314.458,307.197l11.133,0.073"/>
	<path id="path208" fill="#02709F" d="M330.044,307.29l11.172,0.039"/>
	<path id="path210" fill="none" stroke="#FFFFFF" stroke-width="3.9999" d="M330.044,307.29l11.172,0.039"/>
	<path id="path212" fill="#02709F" d="M282.124,306.943l11.143,0.093"/>
	<path id="path214" fill="none" stroke="#FFFFFF" stroke-width="3.9999" d="M282.124,306.943l11.143,0.093"/>
	<path id="path216" fill="#02709F" d="M297.72,307.075l11.211,0.073"/>
	<path id="path218" fill="none" stroke="#FFFFFF" stroke-width="3.9999" d="M297.72,307.075l11.211,0.073"/>
	<path id="path220" fill="#02709F" d="M345.728,307.373l11.133,0.083"/>
	<path id="path222" fill="none" stroke="#FFFFFF" stroke-width="3.9999" d="M345.728,307.373l11.133,0.083"/>
	<path id="path224" fill="#02709F" d="M361.294,307.485l11.133,0.083"/>
	<path id="path226" fill="none" stroke="#FFFFFF" stroke-width="3.9999" d="M361.294,307.485l11.133,0.083"/>
	<path id="path228" fill="#02709F" d="M376.89,307.603l11.133,0.063"/>
	<path id="path230" fill="none" stroke="#FFFFFF" stroke-width="3.9999" d="M376.89,307.603l11.133,0.063"/>
	<path id="path232" fill="#02709F" d="M392.476,307.686l11.123,0.073"/>
	<path id="path234" fill="none" stroke="#FFFFFF" stroke-width="3.9999" d="M392.476,307.686l11.123,0.073"/>
	<path id="path236" fill="#02709F" d="M408.062,307.778l11.221,0.088"/>
	<path id="path238" fill="none" stroke="#FFFFFF" stroke-width="3.9999" d="M408.062,307.778l11.221,0.088"/>
	<path id="path240" fill="#02709F" d="M423.755,307.9l11.113,0.068"/>
	<path id="path242" fill="none" stroke="#FFFFFF" stroke-width="3.9999" d="M423.755,307.9l11.113,0.068"/>
	<path id="path244" fill="#02709F" d="M439.312,308.008l11.133,0.054"/>
	<path id="path246" fill="none" stroke="#FFFFFF" stroke-width="3.9999" d="M439.312,308.008l11.133,0.054"/>
	<path id="path248" fill="#02709F" d="M257.461,270.093c8.364,0,17.524,1.694,25.894-0.801c4.199-1.699,7.549-7.534,11.719-9.233
		c5.84-1.665,12.51-2.49,18.359,0.85c0.83,0.85,1.699,2.49,3.379,3.345c7.52,0.845,15.059,1.675,20.879,6.685
		c4.248,4.194,0.859,10.889,1.68,15.933c-1.68,0-4.16,3.34-4.16,1.636c-2.51-4.16-3.34-9.185-6.738-11.689
		c-4.971-1.685-10.811-2.524-15.791,0c-0.859,0,0,4.17,2.451,4.17c5.059,0,10.898,3.359,7.51,6.724
		c-10.82,10.889-27.568,7.544-42.607,5.85c-5.049,0-10.029-4.194-15.908-4.194"/>
	<path id="path250" fill="none" stroke="#FFFFFF" stroke-width="3.9999" d="M257.461,270.093c8.364,0,17.524,1.694,25.894-0.801
		c4.199-1.699,7.549-7.534,11.719-9.233c5.84-1.665,12.51-2.49,18.359,0.85c0.83,0.85,1.699,2.49,3.379,3.345
		c7.52,0.845,15.059,1.675,20.879,6.685c4.248,4.194,0.859,10.889,1.68,15.933c-1.68,0-4.16,3.34-4.16,1.636
		c-2.51-4.16-3.34-9.185-6.738-11.689c-4.971-1.685-10.811-2.524-15.791,0c-0.859,0,0,4.17,2.451,4.17
		c5.059,0,10.898,3.359,7.51,6.724c-10.82,10.889-27.568,7.544-42.607,5.85c-5.049,0-10.029-4.194-15.908-4.194"/>
	<path id="path252" fill="#02709F" d="M382.007,353.867c4.238,0.815,6.68-2.563,10.908-3.354c3.281-1.689,7.51,0,10.801-0.84
		c6.689-2.515,11.807-7.549,18.447-10.044c1.65-10.894,1.65-22.617,4.141-33.491c0.85,0.796,14.004-3.086,14.766-3.086
		c-0.762-2.515,1.65-6.685-0.762-7.539c-9.248-3.34-30.742-0.259-40.713,2.236c-0.83,0-0.83-0.85-0.83-1.709
		c-5.85,0-11.738-0.786-16.758,2.559c-6.689,4.18-3.291,12.534-4.141,20.068c-1.689,4.194-5.869,6.689-9.229,8.389
		c-2.539,1.68-6.68,2.49-9.219,5.039"/>
	<path id="path254" fill="none" stroke="#FFFFFF" stroke-width="3.9999" d="M382.007,353.867c4.238,0.815,6.68-2.563,10.908-3.354
		c3.281-1.689,7.51,0,10.801-0.84c6.689-2.515,11.807-7.549,18.447-10.044c1.65-10.894,1.65-22.617,4.141-33.491
		c0.85,0.796,14.004-3.086,14.766-3.086c-0.762-2.515,1.65-6.685-0.762-7.539c-9.248-3.34-30.742-0.259-40.713,2.236
		c-0.83,0-0.83-0.85-0.83-1.709c-5.85,0-11.738-0.786-16.758,2.559c-6.689,4.18-3.291,12.534-4.141,20.068
		c-1.689,4.194-5.869,6.689-9.229,8.389c-2.539,1.68-6.68,2.49-9.219,5.039"/>
	<path id="path256" fill="#02709F" d="M217.334,266.748c11.694,0,32.583-1.65,39.282,3.345c5.02,5.039,10.039,21.782,5.02,28.506
		c-1.699,3.345-15.049,4.18-21.719,4.18"/>
	<path id="path258" fill="none" stroke="#FFFFFF" stroke-width="3.9999" d="M217.334,266.748c11.694,0,32.583-1.65,39.282,3.345
		c5.02,5.039,10.039,21.782,5.02,28.506c-1.699,3.345-15.049,4.18-21.719,4.18"/>
	<path id="path260" fill="#02709F" d="M114.531,141.133c6.67,0,16.689-1.636,20.02,1.709c18.389,13.369,33.438,30.151,46.851,48.569
		c8.325,15.068,21.724,23.413,25.068,38.481c3.33,13.442,6.685,26.821,11.704,38.555c13.374,23.428,26.724,43.535,41.763,66.992
		c3.35,3.34,11.729,1.655,18.398,4.995c1.699,1.689,3.359,6.724,5.02,6.724c10.029,0,20.088,1.665,28.467-1.68
		c15.049-8.384,31.699-10.039,46.758-15.083c6.689,15.083,28.447,20.117,28.447,36.841c-18.389,11.743-36.797,20.127-55.156,30.151
		c-11.68,5.049-23.438,15.054-36.797,15.054c-8.369,0-46.797-15.054-48.486-11.704c-6.67,20.083,28.398,56.919,23.418,80.366
		c-6.719,25.156-10.068,46.934-15.039,72.002c-1.699,6.758-5.049,13.486-6.689,21.806c-1.689,5.059-5.029,10.049-8.359,13.457
		c-6.694,4.98-13.418,13.369-20.088,15.068c-8.35,3.271-17.534,0.791-25.913,4.131c-5,1.699-10.879,2.549-15.869,4.189
		c-8.359,5.039-20.078,1.66-21.743-3.34c-8.335-23.457-1.665-50.225-10.039-73.681c-16.694-46.924-30.776-87.705-61.851-140.688
		c-6.621-11.27-30.352-6.978-38.467-20.112c-26.367-42.847-4.99-112.178,10.059-170.82c3.35-15.063,17.549-36.025,32.588-41.016
		c5.02-3.364,6.68-6.709,11.729-8.379C106.987,148.667,107.822,141.133,114.531,141.133"/>
	<path id="path262" fill="none" stroke="#FFFFFF" stroke-width="3.9999" d="M114.531,141.133c6.67,0,16.689-1.636,20.02,1.709
		c18.389,13.369,33.438,30.151,46.851,48.569c8.325,15.068,21.724,23.413,25.068,38.481c3.33,13.442,6.685,26.821,11.704,38.555
		c13.374,23.428,26.724,43.535,41.763,66.992c3.35,3.34,11.729,1.655,18.398,4.995c1.699,1.689,3.359,6.724,5.02,6.724
		c10.029,0,20.088,1.665,28.467-1.68c15.049-8.384,31.699-10.039,46.758-15.083c6.689,15.083,28.447,20.117,28.447,36.841
		c-18.389,11.743-36.797,20.127-55.156,30.151c-11.68,5.049-23.438,15.054-36.797,15.054c-8.369,0-46.797-15.054-48.486-11.704
		c-6.67,20.083,28.398,56.919,23.418,80.366c-6.719,25.156-10.068,46.934-15.039,72.002c-1.699,6.758-5.049,13.486-6.689,21.806
		c-1.689,5.059-5.029,10.049-8.359,13.457c-6.694,4.98-13.418,13.369-20.088,15.068c-8.35,3.271-17.534,0.791-25.913,4.131
		c-5,1.699-10.879,2.549-15.869,4.189c-8.359,5.039-20.078,1.66-21.743-3.34c-8.335-23.457-1.665-50.225-10.039-73.681
		c-16.694-46.924-30.776-87.705-61.851-140.688c-6.621-11.27-30.352-6.978-38.467-20.112c-26.367-42.847-4.99-112.178,10.059-170.82
		c3.35-15.063,17.549-36.025,32.588-41.016c5.02-3.364,6.68-6.709,11.729-8.379C106.987,148.667,107.822,141.133,114.531,141.133
		L114.531,141.133z"/>
	<path id="path264" fill="#02709F" d="M85.273,582.431l77.744,29.326l-0.874-66.972c-57.661-149.082-66.87-148.242-66.87-148.242
		c-19.238-10.879-24.238-11.733-24.238-11.733c-27.583,1.704-42.632-30.942-42.632-30.942c-9.189-7.549-18.398,3.34-18.398,3.34
		L85.273,582.431"/>
	<path id="path266" fill="none" stroke="#FFFFFF" stroke-width="3.9999" d="M85.273,582.431l77.744,29.326l-0.874-66.972
		c-57.661-149.082-66.87-148.242-66.87-148.242c-19.238-10.879-24.238-11.733-24.238-11.733
		c-27.583,1.704-42.632-30.942-42.632-30.942c-9.189-7.549-18.398,3.34-18.398,3.34L85.273,582.431z"/>
</g>
</svg>
