<?xml version="1.0" encoding="utf-8"?>
<!-- Generator: Adobe Illustrator 16.0.0, SVG Export Plug-In . SVG Version: 6.00 Build 0)  -->
<!DOCTYPE svg PUBLIC "-//W3C//DTD SVG 1.1//EN" "http://www.w3.org/Graphics/SVG/1.1/DTD/svg11.dtd">
<svg version="1.1"
	 id="svg2" xmlns:dc="http://purl.org/dc/elements/1.1/" xmlns:cc="http://creativecommons.org/ns#" xmlns:rdf="http://www.w3.org/1999/02/22-rdf-syntax-ns#" xmlns:svg="http://www.w3.org/2000/svg"
	 xmlns="http://www.w3.org/2000/svg" xmlns:xlink="http://www.w3.org/1999/xlink" x="0px" y="0px" width="77px" height="69px"
	 viewBox="0 0 77 69" enable-background="new 0 0 77 69" xml:space="preserve">
<g id="g12" transform="scale(0.1,0.1)">
	<path id="path22" fill="#026C9B" d="M0,589.768h659.36V465.989H0V589.768z"/>
	<path id="path24" fill="none" stroke="#FFFFFF" stroke-width="4" d="M0,589.768h659.36V465.989H0V589.768z"/>
	<path id="path26" d="M457.29,535.852h166.27"/>
	<path id="path28" fill="none" stroke="#FFFFFF" stroke-width="4" d="M457.29,535.852h166.27"/>
	<path id="path30" fill="#026C9B" d="M457.29,529.885h166.27"/>
	<path id="path32" fill="none" stroke="#FFFFFF" stroke-width="4" d="M457.29,529.885h166.27"/>
	<path id="path34" fill="#026C9B" d="M770.005,472.18V361.692L659.36,465.989v123.047L770.005,472.18"/>
	<path id="path36" fill="none" stroke="#FFFFFF" stroke-width="4" d="M770.005,472.18V361.692L659.36,465.989v123.047
		L770.005,472.18z"/>
	<path id="path38" fill="#026C9B" d="M542.192,690.002v-27.471l60-82.988v50.83L542.192,690.002"/>
	<path id="path40" fill="none" stroke="#FFFFFF" stroke-width="4" d="M542.192,690.002v-27.471l60-82.988v50.83L542.192,690.002z"/>
	<path id="path42" fill="#026C9B" d="M14.634,690.002h527.559v-27.207H14.634V690.002z"/>
	<path id="path44" fill="none" stroke="#FFFFFF" stroke-width="4" d="M14.634,690.002h527.559v-27.207H14.634V690.002z"/>
	<path id="path46" fill="#026C9B" d="M542.192,662.795H14.634l60.986-83.252h526.572L542.192,662.795"/>
	<path id="path48" fill="none" stroke="#FFFFFF" stroke-width="4" d="M542.192,662.795H14.634l60.986-83.252h526.572
		L542.192,662.795z"/>
	<path id="path50" fill="#026C9B" d="M770.005,361.692H110.508L0,465.989h659.36L770.005,361.692"/>
	<path id="path52" fill="none" stroke="#FFFFFF" stroke-width="4" d="M770.005,361.692H110.508L0,465.989h659.36L770.005,361.692z"
		/>
	<path id="path54" fill="#026C9B" d="M117.983,404.973h454.893V71.829H117.983V404.973z"/>
	<path id="path56" fill="none" stroke="#FFFFFF" stroke-width="4" d="M117.983,404.973h454.893V71.829H117.983V404.973z"/>
	<path id="path58" fill="#026C9B" d="M156.362,144.905c0-33.408,34.644-38.33,34.644-38.33s267.612,0,299.858,0
		c42.109,0,40.762,39.521,40.762,39.521s0,163.311,0,186.885c0,23.408-32.246,33.252-32.246,33.252s-273.726,0-303.452,0
		c-29.712,0-39.565-30.869-39.565-30.869V144.905"/>
	<path id="path60" fill="none" stroke="#FFFFFF" stroke-width="4" d="M156.362,144.905c0-33.408,34.644-38.33,34.644-38.33
		s267.612,0,299.858,0c42.109,0,40.762,39.521,40.762,39.521s0,163.311,0,186.885c0,23.408-32.246,33.252-32.246,33.252
		s-273.726,0-303.452,0c-29.712,0-39.565-30.869-39.565-30.869V144.905z"/>
	<path id="path62" fill="#026C9B" d="M648.794,0.09H194.058l-76.074,71.738h454.893L648.794,0.09"/>
	<path id="path64" fill="none" stroke="#FFFFFF" stroke-width="4" d="M648.794,0.09H194.058l-76.074,71.738h454.893L648.794,0.09z"
		/>
	<path id="path66" fill="#026C9B" d="M648.813,333.899V0.002l-75.938,71.289v333.681L648.813,333.899"/>
	<path id="path68" fill="none" stroke="#FFFFFF" stroke-width="4" d="M648.813,333.899V0.002l-75.938,71.289v333.681
		L648.813,333.899z"/>
	<path id="path70" d="M335.415,243.792v60.83h-29.766l42.813,49.336l44.023-49.336h-32.373v-60.83H335.415"/>
	<path id="path72" fill="#FFFFFF" d="M326.626,243.303v60.83h-29.922l42.813,49.189l44.043-49.189h-32.383v-60.83H326.626"/>
	<path id="path74" d="M335.415,227.18v-60.83h-29.766l42.813-49.18l44.023,49.18h-32.373v60.83H335.415"/>
	<path id="path76" fill="#FFFFFF" d="M326.626,227.815v-60.83h-29.922l42.813-49.189l44.043,49.189h-32.383v60.83H326.626"/>
	<path id="path78" d="M487.974,257.932h-60.918v29.717l-49.258-42.744l49.258-43.984v32.334h60.918V257.932"/>
	<path id="path80" fill="#FFFFFF" d="M481.157,249.368h-60.918v29.727l-49.258-42.588l49.258-44.15v32.49h60.918V249.368"/>
	<path id="path82" d="M204.087,257.932h60.918v29.717l49.238-42.744l-49.238-43.984v32.334h-60.918V257.932"/>
	<path id="path84" fill="#FFFFFF" d="M201.582,249.368h60.923v29.727l49.258-42.588l-49.258-44.15v32.49h-60.923V249.368"/>
</g>
</svg>
