<?xml version="1.0" encoding="utf-8"?>
<!-- Generator: Adobe Illustrator 16.0.0, SVG Export Plug-In . SVG Version: 6.00 Build 0)  -->
<!DOCTYPE svg PUBLIC "-//W3C//DTD SVG 1.1//EN" "http://www.w3.org/Graphics/SVG/1.1/DTD/svg11.dtd">
<svg version="1.1"
	 id="svg2" xmlns:dc="http://purl.org/dc/elements/1.1/" xmlns:cc="http://creativecommons.org/ns#" xmlns:rdf="http://www.w3.org/1999/02/22-rdf-syntax-ns#" xmlns:svg="http://www.w3.org/2000/svg"
	 xmlns="http://www.w3.org/2000/svg" xmlns:xlink="http://www.w3.org/1999/xlink" x="0px" y="0px" width="75px" height="71px"
	 viewBox="0 0 75 71" enable-background="new 0 0 75 71" xml:space="preserve">
<g id="g12" transform="scale(0.1,0.1)">
	<path id="path22" fill="#02709F" d="M110.137,625.993h547.808V522.702H110.137V625.993z"/>
	<path id="path24" fill="none" stroke="#FFFFFF" stroke-width="3.9999" d="M110.137,625.993h547.808V522.702H110.137V625.993z"/>
	<path id="path26" fill="#02709F" d="M490.151,581.218h138.242"/>
	<path id="path28" fill="none" stroke="#FFFFFF" stroke-width="3.9999" d="M490.151,581.218h138.242"/>
	<path id="path30" fill="#02709F" d="M490.151,576.218h138.242"/>
	<path id="path32" fill="none" stroke="#FFFFFF" stroke-width="3.9999" d="M490.151,576.218h138.242"/>
	<path id="path34" fill="#02709F" d="M749.995,528.21v-92.5l-92.109,87.49v102.793L749.995,528.21"/>
	<path id="path36" fill="none" stroke="#FFFFFF" stroke-width="3.9999" d="M749.995,528.21v-92.5l-92.109,87.49v102.793
		L749.995,528.21z"/>
	<path id="path38" fill="#02709F" d="M560.776,709.997v-23.252l49.805-69.111v42.393L560.776,709.997"/>
	<path id="path40" fill="none" stroke="#FFFFFF" stroke-width="3.9999" d="M560.776,709.997v-23.252l49.805-69.111v42.393
		L560.776,709.997z"/>
	<path id="path42" fill="#02709F" d="M121.714,709.997h439.063v-22.803H121.714V709.997z"/>
	<path id="path44" fill="none" stroke="#FFFFFF" stroke-width="3.9999" d="M121.714,709.997h439.063v-22.803H121.714V709.997z"/>
	<path id="path46" fill="#02709F" d="M560.776,687.195H123.125l49.79-69.561h437.666L560.776,687.195"/>
	<path id="path48" fill="none" stroke="#FFFFFF" stroke-width="3.9999" d="M560.776,687.195H123.125l49.79-69.561h437.666
		L560.776,687.195z"/>
	<path id="path50" fill="#02709F" d="M749.995,435.847h-548.12l-91.738,86.855h547.808L749.995,435.847"/>
	<path id="path52" fill="none" stroke="#FFFFFF" stroke-width="3.9999" d="M749.995,435.847h-548.12l-91.738,86.855h547.808
		L749.995,435.847z"/>
	<path id="path54" fill="#02709F" d="M646.772,436.101H280.015l-61.479,58.35h366.733L646.772,436.101"/>
	<path id="path56" fill="none" stroke="#FFFFFF" stroke-width="3.9999" d="M646.772,436.101H280.015l-61.479,58.35h366.733
		L646.772,436.101z"/>
	<path id="path58" fill="#02709F" d="M208.066,471.687h377.827V193.728H208.066V471.687z"/>
	<path id="path60" fill="none" stroke="#FFFFFF" stroke-width="3.9999" d="M208.066,471.687h377.827V193.728H208.066V471.687z"/>
	<path id="path62" fill="#02709F" d="M239.956,254.69c0-27.896,28.853-32.007,28.853-32.007s222.456,0,249.097,0
		c35.039,0,34.102,33.052,34.102,33.052s0,136.255,0,155.932c0,19.688-26.855,27.91-26.855,27.91s-42.598,0-93.047,0
		c-65.938,0-145.117,0-159.204,0c-24.639,0-32.944-25.801-32.944-25.801V254.69"/>
	<path id="path64" fill="none" stroke="#FFFFFF" stroke-width="3.9999" d="M239.956,254.69c0-27.896,28.853-32.007,28.853-32.007
		s222.456,0,249.097,0c35.039,0,34.102,33.052,34.102,33.052s0,136.255,0,155.932c0,19.688-26.855,27.91-26.855,27.91
		s-42.598,0-93.047,0c-65.938,0-145.117,0-159.204,0c-24.639,0-32.944-25.801-32.944-25.801V254.69z"/>
	<path id="path66" fill="#02709F" d="M649.116,133.816H271.387l-63.32,59.912h377.827L649.116,133.816"/>
	<path id="path68" fill="none" stroke="#FFFFFF" stroke-width="3.9999" d="M649.116,133.816H271.387l-63.32,59.912h377.827
		L649.116,133.816z"/>
	<path id="path70" fill="#02709F" d="M649.116,412.517V133.728l-62.578,59.517v278.784L649.116,412.517"/>
	<path id="path72" fill="none" stroke="#FFFFFF" stroke-width="3.9999" d="M649.116,412.517V133.728l-62.578,59.517v278.784
		L649.116,412.517z"/>
	<path id="path74" d="M347.554,0.247l-8.75,5.166H0l8.682-5.415L347.554,0.247"/>
	<path id="path76" fill="#02709F" d="M347.603,337.322L347.554,0.247l-8.75,6.631v338.54L347.603,337.322"/>
	<path id="path78" fill="none" stroke="#FFFFFF" stroke-width="3.9999" d="M347.603,337.322L347.554,0.247l-8.75,6.631v338.54
		L347.603,337.322z"/>
	<path id="path80" fill="#02709F" d="M15.4,345.417h323.403V5.413H0v324.556L15.4,345.417"/>
	<path id="path82" fill="none" stroke="#FFFFFF" stroke-width="3.9999" d="M15.4,345.417h323.403V5.413H0v324.556L15.4,345.417z"/>
	<path id="path84" fill="#02709F" d="M313.14,5.413v196.074c0,14.268-11.465,11.631-11.465,11.631H35.908
		c0,0-10.244,1.245-10.244-10.298V5.413"/>
	<path id="path86" fill="none" stroke="#FFFFFF" stroke-width="3.9999" d="M313.14,5.413v196.074
		c0,14.268-11.465,11.631-11.465,11.631H35.908c0,0-10.244,1.245-10.244-10.298V5.413"/>
	<path id="path88" fill="none" stroke="#FFFFFF" stroke-width="3.9999" d="M5.186,40.125h15.4V24.68h-15.4V40.125z"/>
	<path id="path90" fill="none" stroke="#FFFFFF" stroke-width="3.9999" d="M318.354,40.125h15.391V24.68h-15.391V40.125z"/>
	<path id="path92" fill="#FFFFFF" d="M258.296,246.233v95.503H56.807v-96.748c0-10.4,11.606-9.058,11.606-9.058h179.624
		C259.644,235.93,258.296,246.233,258.296,246.233"/>
	<path id="path94" fill="none" stroke="#000000" stroke-width="3.9999" d="M258.296,246.233v95.503H56.807v-96.748
		c0-10.4,11.606-9.058,11.606-9.058h179.624C259.644,235.93,258.296,246.233,258.296,246.233z"/>
	<path id="path96" fill="none" stroke="#FFFFFF" stroke-width="3.9999" d="M313.14,345.417v-99.185c0,0,1.348-10.303-10.264-10.303
		H68.604c0,0-11.504-1.343-11.504,9.058v94.18"/>
	<path id="path98" d="M95.605,335.115h39.824v-92.808H95.605V335.115z"/>
	<path id="path100" fill="none" stroke="#FFFFFF" stroke-width="3.9999" d="M338.804,6.658l9.053-6.401"/>
</g>
</svg>
