<?xml version="1.0" encoding="utf-8"?>
<!-- Generator: Adobe Illustrator 16.0.0, SVG Export Plug-In . SVG Version: 6.00 Build 0)  -->
<!DOCTYPE svg PUBLIC "-//W3C//DTD SVG 1.1//EN" "http://www.w3.org/Graphics/SVG/1.1/DTD/svg11.dtd">
<svg version="1.1"
	 id="svg2" xmlns:dc="http://purl.org/dc/elements/1.1/" xmlns:cc="http://creativecommons.org/ns#" xmlns:rdf="http://www.w3.org/1999/02/22-rdf-syntax-ns#" xmlns:svg="http://www.w3.org/2000/svg"
	 xmlns="http://www.w3.org/2000/svg" xmlns:xlink="http://www.w3.org/1999/xlink" x="0px" y="0px" width="75px" height="65px"
	 viewBox="0 0 75 65" enable-background="new 0 0 75 65" xml:space="preserve">
<g id="g12" transform="scale(0.1,0.1)">
	<path id="path22" fill="#02709F" d="M374.263,516.069c142.773,0,258.477-115.557,258.477-257.929
		c0-142.583-115.703-258.145-258.477-258.145S115.796,115.557,115.796,258.14C115.796,400.512,231.489,516.069,374.263,516.069"/>
	<path id="path24" fill="none" stroke="#FFFFFF" stroke-width="3.9999" d="M374.263,516.069
		c142.773,0,258.477-115.557,258.477-257.929c0-142.583-115.703-258.145-258.477-258.145S115.796,115.557,115.796,258.14
		C115.796,400.512,231.489,516.069,374.263,516.069z"/>
	<path id="path26" fill="#02709F" d="M0,649.829L66.729,250.2c0,171.279,138.999,309.717,310.132,309.717
		c171.113,0,310.117-138.438,310.117-309.717l63.027,399.795L0,649.829"/>
	<path id="path28" fill="none" stroke="#FFFFFF" stroke-width="3.9999" d="M0,649.829L66.729,250.2
		c0,171.279,138.999,309.717,310.132,309.717c171.113,0,310.117-138.438,310.117-309.717l63.027,399.795L0,649.829z"/>
	<path id="path30" fill="#02709F" d="M197.31,325.405h352.148V208.052H197.31V325.405z"/>
	<path id="path32" fill="none" stroke="#FFFFFF" stroke-width="3.9999" d="M197.31,325.405h352.148V208.052H197.31V325.405z"/>
</g>
</svg>
