<?xml version="1.0" encoding="utf-8"?>
<!-- Generator: Adobe Illustrator 16.0.0, SVG Export Plug-In . SVG Version: 6.00 Build 0)  -->
<!DOCTYPE svg PUBLIC "-//W3C//DTD SVG 1.1//EN" "http://www.w3.org/Graphics/SVG/1.1/DTD/svg11.dtd">
<svg version="1.1"
	 id="svg2" xmlns:dc="http://purl.org/dc/elements/1.1/" xmlns:cc="http://creativecommons.org/ns#" xmlns:rdf="http://www.w3.org/1999/02/22-rdf-syntax-ns#" xmlns:svg="http://www.w3.org/2000/svg"
	 xmlns="http://www.w3.org/2000/svg" xmlns:xlink="http://www.w3.org/1999/xlink" x="0px" y="0px" width="55px" height="77px"
	 viewBox="0 0 55 77" enable-background="new 0 0 55 77" xml:space="preserve">
<g id="g12" transform="scale(0.1,0.1)">
	<path id="path14" fill="none" stroke="#231F20" stroke-width="4" stroke-miterlimit="10" d="M392.92,56.719
		c10.547-17.612,10.498-14.995,14.814-21.406c42.109-63.662,85.02-32.886,55.85,26.245c-24.082,48.896-26.475,52.046-35.908,68.262
		c-16.201,28.496-32.715,59.736-44.365,82.476"/>
	<path id="path16" fill="none" stroke="#231F20" stroke-width="4" stroke-miterlimit="10" d="M434.912,118.921
		c42.363-62.813,83.047-33.755,56.777,23.97c-22.305,49.316-28.281,51.27-36.475,68.672c-15.107,32.129-10.449,27.1-21.934,49.766"
		/>
	<path id="path18" fill="none" stroke="#231F20" stroke-width="4" stroke-miterlimit="10" d="M349.033,132.822
		c11.533-14.795,11.699-17.793,37.842-65.352c32.871-59.688-13.389-88.901-56.328-26.909c-45.4,65.635-56.855,84.37-82.178,113.521
		c-25.254,29.102-72.314,142.671-101.963,173.481c-19.717,20.586,8.193-59.858,5.645-83.276
		c-5.42-50.947-6.758-45.044-12.573-62.988c-5.913-17.866-42.305-49.663-49.932-22.144c-3.96,14.277-2.144,14.785,0.801,30.986
		c1.494,8.311-4.492,5.898-2.749,45.835c0.903,22.559-35.278,89.702-46.23,119.683c-23.242,63.672,2.446,66.924-7.09,119.726
		c-10.454,57.959,1.812,45.918-8.652,70.693C15.2,570.844-44.121,666.089-50,681.294"/>
	<path id="path20" fill="none" stroke="#231F20" stroke-width="4" stroke-miterlimit="10" d="M164.39,355.737
		c34.692,19.746,2.617,126.767,2.617,126.767"/>
	<path id="path22" fill="none" stroke="#231F20" stroke-width="4" stroke-miterlimit="10" d="M147.896,348.11
		c-8.184-10.459-8.418-17.275-8.418-17.275"/>
	<path id="path24" fill="#087EBE" d="M43.242,432.397h265.391L479.17,120.493H226.611L43.242,432.397"/>
	
		<path id="path26" fill="none" stroke="#FFFFFF" stroke-width="4" stroke-linecap="round" stroke-linejoin="round" stroke-miterlimit="10" d="
		M43.242,432.397h265.391L479.17,120.493H226.611L43.242,432.397z"/>
	<path id="path28" fill="#087EBE" d="M43.242,484.096h265.391v-51.689H43.242V484.096z"/>
	
		<path id="path30" fill="none" stroke="#FFFFFF" stroke-width="4" stroke-linecap="round" stroke-linejoin="round" stroke-miterlimit="10" d="
		M43.242,484.096h265.391v-51.689H43.242V484.096z"/>
	<path id="path32" fill="#087EBE" d="M479.17,120.493v48.379L308.633,484.096v-51.699L479.17,120.493"/>
	
		<path id="path34" fill="none" stroke="#FFFFFF" stroke-width="4" stroke-linecap="round" stroke-linejoin="round" stroke-miterlimit="10" d="
		M479.17,120.493v48.379L308.633,484.096v-51.699L479.17,120.493z"/>
	<path id="path36" fill="#FFFFFF" d="M434.521,151.948L322.246,360.571H115.151L236.23,151.948H434.521"/>
	
		<path id="path38" fill="none" stroke="#FFFFFF" stroke-width="1.926" stroke-linecap="round" stroke-linejoin="round" stroke-miterlimit="10" d="
		M434.521,151.948L322.246,360.571H115.151L236.23,151.948H434.521z"/>
	<path id="path40" fill="#FFFFFF" d="M125.444,389.517l-12.29,22.725H89.365l13.081-22.725H125.444"/>
	
		<path id="path42" fill="none" stroke="#FFFFFF" stroke-width="1.926" stroke-linecap="round" stroke-linejoin="round" stroke-miterlimit="10" d="
		M125.444,389.517l-12.29,22.725H89.365l13.081-22.725H125.444z"/>
	<path id="path44" fill="#FFFFFF" d="M309.111,389.517l-12.451,22.725h-23.672l13.057-22.725H309.111"/>
	
		<path id="path46" fill="none" stroke="#FFFFFF" stroke-width="1.926" stroke-linecap="round" stroke-linejoin="round" stroke-miterlimit="10" d="
		M309.111,389.517l-12.451,22.725h-23.672l13.057-22.725H309.111z"/>
	<path id="path48" fill="#FFFFFF" d="M263.301,389.517l-12.461,22.725h-23.672l13.047-22.725H263.301"/>
	
		<path id="path50" fill="none" stroke="#FFFFFF" stroke-width="1.926" stroke-linecap="round" stroke-linejoin="round" stroke-miterlimit="10" d="
		M263.301,389.517l-12.461,22.725h-23.672l13.047-22.725H263.301z"/>
	<path id="path52" fill="#FFFFFF" d="M215.313,389.517l-12.363,22.725h-23.76l13.145-22.725H215.313"/>
	
		<path id="path54" fill="none" stroke="#FFFFFF" stroke-width="1.926" stroke-linecap="round" stroke-linejoin="round" stroke-miterlimit="10" d="
		M215.313,389.517l-12.363,22.725h-23.76l13.145-22.725H215.313z"/>
	<path id="path56" fill="#FFFFFF" d="M170,389.517l-12.363,22.725h-23.76l13.145-22.725H170"/>
	
		<path id="path58" fill="none" stroke="#FFFFFF" stroke-width="1.926" stroke-linecap="round" stroke-linejoin="round" stroke-miterlimit="10" d="
		M170,389.517l-12.363,22.725h-23.76l13.145-22.725H170z"/>
	<path id="path60" fill="#FFFFFF" d="M134.038,769.995c15.073-23.271,87.339-129.697,94.058-131.553
		c74.629-20.332,160.02-186.338,199.902-234.648c8.594-10.547,16.074-31.143,19.863-40.742c1.934-4.766,18.77-40.371,28.291-57.119
		l14.971-68.33l2.48-60.068c0,0-23.809-56.88-37.422,16.104l-9.678,46.978c-4.424,7.314-20.713,31.318-25.039,41.763
		c-4.307,10.435-30.049,42.461-29.922,60.234"/>
	<path id="path62" fill="none" stroke="#231F20" stroke-width="4" stroke-miterlimit="10" d="M134.038,769.995
		c15.073-23.271,87.339-129.697,94.058-131.553c74.629-20.332,160.02-186.338,199.902-234.648
		c8.594-10.547,16.074-31.143,19.863-40.742c1.934-4.766,18.77-40.371,28.291-57.119l14.971-68.33l2.48-60.068
		c0,0-23.809-56.88-37.422,16.104l-9.678,46.978c-4.424,7.314-20.713,31.318-25.039,41.763
		c-4.307,10.435-30.049,42.461-29.922,60.234"/>
</g>
</svg>
