<?xml version="1.0" encoding="utf-8"?>
<!-- Generator: Adobe Illustrator 16.0.0, SVG Export Plug-In . SVG Version: 6.00 Build 0)  -->
<!DOCTYPE svg PUBLIC "-//W3C//DTD SVG 1.1//EN" "http://www.w3.org/Graphics/SVG/1.1/DTD/svg11.dtd">
<svg version="1.1"
	 id="svg2" xmlns:dc="http://purl.org/dc/elements/1.1/" xmlns:cc="http://creativecommons.org/ns#" xmlns:rdf="http://www.w3.org/1999/02/22-rdf-syntax-ns#" xmlns:svg="http://www.w3.org/2000/svg"
	 xmlns="http://www.w3.org/2000/svg" xmlns:xlink="http://www.w3.org/1999/xlink" x="0px" y="0px" width="76px" height="56px"
	 viewBox="0 0 76 56" enable-background="new 0 0 76 56" xml:space="preserve">
<g id="g12" transform="scale(0.1,0.1)">
	<path id="path22" fill="#02709F" d="M0.464,558.572H531.25V434.206H0.464V558.572z"/>
	<path id="path24" fill="none" stroke="#FFFFFF" stroke-width="3.9999" d="M0.464,558.572H531.25V434.206H0.464V558.572z"/>
	<path id="path26" fill="#02709F" d="M531.25,434.206H0l252.363-365.41H760L531.25,434.206"/>
	<path id="path28" fill="none" stroke="#FFFFFF" stroke-width="3.9999" d="M531.25,434.206H0l252.363-365.41H760L531.25,434.206z"/>
	<path id="path30" fill="#02709F" d="M760,68.796v233.554L531.25,559.997V434.206L760,68.796"/>
	<path id="path32" fill="none" stroke="#FFFFFF" stroke-width="3.9999" d="M760,68.796v233.554L531.25,559.997V434.206L760,68.796z"
		/>
	<path id="path34" fill="#02709F" d="M531.25,434.206L760,68.796"/>
	<path id="path36" fill="none" stroke="#FFFFFF" stroke-width="3.9999" d="M531.25,434.206L760,68.796"/>
	<path id="path38" fill="#02709F" d="M420.127,135.198c-32.627,37.407-72.764,81.06-98.467,123.325l2.207,27.422l-80.469,123.838
		l-9.287-80.332C249.355,268.181,439.258,28.445,482.998-0.002l9.111,80.723l-69.844,80.322L420.127,135.198"/>
	<path id="path40" fill="none" stroke="#FFFFFF" stroke-width="3.9999" d="M420.127,135.198
		c-32.627,37.407-72.764,81.06-98.467,123.325l2.207,27.422l-80.469,123.838l-9.287-80.332
		C249.355,268.181,439.258,28.445,482.998-0.002l9.111,80.723l-69.844,80.322L420.127,135.198z"/>
	<path id="path42" fill="#02709F" d="M139.121,329.45l-9.287,80.332h113.564l-9.287-80.332H139.121"/>
	<path id="path44" fill="none" stroke="#FFFFFF" stroke-width="3.9999" d="M139.121,329.45l-9.287,80.332h113.564l-9.287-80.332
		H139.121z"/>
	<path id="path46" fill="#02709F" d="M482.998-0.002c-43.74,28.447-233.643,268.184-248.887,329.453h-94.99
		C154.385,268.181,344.072,28.445,387.959-0.002H482.998"/>
	<path id="path48" fill="none" stroke="#FFFFFF" stroke-width="3.9999" d="M482.998-0.002
		c-43.74,28.447-233.643,268.184-248.887,329.453h-94.99C154.385,268.181,344.072,28.445,387.959-0.002H482.998z"/>
	<path id="path50" fill="#02709F" d="M318.789,392.448l112.295-159.863h168.613L499.512,392.448H318.789"/>
	<path id="path52" fill="none" stroke="#FFFFFF" stroke-width="3.9999" d="M318.789,392.448l112.295-159.863h168.613
		L499.512,392.448H318.789z"/>
	<path id="path54" fill="#02709F" d="M439.336,392.448l104.043-159.863"/>
	<path id="path56" fill="none" stroke="#FFFFFF" stroke-width="3.9999" d="M439.336,392.448l104.043-159.863"/>
	<path id="path58" fill="#02709F" d="M378.965,392.448l108.076-159.863"/>
	<path id="path60" fill="none" stroke="#FFFFFF" stroke-width="3.9999" d="M378.965,392.448l108.076-159.863"/>
	<path id="path62" fill="#02709F" d="M524.648,352.488H346.904"/>
	<path id="path64" fill="none" stroke="#FFFFFF" stroke-width="3.9999" d="M524.648,352.488H346.904"/>
	<path id="path66" fill="#02709F" d="M549.785,312.527H374.844"/>
	<path id="path68" fill="none" stroke="#FFFFFF" stroke-width="3.9999" d="M549.785,312.527H374.844"/>
	<path id="path70" fill="#02709F" d="M574.57,272.556H402.959"/>
	<path id="path72" fill="none" stroke="#FFFFFF" stroke-width="3.9999" d="M574.57,272.556H402.959"/>
</g>
</svg>
