<?xml version="1.0" encoding="utf-8"?>
<!-- Generator: Adobe Illustrator 16.0.0, SVG Export Plug-In . SVG Version: 6.00 Build 0)  -->
<!DOCTYPE svg PUBLIC "-//W3C//DTD SVG 1.1//EN" "http://www.w3.org/Graphics/SVG/1.1/DTD/svg11.dtd">
<svg version="1.1"
	 id="svg2" xmlns:dc="http://purl.org/dc/elements/1.1/" xmlns:cc="http://creativecommons.org/ns#" xmlns:rdf="http://www.w3.org/1999/02/22-rdf-syntax-ns#" xmlns:svg="http://www.w3.org/2000/svg"
	 xmlns="http://www.w3.org/2000/svg" xmlns:xlink="http://www.w3.org/1999/xlink" x="0px" y="0px" width="80px" height="36px"
	 viewBox="0 0 80 36" enable-background="new 0 0 80 36" xml:space="preserve">
<g id="g12" transform="scale(0.1,0.1)">
	<path id="path22" fill="#02709F" d="M15.339,349.177h630.693v-75.4H15.339V349.177z"/>
	<path id="path24" fill="none" stroke="#FFFFFF" stroke-width="3.9999" d="M15.339,349.177h630.693v-75.4H15.339V349.177z"/>
	<path id="path26" fill="#02709F" d="M646.033,273.777H14.998L168.245,51.702h616.753L646.033,273.777"/>
	<path id="path28" fill="none" stroke="#FFFFFF" stroke-width="3.9999" d="M646.033,273.777H14.998L168.245,51.702h616.753
		L646.033,273.777z"/>
	<path id="path30" fill="#02709F" d="M784.998,51.702V193.65L646.033,349.997v-76.221L784.998,51.702"/>
	<path id="path32" fill="none" stroke="#FFFFFF" stroke-width="3.9999" d="M784.998,51.702V193.65L646.033,349.997v-76.221
		L784.998,51.702z"/>
	<path id="path34" fill="#02709F" d="M58.132,248.171l44.18-64.678h327.92l-44.16,64.678H58.132"/>
	<path id="path36" fill="none" stroke="#FFFFFF" stroke-width="3.9999" d="M58.132,248.171l44.18-64.678h327.92l-44.16,64.678
		H58.132z"/>
	<path id="path38" fill="#02709F" d="M102.312,183.494l44.224-64.619"/>
	<path id="path40" fill="none" stroke="#FFFFFF" stroke-width="3.9999" d="M102.312,183.494l44.224-64.619"/>
	<path id="path42" fill="#02709F" d="M430.232,183.494l44.229-64.619"/>
	<path id="path44" fill="none" stroke="#FFFFFF" stroke-width="3.9999" d="M430.232,183.494l44.229-64.619"/>
	<path id="path46" fill="#02709F" d="M646.033,273.777L784.998,51.702"/>
	<path id="path48" fill="none" stroke="#FFFFFF" stroke-width="3.9999" d="M646.033,273.777L784.998,51.702"/>
	<path id="path50" fill="#02709F" d="M578.757,92.122c-19.883,22.671-44.219,49.185-59.902,74.849l1.357,16.709l-48.818,75.244
		l-5.713-48.955c9.355-37.09,124.541-182.739,151.025-199.971l5.732,49.028l-42.52,48.691L578.757,92.122"/>
	<path id="path52" fill="none" stroke="#FFFFFF" stroke-width="3.9999" d="M578.757,92.122
		c-19.883,22.671-44.219,49.185-59.902,74.849l1.357,16.709l-48.818,75.244l-5.713-48.955
		c9.355-37.09,124.541-182.739,151.025-199.971l5.732,49.028l-42.52,48.691L578.757,92.122z"/>
	<path id="path54" fill="#02709F" d="M408.113,209.968l-5.713,48.955h68.994l-5.713-48.955H408.113"/>
	<path id="path56" fill="none" stroke="#FFFFFF" stroke-width="3.9999" d="M408.113,209.968l-5.713,48.955h68.994l-5.713-48.955
		H408.113z"/>
	<path id="path58" fill="#02709F" d="M616.707,9.998c-26.484,17.231-141.67,162.881-151.025,199.971h-57.568
		c9.229-37.09,124.404-182.739,151.035-199.971H616.707"/>
	<path id="path60" fill="none" stroke="#FFFFFF" stroke-width="3.9999" d="M616.707,9.998
		c-26.484,17.231-141.67,162.881-151.025,199.971h-57.568c9.229-37.09,124.404-182.739,151.035-199.971H616.707z"/>
	<path id="path62" fill="#02709F" d="M517.185,248.269l68.018-97.051h102.549l-60.83,97.051H517.185"/>
	<path id="path64" fill="none" stroke="#FFFFFF" stroke-width="3.9999" d="M517.185,248.269l68.018-97.051h102.549l-60.83,97.051
		H517.185z"/>
	<path id="path66" fill="#02709F" d="M590.31,248.269l63.213-97.051"/>
	<path id="path68" fill="none" stroke="#FFFFFF" stroke-width="3.9999" d="M590.31,248.269l63.213-97.051"/>
	<path id="path70" fill="#02709F" d="M553.689,248.269l65.752-97.051"/>
	<path id="path72" fill="none" stroke="#FFFFFF" stroke-width="3.9999" d="M553.689,248.269l65.752-97.051"/>
	<path id="path74" fill="#02709F" d="M642.107,224.05H534.128"/>
	<path id="path76" fill="none" stroke="#FFFFFF" stroke-width="3.9999" d="M642.107,224.05H534.128"/>
	<path id="path78" fill="#02709F" d="M657.273,199.705H551.208"/>
	<path id="path80" fill="none" stroke="#FFFFFF" stroke-width="3.9999" d="M657.273,199.705H551.208"/>
	<path id="path82" fill="#02709F" d="M672.458,175.496H568.259"/>
	<path id="path84" fill="none" stroke="#FFFFFF" stroke-width="3.9999" d="M672.458,175.496H568.259"/>
</g>
</svg>
