<svg version="1.1" id="ilhwsa8q1" xmlns:xml="http://www.w3.org/XML/1998/namespace"
	 xmlns="http://www.w3.org/2000/svg" xmlns:xlink="http://www.w3.org/1999/xlink" x="0px" y="0px" width="57px" height="76px"
	 viewBox="0 0 57 76" enable-background="new 0 0 57 76" xml:space="preserve">
<g>
	<path fill="#786D7D" d="M8.245,58.868H0.703C0.353,58.868,0,59.307,0,59.745v15.289c0,0.526,0.353,0.877,0.703,0.877h55.6
		c0.348,0,0.697-0.438,0.697-0.877V59.836c0-0.529-0.35-0.877-0.697-0.877H31.307L8.245,58.868z"/>
	<path fill="#333542" d="M55.688,76H1.317C0.616,76,0,75.297,0,74.416l0,0c0-0.877,0.616-1.575,1.317-1.575h54.369
		c0.705,0,1.313,0.698,1.313,1.575l0,0C57,75.297,56.391,76,55.688,76z"/>
	<path fill="#2E3238" d="M32.271,13.53L32.271,13.53c0.438,0,0.785-0.35,0.785-0.788V0.793C33.059,0.352,32.71,0,32.271,0l0,0
		c-0.438,0-0.785,0.352-0.785,0.792v11.86C31.486,13.18,31.834,13.53,32.271,13.53z"/>
	<path fill="#24424A" d="M37.354,67.828c-7.539,2.99-15.167,2.99-22.708,0c-0.438-0.18-0.791-0.618-0.791-0.967
		c1.492-17.838,1.492-35.583,0-53.417c0-0.353,0.353-0.792,0.791-0.966c7.539-2.99,15.168-2.99,22.708,0
		c0.443,0.175,0.797,0.613,0.797,0.966c-1.491,17.835-1.491,35.58,0,53.417C38.15,67.21,37.798,67.648,37.354,67.828z"/>
	<path fill="#FFFFFF" d="M33.325,35.758H19.033c-0.965,0-1.755-0.788-1.755-1.754V19.768c0-0.966,0.791-1.754,1.755-1.754h14.292
		c0.966,0,1.752,0.788,1.752,1.754v14.321C35.077,34.97,34.291,35.758,33.325,35.758z"/>
	<g>
		<path fill="#FFFFFF" d="M20.963,40.592h-2.547c-0.612,0-1.139-0.527-1.139-1.142l0,0c0-0.616,0.526-1.141,1.139-1.141h2.547
			c0.611,0,1.138,0.524,1.138,1.141l0,0C22.101,40.152,21.664,40.592,20.963,40.592z"/>
		<path fill="#FFFFFF" d="M27.274,40.592h-2.542c-0.617,0-1.14-0.527-1.14-1.142l0,0c0-0.616,0.523-1.141,1.14-1.141h2.542
			c0.615,0,1.138,0.524,1.138,1.141l0,0C28.412,40.152,27.889,40.592,27.274,40.592z"/>
		<path fill="#FFFFFF" d="M33.585,40.592h-2.536c-0.617,0-1.145-0.527-1.145-1.142l0,0c0-0.616,0.527-1.141,1.145-1.141h2.536
			c0.617,0,1.144,0.524,1.144,1.141l0,0C34.729,40.152,34.202,40.592,33.585,40.592z"/>
	</g>
	<g>
		<path fill="#FFFFFF" d="M20.963,44.807h-2.547c-0.612,0-1.139-0.525-1.139-1.136l0,0c0-0.618,0.526-1.146,1.139-1.146h2.547
			c0.611,0,1.138,0.525,1.138,1.146l0,0C22.101,44.28,21.664,44.807,20.963,44.807z"/>
		<path fill="#FFFFFF" d="M27.274,44.807h-2.542c-0.617,0-1.14-0.525-1.14-1.136l0,0c0-0.618,0.523-1.146,1.14-1.146h2.542
			c0.615,0,1.138,0.525,1.138,1.146l0,0C28.412,44.28,27.889,44.807,27.274,44.807z"/>
		<path fill="#FFFFFF" d="M33.585,44.807h-2.536c-0.617,0-1.145-0.525-1.145-1.136l0,0c0-0.618,0.527-1.146,1.145-1.146h2.536
			c0.617,0,1.144,0.525,1.144,1.146l0,0C34.729,44.28,34.202,44.807,33.585,44.807z"/>
	</g>
	<g>
		<path fill="#FFFFFF" d="M20.963,53.158h-2.547c-0.612,0-1.139-0.528-1.139-1.146l0,0c0-0.613,0.526-1.138,1.139-1.138h2.547
			c0.611,0,1.138,0.522,1.138,1.138l0,0C22.101,52.72,21.664,53.158,20.963,53.158z"/>
		<path fill="#FFFFFF" d="M27.274,53.158h-2.542c-0.617,0-1.14-0.528-1.14-1.146l0,0c0-0.613,0.523-1.138,1.14-1.138h2.542
			c0.615,0,1.138,0.522,1.138,1.138l0,0C28.412,52.72,27.889,53.158,27.274,53.158z"/>
		<path fill="#FFFFFF" d="M33.585,53.158h-2.536c-0.617,0-1.145-0.528-1.145-1.146l0,0c0-0.613,0.527-1.138,1.145-1.138h2.536
			c0.617,0,1.144,0.522,1.144,1.138l0,0C34.729,52.72,34.202,53.158,33.585,53.158z"/>
	</g>
	<g>
		<path fill="#FFFFFF" d="M20.963,57.373h-2.547c-0.612,0-1.139-0.527-1.139-1.146l0,0c0-0.606,0.526-1.136,1.139-1.136h2.547
			c0.611,0,1.138,0.527,1.138,1.136l0,0C22.101,56.846,21.664,57.373,20.963,57.373z"/>
		<path fill="#FFFFFF" d="M27.274,57.373h-2.542c-0.617,0-1.14-0.527-1.14-1.146l0,0c0-0.606,0.523-1.136,1.14-1.136h2.542
			c0.615,0,1.138,0.527,1.138,1.136l0,0C28.412,56.846,27.889,57.373,27.274,57.373z"/>
		<path fill="#FFFFFF" d="M33.585,57.373h-2.536c-0.617,0-1.145-0.527-1.145-1.146l0,0c0-0.606,0.527-1.136,1.145-1.136h2.536
			c0.617,0,1.144,0.527,1.144,1.136l0,0C34.729,56.846,34.202,57.373,33.585,57.373z"/>
	</g>
	<g>
		<path fill="#FFFFFF" d="M20.963,49.023h-2.547c-0.612,0-1.139-0.522-1.139-1.139l0,0c0-0.615,0.526-1.146,1.139-1.146h2.547
			c0.611,0,1.138,0.526,1.138,1.146l0,0C22.101,48.5,21.664,49.023,20.963,49.023z"/>
		<path fill="#FFFFFF" d="M27.274,49.023h-2.542c-0.617,0-1.14-0.522-1.14-1.139l0,0c0-0.615,0.523-1.146,1.14-1.146h2.542
			c0.615,0,1.138,0.526,1.138,1.146l0,0C28.412,48.5,27.889,49.023,27.274,49.023z"/>
		<path fill="#FFFFFF" d="M33.585,49.023h-2.536c-0.617,0-1.145-0.522-1.145-1.139l0,0c0-0.615,0.527-1.146,1.145-1.146h2.536
			c0.617,0,1.144,0.526,1.144,1.146l0,0C34.729,48.5,34.202,49.023,33.585,49.023z"/>
	</g>
	<g>
		<path fill="#FFFFFF" d="M20.963,61.59h-2.547c-0.612,0-1.139-0.527-1.139-1.137l0,0c0-0.617,0.526-1.146,1.139-1.146h2.547
			c0.611,0,1.138,0.529,1.138,1.146l0,0C22.101,61.063,21.664,61.59,20.963,61.59z"/>
		<path fill="#FFFFFF" d="M27.274,61.59h-2.542c-0.617,0-1.14-0.527-1.14-1.137l0,0c0-0.617,0.523-1.146,1.14-1.146h2.542
			c0.615,0,1.138,0.529,1.138,1.146l0,0C28.412,61.063,27.889,61.59,27.274,61.59z"/>
		<path fill="#FFFFFF" d="M33.585,61.59h-2.536c-0.617,0-1.145-0.527-1.145-1.137l0,0c0-0.617,0.527-1.146,1.145-1.146h2.536
			c0.617,0,1.144,0.529,1.144,1.146l0,0C34.729,61.063,34.202,61.59,33.585,61.59z"/>
	</g>
	<path fill="#2E3238" d="M33.501,65.984c-4.999,0.18-10.086,0.18-15.085,0c-0.438,0-0.787-0.267-0.787-0.438v-0.09
		c0-0.259,0.438-0.351,0.876-0.351c4.909,0.166,9.907,0.166,14.82,0c0.438,0,0.877,0.166,0.877,0.351v0.09
		C34.291,65.807,34.021,65.984,33.501,65.984z"/>
	<path fill="#333542" d="M50.514,61.33c1.694,0,3.064,1.373,3.064,3.068c0,1.699-1.37,3.08-3.064,3.08
		c-1.693,0-3.072-1.381-3.072-3.08C47.439,62.703,48.82,61.33,50.514,61.33z"/>
	<path fill="#FFFFFF" d="M26.483,13.883c0.439,0,0.791,0.352,0.791,0.792c0,0.436-0.352,0.788-0.791,0.788
		c-0.435,0-0.786-0.353-0.786-0.788C25.697,14.235,26.048,13.883,26.483,13.883z"/>
</g>
</svg>
