<?xml version="1.0" encoding="utf-8"?>
<!-- Generator: Adobe Illustrator 16.0.0, SVG Export Plug-In . SVG Version: 6.00 Build 0)  -->
<!DOCTYPE svg PUBLIC "-//W3C//DTD SVG 1.1//EN" "http://www.w3.org/Graphics/SVG/1.1/DTD/svg11.dtd">
<svg version="1.1"
	 id="svg2" xmlns:dc="http://purl.org/dc/elements/1.1/" xmlns:cc="http://creativecommons.org/ns#" xmlns:rdf="http://www.w3.org/1999/02/22-rdf-syntax-ns#" xmlns:svg="http://www.w3.org/2000/svg"
	 xmlns="http://www.w3.org/2000/svg" xmlns:xlink="http://www.w3.org/1999/xlink" x="0px" y="0px" width="80px" height="54px"
	 viewBox="0 0 80 54" enable-background="new 0 0 80 54" xml:space="preserve">
<g id="g12" transform="scale(0.1,0.1)">
	<path id="path22" fill="#026C9B" d="M785,160.042c0,82.891-172.295,150.039-385,150.039c-212.7,0-385-67.148-385-150.039v219.931
		c0,82.891,172.3,150.029,385,150.029c212.705,0,385-67.139,385-150.029V160.042"/>
	<path id="path24" fill="none" stroke="#FFFFFF" stroke-width="4" d="M785,160.042c0,82.891-172.295,150.039-385,150.039
		c-212.7,0-385-67.148-385-150.039v219.931c0,82.891,172.3,150.029,385,150.029c212.705,0,385-67.139,385-150.029V160.042z"/>
	<path id="path26" fill="#026C9B" d="M785,160.042c0,82.891-172.295,150.039-385,150.039c-212.7,0-385-67.148-385-150.039v219.931
		c0,82.891,172.3,150.029,385,150.029c212.705,0,385-67.139,385-150.029V160.042"/>
	<path id="path28" fill="none" stroke="#FFFFFF" stroke-width="4" d="M785,160.042c0,82.891-172.295,150.039-385,150.039
		c-212.7,0-385-67.148-385-150.039v219.931c0,82.891,172.3,150.029,385,150.029c212.705,0,385-67.139,385-150.029V160.042z"/>
	<path id="path30" fill="#026C9B" d="M400,310.08c212.705,0,385-67.148,385-150.039S612.705,10.002,400,10.002
		c-212.7,0-385,67.148-385,150.039S187.3,310.08,400,310.08"/>
	<path id="path32" fill="none" stroke="#FFFFFF" stroke-width="4" d="M400,310.08c212.705,0,385-67.148,385-150.039
		S612.705,10.002,400,10.002c-212.7,0-385,67.148-385,150.039S187.3,310.08,400,310.08z"/>
	<path id="path34" fill="#FFFFFF" d="M286.406,243.313v-194.6l185.244,94.014L286.406,243.313"/>
	<path id="path36" fill="#FFFFFF" d="M475,234.534h57.441V54.163H475V234.534z"/>
</g>
</svg>
