<?xml version="1.0" encoding="utf-8"?>
<!-- Generator: Adobe Illustrator 16.0.0, SVG Export Plug-In . SVG Version: 6.00 Build 0)  -->
<!DOCTYPE svg PUBLIC "-//W3C//DTD SVG 1.1//EN" "http://www.w3.org/Graphics/SVG/1.1/DTD/svg11.dtd">
<svg version="1.1" id="图层_1" xmlns="http://www.w3.org/2000/svg" xmlns:xlink="http://www.w3.org/1999/xlink" x="0px" y="0px"
	 width="512px" height="512px" viewBox="0 0 512 512" enable-background="new 0 0 512 512" xml:space="preserve">
<g>
	<path fill="#3F4751" d="M498.389,101.527c-10.829-62.573-25.871-77.413-89.246-88.544c-40.411-7.02-97.368-11.131-156.331-11.131
		c-58.461,0-112.51,3.811-152.119,10.729C38.12,23.411,23.28,38.453,12.149,101.828c-14.64,83.931-14.941,225.121-0.501,308.451
		c10.829,62.572,25.871,77.413,89.246,88.544c40.411,7.12,97.569,11.131,156.632,11.131c58.261,0,112.21-3.812,151.818-10.629
		c62.573-10.83,77.413-25.872,88.544-89.246C512.628,326.146,512.828,184.856,498.389,101.527 M482.545,407.37
		c-9.927,56.856-19.854,66.884-75.809,76.611c-38.808,6.719-91.753,10.428-149.211,10.428c-58.261,0-114.315-4.011-153.925-10.931
		c-56.857-9.927-66.884-19.854-76.511-75.809C12.95,325.845,13.151,187.062,27.59,104.635c9.927-56.857,19.855-66.884,75.809-76.511
		c38.807-6.719,91.954-10.429,149.512-10.429c58.06,0,114.115,4.011,153.624,10.93c56.856,9.927,66.884,19.855,76.611,75.809
		C497.186,186.06,496.985,324.843,482.545,407.37"/>
	<polygon fill="#3F4751" points="290.166,119.25 311.994,133.533 140.08,192.278 166.773,209.402 341.537,152.49 363.457,167.136 
		190.948,225.518 219.656,245.832 390.616,184.87 417.083,201.847 213.612,274.372 93.745,184.723 	"/>
	<polygon fill="#3F4751" points="93.745,211.794 213.486,301.6 417.209,228.75 417.083,255.933 213.486,330.276 93.745,239.061 	"/>
	<polygon fill="#3F4751" points="93.871,266.216 213.612,358.732 417.209,282.682 417.209,307.36 214.116,386.935 93.871,294.668 	
		"/>
</g>
</svg>
