<?xml version="1.0" encoding="utf-8"?>
<!-- Generator: Adobe Illustrator 16.0.0, SVG Export Plug-In . SVG Version: 6.00 Build 0)  -->
<!DOCTYPE svg PUBLIC "-//W3C//DTD SVG 1.1//EN" "http://www.w3.org/Graphics/SVG/1.1/DTD/svg11.dtd">
<svg version="1.1"
	 id="svg2" xmlns:dc="http://purl.org/dc/elements/1.1/" xmlns:cc="http://creativecommons.org/ns#" xmlns:rdf="http://www.w3.org/1999/02/22-rdf-syntax-ns#" xmlns:svg="http://www.w3.org/2000/svg"
	 xmlns="http://www.w3.org/2000/svg" xmlns:xlink="http://www.w3.org/1999/xlink" x="0px" y="0px" width="77px" height="49px"
	 viewBox="0 0 77 49" enable-background="new 0 0 77 49" xml:space="preserve">
<g id="g12" transform="scale(0.1,0.1)">
	<path id="path14" fill="#087FBF" d="M708.34,314.175l47.5-249.79H393.701l-53.359,249.79H708.34"/>
	<path id="path16" fill="none" stroke="#FFFFFF" stroke-width="4" d="M708.34,314.175l47.5-249.79H393.701l-53.359,249.79H708.34z"
		/>
	<path id="path18" fill="#087FBF" d="M755.84,64.385L770,82.72l-44.17,242.246l-17.49-10.791L755.84,64.385"/>
	<path id="path20" fill="none" stroke="#FFFFFF" stroke-width="4" d="M755.84,64.385L770,82.72l-44.17,242.246l-17.49-10.791
		L755.84,64.385z"/>
	<path id="path22" fill="#087FBF" d="M340.342,314.175l15.82,10.791H725.83l-17.49-10.791H340.342"/>
	<path id="path24" fill="none" stroke="#FFFFFF" stroke-width="4" d="M340.342,314.175l15.82,10.791H725.83l-17.49-10.791H340.342z"
		/>
	<path id="path26" fill="#087FBF" d="M711.689,331.265v37.041l-9.561,8.359c0,0-22.49,6.66-17.52,20l-100.313,93.33v-40.869
		L711.689,331.265"/>
	<path id="path28" fill="none" stroke="#FFFFFF" stroke-width="4" d="M711.689,331.265v37.041l-9.561,8.359c0,0-22.49,6.66-17.52,20
		l-100.313,93.33v-40.869L711.689,331.265z"/>
	<path id="path30" fill="#087FBF" d="M185.078,489.995h399.219v-40.869H185.078V489.995z"/>
	<path id="path32" fill="none" stroke="#FFFFFF" stroke-width="4" d="M185.078,449.126v40.869h399.219v-40.869H185.078"/>
	<path id="path34" fill="#087FBF" d="M344.507,333.745l367.183-2.48L584.297,449.126H185.078L344.507,333.745"/>
	<path id="path36" fill="none" stroke="#FFFFFF" stroke-width="4" d="M344.507,333.745l367.183-2.48L584.297,449.126H185.078
		L344.507,333.745z"/>
	<path id="path38" fill="#087FBF" d="M677.627,289.858l37.939-195.664H421.055l-37.92,195.664H677.627"/>
	<path id="path40" fill="none" stroke="#FFFFFF" stroke-width="4" d="M677.627,289.858l37.939-195.664H421.055l-37.92,195.664
		H677.627z"/>
	<path id="path42" fill="none" stroke="#FFFFFF" stroke-linejoin="round" d="M353.14,336.323l-92.598,74.863"/>
	<path id="path44" fill="none" stroke="#FFFFFF" stroke-linejoin="round" d="M382.861,336.323l-92.588,74.863"/>
	<path id="path46" fill="none" stroke="#FFFFFF" stroke-linejoin="round" d="M412.627,336.323l-92.622,74.863"/>
	<path id="path48" fill="none" stroke="#FFFFFF" stroke-linejoin="round" d="M442.334,336.323l-92.593,74.863"/>
	<path id="path50" fill="none" stroke="#FFFFFF" stroke-linejoin="round" d="M472.09,336.323l-92.627,74.863"/>
	<path id="path52" fill="none" stroke="#FFFFFF" stroke-linejoin="round" d="M501.797,336.323l-92.598,74.863"/>
	<path id="path54" fill="none" stroke="#FFFFFF" stroke-linejoin="round" d="M531.563,336.323l-92.598,74.863"/>
	<path id="path56" fill="none" stroke="#FFFFFF" stroke-linejoin="round" d="M561.27,336.323l-92.598,74.863"/>
	<path id="path58" fill="none" stroke="#FFFFFF" stroke-linejoin="round" d="M591.025,336.323l-92.598,74.863"/>
	<path id="path60" fill="none" stroke="#FFFFFF" stroke-linejoin="round" d="M620.791,336.323l-92.656,74.863"/>
	<path id="path62" fill="none" stroke="#FFFFFF" stroke-linejoin="round" d="M650.498,336.323L557.9,411.186"/>
	<path id="path64" fill="none" stroke="#FFFFFF" stroke-linejoin="round" d="M680.254,336.323l-92.637,74.863"/>
	<path id="path66" fill="none" stroke="#FFFFFF" stroke-linejoin="round" d="M270.894,403.266h329.683"/>
	<path id="path68" fill="none" stroke="#FFFFFF" stroke-linejoin="round" d="M293.052,386.157h324.556"/>
	<path id="path70" fill="none" stroke="#FFFFFF" stroke-linejoin="round" d="M316.064,369.018h323.721"/>
	<path id="path72" fill="none" stroke="#FFFFFF" stroke-linejoin="round" d="M336.523,351.841h326.25"/>
	<path id="path74" fill="#FFFFFF" d="M570.342,142.808c24.141,20.449,52.598,53.008,53.887,73.086
		c1.318,20.049-9.004,25.186-17.646,31.445c-8.73,6.24-25.928,7.148-25.928,7.148l-18.887-22.891c0,0,38.887-4.238,32.783-26.475
		C588.389,182.905,546.25,122.378,570.342,142.808"/>
	<path id="path76" fill="#FFFFFF" d="M576.045,203.159l19.688,73.564l-46.602-26.934L576.045,203.159z"/>
	<path id="path78" fill="#FFFFFF" d="M524.932,254.517c-24.072-20.459-52.588-53.027-53.906-73.091
		c-1.23-20.044,9.004-25.2,17.734-31.45c8.701-6.25,25.83-7.104,25.83-7.104l18.975,22.827c0,0-38.887,4.268-32.773,26.499
		C506.904,214.419,549.014,274.927,524.932,254.517"/>
	<path id="path80" fill="#FFFFFF" d="M520.273,195.21l-19.678-73.584l46.621,26.934L520.273,195.21z"/>
	<path id="path82" fill="#087FBF" d="M562.021,58.613c16.191,0,29.268-13.13,29.268-29.312C591.289,13.125,578.213,0,562.021,0
		c-16.152,0-29.277,13.125-29.277,29.302C532.744,45.483,545.869,58.613,562.021,58.613"/>
	<path id="path84" fill="none" stroke="#FFFFFF" stroke-width="2.56" d="M562.021,58.613c16.191,0,29.268-13.13,29.268-29.312
		C591.289,13.125,578.213,0,562.021,0c-16.152,0-29.277,13.125-29.277,29.302C532.744,45.483,545.869,58.613,562.021,58.613z"/>
	<path id="path86" fill="#087FBF" d="M519.629,73.774l7.568-45.366c0,19.434,15.723,35.171,35.137,35.171
		c19.424,0,35.156-15.737,35.156-35.171l7.119,45.415L519.629,73.774"/>
	<path id="path88" fill="#FFFFFF" d="M541.982,36.929h39.922V23.633h-39.922V36.929z"/>
	<path id="path90" fill="#231F20" d="M28.975,397.475c3.364,7.646-0.107,16.582-7.793,19.902
		c-7.622,3.389-16.563-0.098-19.912-7.744c-3.345-7.637,0.146-16.572,7.783-19.951C16.724,386.333,25.625,389.78,28.975,397.475"/>
	<path id="path92" fill="none" stroke="#FFFFFF" stroke-width="20" d="M28.975,397.475c3.364,7.646-0.107,16.582-7.793,19.902
		c-7.622,3.389-16.563-0.098-19.912-7.744c-3.345-7.637,0.146-16.572,7.783-19.951C16.724,386.333,25.625,389.78,28.975,397.475z"/>
	<path id="path94" fill="none" stroke="#FFFFFF" stroke-width="20" stroke-linejoin="round" d="M282.261,313.794
		c-35.854,33.125-111.851,70.859-179.731,87.969c-44.761,11.357-75.903,11.201-87.393,1.787"/>
	<path id="path96" fill="none" stroke="#FFFFFF" stroke-width="20" stroke-linejoin="round" d="M88.086,314.937
		c-0.405-26.436,6.68-56.563,21.88-86.611c37.666-74.531,110.869-120.293,163.511-102.192
		c52.651,18.071,64.829,93.149,27.153,167.671c-3.569,7.061-7.451,13.857-11.621,20.381"/>
	<path id="path98" fill="#231F20" d="M312.896,303.687c5.82,13.252-0.2,28.613-13.403,34.434
		c-13.213,5.732-28.584-0.264-34.39-13.447c-5.781-13.252,0.239-28.633,13.423-34.434
		C291.729,284.419,307.119,290.444,312.896,303.687"/>
	<path id="path100" fill="none" stroke="#FFFFFF" stroke-width="20" d="M312.896,303.687c5.82,13.252-0.2,28.613-13.403,34.434
		c-13.213,5.732-28.584-0.264-34.39-13.447c-5.781-13.252,0.239-28.633,13.423-34.434
		C291.729,284.419,307.119,290.444,312.896,303.687z"/>
	<path id="path102" fill="#231F20" d="M101.621,308.823c3.345,7.646-0.137,16.592-7.769,19.912
		c-7.656,3.379-16.558-0.117-19.907-7.764c-3.35-7.617,0.117-16.563,7.749-19.941C89.341,297.69,98.267,301.196,101.621,308.823"/>
	<path id="path104" fill="none" stroke="#FFFFFF" stroke-width="20" d="M101.621,308.823c3.345,7.646-0.137,16.592-7.769,19.912
		c-7.656,3.379-16.558-0.117-19.907-7.764c-3.35-7.617,0.117-16.563,7.749-19.941C89.341,297.69,98.267,301.196,101.621,308.823z"/>
	<path id="path106" fill="#231F20" d="M28.975,397.475c3.364,7.646-0.107,16.582-7.793,19.902
		c-7.622,3.389-16.563-0.098-19.912-7.744c-3.345-7.637,0.146-16.572,7.783-19.951C16.724,386.333,25.625,389.78,28.975,397.475"/>
	<path id="path108" fill="none" stroke="#000000" stroke-width="4" stroke-linejoin="round" d="M282.261,313.794
		c-35.854,33.125-111.851,70.859-179.731,87.969c-44.761,11.357-75.903,11.201-87.393,1.787"/>
	<path id="path110" fill="none" stroke="#000000" stroke-width="10" stroke-linejoin="round" d="M88.086,314.937
		c-0.405-26.436,6.68-56.563,21.88-86.611c37.666-74.531,110.869-120.293,163.511-102.192
		c52.651,18.071,64.829,93.149,27.153,167.671c-3.569,7.061-7.451,13.857-11.621,20.381"/>
	<path id="path112" fill="#231F20" d="M312.896,303.687c5.82,13.252-0.2,28.613-13.403,34.434
		c-13.213,5.732-28.584-0.264-34.39-13.447c-5.781-13.252,0.239-28.633,13.423-34.434
		C291.729,284.419,307.119,290.444,312.896,303.687"/>
	<path id="path114" fill="none" stroke="#FFFFFF" stroke-width="4" d="M312.896,303.687c5.82,13.252-0.2,28.613-13.403,34.434
		c-13.213,5.732-28.584-0.264-34.39-13.447c-5.781-13.252,0.239-28.633,13.423-34.434
		C291.729,284.419,307.119,290.444,312.896,303.687z"/>
	<path id="path116" fill="#231F20" d="M101.621,308.823c3.345,7.646-0.137,16.592-7.769,19.912
		c-7.656,3.379-16.558-0.117-19.907-7.764c-3.35-7.617,0.117-16.563,7.749-19.941C89.341,297.69,98.267,301.196,101.621,308.823"/>
</g>
</svg>
