<?xml version="1.0" encoding="utf-8"?>
<!-- Generator: Adobe Illustrator 16.0.0, SVG Export Plug-In . SVG Version: 6.00 Build 0)  -->
<!DOCTYPE svg PUBLIC "-//W3C//DTD SVG 1.1//EN" "http://www.w3.org/Graphics/SVG/1.1/DTD/svg11.dtd">
<svg version="1.1"
	 id="图层_1" xmlns:dc="http://purl.org/dc/elements/1.1/" xmlns:cc="http://creativecommons.org/ns#" xmlns:rdf="http://www.w3.org/1999/02/22-rdf-syntax-ns#"
	 xmlns="http://www.w3.org/2000/svg" xmlns:xlink="http://www.w3.org/1999/xlink" x="0px" y="0px" width="75px" height="75px"
	 viewBox="0 0 75 75" enable-background="new 0 0 75 75" xml:space="preserve">
<path fill="#00BCF2" d="M8.929,74.705c-1.862-0.477-3.146-1.223-4.57-2.637c-0.983-0.976-1.393-1.521-1.864-2.463
	c-1.234-2.466-1.14,0.135-1.14-32.102c0-27.259,0.012-28.661,0.269-29.761c0.674-2.868,2.653-5.358,5.256-6.614
	c2.494-1.204,0.647-1.128,27.646-1.128h23.99l7.562,7.464l7.567,7.462L73.6,40.812c-0.049,29.006,0.063,26.278-1.154,28.754
	c-0.491,1.009-0.855,1.491-1.877,2.501c-1.449,1.436-2.74,2.171-4.639,2.646c-1.139,0.288-1.665,0.293-28.53,0.285
	C10.83,74.988,9.999,74.983,8.929,74.705L8.929,74.705z M64.752,68.761c0.908-0.271,1.711-0.925,2.235-1.817l0.402-0.687
	l0.04-23.937l0.036-23.936h-6.029h-6.03V12.28V6.176H33.011c-14.565,0-22.576,0.054-22.924,0.151
	C9.33,6.536,8.214,7.577,7.806,8.452l-0.343,0.74v28.256c0,30.855-0.058,28.867,0.82,30.015c0.435,0.569,1.278,1.14,1.991,1.347
	c0.31,0.088,10.457,0.147,27.125,0.155c23.039,0.011,26.729-0.021,27.354-0.204H64.752z M36.947,57.365
	c-0.164-0.066-0.477-0.302-0.698-0.524c-1.068-1.068-0.767-3.036,0.653-4.253c1.119-0.958,1.338-0.98,8.814-0.937
	c6.403,0.044,6.695,0.057,7.186,0.344c0.75,0.435,1.068,1.131,0.966,2.104c-0.111,1.001-0.492,1.739-1.266,2.438
	c-1.103,0.998-0.867,0.968-8.483,0.958C40.338,57.495,37.108,57.432,36.947,57.365L36.947,57.365z M21.847,57.206
	c-0.595-0.099-1.229-0.468-1.623-0.941c-0.606-0.726-0.449-2.009,0.358-2.931c0.263-0.299,5.444-4.004,11.509-8.239
	c6.067-4.234,11.032-7.766,11.032-7.845c0-0.08-3.144-3.662-6.985-7.957c-4.708-5.262-7.054-7.991-7.187-8.368
	c-0.275-0.756-0.027-1.634,0.686-2.425c0.938-1.04,2.07-1.378,3.056-0.91c0.629,0.298,16.17,17.644,16.646,18.577
	c0.441,0.868,0.441,1.946,0,2.784c-0.295,0.555-1.643,1.538-12.465,9.095c-6.673,4.66-12.369,8.591-12.656,8.74
	C23.543,57.142,22.526,57.323,21.847,57.206L21.847,57.206z"/>
</svg>
