<?xml version="1.0" encoding="utf-8"?>
<!-- Generator: Adobe Illustrator 16.0.0, SVG Export Plug-In . SVG Version: 6.00 Build 0)  -->
<!DOCTYPE svg PUBLIC "-//W3C//DTD SVG 1.1//EN" "http://www.w3.org/Graphics/SVG/1.1/DTD/svg11.dtd">
<svg version="1.1"
	 id="svg2" xmlns:dc="http://purl.org/dc/elements/1.1/" xmlns:cc="http://creativecommons.org/ns#" xmlns:rdf="http://www.w3.org/1999/02/22-rdf-syntax-ns#" xmlns:svg="http://www.w3.org/2000/svg"
	 xmlns="http://www.w3.org/2000/svg" xmlns:xlink="http://www.w3.org/1999/xlink" x="0px" y="0px" width="76px" height="29px"
	 viewBox="0 0 76 29" enable-background="new 0 0 76 29" xml:space="preserve">
<g id="g12" transform="scale(0.1,0.1)">
	<path id="path22" fill="#02709F" d="M0.3,289.294h494.561V63.865H0.3V289.294z"/>
	<path id="path24" fill="none" stroke="#FFFFFF" stroke-width="3.9999" d="M0.3,289.294h494.561V63.865H0.3V289.294z"/>
	<path id="path26" fill="#02709F" d="M494.861,289.997V63.865H-0.002l63.73-63.867h494.316V226.14L494.861,289.997"/>
	<path id="path28" fill="none" stroke="#FFFFFF" stroke-width="3.9999" d="M494.861,289.997V63.865H-0.002l63.73-63.867h494.316
		V226.14L494.861,289.997z"/>
	<path id="path30" fill="#02709F" d="M494.861,63.865l63.184-63.867"/>
	<path id="path32" fill="none" stroke="#FFFFFF" stroke-width="3.9999" d="M494.861,63.865l63.184-63.867"/>
	<path id="path34" fill="#02709F" d="M494.861,229.607H0.3"/>
	<path id="path36" fill="none" stroke="#FFFFFF" stroke-width="3.9999" d="M494.861,229.607H0.3"/>
	<path id="path38" fill="#02709F" d="M558.044,166.453l-63.184,63.877"/>
	<path id="path40" fill="none" stroke="#FFFFFF" stroke-width="3.9999" d="M558.044,166.453l-63.184,63.877"/>
	<path id="path42" fill="#02709F" d="M759.998,47.244l-63.184,63.877l-201.953,71.25l63.184-63.77L759.998,47.244"/>
	<path id="path44" fill="none" stroke="#FFFFFF" stroke-width="3.9999" d="M759.998,47.244l-63.184,63.877l-201.953,71.25
		l63.184-63.77L759.998,47.244z"/>
</g>
</svg>
