<svg version="1.1" id="ilhwsa8q1" xmlns:xml="http://www.w3.org/XML/1998/namespace"
	 xmlns="http://www.w3.org/2000/svg" xmlns:xlink="http://www.w3.org/1999/xlink" x="0px" y="0px" width="77px" height="54px"
	 viewBox="0 0 77 54" enable-background="new 0 0 77 54" xml:space="preserve">
<g>
	<path fill="#253A4F" d="M58.531,23.916H18.469c-0.459,0-0.764-0.381-0.764-0.762V0.763C17.705,0.306,18.087,0,18.469,0h40.063
		c0.456,0,0.766,0.382,0.766,0.763v22.391C59.297,23.535,58.914,23.916,58.531,23.916z"/>
	<path fill="#FFFFFF" d="M54.717,26.961H22.284c-0.84,0-1.526-0.685-1.526-1.523V7.388c0-0.838,0.687-1.523,1.526-1.523h32.433
		c0.84,0,1.527,0.685,1.527,1.523v18.05C56.244,26.277,55.557,26.961,54.717,26.961z"/>
	<path fill="#324A62" d="M75.551,49.201h-74.1c-0.764,0-1.298-0.609-1.298-1.294V19.193c0-0.761,0.61-1.295,1.298-1.295h74.1
		c0.764,0,1.297,0.61,1.297,1.295v28.714C76.924,48.669,76.314,49.201,75.551,49.201z"/>
	<path fill="#53617B" d="M76.924,26.505H0.076v-7.388c0-0.761,0.611-1.295,1.299-1.295h74.176c0.764,0,1.297,0.61,1.297,1.295v7.388
		H76.924z"/>
	<path fill="#415669" d="M57.006,54H19.994c-0.533,0-0.992-0.457-0.992-1.066l1.222-4.494c0-0.607,0.458-1.066,0.991-1.066h34.723
		c0.535,0,0.992,0.459,0.992,1.066l0.992,4.494C57.998,53.543,57.541,54,57.006,54z"/>
	<path fill="#223649" d="M54.564,45.316H22.437c-0.305,0-0.534-0.229-0.534-0.533V43.87c0-0.306,0.229-0.532,0.534-0.532h32.204
		c0.308,0,0.535,0.229,0.535,0.532v0.913C55.1,45.088,54.871,45.316,54.564,45.316z"/>
	<polygon fill="#F2F6F9" points="56.701,53.01 20.3,53.01 22.818,44.251 54.184,44.251 	"/>
	<rect y="26.353" fill="#E4E8EA" width="77" height="0.608"/>
	<circle fill="#85D2E6" cx="5.189" cy="21.783" r="0.685"/>
	<circle fill="#283C43" cx="7.708" cy="21.783" r="0.685"/>
	<path fill="#62717F" d="M51.283,46.611H25.719c-0.077,0-0.153-0.077-0.153-0.153V46.23c0-0.078,0.076-0.152,0.153-0.152h25.564
		c0.076,0,0.152,0.074,0.152,0.152v0.228C51.436,46.534,51.359,46.611,51.283,46.611z"/>
	<path fill="#62717F" d="M51.283,48.059H25.719c-0.077,0-0.153-0.076-0.153-0.15V47.68c0-0.076,0.076-0.152,0.153-0.152h25.564
		c0.076,0,0.152,0.076,0.152,0.152v0.229C51.436,47.982,51.359,48.059,51.283,48.059z"/>
	<path fill="#62717F" d="M51.283,49.811H25.719c-0.077,0-0.153-0.076-0.153-0.151V49.43c0-0.076,0.076-0.15,0.153-0.15h25.564
		c0.076,0,0.152,0.074,0.152,0.15v0.229C51.436,49.734,51.359,49.811,51.283,49.811z"/>
</g>
</svg>
