<?xml version="1.0" encoding="utf-8"?>
<!-- Generator: Adobe Illustrator 16.0.0, SVG Export Plug-In . SVG Version: 6.00 Build 0)  -->
<!DOCTYPE svg PUBLIC "-//W3C//DTD SVG 1.1//EN" "http://www.w3.org/Graphics/SVG/1.1/DTD/svg11.dtd">
<svg version="1.1"
	 id="svg2" xmlns:dc="http://purl.org/dc/elements/1.1/" xmlns:cc="http://creativecommons.org/ns#" xmlns:rdf="http://www.w3.org/1999/02/22-rdf-syntax-ns#" xmlns:svg="http://www.w3.org/2000/svg"
	 xmlns="http://www.w3.org/2000/svg" xmlns:xlink="http://www.w3.org/1999/xlink" x="0px" y="0px" width="76px" height="78px"
	 viewBox="0 0 76 78" enable-background="new 0 0 76 78" xml:space="preserve">
<g id="g12" transform="scale(0.1,0.1)">
	<path id="path22" fill="#026C9B" d="M9.998,765.002h613.271V140.969H9.998V765.002z"/>
	<path id="path24" fill="none" stroke="#FFFFFF" stroke-width="4" d="M9.998,765.002h613.271V140.969H9.998V765.002z"/>
	<path id="path26" fill="none" stroke="#FFFFFF" stroke-width="13" d="M316.619,342.698h188.633"/>
	<path id="path28" fill="#FFFFFF" d="M512.429,285.999v109.16l65.488-52.422L512.429,285.999"/>
	<path id="path30" fill="none" stroke="#FFFFFF" stroke-width="2" d="M512.429,285.999v109.16l65.488-52.422L512.429,285.999z"/>
	<path id="path32" fill="none" stroke="#FFFFFF" stroke-width="13" d="M316.619,559.846h188.633"/>
	<path id="path34" fill="#FFFFFF" d="M512.429,502.151v109.16l65.488-52.207L512.429,502.151"/>
	<path id="path36" fill="none" stroke="#FFFFFF" stroke-width="2" d="M512.429,502.151v109.16l65.488-52.207L512.429,502.151z"/>
	<path id="path38" fill="none" stroke="#FFFFFF" stroke-width="13" d="M208.191,452.131V263.333"/>
	<path id="path40" fill="#FFFFFF" d="M152.947,257.122h109.17l-52.422-65.654L152.947,257.122"/>
	<path id="path42" fill="none" stroke="#FFFFFF" stroke-width="2" d="M152.947,257.122h109.17l-52.422-65.654L152.947,257.122z"/>
	<path id="path44" fill="none" stroke="#FFFFFF" stroke-width="13" d="M424.695,452.131V263.333"/>
	<path id="path46" fill="#FFFFFF" d="M368.718,257.854h109.375l-52.607-65.664L368.718,257.854"/>
	<path id="path48" fill="none" stroke="#FFFFFF" stroke-width="2" d="M368.718,257.854h109.375l-52.607-65.664L368.718,257.854z"/>
	<path id="path50" fill="none" stroke="#FFFFFF" stroke-width="13" d="M425.427,450.705v188.398"/>
	<path id="path52" fill="#FFFFFF" d="M480.32,645.49H371.15l52.842,65.449L480.32,645.49"/>
	<path id="path54" fill="none" stroke="#FFFFFF" stroke-width="2" d="M480.32,645.49H371.15l52.842,65.449L480.32,645.49z"/>
	<path id="path56" fill="none" stroke="#FFFFFF" stroke-width="13" d="M210.398,450.705v188.398"/>
	<path id="path58" fill="#FFFFFF" d="M266.414,645.49H157.029l53.047,65.449L266.414,645.49"/>
	<path id="path60" fill="none" stroke="#FFFFFF" stroke-width="2" d="M266.414,645.49H157.029l53.047,65.449L266.414,645.49z"/>
	<path id="path62" fill="none" stroke="#FFFFFF" stroke-width="13" d="M319.255,559.807H130.623"/>
	<path id="path64" fill="#FFFFFF" d="M122.947,617.053v-109.16L57.283,560.49L122.947,617.053"/>
	<path id="path66" fill="none" stroke="#FFFFFF" stroke-width="2" d="M122.947,617.053v-109.16L57.283,560.49L122.947,617.053z"/>
	<path id="path68" fill="none" stroke="#FFFFFF" stroke-width="13" d="M319.255,343.127H130.623"/>
	<path id="path70" fill="#FFFFFF" d="M122.947,400.451V291.418L57.283,343.83L122.947,400.451"/>
	<path id="path72" fill="none" stroke="#FFFFFF" stroke-width="2" d="M122.947,400.451V291.418L57.283,343.83L122.947,400.451z"/>
	<path id="path74" fill="#026C9B" d="M621.101,140.256H10.515L165.378,16.799h583.74v620.039L622.537,764.846V143.87
		L621.101,140.256"/>
	<path id="path76" fill="none" stroke="#FFFFFF" stroke-width="4" d="M621.101,140.256H10.515L165.378,16.799h583.74v620.039
		L622.537,764.846V143.87L621.101,140.256z"/>
	<path id="path78" fill="#026C9B" d="M622.38,139.182l127.617-124.18"/>
	<path id="path80" fill="none" stroke="#FFFFFF" stroke-width="4" d="M622.38,139.182l127.617-124.18"/>
	<path id="path82" fill="#026C9B" d="M316.677,582.678c72.07,0,130.557-58.496,130.557-130.352S388.748,322.19,316.677,322.19
		c-71.865,0-130.352,58.281-130.352,130.137S244.812,582.678,316.677,582.678"/>
	<path id="path84" fill="none" stroke="#FFFFFF" stroke-width="4" d="M316.677,582.678c72.07,0,130.557-58.496,130.557-130.352
		S388.748,322.19,316.677,322.19c-71.865,0-130.352,58.281-130.352,130.137S244.812,582.678,316.677,582.678z"/>
</g>
</svg>
