<?xml version="1.0" encoding="utf-8"?>
<!-- Generator: Adobe Illustrator 16.0.0, SVG Export Plug-In . SVG Version: 6.00 Build 0)  -->
<!DOCTYPE svg PUBLIC "-//W3C//DTD SVG 1.1//EN" "http://www.w3.org/Graphics/SVG/1.1/DTD/svg11.dtd">
<svg version="1.1"
	 id="svg2" xmlns:dc="http://purl.org/dc/elements/1.1/" xmlns:cc="http://creativecommons.org/ns#" xmlns:rdf="http://www.w3.org/1999/02/22-rdf-syntax-ns#" xmlns:svg="http://www.w3.org/2000/svg"
	 xmlns="http://www.w3.org/2000/svg" xmlns:xlink="http://www.w3.org/1999/xlink" x="0px" y="0px" width="52px" height="80px"
	 viewBox="0 0 52 80" enable-background="new 0 0 52 80" xml:space="preserve">
<g id="g12" transform="scale(0.1,0.1)">
	<path id="path14" fill="#026C9B" d="M103.657,799.997h416.338V85.549H103.657V799.997z"/>
	<path id="path16" fill="none" stroke="#FFFFFF" stroke-width="4" d="M103.657,799.997h416.338V85.549H103.657V799.997z"/>
	<path id="path18" fill="#026C9B" d="M395.093-0.002l124.902,85.552H103.657L0-0.002H395.093"/>
	<path id="path20" fill="none" stroke="#FFFFFF" stroke-width="4" d="M395.093-0.002l124.902,85.552H103.657L0-0.002H395.093z"/>
	<path id="path22" fill="#026C9B" d="M0,671.755V-0.002l103.657,85.552v714.448L0,671.755"/>
	<path id="path24" fill="none" stroke="#FFFFFF" stroke-width="4" d="M0,671.755V-0.002l103.657,85.552v714.448L0,671.755z"/>
	<path id="path26" fill="#FFFFFF" d="M205.093,252.429l-0.059,244.502h18.301l0.049-244.502l28.506-0.02l-37.754-51.235
		l-37.598,51.235L205.093,252.429"/>
	<path id="path28" fill="#FFFFFF" d="M410.073,446.657l-0.059-244.673h18.477l0.039,244.673l28.672,0.029l-37.93,51.055
		l-37.598-51.055L410.073,446.657"/>
	<path id="path30" fill="#FFFFFF" d="M231.128,650.573l27.754,0.088l-40.039-51.396l-37.598,51.396l26.992-0.059
		c11.328,44.102,61.387,75.332,107.051,75.332c54.121,0,109.434-44.795,109.434-103.203h-19.59
		c0,46.729-46.621,84.395-89.844,84.395C280.542,707.126,241.812,683.611,231.128,650.573"/>
</g>
</svg>
