<?xml version="1.0" encoding="utf-8"?>
<!-- Generator: Adobe Illustrator 16.0.0, SVG Export Plug-In . SVG Version: 6.00 Build 0)  -->
<!DOCTYPE svg PUBLIC "-//W3C//DTD SVG 1.1//EN" "http://www.w3.org/Graphics/SVG/1.1/DTD/svg11.dtd">
<svg version="1.1"
	 id="svg2" xmlns:dc="http://purl.org/dc/elements/1.1/" xmlns:cc="http://creativecommons.org/ns#" xmlns:rdf="http://www.w3.org/1999/02/22-rdf-syntax-ns#" xmlns:svg="http://www.w3.org/2000/svg"
	 xmlns="http://www.w3.org/2000/svg" xmlns:xlink="http://www.w3.org/1999/xlink" x="0px" y="0px" width="61px" height="78px"
	 viewBox="0 0 61 78" enable-background="new 0 0 61 78" xml:space="preserve">
<g id="g12" transform="scale(0.1,0.1)">
	<path id="path22" fill="#026C9B" d="M0,780.005h541.807V287.075H0V780.005z"/>
	<path id="path24" fill="none" stroke="#FFFFFF" stroke-width="4" d="M0,780.005h541.807V287.075H0V780.005z"/>
	<path id="path26" fill="#026C9B" d="M610,712.27V219.331l-68.193,67.744v492.929L610,712.27"/>
	<path id="path28" fill="none" stroke="#FFFFFF" stroke-width="4" d="M610,712.27V219.331l-68.193,67.744v492.929L610,712.27z"/>
	<path id="path30" fill="#026C9B" d="M99.053,0L0,67.749h541.807L610,0H99.053"/>
	<path id="path32" fill="none" stroke="#FFFFFF" stroke-width="4" d="M99.053,0L0,67.749h541.807L610,0H99.053z"/>
	<path id="path34" fill="#026C9B" d="M0,287.075h541.807V67.749H0V287.075z"/>
	<path id="path36" fill="none" stroke="#FFFFFF" stroke-width="4" d="M0,287.075h541.807V67.749H0V287.075z"/>
	<path id="path38" fill="#026C9B" d="M610,219.331V0l-68.193,67.749v219.326L610,219.331"/>
	<path id="path40" fill="none" stroke="#FFFFFF" stroke-width="4" d="M610,219.331V0l-68.193,67.749v219.326L610,219.331z"/>
	<path id="path42" fill="#026C9B" d="M541.807,287.075H0"/>
	<path id="path44" fill="none" stroke="#FFFFFF" stroke-width="4" d="M541.807,287.075H0"/>
	<path id="path46" fill="#026C9B" d="M541.807,287.075L610,219.331"/>
	<path id="path48" fill="none" stroke="#FFFFFF" stroke-width="4" d="M541.807,287.075L610,219.331"/>
	<path id="path50" d="M100.127,130.947h87.314V85.43h-87.314V130.947z"/>
	<path id="path52" d="M387.246,130.947h87.188V85.43h-87.188V130.947z"/>
	<path id="path54" d="M100.127,244.551h87.314v-45.405h-87.314V244.551z"/>
	<path id="path56" d="M387.246,244.551h87.188v-45.405h-87.188V244.551z"/>
	<path id="path58" fill="none" stroke="#000000" stroke-width="4" d="M159.473,112.637h268.242"/>
	<path id="path60" fill="none" stroke="#000000" stroke-width="4" d="M159.473,226.24h268.242"/>
	<path id="path62" fill="none" stroke="#000000" stroke-width="4" d="M143.857,226.24l283.857-113.604"/>
	<path id="path64" fill="none" stroke="#000000" stroke-width="4" d="M143.857,112.637L427.715,226.24"/>
	<path id="path66" fill="#FFFFFF" d="M88.389,142.559h87.461v-45.4H88.389V142.559z"/>
	<path id="path68" fill="#FFFFFF" d="M375.352,142.559h87.441v-45.4h-87.441V142.559z"/>
	<path id="path70" fill="#FFFFFF" d="M88.389,256.294h87.461v-45.415H88.389V256.294z"/>
	<path id="path72" fill="#FFFFFF" d="M375.352,256.294h87.441v-45.415h-87.441V256.294z"/>
	<path id="path74" fill="none" stroke="#FFFFFF" stroke-width="4" d="M147.725,119.927h268.398"/>
	<path id="path76" fill="none" stroke="#FFFFFF" stroke-width="4" d="M147.725,233.506h268.398"/>
	<path id="path78" fill="none" stroke="#FFFFFF" stroke-width="4" d="M132.109,233.506l284.014-113.579"/>
	<path id="path80" fill="none" stroke="#FFFFFF" stroke-width="4" d="M132.109,119.927l284.014,113.579"/>
	<path id="path82" fill="#FFFFFF" d="M278.369,454.009V346.177h19.16l-28.301-40.742l-28.447,40.742h19.307v107.832H278.369"/>
	<path id="path84" fill="#FFFFFF" d="M191.211,519.516H77.959v-18.301l-42.715,27.188l42.715,26.855v-18.281h113.252V519.516"/>
	<path id="path86" fill="#FFFFFF" d="M260.088,602.485v107.969h-19.307l28.447,40.586l28.301-40.586h-19.16V602.485H260.088"/>
	<path id="path88" fill="#FFFFFF" d="M347.1,536.977h113.389v18.281l42.744-26.855l-42.744-27.188v18.301H347.1V536.977"/>
	<path id="path90" fill="#026C9B" d="M375.801,638.989H163.672l0.127-219.902h212.129L375.801,638.989"/>
	<path id="path92" fill="none" stroke="#FFFFFF" stroke-width="4" d="M375.801,638.989H163.672l0.127-219.902h212.129
		L375.801,638.989z"/>
	<path id="path94" fill="#026C9B" d="M216.758,416.704v222.988"/>
	<path id="path96" fill="none" stroke="#FFFFFF" stroke-width="4" d="M216.758,416.704v222.988"/>
	<path id="path98" fill="#026C9B" d="M269.541,416.02v223.672"/>
	<path id="path100" fill="none" stroke="#FFFFFF" stroke-width="4" d="M269.541,416.02v223.672"/>
	<path id="path102" fill="#026C9B" d="M322.002,420.337v217.266"/>
	<path id="path104" fill="none" stroke="#FFFFFF" stroke-width="4" d="M322.002,420.337v217.266"/>
	<path id="path106" fill="#026C9B" d="M162.305,473.852h212.012"/>
	<path id="path108" fill="none" stroke="#FFFFFF" stroke-width="4" d="M162.305,473.852h212.012"/>
	<path id="path110" fill="#026C9B" d="M161.719,528.618H372.9"/>
	<path id="path112" fill="none" stroke="#FFFFFF" stroke-width="4" d="M161.719,528.618H372.9"/>
	<path id="path114" fill="#026C9B" d="M161.719,583.384h212.598"/>
	<path id="path116" fill="none" stroke="#FFFFFF" stroke-width="4" d="M161.719,583.384h212.598"/>
</g>
</svg>
