<?xml version="1.0" encoding="utf-8"?>
<!-- Generator: Adobe Illustrator 16.0.0, SVG Export Plug-In . SVG Version: 6.00 Build 0)  -->
<!DOCTYPE svg PUBLIC "-//W3C//DTD SVG 1.1//EN" "http://www.w3.org/Graphics/SVG/1.1/DTD/svg11.dtd">
<svg version="1.1"
	 id="图层_1" xmlns:dc="http://purl.org/dc/elements/1.1/" xmlns:cc="http://creativecommons.org/ns#" xmlns:rdf="http://www.w3.org/1999/02/22-rdf-syntax-ns#"
	 xmlns="http://www.w3.org/2000/svg" xmlns:xlink="http://www.w3.org/1999/xlink" x="0px" y="0px" width="75px" height="23px"
	 viewBox="0 0 75 23" enable-background="new 0 0 75 23" xml:space="preserve">
<path fill="#00BCF2" d="M1.544,22.725c-0.615-0.384-1.05-0.887-1.316-1.526C0.03,20.725,0,19.402,0,11.26V1.869l0.366-0.625
	C0.61,0.826,0.944,0.515,1.368,0.309L2.005,0H34.82h32.815l0.5,0.438c0.618,0.544,1.646,2.033,3.006,4.353
	C72.336,6.835,75,11.782,75,11.963c0,0.065-0.572,1.104-1.271,2.299c-2.737,4.685-4.373,7.176-5.381,8.185L67.794,23H34.89
	C3.047,23,1.971,22.99,1.544,22.725L1.544,22.725z M67.828,20.567c1.119-1.469,5.26-8.292,5.26-8.666
	c0-0.384-3.979-7.434-5.324-9.435l-0.57-0.848L34.615,1.656C2.557,1.694,2.032,1.7,1.826,1.982c-0.175,0.239-0.208,1.74-0.208,9.242
	c0,5.07,0.059,9.112,0.135,9.311c0.074,0.198,0.245,0.468,0.378,0.603c0.226,0.226,2.646,0.241,32.69,0.208l32.447-0.038
	L67.828,20.567L67.828,20.567z M4.543,19.004c-0.211-0.077-0.458-0.31-0.551-0.513C3.874,18.23,3.824,16.157,3.824,11.5V4.88
	l0.355-0.415l0.354-0.413l8.579-0.043c4.719-0.023,8.797-0.003,9.065,0.045c0.267,0.049,0.615,0.217,0.772,0.375
	c0.275,0.275,0.286,0.549,0.286,7.194c0,6.834,0,6.911-0.309,7.189c-0.296,0.268-0.684,0.281-9.155,0.308
	C8.36,19.139,4.777,19.09,4.543,19.004L4.543,19.004z M21.176,12.672c0-3.391-0.039-4.262-0.184-4.173
	c-0.101,0.063-1.64,1.25-3.419,2.639c-3.876,3.025-3.941,3.07-4.336,2.945c-0.169-0.055-1.645-1.14-3.28-2.413
	c-1.634-1.272-3.22-2.503-3.523-2.733l-0.551-0.42v4.22v4.219h7.647h7.647L21.176,12.672L21.176,12.672z M17.572,8.542l2.94-2.277
	l-3.565-0.039c-1.961-0.022-5.145-0.022-7.075,0l-3.51,0.039l3.54,2.759l3.54,2.757l0.596-0.482
	C14.364,11.035,15.955,9.793,17.572,8.542z M25.896,19.006c-0.751-0.304-0.739-0.188-0.744-7.315c0-4.676,0.045-6.773,0.163-7.034
	c0.092-0.202,0.366-0.438,0.61-0.522c0.629-0.22,17.248-0.212,17.88,0.009c0.256,0.089,0.531,0.284,0.609,0.433
	c0.088,0.165,0.145,2.931,0.145,7.113c0,6.771,0,6.847-0.31,7.124c-0.295,0.269-0.685,0.281-9.154,0.311
	c-5.478,0.02-8.98-0.026-9.199-0.114V19.006z M42.499,12.672c0-3.391-0.037-4.262-0.183-4.173c-0.103,0.063-1.674,1.274-3.493,2.691
	c-3.771,2.938-3.96,3.057-4.443,2.805c-0.185-0.099-1.792-1.307-3.572-2.687c-1.78-1.379-3.318-2.572-3.419-2.651
	c-0.146-0.114-0.184,0.725-0.184,4.076v4.221h7.647h7.646L42.499,12.672L42.499,12.672z M39.325,8.202l2.483-1.937l-3.552-0.039
	c-1.953-0.022-5.131-0.022-7.062,0l-3.509,0.039l3.526,2.761l3.525,2.76l1.05-0.824C36.365,10.51,37.957,9.266,39.325,8.202z
	 M47.133,18.998c-0.671-0.372-0.662-0.273-0.656-7.416c0-7.318-0.016-7.143,0.789-7.449c0.572-0.219,17.234-0.21,17.862,0.01
	c0.257,0.088,0.53,0.284,0.61,0.432c0.088,0.166,0.145,2.908,0.145,7.045c0,6.452-0.015,6.792-0.281,7.124l-0.281,0.349
	l-8.946,0.033C50.051,19.152,47.34,19.115,47.133,18.998L47.133,18.998z M63.823,12.672c0-3.39-0.038-4.262-0.185-4.174
	c-0.101,0.062-1.673,1.272-3.492,2.692c-3.771,2.938-3.959,3.057-4.442,2.805c-0.185-0.099-1.793-1.307-3.572-2.687
	c-1.778-1.379-3.317-2.572-3.419-2.651c-0.145-0.114-0.184,0.725-0.184,4.076v4.221h7.646h7.646L63.823,12.672L63.823,12.672z
	 M59.582,6.227c-1.953-0.022-5.139-0.022-7.074,0l-3.521,0.039l3.533,2.752l3.535,2.753l3.539-2.753l3.543-2.752L59.582,6.227z"/>
</svg>
