<?xml version="1.0" encoding="utf-8"?>
<!-- Generator: Adobe Illustrator 16.0.0, SVG Export Plug-In . SVG Version: 6.00 Build 0)  -->
<!DOCTYPE svg PUBLIC "-//W3C//DTD SVG 1.1//EN" "http://www.w3.org/Graphics/SVG/1.1/DTD/svg11.dtd">
<svg version="1.1"
	 id="svg2" xmlns:dc="http://purl.org/dc/elements/1.1/" xmlns:cc="http://creativecommons.org/ns#" xmlns:rdf="http://www.w3.org/1999/02/22-rdf-syntax-ns#" xmlns:svg="http://www.w3.org/2000/svg"
	 xmlns="http://www.w3.org/2000/svg" xmlns:xlink="http://www.w3.org/1999/xlink" x="0px" y="0px" width="30px" height="80px"
	 viewBox="0 0 30 80" enable-background="new 0 0 30 80" xml:space="preserve">
<g id="g12" transform="scale(0.1,0.1)">
	<g id="g16">
		<path id="path22" fill="#FFFFFF" d="M80.757,424.087H182.72V60.356H80.757V424.087z"/>
		<path id="path24" fill="none" stroke="#02709F" stroke-width="8" stroke-miterlimit="1" d="M80.757,424.087H182.72V60.356H80.757
			V424.087z"/>
		<path id="path26" fill="#FFFFFF" d="M13.584,785.005l67.173-363.789H182.72l60.098,363.789"/>
		<path id="path28" fill="none" stroke="#02709F" stroke-width="8" stroke-miterlimit="1" d="M13.584,785.005l67.173-363.789H182.72
			l60.098,363.789"/>
		<path id="path30" fill="none" stroke="#02709F" stroke-width="8" stroke-miterlimit="1" d="M10,785.005l209.497-105.176
			L49.639,583.286l141.519-88.242L86.406,424.087l93.462-125.073l-96.24-79.536l99.092-88.071L80.757,63.164"/>
		<path id="path32" fill="none" stroke="#02709F" stroke-width="8" stroke-miterlimit="1" d="M244.478,785.005L42.407,679.829
			l169.785-96.543L70.664,495.044l104.751-70.957L81.963,299.014l96.323-79.536l-99.097-88.071l101.792-68.242"/>
		<path id="path34" fill="none" stroke="#02709F" stroke-width="8" stroke-miterlimit="1" d="M176.704,60.356H83.232L106.514,15
			h45.757L176.704,60.356z"/>
	</g>
	<g id="g38">
		<path id="path44" fill="#333333" d="M220.415,69.419l8.359-10.371h5.82v54.365h34.707l3.34,3.193h3.184l5.41-5.459
			c5.605-2.266,8.77,8.057,8.77,8.057v3.843c0,0-3.164,10.381-8.77,8.13l-5.41-5.522h-3.184l-3.34,3.242h-34.707v54.312h-5.82
			l-8.359-10.317V69.419"/>
		<path id="path52" fill="none" d="M220.415,69.419l8.359-10.371h5.82v54.365h34.707l3.34,3.193h3.184l5.41-5.459
			c5.605-2.266,8.77,8.057,8.77,8.057v3.843c0,0-3.164,10.381-8.77,8.13l-5.41-5.522h-3.184l-3.34,3.242h-34.707v54.312h-5.82
			l-8.359-10.317V69.419"/>
	</g>
	<g id="g56">
		<path id="path62" fill="none" stroke="#000000" stroke-width="8" stroke-miterlimit="1" d="M220.415,69.419l8.359-10.371h5.82
			v54.365h34.707l3.34,3.193h3.184l5.41-5.459c5.605-2.266,8.77,8.057,8.77,8.057v3.843c0,0-3.164,10.381-8.77,8.13l-5.41-5.522
			h-3.184l-3.34,3.242h-34.707v54.312h-5.82l-8.359-10.317V69.419z"/>
		<path id="path64" fill="#B2B2B2" d="M220.415,172.891h-18.027c-9.688-10.981-8.34-33.594-8.34-33.594h-18.711v-36.27h18.711
			c0,0-1.348-22.627,8.34-33.608h18.027V172.891"/>
		<path id="path66" fill="none" stroke="#000000" stroke-width="8" stroke-miterlimit="1" d="M220.415,172.891h-18.027
			c-9.688-10.981-8.34-33.594-8.34-33.594h-18.711v-36.27h18.711c0,0-1.348-22.627,8.34-33.608h18.027V172.891z"/>
	</g>
	<g id="g70">
		<path id="path76" fill="#333333" d="M220.415,69.419l8.359-10.371h5.82v54.365h34.707l3.34,3.193h3.184l5.41-5.459
			c5.605-2.266,8.77,8.057,8.77,8.057v3.843c0,0-3.164,10.381-8.77,8.13l-5.41-5.522h-3.184l-3.34,3.242h-34.707v54.312h-5.82
			l-8.359-10.317V69.419"/>
		<path id="path84" fill="none" d="M220.415,69.419l8.359-10.371h5.82v54.365h34.707l3.34,3.193h3.184l5.41-5.459
			c5.605-2.266,8.77,8.057,8.77,8.057v3.843c0,0-3.164,10.381-8.77,8.13l-5.41-5.522h-3.184l-3.34,3.242h-34.707v54.312h-5.82
			l-8.359-10.317V69.419"/>
	</g>
	<g id="g88">
		<path id="path94" fill="none" stroke="#02709F" stroke-width="8" stroke-miterlimit="1" d="M220.415,69.419l8.359-10.371h5.82
			v54.365h34.707l3.34,3.193h3.184l5.41-5.459c5.605-2.266,8.77,8.057,8.77,8.057v3.843c0,0-3.164,10.381-8.77,8.13l-5.41-5.522
			h-3.184l-3.34,3.242h-34.707v54.312h-5.82l-8.359-10.317V69.419z"/>
		<path id="path96" fill="#B2B2B2" d="M220.415,172.891h-18.027c-9.688-10.981-8.34-33.594-8.34-33.594h-18.711v-36.27h18.711
			c0,0-1.348-22.627,8.34-33.608h18.027V172.891"/>
		<path id="path98" fill="none" stroke="#02709F" stroke-width="8" stroke-miterlimit="1" d="M220.415,172.891h-18.027
			c-9.688-10.981-8.34-33.594-8.34-33.594h-18.711v-36.27h18.711c0,0-1.348-22.627,8.34-33.608h18.027V172.891z"/>
	</g>
	<g id="g102">
		<path id="path108" fill="#333333" d="M220.415,237.1l8.359-10.396h5.82v54.38h34.707l3.34,3.188h3.184l5.41-5.459
			c5.605-2.256,8.77,8.052,8.77,8.052v3.857c0,0-3.164,10.386-8.77,8.12l-5.41-5.537h-3.184l-3.34,3.271h-34.707v54.287h-5.82
			l-8.359-10.293V237.1"/>
		<path id="path116" fill="none" d="M220.415,237.1l8.359-10.396h5.82v54.38h34.707l3.34,3.188h3.184l5.41-5.459
			c5.605-2.256,8.77,8.052,8.77,8.052v3.857c0,0-3.164,10.386-8.77,8.12l-5.41-5.537h-3.184l-3.34,3.271h-34.707v54.287h-5.82
			l-8.359-10.293V237.1"/>
	</g>
	<g id="g120">
		<path id="path126" fill="none" stroke="#000000" stroke-width="8" stroke-miterlimit="1" d="M220.415,237.1l8.359-10.396h5.82
			v54.38h34.707l3.34,3.188h3.184l5.41-5.459c5.605-2.256,8.77,8.052,8.77,8.052v3.857c0,0-3.164,10.386-8.77,8.12l-5.41-5.537
			h-3.184l-3.34,3.271h-34.707v54.287h-5.82l-8.359-10.293V237.1z"/>
		<path id="path128" fill="#B2B2B2" d="M220.415,340.571h-18.027c-9.688-10.986-8.34-33.672-8.34-33.672h-18.711v-36.206h18.711
			c0,0-1.348-22.617,8.34-33.594h18.027V340.571"/>
		<path id="path130" fill="none" stroke="#000000" stroke-width="8" stroke-miterlimit="1" d="M220.415,340.571h-18.027
			c-9.688-10.986-8.34-33.672-8.34-33.672h-18.711v-36.206h18.711c0,0-1.348-22.617,8.34-33.594h18.027V340.571z"/>
	</g>
	<g id="g134">
		<path id="path140" fill="#333333" d="M220.415,237.1l8.359-10.396h5.82v54.38h34.707l3.34,3.188h3.184l5.41-5.459
			c5.605-2.256,8.77,8.052,8.77,8.052v3.857c0,0-3.164,10.386-8.77,8.12l-5.41-5.537h-3.184l-3.34,3.271h-34.707v54.287h-5.82
			l-8.359-10.293V237.1"/>
		<path id="path148" fill="none" d="M220.415,237.1l8.359-10.396h5.82v54.38h34.707l3.34,3.188h3.184l5.41-5.459
			c5.605-2.256,8.77,8.052,8.77,8.052v3.857c0,0-3.164,10.386-8.77,8.12l-5.41-5.537h-3.184l-3.34,3.271h-34.707v54.287h-5.82
			l-8.359-10.293V237.1"/>
	</g>
	<g id="g152">
		<path id="path158" fill="none" stroke="#02709F" stroke-width="8" stroke-miterlimit="1" d="M220.415,237.1l8.359-10.396h5.82
			v54.38h34.707l3.34,3.188h3.184l5.41-5.459c5.605-2.256,8.77,8.052,8.77,8.052v3.857c0,0-3.164,10.386-8.77,8.12l-5.41-5.537
			h-3.184l-3.34,3.271h-34.707v54.287h-5.82l-8.359-10.293V237.1z"/>
		<path id="path160" fill="#B2B2B2" d="M220.415,340.571h-18.027c-9.688-10.986-8.34-33.672-8.34-33.672h-18.711v-36.206h18.711
			c0,0-1.348-22.617,8.34-33.594h18.027V340.571"/>
		<path id="path162" fill="none" stroke="#02709F" stroke-width="8" stroke-miterlimit="1" d="M220.415,340.571h-18.027
			c-9.688-10.986-8.34-33.672-8.34-33.672h-18.711v-36.206h18.711c0,0-1.348-22.617,8.34-33.594h18.027V340.571z"/>
	</g>
</g>
</svg>
