<?xml version="1.0" encoding="utf-8"?>
<!-- Generator: Adobe Illustrator 16.0.0, SVG Export Plug-In . SVG Version: 6.00 Build 0)  -->
<!DOCTYPE svg PUBLIC "-//W3C//DTD SVG 1.1//EN" "http://www.w3.org/Graphics/SVG/1.1/DTD/svg11.dtd">
<svg version="1.1" id="图层_1" xmlns="http://www.w3.org/2000/svg" xmlns:xlink="http://www.w3.org/1999/xlink" x="0px" y="0px"
	 width="512px" height="512px" viewBox="0 0 512 512" enable-background="new 0 0 512 512" xml:space="preserve">
<g>
	<path fill="#47A6E9" d="M499.037,101.813c-10.847-62.461-25.838-77.337-89.152-88.42c-40.31-7.053-97.21-11.098-156.091-11.098
		c-58.363,0-112.338,3.801-151.978,10.687c-62.468,10.855-77.345,25.853-88.405,89.152c-14.663,83.819-14.884,224.882-0.48,308.031
		c10.817,62.461,25.815,77.329,89.152,88.42c40.409,7.069,97.431,11.121,156.434,11.121h0.009
		c58.218,0,112.087-3.778,151.665-10.634c62.476-10.862,77.359-25.854,88.404-89.167
		C513.266,326.071,513.464,184.977,499.037,101.813 M483.24,407.222c-9.918,56.764-19.82,66.772-75.715,76.492
		c-38.727,6.703-91.636,10.39-149,10.39h-0.009c-58.148,0-114.181-3.961-153.745-10.877c-56.786-9.947-66.795-19.865-76.469-75.715
		c-14.153-81.702-13.939-220.319,0.48-302.699c9.918-56.748,19.82-66.757,75.7-76.461c38.794-6.741,91.817-10.458,149.312-10.458
		c58.012,0,113.938,3.961,153.41,10.868c56.748,9.933,66.757,19.843,76.477,75.715C497.85,186.186,497.652,324.819,483.24,407.222"
		/>
	<path fill="#47A6E9" d="M230.166,280.467c0,0-6.422-57.557-63.413-57.557c-56.991,0-66.77,53.618-66.77,65.348
		c0,11.73-0.839,67.746,67.746,67.746h179.776c0,0,70.4-1.814,70.4-71.65c0-69.834-78.227-75.982-82.131-75.982
		c0,0-10.053-56.991-73.758-56.991c-63.705,0-72.625,60.348-72.625,60.348s18.443,8.939,18.443,11.165
		c0,0,13.409-48.617,53.087-48.617s58.105,34.078,58.105,58.105c0,0,74.305-2.706,74.305,51.957
		c0,47.487-45.809,46.939-45.809,46.939H169.288c0,0-46.374,3.989-46.374-41.339c0,0,1.678-44.148,44.131-44.148
		c0,0,40.226-0.274,43.052,42.059l1.37,16.337l125.987,0.274v-22.913h-19.557V264.37h-22.349v16.936h-8.374v-16.971h-23.461v16.56
		l-33.53-0.41L230.166,280.467z"/>
</g>
</svg>
