<?xml version="1.0" encoding="utf-8"?>
<!-- Generator: Adobe Illustrator 16.0.0, SVG Export Plug-In . SVG Version: 6.00 Build 0)  -->
<!DOCTYPE svg PUBLIC "-//W3C//DTD SVG 1.1//EN" "http://www.w3.org/Graphics/SVG/1.1/DTD/svg11.dtd">
<svg version="1.1"
	 id="svg2" xmlns:dc="http://purl.org/dc/elements/1.1/" xmlns:cc="http://creativecommons.org/ns#" xmlns:rdf="http://www.w3.org/1999/02/22-rdf-syntax-ns#" xmlns:svg="http://www.w3.org/2000/svg"
	 xmlns="http://www.w3.org/2000/svg" xmlns:xlink="http://www.w3.org/1999/xlink" x="0px" y="0px" width="77px" height="60px"
	 viewBox="0 0 77 60" enable-background="new 0 0 77 60" xml:space="preserve">
<g id="g12" transform="scale(0.1,0.1)">
	<path id="path22" fill="#026C9B" d="M661.821,107.505L767.173,2.7V2.202H112.065L0,107.505H661.821"/>
	<path id="path24" fill="none" stroke="#FFFFFF" stroke-width="4" d="M661.821,107.505L767.173,2.7V2.202H112.065L0,107.505H661.821
		z"/>
	<path id="path26" fill="#026C9B" d="M665.454,599.995l-0.605-495.205L2.529,103.75v496.245H665.454"/>
	<path id="path28" fill="none" stroke="#FFFFFF" stroke-width="4" d="M665.454,599.995l-0.605-495.205L2.529,103.75v496.245H665.454
		z"/>
	<path id="path30" fill="#026C9B" d="M770.005,495.444L769.966,0L664.849,104.79l0.605,495.205L770.005,495.444"/>
	<path id="path32" fill="none" stroke="#FFFFFF" stroke-width="4" d="M770.005,495.444L769.966,0L664.849,104.79l0.605,495.205
		L770.005,495.444z"/>
	<path id="path34" fill="none" stroke="#FFFFFF" stroke-width="1.6" d="M238.638,595.327V103.75"/>
	<path id="path36" fill="none" stroke="#FFFFFF" stroke-width="1.6" d="M430.942,595.698V103.75"/>
	<path id="path38" d="M362.173,158.979H251.899"/>
	<path id="path40" fill="none" stroke="#FFFFFF" stroke-width="10" d="M362.173,158.979H251.899"/>
	<path id="path42" fill="#FFFFFF" d="M409.048,158.979l-63.926,26.035l15.107-26.035l-15.107-26.196L409.048,158.979"/>
	<path id="path44" d="M362.173,252.612H251.899"/>
	<path id="path46" fill="none" stroke="#FFFFFF" stroke-width="10" d="M362.173,252.612H251.899"/>
	<path id="path48" fill="#FFFFFF" d="M409.048,252.612l-63.926,26.045l15.107-26.045l-15.107-26.016L409.048,252.612"/>
	<path id="path50" d="M362.173,346.44H251.899"/>
	<path id="path52" fill="none" stroke="#FFFFFF" stroke-width="10" d="M362.173,346.44H251.899"/>
	<path id="path54" fill="#FFFFFF" d="M409.048,346.44l-63.926,25.84l15.107-25.84l-15.107-26.23L409.048,346.44"/>
	<path id="path56" d="M362.173,439.897H251.899"/>
	<path id="path58" fill="none" stroke="#FFFFFF" stroke-width="10" d="M362.173,439.897H251.899"/>
	<path id="path60" fill="#FFFFFF" d="M409.048,439.897l-63.926,26.191l15.107-26.191l-15.107-26.211L409.048,439.897"/>
	<path id="path62" fill="none" stroke="#FFFFFF" stroke-width="10" d="M369.985,544.526H251.899"/>
	<path id="path64" fill="#FFFFFF" d="M409.048,544.526l-63.926,26.211l15.107-26.211l-15.107-25.859L409.048,544.526"/>
	<path id="path66" fill="#FFFFFF" d="M8.179,241.733h144.194l-0.488,16.592l66.89-46.289l-66.89-46.279l0.488,16.582H8.179V241.733"
		/>
	<path id="path68" fill="#FFFFFF" d="M8.179,378.061h144.194l-0.488,16.563l66.89-46.445l-66.89-46.27l0.488,16.738H8.179V378.061"
		/>
	<path id="path70" fill="#FFFFFF" d="M442.856,324.253h144.355l-0.625,21.68l66.895-60.176l-66.895-60.195l0.625,21.533H442.856
		V324.253"/>
	<path id="path72" fill="#FFFFFF" d="M442.856,501.44h144.355l-0.625,21.68l66.895-60.156l-66.895-60.527l0.625,21.699H442.856
		V501.44"/>
	<path id="path74" fill="#FFFFFF" d="M8.179,514.175h144.194l-0.488,16.582l66.89-46.445l-66.89-46.113l0.488,16.582H8.179V514.175"
		/>
</g>
</svg>
