<?xml version="1.0" encoding="utf-8"?>
<!-- Generator: Adobe Illustrator 16.0.0, SVG Export Plug-In . SVG Version: 6.00 Build 0)  -->
<!DOCTYPE svg PUBLIC "-//W3C//DTD SVG 1.1//EN" "http://www.w3.org/Graphics/SVG/1.1/DTD/svg11.dtd">
<svg version="1.1"
	 id="图层_1" xmlns:dc="http://purl.org/dc/elements/1.1/" xmlns:cc="http://creativecommons.org/ns#" xmlns:rdf="http://www.w3.org/1999/02/22-rdf-syntax-ns#"
	 xmlns="http://www.w3.org/2000/svg" xmlns:xlink="http://www.w3.org/1999/xlink" x="0px" y="0px" width="52px" height="77px"
	 viewBox="0 0 52 77" enable-background="new 0 0 52 77" xml:space="preserve">
<path fill="#00BCF2" d="M29.732,70.35c0-6.502,0.011-6.656,0.349-6.766c0.699-0.222,1.053,0.053,1.053,0.813V65.1l0.75-0.615
	c0.947-0.778,1.504-0.99,2.6-0.99c1.125,0,1.872,0.323,2.556,1.101c0.81,0.921,1.022,1.722,1.022,3.813
	c0,1.972-0.325,3.068-1.19,4.01c-1.243,1.349-3.601,1.42-4.991,0.147l-0.395-0.361v2.119c0,1.169-0.05,2.247-0.105,2.4
	C31.306,76.918,31.042,77,30.502,77h-0.77V70.35L29.732,70.35z M34.915,71.809c1.647-0.781,1.979-4.868,0.512-6.334
	c-0.938-0.941-1.984-0.798-3.283,0.445l-0.658,0.627v1.947v1.947l0.658,0.639C33.188,72.096,33.911,72.286,34.915,71.809z
	 M6.752,73.372c-0.408-0.165-0.521-0.433-0.523-1.233c0-0.553,0.082-0.784,0.337-0.919c0.457-0.245,1.297-0.231,1.555,0.026
	c0.235,0.237,0.281,1.515,0.067,1.85C8.026,73.35,7.127,73.524,6.752,73.372L6.752,73.372z M20.609,73.297
	c-1.669-0.663-2.647-3.17-2.272-5.82c0.377-2.672,1.616-3.982,3.765-3.982c1.013,0,1.804,0.295,2.499,0.93l0.395,0.361v-2.747
	v-2.744l0.439-0.11c0.24-0.062,0.636-0.062,0.878,0l0.441,0.111l-0.047,6.967l-0.045,6.968h-0.703c-0.686,0-0.704-0.015-0.755-0.665
	l-0.056-0.667l-0.632,0.558c-0.351,0.305-0.894,0.661-1.214,0.795C22.639,73.528,21.251,73.553,20.609,73.297L20.609,73.297z
	 M23.622,71.582c1.264-0.803,1.373-1.051,1.373-3.18v-1.855l-0.659-0.627c-0.841-0.805-1.275-1.022-2.043-1.022
	c-0.856,0-1.744,0.803-2.033,1.836c-0.335,1.195-0.163,3.562,0.313,4.332C21.274,72.2,22.358,72.384,23.622,71.582z M11.488,68.508
	v-4.83l0.465-0.117c0.633-0.158,1.014,0.121,1.082,0.797l0.057,0.564l0.773-0.713c0.688-0.635,0.87-0.713,1.642-0.713
	c0.929,0,1.421,0.303,1.421,0.876c0,0.743-0.168,0.865-1.042,0.759c-0.991-0.115-1.401,0.069-2.067,0.941
	c-0.486,0.637-0.491,0.662-0.577,3.901l-0.089,3.258l-0.833,0.055l-0.833,0.052L11.488,68.508L11.488,68.508z M5.206,53.926
	C3.22,53.391,1.44,51.89,0.54,49.992L0,48.852V27.103V5.354l0.56-1.181c0.726-1.531,1.99-2.794,3.52-3.52l1.183-0.559l17.947-0.048
	L41.16,0l5.419,5.309L52,10.616l-0.04,19.117l-0.039,19.118l-0.542,1.141c-0.918,1.937-2.687,3.406-4.743,3.941
	C45.155,54.32,6.644,54.311,5.206,53.926L5.206,53.926z M46.507,49.83c0.301-0.186,0.775-0.633,1.051-0.996l0.502-0.658
	l0.047-17.681l0.049-17.681l-4.344-0.046l-4.347-0.047l-0.047-4.433l-0.047-4.432L22.755,3.904L6.137,3.953L5.44,4.364
	C4.676,4.815,4.315,5.238,4.002,6.051C3.85,6.446,3.793,11.834,3.783,27.065C3.771,45.12,3.803,47.623,4.04,48.193
	c0.324,0.776,0.696,1.214,1.396,1.647c0.503,0.312,1.36,0.325,20.522,0.325C45.338,50.164,45.974,50.156,46.507,49.83L46.507,49.83z
	 M14.909,39.994l-1.575-1.582l3.111-3.11l3.11-3.111l-3.07-3.073l-3.07-3.072l1.539-1.531l1.539-1.531l4.644,4.647l4.645,4.646
	l-4.649,4.649l-4.65,4.649L14.909,39.994L14.909,39.994z M30.257,30.961l-4.646-4.647l4.688-4.689l4.69-4.689l1.491,1.486
	c0.82,0.816,1.492,1.565,1.492,1.662c0,0.098-1.359,1.54-3.023,3.205l-3.023,3.027l3.066,3.07l3.065,3.069l-1.578,1.578
	l-1.579,1.578L30.257,30.961z"/>
</svg>
