<?xml version="1.0" encoding="utf-8"?>
<!-- Generator: Adobe Illustrator 16.0.0, SVG Export Plug-In . SVG Version: 6.00 Build 0)  -->
<!DOCTYPE svg PUBLIC "-//W3C//DTD SVG 1.1//EN" "http://www.w3.org/Graphics/SVG/1.1/DTD/svg11.dtd">
<svg version="1.1" id="图层_1" xmlns="http://www.w3.org/2000/svg" xmlns:xlink="http://www.w3.org/1999/xlink" x="0px" y="0px"
	 width="512px" height="512px" viewBox="0 0 512 512" enable-background="new 0 0 512 512" xml:space="preserve">
<g>
	<path fill="#4BECBC" d="M499.037,101.813c-10.847-62.461-25.838-77.337-89.152-88.42c-40.31-7.053-97.21-11.098-156.091-11.098
		c-58.363,0-112.338,3.801-151.978,10.687c-62.468,10.855-77.345,25.853-88.405,89.152c-14.663,83.819-14.884,224.882-0.48,308.031
		c10.817,62.461,25.815,77.329,89.152,88.42c40.409,7.069,97.431,11.121,156.434,11.121h0.009
		c58.218,0,112.087-3.778,151.665-10.634c62.476-10.862,77.359-25.854,88.404-89.167
		C513.266,326.071,513.464,184.977,499.037,101.813 M483.24,407.222c-9.918,56.764-19.82,66.772-75.715,76.492
		c-38.727,6.703-91.636,10.39-149,10.39h-0.009c-58.148,0-114.181-3.961-153.745-10.877c-56.786-9.947-66.795-19.865-76.469-75.715
		c-14.153-81.702-13.939-220.319,0.48-302.699c9.918-56.748,19.82-66.757,75.7-76.461c38.794-6.741,91.817-10.458,149.312-10.458
		c58.012,0,113.938,3.961,153.41,10.868c56.748,9.933,66.757,19.843,76.477,75.715C497.85,186.186,497.652,324.819,483.24,407.222"
		/>
	<path fill="#4BECBC" d="M280.518,123.651l-22.276,35.732l-22.277-35.732h-89.4l-44.703,68.943l44.703,74.457h54.917l-32.64,49.598
		l44.697,71.7h89.405l40.221-71.7l-28.16-49.598h50.432l44.704-74.457l-44.702-68.943H280.518z M212.154,244.508L212.154,244.508
		l0.69-1.035l45.055-55.038l42.641,56.073H212.154z"/>
</g>
</svg>
