<?xml version="1.0" encoding="utf-8"?>
<!-- Generator: Adobe Illustrator 16.0.0, SVG Export Plug-In . SVG Version: 6.00 Build 0)  -->
<!DOCTYPE svg PUBLIC "-//W3C//DTD SVG 1.1//EN" "http://www.w3.org/Graphics/SVG/1.1/DTD/svg11.dtd">
<svg version="1.1"
	 id="图层_1" xmlns:dc="http://purl.org/dc/elements/1.1/" xmlns:cc="http://creativecommons.org/ns#" xmlns:rdf="http://www.w3.org/1999/02/22-rdf-syntax-ns#"
	 xmlns="http://www.w3.org/2000/svg" xmlns:xlink="http://www.w3.org/1999/xlink" x="0px" y="0px" width="77px" height="66px"
	 viewBox="0 0 77 66" enable-background="new 0 0 77 66" xml:space="preserve">
<g>
	<path fill="#00BCF2" d="M54.419,0.014C48.824,0.231,42.113,3.452,40.723,8.44c-6.171-6.022-20.735-4.667-19.604,8.428
		c0.379-0.123,0.707-0.285,1.104-0.39c4.993-1.319,13.436,1.128,16.358,5.704c0.271-5.186,4.091-10.198,16.552-11.991V5.006
		l9.996,7.194l-9.996,7.195v-5.057c-7.351,1.267-10.477,3.88-10.645,7.455c5.941-1.882,18.515,6.918,16.01,16.403
		c3.129,0.928,4.791,0.701,6.189,4.597c17.605-4.679,8.82-25.562,1.816-23.983C69.756,7.202,65.475,2.298,58.055,0.336
		C56.962,0.051,55.711-0.037,54.419,0.014z M21.314,22.377c-0.828,0.039-1.61,0.133-2.337,0.324
		c-7.417,1.961-11.702,6.866-10.45,18.474c-7.499-1.689-17.1,22.347,5.906,24.699c17.41-0.045,19.52-0.023,36.676,0.126
		c22.21-3.637,12.626-24.673,4.477-24.501c3.092-15.189-12.77-17.048-19.277-10.695C34.811,25.432,27.107,22.103,21.314,22.377
		L21.314,22.377z"/>
	<path fill="#FFFFFF" d="M44.497,21.783c0.166-3.574,3.282-6.181,10.635-7.447v5.052l9.987-7.188l-9.987-7.188v5.181
		c-12.46,1.79-16.266,6.793-16.536,11.98C41.539,21.984,42.076,21.973,44.497,21.783z"/>
</g>
</svg>
