<?xml version="1.0" encoding="utf-8"?>
<!-- Generator: Adobe Illustrator 16.0.0, SVG Export Plug-In . SVG Version: 6.00 Build 0)  -->
<!DOCTYPE svg PUBLIC "-//W3C//DTD SVG 1.1//EN" "http://www.w3.org/Graphics/SVG/1.1/DTD/svg11.dtd">
<svg version="1.1"
	 id="svg2" xmlns:dc="http://purl.org/dc/elements/1.1/" xmlns:cc="http://creativecommons.org/ns#" xmlns:rdf="http://www.w3.org/1999/02/22-rdf-syntax-ns#" xmlns:svg="http://www.w3.org/2000/svg"
	 xmlns="http://www.w3.org/2000/svg" xmlns:xlink="http://www.w3.org/1999/xlink" x="0px" y="0px" width="78px" height="62px"
	 viewBox="0 0 78 62" enable-background="new 0 0 78 62" xml:space="preserve">
<g id="g12" transform="scale(0.1,0.1)">
	<path id="path22" fill="#026C9B" d="M765,149.37c0,76.914-167.813,139.365-375,139.365S15,226.284,15,149.37v321.074
		c0,77.09,167.813,139.561,375,139.561s375-62.471,375-139.561V149.37"/>
	<path id="path24" fill="none" stroke="#FFFFFF" stroke-width="4" d="M765,149.37c0,76.914-167.813,139.365-375,139.365
		S15,226.284,15,149.37v321.074c0,77.09,167.813,139.561,375,139.561s375-62.471,375-139.561V149.37z"/>
	<path id="path26" fill="#026C9B" d="M390,288.735c207.188,0,375-62.451,375-139.365S597.188,10.005,390,10.005S15,72.456,15,149.37
		S182.813,288.735,390,288.735"/>
	<path id="path28" fill="none" stroke="#FFFFFF" stroke-width="4" d="M390,288.735c207.188,0,375-62.451,375-139.365
		S597.188,10.005,390,10.005S15,72.456,15,149.37S182.813,288.735,390,288.735z"/>
</g>
</svg>
