<?xml version="1.0" encoding="utf-8"?>
<!-- Generator: Adobe Illustrator 16.0.0, SVG Export Plug-In . SVG Version: 6.00 Build 0)  -->
<!DOCTYPE svg PUBLIC "-//W3C//DTD SVG 1.1//EN" "http://www.w3.org/Graphics/SVG/1.1/DTD/svg11.dtd">
<svg version="1.1"
	 id="图层_1" xmlns:dc="http://purl.org/dc/elements/1.1/" xmlns:cc="http://creativecommons.org/ns#" xmlns:rdf="http://www.w3.org/1999/02/22-rdf-syntax-ns#"
	 xmlns="http://www.w3.org/2000/svg" xmlns:xlink="http://www.w3.org/1999/xlink" x="0px" y="0px" width="75px" height="75px"
	 viewBox="0 0 75 75" enable-background="new 0 0 75 75" xml:space="preserve">
<path fill="#00BCF2" d="M37.5,0C16.641,0,0,17.109,0,37.5C0,58.359,17.109,75,37.5,75S75,57.891,75,37.5S58.359,0,37.5,0z
	 M37.5,4.922c18.047,0,32.578,14.531,32.578,32.578S55.313,70.078,37.5,70.078S4.922,55.313,4.922,37.5S19.453,4.922,37.5,4.922z
	 M18.281,55.313l4.922,4.922l16.172-16.172L23.203,27.891l-4.922,5.391l11.016,11.016L18.281,55.313z M35.625,30.938l16.172,16.172
	l4.922-4.688L45.703,31.406l11.016-11.719l-4.922-4.922L35.625,30.938z"/>
</svg>
