<?xml version="1.0" encoding="utf-8"?>
<!-- Generator: Adobe Illustrator 16.0.0, SVG Export Plug-In . SVG Version: 6.00 Build 0)  -->
<!DOCTYPE svg PUBLIC "-//W3C//DTD SVG 1.1//EN" "http://www.w3.org/Graphics/SVG/1.1/DTD/svg11.dtd">
<svg version="1.1"
	 id="svg2" xmlns:dc="http://purl.org/dc/elements/1.1/" xmlns:cc="http://creativecommons.org/ns#" xmlns:rdf="http://www.w3.org/1999/02/22-rdf-syntax-ns#" xmlns:svg="http://www.w3.org/2000/svg"
	 xmlns="http://www.w3.org/2000/svg" xmlns:xlink="http://www.w3.org/1999/xlink" x="0px" y="0px" width="75px" height="50px"
	 viewBox="0 0 75 50" enable-background="new 0 0 75 50" xml:space="preserve">
<g id="g12" transform="scale(0.1,0.1)">
	<path id="path22" fill="#026C9B" d="M0.002,499.997h667.295V84.866H0.002V499.997z"/>
	<path id="path24" fill="none" stroke="#FFFFFF" stroke-width="4" d="M0.002,499.997h667.295V84.866H0.002V499.997z"/>
	<path id="path26" fill="#026C9B" d="M82.693-0.002L0.002,84.866h667.295l82.705-84.868H82.693"/>
	<path id="path28" fill="none" stroke="#FFFFFF" stroke-width="4" d="M82.693-0.002L0.002,84.866h667.295l82.705-84.868H82.693z"/>
	<path id="path30" fill="#026C9B" d="M750.002,415.495V-0.002l-82.705,84.868v415.132L750.002,415.495"/>
	<path id="path32" fill="none" stroke="#FFFFFF" stroke-width="4" d="M750.002,415.495V-0.002l-82.705,84.868v415.132
		L750.002,415.495z"/>
	<path id="path34" fill="none" stroke="#FFFFFF" stroke-width="4" d="M172.937,428.073h325.015V152.644H172.937V428.073z"/>
	<path id="path36" fill="none" stroke="#FFFFFF" stroke-width="4" d="M224.172,229.578h224.717"/>
	<path id="path38" fill="none" stroke="#FFFFFF" stroke-width="4" d="M224.172,291.238h224.717"/>
	<path id="path40" fill="none" stroke="#FFFFFF" stroke-width="4" d="M224.172,353.269h224.717"/>
</g>
</svg>
