<?xml version="1.0" encoding="utf-8"?>
<!-- Generator: Adobe Illustrator 16.0.0, SVG Export Plug-In . SVG Version: 6.00 Build 0)  -->
<!DOCTYPE svg PUBLIC "-//W3C//DTD SVG 1.1//EN" "http://www.w3.org/Graphics/SVG/1.1/DTD/svg11.dtd">
<svg version="1.1" id="图层_1" xmlns="http://www.w3.org/2000/svg" xmlns:xlink="http://www.w3.org/1999/xlink" x="0px" y="0px"
	 width="512px" height="512px" viewBox="0 0 512 512" enable-background="new 0 0 512 512" xml:space="preserve">
<g>
	<path fill="#33CCFF" d="M258.525,509.706h-0.009c-59.002,0-116.024-4.052-156.434-11.121
		c-63.337-11.091-78.335-25.959-89.152-88.42c-14.404-83.149-14.183-224.212,0.48-308.031c11.06-63.299,25.937-78.297,88.405-89.152
		c39.64-6.886,93.615-10.687,151.978-10.687c58.881,0,115.781,4.045,156.091,11.098c63.314,11.083,78.306,25.959,89.152,88.42
		c14.427,83.164,14.229,224.258-0.442,308.092c-11.045,63.313-25.929,78.305-88.404,89.167
		C370.612,505.928,316.743,509.706,258.525,509.706 M253.795,17.894c-57.495,0-110.518,3.717-149.312,10.458
		c-55.88,9.704-65.782,19.713-75.7,76.461c-14.419,82.38-14.633,220.997-0.48,302.699c9.674,55.85,19.683,65.768,76.469,75.715
		c39.564,6.916,95.596,10.877,153.745,10.877h0.009c57.364,0,110.273-3.687,149-10.39c55.895-9.72,65.797-19.729,75.715-76.492
		c14.412-82.402,14.609-221.036,0.441-302.745c-9.72-55.872-19.729-65.782-76.477-75.715
		C367.733,21.855,311.807,17.894,253.795,17.894"/>
	<path fill="#33CCFF" d="M410.213,201.514l12.839,12.839l7.777-8.783l-39.859-41.216l-12.504-0.335l-20.951-20.616l-17.565,17.901
		l-55.748-51.357c0,0-41.551-26.684-84.46,8.783c-42.909,35.467-18.237,79.398-18.237,79.398l35.132,40.21l21.622-19.594
		l-26.349-30.74c0,0-18.237-25.343,5.413-47.3c23.65-21.957,48.994-10.14,48.994-10.14l51.691,51.357l-17.9,17.231l56.419,57.441
		l1.356-0.335l8.112-9.454l26.014,26.684l39.156-39.875l-27.036-26.014L410.213,201.514z"/>
	
		<rect x="231.826" y="232.605" transform="matrix(-0.7071 -0.7071 0.7071 -0.7071 245.2267 595.833)" fill="#33CCFF" width="28.376" height="29.047"/>
	
		<rect x="258.177" y="258.283" transform="matrix(0.7071 0.7071 -0.7071 0.7071 272.6821 -112.6881)" fill="#33CCFF" width="28.376" height="29.048"/>
	<path fill="#33CCFF" d="M302.789,282.605l-20.616,19.594l16.927,20.775c0,0,18.237,25.344-5.397,47.301
		c-23.65,21.957-48.993,10.14-48.993,10.14l-51.692-51.357l17.901-17.23l-56.418-57.44l-1.357,0.335l-8.112,9.454l-26.014-26.684
		l-39.172,39.875l27.036,26.014l-6.084,6.084l-12.839-12.839l-7.777,8.783l39.859,41.216l12.504,0.335l20.951,20.616l17.566-17.901
		l55.748,51.357c0,0,41.551,26.684,84.459-8.783c42.909-35.467,18.237-79.398,18.237-79.398L302.789,282.605z"/>
</g>
</svg>
