<?xml version="1.0" encoding="utf-8"?>
<!-- Generator: Adobe Illustrator 16.0.0, SVG Export Plug-In . SVG Version: 6.00 Build 0)  -->
<!DOCTYPE svg PUBLIC "-//W3C//DTD SVG 1.1//EN" "http://www.w3.org/Graphics/SVG/1.1/DTD/svg11.dtd">
<svg version="1.1"
	 id="svg2" xmlns:dc="http://purl.org/dc/elements/1.1/" xmlns:cc="http://creativecommons.org/ns#" xmlns:rdf="http://www.w3.org/1999/02/22-rdf-syntax-ns#" xmlns:svg="http://www.w3.org/2000/svg"
	 xmlns="http://www.w3.org/2000/svg" xmlns:xlink="http://www.w3.org/1999/xlink" x="0px" y="0px" width="80px" height="42px"
	 viewBox="0 0 80 42" enable-background="new 0 0 80 42" xml:space="preserve">
<g id="g12" transform="scale(0.1,0.1)">
	<path id="path22" fill="#2B669E" d="M15.339,275.578h603.623V124.114H15.339V275.578z"/>
	<path id="path24" fill="none" stroke="#FFFFFF" stroke-width="4" d="M15.339,275.578h603.623V124.114H15.339V275.578z"/>
	<path id="path26" fill="#2B669E" d="M618.962,276.321V124.114H14.998L164.309,10.002h578.11V136.75L618.962,276.321"/>
	<path id="path28" fill="none" stroke="#FFFFFF" stroke-width="4" d="M618.962,276.321V124.114H14.998L164.309,10.002h578.11V136.75
		L618.962,276.321z"/>
	<path id="path30" fill="#2B669E" d="M625.505,121.423L733.767,12.356"/>
	<path id="path32" fill="none" stroke="#FFFFFF" stroke-width="4" d="M625.505,121.423L733.767,12.356"/>
	<path id="path34" fill="#FFFFFF" d="M74.67,216.829h96.304v-27.939H74.67V216.829z"/>
	<path id="path36" fill="#FFFFFF" d="M201.404,216.829h96.279v-27.939h-96.279V216.829z"/>
	<path id="path38" fill="#FFFFFF" d="M328.113,216.829h96.143v-27.939h-96.143V216.829z"/>
	<path id="path40" fill="#FFFFFF" d="M454.822,216.829h96.289v-27.939h-96.289V216.829z"/>
	
		<path id="path42" fill="none" stroke="#2B669E" stroke-width="4" stroke-linecap="round" stroke-linejoin="round" stroke-miterlimit="1" d="
		M783.904,272.473c4.834,31.191-6.367,67.813-32.754,96.553c-27.754,30.244-65.322,44.492-97.949,40.234"/>
	
		<path id="path44" fill="none" stroke="#2B669E" stroke-width="4" stroke-linecap="round" stroke-linejoin="round" stroke-miterlimit="1" d="
		M769.998,268.948c4.482,29.268-5.947,63.164-30.381,89.805c-25.938,28.369-60.742,41.436-91.357,37.627"/>
	
		<path id="path46" fill="none" stroke="#2B669E" stroke-width="4" stroke-linecap="round" stroke-linejoin="round" stroke-miterlimit="1" d="
		M756.208,265.715c4.043,27.041-5.635,58.232-28.301,83.037c-23.936,25.928-56.26,38.369-84.316,34.746"/>
	
		<path id="path48" fill="none" stroke="#2B669E" stroke-width="4" stroke-linecap="round" stroke-linejoin="round" stroke-miterlimit="1" d="
		M742.205,262.19c3.789,24.824-5.078,53.564-25.771,76.582c-22.041,23.73-51.729,34.99-77.529,31.836"/>
	
		<path id="path50" fill="none" stroke="#2B669E" stroke-width="4" stroke-linecap="round" stroke-linejoin="round" stroke-miterlimit="1" d="
		M728.455,258.938c3.291,22.607-4.59,48.945-23.789,69.551c-19.824,21.846-46.904,32.217-70.693,29.248"/>
	
		<path id="path52" fill="none" stroke="#2B669E" stroke-width="4" stroke-linecap="round" stroke-linejoin="round" stroke-miterlimit="1" d="
		M714.412,255.422c3.086,20.391-4.004,44.297-21.23,63.066c-18.057,19.688-42.656,28.867-63.887,26.357"/>
	
		<path id="path54" fill="none" stroke="#2B669E" stroke-width="4" stroke-linecap="round" stroke-linejoin="round" stroke-miterlimit="1" d="
		M700.662,252.17c2.607,18.193-3.73,39.355-19.248,56.055c-15.996,17.773-37.832,26.064-56.826,23.73"/>
	
		<path id="path56" fill="none" stroke="#2B669E" stroke-width="4" stroke-linecap="round" stroke-linejoin="round" stroke-miterlimit="1" d="
		M686.628,248.655c2.52,16.25-3.174,34.697-16.689,49.57c-14.248,15.322-33.584,22.725-50.273,20.576"/>
</g>
</svg>
