<?xml version="1.0" encoding="utf-8"?>
<!-- Generator: Adobe Illustrator 16.0.0, SVG Export Plug-In . SVG Version: 6.00 Build 0)  -->
<!DOCTYPE svg PUBLIC "-//W3C//DTD SVG 1.1//EN" "http://www.w3.org/Graphics/SVG/1.1/DTD/svg11.dtd">
<svg version="1.1" id="图层_1" xmlns="http://www.w3.org/2000/svg" xmlns:xlink="http://www.w3.org/1999/xlink" x="0px" y="0px"
	 width="512px" height="512px" viewBox="0 0 512 512" enable-background="new 0 0 512 512" xml:space="preserve">
<g>
	<path fill="#33CCFF" d="M497.701,101.813c-10.848-62.461-25.839-77.337-89.152-88.42C368.238,6.34,311.339,2.295,252.458,2.295
		c-58.363,0-112.338,3.801-151.978,10.687c-62.468,10.855-77.345,25.853-88.405,89.152c-14.663,83.819-14.884,224.882-0.48,308.031
		c10.817,62.461,25.815,77.329,89.152,88.42c40.409,7.069,97.431,11.121,156.434,11.121h0.008
		c58.218,0,112.087-3.778,151.665-10.634c62.477-10.862,77.36-25.854,88.405-89.167C511.93,326.071,512.128,184.977,497.701,101.813
		 M481.903,407.222c-9.918,56.764-19.819,66.772-75.715,76.492c-38.726,6.703-91.635,10.39-149,10.39h-0.008
		c-58.149,0-114.181-3.961-153.745-10.877c-56.786-9.947-66.795-19.865-76.469-75.715c-14.153-81.702-13.939-220.319,0.48-302.699
		c9.918-56.748,19.82-66.757,75.7-76.461c38.794-6.741,91.817-10.458,149.312-10.458c58.012,0,113.938,3.961,153.411,10.868
		c56.747,9.933,66.757,19.843,76.477,75.715C496.514,186.186,496.315,324.819,481.903,407.222"/>
	<path fill-rule="evenodd" clip-rule="evenodd" fill="#33CCFF" d="M335.773,187.83c0,0-0.631-2.822-0.631-6.845
		c0-14.265-17.991-72.589-85.214-72.589c-55.925,0-85.213,44.46-85.213,82.057c0,37.598,17.284,59.645,28.405,69.435l15.78-12.625
		c0,0-25.249-15.052-25.249-56.809c0-36.767,32.033-63.121,66.277-63.121s66.277,32.399,66.277,53.653c0,0,2.198-1.894,0,5.375
		C316.206,186.36,321.665,185.031,335.773,187.83"/>
	<polygon fill-rule="evenodd" clip-rule="evenodd" fill="#33CCFF" points="174.184,266.199 215.213,228.326 221.525,272.511 	"/>
	<polygon fill-rule="evenodd" clip-rule="evenodd" fill="#33CCFF" points="291.201,315.005 238.917,289.096 281.846,266.731 	"/>
	<path fill-rule="evenodd" clip-rule="evenodd" fill="#33CCFF" d="M153.552,201.619c0,0-48.802,20.864-48.802,77.204
		c0,56.341,39.044,88.37,85.214,88.37c46.169,0,78.388-38.481,85.214-66.278l-18.937-6.312c0,0-21.377,53.652-66.277,53.652
		s-66.277-39.531-66.277-69.433c0-29.9,17.993-49.346,34.634-56.164l-3.119-9.996L153.552,201.619z"/>
	<path fill-rule="evenodd" clip-rule="evenodd" fill="#33CCFF" d="M275.178,329.32c0,0,12.676,18.936,44.184,18.936
		c31.51,0,66.278-27.482,66.278-66.276c0-36.045-27.702-66.277-66.278-66.277c-33.255,0-44.184,15.78-44.184,15.78l-12.625-12.624
		c0,0,11.737-22.092,56.809-22.092c54.514,0,85.214,43.217,85.214,85.213c0,41.997-31.402,85.214-85.214,85.214
		c0,0-35.539,1.088-56.809-22.093L275.178,329.32z"/>
	<polygon fill-rule="evenodd" clip-rule="evenodd" fill="#33CCFF" points="274.486,187.292 301.004,240.405 252.82,230.408 	"/>
</g>
</svg>
