<?xml version="1.0" encoding="utf-8"?>
<!-- Generator: Adobe Illustrator 16.0.0, SVG Export Plug-In . SVG Version: 6.00 Build 0)  -->
<!DOCTYPE svg PUBLIC "-//W3C//DTD SVG 1.1//EN" "http://www.w3.org/Graphics/SVG/1.1/DTD/svg11.dtd">
<svg version="1.1"
	 id="svg2" xmlns:dc="http://purl.org/dc/elements/1.1/" xmlns:cc="http://creativecommons.org/ns#" xmlns:rdf="http://www.w3.org/1999/02/22-rdf-syntax-ns#" xmlns:svg="http://www.w3.org/2000/svg"
	 xmlns="http://www.w3.org/2000/svg" xmlns:xlink="http://www.w3.org/1999/xlink" x="0px" y="0px" width="80px" height="54px"
	 viewBox="0 0 80 54" enable-background="new 0 0 80 54" xml:space="preserve">
<g id="g12" transform="scale(0.1,0.1)">
	<path id="path22" fill="#026C9B" d="M784.998,160.037c0,82.881-172.295,150.029-385,150.029s-385-67.148-385-150.029v219.931
		c0,82.871,172.295,150.029,385,150.029s385-67.158,385-150.029V160.037"/>
	<path id="path24" fill="none" stroke="#FFFFFF" stroke-width="4" d="M784.998,160.037c0,82.881-172.295,150.029-385,150.029
		s-385-67.148-385-150.029v219.931c0,82.871,172.295,150.029,385,150.029s385-67.158,385-150.029V160.037z"/>
	<path id="path26" fill="#026C9B" d="M399.998,310.066c212.705,0,385-67.148,385-150.029c0-82.891-172.295-150.039-385-150.039
		s-385,67.148-385,150.039C14.998,242.917,187.292,310.066,399.998,310.066"/>
	<path id="path28" fill="none" stroke="#FFFFFF" stroke-width="4" d="M399.998,310.066c212.705,0,385-67.148,385-150.029
		c0-82.891-172.295-150.039-385-150.039s-385,67.148-385,150.039C14.998,242.917,187.292,310.066,399.998,310.066z"/>
	<path id="path30" fill="#FFFFFF" d="M283.367,120.427l44.863,24.033l-98.506,18.154l22.939-19.199L81.511,115.564l14.331-11.406
		l170.278,27.852L283.367,120.427"/>
	<path id="path32" fill="#FFFFFF" d="M517.937,196.042l-44.932-24.385l98.604-17.422l-22.861,18.936l170.859,29.072l-14.365,11.523
		l-170.01-29.229L517.937,196.042"/>
	<path id="path34" fill="#FFFFFF" d="M466.941,70.613l86.25-35.449l-11.719,44.082l-25.713-1.885l-65.205,54.648l-21.914-4.854
		l65.215-52.734L466.941,70.613"/>
	<path id="path36" fill="#FFFFFF" d="M346.648,244.333l-85.459,36.797l10.869-44.345l25.723,1.523l62.383-52.725l22.119,4.492
		l-62.393,50.83L346.648,244.333"/>
	<path id="path38" d="M396.511,508.171c49.15,0,88.643-39.912,88.643-89.004c0-49.102-39.492-89.014-88.643-89.014
		c-49.16,0-88.984,39.912-88.984,89.014C307.527,468.259,347.351,508.171,396.511,508.171"/>
	<path id="path40" fill="none" stroke="#FFFFFF" stroke-width="4" d="M396.511,508.171c49.15,0,88.643-39.912,88.643-89.004
		c0-49.102-39.492-89.014-88.643-89.014c-49.16,0-88.984,39.912-88.984,89.014C307.527,468.259,347.351,508.171,396.511,508.171z"/>
	<g id="g42" transform="scale(10,10)" style="font-variant:normal;font-weight:bold;font-size:13.0471px;font-family:Helvetica;-inkscape-font-specification:Helvetica-Bold;writing-mode:lr-tb;fill:#ffffff;fill-opacity:1;fill-rule:nonzero;stroke:none">
		<text transform="matrix(0.9977 0 0 1 33.7879 46.614)">S</text>
		<text transform="matrix(0.9977 0 0 1 41.6248 46.614)">i</text>
	</g>
</g>
</svg>
