<?xml version="1.0" encoding="utf-8"?>
<!-- Generator: Adobe Illustrator 16.0.0, SVG Export Plug-In . SVG Version: 6.00 Build 0)  -->
<!DOCTYPE svg PUBLIC "-//W3C//DTD SVG 1.1//EN" "http://www.w3.org/Graphics/SVG/1.1/DTD/svg11.dtd">
<svg version="1.1"
	 id="svg2" xmlns:dc="http://purl.org/dc/elements/1.1/" xmlns:cc="http://creativecommons.org/ns#" xmlns:rdf="http://www.w3.org/1999/02/22-rdf-syntax-ns#" xmlns:svg="http://www.w3.org/2000/svg"
	 xmlns="http://www.w3.org/2000/svg" xmlns:xlink="http://www.w3.org/1999/xlink" x="0px" y="0px" width="56px" height="76px"
	 viewBox="0 0 56 76" enable-background="new 0 0 56 76" xml:space="preserve">
<g id="g12" transform="scale(0.1,0.1)">
	<path id="path22" fill="#026C9B" d="M0,760.002h497.334V263.474H0V760.002z"/>
	<path id="path24" fill="none" stroke="#FFFFFF" stroke-width="4" d="M0,760.002h497.334V263.474H0V760.002z"/>
	<path id="path26" fill="#026C9B" d="M560,697.805V201.252l-62.666,62.222v496.528L560,697.805"/>
	<path id="path28" fill="none" stroke="#FFFFFF" stroke-width="4" d="M560,697.805V201.252l-62.666,62.222v496.528L560,697.805z"/>
	<path id="path30" fill="#026C9B" d="M90.938,0.002L0,62.224h497.334L560,0.002H90.938"/>
	<path id="path32" fill="none" stroke="#FFFFFF" stroke-width="4" d="M90.938,0.002L0,62.224h497.334L560,0.002H90.938z"/>
	<path id="path34" fill="#026C9B" d="M0,263.474h497.334V62.224H0V263.474z"/>
	<path id="path36" fill="none" stroke="#FFFFFF" stroke-width="4" d="M0,263.474h497.334V62.224H0V263.474z"/>
	<path id="path38" fill="#026C9B" d="M560,201.252V0.002l-62.666,62.222v201.25L560,201.252"/>
	<path id="path40" fill="none" stroke="#FFFFFF" stroke-width="4" d="M560,201.252V0.002l-62.666,62.222v201.25L560,201.252z"/>
	<path id="path42" fill="#026C9B" d="M497.334,263.474H0"/>
	<path id="path44" fill="none" stroke="#FFFFFF" stroke-width="4" d="M497.334,263.474H0"/>
	<path id="path46" fill="#026C9B" d="M497.334,263.474L560,201.252"/>
	<path id="path48" fill="none" stroke="#FFFFFF" stroke-width="4" d="M497.334,263.474L560,201.252"/>
	<path id="path50" fill="#FFFFFF" d="M81.074,130.945h80.215V89.158H81.074V130.945z"/>
	<path id="path52" fill="#FFFFFF" d="M344.629,130.945h80.186V89.158h-80.186V130.945z"/>
	<path id="path54" fill="#FFFFFF" d="M81.074,235.247h80.215v-41.787H81.074V235.247z"/>
	<path id="path56" fill="#FFFFFF" d="M344.629,235.247h80.186v-41.787h-80.186V235.247z"/>
	<path id="path58" d="M135.547,110.115h246.27"/>
	<path id="path60" fill="none" stroke="#FFFFFF" stroke-width="4" d="M135.547,110.115h246.27"/>
	<path id="path62" d="M135.547,214.407h246.27"/>
	<path id="path64" fill="none" stroke="#FFFFFF" stroke-width="4" d="M135.547,214.407h246.27"/>
	<path id="path66" d="M121.191,214.407l260.625-104.292"/>
	<path id="path68" fill="none" stroke="#FFFFFF" stroke-width="4" d="M121.191,214.407l260.625-104.292"/>
	<path id="path70" d="M121.191,110.115l260.625,104.292"/>
	<path id="path72" fill="none" stroke="#FFFFFF" stroke-width="4" d="M121.191,110.115l260.625,104.292"/>
	<path id="path74" fill="#FFFFFF" d="M259.326,439.485V332.122h18.34l-26.973-40.527l-26.865,40.527h18.232v107.363H259.326"/>
	<path id="path76" fill="#FFFFFF" d="M204.561,455.031l-76.025-75.888l12.92-12.92l-47.773-9.658l9.668,47.763l12.92-12.93
		l76.025,76.006L204.561,455.031"/>
	<path id="path78" fill="#FFFFFF" d="M176.758,504.768H69.199v-18.096l-40.518,26.836l40.518,26.836v-18.096h107.559V504.768"/>
	<path id="path80" fill="#FFFFFF" d="M192.295,559.602L116.27,635.5l-12.92-12.803l-9.668,47.627l47.773-9.658l-12.92-12.803
		l76.025-75.879L192.295,559.602"/>
	<path id="path82" fill="#FFFFFF" d="M242.061,587.297v107.49h-18.232l26.865,40.635l26.973-40.635h-18.34v-107.49H242.061"/>
	<path id="path84" fill="#FFFFFF" d="M296.934,571.985l75.928,75.879l-12.803,12.803l47.637,9.658l-9.648-47.627L385.234,635.5
		l-76.172-75.898L296.934,571.985"/>
	<path id="path86" fill="#FFFFFF" d="M324.639,522.248h107.529v18.096l40.654-26.836l-40.654-26.836v18.096H324.639V522.248"/>
	<path id="path88" fill="#FFFFFF" d="M309.063,467.405l76.172-76.006l12.813,12.93l9.648-47.763l-47.637,9.658l12.803,12.92
		l-75.928,75.888L309.063,467.405"/>
	<path id="path90" fill="#FFFFFF" d="M316.445,603.479c50.4-35.127,62.529-104.629,27.373-154.99
		c-35.381-50.186-104.678-62.49-155.078-27.129c-50.273,35.137-62.5,104.619-27.236,154.746
		C196.748,626.487,266.162,638.83,316.445,603.479"/>
</g>
</svg>
