<?xml version="1.0" encoding="utf-8"?>
<!-- Generator: Adobe Illustrator 16.0.0, SVG Export Plug-In . SVG Version: 6.00 Build 0)  -->
<!DOCTYPE svg PUBLIC "-//W3C//DTD SVG 1.1//EN" "http://www.w3.org/Graphics/SVG/1.1/DTD/svg11.dtd">
<svg version="1.1"
	 id="svg2" xmlns:dc="http://purl.org/dc/elements/1.1/" xmlns:cc="http://creativecommons.org/ns#" xmlns:rdf="http://www.w3.org/1999/02/22-rdf-syntax-ns#" xmlns:svg="http://www.w3.org/2000/svg"
	 xmlns="http://www.w3.org/2000/svg" xmlns:xlink="http://www.w3.org/1999/xlink" x="0px" y="0px" width="80px" height="54px"
	 viewBox="0 0 80 54" enable-background="new 0 0 80 54" xml:space="preserve">
<g id="g12" transform="scale(0.1,0.1)">
	<path id="path22" fill="#026C9B" d="M785,160.127c0,82.949-172.354,149.98-385.068,149.98C187.373,310.107,15,243.076,15,160.127
		v219.746C15,462.959,187.373,530,399.932,530C612.646,530,785,462.959,785,379.873V160.127"/>
	<path id="path24" fill="none" stroke="#FFFFFF" stroke-width="4" d="M785,160.127c0,82.949-172.354,149.98-385.068,149.98
		C187.373,310.107,15,243.076,15,160.127v219.746C15,462.959,187.373,530,399.932,530C612.646,530,785,462.959,785,379.873V160.127z
		"/>
	<path id="path26" fill="#026C9B" d="M399.932,310.107c212.715,0,385.068-67.031,385.068-149.98C785,77.158,612.646,10,399.932,10
		C187.373,10,15,77.168,15,160.127C15,243.076,187.373,310.107,399.932,310.107"/>
	<path id="path28" fill="none" stroke="#FFFFFF" stroke-width="4" d="M399.932,310.107c212.715,0,385.068-67.031,385.068-149.98
		C785,77.158,612.646,10,399.932,10C187.373,10,15,77.168,15,160.127C15,243.076,187.373,310.107,399.932,310.107z"/>
	<path id="path30" fill="#FFFFFF" d="M312.1,101.396l31.768,47.803l-120.205,27.939l26.191-21.953L64.16,123.34l46.563-34.971
		l179.229,30.391L312.1,101.396"/>
	<path id="path32" fill="#FFFFFF" d="M481.162,217.373l-21.787-49.287l108.604-21.68l-18.838,16.797l180.693,31.025l-43.555,34.814
		l-179.443-33.955L481.162,217.373"/>
	<path id="path34" fill="#FFFFFF" d="M422.021,75.273l121.25-33.35l1.455,52.236l-30.313-5.752l-59.141,49.297l-56.768-8.311
		l61.348-48.184L422.021,75.273"/>
	<path id="path36" fill="#FFFFFF" d="M369.775,262.393l-115.508,21.68l-4.414-53.701l33.242,7.373l63.594-54.551l56.338,9.531
		l-67.832,59.473L369.775,262.393"/>
</g>
</svg>
