<svg version="1.1" id="ilhwsa8q1" xmlns:xml="http://www.w3.org/XML/1998/namespace"
	 xmlns="http://www.w3.org/2000/svg" xmlns:xlink="http://www.w3.org/1999/xlink" x="0px" y="0px" width="77px" height="20px"
	 viewBox="0 0 77 20" enable-background="new 0 0 77 20" xml:space="preserve">
<g>
	<path fill="#072B39" d="M18.129,20H9.9c-0.535,0-1.002-0.467-1.002-1v-0.266h10.235V19C19.133,19.533,18.664,20,18.129,20z"/>
	<path fill="#072B39" d="M67.232,20h-8.228c-0.534,0-1.004-0.467-1.004-1v-0.266h10.234V19C68.235,19.533,67.768,20,67.232,20z"/>
	<path fill="#324A62" d="M74.659,18.8H2.274C1.07,18.8,0,17.733,0,16.466V2.333C0,1.067,1.004,0,2.274,0h72.453
		C75.931,0,77,1.067,77,2.333v14.133C76.934,17.733,75.931,18.8,74.659,18.8z"/>
	<path fill="#37668C" d="M76.264,1.866H0.803l0,0c0-0.6,0.536-1.133,1.138-1.133h73.187C75.729,0.8,76.264,1.267,76.264,1.866
		L76.264,1.866z"/>
	<g>
		<path fill="#FCD39D" d="M30.439,0.733c-0.269,1.066-0.269,2.067,0,3.133c0.066,0.201,0.4,0.334,0.735,0.334l0,0
			c0.334-0.067,0.535-0.2,0.535-0.399c-0.268-0.934-0.268-1.935,0-2.935V0.733H30.439z"/>
		<path fill="#FCD39D" d="M34.988,0.733c-0.269,1.066-0.269,2.067,0,3.133C35.054,4.067,35.389,4.2,35.724,4.2l0,0
			c0.334-0.067,0.535-0.2,0.535-0.399c-0.268-0.934-0.268-1.935,0-2.935V0.733H34.988z"/>
		<path fill="#FCD39D" d="M39.471,0.733c-0.27,1.066-0.27,2.067,0,3.133c0.066,0.201,0.4,0.334,0.735,0.334l0,0
			c0.334-0.067,0.536-0.2,0.536-0.399c-0.269-0.934-0.269-1.935,0-2.935V0.733H39.471z"/>
		<path fill="#FCD39D" d="M44.019,0.733c-0.267,1.066-0.267,2.067,0,3.133C44.086,4.067,44.422,4.2,44.755,4.2l0,0
			C45.091,4.133,45.29,4,45.29,3.801c-0.267-0.934-0.267-1.935,0-2.935V0.733H44.019z"/>
		<path fill="#FCD39D" d="M48.568,0.733c-0.269,1.066-0.269,2.067,0,3.133C48.636,4.067,48.97,4.2,49.305,4.2l0,0
			C49.639,4.133,49.84,4,49.84,3.801c-0.269-0.934-0.269-1.935,0-2.935V0.733H48.568z"/>
		<path fill="#FCD39D" d="M53.052,0.733c-0.269,1.066-0.269,2.067,0,3.133c0.065,0.201,0.4,0.334,0.734,0.334l0,0
			c0.336-0.067,0.535-0.2,0.535-0.399c-0.267-0.934-0.267-1.935,0-2.935V0.733H53.052z"/>
		<path fill="#FCD39D" d="M57.6,0.733c-0.269,1.066-0.269,2.067,0,3.133C57.667,4.067,58.001,4.2,58.336,4.2l0,0
			c0.334-0.067,0.535-0.267,0.535-0.467c-0.269-0.933-0.269-1.934,0-2.934V0.667L57.6,0.733z"/>
		<path fill="#FCD39D" d="M62.15,0.733c-0.27,1.066-0.27,2.067,0,3.133c0.064,0.201,0.4,0.334,0.733,0.334l0,0
			c0.336-0.067,0.535-0.2,0.535-0.399c-0.267-0.934-0.267-1.935,0-2.935V0.733H62.15z"/>
	</g>
	<path fill="#072B39" d="M73.254,11.333H3.813c-0.401,0-0.668-0.334-0.668-0.666V7.533c0-0.4,0.335-0.667,0.668-0.667h69.441
		c0.402,0,0.669,0.334,0.669,0.667v3.134C73.923,10.999,73.589,11.333,73.254,11.333z"/>
	<g>
		<circle fill="#FFFFFF" cx="62.685" cy="9.201" r="0.6"/>
		<circle fill="#FFFFFF" cx="58.202" cy="9.201" r="0.6"/>
		<circle fill="#FFFFFF" cx="53.719" cy="9.201" r="0.6"/>
		<circle fill="#FFFFFF" cx="48.835" cy="9.201" r="0.6"/>
		<circle fill="#FFFFFF" cx="44.354" cy="9.201" r="0.6"/>
		<circle fill="#FFFFFF" cx="39.871" cy="9.201" r="0.6"/>
		<circle fill="#FFFFFF" cx="35.389" cy="9.201" r="0.6"/>
		<circle fill="#FFFFFF" cx="30.974" cy="9.201" r="0.6"/>
	</g>
	<path fill="#6797A3" d="M22.144,8.533H5.553c-0.268,0-0.536,0.267-0.536,0.534l0,0c0,0.267,0.268,0.532,0.536,0.532h16.523
		c0.268,0,0.535-0.266,0.535-0.532l0,0C22.678,8.8,22.411,8.533,22.144,8.533z"/>
</g>
</svg>
