<?xml version="1.0" encoding="utf-8"?>
<!-- Generator: Adobe Illustrator 16.0.0, SVG Export Plug-In . SVG Version: 6.00 Build 0)  -->
<!DOCTYPE svg PUBLIC "-//W3C//DTD SVG 1.1//EN" "http://www.w3.org/Graphics/SVG/1.1/DTD/svg11.dtd">
<svg version="1.1"
	 id="svg2" xmlns:dc="http://purl.org/dc/elements/1.1/" xmlns:cc="http://creativecommons.org/ns#" xmlns:rdf="http://www.w3.org/1999/02/22-rdf-syntax-ns#" xmlns:svg="http://www.w3.org/2000/svg"
	 xmlns="http://www.w3.org/2000/svg" xmlns:xlink="http://www.w3.org/1999/xlink" x="0px" y="0px" width="54px" height="80px"
	 viewBox="0 0 54 80" enable-background="new 0 0 54 80" xml:space="preserve">
<g id="g12" transform="scale(0.1,0.1)">
	<path id="path22" fill="#036998" d="M14.995,784.995h102.578V479.058H14.995V784.995z"/>
	<path id="path24" fill="none" stroke="#FFFFFF" stroke-width="3.9999" d="M117.573,479.058H14.995v305.937h102.578"/>
	<path id="path26" fill="#036998" d="M117.573,784.995l56.694-56.66V422.329H71.704l-56.709,56.729h102.578V784.995"/>
	<path id="path28" fill="none" stroke="#FFFFFF" stroke-width="3.9999" d="M117.573,784.995l56.694-56.66V422.329H71.704
		l-56.709,56.729h102.578V784.995z"/>
	<path id="path30" fill="#036998" d="M117.573,479.058l56.694-56.729"/>
	<path id="path32" fill="none" stroke="#FFFFFF" stroke-width="3.9999" d="M117.573,479.058l56.694-56.729"/>
	<path id="path34" fill="#036998" d="M117.573,784.995h209.16V100.054h-209.16V784.995z"/>
	<path id="path36" fill="none" stroke="#FFFFFF" stroke-width="3.9999" d="M326.733,100.054h-209.16v684.941h209.16"/>
	<path id="path38" fill="#036998" d="M326.733,784.995l85.049-85.068V14.995H202.617l-85.044,85.059h209.16V784.995"/>
	<path id="path40" fill="none" stroke="#FFFFFF" stroke-width="3.9999" d="M326.733,784.995l85.049-85.068V14.995H202.617
		l-85.044,85.059h209.16V784.995z"/>
	<path id="path42" fill="#036998" d="M326.733,100.054l85.049-85.059"/>
	<path id="path44" fill="none" stroke="#FFFFFF" stroke-width="3.9999" d="M326.733,100.054l85.049-85.059"/>
	<path id="path46" fill="#036998" d="M226.489,381.187v31.963h31.973"/>
	<path id="path48" fill="none" stroke="#FFFFFF" stroke-width="3.9999" d="M226.489,381.187v31.963h31.973"/>
	<path id="path50" fill="#036998" d="M271.089,381.187v31.963h31.953"/>
	<path id="path52" fill="none" stroke="#FFFFFF" stroke-width="3.9999" d="M271.089,381.187v31.963h31.953"/>
	<path id="path54" fill="#036998" d="M136.816,382.046v31.953h31.963"/>
	<path id="path56" fill="none" stroke="#FFFFFF" stroke-width="3.9999" d="M136.816,382.046v31.953h31.963"/>
	<path id="path58" fill="#036998" d="M181.416,382.046v31.953h31.978"/>
	<path id="path60" fill="none" stroke="#FFFFFF" stroke-width="3.9999" d="M181.416,382.046v31.953h31.978"/>
	<path id="path62" fill="#036998" d="M226.128,447.729v31.982h31.973"/>
	<path id="path64" fill="none" stroke="#FFFFFF" stroke-width="3.9999" d="M226.128,447.729v31.982h31.973"/>
	<path id="path66" fill="#036998" d="M270.718,447.729v31.982h32.012"/>
	<path id="path68" fill="none" stroke="#FFFFFF" stroke-width="3.9999" d="M270.718,447.729v31.982h32.012"/>
	<path id="path70" fill="#036998" d="M136.47,448.56v31.992h31.953"/>
	<path id="path72" fill="none" stroke="#FFFFFF" stroke-width="3.9999" d="M136.47,448.56v31.992h31.953"/>
	<path id="path74" fill="#036998" d="M181.05,448.56v31.992h31.973"/>
	<path id="path76" fill="none" stroke="#FFFFFF" stroke-width="3.9999" d="M181.05,448.56v31.992h31.973"/>
	<path id="path78" fill="none" stroke="#FFFFFF" stroke-width="3.9999" d="M226.128,511.45v31.963h31.973"/>
	<path id="path80" fill="none" stroke="#FFFFFF" stroke-width="3.9999" d="M270.718,511.45v31.963h32.012"/>
	<path id="path82" fill="none" stroke="#FFFFFF" stroke-width="3.9999" d="M136.47,512.29v31.963h31.953"/>
	<path id="path84" fill="none" stroke="#FFFFFF" stroke-width="3.9999" d="M181.05,512.29v31.963h31.973"/>
	<path id="path86" fill="none" stroke="#FFFFFF" stroke-width="3.9999" d="M29.839,504.976v31.963h31.978"/>
	<path id="path88" fill="none" stroke="#FFFFFF" stroke-width="3.9999" d="M74.443,504.976v31.963h31.973"/>
	<path id="path90" fill="none" stroke="#FFFFFF" stroke-width="3.9999" d="M32.246,565.112v31.934h31.963"/>
	<path id="path92" fill="none" stroke="#FFFFFF" stroke-width="3.9999" d="M76.846,565.112v31.934h31.973"/>
	<path id="path94" fill="none" stroke="#FFFFFF" stroke-width="3.9999" d="M32.246,619.204v31.943h31.963"/>
	<path id="path96" fill="none" stroke="#FFFFFF" stroke-width="3.9999" d="M76.846,619.204v31.943h31.973"/>
	<path id="path98" fill="#036998" d="M227.378,134.121v31.968h31.973"/>
	<path id="path100" fill="none" stroke="#FFFFFF" stroke-width="3.9999" d="M227.378,134.121v31.968h31.973"/>
	<path id="path102" fill="#036998" d="M271.987,134.121v31.968h31.973"/>
	<path id="path104" fill="none" stroke="#FFFFFF" stroke-width="3.9999" d="M271.987,134.121v31.968h31.973"/>
	<path id="path106" fill="#036998" d="M137.72,134.961v31.973h31.978"/>
	<path id="path108" fill="none" stroke="#FFFFFF" stroke-width="3.9999" d="M137.72,134.961v31.973h31.978"/>
	<path id="path110" fill="#036998" d="M182.3,134.961v31.973h31.973"/>
	<path id="path112" fill="none" stroke="#FFFFFF" stroke-width="3.9999" d="M182.3,134.961v31.973h31.973"/>
	<path id="path114" fill="#036998" d="M227.002,200.649v31.982h31.978"/>
	<path id="path116" fill="none" stroke="#FFFFFF" stroke-width="3.9999" d="M227.002,200.649v31.982h31.978"/>
	<path id="path118" fill="#036998" d="M271.626,200.649v31.982h31.943"/>
	<path id="path120" fill="none" stroke="#FFFFFF" stroke-width="3.9999" d="M271.626,200.649v31.982h31.943"/>
	<path id="path122" fill="#036998" d="M137.354,201.494v31.992h31.978"/>
	<path id="path124" fill="none" stroke="#FFFFFF" stroke-width="3.9999" d="M137.354,201.494v31.992h31.978"/>
	<path id="path126" fill="#036998" d="M181.934,201.494v31.992h31.978"/>
	<path id="path128" fill="none" stroke="#FFFFFF" stroke-width="3.9999" d="M181.934,201.494v31.992h31.978"/>
	<path id="path130" fill="#036998" d="M227.002,264.365v31.982h31.978"/>
	<path id="path132" fill="none" stroke="#FFFFFF" stroke-width="3.9999" d="M227.002,264.365v31.982h31.978"/>
	<path id="path134" fill="#036998" d="M271.626,264.365v31.982h31.943"/>
	<path id="path136" fill="none" stroke="#FFFFFF" stroke-width="3.9999" d="M271.626,264.365v31.982h31.943"/>
	<path id="path138" fill="#036998" d="M137.354,265.19v31.992h31.978"/>
	<path id="path140" fill="none" stroke="#FFFFFF" stroke-width="3.9999" d="M137.354,265.19v31.992h31.978"/>
	<path id="path142" fill="#036998" d="M181.934,265.19v31.992h31.978"/>
	<path id="path144" fill="none" stroke="#FFFFFF" stroke-width="3.9999" d="M181.934,265.19v31.992h31.978"/>
	<path id="path146" fill="#036998" d="M227.002,323.267v31.973h31.978"/>
	<path id="path148" fill="none" stroke="#FFFFFF" stroke-width="3.9999" d="M227.002,323.267v31.973h31.978"/>
	<path id="path150" fill="#036998" d="M271.626,323.267v31.973h31.943"/>
	<path id="path152" fill="none" stroke="#FFFFFF" stroke-width="3.9999" d="M271.626,323.267v31.973h31.943"/>
	<path id="path154" fill="#036998" d="M137.354,324.116v31.973h31.978"/>
	<path id="path156" fill="none" stroke="#FFFFFF" stroke-width="3.9999" d="M137.354,324.116v31.973h31.978"/>
	<path id="path158" fill="#036998" d="M181.934,324.116v31.973h31.978"/>
	<path id="path160" fill="none" stroke="#FFFFFF" stroke-width="3.9999" d="M181.934,324.116v31.973h31.978"/>
	<path id="path162" fill="#036998" d="M348.589,405.728v31.982"/>
	<path id="path164" fill="none" stroke="#FFFFFF" stroke-width="3.9999" d="M348.589,405.728v31.982"/>
	<path id="path166" fill="#036998" d="M348.589,460.62v31.992"/>
	<path id="path168" fill="none" stroke="#FFFFFF" stroke-width="3.9999" d="M348.589,460.62v31.992"/>
	<path id="path170" fill="#036998" d="M327.3,784.995h113.369V207.856H327.3V784.995z"/>
	<path id="path172" fill="none" stroke="#FFFFFF" stroke-width="3.9999" d="M440.669,207.856H327.3v577.138h113.369"/>
	<path id="path174" fill="#036998" d="M440.669,784.995l83.184-83.125V124.702H410.425L327.3,207.856h113.369V784.995"/>
	<path id="path176" fill="none" stroke="#FFFFFF" stroke-width="3.9999" d="M440.669,784.995l83.184-83.125V124.702H410.425
		L327.3,207.856h113.369V784.995z"/>
	<path id="path178" fill="#036998" d="M348.394,234.8v31.982h31.963"/>
	<path id="path180" fill="none" stroke="#FFFFFF" stroke-width="3.9999" d="M348.394,234.8v31.982h31.963"/>
	<path id="path182" fill="#036998" d="M392.983,234.8v31.982h31.973"/>
	<path id="path184" fill="none" stroke="#FFFFFF" stroke-width="3.9999" d="M392.983,234.8v31.982h31.973"/>
	<path id="path186" fill="#036998" d="M347.847,294.897v31.982h31.963"/>
	<path id="path188" fill="none" stroke="#FFFFFF" stroke-width="3.9999" d="M347.847,294.897v31.982h31.963"/>
	<path id="path190" fill="#036998" d="M392.397,294.897v31.982h31.992"/>
	<path id="path192" fill="none" stroke="#FFFFFF" stroke-width="3.9999" d="M392.397,294.897v31.982h31.992"/>
	<path id="path194" fill="#036998" d="M347.847,349.014v31.982h31.963"/>
	<path id="path196" fill="none" stroke="#FFFFFF" stroke-width="3.9999" d="M347.847,349.014v31.982h31.963"/>
	<path id="path198" fill="#036998" d="M392.397,349.014v31.982h31.992"/>
	<path id="path200" fill="none" stroke="#FFFFFF" stroke-width="3.9999" d="M392.397,349.014v31.982h31.992"/>
	<path id="path202" fill="#036998" d="M347.378,437.71h32.002"/>
	<path id="path204" fill="none" stroke="#FFFFFF" stroke-width="3.9999" d="M347.378,437.71h32.002"/>
	<path id="path206" fill="#036998" d="M391.987,405.728v31.982h31.934"/>
	<path id="path208" fill="none" stroke="#FFFFFF" stroke-width="3.9999" d="M391.987,405.728v31.982h31.934"/>
	<path id="path210" fill="none" stroke="#FFFFFF" stroke-width="3.9999" d="M347.378,492.612h32.002"/>
	<path id="path212" fill="#036998" d="M391.987,460.62v31.992h31.934"/>
	<path id="path214" fill="none" stroke="#FFFFFF" stroke-width="3.9999" d="M391.987,460.62v31.992h31.934"/>
	<path id="path216" fill="#FFFFFF" d="M397.651,632.954c0,26.123-54.336,47.256-121.406,47.256s-121.44-21.133-121.44-47.256v69.16
		c0,26.123,54.37,47.275,121.44,47.275s121.406-21.152,121.406-47.275V632.954"/>
	<path id="path218" fill="none" stroke="#036998" stroke-width="3.9999" d="M397.651,632.954c0,26.123-54.336,47.256-121.406,47.256
		s-121.44-21.133-121.44-47.256v69.16c0,26.123,54.37,47.275,121.44,47.275s121.406-21.152,121.406-47.275V632.954z"/>
	<path id="path220" fill="#FFFFFF" d="M276.245,680.21c67.07,0,121.406-21.133,121.406-47.256
		c0-26.064-54.336-47.236-121.406-47.236s-121.44,21.172-121.44,47.236C154.805,659.077,209.175,680.21,276.245,680.21"/>
	<path id="path222" fill="none" stroke="#036998" stroke-width="3.9999" d="M276.245,680.21c67.07,0,121.406-21.133,121.406-47.256
		c0-26.064-54.336-47.236-121.406-47.236s-121.44,21.172-121.44,47.236C154.805,659.077,209.175,680.21,276.245,680.21z"/>
	<path id="path224" fill="#036998" d="M239.429,620.483l14.189,7.539l-31.089,5.703l7.246-6.016l-54.004-8.75l4.536-3.613
		l53.706,8.75L239.429,620.483"/>
	<path id="path226" fill="#036998" d="M313.374,644.243l-14.102-7.637l31.133-5.498l-7.305,5.977l53.945,9.199l-4.551,3.555
		l-53.652-9.18L313.374,644.243"/>
	<path id="path228" fill="#036998" d="M297.358,604.8l27.178-11.162l-3.682,13.857l-8.145-0.586l-20.488,17.188l-6.914-1.504
		l20.469-16.602L297.358,604.8"/>
	<path id="path230" fill="#036998" d="M259.429,659.428l-26.982,11.582l3.428-13.965l8.145,0.527l19.658-16.563l6.948,1.387
		l-19.653,15.996L259.429,659.428"/>
	<path id="path232" fill="#036998" d="M441.89,207.856l83.105-83.154"/>
	<path id="path234" fill="none" stroke="#FFFFFF" stroke-width="3.9999" d="M441.89,207.856l83.105-83.154"/>
</g>
</svg>
