<?xml version="1.0" encoding="utf-8"?>
<!-- Generator: Adobe Illustrator 16.0.0, SVG Export Plug-In . SVG Version: 6.00 Build 0)  -->
<!DOCTYPE svg PUBLIC "-//W3C//DTD SVG 1.1//EN" "http://www.w3.org/Graphics/SVG/1.1/DTD/svg11.dtd">
<svg version="1.1"
	 id="svg2" xmlns:dc="http://purl.org/dc/elements/1.1/" xmlns:cc="http://creativecommons.org/ns#" xmlns:rdf="http://www.w3.org/1999/02/22-rdf-syntax-ns#" xmlns:svg="http://www.w3.org/2000/svg"
	 xmlns="http://www.w3.org/2000/svg" xmlns:xlink="http://www.w3.org/1999/xlink" x="0px" y="0px" width="78px" height="62px"
	 viewBox="0 0 78 62" enable-background="new 0 0 78 62" xml:space="preserve">
<g id="g12" transform="scale(0.1,0.1)">
	<path id="path22" fill="#026C9B" d="M764.998,250.791c0,80.488-167.842,145.683-374.99,145.683
		c-207.031,0-375.01-65.195-375.01-145.683v213.525C14.998,544.824,182.976,610,390.007,610c207.148,0,374.99-65.176,374.99-145.684
		V250.791"/>
	<path id="path24" fill="none" stroke="#FFFFFF" stroke-width="4" d="M764.998,250.791c0,80.488-167.842,145.683-374.99,145.683
		c-207.031,0-375.01-65.195-375.01-145.683v213.525C14.998,544.824,182.976,610,390.007,610c207.148,0,374.99-65.176,374.99-145.684
		V250.791z"/>
	<path id="path26" fill="#026C9B" d="M390.007,396.474c207.148,0,374.99-65.195,374.99-145.683
		c0-80.498-167.842-145.684-374.99-145.684c-207.031,0-375.01,65.186-375.01,145.684
		C14.998,331.279,182.976,396.474,390.007,396.474"/>
	<path id="path28" fill="none" stroke="#FFFFFF" stroke-width="4" d="M390.007,396.474c207.148,0,374.99-65.195,374.99-145.683
		c0-80.498-167.842-145.684-374.99-145.684c-207.031,0-375.01,65.186-375.01,145.684
		C14.998,331.279,182.976,396.474,390.007,396.474z"/>
	<path id="path30" fill="#026C9B" d="M389.958,300.381c206.367,0,373.496-65.039,373.496-145.205
		C763.455,75.039,596.326,10,389.958,10C183.728,10,16.472,75.039,16.472,155.176C16.472,235.342,183.728,300.381,389.958,300.381"
		/>
	<path id="path32" fill="none" stroke="#FFFFFF" stroke-width="4" d="M389.958,300.381c206.367,0,373.496-65.039,373.496-145.205
		C763.455,75.039,596.326,10,389.958,10C183.728,10,16.472,75.039,16.472,155.176C16.472,235.342,183.728,300.381,389.958,300.381z"
		/>
	<path id="path34" fill="#026C9B" d="M763.455,155.176c0,80.166-167.129,145.205-373.496,145.205
		c-206.23,0-373.486-65.039-373.486-145.205v102.842c0,80.312,167.256,145.049,373.486,145.049
		c206.367,0,373.496-64.736,373.496-145.049V155.176"/>
	<path id="path36" fill="none" stroke="#FFFFFF" stroke-width="4" d="M763.455,155.176c0,80.166-167.129,145.205-373.496,145.205
		c-206.23,0-373.486-65.039-373.486-145.205v102.842c0,80.312,167.256,145.049,373.486,145.049
		c206.367,0,373.496-64.736,373.496-145.049V155.176z"/>
	<path id="path38" fill="#FFFFFF" d="M304.333,91.963l31.045,46.436L218.24,165.459l25.615-21.27L62.932,113.213l45.391-34.014
		l174.478,29.58L304.333,91.963"/>
	<path id="path40" fill="#FFFFFF" d="M469.099,204.57l-21.182-47.881l105.547-21.143l-18.291,16.426l176.201,30.029l-42.334,33.857
		L494.07,182.998L469.099,204.57"/>
	<path id="path42" fill="#FFFFFF" d="M411.306,66.66l118.428-32.305l1.445,50.596l-29.766-5.576l-57.783,47.744l-55.02-8.037
		l59.766-46.67L411.306,66.66"/>
	<path id="path44" fill="#FFFFFF" d="M360.691,248.164l-112.705,21.143l-4.15-52.148l32.324,7.129l62.109-52.959l54.736,9.219
		l-66.064,57.744L360.691,248.164"/>
	<path id="path46" fill="none" stroke="#FFFFFF" stroke-width="3" d="M305.007,162.627l100.928,6.592"/>
	<path id="path48" fill="none" stroke="#FFFFFF" stroke-width="3" d="M91.946,149.277l103.862,6.621"/>
	<path id="path50" fill="none" stroke="#FFFFFF" stroke-width="3" d="M48.386,102.832l83.706,7.266"/>
	<path id="path52" fill="none" stroke="#FFFFFF" stroke-width="3" d="M141.257,106.494L38.171,191.885"/>
	<path id="path54" fill="none" stroke="#FFFFFF" stroke-width="3" d="M243.992,118.916L99.333,240.371"/>
	<path id="path56" fill="none" stroke="#FFFFFF" stroke-width="3" d="M356.746,123.994L179.412,267.92"/>
	<path id="path58" fill="none" stroke="#FFFFFF" stroke-width="3" d="M142.712,203.047l104.189,6.65"/>
	<path id="path60" fill="none" stroke="#FFFFFF" stroke-width="3" d="M594.412,214.082l103.857,6.621"/>
	<path id="path62" fill="none" stroke="#FFFFFF" stroke-width="3" d="M384.441,200.596l103.691,6.621"/>
	<path id="path64" fill="none" stroke="#FFFFFF" stroke-width="3" d="M429.333,155.205L272.742,288.73"/>
	<path id="path66" fill="none" stroke="#FFFFFF" stroke-width="3" d="M540.867,164.717l-156.025,131.67"/>
	<path id="path68" fill="none" stroke="#FFFFFF" stroke-width="3" d="M643.591,171.289L504.46,293.828"/>
	<path id="path70" fill="none" stroke="#FFFFFF" stroke-width="3" d="M759.841,158.457l-96.777,94.16"/>
	<path id="path72" fill="none" stroke="#FFFFFF" stroke-width="3" d="M220.881,240.732l104.331,6.65"/>
	<path id="path74" fill="none" stroke="#FFFFFF" stroke-width="3" d="M434.021,254.346l104.443,6.641"/>
	<path id="path76" fill="none" stroke="#FFFFFF" stroke-width="3" d="M231.868,26.406l-97.075,84.131"/>
	<path id="path78" fill="none" stroke="#FFFFFF" stroke-width="3" d="M369.519,11.084L242.751,123.32"/>
	<path id="path80" fill="none" stroke="#FFFFFF" stroke-width="3" d="M642,78.291l71.631,9.219"/>
	<path id="path82" fill="none" stroke="#FFFFFF" stroke-width="3" d="M486.726,16.191L313.523,160.43"/>
	<path id="path84" fill="none" stroke="#FFFFFF" stroke-width="3" d="M582.585,28.926L415.623,167.363"/>
	<path id="path86" fill="none" stroke="#FFFFFF" stroke-width="3" d="M662.546,59.443L529.304,174.277"/>
	<path id="path88" fill="none" stroke="#FFFFFF" stroke-width="3" d="M731.365,100.273l-93.975,80.938"/>
	<path id="path90" fill="none" stroke="#FFFFFF" stroke-width="3" d="M268.484,104.805l104.307,6.797"/>
	<path id="path92" fill="none" stroke="#FFFFFF" stroke-width="3" d="M481.609,118.555l104.15,6.621"/>
	<path id="path94" fill="none" stroke="#FFFFFF" stroke-width="3" d="M692.634,132.061l61.582,3.809"/>
</g>
</svg>
