<?xml version="1.0" encoding="utf-8"?>
<!-- Generator: Adobe Illustrator 16.0.0, SVG Export Plug-In . SVG Version: 6.00 Build 0)  -->
<!DOCTYPE svg PUBLIC "-//W3C//DTD SVG 1.1//EN" "http://www.w3.org/Graphics/SVG/1.1/DTD/svg11.dtd">
<svg version="1.1"
	 id="svg2" xmlns:dc="http://purl.org/dc/elements/1.1/" xmlns:cc="http://creativecommons.org/ns#" xmlns:rdf="http://www.w3.org/1999/02/22-rdf-syntax-ns#" xmlns:svg="http://www.w3.org/2000/svg"
	 xmlns="http://www.w3.org/2000/svg" xmlns:xlink="http://www.w3.org/1999/xlink" x="0px" y="0px" width="70px" height="80px"
	 viewBox="0 0 70 80" enable-background="new 0 0 70 80" xml:space="preserve">
<g id="g12" transform="scale(0.1,0.1)">
	<path id="path22" fill="#036998" d="M524.702,65.967L484.526,51.89l-60.02,40.356l38.438,37.661l3.184-5.576l7.48,6.992
		l8.906,0.439l3.711-8.862l3.145-0.088l1.133-5.933l4.082,0.981l3.398-7.549l10.664,3.828l2.852-1.973l1.426-22.778l8.359-4.751
		l3.691-15.767"/>
	<path id="path24" fill="#036998" d="M528.667,386.655l20.781-21.924l6.074,7.334l30.527,8.535l7.363,25.508l-9.746-1.211
		l-7.363,15.859l-4.98-6.035l-12.129,10.996l-1.289-12.305l-12.129-1.289l-7.383-18.125L528.667,386.655"/>
	<path id="path26" fill="#036998" d="M154.512,275.317l-19.863,10.4l-5,9.57l-24.663,17.529l2.285,7.275l21.46-13.496
		l-20.015,21.299l4.468,5.557l20.166-15.703l-16.519,25.957l6.118,4.424l18.047-22.354l-6.006,23.75l7.231,1.895l12.715-30.586
		l5.605-0.264l8.413,14.463l7.471-0.42l-4.463-24.824l2.515-21.885L154.512,275.317"/>
	<path id="path28" fill="#036998" d="M545.776,417.085l7.363,3.672l-2.402,8.418l-2.598,13.398l-11.035-4.766l2.617-12.09
		L545.776,417.085"/>
	<path id="path30" fill="#036998" d="M594.683,393.999l13.457,6.035l2.383,12.09l-11.035,4.961v-10.977L594.683,393.999"/>
	<path id="path32" fill="#036998" d="M645.835,404.897l-155.098,54.727l32.852,108.086l22.188,18.633l144.219-54.844
		l-15.996-110.742L645.835,404.897"/>
	<path id="path34" fill="#036998" d="M539.722,725.151l-18.438,17.051l-24.453-2.363l-4.805,19.414l4.805,20.742h35.508l7.383-7.363
		l19.473,7.363h42.676l16.016-6.055l-4.98-13.398l-41.582-8.613l-25.547-17.051L539.722,725.151"/>
	<path id="path36" fill="#036998" d="M77.524,637.514l-12.456-21.582l7.852-23.145l-17.925-9.277l-21.406,0.078l-7.939,34.531
		l5.522,8.789l-11.533,17.285L10,685.718l2.339,16.875l14.189-1.855l17.725-38.477l22.407-21.016L77.524,637.514"/>
	<path id="path38" fill="#036998" d="M248.926,393.999l-23.281-20.742l43.96-70.586l18.418-109.658l-44.072,24.385l-40.298,71.895
		l-47.656-28.062l50.146-93.804l111.118-68.12l91.621,2.383l50.02,37.783l45.273,60.879l-15.82,17.046l-6.055,83.984l63.477,57.305
		l-42.695,34.023l-74.707-64.453l2.598,80.41"/>
	<path id="path40" fill="#036998" d="M430.972,408.667l69.531,116.797l59.98,172.91l-72.129,24.414l-57.383-158.281l-88.047-123.027
		l-45.166,135.137l-182.046,69.316l-28.145-59.59l135.693-52.266l2.383-15.957l14.727,1.289l14.614-97.363l-6.06-28.047
		L430.972,408.667"/>
	<path id="path42" fill="#036998" d="M243.081,388.169l122.363,38.779l57.754-27.324"/>
	<path id="path44" fill="#036998" d="M524.976,68.872l13.535,0.493l-9.219-21.885l-38.789-26.499L466.675,20l-21.191,12.144
		l-20.977,60.103l19.844-14.385l22.676-9.712l2.188,5.356l11.934,6.538l10.938-19.526l32.617,5.449"/>
</g>
</svg>
