<?xml version="1.0" encoding="utf-8"?>
<!-- Generator: Adobe Illustrator 16.0.0, SVG Export Plug-In . SVG Version: 6.00 Build 0)  -->
<!DOCTYPE svg PUBLIC "-//W3C//DTD SVG 1.1//EN" "http://www.w3.org/Graphics/SVG/1.1/DTD/svg11.dtd">
<svg version="1.1" id="图层_1" xmlns="http://www.w3.org/2000/svg" xmlns:xlink="http://www.w3.org/1999/xlink" x="0px" y="0px"
	 width="512px" height="512px" viewBox="0 0 512 512" enable-background="new 0 0 512 512" xml:space="preserve">
<g>
	<path fill="#33CC99" d="M499.037,101.813c-10.847-62.461-25.838-77.337-89.152-88.42c-40.31-7.053-97.21-11.098-156.091-11.098
		c-58.363,0-112.338,3.801-151.978,10.687c-62.468,10.855-77.345,25.853-88.405,89.152c-14.663,83.819-14.884,224.882-0.48,308.031
		c10.817,62.461,25.815,77.329,89.152,88.42c40.409,7.069,97.431,11.121,156.434,11.121h0.009
		c58.218,0,112.087-3.778,151.665-10.634c62.476-10.862,77.359-25.854,88.404-89.167
		C513.266,326.071,513.464,184.977,499.037,101.813 M483.24,407.222c-9.918,56.764-19.82,66.772-75.715,76.492
		c-38.727,6.703-91.636,10.39-149,10.39h-0.009c-58.148,0-114.181-3.961-153.745-10.877c-56.786-9.947-66.795-19.865-76.469-75.715
		c-14.153-81.702-13.939-220.319,0.48-302.699c9.918-56.748,19.82-66.757,75.7-76.461c38.794-6.741,91.817-10.458,149.312-10.458
		c58.012,0,113.938,3.961,153.41,10.868c56.748,9.933,66.757,19.843,76.477,75.715C497.85,186.186,497.652,324.819,483.24,407.222"
		/>
	<path fill="#33CC99" d="M165.196,152.346c-19.974,0-36.185,16.401-36.185,36.645c0,20.228,16.195,36.645,36.185,36.645
		c19.974,0,36.185-16.401,36.185-36.645C201.365,168.747,185.17,152.346,165.196,152.346 M165.196,209.33
		c-11.098,0-20.101-9.114-20.101-20.355c0-11.241,9.003-20.355,20.101-20.355c11.098,0,20.101,9.114,20.101,20.355
		C185.297,200.216,176.295,209.33,165.196,209.33"/>
	<path fill="#33CC99" d="M96.86,266.33v16.29c0,0,28.945-30.993,40.202-44.774c-6.938-7.05-12.051-12.21-12.051-12.21L96.86,266.33z
		"/>
	<polygon fill="#33CC99" points="141.507,398.748 160.274,398.748 160.274,319.25 141.507,327.395 	"/>
	<polygon fill="#33CC99" points="255.825,398.748 274.592,398.748 274.592,319.25 255.825,327.395 	"/>
	<path fill="#33CC99" d="M237.55,237.83c0,0-8.494-6.859-24.118-20.355c-4.366,8.86-20.101,20.355-20.101,20.355l48.236,57
		l96.471-101.775l76.371,77.338v-97.709l-76.371-65.145L237.55,237.83z"/>
	<polygon fill="#33CC99" points="366.792,398.748 385.56,398.748 385.56,319.25 366.792,327.395 	"/>
</g>
</svg>
