<?xml version="1.0" encoding="utf-8"?>
<!-- Generator: Adobe Illustrator 16.0.0, SVG Export Plug-In . SVG Version: 6.00 Build 0)  -->
<!DOCTYPE svg PUBLIC "-//W3C//DTD SVG 1.1//EN" "http://www.w3.org/Graphics/SVG/1.1/DTD/svg11.dtd">
<svg version="1.1" id="图层_1" xmlns="http://www.w3.org/2000/svg" xmlns:xlink="http://www.w3.org/1999/xlink" x="0px" y="0px"
	 width="58px" height="78px" viewBox="0 0 58 78" enable-background="new 0 0 58 78" xml:space="preserve">
<g>
	<g>
		<g>
			<g>
				<g>
					<g>
						<path fill="#02709F" stroke="#FFFFFF" stroke-width="0.9751" stroke-miterlimit="10" d="M1,27.5h49.72l0,0v49l0,0H1l0,0V27.5
							L1,27.5z"/>
					</g>
					<g>
						<path fill="#02709F" stroke="#FFFFFF" stroke-width="0.9751" stroke-miterlimit="10" d="M57,70.367V21.365L50.722,27.5v49
							L57,70.367z"/>
					</g>
				</g>
			</g>
			<g>
				<g>
					<path fill="#02709F" stroke="#FFFFFF" stroke-width="0.9751" stroke-miterlimit="10" d="M10.093,1.5L1,7.635h49.722L57,1.5
						H10.093z"/>
				</g>
				<g>
					<path fill="#02709F" stroke="#FFFFFF" stroke-width="0.9751" stroke-miterlimit="10" d="M1,7.635h49.72l0,0V27.5l0,0H1l0,0
						V7.635L1,7.635z"/>
				</g>
				<g>
					<path fill="#02709F" stroke="#FFFFFF" stroke-width="0.9751" stroke-miterlimit="10" d="M57,21.365V1.5l-6.278,6.135V27.5
						L57,21.365z"/>
				</g>
				<g>
					<path fill-opacity="0" stroke="#FFFFFF" stroke-width="0.9751" stroke-miterlimit="10" d="M50.722,27.5H1"/>
				</g>
				<g>
					<path fill-opacity="0" stroke="#FFFFFF" stroke-width="0.9751" stroke-miterlimit="10" d="M50.722,27.5L57,21.365"/>
				</g>
				<g>
					<path fill="#FFFFFF" stroke="#000000" stroke-miterlimit="10" stroke-opacity="0" d="M9.112,10.303h8.02l0,0v4.117l0,0h-8.02
						l0,0V10.303L9.112,10.303z"/>
				</g>
				<g>
					<path fill="#FFFFFF" stroke="#000000" stroke-miterlimit="10" stroke-opacity="0" d="M35.464,10.303h8.016l0,0v4.117l0,0
						h-8.016l0,0V10.303L35.464,10.303z"/>
				</g>
				<g>
					<path fill="#FFFFFF" stroke="#000000" stroke-miterlimit="10" stroke-opacity="0" d="M9.112,20.596h8.02l0,0v4.117l0,0h-8.02
						l0,0V20.596L9.112,20.596z"/>
				</g>
				<g>
					<path fill="#FFFFFF" stroke="#000000" stroke-miterlimit="10" stroke-opacity="0" d="M35.464,20.596h8.016l0,0v4.117l0,0
						h-8.016l0,0V20.596L35.464,20.596z"/>
				</g>
				<g>
					<path fill-opacity="0" stroke="#FFFFFF" stroke-width="0.9751" stroke-miterlimit="10" d="M14.558,12.361h24.627"/>
				</g>
				<g>
					<path fill-opacity="0" stroke="#FFFFFF" stroke-width="0.9751" stroke-miterlimit="10" d="M14.558,22.653h24.627"/>
				</g>
				<g>
					<path fill-opacity="0" stroke="#FFFFFF" stroke-width="0.9751" stroke-miterlimit="10" d="M13.124,22.653l26.061-10.292"/>
				</g>
				<g>
					<path fill-opacity="0" stroke="#FFFFFF" stroke-width="0.9751" stroke-miterlimit="10" d="M13.124,12.361l26.061,10.292"/>
				</g>
			</g>
		</g>
		<g>
			<g>
				<path fill="#FFFFFF" stroke="#000000" stroke-miterlimit="10" stroke-opacity="0" d="M26.938,44.874V34.272h1.825l-2.692-4.001
					l-2.69,4.001h1.823v10.602H26.938z"/>
			</g>
			<g>
				<path fill="#FFFFFF" stroke="#000000" stroke-miterlimit="10" stroke-opacity="0" d="M21.456,46.406l-7.601-7.497l1.288-1.271
					l-4.771-0.951l0.968,4.705l1.288-1.271l7.599,7.496L21.456,46.406z"/>
			</g>
			<g>
				<path fill="#FFFFFF" stroke="#000000" stroke-miterlimit="10" stroke-opacity="0" d="M18.678,51.316H7.927v-1.8L3.871,52.17
					l4.056,2.656v-1.801h10.751V51.316z"/>
			</g>
			<g>
				<path fill="#FFFFFF" stroke="#000000" stroke-miterlimit="10" stroke-opacity="0" d="M20.228,56.725l-7.599,7.495l-1.288-1.271
					l-0.968,4.707l4.771-0.951l-1.288-1.273l7.601-7.496L20.228,56.725z"/>
			</g>
			<g>
				<path fill="#FFFFFF" stroke="#000000" stroke-miterlimit="10" stroke-opacity="0" d="M25.204,59.467v10.601h-1.823l2.69,4.003
					l2.692-4.003h-1.825V59.467H25.204z"/>
			</g>
			<g>
				<path fill="#FFFFFF" stroke="#000000" stroke-miterlimit="10" stroke-opacity="0" d="M30.687,57.935l7.601,7.496l-1.292,1.273
					l4.774,0.951l-0.967-4.707l-1.288,1.271l-7.603-7.495L30.687,57.935z"/>
			</g>
			<g>
				<path fill="#FFFFFF" stroke="#000000" stroke-miterlimit="10" stroke-opacity="0" d="M33.467,53.025h10.748v1.801l4.054-2.656
					l-4.054-2.653v1.8H33.467V53.025z"/>
			</g>
			<g>
				<path fill="#FFFFFF" stroke="#000000" stroke-miterlimit="10" stroke-opacity="0" d="M31.912,47.617l7.603-7.496l1.288,1.271
					l0.967-4.705l-4.774,0.951l1.292,1.271l-7.601,7.497L31.912,47.617z"/>
			</g>
		</g>
	</g>
	<g>
		<g>
			<path fill="#FFFFFF" stroke="#000000" stroke-miterlimit="10" stroke-opacity="0" d="M37.392,52.063
				c0-6.064-4.982-10.98-11.131-10.98c-6.146,0-11.13,4.916-11.13,10.98c-0.001,6.063,4.983,10.979,11.13,10.98
				c6.144,0,11.125-4.91,11.131-10.969V52.063z"/>
		</g>
	</g>
</g>
</svg>
