<?xml version="1.0" encoding="utf-8"?>
<!-- Generator: Adobe Illustrator 16.0.0, SVG Export Plug-In . SVG Version: 6.00 Build 0)  -->
<!DOCTYPE svg PUBLIC "-//W3C//DTD SVG 1.1//EN" "http://www.w3.org/Graphics/SVG/1.1/DTD/svg11.dtd">
<svg version="1.1" id="图层_1" xmlns="http://www.w3.org/2000/svg" xmlns:xlink="http://www.w3.org/1999/xlink" x="0px" y="0px"
	 width="512px" height="512px" viewBox="0 0 512 512" enable-background="new 0 0 512 512" xml:space="preserve">
<g>
	<path fill="#47A6E9" d="M258.256,509.411h-0.008c-59.003,0-116.025-4.052-156.434-11.121
		c-63.337-11.091-78.335-25.959-89.152-88.42c-14.404-83.149-14.183-224.212,0.48-308.031c11.06-63.299,25.937-78.297,88.405-89.152
		C141.187,5.801,195.162,2,253.525,2c58.881,0,115.781,4.045,156.091,11.098c63.313,11.083,78.305,25.959,89.151,88.42
		c14.428,83.164,14.229,224.258-0.441,308.092c-11.045,63.313-25.929,78.305-88.405,89.167
		C370.343,505.633,316.474,509.411,258.256,509.411 M253.526,17.599c-57.495,0-110.518,3.717-149.312,10.458
		c-55.88,9.704-65.782,19.713-75.7,76.461c-14.419,82.38-14.633,220.997-0.48,302.699c9.674,55.85,19.683,65.768,76.469,75.715
		c39.564,6.916,95.596,10.877,153.745,10.877h0.008c57.365,0,110.274-3.687,149-10.39c55.896-9.72,65.797-19.729,75.715-76.492
		c14.412-82.402,14.61-221.036,0.442-302.745c-9.72-55.872-19.729-65.782-76.478-75.715
		C367.464,21.56,311.538,17.599,253.526,17.599"/>
	<path fill="#47A6E9" d="M386.746,155.095l-0.285-8.197l-7.463-3.403c-2.61-1.191-64.599-29.155-123.264-29.155
		c-58.663,0-120.652,27.964-123.262,29.155l-7.463,3.403l-0.285,8.197c-0.08,2.363-2.01,59.463,8.76,111.805l23.022-22.124
		c-5.299-38.578-5.501-63.089-5.413-80.366c17.661-7.11,63.031-23.561,104.641-23.561c41.614,0,86.987,16.453,104.643,23.558
		c0.096,19.873-0.845,71.155-11.883,111.979c-15.291,54.415-75.493,84.528-92.763,92.165c-14.387-6.356-58.465-28.258-81.671-66.779
		l37.764-40.935l37.159,31.068l59.977-65.64l1.108,22.329l24.07-1.196l-3.285-66.192l-63.786,3.163l1.195,24.071l22.075-1.096
		l-43.812,47.95l-37.07-30.988l-67.517,73.203l4.05,8.171c30.273,61.055,102.054,88.511,105.095,89.649l4.648,1.742l4.65-1.742
		c3.751-1.405,92.145-35.3,113.666-111.897C389.071,227.879,386.847,158.042,386.746,155.095"/>
</g>
</svg>
