<svg version="1.1" id="ilhwsa8q1" xmlns:xml="http://www.w3.org/XML/1998/namespace"
	 xmlns="http://www.w3.org/2000/svg" xmlns:xlink="http://www.w3.org/1999/xlink" x="0px" y="0px" width="80px" height="76px"
	 viewBox="0 0 80 76" enable-background="new 0 0 80 76" xml:space="preserve">
<g>
	
		<rect x="23.74" y="36.285" transform="matrix(-0.7317 -0.6817 0.6817 -0.7317 43.1538 91.3995)" fill="#323B4F" width="31.652" height="1.844"/>
	<g>
		<path fill="#A6B1BC" d="M40.922,25.003l12.021,11.214c0.32,0.322,0.32,0.802,0,1.123L40.04,51.197c-0.32,0.318-0.8,0.318-1.122,0
			L26.897,39.98c-0.32-0.319-0.32-0.801,0-1.119l12.982-13.858C40.12,24.682,40.602,24.682,40.922,25.003z"/>
		
			<rect x="31.569" y="37.289" transform="matrix(-0.7318 -0.6815 0.6815 -0.7318 32.6227 88.5391)" fill="#DADDE2" width="4.327" height="1.123"/>
		
			<rect x="32.958" y="35.759" transform="matrix(-0.7318 -0.6815 0.6815 -0.7318 36.073 86.8338)" fill="#C8CFD5" width="4.327" height="1.12"/>
		
			<rect x="34.406" y="34.283" transform="matrix(-0.7318 -0.6815 0.6815 -0.7318 39.5867 85.2629)" fill="#C8CFD5" width="4.327" height="1.12"/>
		
			<rect x="35.795" y="32.75" transform="matrix(-0.7318 -0.6815 0.6815 -0.7318 43.035 83.5574)" fill="#C8CFD5" width="4.325" height="1.122"/>
		<line fill="none" x1="33.309" y1="45.829" x2="47.173" y2="31.01"/>
	</g>
	<path fill="#2A6ED1" d="M50.619,30.771l0.24,0.16c0.08,0.08,0.158,0.32,0,0.4l-1.361,1.522c-0.08,0.081-0.322,0.16-0.404,0
		l-0.238-0.16c-0.08-0.08-0.16-0.32,0-0.4l1.363-1.442C50.379,30.69,50.539,30.69,50.619,30.771z"/>
	<path fill="#2A6ED1" d="M46.854,27.246l0.239,0.161c0.08,0.08,0.16,0.32,0,0.4l-1.364,1.441c-0.08,0.082-0.32,0.16-0.4,0
		l-0.239-0.16c-0.081-0.08-0.159-0.321,0-0.402l1.365-1.44C46.613,27.166,46.773,27.166,46.854,27.246z"/>
	<path fill="#C8CFD5" d="M65.686,38.301c-1.766,1.919-10.82-1.602-18.433-8.732c-7.614-7.13-11.06-15.219-9.296-17.142
		L65.686,38.301z"/>
	<polygon fill="#A0A9AF" points="50.859,24.443 56.229,20.837 52.785,26.285 	"/>
	<circle fill="#2A6ED1" cx="55.426" cy="21.559" r="1.602"/>
	<path fill="#2A6ED1" d="M39.158,52.396L25.616,40.061c-0.321-0.319-0.321-0.801-0.08-1.119l0.56-0.561
		c0.32-0.32,0.802-0.32,1.123-0.081l13.544,12.336c0.319,0.319,0.319,0.8,0.08,1.12l-0.563,0.561
		C39.959,52.639,39.48,52.639,39.158,52.396z"/>
	<path fill="#2A6ED1" d="M53.665,41.186l26.122,24.352c0.242,0.24,0.322,0.642,0,0.96l-8.252,9.293c-0.24,0.239-0.641,0.319-0.965,0
		L44.127,51.277c-0.238-0.24-0.32-0.641,0-0.961l8.575-9.211C53.023,40.945,53.423,40.945,53.665,41.186z"/>
	<g>
		
			<rect x="68.732" y="68.005" transform="matrix(-0.732 -0.6813 0.6813 -0.732 74.455 169.1444)" fill="#EEEEEE" width="3.523" height="3.848"/>
		
			<rect x="72.301" y="64.201" transform="matrix(-0.7316 -0.6817 0.6817 -0.7316 83.1694 164.9895)" fill="#EEEEEE" width="3.524" height="3.845"/>
		
			<rect x="65.306" y="64.822" transform="matrix(-0.7313 -0.682 0.682 -0.7313 70.5968 161.3004)" fill="#EEEEEE" width="3.525" height="3.847"/>
		
			<rect x="68.874" y="61.016" transform="matrix(-0.7316 -0.6817 0.6817 -0.7316 79.4068 157.1422)" fill="#EEEEEE" width="3.527" height="3.846"/>
		
			<rect x="61.882" y="61.643" transform="matrix(-0.7317 -0.6816 0.6816 -0.7317 66.8883 153.4596)" fill="#EEEEEE" width="3.526" height="3.847"/>
		
			<rect x="65.447" y="57.838" transform="matrix(-0.7315 -0.6819 0.6819 -0.7315 75.6223 149.3031)" fill="#EEEEEE" width="3.526" height="3.845"/>
		
			<rect x="58.458" y="58.459" transform="matrix(-0.7315 -0.6819 0.6819 -0.7315 63.0967 145.6115)" fill="#EEEEEE" width="3.526" height="3.844"/>
		<polygon fill="#EEEEEE" points="63.759,59.182 61.18,56.78 63.805,53.966 66.384,56.368 		"/>
		
			<rect x="55.032" y="55.27" transform="matrix(-0.7313 -0.682 0.682 -0.7313 59.3244 137.7544)" fill="#EEEEEE" width="3.525" height="3.845"/>
		
			<rect x="58.593" y="51.466" transform="matrix(-0.7315 -0.6819 0.6819 -0.7315 68.0984 133.5978)" fill="#EEEEEE" width="3.526" height="3.847"/>
		
			<rect x="51.545" y="52.032" transform="matrix(-0.7313 -0.682 0.682 -0.7313 55.4934 129.7716)" fill="#EEEEEE" width="3.525" height="3.847"/>
		
			<rect x="55.11" y="48.226" transform="matrix(-0.7316 -0.6817 0.6817 -0.7316 64.2925 125.609)" fill="#EEEEEE" width="3.525" height="3.845"/>
		
			<rect x="48.175" y="48.789" transform="matrix(-0.7315 -0.6819 0.6819 -0.7315 51.8862 121.8572)" fill="#EEEEEE" width="3.525" height="3.845"/>
		
			<rect x="51.683" y="45.043" transform="matrix(-0.7316 -0.6817 0.6817 -0.7316 60.5292 117.7597)" fill="#EEEEEE" width="3.524" height="3.845"/>
	</g>
	<path fill="#2A6ED1" d="M9.667,0.171l26.125,24.352c0.24,0.241,0.321,0.639,0,0.96l-8.493,9.211c-0.24,0.244-0.642,0.323-0.963,0
		L0.21,10.344c-0.239-0.239-0.319-0.641,0-0.961l8.496-9.132C9.027-0.068,9.427-0.068,9.667,0.171z"/>
	<g>
		
			<rect x="24.727" y="27.031" transform="matrix(-0.7317 -0.6817 0.6817 -0.7317 26.1332 68.1969)" fill="#EEEEEE" width="3.525" height="3.848"/>
		
			<rect x="28.291" y="23.227" transform="matrix(-0.7314 -0.682 0.682 -0.7314 34.8841 64.0394)" fill="#EEEEEE" width="3.526" height="3.845"/>
		
			<rect x="21.302" y="23.845" transform="matrix(-0.7316 -0.6817 0.6817 -0.7316 22.3715 60.3452)" fill="#EEEEEE" width="3.525" height="3.847"/>
		
			<rect x="24.863" y="20.042" transform="matrix(-0.7314 -0.682 0.682 -0.7314 31.1224 56.1862)" fill="#EEEEEE" width="3.526" height="3.844"/>
		
			<rect x="17.874" y="20.663" transform="matrix(-0.7316 -0.6817 0.6817 -0.7316 18.6056 52.4956)" fill="#EEEEEE" width="3.526" height="3.845"/>
		
			<rect x="21.438" y="16.857" transform="matrix(-0.7317 -0.6817 0.6817 -0.7317 27.3739 48.3366)" fill="#EEEEEE" width="3.525" height="3.847"/>
		
			<rect x="14.503" y="17.421" transform="matrix(-0.7313 -0.682 0.682 -0.7313 14.9684 44.5825)" fill="#EEEEEE" width="3.525" height="3.844"/>
		
			<rect x="18.011" y="13.675" transform="matrix(-0.7316 -0.6818 0.6818 -0.7316 23.6085 40.4914)" fill="#EEEEEE" width="3.528" height="3.846"/>
		
			<rect x="11.078" y="14.237" transform="matrix(-0.7319 -0.6814 0.6814 -0.7319 11.2254 36.7371)" fill="#EEEEEE" width="3.523" height="3.846"/>
		
			<rect x="14.587" y="10.49" transform="matrix(-0.7319 -0.6814 0.6814 -0.7319 19.8547 32.6373)" fill="#EEEEEE" width="3.523" height="3.846"/>
		
			<rect x="7.592" y="10.999" transform="matrix(-0.7317 -0.6816 0.6816 -0.7317 7.3926 28.7529)" fill="#EEEEEE" width="3.525" height="3.845"/>
		
			<rect x="11.103" y="7.253" transform="matrix(-0.7319 -0.6814 0.6814 -0.7319 16.0294 24.6573)" fill="#EEEEEE" width="3.525" height="3.845"/>
		
			<rect x="4.166" y="7.816" transform="matrix(-0.7315 -0.6818 0.6818 -0.7315 3.626 20.9058)" fill="#EEEEEE" width="3.526" height="3.846"/>
		
			<rect x="7.676" y="4.069" transform="matrix(-0.7315 -0.6818 0.6818 -0.7315 12.2589 16.8106)" fill="#EEEEEE" width="3.527" height="3.846"/>
	</g>
</g>
</svg>
