<?xml version="1.0" encoding="utf-8"?>
<!-- Generator: Adobe Illustrator 16.0.0, SVG Export Plug-In . SVG Version: 6.00 Build 0)  -->
<!DOCTYPE svg PUBLIC "-//W3C//DTD SVG 1.1//EN" "http://www.w3.org/Graphics/SVG/1.1/DTD/svg11.dtd">
<svg version="1.1"
	 id="svg2" xmlns:dc="http://purl.org/dc/elements/1.1/" xmlns:cc="http://creativecommons.org/ns#" xmlns:rdf="http://www.w3.org/1999/02/22-rdf-syntax-ns#" xmlns:svg="http://www.w3.org/2000/svg"
	 xmlns="http://www.w3.org/2000/svg" xmlns:xlink="http://www.w3.org/1999/xlink" x="0px" y="0px" width="80px" height="60px"
	 viewBox="0 0 80 60" enable-background="new 0 0 80 60" xml:space="preserve">
<g id="g12" transform="scale(0.1,0.1)">
	<path id="path22" fill="#FFFFFF" d="M400.493,300.703c215.117,0,389.512-33.047,389.512-73.789
		c0-40.737-174.395-73.706-389.512-73.706c-215.039,0-389.434,32.969-389.434,73.706C11.06,267.656,185.454,300.703,400.493,300.703
		"/>
	<path id="path24" fill="none" stroke="#000000" stroke-width="1.4999" d="M400.493,300.703
		c215.117,0,389.512-33.047,389.512-73.789c0-40.737-174.395-73.706-389.512-73.706c-215.039,0-389.434,32.969-389.434,73.706
		C11.06,267.656,185.454,300.703,400.493,300.703z"/>
	<path id="path26" fill="#036998" d="M402.622,430.097c215.117,0,387.383-162.441,387.383-203.183
		c0-40.737-174.395-73.706-389.512-73.706c-215.039,0-389.434,32.969-389.434,73.706C11.06,267.656,187.505,430.097,402.622,430.097
		"/>
	<path id="path28" fill="#FFFFFF" d="M400.493,300.703c215.117,0,389.512-33.047,389.512-73.789
		c0-40.737-174.395-73.706-389.512-73.706c-215.039,0-389.434,32.969-389.434,73.706C11.06,267.656,185.454,300.703,400.493,300.703
		"/>
	<path id="path30" fill="none" stroke="#036998" stroke-width="3.9999" d="M400.493,300.703
		c215.117,0,389.512-33.047,389.512-73.789c0-40.737-174.395-73.706-389.512-73.706c-215.039,0-389.434,32.969-389.434,73.706
		C11.06,267.656,185.454,300.703,400.493,300.703z"/>
	<path id="path32" fill="none" stroke="#036998" stroke-width="3.75" d="M299.224,171.704
		c-61.426,3.75-115.947,10.923-158.55,20.454"/>
	<path id="path34" fill="none" stroke="#036998" stroke-width="3.75" d="M303.364,187.163
		c-59.57,4.312-111.758,12.28-151.245,22.656"/>
	<path id="path36" fill="none" stroke="#036998" stroke-width="3.75" d="M307.603,203.672
		c-58.34,5.024-108.608,13.999-144.893,25.449"/>
	<path id="path38" fill="none" stroke="#036998" stroke-width="3.75" d="M316.069,222.988
		c-57.021,5.469-105.591,15.166-139.351,27.412"/>
	<path id="path40" fill="none" stroke="#036998" stroke-width="3.75" d="M320.103,240.938
		c-54.067,6.211-99.219,16.68-129.307,29.688"/>
	<path id="path42" fill="none" stroke="#036998" stroke-width="3.75" d="M327.495,262.207c-42.9,5.82-79.326,14.629-105.444,25.508"
		/>
	<path id="path44" fill="none" stroke="#036998" stroke-width="3.75" d="M329.946,281.992c-17.246,3.105-33.184,6.846-47.344,11.025
		"/>
	<path id="path46" fill="none" stroke="#036998" stroke-width="3.9999" d="M10,233.984l392.622-196.88l387.383,189.81"/>
	<path id="path48" fill="#036998" d="M404.663,86.831c14.619,0,26.572-5.884,26.572-13.208c0-7.393-11.953-13.286-26.572-13.286
		s-26.494,5.894-26.494,13.286C378.169,80.947,390.044,86.831,404.663,86.831"/>
	<path id="path50" fill="#036998" d="M404.663,10l-8.35,273.252h18.848L404.663,10"/>
	<path id="path52" fill="#036998" d="M319.185,477.334H506.86v-43.906H319.185V477.334z"/>
	<path id="path54" fill="#036998" d="M354.634,473.056h119.004v79.277c0,0-121.133,37.666-119.004,37.666
		C356.675,590,354.634,473.056,354.634,473.056"/>
</g>
</svg>
