<?xml version="1.0" encoding="utf-8"?>
<!-- Generator: Adobe Illustrator 16.0.0, SVG Export Plug-In . SVG Version: 6.00 Build 0)  -->
<!DOCTYPE svg PUBLIC "-//W3C//DTD SVG 1.1//EN" "http://www.w3.org/Graphics/SVG/1.1/DTD/svg11.dtd">
<svg version="1.1"
	 id="svg2" xmlns:dc="http://purl.org/dc/elements/1.1/" xmlns:cc="http://creativecommons.org/ns#" xmlns:rdf="http://www.w3.org/1999/02/22-rdf-syntax-ns#" xmlns:svg="http://www.w3.org/2000/svg"
	 xmlns="http://www.w3.org/2000/svg" xmlns:xlink="http://www.w3.org/1999/xlink" x="0px" y="0px" width="80px" height="28px"
	 viewBox="0 0 80 28" enable-background="new 0 0 80 28" xml:space="preserve">
<g id="g12" transform="scale(0.1,0.1)">
	<path id="path22" fill="#036998" d="M784.998,32.368v16.226l-163.047,60.034l-74.277-12.852l-44.58-8.696l-30.566-6.392
		l-0.762-20.596"/>
	<path id="path24" fill="none" stroke="#FFFFFF" stroke-width="3.9999" d="M784.998,32.368v16.226l-163.047,60.034l-74.277-12.852
		l-44.58-8.696l-30.566-6.392l-0.762-20.596"/>
	<path id="path26" fill="#036998" d="M404.226,270.005c20.703,0,37.52-7.383,37.52-16.465c0-9.102-16.816-16.494-37.52-16.494
		c-20.698,0-37.5,7.393-37.5,16.494C366.726,262.622,383.528,270.005,404.226,270.005"/>
	<path id="path28" fill="none" stroke="#FFFFFF" stroke-width="3.9999" d="M404.226,270.005c20.703,0,37.52-7.383,37.52-16.465
		c0-9.102-16.816-16.494-37.52-16.494c-20.698,0-37.5,7.393-37.5,16.494C366.726,262.622,383.528,270.005,404.226,270.005z"/>
	<path id="path30" fill="#036998" d="M552.205,76.162l70.176,11.235l162.617-55.029l-142.08-22.363L471.765,60.093l49.199,8.418"/>
	<path id="path32" fill="none" stroke="#FFFFFF" stroke-width="3.9999" d="M552.205,76.162l70.176,11.235l162.617-55.029
		l-142.08-22.363L471.765,60.093l49.199,8.418"/>
	<path id="path34" fill="#036998" d="M540.359,79.072c50.508-12.896,61.553-25.459,61.553-25.459
		c-17.051-8.247-78.115,13.965-78.115,13.965l-10.801,3.74L540.359,79.072"/>
	<path id="path36" fill="none" stroke="#FFFFFF" stroke-width="3.9999" d="M540.359,79.072
		c50.508-12.896,61.553-25.459,61.553-25.459c-17.051-8.247-78.115,13.965-78.115,13.965l-10.801,3.74L540.359,79.072z"/>
	<path id="path38" fill="#036998" d="M520.964,68.511l-49.199-8.643l171.152-49.863l142.08,22.363L622.38,87.397L551.433,76.46
		c40.654-9.902,50.01-22.847,50.01-22.847c-17.041-8.247-70.42,11.553-70.42,11.553l-0.205,0.347l-49.375,15.137l0.01,27.324
		l64.414-22.017l0.713-0.273c0,0,2.988-6.89,2.988-9.219"/>
	<path id="path40" fill="none" stroke="#FFFFFF" stroke-width="3.9999" d="M520.964,68.511l-49.199-8.643l171.152-49.863
		l142.08,22.363L622.38,87.397L551.433,76.46c40.654-9.902,50.01-22.847,50.01-22.847c-17.041-8.247-70.42,11.553-70.42,11.553
		l-0.205,0.347l-49.375,15.137l0.01,27.324l64.414-22.017l0.713-0.273c0,0,2.988-6.89,2.988-9.219"/>
	<path id="path42" fill="#036998" d="M546.033,76.235c0.508,0.103,1.035-0.498,1.182-1.294c0.146-0.811-0.166-1.538-0.674-1.616
		c-0.508-0.093-1.055,0.474-1.172,1.279C545.222,75.425,545.515,76.138,546.033,76.235"/>
	<path id="path44" fill="none" stroke="#FFFFFF" stroke-width="3.9999" d="M546.033,76.235c0.508,0.103,1.035-0.498,1.182-1.294
		c0.146-0.811-0.166-1.538-0.674-1.616c-0.508-0.093-1.055,0.474-1.172,1.279C545.222,75.425,545.515,76.138,546.033,76.235z"/>
	<path id="path46" fill="#036998" d="M326.516,13.799v202.944c0,18.828,34.688,34.063,77.456,34.063
		c42.803,0,77.49-15.234,77.49-34.063V12.085"/>
	<path id="path48" fill="none" stroke="#FFFFFF" stroke-width="3.9999" d="M326.516,13.799v202.944
		c0,18.828,34.688,34.063,77.456,34.063c42.803,0,77.49-15.234,77.49-34.063V12.085"/>
	<path id="path50" fill="#036998" d="M335.408,174.282v18.506l-170.327,60.586L15.291,218.54l-0.293-21.904"/>
	<path id="path52" fill="none" stroke="#FFFFFF" stroke-width="3.9999" d="M335.408,174.282v18.506l-170.327,60.586L15.291,218.54
		l-0.293-21.904"/>
	<path id="path54" fill="#036998" d="M280.618,166.499l54.79,7.783L165.081,231.03l-149.79-34.814l178.472-50.332l40.986,7.041"/>
	<path id="path56" fill="none" stroke="#FFFFFF" stroke-width="3.9999" d="M280.618,166.499l54.79,7.783L165.081,231.03
		l-149.79-34.814l178.472-50.332l40.986,7.041"/>
	<path id="path58" fill="#036998" d="M233.909,152.524c-37.666,9.473-51.372,28.389-51.372,28.389
		c56.821,1.699,97.485-14.727,97.485-14.727"/>
	<path id="path60" fill="none" stroke="#FFFFFF" stroke-width="3.9999" d="M233.909,152.524
		c-37.666,9.473-51.372,28.389-51.372,28.389c56.821,1.699,97.485-14.727,97.485-14.727"/>
	<path id="path62" fill="#036998" d="M230.92,153.501l125.317-36.709c17.993,0.859,15.664,15.479,15.664,15.479
		c0.85,9.463-13.433,13.574-13.433,13.574l-81.865,21.406"/>
	<path id="path64" fill="none" stroke="#FFFFFF" stroke-width="3.9999" d="M230.92,153.501l125.317-36.709
		c17.993,0.859,15.664,15.479,15.664,15.479c0.85,9.463-13.433,13.574-13.433,13.574l-81.865,21.406"/>
	<path id="path66" fill="#036998" d="M274.661,167.427c1.05,0,1.87-0.43,1.87-0.928c0-0.508-0.82-0.947-1.87-0.947
		c-1.045,0-1.88,0.439-1.88,0.947C272.781,166.997,273.616,167.427,274.661,167.427"/>
	<path id="path68" fill="none" stroke="#FFFFFF" stroke-width="3.9999" d="M274.661,167.427c1.05,0,1.87-0.43,1.87-0.928
		c0-0.508-0.82-0.947-1.87-0.947c-1.045,0-1.88,0.439-1.88,0.947C272.781,166.997,273.616,167.427,274.661,167.427z"/>
</g>
</svg>
