<?xml version="1.0" encoding="utf-8"?>
<!-- Generator: Adobe Illustrator 16.0.0, SVG Export Plug-In . SVG Version: 6.00 Build 0)  -->
<!DOCTYPE svg PUBLIC "-//W3C//DTD SVG 1.1//EN" "http://www.w3.org/Graphics/SVG/1.1/DTD/svg11.dtd">
<svg version="1.1"
	 id="svg2" xmlns:dc="http://purl.org/dc/elements/1.1/" xmlns:cc="http://creativecommons.org/ns#" xmlns:rdf="http://www.w3.org/1999/02/22-rdf-syntax-ns#" xmlns:svg="http://www.w3.org/2000/svg"
	 xmlns="http://www.w3.org/2000/svg" xmlns:xlink="http://www.w3.org/1999/xlink" x="0px" y="0px" width="80px" height="75px"
	 viewBox="0 0 80 75" enable-background="new 0 0 80 75" xml:space="preserve">
<g id="g12" transform="scale(0.1,0.1)">
	<path id="path22" fill="#036998" d="M261.753,295.146h434.922L758.413,0H344.819L261.753,295.146"/>
	<path id="path24" fill="none" stroke="#FFFFFF" stroke-width="3.9999" d="M261.753,295.146h434.922L758.413,0H344.819
		L261.753,295.146z"/>
	<path id="path26" fill="#036998" d="M261.753,295.146l44.502,84.287h434.6l-44.18-84.287H261.753"/>
	<path id="path28" fill="none" stroke="#FFFFFF" stroke-width="3.9999" d="M261.753,295.146l44.502,84.287h434.6l-44.18-84.287
		H261.753z"/>
	<path id="path30" fill="#036998" d="M758.413,0l41.582,79.043l-59.141,300.39l-44.18-84.287L758.413,0"/>
	<path id="path32" fill="none" stroke="#FFFFFF" stroke-width="3.9999" d="M758.413,0l41.582,79.043l-59.141,300.39l-44.18-84.287
		L758.413,0z"/>
	<path id="path34" fill="#036998" d="M0,665.761h333.218l315.215-362.392H336.401L0,665.761"/>
	<path id="path36" fill="none" stroke="#FFFFFF" stroke-width="3.9999" d="M0,665.761h333.218l315.215-362.392H336.401L0,665.761z"
		/>
	<path id="path38" fill="#036998" d="M0,665.761L44.497,750H377.72l-44.502-84.238H0"/>
	<path id="path40" fill="none" stroke="#FFFFFF" stroke-width="3.9999" d="M0,665.761L44.497,750H377.72l-44.502-84.238H0z"/>
	<path id="path42" fill="#036998" d="M648.433,303.369l41.582,78.896L377.72,750l-44.502-84.238L648.433,303.369"/>
	<path id="path44" fill="none" stroke="#FFFFFF" stroke-width="3.9999" d="M648.433,303.369l41.582,78.896L377.72,750
		l-44.502-84.238L648.433,303.369z"/>
	<path id="path46" fill="#FFFFFF" d="M323.921,335.391h33.965l-23.066,25.293h-33.945L323.921,335.391"/>
	<path id="path48" fill="#FFFFFF" d="M271.968,414.677l40.918-9.443L289.8,430.39l-22.236-13.447"/>
	<path id="path50" fill="#FFFFFF" d="M383.296,335.391h33.926l-23.047,25.293h-33.936L383.296,335.391"/>
	<path id="path52" fill="#FFFFFF" d="M442.847,335.391h33.77l-18.789,25.293h-38.184L442.847,335.391"/>
	<path id="path54" fill="#FFFFFF" d="M502.222,335.391h33.809l-18.809,25.293h-33.789L502.222,335.391"/>
	<path id="path56" fill="#FFFFFF" d="M258.101,481.621h33.789l-23.926,25.117h-33.95L258.101,481.621"/>
	<path id="path58" fill="#FFFFFF" d="M317.495,481.621h33.779l-19.668,25.117h-38.213L317.495,481.621"/>
	<path id="path60" fill="#FFFFFF" d="M376.86,481.621h33.975l-19.834,25.117h-33.955L376.86,481.621"/>
	<path id="path62" fill="#FFFFFF" d="M190.327,548.847h33.955l-21.489,25.459h-33.965L190.327,548.847"/>
	<path id="path64" fill="#FFFFFF" d="M249.712,548.847h33.955l-17.236,25.459h-38.228L249.712,548.847"/>
	<path id="path66" fill="#FFFFFF" d="M309.077,548.847h33.975l-17.256,25.459h-33.945L309.077,548.847"/>
	<path id="path68" fill="#FFFFFF" d="M565.698,335.391h34.121l-23.242,25.293h-33.77L565.698,335.391"/>
	<path id="path70" fill="#FFFFFF" d="M482.261,409.482l24.043,11.738l-4.57,2.266l-42.383,11.465L482.261,409.482"/>
	<path id="path72" fill="#FFFFFF" d="M425.679,417.295c-6.738,10.879-32.002,19.893-56.943,19.893
		c-24.932,0-39.805-9.014-33.232-19.893c6.572-10.889,32.012-19.59,56.963-19.59C417.222,397.705,432.085,406.406,425.679,417.295"
		/>
	<path id="path74" fill="#036998" d="M628.999,229.712c-3.418,13.335-17.305,24.214-30.684,24.214H371.001
		c-13.535,0-21.455-10.879-17.9-24.214l44.111-165.024c3.564-13.359,17.471-24.243,30.83-24.243h227.324
		c13.398,0,21.309,10.884,17.891,24.243L628.999,229.712"/>
	<path id="path76" fill="none" stroke="#FFFFFF" stroke-width="3.9999" d="M628.999,229.712
		c-3.418,13.335-17.305,24.214-30.684,24.214H371.001c-13.535,0-21.455-10.879-17.9-24.214l44.111-165.024
		c3.564-13.359,17.471-24.243,30.83-24.243h227.324c13.398,0,21.309,10.884,17.891,24.243L628.999,229.712z"/>
</g>
</svg>
