<svg version="1.1" id="ilhwsa8q1" xmlns:xml="http://www.w3.org/XML/1998/namespace"
	 xmlns="http://www.w3.org/2000/svg" xmlns:xlink="http://www.w3.org/1999/xlink" x="0px" y="0px" width="79px" height="57px"
	 viewBox="0 0 79 57" enable-background="new 0 0 79 57" xml:space="preserve">
<g>
	<path fill="#34485B" d="M74.958,57H3.872c-2.107,0-3.861-2.186-3.861-3.938v-0.703c0-1.762,1.754-1.493,3.861-1.493h71.086
		c2.104,0,4.035-0.089,4.035,1.661v0.535C78.993,54.814,77.152,57,74.958,57z"/>
	<path fill="#5E6E7E" d="M74.958,53.498H1.942c-2.196,0-1.932-0.971-1.932-2.543l8.424-31.486c0-1.489,1.757-2.805,3.951-2.805
		h54.239c2.19,0,3.942,1.405,3.942,2.894l8.427,32.01C78.993,53.063,79.35,53.498,74.958,53.498z"/>
	<path fill="#FFFFFF" d="M6.417,48.232l6.755-27.447c0.089-0.174,0.089-0.524,0.089-0.703c0.177-1.227,1.579-2.543,3.337-2.543
		H62.23c1.844,0,3.336,1.494,3.336,2.809l6.674,27.886H6.417V48.232z"/>
	<path fill="#C1CE62" d="M71.27,56.302h1.933c0.178,0,0.356-0.351,0.356-0.616V55.52c0-0.358-0.18-0.614-0.356-0.614H71.27
		c-0.17,0-0.347,0.344-0.347,0.614v0.166C70.923,56.041,71.1,56.302,71.27,56.302z"/>
	<path fill="#C1CE62" d="M66.973,56.302h1.932c0.178,0,0.35-0.351,0.35-0.616V55.52c0-0.358-0.172-0.614-0.35-0.614h-1.932
		c-0.18,0-0.349,0.344-0.349,0.614v0.166C66.536,56.041,66.793,56.302,66.973,56.302z"/>
	<g>
		<path fill="#34485B" d="M72.854,35.083H6.066c-2.195,0-6.056-1.06-6.056-2.543L8.434,2.543c0-1.4,1.757-2.543,3.951-2.543h54.239
			c2.19,0,3.942,1.229,3.942,2.633l8.427,29.907C78.82,34.023,74.958,35.083,72.854,35.083z"/>
		<path fill="#20323F" d="M0.01,32.451L0.01,32.451c0,1.752,3.861,2.632,6.056,2.632h66.877c1.931,0,5.092-0.702,5.877-2.019
			c0.084-0.179,0.173-0.437,0.173-0.613H0.01z"/>
		<polygon fill="#386082" points="78.993,32.451 0.01,32.451 0.799,29.641 78.035,29.641 		"/>
	</g>
</g>
</svg>
