<?xml version="1.0" encoding="utf-8"?>
<!-- Generator: Adobe Illustrator 16.0.0, SVG Export Plug-In . SVG Version: 6.00 Build 0)  -->
<!DOCTYPE svg PUBLIC "-//W3C//DTD SVG 1.1//EN" "http://www.w3.org/Graphics/SVG/1.1/DTD/svg11.dtd">
<svg version="1.1" id="图层_1" xmlns="http://www.w3.org/2000/svg" xmlns:xlink="http://www.w3.org/1999/xlink" x="0px" y="0px"
	 width="512px" height="512px" viewBox="0 0 512 512" enable-background="new 0 0 512 512" xml:space="preserve">
<g>
	<path fill="#47A6E9" d="M258.796,509.411h-0.008c-59.003,0-116.025-4.052-156.434-11.121
		c-63.337-11.091-78.335-25.959-89.152-88.42c-14.404-83.149-14.183-224.212,0.48-308.031c11.06-63.299,25.937-78.297,88.405-89.152
		C141.727,5.801,195.702,2,254.065,2c58.881,0,115.781,4.045,156.091,11.098c63.313,11.083,78.305,25.959,89.151,88.42
		c14.428,83.164,14.229,224.258-0.441,308.092c-11.045,63.313-25.93,78.305-88.405,89.167
		C370.883,505.633,317.014,509.411,258.796,509.411 M254.066,17.599c-57.495,0-110.518,3.717-149.312,10.458
		c-55.88,9.704-65.782,19.713-75.7,76.461c-14.419,82.38-14.633,220.997-0.48,302.699c9.674,55.85,19.683,65.768,76.469,75.715
		c39.564,6.916,95.596,10.877,153.745,10.877h0.008c57.365,0,110.274-3.687,149-10.39c55.896-9.72,65.797-19.729,75.715-76.492
		c14.412-82.402,14.61-221.036,0.442-302.745c-9.72-55.872-19.729-65.782-76.478-75.715
		C368.004,21.56,312.078,17.599,254.066,17.599"/>
	<path fill="#47A6E9" d="M255.653,180.011c-36.668,0-66.394,29.726-66.394,66.394c0,36.668,29.726,66.394,66.394,66.394
		c36.669,0,66.394-29.726,66.394-66.394C322.048,209.737,292.322,180.011,255.653,180.011 M206.273,232.579
		c4.983-17.827,19.324-31.703,37.414-36.032l11.966,49.859L206.273,232.579z M256.667,106.803v-0.115h-0.593l-0.008,0.002h-0.52
		v0.138L124.574,141.54l7.654,138.688c0,0.923,0,18.433,5.607,28.967c28.194,52.969,94.968,85.157,116.378,94.687
		c0.054,0.025,0.694,0.314,1.334,0.548v0.292c0.131-0.003,0.317-0.054,0.513-0.116c0.229,0.065,0.441,0.116,0.59,0.118
		c0.005,0,0.012-0.004,0.017-0.005v-0.345c0.521-0.221,1.004-0.467,1.048-0.489c21.404-9.528,88.183-41.717,116.377-94.686
		c5.606-10.533,6.165-28.042,6.193-28.964l7.678-138.692L256.667,106.803z M255.653,325.095c-43.459,0-78.689-35.23-78.689-78.688
		c0-43.459,35.231-78.689,78.689-78.689c43.458,0,78.689,35.231,78.689,78.689S299.112,325.095,255.653,325.095"/>
</g>
</svg>
