<?xml version="1.0" encoding="utf-8"?>
<!-- Generator: Adobe Illustrator 16.0.0, SVG Export Plug-In . SVG Version: 6.00 Build 0)  -->
<!DOCTYPE svg PUBLIC "-//W3C//DTD SVG 1.1//EN" "http://www.w3.org/Graphics/SVG/1.1/DTD/svg11.dtd">
<svg version="1.1"
	 id="图层_1" xmlns:dc="http://purl.org/dc/elements/1.1/" xmlns:cc="http://creativecommons.org/ns#" xmlns:rdf="http://www.w3.org/1999/02/22-rdf-syntax-ns#"
	 xmlns="http://www.w3.org/2000/svg" xmlns:xlink="http://www.w3.org/1999/xlink" x="0px" y="0px" width="61px" height="76px"
	 viewBox="0 0 61 76" enable-background="new 0 0 61 76" xml:space="preserve">
<path fill="#00BCF2" d="M32.478,0C16.954-0.034,2.789,13.938,0.374,30.042c-2.62,17.464,8.837,34.46,25.472,38.53
	c4.976,1.218,7.428,1.127,7.428,1.127S33.34,74.626,33.34,76c0.729-0.69,9.817-9.616,9.817-9.616s-5.474-5.288-9.817-9.482
	c0.082,2.369,0,6.301,0,6.301s-5.69,0-11.077-2.852C-4.256,46.312,2.031,7.653,32.741,2.52c3.828-0.639,14.14,1.011,17.446,2.123
	C48.185,3.265,42.398,0.022,32.478,0z M36.656,7.162c-13.451,0-24.343,10.958-24.343,24.405c0,13.446,10.894,24.339,24.343,24.339
	S61,45.016,61,31.567S50.105,7.162,36.656,7.162z M36.521,8.82c1.333,0,2.389,1.056,2.389,2.387s-1.056,2.453-2.389,2.453
	c-1.33,0-2.452-1.122-2.452-2.453S35.191,8.82,36.521,8.82z M36.589,16.845c2.414,0,4.313,1.798,4.313,4.046v8.82l7.695,7.029
	c1.673,1.534,1.606,4.183-0.133,5.968c-1.743,1.788-4.495,2-6.169,0.466l-8.426-7.693c-0.069-0.064-0.135-0.133-0.198-0.2
	c-0.905-0.742-1.46-1.835-1.46-3.051V20.891C32.212,18.643,34.179,16.845,36.589,16.845z M15.696,30.042
	c1.332,0,2.388,1.122,2.388,2.453s-1.057,2.387-2.388,2.387c-1.332,0-2.388-1.056-2.388-2.387S14.363,30.042,15.696,30.042z
	 M57.684,30.108c1.331,0,2.387,1.056,2.387,2.388s-1.056,2.387-2.387,2.387c-1.333,0-2.389-1.056-2.389-2.387
	S56.351,30.108,57.684,30.108z M36.921,50.003c1.333,0,2.456,1.122,2.456,2.455c0,1.332-1.123,2.386-2.456,2.386
	c-1.331,0-2.387-1.055-2.387-2.386C34.534,51.126,35.59,50.003,36.921,50.003z"/>
</svg>
