<?xml version="1.0" encoding="utf-8"?>
<!-- Generator: Adobe Illustrator 16.0.0, SVG Export Plug-In . SVG Version: 6.00 Build 0)  -->
<!DOCTYPE svg PUBLIC "-//W3C//DTD SVG 1.1//EN" "http://www.w3.org/Graphics/SVG/1.1/DTD/svg11.dtd">
<svg version="1.1"
	 id="图层_1" xmlns:dc="http://purl.org/dc/elements/1.1/" xmlns:cc="http://creativecommons.org/ns#" xmlns:rdf="http://www.w3.org/1999/02/22-rdf-syntax-ns#"
	 xmlns="http://www.w3.org/2000/svg" xmlns:xlink="http://www.w3.org/1999/xlink" x="0px" y="0px" width="75px" height="75px"
	 viewBox="0 0 75 75" enable-background="new 0 0 75 75" xml:space="preserve">
<path fill="#00BCF2" d="M8.806,74.709c-3.399-0.89-6.138-3.577-7.121-6.981l-0.338-1.177V37.574c0-23.786,0.035-29.119,0.196-29.782
	c0.109-0.445,0.499-1.437,0.865-2.206c0.568-1.195,0.85-1.581,1.936-2.651C5.793,1.503,7.086,0.767,8.981,0.29
	c1.139-0.288,1.672-0.293,25.371-0.289l24.21,0.005l7.546,7.459l7.546,7.46l-0.047,25.957L73.56,66.845l-0.344,1.029
	c-1.201,3.546-3.737,5.964-7.197,6.847c-1.075,0.277-1.901,0.285-28.625,0.277C10.803,74.991,9.841,74.982,8.806,74.709
	L8.806,74.709z M65.301,68.481c0.977-0.481,1.748-1.407,2.002-2.403c0.104-0.422,0.155-8.059,0.155-24.083V18.531l-5.994-0.038
	l-5.995-0.039l-0.035-6.141l-0.041-6.139L32.929,6.175L10.465,6.176L9.73,6.519C9.326,6.707,8.75,7.134,8.451,7.465
	c-1.076,1.19-1.003-1.008-1.003,30.038c0,30.133-0.039,28.613,0.762,29.796c0.449,0.662,1.292,1.24,2.15,1.472
	c0.551,0.148,6.154,0.18,27.388,0.158l26.695-0.025L65.301,68.481L65.301,68.481z M29.161,56.501
	c-0.042-0.069,2.204-7.925,4.991-17.457s5.063-17.354,5.063-17.379c0-0.027,0.965-0.049,2.138-0.049s2.131,0.018,2.129,0.037
	c0,0.021-2.309,7.879-5.121,17.465l-5.118,17.429l-2.002,0.044C30.141,56.611,29.206,56.57,29.161,56.501L29.161,56.501z
	 M19.371,45.946c-3.677-2.385-6.772-4.412-6.877-4.499c-0.135-0.114-0.191-0.635-0.191-1.804v-1.642l6.781-4.627
	c3.729-2.543,6.84-4.648,6.912-4.673c0.075-0.028,0.134,1.028,0.134,2.438v2.487l-4.922,2.999c-2.706,1.651-4.906,3.01-4.889,3.024
	c0.015,0.019,2.18,1.267,4.809,2.772c2.63,1.512,4.832,2.794,4.896,2.856c0.06,0.063,0.094,1.217,0.074,2.562l-0.041,2.452
	L19.371,45.946L19.371,45.946z M46.899,47.48l0.042-2.52l4.831-2.762l4.831-2.762l-0.788-0.494
	c-0.433-0.275-2.623-1.616-4.865-2.981l-4.082-2.482v-2.474c0-1.363,0.031-2.477,0.074-2.477c0.038,0,3.116,2.063,6.838,4.585
	l6.767,4.585v1.71v1.707l-6.428,4.188c-3.533,2.3-6.611,4.297-6.845,4.438l-0.413,0.26L46.899,47.48L46.899,47.48z"/>
</svg>
