<?xml version="1.0" encoding="utf-8"?>
<!-- Generator: Adobe Illustrator 16.0.0, SVG Export Plug-In . SVG Version: 6.00 Build 0)  -->
<!DOCTYPE svg PUBLIC "-//W3C//DTD SVG 1.1//EN" "http://www.w3.org/Graphics/SVG/1.1/DTD/svg11.dtd">
<svg version="1.1" id="图层_1" xmlns="http://www.w3.org/2000/svg" xmlns:xlink="http://www.w3.org/1999/xlink" x="0px" y="0px"
	 width="70px" height="80px" viewBox="0 0 70 80" enable-background="new 0 0 70 80" xml:space="preserve">
<g id="Layer_1">
	<g>
		<polygon fill="#737373" points="40,66.956 69.019,50.544 69.019,17.718 40,34.132 		"/>
		<polygon fill="#737373" points="11.088,50.437 40,66.956 40,34.132 11.088,17.718 		"/>
		<polygon fill="#737373" points="68.913,17.609 40,1.303 11.088,17.609 40,34.022 		"/>
		<polygon fill="#FFFFFF" points="40,32.825 66.738,17.718 66.738,17.609 		"/>
		<polygon fill="#FFFFFF" points="13.369,17.609 13.259,17.718 40,32.825 40,32.825 		"/>
		<path fill="#FFFFFF" d="M40,32.825L40,32.825L40,32.825z"/>
		<path fill="#FFFFFF" d="M68.913,16.413L40,0L11.088,16.413l-1.089,0.653v1.194v32.828l28.912,16.413L40,68.15l1.087-0.649
			L70,51.088V18.259v-1.304L68.913,16.413z M67.938,49.894L41.194,65.106V34.675l26.743-15.219V49.894z M38.912,65.106
			L12.175,49.894V19.566l26.737,15.216V65.106z M13.369,17.609L40.106,2.5L66.85,17.609l0,0L40,32.825l0,0l0,0L13.369,17.609
			L13.369,17.609z"/>
	</g>
	<g>
		<polygon fill="#FFFFFF" points="17.5,77.176 34.132,67.718 34.132,48.912 17.5,58.37 		"/>
		<polygon fill="#FFFFFF" points="0.759,67.718 17.5,77.281 17.5,58.263 0.759,48.806 		"/>
		<polygon fill="#FFFFFF" points="34.021,48.806 17.391,39.456 0.869,48.806 17.391,58.263 		"/>
		<polygon fill="#FFFFFF" points="17.391,57.394 32.499,48.806 32.392,48.806 		"/>
		<polygon fill="#FFFFFF" points="2.392,48.806 2.392,48.806 17.391,57.394 17.391,57.394 		"/>
		<path fill="#FFFFFF" d="M17.391,57.394L17.391,57.394L17.391,57.394z"/>
		<path fill="#444444" d="M34.132,47.938L17.5,38.479L0.869,47.938L0,48.368v0.981v18.912l16.632,9.456l0.868,0.431l0.869-0.431
			l16.521-9.456V49.35V48.37L34.132,47.938z M33.259,67.281l-15,8.588V58.806l15-8.479V67.281z M16.631,75.869l-15-8.588V50.219
			l15,8.476V75.869z M2.392,48.806l15-8.481l15.001,8.481l0,0l-15.001,8.588l0,0l0,0L2.392,48.806L2.392,48.806z"/>
	</g>
	<g>
		<polygon fill="#115193" points="35.219,78.807 44.781,73.369 44.781,62.5 35.219,67.938 		"/>
		<polygon fill="#115193" points="25.325,73.369 34.891,78.807 34.891,67.938 25.325,62.5 		"/>
		<polygon fill="#115193" points="44.563,62.282 35.11,56.85 25.544,62.282 35.11,67.607 		"/>
		<polygon fill="#FFFFFF" points="35.11,66.851 43.262,62.282 43.262,62.282 		"/>
		<polygon fill="#FFFFFF" points="26.847,62.282 26.847,62.282 35.11,66.851 35.11,66.851 		"/>
		<path fill="#FFFFFF" d="M35.11,66.851L35.11,66.851L35.11,66.851z"/>
		<path fill="#FFFFFF" d="M45,61.306l-9.89-5.542l-9.891,5.542l-0.763,0.432v0.981v11.194l9.891,5.65L35.219,80l0.763-0.437
			l9.887-5.65V62.719v-0.981L45,61.306z M44.132,72.938l-8.264,4.669v-9.344l8.264-4.675V72.938z M26.088,63.588l8.26,4.675v9.344
			l-8.26-4.669V63.588z M26.847,62.282L35,57.606l8.15,4.676l0,0l-8.259,4.674l0,0l0,0L26.847,62.282L26.847,62.282z"/>
	</g>
</g>
</svg>
