<?xml version="1.0" encoding="utf-8"?>
<!-- Generator: Adobe Illustrator 16.0.0, SVG Export Plug-In . SVG Version: 6.00 Build 0)  -->
<!DOCTYPE svg PUBLIC "-//W3C//DTD SVG 1.1//EN" "http://www.w3.org/Graphics/SVG/1.1/DTD/svg11.dtd">
<svg version="1.1" id="Layer_1" xmlns="http://www.w3.org/2000/svg" xmlns:xlink="http://www.w3.org/1999/xlink" x="0px" y="0px"
	 width="75px" height="75px" viewBox="0 0 75 75" enable-background="new 0 0 75 75" xml:space="preserve">
<polygon fill="#FFFFFF" points="37.5,73.788 69.499,55.618 69.499,19.279 37.5,37.449 "/>
<polygon fill="#FFFFFF" points="5.502,55.518 37.5,73.688 37.5,37.449 5.502,19.279 "/>
<polygon fill="#FFFFFF" points="69.297,19.279 37.5,1.211 5.703,19.279 37.5,37.349 "/>
<polygon fill="#FFFFFF" points="37.5,36.238 67.479,19.279 67.379,19.279 "/>
<polygon fill="#FFFFFF" points="7.621,19.279 7.521,19.279 37.5,36.238 37.5,36.238 "/>
<polygon fill="#FFFFFF" points="37.5,36.238 37.5,36.238 37.5,36.238 "/>
<path fill="#444444" d="M69.499,18.068L37.5,0L5.502,18.068l-1.01,0.605v1.212v36.339l31.999,18.169L37.5,75l1.01-0.606
	l31.998-18.169V19.886v-1.212L69.499,18.068z M68.489,55.013L38.51,71.971V37.954l29.979-16.958V55.013z M36.491,71.971
	L6.511,55.013V20.996l29.98,16.958V71.971z M7.621,19.279L37.5,2.321l29.879,16.958l0,0L37.5,36.238l0,0l0,0L7.621,19.279
	L7.621,19.279z"/>
<polygon fill="#4090D7" points="37.602,57.031 54.862,47.24 54.862,27.759 37.602,37.55 "/>
<polygon fill="#4090D7" points="20.138,47.24 37.399,57.031 37.399,37.55 20.138,27.759 "/>
<polygon fill="#4090D7" points="54.66,27.557 37.5,17.766 20.34,27.557 37.5,37.247 "/>
<polygon fill="#96BF3D" points="37.5,36.238 52.944,27.557 52.944,27.557 "/>
<polygon fill="#96BF3D" points="22.056,27.557 22.056,27.557 37.5,36.238 37.5,36.238 "/>
<polygon fill="#96BF3D" points="37.5,36.238 37.5,36.238 37.5,36.238 "/>
<path fill="#FFFFFF" d="M54.963,26.346L37.5,16.453l-17.463,9.893l-1.01,0.605v1.211v19.785l17.464,9.892l1.009,0.606l1.01-0.606
	l17.463-9.892V28.062v-1.211L54.963,26.346z M53.953,46.735L38.51,55.518V38.055l15.443-8.782V46.735z M36.491,55.518l-15.444-8.782
	V29.273l15.444,8.781V55.518z M22.056,27.557L37.5,18.774l15.444,8.682l0,0L37.5,36.238l0,0l0,0L22.056,27.557L22.056,27.557z"/>
</svg>
