<?xml version="1.0" encoding="utf-8"?>
<!-- Generator: Adobe Illustrator 16.0.0, SVG Export Plug-In . SVG Version: 6.00 Build 0)  -->
<!DOCTYPE svg PUBLIC "-//W3C//DTD SVG 1.1//EN" "http://www.w3.org/Graphics/SVG/1.1/DTD/svg11.dtd">
<svg version="1.1" id="图层_1" xmlns="http://www.w3.org/2000/svg" xmlns:xlink="http://www.w3.org/1999/xlink" x="0px" y="0px"
	 width="75px" height="75px" viewBox="0 0 75 75" enable-background="new 0 0 75 75" xml:space="preserve">
<g id="Layer_1">
	<polygon fill="#FFFFFF" points="37.5,73.789 69.499,55.619 69.499,19.28 37.5,37.45 	"/>
	<polygon fill="#FFFFFF" points="5.502,55.519 37.5,73.688 37.5,37.45 5.502,19.28 	"/>
	<polygon fill="#FFFFFF" points="69.297,19.28 37.5,1.212 5.703,19.28 37.5,37.349 	"/>
	<polygon fill="#FFFFFF" points="37.5,36.238 67.479,19.28 67.378,19.28 	"/>
	<polygon fill="#FFFFFF" points="7.621,19.28 7.521,19.28 37.5,36.238 37.5,36.238 	"/>
	<polygon fill="#FFFFFF" points="37.5,36.238 37.5,36.238 37.5,36.238 	"/>
	<path fill="#444444" d="M69.499,18.069L37.5,0L5.502,18.069l-1.01,0.605v1.211v36.339l31.999,18.169L37.5,75l1.01-0.606
		l31.998-18.169V19.886v-1.211L69.499,18.069z M68.489,55.014L38.51,71.972V37.954l29.979-16.958V55.014z M36.491,71.972
		L6.511,55.014V20.997l29.98,16.958V71.972z M7.621,19.28L37.5,2.322L67.378,19.28l0,0L37.5,36.238l0,0l0,0L7.621,19.28L7.621,19.28
		z"/>
	<polygon fill="#115193" points="37.602,57.033 54.862,47.241 54.862,27.759 37.602,37.551 	"/>
	<polygon fill="#115193" points="20.138,47.241 37.399,57.033 37.399,37.551 20.138,27.759 	"/>
	<polygon fill="#115193" points="54.66,27.558 37.5,17.766 20.34,27.558 37.5,37.248 	"/>
	<polygon fill="#96BF3D" points="37.5,36.238 52.944,27.558 52.944,27.558 	"/>
	<polygon fill="#96BF3D" points="22.057,27.558 22.057,27.558 37.5,36.238 37.5,36.238 	"/>
	<polygon fill="#96BF3D" points="37.5,36.238 37.5,36.238 37.5,36.238 	"/>
	<path fill="#FFFFFF" d="M54.963,26.346L37.5,16.454l-17.463,9.892l-1.009,0.605v1.211v19.785l17.463,9.892l1.009,0.605l1.01-0.605
		l17.462-9.892V28.063v-1.211L54.963,26.346z M53.953,46.736L38.51,55.519V38.055l15.443-8.781V46.736z M36.491,55.519
		l-15.444-8.782V29.273l15.444,8.781V55.519z M22.057,27.558L37.5,18.775l15.444,8.681l0,0L37.5,36.238l0,0l0,0L22.057,27.558
		L22.057,27.558z"/>
</g>
</svg>
