<?xml version="1.0" encoding="utf-8"?>
<!-- Generator: Adobe Illustrator 16.0.0, SVG Export Plug-In . SVG Version: 6.00 Build 0)  -->
<!DOCTYPE svg PUBLIC "-//W3C//DTD SVG 1.1//EN" "http://www.w3.org/Graphics/SVG/1.1/DTD/svg11.dtd">
<svg version="1.1" id="图层_1" xmlns="http://www.w3.org/2000/svg" xmlns:xlink="http://www.w3.org/1999/xlink" x="0px" y="0px"
	 width="70px" height="80px" viewBox="0 0 70 80" enable-background="new 0 0 70 80" xml:space="preserve">
<g id="Layer_1">
	<g>
		<polygon fill="#FFFFFF" points="40,66.956 69.021,50.544 69.021,17.717 40,34.132 		"/>
		<polygon fill="#FFFFFF" points="11.087,50.435 40,66.956 40,34.132 11.087,17.717 		"/>
		<polygon fill="#FFFFFF" points="68.914,17.608 40,1.304 11.087,17.608 40,34.022 		"/>
		<polygon fill="#FFFFFF" points="40,32.826 66.74,17.717 66.74,17.608 		"/>
		<polygon fill="#FFFFFF" points="13.37,17.608 13.26,17.717 40,32.826 40,32.826 		"/>
		<path fill="#FFFFFF" d="M40,32.826L40,32.826L40,32.826z"/>
		<path fill="#444444" d="M68.914,16.413L40,0L11.087,16.413l-1.088,0.652v1.196v32.826l28.912,16.413L40,68.152l1.087-0.651
			L70,51.088V18.261v-1.305L68.914,16.413z M67.936,49.892L41.196,65.108V34.674l26.739-15.218V49.892z M38.912,65.108
			L12.174,49.892V19.565l26.738,15.218V65.108z M13.37,17.608L40.108,2.5l26.739,15.108l0,0L40,32.826l0,0l0,0L13.37,17.608
			L13.37,17.608z"/>
	</g>
	<g>
		<polygon fill="#FFFFFF" points="17.5,77.175 34.132,67.717 34.132,48.912 17.5,58.371 		"/>
		<polygon fill="#FFFFFF" points="0.76,67.717 17.5,77.282 17.5,58.262 0.76,48.805 		"/>
		<polygon fill="#FFFFFF" points="34.021,48.805 17.392,39.456 0.869,48.805 17.392,58.262 		"/>
		<polygon fill="#FFFFFF" points="17.392,57.392 32.499,48.805 32.392,48.805 		"/>
		<polygon fill="#FFFFFF" points="2.392,48.805 2.392,48.805 17.392,57.392 17.392,57.392 		"/>
		<path fill="#FFFFFF" d="M17.392,57.392L17.392,57.392L17.392,57.392z"/>
		<path fill="#444444" d="M34.132,47.936L17.5,38.479L0.869,47.936L0,48.369v0.979v18.913l16.632,9.456L17.5,78.15l0.869-0.434
			l16.521-9.456V49.348v-0.977L34.132,47.936z M33.26,67.282l-15,8.588V58.805l15-8.478V67.282z M16.63,75.87l-15-8.588V50.218
			l15,8.479V75.87z M2.392,48.805l15.001-8.479l15,8.479l0,0l-15,8.587l0,0l0,0L2.392,48.805L2.392,48.805z"/>
	</g>
	<g>
		<polygon fill="#FFFFFF" points="35.218,78.806 44.782,73.37 44.782,62.5 35.218,67.936 		"/>
		<polygon fill="#FFFFFF" points="25.326,73.37 34.891,78.806 34.891,67.936 25.326,62.5 		"/>
		<polygon fill="#FFFFFF" points="44.564,62.283 35.109,56.848 25.543,62.283 35.109,67.609 		"/>
		<polygon fill="#FFFFFF" points="35.109,66.85 43.261,62.283 43.261,62.283 		"/>
		<polygon fill="#FFFFFF" points="26.847,62.283 26.847,62.283 35.109,66.85 35.109,66.85 		"/>
		<path fill="#FFFFFF" d="M35.109,66.85L35.109,66.85L35.109,66.85z"/>
		<path fill="#444444" d="M45,61.305l-9.891-5.542l-9.891,5.542l-0.762,0.434v0.979v11.196l9.892,5.652L35.218,80l0.762-0.434
			l9.89-5.652V62.718v-0.979L45,61.305z M44.131,72.936l-8.262,4.673v-9.347l8.262-4.674V72.936z M26.088,63.588l8.261,4.674v9.347
			l-8.261-4.673V63.588z M26.847,62.283L35,57.608l8.152,4.675l0,0l-8.261,4.673l0,0l0,0L26.847,62.283L26.847,62.283z"/>
	</g>
	<g>
		<polygon fill="#FFFFFF" points="40,66.956 69.021,50.544 69.021,17.717 40,34.132 		"/>
		<polygon fill="#FFFFFF" points="11.087,50.435 40,66.956 40,34.132 11.087,17.717 		"/>
		<polygon fill="#FFFFFF" points="68.914,17.608 40,1.304 11.087,17.608 40,34.022 		"/>
		<polygon fill="#FFFFFF" points="40,32.826 66.74,17.717 66.74,17.608 		"/>
		<polygon fill="#FFFFFF" points="13.37,17.608 13.26,17.717 40,32.826 40,32.826 		"/>
		<path fill="#FFFFFF" d="M40,32.826L40,32.826L40,32.826z"/>
		<path fill="#444444" d="M68.914,16.413L40,0L11.087,16.413l-1.088,0.652v1.196v32.826l28.912,16.413L40,68.152l1.087-0.651
			L70,51.088V18.261v-1.305L68.914,16.413z M67.936,49.892L41.196,65.108V34.674l26.739-15.218V49.892z M38.912,65.108
			L12.174,49.892V19.565l26.738,15.218V65.108z M13.37,17.608L40.108,2.5l26.739,15.108l0,0L40,32.826l0,0l0,0L13.37,17.608
			L13.37,17.608z"/>
	</g>
	<g>
		<polygon fill="#FFFFFF" points="17.5,77.175 34.132,67.717 34.132,48.912 17.5,58.371 		"/>
		<polygon fill="#FFFFFF" points="0.76,67.717 17.5,77.282 17.5,58.262 0.76,48.805 		"/>
		<polygon fill="#FFFFFF" points="34.021,48.805 17.392,39.456 0.869,48.805 17.392,58.262 		"/>
		<polygon fill="#FFFFFF" points="17.392,57.392 32.499,48.805 32.392,48.805 		"/>
		<polygon fill="#FFFFFF" points="2.392,48.805 2.392,48.805 17.392,57.392 17.392,57.392 		"/>
		<path fill="#FFFFFF" d="M17.392,57.392L17.392,57.392L17.392,57.392z"/>
		<path fill="#444444" d="M34.132,47.936L17.5,38.479L0.869,47.936L0,48.369v0.979v18.913l16.632,9.456L17.5,78.15l0.869-0.434
			l16.521-9.456V49.348v-0.977L34.132,47.936z M33.26,67.282l-15,8.588V58.805l15-8.478V67.282z M16.63,75.87l-15-8.588V50.218
			l15,8.479V75.87z M2.392,48.805l15.001-8.479l15,8.479l0,0l-15,8.587l0,0l0,0L2.392,48.805L2.392,48.805z"/>
	</g>
	<g>
		<polygon fill="#FFFFFF" points="35.218,78.806 44.782,73.37 44.782,62.5 35.218,67.936 		"/>
		<polygon fill="#FFFFFF" points="25.326,73.37 34.891,78.806 34.891,67.936 25.326,62.5 		"/>
		<polygon fill="#FFFFFF" points="44.564,62.283 35.109,56.848 25.543,62.283 35.109,67.609 		"/>
		<polygon fill="#FFFFFF" points="35.109,66.85 43.261,62.283 43.261,62.283 		"/>
		<polygon fill="#FFFFFF" points="26.847,62.283 26.847,62.283 35.109,66.85 35.109,66.85 		"/>
		<path fill="#FFFFFF" d="M35.109,66.85L35.109,66.85L35.109,66.85z"/>
		<path fill="#444444" d="M45,61.305l-9.891-5.542l-9.891,5.542l-0.762,0.434v0.979v11.196l9.892,5.652L35.218,80l0.762-0.434
			l9.89-5.652V62.718v-0.979L45,61.305z M44.131,72.936l-8.262,4.673v-9.347l8.262-4.674V72.936z M26.088,63.588l8.261,4.674v9.347
			l-8.261-4.673V63.588z M26.847,62.283L35,57.608l8.152,4.675l0,0l-8.261,4.673l0,0l0,0L26.847,62.283L26.847,62.283z"/>
	</g>
</g>
</svg>
