<?xml version="1.0" encoding="utf-8"?>
<!-- Generator: Adobe Illustrator 16.0.0, SVG Export Plug-In . SVG Version: 6.00 Build 0)  -->
<!DOCTYPE svg PUBLIC "-//W3C//DTD SVG 1.1//EN" "http://www.w3.org/Graphics/SVG/1.1/DTD/svg11.dtd">
<svg version="1.1" id="Layer_1" xmlns="http://www.w3.org/2000/svg" xmlns:xlink="http://www.w3.org/1999/xlink" x="0px" y="0px"
	 width="57px" height="78px" viewBox="0 0 57 78" enable-background="new 0 0 57 78" xml:space="preserve">
<g>
	<path fill="#7D7C7C" d="M52.809,3.488C55.182,3.488,57,5.302,57,7.674v66.14C57,76.046,55.182,78,52.809,78H4.191
		C1.816,78,0,76.186,0,73.814V7.535c0-2.232,1.816-4.187,4.191-4.187L52.809,3.488L52.809,3.488z"/>
	<path fill="#D2D3D3" d="M52.809,0C55.182,0,57,1.814,57,4.186v66.141c0,2.231-1.818,4.187-4.191,4.187H4.191
		C1.816,74.513,0,72.698,0,70.326V4.186C0,1.953,1.816,0,4.191,0H52.809L52.809,0z"/>
	<polygon fill="#759C3E" points="12.294,16.186 8.383,11.862 4.052,16.186 4.052,16.186 12.153,24.279 25.984,10.605 22.772,7.396 	
		"/>
	<polygon fill="#759C3E" points="12.294,35.581 8.383,31.395 4.052,35.722 4.052,35.722 12.153,43.813 25.984,30.14 22.772,26.931 	
		"/>
	<g enable-background="new    ">
		<path fill="#E05243" d="M12.714,55.115l-8.383-7.532h4.053l6.426,5.999l6.706-5.999h3.772l-8.382,7.532l8.939,7.953h-4.191
			l-6.845-6.416l-7.125,6.416H3.912L12.714,55.115z"/>
	</g>
</g>
</svg>
