<?xml version="1.0" encoding="utf-8"?>
<!-- Generator: Adobe Illustrator 16.0.0, SVG Export Plug-In . SVG Version: 6.00 Build 0)  -->
<!DOCTYPE svg PUBLIC "-//W3C//DTD SVG 1.1//EN" "http://www.w3.org/Graphics/SVG/1.1/DTD/svg11.dtd">
<svg version="1.1" id="Layer_1" xmlns="http://www.w3.org/2000/svg" xmlns:xlink="http://www.w3.org/1999/xlink" x="0px" y="0px"
	 width="58px" height="76px" viewBox="0 0 58 76" enable-background="new 0 0 58 76" xml:space="preserve">
<g>
	<g>
		<path fill="#D2D3D3" d="M53.734,0C56.15,0,58,1.851,58,4.269v67.46C58,74.007,56.15,76,53.734,76H4.264C1.846,76,0,74.15,0,71.729
			V4.269C-0.001,1.993,1.846,0,4.264,0H53.734L53.734,0z"/>
	</g>
	<path fill="#373737" d="M47.764,51.947v-8.68c-0.569-5.693-5.546-10.248-11.516-10.248c-5.969,0-10.945,4.412-11.513,10.248v8.68
		h-5.971v19.357h34.829V51.947H47.764z M42.218,51.947H30.42v-8.68c0,0,0-5.41,5.971-5.41c5.687,0,5.97,5.41,5.97,5.41
		L42.218,51.947z"/>
	<path fill="#7D7C7C" d="M15.778,3.274c-6.539,0-11.8,5.265-11.8,11.813c0,6.547,5.261,11.813,11.8,11.813
		s11.799-5.266,11.799-11.813C27.718,8.539,22.317,3.274,15.778,3.274z M15.778,13.093c-1.707,0-3.127-1.423-3.127-3.131
		c0-1.708,1.421-3.131,3.127-3.131s3.127,1.423,3.127,3.131C18.905,11.67,17.483,13.093,15.778,13.093z"/>
	<polygon fill="#7D7C7C" points="20.896,19.213 20.896,32.876 18.622,34.157 19.048,38.712 17.341,40.562 16.916,42.128 
		19.474,46.397 15.351,51.662 10.802,48.816 10.802,19.213 	"/>
</g>
</svg>
