<?xml version="1.0" encoding="utf-8"?>
<!-- Generator: Adobe Illustrator 16.0.0, SVG Export Plug-In . SVG Version: 6.00 Build 0)  -->
<!DOCTYPE svg PUBLIC "-//W3C//DTD SVG 1.1//EN" "http://www.w3.org/Graphics/SVG/1.1/DTD/svg11.dtd">
<svg version="1.1" id="Layer_1" xmlns="http://www.w3.org/2000/svg" xmlns:xlink="http://www.w3.org/1999/xlink" x="0px" y="0px"
	 width="75px" height="64px" viewBox="0 0 75 64" enable-background="new 0 0 75 64" xml:space="preserve">
<g>
	<path fill="#4B612C" d="M73.215,33.729c-0.273-0.365-0.545-0.73-0.729-1.095c-1.268-2.273-1.91-4.736-2.454-7.381
		c-1.913-8.845-6.828-15.505-14.558-20.337c-5.468-3.374-11.018-5.562-17.568-4.744c-8.739,1.095-16.019,4.379-21.115,11.949
		c-2.821,4.285-5.003,8.847-6.735,13.678c-1.546,4.379-1.364,9.21-3.369,13.502c-0.363,0.813-0.908,1.634-1.454,2.455
		c-1.366,2.1-3.095,4.011-4.096,6.288c-2.367,5.571-1.092,8.759,4.277,11.499c0.545,0.269,1.09,0.542,1.637,0.728
		c6.282,2.55,20.839,5.654,29.849,2.186c2.101-0.546,4.095-1.551,6.101-2.646c7.28-3.832,14.465-7.744,21.655-11.672
		c3.191-1.728,6.281-3.738,8.645-6.56C75.58,38.841,75.58,36.372,73.215,33.729z"/>
	<path fill="#759C3E" d="M47.732,3.364c3.917,1.277,7.285,3.557,10.466,6.201c2.274,1.826,8.467,8.117,9.828,16.052
		c0.19,1.187,0.276,2.369,0.457,3.556c0.094,0.458,0.728,1.37,0.728,1.37l0.726,1.821c0,0,1.369,2.186,2.099,3.197
		c0.905,1.271,1.268,2.644,0.271,4.01c-2.275,3.009-5.278,5.019-9.01,6.928c0.179-1.544,0.27-2.73,0.364-3.919L61.2,41.851
		c-0.905,2.092-0.364,3.644,1.91,4.737c-2.182,1.187-4.096,2.106-5.914,3.197c-5.817,3.099-11.553,6.289-17.385,9.298
		c-4.271,2.186-8.916,3.373-13.737,3.194c-5.551-0.186-10.922-1.278-16.201-3.101c-2.363-0.822-4.275-4.561-3.548-6.936
		c0.363-1.187,1.455-1.822,2.64-1.635c4.094,0.448,8.1,0.907,12.194,1.365c4.458,0.546,9.01,1.551,13.467,1.551
		c5.104,0,10.017-1.551,14.746-3.563c-1.453,0.095-2.909,0.19-4.363,0.28c-4.013,0.273-8.107,0.448-12.107,1.001
		c-5.008,0.635-9.648-0.459-14.382-1.645c-3.821-0.904-7.007-3.009-9.191-6.288c-0.817-1.283-1.365-2.739-0.726-4.104
		c0.545,0.459,1.09,1.365,1.547,1.276c0.546-0.088,1.274-0.817,1.456-1.464c0.638-1.634,1.001-3.281,1.548-5.007
		c0.816-3.016,1.455-6.114,2.545-8.941c2.095-5.29,4.37-10.579,7.828-15.141c1.276-1.73,2.731-3.374,4.367-4.74
		c2.094-1.826,4.826-2.462,7.555-2.737c3.187-0.273,6.37-0.183,9.643-0.183c0.188,0,0.364,0.183,0.554,0.275L47.732,3.364z"/>
	<path fill="#B7CA9D" d="M68.119,25.523c-0.727-1.364-1.275-2.826-2.09-4.009c-4.1-5.93-12.742-5.836-17.02,0.088
		c-2.64,3.737-3.919,8.028-4.646,12.407c-0.177,1.364-0.364,2.645-0.633,4.372c-1.549-2.551-1.912-5.1-2.092-7.57
		c-0.278-5.378,0.543-10.575,3.816-15.047c2.369-3.191,5.193-5.836,9.374-6.382c1.095-0.183,2.19,0.094,3.368,0.094
		c1.275,1.092,2.825,2.004,3.733,3.279c2.553,3.286,4.734,6.841,5.825,10.943C68.026,24.341,68.026,24.976,68.119,25.523z"/>
	<path fill="#B7CA9D" d="M47.732,3.364c-4.635,1.277-7.274,4.743-9.463,8.664c-3.184,5.653-5.46,11.672-5.367,18.238
		c0.089,3.746,0.816,7.483,2.365,10.948c0.182,0.367,0.273,0.731,0.545,1.365c-1.912,0-3.092-0.728-4.094-2.099
		c-1.82-2.462-2.457-5.377-2.367-8.298c0.183-8.482,1.822-16.687,7.371-23.528c1.185-1.458,2.552-2.828,4.006-4.103
		c1.454-1.277,3.272-1.917,5.279-1.824C46.549,2.911,47.19,3.093,47.732,3.364z"/>
	<path fill="#B7CA9D" d="M70.032,32.364c0,2.096-1.455,3.197-2.824,4.291c-7.007,5.655-15.194,8.57-23.936,10.211
		c-3.903,0.731-7.732,1.369-11.648,1.829c-4.729,0.54-9.191-1.097-13.739-2.282c-1.822-0.459-3.641-1.092-5.554-1.646
		c0-0.177,0-0.364,0.093-0.544c0.817,0,1.639-0.091,2.458,0c3.638,0.638,7.186,1.545,10.829,1.909c3.368,0.367,6.734,0.367,10.101,0
		c6.275-0.729,12.471-2.001,18.382-4.28c3.462-1.37,6.734-3.01,9.927-4.831c2.544-1.459,4.82-3.197,5.184-6.477
		C69.574,31.089,69.848,31.725,70.032,32.364z"/>
	<path fill="#B7CA9D" d="M61.386,41.851c1.726-1.094,3.463-2.186,5.279-3.104c0.726-0.365,1.638-0.271,2.454-0.365
		c0.092,0.189,0.092,0.27,0.186,0.459c-1.817,1.272-3.639,2.456-5.464,3.738C62.936,42.31,62.113,42.119,61.386,41.851z"/>
</g>
</svg>
