<?xml version="1.0" encoding="utf-8"?>
<!-- Generator: Adobe Illustrator 16.0.0, SVG Export Plug-In . SVG Version: 6.00 Build 0)  -->
<!DOCTYPE svg PUBLIC "-//W3C//DTD SVG 1.1//EN" "http://www.w3.org/Graphics/SVG/1.1/DTD/svg11.dtd">
<svg version="1.1" id="Layer_1" xmlns="http://www.w3.org/2000/svg" xmlns:xlink="http://www.w3.org/1999/xlink" x="0px" y="0px"
	 width="63px" height="76px" viewBox="0 0 63 76" enable-background="new 0 0 63 76" xml:space="preserve">
<g>
	<polygon fill="#4B612C" points="6.406,58.784 0,60.255 0,15.745 6.406,12.493 16.064,26.768 	"/>
	<polygon fill="#759C3E" points="14.597,26.559 6.406,25.507 6.406,12.493 14.597,14.591 	"/>
	<polygon fill="#4B612C" points="48.301,24.564 61.532,26.559 56.597,12.493 48.301,14.591 	"/>
	<polygon fill="#4B612C" points="18.167,59.098 31.501,76 40.007,22.044 31.501,0 18.167,6.613 	"/>
	<polygon fill="#4B612C" points="0,60.255 31.501,76 41.791,45.77 31.501,15.537 0,24.774 	"/>
	<polygon fill="#4B612C" points="37.277,26.768 61.532,35.375 56.597,63.509 45.045,60.568 	"/>
	<polygon fill="#759C3E" points="45.045,69.28 31.501,76 31.501,0 45.045,6.718 	"/>
	<polygon fill="#759C3E" points="56.597,63.509 63,60.255 63,15.745 56.597,12.493 	"/>
	<polygon fill="#759C3E" points="63,38 31.501,38 31.501,15.537 63,24.774 	"/>
</g>
</svg>
