<?xml version="1.0" encoding="utf-8"?>
<!-- Generator: Adobe Illustrator 16.0.0, SVG Export Plug-In . SVG Version: 6.00 Build 0)  -->
<!DOCTYPE svg PUBLIC "-//W3C//DTD SVG 1.1//EN" "http://www.w3.org/Graphics/SVG/1.1/DTD/svg11.dtd">
<svg version="1.1" id="Layer_1" xmlns="http://www.w3.org/2000/svg" xmlns:xlink="http://www.w3.org/1999/xlink" x="0px" y="0px"
	 width="75px" height="60px" viewBox="0 0 75 60" enable-background="new 0 0 75 60" xml:space="preserve">
<g>
	<path fill="#7D7C7C" d="M66.227,3.538H8.774C3.962,3.538,0,7.5,0,12.312v38.915C0,56.038,3.962,60,8.774,60h57.453
		C71.039,60,75,56.038,75,51.227V12.312C75,7.5,71.038,3.538,66.227,3.538z"/>
	<path fill="#FFFFFF" d="M66.227,0H8.774C3.962,0,0,3.963,0,8.773v38.915c0,4.813,3.962,8.774,8.774,8.774h57.453
		c4.813,0,8.773-3.962,8.773-8.774V8.773C75,3.963,71.038,0,66.227,0z"/>
	<circle fill="#759C3E" cx="56.18" cy="17.972" r="13.443"/>
	<circle fill="#FFFFFF" cx="62.123" cy="17.972" r="3.538"/>
	<polygon fill="#759C3E" points="51.65,23.774 36.085,23.774 34.67,21.227 29.434,21.793 27.311,19.67 25.472,19.245 20.661,22.217 
		14.717,17.548 17.972,12.312 51.65,12.312 	"/>
	<circle fill="#7D7C7C" cx="18.82" cy="38.774" r="13.443"/>
	<circle fill="#FFFFFF" cx="12.877" cy="38.774" r="3.538"/>
	<polygon fill="#7D7C7C" points="23.349,32.971 38.915,32.971 40.33,35.52 45.566,34.953 47.688,37.075 49.527,37.5 54.34,34.527 
		60.282,39.198 57.027,44.436 23.349,44.436 	"/>
</g>
</svg>
