<?xml version="1.0" encoding="utf-8"?>
<!-- Generator: Adobe Illustrator 16.0.0, SVG Export Plug-In . SVG Version: 6.00 Build 0)  -->
<!DOCTYPE svg PUBLIC "-//W3C//DTD SVG 1.1//EN" "http://www.w3.org/Graphics/SVG/1.1/DTD/svg11.dtd">
<svg version="1.1" id="Layer_1" xmlns="http://www.w3.org/2000/svg" xmlns:xlink="http://www.w3.org/1999/xlink" x="0px" y="0px"
	 width="39px" height="75px" viewBox="0 0 39 75" enable-background="new 0 0 39 75" xml:space="preserve">
<g>
	<polygon fill="#3C4929" points="6.846,26.25 2.282,21.979 0,26.458 3.422,26.875 	"/>
	<polygon fill="#3C4929" points="3.008,31.667 19.501,32.708 35.992,31.667 19.501,22.5 	"/>
	<polygon fill="#3C4929" points="30.6,26.25 34.646,26.979 39,26.458 35.059,18.125 	"/>
	<polygon fill="#B7CA9D" points="14.107,56.146 23.545,53.959 32.569,56.041 23.234,65.104 	"/>
	<polygon fill="#759C3E" points="15.145,25.417 10.269,24.583 5.186,18.229 10.269,8.021 15.145,9.584 	"/>
	<polygon fill="#4B612C" points="3.008,14.063 3.008,8.229 19.501,0 23.858,9.271 15.145,12.708 10.269,11.25 10.269,24.375 
		19.501,22.5 24.479,44.27 19.501,75 14.521,72.5 14.521,65.521 10.269,63.749 10.269,30.938 3.008,31.667 3.008,25.833 0,26.458 
		0,15.313 	"/>
	<polygon fill="#759C3E" points="28.008,4.271 31.533,6.042 35.992,8.229 35.992,14.063 39,15.313 39,26.458 35.992,25.833 
		35.992,31.667 32.05,31.25 28.734,30.938 28.734,37.396 28.734,37.5 28.734,37.5 35.992,37.5 35.992,43.54 32.569,43.854 
		32.569,49.896 24.479,51.46 24.479,58.541 32.569,56.041 32.569,62.29 24.479,65.521 24.479,72.5 19.501,75 19.501,52.501 
		19.501,44.999 19.501,37.5 19.501,37.396 19.501,30 19.501,22.5 23.858,23.333 23.858,12.708 19.501,11.25 19.501,7.5 19.501,0 	
		"/>
	<polygon fill="#3C4929" points="24.479,9.479 19.501,7.5 10.269,11.25 15.145,12.708 	"/>
	<polygon fill="#4B612C" points="23.858,11.25 28.734,11.25 28.734,24.375 23.858,23.333 	"/>
	<polygon fill="#3C4929" points="10.269,11.25 19.501,7.5 21.472,8.334 24.479,9.479 28.734,11.25 23.858,12.708 19.501,11.25 
		15.145,12.708 	"/>
</g>
</svg>
