<?xml version="1.0" encoding="utf-8"?>
<!-- Generator: Adobe Illustrator 16.0.0, SVG Export Plug-In . SVG Version: 6.00 Build 0)  -->
<!DOCTYPE svg PUBLIC "-//W3C//DTD SVG 1.1//EN" "http://www.w3.org/Graphics/SVG/1.1/DTD/svg11.dtd">
<svg version="1.1" id="Layer_1" xmlns="http://www.w3.org/2000/svg" xmlns:xlink="http://www.w3.org/1999/xlink" x="0px" y="0px"
	 width="62px" height="75px" viewBox="0 0 62 75" enable-background="new 0 0 62 75" xml:space="preserve">
<g>
	<polygon fill="#B7CA9D" points="62,53.854 31,48.021 0,53.854 31,75 	"/>
	<polyline fill="#4B612C" points="0,53.854 0,59.479 3.953,61.458 31,75 31,65.521 	"/>
	<polyline fill="#759C3E" points="62,53.854 62,59.479 58.047,61.458 31,75 31,65.521 	"/>
	<polygon fill="#B7CA9D" points="31,45.521 44.106,46.875 31,59.896 17.893,46.875 	"/>
	<polygon fill="#4B612C" points="17.893,56.041 31,59.999 31,48.751 17.893,46.875 	"/>
	<polygon fill="#759C3E" points="44.106,56.041 31,59.999 31,48.751 44.106,46.875 	"/>
	<polygon fill="#4B612C" points="17.893,6.562 31,0 43.587,23.854 31,42.29 17.893,41.249 	"/>
	<polygon fill="#759C3E" points="44.106,41.249 31,42.29 31,0 44.106,6.562 	"/>
</g>
</svg>
