<?xml version="1.0" encoding="utf-8"?>
<!-- Generator: Adobe Illustrator 16.0.0, SVG Export Plug-In . SVG Version: 6.00 Build 0)  -->
<!DOCTYPE svg PUBLIC "-//W3C//DTD SVG 1.1//EN" "http://www.w3.org/Graphics/SVG/1.1/DTD/svg11.dtd">
<svg version="1.1" id="Layer_1" xmlns="http://www.w3.org/2000/svg" xmlns:xlink="http://www.w3.org/1999/xlink" x="0px" y="0px"
	 width="75px" height="67px" viewBox="0 0 75 67" enable-background="new 0 0 75 67" xml:space="preserve">
<g>
	<path fill="#7D7C7C" d="M58.668,3.137H7.788C3.517,3.137,0,6.651,0,10.916v34.502c0,4.267,3.517,7.779,7.788,7.779h51.005
		c4.271,0,7.789-3.513,7.789-7.779V10.916C66.456,6.525,63.064,3.137,58.668,3.137z"/>
	<path fill="#FFFFFF" d="M58.668,0H7.788C3.517,0,0,3.514,0,7.779v34.503c0,4.266,3.517,7.779,7.788,7.779h51.005
		c4.271,0,7.789-3.514,7.789-7.779V7.779C66.456,3.514,63.064,0,58.668,0z"/>
	<ellipse fill="#759C3E" cx="49.874" cy="15.935" rx="11.935" ry="11.92"/>
	<circle fill="#FFFFFF" cx="55.148" cy="15.934" r="3.137"/>
	<polygon fill="#759C3E" points="45.854,20.953 31.909,20.953 30.778,18.82 26.004,19.322 24.246,17.44 22.612,17.063 
		18.341,19.573 13.064,15.559 15.954,10.79 45.854,10.79 	"/>
	<ellipse fill="#7D7C7C" cx="16.582" cy="34.378" rx="11.935" ry="11.919"/>
	<circle fill="#FFFFFF" cx="11.307" cy="34.379" r="3.137"/>
	<polygon fill="#7D7C7C" points="20.603,29.234 34.548,29.234 35.678,31.367 40.452,30.99 42.21,32.873 43.843,33.25 48.113,30.615 
		53.393,34.754 50.502,39.396 20.603,39.396 	"/>
	<g>
		<ellipse fill="#FFFFFF" cx="56.657" cy="48.807" rx="16.331" ry="16.311"/>
		<path fill="#4F4F4F" d="M56.783,67c-10.051,0-18.217-8.155-18.217-18.192c0-10.039,8.166-18.193,18.217-18.193
			S75,38.769,75,48.808C75,58.845,66.707,67,56.783,67z M56.783,34.379c-7.915,0-14.447,6.523-14.447,14.429
			c0,7.904,6.407,14.428,14.447,14.428S71.23,56.712,71.23,48.808C71.23,40.902,64.698,34.379,56.783,34.379z"/>
	</g>
	<g>
		<rect x="49.119" y="48.18" fill="#4F4F4F" width="8.794" height="3.765"/>
	</g>
	<g>
		<rect x="56.154" y="37.517" fill="#4F4F4F" width="3.77" height="14.553"/>
	</g>
</g>
</svg>
