<?xml version="1.0" encoding="utf-8"?>
<!-- Generator: Adobe Illustrator 16.0.0, SVG Export Plug-In . SVG Version: 6.00 Build 0)  -->
<!DOCTYPE svg PUBLIC "-//W3C//DTD SVG 1.1//EN" "http://www.w3.org/Graphics/SVG/1.1/DTD/svg11.dtd">
<svg version="1.1" id="Layer_1" xmlns="http://www.w3.org/2000/svg" xmlns:xlink="http://www.w3.org/1999/xlink" x="0px" y="0px"
	 width="62px" height="75px" viewBox="0 0 62 75" enable-background="new 0 0 62 75" xml:space="preserve">
<g>
	<polygon fill="#759C3E" points="13.09,23.483 6.182,22.391 6.182,12.47 15.455,15.018 	"/>
	<polygon fill="#4B612C" points="13.545,24.757 0,25.94 0,15.564 6.182,12.47 	"/>
	<polygon fill="#4B612C" points="48.91,23.483 55.818,22.391 55.818,12.47 46.544,15.018 	"/>
	<polygon fill="#759C3E" points="48.456,24.757 62,25.94 62,15.564 55.818,12.47 	"/>
	<polygon fill="#4B612C" points="17.91,6.554 10.818,21.117 10.818,21.117 0,24.302 0,33.586 12.545,60.438 31,75 43.817,58.891 
		43.817,13.926 31,0 	"/>
	<polygon fill="#759C3E" points="62,33.586 62,24.302 51.182,21.117 51.182,21.117 44.092,6.554 31,0 31,15.018 31,59.98 31,75 
		49.454,60.438 	"/>
</g>
</svg>
