<?xml version="1.0" encoding="utf-8"?>
<!-- Generator: Adobe Illustrator 16.0.0, SVG Export Plug-In . SVG Version: 6.00 Build 0)  -->
<!DOCTYPE svg PUBLIC "-//W3C//DTD SVG 1.1//EN" "http://www.w3.org/Graphics/SVG/1.1/DTD/svg11.dtd">
<svg version="1.1" id="Layer_1" xmlns="http://www.w3.org/2000/svg" xmlns:xlink="http://www.w3.org/1999/xlink" x="0px" y="0px"
	 width="76px" height="43px" viewBox="0 0 76 43" enable-background="new 0 0 76 43" xml:space="preserve">
<g>
	<ellipse fill="#4B612C" cx="15.623" cy="22.839" rx="3.941" ry="3.947"/>
	<rect x="11.681" y="19.456" fill="#4B612C" width="7.882" height="3.525"/>
	<path fill="#4B612C" d="M0,3.525V43h76V3.525H0z M65.164,29.324H35.889c-2.392,5.217-7.6,8.74-13.652,8.74
		c-8.303,0-15.2-6.767-15.2-15.227c0-8.458,6.756-15.225,15.2-15.225c6.053,0,11.26,3.524,13.652,8.741h9.008l1.547,2.819
		l5.911-0.564l2.252,2.397l2.111,0.423l5.347-3.243l6.757,5.215L65.164,29.324z"/>
	<ellipse fill="#759C3E" cx="15.623" cy="19.456" rx="3.94" ry="3.947"/>
	<path fill="#759C3E" d="M0,0v39.475h76V0H0z M65.164,25.8H35.889c-2.392,5.216-7.6,8.741-13.652,8.741
		c-8.303,0-15.2-6.769-15.2-15.227s6.896-15.085,15.2-15.085c6.053,0,11.26,3.524,13.652,8.741h9.008l1.547,2.819l5.911-0.564
		l2.252,2.397l2.111,0.423l5.347-3.242l6.757,5.216L65.164,25.8z"/>
</g>
</svg>
