<?xml version="1.0" encoding="utf-8"?>
<!-- Generator: Adobe Illustrator 16.0.0, SVG Export Plug-In . SVG Version: 6.00 Build 0)  -->
<!DOCTYPE svg PUBLIC "-//W3C//DTD SVG 1.1//EN" "http://www.w3.org/Graphics/SVG/1.1/DTD/svg11.dtd">
<svg version="1.1" id="Layer_1" xmlns="http://www.w3.org/2000/svg" xmlns:xlink="http://www.w3.org/1999/xlink" x="0px" y="0px"
	 width="62px" height="75px" viewBox="0 0 62 75" enable-background="new 0 0 62 75" xml:space="preserve">
<g>
	<polygon fill="#4B612C" points="0,15.521 3.953,13.542 11.547,28.958 3.953,42.29 0,41.876 	"/>
	<polygon fill="#759C3E" points="11.547,15.313 3.953,13.542 3.953,42.29 11.547,41.979 	"/>
	<polygon fill="#4B612C" points="8.738,11.146 14.46,8.334 22.99,26.771 14.46,43.334 8.738,42.708 	"/>
	<polygon fill="#B7CA9D" points="62,50.73 31,46.771 0,50.73 31,75 	"/>
	<polygon fill="#4B612C" points="38.593,34.48 50.142,33.542 47.54,43.334 38.593,42.813 	"/>
	<polygon fill="#4B612C" points="51.909,34.792 60.856,34.792 58.047,42.29 51.909,41.979 	"/>
	<polygon fill="#759C3E" points="25.59,11.875 14.46,8.334 14.46,43.334 25.59,42.605 	"/>
	<polygon fill="#759C3E" points="62,50.73 31,59.999 31,75 62,59.479 	"/>
	<polygon fill="#4B612C" points="21.742,4.688 31,0 51.598,16.979 31,44.999 21.742,44.063 	"/>
	<polygon fill="#4B612C" points="0,50.73 31,59.999 31,75 0,59.479 	"/>
	<polygon fill="#759C3E" points="40.259,4.688 31,0 31,44.999 40.259,44.063 	"/>
	<polygon fill="#759C3E" points="58.047,20.625 62,21.979 62,41.876 58.047,42.29 	"/>
	<polygon fill="#759C3E" points="53.261,32.188 47.54,31.667 47.54,43.334 53.261,42.813 	"/>
	<polygon fill="#759C3E" points="31,0 62,15.521 62,37.5 31,37.5 	"/>
</g>
</svg>
