<?xml version="1.0" encoding="utf-8"?>
<!-- Generator: Adobe Illustrator 16.0.0, SVG Export Plug-In . SVG Version: 6.00 Build 0)  -->
<!DOCTYPE svg PUBLIC "-//W3C//DTD SVG 1.1//EN" "http://www.w3.org/Graphics/SVG/1.1/DTD/svg11.dtd">
<svg version="1.1" id="Layer_1" xmlns="http://www.w3.org/2000/svg" xmlns:xlink="http://www.w3.org/1999/xlink" x="0px" y="0px"
	 width="58px" height="76px" viewBox="0 0 58 76" enable-background="new 0 0 58 76" xml:space="preserve">
<g>
	<g>
		<path fill="#759C3E" d="M53.734,0C56.15,0,58,1.851,58,4.27v67.46c0,2.276-1.85,4.27-4.266,4.27H4.265C1.848,76,0,74.15,0,71.73
			V4.27C0,1.992,1.848,0,4.265,0H53.734L53.734,0z"/>
	</g>
	<g enable-background="new    ">
		<path fill="#FFFFFF" d="M20.755,59.492c-0.143-1.852-1.421-2.706-3.27-2.706c-1.564,0-2.985,0.57-2.985,2.277
			c0,1.709,2.131,1.852,4.265,2.419c2.132,0.428,4.265,1.283,4.265,3.844c0,2.847-2.844,3.984-5.259,3.984
			c-2.984,0-5.544-1.422-5.544-4.694h1.707c0,2.274,1.848,3.271,3.837,3.271c1.564,0,3.412-0.568,3.412-2.421
			c0-1.849-2.132-2.134-4.265-2.561c-2.131-0.427-4.265-1.139-4.265-3.559c0-2.704,2.417-3.842,4.833-3.842
			c2.7,0,4.833,1.28,4.976,4.269h-1.707V59.492z"/>
		<path fill="#FFFFFF" d="M28.147,57.071H23.74v-1.565h10.662v1.565h-4.408v11.812h-1.706V57.071H28.147z"/>
		<path fill="#FFFFFF" d="M43.501,59.492c-0.145-1.852-1.423-2.706-3.271-2.706c-1.565,0-2.985,0.57-2.985,2.277
			c0,1.709,2.133,1.852,4.265,2.419c2.13,0.428,4.265,1.283,4.265,3.844c0,2.847-2.844,3.984-5.26,3.984
			c-2.984,0-5.542-1.422-5.542-4.694h1.706c0,2.274,1.847,3.271,3.836,3.271c1.564,0,3.412-0.568,3.412-2.421
			c0-1.849-2.13-2.134-4.265-2.561c-2.132-0.427-4.266-1.139-4.266-3.559c0-2.704,2.418-3.842,4.834-3.842
			c2.7,0,4.833,1.28,4.977,4.269h-1.706V59.492z"/>
	</g>
	<g>
		<ellipse fill="#FFFFFF" cx="29" cy="25.048" rx="18.479" ry="18.501"/>
		<path fill="#4F4F4F" d="M29,45.687c-11.373,0-20.613-9.251-20.613-20.637c0-11.386,9.24-20.636,20.613-20.636
			c11.372,0,20.612,9.25,20.612,20.636C49.612,36.436,40.372,45.687,29,45.687z M29,8.682c-8.957,0-16.348,7.4-16.348,16.367
			c0,8.966,7.392,16.367,16.348,16.367c8.955,0,16.345-7.401,16.345-16.366C45.345,16.083,37.955,8.682,29,8.682z"/>
	</g>
	<g>
		<rect x="20.469" y="24.337" fill="#4F4F4F" width="9.952" height="4.27"/>
	</g>
	<g>
		<rect x="28.29" y="12.097" fill="#4F4F4F" width="4.265" height="16.509"/>
	</g>
</g>
</svg>
