<?xml version="1.0" encoding="utf-8"?>
<!-- Generator: Adobe Illustrator 16.0.0, SVG Export Plug-In . SVG Version: 6.00 Build 0)  -->
<!DOCTYPE svg PUBLIC "-//W3C//DTD SVG 1.1//EN" "http://www.w3.org/Graphics/SVG/1.1/DTD/svg11.dtd">
<svg version="1.1" id="Layer_1" xmlns="http://www.w3.org/2000/svg" xmlns:xlink="http://www.w3.org/1999/xlink" x="0px" y="0px"
	 width="75px" height="75px" viewBox="0 0 75 75" enable-background="new 0 0 75 75" xml:space="preserve">
<g>
	<circle fill="#D2D3D3" cx="37.5" cy="37.5" r="36.136"/>
	<path fill="#7D7C7C" d="M37.5,75C16.772,75,0,58.228,0,37.5S16.772,0,37.5,0S75,16.772,75,37.5S58.228,75,37.5,75z M37.5,2.727
		C18.272,2.727,2.727,18.272,2.727,37.5c0,19.227,15.545,34.772,34.773,34.772c19.227,0,34.772-15.546,34.772-34.772
		C72.272,18.272,56.727,2.727,37.5,2.727z"/>
</g>
<g enable-background="new    ">
	<path fill="#373737" d="M12.409,28.091h3.272l5.728,15.137l5.727-15.137h3.272v18h-2.318v-15l0,0l-5.591,15h-2.045l-5.591-15l0,0
		v15h-2.317v-18H12.409z"/>
</g>
<g enable-background="new    ">
	<path fill="#373737" d="M33.545,28.091h11.864v2.046H36v5.727h8.318v2.045H36v8.319h-2.455V28.091z"/>
</g>
<g enable-background="new    ">
	<path fill="#373737" d="M52.5,28.091h2.592l7.09,18h-2.591l-1.909-5.455h-7.636L48,46.091h-2.454L52.5,28.091z M50.591,38.728
		h6.136l-2.999-8.455l0,0L50.591,38.728z"/>
</g>
</svg>
