<?xml version="1.0" encoding="utf-8"?>
<!-- Generator: Adobe Illustrator 16.0.0, SVG Export Plug-In . SVG Version: 6.00 Build 0)  -->
<!DOCTYPE svg PUBLIC "-//W3C//DTD SVG 1.1//EN" "http://www.w3.org/Graphics/SVG/1.1/DTD/svg11.dtd">
<svg version="1.1"
	 id="svg2" xmlns:svg="http://www.w3.org/2000/svg" xmlns:dc="http://purl.org/dc/elements/1.1/" xmlns:cc="http://creativecommons.org/ns#" xmlns:rdf="http://www.w3.org/1999/02/22-rdf-syntax-ns#"
	 xmlns="http://www.w3.org/2000/svg" xmlns:xlink="http://www.w3.org/1999/xlink" x="0px" y="0px" width="240px" height="240px"
	 viewBox="0 0 240 240" enable-background="new 0 0 240 240" xml:space="preserve">
<g>
	<path fill="none" stroke="#000000" stroke-width="2" stroke-miterlimit="10" d="M239,200.931C239,221.987,221.985,239,200.904,239
		H39.094c-21.027,0-38.091-17.007-38.091-38.069V39.26c0-21.015,17.059-38.056,38.091-38.056h161.81
		C221.979,1.205,239,18.247,239,39.26V200.931z"/>
	<path fill="none" stroke="#EB1F26" stroke-miterlimit="10" stroke-dasharray="4,2.5" d="M239,200.74
		c0,21.018-17.044,38.053-38.082,38.053H39.08C18.055,238.793,1,221.762,1,200.74V39.044C1,18.037,18.052,1,39.08,1h161.838
		C221.952,1,239,18.037,239,39.044V200.74z"/>
</g>
</svg>
