<?xml version="1.0" encoding="utf-8"?>
<!-- Generator: Adobe Illustrator 16.0.0, SVG Export Plug-In . SVG Version: 6.00 Build 0)  -->
<!DOCTYPE svg PUBLIC "-//W3C//DTD SVG 1.1//EN" "http://www.w3.org/Graphics/SVG/1.1/DTD/svg11.dtd">
<svg version="1.1" id="Layer_1" xmlns="http://www.w3.org/2000/svg" xmlns:xlink="http://www.w3.org/1999/xlink" x="0px" y="0px"
	 width="62px" height="75px" viewBox="0 0 62 75" enable-background="new 0 0 62 75" xml:space="preserve">
<g>
	<polygon fill="#B7CA9D" points="0,41.869 4.727,41.688 8.909,42.051 4,59.98 	"/>
	<polygon fill="#4B612C" points="17.91,56.068 31,59.98 41.636,32.312 31,0 17.91,6.554 	"/>
	<polygon fill="#759C3E" points="44.092,56.068 31,59.98 31,0 44.092,6.554 	"/>
	<polygon fill="#4B612C" points="53.091,50.788 58.001,51.426 58.001,42.324 53.091,42.051 	"/>
	<polygon fill="#759C3E" points="8.909,50.788 4,51.426 4,42.324 8.909,42.051 	"/>
	<polygon fill="#B7CA9D" points="30.455,50.425 8.909,46.602 4,47.057 29.546,65.352 	"/>
	<polygon fill="#759C3E" points="58.001,42.324 62,41.869 62,59.436 58.001,56.614 	"/>
	<polygon fill="#B7CA9D" points="62,41.869 57.273,41.688 53.091,42.051 58.001,42.324 	"/>
	<polygon fill="#4B612C" points="0,46.236 31,52.52 31,75 0,59.436 	"/>
	<polygon fill="#4B612C" points="4,42.324 0,41.869 0,59.436 4,57.889 	"/>
	<polygon fill="#B7CA9D" points="31,50.516 31,70.813 58.001,47.057 53.091,46.602 	"/>
	<polygon fill="#B7CA9D" points="40.273,44.055 31,43.325 21.727,44.055 31,75 	"/>
	<polygon fill="#759C3E" points="62,46.236 31,52.52 31,75 62,59.436 	"/>
	<polygon fill="#759C3E" points="40.273,69.63 31,74.271 31,44.964 40.273,44.055 	"/>
	<polygon fill="#4B612C" points="21.727,66.262 31,75 31,44.964 21.727,44.055 	"/>
</g>
</svg>
