<?xml version="1.0" encoding="utf-8"?>
<!-- Generator: Adobe Illustrator 16.0.0, SVG Export Plug-In . SVG Version: 6.00 Build 0)  -->
<!DOCTYPE svg PUBLIC "-//W3C//DTD SVG 1.1//EN" "http://www.w3.org/Graphics/SVG/1.1/DTD/svg11.dtd">
<svg version="1.1"
	 id="图层_1" xmlns:dc="http://purl.org/dc/elements/1.1/" xmlns:cc="http://creativecommons.org/ns#" xmlns:rdf="http://www.w3.org/1999/02/22-rdf-syntax-ns#"
	 xmlns="http://www.w3.org/2000/svg" xmlns:xlink="http://www.w3.org/1999/xlink" x="0px" y="0px" width="69px" height="75px"
	 viewBox="0 0 69 75" enable-background="new 0 0 69 75" xml:space="preserve">
<path fill="#00BCF2" d="M0,0v55.715c0.004,1.627,0.724,2.104,2.156,2.143h12.938v-8.571h-6.47V8.571h10.782v10.715h8.625V0H0z
	 M32.344,8.571V15C45.221,17.61,44.79,25.647,45.281,34.286v4.284h10.782c1.75,0.548,4.001-0.313,4.312,4.287v6.429H32.344v8.571
	h34.499c1.603-0.004,2.153-0.784,2.157-2.143V42.857c-1.015-4.813-1.549-9.859-10.78-10.714h-6.472
	C50.993,13.095,41.916,10.349,32.344,8.571z M15.094,23.571v4.286H34.5v-4.286H15.094z M15.094,30v4.286H34.5V30H15.094z
	 M15.161,36.428v4.287h19.407v-4.287H15.161z M19.406,45v17.142h-8.624L23.72,75l12.936-12.858h-8.625V45H19.406L19.406,45z"/>
</svg>
