<?xml version="1.0" encoding="utf-8"?>
<!-- Generator: Adobe Illustrator 16.0.0, SVG Export Plug-In . SVG Version: 6.00 Build 0)  -->
<!DOCTYPE svg PUBLIC "-//W3C//DTD SVG 1.1//EN" "http://www.w3.org/Graphics/SVG/1.1/DTD/svg11.dtd">
<svg version="1.1"
	 id="svg2" xmlns:dc="http://purl.org/dc/elements/1.1/" xmlns:cc="http://creativecommons.org/ns#" xmlns:rdf="http://www.w3.org/1999/02/22-rdf-syntax-ns#" xmlns:svg="http://www.w3.org/2000/svg"
	 xmlns="http://www.w3.org/2000/svg" xmlns:xlink="http://www.w3.org/1999/xlink" x="0px" y="0px" width="75px" height="73px"
	 viewBox="0 0 75 73" enable-background="new 0 0 75 73" xml:space="preserve">
<g id="g12" transform="scale(0.1,0.1)">
	<path id="path22" fill="#5DB2E6" d="M668.721,64.5H0L80.513,0.583h668.706L668.721,64.5"/>
	<path id="path24" fill="#1D446D" d="M750,666.355l-82.617,63.643V64.06L750-0.002V666.355"/>
	<path id="path26" fill="none" stroke="#FFFFFF" stroke-width="4" d="M750,666.355l-82.617,63.643V64.06L750-0.002V666.355z"/>
	<path id="path28" fill="#4296D8" d="M0,729.997h668.721V64.06H0V729.997z"/>
	<path id="path30" fill="none" stroke="#FFFFFF" stroke-width="4" d="M0,729.997h668.721V64.06H0V729.997z"/>
	<path id="path32" fill="#100F0D" d="M336.191,381.911c0,2.734-2.129,4.463-4.482,4.463h-94.072c-2.539,0-4.668-1.729-4.668-4.463
		v-93.74c0-2.52,2.129-4.453,4.668-4.453h94.072c2.354,0,4.482,1.934,4.482,4.453V381.911"/>
	<path id="path34" fill="#100F0D" d="M457.871,381.238c0,2.031-1.465,3.506-3.115,3.506h-68.643c-1.631,0-3.125-1.475-3.125-3.506
		V313.23c0-1.826,1.494-3.301,3.125-3.301h68.643c1.65,0,3.115,1.475,3.115,3.301V381.238"/>
	<path id="path36" fill="#100F0D" d="M312.031,489.948c0,2.041-1.484,3.506-3.32,3.506h-68.457c-1.836,0-3.311-1.465-3.311-3.506
		V421.96c0-2.021,1.475-3.496,3.311-3.496h68.457c1.836,0,3.32,1.475,3.32,3.496V489.948"/>
	<path id="path38" fill="#100F0D" d="M448.389,507.527c0,2.607-1.621,4.229-3.848,4.229h-83.818c-2.207,0-4.043-1.621-4.043-4.229
		v-83.291c0-2.197,1.836-3.848,4.043-3.848h83.818c2.227,0,3.848,1.65,3.848,3.848V507.527"/>
	<path id="path40" fill="#100F0D" d="M255.566,182.644H124.175v291.992h61.421V243.621h69.971V182.644"/>
	<path id="path42" fill="#100F0D" d="M343.125,182.644v60.977h162.119V418.24h61.006V182.644H343.125"/>
	<path id="path44" fill="#100F0D" d="M505.244,505.241v56.807H124.175v60.771H566.25V505.241H505.244"/>
	<path id="path46" fill="#FFFFFF" d="M327.031,372.917c0,2.402-2.129,4.531-4.463,4.531h-94.092c-2.539,0-4.668-2.129-4.668-4.531
		V279.05c0-2.52,2.129-4.463,4.668-4.463h94.092c2.334,0,4.463,1.943,4.463,4.463V372.917"/>
	<path id="path48" fill="#FFFFFF" d="M448.916,372.214c0,1.719-1.465,3.213-3.506,3.213h-68.262c-1.816,0-3.301-1.494-3.301-3.213
		v-68.096c0-1.816,1.484-3.301,3.301-3.301h68.262c2.041,0,3.506,1.484,3.506,3.301V372.214"/>
	<path id="path50" fill="#FFFFFF" d="M302.871,481.052c0,1.602-1.494,3.076-3.32,3.076h-68.457c-1.836,0-3.311-1.475-3.311-3.076
		v-68.408c0-1.621,1.475-3.105,3.311-3.105h68.457c1.826,0,3.32,1.484,3.32,3.105V481.052"/>
	<path id="path52" fill="#FFFFFF" d="M439.434,498.601c0,2.236-2.041,3.828-4.258,3.828h-83.594c-2.236,0-4.063-1.592-4.063-3.828
		V415.31c0-2.217,1.826-4.238,4.063-4.238h83.594c2.217,0,4.258,2.021,4.258,4.238V498.601"/>
	<path id="path54" fill="#100F0D" d="M404.336,449.577c0,2.461-2.217,4.668-5.107,4.668H295.586c-2.656,0-4.893-2.207-4.893-4.668
		V346.101c0-2.852,2.236-5.068,4.893-5.068h103.643c2.891,0,5.107,2.217,5.107,5.068V449.577"/>
	<path id="path56" fill="#FFFFFF" d="M395.4,440.251c0,2.861-2.236,5.068-5.127,5.068H286.426c-2.666,0-5.098-2.207-5.098-5.068
		V336.98c0-2.842,2.432-5.078,5.098-5.078h103.848c2.891,0,5.127,2.236,5.127,5.078V440.251"/>
	<path id="path58" fill="none" stroke="#100F0D" stroke-width="2.5" d="M395.4,440.251c0,2.861-2.236,5.068-5.127,5.068H286.426
		c-2.666,0-5.098-2.207-5.098-5.068V336.98c0-2.842,2.432-5.078,5.098-5.078h103.848c2.891,0,5.127,2.236,5.127,5.078V440.251z"/>
	<path id="path60" fill="#FFFFFF" d="M246.426,173.523H115.029V465.71h61.406V234.5h69.99V173.523"/>
	<path id="path62" fill="#FFFFFF" d="M333.965,173.523V234.5h161.904v174.414h61.416v-235.39H333.965"/>
	<path id="path64" fill="#FFFFFF" d="M495.869,496.316v56.416h-380.84v61.182h442.256V496.316H495.869"/>
</g>
</svg>
