<?xml version="1.0" encoding="utf-8"?>
<!-- Generator: Adobe Illustrator 16.0.0, SVG Export Plug-In . SVG Version: 6.00 Build 0)  -->
<!DOCTYPE svg PUBLIC "-//W3C//DTD SVG 1.1//EN" "http://www.w3.org/Graphics/SVG/1.1/DTD/svg11.dtd">
<svg version="1.1"
	 id="svg2" xmlns:dc="http://purl.org/dc/elements/1.1/" xmlns:cc="http://creativecommons.org/ns#" xmlns:rdf="http://www.w3.org/1999/02/22-rdf-syntax-ns#" xmlns:svg="http://www.w3.org/2000/svg"
	 xmlns="http://www.w3.org/2000/svg" xmlns:xlink="http://www.w3.org/1999/xlink" x="0px" y="0px" width="80px" height="54px"
	 viewBox="0 0 80 54" enable-background="new 0 0 80 54" xml:space="preserve">
<g id="g12" transform="scale(0.1,0.1)">
	<path id="path22" fill="#20A3E4" d="M785.005,160.034c0,82.9-172.324,150.049-385.01,150.049
		C187.305,310.083,15,242.935,15,160.034v219.931c0,82.891,172.305,150.039,384.995,150.039c212.686,0,385.01-67.148,385.01-150.039
		V160.034"/>
	<path id="path24" fill="#20A3E4" d="M399.995,310.083c212.686,0,385.01-67.148,385.01-150.049
		C785.005,77.144,612.681,10,399.995,10C187.305,10,15,77.144,15,160.034C15,242.935,187.305,310.083,399.995,310.083"/>
	
		<path id="path26" fill="none" stroke="#AFDFF4" stroke-width="4.771" stroke-linecap="square" stroke-linejoin="bevel" stroke-miterlimit="10" d="
		M785.005,160.034c0,82.9-172.324,150.049-385.01,150.049C187.305,310.083,15,242.935,15,160.034v219.931
		c0,82.891,172.305,150.039,384.995,150.039c212.686,0,385.01-67.148,385.01-150.039V160.034z"/>
	
		<path id="path28" fill="none" stroke="#AFDFF4" stroke-width="4.771" stroke-linecap="square" stroke-linejoin="bevel" stroke-miterlimit="10" d="
		M399.995,310.083c212.686,0,385.01-67.148,385.01-150.049C785.005,77.144,612.681,10,399.995,10C187.305,10,15,77.144,15,160.034
		C15,242.935,187.305,310.083,399.995,310.083z"/>
	<path id="path30" fill="#FFFFFF" d="M312.056,101.465l31.855,47.661l-120.259,27.871l26.304-21.899L64.194,123.335l46.616-35.02
		l179.136,30.483L312.056,101.465"/>
	<path id="path32" fill="#FFFFFF" d="M481.216,217.29l-21.758-49.316l108.359-21.626l-18.77,16.919l180.879,30.918l-43.457,34.746
		l-179.648-33.857L481.216,217.29"/>
	<path id="path34" fill="#FFFFFF" d="M421.88,75.254l121.582-33.257l1.445,52.104L514.38,88.34l-59.316,49.321l-56.484-8.276
		l61.055-48.213L421.88,75.254"/>
	<path id="path36" fill="#FFFFFF" d="M369.907,262.173l-115.723,21.933l-4.258-53.72l33.184,7.217l63.77-54.375l56.191,9.492
		l-67.822,59.473L369.907,262.173"/>
	<path id="path38" fill="#1C7BA7" d="M228.813,340.122h345.645v152.246H228.813V340.122"/>
	<path id="path40" fill="none" stroke="#8ED0F2" stroke-width="7.157" stroke-linecap="square" stroke-miterlimit="10" d="
		M228.813,340.122h345.645v152.246H228.813V340.122z"/>
	<path id="path42" fill="#FFFFFF" d="M494.731,381.352h46.855v65.762h-46.855V381.352"/>
	<path id="path44" fill="none" stroke="#FFFFFF" stroke-width="2.386" stroke-linecap="square" stroke-miterlimit="10" d="
		M494.731,381.352h46.855v65.762h-46.855V381.352z"/>
	<path id="path46" fill="#FFFFFF" d="M541.587,350.512h14.609v12.168h-14.609V350.512"/>
	<path id="path48" fill="none" stroke="#FFFFFF" stroke-width="2.386" stroke-linecap="square" stroke-miterlimit="10" d="
		M541.587,350.512h14.609v12.168h-14.609V350.512z"/>
	<path id="path50" fill="#FFFFFF" d="M512.993,350.512h14.297v12.168h-14.297V350.512"/>
	<path id="path52" fill="none" stroke="#FFFFFF" stroke-width="2.386" stroke-linecap="square" stroke-miterlimit="10" d="
		M512.993,350.512h14.297v12.168h-14.297V350.512z"/>
	<path id="path54" fill="#FFFFFF" d="M484.38,350.512h14.297v12.168H484.38V350.512"/>
	<path id="path56" fill="none" stroke="#FFFFFF" stroke-width="2.386" stroke-linecap="square" stroke-miterlimit="10" d="
		M484.38,350.512h14.297v12.168H484.38V350.512z"/>
	<path id="path58" fill="#FFFFFF" d="M457.896,350.512h12.188v12.168h-12.188V350.512"/>
	<path id="path60" fill="none" stroke="#FFFFFF" stroke-width="2.386" stroke-linecap="square" stroke-miterlimit="10" d="
		M457.896,350.512h12.188v12.168h-12.188V350.512z"/>
	<path id="path62" fill="#FFFFFF" d="M429.282,350.512h12.188v12.168h-12.188V350.512"/>
	<path id="path64" fill="none" stroke="#FFFFFF" stroke-width="2.386" stroke-linecap="square" stroke-miterlimit="10" d="
		M429.282,350.512h12.188v12.168h-12.188V350.512z"/>
	<path id="path66" fill="#FFFFFF" d="M400.64,350.512h14.326v12.168H400.64V350.512"/>
	<path id="path68" fill="none" stroke="#FFFFFF" stroke-width="2.386" stroke-linecap="square" stroke-miterlimit="10" d="
		M400.64,350.512h14.326v12.168H400.64V350.512z"/>
	<path id="path70" fill="#FFFFFF" d="M371.86,350.512h14.297v12.168H371.86V350.512"/>
	<path id="path72" fill="none" stroke="#FFFFFF" stroke-width="2.386" stroke-linecap="square" stroke-miterlimit="10" d="
		M371.86,350.512h14.297v12.168H371.86V350.512z"/>
	<path id="path74" fill="#FFFFFF" d="M343.267,350.512h14.297v12.168h-14.297V350.512"/>
	<path id="path76" fill="none" stroke="#FFFFFF" stroke-width="2.386" stroke-linecap="square" stroke-miterlimit="10" d="
		M343.267,350.512h14.297v12.168h-14.297V350.512z"/>
	<path id="path78" fill="#FFFFFF" d="M314.634,350.512h14.316v12.168h-14.316V350.512"/>
	<path id="path80" fill="none" stroke="#FFFFFF" stroke-width="2.386" stroke-linecap="square" stroke-miterlimit="10" d="
		M314.634,350.512h14.316v12.168h-14.316V350.512z"/>
	<path id="path82" fill="#FFFFFF" d="M288.013,350.512h12.324v12.168h-12.324V350.512"/>
	<path id="path84" fill="none" stroke="#FFFFFF" stroke-width="2.386" stroke-linecap="square" stroke-miterlimit="10" d="
		M288.013,350.512h12.324v12.168h-12.324V350.512z"/>
	<path id="path86" fill="#FFFFFF" d="M259.419,350.512h12.324l1.973,12.168h-14.297V350.512"/>
	<path id="path88" fill="none" stroke="#FFFFFF" stroke-width="2.386" stroke-linecap="square" stroke-miterlimit="10" d="
		M259.419,350.512h12.324l1.973,12.168h-14.297V350.512z"/>
	<path id="path90" fill="#FFFFFF" d="M541.587,465.747h14.609v12.246h-14.609V465.747"/>
	<path id="path92" fill="none" stroke="#FFFFFF" stroke-width="2.386" stroke-linecap="square" stroke-miterlimit="10" d="
		M541.587,465.747h14.609v12.246h-14.609V465.747z"/>
	<path id="path94" fill="#FFFFFF" d="M512.993,465.747h14.297v12.246h-14.297V465.747"/>
	<path id="path96" fill="none" stroke="#FFFFFF" stroke-width="2.386" stroke-linecap="square" stroke-miterlimit="10" d="
		M512.993,465.747h14.297v12.246h-14.297V465.747z"/>
	<path id="path98" fill="#FFFFFF" d="M484.38,465.747h14.297v12.246H484.38V465.747"/>
	<path id="path100" fill="none" stroke="#FFFFFF" stroke-width="2.386" stroke-linecap="square" stroke-miterlimit="10" d="
		M484.38,465.747h14.297v12.246H484.38V465.747z"/>
	<path id="path102" fill="#FFFFFF" d="M457.896,465.747h12.188v12.246h-12.188V465.747"/>
	<path id="path104" fill="none" stroke="#FFFFFF" stroke-width="2.386" stroke-linecap="square" stroke-miterlimit="10" d="
		M457.896,465.747h12.188v12.246h-12.188V465.747z"/>
	<path id="path106" fill="#FFFFFF" d="M429.282,465.747h12.188v12.246h-12.188V465.747"/>
	<path id="path108" fill="none" stroke="#FFFFFF" stroke-width="2.386" stroke-linecap="square" stroke-miterlimit="10" d="
		M429.282,465.747h12.188v12.246h-12.188V465.747z"/>
	<path id="path110" fill="#FFFFFF" d="M400.64,465.747h14.326v12.246H400.64V465.747"/>
	<path id="path112" fill="none" stroke="#FFFFFF" stroke-width="2.386" stroke-linecap="square" stroke-miterlimit="10" d="
		M400.64,465.747h14.326v12.246H400.64V465.747z"/>
	<path id="path114" fill="#FFFFFF" d="M371.86,465.747h14.297v12.246H371.86V465.747"/>
	<path id="path116" fill="none" stroke="#FFFFFF" stroke-width="2.386" stroke-linecap="square" stroke-miterlimit="10" d="
		M371.86,465.747h14.297v12.246H371.86V465.747z"/>
	<path id="path118" fill="#FFFFFF" d="M343.267,465.747h14.297v12.246h-14.297V465.747"/>
	<path id="path120" fill="none" stroke="#FFFFFF" stroke-width="2.386" stroke-linecap="square" stroke-miterlimit="10" d="
		M343.267,465.747h14.297v12.246h-14.297V465.747z"/>
	<path id="path122" fill="#FFFFFF" d="M314.634,465.747h14.316v12.246h-14.316V465.747"/>
	<path id="path124" fill="none" stroke="#FFFFFF" stroke-width="2.386" stroke-linecap="square" stroke-miterlimit="10" d="
		M314.634,465.747h14.316v12.246h-14.316V465.747z"/>
	<path id="path126" fill="#FFFFFF" d="M288.013,465.747h12.324v12.246h-12.324V465.747"/>
	<path id="path128" fill="none" stroke="#FFFFFF" stroke-width="2.386" stroke-linecap="square" stroke-miterlimit="10" d="
		M288.013,465.747h12.324v12.246h-12.324V465.747z"/>
	<path id="path130" fill="#FFFFFF" d="M259.419,465.747h14.297v12.246h-14.297V465.747"/>
	<path id="path132" fill="none" stroke="#FFFFFF" stroke-width="2.386" stroke-linecap="square" stroke-miterlimit="10" d="
		M259.419,465.747h14.297v12.246h-14.297V465.747z"/>
	<path id="path134" fill="#FFFFFF" d="M418.931,381.352h47.188v65.762h-47.188V381.352"/>
	<path id="path136" fill="none" stroke="#FFFFFF" stroke-width="2.386" stroke-linecap="square" stroke-miterlimit="10" d="
		M418.931,381.352h47.188v65.762h-47.188V381.352z"/>
	<path id="path138" fill="#FFFFFF" d="M343.267,381.352h47.021v65.762h-47.021V381.352"/>
	<path id="path140" fill="none" stroke="#FFFFFF" stroke-width="2.386" stroke-linecap="square" stroke-miterlimit="10" d="
		M343.267,381.352h47.021v65.762h-47.021V381.352z"/>
	<path id="path142" fill="#FFFFFF" d="M269.614,381.352h45.02v65.762h-45.02V381.352"/>
	<path id="path144" fill="none" stroke="#FFFFFF" stroke-width="2.386" stroke-linecap="square" stroke-miterlimit="10" d="
		M269.614,381.352h45.02v65.762h-45.02V381.352z"/>
</g>
</svg>
