<?xml version="1.0" encoding="utf-8"?>
<!-- Generator: Adobe Illustrator 16.0.0, SVG Export Plug-In . SVG Version: 6.00 Build 0)  -->
<!DOCTYPE svg PUBLIC "-//W3C//DTD SVG 1.1//EN" "http://www.w3.org/Graphics/SVG/1.1/DTD/svg11.dtd">
<svg version="1.1"
	 id="svg2" xmlns:dc="http://purl.org/dc/elements/1.1/" xmlns:cc="http://creativecommons.org/ns#" xmlns:rdf="http://www.w3.org/1999/02/22-rdf-syntax-ns#" xmlns:svg="http://www.w3.org/2000/svg"
	 xmlns="http://www.w3.org/2000/svg" xmlns:xlink="http://www.w3.org/1999/xlink" x="0px" y="0px" width="61px" height="77px"
	 viewBox="0 0 61 77" enable-background="new 0 0 61 77" xml:space="preserve">
<g id="g10" transform="matrix(1.25,0,0,-1.25,0,39.675)">
	<g id="g12" transform="scale(0.1,0.1)">
		<path id="path22" fill="#087BBB" d="M486.816,317.4l-54.695-61.934H0.004L70.875,317.4H486.816"/>
		<path id="path24" fill="none" stroke="#FFFFFF" stroke-width="4" d="M486.816,317.4l-54.695-61.934H0.004L70.875,317.4H486.816z"
			/>
		<path id="path26" fill="#087BBB" d="M432.121,255.466V40.607l54.648,57.508v215.023L432.121,255.466"/>
		<path id="path28" fill="none" stroke="#FFFFFF" stroke-width="4" d="M432.121,255.466V40.607l54.648,57.508v215.023
			L432.121,255.466z"/>
		<path id="path30" fill="#087BBB" d="M0.004-298.596h432.117v342.57H0.004V-298.596z"/>
		<path id="path32" fill="none" stroke="#FFFFFF" stroke-width="4" d="M432.121-298.596V43.99H0.004v-342.586"/>
		<path id="path34" fill="#087BBB" d="M0.004,43.154h432.117v212.313H0.004V43.154z"/>
		<path id="path36" fill="none" stroke="#FFFFFF" stroke-width="4" d="M0.004,43.154h432.117v212.313H0.004V43.154z"/>
		<path id="path38" fill="#087BBB" d="M486.77-240.956v341.211l-54.648-57.5v-341.352L486.77-240.956"/>
		<path id="path40" fill="none" stroke="#FFFFFF" stroke-width="4" d="M486.77-240.956v341.211l-54.648-57.5v-341.352
			L486.77-240.956z"/>
		<path id="path42" fill="#FFFFFF" d="M223.23-167.401v-74.68h12.641l-18.656-28.234l-18.828,28.234h12.797v74.68H223.23"/>
		<path id="path44" fill="#FFFFFF" d="M185.082-156.573l-52.867-52.914l9.008-8.992l-33.121-6.672l6.656,33.148l8.992-8.688
			l52.855,52.609L185.082-156.573"/>
		<path id="path46" fill="#FFFFFF" d="M165.809-121.823H91.031v-12.656l-28.227,18.68l28.227,18.711v-12.68h74.777V-121.823"/>
		<path id="path48" fill="#FFFFFF" d="M176.605-83.776L123.75-30.885l-8.992-8.992l-6.656,33.141l33.121-6.672l-9.008-9
			l52.867-52.891L176.605-83.776"/>
		<path id="path50" fill="#FFFFFF" d="M211.184-90.51V53.685h-12.797l18.828,28.25l18.656-28.25H223.23V-90.51H211.184"/>
		<path id="path52" fill="#FFFFFF" d="M249.293-75.299l52.906,52.891l-8.984,9l33.117,6.672l-6.664-33.141l-8.992,8.992
			l-52.875-52.891L249.293-75.299"/>
		<path id="path54" fill="#FFFFFF" d="M268.621-109.768h74.625v12.68l28.219-18.711l-28.219-18.68v12.656h-74.625V-109.768"/>
		<path id="path56" fill="#FFFFFF" d="M257.801-148.081l52.875-52.609l8.992,8.688l6.664-33.148l-33.117,6.672l8.984,8.992
			l-52.906,52.914L257.801-148.081"/>
		<path id="path58" fill="#FFFFFF" d="M262.77-53.19c35.219-24.578,43.688-72.789,19.102-107.734
			c-24.57-34.953-72.75-43.742-107.664-19.141c-35.086,24.602-43.543,72.813-19.117,107.758
			C179.66-37.042,227.824-28.581,262.77-53.19"/>
		<path id="path60" fill="#FFFFFF" d="M212.488,186.931h113.828v11.355l37.25-22.574l-37.25-23.176v11.191H212.488V186.931"/>
		<path id="path62" fill="#FFFFFF" d="M212.488,116.185h113.828v11.359l37.25-22.734l-37.25-23.188v11.375H212.488V116.185"/>
		<path id="path64" fill="#FFFFFF" d="M215.113,220.857H101.289v11.363l-37.258-22.734l37.258-23.168v11.355h113.824V220.857"/>
		<path id="path66" fill="#FFFFFF" d="M215.113,150.13H101.289v11.191l-37.258-22.574l37.258-23.172v11.195h113.824V150.13"/>
		<path id="path68" fill="none" stroke="#FFFFFF" stroke-width="4" stroke-linecap="round" stroke-linejoin="round" d="
			M429.871-297.924H2.293"/>
		<path id="path70" fill="none" stroke="#FFFFFF" stroke-width="4" stroke-linecap="round" stroke-linejoin="round" d="
			M488.004,316.423l-54.578-59.734"/>
		<path id="path72" fill="none" stroke="#FFFFFF" stroke-width="4" stroke-linecap="round" stroke-linejoin="round" d="
			M429.871,42.857H2.293"/>
		<path id="path74" fill="none" stroke="#FFFFFF" stroke-width="4" stroke-linecap="round" stroke-linejoin="round" d="
			M485.066,97.529l-50.039-52.578"/>
	</g>
</g>
</svg>
