<?xml version="1.0" encoding="utf-8"?>
<!-- Generator: Adobe Illustrator 16.0.0, SVG Export Plug-In . SVG Version: 6.00 Build 0)  -->
<!DOCTYPE svg PUBLIC "-//W3C//DTD SVG 1.1//EN" "http://www.w3.org/Graphics/SVG/1.1/DTD/svg11.dtd">
<svg version="1.1"
	 id="svg2" xmlns:dc="http://purl.org/dc/elements/1.1/" xmlns:cc="http://creativecommons.org/ns#" xmlns:rdf="http://www.w3.org/1999/02/22-rdf-syntax-ns#" xmlns:svg="http://www.w3.org/2000/svg"
	 xmlns="http://www.w3.org/2000/svg" xmlns:xlink="http://www.w3.org/1999/xlink" x="0px" y="0px" width="77px" height="51px"
	 viewBox="0 0 77 51" enable-background="new 0 0 77 51" xml:space="preserve">
<g id="g12" transform="scale(0.1,0.1)">
	<path id="path14" fill="#087BBB" d="M0,510h682.632V87.129H0V510z"/>
	<path id="path16" fill="none" stroke="#FFFFFF" stroke-width="4.6" d="M0,510h682.632V87.129H0V510z"/>
	<path id="path18" fill="#087BBB" d="M681.128,86.523H0.439L107.246,1.328h662.007v420.068l-87.207,88.135V89.063L681.128,86.523"/>
	<path id="path20" fill="none" stroke="#FFFFFF" stroke-width="4.6" d="M681.128,86.523H0.439L107.246,1.328h662.007v420.068
		l-87.207,88.135V89.063L681.128,86.523z"/>
	<path id="path22" d="M681.89,85.781L769.995,0"/>
	<path id="path24" fill="none" stroke="#FFFFFF" stroke-width="4.6" d="M681.89,85.781L769.995,0"/>
	<path id="path26" fill="#FFFFFF" d="M174.434,271.406v52.158"/>
	<path id="path28" fill="#FFFFFF" d="M101.133,471.006h79.634l87.393-89.482h84.473l87.91,87.979h151.797v-62.295H476.128
		l-89.648-89.717H271.558l-88.018-88.34l-83.828-0.049v-11.338l-33.989,34.17l32.847,33.037v-12.646h69.077l-0.645,57.842h-65.869
		v-11.348l-34.155,34.014l33.013,33.037v-12.637l67.012-0.107v54.805h-65.869v-11.328l-34.155,34.004l33.013,33.047v-12.646"/>
	<path id="path30" fill="#FFFFFF" d="M577.69,120.244h-79.316l-87.715,89.316h-84.316l-87.891-87.783H86.797v62.109h115.884
		l89.814,89.873h114.922l88.008,88.164l83.672,0.059v11.367l34.336-34.023l-33.027-33.057v12.646h-69.082l0.645-57.832h65.723
		v11.367l34.297-34.023l-33.008-33.047v12.461l-67.012,0.293v-54.658h65.723v11.357l34.297-34.189l-33.008-33.037v12.637"/>
</g>
</svg>
