<?xml version="1.0" encoding="utf-8"?>
<!-- Generator: Adobe Illustrator 16.0.0, SVG Export Plug-In . SVG Version: 6.00 Build 0)  -->
<!DOCTYPE svg PUBLIC "-//W3C//DTD SVG 1.1//EN" "http://www.w3.org/Graphics/SVG/1.1/DTD/svg11.dtd">
<svg version="1.1"
	 id="图层_1" xmlns:dc="http://purl.org/dc/elements/1.1/" xmlns:cc="http://creativecommons.org/ns#" xmlns:rdf="http://www.w3.org/1999/02/22-rdf-syntax-ns#"
	 xmlns="http://www.w3.org/2000/svg" xmlns:xlink="http://www.w3.org/1999/xlink" x="0px" y="0px" width="77px" height="28px"
	 viewBox="0 0 77 28" enable-background="new 0 0 77 28" xml:space="preserve">
<path fill="#00BCF2" d="M12.072,27.89c-1.647-0.222-3.86-1-5.308-1.865c-3.059-1.828-5.291-4.713-6.35-8.21
	C0.04,16.574,0.002,16.229,0,14.022c0-2.856,0.244-4.007,1.339-6.218c1.724-3.49,4.905-6.178,8.618-7.287
	c1.836-0.548,4.724-0.681,6.585-0.303c4.466,0.907,8.237,3.947,10.122,8.158l0.525,1.176h24.907H77v4.473v4.476H52.052
	c-23.624,0-24.952,0.014-25.036,0.265c-0.777,2.3-2.589,4.76-4.656,6.322C19.406,27.312,15.571,28.358,12.072,27.89L12.072,27.89z"
	/>
</svg>
