<?xml version="1.0" encoding="utf-8"?>
<!-- Generator: Adobe Illustrator 16.0.0, SVG Export Plug-In . SVG Version: 6.00 Build 0)  -->
<!DOCTYPE svg PUBLIC "-//W3C//DTD SVG 1.1//EN" "http://www.w3.org/Graphics/SVG/1.1/DTD/svg11.dtd">
<svg version="1.1"
	 id="图层_1" xmlns:dc="http://purl.org/dc/elements/1.1/" xmlns:cc="http://creativecommons.org/ns#" xmlns:rdf="http://www.w3.org/1999/02/22-rdf-syntax-ns#"
	 xmlns="http://www.w3.org/2000/svg" xmlns:xlink="http://www.w3.org/1999/xlink" x="0px" y="0px" width="75px" height="75px"
	 viewBox="0 0 75 75" enable-background="new 0 0 75 75" xml:space="preserve">
<path fill="#00BCF2" d="M2.634,74.877c-0.519-0.207-1.155-0.844-1.488-1.49c-0.273-0.531-0.282-0.912-0.244-9.943l0.04-9.391
	l0.414-0.626c0.287-0.433,0.649-0.734,1.177-0.981l0.763-0.354l34.151-0.001c25.144-0.001,34.284,0.042,34.652,0.165
	c0.751,0.253,1.424,0.813,1.755,1.461c0.29,0.566,0.295,0.81,0.256,10.045l-0.039,9.464l-0.354,0.518
	c-0.196,0.285-0.588,0.676-0.872,0.872l-0.518,0.354l-34.663,0.027C14.898,75.015,2.876,74.974,2.634,74.877L2.634,74.877z
	 M8.23,71.768c1.135-0.573,1.675-1.777,1.324-2.949c-0.354-1.184-1.676-2.011-2.858-1.789c-2.444,0.458-2.869,3.767-0.615,4.79
	C6.877,72.182,7.438,72.168,8.23,71.768z M69.206,70.838c0.331-0.332,0.285-0.892-0.096-1.158c-0.287-0.2-1.272-0.229-7.766-0.229
	c-8.09,0-8.094,0-8.094,0.811c0,0.81-0.005,0.809,8.188,0.809C68.093,71.069,69.001,71.042,69.206,70.838L69.206,70.838z
	 M69.26,67.95c0.097-0.098,0.176-0.35,0.176-0.56c0-0.211-0.079-0.462-0.176-0.56c-0.233-0.233-15.293-0.256-15.725-0.023
	c-0.322,0.173-0.389,0.862-0.108,1.143c0.133,0.132,2.093,0.176,7.917,0.176C67.167,68.126,69.126,68.082,69.26,67.95L69.26,67.95z
	 M69.152,65.179c0.322-0.173,0.387-0.863,0.108-1.143c-0.134-0.134-2.093-0.178-7.916-0.178c-5.824,0-7.784,0.044-7.917,0.178
	c-0.246,0.247-0.22,0.788,0.055,1.063c0.205,0.203,1.116,0.23,7.808,0.23C66.233,65.33,68.965,65.277,69.152,65.179z M2.561,48.754
	c-0.684-0.361-1.117-0.806-1.414-1.448c-0.254-0.552-0.271-1.154-0.271-9.785c0-8.63,0.017-9.233,0.271-9.785
	c0.329-0.712,0.795-1.161,1.521-1.464c0.487-0.204,4.218-0.228,34.838-0.228c30.62,0,34.353,0.024,34.839,0.228
	c0.694,0.291,1.165,0.731,1.523,1.428c0.271,0.53,0.28,0.923,0.242,10.032c-0.039,9.317-0.045,9.486-0.343,9.887
	c-0.167,0.224-0.555,0.608-0.86,0.855l-0.557,0.45l-34.674,0.031C6.273,48.984,2.961,48.966,2.561,48.754L2.561,48.754z
	 M8.446,45.626c1.381-0.778,1.612-2.771,0.457-3.926c-1.604-1.604-4.271-0.492-4.271,1.78C4.631,45.465,6.685,46.62,8.446,45.626
	L8.446,45.626z M69.26,44.701c0.247-0.247,0.22-0.789-0.055-1.063c-0.204-0.204-1.112-0.231-7.767-0.231
	c-6.58,0-7.576,0.029-7.86,0.229c-0.356,0.249-0.432,0.784-0.151,1.065c0.133,0.134,2.093,0.178,7.917,0.178
	C67.167,44.879,69.126,44.835,69.26,44.701L69.26,44.701z M69.26,41.905c0.097-0.097,0.176-0.348,0.176-0.559
	s-0.079-0.462-0.176-0.56c-0.134-0.133-2.093-0.177-7.916-0.177c-5.824,0-7.784,0.044-7.917,0.177
	c-0.097,0.098-0.177,0.349-0.177,0.56s0.08,0.462,0.177,0.559c0.133,0.134,2.093,0.178,7.917,0.178
	C67.167,42.083,69.126,42.039,69.26,41.905z M69.292,38.992c0.239-0.377,0.159-0.856-0.182-1.096
	c-0.287-0.199-1.272-0.229-7.766-0.229c-6.496,0-7.481,0.029-7.766,0.229c-0.423,0.296-0.421,0.865,0.004,1.165
	c0.293,0.205,1.201,0.228,7.951,0.192C68.117,39.218,69.172,39.183,69.292,38.992L69.292,38.992z M2.561,22.675
	c-0.712-0.329-1.161-0.794-1.465-1.521c-0.197-0.472-0.227-1.766-0.224-9.709C0.875,2.85,0.893,2.244,1.147,1.692
	C1.476,0.98,1.942,0.531,2.668,0.228C3.156,0.024,6.887,0,37.506,0c30.62,0,34.353,0.024,34.839,0.228
	c0.694,0.29,1.165,0.732,1.523,1.428c0.271,0.53,0.28,0.923,0.242,10.029l-0.039,9.477l-0.45,0.565
	c-0.248,0.311-0.742,0.714-1.099,0.896l-0.647,0.331L37.512,22.95C4.418,22.947,3.128,22.937,2.561,22.675L2.561,22.675z
	 M8.623,19.438c0.619-0.448,1.077-1.321,1.071-2.042c-0.005-0.601-0.483-1.54-1.01-1.983c-1.161-0.978-3.065-0.568-3.796,0.817
	c-0.388,0.736-0.332,1.865,0.129,2.561c0.492,0.743,1.154,1.066,2.194,1.071C7.89,19.864,8.139,19.789,8.623,19.438L8.623,19.438z
	 M69.26,18.657c0.278-0.28,0.214-0.97-0.108-1.143c-0.187-0.099-2.919-0.153-7.862-0.153c-6.691,0-7.603,0.027-7.808,0.231
	c-0.274,0.274-0.303,0.816-0.055,1.064C53.683,18.912,69.005,18.912,69.26,18.657z M69.152,15.886
	c0.322-0.173,0.387-0.863,0.108-1.143c-0.255-0.254-15.577-0.254-15.833,0c-0.248,0.248-0.22,0.79,0.055,1.063
	c0.205,0.205,1.116,0.231,7.808,0.231C66.233,16.038,68.965,15.985,69.152,15.886z M69.26,12.919c0.247-0.248,0.22-0.79-0.055-1.064
	c-0.204-0.204-1.112-0.231-7.767-0.231c-6.58,0-7.576,0.029-7.86,0.229c-0.356,0.249-0.432,0.785-0.151,1.066
	C53.683,13.173,69.005,13.173,69.26,12.919L69.26,12.919z"/>
</svg>
