<?xml version="1.0" encoding="utf-8"?>
<!-- Generator: Adobe Illustrator 16.0.0, SVG Export Plug-In . SVG Version: 6.00 Build 0)  -->
<!DOCTYPE svg PUBLIC "-//W3C//DTD SVG 1.1//EN" "http://www.w3.org/Graphics/SVG/1.1/DTD/svg11.dtd">
<svg version="1.1"
	 id="图层_1" xmlns:dc="http://purl.org/dc/elements/1.1/" xmlns:cc="http://creativecommons.org/ns#" xmlns:rdf="http://www.w3.org/1999/02/22-rdf-syntax-ns#"
	 xmlns="http://www.w3.org/2000/svg" xmlns:xlink="http://www.w3.org/1999/xlink" x="0px" y="0px" width="76px" height="24px"
	 viewBox="0 0 76 24" enable-background="new 0 0 76 24" xml:space="preserve">
<path fill="#00BCF2" d="M1.691,23.722c-0.731-0.334-1.349-1.041-1.564-1.788c-0.11-0.379-0.146-3.639-0.117-10.245l0.047-9.691
	l0.425-0.618c0.266-0.389,0.711-0.764,1.185-1L2.423,0H38h35.573l0.787,0.394c0.514,0.256,0.922,0.603,1.185,1.001l0.399,0.607
	l0.046,9.689c0.029,6.607-0.006,9.864-0.117,10.243c-0.218,0.748-0.831,1.454-1.563,1.788C73.729,23.986,72.323,24,38,24
	C3.676,23.998,2.268,23.984,1.691,23.722L1.691,23.722z M7.95,20.389c1.541-1.047,1.459-3.533-0.145-4.442
	c-1.992-1.137-4.312,0.581-3.882,2.873c0.116,0.634,0.86,1.54,1.497,1.832C6.085,20.955,7.307,20.827,7.95,20.389L7.95,20.389z
	 M70.813,19.645c0.201-0.104,0.289-0.313,0.289-0.669c0-0.353-0.088-0.562-0.289-0.671c-0.188-0.1-2.998-0.155-8.098-0.155
	c-8.481,0-8.354-0.012-8.354,0.827c0,0.843-0.127,0.83,8.354,0.83C67.815,19.803,70.625,19.75,70.813,19.645z M70.813,16.645
	c0.176-0.096,0.288-0.311,0.287-0.56c-0.006-0.902,0.438-0.856-8.234-0.898c-8.661-0.048-8.505-0.062-8.505,0.788
	c0,0.839-0.127,0.825,8.354,0.825C67.815,16.8,70.625,16.751,70.813,16.645L70.813,16.645z M70.813,13.646
	c0.409-0.223,0.381-0.963-0.046-1.263c-0.283-0.203-1.293-0.233-7.965-0.233c-4.306,0-7.794,0.063-8,0.14
	c-0.459,0.178-0.608,0.728-0.317,1.172l0.222,0.337h7.912C67.782,13.799,70.625,13.744,70.813,13.646L70.813,13.646z"/>
</svg>
