<?xml version="1.0" encoding="utf-8"?>
<!-- Generator: Adobe Illustrator 16.0.0, SVG Export Plug-In . SVG Version: 6.00 Build 0)  -->
<!DOCTYPE svg PUBLIC "-//W3C//DTD SVG 1.1//EN" "http://www.w3.org/Graphics/SVG/1.1/DTD/svg11.dtd">
<svg version="1.1"
	 id="图层_1" xmlns:dc="http://purl.org/dc/elements/1.1/" xmlns:cc="http://creativecommons.org/ns#" xmlns:rdf="http://www.w3.org/1999/02/22-rdf-syntax-ns#"
	 xmlns="http://www.w3.org/2000/svg" xmlns:xlink="http://www.w3.org/1999/xlink" x="0px" y="0px" width="75px" height="75px"
	 viewBox="0 0 75 75" enable-background="new 0 0 75 75" xml:space="preserve">
<path fill="#00BCF2" d="M37.323,0c-6.561,0-11.879,5.319-11.879,11.879v0.001c0.005,1.197,0.19,2.386,0.549,3.526l-7.483,6.247
	c-1.94-1.283-4.214-1.97-6.541-1.972c-6.561,0-11.879,5.319-11.879,11.881l0,0c0.007,5.78,4.174,10.718,9.872,11.694l3.056,10.938
	c-2.577,2.251-4.056,5.504-4.062,8.925C8.955,69.68,14.273,75,20.833,75c0,0,0,0,0,0c5.052-0.007,9.547-3.207,11.206-7.979h11.394
	c1.761,4.592,6.17,7.624,11.088,7.624c6.561,0,11.878-5.318,11.879-11.878c-0.004-3.616-1.654-7.032-4.484-9.283l2.845-10.182
	c5.826-0.856,10.145-5.853,10.15-11.74c0-6.562-5.318-11.88-11.878-11.881l0,0c-2.336,0.002-4.618,0.694-6.563,1.986l-7.748-6.47
	c0.316-1.078,0.479-2.193,0.48-3.317c0-6.56-5.318-11.879-11.879-11.879l0,0V0z M45.169,20.779l7.053,5.885
	c-0.701,1.537-1.065,3.207-1.07,4.897c0.005,4.688,2.765,8.934,7.048,10.84l-2.392,8.559c-0.427-0.047-0.856-0.073-1.287-0.074
	c-5.671,0.003-10.549,4.012-11.65,9.575H32.397c-1.238-5.392-6.033-9.213-11.563-9.22c-0.6,0.003-1.198,0.052-1.791,0.145
	l-2.481-8.883c4.41-1.849,7.281-6.16,7.286-10.941c-0.005-1.698-0.374-3.375-1.082-4.917l6.854-5.723
	c2.149,1.83,4.879,2.836,7.701,2.838C40.214,23.753,43.004,22.694,45.169,20.779L45.169,20.779z"/>
</svg>
