<?xml version="1.0" encoding="utf-8"?>
<!-- Generator: Adobe Illustrator 16.0.0, SVG Export Plug-In . SVG Version: 6.00 Build 0)  -->
<!DOCTYPE svg PUBLIC "-//W3C//DTD SVG 1.1//EN" "http://www.w3.org/Graphics/SVG/1.1/DTD/svg11.dtd">
<svg version="1.1"
	 id="图层_1" xmlns:dc="http://purl.org/dc/elements/1.1/" xmlns:cc="http://creativecommons.org/ns#" xmlns:rdf="http://www.w3.org/1999/02/22-rdf-syntax-ns#"
	 xmlns="http://www.w3.org/2000/svg" xmlns:xlink="http://www.w3.org/1999/xlink" x="0px" y="0px" width="66px" height="75px"
	 viewBox="0 0 66 75" enable-background="new 0 0 66 75" xml:space="preserve">
<path fill="#00BCF2" d="M21.968,67.83l-5.632-7.172l3.693-0.039l3.694-0.039v-9.229v-9.229l3.865-5.64l3.864-5.64l0.037,14.87
	l0.038,14.87h3.754c2.066,0,3.758,0.05,3.758,0.111C39.039,60.814,27.744,75,27.649,75c-0.029,0-2.588-3.227-5.686-7.171
	L21.968,67.83z M2.389,57.917c-0.627-0.181-1.644-1.194-2.063-2.062L0,55.182l0.043-26.755C0.077,7.056,0.125,1.56,0.277,1.113
	c0.118-0.349,0.366-0.668,0.658-0.847c0.459-0.281,0.8-0.287,14.539-0.25l14.07,0.038L30.2,0.422
	c0.361,0.203,0.809,0.593,0.994,0.868l0.338,0.5v13.658v13.659h-3.904h-3.904V15.642c0-14.722,0.038-14.054-0.871-14.819
	c-0.449-0.377-1.583-0.795-1.737-0.641c-0.041,0.041-0.111,7.161-0.155,15.823l-0.082,15.749h2.891h2.889l-4.753,6.067
	c-2.614,3.337-4.816,6.065-4.892,6.063c-0.076,0-2.104-2.717-4.507-6.031L8.14,31.827l2.563-0.039l2.563-0.041V19.835V7.924h-2.724
	H7.817L7.779,18.478L7.741,29.032l-2.099,0.041l-2.1,0.041v0.72c0,0.396-0.034,0.807-0.076,0.915
	c-0.041,0.108,0.92,1.917,2.134,4.021l2.21,3.826l0.001,5.772l0.001,5.772h6.628h6.63v3.971v3.973l-9.097-0.014
	C6.662,58.061,2.674,58,2.389,57.917L2.389,57.917z M34.478,54.111v-3.971h12.005h12.007v-2.979c0-2.973-0.001-2.98-0.423-3.861
	c-0.718-1.506-2.181-2.662-4.436-3.505c-0.753-0.282-1.197-0.31-5.878-0.36l-5.063-0.055l0.1-1.864
	c0.056-1.025,0.028-2.791-0.057-3.924c-0.567-7.45-2.997-12.67-7.333-15.77l-0.922-0.658v-4.324V8.516l0.771,0.303
	c2.397,0.937,5.114,2.688,7.129,4.593c4.229,3.996,6.674,9.378,7.267,15.988c0.083,0.931,0.151,1.808,0.153,1.949
	c0,0.23,0.178,0.257,1.684,0.257c4.116,0,7.561,1.52,10.534,4.645c2.232,2.345,3.503,4.976,3.836,7.933
	c0.206,1.846,0.195,10.883-0.018,11.871c-0.205,0.961-0.845,1.62-1.802,1.861c-0.476,0.119-4.806,0.167-15.111,0.167H34.478V54.111
	L34.478,54.111z"/>
</svg>
