<?xml version="1.0" encoding="utf-8"?>
<!-- Generator: Adobe Illustrator 16.0.0, SVG Export Plug-In . SVG Version: 6.00 Build 0)  -->
<!DOCTYPE svg PUBLIC "-//W3C//DTD SVG 1.1//EN" "http://www.w3.org/Graphics/SVG/1.1/DTD/svg11.dtd">
<svg version="1.1"
	 id="svg2" xmlns:dc="http://purl.org/dc/elements/1.1/" xmlns:cc="http://creativecommons.org/ns#" xmlns:rdf="http://www.w3.org/1999/02/22-rdf-syntax-ns#" xmlns:svg="http://www.w3.org/2000/svg"
	 xmlns="http://www.w3.org/2000/svg" xmlns:xlink="http://www.w3.org/1999/xlink" x="0px" y="0px" width="76px" height="78px"
	 viewBox="0 0 76 78" enable-background="new 0 0 76 78" xml:space="preserve">
<g id="g12" transform="scale(0.1,0.1)">
	<path id="path14" fill="#1582BA" d="M10.002,765.002h612.939V139.578H10.002V765.002z"/>
	<path id="path16" fill="none" stroke="#FFFFFF" stroke-width="4" d="M10.002,765.002h612.939V139.578H10.002V765.002z"/>
	<path id="path18" fill="#1582BA" d="M622.942,139.578H10.53L165.54,15.002h584.463V636.74L622.942,764.856V139.578"/>
	<path id="path20" fill="none" stroke="#FFFFFF" stroke-width="4" d="M622.942,139.578H10.53L165.54,15.002h584.463V636.74
		L622.942,764.856V139.578z"/>
	<path id="path22" fill="#1582BA" d="M622.942,139.578L750.002,15.002"/>
	<path id="path24" fill="none" stroke="#FFFFFF" stroke-width="4" d="M622.942,139.578L750.002,15.002"/>
	<path id="path26" fill="#1582BA" d="M95.022,301.301h495.449"/>
	<path id="path28" fill="none" stroke="#FFFFFF" stroke-width="4" d="M95.022,301.301h495.449"/>
	<path id="path30" fill="#1582BA" d="M71.848,452.883h498.33"/>
	<path id="path32" fill="none" stroke="#FFFFFF" stroke-width="4" d="M71.848,452.883h498.33"/>
	<path id="path34" fill="#1582BA" d="M49.68,596.574h495.479"/>
	<path id="path36" fill="none" stroke="#FFFFFF" stroke-width="4" d="M49.68,596.574h495.479"/>
	<path id="path38" fill="#1582BA" d="M117.59,681.428L219.7,210.188"/>
	<path id="path40" fill="none" stroke="#FFFFFF" stroke-width="4" d="M117.59,681.428L219.7,210.188"/>
	<path id="path42" fill="#1582BA" d="M435.442,681.428l101.914-471.24"/>
	<path id="path44" fill="none" stroke="#FFFFFF" stroke-width="4" d="M435.442,681.428l101.914-471.24"/>
	<path id="path46" fill="#1582BA" d="M276.418,677.756l102.09-471.22"/>
	<path id="path48" fill="none" stroke="#FFFFFF" stroke-width="4" d="M276.418,677.756l102.09-471.22"/>
	<path id="path50" fill="#FFFFFF" d="M238.274,299.895c0,14.277-17.451,25.723-38.77,25.723c-21.504,0-38.77-11.445-38.77-25.723
		c0-14.277,17.266-25.957,38.77-25.957C220.823,273.938,238.274,285.618,238.274,299.895"/>
	<path id="path52" fill="#FFFFFF" d="M398.86,293.352c0,14.306-17.451,25.957-38.76,25.957c-21.514,0-38.76-11.65-38.76-25.957
		c0-14.268,17.246-25.732,38.76-25.732C381.409,267.62,398.86,279.084,398.86,293.352"/>
	<path id="path54" fill="#FFFFFF" d="M559.797,304.729c0,14.277-17.461,25.928-38.76,25.928c-21.309,0-38.76-11.65-38.76-25.928
		c0-14.287,17.451-25.752,38.76-25.752C542.336,278.977,559.797,290.442,559.797,304.729"/>
	<path id="path56" fill="#FFFFFF" d="M201.711,453.606c0,14.092-17.471,25.752-38.779,25.752c-21.494,0-38.76-11.66-38.76-25.752
		c0-14.492,17.266-26.133,38.76-26.133C184.241,427.473,201.711,439.114,201.711,453.606"/>
	<path id="path58" fill="#FFFFFF" d="M362.297,458.244c0,14.482-17.461,26.133-38.77,26.133c-21.484,0-38.77-11.65-38.77-26.133
		c0-14.082,17.285-25.742,38.77-25.742C344.836,432.502,362.297,444.162,362.297,458.244"/>
	<path id="path60" fill="#FFFFFF" d="M523.245,450.783c0,14.521-17.48,25.752-38.76,25.752c-21.318,0-38.789-11.23-38.789-25.752
		c0-14.053,17.471-25.723,38.789-25.723C505.764,425.061,523.245,436.731,523.245,450.783"/>
	<path id="path62" fill="#FFFFFF" d="M169.602,599.436c0,14.092-17.275,25.732-38.77,25.732c-21.309,0-38.77-11.641-38.77-25.732
		c0-14.492,17.461-25.752,38.77-25.752C152.327,573.684,169.602,584.944,169.602,599.436"/>
	<path id="path64" fill="#FFFFFF" d="M330.188,600.354c0,14.473-17.256,26.143-38.77,26.143c-21.299,0-38.77-11.67-38.77-26.143
		c0-14.092,17.471-25.752,38.77-25.752C312.932,574.602,330.188,586.262,330.188,600.354"/>
	<path id="path66" fill="#FFFFFF" d="M491.125,600.354c0,14.473-17.48,26.143-38.76,26.143c-21.309,0-38.789-11.67-38.789-26.143
		c0-14.092,17.48-25.752,38.789-25.752C473.645,574.602,491.125,586.262,491.125,600.354"/>
</g>
</svg>
