<?xml version="1.0" encoding="utf-8"?>
<!-- Generator: Adobe Illustrator 16.0.0, SVG Export Plug-In . SVG Version: 6.00 Build 0)  -->
<!DOCTYPE svg PUBLIC "-//W3C//DTD SVG 1.1//EN" "http://www.w3.org/Graphics/SVG/1.1/DTD/svg11.dtd">
<svg version="1.1"
	 id="svg2" xmlns:dc="http://purl.org/dc/elements/1.1/" xmlns:cc="http://creativecommons.org/ns#" xmlns:rdf="http://www.w3.org/1999/02/22-rdf-syntax-ns#" xmlns:svg="http://www.w3.org/2000/svg"
	 xmlns="http://www.w3.org/2000/svg" xmlns:xlink="http://www.w3.org/1999/xlink" x="0px" y="0px" width="48px" height="78px"
	 viewBox="0 0 48 78" enable-background="new 0 0 48 78" xml:space="preserve">
<g id="g12" transform="scale(0.1,0.1)">
	<path id="path14" fill="#026C9B" d="M10.076,769.995h398.018V72.065H10.076V769.995z"/>
	<path id="path16" fill="none" stroke="#FFFFFF" stroke-width="4" d="M10.076,769.995h398.018V72.065H10.076V769.995z"/>
	<path id="path18" fill="#026C9B" d="M10.076,72.251L86.091,10h383.906l-61.904,62.251H10.076"/>
	<path id="path20" fill="none" stroke="#FFFFFF" stroke-width="4" d="M10.076,72.251L86.091,10h383.906l-61.904,62.251H10.076z"/>
	<path id="path22" fill="#026C9B" d="M408.093,769.995l61.904-76.465V10l-61.904,62.251V769.995"/>
	<path id="path24" fill="none" stroke="#FFFFFF" stroke-width="4" d="M408.093,769.995l61.904-76.465V10l-61.904,62.251V769.995z"/>
	<path id="path26" fill="#026C9B" d="M9.998,346.284h396.035"/>
	<path id="path28" fill="none" stroke="#FFFFFF" stroke-width="4" d="M9.998,346.284h396.035"/>
	<path id="path30" fill="none" stroke="#FFFFFF" stroke-width="3" d="M9.998,722.436h396.035"/>
	<path id="path32" fill="#FFFFFF" d="M178.962,568.198v57.188H156.58l44.609,57.207l45.898-57.207h-22.334v-57.188H178.962"/>
	<path id="path34" fill="#FFFFFF" d="M178.962,522.827V465.62H156.58l44.609-57.207l45.898,57.207h-22.334v57.207H178.962"/>
	<path id="path36" fill="#FFFFFF" d="M62.83,525.639h57.08v-22.695l56.875,45.039l-56.875,46.035v-22.344H62.83V525.639"/>
	<path id="path38" fill="#FFFFFF" d="M339.373,525.639h-57.236v-22.695l-56.699,45.039l56.699,46.035v-22.344h57.236V525.639"/>
	<path id="path40" fill="#026C9B" d="M41.726,197.822h184.58v-76.187H41.726V197.822z"/>
	<path id="path42" fill="none" stroke="#FFFFFF" stroke-width="4" d="M41.726,197.822h184.58v-76.187H41.726V197.822z"/>
	<path id="path44" fill="none" stroke="#FFFFFF" stroke-width="4" d="M60.193,162.427h149.805"/>
</g>
</svg>
