<?xml version="1.0" encoding="utf-8"?>
<!-- Generator: Adobe Illustrator 16.0.0, SVG Export Plug-In . SVG Version: 6.00 Build 0)  -->
<!DOCTYPE svg PUBLIC "-//W3C//DTD SVG 1.1//EN" "http://www.w3.org/Graphics/SVG/1.1/DTD/svg11.dtd">
<svg version="1.1"
	 id="图层_1" xmlns:dc="http://purl.org/dc/elements/1.1/" xmlns:cc="http://creativecommons.org/ns#" xmlns:rdf="http://www.w3.org/1999/02/22-rdf-syntax-ns#"
	 xmlns="http://www.w3.org/2000/svg" xmlns:xlink="http://www.w3.org/1999/xlink" x="0px" y="0px" width="65px" height="75px"
	 viewBox="0 0 65 75" enable-background="new 0 0 65 75" xml:space="preserve">
<path fill="#00BCF2" d="M19.013,68.141c-2.819-3.887-5.127-7.137-5.127-7.225c0-0.113,0.96-0.162,3.1-0.162h3.103l0.038-6.675
	l0.039-6.673h3.84h3.842l0.038,6.673l0.039,6.675h3.225c1.773,0,3.263,0.037,3.31,0.083c0.078,0.08-9.534,13.552-10.067,14.111
	C24.157,75.195,23.855,74.813,19.013,68.141L19.013,68.141z M3.117,57.57c-0.496-0.37-1.101-0.918-1.348-1.217l-0.446-0.539
	l0.039-4.201l0.039-4.206l3.953-0.037l3.953-0.041v1.476v1.48h3.987h3.991v3.98v3.979h-6.635H4.015L3.117,57.57L3.117,57.57z
	 M30.433,54.266v-3.98h13.305H57.05L57,47.447c-0.046-2.59-0.077-2.9-0.378-3.504c-0.355-0.713-0.979-1.215-1.992-1.602
	c-0.554-0.212-1.439-0.24-6.899-0.24H41.46l0.063-1.843c0.245-7.356-0.54-12.415-2.564-16.446c-1.644-3.282-3.659-5.279-6.866-6.811
	l-1.662-0.793v-3.756c0-3.167,0.033-3.755,0.21-3.755c1.061,0,4.254,1.106,6.45,2.234c4.703,2.417,8.378,6.578,10.483,11.871
	c1.225,3.074,2.096,6.755,2.471,10.448l0.108,1.032l2.289,0.094c2.708,0.11,4.153,0.434,6.129,1.369
	c2.557,1.212,4.141,2.755,5.321,5.176C64.926,43.042,65,43.657,65,50.139v5.617l-0.759,0.805c-0.419,0.44-1.064,1.002-1.432,1.244
	l-0.667,0.441H46.289H30.433V54.266L30.433,54.266z M0.871,43.016c-0.276-0.183-0.583-0.5-0.684-0.697
	C0.043,42.037,0.001,39.618,0,31.76V21.57l0.334-0.5c0.725-1.081-0.228-1.016,15.155-1.017c12.501,0,13.829,0.021,14.199,0.24
	c0.936,0.55,0.895,0.03,0.895,11.402c0,11.21,0.021,10.875-0.8,11.416c-0.339,0.222-1.618,0.242-14.391,0.242H1.373l-0.5-0.338
	H0.871z M27.625,33.3c0-6.749-0.012-7.088-0.258-6.877c-0.303,0.262-10.192,7.974-11.007,8.586
	c-0.468,0.352-0.658,0.405-1.203,0.343c-0.571-0.063-1.291-0.558-6.346-4.368c-3.133-2.362-5.735-4.295-5.778-4.295
	c-0.043,0-0.079,3.085-0.079,6.856v6.86H15.29h12.335V33.3L27.625,33.3z M21.489,27.5l5.72-4.424l-5.776-0.039
	c-3.175-0.021-8.382-0.021-11.569,0l-5.795,0.039l5.742,4.466c3.158,2.457,5.79,4.448,5.849,4.424
	C15.721,31.942,18.342,29.933,21.489,27.5L21.489,27.5z M1.407,9.179c0.096-6.752,0.164-7.707,0.607-8.38
	C2.553-0.023,2.218,0,14.867,0c8.953,0.002,11.731,0.043,12.006,0.185c0.194,0.099,0.494,0.369,0.665,0.596
	c0.304,0.409,0.31,0.566,0.349,7.854l0.042,7.437h-3.993h-3.993v-4.055V7.959h-5.317H9.307v4.057v4.055H5.308H1.309L1.407,9.179
	L1.407,9.179z"/>
</svg>
