<?xml version="1.0" encoding="utf-8"?>
<!-- Generator: Adobe Illustrator 16.0.0, SVG Export Plug-In . SVG Version: 6.00 Build 0)  -->
<!DOCTYPE svg PUBLIC "-//W3C//DTD SVG 1.1//EN" "http://www.w3.org/Graphics/SVG/1.1/DTD/svg11.dtd">
<svg version="1.1"
	 id="图层_1" xmlns:dc="http://purl.org/dc/elements/1.1/" xmlns:cc="http://creativecommons.org/ns#" xmlns:rdf="http://www.w3.org/1999/02/22-rdf-syntax-ns#"
	 xmlns="http://www.w3.org/2000/svg" xmlns:xlink="http://www.w3.org/1999/xlink" x="0px" y="0px" width="57px" height="76px"
	 viewBox="0 0 57 76" enable-background="new 0 0 57 76" xml:space="preserve">
<path fill="#00BCF2" d="M18.549,69.816c-2.471-3.418-4.516-6.28-4.543-6.363c-0.036-0.105,0.791-0.15,2.729-0.15h2.779v-4.708
	c0-4.093-0.026-4.707-0.208-4.707S19.1,53.265,19.1,49.11v-4.776h-5.951h-5.95v4.709v4.707h4.775h4.774v3.602v3.598H9.79H2.833
	L1.99,60.452c-0.464-0.274-1.101-0.735-1.417-1.022L0,58.901l0.035-10.85L0.07,37.203l9.514-0.035l9.514-0.036v-9.484v-9.483h-2.56
	c-1.408,0-2.56-0.035-2.56-0.081c0-0.12,9.017-12.682,9.066-12.631c0.024,0.023,2.104,2.878,4.622,6.344l4.579,6.299l-3.2,0.038
	l-3.204,0.038l0.086,3.285c0.047,1.808,0.123,5.685,0.165,8.616c0.042,2.932,0.103,6.359,0.133,7.617
	c0.032,1.257,0.059,7.533,0.062,13.949l0.009,11.665h2.975c1.637,0,2.977,0.027,2.977,0.059c0,0.104-9.011,12.611-9.107,12.64
	c-0.052,0.017-2.117-2.766-4.59-6.184H18.549z M33.456,60.707l-4.951-0.039l0.037-3.425l0.038-3.425l9.962,0.04
	c5.481,0.022,10.321,0.075,10.761,0.116l0.796,0.076v-2.539c0-2.778-0.103-3.386-0.813-4.904c-0.537-1.151-1.78-2.422-2.601-2.663
	c-0.468-0.139-1.464-0.118-5.369,0.109c-2.636,0.153-4.943,0.278-5.129,0.278h-0.341l-0.011-2.319
	c-0.008-1.274-0.058-2.848-0.114-3.496c-0.063-0.702-0.052-1.245,0.025-1.348c0.317-0.417-0.387-3.166-1.142-4.459
	c-0.297-0.509-0.827-1.191-1.182-1.516c-0.814-0.752-2.46-1.538-3.802-1.812l-1.04-0.214l-0.037-4.048
	c-0.022-2.394,0.016-4.049,0.09-4.049c0.07,0,0.768,0.222,1.547,0.495c6.72,2.339,11.47,7.488,12.643,13.697
	c0.113,0.609,0.226,1.264,0.247,1.454l0.038,0.346l2.077,0.09c2.39,0.104,3.303,0.313,4.749,1.094c2.578,1.39,4.403,3.374,5.78,6.28
	c1.128,2.384,1.199,2.879,1.267,8.852c0.031,2.883,0.021,5.392-0.025,5.576c-0.105,0.424-0.972,1.392-1.479,1.653
	C55.09,60.81,50.005,60.834,33.456,60.707L33.456,60.707z M0.904,34.333c0.054-0.325,0.308-1.18,0.563-1.9
	c2.08-5.844,8.034-10.565,14.76-11.7l0.519-0.087v3.814v3.813h-0.61c-2.424,0-5.433,1.301-7.047,3.046
	c-0.731,0.789-0.92,1.152-1.439,2.77L7.404,34.85l-3.299,0.038l-3.299,0.037L0.904,34.333L0.904,34.333z"/>
<path fill="#00BCF2" d="M18.549,64.363c-2.471-3.418-4.516-6.279-4.543-6.363c-0.036-0.105,0.791-0.15,2.729-0.15h2.779v-4.708
	c0-4.091-0.026-4.707-0.208-4.707S19.1,47.812,19.1,43.658v-4.775h-5.951h-5.95v4.707v4.708h4.775h4.774v3.6v3.6H9.79H2.833L1.99,55
	c-0.464-0.275-1.101-0.736-1.417-1.025L0,53.448l0.035-10.848l0.036-10.85l9.514-0.036l9.514-0.036v-9.484v-9.482h-2.56
	c-1.408,0-2.56-0.037-2.56-0.081c0-0.119,9.017-12.682,9.066-12.631c0.024,0.023,2.104,2.878,4.622,6.343l4.579,6.3l-3.2,0.038
	l-3.204,0.037l0.086,3.285c0.047,1.807,0.123,5.685,0.165,8.617c0.042,2.932,0.103,6.359,0.133,7.615
	c0.032,1.256,0.059,7.534,0.062,13.948l0.009,11.665h2.975c1.637,0,2.977,0.028,2.977,0.057c0,0.106-9.011,12.612-9.107,12.642
	c-0.052,0.017-2.117-2.766-4.59-6.184H18.549z M33.456,55.253l-4.951-0.037l0.037-3.426l0.038-3.426l9.962,0.041
	c5.481,0.022,10.321,0.074,10.761,0.117l0.796,0.076V46.06c0-2.779-0.103-3.385-0.813-4.903c-0.537-1.15-1.78-2.423-2.601-2.665
	c-0.468-0.137-1.464-0.117-5.369,0.11c-2.636,0.153-4.943,0.279-5.129,0.279h-0.341l-0.011-2.32
	c-0.008-1.275-0.058-2.85-0.114-3.496c-0.063-0.702-0.052-1.247,0.025-1.349c0.317-0.417-0.387-3.165-1.142-4.458
	c-0.297-0.509-0.827-1.19-1.182-1.516c-0.814-0.752-2.46-1.537-3.802-1.812l-1.04-0.214l-0.037-4.048
	c-0.022-2.394,0.016-4.049,0.09-4.049c0.07,0,0.768,0.223,1.547,0.494c6.72,2.34,11.47,7.489,12.643,13.698
	c0.113,0.609,0.226,1.264,0.247,1.455l0.038,0.345l2.077,0.09c2.39,0.104,3.303,0.313,4.749,1.094
	c2.578,1.39,4.403,3.374,5.78,6.283c1.128,2.382,1.199,2.875,1.267,8.85c0.031,2.883,0.021,5.391-0.025,5.575
	c-0.105,0.424-0.972,1.392-1.479,1.653C55.09,55.357,50.005,55.38,33.456,55.253L33.456,55.253z M0.904,28.88
	c0.054-0.325,0.308-1.179,0.563-1.9c2.08-5.845,8.034-10.565,14.76-11.7l0.519-0.088v3.813v3.813h-0.61
	c-2.424,0-5.433,1.301-7.047,3.046c-0.731,0.79-0.92,1.152-1.439,2.77l-0.245,0.761l-3.299,0.038l-3.299,0.038L0.904,28.88
	L0.904,28.88z"/>
</svg>
