<?xml version="1.0" encoding="utf-8"?>
<!-- Generator: Adobe Illustrator 16.0.0, SVG Export Plug-In . SVG Version: 6.00 Build 0)  -->
<!DOCTYPE svg PUBLIC "-//W3C//DTD SVG 1.1//EN" "http://www.w3.org/Graphics/SVG/1.1/DTD/svg11.dtd">
<svg version="1.1"
	 id="svg2" xmlns:dc="http://purl.org/dc/elements/1.1/" xmlns:cc="http://creativecommons.org/ns#" xmlns:rdf="http://www.w3.org/1999/02/22-rdf-syntax-ns#" xmlns:svg="http://www.w3.org/2000/svg"
	 xmlns="http://www.w3.org/2000/svg" xmlns:xlink="http://www.w3.org/1999/xlink" x="0px" y="0px" width="79px" height="29px"
	 viewBox="0 0 79 29" enable-background="new 0 0 79 29" xml:space="preserve">
<g id="g12" transform="scale(0.1,0.1)">
	<path id="path14" fill="#0881C1" d="M1.396,284.624h613.003V171.206H1.396V284.624z"/>
	<path id="path16" fill="#0881C1" d="M13.472,279.399h586.045V186.86H13.472V279.399z"/>
	<path id="path18" fill="none" stroke="#FFFFFF" stroke-width="4" d="M13.472,279.399h586.045V186.86H13.472V279.399z"/>
	<path id="path20" fill="#0881C1" d="M0,172.056L212.056,0h577.949L613.989,172.056H0"/>
	<path id="path22" fill="none" stroke="#FFFFFF" stroke-width="4" d="M0,172.056L212.056,0h577.949L613.989,172.056H0z"/>
	<path id="path24" fill="#0881C1" d="M614.165,289.995l175.313-174.873l0.215-114.849L614.165,171.851V289.995"/>
	<path id="path26" fill="none" stroke="#FFFFFF" stroke-width="4" d="M614.165,289.995l175.313-174.873l0.215-114.849
		L614.165,171.851V289.995z"/>
	<path id="path28" fill="#FFFFFF" d="M38.521,246.294H74.81v-27.607H38.521V246.294z"/>
	<path id="path30" fill="#FFFFFF" d="M273.618,246.294h36.289v-27.607h-36.289V246.294z"/>
	<path id="path32" fill="#FFFFFF" d="M547.935,246.294h36.27v-27.607h-36.27V246.294z"/>
	<path id="path34" fill="#0881C1" d="M460.806,185.62c21.875,9.453,36.211,25.811,36.211,44.414
		c0,29.306-35.625,53.095-79.59,53.095s-79.585-23.789-79.585-53.095c0-29.307,35.62-53.076,79.585-53.076
		C433.462,176.958,448.345,180.22,460.806,185.62"/>
	<path id="path36" fill="none" stroke="#FFFFFF" stroke-width="3.731" d="M460.806,185.62c21.875,9.453,36.211,25.811,36.211,44.414
		c0,29.306-35.625,53.095-79.59,53.095s-79.585-23.789-79.585-53.095c0-29.307,35.62-53.076,79.585-53.076
		C433.462,176.958,448.345,180.22,460.806,185.62"/>
	<path id="path38" fill="#FFFFFF" d="M477.72,229.819c0,21.904-26.66,39.726-59.648,39.726c-33.008,0-59.717-17.822-59.717-39.726
		c0-22.051,26.709-39.824,59.717-39.824C451.06,189.995,477.72,207.769,477.72,229.819"/>
	<path id="path40" fill="none" stroke="#FFFFFF" stroke-width="2.798" d="M477.72,229.819c0,21.904-26.66,39.726-59.648,39.726
		c-33.008,0-59.717-17.822-59.717-39.726c0-22.051,26.709-39.824,59.717-39.824C451.06,189.995,477.72,207.769,477.72,229.819z"/>
</g>
</svg>
