<svg version="1.1" id="ilhwsa8q1" xmlns:xml="http://www.w3.org/XML/1998/namespace"
	 xmlns="http://www.w3.org/2000/svg" xmlns:xlink="http://www.w3.org/1999/xlink" x="0px" y="0px" width="47px" height="78px"
	 viewBox="0 0 47 78" enable-background="new 0 0 47 78" xml:space="preserve">
<g>
	<path fill="#2A59A9" d="M45.738,50.246c1.18,1.416,1.721,3.362,0.788,4.699c-0.08,0.079-0.08,0.159-0.159,0.237
		c-0.864,1.395-3.44,1.317-5.155-0.63c-7.587-8.201-7.587-22.427,0-30.631c1.793-1.957,4.291-2.035,5.155-0.628
		c0.079,0.077,0.079,0.156,0.159,0.234c0.856,1.406,0.392,3.362-0.788,4.689C40.271,34.232,40.271,44.151,45.738,50.246z"/>
	<path fill="#2A59A9" d="M33.546,62.592c1.416,1.26,1.878,3.207,0.943,4.621c0,0-0.078,0.078-0.078,0.156
		c-0.944,1.318-3.204,1.396-4.931-0.156c-16.017-13.919-16.017-41.887,0-55.797c1.727-1.563,3.987-1.484,4.931-0.156
		c0.078,0.078,0.078,0.156,0.157,0.235c0.934,1.326,0.394,3.362-0.944,4.61C20.341,27.98,20.341,50.718,33.546,62.592z"/>
	<path fill="#2A59A9" d="M21.042,72.207c1.412,1.256,1.954,3.205,1.02,4.532c-0.079,0.078-0.079,0.158-0.158,0.236
		c-0.938,1.327-3.126,1.405-4.847,0c-22.743-18.516-22.743-57.43,0-75.951c1.721-1.405,3.909-1.327,4.847,0
		c0.079,0.079,0.079,0.158,0.158,0.236c0.934,1.327,0.392,3.359-1.02,4.532C1.27,22.357,1.27,55.798,21.042,72.207z"/>
</g>
</svg>
