<?xml version="1.0" encoding="utf-8"?>
<!-- Generator: Adobe Illustrator 16.0.0, SVG Export Plug-In . SVG Version: 6.00 Build 0)  -->
<!DOCTYPE svg PUBLIC "-//W3C//DTD SVG 1.1//EN" "http://www.w3.org/Graphics/SVG/1.1/DTD/svg11.dtd">
<svg version="1.1"
	 id="svg2" xmlns:dc="http://purl.org/dc/elements/1.1/" xmlns:cc="http://creativecommons.org/ns#" xmlns:rdf="http://www.w3.org/1999/02/22-rdf-syntax-ns#" xmlns:svg="http://www.w3.org/2000/svg"
	 xmlns="http://www.w3.org/2000/svg" xmlns:xlink="http://www.w3.org/1999/xlink" x="0px" y="0px" width="76px" height="78px"
	 viewBox="0 0 76 78" enable-background="new 0 0 76 78" xml:space="preserve">
	<g id="g12" transform="scale(0.1,0.1)">
		<path id="path22" fill="#026C9B" d="M10.723,764.995h614.253V139.536H10.723V764.995z"/>
		<path id="path24" fill="none" stroke="#FFFFFF" stroke-width="4" d="M10.723,764.995h614.253V139.536H10.723V764.995z"/>
		<path id="path26" fill="#026C9B" d="M749.272,15L622.964,139.429H10L142.803,15H749.272"/>
		<path id="path28" fill="none" stroke="#FFFFFF" stroke-width="4" d="M749.272,15L622.964,139.429H10L142.803,15H749.272z"/>
		<path id="path30" fill="#026C9B" d="M749.995,614.194V15.405L625.601,139.902v622.729L749.995,614.194"/>
		<path id="path32" fill="none" stroke="#FFFFFF" stroke-width="4" d="M749.995,614.194V15.405L625.601,139.902v622.729
		L749.995,614.194z"/>
		<path id="path34" fill="#FFFFFF" d="M319.175,324.76c68.77,0,124.434,55.723,124.434,124.551s-55.664,124.551-124.434,124.551
		s-124.434-55.723-124.434-124.551S250.405,324.76,319.175,324.76"/>
		<path id="path36" fill="#FFFFFF" d="M319.175,324.76V198.53"/>
		<path id="path38" fill="none" stroke="#FFFFFF" stroke-width="4" d="M319.175,324.76V198.53"/>
		<path id="path40" fill="#FFFFFF" d="M320.933,167.681l45.02,91.592h-90.02L320.933,167.681"/>
		<path id="path42" fill="none" stroke="#FFFFFF" stroke-width="4" d="M320.933,167.681l45.02,91.592h-90.02L320.933,167.681z"/>
		<path id="path44" fill="#FFFFFF" d="M231.089,361.137l-89.019-89.092"/>
		<path id="path46" fill="none" stroke="#FFFFFF" stroke-width="4" d="M231.089,361.137l-89.019-89.092"/>
		<path id="path48" fill="#FFFFFF" d="M121.338,248.979l96.548,32.939l-63.647,63.72L121.338,248.979"/>
		<path id="path50" fill="none" stroke="#FFFFFF" stroke-width="4" d="M121.338,248.979l96.548,32.939l-63.647,63.72L121.338,248.979
		z"/>
		<path id="path52" fill="#FFFFFF" d="M194.741,449.311H68.633"/>
		<path id="path54" fill="none" stroke="#FFFFFF" stroke-width="4" d="M194.741,449.311H68.633"/>
		<path id="path56" fill="#FFFFFF" d="M37.813,447.729l91.484-45.234v90.098L37.813,447.729"/>
		<path id="path58" fill="none" stroke="#FFFFFF" stroke-width="4" d="M37.813,447.729l91.484-45.234v90.098L37.813,447.729z"/>
		<path id="path60" fill="#FFFFFF" d="M231.089,537.3l-89.019,89.277"/>
		<path id="path62" fill="none" stroke="#FFFFFF" stroke-width="4" d="M231.089,537.3l-89.019,89.277"/>
		<path id="path64" fill="#FFFFFF" d="M119.023,647.163l32.91-96.641l63.667,63.711L119.023,647.163"/>
		<path id="path66" fill="none" stroke="#FFFFFF" stroke-width="4" d="M119.023,647.163l32.91-96.641l63.667,63.711L119.023,647.163z
		"/>
		<path id="path68" fill="#FFFFFF" d="M319.175,573.862v126.055"/>
		<path id="path70" fill="none" stroke="#FFFFFF" stroke-width="4" d="M319.175,573.862v126.055"/>
		<path id="path72" fill="#FFFFFF" d="M317.397,730.757l-45-91.563h90.02L317.397,730.757"/>
		<path id="path74" fill="none" stroke="#FFFFFF" stroke-width="4" d="M317.397,730.757l-45-91.563h90.02L317.397,730.757z"/>
		<path id="path76" fill="#FFFFFF" d="M407.065,537.3l89.219,89.277"/>
		<path id="path78" fill="none" stroke="#FFFFFF" stroke-width="4" d="M407.065,537.3l89.219,89.277"/>
		<path id="path80" fill="#FFFFFF" d="M516.831,649.448l-96.563-32.559l63.672-63.73L516.831,649.448"/>
		<path id="path82" fill="none" stroke="#FFFFFF" stroke-width="4" d="M516.831,649.448l-96.563-32.559l63.672-63.73L516.831,649.448
		z"/>
		<path id="path84" fill="#FFFFFF" d="M443.608,449.311h125.938"/>
		<path id="path86" fill="none" stroke="#FFFFFF" stroke-width="4" d="M443.608,449.311h125.938"/>
		<path id="path88" fill="#FFFFFF" d="M600.718,450.874l-91.855,45.254V406.03L600.718,450.874"/>
		<path id="path90" fill="none" stroke="#FFFFFF" stroke-width="4" d="M600.718,450.874l-91.855,45.254V406.03L600.718,450.874z"/>
		<path id="path92" fill="#FFFFFF" d="M407.065,361.137l89.219-89.092"/>
		<path id="path94" fill="none" stroke="#FFFFFF" stroke-width="4" d="M407.065,361.137l89.219-89.092"/>
		<path id="path96" fill="#FFFFFF" d="M519.507,251.284l-32.891,96.65l-63.672-63.72L519.507,251.284"/>
		<path id="path98" fill="none" stroke="#FFFFFF" stroke-width="4" d="M519.507,251.284l-32.891,96.65l-63.672-63.72L519.507,251.284
		z"/>
		<g id="g100" transform="scale(10,10)" style="font-variant:normal;font-weight:normal;font-size:18.9732px;font-family:Helvetica;-inkscape-font-specification:Helvetica;writing-mode:lr-tb;fill:#026c9b;fill-opacity:1;fill-rule:nonzero;stroke:none">
			<text transform="matrix(0.9991 0 0 1 23.105 51.3569)">S</text>
			<text transform="matrix(0.9991 0 0 1 35.7495 51.3569)">i</text>
		</g>
	</g>
</svg>
