<?xml version="1.0" encoding="utf-8"?>
<!-- Generator: Adobe Illustrator 16.0.0, SVG Export Plug-In . SVG Version: 6.00 Build 0)  -->
<!DOCTYPE svg PUBLIC "-//W3C//DTD SVG 1.1//EN" "http://www.w3.org/Graphics/SVG/1.1/DTD/svg11.dtd">
<svg version="1.1"
	 id="svg2" xmlns:dc="http://purl.org/dc/elements/1.1/" xmlns:cc="http://creativecommons.org/ns#" xmlns:rdf="http://www.w3.org/1999/02/22-rdf-syntax-ns#" xmlns:svg="http://www.w3.org/2000/svg"
	 xmlns="http://www.w3.org/2000/svg" xmlns:xlink="http://www.w3.org/1999/xlink" x="0px" y="0px" width="52px" height="80px"
	 viewBox="0 0 52 80" enable-background="new 0 0 52 80" xml:space="preserve">
<g id="g12" transform="scale(0.1,0.1)">
	<path id="path22" fill="#026C9B" d="M15,785h375.723V129.634H15V785z"/>
	<path id="path24" fill="none" stroke="#FFFFFF" stroke-width="4" d="M390.723,129.634H15V785h375.723"/>
	<path id="path26" fill="#026C9B" d="M390.723,785l114.463-114.492V15H129.619L15,129.634h375.723V785"/>
	<path id="path28" fill="none" stroke="#FFFFFF" stroke-width="4" d="M390.723,785l114.463-114.492V15H129.619L15,129.634h375.723
		V785z"/>
	<path id="path30" fill="#026C9B" d="M390.723,129.634L505.186,15"/>
	<path id="path32" fill="none" stroke="#FFFFFF" stroke-width="4" d="M390.723,129.634L505.186,15"/>
	<path id="path34" fill="#026C9B" d="M20.898,351.816h366.357"/>
	<path id="path36" fill="none" stroke="#FFFFFF" stroke-width="4" d="M20.898,351.816h366.357"/>
	<path id="path38" fill="#026C9B" d="M20.898,698.467h366.357"/>
	<path id="path40" fill="none" stroke="#FFFFFF" stroke-width="4" d="M20.898,698.467h366.357"/>
	<path id="path42" fill="#026C9B" d="M119.141,218.301H221.27"/>
	<path id="path44" fill="none" stroke="#FFFFFF" stroke-width="4" d="M119.141,218.301H221.27"/>
	<path id="path46" fill="#026C9B" d="M78.428,253.281h180.596v-72.925H78.428V253.281z"/>
	<path id="path48" fill="none" stroke="#FFFFFF" stroke-width="4" d="M78.428,253.281h180.596v-72.925H78.428V253.281z"/>
	<g id="g50" transform="scale(10,10)" style="font-variant:normal;font-weight:bold;font-size:18.6572px;font-family:Helvetica;-inkscape-font-specification:Helvetica-Bold;writing-mode:lr-tb;fill:#ffffff;fill-opacity:1;fill-rule:nonzero;stroke:none">
		<text transform="matrix(1 0 0 1 20.9522 64.708)">I</text>
		<text transform="matrix(1 0 0 1 26.1367 64.708)">P</text>
	</g>
	<path id="path56" fill="#026C9B" d="M348.125,423.476H97.188c-28.75,0-51.826,23.232-51.826,51.826s25.352,49.717,53.916,49.717
		h42.1c28.564,0,49.531,26.152,49.531,54.746c0,28.584-23.223,51.807-51.797,51.807H62.344"/>
	<path id="path58" fill="none" stroke="#FFFFFF" stroke-width="11.55" d="M348.125,423.476H97.188
		c-28.75,0-51.826,23.232-51.826,51.826s25.352,49.717,53.916,49.717h42.1c28.564,0,49.531,26.152,49.531,54.746
		c0,28.584-23.223,51.807-51.797,51.807H62.344"/>
	<path id="path60" fill="#FFFFFF" d="M338.418,391.054v65.254l39.15-31.416L338.418,391.054"/>
	<path id="path62" fill="none" stroke="#FFFFFF" stroke-width="1.106" d="M338.418,391.054v65.254l39.15-31.416L338.418,391.054z"/>
	<path id="path64" fill="#FFFFFF" d="M63.819,663.808v-65.215L24.678,629.97L63.819,663.808"/>
	<path id="path66" fill="none" stroke="#FFFFFF" stroke-width="1.106" d="M63.819,663.808v-65.215L24.678,629.97L63.819,663.808z"/>
</g>
</svg>
