<?xml version="1.0" encoding="utf-8"?>
<!-- Generator: Adobe Illustrator 16.0.0, SVG Export Plug-In . SVG Version: 6.00 Build 0)  -->
<!DOCTYPE svg PUBLIC "-//W3C//DTD SVG 1.1//EN" "http://www.w3.org/Graphics/SVG/1.1/DTD/svg11.dtd">
<svg version="1.1"
	 id="svg2" xmlns:dc="http://purl.org/dc/elements/1.1/" xmlns:cc="http://creativecommons.org/ns#" xmlns:rdf="http://www.w3.org/1999/02/22-rdf-syntax-ns#" xmlns:svg="http://www.w3.org/2000/svg"
	 xmlns="http://www.w3.org/2000/svg" xmlns:xlink="http://www.w3.org/1999/xlink" x="0px" y="0px" width="52px" height="80px"
	 viewBox="0 0 52 80" enable-background="new 0 0 52 80" xml:space="preserve">
<g id="g12" transform="scale(0.1,0.1)">
	<path id="path22" fill="#036998" d="M143.53,100.417L16.89,97.493L10,103.367l36.299,110.088l134.521-6.88l5.84-6.86
		L143.53,100.417"/>
	<path id="path24" fill="#036998" d="M309.404,10.002l47.842,39.272l-5.859,15.342l3.818,21.099l7.637,21.074l46.768,20.181
		l11.641-24.565l-12.803-9.819l2.979-22.637l-28.369-55.02L309.404,10.002"/>
	<path id="path26" fill="#036998" d="M313.193,30.129l-15.459,23.11l-4.15,23.608L279.873,43.42L313.193,30.129"/>
	<path id="path28" fill="#036998" d="M300.459,42.424l5.967,7.886l6.855,0.942l-2.969-5.859l3.867-7.871l4.141,7.871l3.896,7.847
		l8.672,3.965v-7.896l4.141-6.885l3.887,7.886l8.672,4.912l1.162-6.909l10.742-0.962l-39.355-32.422l-20.576,0.952l-6.875,6.88
		L300.459,42.424"/>
	<path id="path30" fill="#036998" d="M306.426,119.08h24.463"/>
	<path id="path32" fill="#036998" d="M294.756,72.898l0.908,9.854v27.485l-13.721-0.942l-6.865-7.876l5.957-10.835l1.816-9.8
		l7.764-16.714L294.756,72.898"/>
	<path id="path34" fill="#036998" d="M189.629,210.5L52.222,220.32l-5.923,7.915l1.973,15.693l62.842,27.48l137.422-15.684
		l1.953-17.632L189.629,210.5"/>
	<path id="path36" fill="#036998" d="M169.976,187.913l-107.969,5.908l-29.438-82.559h105.015L169.976,187.913"/>
	<path id="path38" fill="#036998" d="M168.013,267.532l-12.695-21.67l-16.704-13.726l-1.03,6.855l-24.473-10.757l2.876,7.856
		l-15.693-5.908l5.938,9.854l-8.906-1.045l8.906,14.785l10.757,9.849l31.47,15.703L168.013,267.532"/>
	<path id="path40" fill="#036998" d="M198.779,403.127l-54.033,10.479l-13.257,19.385l1.089,33.896l30.747,132.061l-0.615,51.631
		l-19.844,31.035l44.146-0.723l21.563-16.348l9.531-2.695l0.801-26.396l-14.922-25.791l-4.59-22.305l2.891-61.943l-5.088-37.07
		L198.779,403.127"/>
	<path id="path42" fill="#036998" d="M215.039,625.989l-9.492,0.762l-14.102,14.111l-20.801,24.785l-17.93,3.486l6.572-10.225
		l-17.28,17.412l-27.72,12.725l1.909,5.303l29.248,6.24l25.166,0.83l15.972-6.875l11.143-21.836l8.555,31.885l3.115,0.068
		l13.809-39.57l-0.205-24.277L215.039,625.989"/>
	<path id="path44" fill="#036998" d="M268.281,400.051l-65.459,10.605l-9.082,20.693l-4.795,16.719l48.525,132.305l-0.615,51.377
		l-19.863,31.035l44.15-0.742l21.582-16.104l9.395-2.92l0.791-26.191l-14.785-25.742l-4.58-22.578l3.018-61.895l-5.234-37.09
		L268.281,400.051"/>
	<path id="path46" fill="#036998" d="M289.053,607.17l-9.375,0.752l-14.121,14.355l-20.752,24.531l-17.939,3.701l6.572-10.43
		l-17.285,17.393l-27.734,12.861l1.934,5.332l29.248,6.143l25.166,0.791l15.967-6.865l11.26-21.816l8.438,31.836l3.125,0.088
		l13.77-39.58l-0.186-24.033L289.053,607.17"/>
	<path id="path48" fill="#036998" d="M372.305,137.771l-49.18,15.771l-48.945,3.901l-39.355,13.735l-9.844,15.767l11.777,62.949
		l-15.664,23.584h-11.777l-5.957,9.736l-23.564-17.637h-19.551l-19.688,15.693l7.9,27.607l54.902,37.354l41.309,5.84l19.551-15.703
		l-21.602,57.06l-45.098,11.797l-17.725,41.221l17.725,49.033l94.258,17.881l54.893,5.703l47.148-5.703l25.625-19.717l7.754-23.584
		l1.846-19.717l11.885-13.75l-15.781-45.244l-3.896-47.187l13.73,2.07l21.758-9.863l21.484-145.474l-13.721-23.594l-45.059-19.712
		L372.305,137.771"/>
	<path id="path50" fill="#036998" d="M297.988,39.739l22.002-7.876l43.984,14.141l9.316,66.016l-4.658,29.81l-51.748,12.573
		l-23.555-26.694l-4.648-39.268L297.988,39.739"/>
	<path id="path52" fill="#036998" d="M428.76,453.489l-17.588-9.336l-17.744,18.916l-54.199,8.047l-54.082-21.006l-42.529-56.68
		l-45.098,11.797l-17.725,41.221l17.725,49.033l130.068,22.783l66.23-4.902l25.625-19.717L428.76,453.489"/>
	<path id="path54" fill="#036998" d="M295.664,108.298l12.822,25.542l7.783,6.87l7.764,3.965l2.969,19.644l-18.516,9.854
		l-8.027,2.974l-27.441,2.886l-13.74-4.907l-6.865-12.749l8.936,1.943l5.957-4.927l-9.961-3.896l-5.82-6.875v-8.857l7.754,4.912
		l11.924-2.92l-5.049-3.984l-1.934-6.88l11.777-0.947l2.969-7.896l-2.07-6.88l8.936-14.751L295.664,108.298"/>
	<path id="path56" fill="#036998" d="M366.396,109.836l0.908,8.828l-3.877,4.902h-6.865l3.887,4.932l6.855,1.035l-0.908,6.865
		l-5.947,3.901l-8.691-0.977l3.896,6.86l8.672,2.959l8.018-3.911l-1.152,8.818l-3.887,8.838l-8.682,2.949l7.773,4.937l11.65-1.953
		l-2.725,8.828v9.854l6.875-2.983l6.865-7.832l4.775,5.889l9.854,4.927l14.639,4.932l16.689,2.949l12.822-6.929l2.979-7.822
		l-8.945,0.938l-8.672-2.896l6.865-2.974l4.795-5.908l5.049-10.815l-5.947-6.87l-2.988,6.87l-5.957,3.911l-0.898-8.838l2.061-7.866
		l-7.07,2.007l-8.73-2.007l2.979-8.853l3.887-6.885l-0.918-9.824l-4.082,3.989l-5.752,1.958l-8.926-1.958l2.979-5.947l0.918-8.828
		l-4.805-3.926l-2.061,4.912l-5.713-1.997V98.03h-19.668L366.396,109.836"/>
	<path id="path58" fill="#036998" d="M368.73,177.869l-12.939,15.317l-17.598-17.725c0,0-8.271,22.388-14.219,15.381l-2.334-14.18
		l-10.615,8.228c0,0-24.58,4.751-18.887,0c5.947-4.658,5.947-14.116,5.947-14.116l35.449-37.71l48.135,2.334L368.73,177.869"/>
	<path id="path60" fill="#036998" d="M333.828,531.213l-2.236,84.961l-114.639,25.889c-17.93-4.268-23.418,18.291-23.418,18.291
		l-0.547,15.801l9.063,0.322l-0.645,14.619c8.398,16.289,23.672,0.996,23.672,0.996l0.723-18.008l92.52-32.52l-82.617,60.791
		c-14.492,24.336-3.008,47.354-3.008,47.354c-12.012,21.133,7.598,36.543,7.598,36.543c26.592,14.609,26.709-18.213,26.709-18.213
		c4.268-19.082-14.99-19.834-14.99-19.834l-5.107-11.504l100.391-84.814l116.758,78.809l5.166,13.789
		c-13.545,26.631,8.867,36.582,8.867,36.582c31.309,6.924,19.961-21.709,19.961-21.709c1.68-15.859-10.645-16.416-10.645-16.416
		l-8.545-10.439c0,0-8.154,3.086,1.113-4.424c9.531-7.559,3.545-29.414,3.545-29.414l-108.643-61.66l78.799,20.469l15.352,10.752
		c-1.182,25.986,17.393,18.877,17.393,18.877c19.131,0.762,8.574-19.961,8.574-19.961c-6.631-5.957-15.361-9.736-15.361-9.736
		l-8.076-16.201l-45.01-12.881l-67.803-12.754l1.826-75.322"/>
	<path id="path62" fill="#036998" d="M306.895,553.987l-151.563-51.914c-10.137-10.459,2.798-28.77,2.798-28.77l149.595,47.607"/>
	<path id="path64" fill="#036998" d="M415.234,517.17l-105.02,39.6l1.26-90.557c77.822-201.357,90.156-200.234,90.156-200.234
		c26.191-14.727,32.734-15.845,32.734-15.845c37.422,2.231,50.693-11.196,50.693-11.196c12.334-10.229,24.941,4.536,24.941,4.536
		L415.234,517.17"/>
</g>
</svg>
