<?xml version="1.0" encoding="utf-8"?>
<!-- Generator: Adobe Illustrator 16.0.0, SVG Export Plug-In . SVG Version: 6.00 Build 0)  -->
<!DOCTYPE svg PUBLIC "-//W3C//DTD SVG 1.1//EN" "http://www.w3.org/Graphics/SVG/1.1/DTD/svg11.dtd">
<svg version="1.1" id="图层_1" xmlns="http://www.w3.org/2000/svg" xmlns:xlink="http://www.w3.org/1999/xlink" x="0px" y="0px"
	 width="512px" height="512px" viewBox="0 0 512 512" enable-background="new 0 0 512 512" xml:space="preserve">
<g>
	<path fill="#33CCFF" d="M499.037,101.813c-10.847-62.461-25.838-77.337-89.152-88.42c-40.31-7.053-97.21-11.098-156.091-11.098
		c-58.363,0-112.338,3.801-151.978,10.687c-62.468,10.855-77.345,25.853-88.405,89.152c-14.663,83.819-14.884,224.882-0.48,308.031
		c10.817,62.461,25.815,77.329,89.152,88.42c40.409,7.069,97.431,11.121,156.434,11.121h0.009
		c58.218,0,112.087-3.778,151.665-10.634c62.476-10.862,77.359-25.854,88.404-89.167
		C513.266,326.071,513.464,184.977,499.037,101.813 M483.24,407.222c-9.918,56.764-19.82,66.772-75.715,76.492
		c-38.727,6.703-91.636,10.39-149,10.39h-0.009c-58.148,0-114.181-3.961-153.745-10.877c-56.786-9.947-66.795-19.865-76.469-75.715
		c-14.153-81.702-13.939-220.319,0.48-302.699c9.918-56.748,19.82-66.757,75.7-76.461c38.794-6.741,91.817-10.458,149.312-10.458
		c58.012,0,113.938,3.961,153.41,10.868c56.748,9.933,66.757,19.843,76.477,75.715C497.85,186.186,497.652,324.819,483.24,407.222"
		/>
	<path fill="#33CCFF" d="M352.886,268.62c-9.057,0.076-17.597,2.196-25.341,5.663l-32.814-46.134
		c12.2-10.213,20.06-25.049,19.986-41.618c-0.133-30.684-26.741-55.57-59.65-55.57c-32.73,0.161-59.216,25.327-59.088,56.043
		c0.086,16.583,8.076,31.315,20.36,41.504l-32.343,46.419c-7.674-3.396-16.137-5.469-25.426-5.469
		c-32.696,0.162-59.222,25.294-59.097,56.091c0.133,30.626,26.751,55.491,59.653,55.491c29.879-0.129,54.329-21.144,58.282-48.223
		l77.284-0.324c4.234,26.969,28.768,47.739,58.745,47.739c32.738-0.15,59.261-25.294,59.092-56.045
		C412.405,293.498,385.744,268.62,352.886,268.62 M294.607,316.838l-77.291,0.32c-2.083-13.341-9.137-25.127-19.425-33.644
		l32.312-46.457c7.616,3.41,15.981,5.474,24.866,5.474c0.179,0,0.36-0.002,0.541-0.003c9.112-0.031,17.65-2.153,25.386-5.667
		l32.773,46.179C303.534,291.676,296.557,303.45,294.607,316.838"/>
</g>
</svg>
