<?xml version="1.0" encoding="utf-8"?>
<!-- Generator: Adobe Illustrator 16.0.0, SVG Export Plug-In . SVG Version: 6.00 Build 0)  -->
<!DOCTYPE svg PUBLIC "-//W3C//DTD SVG 1.1//EN" "http://www.w3.org/Graphics/SVG/1.1/DTD/svg11.dtd">
<svg version="1.1" id="图层_1" xmlns="http://www.w3.org/2000/svg" xmlns:xlink="http://www.w3.org/1999/xlink" x="0px" y="0px"
	 width="512px" height="512px" viewBox="0 0 512 512" enable-background="new 0 0 512 512" xml:space="preserve">
<g>
	<path fill="#38C4F5" d="M499.037,101.802c-10.842-62.464-25.834-77.346-89.153-88.422C369.573,6.329,312.663,2.289,253.79,2.289
		c-58.359,0-112.336,3.807-151.976,10.687C39.353,23.833,24.471,38.824,13.41,102.129C-1.254,185.948-1.474,327.02,12.926,410.167
		c10.826,62.464,25.818,77.329,89.154,88.422c40.403,7.066,97.422,11.123,156.437,11.123c58.22,0,112.086-3.776,151.68-10.64
		c62.479-10.857,77.359-25.851,88.404-89.17C513.265,326.052,513.468,184.965,499.037,101.802 M483.218,407.234
		c-9.921,56.753-19.827,66.768-75.723,76.486c-38.72,6.709-91.635,10.391-148.995,10.391c-58.142,0-114.176-3.962-153.738-10.873
		c-56.784-9.952-66.799-19.874-76.471-75.723c-14.149-81.697-13.932-220.318,0.483-302.703
		c9.922-56.737,19.828-66.753,75.707-76.456c38.797-6.739,91.807-10.452,149.309-10.452c58,0,113.927,3.962,153.394,10.858
		c56.737,9.937,66.752,19.843,76.472,75.722C497.835,186.198,497.633,324.835,483.218,407.234"/>
	<path fill="#38C4F5" d="M419.063,356.728c-0.341-0.343-0.664-0.671-0.996-1.006c-0.992-1.12-2.041-2.188-3.152-3.188
		c-17.11-17.375-20.784-22.151-20.784-22.151c14.186-23.896,22.474-51.669,22.474-81.436c0-88.672-72.258-160.556-161.39-160.556
		c-89.135,0-161.391,71.883-161.391,160.556c0,88.676,72.256,160.557,161.391,160.557c29.916,0,57.834-8.242,81.855-22.354
		l22.259,21.648c0.946,1.025,1.949,1.996,2.998,2.917l1.335,1.298c0,0,0.124,0.038,0.356,0.104
		c6.726,5.271,15.189,8.421,24.396,8.421c21.866,0,39.593-17.727,39.593-39.592c0-9.482-3.337-18.184-8.895-25
		C419.093,356.873,419.08,356.802,419.063,356.728 M255.213,369.362c-66.852,0-121.043-53.91-121.043-120.417
		c0-66.506,54.192-120.419,121.043-120.419c66.848,0,121.038,53.914,121.039,120.419
		C376.252,315.452,322.061,369.362,255.213,369.362"/>
	<path fill="#38C4F5" d="M303.597,282.587h-97.373c-5.626-0.026-10.336,5.894-10.369,10.435c-0.025,4.538,4.743,9.686,10.369,9.713
		h97.373c5.627,0.024,11.658-4.435,11.692-8.973C315.323,289.217,309.224,282.613,303.597,282.587"/>
	<path fill="#38C4F5" d="M303.597,242.295l-95.173-0.196c-6.752-0.026-12.253,4.368-12.285,9.813
		c-0.04,5.451,6.695,10.5,13.443,10.53l93.696,0.025c6.751,0.024,12.253-4.368,12.286-9.815
		C315.604,247.203,310.344,242.324,303.597,242.295"/>
	<path fill="#38C4F5" d="M303.597,198.645h-94.015c-6.749-0.03-13.122,5.068-13.155,10.515c-0.039,5.45,5.403,9.89,12.151,9.918
		l95.019-0.288c6.747,0.029,12.225-3.443,12.256-8.893C315.892,204.452,310.344,198.675,303.597,198.645"/>
</g>
</svg>
