<?xml version="1.0" encoding="utf-8"?>
<!-- Generator: Adobe Illustrator 16.0.0, SVG Export Plug-In . SVG Version: 6.00 Build 0)  -->
<!DOCTYPE svg PUBLIC "-//W3C//DTD SVG 1.1//EN" "http://www.w3.org/Graphics/SVG/1.1/DTD/svg11.dtd">
<svg version="1.1"
	 id="svg2" xmlns:dc="http://purl.org/dc/elements/1.1/" xmlns:cc="http://creativecommons.org/ns#" xmlns:rdf="http://www.w3.org/1999/02/22-rdf-syntax-ns#" xmlns:svg="http://www.w3.org/2000/svg"
	 xmlns="http://www.w3.org/2000/svg" xmlns:xlink="http://www.w3.org/1999/xlink" x="0px" y="0px" width="78px" height="44px"
	 viewBox="0 0 78 44" enable-background="new 0 0 78 44" xml:space="preserve">
<g id="g12" transform="scale(0.1,0.1)">
	<path id="path22" fill="#036998" d="M26.904,395.947h725.83V0H26.904V395.947z"/>
	<path id="path24" fill="none" stroke="#FFFFFF" stroke-width="3.9999" d="M26.904,395.947h725.83V0H26.904V395.947z"/>
	<path id="path26" fill="#036998" d="M320.352,389.013h70.552V152.217h-70.552V389.013z"/>
	<path id="path28" fill="none" stroke="#FFFFFF" stroke-width="3.9999" d="M320.352,389.013h70.552V152.217h-70.552V389.013z"/>
	<path id="path30" fill="#036998" d="M390.903,389.013h70.493V152.217h-70.493V389.013z"/>
	<path id="path32" fill="none" stroke="#FFFFFF" stroke-width="3.9999" d="M390.903,389.013h70.493V152.217h-70.493V389.013z"/>
	<path id="path34" fill="#036998" d="M299.424,405.879h182.91v-16.865h-182.91V405.879z"/>
	<path id="path36" fill="none" stroke="#FFFFFF" stroke-width="3.9999" d="M299.424,405.879h182.91v-16.865h-182.91V405.879z"/>
	<path id="path38" fill="#036998" d="M290.176,422.842h201.621v-16.963H290.176V422.842z"/>
	<path id="path40" fill="none" stroke="#FFFFFF" stroke-width="3.9999" d="M290.176,422.842h201.621v-16.963H290.176V422.842z"/>
	<path id="path42" fill="#036998" d="M281.533,440h218.818v-17.158H281.533V440z"/>
	<path id="path44" fill="none" stroke="#FFFFFF" stroke-width="3.9999" d="M281.533,440h218.818v-17.158H281.533V440z"/>
	<path id="path46" fill="#036998" d="M354.536,256.709h19.087"/>
	<path id="path48" fill="none" stroke="#FFFFFF" stroke-width="3.9999" d="M354.536,256.709h19.087"/>
	<path id="path50" fill="#036998" d="M427.305,256.709h-19.082"/>
	<path id="path52" fill="none" stroke="#FFFFFF" stroke-width="3.9999" d="M427.305,256.709h-19.082"/>
	<path id="path54" fill="#036998" d="M761.992,33.574L780,71.66H0.005L17.9,33.574H761.992"/>
	<path id="path56" fill="none" stroke="#FFFFFF" stroke-width="3.9999" d="M761.992,33.574L780,71.66H0.005L17.9,33.574H761.992z"/>
	<path id="path58" fill="#036998" d="M101.387,302.344h141.177V106.992H101.387V302.344z"/>
	<path id="path60" fill="none" stroke="#FFFFFF" stroke-width="3.9999" d="M101.387,302.344h141.177V106.992H101.387V302.344z"/>
	<path id="path62" fill="#036998" d="M536.992,302.412h141.094V107.061H536.992V302.412z"/>
	<path id="path64" fill="none" stroke="#FFFFFF" stroke-width="3.9999" d="M536.992,302.412h141.094V107.061H536.992V302.412z"/>
</g>
</svg>
