<?xml version="1.0" encoding="utf-8"?>
<!-- Generator: Adobe Illustrator 16.0.0, SVG Export Plug-In . SVG Version: 6.00 Build 0)  -->
<!DOCTYPE svg PUBLIC "-//W3C//DTD SVG 1.1//EN" "http://www.w3.org/Graphics/SVG/1.1/DTD/svg11.dtd">
<svg version="1.1"
	 id="svg2" xmlns:dc="http://purl.org/dc/elements/1.1/" xmlns:cc="http://creativecommons.org/ns#" xmlns:rdf="http://www.w3.org/1999/02/22-rdf-syntax-ns#" xmlns:svg="http://www.w3.org/2000/svg"
	 xmlns="http://www.w3.org/2000/svg" xmlns:xlink="http://www.w3.org/1999/xlink" x="0px" y="0px" width="80px" height="40px"
	 viewBox="0 0 80 40" enable-background="new 0 0 80 40" xml:space="preserve">
<g id="g12" transform="scale(0.1,0.1)">
	<path id="path22" fill="#026C9B" d="M705.574,192.498l94.395-192.5H146.887L0.061,192.498H705.574"/>
	<path id="path24" fill="none" stroke="#FFFFFF" stroke-width="4" d="M705.574,192.498l94.395-192.5H146.887L0.061,192.498H705.574z
		"/>
	<path id="path26" fill="#026C9B" d="M799.998,174.675L799.968-0.002l-94.395,192.5v207.5L799.998,174.675"/>
	<path id="path28" fill="none" stroke="#FFFFFF" stroke-width="4" d="M799.998,174.675L799.968-0.002l-94.395,192.5v207.5
		L799.998,174.675z"/>
	<path id="path30" fill="#026C9B" d="M705.574,399.997v-207.5H-0.002l0.293,207.5H705.574"/>
	<path id="path32" fill="none" stroke="#FFFFFF" stroke-width="4" d="M705.574,399.997v-207.5H-0.002l0.293,207.5H705.574z"/>
	<path id="path34" fill="#026C9B" d="M74.343,367.995h42.778v-42.598H74.343V367.995z"/>
	<path id="path36" fill="none" stroke="#FFFFFF" stroke-width="4" d="M74.343,367.995h42.778v-42.598H74.343V367.995z"/>
	<path id="path38" fill="#026C9B" d="M136.033,367.995h42.783v-42.598h-42.783V367.995z"/>
	<path id="path40" fill="none" stroke="#FFFFFF" stroke-width="4" d="M136.033,367.995h42.783v-42.598h-42.783V367.995z"/>
	<path id="path42" fill="#026C9B" d="M197.727,367.995h42.778v-42.598h-42.778V367.995z"/>
	<path id="path44" fill="none" stroke="#FFFFFF" stroke-width="4" d="M197.727,367.995h42.778v-42.598h-42.778V367.995z"/>
	<path id="path46" fill="#026C9B" d="M259.407,367.995h42.671v-42.598h-42.671V367.995z"/>
	<path id="path48" fill="none" stroke="#FFFFFF" stroke-width="4" d="M259.407,367.995h42.671v-42.598h-42.671V367.995z"/>
	<path id="path50" fill="#026C9B" d="M321.101,367.995h42.656v-42.598h-42.656V367.995z"/>
	<path id="path52" fill="none" stroke="#FFFFFF" stroke-width="4" d="M321.101,367.995h42.656v-42.598h-42.656V367.995z"/>
	<path id="path54" fill="#026C9B" d="M382.791,367.995h42.793v-42.598h-42.793V367.995z"/>
	<path id="path56" fill="none" stroke="#FFFFFF" stroke-width="4" d="M382.791,367.995h42.793v-42.598h-42.793V367.995z"/>
	<path id="path58" fill="#026C9B" d="M444.49,367.995h42.783v-42.598H444.49V367.995z"/>
	<path id="path60" fill="none" stroke="#FFFFFF" stroke-width="4" d="M444.49,367.995h42.783v-42.598H444.49V367.995z"/>
	<path id="path62" fill="#026C9B" d="M506.179,367.995h42.773v-42.598h-42.773V367.995z"/>
	<path id="path64" fill="none" stroke="#FFFFFF" stroke-width="4" d="M506.179,367.995h42.773v-42.598h-42.773V367.995z"/>
	<path id="path66" fill="#026C9B" d="M567.869,367.995h42.529v-42.598h-42.529V367.995z"/>
	<path id="path68" fill="none" stroke="#FFFFFF" stroke-width="4" d="M567.869,367.995h42.529v-42.598h-42.529V367.995z"/>
	<path id="path70" fill="#FFFFFF" d="M592.839,87.595l22.021-26.152l46.992,29.658l-93.838,26.084l19.492-21.104H400.085
		l6.768-8.486H592.839"/>
	<path id="path72" fill="#FFFFFF" d="M417.976,87.498l-5.449,8.613H226.555l-19.785,18.965l-50.425-24.082l101.436-31.787
		l-25.771,28.291H417.976"/>
</g>
</svg>
