<?xml version="1.0" encoding="utf-8"?>
<!-- Generator: Adobe Illustrator 16.0.0, SVG Export Plug-In . SVG Version: 6.00 Build 0)  -->
<!DOCTYPE svg PUBLIC "-//W3C//DTD SVG 1.1//EN" "http://www.w3.org/Graphics/SVG/1.1/DTD/svg11.dtd">
<svg version="1.1"
	 id="svg2" xmlns:dc="http://purl.org/dc/elements/1.1/" xmlns:cc="http://creativecommons.org/ns#" xmlns:rdf="http://www.w3.org/1999/02/22-rdf-syntax-ns#" xmlns:svg="http://www.w3.org/2000/svg"
	 xmlns="http://www.w3.org/2000/svg" xmlns:xlink="http://www.w3.org/1999/xlink" x="0px" y="0px" width="68px" height="78px"
	 viewBox="0 0 68 78" enable-background="new 0 0 68 78" xml:space="preserve">
<g id="g12" transform="scale(0.1,0.1)">
	<path id="path22" fill="#036998" d="M15,764.995h318.687V259.292H15V764.995z"/>
	<path id="path24" fill="none" stroke="#FFFFFF" stroke-width="3.9999" d="M333.687,259.292H15v505.703h318.687"/>
	<path id="path26" fill="#036998" d="M333.687,764.995l101.807-101.24V157.891H116.787L15,259.292h318.687V764.995"/>
	<path id="path28" fill="none" stroke="#FFFFFF" stroke-width="3.9999" d="M333.687,764.995l101.807-101.24V157.891H116.787
		L15,259.292h318.687V764.995z"/>
	<path id="path30" d="M333.687,259.292l101.807-101.401"/>
	<path id="path32" fill="none" stroke="#FFFFFF" stroke-width="3.9999" d="M333.687,259.292l101.807-101.401"/>
	<path id="path34" fill="#036998" d="M20.146,456.44h310.63"/>
	<path id="path36" fill="none" stroke="#FFFFFF" stroke-width="3.9999" d="M20.146,456.44h310.63"/>
	<path id="path38" fill="#036998" d="M20.146,688.276h310.63"/>
	<path id="path40" fill="none" stroke="#FFFFFF" stroke-width="3.9999" d="M20.146,688.276h310.63"/>
	<path id="path42" fill="#036998" d="M92.598,337.671h90.542"/>
	<path id="path44" fill="none" stroke="#FFFFFF" stroke-width="3.9999" d="M92.598,337.671h90.542"/>
	<path id="path46" fill="#036998" d="M56.299,368.686h160.552v-64.472H56.299V368.686z"/>
	<path id="path48" fill="none" stroke="#FFFFFF" stroke-width="3.9999" d="M56.299,368.686h160.552v-64.472H56.299V368.686z"/>
	<path id="path50" fill="#036998" d="M664.849,15.278l-10.371,6.021H251.323l10.303-6.304L664.849,15.278"/>
	<path id="path52" fill="#036998" d="M664.888,413.354l-0.039-398.076l-10.371,7.788v399.839L664.888,413.354"/>
	<path id="path54" fill="#036998" d="M269.526,422.905h384.951V21.299H251.323v383.344L269.526,422.905"/>
	<path id="path56" fill="none" stroke="#FFFFFF" stroke-width="3.9999" d="M269.526,422.905h384.951V21.299H251.323v383.344
		L269.526,422.905z"/>
	<path id="path58" fill="none" stroke="#FFFFFF" stroke-width="3.9999" d="M623.804,21.299v231.714
		c0,16.826-13.818,13.604-13.818,13.604H294.038c0,0-12.188,1.523-12.188-12.119V21.299"/>
	<path id="path60" fill="none" stroke="#FFFFFF" stroke-width="3.9999" d="M257.554,62.354h18.203v-18.14h-18.203V62.354z"/>
	<path id="path62" fill="none" stroke="#FFFFFF" stroke-width="3.9999" d="M629.927,62.354h18.32v-18.14h-18.32V62.354z"/>
	<path id="path64" fill="#FFFFFF" d="M558.53,305.776V418.55H318.96V304.272c0-12.148,13.691-10.635,13.691-10.635h213.828
		C560.024,293.638,558.53,305.776,558.53,305.776"/>
	<path id="path66" fill="none" stroke="#036998" stroke-width="3.9999" d="M558.53,305.776V418.55H318.96V304.272
		c0-12.148,13.691-10.635,13.691-10.635h213.828C560.024,293.638,558.53,305.776,558.53,305.776z"/>
	<path id="path68" fill="none" stroke="#FFFFFF" stroke-width="3.9999" d="M623.804,422.905V305.776c0,0,1.533-12.139-12.314-12.139
		H332.983c0,0-13.828-1.514-13.828,10.635v111.269"/>
	<path id="path70" fill="#036998" d="M365.015,410.639h47.227V301.274h-47.227V410.639z"/>
	<path id="path72" fill="none" stroke="#FFFFFF" stroke-width="3.9999" d="M365.015,410.639h47.227V301.274h-47.227V410.639z"/>
	<path id="path74" fill="#FFFFFF" d="M531.753,222.964c42.9-42.832,42.9-112.349,0-155.19c-43.145-42.832-112.91-42.832-155.762,0
		c-43.008,42.842-43.008,112.358,0,155.19C418.843,265.815,488.608,265.815,531.753,222.964"/>
	<path id="path76" fill="none" stroke="#FFFFFF" stroke-width="3.9999" d="M654.478,22.803l10.518-7.505"/>
	<path id="path78" fill="none" stroke="#036998" stroke-width="5" d="M439.819,126.582l-52.773-51.475"/>
	<path id="path80" fill="#036998" d="M462.896,187.109l33.154-33.037l-35.977-4.043L462.896,187.109"/>
	<path id="path82" fill="#036998" d="M411.323,134.424l33.154-33.062l4.209,35.864L411.323,134.424"/>
	<path id="path84" fill="none" stroke="#036998" stroke-width="5" d="M524.341,213.535l-51.914-51.426"/>
	<path id="path86" fill="none" stroke="#036998" stroke-width="5" d="M462.69,133.936l38.916-37.568"/>
	<path id="path88" fill="#036998" d="M484.8,78.77l33.174,33.174l4.189-35.854L484.8,78.77"/>
	<path id="path90" fill="#036998" d="M387.222,175.737l33.457,33.032l-35.996,4.023L387.222,175.737"/>
	<path id="path92" fill="none" stroke="#036998" stroke-width="5" d="M401.792,195.537l43.535-43.252"/>
</g>
</svg>
