<?xml version="1.0" encoding="utf-8"?>
<!-- Generator: Adobe Illustrator 16.0.0, SVG Export Plug-In . SVG Version: 6.00 Build 0)  -->
<!DOCTYPE svg PUBLIC "-//W3C//DTD SVG 1.1//EN" "http://www.w3.org/Graphics/SVG/1.1/DTD/svg11.dtd">
<svg version="1.1"
	 id="svg2" xmlns:dc="http://purl.org/dc/elements/1.1/" xmlns:cc="http://creativecommons.org/ns#" xmlns:rdf="http://www.w3.org/1999/02/22-rdf-syntax-ns#" xmlns:svg="http://www.w3.org/2000/svg"
	 xmlns="http://www.w3.org/2000/svg" xmlns:xlink="http://www.w3.org/1999/xlink" x="0px" y="0px" width="68px" height="78px"
	 viewBox="0 0 68 78" enable-background="new 0 0 68 78" xml:space="preserve">
<g id="g12" transform="scale(0.1,0.1)">
	<path id="path22" fill="#FFFFFF" d="M129.658,576.635h-17.725C22.939,576.635,10,497.026,10,497.026v82.598
		c0,0,12.939,79.277,101.934,79.277h16.211"/>
	<path id="path24" fill="none" stroke="#026C9B" stroke-width="4" d="M129.658,576.635h-17.725
		C22.939,576.635,10,497.026,10,497.026v82.598c0,0,12.939,79.277,101.934,79.277h16.211"/>
	<path id="path26" fill="#026C9B" d="M110.791,764.995h397.168V76.245H110.791V764.995z"/>
	<path id="path28" fill="#026C9B" d="M110.791,76.245L186.68,15h383.047l-61.768,61.245H110.791"/>
	<path id="path30" fill="#026C9B" d="M507.959,764.995l61.768-75.449V15l-61.768,61.245V764.995"/>
	<path id="path32" fill="#026C9B" d="M110.791,764.995h397.168V76.245H110.791V764.995z"/>
	<path id="path34" fill="none" stroke="#FFFFFF" stroke-width="4" d="M110.791,764.995h397.168V76.245H110.791V764.995z"/>
	<path id="path36" fill="#026C9B" d="M110.791,76.245L186.68,15h383.047l-61.768,61.245H110.791"/>
	<path id="path38" fill="none" stroke="#FFFFFF" stroke-width="4" d="M110.791,76.245L186.68,15h383.047l-61.768,61.245H110.791z"/>
	<path id="path40" fill="#026C9B" d="M507.959,764.995l61.768-75.449V15l-61.768,61.245V764.995"/>
	<path id="path42" fill="none" stroke="#FFFFFF" stroke-width="4" d="M507.959,764.995l61.768-75.449V15l-61.768,61.245V764.995z"/>
	<path id="path44" fill="none" stroke="#FFFFFF" stroke-width="4" d="M110.791,764.995h397.168V76.245H110.791V764.995z"/>
	<path id="path46" fill="none" stroke="#FFFFFF" stroke-width="4" d="M110.791,76.245L186.68,15h383.047l-61.768,61.245H110.791z"/>
	<path id="path48" fill="none" stroke="#FFFFFF" stroke-width="4" d="M507.959,764.995l61.768-75.449V15l-61.768,61.245V764.995z"/>
	<path id="path50" fill="#FFFFFF" d="M564.512,657.28h88.535v-82.715l-88.535,0.117"/>
	<path id="path52" fill="none" stroke="#026C9B" stroke-width="4" d="M564.512,657.28h88.535v-82.715l-88.535,0.117"/>
	<path id="path54" fill="#FFFFFF" d="M126.641,192.998H25.83v82.72l88.701-0.293h10.43"/>
	<path id="path56" fill="none" stroke="#026C9B" stroke-width="4" d="M126.641,192.998H25.83v82.72l88.701-0.293h10.43"/>
	<path id="path58" fill="#FFFFFF" d="M555.117,275.425h11.816c88.975,0,103.066,79.443,103.066,79.443v-82.431
		c0,0-14.072-79.438-103.066-79.438h-19.336"/>
	<path id="path60" fill="none" stroke="#026C9B" stroke-width="4" d="M555.117,275.425h11.816
		c88.975,0,103.066,79.443,103.066,79.443v-82.431c0,0-14.072-79.438-103.066-79.438h-19.336"/>
	<path id="path62" fill="#FFFFFF" d="M670,267.769v97.754C660.371,481.596,453.379,475.62,453.379,475.62v85.586L318.203,426.655
		l135.176-134.404v85.595C453.379,377.846,663.965,383.843,670,267.769"/>
	<path id="path64" fill="none" stroke="#026C9B" stroke-width="4" d="M670,267.769v97.754
		C660.371,481.596,453.379,475.62,453.379,475.62v85.586L318.203,426.655l135.176-134.404v85.595
		C453.379,377.846,663.965,383.843,670,267.769"/>
	<path id="path66" fill="#FFFFFF" d="M10.42,584.116v-97.578c6.191-116.24,147.578-110.078,147.578-110.078V291.03l135.176,134.219
		l-135.176,134.57v-85.605C157.998,474.214,16.611,468.218,10.42,584.116"/>
	<path id="path68" fill="none" stroke="#026C9B" stroke-width="4" d="M10.42,584.116v-97.578
		c6.191-116.24,147.578-110.078,147.578-110.078V291.03l135.176,134.219l-135.176,134.57v-85.605
		C157.998,474.214,16.611,468.218,10.42,584.116"/>
</g>
</svg>
