<?xml version="1.0" encoding="utf-8"?>
<!-- Generator: Adobe Illustrator 16.0.0, SVG Export Plug-In . SVG Version: 6.00 Build 0)  -->
<!DOCTYPE svg PUBLIC "-//W3C//DTD SVG 1.1//EN" "http://www.w3.org/Graphics/SVG/1.1/DTD/svg11.dtd">
<svg version="1.1"
	 id="svg2" xmlns:dc="http://purl.org/dc/elements/1.1/" xmlns:cc="http://creativecommons.org/ns#" xmlns:rdf="http://www.w3.org/1999/02/22-rdf-syntax-ns#" xmlns:svg="http://www.w3.org/2000/svg"
	 xmlns="http://www.w3.org/2000/svg" xmlns:xlink="http://www.w3.org/1999/xlink" x="0px" y="0px" width="78px" height="72px"
	 viewBox="0 0 78 72" enable-background="new 0 0 78 72" xml:space="preserve">
<g id="g12" transform="scale(0.1,0.1)">
	<path id="path22" fill="#036998" d="M124.436,629.704h547.7V526.56h-547.7V629.704z"/>
	<path id="path24" fill="none" stroke="#FFFFFF" stroke-width="3.9999" d="M124.436,629.704h547.7V526.56h-547.7V629.704z"/>
	<path id="path26" fill="#036998" d="M764.998,432.37v104.424l-92.861,93.809V526.56H124.045"/>
	<path id="path28" fill="none" stroke="#FFFFFF" stroke-width="3.9999" d="M764.998,432.37v104.424l-92.861,93.809V526.56H124.045"
		/>
	<path id="path30" fill="#036998" d="M128.24,432.37h636.758"/>
	<path id="path32" fill="none" stroke="#FFFFFF" stroke-width="3.9999" d="M128.24,432.37h636.758"/>
	<path id="path34" fill="#036998" d="M672.136,526.56l92.861-94.189"/>
	<path id="path36" fill="none" stroke="#FFFFFF" stroke-width="3.9999" d="M672.136,526.56l92.861-94.189"/>
	<path id="path38" fill="#036998" d="M124.045,524.411h547.368v-415.42H124.045V524.411z"/>
	<path id="path40" fill="none" stroke="#FFFFFF" stroke-width="3.9999" d="M124.045,524.411h547.368v-415.42H124.045V524.411z"/>
	<path id="path42" fill="#036998" d="M671.414,524.411l93.584-93.838V14.998H217.449l-93.403,93.994h547.368V524.411"/>
	<path id="path44" fill="none" stroke="#FFFFFF" stroke-width="3.9999" d="M671.414,524.411l93.584-93.838V14.998H217.449
		l-93.403,93.994h547.368V524.411z"/>
	<path id="path46" fill="#036998" d="M171.746,476.394h451.934V157H171.746V476.394z"/>
	<path id="path48" fill="none" stroke="#FFFFFF" stroke-width="3.9999" d="M171.746,476.394h451.934V157H171.746V476.394z"/>
	<path id="path50" fill="#036998" d="M671.414,108.992l93.584-93.994"/>
	<path id="path52" fill="none" stroke="#FFFFFF" stroke-width="3.9999" d="M671.414,108.992l93.584-93.994"/>
	<path id="path54" fill="#036998" d="M645.066,704.997v-61.152H14.998l71.768-72.178h630.02V632.8L645.066,704.997"/>
	<path id="path56" fill="none" stroke="#FFFFFF" stroke-width="3.9999" d="M645.066,704.997v-61.152H14.998l71.768-72.178h630.02
		V632.8L645.066,704.997z"/>
	<path id="path58" fill="#036998" d="M14.998,704.997h630.068v-61.152H14.998V704.997z"/>
	<path id="path60" fill="none" stroke="#FFFFFF" stroke-width="3.9999" d="M14.998,704.997h630.068v-61.152H14.998V704.997z"/>
	<path id="path62" fill="#036998" d="M645.066,643.845l71.719-72.178"/>
	<path id="path64" fill="none" stroke="#FFFFFF" stroke-width="3.9999" d="M645.066,643.845l71.719-72.178"/>
	<path id="path66" fill="#036998" d="M381.628,253.074c0,0,49.395-29.102,86.133-20.127l7.881,24.297l22.881,42.724l97.842-53.408
		l-25.293-46.084l-33.037-12.979c0,0-85.781-5.576-178.457,40.84l-14.697,7.91c-88.994,53.262-131.006,128.857-131.006,128.857
		l-7.07,35.264l24.912,45.869l97.471-53.223l-23.076-42.91l-16.123-19.6c12.48-36.143,63.418-61.953,63.418-61.953L381.628,253.074"
		/>
	<path id="path68" fill="none" stroke="#FFFFFF" stroke-width="3.9999" d="M381.628,253.074c0,0,49.395-29.102,86.133-20.127
		l7.881,24.297l22.881,42.724l97.842-53.408l-25.293-46.084l-33.037-12.979c0,0-85.781-5.576-178.457,40.84l-14.697,7.91
		c-88.994,53.262-131.006,128.857-131.006,128.857l-7.07,35.264l24.912,45.869l97.471-53.223l-23.076-42.91l-16.123-19.6
		c12.48-36.143,63.418-61.953,63.418-61.953L381.628,253.074z"/>
	<path id="path70" fill="#036998" d="M307.644,348.552l-103.369,56.494"/>
	<path id="path72" fill="none" stroke="#FFFFFF" stroke-width="3.9999" d="M307.644,348.552l-103.369,56.494"/>
	<path id="path74" fill="#036998" d="M573.005,203.298l-103.33,56.504"/>
	<path id="path76" fill="none" stroke="#FFFFFF" stroke-width="3.9999" d="M573.005,203.298l-103.33,56.504"/>
</g>
</svg>
