<?xml version="1.0" encoding="utf-8"?>
<!-- Generator: Adobe Illustrator 16.0.0, SVG Export Plug-In . SVG Version: 6.00 Build 0)  -->
<!DOCTYPE svg PUBLIC "-//W3C//DTD SVG 1.1//EN" "http://www.w3.org/Graphics/SVG/1.1/DTD/svg11.dtd">
<svg version="1.1"
	 id="svg2" xmlns:dc="http://purl.org/dc/elements/1.1/" xmlns:cc="http://creativecommons.org/ns#" xmlns:rdf="http://www.w3.org/1999/02/22-rdf-syntax-ns#" xmlns:svg="http://www.w3.org/2000/svg"
	 xmlns="http://www.w3.org/2000/svg" xmlns:xlink="http://www.w3.org/1999/xlink" x="0px" y="0px" width="78px" height="42px"
	 viewBox="0 0 78 42" enable-background="new 0 0 78 42" xml:space="preserve">
<g id="g12" transform="scale(0.1,0.1)">
	
		<path id="path22" fill="none" stroke="#2B669E" stroke-width="4" stroke-linecap="round" stroke-linejoin="round" stroke-miterlimit="1" d="
		M535.093,331.375c1.152,18.398-7.207,38.886-24.063,54.15c-17.695,16.084-40.234,22.344-59.121,18.262"/>
	
		<path id="path24" fill="none" stroke="#2B669E" stroke-width="4" stroke-linecap="round" stroke-linejoin="round" stroke-miterlimit="1" d="
		M527.202,328.708c1.055,17.09-6.719,36.152-22.422,50.381c-16.426,14.922-37.441,20.742-54.961,16.982"/>
	
		<path id="path26" fill="none" stroke="#2B669E" stroke-width="4" stroke-linecap="round" stroke-linejoin="round" stroke-miterlimit="1" d="
		M519.312,326.013c0.996,15.84-6.23,33.486-20.723,46.621c-15.215,13.838-34.648,19.189-50.859,15.684"/>
	
		<path id="path28" fill="none" stroke="#2B669E" stroke-width="4" stroke-linecap="round" stroke-linejoin="round" stroke-miterlimit="1" d="
		M511.401,323.347c0.918,14.541-5.703,30.742-19.043,42.822c-13.984,12.695-31.816,17.656-46.719,14.453"/>
	
		<path id="path30" fill="none" stroke="#2B669E" stroke-width="4" stroke-linecap="round" stroke-linejoin="round" stroke-miterlimit="1" d="
		M503.511,320.662c0.84,13.271-5.215,28.017-17.344,39.043c-12.793,11.602-29.063,16.094-42.637,13.164"/>
	
		<path id="path32" fill="none" stroke="#2B669E" stroke-width="4" stroke-linecap="round" stroke-linejoin="round" stroke-miterlimit="1" d="
		M495.62,317.957c0.762,12.002-4.707,25.361-15.703,35.302c-11.504,10.469-26.211,14.541-38.457,11.904"/>
	
		<path id="path34" fill="none" stroke="#2B669E" stroke-width="4" stroke-linecap="round" stroke-linejoin="round" stroke-miterlimit="1" d="
		M487.749,315.291c0.664,10.693-4.238,22.636-14.023,31.513c-10.293,9.346-23.418,12.979-34.375,10.596"/>
	
		<path id="path36" fill="none" stroke="#2B669E" stroke-width="4" stroke-linecap="round" stroke-linejoin="round" stroke-miterlimit="1" d="
		M479.819,312.644c0.605,9.395-3.711,19.893-12.324,27.715c-9.043,8.213-20.645,11.416-30.254,9.346"/>
	<path id="path38" fill="#2B669E" d="M15,244.968v-15.664l158.813-58.13l72.363,12.437l43.408,8.428l29.795,6.182l0.737,19.941"/>
	<path id="path40" fill="none" stroke="#FFFFFF" stroke-width="4" d="M15,244.968v-15.664l158.813-58.13l72.363,12.437l43.408,8.428
		l29.795,6.182l0.737,19.941"/>
	<path id="path42" fill="#2B669E" d="M385.884,14.998c-20.166,0-36.519,7.153-36.519,15.947c0,8.809,16.353,15.957,36.519,15.957
		s36.533-7.148,36.533-15.957C422.417,22.151,406.05,14.998,385.884,14.998"/>
	<path id="path44" fill="none" stroke="#FFFFFF" stroke-width="4" d="M385.884,14.998c-20.166,0-36.519,7.153-36.519,15.947
		c0,8.809,16.353,15.957,36.519,15.957s36.533-7.148,36.533-15.957C422.417,22.151,406.05,14.998,385.884,14.998z"/>
	<path id="path46" fill="#2B669E" d="M241.758,202.6l-68.374-10.884L15,244.968l138.394,21.67l166.724-48.477l-47.935-8.164"/>
	<path id="path48" fill="none" stroke="#FFFFFF" stroke-width="4" d="M241.758,202.6l-68.374-10.884L15,244.968l138.394,21.67
		l166.724-48.477l-47.935-8.164"/>
	<path id="path50" fill="#2B669E" d="M253.276,199.783c-49.189,12.495-59.951,24.639-59.951,24.639
		c16.611,7.979,76.084-13.506,76.084-13.506l10.542-3.638L253.276,199.783"/>
	<path id="path52" fill="none" stroke="#FFFFFF" stroke-width="4" d="M253.276,199.783c-49.189,12.495-59.951,24.639-59.951,24.639
		c16.611,7.979,76.084-13.506,76.084-13.506l10.542-3.638L253.276,199.783z"/>
	<path id="path54" fill="#2B669E" d="M272.183,209.998l47.935,8.379l-166.724,48.262L15,244.968l158.384-53.252l69.126,10.615
		c-39.6,9.57-48.721,22.09-48.721,22.09c16.602,7.979,68.594-11.187,68.594-11.187l0.205-0.313l48.096-14.653l-0.005-26.455
		l-62.749,21.304l-0.698,0.264c0,0-2.91,6.655-2.91,8.921"/>
	<path id="path56" fill="none" stroke="#FFFFFF" stroke-width="4" d="M272.183,209.998l47.935,8.379l-166.724,48.262L15,244.968
		l158.384-53.252l69.126,10.615c-39.6,9.57-48.721,22.09-48.721,22.09c16.602,7.979,68.594-11.187,68.594-11.187l0.205-0.313
		l48.096-14.653l-0.005-26.455l-62.749,21.304l-0.698,0.264c0,0-2.91,6.655-2.91,8.921"/>
	<path id="path58" fill="#2B669E" d="M247.754,202.522c-0.483-0.073-1.006,0.469-1.143,1.255c-0.142,0.791,0.156,1.499,0.659,1.577
		c0.483,0.078,1.006-0.459,1.133-1.245C248.54,203.318,248.262,202.61,247.754,202.522"/>
	<path id="path60" fill="none" stroke="#FFFFFF" stroke-width="4" d="M247.754,202.522c-0.483-0.073-1.006,0.469-1.143,1.255
		c-0.142,0.791,0.156,1.499,0.659,1.577c0.483,0.078,1.006-0.459,1.133-1.245C248.54,203.318,248.262,202.61,247.754,202.522z"/>
	<path id="path62" fill="#2B669E" d="M461.558,262.966V66.536c0-18.203-33.77-32.964-75.42-32.964
		c-41.699,0-75.474,14.761-75.474,32.964v198.081"/>
	<path id="path64" fill="none" stroke="#FFFFFF" stroke-width="4" d="M461.558,262.966V66.536c0-18.203-33.77-32.964-75.42-32.964
		c-41.699,0-75.474,14.761-75.474,32.964v198.081"/>
	<path id="path66" fill="#2B669E" d="M452.905,107.654v-17.93l165.938-58.623l145.879,33.701l0.273,21.206"/>
	<path id="path68" fill="none" stroke="#FFFFFF" stroke-width="4" d="M452.905,107.654v-17.93l165.938-58.623l145.879,33.701
		l0.273,21.206"/>
	<path id="path70" fill="#2B669E" d="M506.284,115.178l-53.379-7.524l165.938-54.941l145.879,33.716l-173.828,48.696l-39.941-6.821"
		/>
	<path id="path72" fill="none" stroke="#FFFFFF" stroke-width="4" d="M506.284,115.178l-53.379-7.524l165.938-54.941l145.879,33.716
		l-173.828,48.696l-39.941-6.821"/>
	<path id="path74" fill="#2B669E" d="M551.792,128.684c36.68-9.165,50.039-27.456,50.039-27.456
		c-55.371-1.641-94.961,14.238-94.961,14.238"/>
	<path id="path76" fill="none" stroke="#FFFFFF" stroke-width="4" d="M551.792,128.684c36.68-9.165,50.039-27.456,50.039-27.456
		c-55.371-1.641-94.961,14.238-94.961,14.238"/>
	<path id="path78" fill="#2B669E" d="M554.702,127.756l-122.07,35.518c-17.5-0.84-15.234-14.976-15.234-14.976
		c-0.84-9.146,13.066-13.135,13.066-13.135l79.727-20.728"/>
	<path id="path80" fill="none" stroke="#FFFFFF" stroke-width="4" d="M554.702,127.756l-122.07,35.518
		c-17.5-0.84-15.234-14.976-15.234-14.976c-0.84-9.146,13.066-13.135,13.066-13.135l79.727-20.728"/>
	<path id="path82" fill="#2B669E" d="M512.085,114.27c-0.996,0-1.816,0.41-1.816,0.908s0.82,0.918,1.816,0.918
		c1.035,0,1.836-0.42,1.836-0.918S513.12,114.27,512.085,114.27"/>
	<path id="path84" fill="none" stroke="#FFFFFF" stroke-width="4" d="M512.085,114.27c-0.996,0-1.816,0.41-1.816,0.908
		s0.82,0.918,1.816,0.918c1.035,0,1.836-0.42,1.836-0.918S513.12,114.27,512.085,114.27z"/>
	<path id="path86" fill="#2B669E" d="M300.835,317.126c0-18.408,38.467-33.359,85.957-33.359c47.441,0,85.898,14.951,85.898,33.359
		V268.25c0-18.398-38.457-33.34-85.898-33.34c-47.49,0-85.957,14.941-85.957,33.34V317.126"/>
	<path id="path88" fill="none" stroke="#FFFFFF" stroke-width="4" d="M300.835,317.126c0-18.408,38.467-33.359,85.957-33.359
		c47.441,0,85.898,14.951,85.898,33.359V268.25c0-18.398-38.457-33.34-85.898-33.34c-47.49,0-85.957,14.941-85.957,33.34V317.126z"
		/>
	<path id="path90" fill="#2B669E" d="M386.792,283.767c-47.49,0-85.957,14.951-85.957,33.359c0,18.418,38.467,33.369,85.957,33.369
		c47.441,0,85.898-14.951,85.898-33.369C472.69,298.718,434.233,283.767,386.792,283.767"/>
	<path id="path92" fill="none" stroke="#FFFFFF" stroke-width="4" d="M386.792,283.767c-47.49,0-85.957,14.951-85.957,33.359
		c0,18.418,38.467,33.369,85.957,33.369c47.441,0,85.898-14.951,85.898-33.369C472.69,298.718,434.233,283.767,386.792,283.767z"/>
	<path id="path94" fill="#FFFFFF" d="M406.421,330.183l-7.114-10.645l26.841-6.172l-5.879,4.863l41.445,7.061l-10.41,7.803
		l-39.98-6.768L406.421,330.183"/>
	<path id="path96" fill="#FFFFFF" d="M368.657,304.412l4.834,10.947l-24.194,4.824l4.209-3.75l-40.322-6.875l9.644-7.744
		l40.107,7.52L368.657,304.412"/>
	<path id="path98" fill="#FFFFFF" d="M381.895,335.974l-27.129,7.422l-0.322-11.611l6.787,1.279l13.218-10.947l12.642,1.826
		l-13.647,10.732L381.895,335.974"/>
	<path id="path100" fill="#FFFFFF" d="M393.496,294.431l25.796-4.844l0.977,11.934l-7.422-1.641l-14.214,12.129l-12.563-2.148
		l15.171-13.174L393.496,294.431"/>
</g>
</svg>
