<?xml version="1.0" encoding="utf-8"?>
<!-- Generator: Adobe Illustrator 16.0.0, SVG Export Plug-In . SVG Version: 6.00 Build 0)  -->
<!DOCTYPE svg PUBLIC "-//W3C//DTD SVG 1.1//EN" "http://www.w3.org/Graphics/SVG/1.1/DTD/svg11.dtd">
<svg version="1.1"
	 id="svg2" xmlns:dc="http://purl.org/dc/elements/1.1/" xmlns:cc="http://creativecommons.org/ns#" xmlns:rdf="http://www.w3.org/1999/02/22-rdf-syntax-ns#" xmlns:svg="http://www.w3.org/2000/svg"
	 xmlns="http://www.w3.org/2000/svg" xmlns:xlink="http://www.w3.org/1999/xlink" x="0px" y="0px" width="45px" height="80px"
	 viewBox="0 0 45 80" enable-background="new 0 0 45 80" xml:space="preserve">
<g id="g12" transform="scale(0.1,0.1)">
	<path id="path22" fill="#036998" d="M122.007,329.019C84.155,335.649-0.005,369.937-0.005,413.926
		c0,42.93,89.248,81.973,124.917,90.684"/>
	<path id="path24" fill="none" stroke="#FFFFFF" stroke-width="3.9999" d="M122.007,329.019
		C84.155,335.649-0.005,369.937-0.005,413.926c0,42.93,89.248,81.973,124.917,90.684"/>
	<path id="path26" fill="#036998" d="M319.443,6.255c-32.969,0-154.219,115.908-187.178,238.198
		c-16.846,62.446-8.677,129.312-8.677,180.527c0,46.055-6.846,98.984,8.311,150.117c34.756,117.715,161.089,224.199,195.718,224.199
		"/>
	<path id="path28" fill="none" stroke="#FFFFFF" stroke-width="3.9999" d="M319.443,6.255
		c-32.969,0-154.219,115.908-187.178,238.198c-16.846,62.446-8.677,129.312-8.677,180.527c0,46.055-6.846,98.984,8.311,150.117
		c34.756,117.715,161.089,224.199,195.718,224.199"/>
	<path id="path30" fill="#036998" d="M336.016,800C398.828,800,450,620.976,450,400.005C450,179.16,398.828,0,336.016,0
		c-62.783,0-113.833,179.16-113.833,400.005C222.183,620.976,273.232,800,336.016,800"/>
	<path id="path32" fill="none" stroke="#FFFFFF" stroke-width="3.9999" d="M336.016,800C398.828,800,450,620.976,450,400.005
		C450,179.16,398.828,0,336.016,0c-62.783,0-113.833,179.16-113.833,400.005C222.183,620.976,273.232,800,336.016,800z"/>
	<path id="path34" fill="#036998" d="M430.742,346.196c-0.186-16.494-20.576-29.463-45.508-28.994
		c-24.961,0.449-45.391-17.861-45.078,9.766l2.793,163.599c0.313,27.52,20.313,6.25,45.254,5.684
		c24.727-0.352,44.785-14.238,44.59-30.723L430.742,346.196"/>
	<path id="path36" fill="none" stroke="#FFFFFF" stroke-width="3.9999" d="M430.742,346.196
		c-0.186-16.494-20.576-29.463-45.508-28.994c-24.961,0.449-45.391-17.861-45.078,9.766l2.793,163.599
		c0.313,27.52,20.313,6.25,45.254,5.684c24.727-0.352,44.785-14.238,44.59-30.723L430.742,346.196z"/>
	<path id="path38" fill="#036998" d="M265.82,685.996l71.641-124.316c14.102-23.613,22.656,5.625,46.309,19.707
		s36.074,37.168,27.578,51.348l-60.996,102.441c-8.281,14.18-34.531,14.258-58.184,0.176c-6.035-3.398-7.695-4.746-13.418-6.523"/>
	<path id="path40" fill="none" stroke="#FFFFFF" stroke-width="3.9999" d="M265.82,685.996l71.641-124.316
		c14.102-23.613,22.656,5.625,46.309,19.707s36.074,37.168,27.578,51.348l-60.996,102.441c-8.281,14.18-34.531,14.258-58.184,0.176
		c-6.035-3.398-7.695-4.746-13.418-6.523"/>
	<path id="path42" fill="#036998" d="M238.789,571.855c8.887,14.219,14.131,22.5,25.117,22.5c34.609,0,62.754-80.918,62.754-180.429
		c0-99.741-28.145-180.415-62.754-180.415c-14.551,0-22.559,13.867-33.184,37.31"/>
	<path id="path44" fill="none" stroke="#FFFFFF" stroke-width="3.9999" d="M238.789,571.855c8.887,14.219,14.131,22.5,25.117,22.5
		c34.609,0,62.754-80.918,62.754-180.429c0-99.741-28.145-180.415-62.754-180.415c-14.551,0-22.559,13.867-33.184,37.31"/>
	<path id="path46" fill="#036998" d="M230.508,502.539h24.98c49.141,0,50-39.766,50-88.613c0-49.067-0.859-88.833-50-88.833h-25.352
		"/>
	<path id="path48" fill="none" stroke="#FFFFFF" stroke-width="3.9999" d="M230.508,502.539h24.98c49.141,0,50-39.766,50-88.613
		c0-49.067-0.859-88.833-50-88.833h-25.352"/>
	<path id="path50" fill="#036998" d="M269.473,103.896l67.988,114.99c14.102,23.735,22.656-5.625,46.309-19.707
		c23.652-14.077,36.074-37.046,27.578-51.226L350.352,45.386C342.07,31.221,318.77,30,295.117,44.077"/>
	<path id="path52" fill="none" stroke="#FFFFFF" stroke-width="3.9999" d="M269.473,103.896l67.988,114.99
		c14.102,23.735,22.656-5.625,46.309-19.707c23.652-14.077,36.074-37.046,27.578-51.226L350.352,45.386
		C342.07,31.221,318.77,30,295.117,44.077"/>
</g>
</svg>
