<?xml version="1.0" encoding="utf-8"?>
<!-- Generator: Adobe Illustrator 16.0.0, SVG Export Plug-In . SVG Version: 6.00 Build 0)  -->
<!DOCTYPE svg PUBLIC "-//W3C//DTD SVG 1.1//EN" "http://www.w3.org/Graphics/SVG/1.1/DTD/svg11.dtd">
<svg version="1.1"
	 id="图层_1" xmlns:dc="http://purl.org/dc/elements/1.1/" xmlns:cc="http://creativecommons.org/ns#" xmlns:rdf="http://www.w3.org/1999/02/22-rdf-syntax-ns#"
	 xmlns="http://www.w3.org/2000/svg" xmlns:xlink="http://www.w3.org/1999/xlink" x="0px" y="0px" width="57px" height="75px"
	 viewBox="0 0 57 75" enable-background="new 0 0 57 75" xml:space="preserve">
<path fill="#00BCF2" d="M28.535,0C13.121,0,0.625,4.019,0.142,9.037h-0.07V65.18C0.045,65.339,0,65.518,0,65.678
	c0,0.102,0.062,0.187,0.071,0.285C0.554,70.979,13.051,75,28.464,75c15.414,0,27.909-4.021,28.393-9.037H57V9.037h-0.07
	C56.444,4.019,43.949,0,28.535,0L28.535,0z M28.891,4.341c11.948,0,21.632,2.624,21.632,5.835c0,3.21-9.684,5.835-21.632,5.835
	c-11.949,0-21.633-2.625-21.633-5.835C7.259,6.965,16.941,4.341,28.891,4.341z M9.392,34.013h7.829c1.772,0,3.121,0.088,4.055,0.284
	c1.308,0.271,2.422,0.785,3.346,1.494c1.204,0.914,2.106,2.063,2.704,3.486c0.598,1.423,0.925,3.08,0.925,4.91
	c0,1.559-0.235,2.922-0.641,4.127c-0.404,1.203-0.933,2.199-1.565,2.987c-0.633,0.789-1.312,1.397-2.063,1.851
	c-0.753,0.453-1.642,0.834-2.705,1.067s-2.319,0.355-3.699,0.355H9.392V34.013L9.392,34.013z M32.307,34.013h8.54
	c1.741,0,3.145,0.225,4.196,0.64c1.056,0.415,1.896,1.059,2.49,1.922c0.598,0.863,0.854,1.762,0.854,2.702
	c0,0.879-0.254,1.718-0.783,2.49c-0.528,0.774-1.351,1.375-2.42,1.852c1.381,0.363,2.461,0.974,3.203,1.85
	c0.741,0.879,1.139,1.938,1.139,3.133c0,0.961-0.26,1.877-0.713,2.703c-0.451,0.826-0.972,1.475-1.637,1.922
	c-0.664,0.446-1.488,0.768-2.49,0.996c-1.002,0.228-2.246,0.354-3.699,0.354h-8.683V34.013H32.307z M12.382,36.432v15.726h4.84
	c1.504,0,2.7-0.176,3.558-0.428c0.856-0.252,1.555-0.609,2.063-1.066c0.717-0.645,1.309-1.475,1.709-2.563
	c0.399-1.086,0.569-2.436,0.569-3.984c-0.001-2.146-0.428-3.758-1.21-4.91c-0.785-1.15-1.727-1.955-2.848-2.348
	c-0.811-0.28-2.118-0.427-3.913-0.427H12.382z M35.295,36.432v6.19h4.91c1.339,0,2.337-0.056,2.919-0.213
	c0.768-0.206,1.318-0.521,1.707-0.997s0.568-1.061,0.568-1.778c0-0.682-0.135-1.333-0.498-1.85
	c-0.362-0.519-0.892-0.877-1.564-1.068c-0.674-0.19-1.848-0.284-3.486-0.284H35.295L35.295,36.432z M35.295,45.042v7.116h5.692
	c0.977,0,1.671-0.077,2.064-0.143c0.694-0.113,1.24-0.309,1.707-0.57c0.467-0.26,0.838-0.639,1.139-1.139
	c0.302-0.498,0.498-1.054,0.498-1.707c0-0.766-0.205-1.428-0.641-1.992c-0.438-0.564-1.077-0.98-1.852-1.211
	c-0.771-0.229-1.891-0.354-3.344-0.354H35.295L35.295,45.042z"/>
</svg>
