<?xml version="1.0" encoding="utf-8"?>
<!-- Generator: Adobe Illustrator 16.0.0, SVG Export Plug-In . SVG Version: 6.00 Build 0)  -->
<!DOCTYPE svg PUBLIC "-//W3C//DTD SVG 1.1//EN" "http://www.w3.org/Graphics/SVG/1.1/DTD/svg11.dtd">
<svg version="1.1"
	 id="图层_1" xmlns:dc="http://purl.org/dc/elements/1.1/" xmlns:cc="http://creativecommons.org/ns#" xmlns:rdf="http://www.w3.org/1999/02/22-rdf-syntax-ns#"
	 xmlns="http://www.w3.org/2000/svg" xmlns:xlink="http://www.w3.org/1999/xlink" x="0px" y="0px" width="75px" height="75px"
	 viewBox="0 0 75 75" enable-background="new 0 0 75 75" xml:space="preserve">
<path fill="#00BCF2" d="M33.16,74.869c-3.452-0.688-6.433-3.049-7.882-6.244c-0.638-1.406-0.909-2.735-0.904-4.43
	c0.012-4.868,3.074-8.933,7.83-10.399c0.876-0.27,1.454-0.341,2.797-0.344c0.932-0.002,1.959,0.047,2.282,0.109l0.59,0.113
	l0.724-1.406c1.48-2.875,3.787-5.132,6.77-6.625c2.46-1.232,4.005-1.592,6.861-1.592c2.001,0,2.465,0.05,3.755,0.391
	c5.572,1.478,9.917,5.85,11.283,11.36c0.342,1.381,0.513,4.475,0.314,5.688l-0.137,0.828l0.781,0.175
	c1.956,0.438,3.643,1.806,4.507,3.648c0.854,1.824,0.697,4.185-0.391,5.908c-0.557,0.881-1.646,1.858-2.554,2.293
	c-0.467,0.225-0.962,0.467-1.103,0.54C68.368,75.049,33.997,75.034,33.16,74.869L33.16,74.869z M68.893,72.834
	c0.967-0.48,1.924-1.556,2.321-2.608c0.824-2.185-0.275-4.723-2.47-5.7c-0.555-0.246-0.969-0.304-2.124-0.292
	c-0.79,0.008-1.436-0.043-1.436-0.111c0-0.067,0.146-0.708,0.325-1.424c0.459-1.829,0.454-4.746-0.011-6.526
	c-1.023-3.929-3.679-7.204-7.309-9.021c-1.596-0.798-3.113-1.164-5.188-1.247c-3.068-0.126-5.21,0.357-7.57,1.708
	c-2.754,1.575-5.127,4.43-6.046,7.271c-0.178,0.547-0.392,0.993-0.478,0.992s-0.586-0.143-1.111-0.316
	c-1.465-0.482-3.962-0.453-5.424,0.063c-1.471,0.521-2.53,1.187-3.633,2.286c-1.653,1.648-2.571,3.894-2.571,6.288
	c0,3.558,1.959,6.677,5.147,8.192c1.833,0.872,1.199,0.845,19.805,0.815l17.08-0.025L68.893,72.834L68.893,72.834z M19.614,65.949
	c-6.179-0.837-10.935-2.389-14.454-4.715c-1.451-0.959-2.454-2.032-3.019-3.233l-0.421-0.894L1.76,32.896l0.039-24.21l0.352-0.66
	c0.889-1.667,2.621-3.09,5.38-4.417c3.488-1.679,7.51-2.728,13.115-3.422c2.308-0.286,10.146-0.235,12.515,0.081
	C41.883,1.432,48.652,4.282,50.811,7.7c0.85,1.347,0.827,0.858,0.827,18.458v16.16l-0.478,0.073
	c-0.264,0.041-0.86,0.115-1.325,0.165c-4.805,0.513-9.785,3.834-12.339,8.225l-0.523,0.899l-2.053,0.097
	c-2.428,0.114-3.664,0.426-5.509,1.385c-3.168,1.647-5.432,4.503-6.355,8.015c-0.255,0.972-0.331,1.675-0.336,3.129l-0.01,1.878
	l-0.813-0.018c-0.448-0.01-1.477-0.106-2.287-0.217H19.614z M32.175,43.635c-1.159-0.983-2.161-1.836-2.228-1.895
	c-0.066-0.059,0.175-0.279,0.535-0.49c0.799-0.468,1.828-1.59,2.265-2.467c1.068-2.146,1.044-4.815-0.062-6.939
	c-1.216-2.336-3.761-3.562-6.645-3.199c-1.578,0.198-2.567,0.641-3.611,1.617c-1.646,1.54-2.216,3.051-2.129,5.645
	c0.049,1.475,0.102,1.739,0.523,2.635c0.907,1.927,2.805,3.366,4.738,3.595c0.727,0.086,0.791,0.135,2.235,1.688l1.487,1.6h2.499
	h2.499L32.175,43.635L32.175,43.635z M25.87,38.613c-1.013-0.514-1.397-1.394-1.397-3.199c0-1.174,0.057-1.517,0.346-2.104
	c0.461-0.938,1.382-1.501,2.285-1.399c0.888,0.1,1.35,0.459,1.819,1.416c0.356,0.726,0.408,1.001,0.404,2.158
	c0,1.426-0.257,2.157-0.975,2.824C27.603,39.006,26.831,39.101,25.87,38.613L25.87,38.613z M15.682,42.031
	c2.662-0.615,4.109-2.845,3.342-5.153c-0.386-1.162-1.202-1.889-3.195-2.843c-0.92-0.44-1.743-0.892-1.829-1.001
	c-0.335-0.431-0.334-0.716,0-1.107c0.519-0.603,1.699-0.631,3.298-0.081l1.219,0.42l-0.042-1.627l-0.042-1.627l-0.81-0.192
	c-1.225-0.291-3.872-0.277-4.913,0.026c-2.088,0.608-3.188,1.973-3.182,3.946c0.01,2.031,0.922,2.994,4.144,4.361
	c1.363,0.577,1.519,1.66,0.301,2.082c-0.564,0.196-0.725,0.193-1.617-0.038c-0.544-0.142-1.372-0.453-1.837-0.695l-0.847-0.438
	v1.762v1.762l0.847,0.235c0.466,0.13,0.913,0.26,0.994,0.287c0.336,0.117,3.583,0.056,4.166-0.078H15.682z M44.129,40.49v-1.545
	h-2.355h-2.355v-5.081v-5.08h-1.914h-1.915v6.626v6.626h4.271h4.27V40.49L44.129,40.49z M32.792,13.981
	c3.839-0.445,6.991-1.25,8.982-2.295c1.308-0.686,1.622-0.933,2.125-1.674c1.555-2.292-1.928-4.597-8.677-5.742
	C28.88,3.195,20.523,3.438,15.174,4.855c-11.037,2.923-6.686,8.293,7.577,9.353C25.092,14.381,30.368,14.262,32.792,13.981z"/>
</svg>
