<?xml version="1.0" encoding="utf-8"?>
<!-- Generator: Adobe Illustrator 16.0.0, SVG Export Plug-In . SVG Version: 6.00 Build 0)  -->
<!DOCTYPE svg PUBLIC "-//W3C//DTD SVG 1.1//EN" "http://www.w3.org/Graphics/SVG/1.1/DTD/svg11.dtd">
<svg version="1.1"
	 id="图层_1" xmlns:dc="http://purl.org/dc/elements/1.1/" xmlns:cc="http://creativecommons.org/ns#" xmlns:rdf="http://www.w3.org/1999/02/22-rdf-syntax-ns#"
	 xmlns="http://www.w3.org/2000/svg" xmlns:xlink="http://www.w3.org/1999/xlink" x="0px" y="0px" width="57px" height="76px"
	 viewBox="0 0 57 76" enable-background="new 0 0 57 76" xml:space="preserve">
<path fill="#00BCF2" d="M23.979,75.952C16.857,75.438,9.82,73.649,5.504,71.25c-2.459-1.365-4.332-3.044-5.067-4.538L0,65.821
	v-27.91V9.999l0.347-0.702c1.546-3.136,6.481-5.964,13.372-7.66c2.339-0.576,5.715-1.149,8.469-1.439
	C25-0.099,32.456-0.053,35.262,0.276c7.454,0.875,13.8,2.834,17.71,5.469c1.507,1.017,3.056,2.642,3.579,3.762L57,10.467
	l-0.038,27.827L56.925,66.12l-0.36,0.734c-0.2,0.401-0.799,1.193-1.334,1.76c-3.251,3.441-10.225,5.99-19.373,7.075
	C33.992,75.911,25.893,76.089,23.979,75.952L23.979,75.952z M37.103,52.036c-0.028-0.071-1.095-1.021-2.366-2.105
	c-1.273-1.088-2.371-2.026-2.438-2.09s0.168-0.283,0.523-0.491s1.032-0.785,1.51-1.285c1.391-1.458,2.047-3.258,2.047-5.617
	c0-2.321-0.705-4.196-2.126-5.625c-1.429-1.442-3.068-2.061-5.46-2.061c-3.685,0-6.513,2.148-7.417,5.63
	c-0.312,1.197-0.31,3.616,0.002,4.679c0.815,2.77,3.033,4.782,5.793,5.255c0.934,0.158,1.061,0.229,1.698,0.925
	c0.378,0.412,1.157,1.238,1.725,1.833l1.038,1.082h2.76C35.911,52.165,37.13,52.105,37.103,52.036L37.103,52.036z M27.64,44.317
	c-0.663-0.347-0.915-0.615-1.294-1.385c-0.292-0.595-0.342-0.931-0.346-2.336c-0.003-1.426,0.042-1.735,0.348-2.354
	c0.5-1.016,1.188-1.496,2.254-1.573c1.483-0.106,2.34,0.619,2.787,2.367c0.55,2.144-0.055,4.421-1.373,5.177
	C29.322,44.61,28.29,44.654,27.64,44.317L27.64,44.317z M15.41,48.295c2.893-0.549,4.535-2.23,4.535-4.643
	c0-2.141-1.06-3.388-3.992-4.694c-1.676-0.748-2.284-1.217-2.284-1.766c0-0.455,0.576-0.952,1.247-1.078
	c0.655-0.122,2.393,0.18,3.42,0.594l0.861,0.348v-1.903V33.25l-0.935-0.208c-0.576-0.127-1.79-0.204-3.174-0.2
	c-1.961,0-2.346,0.047-3.084,0.34c-2.156,0.855-3.18,2.312-3.163,4.505c0.015,2.05,1.098,3.331,3.795,4.482
	c1.591,0.68,2.229,1.197,2.229,1.81c0,1.298-2.167,1.457-4.461,0.328c-0.628-0.311-1.192-0.588-1.255-0.619
	c-0.062-0.03-0.112,0.858-0.112,1.975c0,2.021,0.003,2.033,0.369,2.173C10.787,48.359,13.837,48.593,15.41,48.295z M48.482,46.419
	v-1.718h-2.615h-2.614v-5.895v-5.896h-2.316h-2.315v7.612v7.612h4.931h4.931V46.419L48.482,46.419z M32.347,16.338
	c4.602-0.318,8.052-0.921,11.087-1.935c3.024-1.01,4.811-2.233,5.21-3.566c0.152-0.513,0.143-0.708-0.071-1.271
	c-0.966-2.524-6.354-4.462-14.591-5.249c-3.522-0.336-9.931-0.227-13.288,0.227c-5.126,0.692-9.286,1.977-11.135,3.439
	c-3.741,2.96,0.215,6.215,9.416,7.748C22.963,16.396,28.132,16.631,32.347,16.338L32.347,16.338z"/>
</svg>
