<?xml version="1.0" encoding="utf-8"?>
<!-- Generator: Adobe Illustrator 16.0.0, SVG Export Plug-In . SVG Version: 6.00 Build 0)  -->
<!DOCTYPE svg PUBLIC "-//W3C//DTD SVG 1.1//EN" "http://www.w3.org/Graphics/SVG/1.1/DTD/svg11.dtd">
<svg version="1.1"
	 id="图层_1" xmlns:dc="http://purl.org/dc/elements/1.1/" xmlns:cc="http://creativecommons.org/ns#" xmlns:rdf="http://www.w3.org/1999/02/22-rdf-syntax-ns#"
	 xmlns="http://www.w3.org/2000/svg" xmlns:xlink="http://www.w3.org/1999/xlink" x="0px" y="0px" width="59px" height="77px"
	 viewBox="0 0 59 77" enable-background="new 0 0 59 77" xml:space="preserve">
<path fill="#00BCF2" d="M21.584,76.815c-6.957-0.947-13.004-2.959-17.065-5.673c-1.571-1.05-3.324-2.841-3.988-4.071L0,66.087
	V38.185V10.283l0.422-0.902C0.986,8.18,2.915,6.307,4.621,5.303c4.268-2.512,10.518-4.274,18.1-5.105
	c2.423-0.265,11.083-0.264,13.328,0.002c8.373,0.995,14.615,2.886,18.92,5.734c1.453,0.962,2.99,2.542,3.522,3.621l0.431,0.877
	l0.037,28.188L59,66.811l-0.384,0.837c-1.856,4.041-9.025,7.361-19.389,8.971c-1.909,0.298-2.807,0.333-9.085,0.372
	C24.748,77.022,22.816,76.981,21.584,76.815L21.584,76.815z M32.492,60.797c0.791-0.119,1.813-0.328,2.271-0.461
	c1.015-0.293,4.09-1.738,4.09-1.922c0-0.073-0.658-0.941-1.461-1.93l-1.465-1.797l-0.901,0.453c-2.093,1.055-4.894,1.405-7.289,0.91
	c-4.228-0.873-7.692-3.953-8.972-7.977c-0.425-1.336-0.698-3.486-0.567-4.48l0.093-0.717l3.536-0.039l3.535-0.041l-4.172-5.066
	c-2.294-2.787-4.27-5.167-4.39-5.29c-0.191-0.196-0.873,0.429-5.518,5.067l-5.299,5.289l3.739,0.074l3.738,0.076l-0.035,0.982
	c-0.049,1.381,0.25,3.623,0.685,5.143C16.381,56.991,24.306,62.048,32.492,60.797L32.492,60.797z M49.834,45.932l-3.257-0.042
	v-1.317c0-5.303-2.469-10.202-6.735-13.381c-2.498-1.862-5.01-2.818-8.298-3.16c-3.085-0.321-5.823,0.162-8.72,1.539l-1.564,0.744
	l1.539,1.892l1.538,1.89l0.759-0.385c2.09-1.057,5.56-1.364,7.896-0.698c4.175,1.189,7.302,4.292,8.433,8.368
	c0.354,1.275,0.546,3.182,0.399,3.966l-0.106,0.546l-4.07,0.041l-4.07,0.037l4.408,5.342l4.407,5.34l5.349-5.34l5.352-5.342
	L49.834,45.932L49.834,45.932z M36.268,16.333c8.506-0.873,14.12-3.214,14.12-5.888c0-1.647-1.668-2.963-5.29-4.171
	c-9.421-3.145-26.354-2.68-33.51,0.917c-1.463,0.737-2.091,1.213-2.609,1.985c-0.474,0.706-0.551,1.548-0.203,2.22
	c1.304,2.52,7.739,4.538,16.444,5.159C27.7,16.731,33.51,16.614,36.268,16.333L36.268,16.333z"/>
</svg>
