<?xml version="1.0" encoding="utf-8"?>
<!-- Generator: Adobe Illustrator 16.0.0, SVG Export Plug-In . SVG Version: 6.00 Build 0)  -->
<!DOCTYPE svg PUBLIC "-//W3C//DTD SVG 1.1//EN" "http://www.w3.org/Graphics/SVG/1.1/DTD/svg11.dtd">
<svg version="1.1"
	 id="图层_1" xmlns:dc="http://purl.org/dc/elements/1.1/" xmlns:cc="http://creativecommons.org/ns#" xmlns:rdf="http://www.w3.org/1999/02/22-rdf-syntax-ns#"
	 xmlns="http://www.w3.org/2000/svg" xmlns:xlink="http://www.w3.org/1999/xlink" x="0px" y="0px" width="60px" height="77px"
	 viewBox="0 0 60 77" enable-background="new 0 0 60 77" xml:space="preserve">
<path fill="#00BCF2" d="M18,76.897c-1.514-0.132-5.104-0.702-6.478-1.026c-3.152-0.749-6.185-2.094-8.013-3.547
	c-1.138-0.906-2.348-2.497-2.847-3.742c-0.214-0.533-0.447-1.55-0.538-2.342C0.017,65.288-0.021,56.112,0.01,37.58l0.045-27.261
	l0.542-1.137c2.098-4.401,9.28-7.63,19.665-8.844c2.703-0.315,9.411-0.445,12.23-0.236c8.604,0.637,15.673,2.626,20.314,5.715
	c1.323,0.882,2.921,2.443,3.465,3.392c0.835,1.456,0.825,1.202,0.743,15.42c-0.041,7.206-0.116,13.098-0.166,13.093
	c-0.052-0.004-2.298-2.075-4.994-4.598l-4.9-4.589l-13.458-0.008l-13.46-0.007v24.243V77l-0.715-0.026
	C18.926,76.96,18.333,76.925,18,76.897L18,76.897z M31.948,16.584c7.43-0.447,12.808-1.837,15.109-3.908
	c0.924-0.83,1.178-1.315,1.178-2.265c0-0.614-0.09-0.87-0.495-1.404c-1.64-2.171-6.217-3.742-13.228-4.533
	c-2.652-0.3-11.094-0.248-13.948,0.085c-4.608,0.538-8.006,1.287-10.48,2.309C8.51,7.52,7.914,7.867,7.168,8.566
	c-2.16,2.03-0.866,4.079,3.624,5.736c2.673,0.988,6.949,1.805,11.129,2.126C26.174,16.758,28.478,16.793,31.948,16.584z
	 M22.901,54.194V31.388h10.902h10.902l7.607,6.391l7.61,6.39l0.038,16.417L60,77H41.448H22.901V54.194L22.901,54.194z
	 M56.981,59.933V45.735h-5.655h-5.654v-5.74v-5.739H35.72h-9.954v19.938V74.13h15.607h15.609L56.981,59.933L56.981,59.933z
	 M30.592,63.18v-1.434h4.373h4.374v1.434v1.434h-4.374h-4.373V63.18z M42.053,63.18v-1.434h4.298h4.297v1.434v1.434h-4.297h-4.298
	V63.18z M30.657,58.825c-0.043-0.11-0.059-0.774-0.035-1.474l0.047-1.271l4.341-0.041l4.339-0.038l-0.043,1.473l-0.044,1.478
	l-4.263,0.038C31.532,59.025,30.722,58.991,30.657,58.825L30.657,58.825z M42.153,58.926c-0.056-0.057-0.101-0.734-0.101-1.511
	v-1.409h4.298h4.297v1.51v1.512H46.45C44.143,59.027,42.21,58.981,42.153,58.926L42.153,58.926z M30.657,53.087
	c-0.043-0.112-0.059-0.773-0.035-1.474l0.047-1.271l4.335-0.039l4.333-0.041v1.516v1.512h-4.302
	C31.588,53.287,30.719,53.247,30.657,53.087L30.657,53.087z M42.053,51.777v-1.513h4.298h4.297v1.513v1.51h-4.297h-4.298V51.777z
	 M30.657,47.348c-0.043-0.111-0.059-0.774-0.035-1.475l0.047-1.271h4.295h4.298l0.044,1.476l0.043,1.472h-4.308
	C31.589,47.547,30.719,47.508,30.657,47.348L30.657,47.348z M30.592,40.375v-1.436h4.373h4.374v1.436v1.434h-4.374h-4.373V40.375z"
	/>
</svg>
