<?xml version="1.0" encoding="utf-8"?>
<!-- Generator: Adobe Illustrator 16.0.0, SVG Export Plug-In . SVG Version: 6.00 Build 0)  -->
<!DOCTYPE svg PUBLIC "-//W3C//DTD SVG 1.1//EN" "http://www.w3.org/Graphics/SVG/1.1/DTD/svg11.dtd">
<svg version="1.1"
	 id="svg2" xmlns:dc="http://purl.org/dc/elements/1.1/" xmlns:cc="http://creativecommons.org/ns#" xmlns:rdf="http://www.w3.org/1999/02/22-rdf-syntax-ns#" xmlns:svg="http://www.w3.org/2000/svg"
	 xmlns="http://www.w3.org/2000/svg" xmlns:xlink="http://www.w3.org/1999/xlink" x="0px" y="0px" width="76px" height="55px"
	 viewBox="0 0 76 55" enable-background="new 0 0 76 55" xml:space="preserve">
<g id="g12" transform="scale(0.1,0.1)">
	<path id="path14" fill="#1089C2" d="M741.653-0.005l18.35,23.623l-62.48,313.916l-22.695-13.769L741.653-0.005"/>
	<path id="path16" fill="none" stroke="#FFFFFF" stroke-width="4" d="M741.653-0.005l18.35,23.623l-62.48,313.916l-22.695-13.769
		L741.653-0.005z"/>
	<path id="path18" fill="#1089C2" d="M679.182,345.62v47.822l-12.432,10.654c0,0-28.994,8.652-22.49,25.781L514.954,549.995v-52.578
		L679.182,345.62"/>
	<path id="path20" fill="none" stroke="#FFFFFF" stroke-width="4" d="M679.182,345.62v47.822l-12.432,10.654
		c0,0-28.994,8.652-22.49,25.781L514.954,549.995v-52.578L679.182,345.62z"/>
	<path id="path22" fill="#1089C2" d="M0.002,549.995h514.951v-52.578H0.002V549.995z"/>
	<path id="path24" fill="none" stroke="#FFFFFF" stroke-width="4" d="M0.002,497.417v52.578h514.951v-52.578H0.002"/>
	<path id="path26" fill="#1089C2" d="M205.623,348.96l473.56-3.34L514.954,497.417H0.002L205.623,348.96"/>
	<path id="path28" fill="none" stroke="#FFFFFF" stroke-width="4" d="M205.623,348.96l473.56-3.34L514.954,497.417H0.002
		L205.623,348.96z"/>
	<path id="path30" fill="#1089C2" d="M674.827,323.765l66.826-323.77H274.622l-74.331,323.77H674.827"/>
	<path id="path32" fill="none" stroke="#FFFFFF" stroke-width="4" d="M674.827,323.765l66.826-323.77H274.622l-74.331,323.77
		H674.827z"/>
	<path id="path34" fill="#FFFFFF" d="M635.286,292.28L689.68,38.413H309.915L255.417,292.28H635.286"/>
	<path id="path36" fill="none" stroke="#FFFFFF" stroke-width="4" d="M635.286,292.28L689.68,38.413H309.915L255.417,292.28H635.286
		z"/>
	<path id="path38" fill="none" stroke="#FFFFFF" stroke-linejoin="round" d="M216.746,352.202L97.297,448.53"/>
	<path id="path40" fill="none" stroke="#FFFFFF" stroke-linejoin="round" d="M255.071,352.202L135.71,448.53"/>
	<path id="path42" fill="none" stroke="#FFFFFF" stroke-linejoin="round" d="M293.489,352.202L174.026,448.53"/>
	<path id="path44" fill="none" stroke="#FFFFFF" stroke-linejoin="round" d="M331.799,352.202L212.351,448.53"/>
	<path id="path46" fill="none" stroke="#FFFFFF" stroke-linejoin="round" d="M370.217,352.202L250.764,448.53"/>
	<path id="path48" fill="none" stroke="#FFFFFF" stroke-linejoin="round" d="M408.43,352.202L289.075,448.53"/>
	<path id="path50" fill="none" stroke="#FFFFFF" stroke-linejoin="round" d="M446.848,352.202L327.395,448.53"/>
	<path id="path52" fill="none" stroke="#FFFFFF" stroke-linejoin="round" d="M485.276,352.202L365.813,448.53"/>
	<path id="path54" fill="none" stroke="#FFFFFF" stroke-linejoin="round" d="M523.489,352.202L404.241,448.53"/>
	<path id="path56" fill="none" stroke="#FFFFFF" stroke-linejoin="round" d="M561.907,352.202L442.454,448.53"/>
	<path id="path58" fill="none" stroke="#FFFFFF" stroke-linejoin="round" d="M600.325,352.202L480.872,448.53"/>
	<path id="path60" fill="none" stroke="#FFFFFF" stroke-linejoin="round" d="M638.538,352.202L519.28,448.53"/>
	<path id="path62" fill="none" stroke="#FFFFFF" stroke-linejoin="round" d="M110.652,438.335h425.21"/>
	<path id="path64" fill="none" stroke="#FFFFFF" stroke-linejoin="round" d="M139.246,416.401h418.706"/>
	<path id="path66" fill="none" stroke="#FFFFFF" stroke-linejoin="round" d="M168.904,394.292h417.515"/>
	<path id="path68" fill="none" stroke="#FFFFFF" stroke-linejoin="round" d="M195.291,372.163h420.806"/>
	<g id="g70" transform="scale(10,10)">
		<text transform="matrix(1.0013 0 0 1 35.3763 21.3803)" fill="#231F20" font-family="'Arial-BoldMT'" font-size="10.5063">S</text>
		<text transform="matrix(1.0013 0 0 1 42.3958 21.3803)" fill="#231F20" font-family="'Arial-BoldMT'" font-size="10.5063">S</text>
		<text transform="matrix(1.0013 0 0 1 49.4104 21.3803)" fill="#231F20" font-family="'Arial-BoldMT'" font-size="10.5063">C</text>
	</g>
</g>
</svg>
