<?xml version="1.0" encoding="utf-8"?>
<!-- Generator: Adobe Illustrator 16.0.0, SVG Export Plug-In . SVG Version: 6.00 Build 0)  -->
<!DOCTYPE svg PUBLIC "-//W3C//DTD SVG 1.1//EN" "http://www.w3.org/Graphics/SVG/1.1/DTD/svg11.dtd">
<svg version="1.1"
	 id="svg2" xmlns:dc="http://purl.org/dc/elements/1.1/" xmlns:cc="http://creativecommons.org/ns#" xmlns:rdf="http://www.w3.org/1999/02/22-rdf-syntax-ns#" xmlns:svg="http://www.w3.org/2000/svg"
	 xmlns="http://www.w3.org/2000/svg" xmlns:xlink="http://www.w3.org/1999/xlink" x="0px" y="0px" width="78px" height="69px"
	 viewBox="0 0 78 69" enable-background="new 0 0 78 69" xml:space="preserve">
<g id="g12" transform="scale(0.1,0.1)">
	<path id="path22" fill="#036998" d="M0,690.005l189.99-86.191H760l-190.029,86.191H0"/>
	<path id="path24" fill="none" stroke="#FFFFFF" stroke-width="3.9999" d="M0,690.005l189.99-86.191H760l-190.029,86.191H0z"/>
	<path id="path26" fill="#036998" d="M0,86.143L189.99,0v603.813L0,690.005V86.143"/>
	<path id="path28" fill="none" stroke="#FFFFFF" stroke-width="3.9999" d="M0,86.143L189.99,0v603.813L0,690.005V86.143z"/>
	<path id="path30" fill="#036998" d="M189.99,603.813H760V0H189.99V603.813z"/>
	<path id="path32" fill="none" stroke="#FFFFFF" stroke-width="3.9999" d="M189.99,603.813H760V0H189.99V603.813z"/>
	<path id="path34" fill="#036998" d="M0,86.143L189.99,0H760L569.971,86.143H0"/>
	<path id="path36" fill="none" stroke="#FFFFFF" stroke-width="3.9999" d="M0,86.143L189.99,0H760L569.971,86.143H0z"/>
	<path id="path38" fill="#036998" d="M267.93,177.031h319.268"/>
	<path id="path40" fill="none" stroke="#FFFFFF" stroke-width="3.9999" d="M267.93,177.031h319.268"/>
	<path id="path42" fill="#036998" d="M267.93,560.317h319.268"/>
	<path id="path44" fill="none" stroke="#FFFFFF" stroke-width="3.9999" d="M267.93,560.317h319.268"/>
	<path id="path46" fill="#FFFFFF" d="M422.441,340.932l125.361-38.886l-125.361-36.484V340.932"/>
	<path id="path48" fill="none" stroke="#FFFFFF" stroke-width="3.9999" d="M422.441,340.932l125.361-38.886l-125.361-36.484V340.932
		z"/>
	<path id="path50" fill="#036998" d="M569.971,86.143L760,0v603.813l-190.029,86.191V86.143"/>
	<path id="path52" fill="none" stroke="#FFFFFF" stroke-width="3.9999" d="M569.971,86.143L760,0v603.813l-190.029,86.191V86.143z"
		/>
	<path id="path54" fill="#036998" d="M664.277,181.44c19.365,0,61.709,76.025,61.709,182.295
		c0,101.465-42.344,182.422-61.709,182.422c-21.553,0-56.24-80.957-56.24-182.422C608.037,257.466,642.725,181.44,664.277,181.44"/>
	<path id="path56" fill="none" stroke="#FFFFFF" stroke-width="3.9999" d="M664.277,181.44c19.365,0,61.709,76.025,61.709,182.295
		c0,101.465-42.344,182.422-61.709,182.422c-21.553,0-56.24-80.957-56.24-182.422C608.037,257.466,642.725,181.44,664.277,181.44"/>
	<path id="path58" fill="#036998" d="M269.688,177.729c20.41,0,64.756,79.814,64.756,191.767
		c0,106.641-44.346,191.523-64.756,191.523c-22.852,0-64.805-84.883-64.805-191.523
		C204.883,257.544,246.836,177.729,269.688,177.729"/>
	<path id="path60" fill="none" stroke="#FFFFFF" stroke-width="3.9999" d="M269.688,177.729c20.41,0,64.756,79.814,64.756,191.767
		c0,106.641-44.346,191.523-64.756,191.523c-22.852,0-64.805-84.883-64.805-191.523
		C204.883,257.544,246.836,177.729,269.688,177.729"/>
	<path id="path62" fill="#036998" d="M552.754,433.344H423.135"/>
	<path id="path64" fill="none" stroke="#FFFFFF" stroke-width="10" d="M552.754,433.344H423.135"/>
	<path id="path66" fill="#036998" d="M293.848,300.864h129.277"/>
	<path id="path68" fill="none" stroke="#FFFFFF" stroke-width="10" d="M293.848,300.864h129.277"/>
	<path id="path70" fill="#FFFFFF" d="M431.26,396.841l-125.146,38.691l125.146,36.895V396.841"/>
	<path id="path72" fill="none" stroke="#FFFFFF" stroke-width="3.9999" d="M431.26,396.841l-125.146,38.691l125.146,36.895V396.841z
		"/>
</g>
</svg>
