<?xml version="1.0" encoding="utf-8"?>
<!-- Generator: Adobe Illustrator 16.0.0, SVG Export Plug-In . SVG Version: 6.00 Build 0)  -->
<!DOCTYPE svg PUBLIC "-//W3C//DTD SVG 1.1//EN" "http://www.w3.org/Graphics/SVG/1.1/DTD/svg11.dtd">
<svg version="1.1"
	 id="svg2" xmlns:dc="http://purl.org/dc/elements/1.1/" xmlns:cc="http://creativecommons.org/ns#" xmlns:rdf="http://www.w3.org/1999/02/22-rdf-syntax-ns#" xmlns:svg="http://www.w3.org/2000/svg"
	 xmlns="http://www.w3.org/2000/svg" xmlns:xlink="http://www.w3.org/1999/xlink" x="0px" y="0px" width="58px" height="80px"
	 viewBox="0 0 58 80" enable-background="new 0 0 58 80" xml:space="preserve">
<g id="g12" transform="scale(0.1,0.1)">
	<path id="path22" fill="#026C9B" d="M14.998,790.005h419.697V140.254H14.998V790.005z"/>
	<path id="path24" fill="none" stroke="#FFFFFF" stroke-width="4" d="M434.695,140.254H14.998v649.751h419.697"/>
	<path id="path26" fill="#026C9B" d="M434.695,790.005l130.303-130.273V10H181.824L14.998,140.254h419.697V790.005"/>
	<path id="path28" fill="none" stroke="#FFFFFF" stroke-width="4" d="M434.695,790.005l130.303-130.273V10H181.824L14.998,140.254
		h419.697V790.005z"/>
	<path id="path30" fill="#026C9B" d="M434.695,140.254L564.998,10"/>
	<path id="path32" fill="none" stroke="#FFFFFF" stroke-width="4" d="M434.695,140.254L564.998,10"/>
	<path id="path34" fill="#026C9B" d="M223.347,140.254v649.751"/>
	<path id="path36" fill="none" stroke="#FFFFFF" stroke-width="4" d="M223.347,140.254v649.751"/>
	<path id="path38" fill="#026C9B" d="M230.095,140.254L371.638,10"/>
	<path id="path40" fill="none" stroke="#FFFFFF" stroke-width="4" d="M230.095,140.254L371.638,10"/>
	<path id="path42" fill="#026C9B" d="M51.453,285.708H192.38v-86.104H51.453V285.708z"/>
	<path id="path44" fill="none" stroke="#FFFFFF" stroke-width="4" d="M51.453,285.708H192.38v-86.104H51.453V285.708z"/>
	<path id="path46" fill="#026C9B" d="M253.445,285.708h140.928v-86.104H253.445V285.708z"/>
	<path id="path48" fill="none" stroke="#FFFFFF" stroke-width="4" d="M253.445,285.708h140.928v-86.104H253.445V285.708z"/>
	<path id="path50" fill="#026C9B" d="M51.453,603.559H192.38v-86.094H51.453V603.559z"/>
	<path id="path52" fill="none" stroke="#FFFFFF" stroke-width="4" d="M51.453,603.559H192.38v-86.094H51.453V603.559z"/>
	<path id="path54" fill="#026C9B" d="M253.445,603.559h140.928v-86.094H253.445V603.559z"/>
	<path id="path56" fill="none" stroke="#FFFFFF" stroke-width="4" d="M253.445,603.559h140.928v-86.094H253.445V603.559z"/>
	<path id="path58" fill="#026C9B" d="M51.453,742.856H192.38v-86.113H51.453V742.856z"/>
	<path id="path60" fill="none" stroke="#FFFFFF" stroke-width="4" d="M51.453,742.856H192.38v-86.113H51.453V742.856z"/>
	<path id="path62" fill="#026C9B" d="M253.445,742.856h140.928v-86.113H253.445V742.856z"/>
	<path id="path64" fill="none" stroke="#FFFFFF" stroke-width="4" d="M253.445,742.856h140.928v-86.113H253.445V742.856z"/>
</g>
</svg>
