<?xml version="1.0" encoding="utf-8"?>
<!-- Generator: Adobe Illustrator 16.0.0, SVG Export Plug-In . SVG Version: 6.00 Build 0)  -->
<!DOCTYPE svg PUBLIC "-//W3C//DTD SVG 1.1//EN" "http://www.w3.org/Graphics/SVG/1.1/DTD/svg11.dtd">
<svg version="1.1"
	 id="svg2" xmlns:dc="http://purl.org/dc/elements/1.1/" xmlns:cc="http://creativecommons.org/ns#" xmlns:rdf="http://www.w3.org/1999/02/22-rdf-syntax-ns#" xmlns:svg="http://www.w3.org/2000/svg"
	 xmlns="http://www.w3.org/2000/svg" xmlns:xlink="http://www.w3.org/1999/xlink" x="0px" y="0px" width="30px" height="78px"
	 viewBox="0 0 30 78" enable-background="new 0 0 30 78" xml:space="preserve">
<g id="g12" transform="scale(0.1,0.1)">
	<path id="path22" fill="#036998" d="M13.645,438.313h61.479L9.998,765.002h88.477l53.682-238.77c0,0,27.48,186.748,40.439,237.139
		c14.053,0,64.434,0,93.77,0c-5.303-21.748-54.004-298.037-56.025-327.051c7.305,0,47.09,3.623,59.658,1.992
		c0-14.502-10.938-87.93-10.938-105.879s-16.23-98.799-21.533-116.748c-4.912-15.654-36.094-39.526-52.344-44.956
		c-16.25-5.269-48.828-3.457-66.953-3.457c-18.057,0-38.027,4.468-55.996,8.887c-14.424,3.633-30.649,26.997-36.123,41.333
		c-5.483,14.316-12.578,59.287-18.052,80.674c-5.493,21.572-7.305,102.451-10.771,115.097
		C13.645,425.793,13.645,438.313,13.645,438.313"/>
	<path id="path24" fill="#FFFFFF" d="M186.277,167.751c-6.641-0.479-17.217,0-27.49-0.479c-10.273-0.664-25.371,0-32.646,0.479
		c-7.129,0.664-24.688,4.78-26.328,4.78c-1.826,0-3.174-1.143-3.174-1.143l43.418,153.115l62.441-153.115
		c-0.176-4.399-5.156-1.553-8.115-3.286"/>
	<path id="path26" fill="none" stroke="#FFFFFF" stroke-width="1.895" d="M186.277,167.751c-6.641-0.479-17.217,0-27.49-0.479
		c-10.273-0.664-25.371,0-32.646,0.479c-7.129,0.664-24.688,4.78-26.328,4.78c-1.826,0-3.174-1.143-3.174-1.143l43.418,153.115
		l62.441-153.115c-0.176-4.399-5.156-1.553-8.115-3.286"/>
	<path id="path28" fill="#FFFFFF" d="M149.333,163.606c41.27,0,74.932-33.286,74.932-74.307c0-41.011-33.662-74.297-74.932-74.297
		c-41.279,0-74.58,33.286-74.58,74.297C74.753,130.32,108.054,163.606,149.333,163.606"/>
	<path id="path30" fill="none" stroke="#036998" stroke-width="3.9999" d="M149.333,163.606c41.27,0,74.932-33.286,74.932-74.307
		c0-41.011-33.662-74.297-74.932-74.297c-41.279,0-74.58,33.286-74.58,74.297C74.753,130.32,108.054,163.606,149.333,163.606z"/>
</g>
</svg>
