<?xml version="1.0" encoding="utf-8"?>
<!-- Generator: Adobe Illustrator 16.0.0, SVG Export Plug-In . SVG Version: 6.00 Build 0)  -->
<!DOCTYPE svg PUBLIC "-//W3C//DTD SVG 1.1//EN" "http://www.w3.org/Graphics/SVG/1.1/DTD/svg11.dtd">
<svg version="1.1"
	 id="svg2" xmlns:dc="http://purl.org/dc/elements/1.1/" xmlns:cc="http://creativecommons.org/ns#" xmlns:rdf="http://www.w3.org/1999/02/22-rdf-syntax-ns#" xmlns:svg="http://www.w3.org/2000/svg"
	 xmlns="http://www.w3.org/2000/svg" xmlns:xlink="http://www.w3.org/1999/xlink" x="0px" y="0px" width="30px" height="78px"
	 viewBox="0 0 30 78" enable-background="new 0 0 30 78" xml:space="preserve">
<g id="g12" transform="scale(0.1,0.1)">
	<path id="path22" fill="#087DBD" d="M10,419.582h61.792L24.795,593.547h50.454l-4.517,176.455h25.952l40.342-176.572h23.154
		l46.152,175.732l22.344-0.518l-4.57-175.859l46.543,0.391l-42.813-175.615c7.324,0,49.512,1.484,62.168-0.195l-10.996-87.9
		c0-18.183-18.535-97.91-23.848-116.103c-4.59-15.869-36.309-40.054-52.617-45.557c-16.348-5.337-49.16-3.501-67.305-3.501
		c-18.154,0-38.232,4.526-56.299,9.004c-14.487,3.682-30.806,27.368-36.304,41.89c-5.322,14.502-12.642,60.068-18.14,81.748
		L10,419.582"/>
	<path id="path24" fill="#FFFFFF" d="M183.892,164.788c-7.051-0.483-17.676,0-27.988-0.483c-10.322-0.674-25.508,0-32.646,0.483
		c-7.334,0.674-24.814,4.844-26.65,4.844s-2.988-1.157-2.988-1.157l51.992,93.804l54.59-93.804c-0.547-4.458-5.195-1.572-8.145-3.33
		"/>
	<path id="path26" fill="none" stroke="#FFFFFF" d="M183.892,164.788c-7.051-0.483-17.676,0-27.988-0.483
		c-10.322-0.674-25.508,0-32.646,0.483c-7.334,0.674-24.814,4.844-26.65,4.844s-2.988-1.157-2.988-1.157l51.992,93.804l54.59-93.804
		c-0.547-4.458-5.195-1.572-8.145-3.33"/>
	<path id="path28" fill="none" stroke="#087DBD" stroke-width="4" d="M146.577,160.588c41.299,0,75.146-33.73,75.146-75.298
		c0-41.558-33.848-75.288-75.146-75.288c-41.484,0-75.146,33.73-75.146,75.288C71.431,126.858,105.093,160.588,146.577,160.588z"/>
	<path id="path30" fill="#087DBD" d="M69.541,74.934c0,0-15.547,53.73-45.044,51.934c0,0,35.796,24.482,65.586,8.892"/>
	<path id="path32" fill="none" stroke="#087DBD" stroke-width="4" stroke-linecap="round" stroke-linejoin="round" d="
		M69.541,74.934c0,0-15.547,53.73-45.044,51.934c0,0,35.796,24.482,65.586,8.892"/>
	<path id="path34" fill="#087DBD" d="M223.306,74.934c0,0,15.547,53.73,45.059,51.934c0,0-35.996,24.482-65.781,8.892"/>
	<path id="path36" fill="none" stroke="#087DBD" stroke-width="4" stroke-linecap="round" stroke-linejoin="round" d="
		M223.306,74.934c0,0,15.547,53.73,45.059,51.934c0,0-35.996,24.482-65.781,8.892"/>
	<path id="path38" fill="#087DBD" d="M200.259,33.372c-11.914,12.705-32.617,21.221-56.26,21.221
		c-22.08,0-41.357-7.427-53.604-18.652"/>
	<path id="path40" fill="none" stroke="#087DBD" stroke-width="4" stroke-linecap="round" stroke-linejoin="round" d="
		M200.259,33.372c-11.914,12.705-32.617,21.221-56.26,21.221c-22.08,0-41.357-7.427-53.604-18.652"/>
	<path id="path42" fill="#087DBD" d="M200.259,33.372c-13.867-14.102-32.617-22.954-53.945-22.954
		c-22.266,0-42.178,9.98-55.918,25.522c12.246,11.226,31.523,18.652,53.604,18.652C167.642,54.592,188.345,46.077,200.259,33.372"/>
	<path id="path44" fill="none" stroke="#087DBD" stroke-width="4" stroke-linecap="round" stroke-linejoin="round" d="
		M200.259,33.372c-13.867-14.102-32.617-22.954-53.945-22.954c-22.266,0-42.178,9.98-55.918,25.522
		c12.246,11.226,31.523,18.652,53.604,18.652C167.642,54.592,188.345,46.077,200.259,33.372z"/>
</g>
</svg>
