<?xml version="1.0" encoding="utf-8"?>
<!-- Generator: Adobe Illustrator 16.0.0, SVG Export Plug-In . SVG Version: 6.00 Build 0)  -->
<!DOCTYPE svg PUBLIC "-//W3C//DTD SVG 1.1//EN" "http://www.w3.org/Graphics/SVG/1.1/DTD/svg11.dtd">
<svg version="1.1"
	 id="图层_1" xmlns:dc="http://purl.org/dc/elements/1.1/" xmlns:cc="http://creativecommons.org/ns#" xmlns:rdf="http://www.w3.org/1999/02/22-rdf-syntax-ns#"
	 xmlns="http://www.w3.org/2000/svg" xmlns:xlink="http://www.w3.org/1999/xlink" x="0px" y="0px" width="75px" height="75px"
	 viewBox="0 0 75 75" enable-background="new 0 0 75 75" xml:space="preserve">
<path fill="#00BCF2" d="M8.718,74.75c-2.743-0.666-5.249-2.766-6.476-5.426c-0.937-2.034-0.878,0.091-0.878-31.833
	c0-32.721-0.097-29.8,1.071-32.201c0.784-1.612,2.602-3.406,4.296-4.242C8.99-0.064,7.234,0.003,34.311,0h24.272l7.528,7.442
	l7.527,7.441l-0.042,25.974c-0.042,24.228-0.061,26.028-0.3,26.853c-1.03,3.535-3.802,6.256-7.176,7.053
	c-1.391,0.324-56.046,0.315-57.403-0.01V74.75z M65.649,69.271c0.988-0.445,1.828-1.366,2.229-2.426l0.313-0.842V41.824V17.645
	l-5.993-0.039l-5.992-0.038L56.17,11.5l-0.041-6.068L32.937,5.471L9.745,5.511l-0.63,0.338C8.196,6.338,7.374,7.255,7.03,8.177
	c-0.3,0.805-0.301,0.872-0.263,29.58l0.039,28.771l0.346,0.662c0.419,0.798,1.114,1.563,1.712,1.877
	c1.182,0.624,0.356,0.605,28.818,0.578l27.202-0.027L65.649,69.271L65.649,69.271z M26.75,61.104l-0.637-1.523l-0.742-0.1
	c-0.408-0.056-0.917-0.135-1.13-0.174c-0.344-0.069-0.5,0.063-1.384,1.18c-0.548,0.688-1.055,1.293-1.126,1.336
	c-0.152,0.093-3.528-1.956-3.623-2.199c-0.034-0.091,0.207-0.817,0.538-1.613l0.602-1.447l-0.352-0.383
	c-0.267-0.292-0.962-1.244-1.051-1.439c-0.01-0.013-0.771,0.063-1.701,0.174c-0.931,0.105-1.711,0.174-1.736,0.151
	c-0.123-0.124-1.011-4.137-0.931-4.21c0.051-0.045,0.737-0.342,1.523-0.661c1.568-0.626,1.483-0.52,1.665-2.12l0.092-0.808
	l-1.334-1.066l-1.333-1.069l1.05-1.724c0.579-0.948,1.099-1.784,1.159-1.852c0.059-0.067,0.76,0.15,1.557,0.486
	c0.846,0.354,1.572,0.573,1.745,0.524c0.162-0.042,0.555-0.306,0.875-0.583l0.581-0.501l-0.231-1.662
	c-0.127-0.919-0.19-1.714-0.139-1.764c0.137-0.149,3.976-1.179,4.101-1.102c0.058,0.036,0.402,0.759,0.764,1.603l0.653,1.538
	l1.252,0.101l1.249,0.095l0.373-0.477c0.879-1.131,1.79-2.176,1.892-2.176c0.22,0,3.628,2.176,3.602,2.297
	c-0.017,0.07-0.312,0.809-0.656,1.646c-0.43,1.035-0.583,1.571-0.486,1.7c0.077,0.102,0.36,0.485,0.627,0.849l0.486,0.66
	l1.781-0.195c0.978-0.108,1.81-0.164,1.841-0.133c0.052,0.052,0.28,0.973,0.971,3.927c0.044,0.178-0.317,0.392-1.48,0.879
	c-0.846,0.348-1.589,0.741-1.652,0.864c-0.064,0.121-0.158,0.627-0.214,1.122l-0.098,0.896l0.536,0.411
	c0.295,0.224,0.924,0.731,1.397,1.124l0.861,0.719l-0.972,1.575c-0.533,0.869-1.046,1.688-1.139,1.821
	c-0.149,0.219-0.32,0.183-1.76-0.396l-1.593-0.643l-0.536,0.435c-0.294,0.237-0.687,0.551-0.872,0.69l-0.335,0.262l0.2,1.743
	c0.14,1.225,0.154,1.758,0.043,1.793c-0.193,0.064-3.997,0.948-4.075,0.946c-0.028,0-0.341-0.687-0.692-1.528H26.75z M28.703,55.16
	c2.47-1.157,3.913-3.767,3.474-6.293c-0.246-1.403-0.676-2.207-1.766-3.299c-1.29-1.289-2.282-1.683-4.271-1.683
	c-1.211,0-1.51,0.055-2.248,0.401c-2.418,1.131-3.938,3.856-3.508,6.295c0.425,2.419,2.235,4.412,4.523,4.988
	C25.963,55.833,27.651,55.653,28.703,55.16z M49.021,48.239l-0.654-1.561l-0.918-0.102c-0.507-0.058-1.002-0.136-1.099-0.171
	c-0.097-0.04-0.683,0.549-1.301,1.305l-1.12,1.379l-1.802-1.111c-0.987-0.611-1.819-1.128-1.842-1.152
	c-0.022-0.02,0.234-0.71,0.578-1.54c0.416-0.999,0.576-1.563,0.486-1.687c-0.08-0.099-0.399-0.53-0.715-0.956l-0.576-0.771
	l-0.673,0.087c-0.37,0.05-1.142,0.13-1.71,0.178l-1.037,0.098l-0.492-2.082c-0.271-1.141-0.468-2.105-0.436-2.133
	c0.032-0.031,0.729-0.331,1.546-0.669l1.489-0.615l0.085-0.836c0.048-0.458,0.125-0.967,0.175-1.13
	c0.064-0.234-0.156-0.484-1.108-1.248c-0.656-0.523-1.263-1.035-1.346-1.136c-0.11-0.132,0.151-0.678,0.97-2.008l1.122-1.825
	l1.546,0.65c0.849,0.359,1.627,0.605,1.724,0.546c0.101-0.056,0.442-0.307,0.769-0.555c0.321-0.248,0.603-0.453,0.621-0.459
	c0.018-0.012-0.071-0.789-0.202-1.738c-0.126-0.949-0.194-1.763-0.15-1.809c0.112-0.11,3.625-1.071,3.929-1.075
	c0.149,0,0.46,0.521,0.897,1.501c0.739,1.665,0.619,1.571,2.401,1.786l0.735,0.089l1.151-1.406c1.098-1.34,1.164-1.396,1.47-1.195
	c0.175,0.115,0.949,0.592,1.715,1.062c0.771,0.467,1.453,0.899,1.519,0.958c0.067,0.057-0.188,0.842-0.566,1.742l-0.686,1.637
	l0.421,0.481c0.229,0.264,0.521,0.638,0.644,0.827c0.226,0.342,0.232,0.343,1.731,0.18c2.397-0.262,2.103-0.468,2.643,1.856
	c0.262,1.113,0.475,2.055,0.474,2.098c0,0.04-0.721,0.371-1.601,0.734l-1.601,0.662l-0.085,0.819
	c-0.048,0.451-0.125,0.924-0.171,1.042c-0.059,0.152,0.351,0.578,1.325,1.368c0.773,0.632,1.392,1.198,1.364,1.267
	c-0.133,0.374-2.123,3.505-2.231,3.51c-0.072,0-0.804-0.264-1.623-0.599l-1.495-0.604l-0.837,0.624
	c-0.954,0.715-0.958,0.732-0.688,2.923c0.089,0.673,0.127,1.255,0.094,1.293c-0.038,0.033-0.998,0.281-2.139,0.544l-2.067,0.484
	L49.021,48.239L49.021,48.239z M49.532,42.783c3.475-0.646,5.718-4.195,4.751-7.509c-1.023-3.494-5.05-5.348-8.254-3.796
	c-1.063,0.515-2.328,1.797-2.869,2.904c-0.443,0.91-0.474,1.081-0.477,2.521c0,1.372,0.039,1.637,0.391,2.383
	c0.473,1.003,1.545,2.195,2.47,2.738c0.648,0.38,2.261,0.882,2.886,0.898C48.604,42.923,49.097,42.863,49.532,42.783z"/>
</svg>
