<?xml version="1.0" encoding="utf-8"?>
<!-- Generator: Adobe Illustrator 16.0.0, SVG Export Plug-In . SVG Version: 6.00 Build 0)  -->
<!DOCTYPE svg PUBLIC "-//W3C//DTD SVG 1.1//EN" "http://www.w3.org/Graphics/SVG/1.1/DTD/svg11.dtd">
<svg version="1.1"
	 id="svg2" xmlns:dc="http://purl.org/dc/elements/1.1/" xmlns:cc="http://creativecommons.org/ns#" xmlns:rdf="http://www.w3.org/1999/02/22-rdf-syntax-ns#" xmlns:svg="http://www.w3.org/2000/svg"
	 xmlns="http://www.w3.org/2000/svg" xmlns:xlink="http://www.w3.org/1999/xlink" x="0px" y="0px" width="79px" height="34px"
	 viewBox="0 0 79 34" enable-background="new 0 0 79 34" xml:space="preserve">
<g id="g12" transform="scale(0.1,0.1)">
	<path id="path22" fill="#036998" d="M674.355,330.241L790,169.08V55.447c0-30.669-24.785-55.449-55.488-55.449H151.885
		c-30.718,0-42.7,22.427-61.973,41.675L6.484,131.443"/>
	<path id="path24" fill="none" stroke="#FFFFFF" stroke-width="3.9999" d="M674.355,330.241L790,169.08V55.447
		c0-30.669-24.785-55.449-55.488-55.449H151.885c-30.718,0-42.7,22.427-61.973,41.675L6.484,131.443"/>
	<path id="path26" fill="#036998" d="M693.623,284.568c0,30.42-24.785,55.43-55.488,55.43H55.513C24.79,339.997,0,314.988,0,284.568
		V170.798c0-30.537,24.79-55.449,55.513-55.449h582.622c30.703,0,55.488,24.912,55.488,55.449V284.568"/>
	<path id="path28" fill="none" stroke="#FFFFFF" stroke-width="3.9999" d="M693.623,284.568c0,30.42-24.785,55.43-55.488,55.43
		H55.513C24.79,339.997,0,314.988,0,284.568V170.798c0-30.537,24.79-55.449,55.513-55.449h582.622
		c30.703,0,55.488,24.912,55.488,55.449V284.568z"/>
	<path id="path30" fill="#036998" d="M208.965,227.488H501.27v-92.559H208.965V227.488z"/>
	<path id="path32" fill="none" stroke="#FFFFFF" stroke-width="3.9999" d="M208.965,227.488H501.27v-92.559H208.965V227.488z"/>
	<path id="path34" fill="#036998" d="M569.209,170.037c0,9.961-8.213,18.145-18.174,18.145c-9.697,0-17.9-8.184-17.9-18.145
		c0-9.814,8.203-17.881,17.9-17.881C560.996,152.156,569.209,160.222,569.209,170.037"/>
	<path id="path36" fill="none" stroke="#FFFFFF" stroke-width="3.9999" d="M569.209,170.037c0,9.961-8.213,18.145-18.174,18.145
		c-9.697,0-17.9-8.184-17.9-18.145c0-9.814,8.203-17.881,17.9-17.881C560.996,152.156,569.209,160.222,569.209,170.037z"/>
	<path id="path38" fill="#036998" d="M569.209,221.433c0,9.961-8.213,17.89-18.174,17.89c-9.697,0-17.9-7.929-17.9-17.89
		c0-9.951,8.203-18.135,17.9-18.135C560.996,203.298,569.209,211.482,569.209,221.433"/>
	<path id="path40" fill="none" stroke="#FFFFFF" stroke-width="3.9999" d="M569.209,221.433c0,9.961-8.213,17.89-18.174,17.89
		c-9.697,0-17.9-7.929-17.9-17.89c0-9.951,8.203-18.135,17.9-18.135C560.996,203.298,569.209,211.482,569.209,221.433z"/>
	<path id="path42" fill="#036998" d="M569.209,272.585c0,9.951-8.213,18.145-18.174,18.145c-9.697,0-17.9-8.193-17.9-18.145
		c0-9.961,8.203-17.852,17.9-17.852C560.996,254.734,569.209,262.624,569.209,272.585"/>
	<path id="path44" fill="none" stroke="#FFFFFF" stroke-width="3.9999" d="M569.209,272.585c0,9.951-8.213,18.145-18.174,18.145
		c-9.697,0-17.9-8.193-17.9-18.145c0-9.961,8.203-17.852,17.9-17.852C560.996,254.734,569.209,262.624,569.209,272.585z"/>
	<path id="path46" fill="#036998" d="M446.846,288.777c0,14.326-37.246,25.85-83.408,25.85c-46.016,0-83.428-11.523-83.428-25.85
		c0-14.063,37.412-25.586,83.428-25.586C409.6,263.191,446.846,274.714,446.846,288.777"/>
	<path id="path48" fill="none" stroke="#FFFFFF" stroke-width="3.9999" d="M446.846,288.777c0,14.326-37.246,25.85-83.408,25.85
		c-46.016,0-83.428-11.523-83.428-25.85c0-14.063,37.412-25.586,83.428-25.586C409.6,263.191,446.846,274.714,446.846,288.777z"/>
</g>
</svg>
