<?xml version="1.0" encoding="utf-8"?>
<!-- Generator: Adobe Illustrator 16.0.0, SVG Export Plug-In . SVG Version: 6.00 Build 0)  -->
<!DOCTYPE svg PUBLIC "-//W3C//DTD SVG 1.1//EN" "http://www.w3.org/Graphics/SVG/1.1/DTD/svg11.dtd">
<svg version="1.1"
	 id="svg2" xmlns:dc="http://purl.org/dc/elements/1.1/" xmlns:cc="http://creativecommons.org/ns#" xmlns:rdf="http://www.w3.org/1999/02/22-rdf-syntax-ns#" xmlns:svg="http://www.w3.org/2000/svg"
	 xmlns="http://www.w3.org/2000/svg" xmlns:xlink="http://www.w3.org/1999/xlink" x="0px" y="0px" width="78px" height="60px"
	 viewBox="0 0 78 60" enable-background="new 0 0 78 60" xml:space="preserve">
<g id="g10" transform="matrix(1.25,0,0,-1.25,0,32.175)">
	<g id="g12" transform="scale(0.1,0.1)">
		<path id="path14" fill="#0D6E9C" d="M9.186-49.971h454.77V97.513H9.186V-49.971z"/>
		<path id="path16" fill="#0D6E9C" d="M8.002,96.841L191.729,245.4h424.273L463.447,96.841H8.002"/>
		<path id="path18" fill="#0D6E9C" d="M463.557-54.377l151.938,154.578l0.047,144.926L463.557,96.958V-54.377"/>
		<path id="path20" fill="#0D6E9C" d="M9.186-205.909h454.77v159.375H9.186V-205.909z"/>
		<path id="path22" fill="#0D6E9C" d="M463.557-210.596L615.494-55.877l0.047,156.953L463.557-47.081V-210.596"/>
		<path id="path24" fill="#0D6E9C" d="M9.186-49.971h454.77V97.513H9.186V-49.971z"/>
		<path id="path26" fill="none" stroke="#FFFFFF" stroke-width="4" d="M9.186-49.971h454.77V97.513H9.186V-49.971z"/>
		<path id="path28" fill="#0D6E9C" d="M8.002,96.841L191.729,245.4h424.273L463.447,96.841H8.002"/>
		<path id="path30" fill="none" stroke="#FFFFFF" stroke-width="4" d="M8.002,96.841L191.729,245.4h424.273L463.447,96.841H8.002z"
			/>
		<path id="path32" fill="#0D6E9C" d="M463.557-54.377l151.938,154.578l0.047,144.926L463.557,96.958V-54.377"/>
		<path id="path34" fill="none" stroke="#FFFFFF" stroke-width="4" d="M463.557-54.377l151.938,154.578l0.047,144.926
			L463.557,96.958V-54.377z"/>
		<path id="path36" fill="#0D6E9C" d="M9.186-205.909h454.77v159.375H9.186V-205.909z"/>
		<path id="path38" fill="none" stroke="#FFFFFF" stroke-width="4" d="M9.186-205.909h454.77v159.375H9.186V-205.909z"/>
		<path id="path40" fill="#0D6E9C" d="M463.557-210.596L615.494-55.877l0.047,156.953L463.557-47.081V-210.596"/>
		<path id="path42" fill="none" stroke="#FFFFFF" stroke-width="4" d="M463.557-210.596L615.494-55.877l0.047,156.953
			L463.557-47.081V-210.596z"/>
		<path id="path44" fill="none" stroke="#FFFFFF" stroke-width="4" d="M9.186-49.971h454.77V97.513H9.186V-49.971z"/>
		<path id="path46" fill="none" stroke="#FFFFFF" stroke-width="4" d="M8.002,96.841L191.729,245.4h424.273L463.447,96.841H8.002z"
			/>
		<path id="path48" fill="none" stroke="#FFFFFF" stroke-width="4" d="M463.557-54.377l151.938,154.578l0.047,144.926
			L463.557,96.958V-54.377z"/>
		<path id="path50" fill="none" stroke="#FFFFFF" stroke-width="4" d="M9.186-205.909h454.77v159.375H9.186V-205.909z"/>
		<path id="path52" fill="none" stroke="#FFFFFF" stroke-width="4" d="M463.557-210.596L615.494-55.877l0.047,156.953
			L463.557-47.081V-210.596z"/>
		<path id="path54" fill="#FFFFFF" d="M335.221,182.318l27.984-6.949l77.133,21.113l27.969-7.082l-13.859,21.238h-91.242
			l42.102-7.078L335.221,182.318"/>
		<path id="path56" fill="#FFFFFF" d="M174.189,203.56l27.961,7.078l77.141-21.238l27.961,7.082l-13.977-21.113H202.15l42.109,6.949
			L174.189,203.56"/>
		<path id="path58" fill="#FFFFFF" d="M461.51,133.029l-28.242-7.078l-70.063,21.105l-35.031-6.953l14.125,21.109h90.969
			l-35.031-7.082L461.51,133.029"/>
		<path id="path60" fill="#FFFFFF" d="M300.197,154.13l-27.961,7.082l-70.086-21.109l-35.023,6.953l13.977-21.375l91.133-0.898
			l-42.102,8.246L300.197,154.13"/>
		<path id="path62" fill="#FFFFFF" d="M237.791-29.346c30.633,0,55.531,7.609,55.531,16.734c0,9.375-24.898,16.984-55.531,16.984
			c-30.648,0-55.555-7.609-55.555-16.984C182.236-21.737,207.143-29.346,237.791-29.346"/>
		<path id="path64" fill="none" stroke="#000000" stroke-width="3" stroke-linecap="round" stroke-linejoin="round" d="
			M237.791-29.346c30.633,0,55.531,7.609,55.531,16.734c0,9.375-24.898,16.984-55.531,16.984c-30.648,0-55.555-7.609-55.555-16.984
			C182.236-21.737,207.143-29.346,237.791-29.346z"/>
		<path id="path66" fill="#FFFFFF" d="M293.322,65.24c0-9.242-24.898-16.711-55.531-16.711c-30.648,0-55.555,7.469-55.555,16.711
			V-4.362c0-9.094,24.906-16.688,55.555-16.688c30.633,0,55.531,7.594,55.531,16.688V65.24"/>
		<path id="path68" fill="none" stroke="#000000" stroke-width="3" stroke-linecap="round" stroke-linejoin="round" d="
			M293.322,65.24c0-9.242-24.898-16.711-55.531-16.711c-30.648,0-55.555,7.469-55.555,16.711V-4.362
			c0-9.094,24.906-16.688,55.555-16.688c30.633,0,55.531,7.594,55.531,16.688V65.24z"/>
		<path id="path70" fill="#FFFFFF" d="M237.744,48.529c30.641,0,55.531,7.469,55.531,16.711c0,9.383-24.891,16.844-55.531,16.844
			c-30.773,0-55.547-7.461-55.547-16.844C182.197,55.998,206.971,48.529,237.744,48.529"/>
		<path id="path72" fill="none" stroke="#000000" stroke-width="3" stroke-linecap="round" stroke-linejoin="round" d="
			M237.744,48.529c30.641,0,55.531,7.469,55.531,16.711c0,9.383-24.891,16.844-55.531,16.844c-30.773,0-55.547-7.461-55.547-16.844
			C182.197,55.998,206.971,48.529,237.744,48.529z"/>
		<path id="path74" fill="none" stroke="#FFFFFF" stroke-width="4" stroke-linecap="round" stroke-linejoin="round" d="
			M9.186-48.987h454.77"/>
		<path id="path76" fill="#FFFFFF" d="M183.447-123.549H98.318v7.75l-32.082-11.375l32.082-11.375v7.734h85.129V-123.549"/>
		<path id="path78" fill="#FFFFFF" d="M231.541-147.909v-30.156h-21.969l32.367-11.313l32.391,11.313h-21.961v30.156H231.541"/>
		<path id="path80" fill="#FFFFFF" d="M231.541-107.456v30.156h-21.969l32.367,11.328l32.391-11.328h-21.961v-30.156H231.541"/>
		<path id="path82" fill="#FFFFFF" d="M300.447-130.815h85.141v-7.734l32.086,11.375l-32.086,11.375v-7.75h-85.141V-130.815"/>
		<path id="path84" fill="none" stroke="#FFFFFF" stroke-width="4" d="M378.955-175.627c-15.984-5.953-89.492,10.531-163.977,36.672
			c-74.512,26.141-121.844,52.234-105.977,58.453c15.996,5.938,89.344-10.531,163.852-36.703
			C347.494-143.612,394.682-169.424,378.955-175.627z"/>
		<path id="path86" fill="none" stroke="#FFFFFF" stroke-width="4" d="M374.479-80.252c17.016-5.516-29.313-31.547-103.422-58.031
			c-73.984-26.25-147.625-42.953-164.508-37.438c-16.895,5.781,29.434,31.797,103.555,58.031
			C284.072-91.44,357.721-74.487,374.479-80.252z"/>
		<path id="path88" fill="#86B6CD" d="M276.908-144.799c28.016,7.016,34.836,20.703,15.195,30.703s-58.422,12.391-86.438,5.375
			c-28.156-7.031-34.973-20.688-15.328-30.422C210.104-149.159,248.76-151.565,276.908-144.799"/>
		<path id="path90" fill="none" stroke="#FFFFFF" stroke-width="4" d="M276.908-144.799c28.016,7.016,34.836,20.703,15.195,30.703
			s-58.422,12.391-86.438,5.375c-28.156-7.031-34.973-20.688-15.328-30.422C210.104-149.159,248.76-151.565,276.908-144.799z"/>
	</g>
</g>
</svg>
