<?xml version="1.0" encoding="utf-8"?>
<!-- Generator: Adobe Illustrator 16.0.0, SVG Export Plug-In . SVG Version: 6.00 Build 0)  -->
<!DOCTYPE svg PUBLIC "-//W3C//DTD SVG 1.1//EN" "http://www.w3.org/Graphics/SVG/1.1/DTD/svg11.dtd">
<svg version="1.1"
	 id="图层_1" xmlns:dc="http://purl.org/dc/elements/1.1/" xmlns:cc="http://creativecommons.org/ns#" xmlns:rdf="http://www.w3.org/1999/02/22-rdf-syntax-ns#"
	 xmlns="http://www.w3.org/2000/svg" xmlns:xlink="http://www.w3.org/1999/xlink" x="0px" y="0px" width="78px" height="70px"
	 viewBox="0 0 78 70" enable-background="new 0 0 78 70" xml:space="preserve">
<path fill="#00BCF2" d="M44.088,0c-14.679,0-21.62,11.382-23.26,14.454h-4.927h-0.128l-0.193,0.064c0,0-3.82,0.581-7.678,3.038
	C4.044,20.013,0,24.657,0,32.075c0,8.251,4.544,13.083,8.927,15.414c4.382,2.33,8.766,2.271,8.766,2.271l0.065,0.063h0.063
	c1.795,0.001,3.559-0.001,5.344,0v-0.606v-2.814v-0.641h0.641h20.443h0.64v0.641c-0.009,3.725-0.031,3.109-0.031,6.844v0.638h0.639
	H65.94h0.639v-0.639V50.43v-0.417c0.738-0.069,1.558-0.15,2.241-0.224c0,0,2.292-0.349,4.541-1.758
	c2.25-1.407,4.646-4.163,4.639-8.345c-0.008-5.359-3.056-8.573-5.95-9.85c-1.254-0.552-2.428-0.723-3.425-0.863
	c0.067-1.047,0.127-1.743,0.129-3.806c0.004-3.166,0.008-6.631-1.247-9.273c-0.721-1.515-2.397-5.604-5.982-9.178
	C57.938,3.143,52.283,0,44.088,0z M23.164,29.645h0.641h20.443h0.64v0.607v2.815v0.638h-0.64H23.805h-0.641v-0.638v-2.815V29.645z
	 M23.164,37.766h0.641h20.443h0.64v0.64v2.782v0.639h-0.64H23.805h-0.641v-0.639v-2.782V37.766z M44.856,57.945v0.639v2.781v0.64
	h0.639H65.94h0.639v-0.64v-2.781v-0.639H65.94H45.495H44.856z M44.856,65.94v0.638v2.813V70h0.639H65.94h0.639v-0.608v-2.813V65.94
	H65.94H45.495H44.856z"/>
</svg>
