<?xml version="1.0" encoding="utf-8"?>
<!-- Generator: Adobe Illustrator 16.0.0, SVG Export Plug-In . SVG Version: 6.00 Build 0)  -->
<!DOCTYPE svg PUBLIC "-//W3C//DTD SVG 1.1//EN" "http://www.w3.org/Graphics/SVG/1.1/DTD/svg11.dtd">
<svg version="1.1" id="图层_1" xmlns="http://www.w3.org/2000/svg" xmlns:xlink="http://www.w3.org/1999/xlink" x="0px" y="0px"
	 width="62px" height="75px" viewBox="0 0 62 75" enable-background="new 0 0 62 75" xml:space="preserve">
<g id="Layer_1">
	<polygon fill="#8C3123" points="5,13.016 0,15.564 0,59.345 5,61.893 17.272,37.409 	"/>
	<polygon fill="#E05243" points="31,55.521 5,61.893 5,13.016 31,19.296 43.272,37.5 	"/>
	<polygon fill="#8C3123" points="31,55.521 57,61.893 61.455,38.046 57,13.016 31,19.296 	"/>
	<polygon fill="#E05243" points="57,13.016 62,15.564 62,59.345 57,61.893 	"/>
	<polygon fill="#8C3123" points="19.637,45.51 31,46.967 40.001,37.5 31,28.034 19.637,29.491 	"/>
	<polygon fill="#5E1F18" points="42.363,21.754 31,23.847 19.637,21.754 31,0 	"/>
	<polygon fill="#F2B0A9" points="42.363,53.246 31,51.152 19.637,53.246 31,75 	"/>
	<polygon fill="#E05243" points="42.363,21.754 31,18.932 31,0 42.363,5.734 	"/>
	<polygon fill="#8C3123" points="19.637,21.754 31,18.932 31,0 19.637,5.734 	"/>
	<polygon fill="#E05243" points="31,75 42.363,69.266 42.363,53.246 31,56.068 	"/>
	<polygon fill="#8C3123" points="31,75 19.637,69.266 19.637,53.246 31,56.068 	"/>
	<polygon fill="#E05243" points="42.363,45.51 31,46.967 31,28.034 42.363,29.491 	"/>
</g>
</svg>
