<?xml version="1.0" encoding="utf-8"?>
<!-- Generator: Adobe Illustrator 16.0.0, SVG Export Plug-In . SVG Version: 6.00 Build 0)  -->
<!DOCTYPE svg PUBLIC "-//W3C//DTD SVG 1.1//EN" "http://www.w3.org/Graphics/SVG/1.1/DTD/svg11.dtd">
<svg version="1.1"
	 id="图层_1" xmlns:dc="http://purl.org/dc/elements/1.1/" xmlns:cc="http://creativecommons.org/ns#" xmlns:rdf="http://www.w3.org/1999/02/22-rdf-syntax-ns#"
	 xmlns="http://www.w3.org/2000/svg" xmlns:xlink="http://www.w3.org/1999/xlink" x="0px" y="0px" width="75px" height="67px"
	 viewBox="0 0 75 67" enable-background="new 0 0 75 67" xml:space="preserve">
<path fill="#00BCF2" d="M9.378,50.359C4.253,41.209,0.034,33.67,0,33.609c-0.033-0.061,4.167-7.647,9.332-16.86L18.724,0h18.801
	h18.802l9.296,16.579c5.112,9.119,9.332,16.676,9.377,16.794c0.047,0.123-3.912,7.343-9.261,16.883l-9.346,16.67l-18.848,0.037
	L18.695,67L9.378,50.359L9.378,50.359z M55.189,52.685v-1.182h-16.57H22.051V34.457V17.413h-1.105h-1.104v18.225v18.226h17.674
	h17.673V52.685L55.189,52.685z M33.393,44.492V40.14h-4.271h-4.271v4.353v4.354h4.271h4.271V44.492z M44.291,44.492V40.14H40.02
	h-4.27v4.353v4.354h4.27h4.271V44.492z M55.337,44.492V40.14h-4.346h-4.345v4.353v4.354h4.345h4.346V44.492z M33.393,33.277v-4.354
	h-4.271h-4.271v4.354v4.354h4.271h4.271V33.277z M44.291,33.277v-4.354H40.02h-4.27v4.354v4.354h4.27h4.271V33.277z M55.337,33.277
	v-4.354h-4.346h-4.345v4.354v4.354h4.345h4.346V33.277z M33.393,21.988v-4.426h-4.271h-4.271v4.426v4.428h4.271h4.271V21.988z
	 M44.291,21.988v-4.426H40.02h-4.27v4.426v4.428h4.27h4.271V21.988z M55.337,21.988v-4.426h-4.346h-4.345v4.426v4.428h4.345h4.346
	V21.988z"/>
</svg>
