<?xml version="1.0" encoding="utf-8"?>
<!-- Generator: Adobe Illustrator 16.0.0, SVG Export Plug-In . SVG Version: 6.00 Build 0)  -->
<!DOCTYPE svg PUBLIC "-//W3C//DTD SVG 1.1//EN" "http://www.w3.org/Graphics/SVG/1.1/DTD/svg11.dtd">
<svg version="1.1"
	 id="svg2" xmlns:dc="http://purl.org/dc/elements/1.1/" xmlns:cc="http://creativecommons.org/ns#" xmlns:rdf="http://www.w3.org/1999/02/22-rdf-syntax-ns#" xmlns:svg="http://www.w3.org/2000/svg"
	 xmlns="http://www.w3.org/2000/svg" xmlns:xlink="http://www.w3.org/1999/xlink" x="0px" y="0px" width="54px" height="80px"
	 viewBox="0 0 54 80" enable-background="new 0 0 54 80" xml:space="preserve">
<g id="g12" transform="scale(0.1,0.1)">
	<path id="path22" fill="#026C9B" d="M124.321,784.997h303.647V111.736H124.321V784.997z"/>
	<path id="path24" fill="none" stroke="#FFFFFF" stroke-width="4" d="M427.969,111.736H124.321v673.261h303.647"/>
	<path id="path26" fill="#026C9B" d="M427.969,784.997L525,688.132V14.998H221.328l-97.007,96.738h303.647V784.997"/>
	<path id="path28" fill="none" stroke="#FFFFFF" stroke-width="4" d="M427.969,784.997L525,688.132V14.998H221.328l-97.007,96.738
		h303.647V784.997z"/>
	<path id="path30" fill="#026C9B" d="M427.969,111.736L525,14.998"/>
	<path id="path32" fill="none" stroke="#FFFFFF" stroke-width="4" d="M427.969,111.736L525,14.998"/>
	<path id="path34" fill="#026C9B" d="M150.63,419.665h153.013v-22.041H150.63V419.665z"/>
	<path id="path36" fill="none" stroke="#FFFFFF" stroke-width="4" d="M150.63,419.665h153.013v-22.041H150.63V419.665z"/>
	<path id="path38" fill="#026C9B" d="M150.63,465.573h153.013v-22.031H150.63V465.573z"/>
	<path id="path40" fill="none" stroke="#FFFFFF" stroke-width="4" d="M150.63,465.573h153.013v-22.031H150.63V465.573z"/>
	<path id="path42" fill="#026C9B" d="M150.63,511.521h153.013V489.47H150.63V511.521z"/>
	<path id="path44" fill="none" stroke="#FFFFFF" stroke-width="4" d="M150.63,511.521h153.013V489.47H150.63V511.521z"/>
	<path id="path46" fill="#026C9B" d="M150.63,557.683h153.013v-22.305H150.63V557.683z"/>
	<path id="path48" fill="none" stroke="#FFFFFF" stroke-width="4" d="M150.63,557.683h153.013v-22.305H150.63V557.683z"/>
	<path id="path50" fill="#026C9B" d="M150.63,603.63h153.013v-22.305H150.63V603.63z"/>
	<path id="path52" fill="none" stroke="#FFFFFF" stroke-width="4" d="M150.63,603.63h153.013v-22.305H150.63V603.63z"/>
	<path id="path54" fill="#026C9B" d="M150.63,649.538h153.013v-22.305H150.63V649.538z"/>
	<path id="path56" fill="none" stroke="#FFFFFF" stroke-width="4" d="M150.63,649.538h153.013v-22.305H150.63V649.538z"/>
	<path id="path58" fill="#026C9B" d="M150.63,695.466h153.013v-22.285H150.63V695.466z"/>
	<path id="path60" fill="none" stroke="#FFFFFF" stroke-width="4" d="M150.63,695.466h153.013v-22.285H150.63V695.466z"/>
	<path id="path62" fill="#026C9B" d="M150.63,741.384h153.013v-22.031H150.63V741.384z"/>
	<path id="path64" fill="none" stroke="#FFFFFF" stroke-width="4" d="M150.63,741.384h153.013v-22.031H150.63V741.384z"/>
	<path id="path66" fill="#026C9B" d="M321.934,190.173c0,31.309-68.652,56.763-153.54,56.763C83.647,246.936,15,221.482,15,190.173
		v130.811c0,31.289,68.647,56.767,153.394,56.767c84.888,0,153.54-25.478,153.54-56.767V190.173"/>
	<path id="path68" fill="none" stroke="#FFFFFF" stroke-width="4" d="M321.934,190.173c0,31.309-68.652,56.763-153.54,56.763
		C83.647,246.936,15,221.482,15,190.173v130.811c0,31.289,68.647,56.767,153.394,56.767c84.888,0,153.54-25.478,153.54-56.767
		V190.173z"/>
	<path id="path70" fill="#026C9B" d="M168.394,246.936c84.888,0,153.54-25.454,153.54-56.763c0-31.431-68.652-56.787-153.54-56.787
		C83.647,133.386,15,158.743,15,190.173C15,221.482,83.647,246.936,168.394,246.936"/>
	<path id="path72" fill="none" stroke="#FFFFFF" stroke-width="4" d="M168.394,246.936c84.888,0,153.54-25.454,153.54-56.763
		c0-31.431-68.652-56.787-153.54-56.787C83.647,133.386,15,158.743,15,190.173C15,221.482,83.647,246.936,168.394,246.936z"/>
	<path id="path74" fill="#026C9B" d="M486.25,308.308c0,31.445-68.662,56.758-153.281,56.758
		c-84.883,0-153.672-25.313-153.672-56.758v130.82c0,31.416,68.789,56.895,153.672,56.895c84.619,0,153.281-25.479,153.281-56.895
		V308.308"/>
	<path id="path76" fill="none" stroke="#FFFFFF" stroke-width="4" d="M486.25,308.308c0,31.445-68.662,56.758-153.281,56.758
		c-84.883,0-153.672-25.313-153.672-56.758v130.82c0,31.416,68.789,56.895,153.672,56.895c84.619,0,153.281-25.479,153.281-56.895
		V308.308z"/>
	<path id="path78" fill="#026C9B" d="M332.969,365.066c84.619,0,153.281-25.313,153.281-56.758
		c0-31.289-68.662-56.777-153.281-56.777c-84.883,0-153.672,25.488-153.672,56.777C179.297,339.753,248.086,365.066,332.969,365.066
		"/>
	<path id="path80" fill="none" stroke="#FFFFFF" stroke-width="4" d="M332.969,365.066c84.619,0,153.281-25.313,153.281-56.758
		c0-31.289-68.662-56.777-153.281-56.777c-84.883,0-153.672,25.488-153.672,56.777C179.297,339.753,248.086,365.066,332.969,365.066
		z"/>
</g>
</svg>
