<?xml version="1.0" encoding="utf-8"?>
<!-- Generator: Adobe Illustrator 16.0.0, SVG Export Plug-In . SVG Version: 6.00 Build 0)  -->
<!DOCTYPE svg PUBLIC "-//W3C//DTD SVG 1.1//EN" "http://www.w3.org/Graphics/SVG/1.1/DTD/svg11.dtd">
<svg version="1.1" id="图层_1" xmlns="http://www.w3.org/2000/svg" xmlns:xlink="http://www.w3.org/1999/xlink" x="0px" y="0px"
	 width="62px" height="75px" viewBox="0 0 62 75" enable-background="new 0 0 62 75" xml:space="preserve">
<g id="Layer_1">
	<polygon fill="#5E1F18" points="31,33.438 53.261,17.709 62,33.125 40.987,33.958 	"/>
	<polygon fill="#5E1F18" points="31,33.438 8.738,20.521 0,33.125 21.014,33.958 	"/>
	<polygon fill="#F2B0A9" points="31,41.563 8.738,58.958 0,41.876 21.014,41.041 	"/>
	<polygon fill="#F2B0A9" points="31,41.563 53.261,58.958 62,41.876 40.987,41.041 	"/>
	<polygon fill="#E05243" points="53.261,32.188 62,33.125 62,15.521 53.261,17.709 	"/>
	<polygon fill="#8C3123" points="21.742,18.75 53.261,18.437 53.261,32.188 31,33.438 	"/>
	<polygon fill="#E05243" points="53.261,42.813 62,41.876 62,59.479 53.261,58.646 	"/>
	<polygon fill="#8C3123" points="23.094,56.041 53.261,53.333 53.261,42.813 31,41.563 	"/>
	<polygon fill="#E05243" points="31,18.437 4.993,18.541 8.738,32.188 31,33.438 	"/>
	<polygon fill="#8C3123" points="8.738,32.188 0,33.125 0,15.521 8.738,16.146 	"/>
	<polygon fill="#8C3123" points="8.738,42.813 0,41.876 0,59.479 8.738,58.541 	"/>
	<polygon fill="#E05243" points="31,57.291 8.738,53.333 8.738,42.813 31,41.563 	"/>
	<polygon fill="#E05243" points="44.106,28.229 31,26.354 18.622,38.021 31,48.854 44.106,46.875 	"/>
	<polygon fill="#8C3123" points="17.893,28.229 31,26.354 31,48.854 17.893,46.875 	"/>
	<polygon fill="#5E1F18" points="53.261,21.667 31,25.312 8.738,21.667 31,0 	"/>
	<polygon fill="#F2B0A9" points="53.261,53.333 31,49.688 8.738,53.333 31,75 	"/>
	<polygon fill="#E05243" points="62,50.73 31,59.999 31,75 62,59.479 	"/>
	<polygon fill="#8C3123" points="0,50.73 31,59.999 31,75 0,59.479 	"/>
	<polygon fill="#E05243" points="62,24.271 31,15 31,0 62,15.521 	"/>
	<polygon fill="#8C3123" points="0,24.271 31,15 31,0 0,15.521 	"/>
</g>
</svg>
