<?xml version="1.0" encoding="utf-8"?>
<!-- Generator: Adobe Illustrator 16.0.0, SVG Export Plug-In . SVG Version: 6.00 Build 0)  -->
<!DOCTYPE svg PUBLIC "-//W3C//DTD SVG 1.1//EN" "http://www.w3.org/Graphics/SVG/1.1/DTD/svg11.dtd">
<svg version="1.1" id="图层_1" xmlns="http://www.w3.org/2000/svg" xmlns:xlink="http://www.w3.org/1999/xlink" x="0px" y="0px"
	 width="62px" height="75px" viewBox="0 0 62 75" enable-background="new 0 0 62 75" xml:space="preserve">
<g id="Layer_1">
	<polygon fill="#8C3123" points="8.727,63.805 0,59.436 0,15.564 8.727,11.196 24.182,39.048 	"/>
	<polygon fill="#E05243" points="14.455,62.075 8.727,63.805 8.727,11.196 14.455,12.743 26,38.593 	"/>
	<polygon fill="#8C3123" points="31,55.066 58.001,61.438 60.729,19.023 26,20.024 	"/>
	<polygon fill="#5E1F18" points="32.637,24.849 38.638,25.85 58.001,23.119 39.364,10.194 32.818,18.841 	"/>
	<polygon fill="#8C3123" points="14.455,66.717 31,75 36.273,38.865 31,0 14.455,8.283 	"/>
	<polygon fill="#E05243" points="62,15.564 62,15.564 58.001,13.562 31,0 31,15.018 31,75 40.273,70.357 40.273,17.84 
		58.001,23.119 58.001,61.438 62,59.436 62,24.302 62,24.302 	"/>
</g>
</svg>
