<?xml version="1.0" encoding="utf-8"?>
<!-- Generator: Adobe Illustrator 16.0.0, SVG Export Plug-In . SVG Version: 6.00 Build 0)  -->
<!DOCTYPE svg PUBLIC "-//W3C//DTD SVG 1.1//EN" "http://www.w3.org/Graphics/SVG/1.1/DTD/svg11.dtd">
<svg version="1.1" id="图层_1" xmlns="http://www.w3.org/2000/svg" xmlns:xlink="http://www.w3.org/1999/xlink" x="0px" y="0px"
	 width="75px" height="75px" viewBox="0 0 75 75" enable-background="new 0 0 75 75" xml:space="preserve">
<g id="Layer_1">
	<g>
		<path fill="#8C3123" d="M37.5,3.428l36.335,5.348v3.153c0,4.799-16.317,8.501-36.335,8.501c-20.019,0-36.335-3.839-36.335-8.501
			V8.501L37.5,3.428z"/>
	</g>
	<g>
		<path fill="#8C3123" d="M37.5,26.325c15.219,0,28.244-2.193,33.593-5.348l1.782-3.016l0.686-2.742v3.428l-11.93,50.731
			C61.631,72.532,50.8,75,37.363,75s-24.269-2.468-24.269-5.621L1.165,18.647V15.22l2.743,5.758
			C9.667,24.269,22.555,26.325,37.5,26.325z"/>
	</g>
	<g>
		<path fill="#E05243" d="M37.5,0c20.018,0,36.335,3.839,36.335,8.501c0,4.799-16.317,8.501-36.335,8.501
			c-20.019,0-36.335-3.839-36.335-8.501S17.481,0,37.5,0z"/>
	</g>
	<g>
		<path fill="#E05243" d="M37.5,22.897c18.646,0,34.142-3.291,36.061-7.541l-11.93,50.731c0,3.153-10.831,5.622-24.268,5.622
			s-24.269-2.469-24.269-5.622L1.165,15.356C3.359,19.606,18.853,22.897,37.5,22.897z"/>
	</g>
	<rect x="28.999" y="27.834" fill="#FFFFFF" width="15.768" height="15.63"/>
	<ellipse fill="#FFFFFF" cx="24.2" cy="56.627" rx="7.816" ry="7.679"/>
	<polygon fill="#FFFFFF" points="56.832,64.031 41.202,64.031 49.018,49.634 	"/>
</g>
</svg>
