<?xml version="1.0" encoding="utf-8"?>
<!-- Generator: Adobe Illustrator 16.0.0, SVG Export Plug-In . SVG Version: 6.00 Build 0)  -->
<!DOCTYPE svg PUBLIC "-//W3C//DTD SVG 1.1//EN" "http://www.w3.org/Graphics/SVG/1.1/DTD/svg11.dtd">
<svg version="1.1" id="图层_1" xmlns="http://www.w3.org/2000/svg" xmlns:xlink="http://www.w3.org/1999/xlink" x="0px" y="0px"
	 width="75px" height="75px" viewBox="0 0 75 75" enable-background="new 0 0 75 75" xml:space="preserve">
<g id="Layer_1">
	<circle fill="#8C3123" cx="37.5" cy="39.038" r="35.962"/>
	<circle fill="#E05243" cx="37.5" cy="35.962" r="35.962"/>
	<g>
		<path fill="#FFFFFF" d="M50.158,42.469h2.72v2.366h-2.839v-2.366H50.158z M43.415,10.292h3.549v3.431h-2.366V12.54h-1.183V10.292z
			 M44.479,29.811v-4.613h2.366v4.613H44.479z M46.846,33.241v4.613h-2.366v-4.613H46.846z M44.479,21.767v-4.614h2.366v4.614
			H44.479z M35.134,10.292h4.732v2.366h-4.732V10.292z M28.155,10.292h3.549v2.366h-1.183v1.183h-2.366V10.292z M28.155,17.153
			h2.366v4.614h-2.366V17.153z M28.155,25.197h2.366v4.613h-2.366V25.197z M28.155,33.36h2.366v4.613h-2.366V33.36z M22.122,42.587
			h2.839v2.365h-2.839V42.587z M19.992,44.716v0.236h-0.237l-1.301,1.302l-3.667-3.667h5.205v1.774l0.118,0.118L19.992,44.716z
			 M25.316,52.879l-3.904-3.786l1.656-1.655l3.904,3.784L25.316,52.879z M26.972,42.587h1.183v-1.184h2.366v3.432h-3.549V42.587z
			 M32.058,59.503l-3.903-3.785l1.656-1.656l3.904,3.785L32.058,59.503z M37.5,64.708l-2.484-2.366l1.656-1.656l0.828,0.828
			l0.828-0.828l1.655,1.656L37.5,64.708z M42.941,59.503l-1.655-1.656l3.903-3.785l1.656,1.656L42.941,59.503z M48.028,44.835
			h-3.549v-3.432h2.366v1.184h1.183V44.835z M49.685,52.761l-1.656-1.656l3.904-3.786l1.655,1.656L49.685,52.761z M56.545,46.136
			l-1.301-1.301h-0.236v-0.237l-0.118-0.118l0.118-0.118v-1.774h5.205L56.545,46.136z"/>
	</g>
</g>
</svg>
