<?xml version="1.0" encoding="utf-8"?>
<!-- Generator: Adobe Illustrator 16.0.0, SVG Export Plug-In . SVG Version: 6.00 Build 0)  -->
<!DOCTYPE svg PUBLIC "-//W3C//DTD SVG 1.1//EN" "http://www.w3.org/Graphics/SVG/1.1/DTD/svg11.dtd">
<svg version="1.1" id="图层_1" xmlns="http://www.w3.org/2000/svg" xmlns:xlink="http://www.w3.org/1999/xlink" x="0px" y="0px"
	 width="75px" height="75px" viewBox="0 0 75 75" enable-background="new 0 0 75 75" xml:space="preserve">
<g id="Layer_1">
	<g>
		<path fill="#8C3123" d="M36.332,3.828l36.332,4.282v3.244c0,4.152-16.22,7.526-36.332,7.526C16.35,18.88,0,15.506,0,11.354V8.109
			L36.332,3.828z"/>
	</g>
	<g>
		<polygon fill="#8C3123" points="72.405,17.192 67.215,36.656 50.087,25.108 50.087,34.71 30.493,34.71 17.258,25.757 
			17.258,35.229 5.061,35.229 0.259,17.192 0.259,13.949 2.077,17.452 36.332,23.94 71.626,16.804 72.405,13.949 		"/>
	</g>
	<g>
		<polygon fill="#8C3123" points="55.406,34.321 75,44.313 75,47.557 55.406,60.661 55.406,53.914 39.317,53.914 48.01,48.074 
			38.408,40.938 55.406,40.938 		"/>
	</g>
	<g>
		<polygon fill="#8C3123" points="20.372,34.84 28.806,40.68 39.317,44.961 39.317,48.205 31.012,54.044 20.372,61.181 
			20.372,54.434 3.374,54.434 3.374,41.587 20.372,41.587 		"/>
	</g>
	<g>
		<path fill="#8C3123" d="M53.849,59.623v9.473l5.321-3.504l2.464-4.8v3.244l-1.167,4.93c0,2.725-10.77,5.32-24.135,5.32
			s-24.135-2.207-24.135-5.061l-2.206-8.564v-3.244l7.396,3.244v7.268l15.052-7.786L53.849,59.623z"/>
	</g>
	<g>
		<path fill="#E05243" d="M36.332,0.714c19.982,0,36.332,3.374,36.332,7.525c0,4.153-16.22,7.526-36.332,7.526
			C16.35,15.766,0,12.392,0,8.239C0,3.958,16.22,0.714,36.332,0.714z"/>
	</g>
	<g>
		<path fill="#E05243" d="M72.405,13.949l-5.19,19.593L50.087,21.994v9.602H30.493l-13.365-8.953v9.602H5.061L0.259,14.208
			c1.946,3.763,17.388,6.748,36.073,6.748C55.018,20.696,70.328,17.712,72.405,13.949z"/>
	</g>
	<g>
		<polygon fill="#E05243" points="55.406,31.077 75,44.313 55.406,57.417 55.406,50.67 39.317,50.67 48.01,44.831 38.408,37.694 
			55.406,37.825 		"/>
	</g>
	<g>
		<polygon fill="#E05243" points="20.372,31.726 28.806,37.435 39.317,44.961 31.012,50.8 20.372,57.937 20.372,51.318 
			3.374,51.318 3.374,38.343 20.372,38.343 		"/>
	</g>
	<g>
		<path fill="#E05243" d="M53.849,56.38v9.472l7.785-5.06l-1.167,4.931c0,2.724-10.77,5.319-24.135,5.319s-24.135-2.206-24.135-5.06
			l-2.206-8.565h7.396v9.473l14.792-9.861L53.849,56.38z"/>
	</g>
</g>
</svg>
