<?xml version="1.0" encoding="utf-8"?>
<!-- Generator: Adobe Illustrator 16.0.0, SVG Export Plug-In . SVG Version: 6.00 Build 0)  -->
<!DOCTYPE svg PUBLIC "-//W3C//DTD SVG 1.1//EN" "http://www.w3.org/Graphics/SVG/1.1/DTD/svg11.dtd">
<svg version="1.1" id="图层_1" xmlns="http://www.w3.org/2000/svg" xmlns:xlink="http://www.w3.org/1999/xlink" x="0px" y="0px"
	 width="63px" height="78px" viewBox="0 0 63 78" enable-background="new 0 0 63 78" xml:space="preserve">
<g id="Layer_1">
	<g>
		<polygon fill="#8C3123" points="63,2.972 63,78 40.652,78 40.652,65.99 22.346,65.99 22.346,78 0,78 0,2.972 		"/>
	</g>
	<g>
		<polygon fill="#E05243" points="63,0 63,75.028 40.652,75.028 40.652,63.018 22.346,63.018 22.346,75.028 0,75.028 0,0 		"/>
	</g>
	<g>
		<path fill="#FFFFFF" d="M16.642,18.43v0.238c0,2.378-0.952,4.756-4.042,4.756c-3.329,0-4.398-2.14-4.398-6.896
			c0-4.756,1.07-6.896,4.398-6.896c3.802,0,4.042,2.736,4.042,4.161v0.238h-2.141v-0.238c0-1.188-0.357-2.616-1.902-2.616
			c-1.545,0-2.259,0.951-2.259,5.232c0,4.28,0.713,5.35,2.259,5.35c1.782,0,2.021-1.903,2.021-3.21v-0.237L16.642,18.43
			L16.642,18.43z"/>
		<path fill="#FFFFFF" d="M20.683,9.988h2.734l3.446,13.199h-2.258l-0.833-3.21h-3.921l-0.833,3.21H16.76L20.683,9.988z
			 M23.535,18.192l-1.545-6.422l0,0l-1.544,6.541h3.09L23.535,18.192L23.535,18.192z"/>
		<path fill="#FFFFFF" d="M35.898,18.43v0.238c0,2.378-0.952,4.756-4.044,4.756c-3.327,0-4.397-2.14-4.397-6.896
			c0-4.756,1.07-6.896,4.397-6.896c3.806,0,4.044,2.736,4.044,4.161v0.238h-2.141v-0.238c0-1.188-0.358-2.616-1.904-2.616
			c-1.544,0-2.259,0.951-2.259,5.232c0,4.28,0.715,5.35,2.259,5.35c1.783,0,2.02-1.903,2.02-3.21v-0.237L35.898,18.43L35.898,18.43z
			"/>
		<path fill="#FFFFFF" d="M37.442,9.988h2.14v5.232h3.923V9.988h2.14v13.199h-2.14v-6.184h-3.923v6.184h-2.14V9.988z"/>
		<path fill="#FFFFFF" d="M47.784,9.988h7.133v1.784h-5.113v3.686h4.755v1.784h-4.755v4.162h5.229v1.784h-7.37V9.988H47.784z"/>
	</g>
</g>
</svg>
