<?xml version="1.0" encoding="utf-8"?>
<!-- Generator: Adobe Illustrator 16.0.0, SVG Export Plug-In . SVG Version: 6.00 Build 0)  -->
<!DOCTYPE svg PUBLIC "-//W3C//DTD SVG 1.1//EN" "http://www.w3.org/Graphics/SVG/1.1/DTD/svg11.dtd">
<svg version="1.1"
	 id="图层_1" xmlns:dc="http://purl.org/dc/elements/1.1/" xmlns:cc="http://creativecommons.org/ns#" xmlns:rdf="http://www.w3.org/1999/02/22-rdf-syntax-ns#"
	 xmlns="http://www.w3.org/2000/svg" xmlns:xlink="http://www.w3.org/1999/xlink" x="0px" y="0px" width="75px" height="67px"
	 viewBox="0 0 75 67" enable-background="new 0 0 75 67" xml:space="preserve">
<path fill="#00BCF2" d="M9.383,50.361C4.255,41.209,0.033,33.67,0,33.61c-0.033-0.061,4.168-7.647,9.336-16.86L18.733,0H37.53
	h18.797l9.296,16.58c5.111,9.119,9.331,16.676,9.377,16.794c0.047,0.123-3.913,7.343-9.264,16.884l-9.342,16.668L37.55,66.963
	L18.705,67L9.383,50.361L9.383,50.361z M52.98,53.379c1.414-0.558,2.533-1.681,3.069-3.084c0.22-0.571,0.247-2.046,0.284-14.78
	l0.04-14.143l-3.853-3.971l-3.854-3.972H35.734c-12.87,0-12.941,0-13.781,0.317c-1.017,0.381-2.148,1.392-2.634,2.353
	c-0.657,1.297-0.671,1.724-0.625,18.064l0.042,15.497l0.465,0.981c0.76,1.606,2.072,2.646,3.693,2.924
	c0.386,0.067,7.164,0.111,15.063,0.1C51.318,53.644,52.363,53.623,52.98,53.379L52.98,53.379z M22.934,50.748
	c-0.48-0.193-0.999-0.684-1.303-1.236c-0.222-0.401-0.248-1.798-0.29-15.199c-0.024-8.118-0.003-15.172,0.048-15.676
	c0.108-1.064,0.49-1.728,1.25-2.174c0.509-0.299,0.674-0.304,12.592-0.304h12.08l0.039,3.283l0.039,3.283h3.164h3.163l-0.001,12.95
	c0,8.044-0.056,13.148-0.146,13.474c-0.164,0.594-0.902,1.374-1.521,1.606c-0.555,0.209-28.59,0.2-29.116-0.011v0.004H22.934z
	 M34.671,46.833c0.706-0.294,1.472-1.168,1.835-2.101c0.447-1.145,0.572-4.938,0.21-6.373c-0.485-1.93-1.538-2.793-3.4-2.793
	c-1.644,0-2.432,0.366-3.183,1.48c-0.618,0.916-0.892,2.309-0.885,4.496c0.011,3.619,0.839,5.186,2.924,5.523
	C33,47.201,34.013,47.107,34.671,46.833z M32.352,45.244c-0.207-0.117-0.457-0.391-0.556-0.605c-0.547-1.205-0.578-5.124-0.049-6.32
	c0.354-0.802,0.675-1.047,1.36-1.047c1.244,0,1.684,1.086,1.672,4.123c-0.009,2.07-0.181,2.954-0.693,3.545
	C33.687,45.399,32.879,45.541,32.352,45.244z M45.469,46.118v-0.813h-1.029h-1.031v-4.78c0-5.336,0.082-4.96-1.082-4.96
	c-0.514,0-0.855,0.163-2.057,0.967l-1.443,0.967l0.046,0.694c0.053,0.836,0.198,0.844,1.479,0.093l0.847-0.496v3.758v3.759h-1.089
	c-1.158,0-1.268,0.069-1.268,0.813c0,0.83-0.086,0.812,3.402,0.812h3.225V46.118L45.469,46.118z M43.634,31.151
	c1.218-0.539,1.89-1.828,2.148-4.123c0.167-1.469,0.028-3.593-0.31-4.76c-0.441-1.526-1.633-2.347-3.4-2.342
	c-1.836,0.011-2.85,0.708-3.543,2.457c-0.309,0.777-0.342,1.1-0.346,3.369c-0.007,2.739,0.17,3.65,0.898,4.613
	C39.957,31.52,42.001,31.874,43.634,31.151L43.634,31.151z M41.076,29.441c-0.6-0.505-0.797-1.441-0.797-3.751
	c0-3.011,0.463-4.076,1.759-4.039c0.628,0.018,1.166,0.492,1.376,1.212c0.264,0.907,0.344,3.677,0.141,4.878
	c-0.154,0.917-0.267,1.186-0.666,1.587C42.29,29.926,41.695,29.963,41.076,29.441z M36.603,30.511l-0.045-0.774l-0.995-0.044
	l-0.994-0.044v-4.773v-4.772l-0.528-0.101c-0.819-0.153-1.352,0.037-2.747,0.976l-1.291,0.87v0.733c0,0.431,0.066,0.734,0.16,0.734
	c0.088,0,0.575-0.232,1.082-0.518c0.507-0.283,0.965-0.516,1.018-0.516c0.053,0,0.096,1.657,0.096,3.683v3.683l-1.141,0.043
	l-1.142,0.043l-0.047,0.568c-0.083,1.023-0.23,0.981,3.364,0.981h3.253L36.603,30.511L36.603,30.511z"/>
</svg>
