<?xml version="1.0" encoding="utf-8"?>
<!-- Generator: Adobe Illustrator 16.0.0, SVG Export Plug-In . SVG Version: 6.00 Build 0)  -->
<!DOCTYPE svg PUBLIC "-//W3C//DTD SVG 1.1//EN" "http://www.w3.org/Graphics/SVG/1.1/DTD/svg11.dtd">
<svg version="1.1" id="图层_1" xmlns="http://www.w3.org/2000/svg" xmlns:xlink="http://www.w3.org/1999/xlink" x="0px" y="0px"
	 width="61px" height="75px" viewBox="0 0 61 75" enable-background="new 0 0 61 75" xml:space="preserve">
<g id="Layer_1">
	<g>
		<g>
			<g>
				<rect x="13.811" y="10.484" fill="#8C3123" width="33.377" height="8.871"/>
			</g>
		</g>
	</g>
	<polygon fill="#8C3123" points="43.16,2.88 17.839,2.88 14.387,3.456 14.387,6.336 46.613,6.336 46.613,3.456 	"/>
	<g>
		<path fill="#8C3123" d="M30.5,14.862L61,19.355v2.65c0,4.032-13.696,7.143-30.5,7.143S0,25.922,0,22.005v-2.88L30.5,14.862z"/>
	</g>
	<g>
		<path fill="#8C3123" d="M30.5,34.102c12.775,0,23.709-1.843,28.199-4.493l1.497-2.535l0.574-2.304v2.88L50.756,70.277
			c0,2.648-9.092,4.723-20.372,4.723c-11.278,0-20.372-2.073-20.372-4.723L0,27.65v-2.88l2.301,4.839
			C7.135,32.374,17.954,34.102,30.5,34.102z"/>
	</g>
	<g>
		<g>
			<g>
				<rect x="13.811" y="7.604" fill="#E05243" width="33.377" height="8.871"/>
			</g>
		</g>
	</g>
	<polygon fill="#E05243" points="43.16,0 17.839,0 14.387,3.456 46.613,3.456 	"/>
	<g>
		<path fill="#E05243" d="M30.5,11.981c16.804,0,30.5,3.226,30.5,7.143c0,4.032-13.696,7.143-30.5,7.143S0,23.042,0,19.125
			S13.696,11.981,30.5,11.981z"/>
	</g>
	<g>
		<path fill="#E05243" d="M30.5,31.222c15.652,0,28.66-2.765,30.271-6.336L50.756,67.512c0,2.65-9.092,4.725-20.372,4.725
			c-11.278,0-20.372-2.073-20.372-4.725L0,24.885C1.957,28.457,14.847,31.222,30.5,31.222z"/>
	</g>
</g>
</svg>
