<?xml version="1.0" encoding="utf-8"?>
<!-- Generator: Adobe Illustrator 16.0.0, SVG Export Plug-In . SVG Version: 6.00 Build 0)  -->
<!DOCTYPE svg PUBLIC "-//W3C//DTD SVG 1.1//EN" "http://www.w3.org/Graphics/SVG/1.1/DTD/svg11.dtd">
<svg version="1.1"
	 id="图层_1" xmlns:dc="http://purl.org/dc/elements/1.1/" xmlns:cc="http://creativecommons.org/ns#" xmlns:rdf="http://www.w3.org/1999/02/22-rdf-syntax-ns#"
	 xmlns="http://www.w3.org/2000/svg" xmlns:xlink="http://www.w3.org/1999/xlink" x="0px" y="0px" width="75px" height="75px"
	 viewBox="0 0 75 75" enable-background="new 0 0 75 75" xml:space="preserve">
<path fill="#00BCF2" d="M9.378,54.327C4.253,45.194,0.033,37.67,0,37.61c-0.033-0.061,4.167-7.633,9.332-16.827l9.391-16.716h18.801
	h18.803l9.296,16.546c5.112,9.1,9.332,16.643,9.377,16.761c0.047,0.122-3.913,7.328-9.263,16.852L56.395,70.86l-18.85,0.037
	l-18.849,0.037L9.378,54.327L9.378,54.327z M64.042,50.917c1.129-1.172,4.341-6.23,6.976-10.988l0.41-0.742l-0.764-1.521
	c-2.521-5.024-5.774-10.472-6.896-11.546l-0.423-0.404l-26.44,0.037l-26.439,0.039l-0.542,0.414
	c-0.298,0.228-0.675,0.675-0.838,0.994c-0.29,0.567-0.295,0.813-0.256,11.601l0.04,11.02l0.393,0.594
	c0.23,0.348,0.658,0.725,1.031,0.91l0.638,0.316h26.207h26.207L64.042,50.917L64.042,50.917z M11.225,49.549
	c-0.162-0.092-0.343-0.24-0.403-0.328s-0.109-4.85-0.11-10.58c0-10.23,0-10.425,0.293-10.715c0.293-0.293,0.454-0.294,25.959-0.257
	l25.664,0.037l0.832,1.252c0.999,1.503,2.568,4.229,4.401,7.645l1.352,2.518L68,41.217c-1.856,3.205-3.819,6.361-4.637,7.451
	l-0.737,0.982l-25.553,0.033C18.22,49.708,11.443,49.672,11.225,49.549L11.225,49.549z M35.858,47.223l0.479-0.293v-7.887v-7.884
	l-0.377-0.144c-0.232-0.088-4.29-0.144-10.529-0.144h-10.15L15.2,31.203c-0.045,0.183-0.063,3.864-0.04,8.18
	c0.036,6.785,0.072,7.865,0.263,7.988c0.133,0.082,4.129,0.139,10.089,0.141C35.092,47.514,35.394,47.506,35.858,47.223
	L35.858,47.223z M17.043,40.446c0-2.755,0.049-5.006,0.11-5.002c0.062,0,1.858,1.428,3.994,3.166
	c2.945,2.396,3.981,3.162,4.286,3.162c0.221,0,0.681-0.203,1.021-0.449c0.679-0.492,6.34-4.892,7.342-5.706l0.626-0.509v5.174v5.172
	h-8.689h-8.69V40.446z M21.213,36.209c-2.203-1.762-4.009-3.252-4.014-3.313c0-0.061,3.636-0.11,8.091-0.11
	c4.835,0,8.101,0.055,8.101,0.136c0,0.137-7.693,6.313-8.006,6.428C25.293,39.383,23.415,37.971,21.213,36.209z M60.641,47.219
	c0.286-0.285,0.294-0.49,0.294-8.143c0-5.91-0.044-7.895-0.177-8.028c-0.234-0.233-20.313-0.257-20.748-0.024
	c-0.276,0.148-0.285,0.392-0.285,8.016v7.865l0.389,0.305c0.384,0.301,0.495,0.307,10.31,0.307
	C60.148,47.516,60.352,47.508,60.641,47.219L60.641,47.219z M41.64,40.446c0-2.755,0.033-5.008,0.075-5.008
	c0.04,0,1.868,1.425,4.06,3.166c3.078,2.447,4.08,3.168,4.402,3.168c0.43,0,1.071-0.465,5.088-3.676
	c0.971-0.778,2.214-1.767,2.761-2.196l0.994-0.782v5.168v5.168H50.33h-8.689L41.64,40.446L41.64,40.446z M46.103,36.206
	c-2.203-1.759-4.009-3.248-4.014-3.309c0-0.061,3.639-0.11,8.094-0.11c4.896,0,8.101,0.055,8.101,0.137
	c0,0.144-7.685,6.312-7.997,6.419C50.189,39.377,48.307,37.965,46.103,36.206L46.103,36.206z"/>
</svg>
