<?xml version="1.0" encoding="utf-8"?>
<!-- Generator: Adobe Illustrator 16.0.0, SVG Export Plug-In . SVG Version: 6.00 Build 0)  -->
<!DOCTYPE svg PUBLIC "-//W3C//DTD SVG 1.1//EN" "http://www.w3.org/Graphics/SVG/1.1/DTD/svg11.dtd">
<svg version="1.1" id="图层_1" xmlns="http://www.w3.org/2000/svg" xmlns:xlink="http://www.w3.org/1999/xlink" x="0px" y="0px"
	 width="54px" height="78px" viewBox="0 0 54 78" enable-background="new 0 0 54 78" xml:space="preserve">
<g id="Layer_1">
	<g>
		<polygon fill="#8C3123" points="52.729,8.369 52.729,11.249 0.692,11.249 0.692,8.369 26.769,1.345 		"/>
	</g>
	<g>
		<rect y="17.581" fill="#8C3123" width="54" height="59.419"/>
	</g>
	<rect y="14.933" fill="#E05243" width="54" height="59.188"/>
	<polygon fill="#E05243" points="45.461,1 8.654,1 0.692,8.369 1.27,8.369 52.729,8.369 	"/>
	<g>
		<path fill="#8C3123" d="M22.615,39.807c1.27-0.922,2.77-1.498,4.385-1.498c2.076,0,3.923,0.807,5.307,2.305l4.04-1.959v-2.302
			c0,0-6.114-2.419-9.346-2.419c-2.653,0-8.077,0.921-8.077,0.921v2.302L22.615,39.807z"/>
		<path fill="#8C3123" d="M34.385,44.758c0,0.346,0.115,0.691,0.115,1.037c0,3.568-3.001,8.635-6.346,9.326v2.303
			c5.999-0.461,10.961-5.873,10.961-11.976c0-1.036-0.348-3.915-0.577-4.835L34.385,44.758z"/>
		<path fill="#8C3123" d="M23.769,52.474v-2.303c0,0-0.923,0.345-1.5,0c-1.27-0.806-3.346-2.648-3.346-4.031
			c0-0.691-0.231-1.844,0-2.646l1.037-2.189l-3.691-2.647c-1.155,3.338-1.155,5.065-1.155,6.793c0,5.181,3.577,9.902,8.309,11.399
			L23.769,52.474z"/>
	</g>
	<path fill="#FFFFFF" d="M45.576,35.775l-1.039-2.073l-12.692,6.104c-1.151-1.498-3-2.534-4.96-2.534
		c-1.732,0-3.231,0.691-4.385,1.728l-10.847-7.83l-1.385,1.842l10.847,7.831c-0.348,0.807-0.577,1.728-0.577,2.65
		c0,2.763,1.846,5.064,4.27,5.872l-1.153,12.896l2.308,0.231l1.153-12.782C30.462,49.479,33,46.832,33,43.493
		c0-0.575-0.116-1.152-0.23-1.613L45.576,35.775z"/>
	<g>
		<path fill="#FFFFFF" d="M22.615,37.503c1.27-0.922,2.77-1.498,4.385-1.498c2.076,0,3.923,0.806,5.307,2.302l4.04-1.957
			c-2.191-2.879-5.538-4.721-9.346-4.721c-3.115,0-6,1.267-8.077,3.225L22.615,37.503z"/>
		<path fill="#FFFFFF" d="M34.385,42.455c0,0.345,0.115,0.69,0.115,1.036c0,3.568-2.54,6.563-6.001,7.253l-0.46,4.376
			c5.999-0.461,10.729-5.526,10.729-11.629c0-1.037-0.114-1.96-0.346-2.88L34.385,42.455z"/>
		<path fill="#FFFFFF" d="M23.769,50.171c-2.538-1.27-4.27-3.801-4.27-6.68c0-0.692,0.116-1.499,0.346-2.189l-3.692-2.647
			c-0.692,1.498-1.039,2.994-1.039,4.722c0,5.182,3.462,9.673,8.192,11.168L23.769,50.171z"/>
	</g>
</g>
</svg>
