<?xml version="1.0" encoding="utf-8"?>
<!-- Generator: Adobe Illustrator 16.0.0, SVG Export Plug-In . SVG Version: 6.00 Build 0)  -->
<!DOCTYPE svg PUBLIC "-//W3C//DTD SVG 1.1//EN" "http://www.w3.org/Graphics/SVG/1.1/DTD/svg11.dtd">
<svg version="1.1" id="图层_1" xmlns="http://www.w3.org/2000/svg" xmlns:xlink="http://www.w3.org/1999/xlink" x="0px" y="0px"
	 width="63px" height="78px" viewBox="0 0 63 78" enable-background="new 0 0 63 78" xml:space="preserve">
<g id="Layer_1">
	<g>
		<polygon fill="#8C3123" points="63,2.972 63,78 40.652,78 40.652,65.99 22.346,65.99 22.346,78 0,78 0,2.972 		"/>
	</g>
	<g>
		<polygon fill="#E05243" points="63,0 63,75.028 40.652,75.028 40.652,63.018 22.346,63.018 22.346,75.028 0,75.028 0,0 		"/>
	</g>
	<path fill="#8C3123" d="M52.42,32.46c-1.308-0.594-3.093-1.189-4.519-1.308c-0.833-0.119-2.378,1.666-3.21,1.666
		c-4.277,0.476-8.319,3.091-10.222,7.253c-1.781,3.685-1.543,7.73,0.119,11.176c0.238,0.596-7.727,1.783-7.251,1.072
		c1.544-2.142,2.495-4.64,2.495-7.374c0-6.777-5.348-12.367-12.005-12.723c-0.238,0-1.665-1.902-1.902-1.902
		c-2.257,0-3.209,0.356-4.992,1.428c-0.357,0.238-0.713,2.496-1.07,2.734c-3.329,2.26-5.468,6.184-5.468,10.463
		c0,7.016,5.705,12.723,12.718,12.723c2.258,0,4.399-0.596,6.182-1.667c0.712,0.121,1.425,0.121,2.258,0.121
		c0,0,6.062,0.712,12.482-0.833c0.833,0.596,1.666,1.188,2.614,1.666c6.417,2.972,14.024,0.237,16.996-6.066
		c2.619-5.587,0.834-12.127-4.04-15.694C52.895,34.72,53.133,32.818,52.42,32.46z M13.67,51.602l-1.783,1.428
		c-0.952,0.833-3.923-2.257-3.568-3.09c0.119-0.24,0.357-0.478,0.595-0.716l1.784-1.545c1.068-0.833,2.494-0.595,3.327,0.357v0.238
		C14.857,49.346,14.621,50.772,13.67,51.602z M12.479,39.238l-0.713-2.26c-0.476-1.188,0.238-2.616,1.426-2.972l0.238-0.119
		c1.19-0.477,2.616,0.238,2.971,1.426l0.714,2.26c0.476,1.188-0.237,2.618-1.426,2.971l-0.238,0.119
		C14.263,41.141,12.837,40.428,12.479,39.238z M16.879,46.728c-0.952,0-1.783-0.83-1.783-1.782c0-0.95,0.832-1.782,1.783-1.782
		c0.95,0,1.783,0.832,1.783,1.782C18.661,45.897,17.83,46.728,16.879,46.728z M23.417,48.156c-1.309,0-2.26-1.07-2.26-2.378V45.54
		c0-1.307,1.069-2.261,2.378-2.261h2.376c1.309,0,2.26,1.07,2.26,2.378v0.24c0,1.31-1.071,2.259-2.378,2.259H23.417z M41.483,44.706
		v0.238c-0.237,1.307-1.308,2.14-2.614,2.022l-2.261-0.241c-1.306-0.237-2.139-1.308-2.02-2.615v-0.237
		c0.238-1.309,1.31-2.142,2.614-2.022l2.261,0.239C40.771,42.33,41.604,43.4,41.483,44.706z M44.575,46.489
		c-0.358-0.474-0.358-1.188-0.119-1.783c0.358-0.831,1.425-1.306,2.376-0.831c0.357,0.237,0.716,0.594,0.832,1.069
		C47.784,45.304,44.691,46.728,44.575,46.489z M46.476,54.574l-0.595-2.255c-0.357-1.31,0.476-2.499,1.667-2.857h0.237
		c1.307-0.354,2.496,0.479,2.851,1.667l0.595,2.14C51.23,53.387,46.832,55.765,46.476,54.574z M52.658,38.881l-1.069,2.142
		c-0.594,1.188-1.902,1.663-3.093,1.07l-0.237-0.119c-1.19-0.596-1.665-1.902-1.069-3.093l1.069-2.139
		c0.594-1.19,1.902-1.665,3.093-1.07l0.237,0.119C52.775,36.383,53.252,37.692,52.658,38.881z"/>
	<path fill="#FFFFFF" d="M51.468,31.034c-6.417-2.972-14.025-0.238-16.998,6.064c-2.021,4.28-1.427,9.155,1.07,12.844
		c-2.971,0.712-6.301,1.188-9.748,1.188c2.378-2.378,3.922-5.588,3.922-9.155c0-7.016-5.706-12.724-12.719-12.724
		S4.278,34.958,4.278,41.974c0,7.016,5.705,12.722,12.718,12.722c2.258,0,4.398-0.594,6.181-1.666
		c0.714,0.121,1.427,0.121,2.259,0.121c0,0,6.062,0.712,12.48-0.833c0.832,0.595,1.664,1.188,2.616,1.665
		c6.42,2.973,14.026,0.237,17-6.064C60.503,41.615,57.889,34.006,51.468,31.034z M13.67,48.63l-1.783,1.428
		c-0.952,0.833-2.379,0.595-3.21-0.357l-0.119-0.238c-0.832-0.949-0.594-2.376,0.357-3.209l1.784-1.545
		c1.068-0.833,2.494-0.595,3.327,0.357v0.238C14.857,46.373,14.621,47.801,13.67,48.63z M12.479,36.266l-0.713-2.259
		c-0.476-1.188,0.238-2.616,1.426-2.973l0.238-0.118c1.19-0.477,2.616,0.238,2.971,1.426l0.714,2.258
		c0.476,1.191-0.237,2.617-1.426,2.974l-0.238,0.119C14.263,38.168,12.837,37.454,12.479,36.266z M16.879,43.755
		c-0.952,0-1.783-0.834-1.783-1.783s0.832-1.782,1.783-1.782c0.95,0,1.783,0.833,1.783,1.782
		C18.661,42.921,17.83,43.755,16.879,43.755z M23.417,45.183c-1.309,0-2.26-1.07-2.26-2.377v-0.238c0-1.307,1.069-2.261,2.378-2.261
		h2.376c1.309,0,2.26,1.07,2.26,2.378v0.241c0,1.309-1.071,2.257-2.378,2.257H23.417L23.417,45.183z M41.483,41.734v0.237
		c-0.237,1.308-1.308,2.141-2.614,2.022l-2.261-0.24c-1.306-0.238-2.139-1.308-2.02-2.615V40.9c0.238-1.309,1.31-2.141,2.614-2.021
		l2.261,0.238C40.771,39.355,41.604,40.428,41.483,41.734z M45.287,44.112c-0.831-0.357-1.307-1.428-0.831-2.378
		c0.358-0.832,1.425-1.307,2.376-0.832c0.832,0.475,1.19,1.546,0.832,2.377C47.31,44.112,46.24,44.588,45.287,44.112z M49.565,53.15
		l-0.238,0.116c-1.305,0.358-2.495-0.476-2.852-1.666l-0.595-2.257c-0.357-1.308,0.476-2.498,1.667-2.855h0.237
		c1.307-0.355,2.496,0.479,2.851,1.666l0.595,2.141C51.588,51.602,50.756,52.792,49.565,53.15z M52.658,35.908l-1.069,2.141
		c-0.594,1.189-1.902,1.663-3.093,1.07L48.259,39c-1.19-0.596-1.665-1.903-1.069-3.092l1.069-2.14
		c0.594-1.19,1.902-1.665,3.093-1.07l0.237,0.119C52.775,33.411,53.252,34.72,52.658,35.908z"/>
	<g enable-background="new    ">
		<path fill="#FFFFFF" d="M20.683,19.619h-2.021L13.907,6.064h1.902l3.923,11.771l0,0l3.921-11.771h1.902L20.683,19.619z"/>
	</g>
	<g enable-background="new    ">
		<path fill="#FFFFFF" d="M31.261,7.492h-4.517V5.944h10.817v1.546h-4.519V19.5H31.26L31.261,7.492L31.261,7.492z"/>
	</g>
	<g enable-background="new    ">
		<path fill="#FFFFFF" d="M40.176,5.944h1.782v12.009h7.133V19.5h-9.034V5.944H40.176z"/>
	</g>
</g>
</svg>
