<?xml version="1.0" encoding="utf-8"?>
<!-- Generator: Adobe Illustrator 16.0.0, SVG Export Plug-In . SVG Version: 6.00 Build 0)  -->
<!DOCTYPE svg PUBLIC "-//W3C//DTD SVG 1.1//EN" "http://www.w3.org/Graphics/SVG/1.1/DTD/svg11.dtd">
<svg version="1.1" id="图层_1" xmlns="http://www.w3.org/2000/svg" xmlns:xlink="http://www.w3.org/1999/xlink" x="0px" y="0px"
	 width="63px" height="76px" viewBox="0 0 63 76" enable-background="new 0 0 63 76" xml:space="preserve">
<g id="Layer_1">
	<polygon fill="#8C3123" points="7.646,27.578 14.736,26.194 23.118,34.404 14.736,40.858 7.646,40.488 	"/>
	<polygon fill="#F2B0A9" points="38.409,44.731 54.248,64.563 63,44.642 48.264,43.72 	"/>
	<polygon fill="#F2B0A9" points="24.591,44.731 8.751,64.563 0,44.642 14.736,43.72 	"/>
	<polygon fill="#E05243" points="63,44.642 54.248,45.931 54.248,64.563 63,60.228 	"/>
	<polygon fill="#E05243" points="25.789,27.668 14.736,26.194 14.736,40.858 25.789,40.488 	"/>
	<polygon fill="#8C3123" points="37.117,27.668 48.171,26.194 54.248,34.035 48.171,40.858 37.117,40.488 	"/>
	<polygon fill="#E05243" points="55.261,27.578 48.171,26.194 48.171,40.858 55.261,40.488 	"/>
	<polygon fill="#8C3123" points="20.172,25.087 31.5,22.781 39.882,33.481 31.5,41.688 20.172,41.139 	"/>
	<polygon fill="#5E1F18" points="40.801,18.078 31.407,20.201 22.013,18.078 31.5,0 	"/>
	<polygon fill="#8C3123" points="38.409,44.731 54.248,45.931 54.248,64.563 38.409,60.319 	"/>
	<polygon fill="#8C3123" points="0,44.642 8.751,45.931 8.751,64.563 0,60.228 	"/>
	<polygon fill="#E05243" points="24.591,44.731 8.751,45.931 8.751,64.563 24.591,60.319 	"/>
	<polygon fill="#F2B0A9" points="48.171,46.855 31.5,45.287 14.83,46.855 31.5,76 	"/>
	<polygon fill="#E05243" points="48.171,46.855 31.5,49.343 31.5,76 48.171,67.605 	"/>
	<polygon fill="#8C3123" points="14.83,46.855 31.5,49.343 31.5,76 14.83,67.605 	"/>
	<polygon fill="#E05243" points="42.734,25.087 31.5,22.781 31.5,41.688 42.734,41.139 	"/>
	<polygon fill="#E05243" points="40.801,4.703 31.5,0 31.5,15.219 40.801,18.078 	"/>
	<polygon fill="#8C3123" points="22.013,4.703 31.5,0 31.5,15.219 22.013,18.078 	"/>
</g>
</svg>
