<?xml version="1.0" encoding="utf-8"?>
<!-- Generator: Adobe Illustrator 16.0.0, SVG Export Plug-In . SVG Version: 6.00 Build 0)  -->
<!DOCTYPE svg PUBLIC "-//W3C//DTD SVG 1.1//EN" "http://www.w3.org/Graphics/SVG/1.1/DTD/svg11.dtd">
<svg version="1.1" id="图层_1" xmlns="http://www.w3.org/2000/svg" xmlns:xlink="http://www.w3.org/1999/xlink" x="0px" y="0px"
	 width="63px" height="76px" viewBox="0 0 63 76" enable-background="new 0 0 63 76" xml:space="preserve">
<g id="Layer_1">
	<polygon fill="#F2B0A9" points="22.013,44.456 7.552,63.918 0,44.55 13.815,43.72 	"/>
	<polygon fill="#F2B0A9" points="40.801,44.456 55.448,64.013 62.905,44.55 49.182,43.72 	"/>
	<polygon fill="#5E1F18" points="22.013,31.544 7.552,11.991 0,31.544 13.909,32.375 	"/>
	<polygon fill="#5E1F18" points="40.801,31.544 55.448,11.991 63,31.544 49.182,32.375 	"/>
	<polygon fill="#8C3123" points="40.801,31.544 55.448,30.438 55.448,11.991 40.801,15.771 	"/>
	<polygon fill="#E05243" points="63,31.544 55.448,30.438 55.448,11.991 63,15.771 	"/>
	<polygon fill="#8C3123" points="40.801,44.456 55.448,45.657 55.448,64.013 40.801,60.228 	"/>
	<polygon fill="#E05243" points="62.905,44.55 55.448,45.657 55.448,64.013 62.905,60.319 	"/>
	<polygon fill="#E05243" points="22.013,31.544 7.552,30.438 7.552,11.991 22.013,15.771 	"/>
	<polygon fill="#8C3123" points="0,31.544 7.552,30.438 7.552,11.991 0,15.771 	"/>
	<polygon fill="#E05243" points="22.013,44.456 7.552,45.657 7.552,64.013 22.013,60.228 	"/>
	<polygon fill="#8C3123" points="0,44.55 7.552,45.657 7.552,64.013 0,60.228 	"/>
	<polygon fill="#F2B0A9" points="46.511,46.944 31.5,45.381 16.302,46.855 31.5,76 	"/>
	<polygon fill="#5E1F18" points="46.511,29.147 31.5,30.622 16.302,29.147 31.5,0 	"/>
	<polygon fill="#E05243" points="46.511,29.147 31.5,26.932 31.5,0 46.511,7.563 	"/>
	<polygon fill="#8C3123" points="16.302,29.147 31.5,26.932 31.5,0 16.302,7.657 	"/>
	<polygon fill="#E05243" points="46.511,46.944 31.5,49.068 31.5,76 46.511,68.53 	"/>
	<polygon fill="#8C3123" points="16.302,46.855 31.5,49.068 31.5,76 16.302,68.438 	"/>
</g>
</svg>
