<?xml version="1.0" encoding="utf-8"?>
<!-- Generator: Adobe Illustrator 16.0.0, SVG Export Plug-In . SVG Version: 6.00 Build 0)  -->
<!DOCTYPE svg PUBLIC "-//W3C//DTD SVG 1.1//EN" "http://www.w3.org/Graphics/SVG/1.1/DTD/svg11.dtd">
<svg version="1.1"
	 id="svg2" xmlns:dc="http://purl.org/dc/elements/1.1/" xmlns:cc="http://creativecommons.org/ns#" xmlns:rdf="http://www.w3.org/1999/02/22-rdf-syntax-ns#" xmlns:svg="http://www.w3.org/2000/svg"
	 xmlns="http://www.w3.org/2000/svg" xmlns:xlink="http://www.w3.org/1999/xlink" x="0px" y="0px" width="75px" height="70px"
	 viewBox="0 0 75 70" enable-background="new 0 0 75 70" xml:space="preserve">
<g id="g12" transform="scale(0.1,0.1)">
	<path id="path22" fill="#026C9B" d="M0.64,688.335h559.863V114.355H0.64V688.335z"/>
	<path id="path24" fill="none" stroke="#FFFFFF" stroke-width="4" d="M0.64,688.335h559.863V114.355H0.64V688.335z"/>
	<path id="path26" fill="#026C9B" d="M673.979,0L560.503,114.175H0L121.089,0H673.979"/>
	<path id="path28" fill="none" stroke="#FFFFFF" stroke-width="4" d="M673.979,0L560.503,114.175H0L121.089,0H673.979z"/>
	<path id="path30" fill="#026C9B" d="M674.683,550.034V0.376l-114.18,114.326v571.406L674.683,550.034"/>
	<path id="path32" fill="none" stroke="#FFFFFF" stroke-width="4" d="M674.683,550.034V0.376l-114.18,114.326v571.406
		L674.683,550.034z"/>
	<path id="path34" fill="none" stroke="#FFFFFF" stroke-width="14.25" stroke-linecap="round" stroke-miterlimit="3.86" d="
		M4.844,678.374l541.479-545.429"/>
	<g id="g36" transform="scale(10,10)" style="font-variant:normal;font-weight:normal;font-size:14.9256px;font-family:Helvetica;-inkscape-font-specification:Helvetica;writing-mode:lr-tb;fill:#ffffff;fill-opacity:1;fill-rule:nonzero;stroke:none">
		<text transform="matrix(0.9927 0 0 1 25.5913 65.1538)">S</text>
		<text transform="matrix(0.9927 0 0 1 35.4761 65.1538)">T</text>
		<text transform="matrix(0.9927 0 0 1 44.5347 65.1538)">P</text>
	</g>
</g>
</svg>
