<?xml version="1.0" encoding="utf-8"?>
<!-- Generator: Adobe Illustrator 16.0.0, SVG Export Plug-In . SVG Version: 6.00 Build 0)  -->
<!DOCTYPE svg PUBLIC "-//W3C//DTD SVG 1.1//EN" "http://www.w3.org/Graphics/SVG/1.1/DTD/svg11.dtd">
<svg version="1.1"
	 id="svg2" xmlns:dc="http://purl.org/dc/elements/1.1/" xmlns:cc="http://creativecommons.org/ns#" xmlns:rdf="http://www.w3.org/1999/02/22-rdf-syntax-ns#" xmlns:svg="http://www.w3.org/2000/svg"
	 xmlns="http://www.w3.org/2000/svg" xmlns:xlink="http://www.w3.org/1999/xlink" x="0px" y="0px" width="79px" height="55px"
	 viewBox="0 0 79 55" enable-background="new 0 0 79 55" xml:space="preserve">
<g id="g12" transform="scale(0.1,0.1)">
	<path id="path14" fill="#1286BE" d="M0,550h689.814V96.289H0V550z"/>
	<path id="path16" fill="none" stroke="#FFFFFF" stroke-width="4" d="M0,550h689.814V96.289H0V550z"/>
	<path id="path18" fill="#1286BE" d="M790,459.736L689.814,550V96.289L790,0V459.736"/>
	<path id="path20" fill="none" stroke="#FFFFFF" stroke-width="4" d="M790,459.736L689.814,550V96.289L790,0V459.736z"/>
	<path id="path22" fill="#1286BE" d="M119.097,0H790L689.814,96.289H0L119.097,0"/>
	<path id="path24" fill="none" stroke="#FFFFFF" stroke-width="4" d="M119.097,0H790L689.814,96.289H0L119.097,0z"/>
	<path id="path26" fill="#FFFFFF" d="M140,344.248l-100.522,0.068v-18.428L140,325.83l0.024-28.652l66.851,37.89l-66.851,37.891
		L140,344.248"/>
	<path id="path28" fill="#FFFFFF" d="M546.924,215.547l-70.283,0.068V197.3l70.283-0.049l0.029-28.779l66.973,37.886l-66.973,37.998
		L546.924,215.547"/>
	<path id="path30" fill="#FFFFFF" d="M601.104,330.107l-124.463,0.273v-18.427l124.463-0.039l0.029-28.662l66.973,37.89
		l-66.973,37.891L601.104,330.107"/>
	<path id="path32" fill="#FFFFFF" d="M546.924,444.883l-70.283,0.059v-18.428l70.283-0.049l0.029-28.682l66.973,37.91l-66.973,37.9
		L546.924,444.883"/>
	<path id="path34" d="M247.383,496.015h174.785V155.19H247.383V496.015z"/>
	<path id="path36" fill="none" stroke="#FFFFFF" stroke-width="8" d="M247.383,496.015h174.785V155.19H247.383V496.015z"/>
	<path id="path38" d="M423.32,131.309v385.566l-177.876-0.059V131.235L423.32,131.309"/>
	<path id="path40" fill="none" stroke="#FFFFFF" stroke-width="2.945" d="M423.32,131.309v385.566l-177.876-0.059V131.235
		L423.32,131.309z"/>
	<path id="path42" fill="#FFFFFF" d="M369.941,425.527v51.172l-77.139-0.039v-51.162L369.941,425.527"/>
	<path id="path44" fill="none" stroke="#FFFFFF" stroke-width="1.111" d="M369.941,425.527v51.172l-77.139-0.039v-51.162
		L369.941,425.527z"/>
	<path id="path46" fill="#FFFFFF" d="M409.57,478.144v15.371l-12.998,0.02v-15.391H409.57"/>
	<path id="path48" fill="none" stroke="#FFFFFF" stroke-width="0.333" d="M409.57,478.144v15.371l-12.998,0.02v-15.391H409.57z"/>
	<path id="path50" fill="#FFFFFF" d="M409.57,446.67v15.381l-12.998,0.01V446.67H409.57"/>
	<path id="path52" fill="none" stroke="#FFFFFF" stroke-width="0.333" d="M409.57,446.67v15.381l-12.998,0.01V446.67H409.57z"/>
	<path id="path54" fill="#FFFFFF" d="M409.57,415.42v15.4l-12.998,0.01v-15.41H409.57"/>
	<path id="path56" fill="none" stroke="#FFFFFF" stroke-width="0.333" d="M409.57,415.42v15.4l-12.998,0.01v-15.41H409.57z"/>
	<path id="path58" fill="#FFFFFF" d="M409.57,383.955v15.391l-12.998,0.029v-15.42H409.57"/>
	<path id="path60" fill="none" stroke="#FFFFFF" stroke-width="0.333" d="M409.57,383.955v15.391l-12.998,0.029v-15.42H409.57z"/>
	<path id="path62" fill="#FFFFFF" d="M396.572,367.89h12.998v-15.166h-12.998V367.89z"/>
	<path id="path64" fill="none" stroke="#FFFFFF" stroke-width="0.333" d="M396.572,367.89h12.998v-15.166h-12.998V367.89z"/>
	<path id="path66" fill="#FFFFFF" d="M409.57,321.26v15.391l-12.998,0.02v-15.41H409.57"/>
	<path id="path68" fill="none" stroke="#FFFFFF" stroke-width="0.333" d="M409.57,321.26v15.391l-12.998,0.02v-15.41H409.57z"/>
	<path id="path70" fill="#FFFFFF" d="M409.57,289.795v15.391l-12.998,0.02v-15.41H409.57"/>
	<path id="path72" fill="none" stroke="#FFFFFF" stroke-width="0.333" d="M409.57,289.795v15.391l-12.998,0.02v-15.41H409.57z"/>
	<path id="path74" fill="#FFFFFF" d="M409.57,258.438v15.391l-12.998,0.02v-15.41H409.57"/>
	<path id="path76" fill="none" stroke="#FFFFFF" stroke-width="0.333" d="M409.57,258.438v15.391l-12.998,0.02v-15.41H409.57z"/>
	<path id="path78" fill="#FFFFFF" d="M409.57,227.09v15.371l-12.998,0.039v-15.41H409.57"/>
	<path id="path80" fill="none" stroke="#FFFFFF" stroke-width="0.333" d="M409.57,227.09v15.371l-12.998,0.039v-15.41H409.57z"/>
	<path id="path82" fill="#FFFFFF" d="M409.57,195.732v15.283l-12.998,0.02v-15.278L409.57,195.732"/>
	<path id="path84" fill="none" stroke="#FFFFFF" stroke-width="0.333" d="M409.57,195.732v15.283l-12.998,0.02v-15.278
		L409.57,195.732z"/>
	<path id="path86" fill="#FFFFFF" d="M409.57,164.277v15.376l-12.998,0.015v-15.386L409.57,164.277"/>
	<path id="path88" fill="none" stroke="#FFFFFF" stroke-width="0.333" d="M409.57,164.277v15.376l-12.998,0.015v-15.386
		L409.57,164.277z"/>
	<path id="path90" fill="#FFFFFF" d="M271.191,477.324v15.4l-13.027,0.029v-15.43H271.191"/>
	<path id="path92" fill="none" stroke="#FFFFFF" stroke-width="0.333" d="M271.191,477.324v15.4l-13.027,0.029v-15.43H271.191z"/>
	<path id="path94" fill="#FFFFFF" d="M271.191,445.859v15.381l-13.027,0.029v-15.4L271.191,445.859"/>
	<path id="path96" fill="none" stroke="#FFFFFF" stroke-width="0.333" d="M271.191,445.859v15.381l-13.027,0.029v-15.4
		L271.191,445.859z"/>
	<path id="path98" fill="#FFFFFF" d="M271.191,414.619v15.371l-13.027,0.049v-15.42H271.191"/>
	<path id="path100" fill="none" stroke="#FFFFFF" stroke-width="0.333" d="M271.191,414.619v15.371l-13.027,0.049v-15.42H271.191z"
		/>
	<path id="path102" fill="#FFFFFF" d="M271.191,383.164v15.381l-13.027,0.02v-15.4H271.191"/>
	<path id="path104" fill="none" stroke="#FFFFFF" stroke-width="0.333" d="M271.191,383.164v15.381l-13.027,0.02v-15.4H271.191z"/>
	<path id="path106" fill="#FFFFFF" d="M271.191,351.679v15.391l-13.027,0.02v-15.41H271.191"/>
	<path id="path108" fill="none" stroke="#FFFFFF" stroke-width="0.333" d="M271.191,351.679v15.391l-13.027,0.02v-15.41H271.191z"/>
	<path id="path110" fill="#FFFFFF" d="M271.191,320.439v15.41l-13.027,0.02v-15.429H271.191"/>
	<path id="path112" fill="none" stroke="#FFFFFF" stroke-width="0.333" d="M271.191,320.439v15.41l-13.027,0.02v-15.429H271.191z"/>
	<path id="path114" fill="#FFFFFF" d="M271.191,288.994v15.391h-13.027v-15.4L271.191,288.994"/>
	<path id="path116" fill="none" stroke="#FFFFFF" stroke-width="0.333" d="M271.191,288.994v15.391h-13.027v-15.4L271.191,288.994z"
		/>
	<path id="path118" fill="#FFFFFF" d="M271.191,257.627v15.4l-13.027,0.02v-15.43L271.191,257.627"/>
	<path id="path120" fill="none" stroke="#FFFFFF" stroke-width="0.333" d="M271.191,257.627v15.4l-13.027,0.02v-15.43
		L271.191,257.627z"/>
	<path id="path122" fill="#FFFFFF" d="M271.191,226.289v15.381l-13.027,0.01v-15.391H271.191"/>
	<path id="path124" fill="none" stroke="#FFFFFF" stroke-width="0.333" d="M271.191,226.289v15.381l-13.027,0.01v-15.391H271.191z"
		/>
	<path id="path126" fill="#FFFFFF" d="M271.191,194.819v15.376l-13.027,0.01v-15.386H271.191"/>
	<path id="path128" fill="none" stroke="#FFFFFF" stroke-width="0.333" d="M271.191,194.819v15.376l-13.027,0.01v-15.386H271.191z"
		/>
	<path id="path130" fill="#FFFFFF" d="M271.191,163.457v15.396h-13.027v-15.4L271.191,163.457"/>
	<path id="path132" fill="none" stroke="#FFFFFF" stroke-width="0.333" d="M271.191,163.457v15.396h-13.027v-15.4L271.191,163.457z"
		/>
	<path id="path134" fill="#FFFFFF" d="M369.941,341.924v51.182l-77.139-0.029V341.66L369.941,341.924"/>
	<path id="path136" fill="none" stroke="#FFFFFF" stroke-width="1.111" d="M369.941,341.924v51.182l-77.139-0.029V341.66
		L369.941,341.924z"/>
	<path id="path138" fill="#FFFFFF" d="M369.941,258.105v51.377l-77.139-0.244v-51.172L369.941,258.105"/>
	<path id="path140" fill="none" stroke="#FFFFFF" stroke-width="1.111" d="M369.941,258.105v51.377l-77.139-0.244v-51.172
		L369.941,258.105z"/>
	<path id="path142" fill="#FFFFFF" d="M369.941,174.502v51.162l-77.139-0.039v-51.289L369.941,174.502"/>
	<path id="path144" fill="none" stroke="#FFFFFF" stroke-width="1.111" d="M369.941,174.502v51.162l-77.139-0.039v-51.289
		L369.941,174.502z"/>
</g>
</svg>
