<?xml version="1.0" encoding="utf-8"?>
<!-- Generator: Adobe Illustrator 16.0.0, SVG Export Plug-In . SVG Version: 6.00 Build 0)  -->
<!DOCTYPE svg PUBLIC "-//W3C//DTD SVG 1.1//EN" "http://www.w3.org/Graphics/SVG/1.1/DTD/svg11.dtd">
<svg version="1.1"
	 id="图层_1" xmlns:dc="http://purl.org/dc/elements/1.1/" xmlns:cc="http://creativecommons.org/ns#" xmlns:rdf="http://www.w3.org/1999/02/22-rdf-syntax-ns#"
	 xmlns="http://www.w3.org/2000/svg" xmlns:xlink="http://www.w3.org/1999/xlink" x="0px" y="0px" width="76px" height="59px"
	 viewBox="0 0 76 59" enable-background="new 0 0 76 59" xml:space="preserve">
<path fill="#00BCF2" d="M46.552,0c-2.016,0.013-3.741,0.233-5.715,0.656c0.108,2.28,0.106,1.502,0.108,2.28
	c0.001,3.811-3.084,6.899-6.886,6.897c-2.42-0.004-4.66-1.28-5.9-3.362c-2.325,1.865-4.354,4.074-6.018,6.551
	c1.275,0.776,3.862,3.491,3.862,3.491c3.04-2.573,6.319-3.669,9.313-3.627c4.552,0.094,9.466,1.353,11.236,2.183
	c6.332,2.963,12.237,7.73,12.237,14.431S53.367,41.63,46.679,41.63c-3.442,0-6.549-1.439-8.755-3.751
	c-0.989-1.037-0.555-1.368-2.244,0.116c-0.612,0.537-6.612,5.111-12.15,9.894c1.637,2.041,2.518,3.854,4.633,5.394
	c2.327-2.069,4.581-4.754,7.558-4.759c3.8,0.002,6.882,3.09,6.881,6.898c-0.003,1.099,0.001-0.002-0.13,3.281
	c1.56,0.268,2.5,0.28,4.08,0.293c1.823-0.007,2.749,0.074,4.539-0.27c0.053-3.561,0.053-2.408,0.053-3.563
	c0-3.806,3.082-6.892,6.88-6.894c2.912,0.004,4.488,1.841,7.119,4.204c2.458-1.887,3.198-3.128,4.953-5.685
	c-3.171-2.426-3.653-4.22-3.655-7.077c0-3.809,3.08-6.895,6.882-6.895c0.824,0.002,0,0,2.41-0.068
	c0.169-1.247,0.259-1.994,0.268-3.252c-0.006-1.847-0.187-2.796-0.536-4.61c-3.157-0.115-2.059-0.116-3.157-0.114
	c-3.804,0.002-6.888-3.088-6.886-6.897c0.005-2.848,2.267-5.017,4.282-6.807c-1.964-2.541-3.757-3.976-6.434-5.752
	c-2.013,2.296-4.016,4.131-6.899,4.133c-3.804-0.001-6.883-3.089-6.883-6.897c0.001-0.8,0,0-0.032-2.312
	C48.344,0.108,47.672,0.005,46.552,0L46.552,0z M35.573,16.024c-4.321-0.017-7.593,1.941-10.258,3.989
	c-2.665,2.049-4.863,4.158-6.991,4.99c-2.13,0.832-4.235,0.784-7.825-1.947l-1.831,2.414c4.111,3.127,7.765,3.531,10.755,2.362
	c2.99-1.168,5.271-3.512,7.738-5.408c2.466-1.896,4.983-3.377,8.403-3.365c3.42,0.012,7.957,1.57,14.277,6.411l1.837-2.409
	C45.052,17.982,39.895,16.04,35.573,16.024L35.573,16.024z M36.459,23.222c-0.457-0.013-0.907,0.009-1.348,0.063
	c-3.534,0.432-6.085,2.77-8.538,4.903c-2.455,2.133-4.825,4.12-7.844,4.748c-3.02,0.628-6.922,0.023-12.727-3.725l-1.64,2.553
	c6.21,4.009,11.043,4.964,14.98,4.142c3.939-0.817,6.753-3.286,9.218-5.427c2.462-2.14,4.562-3.895,6.917-4.184
	c2.354-0.287,5.453,0.719,10.229,5.176l2.064-2.221C43.311,25.09,39.668,23.31,36.459,23.222L36.459,23.222z M35.316,31.193
	c-0.836,0.027-1.632,0.176-2.389,0.432c-3.027,1.016-5.225,3.316-7.623,5.199c-2.398,1.879-4.87,3.401-8.415,3.482
	c-3.546,0.079-8.349-1.335-15.191-5.968L0,36.852c7.151,4.84,12.549,6.59,16.954,6.489c4.407-0.099,7.634-2.101,10.218-4.126
	c2.586-2.029,4.654-4.021,6.716-4.714s4.316-0.485,8.228,2.549l1.853-2.399c-2.179-1.688-4.18-2.698-6.018-3.16
	c-0.918-0.231-1.797-0.323-2.634-0.295h-0.001V31.193z"/>
</svg>
