<?xml version="1.0" encoding="utf-8"?>
<!-- Generator: Adobe Illustrator 16.0.0, SVG Export Plug-In . SVG Version: 6.00 Build 0)  -->
<!DOCTYPE svg PUBLIC "-//W3C//DTD SVG 1.1//EN" "http://www.w3.org/Graphics/SVG/1.1/DTD/svg11.dtd">
<svg version="1.1"
	 id="svg2" xmlns:svg="http://www.w3.org/2000/svg" xmlns:dc="http://purl.org/dc/elements/1.1/" xmlns:cc="http://creativecommons.org/ns#" xmlns:rdf="http://www.w3.org/1999/02/22-rdf-syntax-ns#"
	 xmlns="http://www.w3.org/2000/svg" xmlns:xlink="http://www.w3.org/1999/xlink" x="0px" y="0px" width="240px" height="254px"
	 viewBox="0 -13.647 240 254" enable-background="new 0 -13.647 240 254" xml:space="preserve">
<path id="path16" fill="none" stroke="#100F0D" stroke-width="2" stroke-linecap="round" stroke-linejoin="round" stroke-miterlimit="10" d="
	M24.282,238.999c-12.939,0-23.283-11.764-23.283-23.542V23.233C0.999,11.462,11.342,1,24.282,1h191.433
	c12.951,0,23.284,10.462,23.284,22.233v192.224c0,11.779-10.333,23.543-23.284,23.543L24.282,238.999L24.282,238.999z"/>
<path id="path32" fill="#25285C" d="M54.521-0.113v-6.375c-0.471-4.028-4.208-7.159-8.535-7.159c-4.439,0-8.187,3.131-8.658,7.159
	v6.375h-4.322v13.76h25.84v-13.76H54.521z M41.547-6.377L41.547-6.377c0,0,0-3.915,4.439-3.915c4.212,0.111,4.327,3.915,4.327,3.915
	v6.264h-8.766V-6.377"/>
</svg>
