<?xml version="1.0" encoding="utf-8"?>
<!-- Generator: Adobe Illustrator 16.0.0, SVG Export Plug-In . SVG Version: 6.00 Build 0)  -->
<!DOCTYPE svg PUBLIC "-//W3C//DTD SVG 1.1//EN" "http://www.w3.org/Graphics/SVG/1.1/DTD/svg11.dtd">
<svg version="1.1"
	 id="svg2" xmlns:dc="http://purl.org/dc/elements/1.1/" xmlns:cc="http://creativecommons.org/ns#" xmlns:rdf="http://www.w3.org/1999/02/22-rdf-syntax-ns#" xmlns:svg="http://www.w3.org/2000/svg"
	 xmlns="http://www.w3.org/2000/svg" xmlns:xlink="http://www.w3.org/1999/xlink" x="0px" y="0px" width="77px" height="62px"
	 viewBox="0 0 77 62" enable-background="new 0 0 77 62" xml:space="preserve">
<g id="g12" transform="scale(0.1,0.1)">
	<path id="path22" fill="#036998" d="M88.286,493.506h442.397v-82.793H88.286V493.506z"/>
	<path id="path24" fill="none" stroke="#FFFFFF" stroke-width="3.9999" d="M88.286,493.506h442.397v-82.793H88.286V493.506z"/>
	<path id="path26" fill="#036998" d="M605.4,335.078v83.828l-74.717,75.41v-83.603H87.949"/>
	<path id="path28" fill="none" stroke="#FFFFFF" stroke-width="3.9999" d="M605.4,335.078v83.828l-74.717,75.41v-83.603H87.949"/>
	<path id="path30" fill="#036998" d="M91.411,335.078H605.4"/>
	<path id="path32" fill="none" stroke="#FFFFFF" stroke-width="3.9999" d="M91.411,335.078H605.4"/>
	<path id="path34" fill="#036998" d="M530.684,410.713l74.717-75.635"/>
	<path id="path36" fill="none" stroke="#FFFFFF" stroke-width="3.9999" d="M530.684,410.713l74.717-75.635"/>
	<path id="path38" fill="#036998" d="M508.828,553.906v-49.014H0.005l57.891-57.92h508.843v49.004L508.828,553.906"/>
	<path id="path40" fill="none" stroke="#FFFFFF" stroke-width="3.9999" d="M508.828,553.906v-49.014H0.005l57.891-57.92h508.843
		v49.004L508.828,553.906z"/>
	<path id="path42" fill="#036998" d="M0.005,553.906h508.823v-49.014H0.005V553.906z"/>
	<path id="path44" fill="none" stroke="#FFFFFF" stroke-width="3.9999" d="M0.005,553.906h508.823v-49.014H0.005V553.906z"/>
	<path id="path46" fill="#036998" d="M508.828,504.892l57.91-57.92"/>
	<path id="path48" fill="none" stroke="#FFFFFF" stroke-width="3.9999" d="M508.828,504.892l57.91-57.92"/>
	<path id="path50" fill="#036998" d="M87.949,409.092h442.1V75.513h-442.1V409.092L87.949,409.092z"/>
	<path id="path52" fill="none" stroke="#FFFFFF" stroke-width="3.9999" d="M87.949,409.092h442.1V75.513h-442.1V409.092
		L87.949,409.092z"/>
	<path id="path54" fill="#036998" d="M530.049,409.092l75.352-75.664V0H163.296L87.954,75.513h442.104v333.579"/>
	<path id="path56" fill="none" stroke="#FFFFFF" stroke-width="3.9999" d="M530.049,409.092l75.352-75.664V0H163.296L87.954,75.513
		h442.104v333.579H530.049z"/>
	<path id="path58" fill="#036998" d="M126.587,370.303h364.956v-256.25H126.587V370.303z"/>
	<path id="path60" fill="none" stroke="#FFFFFF" stroke-width="3.9999" d="M126.587,370.303h364.956v-256.25H126.587V370.303z"/>
	<path id="path62" fill="#036998" d="M530.049,75.508L605.4,0"/>
	<path id="path64" fill="none" stroke="#FFFFFF" stroke-width="3.9999" d="M530.049,75.508L605.4,0"/>
	<path id="path66" fill="#036998" d="M770,567.89l-76.191-105.977l-72.568,52.1L697.715,620L770,567.89"/>
	<path id="path68" fill="none" stroke="#FFFFFF" stroke-width="3.9999" d="M770,567.89l-76.191-105.977l-72.568,52.1L697.715,620
		L770,567.89z"/>
	<path id="path70" fill="none" stroke="#036998" stroke-width="3.9999" d="M658.828,486.689
		c-12.949-21.777-36.348-8.34-31.543-44.785c5.137-37.138-19.805-61.845-65.332-41.377"/>
</g>
</svg>
