<?xml version="1.0" encoding="utf-8"?>
<!-- Generator: Adobe Illustrator 16.0.0, SVG Export Plug-In . SVG Version: 6.00 Build 0)  -->
<!DOCTYPE svg PUBLIC "-//W3C//DTD SVG 1.1//EN" "http://www.w3.org/Graphics/SVG/1.1/DTD/svg11.dtd">
<svg version="1.1"
	 id="svg2" xmlns:dc="http://purl.org/dc/elements/1.1/" xmlns:cc="http://creativecommons.org/ns#" xmlns:rdf="http://www.w3.org/1999/02/22-rdf-syntax-ns#" xmlns:svg="http://www.w3.org/2000/svg"
	 xmlns="http://www.w3.org/2000/svg" xmlns:xlink="http://www.w3.org/1999/xlink" x="0px" y="0px" width="67px" height="80px"
	 viewBox="0 0 67 80" enable-background="new 0 0 67 80" xml:space="preserve">
<g id="g12" transform="scale(0.1,0.1)">
	<path id="path22" fill="#036998" d="M336.057,574.284c184.307,0,333.945-42.852,333.945-95.537
		c0-52.891-149.639-95.635-333.945-95.635c-184.419,0-333.95,42.744-333.95,95.635C2.107,531.433,151.638,574.284,336.057,574.284"
		/>
	<path id="path24" fill="none" stroke="#FFFFFF" stroke-width="3.9999" d="M336.057,574.284
		c184.307,0,333.945-42.852,333.945-95.537c0-52.891-149.639-95.635-333.945-95.635c-184.419,0-333.95,42.744-333.95,95.635
		C2.107,531.433,151.638,574.284,336.057,574.284z"/>
	<path id="path26" fill="#036998" d="M331.106,132.8c128.105,0,231.953-29.717,231.953-66.401S459.211-0.002,331.106-0.002
		c-128.091,0-231.831,29.717-231.831,66.401S203.015,132.8,331.106,132.8"/>
	<path id="path28" fill="none" stroke="#FFFFFF" stroke-width="3.9999" d="M331.106,132.8c128.105,0,231.953-29.717,231.953-66.401
		S459.211-0.002,331.106-0.002c-128.091,0-231.831,29.717-231.831,66.401S203.015,132.8,331.106,132.8z"/>
	<path id="path30" fill="#036998" d="M331.79,425.857l-0.684,74.355c-128.091,0-231.831-29.717-231.831-66.406V66.399
		c0,36.685,103.74,66.401,231.831,66.401c128.105,0,231.953-29.717,231.953-66.401v367.407c0,23.496-47.588,45.225-111.895,57.002"
		/>
	<path id="path32" fill="none" stroke="#FFFFFF" stroke-width="3.9999" d="M331.79,425.857l-0.684,74.355
		c-128.091,0-231.831-29.717-231.831-66.406V66.399c0,36.685,103.74,66.401,231.831,66.401c128.105,0,231.953-29.717,231.953-66.401
		v367.407c0,23.496-47.588,45.225-111.895,57.002"/>
	<path id="path34" fill="none" stroke="#FFFFFF" stroke-width="3.9999" d="M617.649,698.581V530.993l-89.053-61.738V101.633"/>
	<path id="path36" fill="none" stroke="#FFFFFF" stroke-width="3.9999" d="M153.821,729.822V562.214l52.671-72.393V122.317"/>
	<path id="path38" fill="none" stroke="#FFFFFF" stroke-width="3.9999" d="M49.011,697.624V529.831l84.717-62.695V99.626"/>
	<path id="path40" fill="none" stroke="#FFFFFF" stroke-width="3.9999" d="M331.106,132.8v367.412"/>
	<path id="path42" d="M449.573,490.818v-367.69"/>
	<path id="path44" fill="none" stroke="#FFFFFF" stroke-width="3.9999" d="M449.573,490.818v-367.69"/>
	<path id="path46" fill="#036998" d="M670.002,648.152c-4.375,33.672-66.074,64.6-157.871,81.68l0.166-169.766
		c91.602-17.09,153.33-46.689,157.705-80.313V648.152"/>
	<path id="path48" fill="none" stroke="#FFFFFF" stroke-width="3.9999" d="M670.002,648.152
		c-4.375,33.672-66.074,64.6-157.871,81.68l0.166-169.766c91.602-17.09,153.33-46.689,157.705-80.313V648.152z"/>
	<path id="path50" fill="#036998" d="M0.022,645.466c-2.178,57.07,156.074,98.828,340.479,98.828V573.962
		C152.898,574.929-2.156,533.376,0.022,476.306V645.466"/>
	<path id="path52" fill="none" stroke="#FFFFFF" stroke-width="3.9999" d="M0.022,645.466
		c-2.178,57.07,156.074,98.828,340.479,98.828V573.962C152.898,574.929-2.156,533.376,0.022,476.306V645.466z"/>
	<path id="path54" fill="#036998" d="M331.79,131.282l-1.113-43.735c14.453,0,29.033-1.191,40.107-2.344l78.789,37.925v367.69
		l62.783,68.027V730.72l-143.574-64.961c-4.795,0-27.383,3.066-28.994,3.066v-94.639l-7.998-74.15V131.282"/>
	<path id="path56" fill="none" stroke="#FFFFFF" stroke-width="3.9999" d="M331.79,131.282l-1.113-43.735
		c14.453,0,29.033-1.191,40.107-2.344l78.789,37.925v367.69l62.783,68.027V730.72l-143.574-64.961
		c-4.795,0-27.383,3.066-28.994,3.066v-94.639l-7.998-74.15V131.282z"/>
	<path id="path58" fill="none" stroke="#FFFFFF" stroke-width="3.9999" d="M368.782,85.559v580.2"/>
	<path id="path60" d="M3.279,473.259l93.828-34.189"/>
	<path id="path62" fill="none" stroke="#FFFFFF" stroke-width="3.9999" d="M3.279,473.259l93.828-34.189"/>
	<path id="path64" d="M666.76,468.884L564.377,439.07"/>
	<path id="path66" fill="none" stroke="#FFFFFF" stroke-width="3.9999" stroke-linejoin="bevel" d="M666.76,468.884L564.377,439.07"
		/>
	<path id="path68" fill="#036998" d="M388.235,144.836l38.369-5.269l80.117,35.337c-29.814,7.92-100.391,16.934-114.111,14.487
		L388.235,144.836"/>
	<path id="path70" fill="none" stroke="#FFFFFF" stroke-width="3.9999" d="M388.235,144.836l38.369-5.269l80.117,35.337
		c-29.814,7.92-100.391,16.934-114.111,14.487L388.235,144.836z"/>
	<path id="path72" fill="#036998" d="M387.239,144.885l5.371,44.507v366.855l8.555,74.189v169.561l-13.926-71.807V144.885"/>
	<path id="path74" fill="none" stroke="#FFFFFF" stroke-width="3.9999" d="M387.239,144.885l5.371,44.507v366.855l8.555,74.189
		v169.561l-13.926-71.807V144.885z"/>
	<path id="path76" fill="#036998" d="M392.61,189.392c21.279,0.962,97.012-8.257,114.111-15.581v369.018
		c-31.016,5.781-88.662,14.199-114.111,12.422V189.392"/>
	<path id="path78" fill="none" stroke="#FFFFFF" stroke-width="3.9999" d="M392.61,189.392
		c21.279,0.962,97.012-8.257,114.111-15.581v369.018c-31.016,5.781-88.662,14.199-114.111,12.422V189.392z"/>
	<path id="path80" fill="#036998" d="M506.721,542.829l64.014,64.902c-34.189,9.287-148.301,21.689-169.57,21.719l-8.555-74.199
		C405.344,556.745,501.35,545.232,506.721,542.829"/>
	<path id="path82" fill="none" stroke="#FFFFFF" stroke-width="3.9999" d="M506.721,542.829l64.014,64.902
		c-34.189,9.287-148.301,21.689-169.57,21.719l-8.555-74.199C405.344,556.745,501.35,545.232,506.721,542.829z"/>
	<path id="path84" fill="#036998" d="M569.534,606.775v170.557c-22.256,6.436-140.742,22.393-168.369,21.67V630.437
		C422.434,630.407,526.995,617.38,569.534,606.775"/>
	<path id="path86" fill="none" stroke="#FFFFFF" stroke-width="3.9999" d="M569.534,606.775v170.557
		c-22.256,6.436-140.742,22.393-168.369,21.67V630.437C422.434,630.407,526.995,617.38,569.534,606.775z"/>
</g>
</svg>
