<?xml version="1.0" encoding="utf-8"?>
<!-- Generator: Adobe Illustrator 16.0.0, SVG Export Plug-In . SVG Version: 6.00 Build 0)  -->
<!DOCTYPE svg PUBLIC "-//W3C//DTD SVG 1.1//EN" "http://www.w3.org/Graphics/SVG/1.1/DTD/svg11.dtd">
<svg version="1.1"
	 id="svg2" xmlns:dc="http://purl.org/dc/elements/1.1/" xmlns:cc="http://creativecommons.org/ns#" xmlns:rdf="http://www.w3.org/1999/02/22-rdf-syntax-ns#" xmlns:svg="http://www.w3.org/2000/svg"
	 xmlns="http://www.w3.org/2000/svg" xmlns:xlink="http://www.w3.org/1999/xlink" x="0px" y="0px" width="74px" height="75px"
	 viewBox="0 0 74 75" enable-background="new 0 0 74 75" xml:space="preserve">
<g id="g12" transform="scale(0.1,0.1)">
	<path id="path32" fill="#036998" d="M0.002,750.002h614.18V124.519H0.002V750.002z"/>
	<path id="path34" fill="none" stroke="#FFFFFF" stroke-width="3.9999" d="M0.002,750.002h614.18V124.519H0.002V750.002z"/>
	<path id="path36" d="M321.223,333.679h189.004"/>
	<path id="path38" fill="none" stroke="#FFFFFF" stroke-width="3.9999" d="M321.223,333.679h189.004"/>
	<path id="path40" d="M321.223,551.448h189.004"/>
	<path id="path42" fill="none" stroke="#FFFFFF" stroke-width="3.9999" d="M321.223,551.448h189.004"/>
	<path id="path44" d="M263.372,443.44V254.441"/>
	<path id="path46" fill="none" stroke="#FFFFFF" stroke-width="3.9999" d="M263.372,443.44V254.441"/>
	<path id="path48" fill="none" stroke="#FFFFFF" stroke-width="10" d="M430.002,442.009v188.989"/>
	<path id="path50" d="M214.817,442.009v188.989"/>
	<path id="path52" fill="none" stroke="#FFFFFF" stroke-width="3.9999" d="M214.817,442.009v188.989"/>
	<path id="path54" d="M323.84,334.314H135.051"/>
	<path id="path56" fill="none" stroke="#FFFFFF" stroke-width="3.9999" d="M323.84,334.314H135.051"/>
	<path id="path58" fill="#036998" d="M740.002,0.002v621.504L613.459,749.641V127.415L740.002,0.002"/>
	<path id="path60" fill="none" stroke="#FFFFFF" stroke-width="3.9999" d="M740.002,0.002v621.504L613.459,749.641V127.415
		L740.002,0.002z"/>
	<path id="path62" fill="#036998" d="M613.459,127.415l-1.455-3.618H0.725L155.559,0.002h584.443L613.459,127.415"/>
	<path id="path64" fill="none" stroke="#FFFFFF" stroke-width="3.9999" d="M613.459,127.415l-1.455-3.618H0.725L155.559,0.002
		h584.443L613.459,127.415z"/>
	<path id="path66" fill="none" stroke="#FFFFFF" stroke-width="10" d="M312.512,327.688h199.434"/>
	<path id="path68" fill="#FFFFFF" d="M508.303,270.706v109.468l65.859-52.456L508.303,270.706"/>
	<path id="path70" fill="none" stroke="#FFFFFF" stroke-width="3.9999" d="M508.303,270.706v109.468l65.859-52.456L508.303,270.706z
		"/>
	<path id="path72" fill="none" stroke="#FFFFFF" stroke-width="10" d="M312.512,545.242h210.273"/>
	<path id="path74" fill="#FFFFFF" d="M508.303,487.498v109.478l65.859-52.466L508.303,487.498"/>
	<path id="path76" fill="none" stroke="#FFFFFF" stroke-width="3.9999" d="M508.303,487.498v109.478l65.859-52.466L508.303,487.498z
		"/>
	<path id="path78" fill="none" stroke="#FFFFFF" stroke-width="10" d="M254.661,437.224V258.547"/>
	<path id="path80" fill="none" stroke="#FFFFFF" stroke-width="10" d="M368.02,443.44V254.441"/>
	<path id="path82" d="M359.319,437.224V258.547"/>
	<path id="path84" fill="none" stroke="#FFFFFF" stroke-width="3.9999" d="M359.319,437.224V258.547"/>
	<path id="path86" d="M421.711,435.793v203.262"/>
	<path id="path88" fill="none" stroke="#FFFFFF" stroke-width="3.9999" d="M421.711,435.793v203.262"/>
	<path id="path90" fill="#FFFFFF" d="M476.604,630.979h-109.57l53.242,65.947L476.604,630.979"/>
	<path id="path92" fill="none" stroke="#FFFFFF" stroke-width="3.9999" d="M476.604,630.979h-109.57l53.242,65.947L476.604,630.979z
		"/>
	<path id="path94" fill="none" stroke="#FFFFFF" stroke-width="10" d="M206.321,435.793v203.262"/>
	<path id="path96" fill="#FFFFFF" d="M262.317,630.979H152.952l53.037,65.947L262.317,630.979"/>
	<path id="path98" fill="none" stroke="#FFFFFF" stroke-width="3.9999" d="M262.317,630.979H152.952l53.037,65.947L262.317,630.979z
		"/>
	<path id="path100" fill="none" stroke="#FFFFFF" stroke-width="10" d="M315.354,545.212H112.307"/>
	<path id="path102" fill="#FFFFFF" d="M118.665,602.727V493.245l-65.85,52.456L118.665,602.727"/>
	<path id="path104" fill="none" stroke="#FFFFFF" stroke-width="3.9999" d="M118.665,602.727V493.245l-65.85,52.456L118.665,602.727
		z"/>
	<path id="path106" fill="none" stroke="#FFFFFF" stroke-width="10" d="M315.354,328.108H112.307"/>
	<path id="path108" fill="#FFFFFF" d="M118.665,385.627V276.14l-65.85,52.661L118.665,385.627"/>
	<path id="path110" fill="none" stroke="#FFFFFF" stroke-width="3.9999" d="M118.665,385.627V276.14l-65.85,52.661L118.665,385.627z
		"/>
	<path id="path112" fill="#036998" d="M312.766,568.298c71.973,0,130.342-58.535,130.342-130.674
		c0-72.134-58.369-130.679-130.342-130.679c-72.041,0-130.527,58.545-130.527,130.679
		C182.239,509.763,240.725,568.298,312.766,568.298"/>
	<path id="path114" fill="none" stroke="#FFFFFF" stroke-width="3.9999" d="M312.766,568.298
		c71.973,0,130.342-58.535,130.342-130.674c0-72.134-58.369-130.679-130.342-130.679c-72.041,0-130.527,58.545-130.527,130.679
		C182.239,509.763,240.725,568.298,312.766,568.298z"/>
	<path id="path116" fill="#FFFFFF" d="M490.588,254.954c3.721,0,6.719-3.013,6.719-6.729v-65.474c0-3.711-2.998-6.919-6.719-6.919
		h-347.91c-3.916,0-6.914,3.208-6.914,6.919v65.474c0,3.716,2.998,6.729,6.914,6.729h64.766v-22.744h207.031v22.744H490.588"/>
	<path id="path118" fill="none" stroke="#FFFFFF" stroke-width="3.9999" d="M490.588,254.954c3.721,0,6.719-3.013,6.719-6.729
		v-65.474c0-3.711-2.998-6.919-6.719-6.919h-347.91c-3.916,0-6.914,3.208-6.914,6.919v65.474c0,3.716,2.998,6.729,6.914,6.729
		h64.766v-22.744h207.031v22.744H490.588z"/>
	<path id="path120" d="M252.502,392.908h16.045v-16.069h-16.045V392.908z"/>
	<path id="path122" fill="none" stroke="#FFFFFF" stroke-width="3.9999" d="M252.502,392.908h16.045v-16.069h-16.045V392.908z"/>
	<path id="path124" d="M252.502,428.455h16.045v-16.069h-16.045V428.455z"/>
	<path id="path126" fill="none" stroke="#FFFFFF" stroke-width="3.9999" d="M252.502,428.455h16.045v-16.069h-16.045V428.455z"/>
	<path id="path128" d="M252.502,464.001h16.045v-16.069h-16.045V464.001z"/>
	<path id="path130" fill="none" stroke="#FFFFFF" stroke-width="3.9999" d="M252.502,464.001h16.045v-16.069h-16.045V464.001z"/>
	<path id="path132" d="M252.502,499.548h16.045v-15.859h-16.045V499.548z"/>
	<path id="path134" fill="none" stroke="#FFFFFF" stroke-width="3.9999" d="M252.502,499.548h16.045v-15.859h-16.045V499.548z"/>
	<path id="path136" d="M288.01,392.908h16.055v-16.069H288.01V392.908z"/>
	<path id="path138" fill="none" stroke="#FFFFFF" stroke-width="3.9999" d="M288.01,392.908h16.055v-16.069H288.01V392.908z"/>
	<path id="path140" d="M288.01,428.455h16.055v-16.069H288.01V428.455z"/>
	<path id="path142" fill="none" stroke="#FFFFFF" stroke-width="3.9999" d="M288.01,428.455h16.055v-16.069H288.01V428.455z"/>
	<path id="path144" d="M288.01,464.001h16.055v-16.069H288.01V464.001z"/>
	<path id="path146" fill="none" stroke="#FFFFFF" stroke-width="3.9999" d="M288.01,464.001h16.055v-16.069H288.01V464.001z"/>
	<path id="path148" d="M288.01,499.548h16.055v-15.859H288.01V499.548z"/>
	<path id="path150" fill="none" stroke="#FFFFFF" stroke-width="3.9999" d="M288.01,499.548h16.055v-15.859H288.01V499.548z"/>
	<path id="path152" d="M323.518,392.908h16.055v-16.069h-16.055V392.908z"/>
	<path id="path154" fill="none" stroke="#FFFFFF" stroke-width="3.9999" d="M323.518,392.908h16.055v-16.069h-16.055V392.908z"/>
	<path id="path156" d="M323.518,428.455h16.055v-16.069h-16.055V428.455z"/>
	<path id="path158" fill="none" stroke="#FFFFFF" stroke-width="3.9999" d="M323.518,428.455h16.055v-16.069h-16.055V428.455z"/>
	<path id="path160" d="M323.518,464.001h16.055v-16.069h-16.055V464.001z"/>
	<path id="path162" fill="none" stroke="#FFFFFF" stroke-width="3.9999" d="M323.518,464.001h16.055v-16.069h-16.055V464.001z"/>
	<path id="path164" d="M323.518,499.548h16.055v-15.859h-16.055V499.548z"/>
	<path id="path166" fill="none" stroke="#FFFFFF" stroke-width="3.9999" d="M323.518,499.548h16.055v-15.859h-16.055V499.548z"/>
	<path id="path168" d="M359.231,392.908h15.85v-16.069h-15.85V392.908z"/>
	<path id="path170" fill="none" stroke="#FFFFFF" stroke-width="3.9999" d="M359.231,392.908h15.85v-16.069h-15.85V392.908z"/>
	<path id="path172" d="M359.231,428.455h15.85v-16.069h-15.85V428.455z"/>
	<path id="path174" fill="none" stroke="#FFFFFF" stroke-width="3.9999" d="M359.231,428.455h15.85v-16.069h-15.85V428.455z"/>
	<path id="path176" d="M359.231,464.001h15.85v-16.069h-15.85V464.001z"/>
	<path id="path178" fill="none" stroke="#FFFFFF" stroke-width="3.9999" d="M359.231,464.001h15.85v-16.069h-15.85V464.001z"/>
	<path id="path180" d="M359.231,499.548h15.85v-15.859h-15.85V499.548z"/>
	<path id="path182" fill="none" stroke="#FFFFFF" stroke-width="3.9999" d="M359.231,499.548h15.85v-15.859h-15.85V499.548z"/>
</g>
</svg>
