<?xml version="1.0" encoding="utf-8"?>
<!-- Generator: Adobe Illustrator 16.0.0, SVG Export Plug-In . SVG Version: 6.00 Build 0)  -->
<!DOCTYPE svg PUBLIC "-//W3C//DTD SVG 1.1//EN" "http://www.w3.org/Graphics/SVG/1.1/DTD/svg11.dtd">
<svg version="1.1"
	 id="svg2" xmlns:dc="http://purl.org/dc/elements/1.1/" xmlns:cc="http://creativecommons.org/ns#" xmlns:rdf="http://www.w3.org/1999/02/22-rdf-syntax-ns#" xmlns:svg="http://www.w3.org/2000/svg"
	 xmlns="http://www.w3.org/2000/svg" xmlns:xlink="http://www.w3.org/1999/xlink" x="0px" y="0px" width="75px" height="70px"
	 viewBox="0 0 75 70" enable-background="new 0 0 75 70" xml:space="preserve">
<g id="g12" transform="scale(0.1,0.1)">
	<path id="path22" fill="#026C9B" d="M0,700h554.39V134.99H0V700z"/>
	<path id="path24" fill="none" stroke="#FFFFFF" stroke-width="4" d="M0,700h554.39V134.99H0V700z"/>
	<path id="path26" fill="#026C9B" d="M554.39,134.297L746.929,3.257h-554.38L0,134.297H554.39"/>
	<path id="path28" fill="none" stroke="#FFFFFF" stroke-width="4" d="M554.39,134.297L746.929,3.257h-554.38L0,134.297H554.39z"/>
	<path id="path30" fill="#026C9B" d="M749.995,565V0L558.14,135v565L749.995,565"/>
	<path id="path32" fill="none" stroke="#FFFFFF" stroke-width="4" d="M749.995,565V0L558.14,135v565L749.995,565z"/>
	<path id="path34" fill="none" stroke="#FFFFFF" stroke-width="15" d="M277.002,406.948c54.185,0,98.13-44.033,98.13-98.325
		c0-54.302-43.945-98.33-98.13-98.33c-54.072,0-97.944,44.028-97.944,98.33C179.058,362.915,222.93,406.948,277.002,406.948z"/>
	<path id="path36" fill="none" stroke="#FFFFFF" stroke-width="15" d="M277.002,439.937v148.149"/>
	<path id="path38" fill="#FFFFFF" d="M339.839,588.823H216.494l59.053,74.473L339.839,588.823"/>
	<path id="path40" fill="none" stroke="#FFFFFF" stroke-width="15" d="M206.533,420.122l-79.131,125.059"/>
	<path id="path42" fill="#FFFFFF" d="M179.849,579.39L75.762,513.252l10.234,94.663L179.849,579.39"/>
	<path id="path44" fill="none" stroke="#FFFFFF" stroke-width="15" d="M345.757,420.122l79.141,125.059"/>
	<path id="path46" fill="#FFFFFF" d="M372.632,579.39l104.102-66.138l-10.234,94.663L372.632,579.39"/>
</g>
</svg>
