<?xml version="1.0" encoding="utf-8"?>
<!-- Generator: Adobe Illustrator 16.0.0, SVG Export Plug-In . SVG Version: 6.00 Build 0)  -->
<!DOCTYPE svg PUBLIC "-//W3C//DTD SVG 1.1//EN" "http://www.w3.org/Graphics/SVG/1.1/DTD/svg11.dtd">
<svg version="1.1"
	 id="图层_1" xmlns:dc="http://purl.org/dc/elements/1.1/" xmlns:cc="http://creativecommons.org/ns#" xmlns:rdf="http://www.w3.org/1999/02/22-rdf-syntax-ns#"
	 xmlns="http://www.w3.org/2000/svg" xmlns:xlink="http://www.w3.org/1999/xlink" x="0px" y="0px" width="76px" height="63px"
	 viewBox="0 0 76 63" enable-background="new 0 0 76 63" xml:space="preserve">
<path fill="#00BCF2" d="M2.172,0C0.866,0,0,0.77,0,2.172v58.654c0,1.209,0.617,2.172,2.172,2.172h71.657
	c1.499,0.053,2.174-0.864,2.171-2.172V2.172C76,0.915,75.094,0,73.829,0H2.172z M4.343,17.378h15.2v8.69h-15.2V17.378z
	 M21.715,17.378h15.2v8.69h-15.2V17.378z M39.085,17.378h15.201v8.69H39.085V17.378z M56.458,17.378h15.199v8.69H56.458V17.378z
	 M4.343,28.241h15.2v8.688h-15.2V28.241z M21.715,28.241h15.2v8.688h-15.2V28.241z M39.085,28.241h15.201v8.688H39.085V28.241z
	 M56.458,28.241h15.199v8.688H56.458V28.241z M4.343,39.102h15.2v8.689h-15.2V39.102z M21.715,39.102h15.2v8.689h-15.2V39.102z
	 M39.085,39.102h15.201v8.689H39.085V39.102z M56.458,39.102h15.199v8.689H56.458V39.102z M4.343,49.965h15.2v8.689h-15.2V49.965z
	 M21.715,49.965h15.2v8.689h-15.2V49.965z M39.085,49.965h15.201v8.689H39.085V49.965z M56.458,49.965h15.199v8.689H56.458V49.965z"
	/>
</svg>
