<?xml version="1.0" encoding="utf-8"?>
<!-- Generator: Adobe Illustrator 16.0.0, SVG Export Plug-In . SVG Version: 6.00 Build 0)  -->
<!DOCTYPE svg PUBLIC "-//W3C//DTD SVG 1.1//EN" "http://www.w3.org/Graphics/SVG/1.1/DTD/svg11.dtd">
<svg version="1.1"
	 id="svg2" xmlns:dc="http://purl.org/dc/elements/1.1/" xmlns:cc="http://creativecommons.org/ns#" xmlns:rdf="http://www.w3.org/1999/02/22-rdf-syntax-ns#" xmlns:svg="http://www.w3.org/2000/svg"
	 xmlns="http://www.w3.org/2000/svg" xmlns:xlink="http://www.w3.org/1999/xlink" x="0px" y="0px" width="75px" height="41px"
	 viewBox="0 0 75 41" enable-background="new 0 0 75 41" xml:space="preserve">
<g id="g12" transform="scale(0.1,0.1)">
	<path id="path22" fill="#036998" d="M684.248-0.002l18.164,23.491l-68.086,386.509l-22.461-13.867L684.248-0.002"/>
	<path id="path24" fill="none" stroke="#FFFFFF" stroke-width="3.9999" d="M684.248-0.002l18.164,23.491l-68.086,386.509
		l-22.461-13.867L684.248-0.002z"/>
	<path id="path26" d="M0,396.13l20.303,13.867h614.023l-22.461-13.867H0"/>
	<path id="path28" fill="none" stroke="#FFFFFF" stroke-width="3.9999" d="M0,396.13l20.303,13.867h614.023l-22.461-13.867H0z"/>
	<path id="path30" fill="#036998" d="M611.865,396.13L684.248-0.002H79.814L0,396.13H611.865"/>
	<path id="path32" fill="none" stroke="#FFFFFF" stroke-width="3.9999" d="M611.865,396.13L684.248-0.002H79.814L0,396.13H611.865z"
		/>
	<path id="path34" fill="#036998" d="M565.615,324.763l46.152-246.587H272.339l-46.172,246.587H565.615"/>
	<path id="path36" fill="none" stroke="#FFFFFF" stroke-width="3.9999" d="M565.615,324.763l46.152-246.587H272.339l-46.172,246.587
		H565.615z"/>
	<path id="path38" fill="#036998" d="M220.332-0.002L140.513,396.13"/>
	<path id="path40" fill="none" stroke="#FFFFFF" stroke-width="3.9999" d="M220.332-0.002L140.513,396.13"/>
	<path id="path42" fill="#036998" d="M56.348,313.044c38.452,9.512,85.01-45.097,104.019-122.246
		c19.014-76.992,3.271-147.139-35.181-156.67L56.348,313.044"/>
	<path id="path44" fill="none" stroke="#FFFFFF" stroke-width="3.9999" d="M56.348,313.044
		c38.452,9.512,85.01-45.097,104.019-122.246c19.014-76.992,3.271-147.139-35.181-156.67L56.348,313.044z"/>
	<path id="path46" fill="#036998" d="M279.697,42.107h109.775V28.909H279.697V42.107z"/>
	<path id="path48" fill="none" stroke="#FFFFFF" stroke-width="3.9999" d="M279.697,42.107h109.775V28.909H279.697V42.107z"/>
	<path id="path50" fill="#036998" d="M499.072,42.107h109.756V28.909H499.072V42.107z"/>
	<path id="path52" fill="none" stroke="#FFFFFF" stroke-width="3.9999" d="M499.072,42.107h109.756V28.909H499.072V42.107z"/>
	<path id="path54" fill="#036998" d="M712.48,331.784c-0.605,4.688-4.98,8.213-9.873,7.598c-4.707-0.635-8.203-5.01-7.578-9.717
		l37.422-314.399c0.625-4.829,4.99-8.315,9.707-7.7c4.893,0.508,8.35,4.897,7.783,9.727L712.48,331.784"/>
</g>
</svg>
