<?xml version="1.0" encoding="utf-8"?>
<!-- Generator: Adobe Illustrator 16.0.0, SVG Export Plug-In . SVG Version: 6.00 Build 0)  -->
<!DOCTYPE svg PUBLIC "-//W3C//DTD SVG 1.1//EN" "http://www.w3.org/Graphics/SVG/1.1/DTD/svg11.dtd">
<svg version="1.1"
	 id="图层_1" xmlns:dc="http://purl.org/dc/elements/1.1/" xmlns:cc="http://creativecommons.org/ns#" xmlns:rdf="http://www.w3.org/1999/02/22-rdf-syntax-ns#"
	 xmlns="http://www.w3.org/2000/svg" xmlns:xlink="http://www.w3.org/1999/xlink" x="0px" y="0px" width="75px" height="55px"
	 viewBox="0 0 75 55" enable-background="new 0 0 75 55" xml:space="preserve">
<path fill="#00BCF2" d="M3.129,54.893c-1.1-0.262-2.17-1.163-2.784-2.349L0,51.881V27.489V3.096l0.332-0.623
	c0.521-0.976,1.163-1.616,2.07-2.062L3.238,0h34.006h34.005l0.967,0.458c1.146,0.542,1.961,1.326,2.438,2.341L75,3.538v23.996V51.53
	l-0.398,0.816c-0.467,0.954-1.264,1.699-2.397,2.243l-0.81,0.385l-33.858,0.022c-19.298,0.015-34.096-0.03-34.409-0.106
	L3.129,54.893z M43.107,52.942c0.854-0.561,0.881-1.521,0.058-2.023c-0.448-0.273-0.765-0.289-5.671-0.291
	c-5.687,0-5.856,0.022-6.199,0.851c-0.294,0.711,0.187,1.455,1.097,1.699c0.158,0.043,2.544,0.064,5.3,0.053
	C42.25,53.209,42.74,53.184,43.107,52.942L43.107,52.942z M69.262,27.489V5.822H37.538H5.814v21.667v21.666h31.724h31.724V27.489z"
	/>
</svg>
