<?xml version="1.0" encoding="utf-8"?>
<!-- Generator: Adobe Illustrator 16.0.0, SVG Export Plug-In . SVG Version: 6.00 Build 0)  -->
<!DOCTYPE svg PUBLIC "-//W3C//DTD SVG 1.1//EN" "http://www.w3.org/Graphics/SVG/1.1/DTD/svg11.dtd">
<svg version="1.1"
	 id="svg2" xmlns:dc="http://purl.org/dc/elements/1.1/" xmlns:cc="http://creativecommons.org/ns#" xmlns:rdf="http://www.w3.org/1999/02/22-rdf-syntax-ns#" xmlns:svg="http://www.w3.org/2000/svg"
	 xmlns="http://www.w3.org/2000/svg" xmlns:xlink="http://www.w3.org/1999/xlink" x="0px" y="0px" width="56px" height="80px"
	 viewBox="0 0 56 80" enable-background="new 0 0 56 80" xml:space="preserve">
<g id="g12" transform="scale(0.1,0.1)">
	<path id="path22" fill="#026C9B" d="M14.995,775.005h401.719V133.589H14.995V775.005z"/>
	<path id="path24" fill="#026C9B" d="M416.714,775.005l128.281-128.594V5H143.481L14.995,133.589h401.719V775.005"/>
	<path id="path26" fill="#026C9B" d="M416.714,133.589L544.995,5"/>
	<path id="path28" fill="#026C9B" d="M14.995,775.005h401.719V133.589H14.995V775.005z"/>
	<path id="path30" fill="none" stroke="#FFFFFF" stroke-width="4" d="M416.714,133.589H14.995v641.416h401.719"/>
	<path id="path32" fill="#026C9B" d="M416.714,775.005l128.281-128.594V5H143.481L14.995,133.589h401.719V775.005"/>
	<path id="path34" fill="none" stroke="#FFFFFF" stroke-width="4" d="M416.714,775.005l128.281-128.594V5H143.481L14.995,133.589
		h401.719V775.005z"/>
	<path id="path36" fill="#FFFFFF" d="M416.714,133.589L544.995,5"/>
	<path id="path38" fill="none" stroke="#FFFFFF" stroke-width="4" d="M416.714,133.589H14.995v641.416h401.719"/>
	<path id="path40" fill="none" stroke="#FFFFFF" stroke-width="4" d="M416.714,775.005l128.281-128.594V5H143.481L14.995,133.589
		h401.719V775.005z"/>
	<path id="path42" fill="none" stroke="#FFFFFF" stroke-width="4" d="M416.714,133.589L544.995,5"/>
	<path id="path44" fill="none" stroke="#FFFFFF" stroke-width="4" stroke-linecap="round" stroke-linejoin="round" d="
		M83.467,321.958h278.267V209.536H83.467V321.958z"/>
	<path id="path46" d="M184.897,263.696c0,15.84-12.822,28.867-28.623,28.867c-15.996,0-28.784-13.027-28.784-28.867
		s12.788-28.887,28.784-28.887C172.075,234.81,184.897,247.856,184.897,263.696"/>
	<path id="path48" fill="none" stroke="#FFFFFF" stroke-width="4" stroke-linecap="round" stroke-linejoin="round" d="
		M184.897,263.696c0,15.84-12.822,28.867-28.623,28.867c-15.996,0-28.784-13.027-28.784-28.867s12.788-28.887,28.784-28.887
		C172.075,234.81,184.897,247.856,184.897,263.696z"/>
	<path id="path50" d="M310.786,263.696c0,15.84-12.813,28.867-28.818,28.867c-15.801,0-28.809-13.027-28.809-28.867
		s13.008-28.887,28.809-28.887C297.974,234.81,310.786,247.856,310.786,263.696"/>
	<path id="path52" fill="none" stroke="#FFFFFF" stroke-width="4" stroke-linecap="round" stroke-linejoin="round" d="
		M310.786,263.696c0,15.84-12.813,28.867-28.818,28.867c-15.801,0-28.809-13.027-28.809-28.867s13.008-28.887,28.809-28.887
		C297.974,234.81,310.786,247.856,310.786,263.696z"/>
	<path id="path54" fill="none" stroke="#FFFFFF" stroke-width="4" stroke-linecap="round" stroke-linejoin="round" d="
		M83.467,518.442h278.267V405.815H83.467V518.442z"/>
	<path id="path56" d="M184.897,459.927c0,15.859-12.822,28.711-28.623,28.711c-15.996,0-28.784-12.852-28.784-28.711
		c0-15.84,12.788-28.652,28.784-28.652C172.075,431.274,184.897,444.087,184.897,459.927"/>
	<path id="path58" fill="none" stroke="#FFFFFF" stroke-width="4" stroke-linecap="round" stroke-linejoin="round" d="
		M184.897,459.927c0,15.859-12.822,28.711-28.623,28.711c-15.996,0-28.784-12.852-28.784-28.711
		c0-15.84,12.788-28.652,28.784-28.652C172.075,431.274,184.897,444.087,184.897,459.927z"/>
	<path id="path60" d="M310.786,459.927c0,15.859-12.813,28.711-28.818,28.711c-15.801,0-28.809-12.852-28.809-28.711
		c0-15.84,13.008-28.652,28.809-28.652C297.974,431.274,310.786,444.087,310.786,459.927"/>
	<path id="path62" fill="none" stroke="#FFFFFF" stroke-width="4" stroke-linecap="round" stroke-linejoin="round" d="
		M310.786,459.927c0,15.859-12.813,28.711-28.818,28.711c-15.801,0-28.809-12.852-28.809-28.711
		c0-15.84,13.008-28.652,28.809-28.652C297.974,431.274,310.786,444.087,310.786,459.927z"/>
	<path id="path64" fill="none" stroke="#FFFFFF" stroke-width="4" stroke-linecap="round" stroke-linejoin="round" d="
		M83.467,714.692h278.267V602.075H83.467V714.692z"/>
	<path id="path66" d="M184.897,656.196c0,15.859-12.822,28.691-28.623,28.691c-15.996,0-28.784-12.832-28.784-28.691
		s12.788-28.652,28.784-28.652C172.075,627.544,184.897,640.337,184.897,656.196"/>
	<path id="path68" fill="none" stroke="#FFFFFF" stroke-width="4" stroke-linecap="round" stroke-linejoin="round" d="
		M184.897,656.196c0,15.859-12.822,28.691-28.623,28.691c-15.996,0-28.784-12.832-28.784-28.691s12.788-28.652,28.784-28.652
		C172.075,627.544,184.897,640.337,184.897,656.196z"/>
	<path id="path70" d="M310.786,656.196c0,15.859-12.813,28.691-28.818,28.691c-15.801,0-28.809-12.832-28.809-28.691
		s13.008-28.652,28.809-28.652C297.974,627.544,310.786,640.337,310.786,656.196"/>
	<path id="path72" fill="none" stroke="#FFFFFF" stroke-width="4" stroke-linecap="round" stroke-linejoin="round" d="
		M310.786,656.196c0,15.859-12.813,28.691-28.818,28.691c-15.801,0-28.809-12.832-28.809-28.691s13.008-28.652,28.809-28.652
		C297.974,627.544,310.786,640.337,310.786,656.196z"/>
	<path id="path74" fill="none" stroke="#FFFFFF" stroke-width="4" stroke-linecap="round" stroke-linejoin="round" d="
		M156.274,234.81h125.693"/>
	<path id="path76" fill="none" stroke="#FFFFFF" stroke-width="4" stroke-linecap="round" stroke-linejoin="round" d="
		M156.274,431.274h125.693"/>
	<path id="path78" fill="none" stroke="#FFFFFF" stroke-width="4" stroke-linecap="round" stroke-linejoin="round" d="
		M156.274,627.544h125.693"/>
</g>
</svg>
