<?xml version="1.0" encoding="utf-8"?>
<!-- Generator: Adobe Illustrator 16.0.0, SVG Export Plug-In . SVG Version: 6.00 Build 0)  -->
<!DOCTYPE svg PUBLIC "-//W3C//DTD SVG 1.1//EN" "http://www.w3.org/Graphics/SVG/1.1/DTD/svg11.dtd">
<svg version="1.1"
	 id="svg2" xmlns:dc="http://purl.org/dc/elements/1.1/" xmlns:cc="http://creativecommons.org/ns#" xmlns:rdf="http://www.w3.org/1999/02/22-rdf-syntax-ns#" xmlns:svg="http://www.w3.org/2000/svg"
	 xmlns="http://www.w3.org/2000/svg" xmlns:xlink="http://www.w3.org/1999/xlink" x="0px" y="0px" width="78px" height="54px"
	 viewBox="0 0 78 54" enable-background="new 0 0 78 54" xml:space="preserve">
<g id="g12" transform="scale(0.1,0.1)">
	<path id="path22" fill="#026C9B" d="M770.005,162.156c0,81.313-170.059,147.153-380,147.153C180.068,309.309,10,243.469,10,162.156
		v215.698c0,81.299,170.068,147.148,380.005,147.148c209.941,0,380-65.85,380-147.148V162.156"/>
	<path id="path24" fill="none" stroke="#FFFFFF" stroke-width="4" d="M770.005,162.156c0,81.313-170.059,147.153-380,147.153
		C180.068,309.309,10,243.469,10,162.156v215.698c0,81.299,170.068,147.148,380.005,147.148c209.941,0,380-65.85,380-147.148
		V162.156z"/>
	<path id="path26" fill="#026C9B" d="M390.005,309.309c209.941,0,380-65.84,380-147.153c0-81.309-170.059-147.153-380-147.153
		C180.068,15.002,10,80.847,10,162.156C10,243.469,180.068,309.309,390.005,309.309"/>
	<path id="path28" fill="none" stroke="#FFFFFF" stroke-width="4" d="M390.005,309.309c209.941,0,380-65.84,380-147.153
		c0-81.309-170.059-147.153-380-147.153C180.068,15.002,10,80.847,10,162.156C10,243.469,180.068,309.309,390.005,309.309z"/>
	<path id="path30" fill="#FFFFFF" d="M303.208,104.705l31.426,46.758l-118.672,27.329l25.947-21.475L58.564,126.165l46.006-34.355
		l176.958,29.883L303.208,104.705"/>
	<path id="path32" fill="#FFFFFF" d="M470.161,218.293l-21.465-48.359l106.973-21.206l-18.555,16.597l178.555,30.332l-42.891,34.063
		l-177.324-33.213L470.161,218.293"/>
	<path id="path34" fill="#FFFFFF" d="M411.606,79.001l120-32.627l1.445,51.113l-30.137-5.64l-58.555,48.369l-55.762-8.12
		l60.566-47.29L411.606,79.001"/>
	<path id="path36" fill="#FFFFFF" d="M360.298,262.346L246.099,283.84l-4.199-52.676l32.734,7.061l62.939-53.496l55.479,9.473
		l-66.953,58.311L360.298,262.346"/>
	<path id="path38" fill="#FFFFFF" d="M374.702,430.217v26.182l-35.908-0.664l50.537,62.686l53.896-62.686l-37.617,0.664v-26.182"/>
	<path id="path40" fill="#FFFFFF" d="M455.142,397.942H306.88l-1.035-34.219l-62.793,49.766l62.793,53.965l1.035-38.574h148.262"/>
	<path id="path42" fill="#FFFFFF" d="M327.954,428.811H476.06l0.879,34.199l62.93-49.746l-62.93-52.49l-0.879,37.1H327.954"/>
	<path id="path44" fill="#FFFFFF" d="M376.616,432.121h25.889v-23.066h-25.889V432.121z"/>
	<g id="g46" transform="scale(10,10)" style="font-variant:normal;font-weight:bold;font-size:8.2281px;font-family:Helvetica;-inkscape-font-specification:Helvetica-Bold;writing-mode:lr-tb;fill:#ffffff;fill-opacity:1;fill-rule:nonzero;stroke:none">
		<text transform="matrix(1.004 0 0 1 29.647 38.0783)">T</text>
		<text transform="matrix(1.004 0 0 1 34.6978 38.0783)">D</text>
		<text transform="matrix(1.004 0 0 1 40.6665 38.0783)">M</text>
	</g>
</g>
</svg>
