<?xml version="1.0" encoding="utf-8"?>
<!-- Generator: Adobe Illustrator 16.0.0, SVG Export Plug-In . SVG Version: 6.00 Build 0)  -->
<!DOCTYPE svg PUBLIC "-//W3C//DTD SVG 1.1//EN" "http://www.w3.org/Graphics/SVG/1.1/DTD/svg11.dtd">
<svg version="1.1"
	 id="svg2" xmlns:dc="http://purl.org/dc/elements/1.1/" xmlns:cc="http://creativecommons.org/ns#" xmlns:rdf="http://www.w3.org/1999/02/22-rdf-syntax-ns#" xmlns:svg="http://www.w3.org/2000/svg"
	 xmlns="http://www.w3.org/2000/svg" xmlns:xlink="http://www.w3.org/1999/xlink" x="0px" y="0px" width="76px" height="65px"
	 viewBox="0 0 76 65" enable-background="new 0 0 76 65" xml:space="preserve">
<g id="g12" transform="scale(0.1,0.1)">
	<path id="path22" fill="#036998" d="M414.165,103.955l-180.01-6.313l-88.013,93.936l54.331,44.268l47.363-51.309l108.857,3.74
		L237.798,343.384l42.422,39.375l-68.301,91.465l-112.026-3.809L18.491,506.88l56.45,117.246l67.998,2.305l-0.498-25.898
		l-34.839-0.957l1.836-51.738l166.328,5.859l93.428-113.516l225.986,209.824l115.059-129.668l-28.027-26.758l-48.516,53.184
		L450.415,371.821l77.441-100.312l69.648,47.9l160.273,5.576l2.227-63.535l-114.941-4.043L414.165,103.955"/>
	<path id="path24" fill="#036998" d="M490.728,0l133.379,4.536l-5.078,142.461l-133.008-4.746L490.728,0"/>
	<path id="path26" fill="#036998" d="M88.604,169.712l151.851,127.636l-88.628,105.527L0,275.239L88.604,169.712"/>
</g>
</svg>
