<?xml version="1.0" encoding="utf-8"?>
<!-- Generator: Adobe Illustrator 16.0.0, SVG Export Plug-In . SVG Version: 6.00 Build 0)  -->
<!DOCTYPE svg PUBLIC "-//W3C//DTD SVG 1.1//EN" "http://www.w3.org/Graphics/SVG/1.1/DTD/svg11.dtd">
<svg version="1.1"
	 id="svg2" xmlns:dc="http://purl.org/dc/elements/1.1/" xmlns:cc="http://creativecommons.org/ns#" xmlns:rdf="http://www.w3.org/1999/02/22-rdf-syntax-ns#" xmlns:svg="http://www.w3.org/2000/svg"
	 xmlns="http://www.w3.org/2000/svg" xmlns:xlink="http://www.w3.org/1999/xlink" x="0px" y="0px" width="75px" height="64px"
	 viewBox="0 0 75 64" enable-background="new 0 0 75 64" xml:space="preserve">
<g id="g12" transform="scale(0.1,0.1)">
	<path id="path22" fill="#036998" d="M311.563,48.325l69.224-48.32h38.398l-3.828,36.816l-49.951,46.123L311.563,48.325"/>
	<path id="path24" fill="none" stroke="#FFFFFF" stroke-width="3.9999" d="M311.563,48.325l69.224-48.32h38.398l-3.828,36.816
		l-49.951,46.123L311.563,48.325z"/>
	<path id="path26" fill="#036998" d="M53.848,639.995h488.423V374.927H53.848V639.995z"/>
	<path id="path28" fill="none" stroke="#FFFFFF" stroke-width="3.9999" d="M53.848,639.995h488.423V374.927H53.848V639.995z"/>
	<path id="path30" fill="#036998" d="M542.271,374.927l173.145-165.244v253.623L542.271,639.995V374.927"/>
	<path id="path32" fill="none" stroke="#FFFFFF" stroke-width="3.9999" d="M542.271,374.927l173.145-165.244v253.623
		L542.271,639.995V374.927z"/>
	<path id="path34" fill="#036998" d="M632.72,586.919h-36.563l-1.973-238.926l28.926-11.426l17.266,15.371l3.906,201.601
		L632.72,586.919"/>
	<path id="path36" fill="none" stroke="#FFFFFF" stroke-width="3.9999" d="M632.72,586.919h-36.563l-1.973-238.926l28.926-11.426
		l17.266,15.371l3.906,201.601L632.72,586.919z"/>
	<path id="path38" fill="#036998" d="M623.11,336.567l9.609,249.677l65.352-74.971l-28.809-230.459L623.11,336.567"/>
	<path id="path40" fill="none" stroke="#FFFFFF" stroke-width="3.9999" d="M623.11,336.567l9.609,249.677l65.352-74.971
		l-28.809-230.459L623.11,336.567z"/>
	<path id="path42" fill="#036998" d="M580.786,394.096L330.757,67.573l86.592-67.246l332.656,209.355L580.786,394.096"/>
	<path id="path44" fill="none" stroke="#FFFFFF" stroke-width="3.9999" d="M580.786,394.096L330.757,67.573l86.592-67.246
		l332.656,209.355L580.786,394.096z"/>
	<path id="path46" fill="#036998" d="M619.204,255.786l38.496-38.418L638.501,63.696l-34.688,15.371v138.301L619.204,255.786"/>
	<path id="path48" fill="none" stroke="#FFFFFF" stroke-width="3.9999" d="M619.204,255.786l38.496-38.418L638.501,63.696
		l-34.688,15.371v138.301L619.204,255.786z"/>
	<path id="path50" fill="#036998" d="M561.587,202.007l57.617,51.885l-3.848-182.51l-30.762-3.809L561.587,202.007"/>
	<path id="path52" fill="none" stroke="#FFFFFF" stroke-width="3.9999" d="M561.587,202.007l57.617,51.885l-3.848-182.51
		l-30.762-3.809L561.587,202.007z"/>
	<path id="path54" fill="#036998" d="M584.595,67.573l28.926,17.275l24.98-21.152l-28.926-10.059L584.595,67.573"/>
	<path id="path56" fill="none" stroke="#FFFFFF" stroke-width="3.9999" d="M584.595,67.573l28.926,17.275l24.98-21.152
		l-28.926-10.059L584.595,67.573z"/>
	<path id="path58" fill="#036998" d="M353.833,48.325l230.762,345.771H0L311.563,48.325H353.833"/>
	<path id="path60" fill="none" stroke="#FFFFFF" stroke-width="3.9999" d="M353.833,48.325l230.762,345.771H0L311.563,48.325
		H353.833z"/>
	<path id="path62" fill="#036998" d="M462.778,399.057c0,33.457-69.668,60.518-155.63,60.518
		c-85.981,0-155.659-27.061-155.659-60.518v88.545c0,33.438,69.678,60.527,155.659,60.527c85.962,0,155.63-27.09,155.63-60.527
		V399.057"/>
	<path id="path64" fill="none" stroke="#FFFFFF" stroke-width="3.9999" d="M462.778,399.057c0,33.457-69.668,60.518-155.63,60.518
		c-85.981,0-155.659-27.061-155.659-60.518v88.545c0,33.438,69.678,60.527,155.659,60.527c85.962,0,155.63-27.09,155.63-60.527
		V399.057z"/>
	<path id="path66" fill="#036998" d="M307.148,459.575c85.962,0,155.63-27.061,155.63-60.518c0-33.427-69.668-60.498-155.63-60.498
		c-85.981,0-155.659,27.07-155.659,60.498C151.489,432.514,221.167,459.575,307.148,459.575"/>
	<path id="path68" fill="none" stroke="#FFFFFF" stroke-width="3.9999" d="M307.148,459.575c85.962,0,155.63-27.061,155.63-60.518
		c0-33.427-69.668-60.498-155.63-60.498c-85.981,0-155.659,27.07-155.659,60.498C151.489,432.514,221.167,459.575,307.148,459.575z"
		/>
	<path id="path70" fill="#FFFFFF" d="M271.592,375.474l12.866,19.209l-48.623,11.162l10.625-8.818l-75.088-12.744l18.809-14.072
		l72.461,12.158L271.592,375.474"/>
	<path id="path72" fill="#FFFFFF" d="M339.927,422.182l-8.77-19.961l43.848-8.77l-7.617,6.914l73.027,12.461l-17.539,13.975
		l-72.529-13.662L339.927,422.182"/>
	<path id="path74" fill="#FFFFFF" d="M316.001,364.868l49.082-13.369l0.547,21.045l-12.246-2.314l-23.945,19.834l-22.876-3.379
		l24.751-19.355L316.001,364.868"/>
	<path id="path76" fill="#FFFFFF" d="M294.927,440.19l-46.709,8.76l-1.768-21.543l13.462,2.93l25.708-21.943l22.764,3.809
		l-27.466,23.975L294.927,440.19"/>
</g>
</svg>
