<?xml version="1.0" encoding="utf-8"?>
<!-- Generator: Adobe Illustrator 16.0.0, SVG Export Plug-In . SVG Version: 6.00 Build 0)  -->
<!DOCTYPE svg PUBLIC "-//W3C//DTD SVG 1.1//EN" "http://www.w3.org/Graphics/SVG/1.1/DTD/svg11.dtd">
<svg version="1.1"
	 id="svg2" xmlns:dc="http://purl.org/dc/elements/1.1/" xmlns:cc="http://creativecommons.org/ns#" xmlns:rdf="http://www.w3.org/1999/02/22-rdf-syntax-ns#" xmlns:svg="http://www.w3.org/2000/svg"
	 xmlns="http://www.w3.org/2000/svg" xmlns:xlink="http://www.w3.org/1999/xlink" x="0px" y="0px" width="75px" height="64px"
	 viewBox="0 0 75 64" enable-background="new 0 0 75 64" xml:space="preserve">
<g id="g12" transform="scale(0.1,0.1)">
	<path id="path22" fill="#036998" d="M311.543,48.354L380.762,0h38.457l-3.848,36.831L365.396,82.93L311.543,48.354"/>
	<path id="path24" fill="none" stroke="#FFFFFF" stroke-width="3.9999" d="M311.543,48.354L380.762,0h38.457l-3.848,36.831
		L365.396,82.93L311.543,48.354z"/>
	<path id="path26" fill="#036998" d="M53.848,640h488.457V374.922H53.848V640z"/>
	<path id="path28" fill="none" stroke="#FFFFFF" stroke-width="3.9999" d="M53.848,640h488.457V374.922H53.848V640z"/>
	<path id="path30" fill="#036998" d="M542.305,374.922l173.086-165.21v253.569L542.305,640V374.922"/>
	<path id="path32" fill="none" stroke="#FFFFFF" stroke-width="3.9999" d="M542.305,374.922l173.086-165.21v253.569L542.305,640
		V374.922z"/>
	<path id="path34" fill="#036998" d="M632.695,586.836h-36.543l-1.934-238.808l28.848-11.543l17.324,15.371l3.828,201.699
		L632.695,586.836"/>
	<path id="path36" fill="none" stroke="#FFFFFF" stroke-width="3.9999" d="M632.695,586.836h-36.543l-1.934-238.808l28.848-11.543
		l17.324,15.371l3.828,201.699L632.695,586.836z"/>
	<path id="path38" fill="#036998" d="M623.066,336.484l9.629,249.726l65.371-74.922l-28.848-230.503L623.066,336.484"/>
	<path id="path40" fill="none" stroke="#FFFFFF" stroke-width="3.9999" d="M623.066,336.484l9.629,249.726l65.371-74.922
		l-28.848-230.503L623.066,336.484z"/>
	<path id="path42" fill="#036998" d="M580.762,394.121L330.767,67.563l86.538-67.236L750,209.712L580.762,394.121"/>
	<path id="path44" fill="none" stroke="#FFFFFF" stroke-width="3.9999" d="M580.762,394.121L330.767,67.563l86.538-67.236
		L750,209.712L580.762,394.121z"/>
	<path id="path46" fill="#036998" d="M619.219,255.815l38.477-38.418L638.457,63.721l-34.609,15.366v138.311L619.219,255.815"/>
	<path id="path48" fill="none" stroke="#FFFFFF" stroke-width="3.9999" d="M619.219,255.815l38.477-38.418L638.457,63.721
		l-34.609,15.366v138.311L619.219,255.815z"/>
	<path id="path50" fill="#036998" d="M561.543,202.031l57.676,51.865l-3.828-182.49l-30.781-3.843L561.543,202.031"/>
	<path id="path52" fill="none" stroke="#FFFFFF" stroke-width="3.9999" d="M561.543,202.031l57.676,51.865l-3.828-182.49
		l-30.781-3.843L561.543,202.031z"/>
	<path id="path54" fill="#036998" d="M584.609,67.563l28.848,17.29l25-21.133l-28.848-10.083L584.609,67.563"/>
	<path id="path56" fill="none" stroke="#FFFFFF" stroke-width="3.9999" d="M584.609,67.563l28.848,17.29l25-21.133l-28.848-10.083
		L584.609,67.563z"/>
	<path id="path58" fill="#036998" d="M353.853,48.354l230.757,345.767H0L311.543,48.354H353.853"/>
	<path id="path60" fill="none" stroke="#FFFFFF" stroke-width="3.9999" d="M353.853,48.354l230.757,345.767H0L311.543,48.354
		H353.853z"/>
	<path id="path62" fill="#036998" d="M156.016,523.711H428.32v-51.172H156.016V523.711z"/>
	<path id="path64" fill="none" stroke="#FFFFFF" stroke-width="3.9999" d="M156.016,523.711H428.32v-51.172H156.016V523.711z"/>
	<path id="path66" fill="#036998" d="M344.927,501.465h68.667"/>
	<path id="path68" fill="none" stroke="#FFFFFF" stroke-width="3.9999" d="M344.927,501.465h68.667"/>
	<path id="path70" fill="#036998" d="M344.927,499.004h68.667"/>
	<path id="path72" fill="none" stroke="#FFFFFF" stroke-width="3.9999" d="M344.927,499.004h68.667"/>
	<path id="path74" fill="#036998" d="M475.352,473.926v-45.742l-47.07,44.57v50.645L475.352,473.926"/>
	<path id="path76" fill="none" stroke="#FFFFFF" stroke-width="3.9999" d="M475.352,473.926v-45.742l-47.07,44.57v50.645
		L475.352,473.926z"/>
	<path id="path78" fill="#036998" d="M379.966,565.195V553.73l24.722-34.18v20.938L379.966,565.195"/>
	<path id="path80" fill="none" stroke="#FFFFFF" stroke-width="3.9999" d="M379.966,565.195V553.73l24.722-34.18v20.938
		L379.966,565.195z"/>
	<path id="path82" fill="#036998" d="M161.807,565.195h218.159v-11.289H161.807V565.195z"/>
	<path id="path84" fill="none" stroke="#FFFFFF" stroke-width="3.9999" d="M161.807,565.195h218.159v-11.289H161.807V565.195z"/>
	<path id="path86" fill="#036998" d="M379.966,553.906H162.5l24.746-34.355h217.441L379.966,553.906"/>
	<path id="path88" fill="none" stroke="#FFFFFF" stroke-width="3.9999" d="M379.966,553.906H162.5l24.746-34.355h217.441
		L379.966,553.906z"/>
	<path id="path90" fill="#036998" d="M473.945,429.57H201.621l-45.605,42.969H428.32L473.945,429.57"/>
	<path id="path92" fill="none" stroke="#FFFFFF" stroke-width="3.9999" d="M473.945,429.57H201.621l-45.605,42.969H428.32
		L473.945,429.57z"/>
	<path id="path94" fill="#036998" d="M422.715,429.727H240.43l-30.547,28.789h182.305L422.715,429.727"/>
	<path id="path96" fill="none" stroke="#FFFFFF" stroke-width="3.9999" d="M422.715,429.727H240.43l-30.547,28.789h182.305
		L422.715,429.727z"/>
	<path id="path98" fill="#036998" d="M204.717,447.246h187.744V309.79H204.717V447.246z"/>
	<path id="path100" fill="none" stroke="#FFFFFF" stroke-width="3.9999" d="M204.717,447.246h187.744V309.79H204.717V447.246z"/>
	<path id="path102" fill="#036998" d="M220.566,339.941c0-13.789,14.326-15.835,14.326-15.835s110.522,0,123.823,0
		c17.383,0,16.875,16.343,16.875,16.343s0,67.461,0,77.168s-13.301,13.809-13.301,13.809s-113.071,0-125.356,0
		c-12.266,0-16.367-12.773-16.367-12.773V339.941"/>
	<path id="path104" fill="none" stroke="#FFFFFF" stroke-width="3.9999" d="M220.566,339.941c0-13.789,14.326-15.835,14.326-15.835
		s110.522,0,123.823,0c17.383,0,16.875,16.343,16.875,16.343s0,67.461,0,77.168s-13.301,13.809-13.301,13.809s-113.071,0-125.356,0
		c-12.266,0-16.367-12.773-16.367-12.773V339.941z"/>
	<path id="path106" fill="#036998" d="M423.945,280.161H236.182l-31.465,29.629h187.744L423.945,280.161"/>
	<path id="path108" fill="none" stroke="#FFFFFF" stroke-width="3.9999" d="M423.945,280.161H236.182l-31.465,29.629h187.744
		L423.945,280.161z"/>
	<path id="path110" fill="#036998" d="M423.945,418.066V280.103l-31.172,29.434V447.5L423.945,418.066"/>
	<path id="path112" fill="none" stroke="#FFFFFF" stroke-width="3.9999" d="M423.945,418.066V280.103l-31.172,29.434V447.5
		L423.945,418.066z"/>
</g>
</svg>
