<?xml version="1.0" encoding="utf-8"?>
<!-- Generator: Adobe Illustrator 16.0.0, SVG Export Plug-In . SVG Version: 6.00 Build 0)  -->
<!DOCTYPE svg PUBLIC "-//W3C//DTD SVG 1.1//EN" "http://www.w3.org/Graphics/SVG/1.1/DTD/svg11.dtd">
<svg version="1.1"
	 id="svg2" xmlns:dc="http://purl.org/dc/elements/1.1/" xmlns:cc="http://creativecommons.org/ns#" xmlns:rdf="http://www.w3.org/1999/02/22-rdf-syntax-ns#" xmlns:svg="http://www.w3.org/2000/svg"
	 xmlns="http://www.w3.org/2000/svg" xmlns:xlink="http://www.w3.org/1999/xlink" x="0px" y="0px" width="80px" height="73px"
	 viewBox="0 0 80 73" enable-background="new 0 0 80 73" xml:space="preserve">
<g id="g12" transform="scale(0.1,0.1)">
	<path id="path22" fill="#036998" d="M116.731,650.378h584.204v-109.15H116.731V650.378z"/>
	<path id="path24" fill="none" stroke="#FFFFFF" stroke-width="3.9999" d="M116.731,650.378h584.204v-109.15H116.731V650.378z"/>
	<path id="path26" fill="#036998" d="M799.998,441.57v110.498l-99.063,99.248V541.228H116.101"/>
	<path id="path28" fill="none" stroke="#FFFFFF" stroke-width="3.9999" d="M799.998,441.57v110.498l-99.063,99.248V541.228H116.101"
		/>
	<path id="path30" fill="#036998" d="M120.779,441.57h679.219"/>
	<path id="path32" fill="none" stroke="#FFFFFF" stroke-width="3.9999" d="M120.779,441.57h679.219"/>
	<path id="path34" fill="#036998" d="M700.935,541.228l99.063-99.658"/>
	<path id="path36" fill="none" stroke="#FFFFFF" stroke-width="3.9999" d="M700.935,541.228l99.063-99.658"/>
	<path id="path38" fill="#036998" d="M116.101,538.943h584.063V99.451H116.101V538.943z"/>
	<path id="path40" fill="none" stroke="#FFFFFF" stroke-width="3.9999" d="M116.101,538.943h584.063V99.451H116.101V538.943z"/>
	<path id="path42" fill="#036998" d="M700.164,538.943l99.834-99.238V-0.002H215.945l-99.844,99.453h584.063V538.943"/>
	<path id="path44" fill="none" stroke="#FFFFFF" stroke-width="3.9999" d="M700.164,538.943l99.834-99.238V-0.002H215.945
		l-99.844,99.453h584.063V538.943z"/>
	<path id="path46" fill="#036998" d="M167.195,488.152h482.08v-337.92h-482.08V488.152z"/>
	<path id="path48" fill="none" stroke="#FFFFFF" stroke-width="3.9999" d="M167.195,488.152h482.08v-337.92h-482.08V488.152z"/>
	<path id="path50" fill="#036998" d="M700.164,99.451l99.834-99.453"/>
	<path id="path52" fill="none" stroke="#FFFFFF" stroke-width="3.9999" d="M700.164,99.451l99.834-99.453"/>
	<path id="path54" fill="#036998" d="M672.039,729.997V665.31H-0.002l76.538-76.367h672.026v64.678L672.039,729.997"/>
	<path id="path56" fill="none" stroke="#FFFFFF" stroke-width="3.9999" d="M672.039,729.997V665.31H-0.002l76.538-76.367h672.026
		v64.678L672.039,729.997z"/>
	<path id="path58" fill="#036998" d="M-0.002,729.997h672.041V665.31H-0.002V729.997z"/>
	<path id="path60" fill="none" stroke="#FFFFFF" stroke-width="3.9999" d="M-0.002,729.997h672.041V665.31H-0.002V729.997z"/>
	<path id="path62" fill="#036998" d="M672.039,665.31l76.523-76.367"/>
	<path id="path64" fill="none" stroke="#FFFFFF" stroke-width="3.9999" d="M672.039,665.31l76.523-76.367"/>
</g>
</svg>
