<?xml version="1.0" encoding="utf-8"?>
<!-- Generator: Adobe Illustrator 16.0.0, SVG Export Plug-In . SVG Version: 6.00 Build 0)  -->
<!DOCTYPE svg PUBLIC "-//W3C//DTD SVG 1.1//EN" "http://www.w3.org/Graphics/SVG/1.1/DTD/svg11.dtd">
<svg version="1.1"
	 id="svg2" xmlns:dc="http://purl.org/dc/elements/1.1/" xmlns:cc="http://creativecommons.org/ns#" xmlns:rdf="http://www.w3.org/1999/02/22-rdf-syntax-ns#" xmlns:svg="http://www.w3.org/2000/svg"
	 xmlns="http://www.w3.org/2000/svg" xmlns:xlink="http://www.w3.org/1999/xlink" x="0px" y="0px" width="80px" height="80px"
	 viewBox="0 0 80 80" enable-background="new 0 0 80 80" xml:space="preserve">
<g id="g12" transform="scale(0.1,0.1)">
	<path id="path22" fill="#FFFFFF" d="M402.576,789.997c215.527,0,389.961-174.619,389.961-390.01
		c0-215.429-174.434-389.99-389.961-389.99c-215.41,0-389.99,174.561-389.99,389.99C12.585,615.378,187.166,789.997,402.576,789.997
		"/>
	<path id="path24" fill="none" stroke="#036998" stroke-width="3.9999" d="M402.576,789.997
		c215.527,0,389.961-174.619,389.961-390.01c0-215.429-174.434-389.99-389.961-389.99c-215.41,0-389.99,174.561-389.99,389.99
		C12.585,615.378,187.166,789.997,402.576,789.997z"/>
	<g id="g26" transform="scale(10,10)" style="font-variant:normal;font-weight:normal;font-size:19.8019px;font-family:Helvetica;-inkscape-font-specification:Helvetica;writing-mode:lr-tb;fill:#036998;fill-opacity:1;fill-rule:nonzero;stroke:none">
		<text transform="matrix(1 0 0 1 12.4637 34.3405)">T</text>
		<text transform="matrix(1 0 0 1 24.5642 34.3405)">o</text>
		<text transform="matrix(1 0 0 1 35.5721 34.3405)">k</text>
		<text transform="matrix(1 0 0 1 45.4705 34.3405)">e</text>
		<text transform="matrix(1 0 0 1 56.4812 34.3405)">n</text>
		<text transform="matrix(1 0 0 1 19.6287 56.9704)">R</text>
		<text transform="matrix(1 0 0 1 33.9148 56.9704)">i</text>
		<text transform="matrix(1 0 0 1 38.3133 56.9704)">n</text>
		<text transform="matrix(1 0 0 1 49.3221 56.9704)">g</text>
	</g>
</g>
</svg>
