<?xml version="1.0" encoding="utf-8"?>
<!-- Generator: Adobe Illustrator 16.0.0, SVG Export Plug-In . SVG Version: 6.00 Build 0)  -->
<!DOCTYPE svg PUBLIC "-//W3C//DTD SVG 1.1//EN" "http://www.w3.org/Graphics/SVG/1.1/DTD/svg11.dtd">
<svg version="1.1"
	 id="svg2" xmlns:dc="http://purl.org/dc/elements/1.1/" xmlns:cc="http://creativecommons.org/ns#" xmlns:rdf="http://www.w3.org/1999/02/22-rdf-syntax-ns#" xmlns:svg="http://www.w3.org/2000/svg"
	 xmlns="http://www.w3.org/2000/svg" xmlns:xlink="http://www.w3.org/1999/xlink" x="0px" y="0px" width="65px" height="78px"
	 viewBox="0 0 65 78" enable-background="new 0 0 65 78" xml:space="preserve">
<g id="g12" transform="scale(0.1,0.1)">
	<path id="path14" fill="#FFFFFF" d="M96.211,185.82H10v71.23l75.874-0.239h8.975"/>
	<path id="path16" fill="none" stroke="#231F20" stroke-width="4" d="M96.211,185.82H10v71.23l75.874-0.239h8.975"/>
	<path id="path18" fill="#FFFFFF" d="M541.631,259.517h10.225c75.85,0,88.125,68.472,88.125,68.472v-71.104
		c0,0-12.021-68.379-88.125-68.379h-16.826"/>
	<path id="path20" fill="none" stroke="#231F20" stroke-width="4" d="M541.631,259.517h10.225c75.85,0,88.125,68.472,88.125,68.472
		v-71.104c0,0-12.021-68.379-88.125-68.379h-16.826"/>
	<path id="path22" fill="#0881C1" d="M484.141,760V62.08h-399.8V760H484.141L484.141,760"/>
	<path id="path24" fill="none" stroke="#FFFFFF" stroke-width="4" d="M484.141,760V62.08h-399.8V760H484.141L484.141,760z"/>
	<path id="path26" fill="#0881C1" d="M84.341,62.08L160.708,0h385.317l-61.885,62.08H84.341L84.341,62.08"/>
	<path id="path28" fill="none" stroke="#FFFFFF" stroke-width="4" d="M84.341,62.08L160.708,0h385.317l-61.885,62.08H84.341
		L84.341,62.08z"/>
	<path id="path30" fill="#0881C1" d="M484.141,760l61.885-76.436V0l-61.885,62.08V760"/>
	<path id="path32" fill="none" stroke="#FFFFFF" stroke-width="4" d="M484.141,760l61.885-76.436V0l-61.885,62.08V760z"/>
	<path id="path34" fill="#FFFFFF" d="M640,279.375v84.199c-8.232,99.795-185.303,94.57-185.303,94.57v73.838L339.072,416.211
		l115.625-115.879v73.73C454.697,374.063,634.766,379.307,640,279.375"/>
	<path id="path36" fill="none" stroke="#231F20" stroke-width="4" d="M640,279.375v84.199
		c-8.232,99.795-185.303,94.57-185.303,94.57v73.838L339.072,416.211l115.625-115.879v73.73
		C454.697,374.063,634.766,379.307,640,279.375"/>
	<path id="path38" fill="#FFFFFF" d="M141.89,176.191l-19.37,18.926l0.01-89.424h89.307l-19.81,20.2l-3.784,4.053l132.959,132.793
		l-43.389,43.442L144.976,173.267L141.89,176.191L141.89,176.191"/>
	<path id="path40" fill="#FFFFFF" d="M150.063,646.338l-19.37-19.043l0.015,89.541H220l-19.8-20.439l-3.774-3.906l132.949-132.842
		l-43.379-43.311l-132.725,132.93L150.063,646.338L150.063,646.338"/>
	<path id="path42" fill="#FFFFFF" d="M208.496,396.513v89.834h-95.229v-89.834C160.83,368.047,208.496,396.513,208.496,396.513
		L208.496,396.513"/>
	<path id="path44" fill="#FFFFFF" d="M190.352,357.48c0,15.859-12.842,28.662-28.55,28.662c-15.835,0-28.555-12.803-28.555-28.662
		c0-15.732,12.72-28.594,28.555-28.594C177.51,328.887,190.352,341.748,190.352,357.48L190.352,357.48"/>
	<path id="path46" fill="#FFFFFF" d="M324.57,396.513v89.834h-95.234v-89.834C276.895,368.047,324.57,396.513,324.57,396.513
		L324.57,396.513"/>
	<path id="path48" fill="#FFFFFF" d="M306.426,357.48c0,15.859-12.842,28.662-28.545,28.662c-15.85,0-28.564-12.803-28.564-28.662
		c0-15.732,12.715-28.594,28.564-28.594C293.584,328.887,306.426,341.748,306.426,357.48L306.426,357.48"/>
</g>
</svg>
