<?xml version="1.0" encoding="utf-8"?>
<!-- Generator: Adobe Illustrator 16.0.0, SVG Export Plug-In . SVG Version: 6.00 Build 0)  -->
<!DOCTYPE svg PUBLIC "-//W3C//DTD SVG 1.1//EN" "http://www.w3.org/Graphics/SVG/1.1/DTD/svg11.dtd">
<svg version="1.1"
	 id="图层_1" xmlns:dc="http://purl.org/dc/elements/1.1/" xmlns:cc="http://creativecommons.org/ns#" xmlns:rdf="http://www.w3.org/1999/02/22-rdf-syntax-ns#"
	 xmlns="http://www.w3.org/2000/svg" xmlns:xlink="http://www.w3.org/1999/xlink" x="0px" y="0px" width="75px" height="75px"
	 viewBox="0 0 75 75" enable-background="new 0 0 75 75" xml:space="preserve">
<path fill="#00BCF2" d="M74.797,52.931l-0.128,0.083L59.553,39.696l6.516-6.617l-17.62-0.106l-0.044,17.346l6.454-6.406
	l14.436,14.436L55.283,72.253L33.304,50.55l4.149-4.328l-12.967-0.127l0.115,13.049l4.424-4.669l19.436,20.02L48.45,74.74
	l-26.687,0.037l-0.082-0.127L0,52.946l0.032-0.148l0.172-30.729l0.127-0.083l7.553-7.495l17.835,17.283l-7.505,7.625l23.806,0.245
	l-0.139-24.277l-7.713,7.719L16.832,5.611l5.423-5.382l0.148,0.031l30.833-0.038l0.083,0.127L75,22.053l-0.031,0.149L74.797,52.931z
	"/>
</svg>
