<?xml version="1.0" encoding="utf-8"?>
<!-- Generator: Adobe Illustrator 16.0.0, SVG Export Plug-In . SVG Version: 6.00 Build 0)  -->
<!DOCTYPE svg PUBLIC "-//W3C//DTD SVG 1.1//EN" "http://www.w3.org/Graphics/SVG/1.1/DTD/svg11.dtd">
<svg version="1.1"
	 id="svg2" xmlns:dc="http://purl.org/dc/elements/1.1/" xmlns:cc="http://creativecommons.org/ns#" xmlns:rdf="http://www.w3.org/1999/02/22-rdf-syntax-ns#" xmlns:svg="http://www.w3.org/2000/svg"
	 xmlns="http://www.w3.org/2000/svg" xmlns:xlink="http://www.w3.org/1999/xlink" x="0px" y="0px" width="75px" height="70px"
	 viewBox="0 0 75 70" enable-background="new 0 0 75 70" xml:space="preserve">
<g id="g12" transform="scale(0.1,0.1)">
	<path id="path14" fill="#026C9B" d="M0.732,699.995h691.509V57.158H0.732V699.995z"/>
	<path id="path16" fill="none" stroke="#FFFFFF" stroke-width="4" d="M0.732,699.995h691.509V57.158H0.732V699.995z"/>
	<path id="path18" fill="#026C9B" d="M0.732,57.163L71.743,0h678.252l-57.754,57.163H0.732"/>
	<path id="path20" fill="none" stroke="#FFFFFF" stroke-width="4" d="M0.732,57.163L71.743,0h678.252l-57.754,57.163H0.732z"/>
	<path id="path22" fill="#026C9B" d="M692.241,699.995l57.754-70.449V0l-57.754,57.163V699.995"/>
	<path id="path24" fill="none" stroke="#FFFFFF" stroke-width="4" d="M692.241,699.995l57.754-70.449V0l-57.754,57.163V699.995z"/>
	<path id="path26" fill="none" stroke="#FFFFFF" stroke-width="4" d="M686.987,274.722H556.479
		c-45.273,0-45.273-44.785-45.273-44.785c70.293-154.595-55.469-129.585-55.469-129.585s-125.41-25.01-55.098,129.585
		c0,0,0,44.785-45.117,44.785H38.906c0,0-25.029,5.029-35.156,39.902"/>
	<path id="path28" fill="none" stroke="#FFFFFF" stroke-width="4" d="M0,475.757h130.659c45.117,0,45.117,44.941,45.117,44.941
		c-70.308,154.59,55.303,129.434,55.303,129.434s125.576,25.156,55.264-129.434c0,0,0-44.941,45.127-44.941h316.611
		c0,0,25.02-4.688,35.156-39.57"/>
	<path id="path30" fill="#FFFFFF" d="M161.934,350.678l17.515,26.035l-65.967,15.195l14.36-12.109L25.933,362.456l25.601-18.809
		l98.32,16.445L161.934,350.678"/>
	<path id="path32" fill="#FFFFFF" d="M254.878,413.764l-11.982-26.836l59.6-11.719l-10.293,8.965l99.063,16.758l-23.652,18.906
		l-98.721-18.281L254.878,413.764"/>
	<path id="path34" fill="#FFFFFF" d="M222.31,336.489l66.66-18.135l0.771,28.34l-16.592-3.047l-32.549,26.68l-31.099-4.434
		l33.638-26.172L222.31,336.489"/>
	<path id="path36" fill="#FFFFFF" d="M193.735,437.964l-63.438,12.051l-2.456-29.414l18.286,4.121l34.868-29.688l31.021,5.156
		l-37.329,32.461L193.735,437.964"/>
	<path id="path38" fill="#FFFFFF" d="M541.87,377.729l43.457,34.063l20.43-0.059v-8.828l46.27,16.133l-46.27,16.504v-9.316H579.39
		l-49.883-38.672l-49.863,38.672h-26.387v9.316l-46.582-16.504l46.582-16.133v8.828l20.43,0.059l43.477-34.063l-43.477-33.887
		l-20.43,0.186v8.838l-46.582-16.309l46.582-16.328v9.297l26.387,0.02l49.863,38.672l49.883-38.672l26.367-0.02v-9.297l46.27,16.328
		l-46.27,16.309v-8.838l-20.43-0.186L541.87,377.729"/>
</g>
</svg>
