<?xml version="1.0" encoding="utf-8"?>
<!-- Generator: Adobe Illustrator 16.0.0, SVG Export Plug-In . SVG Version: 6.00 Build 0)  -->
<!DOCTYPE svg PUBLIC "-//W3C//DTD SVG 1.1//EN" "http://www.w3.org/Graphics/SVG/1.1/DTD/svg11.dtd">
<svg version="1.1"
	 id="svg2" xmlns:dc="http://purl.org/dc/elements/1.1/" xmlns:cc="http://creativecommons.org/ns#" xmlns:rdf="http://www.w3.org/1999/02/22-rdf-syntax-ns#" xmlns:svg="http://www.w3.org/2000/svg"
	 xmlns="http://www.w3.org/2000/svg" xmlns:xlink="http://www.w3.org/1999/xlink" x="0px" y="0px" width="76px" height="29px"
	 viewBox="0 0 76 29" enable-background="new 0 0 76 29" xml:space="preserve">
<g id="g12" transform="scale(0.1,0.1)">
	<path id="path22" fill="#036998" d="M467.551,273.533V86.814l-18.818,16.455v186.728L467.551,273.533"/>
	<path id="path24" fill="none" stroke="#FFFFFF" stroke-width="3.9999" d="M467.551,273.533V86.814l-18.818,16.455v186.728
		L467.551,273.533z"/>
	<path id="path26" fill="#036998" d="M0.002,289.665h448.34V103.611H0.002V289.665z"/>
	<path id="path28" fill="none" stroke="#FFFFFF" stroke-width="3.9999" d="M0.002,289.665h448.34V103.611H0.002V289.665z"/>
	<path id="path30" fill="#036998" d="M467.551,86.882H19.216L0.002,103.611h448.34L467.551,86.882"/>
	<path id="path32" fill="none" stroke="#FFFFFF" stroke-width="3.9999" d="M467.551,86.882H19.216L0.002,103.611h448.34
		L467.551,86.882z"/>
	<path id="path34" fill="#036998" d="M467.551,86.882l-19.209,16.729"/>
	<path id="path36" fill="none" stroke="#FFFFFF" stroke-width="3.9999" d="M467.551,86.882l-19.209,16.729"/>
	<path id="path38" fill="#036998" d="M92.932,289.665V103.611"/>
	<path id="path40" fill="none" stroke="#FFFFFF" stroke-width="3.9999" d="M92.932,289.665V103.611"/>
	<path id="path42" fill="#036998" d="M179.094,289.665V103.611"/>
	<path id="path44" fill="none" stroke="#FFFFFF" stroke-width="3.9999" d="M179.094,289.665V103.611"/>
	<path id="path46" fill="#036998" d="M265.266,289.665V103.611"/>
	<path id="path48" fill="none" stroke="#FFFFFF" stroke-width="3.9999" d="M265.266,289.665V103.611"/>
	<path id="path50" fill="#036998" d="M351.428,289.665V103.611"/>
	<path id="path52" fill="none" stroke="#FFFFFF" stroke-width="3.9999" d="M351.428,289.665V103.611"/>
	<path id="path54" fill="#036998" d="M504.827,122.527l17.598,25.889l-54.873,30.049v-35.186L504.827,122.527"/>
	<path id="path56" fill="none" stroke="#FFFFFF" stroke-width="3.9999" d="M504.827,122.527l17.598,25.889l-54.873,30.049v-35.186
		L504.827,122.527z"/>
	<path id="path58" fill="#036998" d="M530.784,167.302l16.104,27.822l-79.336,44.756v-35.215L530.784,167.302"/>
	<path id="path60" fill="none" stroke="#FFFFFF" stroke-width="3.9999" d="M530.784,167.302l16.104,27.822l-79.336,44.756v-35.215
		L530.784,167.302z"/>
	<path id="path62" fill="#036998" d="M705.374,169.48L611.653,7.742l-8.018,23.623l93.672,161.719L705.374,169.48"/>
	<path id="path64" fill="none" stroke="#FFFFFF" stroke-width="3.9999" d="M705.374,169.48L611.653,7.742l-8.018,23.623
		l93.672,161.719L705.374,169.48z"/>
	<path id="path66" fill="#036998" d="M696.799,193.005L603.44,31.873L490.061,97.087l93.398,161.123L696.799,193.005"/>
	<path id="path68" fill="none" stroke="#FFFFFF" stroke-width="3.9999" d="M696.799,193.005L603.44,31.873L490.061,97.087
		l93.398,161.123L696.799,193.005z"/>
	<path id="path70" fill="#036998" d="M611.682,7.81L498.323,73.025l-8.262,24.063L603.44,31.873L611.682,7.81"/>
	<path id="path72" fill="none" stroke="#FFFFFF" stroke-width="3.9999" d="M611.682,7.81L498.323,73.025l-8.262,24.063
		L603.44,31.873L611.682,7.81z"/>
	<path id="path74" fill="#036998" d="M611.682,7.81l-8.242,24.063"/>
	<path id="path76" fill="none" stroke="#FFFFFF" stroke-width="3.9999" d="M611.682,7.81l-8.242,24.063"/>
	<path id="path78" fill="#036998" d="M760.002,82.009L713.987-0.002l-5.615,16.533l46.035,82.021L760.002,82.009"/>
	<path id="path80" fill="none" stroke="#FFFFFF" stroke-width="3.9999" d="M760.002,82.009L713.987-0.002l-5.615,16.533
		l46.035,82.021L760.002,82.009z"/>
	<path id="path82" fill="#036998" d="M754.006,98.503l-45.762-81.621L623,44.988L688.372,157.8L754.006,98.503"/>
	<path id="path84" fill="none" stroke="#FFFFFF" stroke-width="3.9999" d="M754.006,98.503l-45.762-81.621L623,44.988L688.372,157.8
		L754.006,98.503z"/>
	<path id="path86" fill="#036998" d="M714.006,0.066l-85.234,28.076L623,44.988l85.244-28.105L714.006,0.066"/>
	<path id="path88" fill="none" stroke="#FFFFFF" stroke-width="3.9999" d="M714.006,0.066l-85.234,28.076L623,44.988l85.244-28.105
		L714.006,0.066z"/>
	<path id="path90" fill="#036998" d="M714.006,0.066l-5.762,16.816"/>
	<path id="path92" fill="none" stroke="#FFFFFF" stroke-width="3.9999" d="M714.006,0.066l-5.762,16.816"/>
</g>
</svg>
