<?xml version="1.0" encoding="utf-8"?>
<!-- Generator: Adobe Illustrator 16.0.0, SVG Export Plug-In . SVG Version: 6.00 Build 0)  -->
<!DOCTYPE svg PUBLIC "-//W3C//DTD SVG 1.1//EN" "http://www.w3.org/Graphics/SVG/1.1/DTD/svg11.dtd">
<svg version="1.1"
	 id="svg2" xmlns:dc="http://purl.org/dc/elements/1.1/" xmlns:cc="http://creativecommons.org/ns#" xmlns:rdf="http://www.w3.org/1999/02/22-rdf-syntax-ns#" xmlns:svg="http://www.w3.org/2000/svg"
	 xmlns="http://www.w3.org/2000/svg" xmlns:xlink="http://www.w3.org/1999/xlink" x="0px" y="0px" width="75px" height="30px"
	 viewBox="0 0 75 30" enable-background="new 0 0 75 30" xml:space="preserve">
<g id="g12" transform="scale(0.1,0.1)">
	<path id="path22" fill="#036998" d="M668.845,239.922c0,3.496-2.813,6.426-6.406,6.426H64.871c-3.477,0-6.343-2.93-6.343-6.426
		L91.755,39.653c0-3.433,2.813-6.323,6.279-6.323h587.08c3.584,0,6.396,2.891,6.396,6.323L668.845,239.922"/>
	<path id="path24" fill="none" stroke="#FFFFFF" stroke-width="3.9999" d="M668.845,239.922c0,3.496-2.813,6.426-6.406,6.426H64.871
		c-3.477,0-6.343-2.93-6.343-6.426L91.755,39.653c0-3.433,2.813-6.323,6.279-6.323h587.08c3.584,0,6.396,2.891,6.396,6.323
		L668.845,239.922z"/>
	<path id="path26" fill="#036998" d="M749.597,211.396c0,3.447-2.822,6.377-6.279,6.377l-82.832,28.574
		c-3.467,0-6.26-2.93-6.26-6.426l22.666-200.269c0-3.433,2.773-6.323,6.25-6.323h60.537c3.506,0,6.318,2.891,6.318,6.323
		L749.597,211.396"/>
	<path id="path28" fill="none" stroke="#FFFFFF" stroke-width="3.9999" d="M749.597,211.396c0,3.447-2.822,6.377-6.279,6.377
		l-82.832,28.574c-3.467,0-6.26-2.93-6.26-6.426l22.666-200.269c0-3.433,2.773-6.323,6.25-6.323h60.537
		c3.506,0,6.318,2.891,6.318,6.323L749.597,211.396z"/>
	<path id="path30" fill="#036998" d="M611.091,274.189H405.359l57.9-75.313h194.707L611.091,274.189"/>
	<path id="path32" fill="none" stroke="#FFFFFF" stroke-width="3.9999" d="M611.091,274.189H405.359l57.9-75.313h194.707
		L611.091,274.189z"/>
	<path id="path34" fill="#036998" d="M611.091,298.525H405.359l2.217-23.408h203.516V298.525"/>
	<path id="path36" fill="none" stroke="#FFFFFF" stroke-width="3.9999" d="M611.091,298.525H405.359l2.217-23.408h203.516V298.525z"
		/>
	<path id="path38" fill="#036998" d="M659.187,199.102v47.988L609.685,300v-27.559L659.187,199.102"/>
	<path id="path40" fill="none" stroke="#FFFFFF" stroke-width="3.9999" d="M659.187,199.102v47.988L609.685,300v-27.559
		L659.187,199.102z"/>
	<path id="path42" fill="#036998" d="M269.011,36.475l-30.688,209.15"/>
	<path id="path44" fill="none" stroke="#FFFFFF" stroke-width="3.9999" d="M269.011,36.475l-30.688,209.15"/>
	<path id="path46" fill="#036998" d="M482.429,35.039l-21.23,165.918"/>
	<path id="path48" fill="none" stroke="#FFFFFF" stroke-width="3.9999" d="M482.429,35.039l-21.23,165.918"/>
	<path id="path50" fill="#036998" d="M659.763,108.975c0,13.452-10.898,24.355-24.414,24.355c-13.369,0-24.258-10.903-24.258-24.355
		c0-13.447,10.889-24.365,24.258-24.365C648.865,84.609,659.763,95.527,659.763,108.975"/>
	<path id="path52" fill="none" stroke="#FFFFFF" stroke-width="3.9999" d="M659.763,108.975c0,13.452-10.898,24.355-24.414,24.355
		c-13.369,0-24.258-10.903-24.258-24.355c0-13.447,10.889-24.365,24.258-24.365C648.865,84.609,659.763,95.527,659.763,108.975z"/>
	<path id="path54" fill="#036998" d="M194.148,79.717c0,13.447-10.903,24.351-24.375,24.351c-13.506,0-24.399-10.903-24.399-24.351
		c0-13.452,10.894-24.409,24.399-24.409C183.245,55.308,194.148,66.265,194.148,79.717"/>
	<path id="path56" fill="none" stroke="#FFFFFF" stroke-width="3.9999" d="M194.148,79.717c0,13.447-10.903,24.351-24.375,24.351
		c-13.506,0-24.399-10.903-24.399-24.351c0-13.452,10.894-24.409,24.399-24.409C183.245,55.308,194.148,66.265,194.148,79.717z"/>
	<path id="path58" fill="#036998" d="M518.171,238.291c-5.557,11.289-22.744,19.756-38.545,18.809
		c-15.664-0.957-23.838-10.742-18.281-21.943c5.547-11.309,22.92-19.58,38.516-18.809
		C515.671,217.295,523.904,227.217,518.171,238.291"/>
	<path id="path60" fill="none" stroke="#FFFFFF" stroke-width="3.9999" d="M518.171,238.291
		c-5.557,11.289-22.744,19.756-38.545,18.809c-15.664-0.957-23.838-10.742-18.281-21.943c5.547-11.309,22.92-19.58,38.516-18.809
		C515.671,217.295,523.904,227.217,518.171,238.291z"/>
	<path id="path62" fill="#036998" d="M347.356,164.287c-3.501,21.982-21.392,27.07-42.476,27.1
		c-21.152,0.029-37.427-4.746-33.945-26.768l10.42-64.78c3.481-22.017,21.372-27.031,42.544-27.168
		c21.064-0.142,37.368,4.746,33.857,26.758L347.356,164.287"/>
	<path id="path64" fill="none" stroke="#FFFFFF" stroke-width="3.9999" d="M347.356,164.287c-3.501,21.982-21.392,27.07-42.476,27.1
		c-21.152,0.029-37.427-4.746-33.945-26.768l10.42-64.78c3.481-22.017,21.372-27.031,42.544-27.168
		c21.064-0.142,37.368,4.746,33.857,26.758L347.356,164.287z"/>
	<path id="path66" fill="#036998" d="M432.673,164.287c-3.486,21.982-21.426,27.07-42.549,27.1
		c-21.064,0.029-37.339-4.746-33.857-26.768l10.42-64.78c3.481-22.017,21.377-27.031,42.441-27.168
		c21.152-0.142,37.451,4.746,33.965,26.758L432.673,164.287"/>
	<path id="path68" fill="none" stroke="#FFFFFF" stroke-width="3.9999" d="M432.673,164.287c-3.486,21.982-21.426,27.07-42.549,27.1
		c-21.064,0.029-37.339-4.746-33.857-26.768l10.42-64.78c3.481-22.017,21.377-27.031,42.441-27.168
		c21.152-0.142,37.451,4.746,33.965,26.758L432.673,164.287z"/>
	<path id="path70" fill="#036998" d="M582.585,160.371c-4.395,18.613-26.338,22.969-52.041,22.969
		c-25.889,0.127-45.928-3.936-41.621-22.715l8.594-55.044c4.326-18.735,26.211-22.969,52.1-23.091
		c25.693-0.078,45.713,4.043,41.406,22.764L582.585,160.371"/>
	<path id="path72" fill="none" stroke="#FFFFFF" stroke-width="3.9999" d="M582.585,160.371
		c-4.395,18.613-26.338,22.969-52.041,22.969c-25.889,0.127-45.928-3.936-41.621-22.715l8.594-55.044
		c4.326-18.735,26.211-22.969,52.1-23.091c25.693-0.078,45.713,4.043,41.406,22.764L582.585,160.371z"/>
	<path id="path74" fill="#036998" d="M227.839,143.135H107.546l3.276-19.541h120.239L227.839,143.135"/>
	<path id="path76" fill="none" stroke="#FFFFFF" stroke-width="3.9999" d="M227.839,143.135H107.546l3.276-19.541h120.239
		L227.839,143.135z"/>
	<path id="path78" fill="#036998" d="M221.34,172.344H101.042l3.247-19.492h120.298L221.34,172.344"/>
	<path id="path80" fill="none" stroke="#FFFFFF" stroke-width="3.9999" d="M221.34,172.344H101.042l3.247-19.492h120.298
		L221.34,172.344z"/>
	<path id="path82" fill="#036998" d="M214.817,201.65H94.568l3.223-19.531h120.308L214.817,201.65"/>
	<path id="path84" fill="none" stroke="#FFFFFF" stroke-width="3.9999" d="M214.817,201.65H94.568l3.223-19.531h120.308
		L214.817,201.65z"/>
	<path id="path86" fill="#036998" d="M208.308,230.967H88.069l3.252-19.58H211.55L208.308,230.967"/>
	<path id="path88" fill="none" stroke="#FFFFFF" stroke-width="3.9999" d="M208.308,230.967H88.069l3.252-19.58H211.55
		L208.308,230.967z"/>
	<path id="path90" fill="#036998" d="M598.406,256.924h-64.961l22.773-32.559h64.961L598.406,256.924"/>
	<path id="path92" fill="none" stroke="#FFFFFF" stroke-width="3.9999" d="M598.406,256.924h-64.961l22.773-32.559h64.961
		L598.406,256.924z"/>
	<path id="path94" fill="#036998" d="M178.679,68.315C227.454,0,321.726,16.279,321.726,16.279"/>
	<path id="path96" fill="none" stroke="#FFFFFF" stroke-width="3.9999" d="M178.679,68.315C227.454,0,321.726,16.279,321.726,16.279
		"/>
	<path id="path98" fill="#036998" d="M344.431,13.042c0,7.144-10.176,12.964-22.705,12.964c-12.578,0-22.715-5.82-22.715-12.964
		C299.011,5.854,309.148,0,321.726,0C334.255,0,344.431,5.854,344.431,13.042"/>
	<path id="path100" fill="none" stroke="#FFFFFF" stroke-width="3.9999" d="M344.431,13.042c0,7.144-10.176,12.964-22.705,12.964
		c-12.578,0-22.715-5.82-22.715-12.964C299.011,5.854,309.148,0,321.726,0C334.255,0,344.431,5.854,344.431,13.042z"/>
	<path id="path102" fill="none" stroke="#036998" stroke-width="8" d="M135.457,113.887L109.46,240.635"/>
	<path id="path104" fill="none" stroke="#036998" stroke-width="8" d="M211.775,113.887l-25.996,126.748"/>
	<path id="path106" fill="none" stroke="#036998" stroke-width="8" d="M172.214,113.887l-26.021,126.748"/>
	<path id="path108" fill="#036998" d="M6.14,169.795l7.471-44.565"/>
	<path id="path110" fill="none" stroke="#FFFFFF" stroke-width="3.9999" d="M6.14,169.795l7.471-44.565"/>
	<path id="path112" fill="#036998" d="M67.249,106.05c-5.127,15.688-11.919,34.019-13.745,51.655l5.571,11.523l-7.173,51.895
		l-17.324-33.438C29.412,162.09,55.417,61.538,66.086,49.521l17.31,33.535l-10.967,33.701L67.249,106.05"/>
	<path id="path114" fill="none" stroke="#FFFFFF" stroke-width="3.9999" d="M67.249,106.05
		c-5.127,15.688-11.919,34.019-13.745,51.655l5.571,11.523l-7.173,51.895l-17.324-33.438C29.412,162.09,55.417,61.538,66.086,49.521
		l17.31,33.535l-10.967,33.701L67.249,106.05z"/>
	<path id="path116" fill="#036998" d="M0.662,188.066l10.723,33.555l40.518-0.498l-17.324-33.438L0.662,188.066"/>
	<path id="path118" fill="none" stroke="#FFFFFF" stroke-width="3.9999" d="M0.662,188.066l10.723,33.555l40.518-0.498
		l-17.324-33.438L0.662,188.066z"/>
	<path id="path120" fill="#036998" d="M66.086,49.521C55.417,61.538,29.412,162.09,34.578,187.686l-33.916,0.381
		C-4.485,162.686,21.506,61.963,32.146,50.005L66.086,49.521"/>
	<path id="path122" fill="none" stroke="#FFFFFF" stroke-width="3.9999" d="M66.086,49.521
		C55.417,61.538,29.412,162.09,34.578,187.686l-33.916,0.381C-4.485,162.686,21.506,61.963,32.146,50.005L66.086,49.521z"/>
</g>
</svg>
