<?xml version="1.0" encoding="utf-8"?>
<!-- Generator: Adobe Illustrator 16.0.0, SVG Export Plug-In . SVG Version: 6.00 Build 0)  -->
<!DOCTYPE svg PUBLIC "-//W3C//DTD SVG 1.1//EN" "http://www.w3.org/Graphics/SVG/1.1/DTD/svg11.dtd">
<svg version="1.1"
	 id="svg2" xmlns:dc="http://purl.org/dc/elements/1.1/" xmlns:cc="http://creativecommons.org/ns#" xmlns:rdf="http://www.w3.org/1999/02/22-rdf-syntax-ns#" xmlns:svg="http://www.w3.org/2000/svg"
	 xmlns="http://www.w3.org/2000/svg" xmlns:xlink="http://www.w3.org/1999/xlink" x="0px" y="0px" width="75px" height="74px"
	 viewBox="0 0 75 74" enable-background="new 0 0 75 74" xml:space="preserve">
<g id="g12" transform="scale(0.1,0.1)">
	<path id="path22" fill="#036998" d="M750,508.669L672.451,619.45H0l110.981-110.781H750"/>
	<path id="path24" fill="none" stroke="#FFFFFF" stroke-width="3.9999" d="M750,508.669L672.451,619.45H0l110.981-110.781H750z"/>
	<path id="path26" fill="#036998" d="M0,739.88h642.197V619.45H0V739.88z"/>
	<path id="path28" fill="none" stroke="#FFFFFF" stroke-width="3.9999" d="M0,739.88h642.197V619.45H0V739.88z"/>
	<path id="path30" fill="#036998" d="M0,592.986h637.852V109.363H0V592.986z"/>
	<path id="path32" fill="none" stroke="#FFFFFF" stroke-width="3.9999" d="M0,592.986h637.852V109.363H0V592.986z"/>
	<path id="path34" fill="#036998" d="M637.852,592.986l109.131-109.805V-0.002L637.852,109.363V592.986"/>
	<path id="path36" fill="none" stroke="#FFFFFF" stroke-width="3.9999" d="M637.852,592.986l109.131-109.805V-0.002L637.852,109.363
		V592.986z"/>
	<path id="path38" fill="#036998" d="M641.563,739.997V619.45L750,511.072v120.273L641.563,739.997"/>
	<path id="path40" fill="none" stroke="#FFFFFF" stroke-width="3.9999" d="M641.563,739.997V619.45L750,511.072v120.273
		L641.563,739.997z"/>
	<path id="path42" fill="#FFFFFF" d="M103.994,164.919h427.695c27.842,0,50.469,22.676,50.469,50.586v270.586
		c0,27.881-22.627,50.566-50.469,50.566H103.994c-27.847,0-50.479-22.686-50.479-50.566V215.505
		C53.516,187.595,76.147,164.919,103.994,164.919"/>
	<path id="path44" fill="none" stroke="#FFFFFF" stroke-width="3.9999" d="M103.994,164.919h427.695
		c27.842,0,50.469,22.676,50.469,50.586v270.586c0,27.881-22.627,50.566-50.469,50.566H103.994
		c-27.847,0-50.479-22.686-50.479-50.566V215.505C53.516,187.595,76.147,164.919,103.994,164.919z"/>
	<path id="path46" fill="#036998" d="M746.982-0.002H124.478L0,109.363h637.852L746.982-0.002"/>
	<path id="path48" fill="none" stroke="#FFFFFF" stroke-width="3.9999" d="M746.982-0.002H124.478L0,109.363h637.852L746.982-0.002z
		"/>
	<path id="path50" fill="#036998" d="M111.343,681.159c0,20.713-16.875,37.637-37.769,37.637c-20.889,0-37.749-16.924-37.749-37.637
		c0-21.143,16.86-38.076,37.749-38.076C94.468,643.083,111.343,660.017,111.343,681.159"/>
	<path id="path52" fill="none" stroke="#FFFFFF" stroke-width="3.9999" d="M111.343,681.159c0,20.713-16.875,37.637-37.769,37.637
		c-20.889,0-37.749-16.924-37.749-37.637c0-21.143,16.86-38.076,37.749-38.076C94.468,643.083,111.343,660.017,111.343,681.159z"/>
	<path id="path54" fill="#036998" d="M612.178,681.159c0,20.713-17.324,37.637-37.979,37.637c-21.094,0-37.988-16.924-37.988-37.637
		c0-21.143,16.895-38.076,37.988-38.076C594.854,643.083,612.178,660.017,612.178,681.159"/>
	<path id="path56" fill="none" stroke="#FFFFFF" stroke-width="3.9999" d="M612.178,681.159c0,20.713-17.324,37.637-37.979,37.637
		c-21.094,0-37.988-16.924-37.988-37.637c0-21.143,16.895-38.076,37.988-38.076C594.854,643.083,612.178,660.017,612.178,681.159z"
		/>
	<path id="path58" fill="#036998" d="M254.189,690.808c0,10.918-8.77,19.707-19.463,19.707c-10.684,0-19.453-8.789-19.453-19.707
		c0-10.938,8.77-19.287,19.453-19.287C245.42,671.521,254.189,679.87,254.189,690.808"/>
	<path id="path60" fill="none" stroke="#FFFFFF" stroke-width="3.9999" d="M254.189,690.808c0,10.918-8.77,19.707-19.463,19.707
		c-10.684,0-19.453-8.789-19.453-19.707c0-10.938,8.77-19.287,19.453-19.287C245.42,671.521,254.189,679.87,254.189,690.808z"/>
	<path id="path62" fill="#036998" d="M332.461,690.808c0,10.918-8.77,19.707-19.688,19.707c-10.684,0-19.434-8.789-19.434-19.707
		c0-10.938,8.75-19.287,19.434-19.287C323.691,671.521,332.461,679.87,332.461,690.808"/>
	<path id="path64" fill="none" stroke="#FFFFFF" stroke-width="3.9999" d="M332.461,690.808c0,10.918-8.77,19.707-19.688,19.707
		c-10.684,0-19.434-8.789-19.434-19.707c0-10.938,8.75-19.287,19.434-19.287C323.691,671.521,332.461,679.87,332.461,690.808z"/>
	<path id="path66" fill="#036998" d="M410.742,690.808c0,10.918-9.219,19.707-19.688,19.707c-10.898,0-19.668-8.789-19.668-19.707
		c0-10.938,8.77-19.287,19.668-19.287C401.523,671.521,410.742,679.87,410.742,690.808"/>
	<path id="path68" fill="none" stroke="#FFFFFF" stroke-width="3.9999" d="M410.742,690.808c0,10.918-9.219,19.707-19.688,19.707
		c-10.898,0-19.668-8.789-19.668-19.707c0-10.938,8.77-19.287,19.668-19.287C401.523,671.521,410.742,679.87,410.742,690.808z"/>
	<path id="path70" fill="#FBFBFB" d="M193.311,227.595l56.865-50.615l42.402,19.502l-4.805,45.791l14.648,32.646l-16.396,44.052
		l-1.143,9.912c-3.281,11.406-14.658,6.563-14.658,6.563l-20.049,77.969l-53.594-69.912l-6.543-31.104l-22.983-65.312"/>
	<path id="path72" fill="#036998" d="M218.242,214.792c2.578,3.291,3.682,7.695,4.043,10.664c1.455,14.18-3.662,28.281-8.73,41.445
		c-1.191,3.33-1.113,12.402-5.137,9.814c-4.492-3.203-8.457-10.156-13.291-11.719c-6.191-2.188-12.744,4.063-18.936,7.461
		c11.338,15.322,25.225,31.035,19.316,50.869c-14.297-21.299-29.595-42.48-40.254-65.576c-5.85-12.51-3.608-30.85,4.038-41.172
		c11.704-16.094,29.341-29.678,48.794-34.521c26.338-6.875,52.656-12.148,79.756-12.48c-24.521,12.158-47.607,23.936-71.104,40.459
		C215.371,211.052,217.09,213.318,218.242,214.792"/>
	<path id="path74" fill="#036998" d="M310.625,216.882c-6.006,11.865-11.855,23.584-19.199,34.639
		c0.41-1.572-0.596-2.969-1.816-3.076c-3.584-0.684-8.027,0.83-9.844-0.996c-1.797-1.797-1.797-7.334,0-9.238
		c1.914-2.207,8.438,1.133,8.789,0.449c12.051-19.16-10.176-34.893-18.232-51.758c17.881-0.361,32.119,11.396,48.975,13.955
		C315.713,205.916,313.486,211.423,310.625,216.882"/>
	<path id="path76" fill="#036998" d="M244.248,250.007c-2.92-0.42-7.627,0.361-7.725-0.4c-5.088-16.924,18.047-9.102,28.633-13.633
		C262.598,247.039,256.035,252.234,244.248,250.007"/>
	<path id="path78" fill="#036998" d="M276.816,284.07c-4.033,0-8.066,0-12.344,0c4.98-4.297,9.893-7.979,15.723-10.557
		c-0.459,3.662,0.615,7.227,1.797,10.557C280.195,284.07,278.613,284.07,276.816,284.07"/>
	<path id="path80" fill="#036998" d="M273.242,305.027c-8.105,0-16.191,0-24.258,0c2.93-2.881,7.402-3.955,10.371-4.336
		c7.93-0.781,18.184-6.309,24.424,4.336C280.195,305.027,276.816,305.027,273.242,305.027"/>
	<path id="path82" fill="#036998" d="M271.367,312.38c5.859,2.539-2.52,2.559-1.504,4.795c-4.678,1.074-6.133-3.262-8.77-5.195
		C264.473,311.98,268.408,310.993,271.367,312.38"/>
	<path id="path84" fill="#036998" d="M395.518,482.273c0.029-11.133,2.842-22.861,5.693-35.127
		c2.266-10.225,6.66-21.992,3.105-28.594c-4.521-8.945-16.875-16.865-27.871-20.791c-31.074-12.275-61.523-23.291-91.592-36.973
		l-4.756,1.816l5.156,76.982l-26.055,83.77"/>
	<path id="path86" fill="#036998" d="M259.199,526.472l-55.918-78.564l-26.113-82.686c-5.059,3.301-10.229,6.23-15.645,8.74
		c-38.037,17.344-69.189,22.568-104.766,45.225c0.308,73.486,31.904,45.371,27.817,118.291"/>
	<path id="path88" fill="#9AC3D6" d="M253.047,534.343l32.207-94.756l-5.156-76.982l-10.566-10.566l-17.52,32.52l-56.504-45.684
		c0,11.367-18.623,22.627-18.623,22.627l26.396,83.262l55.918,78.594"/>
	<path id="path90" fill="#036998" d="M233.945,522.556l12.109-116.465l-6.953-8.789l6.953-11.133l6.963,4.346l4.404-5.156
		l6.953,9.561l-8.77,12.383l13.164,101.572"/>
	<path id="path92" fill="#036998" d="M338.701,408.132c-5.498-5.879-15.732-5.928-15.693-15.957
		c5.918,0.439,12.109,0.615,17.275-3.184c-10.254-3.711-15.391-13.164-16.26-22.979c-0.254-1.162,2.246-6.279,4.092-5.986
		c4.111,0.381,4.404,7.422,8.818,9.58c1.504,0.732,2.949-0.342,3.281-1.777c1.406-5.479-0.674-10.361-1.514-15.732
		c5.596,1.826,16.162,4.023,16.133-1.582c-0.049-8.73-12.09-18.262-4.736-25.244c2.188-1.934,10.596,8.77,11.367,2.207
		c0.703-6.23-8.398-13.574-7.734-20.596c0.41-5.088,9.98-6.25,11.816-11.006c3.223-7.783-3.301-17.988-1.094-25.342
		c6.807-21.943,19.463-41.123,30.176-61.631c26.563-0.781,36.748-27.109,79.951-4.072c0.898,0.469-4.365-0.352-3.037,2.236
		c0.254,1.436,1.699,3.232,3.096,3.271c7.236,0.674,15.381-0.723,18.35,5.898c2.207,4.795-5.088,10.664-3.584,15.049
		c2.646,6.611,15.342,3.633,16.777,9.502c2.842,11.113-10.303,22.344-8.721,32.363c1.26,5.791,13.896,8.33,18.066,15.019
		c4.463,7.734-1.387,19.082,6.055,27.217c2.939-3.408,6.592-6.006,10.771-8.555c0.859,6.699,3.73,12.959,6.748,19.131
		c4.414-5.908,9.609-11.309,13.926-17.549c4.297,3.613,2.246,10.146,0.791,11.367c-7.363,7.236-14.6,16.514-24.951,19.404
		c-1.436,0.381-2.197,1.406-2.861,2.549l-11.943-6.982c-1.475,2.979,8.73,7.402,4.355,8.77l1.572,6.973
		c6.484,6.699,13.877,2.197,20.684,0c3.652,12.158-12.539,13.672-14.102,22.852c-0.771,4.746,7.979,3.33,12.529,1.475
		c-1.514,8.535-8.896,12.93-13.916,19.355"/>
	<path id="path94" fill="#036998" d="M261.406,535.915c7.773-38.184,3.32-62.51,7.441-99.844
		c21.885-13.271,45.664-21.953,69.854-29.502l107.275-23.945l79.209,10c16.66,5.332,34.287,4.609,50.527,10.352
		c14.531,38.818-25.674,83.066-11.162,122.48l-10.977,9.688"/>
	<path id="path96" fill="#FFFFFF" d="M481.826,433.933c-1.318-0.166-2.051-1.67-3.604-1.475c0-2.266-0.771-5.254,0.166-6.582
		c1.338-0.947,4.326-0.176,6.582-0.176c-0.205,1.553,0.635,2.383,2.021,3.154c3.75-11.943,0.146-24.355-1.406-36.182
		c-0.693-4.922-10.391-4.404-13.252-8.047c-5.674-7.207-8.672-32.549-1.377-31.914c18.447,1.436,19.688-35.117,24.922-55.391
		c2.207-8.379-2.148-11.308-5.762-20.215c-2.285,1.113-0.879,4.375-1.67,4.775c-4.199,1.895-10.127,4.443-13.154,1.523
		c-1.563-1.543-1.563-7.666,0-9.209c3.027-2.842,16.807-5.039,16.738-4.434c3.086-9.551-2.148-17.236-8.652-25.957
		c-3.037,5.049-6.494,6.182-12.354,5.381c3.711-3.242,3.613-13.545-0.811-10.957c-7.363,4.395-6.523,17.93-18.281,17.93
		c0.557-5.098,0.557-10.166-3.584-14.17c-3.711,5.752-8.057,11.748-13.447,11.23c-4.141-0.615-2.773-11.719-8.047-6.602
		c-6.504,5.635,4.541,13.691,2.275,21.689c-4.951,15.498-4.463,30.849-13.193,45.605c-1.416,2.441-1.338,5.889-0.029,8.389
		c1.582,3.965,5.244,6.563,9.756,5.479c-0.098,6.67-7.412,2.93-9.805,7.051c-1.191,1.377-1.191,3.613,0,5.029
		c3.057,5.566,9.531,5.928,15.391,5.244c-1.924,10.615-13.74,12.109-21.104,6.992c-1.572,10.898,3.76,20.137,13.936,22.725
		c-4.521,6.787-12.324,1.123-16.807,4.648c-5.869,4.375,1.494,12.705-0.713,19.883c-0.918-2.314-3.877-2.227-4.57-1.436
		c-5.156,7.432,1.436,17.607,2.998,25.781c0.889-2.334,3.555-1.738,5.137-1.494c3.008,1.289,1.445,4.385,1.611,6.65
		c-1.592,0-3.662-0.186-5.146,0.537c-4.629,2.227,2.021,5.342-0.029,8.262c16.738,9.512,35.664,15.234,54.072,12.959
		c4.59-0.703,11.045-3.613,15.576-7.354c-4.414-3.506-13.291-0.596-9.805-8.75c1.035-3.662,5.928-2.246,8.105-1.396
		c2.412,1.396-0.566,5.215,0.166,8.096c0.596,1.455,2.051,2.813,3.486,1.543c4.473-3.066,9.668-5.322,11.758-10.371
		c0.127-0.664-2.051-2.91-2.959-2.92C484.248,429.411,485.586,435.407,481.826,433.933"/>
	<path id="path98" fill="#036998" d="M460.654,283.425c-0.742,1.455-2.256,3.281-3.506,3.232
		c-7.422-1.084-14.902-0.635-19.121-8.379c9.434-2.9,18.994-6.924,27.168-0.811C467.393,278.992,462.08,280.789,460.654,283.425"/>
	<path id="path100" fill="#036998" d="M484.15,308.054c-2.109,5.479-8.77,0.732-13.906,2.148c3.486-5.459,5.801-7.686,12.344-8.76
		C482.617,304.626,484.795,306.57,484.15,308.054"/>
	<path id="path102" d="M477.578,325.241c-5.83,0.713-11.66,2.236-17.549,0.4c9.316-5.527,19.697-2.91,29.258-5.234
		c-0.898,0.84-2.1,1.914-1.416,3.662C484.736,324.45,481.191,324.861,477.578,325.241"/>
	<path id="path104" d="M460.605,446.257c-3.633,2.246-10.186-1.396-8.115-6.553c0.82-2.314,3.164-5.02,6.162-3.584
		C462.822,438.142,464.434,443.454,460.605,446.257"/>
	<path id="path106" d="M445.186,444.841c-2.666,0.84-2.939-2.871-5.586-1.582c0.576-2.715-1.455-5.869,2.031-7.07
		c2.197-0.244,5.303-1.553,6.641,1.484C449.561,440.603,448.174,443.376,445.186,444.841"/>
	<path id="path108" d="M431.25,441.189c-2.08,0.117-4.873,0.83-5.068-1.553c-0.566-2.246-1.533-5.811,1.533-6.631
		c4.502-1.426,8.75,2.246,6.602,6.582C433.691,440.407,432.217,441.101,431.25,441.189"/>
	<path id="path110" d="M420.43,433.933c-1.494,0.723-4.277,1.289-5.068-1.484c-1.553-4.59,4.326-6.68,6.543-4.541
		C423.32,428.825,422.676,433.005,420.43,433.933"/>
	<path id="path112" fill="#036998" d="M476.787,332.605c-3.584,0.273-6.445-0.82-9.346-2.598c6.289-0.713,11.67-1.445,17.5-2.168
		C483.34,331.12,480.508,332.507,476.787,332.605"/>
	<path id="path114" fill="#036998" d="M91.899,536.697h461.675v-25.684H91.899V536.697z"/>
</g>
</svg>
