<?xml version="1.0" encoding="utf-8"?>
<!-- Generator: Adobe Illustrator 16.0.0, SVG Export Plug-In . SVG Version: 6.00 Build 0)  -->
<!DOCTYPE svg PUBLIC "-//W3C//DTD SVG 1.1//EN" "http://www.w3.org/Graphics/SVG/1.1/DTD/svg11.dtd">
<svg version="1.1"
	 id="svg2" xmlns:dc="http://purl.org/dc/elements/1.1/" xmlns:cc="http://creativecommons.org/ns#" xmlns:rdf="http://www.w3.org/1999/02/22-rdf-syntax-ns#" xmlns:svg="http://www.w3.org/2000/svg"
	 xmlns="http://www.w3.org/2000/svg" xmlns:xlink="http://www.w3.org/1999/xlink" x="0px" y="0px" width="76px" height="37px"
	 viewBox="0 0 76 37" enable-background="new 0 0 76 37" xml:space="preserve">
<g id="g12" transform="scale(0.1,0.1)">
	<path id="path22" fill="#026C9B" d="M0,185.403l229.702-185.4H760l-190.078,185.4H0"/>
	<path id="path24" fill="none" stroke="#FFFFFF" stroke-width="4" d="M0,185.403l229.702-185.4H760l-190.078,185.4H0z"/>
	<path id="path26" fill="#026C9B" d="M569.922,369.729L760,164.866V0.32L569.922,185.403V369.729"/>
	<path id="path28" fill="none" stroke="#FFFFFF" stroke-width="4" d="M569.922,369.729L760,164.866V0.32L569.922,185.403V369.729z"
		/>
	<path id="path30" fill="#026C9B" d="M0.781,370.002h569.141V185.403H0.781V370.002z"/>
	<path id="path32" fill="none" stroke="#FFFFFF" stroke-width="4" d="M0.781,370.002h569.141V185.403H0.781V370.002z"/>
	<path id="path34" fill="#FFFFFF" d="M339.102,260.676l-0.059-42.266l-98.921,55.967l98.921,55.83l0.059-42.363V260.676"/>
	<path id="path36" fill="none" stroke="#FFFFFF" stroke-width="3.983" d="M339.102,260.676l-0.059-42.266l-98.921,55.967
		l98.921,55.83l0.059-42.363V260.676z"/>
	<path id="path38" fill="#FFFFFF" d="M317.959,78.279l31.27-29.624L211.016,94.622l55.376,32.261l31.494-29.653"/>
	<path id="path40" fill="#FFFFFF" d="M471.26,97.161l-194.771,0.049l20.078-18.96l194.761-0.049l31.387-29.624l55.449,39.072
		l-138.232,39.155L471.26,97.161"/>
</g>
</svg>
