<?xml version="1.0" encoding="utf-8"?>
<!-- Generator: Adobe Illustrator 16.0.0, SVG Export Plug-In . SVG Version: 6.00 Build 0)  -->
<!DOCTYPE svg PUBLIC "-//W3C//DTD SVG 1.1//EN" "http://www.w3.org/Graphics/SVG/1.1/DTD/svg11.dtd">
<svg version="1.1"
	 id="svg2" xmlns:dc="http://purl.org/dc/elements/1.1/" xmlns:cc="http://creativecommons.org/ns#" xmlns:rdf="http://www.w3.org/1999/02/22-rdf-syntax-ns#" xmlns:svg="http://www.w3.org/2000/svg"
	 xmlns="http://www.w3.org/2000/svg" xmlns:xlink="http://www.w3.org/1999/xlink" x="0px" y="0px" width="76px" height="37px"
	 viewBox="0 0 76 37" enable-background="new 0 0 76 37" xml:space="preserve">
<g id="g12" transform="scale(0.1,0.1)">
	<path id="path14" fill="#087BBB" d="M0,185.527L229.785,0H760L569.932,185.527H0"/>
	<path id="path16" fill="none" stroke="#FFFFFF" stroke-width="4" d="M0,185.527L229.785,0H760L569.932,185.527H0L0,185.527z"/>
	<path id="path18" fill="#087BBB" d="M569.932,369.717L760,164.912V0.4L569.932,185.527V369.717"/>
	<path id="path20" fill="none" stroke="#FFFFFF" stroke-width="4" d="M569.932,369.717L760,164.912V0.4L569.932,185.527V369.717z"/>
	<path id="path22" fill="#087BBB" d="M0.771,370h569.15V185.527H0.771V370L0.771,370z"/>
	<path id="path24" fill="none" stroke="#FFFFFF" stroke-width="4" d="M0.771,370h569.15V185.527H0.771V370L0.771,370z"/>
	<path id="path26" d="M285.273,370V185.527"/>
	<path id="path28" fill="none" stroke="#FFFFFF" stroke-width="10" d="M285.273,370V185.527"/>
	<path id="path30" fill="#FFFFFF" d="M392.49,333.857l98.848-55.977L392.49,222.07V333.857"/>
	<path id="path32" fill="none" stroke="#FFFFFF" stroke-width="3.983" d="M392.49,333.857l98.848-55.977L392.49,222.07V333.857
		L392.49,333.857z"/>
	<path id="path34" fill="#FFFFFF" d="M220.264,97.363l0.039-0.029l250.947-0.059l-31.309,29.639l138.223-39.131l-55.439-39.131
		l-31.387,29.619L240.391,78.32L220.264,97.363"/>
	<path id="path36" fill="#FFFFFF" d="M165.254,241.221H43.535v-15.43h121.719v-23.984l70.518,31.611l-70.518,31.758V241.221"/>
	<path id="path38" fill="#FFFFFF" d="M165.254,327.412H43.535v-15.244h121.719v-24.15l70.518,31.768l-70.518,31.758V327.412"/>
</g>
</svg>
