<?xml version="1.0" encoding="utf-8"?>
<!-- Generator: Adobe Illustrator 16.0.0, SVG Export Plug-In . SVG Version: 6.00 Build 0)  -->
<!DOCTYPE svg PUBLIC "-//W3C//DTD SVG 1.1//EN" "http://www.w3.org/Graphics/SVG/1.1/DTD/svg11.dtd">
<svg version="1.1"
	 id="图层_1" xmlns:dc="http://purl.org/dc/elements/1.1/" xmlns:cc="http://creativecommons.org/ns#" xmlns:rdf="http://www.w3.org/1999/02/22-rdf-syntax-ns#"
	 xmlns="http://www.w3.org/2000/svg" xmlns:xlink="http://www.w3.org/1999/xlink" x="0px" y="0px" width="75px" height="66px"
	 viewBox="0 0 75 66" enable-background="new 0 0 75 66" xml:space="preserve">
<path fill="#00BCF2" d="M32.864,65.873c-10.732-0.597-21.103-3.664-26.862-7.942c-1.128-0.841-2.269-2.035-2.141-2.246
	c0.119-0.19,67.179-0.169,67.299,0.021c0.149,0.246-1.685,1.967-3.039,2.852C59.954,63.895,46.713,66.641,32.864,65.873
	L32.864,65.873z M0.017,53.481c-0.252-0.409,2.359-3.812,4.104-5.349c2.547-2.242,5.904-4.392,8.963-5.735l1.723-0.755l0.054-11.169
	c0.051-10.651,0.067-11.225,0.358-12.492c0.638-2.789,1.726-5.406,3.127-7.529c5.391-8.17,15.258-12.11,24.529-9.797
	c7.511,1.873,13.692,7.468,16.131,14.593c1.113,3.26,1.076,2.795,1.138,15.222l0.056,11.163l1.634,0.714
	c5.555,2.434,10.684,6.542,12.848,10.287c0.221,0.387,0.358,0.768,0.309,0.852c-0.136,0.216-74.839,0.212-74.972,0V53.481z
	 M24.457,40.246l6.024-0.055l-1.115-0.572c-2.992-1.533-5.258-3.69-6.517-6.206c-0.437-0.869-0.956-2.288-0.956-2.61
	c0-0.285,0.543-0.787,0.848-0.787c0.143,0,0.776,0.431,1.408,0.96c2.161,1.809,4.664,3.294,6.424,3.818
	c0.728,0.218,1.628,0.322,1.628,0.188c0-0.028-0.672-1.274-1.495-2.769c-2.204-3.998-4.051-7.862-4.38-9.148
	c-1.064-4.172-0.011-8.032,2.998-10.986c2.107-2.07,4.273-2.999,7.315-3.131c1.711-0.075,1.967-0.05,3.226,0.312
	c3.257,0.936,5.67,2.924,7.163,5.9c1.32,2.63,1.474,6.069,0.397,8.942c-0.554,1.473-4.016,7.625-6.001,10.662l-0.259,0.394
	l0.636-0.073c0.852-0.097,2.357-0.57,3.271-1.037c1.18-0.595,3.452-2.154,4.569-3.135c0.561-0.492,1.14-0.895,1.287-0.895
	c0.313,0,0.858,0.499,0.858,0.785c0,0.376-0.737,2.362-1.126,3.034c-1.378,2.38-4.032,4.755-6.701,5.994l-0.781,0.364l6.696,0.053
	c3.685,0.025,6.881,0.103,7.104,0.168l0.403,0.12V30.513c0-11.001-0.03-11.461-0.887-14.089c-1.327-4.07-4.011-7.62-7.632-10.087
	c-3.516-2.398-7.105-3.504-11.363-3.504c-2.428,0-4.008,0.238-6.15,0.923c-6.028,1.934-10.917,6.753-12.846,12.668
	c-0.855,2.628-0.884,3.088-0.885,14.089v10.023l0.405-0.12c0.223-0.064,3.116-0.142,6.431-0.168L24.457,40.246z M38.828,29.54
	c1.588-0.48,3.604-1.946,5.204-3.78c0.975-1.117,1.351-1.736,1.133-1.87c-0.736-0.458-14.44-0.456-15.178,0
	c-0.317,0.195,0.703,1.66,2.211,3.172c2.485,2.494,4.313,3.177,6.629,2.476V29.54z M35.188,21.84
	c1.261-0.54,1.543-1.678,0.783-3.168c-0.467-0.919-1.578-2.091-1.979-2.091c-0.742,0-1.909,2.017-2.046,3.538
	c-0.077,0.855-0.063,0.895,0.441,1.402c0.484,0.482,0.586,0.521,1.423,0.521C34.309,22.041,34.929,21.951,35.188,21.84z
	 M42.44,21.866c0.836-0.383,1.029-1.574,0.49-3.03c-0.5-1.352-1.207-2.247-1.785-2.253c-0.406,0-1.481,1.172-1.948,2.124
	c-0.74,1.514-0.486,2.581,0.733,3.127C40.487,22.081,41.931,22.099,42.44,21.866L42.44,21.866z"/>
</svg>
