<?xml version="1.0" encoding="utf-8"?>
<!-- Generator: Adobe Illustrator 16.0.0, SVG Export Plug-In . SVG Version: 6.00 Build 0)  -->
<!DOCTYPE svg PUBLIC "-//W3C//DTD SVG 1.1//EN" "http://www.w3.org/Graphics/SVG/1.1/DTD/svg11.dtd">
<svg version="1.1"
	 id="svg2" xmlns:dc="http://purl.org/dc/elements/1.1/" xmlns:cc="http://creativecommons.org/ns#" xmlns:rdf="http://www.w3.org/1999/02/22-rdf-syntax-ns#" xmlns:svg="http://www.w3.org/2000/svg"
	 xmlns="http://www.w3.org/2000/svg" xmlns:xlink="http://www.w3.org/1999/xlink" x="0px" y="0px" width="58px" height="80px"
	 viewBox="0 0 58 80" enable-background="new 0 0 58 80" xml:space="preserve">
<g id="g12" transform="scale(0.1,0.1)">
	<path id="path22" fill="#026C9B" d="M15.002,785.005h433.984V130.801H15.002V785.005z"/>
	<path id="path24" fill="none" stroke="#FFFFFF" stroke-width="4" d="M448.987,130.801H15.002v654.204h433.984"/>
	<path id="path26" fill="#026C9B" d="M448.987,785.005l116.016-115.801V15H131.008L15.002,130.801h433.984V785.005"/>
	<path id="path28" fill="none" stroke="#FFFFFF" stroke-width="4" d="M448.987,785.005l116.016-115.801V15H131.008L15.002,130.801
		h433.984V785.005z"/>
	<path id="path30" fill="#026C9B" d="M448.987,130.801L565.002,15"/>
	<path id="path32" fill="none" stroke="#FFFFFF" stroke-width="4" d="M448.987,130.801L565.002,15"/>
	<path id="path34" fill="none" stroke="#FFFFFF" stroke-width="4" d="M20.764,314.614h425.088"/>
	<path id="path36" fill="none" stroke="#FFFFFF" stroke-width="4" d="M20.764,721.059h425.088"/>
	<path id="path38" fill="none" stroke="#FFFFFF" stroke-width="4" d="M103.489,220.308h103.242"/>
	<path id="path40" fill="none" stroke="#FFFFFF" stroke-width="4" d="M62.131,255.649h183.018v-73.662H62.131V255.649z"/>
	<path id="path42" fill="#FFFFFF" d="M261.75,534.516c0,24.863-15.088,35.488-39.082,35.488c-8.711,0-21.582-2.168-30.146-11.387
		c-5.029-5.898-7.139-13.496-7.285-23.125v-62.617h20.107v61.563c0,12.988,7.773,18.906,16.943,18.906
		c13.574,0,19.18-6.68,19.18-18.047v-62.422h20.283V534.516"/>
	<path id="path44" fill="none" stroke="#FFFFFF" stroke-width="7" d="M223.987,588.559c39.736,0,72.09-32.305,72.09-72.148
		c0-39.805-32.354-72.109-72.09-72.109c-39.893,0-72.251,32.305-72.251,72.109C151.736,556.255,184.094,588.559,223.987,588.559z"/>
	<path id="path46" fill="none" stroke="#FFFFFF" stroke-width="7" d="M223.987,444.302h125.371"/>
	<path id="path48" fill="#FFFFFF" d="M356.174,406.362v72.51l43.73-34.707L356.174,406.362"/>
	<path id="path50" fill="none" stroke="#FFFFFF" stroke-width="1.28" d="M356.174,406.362v72.51l43.73-34.707L356.174,406.362z"/>
	<path id="path52" fill="none" stroke="#FFFFFF" stroke-width="7" d="M151.785,516.704v-125.02"/>
	<path id="path54" fill="#FFFFFF" d="M114.783,385.434h72.485l-34.78-43.643L114.783,385.434"/>
	<path id="path56" fill="none" stroke="#FFFFFF" stroke-width="1.28" d="M114.783,385.434h72.485l-34.78-43.643L114.783,385.434z"/>
	<path id="path58" fill="none" stroke="#FFFFFF" stroke-width="7" d="M296.165,515.864v125.371"/>
	<path id="path60" fill="#FFFFFF" d="M333.088,646.743h-72.451l35.303,43.652L333.088,646.743"/>
	<path id="path62" fill="none" stroke="#FFFFFF" stroke-width="1.28" d="M333.088,646.743h-72.451l35.303,43.652L333.088,646.743z"
		/>
	<path id="path64" fill="none" stroke="#FFFFFF" stroke-width="7" d="M225.647,588.169H100.222"/>
	<path id="path66" fill="#FFFFFF" d="M99.744,626.391v-72.344l-43.735,34.707L99.744,626.391"/>
	<path id="path68" fill="none" stroke="#FFFFFF" stroke-width="1.28" d="M99.744,626.391v-72.344l-43.735,34.707L99.744,626.391z"/>
</g>
</svg>
