<?xml version="1.0" encoding="utf-8"?>
<!-- Generator: Adobe Illustrator 16.0.0, SVG Export Plug-In . SVG Version: 6.00 Build 0)  -->
<!DOCTYPE svg PUBLIC "-//W3C//DTD SVG 1.1//EN" "http://www.w3.org/Graphics/SVG/1.1/DTD/svg11.dtd">
<svg version="1.1"
	 id="svg2" xmlns:dc="http://purl.org/dc/elements/1.1/" xmlns:cc="http://creativecommons.org/ns#" xmlns:rdf="http://www.w3.org/1999/02/22-rdf-syntax-ns#" xmlns:svg="http://www.w3.org/2000/svg"
	 xmlns="http://www.w3.org/2000/svg" xmlns:xlink="http://www.w3.org/1999/xlink" x="0px" y="0px" width="74px" height="75px"
	 viewBox="0 0 74 75" enable-background="new 0 0 74 75" xml:space="preserve">
<g id="g12" transform="scale(0.1,0.1)">
	<path id="path22" fill="#026C9B" d="M613.079,749.924l-0.674-623.886l-612.236-0.41L0.002,750.002L613.079,749.924"/>
	<path id="path24" fill="none" stroke="#FFFFFF" stroke-width="4" d="M613.079,749.924l-0.674-623.886l-612.236-0.41L0.002,750.002
		L613.079,749.924z"/>
	<path id="path26" fill="none" stroke="#FFFFFF" stroke-width="6" d="M306.604,571.867c74.551,0,135.303-60.723,135.303-135.469
		c0-74.99-60.752-135.703-135.303-135.703c-74.971,0-135.518,60.713-135.518,135.703
		C171.086,511.145,231.633,571.867,306.604,571.867z"/>
	<path id="path28" fill="none" stroke="#FFFFFF" stroke-width="6" d="M306.604,300.696h204.648"/>
	<path id="path30" fill="#FFFFFF" d="M513.391,224.084v147.978l88.906-71.074L513.391,224.084"/>
	<path id="path32" fill="none" stroke="#FFFFFF" stroke-width="2" d="M513.391,224.084v147.978l88.906-71.074L513.391,224.084z"/>
	<path id="path34" fill="none" stroke="#FFFFFF" stroke-width="6" d="M171.086,437.17V232.532"/>
	<path id="path36" fill="#FFFFFF" d="M95.735,231.516h148.213l-71.27-89.092L95.735,231.516"/>
	<path id="path38" fill="none" stroke="#FFFFFF" stroke-width="2" d="M95.735,231.516h148.213l-71.27-89.092L95.735,231.516z"/>
	<path id="path40" fill="none" stroke="#FFFFFF" stroke-width="6" d="M441.907,435.696v204.434"/>
	<path id="path42" fill="#FFFFFF" d="M517.219,640.285H369.202l71.836,89.277L517.219,640.285"/>
	<path id="path44" fill="none" stroke="#FFFFFF" stroke-width="2" d="M517.219,640.285H369.202l71.836,89.277L517.219,640.285z"/>
	<path id="path46" fill="none" stroke="#FFFFFF" stroke-width="6" d="M309.514,571.438H104.846"/>
	<path id="path48" fill="#FFFFFF" d="M101.907,648.83V500.412l-89.277,71.504L101.907,648.83"/>
	<path id="path50" fill="none" stroke="#FFFFFF" stroke-width="2" d="M101.907,648.83V500.412l-89.277,71.504L101.907,648.83z"/>
	<path id="path52" fill="#026C9B" d="M612.405,126.038l-612.236-0.41L155.383,1.79h583.682v620.058L613.079,749.924L612.405,126.038
		"/>
	<path id="path54" fill="none" stroke="#FFFFFF" stroke-width="4" d="M612.405,126.038l-612.236-0.41L155.383,1.79h583.682v620.058
		L613.079,749.924L612.405,126.038z"/>
	<path id="path56" fill="#026C9B" d="M612.405,126.038L740.002,0.002"/>
	<path id="path58" fill="none" stroke="#FFFFFF" stroke-width="4" d="M612.405,126.038L740.002,0.002"/>
	<path id="path60" fill="#FFFFFF" d="M378.879,372.092v87.275c0,37.842-23.467,69.414-73.73,69.414
		c-49.395,0-70.615-31.572-70.615-65.938v-90.752h24.863v83.633c0,40.107,24.199,51.094,46.504,51.094
		c22.715,0,48.32-10.361,48.32-50.459v-84.268H378.879"/>
</g>
</svg>
