<?xml version="1.0" encoding="utf-8"?>
<!-- Generator: Adobe Illustrator 16.0.0, SVG Export Plug-In . SVG Version: 6.00 Build 0)  -->
<!DOCTYPE svg PUBLIC "-//W3C//DTD SVG 1.1//EN" "http://www.w3.org/Graphics/SVG/1.1/DTD/svg11.dtd">
<svg version="1.1"
	 id="svg2" xmlns:dc="http://purl.org/dc/elements/1.1/" xmlns:cc="http://creativecommons.org/ns#" xmlns:rdf="http://www.w3.org/1999/02/22-rdf-syntax-ns#" xmlns:svg="http://www.w3.org/2000/svg"
	 xmlns="http://www.w3.org/2000/svg" xmlns:xlink="http://www.w3.org/1999/xlink" x="0px" y="0px" width="78px" height="31px"
	 viewBox="0 0 78 31" enable-background="new 0 0 78 31" xml:space="preserve">
<g id="g12" transform="scale(0.1,0.1)">
	<path id="path22" fill="#036998" d="M19.189,290.722h740.317V52.09H19.189V290.722z"/>
	<path id="path24" fill="none" stroke="#FFFFFF" stroke-width="3.9999" d="M19.189,290.722h740.317V52.09H19.189V290.722z"/>
	<path id="path26" fill="#036998" d="M19.712,24.58h740.586V0H19.712V24.58z"/>
	<path id="path28" fill="none" stroke="#FFFFFF" stroke-width="3.9999" d="M19.712,24.58h740.586V0H19.712V24.58z"/>
	<path id="path30" fill="#036998" d="M45.986,117.1h21.343V71.25H45.986V117.1z"/>
	<path id="path32" fill="none" stroke="#FFFFFF" stroke-width="3.9999" d="M45.986,117.1h21.343V71.25H45.986V117.1z"/>
	<path id="path34" fill="#036998" d="M45.986,184.248h21.343v-45.84H45.986V184.248z"/>
	<path id="path36" fill="none" stroke="#FFFFFF" stroke-width="3.9999" d="M45.986,184.248h21.343v-45.84H45.986V184.248z"/>
	<path id="path38" fill="#036998" d="M45.986,251.416h21.343v-45.859H45.986V251.416z"/>
	<path id="path40" fill="none" stroke="#FFFFFF" stroke-width="3.9999" d="M45.986,251.416h21.343v-45.859H45.986V251.416z"/>
	<path id="path42" fill="#036998" d="M307.358,258.447h83.467V137.998h-83.467V258.447z"/>
	<path id="path44" fill="none" stroke="#FFFFFF" stroke-width="3.9999" d="M307.358,258.447h83.467V137.998h-83.467V258.447z"/>
	<path id="path46" fill="#036998" d="M390.82,258.447h83.491V137.998H390.82V258.447z"/>
	<path id="path48" fill="none" stroke="#FFFFFF" stroke-width="3.9999" d="M390.82,258.447h83.491V137.998H390.82V258.447z"/>
	<path id="path50" fill="#036998" d="M766.87,24.58l13.135,27.832H0.01L13.145,24.58H766.87"/>
	<path id="path52" fill="none" stroke="#FFFFFF" stroke-width="3.9999" d="M766.87,24.58l13.135,27.832H0.01L13.145,24.58H766.87z"
		/>
	<path id="path54" fill="#036998" d="M286.05,271.113H495.61v-19.199H286.05V271.113z"/>
	<path id="path56" fill="none" stroke="#FFFFFF" stroke-width="3.9999" d="M286.05,271.113H495.61v-19.199H286.05V271.113z"/>
	<path id="path58" fill="#036998" d="M275.381,290.722h230.894v-19.609H275.381V290.722z"/>
	<path id="path60" fill="none" stroke="#FFFFFF" stroke-width="3.9999" d="M275.381,290.722h230.894v-19.609H275.381V290.722z"/>
	<path id="path62" fill="#036998" d="M114.946,117.1h21.357V71.25h-21.357V117.1z"/>
	<path id="path64" fill="none" stroke="#FFFFFF" stroke-width="3.9999" d="M114.946,117.1h21.357V71.25h-21.357V117.1z"/>
	<path id="path66" fill="#036998" d="M114.946,184.248h21.357v-45.84h-21.357V184.248z"/>
	<path id="path68" fill="none" stroke="#FFFFFF" stroke-width="3.9999" d="M114.946,184.248h21.357v-45.84h-21.357V184.248z"/>
	<path id="path70" fill="#036998" d="M114.946,251.416h21.357v-45.859h-21.357V251.416z"/>
	<path id="path72" fill="none" stroke="#FFFFFF" stroke-width="3.9999" d="M114.946,251.416h21.357v-45.859h-21.357V251.416z"/>
	<path id="path74" fill="#036998" d="M183.921,117.1h21.348V71.25h-21.348V117.1z"/>
	<path id="path76" fill="none" stroke="#FFFFFF" stroke-width="3.9999" d="M183.921,117.1h21.348V71.25h-21.348V117.1z"/>
	<path id="path78" fill="#036998" d="M183.921,184.248h21.348v-45.84h-21.348V184.248z"/>
	<path id="path80" fill="none" stroke="#FFFFFF" stroke-width="3.9999" d="M183.921,184.248h21.348v-45.84h-21.348V184.248z"/>
	<path id="path82" fill="#036998" d="M183.921,251.416h21.348v-45.859h-21.348V251.416z"/>
	<path id="path84" fill="none" stroke="#FFFFFF" stroke-width="3.9999" d="M183.921,251.416h21.348v-45.859h-21.348V251.416z"/>
	<path id="path86" fill="#036998" d="M252.881,117.1h21.348V71.25h-21.348V117.1z"/>
	<path id="path88" fill="none" stroke="#FFFFFF" stroke-width="3.9999" d="M252.881,117.1h21.348V71.25h-21.348V117.1z"/>
	<path id="path90" fill="#036998" d="M252.881,184.248h21.348v-45.84h-21.348V184.248z"/>
	<path id="path92" fill="none" stroke="#FFFFFF" stroke-width="3.9999" d="M252.881,184.248h21.348v-45.84h-21.348V184.248z"/>
	<path id="path94" fill="#036998" d="M252.881,251.416h21.348v-45.859h-21.348V251.416z"/>
	<path id="path96" fill="none" stroke="#FFFFFF" stroke-width="3.9999" d="M252.881,251.416h21.348v-45.859h-21.348V251.416z"/>
	<path id="path98" fill="#036998" d="M714.321,117.1h21.348V71.25h-21.348V117.1z"/>
	<path id="path100" fill="none" stroke="#FFFFFF" stroke-width="3.9999" d="M714.321,117.1h21.348V71.25h-21.348V117.1z"/>
	<path id="path102" fill="#036998" d="M714.321,184.248h21.348v-45.84h-21.348V184.248z"/>
	<path id="path104" fill="none" stroke="#FFFFFF" stroke-width="3.9999" d="M714.321,184.248h21.348v-45.84h-21.348V184.248z"/>
	<path id="path106" fill="#036998" d="M714.321,251.416h21.348v-45.859h-21.348V251.416z"/>
	<path id="path108" fill="none" stroke="#FFFFFF" stroke-width="3.9999" d="M714.321,251.416h21.348v-45.859h-21.348V251.416z"/>
	<path id="path110" fill="#036998" d="M645.356,117.1h21.348V71.25h-21.348V117.1z"/>
	<path id="path112" fill="none" stroke="#FFFFFF" stroke-width="3.9999" d="M645.356,117.1h21.348V71.25h-21.348V117.1z"/>
	<path id="path114" fill="#036998" d="M645.356,184.248h21.348v-45.84h-21.348V184.248z"/>
	<path id="path116" fill="none" stroke="#FFFFFF" stroke-width="3.9999" d="M645.356,184.248h21.348v-45.84h-21.348V184.248z"/>
	<path id="path118" fill="#036998" d="M645.356,251.416h21.348v-45.859h-21.348V251.416z"/>
	<path id="path120" fill="none" stroke="#FFFFFF" stroke-width="3.9999" d="M645.356,251.416h21.348v-45.859h-21.348V251.416z"/>
	<path id="path122" fill="#036998" d="M576.382,117.1h21.348V71.25h-21.348V117.1z"/>
	<path id="path124" fill="none" stroke="#FFFFFF" stroke-width="3.9999" d="M576.382,117.1h21.348V71.25h-21.348V117.1z"/>
	<path id="path126" fill="#036998" d="M576.382,184.248h21.348v-45.84h-21.348V184.248z"/>
	<path id="path128" fill="none" stroke="#FFFFFF" stroke-width="3.9999" d="M576.382,184.248h21.348v-45.84h-21.348V184.248z"/>
	<path id="path130" fill="#036998" d="M576.382,251.416h21.348v-45.859h-21.348V251.416z"/>
	<path id="path132" fill="none" stroke="#FFFFFF" stroke-width="3.9999" d="M576.382,251.416h21.348v-45.859h-21.348V251.416z"/>
	<path id="path134" fill="#036998" d="M507.417,117.1h21.338V71.25h-21.338V117.1z"/>
	<path id="path136" fill="none" stroke="#FFFFFF" stroke-width="3.9999" d="M507.417,117.1h21.338V71.25h-21.338V117.1z"/>
	<path id="path138" fill="#036998" d="M507.417,184.248h21.338v-45.84h-21.338V184.248z"/>
	<path id="path140" fill="none" stroke="#FFFFFF" stroke-width="3.9999" d="M507.417,184.248h21.338v-45.84h-21.338V184.248z"/>
	<path id="path142" fill="#036998" d="M507.417,251.416h21.338v-45.859h-21.338V251.416z"/>
	<path id="path144" fill="none" stroke="#FFFFFF" stroke-width="3.9999" d="M507.417,251.416h21.338v-45.859h-21.338V251.416z"/>
	<path id="path146" fill="#036998" d="M443.374,117.1h21.348V71.25h-21.348V117.1z"/>
	<path id="path148" fill="none" stroke="#FFFFFF" stroke-width="3.9999" d="M443.374,117.1h21.348V71.25h-21.348V117.1z"/>
	<path id="path150" fill="#036998" d="M380.977,117.1h21.343V71.25h-21.343V117.1z"/>
	<path id="path152" fill="none" stroke="#FFFFFF" stroke-width="3.9999" d="M380.977,117.1h21.343V71.25h-21.343V117.1z"/>
	<path id="path154" fill="#036998" d="M318.574,117.1h21.348V71.25h-21.348V117.1z"/>
	<path id="path156" fill="none" stroke="#FFFFFF" stroke-width="3.9999" d="M318.574,117.1h21.348V71.25h-21.348V117.1z"/>
	<path id="path158" fill="#036998" d="M321.855,189.844h18.882v-37.686h-18.882V189.844z"/>
	<path id="path160" fill="none" stroke="#FFFFFF" stroke-width="3.9999" d="M321.855,189.844h18.882v-37.686h-18.882V189.844z"/>
	<path id="path162" fill="#036998" d="M354.692,189.844h18.896v-37.686h-18.896V189.844z"/>
	<path id="path164" fill="none" stroke="#FFFFFF" stroke-width="3.9999" d="M354.692,189.844h18.896v-37.686h-18.896V189.844z"/>
	<path id="path166" fill="#036998" d="M440.903,189.844h18.906v-37.686h-18.906V189.844z"/>
	<path id="path168" fill="none" stroke="#FFFFFF" stroke-width="3.9999" d="M440.903,189.844h18.906v-37.686h-18.906V189.844z"/>
	<path id="path170" fill="#036998" d="M408.071,189.844h18.887v-37.686h-18.887V189.844z"/>
	<path id="path172" fill="none" stroke="#FFFFFF" stroke-width="3.9999" d="M408.071,189.844h18.887v-37.686h-18.887V189.844z"/>
	<path id="path174" fill="#036998" d="M265.532,310h250.596v-19.277H265.532V310z"/>
	<path id="path176" fill="none" stroke="#FFFFFF" stroke-width="3.9999" d="M265.532,310h250.596v-19.277H265.532V310z"/>
</g>
</svg>
