<?xml version="1.0" encoding="utf-8"?>
<!-- Generator: Adobe Illustrator 16.0.0, SVG Export Plug-In . SVG Version: 6.00 Build 0)  -->
<!DOCTYPE svg PUBLIC "-//W3C//DTD SVG 1.1//EN" "http://www.w3.org/Graphics/SVG/1.1/DTD/svg11.dtd">
<svg version="1.1"
	 id="svg2" xmlns:dc="http://purl.org/dc/elements/1.1/" xmlns:cc="http://creativecommons.org/ns#" xmlns:rdf="http://www.w3.org/1999/02/22-rdf-syntax-ns#" xmlns:svg="http://www.w3.org/2000/svg"
	 xmlns="http://www.w3.org/2000/svg" xmlns:xlink="http://www.w3.org/1999/xlink" x="0px" y="0px" width="80px" height="76px"
	 viewBox="0 0 80 76" enable-background="new 0 0 80 76" xml:space="preserve">
<g id="g12" transform="scale(0.1,0.1)">
	<path id="path14" fill="#087FBF" d="M715.669,521.203l64.922-351.616H285.259l-72.871,351.616H715.669"/>
	<path id="path16" fill="none" stroke="#FFFFFF" stroke-width="4" d="M715.669,521.203l64.922-351.616H285.259l-72.871,351.616
		H715.669z"/>
	<path id="path18" fill="#087FBF" d="M780.591,169.587l19.414,24.995L739.692,535.93l-24.023-14.727L780.591,169.587"/>
	<path id="path20" fill="none" stroke="#FFFFFF" stroke-width="4" d="M780.591,169.587l19.414,24.995L739.692,535.93l-24.023-14.727
		L780.591,169.587z"/>
	<path id="path22" fill="#087FBF" d="M212.388,521.203l21.611,14.727h505.693l-24.023-14.727H212.388"/>
	<path id="path24" fill="none" stroke="#FFFFFF" stroke-width="4" d="M212.388,521.203l21.611,14.727h505.693l-24.023-14.727
		H212.388z"/>
	<path id="path26" fill="#087FBF" d="M720.278,544.446v50.156l-13.164,11.445c0,0-30.664,9.131-23.77,27.168L546.06,760.002v-55.4
		L720.278,544.446"/>
	<path id="path28" fill="none" stroke="#FFFFFF" stroke-width="4" d="M720.278,544.446v50.156l-13.164,11.445
		c0,0-30.664,9.131-23.77,27.168L546.06,760.002v-55.4L720.278,544.446z"/>
	<path id="path30" fill="#087FBF" d="M0,760.002h546.06v-55.4H0V760.002z"/>
	<path id="path32" fill="none" stroke="#FFFFFF" stroke-width="4" d="M0,704.602v55.4h546.06v-55.4H0"/>
	<path id="path34" fill="#087FBF" d="M218.032,547.746l502.246-3.301L546.06,704.602H0L218.032,547.746"/>
	<path id="path36" fill="none" stroke="#FFFFFF" stroke-width="4" d="M218.032,547.746l502.246-3.301L546.06,704.602H0
		L218.032,547.746z"/>
	<path id="path38" fill="#087FBF" d="M673.599,488.02l52.012-277.822H322.72L270.835,488.02H673.599"/>
	<path id="path40" fill="none" stroke="#FFFFFF" stroke-width="4" d="M673.599,488.02l52.012-277.822H322.72L270.835,488.02H673.599
		z"/>
	<path id="path42" fill="none" stroke="#FFFFFF" stroke-linejoin="round" d="M229.81,551.184L103.184,652.912"/>
	<path id="path44" fill="none" stroke="#FFFFFF" stroke-linejoin="round" d="M270.571,551.184L143.838,652.912"/>
	<path id="path46" fill="none" stroke="#FFFFFF" stroke-linejoin="round" d="M311.245,551.184L184.492,652.912"/>
	<path id="path48" fill="none" stroke="#FFFFFF" stroke-linejoin="round" d="M351.899,551.184L225.254,652.912"/>
	<path id="path50" fill="none" stroke="#FFFFFF" stroke-linejoin="round" d="M392.554,551.184L265.933,652.912"/>
	<path id="path52" fill="none" stroke="#FFFFFF" stroke-linejoin="round" d="M433.325,551.184L306.587,652.912"/>
	<path id="path54" fill="none" stroke="#FFFFFF" stroke-linejoin="round" d="M473.989,551.184L347.241,652.912"/>
	<path id="path56" fill="none" stroke="#FFFFFF" stroke-linejoin="round" d="M514.634,551.184L387.896,652.912"/>
	<path id="path58" fill="none" stroke="#FFFFFF" stroke-linejoin="round" d="M555.298,551.184L428.677,652.912"/>
	<path id="path60" fill="none" stroke="#FFFFFF" stroke-linejoin="round" d="M595.962,551.184L469.321,652.912"/>
	<path id="path62" fill="none" stroke="#FFFFFF" stroke-linejoin="round" d="M636.606,551.184L509.985,652.912"/>
	<path id="path64" fill="none" stroke="#FFFFFF" stroke-linejoin="round" d="M677.271,551.184L550.63,652.912"/>
	<path id="path66" fill="none" stroke="#FFFFFF" stroke-linejoin="round" d="M117.31,642.356h450.859"/>
	<path id="path68" fill="none" stroke="#FFFFFF" stroke-linejoin="round" d="M147.681,619.045h443.867"/>
	<path id="path70" fill="none" stroke="#FFFFFF" stroke-linejoin="round" d="M179.17,595.744h442.71"/>
	<path id="path72" fill="none" stroke="#FFFFFF" stroke-linejoin="round" d="M207.1,572.424h446.187"/>
	<path id="path74" fill="#087FBF" d="M547.388,124.407c34.512,0,62.559-27.886,62.559-62.217c0-34.414-28.047-62.188-62.559-62.188
		c-34.746,0-62.793,27.773-62.793,62.188C484.595,96.521,512.642,124.407,547.388,124.407"/>
	<path id="path76" fill="none" stroke="#FFFFFF" stroke-width="3.2" d="M547.388,124.407c34.512,0,62.559-27.886,62.559-62.217
		c0-34.414-28.047-62.188-62.559-62.188c-34.746,0-62.793,27.773-62.793,62.188C484.595,96.521,512.642,124.407,547.388,124.407z"/>
	<path id="path78" fill="#087FBF" d="M456.763,156.628l16.016-96.309c0,41.216,33.594,74.634,75.039,74.634
		c41.504,0,75.117-33.418,75.117-74.634l15.332,96.387L456.763,156.628"/>
	<path id="path80" fill="#FFFFFF" d="M504.497,78.44h85.273V50.125h-85.273V78.44z"/>
	<path id="path82" fill="#FFFFFF" d="M492.778,248.704h69.219c-34.629,8.887-48.574,47.344-48.574,47.344l28.809,15.703
		l-61.543,40.41l-30.664-88.682l24.824,12.1C478.813,260.793,492.778,248.704,492.778,248.704"/>
	<path id="path84" fill="#FFFFFF" d="M550.122,465.578c10.664-34.121-16.484-62.832-16.484-62.832l-28.418,16.221l-2.773-73.193
		l92.188,20.215l-23.34,14.688c24.609,32.695,17.832,71.738,17.832,71.738C575.923,469.485,550.122,465.578,550.122,465.578"/>
	<path id="path86" fill="#FFFFFF" d="M382.134,362.981c22.383,11.719,47.402,6.465,47.402,6.465l0.801-32.637l64.336,35.469
		l-64.941,68.203l-0.645-27.607c-18.926,2.012-35.703-2.627-48.164-8.086L382.134,362.981"/>
</g>
</svg>
