<?xml version="1.0" encoding="utf-8"?>
<!-- Generator: Adobe Illustrator 16.0.0, SVG Export Plug-In . SVG Version: 6.00 Build 0)  -->
<!DOCTYPE svg PUBLIC "-//W3C//DTD SVG 1.1//EN" "http://www.w3.org/Graphics/SVG/1.1/DTD/svg11.dtd">
<svg version="1.1"
	 id="svg2" xmlns:dc="http://purl.org/dc/elements/1.1/" xmlns:cc="http://creativecommons.org/ns#" xmlns:rdf="http://www.w3.org/1999/02/22-rdf-syntax-ns#" xmlns:svg="http://www.w3.org/2000/svg"
	 xmlns="http://www.w3.org/2000/svg" xmlns:xlink="http://www.w3.org/1999/xlink" x="0px" y="0px" width="80px" height="52px"
	 viewBox="0 0 80 52" enable-background="new 0 0 80 52" xml:space="preserve">
<g id="g12" transform="scale(0.1,0.1)">
	<path id="path22" fill="#036998" d="M0,519.995h714.277V103.647H0V519.995z"/>
	<path id="path24" fill="none" stroke="#FFFFFF" stroke-width="3.9999" d="M0,519.995h714.277V103.647H0V519.995z"/>
	<path id="path26" fill="#036998" d="M800,395.112l-85.723,124.883V103.647L800,0V395.112"/>
	<path id="path28" fill="none" stroke="#FFFFFF" stroke-width="3.9999" d="M800,395.112l-85.723,124.883V103.647L800,0V395.112z"/>
	<path id="path30" fill="#036998" d="M128.418,0H800l-85.723,103.647H0L128.418,0"/>
	<path id="path32" fill="none" stroke="#FFFFFF" stroke-width="3.9999" d="M128.418,0H800l-85.723,103.647H0L128.418,0z"/>
	<g id="g34" transform="scale(10,10)" style="font-variant:normal;font-weight:bold;font-size:14.9881px;font-family:Helvetica;-inkscape-font-specification:Helvetica-Bold;writing-mode:lr-tb;fill:#ffffff;fill-opacity:1;fill-rule:nonzero;stroke:none">
		<text transform="matrix(1.0015 0 0 1 20.4151 26.6831)">U</text>
		<text transform="matrix(1.0015 0 0 1 31.252 26.6831)">P</text>
		<text transform="matrix(1.0015 0 0 1 41.2657 26.6831)">S</text>
	</g>
	<path id="path40" fill="#FFFFFF" d="M352.842,395.258c0.205-0.029,92.656-4.922,92.656-4.922s-113.809-43.457-135.293-50.83
		c1.475-0.664,103.867-2.041,103.867-2.041l-310.459-85.508l204.16,75.039c-1.094,0.264-75.034,5.078-75.034,5.078
		s75.386,37.061,96.245,44.326c-3.135,1.406-68.535,20.117-68.535,20.117l368.389,102.266L352.842,395.258"/>
</g>
</svg>
