<?xml version="1.0" encoding="utf-8"?>
<!-- Generator: Adobe Illustrator 16.0.0, SVG Export Plug-In . SVG Version: 6.00 Build 0)  -->
<!DOCTYPE svg PUBLIC "-//W3C//DTD SVG 1.1//EN" "http://www.w3.org/Graphics/SVG/1.1/DTD/svg11.dtd">
<svg version="1.1"
	 id="图层_1" xmlns:dc="http://purl.org/dc/elements/1.1/" xmlns:cc="http://creativecommons.org/ns#" xmlns:rdf="http://www.w3.org/1999/02/22-rdf-syntax-ns#"
	 xmlns="http://www.w3.org/2000/svg" xmlns:xlink="http://www.w3.org/1999/xlink" x="0px" y="0px" width="75px" height="75px"
	 viewBox="0 0 75 75" enable-background="new 0 0 75 75" xml:space="preserve">
<path fill="#00BCF2" d="M1.398,73.64c0.322-6.125,1.769-11.747,4.324-16.809c2.85-5.641,6.373-9.628,10.458-11.83
	c2.615-1.41,5.66-1.558,9.035-0.437c1.532,0.509,2.477,1.013,5.224,2.783c7.403,4.774,12.203,6.578,16.071,6.04
	c1.464-0.203,2.597-0.601,4.677-1.639c1.855-0.925,2.43-1.342,4.628-3.351c0.808-0.738,1.793-1.519,2.189-1.733
	c0.644-0.351,0.822-0.382,1.686-0.303c2.462,0.23,4.68,2.079,7.391,6.158c2.396,3.608,3.638,6.454,4.692,10.762
	c0.604,2.47,1.107,5.306,1.468,8.261c0.167,1.376,0.333,2.716,0.368,2.979L73.674,75H37.501H1.326L1.398,73.64L1.398,73.64z
	 M40.054,43.59c-6.679-1.046-12.624-5.691-15.813-12.358c-1.648-3.444-2.334-6.552-2.353-10.668
	c-0.038-8.003,4.14-15.267,10.704-18.617c2.81-1.434,5.637-2.059,8.732-1.931c3.017,0.125,4.764,0.573,7.576,1.941
	c2.041,0.993,3.119,1.707,4.743,3.141C59.062,9.88,62.13,17.534,61.507,24.7c-0.372,4.262-1.501,7.592-3.684,10.866
	C53.886,41.472,46.844,44.651,40.054,43.59L40.054,43.59z"/>
</svg>
