<?xml version="1.0" encoding="utf-8"?>
<!-- Generator: Adobe Illustrator 16.0.0, SVG Export Plug-In . SVG Version: 6.00 Build 0)  -->
<!DOCTYPE svg PUBLIC "-//W3C//DTD SVG 1.1//EN" "http://www.w3.org/Graphics/SVG/1.1/DTD/svg11.dtd">
<svg version="1.1"
	 id="svg2" xmlns:dc="http://purl.org/dc/elements/1.1/" xmlns:cc="http://creativecommons.org/ns#" xmlns:rdf="http://www.w3.org/1999/02/22-rdf-syntax-ns#" xmlns:svg="http://www.w3.org/2000/svg"
	 xmlns="http://www.w3.org/2000/svg" xmlns:xlink="http://www.w3.org/1999/xlink" x="0px" y="0px" width="75px" height="52px"
	 viewBox="0 0 75 52" enable-background="new 0 0 75 52" xml:space="preserve">
<g id="g12" transform="scale(0.1,0.1)">
	<path id="path14" fill="#087BBB" d="M0,520h654.907V91.045H0V520z"/>
	<path id="path16" fill="none" stroke="#FFFFFF" stroke-width="4" d="M0,520h654.907V91.045H0V520z"/>
	<path id="path18" fill="#087BBB" d="M750.005,434.99L654.907,520V91.045L750.005,0V434.99"/>
	<path id="path20" fill="none" stroke="#FFFFFF" stroke-width="4" d="M750.005,434.99L654.907,520V91.045L750.005,0V434.99z"/>
	<path id="path22" fill="#087BBB" d="M113.047,0h636.958l-95.098,91.045H0L113.047,0"/>
	<path id="path24" fill="none" stroke="#FFFFFF" stroke-width="8" d="M113.047,0h636.958l-95.098,91.045H0L113.047,0z"/>
	<path id="path26" fill="#FFFFFF" d="M567.759,196.377l-58.086,0.068v-17.422l58.086-0.049l0.059-27.109l63.574,35.815
		l-63.574,35.835L567.759,196.377"/>
	<path id="path28" fill="#FFFFFF" d="M567.759,413.183l-58.086,0.059V395.83l58.086-0.059l0.059-27.119l63.574,35.859
		l-63.574,35.811L567.759,413.183"/>
	<path id="path30" fill="#FFFFFF" d="M90.801,305.889l-65.112,0.068v-17.422l65.112-0.049l0.024-27.109l63.574,35.82l-63.574,35.82
		L90.801,305.889"/>
	<path id="path32" fill="#087BBB" d="M470.903,236.572c0,30.566-66.777,55.293-149.326,55.293
		c-82.456,0-149.37-24.727-149.37-55.293v127.129c0,30.498,66.914,55.244,149.37,55.244c82.549,0,149.326-24.746,149.326-55.244
		V236.572"/>
	<path id="path34" fill="none" stroke="#FFFFFF" stroke-width="4" d="M470.903,236.572c0,30.566-66.777,55.293-149.326,55.293
		c-82.456,0-149.37-24.727-149.37-55.293v127.129c0,30.498,66.914,55.244,149.37,55.244c82.549,0,149.326-24.746,149.326-55.244
		V236.572z"/>
	<path id="path36" fill="#087BBB" d="M321.577,291.865c82.549,0,149.326-24.727,149.326-55.293
		c0-30.508-66.777-55.146-149.326-55.146c-82.456,0-149.37,24.639-149.37,55.146C172.207,267.139,239.121,291.865,321.577,291.865"
		/>
	<path id="path38" fill="none" stroke="#FFFFFF" stroke-width="4" d="M321.577,291.865c82.549,0,149.326-24.727,149.326-55.293
		c0-30.508-66.777-55.146-149.326-55.146c-82.456,0-149.37,24.639-149.37,55.146C172.207,267.139,239.121,291.865,321.577,291.865z"
		/>
</g>
</svg>
