<?xml version="1.0" encoding="utf-8"?>
<!-- Generator: Adobe Illustrator 16.0.0, SVG Export Plug-In . SVG Version: 6.00 Build 0)  -->
<!DOCTYPE svg PUBLIC "-//W3C//DTD SVG 1.1//EN" "http://www.w3.org/Graphics/SVG/1.1/DTD/svg11.dtd">
<svg version="1.1"
	 id="图层_1" xmlns:dc="http://purl.org/dc/elements/1.1/" xmlns:cc="http://creativecommons.org/ns#" xmlns:rdf="http://www.w3.org/1999/02/22-rdf-syntax-ns#"
	 xmlns="http://www.w3.org/2000/svg" xmlns:xlink="http://www.w3.org/1999/xlink" x="0px" y="0px" width="61px" height="77px"
	 viewBox="0 0 61 77" enable-background="new 0 0 61 77" xml:space="preserve">
<path fill="#00BCF2" d="M0.972,76.714c-0.257-0.156-0.58-0.523-0.718-0.813c-0.234-0.492-0.253-3.274-0.253-37.404
	c0-40.091-0.062-37.231,0.83-38.063l0.403-0.378l29.091-0.039c27.973-0.038,29.111-0.029,29.608,0.238
	c0.284,0.152,0.641,0.508,0.792,0.792C60.991,1.541,61.001,3.015,61,38.563c0,36.432-0.004,37.009-0.294,37.485
	c-0.624,1.028,1.844,0.951-30.234,0.95C2.33,76.997,1.422,76.989,0.972,76.714L0.972,76.714z M57.382,74.202
	c0.568-0.292,0.752-0.654,0.749-1.46c-0.003-0.689-0.286-1.175-0.854-1.465c-0.859-0.44-2.044,0.056-2.291,0.956
	C54.563,73.756,55.984,74.925,57.382,74.202L57.382,74.202z M12.713,72.925c0.532-0.164,1.278-0.504,1.658-0.756
	c1.635-1.084,1.749-1.275,7.161-12.115c4.971-9.959,5.075-10.185,5.075-11.071c-0.001-1.139-0.362-2.05-1.053-2.657
	c-1.023-0.896-2.296-1.163-3.582-0.747c-0.697,0.229-3.24,2.693-11.696,11.346c-4.591,4.7-5.31,5.498-5.721,6.36
	c-1.823,3.819,0.142,8.358,4.175,9.647C9.89,73.302,11.499,73.3,12.713,72.925L12.713,72.925z M9.741,69.273
	c-1.952-0.718-2.727-3.038-1.576-4.717c1.355-1.979,4.321-1.713,5.361,0.481c0.38,0.8,0.244,2.248-0.283,3.01
	C12.504,69.112,10.865,69.688,9.741,69.273z M32.487,56.151c2.12-0.219,3.535-0.517,5.386-1.143
	c8.79-2.976,14.868-10.269,16.354-19.615c0.297-1.869,0.227-5.563-0.146-7.645c-1.197-6.702-5.202-12.685-10.957-16.365
	c-2.207-1.413-5.354-2.679-8.146-3.276c-2.1-0.449-6.543-0.485-8.779-0.069C16.453,9.85,8.875,17.306,6.791,27.131
	c-0.674,3.174-0.538,7.835,0.32,11.056c1.009,3.793,3.096,7.557,5.712,10.309l1.271,1.335l2.882-2.867
	c3.529-3.515,3.87-3.717,6.204-3.717c1.349,0,1.601,0.045,2.376,0.426c1.863,0.915,3.153,2.844,3.26,4.879
	c0.075,1.44-0.196,2.317-1.57,5.062c-1.295,2.586-1.399,2.321,0.993,2.53C30.329,56.324,30.759,56.326,32.487,56.151L32.487,56.151z
	 M28.875,43.309c-4.257-0.506-8.067-3.776-9.374-8.047c-0.316-1.034-0.377-1.545-0.387-3.265c-0.01-1.736,0.041-2.206,0.342-3.171
	c1.058-3.39,3.508-6.154,6.6-7.449c2.125-0.89,4.996-1.078,7.238-0.475c3.935,1.06,7.082,4.315,8.099,8.372
	c0.272,1.086,0.309,1.561,0.237,3.171c-0.145,3.359-1.25,5.754-3.69,8.003C35.527,42.67,32.239,43.707,28.875,43.309L28.875,43.309z
	 M33.37,40.617c3.477-1.211,5.855-4.321,6.143-8.027c0.278-3.587-1.788-7.213-4.974-8.729c-1.53-0.727-2.522-0.964-4.038-0.964
	c-4.038,0-7.508,2.641-8.698,6.615c-0.407,1.361-0.377,3.615,0.065,5.052c0.936,3.034,3.229,5.3,6.292,6.216
	C29.457,41.168,32.019,41.088,33.37,40.617L33.37,40.617z M30.2,39.438c-1.35-0.491-1.123-2.458,0.284-2.458
	c0.677,0,1.013,0.213,1.208,0.765c0.235,0.675-0.097,1.405-0.743,1.632c-0.271,0.092-0.499,0.166-0.508,0.159
	C30.433,39.528,30.324,39.486,30.2,39.438L30.2,39.438z M25.228,37.186c-0.652-0.829-0.156-2.018,0.84-2.018
	c0.702,0,1.031,0.196,1.262,0.748c0.223,0.539-0.001,1.276-0.461,1.523C26.328,37.727,25.562,37.609,25.228,37.186L25.228,37.186z
	 M34.086,37.395c-0.404-0.308-0.575-0.946-0.393-1.47c0.192-0.548,0.531-0.757,1.227-0.757c1.054,0,1.59,1.365,0.818,2.088
	C35.344,37.625,34.485,37.698,34.086,37.395z M29.646,35.483c-1.799-0.456-3.014-2.401-2.613-4.188
	c0.219-0.972,0.5-1.457,1.199-2.054c1.774-1.52,4.363-0.973,5.484,1.158c0.421,0.804,0.445,2.344,0.047,3.105
	C32.96,35.043,31.219,35.88,29.646,35.483L29.646,35.483z M23.474,32.833c-1.064-1.065,0.375-2.68,1.646-1.847
	c0.489,0.321,0.636,1.008,0.338,1.583C25.071,33.322,24.092,33.453,23.474,32.833z M35.789,32.906
	c-0.904-0.904-0.155-2.323,1.13-2.135c0.93,0.135,1.324,1.455,0.633,2.104C37.098,33.304,36.203,33.318,35.789,32.906z
	 M25.228,28.427c-0.673-0.856-0.168-2.019,0.876-2.019c0.666,0,0.998,0.203,1.224,0.749c0.223,0.537-0.001,1.276-0.461,1.522
	C26.328,28.968,25.562,28.851,25.228,28.427L25.228,28.427z M34.086,28.636c-0.404-0.308-0.575-0.946-0.393-1.47
	c0.192-0.549,0.531-0.757,1.227-0.757c1.054,0,1.59,1.363,0.818,2.087C35.344,28.867,34.485,28.938,34.086,28.636z M29.624,26.663
	c-0.372-0.396-0.436-1.235-0.123-1.646c0.576-0.757,1.874-0.566,2.184,0.323c0.188,0.538,0.111,0.846-0.325,1.332
	C30.938,27.142,30.066,27.137,29.624,26.663L29.624,26.663z M5.323,4.843c1.251-1.164,0.072-3.25-1.56-2.762
	c-0.734,0.22-1.194,0.801-1.194,1.506C2.57,5.142,4.202,5.885,5.323,4.843L5.323,4.843z M57.53,4.98
	c0.486-0.351,0.756-1.148,0.584-1.743c-0.361-1.261-1.804-1.655-2.717-0.744C53.947,3.947,55.86,6.182,57.53,4.98z"/>
</svg>
