<?xml version="1.0" encoding="utf-8"?>
<!-- Generator: Adobe Illustrator 16.0.0, SVG Export Plug-In . SVG Version: 6.00 Build 0)  -->
<!DOCTYPE svg PUBLIC "-//W3C//DTD SVG 1.1//EN" "http://www.w3.org/Graphics/SVG/1.1/DTD/svg11.dtd">
<svg version="1.1"
	 id="图层_1" xmlns:dc="http://purl.org/dc/elements/1.1/" xmlns:cc="http://creativecommons.org/ns#" xmlns:rdf="http://www.w3.org/1999/02/22-rdf-syntax-ns#"
	 xmlns="http://www.w3.org/2000/svg" xmlns:xlink="http://www.w3.org/1999/xlink" x="0px" y="0px" width="57px" height="78px"
	 viewBox="0 0 57 78" enable-background="new 0 0 57 78" xml:space="preserve">
<path fill="#00BCF2" d="M41.283,77.717c-3.712-0.65-6.525-2.131-6.971-3.661c-0.106-0.37-0.146-4.084-0.112-11.274l0.043-10.721
	l0.44-0.574c2.078-2.721,9.775-4.028,15.879-2.697c3.137,0.682,5.57,2.123,5.979,3.536c0.091,0.319,0.147,4.603,0.146,11
	c0,9.964-0.02,10.513-0.294,11.12c-0.676,1.489-3.451,2.768-7.247,3.34C47.091,78.098,43.253,78.063,41.283,77.717L41.283,77.717z
	 M48.032,54.529c2.313-0.191,4.591-0.95,5.081-1.691c0.861-1.316-1.658-2.511-5.898-2.802c-5.038-0.345-9.678,0.743-9.678,2.268
	c0,0.783,0.959,1.376,3.023,1.864C42.699,54.674,44.937,54.782,48.032,54.529L48.032,54.529z M1.479,71.738
	C1.238,71.666,0.9,71.482,0.73,71.33c-0.767-0.679-0.729,1.123-0.729-35.459C0.001-1.77-0.07,0.931,0.95,0.309
	C1.453,0.002,1.646,0,28.499,0c26.55,0,27.054,0,27.532,0.3c1.04,0.631,0.968-1.201,0.968,24.319
	c0,12.708-0.034,23.108-0.072,23.108c-0.04,0-0.513-0.244-1.054-0.54c-2.325-1.274-6.378-2.217-9.558-2.217
	c-0.614,0-1.114-0.033-1.114-0.076c0-0.039,0.469-0.694,1.046-1.451c2.603-3.423,4.099-7.384,4.486-11.872
	c0.466-5.384-1.133-10.952-4.396-15.311c-6.03-8.053-16.515-11.133-25.893-7.61c-3.894,1.463-7.402,4.132-10.044,7.639
	C6.411,21.586,5,28.694,6.619,35.335c0.915,3.752,3.269,7.91,5.929,10.469l0.627,0.603l2.721-2.68
	c3.16-3.113,3.595-3.388,5.478-3.473c0.985-0.04,1.405,0.018,2.141,0.29c1.901,0.715,3.295,2.648,3.422,4.759
	c0.078,1.278-0.043,1.67-1.388,4.444c-0.6,1.237-1.061,2.284-1.023,2.322c0.153,0.152,3.991,0.364,5.164,0.284l1.262-0.087
	l-0.037,9.775l-0.039,9.771l-14.48,0.028C8.433,71.858,1.721,71.812,1.479,71.738L1.479,71.738z M11.801,67.979
	c1.055-0.313,2.205-1.052,2.985-1.917c0.444-0.492,1.92-3.3,5.346-10.169c4.464-8.954,4.733-9.538,4.733-10.326
	c0-1.278-0.637-2.328-1.761-2.904c-0.813-0.414-2.184-0.392-3.011,0.055c-0.396,0.213-3.447,3.194-7.953,7.77
	c-6.602,6.704-7.364,7.529-7.839,8.488c-0.446,0.9-0.537,1.269-0.592,2.382c-0.104,2.102,0.497,3.687,1.915,5.05
	C7.316,68.03,9.637,68.622,11.801,67.979L11.801,67.979z M9.063,64.549c-2.378-1.008-2.573-4.207-0.326-5.353
	c0.994-0.503,2.441-0.315,3.265,0.43c1.288,1.161,1.083,3.61-0.383,4.58C10.953,64.646,9.69,64.815,9.063,64.549L9.063,64.549z
	 M4.515,4.83c0.56-0.234,1.001-0.906,1.001-1.522c0-0.503-0.667-1.274-1.203-1.393C3.384,1.712,2.452,2.447,2.452,3.381
	c0,0.656,0.571,1.453,1.115,1.559c0.188,0.036,0.36,0.075,0.384,0.086C3.975,5.037,4.229,4.949,4.515,4.83L4.515,4.83z M53.39,4.83
	c0.509-0.212,1.001-0.896,1.001-1.39c0-0.458-0.464-1.142-0.946-1.39c-0.395-0.204-0.586-0.219-1.054-0.078
	c-0.699,0.209-1.063,0.73-1.063,1.519c0,0.659,0.521,1.333,1.124,1.45c0.182,0.035,0.353,0.075,0.376,0.086
	C52.849,5.037,53.105,4.949,53.39,4.83L53.39,4.83z M26.278,40.296c-0.592-0.13-1.729-0.55-2.53-0.937
	c-2.603-1.251-4.731-3.792-5.612-6.702c-0.208-0.689-0.277-1.411-0.272-2.905c0-1.722,0.058-2.147,0.403-3.179
	c1.114-3.338,3.673-5.895,6.938-6.933c5.207-1.655,10.922,1.058,12.997,6.171c0.542,1.342,0.741,2.428,0.735,4.059
	c-0.02,4.828-3.26,9.038-7.91,10.277C29.666,40.512,27.556,40.579,26.278,40.296L26.278,40.296z M30.49,38.077
	c1.263-0.288,2.85-1.192,3.877-2.205c2.204-2.179,3.033-5.214,2.253-8.254c-0.396-1.542-1.061-2.697-2.216-3.833
	c-1.659-1.637-3.489-2.372-5.905-2.372c-2.393,0-4.261,0.741-5.842,2.317c-4.631,4.612-2.596,12.565,3.651,14.28
	C27.199,38.256,29.543,38.292,30.49,38.077L30.49,38.077z M28.039,36.667c-0.578-0.292-0.84-0.938-0.605-1.502
	c0.342-0.823,1.28-1.006,1.915-0.37c0.468,0.468,0.478,1.021,0.032,1.515C28.936,36.795,28.517,36.906,28.039,36.667L28.039,36.667z
	 M23.952,34.952c-1.13-0.475-0.739-2.227,0.496-2.212c0.889,0.011,1.409,0.804,1.063,1.625
	C25.254,34.976,24.598,35.223,23.952,34.952L23.952,34.952z M32.074,34.952c-1.139-0.477-0.739-2.218,0.505-2.218
	c0.858,0,1.409,1.03,0.977,1.832C33.324,34.999,32.623,35.184,32.074,34.952z M27.272,32.95c-1.347-0.581-2.278-2.151-2.088-3.525
	c0.115-0.846,0.397-1.394,1.032-2.014c1.977-1.931,5.353-0.651,5.621,2.129C32.069,31.946,29.463,33.894,27.272,32.95z
	 M22.293,30.879c-0.783-0.438-0.925-1.29-0.314-1.899c0.746-0.746,1.922-0.233,1.922,0.836C23.902,30.69,23.01,31.279,22.293,30.879
	L22.293,30.879z M33.501,30.735c-0.314-0.244-0.407-0.452-0.407-0.907c0-0.456,0.093-0.662,0.407-0.907
	c0.219-0.173,0.556-0.317,0.744-0.317c0.189,0,0.523,0.143,0.745,0.317c0.312,0.245,0.403,0.453,0.403,0.907
	s-0.092,0.663-0.403,0.907c-0.222,0.176-0.556,0.317-0.745,0.317C34.057,31.051,33.718,30.911,33.501,30.735z M23.622,26.568
	c-0.58-0.617-0.415-1.55,0.331-1.863c1.293-0.543,2.32,1.165,1.207,2.008C24.735,27.035,23.996,26.964,23.622,26.568L23.622,26.568z
	 M31.745,26.568c-0.583-0.617-0.417-1.55,0.329-1.863c0.548-0.231,1.249-0.048,1.483,0.388
	C34.212,26.311,32.677,27.561,31.745,26.568z M27.874,25.043c-0.953-0.73-0.522-2.149,0.651-2.149c0.575,0,1.199,0.633,1.199,1.214
	C29.725,24.935,28.522,25.542,27.874,25.043L27.874,25.043z"/>
</svg>
