<?xml version="1.0" encoding="utf-8"?>
<!-- Generator: Adobe Illustrator 16.0.0, SVG Export Plug-In . SVG Version: 6.00 Build 0)  -->
<!DOCTYPE svg PUBLIC "-//W3C//DTD SVG 1.1//EN" "http://www.w3.org/Graphics/SVG/1.1/DTD/svg11.dtd">
<svg version="1.1"
	 id="svg2" xmlns:dc="http://purl.org/dc/elements/1.1/" xmlns:cc="http://creativecommons.org/ns#" xmlns:rdf="http://www.w3.org/1999/02/22-rdf-syntax-ns#" xmlns:svg="http://www.w3.org/2000/svg"
	 xmlns="http://www.w3.org/2000/svg" xmlns:xlink="http://www.w3.org/1999/xlink" x="0px" y="0px" width="55px" height="80px"
	 viewBox="0 0 55 80" enable-background="new 0 0 55 80" xml:space="preserve">
<g id="g12" transform="scale(0.1,0.1)">
	<path id="path22" fill="none" stroke="#036998" stroke-width="10" d="M252.375,211.333v588.672"/>
	<path id="path24" fill="none" stroke="#036998" stroke-width="10" d="M252.375,211.333l252.246,493.242"/>
	<path id="path26" fill="none" stroke="#036998" stroke-width="10" d="M252.375,211.333L0.002,704.575"/>
	<path id="path28" fill="#036998" d="M176.799,279.302h151.23V143.359h-151.23V279.302z"/>
	<path id="path30" fill="none" stroke="#FFFFFF" stroke-width="3.9999" d="M176.799,279.302h151.23V143.359h-151.23V279.302z"/>
	<path id="path32" fill="#036998" d="M35.789,138.711c-8.018,0-14.404-18.789-14.404-41.948c0-23.271,6.387-42.061,14.404-42.061
		h75.41c8.013,0,14.39,18.789,14.39,42.061c0,23.159-6.377,41.948-14.39,41.948H35.789"/>
	<path id="path34" fill="none" stroke="#FFFFFF" stroke-width="3.9999" d="M35.789,138.711c-8.018,0-14.404-18.789-14.404-41.948
		c0-23.271,6.387-42.061,14.404-42.061h75.41c8.013,0,14.39,18.789,14.39,42.061c0,23.159-6.377,41.948-14.39,41.948H35.789z"/>
	<path id="path36" fill="#036998" d="M91.184,196.348h322.354V49.956H91.184V196.348z"/>
	<path id="path38" fill="none" stroke="#FFFFFF" stroke-width="3.9999" d="M91.184,196.348h322.354V49.956H91.184V196.348z"/>
	<path id="path40" fill="#036998" d="M413.538,196.792V49.956H91.047l41.514-41.431h322.266v146.836L413.538,196.792"/>
	<path id="path42" fill="none" stroke="#FFFFFF" stroke-width="3.9999" d="M413.538,196.792V49.956H91.047l41.514-41.431h322.266
		v146.836L413.538,196.792z"/>
	<path id="path44" fill="#036998" d="M413.538,49.956l41.289-41.431"/>
	<path id="path46" fill="none" stroke="#FFFFFF" stroke-width="3.9999" d="M413.538,49.956l41.289-41.431"/>
	<path id="path48" fill="#036998" d="M413.538,157.485H91.184"/>
	<path id="path50" fill="none" stroke="#FFFFFF" stroke-width="3.9999" d="M413.538,157.485H91.184"/>
	<path id="path52" fill="#036998" d="M454.827,116.494l-41.289,41.431"/>
	<path id="path54" fill="none" stroke="#FFFFFF" stroke-width="3.9999" d="M454.827,116.494l-41.289,41.431"/>
	<path id="path56" fill="#036998" d="M550.002,0l-6.338,31.274l-113.076,73.472l-5.742-58.364L550.002,0"/>
	<path id="path58" fill="none" stroke="#FFFFFF" stroke-width="3.9999" d="M550.002,0l-6.338,31.274l-113.076,73.472l-5.742-58.364
		L550.002,0z"/>
</g>
</svg>
