<?xml version="1.0" encoding="utf-8"?>
<!-- Generator: Adobe Illustrator 16.0.0, SVG Export Plug-In . SVG Version: 6.00 Build 0)  -->
<!DOCTYPE svg PUBLIC "-//W3C//DTD SVG 1.1//EN" "http://www.w3.org/Graphics/SVG/1.1/DTD/svg11.dtd">
<svg version="1.1"
	 id="svg2" xmlns:dc="http://purl.org/dc/elements/1.1/" xmlns:cc="http://creativecommons.org/ns#" xmlns:rdf="http://www.w3.org/1999/02/22-rdf-syntax-ns#" xmlns:svg="http://www.w3.org/2000/svg"
	 xmlns="http://www.w3.org/2000/svg" xmlns:xlink="http://www.w3.org/1999/xlink" x="0px" y="0px" width="57px" height="77px"
	 viewBox="0 0 57 77" enable-background="new 0 0 57 77" xml:space="preserve">
<g id="g12" transform="scale(0.1,0.1)">
	<path id="path22" fill="#026C9B" d="M560.002,667.563V-10l-97.568,92.432v677.573L560.002,667.563"/>
	<path id="path24" fill="none" stroke="#FFFFFF" stroke-width="4" d="M560.002,667.563V-10l-97.568,92.432v677.573L560.002,667.563z
		"/>
	<path id="path26" fill="#026C9B" d="M560.002-10l-97.568,92.432H-9.998L112.366-10H560.002"/>
	<path id="path28" fill="none" stroke="#FFFFFF" stroke-width="4" d="M560.002-10l-97.568,92.432H-9.998L112.366-10H560.002z"/>
	<path id="path30" fill="#026C9B" d="M-9.998,549.243h472.432V82.432H-9.998V549.243z"/>
	<path id="path32" fill="none" stroke="#FFFFFF" stroke-width="4" d="M-9.998,549.243h472.432V82.432H-9.998V549.243z"/>
	<path id="path34" fill="#026C9B" d="M-9.998,760.005h472.432V553.911H-9.998V760.005z"/>
	<path id="path36" fill="none" stroke="#FFFFFF" stroke-width="4" d="M-9.998,760.005h472.432V553.911H-9.998V760.005z"/>
	<path id="path38" fill="#FFFFFF" d="M184.143,260.396l-71.885-71.807l12.139-12.129l-45.146-9.087l9.102,45.098l12.266-12.256
		l71.904,71.792L184.143,260.396"/>
	<path id="path40" fill="#FFFFFF" d="M157.834,307.407H56.184v-17.109L17.805,315.63l38.379,25.469v-17.246h101.65V307.407"/>
	<path id="path42" fill="#FFFFFF" d="M172.522,359.243l-71.904,71.933l-12.266-12.402l-9.102,45.117l45.146-9.121l-12.139-12.109
		l71.885-71.797L172.522,359.243"/>
	<path id="path44" fill="#FFFFFF" d="M219.573,385.512v101.543h-17.266l25.498,38.34l25.361-38.34h-17.266V385.512H219.573"/>
	<path id="path46" fill="#FFFFFF" d="M219.573,248.687V147.153h-17.266l25.498-38.345l25.361,38.345h-17.266v101.533H219.573"/>
	<path id="path48" fill="#FFFFFF" d="M271.467,370.864l71.875,71.797l-12.139,12.109l45.156,9.121l-9.365-45.117l-12.148,12.402
		l-71.768-71.933L271.467,370.864"/>
	<path id="path50" fill="#FFFFFF" d="M297.649,323.853H399.29v17.246l38.389-25.469l-38.389-25.332v17.109H297.649V323.853"/>
	<path id="path52" fill="#FFFFFF" d="M283.079,272.007l71.768-71.792l12.148,12.256l9.365-45.098l-45.156,9.087l12.158,12.129
		l-71.895,71.807L283.079,272.007"/>
	<path id="path54" fill="#FFFFFF" d="M290.09,401.509c48.047-33.398,59.59-99.492,26.152-147.466
		c-33.682-47.861-99.707-59.507-147.764-25.996c-47.9,33.521-59.57,99.624-26.006,147.603
		C176.028,423.637,242.19,435.161,290.09,401.509"/>
	<path id="path56" fill="none" stroke="#026C9B" stroke-width="4" d="M290.09,401.509c48.047-33.398,59.59-99.492,26.152-147.466
		c-33.682-47.861-99.707-59.507-147.764-25.996c-47.9,33.521-59.57,99.624-26.006,147.603
		C176.028,423.637,242.19,435.161,290.09,401.509z"/>
	<path id="path58" fill="#FFFFFF" d="M235.842,618.559h17.324l-25.361-38.32l-25.498,38.32h17.207v79.883H202.19l25.361,38.359
		l25.488-38.359h-17.197V618.559"/>
	<path id="path60" fill="#FFFFFF" d="M104.436,618.559h17.334l-25.508-38.32l-25.371,38.32h17.09v79.883H70.647l25.498,38.359
		l25.498-38.359h-17.207V618.559"/>
	<path id="path62" fill="#FFFFFF" d="M361.497,618.559h17.334l-25.488-38.32l-25.518,38.32h17.217v79.883h-17.334l25.498,38.359
		l25.498-38.359h-17.207V618.559"/>
</g>
</svg>
