<?xml version="1.0" encoding="utf-8"?>
<!-- Generator: Adobe Illustrator 16.0.0, SVG Export Plug-In . SVG Version: 6.00 Build 0)  -->
<!DOCTYPE svg PUBLIC "-//W3C//DTD SVG 1.1//EN" "http://www.w3.org/Graphics/SVG/1.1/DTD/svg11.dtd">
<svg version="1.1"
	 id="图层_1" xmlns:dc="http://purl.org/dc/elements/1.1/" xmlns:cc="http://creativecommons.org/ns#" xmlns:rdf="http://www.w3.org/1999/02/22-rdf-syntax-ns#"
	 xmlns="http://www.w3.org/2000/svg" xmlns:xlink="http://www.w3.org/1999/xlink" x="0px" y="0px" width="75px" height="60px"
	 viewBox="0 0 75 60" enable-background="new 0 0 75 60" xml:space="preserve">
<path fill="#00BCF2" d="M1.809,59.627c-0.747-0.371-1.346-1.053-1.657-1.881C0.045,57.462-0.003,48.82,0,29.951
	C0.003,3.67,0.014,2.546,0.274,1.973c0.329-0.725,1.354-1.631,2.066-1.83C2.68,0.05,15.129-0.001,37.655,0
	c33.339,0,34.814,0.014,35.378,0.27c0.752,0.343,1.629,1.313,1.838,2.033c0.115,0.403,0.148,8.317,0.119,28.061l-0.045,27.502
	l-0.405,0.622c-0.224,0.345-0.687,0.807-1.028,1.031l-0.625,0.404l-35.165,0.038L2.559,60L1.809,59.627L1.809,59.627z
	 M34.972,56.052c0.222-0.142,2.415-6.627,2.302-6.81c-0.043-0.07-0.309-0.127-0.592-0.127c-0.618,0-0.606-0.022-1.615,3.271
	c-0.39,1.274-0.745,2.314-0.79,2.314c-0.044,0-0.402-1.044-0.795-2.316c-1.024-3.313-1.003-3.271-1.636-3.271
	c-0.327,0-0.558,0.082-0.609,0.216c-0.099,0.256,1.976,6.574,2.21,6.729C33.664,56.207,34.739,56.2,34.972,56.052L34.972,56.052z
	 M39.379,56.052c0.131-0.082,0.191-0.912,0.223-2.974l0.039-2.86l0.939,2.768c0.518,1.52,1.036,2.861,1.15,2.977
	c0.261,0.26,0.793,0.271,1.097,0.026c0.124-0.103,0.649-1.392,1.168-2.866c0.519-1.478,0.989-2.686,1.049-2.686
	s0.124,1.272,0.146,2.831l0.041,2.831h0.515h0.515v-3.384v-3.382H45.23h-1.029l-0.811,2.132c-0.445,1.174-0.865,2.266-0.935,2.428
	c-0.097,0.231-0.274-0.127-0.845-1.691c-1.152-3.175-0.979-2.94-2.174-2.94c-0.791,0-1.035,0.053-1.104,0.232
	c-0.051,0.128-0.09,1.644-0.09,3.37c0,2.372,0.045,3.155,0.184,3.211C38.713,56.19,39.182,56.179,39.379,56.052L39.379,56.052z
	 M49.57,40.753v-0.714l-2.075-0.099c-3.155-0.15-4.188-0.459-4.627-1.384c-0.226-0.475-0.233-0.662-0.073-1.718
	c0.102-0.649,0.25-1.265,0.334-1.365c0.116-0.143,1.413-0.186,5.559-0.186c5.15,0,5.422-0.014,5.772-0.289
	c0.2-0.158,0.442-0.475,0.536-0.699c0.125-0.301,0.16-3.233,0.131-10.949l-0.04-10.54l-0.356-0.38
	c-0.195-0.208-0.592-0.444-0.883-0.524c-0.729-0.203-29.463-0.199-30.194,0c-0.298,0.083-0.712,0.352-0.92,0.599l-0.377,0.449V23.62
	v10.667l0.5,0.5l0.5,0.5h5.379c6.235,0,5.665-0.173,5.782,1.746c0.083,1.366-0.201,1.944-1.17,2.371
	c-0.638,0.281-2.994,0.588-4.534,0.588h-0.867v0.734v0.736H38.76h10.813v-0.713v0.004H49.57z M24.563,23.521v-9.559L38.723,14
	l14.158,0.037l0.037,9.522l0.038,9.521H38.759H24.563V23.521L24.563,23.521z M38.686,27.531l-0.002-3.052l-1.875-1.064
	c-1.032-0.586-2.224-1.266-2.648-1.511l-0.772-0.443l0.005,3.054l0.006,3.055l2.605,1.499c1.433,0.824,2.622,1.503,2.644,1.508
	c0.021,0,0.035-1.365,0.035-3.043L38.686,27.531L38.686,27.531z M42.376,29.004l2.485-1.431v-2.98c0-1.64-0.035-2.981-0.08-2.981
	s-1.202,0.646-2.573,1.435l-2.49,1.435l-0.002,2.978c0,1.638,0.038,2.979,0.086,2.979S41.008,29.792,42.376,29.004L42.376,29.004z
	 M41.775,22.09c1.371-0.789,2.494-1.478,2.496-1.529c0.006-0.121-4.867-2.956-5.09-2.963c-0.287-0.01-5.208,2.895-5.094,3.005
	c0.167,0.161,4.948,2.904,5.078,2.913C39.23,23.515,40.402,22.878,41.775,22.09z"/>
</svg>
