<?xml version="1.0" encoding="utf-8"?>
<!-- Generator: Adobe Illustrator 16.0.0, SVG Export Plug-In . SVG Version: 6.00 Build 0)  -->
<!DOCTYPE svg PUBLIC "-//W3C//DTD SVG 1.1//EN" "http://www.w3.org/Graphics/SVG/1.1/DTD/svg11.dtd">
<svg version="1.1"
	 id="svg2" xmlns:dc="http://purl.org/dc/elements/1.1/" xmlns:cc="http://creativecommons.org/ns#" xmlns:rdf="http://www.w3.org/1999/02/22-rdf-syntax-ns#" xmlns:svg="http://www.w3.org/2000/svg"
	 xmlns="http://www.w3.org/2000/svg" xmlns:xlink="http://www.w3.org/1999/xlink" x="0px" y="0px" width="58px" height="78px"
	 viewBox="0 0 58 78" enable-background="new 0 0 58 78" xml:space="preserve">
<g id="g12" transform="scale(0.1,0.1)">
	<path id="path14" fill="#087BBB" d="M10,770.002h497.334V273.469H10V770.002z"/>
	<path id="path16" fill="none" stroke="#FFFFFF" stroke-width="4" d="M10,770.002h497.334V273.469H10V770.002z"/>
	<path id="path18" fill="#087BBB" d="M570,707.795V211.243l-62.666,62.227v496.533L570,707.795"/>
	<path id="path20" fill="none" stroke="#FFFFFF" stroke-width="4" d="M570,707.795V211.243l-62.666,62.227v496.533L570,707.795z"/>
	<path id="path22" fill="#087BBB" d="M100.928,10.002L10,72.224h497.334L570,10.002H100.928"/>
	<path id="path24" fill="none" stroke="#FFFFFF" stroke-width="4" d="M100.928,10.002L10,72.224h497.334L570,10.002H100.928z"/>
	<path id="path26" fill="#087BBB" d="M10,273.469h497.334V72.224H10V273.469z"/>
	<path id="path28" fill="none" stroke="#FFFFFF" stroke-width="4" d="M10,273.469h497.334V72.224H10V273.469z"/>
	<path id="path30" fill="#087BBB" d="M570,211.243V10.002l-62.666,62.222v201.245L570,211.243"/>
	<path id="path32" fill="none" stroke="#FFFFFF" stroke-width="4" d="M570,211.243V10.002l-62.666,62.222v201.245L570,211.243z"/>
	<path id="path34" fill="#087BBB" d="M507.334,273.469H10"/>
	<path id="path36" fill="none" stroke="#FFFFFF" stroke-width="4" d="M507.334,273.469H10"/>
	<path id="path38" fill="#087BBB" d="M507.334,273.469L570,211.243"/>
	<path id="path40" fill="none" stroke="#FFFFFF" stroke-width="4" d="M507.334,273.469L570,211.243"/>
	<path id="path42" fill="#FFFFFF" d="M91.074,140.955h80.2V99.163h-80.2V140.955z"/>
	<path id="path44" fill="#FFFFFF" d="M354.619,140.955h80.195V99.163h-80.195V140.955z"/>
	<path id="path46" fill="#FFFFFF" d="M91.074,245.247h80.2v-41.792h-80.2V245.247z"/>
	<path id="path48" fill="#FFFFFF" d="M354.619,245.247h80.195v-41.792h-80.195V245.247z"/>
	<path id="path50" d="M145.547,120.12h246.26"/>
	<path id="path52" fill="none" stroke="#FFFFFF" stroke-width="4" d="M145.547,120.12h246.26"/>
	<path id="path54" d="M145.547,224.412h246.26"/>
	<path id="path56" fill="none" stroke="#FFFFFF" stroke-width="4" d="M145.547,224.412h246.26"/>
	<path id="path58" d="M131.177,224.412l260.63-104.292"/>
	<path id="path60" fill="none" stroke="#FFFFFF" stroke-width="4" d="M131.177,224.412l260.63-104.292"/>
	<path id="path62" d="M131.177,120.12l260.63,104.292"/>
	<path id="path64" fill="none" stroke="#FFFFFF" stroke-width="4" d="M131.177,120.12l260.63,104.292"/>
	<path id="path66" fill="#FFFFFF" d="M145.864,386.184v-42.969h7.222l-10.767-16.27l-10.762,16.27h7.329v42.969H145.864"/>
	<path id="path68" fill="#FFFFFF" d="M123.936,392.317l-30.42-30.41l5.171-5.039l-19.146-3.936l3.921,19.15l5.059-5.176l30.42,30.41
		L123.936,392.317"/>
	<path id="path70" fill="#FFFFFF" d="M112.803,412.258H69.795v-7.334l-16.26,10.879l16.26,10.645v-7.334h43.008V412.258"/>
	<path id="path72" fill="#FFFFFF" d="M118.94,434.289l-30.42,30.176l-5.059-4.951l-3.921,18.916l19.146-3.809l-5.171-5.166
		l30.42-30.4L118.94,434.289"/>
	<path id="path74" fill="#FFFFFF" d="M138.887,445.178v42.988h-7.329l10.762,16.25l10.767-16.25h-7.222v-42.988H138.887"/>
	<path id="path76" fill="#FFFFFF" d="M171.943,419.114h43.018v7.334l16.25-10.645l-16.25-10.879v7.334h-43.018V419.114"/>
	<path id="path78" fill="#FFFFFF" d="M165.693,397.317l30.425-30.41l5.161,5.176l3.818-19.15l-19.033,3.936l5.166,5.039
		l-30.415,30.41L165.693,397.317"/>
	<path id="path80" fill="#FFFFFF" d="M168.638,451.701c20.117-14.121,25.103-41.768,10.991-61.982
		c-14.097-20.097-41.88-24.961-61.992-10.879c-20.229,14.111-25.103,41.758-10.991,61.865
		C120.742,461.028,148.53,465.783,168.638,451.701"/>
	<path id="path82" fill="#FFFFFF" d="M145.864,620.813v-42.988h7.222l-10.767-16.25l-10.762,16.25h7.329v42.988H145.864"/>
	<path id="path84" fill="#FFFFFF" d="M123.936,626.946l-30.42-30.4l5.171-5.166l-19.146-3.828l3.921,19.16l5.059-5.166l30.42,30.391
		L123.936,626.946"/>
	<path id="path86" fill="#FFFFFF" d="M112.803,646.887H69.795v-7.324l-16.26,10.869l16.26,10.645v-7.09h43.008V646.887"/>
	<path id="path88" fill="#FFFFFF" d="M118.94,668.918l-30.42,30.4l-5.059-5.176l-3.921,18.926l19.146-3.818l-5.171-5.186l30.42-30.4
		L118.94,668.918"/>
	<path id="path90" fill="#FFFFFF" d="M138.887,680.031v42.998h-7.329l10.762,16.025l10.767-16.025h-7.222v-42.998H138.887"/>
	<path id="path92" fill="#FFFFFF" d="M160.815,673.664l30.415,30.4l-5.166,5.186l19.033,3.818l-3.818-18.926l-5.161,5.176
		l-30.425-30.4L160.815,673.664"/>
	<path id="path94" fill="#FFFFFF" d="M171.943,653.987h43.018v7.09l16.25-10.645l-16.25-10.869v7.324h-43.018V653.987"/>
	<path id="path96" fill="#FFFFFF" d="M168.638,686.321c20.117-14.102,25.103-41.748,10.991-61.855
		c-14.097-20.117-41.88-25.088-61.992-10.996c-20.229,14.092-25.103,41.992-10.991,62.09
		C120.742,695.656,148.53,700.422,168.638,686.321"/>
	<path id="path98" fill="#FFFFFF" d="M380.615,386.184v-42.969h7.334l-10.889-16.27l-10.645,16.27h7.324v42.969H380.615"/>
	<path id="path100" fill="#FFFFFF" d="M358.799,392.317l-30.42-30.41l4.941-5.039l-18.916-3.936l3.799,19.15l5.186-5.176l30.4,30.41
		L358.799,392.317"/>
	<path id="path102" fill="#FFFFFF" d="M347.676,412.258h-43.027v-7.334l-16.25,10.879l16.25,10.645v-7.334h43.027V412.258"/>
	<path id="path104" fill="#FFFFFF" d="M373.74,445.178v42.988h-7.324l10.645,16.25l10.889-16.25h-7.334v-42.988H373.74"/>
	<path id="path106" fill="#FFFFFF" d="M395.557,439.055l30.42,30.4l-5.166,5.166l19.15,3.809l-3.818-18.916l-5.166,4.951
		l-30.42-30.176L395.557,439.055"/>
	<path id="path108" fill="#FFFFFF" d="M406.68,419.114h43.027v7.334l16.26-10.645l-16.26-10.879v7.334H406.68V419.114"/>
	<path id="path110" fill="#FFFFFF" d="M400.557,397.317l30.42-30.41l5.166,5.176l3.818-19.15l-19.15,3.936l5.166,5.039l-30.42,30.41
		L400.557,397.317"/>
	<path id="path112" fill="#FFFFFF" d="M403.506,451.701c20.107-14.121,25.098-41.768,10.986-61.982
		c-14.102-20.097-42.012-24.961-62.109-10.879c-20.117,14.111-25.107,41.758-10.996,61.865
		C355.488,461.028,383.389,465.783,403.506,451.701"/>
	<path id="path114" fill="#FFFFFF" d="M380.615,620.813v-42.988h7.334l-10.889-16.25l-10.645,16.25h7.324v42.988H380.615"/>
	<path id="path116" fill="#FFFFFF" d="M347.676,646.887h-43.027v-7.324l-16.25,10.869l16.25,10.645v-7.09h43.027V646.887"/>
	<path id="path118" fill="#FFFFFF" d="M353.789,668.918l-30.4,30.4l-5.186-5.176l-3.799,18.926l18.916-3.818l-4.941-5.186
		l30.42-30.4L353.789,668.918"/>
	<path id="path120" fill="#FFFFFF" d="M373.74,680.031v42.998h-7.324l10.645,16.025l10.889-16.025h-7.334v-42.998H373.74"/>
	<path id="path122" fill="#FFFFFF" d="M395.557,673.664l30.42,30.4l-5.166,5.186l19.15,3.818l-3.818-18.926l-5.166,5.176
		l-30.42-30.4L395.557,673.664"/>
	<path id="path124" fill="#FFFFFF" d="M406.68,653.987h43.027v7.09l16.26-10.645l-16.26-10.869v7.324H406.68V653.987"/>
	<path id="path126" fill="#FFFFFF" d="M400.557,631.936l30.42-30.391l5.166,5.166l3.818-19.16l-19.15,3.828l5.166,5.166l-30.42,30.4
		L400.557,631.936"/>
	<path id="path128" fill="#FFFFFF" d="M403.506,686.321c20.107-14.102,25.098-41.748,10.986-61.855
		c-14.102-20.117-42.012-25.088-62.109-10.996c-20.117,14.092-25.107,41.992-10.996,62.09
		C355.488,695.656,383.389,700.422,403.506,686.321"/>
	<path id="path130" fill="none" stroke="#FFFFFF" stroke-width="10" d="M165.308,439.153l191.548,191.445"/>
	<path id="path132" fill="none" stroke="#FFFFFF" stroke-width="10" d="M161.846,630.598l197.764-197.559"/>
</g>
</svg>
