<?xml version="1.0" encoding="utf-8"?>
<!-- Generator: Adobe Illustrator 16.0.0, SVG Export Plug-In . SVG Version: 6.00 Build 0)  -->
<!DOCTYPE svg PUBLIC "-//W3C//DTD SVG 1.1//EN" "http://www.w3.org/Graphics/SVG/1.1/DTD/svg11.dtd">
<svg version="1.1"
	 id="图层_1" xmlns:dc="http://purl.org/dc/elements/1.1/" xmlns:cc="http://creativecommons.org/ns#" xmlns:rdf="http://www.w3.org/1999/02/22-rdf-syntax-ns#"
	 xmlns="http://www.w3.org/2000/svg" xmlns:xlink="http://www.w3.org/1999/xlink" x="0px" y="0px" width="75px" height="75px"
	 viewBox="0 0 75 75" enable-background="new 0 0 75 75" xml:space="preserve">
<path fill="#00BCF2" d="M4.686,3.515C2.09,3.515,0,5.606,0,8.203v44.532c0,2.597,2.09,4.687,4.687,4.687h23.438v9.375H18.75v2.344
	h-4.688v2.344h46.875V69.14h-4.687v-2.344h-9.376v-9.375h23.438c2.597,0,4.688-2.09,4.688-4.687V8.203
	c0-2.597-2.091-4.688-4.688-4.688H4.686L4.686,3.515z M4.686,8.203h65.626v44.532H4.686V8.203z M38.672,17.065l-12.744,6.446
	l12.744,7.616l13.037-7.616L38.672,17.065z M25.927,25.855v14.062l11.719,7.031V32.885L25.927,25.855z M51.709,25.927L39.99,32.959
	V47.02l11.719-7.03V25.927z"/>
</svg>
