<?xml version="1.0" encoding="utf-8"?>
<!-- Generator: Adobe Illustrator 16.0.0, SVG Export Plug-In . SVG Version: 6.00 Build 0)  -->
<!DOCTYPE svg PUBLIC "-//W3C//DTD SVG 1.1//EN" "http://www.w3.org/Graphics/SVG/1.1/DTD/svg11.dtd">
<svg version="1.1"
	 id="svg2" xmlns:dc="http://purl.org/dc/elements/1.1/" xmlns:cc="http://creativecommons.org/ns#" xmlns:rdf="http://www.w3.org/1999/02/22-rdf-syntax-ns#" xmlns:svg="http://www.w3.org/2000/svg"
	 xmlns="http://www.w3.org/2000/svg" xmlns:xlink="http://www.w3.org/1999/xlink" x="0px" y="0px" width="38px" height="75px"
	 viewBox="0 0 38 75" enable-background="new 0 0 38 75" xml:space="preserve">
<g id="g12" transform="scale(0.1,0.1)">
	<path id="path22" fill="#036998" d="M-10.002,750.005h309.248V67.368H-10.002V750.005z"/>
	<path id="path24" fill="none" stroke="#FFFFFF" stroke-width="3.9999" d="M-10.002,750.005h309.248V67.368H-10.002V750.005z"/>
	<path id="path26" fill="#036998" d="M-10.002,67.368L60.955,0h309.043l-70.742,67.368H-10.002"/>
	<path id="path28" fill="none" stroke="#FFFFFF" stroke-width="3.9999" d="M-10.002,67.368L60.955,0h309.043l-70.742,67.368H-10.002
		"/>
	<path id="path30" fill="#036998" d="M299.255,750.005l70.742-67.363V0l-70.742,67.368V750.005"/>
	<path id="path32" fill="none" stroke="#FFFFFF" stroke-width="3.9999" d="M299.255,750.005l70.742-67.363V0l-70.742,67.368V750.005
		"/>
	<path id="path34" fill="#FFFFFF" d="M103.523,553.911c0.02-1.855,0.791-15.078,14.883-36.797
		c2.803-4.453,6.406-8.164,10.039-11.504l-36.963,33.438c-3.633,3.184-7.09,7.07-10.049,11.543
		c-14.15,20.977-13.408,31.66-14.219,34.863L103.523,553.911"/>
	<path id="path36" fill="none" stroke="#036998" stroke-width="1.4101" d="M103.523,553.911c0.02-1.855,0.791-15.078,14.883-36.797
		c2.803-4.453,6.406-8.164,10.039-11.504l-36.963,33.438c-3.633,3.184-7.09,7.07-10.049,11.543
		c-14.15,20.977-13.408,31.66-14.219,34.863L103.523,553.911z"/>
	<path id="path38" fill="#FFFFFF" d="M218.972,532.993c-16.328-18.652-37.588-41.504-85.43-31.406
		c-1.748,1.328-3.398,2.5-5.098,4.023l-36.963,33.438c17.52-15.879,62.227-28.691,97.109,21.855l-23.574,20l55.127,5.02
		l19.277-70.469L218.972,532.993"/>
	<path id="path40" fill="none" stroke="#036998" stroke-width="1.4101" d="M218.972,532.993
		c-16.328-18.652-37.588-41.504-85.43-31.406c-1.748,1.328-3.398,2.5-5.098,4.023l-36.963,33.438
		c17.52-15.879,62.227-28.691,97.109,21.855l-23.574,20l55.127,5.02l19.277-70.469L218.972,532.993z"/>
	<path id="path42" fill="#FFFFFF" d="M239.646,576.177L202.8,610.024c-0.674,2.305,6.533,25.547-11.758,60.254
		c-27.48,8.066-62.227-5.234-83.916-60.781l21.045-18.613l-44.336-12.988l-26.348,75.996l22.568-21.797
		c8.447,15.352,17.91,28.398,27.9,38.555H72.312l14.6-13.574l-82.158,24.98l32.744,21.66l8.633-8.672h109.453l-0.068-0.195
		c6.455,0.098,12.813-1.172,19.082-3.906c0.381-0.234,0.811-0.508,3.252-2.715c-0.4,0.313-0.811,0.859-1.211,1.133
		c0,0,34.395-25.547,39.316-30.645C230.623,643.579,242.927,622.7,239.646,576.177"/>
	<path id="path44" fill="none" stroke="#036998" stroke-width="1.4101" d="M239.646,576.177L202.8,610.024
		c-0.674,2.305,6.533,25.547-11.758,60.254c-27.48,8.066-62.227-5.234-83.916-60.781l21.045-18.613l-44.336-12.988l-26.348,75.996
		l22.568-21.797c8.447,15.352,17.91,28.398,27.9,38.555H72.312l14.6-13.574l-82.158,24.98l32.744,21.66l8.633-8.672h109.453
		l-0.068-0.195c6.455,0.098,12.813-1.172,19.082-3.906c0.381-0.234,0.811-0.508,3.252-2.715c-0.4,0.313-0.811,0.859-1.211,1.133
		c0,0,34.395-25.547,39.316-30.645C230.623,643.579,242.927,622.7,239.646,576.177z"/>
	<path id="path46" fill="#FFFFFF" d="M131.648,454.126l29.365-26.504c-28.965-0.508-43.643,0.645-62.695,2.266
		c-9.199,34.551-17.1,55.02-26.367,78.242l30.781-27.813c21.953,20.391,49.014,25.293,71.865,14.824
		c0.693-0.605,1.387-0.977,2.041-1.602l36.973-33.457C190.046,481.391,156.648,479.477,131.648,454.126"/>
	<path id="path48" fill="none" stroke="#036998" stroke-width="1.4101" d="M131.648,454.126l29.365-26.504
		c-28.965-0.508-43.643,0.645-62.695,2.266c-9.199,34.551-17.1,55.02-26.367,78.242l30.781-27.813
		c21.953,20.391,49.014,25.293,71.865,14.824c0.693-0.605,1.387-0.977,2.041-1.602l36.973-33.457
		C190.046,481.391,156.648,479.477,131.648,454.126z"/>
	<path id="path50" fill="#FFFFFF" d="M105.613,406.723c-7.646-29.59-3.623-62.392,12.793-85.527
		c3.037-4.365,6.406-8.164,10.039-11.436L91.482,343.13c-3.633,3.291-6.992,7.09-10.049,11.445
		c-16.309,22.979-20.352,55.41-13.018,84.844L105.613,406.723"/>
	<path id="path52" fill="none" stroke="#036998" stroke-width="1.4101" d="M105.613,406.723
		c-7.646-29.59-3.623-62.392,12.793-85.527c3.037-4.365,6.406-8.164,10.039-11.436L91.482,343.13
		c-3.633,3.291-6.992,7.09-10.049,11.445c-16.309,22.979-20.352,55.41-13.018,84.844L105.613,406.723z"/>
	<path id="path54" fill="#FFFFFF" d="M178.503,308.95c-14.863-6.895-30.459-8.008-44.961-3.271
		c-1.748,1.221-3.398,2.607-5.098,4.082L91.482,343.13c16.914-15.313,38.867-18.574,59.209-9.863l-20.352,17.871l62.813-1.68
		l10.889-62.949L178.503,308.95"/>
	<path id="path56" fill="none" stroke="#036998" stroke-width="1.4101" d="M178.503,308.95c-14.863-6.895-30.459-8.008-44.961-3.271
		c-1.748,1.221-3.398,2.607-5.098,4.082L91.482,343.13c16.914-15.313,38.867-18.574,59.209-9.863l-20.352,17.871l62.813-1.68
		l10.889-62.949L178.503,308.95z"/>
	<path id="path58" fill="#FFFFFF" d="M225.583,331.343c23.291,46.592,14.59,92.978-1.836,117.412
		c-3.252,4.375-6.514,8.145-10.137,11.328l-36.973,33.457c3.652-3.359,7.002-7.148,10.049-11.523
		c30.078-44.199,12.451-88.496,3.008-117.578L225.583,331.343"/>
	<path id="path60" fill="none" stroke="#036998" stroke-width="1.4101" d="M225.583,331.343
		c23.291,46.592,14.59,92.978-1.836,117.412c-3.252,4.375-6.514,8.145-10.137,11.328l-36.973,33.457
		c3.652-3.359,7.002-7.148,10.049-11.523c30.078-44.199,12.451-88.496,3.008-117.578L225.583,331.343z"/>
	<path id="path62" fill="#FFFFFF" d="M174.597,297.612c0.693-0.605,1.387-1.064,2.041-1.689l36.973-33.379
		c-24.316,21.982-59.131,19.136-84.395-8.394l-28.984,26.235C122.585,302.622,150.808,308.442,174.597,297.612"/>
	<path id="path64" fill="none" stroke="#036998" stroke-width="1.4101" d="M174.597,297.612c0.693-0.605,1.387-1.064,2.041-1.689
		l36.973-33.379c-24.316,21.982-59.131,19.136-84.395-8.394l-28.984,26.235C122.585,302.622,150.808,308.442,174.597,297.612z"/>
	<path id="path66" fill="#FFFFFF" d="M131.667,185.737l-26.045,23.613c-7.656-29.805-3.643-62.554,12.783-85.684
		c3.037-4.375,6.406-8.257,10.039-11.528l-36.963,33.486c-3.633,3.159-6.992,7.021-10.049,11.406
		c-16.426,23.145-20.43,55.972-12.773,85.679l-26.055,23.535c18.105,0.283,35.342,0.283,62.49-2.183
		C112.205,238.154,118.484,217.988,131.667,185.737"/>
	<path id="path68" fill="none" stroke="#036998" stroke-width="1.4101" d="M131.667,185.737l-26.045,23.613
		c-7.656-29.805-3.643-62.554,12.783-85.684c3.037-4.375,6.406-8.257,10.039-11.528l-36.963,33.486
		c-3.633,3.159-6.992,7.021-10.049,11.406c-16.426,23.145-20.43,55.972-12.773,85.679l-26.055,23.535
		c18.105,0.283,35.342,0.283,62.49-2.183C112.205,238.154,118.484,217.988,131.667,185.737"/>
	<path id="path70" fill="#FFFFFF" d="M262.283,141.333l-25.938,23.535c7.686,29.897,3.789,62.905-12.598,86.25
		c-3.252,4.38-6.514,8.169-10.137,11.426l-36.973,33.379c3.652-3.281,7.002-7.07,10.049-11.445
		c16.592-23.311,20.479-56.318,12.598-86.226l-26.064,23.599c9.365-23.228,17.178-43.589,26.455-78.257
		C218.748,141.992,233.425,140.933,262.283,141.333"/>
	<path id="path72" fill="none" stroke="#036998" stroke-width="1.4101" d="M262.283,141.333l-25.938,23.535
		c7.686,29.897,3.789,62.905-12.598,86.25c-3.252,4.38-6.514,8.169-10.137,11.426l-36.973,33.379
		c3.652-3.281,7.002-7.07,10.049-11.445c16.592-23.311,20.479-56.318,12.598-86.226l-26.064,23.599
		c9.365-23.228,17.178-43.589,26.455-78.257C218.748,141.992,233.425,140.933,262.283,141.333"/>
	<path id="path74" fill="#FFFFFF" d="M284.148,105.781H160.007c-8.906-1.318-17.939-0.562-26.465,2.261
		c-1.748,1.226-3.398,2.617-5.098,4.097l-36.963,33.486c24.463-22.158,59.375-19.229,84.648,8.677l25.195-22.749h55.664
		L284.148,105.781"/>
	<path id="path76" fill="none" stroke="#036998" stroke-width="1.4101" d="M284.148,105.781H160.007
		c-8.906-1.318-17.939-0.562-26.465,2.261c-1.748,1.226-3.398,2.617-5.098,4.097l-36.963,33.486
		c24.463-22.158,59.375-19.229,84.648,8.677l25.195-22.749h55.664L284.148,105.781z"/>
</g>
</svg>
