<?xml version="1.0" encoding="utf-8"?>
<!-- Generator: Adobe Illustrator 16.0.0, SVG Export Plug-In . SVG Version: 6.00 Build 0)  -->
<!DOCTYPE svg PUBLIC "-//W3C//DTD SVG 1.1//EN" "http://www.w3.org/Graphics/SVG/1.1/DTD/svg11.dtd">
<svg version="1.1"
	 id="图层_1" xmlns:dc="http://purl.org/dc/elements/1.1/" xmlns:cc="http://creativecommons.org/ns#" xmlns:rdf="http://www.w3.org/1999/02/22-rdf-syntax-ns#"
	 xmlns="http://www.w3.org/2000/svg" xmlns:xlink="http://www.w3.org/1999/xlink" x="0px" y="0px" width="75px" height="68px"
	 viewBox="0 0 75 68" enable-background="new 0 0 75 68" xml:space="preserve">
<path fill="#00BCF2" d="M18.46,11.65c-5.163,6.842-3.807,16.55,3.03,21.714c5.529,4.178,12.937,4.067,18.304,0.261l17.853,13.484
	l5.662-7.501L45.453,26.124c2.189-6.206,0.268-13.361-5.264-17.537C33.35,3.422,23.622,4.81,18.46,11.65L18.46,11.65z M22.016,14.03
	c3.653-4.844,10.539-5.806,15.38-2.148c4.841,3.654,5.803,10.544,2.147,15.388c-3.655,4.843-10.54,5.806-15.38,2.148
	C19.323,25.762,18.36,18.873,22.016,14.03z M31.589,23.062c0.687,0.421,1.271,0.717,1.751,0.886
	c0.479,0.171,0.948,0.255,1.404,0.255c0.462,0,0.834-0.103,1.112-0.305c0.279-0.204,0.42-0.464,0.42-0.782
	c0-0.456-0.498-0.971-1.493-1.541c-0.159-0.092-0.282-0.163-0.369-0.215l-0.755-0.424c-0.734-0.415-1.278-0.887-1.634-1.409
	c-0.354-0.524-0.529-1.117-0.529-1.778c0-0.899,0.338-1.637,1.017-2.212c0.677-0.575,1.553-0.861,2.625-0.861
	c0.396,0,0.823,0.045,1.285,0.138s0.975,0.236,1.54,0.433v2.619c-0.539-0.34-1.05-0.603-1.532-0.787
	c-0.481-0.184-0.893-0.276-1.23-0.276c-0.375,0-0.671,0.081-0.887,0.241c-0.215,0.162-0.321,0.383-0.321,0.66
	c0,0.194,0.063,0.377,0.19,0.546s0.321,0.324,0.577,0.462l1.31,0.725c1.094,0.606,1.828,1.166,2.206,1.68
	c0.377,0.515,0.565,1.123,0.565,1.826c0,1.089-0.37,1.969-1.112,2.639c-0.742,0.669-1.727,1.005-2.953,1.005
	c-0.415,0-0.866-0.044-1.354-0.131c-0.486-0.087-1.023-0.224-1.608-0.408L31.589,23.062z M23.135,26.22V15.051h6.875v2.303h-4.289
	v2.018h3.672v2.289h-3.672v2.211h4.35v2.35L23.135,26.22L23.135,26.22z M4.687,0C2.09,0,0,2.092,0,4.69v44.551
	c0,2.599,2.09,4.689,4.688,4.689h23.438v9.38H18.75v2.345h-4.688V68h46.875v-2.345H56.25V63.31h-9.375v-9.38h23.438
	c2.598,0,4.688-2.091,4.688-4.69V4.69C75,2.092,72.91,0,70.313,0H4.687z M4.687,4.69h65.626v44.551H4.687V4.69z"/>
</svg>
