<?xml version="1.0" encoding="utf-8"?>
<!-- Generator: Adobe Illustrator 16.0.0, SVG Export Plug-In . SVG Version: 6.00 Build 0)  -->
<!DOCTYPE svg PUBLIC "-//W3C//DTD SVG 1.1//EN" "http://www.w3.org/Graphics/SVG/1.1/DTD/svg11.dtd">
<svg version="1.1"
	 id="svg2" xmlns:dc="http://purl.org/dc/elements/1.1/" xmlns:cc="http://creativecommons.org/ns#" xmlns:rdf="http://www.w3.org/1999/02/22-rdf-syntax-ns#" xmlns:svg="http://www.w3.org/2000/svg"
	 xmlns="http://www.w3.org/2000/svg" xmlns:xlink="http://www.w3.org/1999/xlink" x="0px" y="0px" width="78px" height="42px"
	 viewBox="0 0 78 42" enable-background="new 0 0 78 42" xml:space="preserve">
<g id="g12" transform="scale(0.1,0.1)">
	<path id="path22" fill="#026C9B" d="M11.479,379.36h568.447V195.063H11.479V379.36z"/>
	<path id="path24" fill="none" stroke="#FFFFFF" stroke-width="4" d="M11.479,379.36h568.447V195.063H11.479V379.36z"/>
	<path id="path26" fill="#026C9B" d="M10,195.942L239.634,10h530.371L579.36,195.942H10"/>
	<path id="path28" fill="none" stroke="#FFFFFF" stroke-width="4" d="M10,195.942L239.634,10h530.371L579.36,195.942H10z"/>
	<path id="path30" fill="#026C9B" d="M579.536,385.219l189.902-204.97l0.098-169.897l-190,185.308V385.219"/>
	<path id="path32" fill="none" stroke="#FFFFFF" stroke-width="4" d="M579.536,385.219l189.902-204.97l0.098-169.897l-190,185.308
		V385.219z"/>
	<path id="path34" fill="#FFFFFF" d="M343.208,147.603l-11.045,9.009H190.386l-14.116,14.116l-38.481-16.719l77.324-22.129
		l-13.682,15.723H343.208"/>
	<path id="path36" fill="#FFFFFF" d="M454.575,77.998l-11.035,9.009H301.768l-14.116,14.111l-38.403-16.719l77.241-22.046
		l-13.672,15.645H454.575"/>
	<path id="path38" fill="#FFFFFF" d="M368.188,122.949l11.035-8.989h141.855L535.2,99.844l38.32,16.719l-77.246,22.104l13.77-15.718
		H368.188"/>
	<path id="path40" fill="#FFFFFF" d="M441.841,53.413l11.035-9.063h141.777l14.121-14.121l38.477,16.724l-77.402,22.104
		l13.77-15.645H441.841"/>
	<path id="path42" d="M222.119,359.262h133.647V225.688H222.119V359.262z"/>
	<path id="path44" fill="none" stroke="#FFFFFF" stroke-width="4" d="M222.119,359.262h133.647V225.688H222.119V359.262z"/>
	<g id="g46" transform="scale(10,10)" style="font-variant:normal;font-weight:bold;font-size:15.9035px;font-family:Helvetica;-inkscape-font-specification:Helvetica-Bold;writing-mode:lr-tb;fill:#ffffff;fill-opacity:1;fill-rule:nonzero;stroke:none">
		<text transform="matrix(1.0006 0 0 1 23.7085 35.0122)">V</text>
	</g>
</g>
</svg>
