<?xml version="1.0" encoding="utf-8"?>
<!-- Generator: Adobe Illustrator 16.0.0, SVG Export Plug-In . SVG Version: 6.00 Build 0)  -->
<!DOCTYPE svg PUBLIC "-//W3C//DTD SVG 1.1//EN" "http://www.w3.org/Graphics/SVG/1.1/DTD/svg11.dtd">
<svg version="1.1"
	 id="svg2" xmlns:dc="http://purl.org/dc/elements/1.1/" xmlns:cc="http://creativecommons.org/ns#" xmlns:rdf="http://www.w3.org/1999/02/22-rdf-syntax-ns#" xmlns:svg="http://www.w3.org/2000/svg"
	 xmlns="http://www.w3.org/2000/svg" xmlns:xlink="http://www.w3.org/1999/xlink" x="0px" y="0px" width="80px" height="54px"
	 viewBox="0 0 80 54" enable-background="new 0 0 80 54" xml:space="preserve">
<g id="g12" transform="scale(0.1,0.1)">
	<path id="path22" fill="#026C9B" d="M785.005,159.639c0,82.607-172.305,149.345-385,149.345C187.305,308.984,15,242.246,15,159.639
		v219.004c0,82.598,172.305,149.512,385.005,149.512c212.695,0,385-66.914,385-149.512V159.639"/>
	<path id="path24" fill="none" stroke="#FFFFFF" stroke-width="4" d="M785.005,159.639c0,82.607-172.305,149.345-385,149.345
		C187.305,308.984,15,242.246,15,159.639v219.004c0,82.598,172.305,149.512,385.005,149.512c212.695,0,385-66.914,385-149.512
		V159.639z"/>
	<path id="path26" fill="#026C9B" d="M400.005,308.984c212.695,0,385-66.738,385-149.345C785.005,77.041,612.7,10,400.005,10
		C187.305,10,15,77.041,15,159.639C15,242.246,187.305,308.984,400.005,308.984"/>
	<path id="path28" fill="none" stroke="#FFFFFF" stroke-width="4" d="M400.005,308.984c212.695,0,385-66.738,385-149.345
		C785.005,77.041,612.7,10,400.005,10C187.305,10,15,77.041,15,159.639C15,242.246,187.305,308.984,400.005,308.984z"/>
	<path id="path30" fill="#FFFFFF" d="M312.056,101.113l31.855,47.666l-120.239,27.764l26.294-21.826L64.204,122.93l46.611-34.912
		l179.287,30.361L312.056,101.113"/>
	<path id="path32" fill="#FFFFFF" d="M481.216,216.68l-21.738-49.121l108.359-21.719l-18.789,16.875l180.898,30.801l-43.457,34.609
		l-179.648-33.584L481.216,216.68"/>
	<path id="path34" fill="#FFFFFF" d="M421.899,75.156l121.582-33.301l1.445,52.07l-30.527-5.869l-59.316,49.141l-56.504-8.242
		l61.367-48.057L421.899,75.156"/>
	<path id="path36" fill="#FFFFFF" d="M369.907,261.436l-115.703,21.699l-4.258-53.545l33.174,7.188l63.76-54.209l56.211,9.473
		l-67.832,59.258L369.907,261.436"/>
	<path id="path38" d="M314.712,503.33h175.723V327.646H314.712V503.33z"/>
	<path id="path40" fill="none" stroke="#FFFFFF" stroke-width="4" d="M314.712,503.33h175.723V327.646H314.712V503.33z"/>
	<g id="g42" transform="scale(10,10)" style="font-variant:normal;font-weight:bold;font-size:20.8995px;font-family:Helvetica;-inkscape-font-specification:Helvetica-Bold;writing-mode:lr-tb;fill:#ffffff;fill-opacity:1;fill-rule:nonzero;stroke:none">
		<text transform="matrix(1.0012 0 0 1 33.4458 49.1318)">V</text>
	</g>
</g>
</svg>
