<?xml version="1.0" encoding="utf-8"?>
<!-- Generator: Adobe Illustrator 16.0.0, SVG Export Plug-In . SVG Version: 6.00 Build 0)  -->
<!DOCTYPE svg PUBLIC "-//W3C//DTD SVG 1.1//EN" "http://www.w3.org/Graphics/SVG/1.1/DTD/svg11.dtd">
<svg version="1.1"
	 id="svg2" xmlns:dc="http://purl.org/dc/elements/1.1/" xmlns:cc="http://creativecommons.org/ns#" xmlns:rdf="http://www.w3.org/1999/02/22-rdf-syntax-ns#" xmlns:svg="http://www.w3.org/2000/svg"
	 xmlns="http://www.w3.org/2000/svg" xmlns:xlink="http://www.w3.org/1999/xlink" x="0px" y="0px" width="76px" height="78px"
	 viewBox="0 0 76 78" enable-background="new 0 0 76 78" xml:space="preserve">
<g id="g12" transform="scale(0.1,0.1)">
	<path id="path22" fill="#026C9B" d="M10.002,765.002h612.92v-625.2H10.002V765.002z"/>
	<path id="path24" fill="none" stroke="#FFFFFF" stroke-width="4" d="M10.002,765.002h612.92v-625.2H10.002V765.002z"/>
	<path id="path26" fill="#026C9B" d="M622.922,139.802H10.735l154.795-124.8h584.473v621.719l-127.08,127.705V139.802"/>
	<path id="path28" fill="none" stroke="#FFFFFF" stroke-width="4" d="M622.922,139.802H10.735l154.795-124.8h584.473v621.719
		l-127.08,127.705V139.802z"/>
	<path id="path30" fill="#026C9B" d="M622.922,139.802l127.08-124.8"/>
	<path id="path32" fill="none" stroke="#FFFFFF" stroke-width="4" d="M622.922,139.802l127.08-124.8"/>
	<path id="path34" fill="none" stroke="#FFFFFF" stroke-width="14.25" d="M543.704,639.114H409.241L227.034,271.282H106.663"/>
	<path id="path36" fill="none" stroke="#FFFFFF" stroke-width="14.25" d="M97.458,638.869h129.575l180.654-366.435h140.508"/>
	<path id="path38" fill="#FFFFFF" d="M501.956,205.081v129.97l78.252-62.314L501.956,205.081"/>
	<path id="path40" fill="none" stroke="#FFFFFF" stroke-width="1.9" d="M501.956,205.081v129.97l78.252-62.314L501.956,205.081z"/>
	<path id="path42" fill="#FFFFFF" d="M501.956,571.506v129.775l78.252-62.334L501.956,571.506"/>
	<path id="path44" fill="none" stroke="#FFFFFF" stroke-width="1.9" d="M501.956,571.506v129.775l78.252-62.334L501.956,571.506z"/>
	<path id="path46" fill="#FFFFFF" d="M124.89,337.336V207.571l-78.242,62.324L124.89,337.336"/>
	<path id="path48" fill="none" stroke="#FFFFFF" stroke-width="1.9" d="M124.89,337.336V207.571l-78.242,62.324L124.89,337.336z"/>
	<path id="path50" fill="#FFFFFF" d="M124.89,705.617V575.442l-78.242,62.725L124.89,705.617"/>
	<path id="path52" fill="none" stroke="#FFFFFF" stroke-width="1.9" d="M124.89,705.617V575.442l-78.242,62.725L124.89,705.617z"/>
	<path id="path54" fill="#026C9B" d="M203.215,564.905h238.818V325.617H203.215V564.905z"/>
	<path id="path56" fill="none" stroke="#FFFFFF" stroke-width="4" d="M203.215,564.905h238.818V325.617H203.215V564.905z"/>
	<g id="g58" transform="scale(10,10)" style="font-variant:normal;font-weight:normal;font-size:22.7623px;font-family:Helvetica;-inkscape-font-specification:Helvetica;writing-mode:lr-tb;fill:#ffffff;fill-opacity:1;fill-rule:nonzero;stroke:none">
		<text transform="matrix(0.9989 0 0 1 24.886 52.802)">V</text>
	</g>
</g>
</svg>
