<?xml version="1.0" encoding="utf-8"?>
<!-- Generator: Adobe Illustrator 16.0.0, SVG Export Plug-In . SVG Version: 6.00 Build 0)  -->
<!DOCTYPE svg PUBLIC "-//W3C//DTD SVG 1.1//EN" "http://www.w3.org/Graphics/SVG/1.1/DTD/svg11.dtd">
<svg version="1.1"
	 id="svg2" xmlns:dc="http://purl.org/dc/elements/1.1/" xmlns:cc="http://creativecommons.org/ns#" xmlns:rdf="http://www.w3.org/1999/02/22-rdf-syntax-ns#" xmlns:svg="http://www.w3.org/2000/svg"
	 xmlns="http://www.w3.org/2000/svg" xmlns:xlink="http://www.w3.org/1999/xlink" x="0px" y="0px" width="78px" height="78px"
	 viewBox="0 0 78 78" enable-background="new 0 0 78 78" xml:space="preserve">
<g id="g12" transform="scale(0.1,0.1)">
	<path id="path22" fill="#036998" d="M14.998,765.002h617.432V140.984H14.998V765.002z"/>
	<path id="path24" fill="none" stroke="#FFFFFF" stroke-width="3.9999" d="M14.998,765.002h617.432V140.984H14.998V765.002z"/>
	<path id="path26" fill="none" stroke="#FFFFFF" stroke-width="7" d="M324.509,584.69c73.535,0,132.734-59.219,132.734-132.314
		c0-72.676-59.199-131.875-132.734-131.875c-73.33,0-132.725,59.199-132.725,131.875C191.785,525.471,251.179,584.69,324.509,584.69
		z"/>
	<path id="path28" fill="none" stroke="#FFFFFF" stroke-width="7" d="M324.509,320.5h230.664"/>
	<path id="path30" fill="#FFFFFF" d="M515.349,250.54v136.562l82.676-65.547L515.349,250.54"/>
	<path id="path32" fill="none" stroke="#FFFFFF" stroke-width="2" d="M515.349,250.54v136.562l82.676-65.547L515.349,250.54z"/>
	<path id="path34" fill="none" stroke="#FFFFFF" stroke-width="7" d="M191.853,453.615V224.163"/>
	<path id="path36" fill="#FFFFFF" d="M123.303,262.571H260.71l-65.957-82.129L123.303,262.571"/>
	<path id="path38" fill="none" stroke="#FFFFFF" stroke-width="2" d="M123.303,262.571H260.71l-65.957-82.129L123.303,262.571z"/>
	<path id="path40" fill="none" stroke="#FFFFFF" stroke-width="7" d="M457.761,451.653V680.91"/>
	<path id="path42" fill="#FFFFFF" d="M527.869,639.641H390.476l66.65,82.119L527.869,639.641"/>
	<path id="path44" fill="none" stroke="#FFFFFF" stroke-width="2" d="M527.869,639.641H390.476l66.65,82.119L527.869,639.641z"/>
	<path id="path46" fill="none" stroke="#FFFFFF" stroke-width="7" d="M327.8,584.24H97.141"/>
	<path id="path48" fill="#FFFFFF" d="M133.933,652.151V515.383l-82.852,65.781L133.933,652.151"/>
	<path id="path50" fill="none" stroke="#FFFFFF" stroke-width="2" d="M133.933,652.151V515.383l-82.852,65.781L133.933,652.151z"/>
	<path id="path52" fill="#036998" d="M630.242,140.261H15.706l155.83-123.467H758.66v620.063L631.687,764.856V143.86
		L630.242,140.261"/>
	<path id="path54" fill="none" stroke="#FFFFFF" stroke-width="3.9999" d="M630.242,140.261H15.706l155.83-123.467H758.66v620.063
		L631.687,764.856V143.86L630.242,140.261z"/>
	<path id="path56" fill="#036998" d="M631.13,139.197L759.929,15.002"/>
	<path id="path58" fill="none" stroke="#FFFFFF" stroke-width="3.9999" d="M631.13,139.197L759.929,15.002"/>
	<g id="g60" transform="scale(10,10)">
		<text transform="matrix(1.0062 0 0 1 23.617 55.3772)" fill="#FFFFFF" font-family="'Arial-BoldMT'" font-size="25.5591">      </text>
		<text transform="matrix(1.0062 0 0 1 23.617 55.3772)" fill="#FFFFFF" font-family="'Arial-BoldMT'" font-size="25.5591">V</text>
		<text transform="matrix(1.0062 0 0 1 40.7722 55.3772)" fill="#FFFFFF" font-family="'Arial-BoldMT'" font-size="25.5591">     </text>
	</g>
</g>
</svg>
