<?xml version="1.0" encoding="utf-8"?>
<!-- Generator: Adobe Illustrator 16.0.0, SVG Export Plug-In . SVG Version: 6.00 Build 0)  -->
<!DOCTYPE svg PUBLIC "-//W3C//DTD SVG 1.1//EN" "http://www.w3.org/Graphics/SVG/1.1/DTD/svg11.dtd">
<svg version="1.1" id="图层_1" xmlns="http://www.w3.org/2000/svg" xmlns:xlink="http://www.w3.org/1999/xlink" x="0px" y="0px"
	 width="512px" height="512px" viewBox="0 0 512 512" enable-background="new 0 0 512 512" xml:space="preserve">
<g>
	<path fill="#33CCFF" d="M499.037,101.813c-10.847-62.461-25.838-77.337-89.152-88.42c-40.31-7.053-97.21-11.098-156.091-11.098
		c-58.363,0-112.338,3.801-151.978,10.687c-62.468,10.855-77.345,25.853-88.405,89.152c-14.663,83.819-14.884,224.882-0.48,308.031
		c10.817,62.461,25.815,77.329,89.152,88.42c40.409,7.069,97.431,11.121,156.434,11.121h0.009
		c58.218,0,112.087-3.778,151.665-10.634c62.476-10.862,77.359-25.854,88.404-89.167
		C513.266,326.071,513.464,184.977,499.037,101.813 M483.24,407.222c-9.918,56.764-19.82,66.772-75.715,76.492
		c-38.727,6.703-91.636,10.39-149,10.39h-0.009c-58.148,0-114.181-3.961-153.745-10.877c-56.786-9.947-66.795-19.865-76.469-75.715
		c-14.153-81.702-13.939-220.319,0.48-302.699c9.918-56.748,19.82-66.757,75.7-76.461c38.794-6.741,91.817-10.458,149.312-10.458
		c58.012,0,113.938,3.961,153.41,10.868c56.748,9.933,66.757,19.843,76.477,75.715C497.85,186.186,497.652,324.819,483.24,407.222"
		/>
	<path fill="#33CCFF" d="M226.611,202.645c-3.143-6.286-4.714-11.017-6.286-17.303l11.017-4.714
		c1.571,4.714,4.714,11.017,6.286,15.731h4.714c12.588,0,23.605,11.017,23.605,23.605v3.143
		c18.874,7.874,37.765,14.16,53.497,18.874c1.57,0,3.143,1.571,6.286,1.571c4.714-9.446,14.159-15.731,23.604-15.731h1.571
		c3.143-11.017,4.714-20.462,6.286-29.891h-4.715h-11.017c-1.571-3.143-18.874-67.657-89.691-67.657c-4.714,0-11.017,0-15.731,1.571
		c-36.194,4.714-53.497,20.462-64.514,37.765c17.303,12.588,36.194,23.605,55.068,33.034c-1.571,1.571,0,0,0,0L226.611,202.645z
		 M206.148,147.576l11.017-3.143c1.571,6.286,3.143,12.588,6.286,18.874l-11.017,3.143
		C210.862,161.736,207.719,153.862,206.148,147.576"/>
	<path fill="#33CCFF" d="M298.982,337.958c-3.144-3.143-3.144-7.874-3.144-11.017c0-11.018,7.874-18.874,18.874-18.874h4.714
		c6.286-11.018,11.018-22.034,15.731-31.464c-6.286-4.714-11.018-12.588-11.018-22.034c-1.57,0-3.143-1.571-6.285-1.571
		c-17.304-4.714-36.194-11.017-56.641-18.874c-4.714,6.286-11.017,9.446-18.874,9.446c-12.588,0-23.605-11.017-23.605-23.605v-6.286
		c-17.303-9.446-36.194-20.463-53.497-34.622c-6.286,18.874-4.714,36.194-4.714,37.765c0,0-75.531,3.143-86.531,58.211
		c-12.588,67.657,58.211,94.405,84.96,94.405h108.564c14.16-9.446,22.034-20.464,31.464-31.464V337.958z M287.965,284.461
		c3.144,4.714,7.874,11.017,11.018,15.731l-9.446,7.874c-4.714-4.715-7.874-11.018-12.588-15.731L287.965,284.461z M254.93,257.713
		l9.446-6.286c3.143,4.714,6.286,11.018,11.017,17.304l-9.445,6.285C262.804,268.73,259.661,263.999,254.93,257.713"/>
	<path fill="#33CCFF" d="M349.335,281.318h-3.143c-4.715,11.017-11.018,22.033-17.304,34.622c3.144,3.143,4.714,7.874,4.714,12.588
		c0,11.017-7.874,18.874-18.874,18.874c-1.57,0-3.143,0-4.714-1.571c-6.286,7.874-14.159,17.303-22.033,25.177h53.496
		c3.144,0,59.783,0,86.531-51.925c7.874-14.16,9.446-31.463,7.874-47.211c-17.303,0-37.765-1.571-62.941-6.286
		C368.226,273.461,358.781,281.318,349.335,281.318 M343.033,367.849l-14.16-14.159l7.874-7.874l14.16,14.159L343.033,367.849z"/>
	<path fill="#33CCFF" d="M374.512,252.999c22.034,3.143,42.48,4.714,58.211,4.714c-7.874-28.32-29.891-51.925-64.514-58.211
		c-1.571,9.446-3.143,20.463-6.286,31.463C369.798,235.679,374.512,243.553,374.512,252.999"/>
</g>
</svg>
