<?xml version="1.0" encoding="utf-8"?>
<!-- Generator: Adobe Illustrator 16.0.0, SVG Export Plug-In . SVG Version: 6.00 Build 0)  -->
<!DOCTYPE svg PUBLIC "-//W3C//DTD SVG 1.1//EN" "http://www.w3.org/Graphics/SVG/1.1/DTD/svg11.dtd">
<svg version="1.1"
	 id="svg2" xmlns:svg="http://www.w3.org/2000/svg" xmlns:dc="http://purl.org/dc/elements/1.1/" xmlns:cc="http://creativecommons.org/ns#" xmlns:rdf="http://www.w3.org/1999/02/22-rdf-syntax-ns#"
	 xmlns="http://www.w3.org/2000/svg" xmlns:xlink="http://www.w3.org/1999/xlink" x="0px" y="0px" width="240px" height="265px"
	 viewBox="0 0 240 265" enable-background="new 0 0 240 265" xml:space="preserve">
<g>
	
		<path id="path14" fill="none" stroke="#100F0D" stroke-width="2" stroke-linecap="round" stroke-linejoin="round" stroke-miterlimit="10" d="
		M24.281,263.998C11.347,263.998,1,252.229,1,240.459V48.229C1,36.457,11.347,26,24.281,26h191.438
		C228.643,26,239,36.457,239,48.229v192.23C239,252.23,228.643,264,215.719,264H24.281V263.998z"/>
	<g id="g24">
		<path id="path30" fill="#25285C" d="M39.191,17.723L39.191,17.723c0-0.256,0-0.38,0-0.512C39.191,7.579,47.751,0,58.295,0
			c7.848,0,14.55,4.111,17.543,10.146c1.569-1.022,3.423-1.538,5.561-1.538c5.279,0,9.557,3.725,9.701,8.477
			c7.557,0.513,13.401,7.188,13.401,12.463v1.15C104.5,36.347,97.805,42,89.385,42H44.613C36.197,42,29.5,36.347,29.5,30.698v-1.15
			C29.5,25.174,33.487,19.136,39.191,17.723L39.191,17.723"/>
		<path id="path32" fill="#FFFFFF" d="M49.031,19.78h2.995l2.996,12.715l0,0l3.136-12.715h2.999l-4.423,15.928h-3.567L49.031,19.78
			L49.031,19.78"/>
		<path id="path34" fill="#FFFFFF" d="M63.002,19.78h5.563c3.424,0,4.854,1.925,4.854,4.626c0,2.952-1.856,4.752-5.138,4.752h-2.422
			v6.55h-2.857V19.78L63.002,19.78z M65.859,27.231h1.997c1.428,0,2.854-0.772,2.854-2.7c0-1.798-0.859-2.827-3.137-2.827H65.86
			L65.859,27.231"/>
		<path id="path36" fill="#FFFFFF" d="M86.677,30.055v0.257c0,2.955-1.283,5.779-5.418,5.779c-4.421,0-5.85-2.695-5.85-8.349
			c0-5.646,1.429-8.222,5.85-8.222c4.989,0,5.418,3.343,5.418,5.011v0.26h-2.851v-0.26c0-1.538-0.575-3.209-2.566-3.08
			c-1.999,0-2.993,1.153-2.993,6.291c0,5.141,0.995,6.421,2.993,6.421c2.426,0,2.566-2.439,2.566-3.853v-0.256L86.677,30.055
			L86.677,30.055"/>
	</g>
</g>
</svg>
