<?xml version="1.0" encoding="utf-8"?>
<!-- Generator: Adobe Illustrator 16.0.0, SVG Export Plug-In . SVG Version: 6.00 Build 0)  -->
<!DOCTYPE svg PUBLIC "-//W3C//DTD SVG 1.1//EN" "http://www.w3.org/Graphics/SVG/1.1/DTD/svg11.dtd">
<svg version="1.1"
	 id="svg2" xmlns:dc="http://purl.org/dc/elements/1.1/" xmlns:cc="http://creativecommons.org/ns#" xmlns:rdf="http://www.w3.org/1999/02/22-rdf-syntax-ns#" xmlns:svg="http://www.w3.org/2000/svg"
	 xmlns="http://www.w3.org/2000/svg" xmlns:xlink="http://www.w3.org/1999/xlink" x="0px" y="0px" width="77px" height="70px"
	 viewBox="0 0 77 70" enable-background="new 0 0 77 70" xml:space="preserve">
<g id="g12" transform="scale(0.1,0.1)">
	<path id="path22" fill="#036998" d="M0,700.005l192.5-87.422H770l-192.51,87.422H0"/>
	<path id="path24" fill="none" stroke="#FFFFFF" stroke-width="3.9999" d="M0,700.005l192.5-87.422H770l-192.51,87.422H0z"/>
	<path id="path26" fill="#036998" d="M0,87.388L192.5,0v612.583L0,700.005V87.388"/>
	<path id="path28" fill="none" stroke="#FFFFFF" stroke-width="3.9999" d="M0,87.388L192.5,0v612.583L0,700.005V87.388z"/>
	<path id="path30" fill="#036998" d="M192.5,612.583H770V0H192.5V612.583z"/>
	<path id="path32" fill="none" stroke="#FFFFFF" stroke-width="3.9999" d="M192.5,612.583H770V0H192.5V612.583z"/>
	<path id="path34" fill="#036998" d="M0,87.388L192.5,0H770L577.49,87.388H0"/>
	<path id="path36" fill="none" stroke="#FFFFFF" stroke-width="3.9999" d="M0,87.388L192.5,0H770L577.49,87.388H0z"/>
	<path id="path38" fill="#036998" d="M104.956,174.995c19.805,0,34.976,32.783,34.976,78.721c0,43.691-15.171,78.691-34.976,78.691
		c-21.846,0-35.005-35-35.005-78.691C69.951,207.778,83.11,174.995,104.956,174.995"/>
	<path id="path40" fill="none" stroke="#FFFFFF" stroke-width="3.9999" d="M104.956,174.995c19.805,0,34.976,32.783,34.976,78.721
		c0,43.691-15.171,78.691-34.976,78.691c-21.846,0-35.005-35-35.005-78.691C69.951,207.778,83.11,174.995,104.956,174.995"/>
	<path id="path42" fill="#036998" d="M104.956,332.407H577.49V175H104.956V332.407z"/>
	<path id="path44" fill="none" stroke="#FFFFFF" stroke-width="3.9999" d="M104.956,174.995H577.49v157.412H104.956"/>
	<path id="path46" fill="#036998" d="M104.956,402.583c19.805,0,34.976,32.578,34.976,78.516c0,44.102-15.171,78.887-34.976,78.887
		c-21.846,0-35.005-34.785-35.005-78.887C69.951,435.161,83.11,402.583,104.956,402.583"/>
	<path id="path48" fill="none" stroke="#FFFFFF" stroke-width="3.9999" d="M104.956,402.583c19.805,0,34.976,32.578,34.976,78.516
		c0,44.102-15.171,78.887-34.976,78.887c-21.846,0-35.005-34.785-35.005-78.887C69.951,435.161,83.11,402.583,104.956,402.583"/>
	<path id="path50" fill="#036998" d="M104.956,559.985H577.49V402.583H104.956V559.985z"/>
	<path id="path52" fill="none" stroke="#FFFFFF" stroke-width="3.9999" d="M104.956,402.583H577.49v157.402H104.956"/>
	<path id="path54" d="M104.956,174.995h489.966"/>
	<path id="path56" fill="none" stroke="#FFFFFF" stroke-width="3.2001" stroke-miterlimit="1" d="M104.956,174.995h489.966"/>
	<path id="path58" d="M104.956,332.407h489.966"/>
	<path id="path60" fill="none" stroke="#FFFFFF" stroke-width="3.2001" stroke-miterlimit="1" d="M104.956,332.407h489.966"/>
	<path id="path62" d="M104.956,402.583h489.966"/>
	<path id="path64" fill="none" stroke="#FFFFFF" stroke-width="3.2001" stroke-miterlimit="1" d="M104.956,402.583h489.966"/>
	<path id="path66" d="M104.956,559.985h489.966"/>
	<path id="path68" fill="none" stroke="#FFFFFF" stroke-width="3.2001" stroke-miterlimit="1" d="M104.956,559.985h489.966"/>
	<path id="path70" fill="none" stroke="#FFFFFF" stroke-width="8" stroke-miterlimit="1" d="M135.015,256.733h297.456"/>
	<path id="path72" d="M428.018,295.376l126.992-39.453l-126.992-37.207V295.376"/>
	<path id="path74" fill="none" stroke="#FFFFFF" stroke-width="3.2001" d="M428.018,295.376l126.992-39.453l-126.992-37.207V295.376
		z"/>
	<path id="path76" d="M131.23,254.692h297.461"/>
	<path id="path78" fill="none" stroke="#FFFFFF" stroke-width="3.2001" stroke-miterlimit="1" d="M131.23,254.692h297.461"/>
	<path id="path80" fill="#FFFFFF" d="M424.229,293.149l126.973-39.434l-126.973-37.227V293.149"/>
	<path id="path82" fill="none" stroke="#FFFFFF" stroke-width="3.2001" d="M424.229,293.149l126.973-39.434l-126.973-37.227V293.149
		z"/>
	<path id="path84" fill="#FFFFFF" d="M551.973,485.356H254.521"/>
	<path id="path86" fill="none" stroke="#FFFFFF" stroke-width="8" stroke-linecap="round" d="M551.973,485.356H254.521"/>
	<path id="path88" fill="#FFFFFF" d="M259.766,445.591l-126.973,39.258l126.973,37.402V445.591"/>
	<path id="path90" fill="none" stroke="#FFFFFF" stroke-width="3.9999" d="M259.766,445.591l-126.973,39.258l126.973,37.402V445.591
		z"/>
	<path id="path92" fill="#036998" d="M577.49,87.388L770,0v612.583l-192.51,87.422V87.388"/>
	<path id="path94" fill="none" stroke="#FFFFFF" stroke-width="3.9999" d="M577.49,87.388L770,0v612.583l-192.51,87.422V87.388z"/>
	<path id="path96" fill="#036998" d="M682.637,174.995c19.619,0,34.805,32.783,34.805,78.721c0,43.691-15.186,78.691-34.805,78.691
		c-21.855,0-35.176-35-35.176-78.691C647.461,207.778,660.781,174.995,682.637,174.995"/>
	<path id="path98" fill="none" stroke="#FFFFFF" stroke-width="3.9999" d="M682.637,174.995c19.619,0,34.805,32.783,34.805,78.721
		c0,43.691-15.186,78.691-34.805,78.691c-21.855,0-35.176-35-35.176-78.691C647.461,207.778,660.781,174.995,682.637,174.995"/>
	<path id="path100" fill="#036998" d="M682.637,402.583c19.619,0,34.805,32.578,34.805,78.516c0,44.102-15.186,78.887-34.805,78.887
		c-21.855,0-35.176-34.785-35.176-78.887C647.461,435.161,660.781,402.583,682.637,402.583"/>
	<path id="path102" fill="none" stroke="#FFFFFF" stroke-width="3.9999" d="M682.637,402.583c19.619,0,34.805,32.578,34.805,78.516
		c0,44.102-15.186,78.887-34.805,78.887c-21.855,0-35.176-34.785-35.176-78.887C647.461,435.161,660.781,402.583,682.637,402.583"/>
</g>
</svg>
