<?xml version="1.0" encoding="utf-8"?>
<!-- Generator: Adobe Illustrator 16.0.0, SVG Export Plug-In . SVG Version: 6.00 Build 0)  -->
<!DOCTYPE svg PUBLIC "-//W3C//DTD SVG 1.1//EN" "http://www.w3.org/Graphics/SVG/1.1/DTD/svg11.dtd">
<svg version="1.1"
	 id="svg2" xmlns:dc="http://purl.org/dc/elements/1.1/" xmlns:cc="http://creativecommons.org/ns#" xmlns:rdf="http://www.w3.org/1999/02/22-rdf-syntax-ns#" xmlns:svg="http://www.w3.org/2000/svg"
	 xmlns="http://www.w3.org/2000/svg" xmlns:xlink="http://www.w3.org/1999/xlink" x="0px" y="0px" width="76px" height="40px"
	 viewBox="0 0 76 40" enable-background="new 0 0 76 40" xml:space="preserve">
<g id="g12" transform="scale(0.1,0.1)">
	<path id="path22" fill="#036998" d="M0.322,399.236h628.491V119.041H0.322V399.236z"/>
	<path id="path24" fill="none" stroke="#FFFFFF" stroke-width="3.9999" d="M0.322,399.236h628.491V119.041H0.322V399.236z"/>
	<path id="path26" fill="#036998" d="M628.813,119.041H0L155.474,0.427l604.531-0.43L628.813,119.041"/>
	<path id="path28" fill="none" stroke="#FFFFFF" stroke-width="3.9999" d="M628.813,119.041H0L155.474,0.427l604.531-0.43
		L628.813,119.041z"/>
	<path id="path30" fill="#036998" d="M760.005-0.002l-2.07,272.822L628.813,399.997V119.041L760.005-0.002"/>
	<path id="path32" fill="none" stroke="#FFFFFF" stroke-width="3.9999" d="M760.005-0.002l-2.07,272.822L628.813,399.997V119.041
		L760.005-0.002z"/>
	<path id="path34" fill="#FFFFFF" d="M331.821,227.527l21.387-0.02l4.912,5.02h16.572l18.398-13.418l19.727-0.029l16.992,18.74
		l18.73-0.039l20.566-18.994l17.148-0.01l14.824,16.182h17.051l6.445-12.168l49.707,30.098l-34.824,29.443l-207.578,0.273v6.729
		l-32.383,0.049c-8.105,0.225-15.117,4.912-18.296,11.807c-15.41,24.287-42.261,40.479-72.964,40.498
		c-47.837,0.068-86.548-38.994-86.548-87.187c0-47.959,38.711-87.09,86.548-87.158c30.322-0.049,56.968,15.586,72.344,39.277
		c2.979,7.5,10.342,12.773,18.896,12.773l32.344-0.029V227.527"/>
	<path id="path36" fill="none" stroke="#036998" stroke-width="3.5001" d="M331.821,227.527l21.387-0.02l4.912,5.02h16.572
		l18.398-13.418l19.727-0.029l16.992,18.74l18.73-0.039l20.566-18.994l17.148-0.01l14.824,16.182h17.051l6.445-12.168l49.707,30.098
		l-34.824,29.443l-207.578,0.273v6.729l-32.383,0.049c-8.105,0.225-15.117,4.912-18.296,11.807
		c-15.41,24.287-42.261,40.479-72.964,40.498c-47.837,0.068-86.548-38.994-86.548-87.187c0-47.959,38.711-87.09,86.548-87.158
		c30.322-0.049,56.968,15.586,72.344,39.277c2.979,7.5,10.342,12.773,18.896,12.773l32.344-0.029V227.527"/>
	<path id="path38" fill="none" stroke="#036998" stroke-width="3.5001" stroke-linejoin="round" d="M554.946,268.23l-223.066,0.254
		c-8.711,0.02-20.938,2.314-32.305,7.217c11.367,4.639,23.594,6.904,32.305,6.904"/>
	<path id="path40" fill="none" stroke="#036998" stroke-width="3.5001" stroke-linejoin="round" d="M564.595,247.781l-223.096,0.449
		c-9.844,0.029-30.557-2.031-35.322-3.818"/>
	<path id="path42" fill="#FFFFFF" d="M208.237,332.243c42.686-0.039,77.256-34.941,77.256-77.929
		c0-43.008-34.57-77.686-77.256-77.646c-42.686,0.068-77.261,35.029-77.261,77.822C130.977,297.497,165.552,332.292,208.237,332.243
		"/>
	<path id="path44" fill="none" stroke="#036998" stroke-width="3.5001" stroke-linejoin="round" d="M208.237,332.243
		c42.686-0.039,77.256-34.941,77.256-77.929c0-43.008-34.57-77.686-77.256-77.646c-42.686,0.068-77.261,35.029-77.261,77.822
		C130.977,297.497,165.552,332.292,208.237,332.243z"/>
	<path id="path46" fill="#FFFFFF" d="M163.994,274.968c11.157,0,20.327-9.072,20.327-20.517c0-11.23-9.17-20.293-20.327-20.293
		c-11.206,0.029-20.317,9.111-20.317,20.332C143.677,265.925,152.788,274.968,163.994,274.968"/>
	<path id="path48" fill="none" stroke="#036998" stroke-width="3.5001" stroke-linejoin="round" d="M163.994,274.968
		c11.157,0,20.327-9.072,20.327-20.517c0-11.23-9.17-20.293-20.327-20.293c-11.206,0.029-20.317,9.111-20.317,20.332
		C143.677,265.925,152.788,274.968,163.994,274.968z"/>
</g>
</svg>
