<?xml version="1.0" encoding="utf-8"?>
<!-- Generator: Adobe Illustrator 16.0.0, SVG Export Plug-In . SVG Version: 6.00 Build 0)  -->
<!DOCTYPE svg PUBLIC "-//W3C//DTD SVG 1.1//EN" "http://www.w3.org/Graphics/SVG/1.1/DTD/svg11.dtd">
<svg version="1.1"
	 id="svg2" xmlns:dc="http://purl.org/dc/elements/1.1/" xmlns:cc="http://creativecommons.org/ns#" xmlns:rdf="http://www.w3.org/1999/02/22-rdf-syntax-ns#" xmlns:svg="http://www.w3.org/2000/svg"
	 xmlns="http://www.w3.org/2000/svg" xmlns:xlink="http://www.w3.org/1999/xlink" x="0px" y="0px" width="78px" height="64px"
	 viewBox="0 0 78 64" enable-background="new 0 0 78 64" xml:space="preserve">
<g id="g12" transform="scale(0.1,0.1)">
	<path id="path22" fill="#087DBD" d="M10,624.997h673.154V120.334H10V624.997z"/>
	<path id="path24" fill="none" stroke="#FFFFFF" stroke-width="4" d="M10,624.997h673.154V120.334H10V624.997z"/>
	<path id="path26" fill="#087DBD" d="M770,497.995l-86.846,127.002V120.334L770,14.998V497.995"/>
	<path id="path28" fill="none" stroke="#FFFFFF" stroke-width="4" d="M770,497.995l-86.846,127.002V120.334L770,14.998V497.995z"/>
	<path id="path30" fill="#087DBD" d="M140.259,14.998H770l-86.846,105.337H10L140.259,14.998"/>
	<path id="path32" fill="none" stroke="#FFFFFF" stroke-width="4" d="M140.259,14.998H770l-86.846,105.337H10L140.259,14.998z"/>
	<path id="path34" fill="#FFFFFF" d="M644.746,389.695H74.985v12.539L35.137,380.74l39.849-22.373v12.344h569.497L644.746,389.695"
		/>
	<path id="path36" fill="#FFFFFF" d="M141.724,201.316h411.001c16.26,0,29.434,13.184,29.434,29.307v309.824
		c0,16.211-13.174,29.131-29.434,29.131H141.724c-16.23,0-29.292-12.92-29.292-29.131V230.623
		C112.432,214.5,125.493,201.316,141.724,201.316"/>
	<path id="path38" fill="none" stroke="#FFFFFF" stroke-width="3.2" d="M141.724,201.316h411.001
		c16.26,0,29.434,13.184,29.434,29.307v309.824c0,16.211-13.174,29.131-29.434,29.131H141.724c-16.23,0-29.292-12.92-29.292-29.131
		V230.623C112.432,214.5,125.493,201.316,141.724,201.316z"/>
	<path id="path40" fill="#78B4DB" d="M135.474,440.964h206.636v-206.67H135.474V440.964z"/>
	<path id="path42" fill="none" stroke="#FFFFFF" stroke-width="4.4" stroke-linecap="round" stroke-linejoin="round" d="
		M171.074,273.708h135.469"/>
	<path id="path44" fill="none" stroke="#FFFFFF" stroke-width="4.4" stroke-linecap="round" stroke-linejoin="round" d="
		M171.074,300.613h135.469"/>
	<path id="path46" fill="none" stroke="#FFFFFF" stroke-width="4.4" stroke-linecap="round" stroke-linejoin="round" d="
		M171.074,327.39h135.469"/>
	<path id="path48" fill="none" stroke="#FFFFFF" stroke-width="4.4" stroke-linecap="round" stroke-linejoin="round" d="
		M171.074,354.157h135.469"/>
	<path id="path50" fill="none" stroke="#FFFFFF" stroke-width="4.4" stroke-linecap="round" stroke-linejoin="round" d="
		M171.074,380.925h135.469"/>
	<path id="path52" fill="none" stroke="#FFFFFF" stroke-width="4.4" stroke-linecap="round" stroke-linejoin="round" d="
		M171.074,407.702h135.469"/>
	<path id="path54" fill="#78B4DB" d="M332.109,555.827h227.188v-227.51H332.109V555.827z"/>
	<path id="path56" fill="none" stroke="#FFFFFF" stroke-width="3.3" stroke-linecap="round" stroke-linejoin="round" d="
		M332.109,555.827h227.188v-227.51H332.109V555.827z"/>
	<path id="path58" fill="#FFFFFF" d="M458.086,455.993c14.365-4.639,24.854-18.047,24.854-34.229
		c0-19.941-15.977-36.211-35.947-36.211c-20.01,0-36.24,16.27-36.24,36.211c0,15.576,9.814,28.789,23.652,33.936
		c-15.498,1.025-32.295,5.41-48.896,15.615v93.613h120.381v-93.613C505.889,471.316,486.289,459.431,458.086,455.993"/>
	<path id="path60" fill="#FFFFFF" d="M640.215,461.052h-14.102v-12.598l-39.98,22.363l39.98,21.484v-12.539h14.102v107.402h18.975
		V461.052H640.215"/>
	<path id="path62" fill="#100F0D" d="M420.264,471.55c-1.963,2.246-1.465,5.674,0.791,7.383c2.236,1.943,5.41,1.455,7.354-0.781
		c1.729-2.236,1.465-5.41-0.771-7.363C425.4,469.079,421.973,469.314,420.264,471.55"/>
	<path id="path64" fill="none" stroke="#231F20" stroke-width="2" stroke-linejoin="round" d="M380.703,446.306
		c4.902,8.027,17.246,18.672,28.75,25.293c7.891,4.385,13.721,5.898,16.172,4.883"/>
	<path id="path66" fill="#100F0D" d="M392.188,433.689c0,6.504-5.195,11.709-11.563,11.709c-6.504,0-11.699-5.205-11.699-11.709
		c0-6.24,5.195-11.426,11.699-11.426C386.992,422.263,392.188,427.448,392.188,433.689"/>
	<path id="path68" fill="#100F0D" d="M498.271,433.689c0,6.504,5.215,11.709,11.436,11.709c6.504,0,11.699-5.205,11.699-11.709
		c0-6.24-5.195-11.426-11.699-11.426C503.486,422.263,498.271,427.448,498.271,433.689"/>
	<path id="path70" fill="#231F20" d="M444.932,345.993c0,0,71.23,2.09,71.23,71.123v12.1l-7.646-0.967l3.125-10.166
		c-0.693-67.656-66.709-66.006-66.709-66.006h0.605c0,0-62.256-3.301-66.396,63.506l2.949,12.666l-7.793,0.967v-12.1
		c0-69.033,71.24-71.123,71.24-71.123"/>
	<path id="path72" fill="none" stroke="#231F20" stroke-width="0.6" d="M444.932,345.993c0,0,71.23,2.09,71.23,71.123v12.1
		l-7.646-0.967l3.125-10.166c-0.693-67.656-66.709-66.006-66.709-66.006h0.605c0,0-62.256-3.301-66.396,63.506l2.949,12.666
		l-7.793,0.967v-12.1c0-69.033,71.24-71.123,71.24-71.123"/>
	<path id="path74" fill="#FFFFFF" d="M319.57,403.366c-3.496,0.498-6.738-1.914-7.148-5.547c-0.4-3.623,2.168-6.738,5.664-7.275
		c3.623-0.264,6.895,2.178,7.285,5.801C325.762,399.948,323.164,403.093,319.57,403.366"/>
	<path id="path76" fill="none" stroke="#231F20" stroke-width="2.5" d="M319.57,403.366c-3.496,0.498-6.738-1.914-7.148-5.547
		c-0.4-3.623,2.168-6.738,5.664-7.275c3.623-0.264,6.895,2.178,7.285,5.801C325.762,399.948,323.164,403.093,319.57,403.366z"/>
	<path id="path78" fill="#FFFFFF" d="M323.604,389.587l-11.182,13.643l-39.775-32.227l11.162-13.916L323.604,389.587"/>
	<path id="path80" fill="none" stroke="#231F20" stroke-width="2.5" d="M323.604,389.587l-11.182,13.643l-39.775-32.227
		l11.162-13.916L323.604,389.587z"/>
	<path id="path82" fill="#FFFFFF" d="M173.618,327.458c3.281-28.291,28.936-48.691,57.207-45.42
		c28.257,3.154,48.687,28.945,45.542,57.226c-3.262,28.291-28.931,48.818-57.349,45.42
		C190.747,381.531,170.313,355.74,173.618,327.458z M165.2,326.57c-3.755,32.852,19.951,62.646,52.93,66.396
		c32.983,4.023,62.788-19.727,66.519-52.832c3.73-32.832-19.971-62.754-52.817-66.513C198.867,269.88,168.94,293.601,165.2,326.57"
		/>
	<path id="path84" fill="none" stroke="#231F20" stroke-width="2.5" d="M173.618,327.458c3.281-28.291,28.936-48.691,57.207-45.42
		c28.257,3.154,48.687,28.945,45.542,57.226c-3.262,28.291-28.931,48.818-57.349,45.42
		C190.747,381.531,170.313,355.74,173.618,327.458z M165.2,326.57c-3.755,32.852,19.951,62.646,52.93,66.396
		c32.983,4.023,62.788-19.727,66.519-52.832c3.73-32.832-19.971-62.754-52.817-66.513C198.867,269.88,168.94,293.601,165.2,326.57z"
		/>
	<path id="path86" fill="#FFFFFF" d="M180.391,322.195c3.286-28.301,28.931-48.848,57.354-45.547
		c28.271,3.271,48.691,28.945,45.4,57.353c-3.281,28.262-28.926,48.555-57.212,45.4
		C197.676,376.277,177.256,350.476,180.391,322.195z M172.119,321.169c-3.75,32.988,19.98,62.802,52.798,66.533
		c32.964,3.76,62.778-19.99,66.655-52.842c3.74-32.939-19.98-62.754-52.959-66.513C205.664,264.607,175.84,288.347,172.119,321.169"
		/>
	<path id="path88" fill="none" stroke="#231F20" stroke-width="2.5" d="M180.391,322.195c3.286-28.301,28.931-48.848,57.354-45.547
		c28.271,3.271,48.691,28.945,45.4,57.353c-3.281,28.262-28.926,48.555-57.212,45.4
		C197.676,376.277,177.256,350.476,180.391,322.195z M172.119,321.169c-3.75,32.988,19.98,62.802,52.798,66.533
		c32.964,3.76,62.778-19.99,66.655-52.842c3.74-32.939-19.98-62.754-52.959-66.513C205.664,264.607,175.84,288.347,172.119,321.169z
		"/>
	<path id="path90" fill="#78B4DB" d="M224.854,233.943V178.23H212.31l21.489-39.99l22.49,39.99h-12.588v55.332L224.854,233.943"/>
</g>
</svg>
