<?xml version="1.0" encoding="utf-8"?>
<!-- Generator: Adobe Illustrator 16.0.0, SVG Export Plug-In . SVG Version: 6.00 Build 0)  -->
<!DOCTYPE svg PUBLIC "-//W3C//DTD SVG 1.1//EN" "http://www.w3.org/Graphics/SVG/1.1/DTD/svg11.dtd">
<svg version="1.1"
	 id="svg2" xmlns:dc="http://purl.org/dc/elements/1.1/" xmlns:cc="http://creativecommons.org/ns#" xmlns:rdf="http://www.w3.org/1999/02/22-rdf-syntax-ns#" xmlns:svg="http://www.w3.org/2000/svg"
	 xmlns="http://www.w3.org/2000/svg" xmlns:xlink="http://www.w3.org/1999/xlink" x="0px" y="0px" width="56px" height="76px"
	 viewBox="0 0 56 76" enable-background="new 0 0 56 76" xml:space="preserve">
<g id="g12" transform="scale(0.1,0.1)">
	<path id="path22" fill="#087BBB" d="M0,760.005h497.344v-496.86H0V760.005z"/>
	<path id="path24" fill="none" stroke="#FFFFFF" stroke-width="4" d="M0,760.005h497.344v-496.86H0V760.005z"/>
	<path id="path26" fill="#087BBB" d="M560,697.759V201.021l-62.656,62.129v496.855L560,697.759"/>
	<path id="path28" fill="none" stroke="#FFFFFF" stroke-width="4" d="M560,697.759V201.021l-62.656,62.129v496.855L560,697.759z"/>
	<path id="path30" fill="#087BBB" d="M90.903,0L0,62.246h497.344L560,0H90.903"/>
	<path id="path32" fill="none" stroke="#FFFFFF" stroke-width="4" d="M90.903,0L0,62.246h497.344L560,0H90.903z"/>
	<path id="path34" fill="#087BBB" d="M0,263.149h497.344V62.246H0V263.149z"/>
	<path id="path36" fill="none" stroke="#FFFFFF" stroke-width="4" d="M0,263.149h497.344V62.246H0V263.149z"/>
	<path id="path38" fill="#087BBB" d="M560,201.021V0l-62.656,62.246v200.903L560,201.021"/>
	<path id="path40" fill="none" stroke="#FFFFFF" stroke-width="4" d="M560,201.021V0l-62.656,62.246v200.903L560,201.021z"/>
	<path id="path42" fill="#087BBB" d="M497.344,263.149L560,201.021"/>
	<path id="path44" fill="none" stroke="#FFFFFF" stroke-width="4" d="M497.344,263.149L560,201.021"/>
	<path id="path46" fill="#FFFFFF" d="M81.167,130.625h80.176V89.131H81.167V130.625z"/>
	<path id="path48" fill="#FFFFFF" d="M344.658,130.625h80.176V89.131h-80.176V130.625z"/>
	<path id="path50" fill="#FFFFFF" d="M81.167,234.922h80.176v-41.689H81.167V234.922z"/>
	<path id="path52" fill="#FFFFFF" d="M344.658,234.922h80.176v-41.689h-80.176V234.922z"/>
	<path id="path54" fill="#231F20" d="M135.62,109.873h246.226"/>
	<path id="path56" fill="none" stroke="#FFFFFF" stroke-width="4" d="M135.62,109.873h246.226"/>
	<path id="path58" fill="#231F20" d="M135.62,214.077h246.226"/>
	<path id="path60" fill="none" stroke="#FFFFFF" stroke-width="4" d="M135.62,214.077h246.226"/>
	<path id="path62" fill="#231F20" d="M121.265,214.077l260.581-104.204"/>
	<path id="path64" fill="none" stroke="#FFFFFF" stroke-width="4" d="M121.265,214.077l260.581-104.204"/>
	<path id="path66" fill="#231F20" d="M121.265,109.873l260.581,104.204"/>
	<path id="path68" fill="none" stroke="#FFFFFF" stroke-width="4" d="M121.265,109.873l260.581,104.204"/>
	<path id="path70" fill="#FFFFFF" d="M155.801,486.821v-41.758h7.095l-10.439-15.957l-10.454,15.957h7.08v41.758H155.801"/>
	<path id="path72" fill="#FFFFFF" d="M134.531,492.837l-29.619-29.609l4.951-5.117l-18.574-3.711l3.862,18.555l4.966-4.844
		l29.619,29.395L134.531,492.837"/>
	<path id="path74" fill="#FFFFFF" d="M123.721,512.173H81.846v-6.953l-15.84,10.449l15.84,10.449v-7.188h41.875V512.173"/>
	<path id="path76" fill="#FFFFFF" d="M129.736,533.598l-29.619,29.629l-4.966-5.098l-3.862,18.613l18.574-3.77l-4.951-5.098
		l29.619-29.609L129.736,533.598"/>
	<path id="path78" fill="#FFFFFF" d="M149.082,544.536v41.758h-7.08l10.454,15.703l10.439-15.703h-7.095v-41.758H149.082"/>
	<path id="path80" fill="#FFFFFF" d="M175.161,497.505l29.614-29.395l5.078,4.844l3.75-18.555l-18.574,3.711l4.961,5.117
		l-29.502,29.609L175.161,497.505"/>
	<path id="path82" fill="#FFFFFF" d="M178.052,550.688c19.644-13.848,24.419-40.762,10.679-60.293
		c-13.726-19.746-40.757-24.395-60.386-10.781c-19.634,13.828-24.414,40.762-10.566,60.488
		C131.387,559.634,158.452,564.555,178.052,550.688"/>
	<path id="path84" fill="#FFFFFF" d="M174.307,538.266l29.619,29.609l-5.078,5.098l18.574,3.77l-3.77-18.613l-4.932,5.098
		l-29.624-29.629L174.307,538.266"/>
	<path id="path86" fill="#FFFFFF" d="M340.381,486.821v-41.758h-6.982l10.439-15.957l10.449,15.957h-7.197v41.758H340.381"/>
	<path id="path88" fill="#FFFFFF" d="M361.768,492.837l29.629-29.609l-5.068-5.117l18.564-3.711l-3.75,18.555l-5.068-4.844
		l-29.395,29.395L361.768,492.837"/>
	<path id="path90" fill="#FFFFFF" d="M372.695,512.173h41.758v-6.953l15.713,10.449l-15.713,10.449v-7.188h-41.758V512.173"/>
	<path id="path92" fill="#FFFFFF" d="M366.68,533.598l29.395,29.629l5.068-5.098l3.75,18.613l-18.564-3.77l5.068-5.098
		l-29.629-29.609L366.68,533.598"/>
	<path id="path94" fill="#FFFFFF" d="M347.09,544.536v41.758h7.197l-10.449,15.703l-10.439-15.703h6.982v-41.758H347.09"/>
	<path id="path96" fill="#FFFFFF" d="M321.035,497.505l-29.629-29.395l-4.824,4.844l-3.896-18.555l18.711,3.711l-5.088,5.117
		l29.619,29.609L321.035,497.505"/>
	<path id="path98" fill="#FFFFFF" d="M318.145,550.688c-19.541-13.848-24.199-40.762-10.576-60.293
		c13.848-19.746,40.742-24.395,60.273-10.781c19.746,13.828,24.404,40.762,10.791,60.488
		C364.785,559.634,337.842,564.555,318.145,550.688"/>
	<path id="path100" fill="#FFFFFF" d="M322.109,538.266l-29.6,29.609l4.824,5.098l-18.447,3.77l3.75-18.613l4.951,5.098
		l29.609-29.629L322.109,538.266"/>
	<path id="path102" fill="none" stroke="#FFFFFF" stroke-width="9.734" d="M177.261,516.04H319.17"/>
	<path id="path104" fill="none" stroke="#FFFFFF" stroke-width="4" d="M258.438,515.766c0,30.41-5.205,55.02-11.719,55.02
		c-6.416,0-11.631-24.609-11.631-55.02s5.215-55.02,11.631-55.02C253.232,460.747,258.438,485.356,258.438,515.766z"/>
	<path id="path106" fill="none" stroke="#FFFFFF" stroke-width="4" stroke-dasharray="18,18" d="M48.027,668.052H446.25V355.22
		H48.027V668.052z"/>
</g>
</svg>
