<?xml version="1.0" encoding="utf-8"?>
<!-- Generator: Adobe Illustrator 16.0.0, SVG Export Plug-In . SVG Version: 6.00 Build 0)  -->
<!DOCTYPE svg PUBLIC "-//W3C//DTD SVG 1.1//EN" "http://www.w3.org/Graphics/SVG/1.1/DTD/svg11.dtd">
<svg version="1.1"
	 id="图层_1" xmlns:dc="http://purl.org/dc/elements/1.1/" xmlns:cc="http://creativecommons.org/ns#" xmlns:rdf="http://www.w3.org/1999/02/22-rdf-syntax-ns#"
	 xmlns="http://www.w3.org/2000/svg" xmlns:xlink="http://www.w3.org/1999/xlink" x="0px" y="0px" width="56px" height="76px"
	 viewBox="0 0 56 76" enable-background="new 0 0 56 76" xml:space="preserve">
<path fill="#00BCF2" d="M25.531,0.002C5.051-0.005,6.039-0.046,4.092,0.938C3.08,1.449,1.465,3.075,0.941,4.106
	c-0.958,1.89-0.92,0.899-0.92,24.825c0,15.687,0.055,22.319,0.191,22.96c0.55,2.59,2.555,4.838,5.078,5.7l1.111,0.379l21.551,0.004
	c20.383,0.004,21.606-0.012,22.545-0.305c2.634-0.821,4.831-3.277,5.332-5.963c0.107-0.58,0.17-8.109,0.17-20.538v-19.62
	l-5.829-5.769L44.346,0.01L25.531,0.002z M41.879,4.757v4.76v4.759h4.684h4.682l-0.047,18.408
	c-0.042,16.754-0.071,18.452-0.327,18.916c-0.366,0.66-0.958,1.205-1.559,1.434c-0.331,0.125-6.966,0.18-21.355,0.175
	C10.893,53.203,6.988,53.16,6.571,52.975c-0.703-0.313-1.421-1.114-1.62-1.81c-0.105-0.367-0.168-8.596-0.168-22.226
	c0-19.092,0.03-21.717,0.262-22.269c0.353-0.843,0.717-1.223,1.526-1.595c0.646-0.297,1.558-0.312,17.994-0.316L41.879,4.757z
	 M14.653,18.529v2.353c0,1.294,0.05,2.405,0.113,2.466c0.061,0.062,5.92,0.112,13.018,0.112h12.902v-2.466v-2.466H27.671
	L14.653,18.529L14.653,18.529z M14.738,27.628l-0.046,2.287c-0.026,1.258-0.012,2.386,0.037,2.509
	c0.069,0.181,2.491,0.214,12.979,0.179l12.896-0.045v-2.464v-2.466H27.671H14.738z M40.687,36.72l-12.974,0.046l-12.975,0.042
	l-0.046,2.424l-0.047,2.423h13.021h13.02v-2.468V36.72z M40.797,62.021c-0.392,0-0.734,0.055-1.023,0.166
	c-0.285,0.105-0.525,0.271-0.713,0.498c-0.191,0.228-0.334,0.521-0.43,0.878c-0.091,0.355-0.135,0.781-0.135,1.277v0.736h-1.004
	c-0.042,0-0.078,0.01-0.11,0.03c-0.032,0.016-0.059,0.05-0.079,0.096c-0.021,0.043-0.038,0.099-0.048,0.166
	c-0.013,0.067-0.017,0.152-0.017,0.254c0,0.189,0.021,0.328,0.063,0.413c0.042,0.086,0.105,0.126,0.19,0.126h1.006v6.248
	c0,0.043,0.01,0.078,0.032,0.11c0.021,0.026,0.055,0.051,0.103,0.072c0.053,0.021,0.121,0.036,0.206,0.046
	c0.085,0.012,0.19,0.019,0.317,0.019s0.232-0.007,0.317-0.019c0.084-0.01,0.149-0.023,0.197-0.046
	c0.053-0.021,0.091-0.046,0.112-0.072c0.021-0.032,0.03-0.067,0.03-0.11v-6.248h1.592c0.08,0,0.143-0.04,0.191-0.126
	c0.047-0.085,0.072-0.224,0.072-0.413c0-0.102-0.008-0.187-0.023-0.254c-0.012-0.067-0.029-0.123-0.056-0.166
	c-0.021-0.046-0.05-0.08-0.081-0.096c-0.027-0.021-0.062-0.03-0.104-0.03h-1.592V64.8c0-0.307,0.02-0.566,0.057-0.775
	c0.036-0.218,0.096-0.394,0.181-0.525c0.084-0.138,0.195-0.235,0.333-0.301c0.139-0.063,0.305-0.095,0.5-0.095
	c0.143,0,0.267,0.014,0.371,0.04c0.111,0.021,0.206,0.047,0.285,0.079c0.079,0.025,0.146,0.051,0.198,0.078
	c0.058,0.021,0.104,0.031,0.143,0.031c0.03,0,0.059-0.004,0.079-0.015c0.021-0.017,0.037-0.044,0.05-0.079
	c0.016-0.036,0.026-0.085,0.037-0.143c0.012-0.064,0.018-0.147,0.018-0.247c0-0.102-0.006-0.187-0.018-0.254
	c-0.006-0.074-0.017-0.135-0.037-0.182c-0.022-0.053-0.05-0.095-0.082-0.128c-0.031-0.03-0.095-0.064-0.189-0.102
	c-0.095-0.043-0.229-0.079-0.401-0.111C41.162,62.039,40.981,62.021,40.797,62.021z M28.195,62.107
	c-0.126,0-0.233,0.008-0.317,0.022c-0.079,0.012-0.146,0.025-0.198,0.048c-0.054,0.017-0.089,0.041-0.111,0.079
	c-0.016,0.03-0.023,0.067-0.023,0.104v4.143c-0.338-0.354-0.684-0.62-1.031-0.801c-0.345-0.185-0.724-0.277-1.14-0.277
	c-0.503,0-0.947,0.098-1.333,0.287c-0.38,0.185-0.698,0.449-0.958,0.798c-0.259,0.349-0.454,0.771-0.586,1.267
	c-0.133,0.491-0.198,1.045-0.198,1.658c0,0.518,0.052,1.01,0.157,1.48c0.105,0.464,0.272,0.871,0.498,1.22
	c0.233,0.342,0.535,0.617,0.905,0.824c0.369,0.199,0.817,0.3,1.34,0.3c0.481,0,0.921-0.113,1.324-0.341
	c0.405-0.228,0.796-0.543,1.172-0.949v0.94c0,0.043,0.011,0.078,0.032,0.11c0.021,0.031,0.054,0.061,0.101,0.081
	c0.048,0.017,0.108,0.027,0.185,0.037c0.073,0.012,0.167,0.019,0.277,0.019c0.106,0,0.196-0.007,0.271-0.019
	c0.072-0.01,0.129-0.021,0.173-0.037c0.048-0.021,0.079-0.05,0.095-0.081c0.021-0.032,0.032-0.067,0.032-0.11V62.36
	c0-0.035-0.015-0.072-0.04-0.104c-0.021-0.038-0.057-0.063-0.103-0.079c-0.049-0.022-0.114-0.036-0.199-0.048
	C28.434,62.115,28.327,62.107,28.195,62.107z M17.541,65.425c-0.275,0-0.546,0.025-0.816,0.079c-0.27,0.046-0.517,0.11-0.743,0.19
	c-0.228,0.073-0.43,0.158-0.604,0.253c-0.175,0.09-0.299,0.171-0.373,0.238c-0.069,0.068-0.112,0.144-0.134,0.223
	c-0.016,0.074-0.023,0.176-0.023,0.309c0,0.078,0.004,0.153,0.015,0.221c0.011,0.064,0.027,0.117,0.049,0.16
	c0.026,0.043,0.056,0.072,0.087,0.095c0.031,0.021,0.068,0.031,0.11,0.031c0.063,0,0.159-0.037,0.286-0.11
	c0.132-0.079,0.291-0.164,0.481-0.253c0.195-0.097,0.42-0.181,0.674-0.254c0.259-0.079,0.551-0.12,0.873-0.12
	c0.301,0,0.555,0.037,0.761,0.11c0.206,0.068,0.372,0.177,0.499,0.317c0.132,0.138,0.227,0.313,0.285,0.524
	c0.058,0.21,0.087,0.454,0.087,0.728v0.555h-0.982c-0.555,0-1.055,0.052-1.499,0.151c-0.445,0.094-0.82,0.238-1.125,0.435
	c-0.308,0.195-0.542,0.441-0.706,0.737s-0.248,0.644-0.248,1.046c0,0.342,0.06,0.647,0.175,0.918
	c0.122,0.27,0.287,0.495,0.499,0.681c0.216,0.186,0.476,0.324,0.778,0.42c0.306,0.1,0.648,0.15,1.023,0.15
	c0.427,0,0.831-0.092,1.212-0.277c0.386-0.185,0.733-0.444,1.043-0.776v0.713c0,0.063,0.019,0.111,0.055,0.143
	c0.038,0.032,0.096,0.056,0.176,0.07c0.084,0.017,0.196,0.025,0.334,0.025c0.143,0,0.25-0.011,0.324-0.025
	c0.073-0.017,0.132-0.038,0.174-0.07c0.042-0.031,0.064-0.079,0.064-0.143v-4.807c0-0.443-0.05-0.832-0.151-1.164
	c-0.1-0.333-0.262-0.609-0.484-0.83c-0.223-0.229-0.513-0.401-0.871-0.516C18.49,65.484,18.054,65.425,17.541,65.425z
	 M34.106,65.435c-0.471,0-0.907,0.078-1.315,0.236c-0.4,0.152-0.754,0.392-1.053,0.712c-0.298,0.322-0.532,0.738-0.707,1.245
	c-0.168,0.501-0.254,1.104-0.254,1.805c0,0.618,0.069,1.165,0.208,1.642c0.143,0.471,0.346,0.865,0.61,1.193
	c0.27,0.321,0.604,0.569,0.998,0.738c0.396,0.168,0.851,0.253,1.362,0.253c0.249,0,0.49-0.025,0.724-0.071
	c0.231-0.049,0.445-0.106,0.642-0.182c0.199-0.08,0.381-0.168,0.539-0.263c0.158-0.1,0.269-0.181,0.332-0.244
	c0.067-0.067,0.109-0.12,0.126-0.15c0.021-0.038,0.036-0.074,0.049-0.117c0.016-0.048,0.025-0.105,0.031-0.168
	c0.006-0.068,0.007-0.148,0.007-0.236c0-0.106-0.004-0.195-0.015-0.271c-0.006-0.078-0.02-0.144-0.042-0.19
	c-0.016-0.053-0.035-0.09-0.061-0.109c-0.026-0.021-0.062-0.031-0.097-0.031c-0.064,0-0.152,0.047-0.268,0.142
	c-0.111,0.09-0.256,0.193-0.425,0.31c-0.162,0.11-0.358,0.213-0.584,0.31c-0.229,0.095-0.493,0.144-0.794,0.144
	c-0.317,0-0.601-0.057-0.848-0.167c-0.242-0.116-0.45-0.288-0.618-0.522c-0.17-0.231-0.298-0.522-0.388-0.864
	c-0.085-0.35-0.125-0.752-0.125-1.212c0-0.919,0.164-1.618,0.497-2.098c0.339-0.484,0.822-0.729,1.45-0.729
	c0.307,0,0.57,0.045,0.793,0.134c0.228,0.085,0.42,0.182,0.578,0.286c0.16,0.104,0.288,0.202,0.39,0.291
	c0.104,0.086,0.195,0.129,0.276,0.129c0.067,0,0.127-0.041,0.175-0.12c0.047-0.085,0.07-0.23,0.07-0.437
	c0-0.095-0.001-0.172-0.007-0.236c-0.005-0.064-0.017-0.12-0.032-0.166c-0.016-0.054-0.037-0.099-0.063-0.134
	c-0.021-0.036-0.063-0.088-0.126-0.15c-0.063-0.064-0.165-0.142-0.31-0.231c-0.136-0.089-0.298-0.168-0.478-0.236
	c-0.18-0.066-0.376-0.126-0.592-0.169C34.554,65.453,34.334,65.435,34.106,65.435z M45.029,65.44c-0.401,0-0.775,0.062-1.118,0.184
	c-0.339,0.116-0.63,0.285-0.872,0.507c-0.243,0.223-0.433,0.494-0.57,0.816c-0.138,0.321-0.206,0.686-0.206,1.093
	c0,0.348,0.05,0.646,0.144,0.895c0.095,0.241,0.225,0.461,0.389,0.657c-0.194,0.199-0.36,0.429-0.492,0.683
	c-0.131,0.253-0.197,0.539-0.197,0.861c0,0.232,0.063,0.448,0.183,0.65c0.127,0.2,0.32,0.368,0.578,0.5
	c-0.169,0.133-0.319,0.266-0.452,0.402c-0.127,0.133-0.234,0.272-0.323,0.42c-0.085,0.147-0.147,0.305-0.19,0.469
	c-0.042,0.162-0.063,0.331-0.063,0.507c0,0.274,0.059,0.527,0.175,0.76c0.114,0.236,0.304,0.441,0.563,0.61
	c0.26,0.168,0.589,0.301,0.992,0.396C43.971,75.948,44.46,76,45.035,76c0.599,0,1.115-0.065,1.554-0.198
	c0.439-0.126,0.799-0.304,1.079-0.529c0.284-0.223,0.494-0.481,0.632-0.778c0.139-0.295,0.208-0.607,0.208-0.936
	c0-0.311-0.061-0.583-0.182-0.815c-0.122-0.237-0.292-0.437-0.508-0.594c-0.218-0.164-0.475-0.286-0.77-0.371
	c-0.296-0.089-0.622-0.141-0.978-0.15l-1.859-0.079c-0.285-0.01-0.518-0.076-0.691-0.197c-0.168-0.121-0.253-0.273-0.253-0.46
	c0-0.158,0.028-0.298,0.087-0.42c0.064-0.121,0.141-0.231,0.236-0.324c0.144,0.115,0.346,0.214,0.604,0.293
	c0.266,0.074,0.542,0.109,0.833,0.109c0.413,0,0.787-0.058,1.125-0.174c0.337-0.115,0.629-0.281,0.871-0.499
	c0.248-0.221,0.437-0.489,0.569-0.806c0.133-0.317,0.197-0.684,0.197-1.095c0-0.249-0.037-0.485-0.109-0.712
	c-0.074-0.232-0.203-0.444-0.389-0.635h1.024c0.079,0,0.142-0.041,0.189-0.119c0.054-0.085,0.079-0.218,0.079-0.401
	c0-0.18-0.023-0.313-0.069-0.397c-0.043-0.09-0.108-0.135-0.198-0.135H46.16c-0.164-0.042-0.342-0.073-0.53-0.096
	C45.445,65.454,45.245,65.44,45.029,65.44z M3.425,65.536c-0.122,0-0.225,0.004-0.309,0.01c-0.085,0.004-0.154,0.017-0.207,0.038
	c-0.048,0.016-0.082,0.04-0.103,0.072c-0.021,0.026-0.032,0.063-0.032,0.109c0,0.035,0.004,0.081,0.015,0.135
	s0.028,0.118,0.056,0.197l2.087,6.773c0.016,0.053,0.039,0.098,0.07,0.135c0.033,0.036,0.079,0.064,0.143,0.087
	c0.068,0.021,0.153,0.036,0.253,0.046c0.105,0.011,0.241,0.02,0.404,0.02c0.159,0,0.291-0.009,0.396-0.02
	c0.111-0.005,0.2-0.017,0.269-0.036c0.068-0.021,0.12-0.053,0.151-0.087c0.037-0.038,0.063-0.088,0.08-0.145l1.388-5.172l0.015-0.07
	l0.018,0.07l1.497,5.172c0.017,0.053,0.041,0.098,0.072,0.135c0.032,0.036,0.079,0.064,0.143,0.087
	c0.068,0.021,0.158,0.036,0.269,0.046c0.11,0.011,0.249,0.02,0.414,0.02c0.158,0,0.291-0.009,0.396-0.02
	c0.105-0.005,0.187-0.017,0.246-0.036c0.063-0.021,0.11-0.053,0.142-0.087c0.037-0.038,0.063-0.088,0.079-0.145l2.102-6.773
	c0.026-0.079,0.044-0.145,0.056-0.197c0.011-0.054,0.015-0.1,0.015-0.135c0-0.048-0.01-0.083-0.032-0.109
	c-0.016-0.027-0.048-0.052-0.096-0.072c-0.043-0.021-0.103-0.034-0.182-0.038c-0.075-0.006-0.174-0.01-0.3-0.01
	c-0.138,0-0.251,0.006-0.341,0.016c-0.085,0.006-0.154,0.02-0.207,0.04c-0.047,0.017-0.084,0.041-0.11,0.079
	c-0.021,0.031-0.037,0.072-0.046,0.118l-1.697,5.876l-0.008,0.072l-0.016-0.072l-1.706-5.89c-0.01-0.042-0.025-0.078-0.047-0.11
	c-0.021-0.032-0.057-0.057-0.104-0.071c-0.047-0.022-0.114-0.036-0.198-0.042c-0.08-0.01-0.183-0.015-0.31-0.015
	c-0.132,0-0.239,0.005-0.323,0.015c-0.08,0.006-0.143,0.021-0.189,0.042c-0.048,0.016-0.084,0.041-0.111,0.079
	c-0.021,0.03-0.039,0.071-0.048,0.117l-1.577,5.878l-0.015,0.07l-0.018-0.07l-1.72-5.878c-0.017-0.046-0.035-0.087-0.056-0.117
	c-0.021-0.038-0.055-0.064-0.102-0.079c-0.048-0.022-0.117-0.036-0.207-0.042C3.691,65.542,3.574,65.536,3.425,65.536z
	 M50.219,65.536c-0.169,0-0.307,0.006-0.41,0.016c-0.101,0.011-0.179,0.036-0.231,0.072c-0.047,0.032-0.07,0.072-0.07,0.126
	c0.007,0.047,0.027,0.107,0.07,0.184l2.102,3.35l-2.22,3.479c-0.051,0.074-0.074,0.137-0.08,0.19c0,0.046,0.021,0.087,0.064,0.118
	c0.047,0.032,0.116,0.052,0.214,0.063c0.1,0.017,0.228,0.025,0.38,0.025c0.148,0,0.266-0.006,0.356-0.019
	c0.09-0.005,0.162-0.016,0.215-0.031c0.058-0.021,0.1-0.044,0.126-0.069c0.03-0.031,0.059-0.068,0.079-0.104l1.705-2.827
	l1.712,2.827c0.021,0.035,0.046,0.072,0.072,0.104c0.03,0.025,0.071,0.05,0.125,0.069c0.059,0.017,0.13,0.026,0.222,0.031
	c0.095,0.013,0.223,0.019,0.383,0.019c0.162,0,0.296-0.011,0.396-0.025c0.105-0.011,0.183-0.028,0.231-0.063
	c0.052-0.031,0.077-0.072,0.077-0.118c0-0.054-0.021-0.115-0.063-0.19l-2.204-3.519l2.085-3.31c0.047-0.079,0.073-0.146,0.079-0.198
	c0.005-0.053-0.015-0.093-0.063-0.119c-0.048-0.03-0.121-0.054-0.223-0.064c-0.095-0.01-0.219-0.015-0.371-0.015
	c-0.145,0-0.258,0.005-0.344,0.015c-0.079,0.006-0.142,0.021-0.188,0.042c-0.043,0.016-0.078,0.037-0.105,0.063
	c-0.025,0.025-0.049,0.055-0.069,0.087l-1.65,2.653l-1.623-2.653c-0.022-0.037-0.047-0.069-0.071-0.097
	c-0.027-0.026-0.065-0.048-0.12-0.063c-0.054-0.017-0.127-0.026-0.222-0.032C50.496,65.542,50.373,65.536,50.219,65.536z
	 M45.004,66.438c0.491,0,0.87,0.138,1.135,0.411c0.27,0.27,0.404,0.647,0.404,1.133c0,0.207-0.034,0.403-0.098,0.595
	c-0.058,0.188-0.149,0.359-0.275,0.507c-0.122,0.144-0.276,0.255-0.467,0.34c-0.189,0.079-0.414,0.12-0.674,0.12
	c-0.48,0-0.858-0.136-1.126-0.404c-0.267-0.27-0.396-0.639-0.396-1.11c0-0.211,0.026-0.411,0.085-0.601
	c0.064-0.194,0.157-0.368,0.278-0.516c0.127-0.148,0.281-0.265,0.468-0.35C44.528,66.48,44.75,66.438,45.004,66.438z M25.485,66.551
	c0.359,0,0.701,0.116,1.03,0.349c0.331,0.228,0.677,0.559,1.031,0.997v2.851c-0.206,0.26-0.403,0.48-0.588,0.658
	c-0.186,0.175-0.362,0.317-0.53,0.429c-0.169,0.109-0.335,0.189-0.499,0.235c-0.159,0.047-0.325,0.071-0.498,0.071
	c-0.344,0-0.629-0.078-0.857-0.237c-0.227-0.164-0.41-0.377-0.548-0.642c-0.138-0.27-0.234-0.577-0.292-0.919
	c-0.054-0.344-0.079-0.694-0.079-1.052c0-0.34,0.03-0.672,0.096-1c0.066-0.326,0.174-0.619,0.317-0.879
	c0.148-0.259,0.339-0.465,0.571-0.623C24.869,66.63,25.15,66.551,25.485,66.551z M17.937,69.664h1.12v1.512
	c-0.322,0.358-0.632,0.624-0.927,0.799c-0.292,0.175-0.61,0.262-0.952,0.262c-0.423,0-0.754-0.105-0.991-0.323
	c-0.232-0.222-0.348-0.519-0.348-0.889c0-0.217,0.04-0.406,0.12-0.57c0.084-0.168,0.213-0.311,0.388-0.428
	c0.174-0.12,0.393-0.211,0.656-0.27C17.265,69.692,17.579,69.664,17.937,69.664z M0.867,71.333c-0.329,0-0.556,0.065-0.683,0.192
	C0.063,71.646,0,71.895,0,72.268c0,0.363,0.063,0.608,0.184,0.729c0.122,0.122,0.34,0.184,0.658,0.184
	c0.328,0,0.552-0.062,0.673-0.184c0.126-0.126,0.189-0.377,0.189-0.751c0-0.364-0.062-0.607-0.183-0.729
	C1.402,71.396,1.183,71.333,0.867,71.333z M43.961,72.596l1.846,0.062c0.427,0.011,0.766,0.102,1.014,0.27
	c0.254,0.165,0.382,0.399,0.382,0.706c0,0.178-0.039,0.35-0.112,0.513c-0.069,0.164-0.185,0.311-0.349,0.438
	c-0.165,0.126-0.381,0.227-0.65,0.301c-0.264,0.079-0.594,0.118-0.992,0.118c-0.622,0-1.108-0.09-1.457-0.269
	c-0.35-0.175-0.525-0.436-0.525-0.778c0-0.109,0.012-0.218,0.032-0.322c0.025-0.104,0.07-0.216,0.135-0.326
	c0.063-0.105,0.147-0.216,0.253-0.331C43.649,72.853,43.79,72.727,43.961,72.596z"/>
</svg>
