<?xml version="1.0" encoding="utf-8"?>
<!-- Generator: Adobe Illustrator 16.0.0, SVG Export Plug-In . SVG Version: 6.00 Build 0)  -->
<!DOCTYPE svg PUBLIC "-//W3C//DTD SVG 1.1//EN" "http://www.w3.org/Graphics/SVG/1.1/DTD/svg11.dtd">
<svg version="1.1"
	 id="图层_1" xmlns:dc="http://purl.org/dc/elements/1.1/" xmlns:cc="http://creativecommons.org/ns#" xmlns:rdf="http://www.w3.org/1999/02/22-rdf-syntax-ns#"
	 xmlns="http://www.w3.org/2000/svg" xmlns:xlink="http://www.w3.org/1999/xlink" x="0px" y="0px" width="55px" height="75px"
	 viewBox="0 0 55 75" enable-background="new 0 0 55 75" xml:space="preserve">
<path fill="#00BCF2" d="M47.498,74.78c-0.796-0.287-1.358-0.995-1.358-1.71c0-0.633,0.321-1.379,0.744-1.73
	c0.241-0.198,0.235-0.24-0.059-0.447c-0.521-0.364-0.599-1.126-0.195-1.957c0.326-0.674,0.333-0.767,0.097-1.328
	c-0.298-0.712-0.31-0.99-0.079-1.817c0.204-0.736,0.938-1.473,1.742-1.75c0.854-0.295,4.718-0.101,4.852,0.243
	c0.193,0.509-0.078,0.869-0.656,0.869h-0.556l0.23,0.664c0.396,1.15-0.087,2.47-1.135,3.092c-0.53,0.314-1.694,0.405-2.979,0.229
	c-0.346-0.047-0.427,0.021-0.47,0.394c-0.071,0.614,0.25,0.742,2.164,0.85c0.967,0.056,1.813,0.195,2.115,0.353
	c1.717,0.889,1.561,2.969-0.295,3.904c-0.605,0.307-1.006,0.373-2.171,0.362C48.703,74.989,47.807,74.894,47.498,74.78L47.498,74.78
	z M50.88,73.777c0.686-0.285,1.063-1.067,0.778-1.601c-0.27-0.506-0.843-0.677-2.259-0.677c-1.139,0-1.259,0.034-1.586,0.451
	c-0.536,0.682-0.403,1.397,0.33,1.764C48.847,74.064,50.12,74.094,50.88,73.777L50.88,73.777z M50.578,67.75
	c0.324-0.326,0.408-0.582,0.408-1.241c0-0.698-0.07-0.886-0.438-1.177c-0.608-0.478-1.583-0.46-2.168,0.042
	c-0.63,0.542-0.669,1.728-0.08,2.354C48.862,68.326,49.989,68.337,50.578,67.75L50.578,67.75z M0.733,72.003
	c-0.391-0.155-0.553-0.696-0.399-1.337c0.081-0.344,0.214-0.427,0.741-0.47c0.353-0.03,0.715,0.018,0.805,0.106
	c0.2,0.199,0.214,1.352,0.02,1.529C1.646,72.066,1.096,72.148,0.733,72.003L0.733,72.003z M17.805,71.936
	c-0.844-0.371-1.143-0.85-1.223-1.942c-0.069-0.973-0.056-1.013,0.576-1.643c0.708-0.708,1.717-1.024,3.246-1.024h0.828v-0.762
	c0-0.594-0.095-0.853-0.434-1.189c-0.392-0.392-0.523-0.424-1.392-0.346c-0.527,0.049-1.264,0.243-1.636,0.432
	c-0.765,0.391-0.887,0.345-0.887-0.345c0-0.413,0.113-0.534,0.794-0.841c1.04-0.466,3.048-0.508,3.841-0.077
	c1.007,0.545,1.125,1.003,1.187,4.589l0.055,3.216h-0.598c-0.526,0-0.599-0.048-0.599-0.417c0-0.433-0.228-0.559-0.428-0.232
	c-0.208,0.334-1.482,0.811-2.163,0.808C18.608,72.158,18.081,72.059,17.805,71.936L17.805,71.936z M20.579,70.617
	c0.521-0.349,0.572-0.46,0.619-1.336l0.051-0.955l-0.803,0.001c-2.133,0.003-3.154,1.034-2.212,2.232
	C18.694,71.146,19.758,71.17,20.579,70.617L20.579,70.617z M26.412,71.794c-1.064-0.54-1.567-1.584-1.645-3.411
	c-0.099-2.307,0.599-3.765,2.067-4.326c0.95-0.363,1.922-0.243,2.732,0.333l0.607,0.434l0.083-2.216l0.084-2.217l0.516-0.05
	c0.297-0.027,0.6,0.05,0.713,0.188c0.146,0.174,0.186,1.722,0.152,5.813l-0.044,5.577l-0.627,0.052
	c-0.621,0.052-0.626,0.048-0.626-0.574v-0.624l-0.461,0.438C28.94,72.191,27.624,72.408,26.412,71.794L26.412,71.794z
	 M28.701,70.822c0.259-0.098,0.715-0.412,1.013-0.699c0.541-0.521,0.544-0.536,0.544-2.15v-1.625L29.56,65.75
	c-0.385-0.327-0.854-0.608-1.045-0.622c-1.625-0.123-2.268,0.715-2.268,2.96c0,1.459,0.309,2.294,0.982,2.66
	C27.762,71.038,28.085,71.055,28.701,70.822L28.701,70.822z M36.094,72.009c-0.812-0.245-1.314-0.705-1.761-1.62
	c-0.377-0.77-0.447-1.136-0.447-2.312c0-1.184,0.069-1.541,0.455-2.329c0.511-1.043,1.365-1.67,2.526-1.854
	c1.371-0.221,2.919,0.538,2.919,1.429c0,0.662-0.184,0.716-0.863,0.255c-1.286-0.873-2.675-0.64-3.255,0.55
	c-0.433,0.887-0.421,3.092,0.019,3.826c0.334,0.559,1.142,1.049,1.728,1.049c0.184,0,0.762-0.226,1.286-0.503
	c0.524-0.276,0.982-0.501,1.021-0.501c0.229,0,0.019,1.162-0.257,1.41C38.759,72.045,37.158,72.331,36.094,72.009L36.094,72.009z
	 M6.138,71.888c-0.153-0.264-2.292-7.397-2.292-7.649c0-0.186,0.18-0.256,0.662-0.256h0.662L5.5,65.111
	c1.245,4.231,1.507,5.096,1.569,5.159c0.039,0.036,0.424-1.269,0.854-2.899c0.432-1.633,0.816-3.063,0.855-3.179
	c0.11-0.328,1.212-0.263,1.384,0.083c0.08,0.162,0.514,1.589,0.962,3.17c0.45,1.583,0.865,2.823,0.921,2.758
	c0.055-0.068,0.344-0.986,0.641-2.043c0.297-1.056,0.693-2.429,0.88-3.049l0.339-1.129h0.652c0.371,0,0.652,0.082,0.652,0.189
	c0,0.102-0.493,1.777-1.096,3.717c-0.602,1.942-1.133,3.661-1.181,3.822c-0.067,0.227-0.27,0.292-0.905,0.292
	c-0.613,0-0.855-0.073-0.964-0.292c-0.081-0.161-0.475-1.451-0.875-2.87c-0.401-1.418-0.765-2.469-0.809-2.338
	c-0.044,0.13-0.395,1.402-0.776,2.826l-0.697,2.59L7.06,71.971C6.598,71.996,6.182,71.96,6.138,71.888L6.138,71.888z M41.959,68.578
	v-3.427h-0.68c-0.664,0-0.678-0.01-0.627-0.541c0.049-0.495,0.107-0.55,0.681-0.597l0.626-0.051v-0.95
	c0.002-1.691,0.813-2.703,2.191-2.73c0.975-0.021,1.444,0.134,1.565,0.511c0.197,0.623-0.038,0.798-0.972,0.721
	c-1.095-0.091-1.28,0.104-1.402,1.451l-0.09,1.001l0.982,0.05c0.971,0.051,0.983,0.059,0.983,0.553c0,0.493-0.017,0.504-0.962,0.551
	l-0.961,0.051v3.418v3.416h-0.666h-0.67V68.578L41.959,68.578z M5.178,56.585c-2.479-0.844-4.449-3.056-4.99-5.6
	C0.055,50.354,0,43.837,0,28.424C0,4.917-0.037,5.889,0.905,4.034C1.419,3.019,3.006,1.424,4.001,0.92
	c1.912-0.967,0.941-0.925,21.062-0.918l18.484,0.007l5.727,5.667L55,11.346v19.279c0,12.212-0.063,19.608-0.17,20.178
	c-0.49,2.639-2.646,5.051-5.236,5.858c-0.924,0.288-2.124,0.305-22.15,0.3L6.271,56.957L5.178,56.585L5.178,56.585z M48.426,52.11
	c0.592-0.225,1.173-0.76,1.532-1.409c0.25-0.456,0.279-2.124,0.32-18.586l0.047-18.084h-4.602h-4.603V9.353v-4.68L24.114,4.677
	C7.968,4.68,7.072,4.695,6.436,4.987C5.641,5.353,5.284,5.725,4.938,6.553C4.712,7.095,4.682,9.675,4.682,28.434
	c0,13.393,0.061,21.478,0.163,21.838c0.198,0.682,0.901,1.471,1.591,1.776c0.41,0.185,4.248,0.227,21.011,0.23
	C41.583,52.285,48.102,52.233,48.426,52.11L48.426,52.11z M14.415,38.548l0.047-2.382l12.746-0.043l12.747-0.043v2.424v2.425H27.161
	H14.368L14.415,38.548L14.415,38.548z M14.451,31.856c-0.046-0.12-0.063-1.229-0.037-2.466l0.047-2.247h12.705H39.87v2.423v2.422
	l-12.667,0.043C16.899,32.066,14.519,32.034,14.451,31.856L14.451,31.856z M14.489,22.94c-0.061-0.063-0.111-1.152-0.111-2.422
	v-2.312h12.788h12.789v2.422v2.423H27.277C20.305,23.051,14.55,23.001,14.489,22.94z"/>
</svg>
