<?xml version="1.0" encoding="utf-8"?>
<!-- Generator: Adobe Illustrator 16.0.0, SVG Export Plug-In . SVG Version: 6.00 Build 0)  -->
<!DOCTYPE svg PUBLIC "-//W3C//DTD SVG 1.1//EN" "http://www.w3.org/Graphics/SVG/1.1/DTD/svg11.dtd">
<svg version="1.1"
	 id="svg2" xmlns:dc="http://purl.org/dc/elements/1.1/" xmlns:cc="http://creativecommons.org/ns#" xmlns:rdf="http://www.w3.org/1999/02/22-rdf-syntax-ns#" xmlns:svg="http://www.w3.org/2000/svg"
	 xmlns="http://www.w3.org/2000/svg" xmlns:xlink="http://www.w3.org/1999/xlink" x="0px" y="0px" width="77px" height="55px"
	 viewBox="0 0 77 55" enable-background="new 0 0 77 55" xml:space="preserve">
<g id="g12" transform="scale(0.1,0.1)">
	<path id="path14" fill="#087BBB" d="M0.002,549.995H690.5V96.304H0.002V549.995z"/>
	<path id="path16" fill="none" stroke="#FFFFFF" stroke-width="4" d="M0.002,549.995H690.5V96.304H0.002V549.995z"/>
	<path id="path18" fill="#087BBB" d="M770.002,433.686L690.5,549.995V96.304l79.502-96.299V433.686"/>
	<path id="path20" fill="none" stroke="#FFFFFF" stroke-width="4" d="M770.002,433.686L690.5,549.995V96.304l79.502-96.299V433.686z
		"/>
	<path id="path22" fill="#087BBB" d="M119.182,0.005h650.82L690.5,96.304H0.002L119.182,0.005"/>
	<path id="path24" fill="none" stroke="#FFFFFF" stroke-width="4" d="M119.182,0.005h650.82L690.5,96.304H0.002L119.182,0.005z"/>
	<path id="path26" fill="#FFFFFF" d="M564.504,317.72l80.42-0.059v18.281l-80.42,0.049l-0.02,28.682l-67.178-37.832l67.178-37.832
		L564.504,317.72"/>
	<path id="path28" fill="#FFFFFF" d="M612.581,333.833l-80.41,0.283V315.61l80.41-0.049l0.02-28.652l66.982,37.812L612.6,362.749
		L612.581,333.833"/>
	<path id="path30" fill="#FFFFFF" d="M471.653,325.805l-199.434-91.386v182.539L471.653,325.805"/>
	<path id="path32" fill="none" stroke="#FFFFFF" stroke-width="3.6" d="M471.653,325.805l-199.434-91.386v182.539L471.653,325.805z"
		/>
	<path id="path34" fill="#FFFFFF" d="M174.177,329.214l0.029,25.645l60.029-33.896l-60.029-33.916l-0.029,25.693"/>
	<path id="path36" fill="#FFFFFF" d="M79.299,329.087l103.501,0.059v-16.484l-103.501-0.049l-0.029-25.664l-60.02,33.916
		l60.02,33.896L79.299,329.087"/>
	<path id="path38" fill="#FFFFFF" d="M186.121,242.974l-14.692,21.064l68.55,6.65l-29.565-62.266l-14.868,21.055"/>
	<path id="path40" fill="#FFFFFF" d="M108.42,188.413l84.824,59.414l9.434-13.477l-84.736-59.424l14.697-21.074l-68.643-6.65
		l29.668,62.256L108.42,188.413"/>
	<path id="path42" fill="#FFFFFF" d="M186.121,401.44l-14.692-21.074l68.55-6.416l-29.565,62.031l-14.868-21.045"/>
	<path id="path44" fill="#FFFFFF" d="M108.42,456.118l84.824-59.434l9.434,13.506l-84.736,59.424l14.697,21.064l-68.643,6.65
		l29.668-62.275L108.42,456.118"/>
</g>
</svg>
