<?xml version="1.0" encoding="utf-8"?>
<!-- Generator: Adobe Illustrator 16.0.0, SVG Export Plug-In . SVG Version: 6.00 Build 0)  -->
<!DOCTYPE svg PUBLIC "-//W3C//DTD SVG 1.1//EN" "http://www.w3.org/Graphics/SVG/1.1/DTD/svg11.dtd">
<svg version="1.1" id="图层_1" xmlns="http://www.w3.org/2000/svg" xmlns:xlink="http://www.w3.org/1999/xlink" x="0px" y="0px"
	 width="512px" height="512px" viewBox="0 0 512 512" enable-background="new 0 0 512 512" xml:space="preserve">
<g>
	<path fill="#47A6E9" d="M258.246,509.247h-0.008c-59.003,0-116.025-4.052-156.434-11.121
		c-63.337-11.091-78.335-25.959-89.152-88.42c-14.404-83.149-14.183-224.212,0.48-308.031c11.06-63.299,25.937-78.297,88.405-89.152
		c39.64-6.886,93.615-10.687,151.978-10.687c58.881,0,115.781,4.045,156.091,11.098c63.313,11.083,78.305,25.959,89.151,88.42
		c14.427,83.164,14.229,224.258-0.441,308.092c-11.045,63.313-25.93,78.305-88.405,89.167
		C370.333,505.469,316.464,509.247,258.246,509.247 M253.516,17.435c-57.495,0-110.518,3.717-149.312,10.458
		c-55.88,9.704-65.782,19.713-75.7,76.461c-14.419,82.38-14.633,220.997-0.48,302.699c9.674,55.85,19.683,65.768,76.469,75.715
		c39.564,6.916,95.596,10.877,153.745,10.877h0.008c57.365,0,110.273-3.687,149-10.39c55.895-9.72,65.797-19.729,75.715-76.492
		c14.412-82.402,14.61-221.036,0.442-302.745c-9.721-55.872-19.729-65.782-76.478-75.715
		C367.454,21.396,311.528,17.435,253.516,17.435"/>
	<path fill="#47A6E9" d="M256.111,108.874v-0.114h-0.584l-0.007,0.002h-0.512v0.136l-129.007,34.191l7.539,136.607
		c0,0.907,0,18.155,5.523,28.53c27.771,52.176,93.543,83.881,114.631,93.267c0.054,0.024,0.683,0.309,1.314,0.541v0.287
		c0.129-0.003,0.312-0.055,0.505-0.115c0.225,0.065,0.434,0.115,0.58,0.117c0.005,0,0.013-0.004,0.018-0.005v-0.341
		c0.513-0.218,0.988-0.46,1.032-0.481c21.083-9.386,86.859-41.091,114.632-93.265c5.521-10.375,6.071-27.621,6.101-28.529
		l7.563-136.611L256.111,108.874z M170.864,172.243c0-3.722,3.017-6.74,6.74-6.74h64.029c3.722,0,6.74,3.017,6.74,6.74v30.329
		c0,3.722-3.017,6.74-6.74,6.74h-64.029c-3.722,0-6.74-3.017-6.74-6.74V172.243z M170.864,229.531c0-3.722,3.017-6.74,6.74-6.74
		h20.22c3.722,0,6.74,3.017,6.74,6.74v30.329c0,3.722-3.017,6.739-6.74,6.739h-20.22c-3.722,0-6.74-3.017-6.74-6.739V229.531z
		 M248.373,317.149c0,3.722-3.017,6.739-6.74,6.739h-64.029c-3.722,0-6.74-3.017-6.74-6.739V286.82c0-3.723,3.017-6.74,6.74-6.74
		h64.029c3.722,0,6.74,3.017,6.74,6.74V317.149z M224.783,266.601c-3.722,0-6.74-3.017-6.74-6.739v-30.329
		c0-3.722,3.017-6.74,6.74-6.74h60.659c3.722,0,6.739,3.017,6.739,6.74v30.329c0,3.722-3.017,6.739-6.739,6.739H224.783z
		 M339.361,317.149c0,3.722-3.018,6.739-6.74,6.739h-64.029c-3.722,0-6.74-3.017-6.74-6.739V286.82c0-3.723,3.018-6.74,6.74-6.74
		h64.029c3.722,0,6.74,3.017,6.74,6.74V317.149z M339.361,259.861c0,3.722-3.018,6.739-6.74,6.739h-20.22
		c-3.723,0-6.74-3.017-6.74-6.739v-30.329c0-3.722,3.017-6.74,6.74-6.74h20.22c3.722,0,6.74,3.017,6.74,6.74V259.861z
		 M339.361,202.572c0,3.722-3.018,6.74-6.74,6.74h-64.029c-3.722,0-6.74-3.017-6.74-6.74v-30.329c0-3.722,3.018-6.74,6.74-6.74
		h64.029c3.722,0,6.74,3.017,6.74,6.74V202.572z"/>
</g>
</svg>
