<?xml version="1.0" encoding="utf-8"?>
<!-- Generator: Adobe Illustrator 16.0.0, SVG Export Plug-In . SVG Version: 6.00 Build 0)  -->
<!DOCTYPE svg PUBLIC "-//W3C//DTD SVG 1.1//EN" "http://www.w3.org/Graphics/SVG/1.1/DTD/svg11.dtd">
<svg version="1.1"
	 id="svg2" xmlns:dc="http://purl.org/dc/elements/1.1/" xmlns:cc="http://creativecommons.org/ns#" xmlns:rdf="http://www.w3.org/1999/02/22-rdf-syntax-ns#" xmlns:svg="http://www.w3.org/2000/svg"
	 xmlns="http://www.w3.org/2000/svg" xmlns:xlink="http://www.w3.org/1999/xlink" x="0px" y="0px" width="80px" height="52px"
	 viewBox="0 0 80 52" enable-background="new 0 0 80 52" xml:space="preserve">
<g id="g12" transform="scale(0.1,0.1)">
	<path id="path22" fill="#036998" d="M784.998,156.746v203.916L597.878,509.997h-388.53L14.998,360.661V156.746"/>
	<path id="path24" fill="none" stroke="#FFFFFF" stroke-width="3.9999" d="M784.998,156.746v203.916L597.878,509.997h-388.53
		L14.998,360.661V156.746"/>
	<path id="path26" fill="#036998" d="M594.177,9.998H213.044L14.998,156.746L209.348,306.54h388.53l187.119-149.795L594.177,9.998"
		/>
	<path id="path28" fill="none" stroke="#FFFFFF" stroke-width="3.9999" d="M594.177,9.998H213.044L14.998,156.746L209.348,306.54
		h388.53l187.119-149.795L594.177,9.998z"/>
	<path id="path30" fill="#FFFFFF" d="M324.343,100.525l29.688,44.463l-112.305,25.947l24.492-20.371l-143.594-30.469l43.555-32.656
		l137.52,29.072L324.343,100.525"/>
	<path id="path32" fill="#FFFFFF" d="M482.087,208.494l-20.283-45.889l101.357-20.283l-17.461,15.762l149.814,25.654l-40.508,32.393
		L506.082,187.8L482.087,208.494"/>
	<path id="path34" fill="#FFFFFF" d="M434.744,65.359l113.457-30.957l1.406,48.555l-28.438-5.342l-55.156,45.889l-53.047-7.783
		l57.148-44.814L434.744,65.359"/>
	<path id="path36" fill="#FFFFFF" d="M365.71,260.154l-107.939,20.263l-4.072-49.97l30.947,6.738l59.414-50.781l52.607,8.984
		l-63.32,55.332L365.71,260.154"/>
	<path id="path38" fill="none" stroke="#FFFFFF" stroke-width="3.9999" d="M205.964,507.673V306.54"/>
	<path id="path40" fill="none" stroke="#FFFFFF" stroke-width="3.9999" d="M597.126,507.673V306.54"/>
</g>
</svg>
