<?xml version="1.0" encoding="utf-8"?>
<!-- Generator: Adobe Illustrator 16.0.0, SVG Export Plug-In . SVG Version: 6.00 Build 0)  -->
<!DOCTYPE svg PUBLIC "-//W3C//DTD SVG 1.1//EN" "http://www.w3.org/Graphics/SVG/1.1/DTD/svg11.dtd">
<svg version="1.1"
	 id="svg2" xmlns:dc="http://purl.org/dc/elements/1.1/" xmlns:cc="http://creativecommons.org/ns#" xmlns:rdf="http://www.w3.org/1999/02/22-rdf-syntax-ns#" xmlns:svg="http://www.w3.org/2000/svg"
	 xmlns="http://www.w3.org/2000/svg" xmlns:xlink="http://www.w3.org/1999/xlink" x="0px" y="0px" width="78px" height="80px"
	 viewBox="0 0 78 80" enable-background="new 0 0 78 80" xml:space="preserve">
<g id="g12" transform="scale(0.1,0.1)">
	<path id="path22" fill="#036998" d="M99.927,649.402l9.873-117.354h578.945l-10.078,117.354H99.927"/>
	<path id="path24" fill="none" stroke="#FFFFFF" stroke-width="3.9999" d="M99.927,649.402l9.873-117.354h578.945l-10.078,117.354
		H99.927z"/>
	<path id="path26" fill="#036998" d="M665.308,799.997v-34.346l75.527-104.043v63.398L665.308,799.997"/>
	<path id="path28" fill="none" stroke="#FFFFFF" stroke-width="3.9999" d="M665.308,799.997v-34.346l75.527-104.043v63.398
		L665.308,799.997z"/>
	<path id="path30" fill="#036998" d="M0,799.997h665.308v-34.346H0V799.997z"/>
	<path id="path32" fill="none" stroke="#FFFFFF" stroke-width="3.9999" d="M0,799.997h665.308v-34.346H0V799.997z"/>
	<path id="path34" fill="#036998" d="M103.804,529.616h574.805V97.688H103.804V529.616z"/>
	<path id="path36" fill="none" stroke="#FFFFFF" stroke-width="3.9999" d="M103.804,529.616h574.805V97.688H103.804V529.616z"/>
	<path id="path38" fill="#036998" d="M678.608,529.616l98.418-97.695V-0.002l-98.418,97.69V529.616"/>
	<path id="path40" fill="none" stroke="#FFFFFF" stroke-width="3.9999" d="M678.608,529.616l98.418-97.695V-0.002l-98.418,97.69
		V529.616z"/>
	<path id="path42" fill="#036998" d="M665.308,765.652H0l77.046-104.043h663.789L665.308,765.652"/>
	<path id="path44" fill="none" stroke="#FFFFFF" stroke-width="3.9999" d="M665.308,765.652H0l77.046-104.043h663.789
		L665.308,765.652z"/>
	<path id="path46" fill="#036998" d="M681.909,662.331V527.165l98.086-96.66v134.443L681.909,662.331"/>
	<path id="path48" fill="none" stroke="#FFFFFF" stroke-width="3.9999" d="M681.909,662.331V527.165l98.086-96.66v134.443
		L681.909,662.331z"/>
	<path id="path50" fill="#FFFFFF" d="M197.476,147.361h385.332c25.137,0,45.527,20.259,45.527,45.21v241.802
		c0,24.951-20.391,45.225-45.527,45.225H197.476c-25.132,0-45.532-20.273-45.532-45.225V192.571
		C151.943,167.62,172.344,147.361,197.476,147.361"/>
	<path id="path52" fill="#036998" d="M777.026-0.002H215.933l-112.129,97.69h574.805L777.026-0.002"/>
	<path id="path54" fill="none" stroke="#FFFFFF" stroke-width="3.9999" d="M777.026-0.002H215.933l-112.129,97.69h574.805
		L777.026-0.002z"/>
	<path id="path56" fill="#036998" d="M322.993,225.085c-70.449-13.809-107.744,21.875-101.865,52.998l0.449,1.631
		c-54.81,9.316-40.527,73.711-14.16,73.711l2.666-0.225c-6.221,44.463,59.854,70.859,93.291,45.674l2.344-2.422
		c10.547,42.002,152.539,45.605,181.016,13.77l2.48,0.781c62.168,5.215,90.488-37.598,77.012-68.34l3.281-0.859
		c21.172-5.527,23.594-54.228-12.695-61.338l0.742-1.904c15.781-31.641-21.328-61.387-73.145-55.84l-3.359-1.719
		c-36.973-33.433-143.545-27.983-156.006,4.863L322.993,225.085"/>
	<path id="path58" fill="none" stroke="#FFFFFF" stroke-width="3.9999" d="M322.993,225.085
		c-70.449-13.809-107.744,21.875-101.865,52.998l0.449,1.631c-54.81,9.316-40.527,73.711-14.16,73.711l2.666-0.225
		c-6.221,44.463,59.854,70.859,93.291,45.674l2.344-2.422c10.547,42.002,152.539,45.605,181.016,13.77l2.48,0.781
		c62.168,5.215,90.488-37.598,77.012-68.34l3.281-0.859c21.172-5.527,23.594-54.228-12.695-61.338l0.742-1.904
		c15.781-31.641-21.328-61.387-73.145-55.84l-3.359-1.719c-36.973-33.433-143.545-27.983-156.006,4.863L322.993,225.085z"/>
</g>
</svg>
