<?xml version="1.0" encoding="utf-8"?>
<!-- Generator: Adobe Illustrator 16.0.0, SVG Export Plug-In . SVG Version: 6.00 Build 0)  -->
<!DOCTYPE svg PUBLIC "-//W3C//DTD SVG 1.1//EN" "http://www.w3.org/Graphics/SVG/1.1/DTD/svg11.dtd">
<svg version="1.1"
	 id="svg2" xmlns:dc="http://purl.org/dc/elements/1.1/" xmlns:cc="http://creativecommons.org/ns#" xmlns:rdf="http://www.w3.org/1999/02/22-rdf-syntax-ns#" xmlns:svg="http://www.w3.org/2000/svg"
	 xmlns="http://www.w3.org/2000/svg" xmlns:xlink="http://www.w3.org/1999/xlink" x="0px" y="0px" width="78px" height="46px"
	 viewBox="0 0 78 46" enable-background="new 0 0 78 46" xml:space="preserve">
<g id="g12" transform="scale(0.1,0.1)">
	<path id="path22" fill="#036998" d="M482.507,328.901l-17.158,24.414H316.331l24.644-24.414H482.507"/>
	<path id="path24" fill="none" stroke="#FFFFFF" stroke-width="3.9999" d="M482.507,328.901l-17.158,24.414H316.331l24.644-24.414
		H482.507z"/>
	<path id="path26" fill="#036998" d="M316.331,379.888h142.349v-26.572H316.331V379.888z"/>
	<path id="path28" fill="none" stroke="#FFFFFF" stroke-width="3.9999" d="M316.331,379.888h142.349v-26.572H316.331V379.888z"/>
	<path id="path30" fill="#036998" d="M454.382,414.126v-8.35l18.569-25.762v15.566L454.382,414.126"/>
	<path id="path32" fill="none" stroke="#FFFFFF" stroke-width="3.9999" d="M454.382,414.126v-8.35l18.569-25.762v15.566
		L454.382,414.126z"/>
	<path id="path34" fill="#036998" d="M290.857,414.126h163.525v-8.35H290.857V414.126z"/>
	<path id="path36" fill="none" stroke="#FFFFFF" stroke-width="3.9999" d="M290.857,414.126h163.525v-8.35H290.857V414.126z"/>
	<path id="path38" fill="#036998" d="M316.331,347.417h141.406v-106.66H316.331V347.417z"/>
	<path id="path40" fill="none" stroke="#FFFFFF" stroke-width="3.9999" d="M316.331,347.417h141.406v-106.66H316.331V347.417z"/>
	<path id="path42" fill="#036998" d="M457.737,347.417l24.097-24.229V216.475l-24.097,24.282V347.417"/>
	<path id="path44" fill="none" stroke="#FFFFFF" stroke-width="3.9999" d="M457.737,347.417l24.097-24.229V216.475l-24.097,24.282
		V347.417z"/>
	<path id="path46" fill="#036998" d="M454.382,405.776H290.857l18.926-25.762h163.169L454.382,405.776"/>
	<path id="path48" fill="none" stroke="#FFFFFF" stroke-width="3.9999" d="M454.382,405.776H290.857l18.926-25.762h163.169
		L454.382,405.776z"/>
	<path id="path50" fill="#036998" d="M458.621,379.985v-26.67l23.887-23.877v26.465L458.621,379.985"/>
	<path id="path52" fill="none" stroke="#FFFFFF" stroke-width="3.9999" d="M458.621,379.985v-26.67l23.887-23.877v26.465
		L458.621,379.985z"/>
	<path id="path54" fill="#036998" d="M339.368,252.944h94.81c6.128,0,11.133,4.932,11.133,11.162v59.678
		c0,6.23-5.005,11.152-11.133,11.152h-94.81c-6.118,0-11.157-4.922-11.157-11.152v-59.678
		C328.21,257.876,333.25,252.944,339.368,252.944"/>
	<path id="path56" fill="none" stroke="#FFFFFF" stroke-width="3.9999" d="M339.368,252.944h94.81
		c6.128,0,11.133,4.932,11.133,11.162v59.678c0,6.23-5.005,11.152-11.133,11.152h-94.81c-6.118,0-11.157-4.922-11.157-11.152
		v-59.678C328.21,257.876,333.25,252.944,339.368,252.944z"/>
	<path id="path58" fill="#036998" d="M481.833,216.475h-137.9l-27.603,24.282h141.406L481.833,216.475"/>
	<path id="path60" fill="none" stroke="#FFFFFF" stroke-width="3.9999" d="M481.833,216.475h-137.9l-27.603,24.282h141.406
		L481.833,216.475z"/>
	<path id="path62" fill="#FFFFFF" d="M374.954,272.144c-17.412-3.369-26.523,5.488-25.083,13.027l0.146,0.488
		c-13.555,2.324-9.937,18.076-3.53,18.076l0.654-0.02c-1.484,11.113,14.766,17.598,23.013,11.338l0.493-0.566
		c2.573,10.449,37.554,11.289,44.517,3.34l0.596,0.244c15.449,1.201,22.246-9.209,19.033-16.826l0.869-0.313
		c5.195-1.338,5.747-13.398-3.203-15l0.234-0.654c3.711-7.676-5.293-15.039-18.037-13.682l-0.928-0.479
		c-9.16-8.145-35.278-6.846-38.33,1.279L374.954,272.144"/>
	<path id="path64" fill="#036998" d="M696.008,208.408l-17.197,24.434H529.817l24.609-24.434H696.008"/>
	<path id="path66" fill="none" stroke="#FFFFFF" stroke-width="3.9999" d="M696.008,208.408l-17.197,24.434H529.817l24.609-24.434
		H696.008z"/>
	<path id="path68" fill="#036998" d="M529.817,259.419h142.197v-26.577H529.817V259.419z"/>
	<path id="path70" fill="none" stroke="#FFFFFF" stroke-width="3.9999" d="M529.817,259.419h142.197v-26.577H529.817V259.419z"/>
	<path id="path72" fill="#036998" d="M667.874,293.911v-8.633l18.584-25.654v15.732L667.874,293.911"/>
	<path id="path74" fill="none" stroke="#FFFFFF" stroke-width="3.9999" d="M667.874,293.911v-8.633l18.584-25.654v15.732
		L667.874,293.911z"/>
	<path id="path76" fill="#036998" d="M504.216,293.911h163.657v-8.623H504.216V293.911z"/>
	<path id="path78" fill="none" stroke="#FFFFFF" stroke-width="3.9999" d="M504.216,293.911h163.657v-8.623H504.216V293.911z"/>
	<path id="path80" fill="#036998" d="M529.817,227.017h141.172V120.288H529.817V227.017z"/>
	<path id="path82" fill="none" stroke="#FFFFFF" stroke-width="3.9999" d="M529.817,227.017h141.172V120.288H529.817V227.017z"/>
	<path id="path84" fill="#036998" d="M670.989,227.017l24.346-24.18V96.104l-24.346,24.185V227.017"/>
	<path id="path86" fill="none" stroke="#FFFFFF" stroke-width="3.9999" d="M670.989,227.017l24.346-24.18V96.104l-24.346,24.185
		V227.017z"/>
	<path id="path88" fill="#036998" d="M667.874,285.278H504.216l19.038-25.654h163.203L667.874,285.278"/>
	<path id="path90" fill="none" stroke="#FFFFFF" stroke-width="3.9999" d="M667.874,285.278H504.216l19.038-25.654h163.203
		L667.874,285.278z"/>
	<path id="path92" fill="#036998" d="M671.848,259.517v-26.675l24.16-23.774v26.504L671.848,259.517"/>
	<path id="path94" fill="none" stroke="#FFFFFF" stroke-width="3.9999" d="M671.848,259.517v-26.675l24.16-23.774v26.504
		L671.848,259.517z"/>
	<path id="path96" fill="#036998" d="M552.864,132.607h94.688c6.26,0,11.182,4.971,11.182,11.157v59.746
		c0,6.152-4.922,11.108-11.182,11.108h-94.688c-6.25,0-11.182-4.956-11.182-11.108v-59.746
		C541.682,137.578,546.614,132.607,552.864,132.607"/>
	<path id="path98" fill="none" stroke="#FFFFFF" stroke-width="3.9999" d="M552.864,132.607h94.688
		c6.26,0,11.182,4.971,11.182,11.157v59.746c0,6.152-4.922,11.108-11.182,11.108h-94.688c-6.25,0-11.182-4.956-11.182-11.108
		v-59.746C541.682,137.578,546.614,132.607,552.864,132.607z"/>
	<path id="path100" fill="#036998" d="M695.334,96.104H557.395l-27.578,24.185h141.172L695.334,96.104"/>
	<path id="path102" fill="none" stroke="#FFFFFF" stroke-width="3.9999" d="M695.334,96.104H557.395l-27.578,24.185h141.172
		L695.334,96.104z"/>
	<path id="path104" fill="#FFFFFF" d="M588.323,151.792c-17.412-3.472-26.475,5.42-24.99,13.091v0.435
		c-13.369,2.261-9.883,18.193-3.477,18.193l0.586-0.01c-1.514,10.918,14.766,17.412,22.939,11.206l0.732-0.576
		c2.471,10.459,37.363,11.23,44.541,3.452l0.596,0.142c15.205,1.265,22.256-9.336,18.75-16.821l0.879-0.313
		c5.215-1.343,5.781-13.384-3.135-15.161l0.186-0.444c3.945-7.773-5.303-15.181-17.998-13.74l-0.752-0.488
		c-9.121-8.242-35.371-6.885-38.418,1.265L588.323,151.792"/>
	<path id="path106" fill="#036998" d="M283.127,199.155l-17.192,24.429H116.951l24.565-24.429H283.127"/>
	<path id="path108" fill="none" stroke="#FFFFFF" stroke-width="3.9999" d="M283.127,199.155l-17.192,24.429H116.951l24.565-24.429
		H283.127z"/>
	<path id="path110" fill="#036998" d="M116.951,250.288h142.227v-26.704H116.951V250.288z"/>
	<path id="path112" fill="none" stroke="#FFFFFF" stroke-width="3.9999" d="M116.951,250.288h142.227v-26.704H116.951V250.288z"/>
	<path id="path114" fill="#036998" d="M254.998,284.526v-8.369l18.589-25.771v15.586L254.998,284.526"/>
	<path id="path116" fill="none" stroke="#FFFFFF" stroke-width="3.9999" d="M254.998,284.526v-8.369l18.589-25.771v15.586
		L254.998,284.526z"/>
	<path id="path118" fill="#036998" d="M91.409,284.526h163.589v-8.359H91.409V284.526z"/>
	<path id="path120" fill="none" stroke="#FFFFFF" stroke-width="3.9999" d="M91.409,284.526h163.589v-8.359H91.409V284.526z"/>
	<path id="path122" fill="#036998" d="M116.951,217.759H258.23V111.03H116.951V217.759z"/>
	<path id="path124" fill="none" stroke="#FFFFFF" stroke-width="3.9999" d="M116.951,217.759H258.23V111.03H116.951V217.759z"/>
	<path id="path126" fill="#036998" d="M258.23,217.759l24.229-24.18V86.851l-24.229,24.18V217.759"/>
	<path id="path128" fill="none" stroke="#FFFFFF" stroke-width="3.9999" d="M258.23,217.759l24.229-24.18V86.851l-24.229,24.18
		V217.759z"/>
	<path id="path130" fill="#036998" d="M254.998,276.157H91.409l18.931-25.771h163.247L254.998,276.157"/>
	<path id="path132" fill="none" stroke="#FFFFFF" stroke-width="3.9999" d="M254.998,276.157H91.409l18.931-25.771h163.247
		L254.998,276.157z"/>
	<path id="path134" fill="#036998" d="M259.109,250.386v-26.802l24.019-23.779v26.484L259.109,250.386"/>
	<path id="path136" fill="none" stroke="#FFFFFF" stroke-width="3.9999" d="M259.109,250.386v-26.802l24.019-23.779v26.484
		L259.109,250.386z"/>
	<path id="path138" fill="#036998" d="M140.002,123.35h94.683c6.25,0,11.157,4.971,11.157,11.157v59.741
		c0,6.157-4.907,11.113-11.157,11.113h-94.683c-6.265,0-11.182-4.956-11.182-11.113v-59.741
		C128.821,128.32,133.738,123.35,140.002,123.35"/>
	<path id="path140" fill="none" stroke="#FFFFFF" stroke-width="3.9999" d="M140.002,123.35h94.683
		c6.25,0,11.157,4.971,11.157,11.157v59.741c0,6.157-4.907,11.113-11.157,11.113h-94.683c-6.265,0-11.182-4.956-11.182-11.113
		v-59.741C128.821,128.32,133.738,123.35,140.002,123.35z"/>
	<path id="path142" fill="#036998" d="M282.458,86.851H144.485l-27.534,24.18H258.23L282.458,86.851"/>
	<path id="path144" fill="none" stroke="#FFFFFF" stroke-width="3.9999" d="M282.458,86.851H144.485l-27.534,24.18H258.23
		L282.458,86.851z"/>
	<path id="path146" fill="#FFFFFF" d="M170.833,142.534c-17.402-3.477-26.479,5.42-25.054,13.091l0.166,0.435
		c-13.569,2.261-9.995,18.184-3.545,18.184h0.61c-1.484,10.918,14.819,17.412,23.003,11.211l0.542-0.576
		c2.578,10.454,37.471,11.221,44.526,3.447l0.591,0.137c15.322,1.27,22.271-9.326,18.926-16.816l0.825-0.313
		c5.225-1.343,5.854-13.384-3.062-15.161l0.112-0.444c3.955-7.778-5.298-15.186-17.925-13.74l-0.908-0.488
		c-9.106-8.242-35.283-6.885-38.335,1.265L170.833,142.534"/>
	<path id="path148" fill="none" stroke="#036998" stroke-width="3.9999" d="M273.279,60.898
		C139.666,34.233,69.153,102.52,80.291,161.582l0.928,3.174C-22.903,182.402,4.407,305.142,54.309,305.142l4.897-0.215
		c-12.544,57.539,109.077,116.23,176.963,86.943l4.409-4.775c24.16,51.797,110.068,60.371,195.083,62.558
		c73.525,1.982,116.548-3.809,148.218-36.142l4.736,1.416c117.988,9.531,171.611-71.787,145.928-130.068l6.221-1.875
		c40.186-10.43,44.922-103.14-23.994-116.836l1.27-3.545c30.02-60.21-40.605-117.017-138.555-106.377l-6.826-3.481
		C502.468-10.61,300.74-0.303,277.356,62.373L273.279,60.898L273.279,60.898z"/>
	<path id="path150" fill="none" stroke="#036998" stroke-width="3.9999" d="M326.497,340.757l-88.11-58.545"/>
	<path id="path152" fill="none" stroke="#036998" stroke-width="3.9999" d="M468.767,326.899l55.669-37.041"/>
	<path id="path154" fill="none" stroke="#036998" stroke-width="3.9999" d="M272.405,146.44h262.744"/>
</g>
</svg>
