<?xml version="1.0" encoding="utf-8"?>
<!-- Generator: Adobe Illustrator 16.0.0, SVG Export Plug-In . SVG Version: 6.00 Build 0)  -->
<!DOCTYPE svg PUBLIC "-//W3C//DTD SVG 1.1//EN" "http://www.w3.org/Graphics/SVG/1.1/DTD/svg11.dtd">
<svg version="1.1"
	 id="图层_1" xmlns:dc="http://purl.org/dc/elements/1.1/" xmlns:cc="http://creativecommons.org/ns#" xmlns:rdf="http://www.w3.org/1999/02/22-rdf-syntax-ns#"
	 xmlns="http://www.w3.org/2000/svg" xmlns:xlink="http://www.w3.org/1999/xlink" x="0px" y="0px" width="77px" height="64px"
	 viewBox="0 0 77 64" enable-background="new 0 0 77 64" xml:space="preserve">
<path fill="#00BCF2" d="M9.702,63.683c-1.115-0.551-2.144-2.033-2.151-3.1c0-0.449-0.042-0.479-0.718-0.581
	c-0.392-0.058-0.963-0.232-1.267-0.389c-1.145-0.585-2.096-2.162-2.096-3.478c0-0.567,0-0.567-0.84-0.741
	c-1.038-0.216-1.791-0.839-2.278-1.884L0,52.756V27.775C0,7.297,0.042,2.69,0.208,2.227c0.309-0.865,0.905-1.547,1.663-1.904
	L2.555,0h31.642c34.418,0,32.194-0.054,33.122,0.8c0.457,0.42,1.072,1.713,1.074,2.256c0,0.397,0.037,0.416,0.734,0.416
	c1.889,0,3.391,1.283,3.799,3.246L73.09,7.51l0.745,0.072c1.243,0.119,2.476,1.159,2.952,2.494
	c0.165,0.463,0.203,5.086,0.209,25.633c0.01,27.773,0.076,25.813-0.979,27.047c-0.285,0.331-0.824,0.746-1.198,0.922L74.136,64
	H42.238H10.334l-0.639-0.318L9.702,63.683L9.702,63.683z M74.738,62.397c0.258-0.22,0.604-0.656,0.767-0.976
	c0.289-0.567,0.294-1.065,0.294-25.646c0-20.712-0.035-25.153-0.204-25.556c-0.235-0.568-1.199-1.463-1.575-1.466
	c-0.143-0.001-0.409-0.043-0.596-0.093l-0.336-0.09l-0.041,24.216l-0.041,24.22l-0.454,0.886c-0.555,1.085-1.429,1.793-2.49,2.02
	c-0.543,0.116-9.752,0.163-31.125,0.163H8.58l0.103,0.493c0.16,0.751,0.686,1.599,1.197,1.926c0.453,0.289,0.968,0.294,32.425,0.297
	l31.96,0.003L74.738,62.397L74.738,62.397z M70.271,58.66c0.569-0.239,1.174-0.973,1.429-1.738
	c0.239-0.707,0.247-49.482,0.013-50.336c-0.09-0.322-0.42-0.861-0.735-1.199C70.439,4.81,70.346,4.77,69.404,4.71l-1-0.064v24.098
	c0,26.608,0.073,24.658-0.952,25.725c-0.267,0.274-0.687,0.616-0.937,0.754c-0.417,0.231-2.844,0.253-31.221,0.29L4.528,55.552
	l0.09,0.639c0.146,1.027,0.684,1.956,1.356,2.337l0.596,0.335l31.601,0.003c26.684,0.002,31.681-0.029,32.105-0.207h-0.005V58.66z
	 M37.199,46.257c2.737-0.479,5.18-1.462,7.503-3.02c8.114-5.438,10.953-16.376,6.474-24.953c-2.803-5.358-7.602-8.98-13.579-10.239
	c-1.799-0.379-5.771-0.377-7.55,0.005c-3.787,0.811-7.084,2.558-9.711,5.146c-2.78,2.74-4.4,5.579-5.387,9.438
	c-0.655,2.56-0.658,6.268-0.012,8.999c1.714,7.215,7.578,12.942,14.805,14.46c1.674,0.354,1.712,0.356,4.001,0.377
	c1.324,0.014,2.614-0.064,3.454-0.211L37.199,46.257z M31.631,43.11c-0.896-0.285-2.003-0.883-3-1.623
	c-0.836-0.619-2.415-2.418-3.004-3.429l-0.268-0.456l1.4-0.448c1.76-0.563,3.314-0.885,4.911-1.019l1.246-0.104v3.646v3.646
	l-0.341-0.012C32.388,43.307,31.963,43.217,31.631,43.11L31.631,43.11z M34.728,39.79c0-3.131,0.029-3.585,0.24-3.663
	c0.344-0.135,3.042,0.217,4.412,0.573c1.447,0.372,2.896,0.891,2.896,1.033c0,0.062-0.332,0.577-0.739,1.15
	c-1.688,2.381-4.029,4.032-6.207,4.382l-0.602,0.096V39.79z M25.302,41.725c-0.978-0.587-2.481-1.708-2.785-2.075
	c-0.164-0.198-0.101-0.294,0.425-0.644c0.339-0.226,0.64-0.381,0.667-0.347c0.026,0.031,0.295,0.437,0.597,0.9
	c0.303,0.461,0.891,1.229,1.308,1.705C26.562,42.461,26.552,42.479,25.302,41.725z M42.185,41.299
	c0.479-0.567,1.108-1.396,1.396-1.845c0.283-0.446,0.568-0.813,0.631-0.813c0.061,0,0.375,0.182,0.7,0.402l0.589,0.401l-0.441,0.364
	c-1.057,0.876-2.014,1.55-2.852,2.018l-0.898,0.501L42.185,41.299z M20.259,37.158c-1.752-2.36-3.04-5.692-3.223-8.327l-0.047-0.679
	h1.883h1.884l0.19,1.735c0.217,1.986,0.779,4.378,1.414,6.028c0.24,0.623,0.437,1.178,0.437,1.229c0,0.053-0.373,0.344-0.831,0.648
	l-0.831,0.549L20.259,37.158L20.259,37.158z M45.709,37.823c-0.398-0.273-0.755-0.532-0.794-0.569
	c-0.038-0.04,0.108-0.507,0.325-1.041c0.79-1.933,1.371-4.492,1.651-7.269l0.088-0.868h1.896h1.893l-0.102,0.868
	c-0.267,2.244-1.09,4.78-2.139,6.581c-0.564,0.972-1.893,2.811-2.023,2.803C46.465,38.325,46.105,38.098,45.709,37.823
	L45.709,37.823z M24.259,35.272c-0.634-1.586-1.173-3.984-1.387-6.177l-0.098-1.019h5.071h5.069v3.245
	c0,2.99-0.02,3.245-0.264,3.246c-1.536,0.007-4.772,0.611-6.525,1.217c-0.703,0.244-1.324,0.442-1.381,0.442
	C24.689,36.226,24.47,35.799,24.259,35.272L24.259,35.272z M42.128,35.985c-1.349-0.584-3.315-1.008-6.419-1.386l-0.905-0.11v-3.168
	v-3.169l5.044-0.04l5.043-0.039l-0.097,1.247c-0.169,2.14-0.724,4.511-1.462,6.234C43.016,36.289,42.913,36.327,42.128,35.985
	L42.128,35.985z M17.011,26.157c-0.139-0.225,0.351-2.992,0.742-4.192c0.216-0.665,0.651-1.727,0.965-2.361
	c0.728-1.467,2.201-3.602,2.482-3.602c0.217,0,1.591,0.999,1.594,1.158c0,0.097-0.14,0.505-0.317,0.905
	c-0.755,1.726-1.551,5.253-1.68,7.447l-0.04,0.678l-1.838,0.044C17.912,26.254,17.051,26.22,17.011,26.157L17.011,26.157z
	 M22.869,25.171c0.133-1.435,0.477-3.319,0.824-4.512c0.246-0.843,0.876-2.553,0.98-2.657c0.022-0.022,0.61,0.158,1.308,0.398
	c1.657,0.571,3.203,0.904,5.221,1.128l1.636,0.181l0.042,3.279l0.04,3.279h-5.076h-5.077L22.869,25.171L22.869,25.171z
	 M34.794,26.073c-0.041-0.105-0.056-1.583-0.032-3.284l0.041-3.09l1.283-0.114c2.254-0.2,4.728-0.773,6.675-1.546
	c0.195-0.078,0.313,0.033,0.5,0.476c0.813,1.917,1.582,5.302,1.582,6.946v0.802h-4.988C35.949,26.264,34.852,26.223,34.794,26.073
	L34.794,26.073z M46.891,25.171c-0.224-2.45-0.813-5.009-1.623-7.052c-0.256-0.648-0.381-1.151-0.293-1.18
	c0.084-0.028,0.43-0.25,0.765-0.495c0.337-0.244,0.68-0.443,0.764-0.443c0.248,0,1.759,2.142,2.409,3.418
	c1.004,1.961,1.822,4.811,1.822,6.335v0.512h-1.873H46.99L46.891,25.171L46.891,25.171z M34.797,18.132
	c-0.151-0.151-0.067-7.097,0.088-7.192c0.266-0.166,2.133,0.488,3.122,1.091c0.517,0.315,1.3,0.885,1.738,1.269
	c0.935,0.814,2.638,3.114,2.44,3.296c-0.229,0.212-2.336,0.877-3.607,1.139C37.291,17.999,34.913,18.249,34.797,18.132
	L34.797,18.132z M30.272,17.945c-1.416-0.255-2.867-0.629-3.878-0.999l-1.009-0.369l0.441-0.718
	c0.608-0.987,2.143-2.632,3.146-3.374c0.894-0.662,2.456-1.369,3.375-1.531l0.567-0.099v3.628v3.63l-0.943-0.018
	C31.452,18.088,30.688,18.019,30.272,17.945L30.272,17.945z M43.727,15.033c-0.218-0.373-0.803-1.19-1.303-1.818
	c-0.496-0.626-0.871-1.139-0.83-1.139c0.239,0,2.343,1.395,3.043,2.019c0.904,0.805,0.914,0.7-0.114,1.36l-0.397,0.256
	L43.727,15.033z M22.838,15.199c-0.269-0.182-0.49-0.375-0.491-0.43c0-0.261,3.452-2.693,3.828-2.693
	c0.068,0-0.191,0.35-0.575,0.777c-0.384,0.427-0.982,1.209-1.329,1.736c-0.348,0.526-0.702,0.954-0.788,0.949
	C23.397,15.533,23.106,15.381,22.838,15.199z"/>
</svg>
