<?xml version="1.0" encoding="utf-8"?>
<!-- Generator: Adobe Illustrator 16.0.0, SVG Export Plug-In . SVG Version: 6.00 Build 0)  -->
<!DOCTYPE svg PUBLIC "-//W3C//DTD SVG 1.1//EN" "http://www.w3.org/Graphics/SVG/1.1/DTD/svg11.dtd">
<svg version="1.1"
	 id="图层_1" xmlns:dc="http://purl.org/dc/elements/1.1/" xmlns:cc="http://creativecommons.org/ns#" xmlns:rdf="http://www.w3.org/1999/02/22-rdf-syntax-ns#"
	 xmlns="http://www.w3.org/2000/svg" xmlns:xlink="http://www.w3.org/1999/xlink" x="0px" y="0px" width="75px" height="61px"
	 viewBox="0 0 75 61" enable-background="new 0 0 75 61" xml:space="preserve">
<path fill="#00BCF2" d="M2.424,60.824c-0.365-0.097-0.835-0.408-1.267-0.841c-1.281-1.281-1.179,1.409-1.135-29.701L0.06,2.734
	l0.442-0.798c0.531-0.96,1.303-1.556,2.296-1.769c1.047-0.225,68.431-0.222,69.478,0c0.978,0.209,1.877,0.91,2.349,1.826L75,2.725
	v27.851v27.852l-0.325,0.609c-0.413,0.772-1.345,1.575-2.082,1.797c-0.768,0.229-69.297,0.219-70.168-0.013L2.424,60.824
	L2.424,60.824z M38.659,51.138c2.958-0.23,5.55-0.936,8.026-2.185c5.967-3.006,9.943-8.256,11.408-15.058
	c0.383-1.773,0.383-6.467,0.002-8.249c-0.863-4.045-2.753-7.631-5.541-10.518c-4.242-4.391-9.318-6.563-15.358-6.572
	c-5.924-0.01-11.164,2.164-15.263,6.331c-2.825,2.87-4.88,6.687-5.674,10.538c-0.975,4.727-0.341,9.709,1.778,13.964
	c1.394,2.799,3.95,5.854,6.418,7.671c3.103,2.282,7.038,3.751,10.912,4.069c0.744,0.061,1.385,0.118,1.426,0.129
	C36.834,51.271,37.674,51.215,38.659,51.138L38.659,51.138z M38.184,47.55c-0.039-0.098-0.052-1.898-0.029-4.004l0.039-3.828
	l1.031,0.046c1.129,0.05,3.076,0.369,4.342,0.711c1.059,0.285,2.543,0.807,2.705,0.948c0.217,0.188-1.34,2.269-2.605,3.482
	c-1.238,1.187-2.589,2.009-3.999,2.441C38.499,47.704,38.253,47.737,38.184,47.55L38.184,47.55z M34.4,47.299
	c-1.349-0.467-2.869-1.45-4.077-2.646c-1.114-1.103-2.237-2.621-2.271-3.071c-0.036-0.487,4.184-1.606,7.012-1.858l0.994-0.089
	v3.982V47.6h-0.404c-0.223,0-0.787-0.137-1.253-0.297L34.4,47.299L34.4,47.299z M27.521,45.739c-0.603-0.375-1.55-1.049-2.107-1.501
	l-1.013-0.817l0.334-0.252c0.184-0.139,0.511-0.357,0.728-0.485l0.393-0.231l0.75,1.139c0.412,0.625,1.089,1.518,1.505,1.982
	c0.416,0.466,0.7,0.849,0.63,0.849C28.672,46.421,28.123,46.115,27.521,45.739L27.521,45.739z M46.256,45.485
	c0.436-0.514,1.105-1.409,1.492-1.986l0.699-1.055l0.66,0.453c0.361,0.251,0.639,0.513,0.613,0.581
	c-0.123,0.354-3.802,2.942-4.178,2.942C45.499,46.422,45.818,46.001,46.256,45.485z M23.027,41.948
	c-0.081-0.109-0.464-0.624-0.854-1.142c-1.87-2.492-3.118-5.692-3.458-8.864l-0.122-1.141h2.075h2.075l0.18,1.888
	c0.21,2.206,0.863,5.023,1.583,6.821c0.28,0.699,0.509,1.313,0.509,1.361c0,0.077-1.686,1.275-1.796,1.275
	C23.195,42.149,23.108,42.059,23.027,41.948L23.027,41.948z M50.102,41.525l-0.9-0.595l0.511-1.268
	c0.897-2.229,1.808-6.468,1.808-8.426v-0.437h2.062c2.397,0,2.202-0.221,1.833,2.064c-0.294,1.819-1.087,4.176-1.934,5.742
	c-0.617,1.143-2.066,3.259-2.356,3.438C51.057,42.087,50.596,41.853,50.102,41.525z M26.845,39.384
	c-0.836-1.966-1.561-4.995-1.764-7.363l-0.104-1.218h5.541h5.54v3.599v3.6l-0.994,0.089c-2.621,0.234-4.668,0.661-6.771,1.411
	l-1.214,0.432L26.845,39.384z M46.145,39.554c-1.611-0.655-4.389-1.243-6.885-1.458l-1.141-0.098v-3.597v-3.6h5.593h5.593
	l-0.078,0.924c-0.121,1.402-0.494,3.595-0.828,4.824c-0.361,1.343-1.133,3.393-1.271,3.375C47.07,39.915,46.63,39.751,46.145,39.554
	L46.145,39.554z M18.685,28.211c0-1.72,1.094-5.393,2.157-7.243c0.596-1.037,1.482-2.336,1.985-2.91l0.443-0.504l0.873,0.596
	c0.48,0.328,0.873,0.645,0.873,0.701c0,0.06-0.233,0.687-0.519,1.396c-0.725,1.799-1.36,4.527-1.572,6.754l-0.18,1.887h-2.03h-2.029
	L18.685,28.211L18.685,28.211z M25.088,27.746c0.208-2.441,0.927-5.487,1.752-7.425l0.229-0.538l1.68,0.569
	c1.725,0.583,4.15,1.077,6.168,1.251l1.141,0.099v3.592v3.593h-5.533h-5.534L25.088,27.746L25.088,27.746z M38.188,28.702
	c-0.041-0.104-0.056-1.712-0.033-3.574l0.039-3.386l0.957-0.104c3.015-0.33,5.3-0.818,7.056-1.511
	c0.521-0.205,0.963-0.357,0.981-0.337c0.127,0.13,0.963,2.439,1.211,3.352c0.359,1.315,0.73,3.56,0.793,4.79l0.045,0.883
	l-5.489,0.039C39.389,28.884,38.244,28.853,38.188,28.702L38.188,28.702z M51.448,27.82c-0.275-2.974-0.857-5.557-1.753-7.77
	l-0.504-1.249l0.906-0.622l0.903-0.62l0.423,0.47c0.582,0.649,1.881,2.648,2.412,3.712c0.93,1.86,1.803,5.034,1.803,6.544v0.604
	h-2.046h-2.046L51.448,27.82L51.448,27.82z M34.243,19.891c-2.131-0.247-5.776-1.2-6.2-1.619c-0.208-0.207,1.12-2.056,2.353-3.28
	c1.513-1.5,3.435-2.583,5.042-2.84l0.619-0.1v3.997v3.998l-0.404-0.02C35.43,20.017,34.796,19.955,34.243,19.891L34.243,19.891z
	 M38.219,19.951c-0.055-0.056-0.1-1.846-0.1-3.98v-3.879h0.404c0.613,0.01,2.229,0.599,3.203,1.176
	c1.181,0.7,2.979,2.434,3.887,3.749c0.412,0.599,0.75,1.125,0.75,1.172c0,0.263-2.945,1.162-4.822,1.47
	c-1.714,0.282-3.2,0.412-3.322,0.289V19.951z M25.097,16.78l-0.707-0.468l0.497-0.421c1.083-0.917,3.615-2.622,3.896-2.622
	c0.041,0-0.314,0.451-0.788,1.003c-0.474,0.55-1.149,1.446-1.5,1.988c-0.351,0.543-0.65,0.987-0.666,0.987
	S25.485,17.038,25.097,16.78z M47.909,16.446c-0.291-0.457-0.972-1.371-1.511-2.034l-0.979-1.205l0.878,0.491
	c0.754,0.42,1.996,1.306,3.284,2.338l0.344,0.277l-0.418,0.271C48.326,17.348,48.495,17.362,47.909,16.446L47.909,16.446z"/>
</svg>
