<?xml version="1.0" encoding="utf-8"?>
<!-- Generator: Adobe Illustrator 16.0.0, SVG Export Plug-In . SVG Version: 6.00 Build 0)  -->
<!DOCTYPE svg PUBLIC "-//W3C//DTD SVG 1.1//EN" "http://www.w3.org/Graphics/SVG/1.1/DTD/svg11.dtd">
<svg version="1.1"
	 id="图层_1" xmlns:dc="http://purl.org/dc/elements/1.1/" xmlns:cc="http://creativecommons.org/ns#" xmlns:rdf="http://www.w3.org/1999/02/22-rdf-syntax-ns#"
	 xmlns="http://www.w3.org/2000/svg" xmlns:xlink="http://www.w3.org/1999/xlink" x="0px" y="0px" width="78px" height="68px"
	 viewBox="0 0 78 68" enable-background="new 0 0 78 68" xml:space="preserve">
<path fill="#00BCF2" d="M54.882,67.819c-4.74-0.699-8.649-2.701-11.939-6.107c-2.801-2.898-4.523-6.15-5.356-10.103
	c-0.484-2.298-0.484-5.802,0-8.1c0.833-3.951,2.555-7.205,5.356-10.102c8.111-8.401,21.232-8.401,29.348,0
	c2.946,3.051,4.844,6.802,5.527,10.927c0.244,1.461,0.244,4.988,0,6.449c-1.229,7.398-6.637,13.801-13.613,16.116
	C61.159,67.91,57.761,68.246,54.882,67.819z M58.802,65.645c1.513-0.77,2.993-2.943,4.029-5.91c0.332-0.953,0.649-1.917,0.704-2.145
	l0.099-0.416l-2.126-0.186c-1.17-0.106-2.944-0.191-3.947-0.19c-1.949,0-5.661,0.293-5.837,0.461
	c-0.165,0.155,0.874,3.165,1.628,4.716c0.408,0.834,1.037,1.788,1.581,2.388C56.313,65.891,57.53,66.293,58.802,65.645z
	 M52.873,65.241c0-0.041-0.187-0.348-0.415-0.684c-1.005-1.463-2.798-5.761-2.798-6.694c0-0.143-0.089-0.26-0.202-0.26
	c-0.38,0-3.095,0.778-4.514,1.291l-1.422,0.516l1.021,1.035c1.927,1.963,4.47,3.579,7.022,4.473
	C52.701,65.314,52.873,65.358,52.873,65.241L52.873,65.241z M64.606,64.545c2.405-1.007,4.259-2.258,6.085-4.105l1.021-1.033
	l-1.297-0.5c-1.201-0.463-4.183-1.298-4.645-1.303c-0.108,0-0.199,0.117-0.199,0.259c0,0.945-1.938,5.568-2.83,6.759
	c-0.212,0.283-0.385,0.552-0.385,0.606C62.356,65.391,63.194,65.136,64.606,64.545L64.606,64.545z M43.036,57.461
	c0.826-0.414,2.891-1.111,4.616-1.553c0.795-0.204,1.432-0.436,1.414-0.513c-0.153-0.732-0.532-4.712-0.532-5.612
	c0-0.632-0.043-1.265-0.098-1.404c-0.085-0.225-0.648-0.257-4.658-0.257h-4.56l0.09,0.765c0.39,3.308,1.411,6.459,2.754,8.512
	C42.354,57.837,42.3,57.833,43.036,57.461L43.036,57.461z M74.006,55.831c0.86-1.701,1.453-3.61,1.767-5.701
	c0.133-0.884,0.241-1.696,0.241-1.806c0-0.155-1.019-0.201-4.565-0.201h-4.567l-0.085,1.007c-0.048,0.55-0.175,1.942-0.284,3.091
	c-0.107,1.148-0.203,2.366-0.209,2.71l-0.012,0.621l1.962,0.537c1.078,0.296,2.562,0.789,3.294,1.097
	C73.111,57.836,72.941,57.93,74.006,55.831L74.006,55.831z M53.978,54.872c2.318-0.227,5.343-0.198,7.893,0.072
	c1.192,0.127,2.189,0.206,2.214,0.18c0.099-0.099,0.498-3.586,0.603-5.274l0.111-1.728h-7.174h-7.175l0.092,1.248
	c0.209,2.885,0.259,3.392,0.428,4.588l0.177,1.256l0.582-0.09C52.049,55.075,53.062,54.961,53.978,54.872L53.978,54.872z
	 M48.58,44.145c0.049-0.947,0.212-2.473,0.357-3.387c0.146-0.911,0.235-1.695,0.194-1.732c-0.042-0.043-0.74-0.252-1.552-0.47
	c-0.814-0.218-2.224-0.686-3.124-1.04c-0.904-0.351-1.683-0.64-1.732-0.64c-0.158,0-1.22,1.694-1.876,2.994
	c-0.748,1.491-1.422,3.582-1.609,5l-0.132,1.003h4.689h4.691L48.58,44.145L48.58,44.145z M64.683,44.629
	c-0.117-1.489-0.546-4.64-0.678-4.98c-0.074-0.194-0.278-0.224-1.071-0.138c-4.006,0.434-6.624,0.434-10.646,0
	c-0.876-0.094-0.995-0.072-1.076,0.197c-0.15,0.496-0.563,3.749-0.635,5.003l-0.069,1.163h7.139h7.136L64.683,44.629L64.683,44.629z
	 M75.829,44.808c-0.17-1.425-0.671-3.203-1.268-4.521c-0.504-1.11-1.876-3.41-2.032-3.41c-0.051,0-0.75,0.263-1.554,0.585
	c-0.809,0.327-2.22,0.793-3.139,1.042c-0.916,0.247-1.701,0.481-1.739,0.522c-0.04,0.042,0.038,0.749,0.178,1.574
	c0.139,0.822,0.293,2.11,0.343,2.862c0.051,0.753,0.128,1.601,0.174,1.888l0.077,0.522h4.543h4.545L75.829,44.808L75.829,44.808z
	 M61.948,37.5c0.794-0.087,1.458-0.177,1.486-0.204c0.079-0.079-0.784-2.578-1.229-3.555c-1.252-2.744-3.058-4.578-4.511-4.578
	c-1.624,0-3.393,1.771-4.669,4.678c-0.412,0.94-1.278,3.273-1.278,3.448c0,0.086,1.817,0.285,3.538,0.386
	C57.368,37.798,59.813,37.734,61.948,37.5L61.948,37.5z M50.204,35.428c0.509-1.629,1.453-3.673,2.202-4.76
	c0.275-0.398,0.467-0.755,0.432-0.792c-0.121-0.12-2.25,0.666-3.498,1.292c-0.665,0.331-1.675,0.934-2.252,1.34
	c-1.09,0.768-2.893,2.397-2.893,2.615c0,0.273,4.325,1.714,5.231,1.743C49.699,36.876,49.827,36.641,50.204,35.428z M67.573,36.459
	c1.689-0.488,3.459-1.177,3.459-1.343c0-0.212-1.814-1.849-2.891-2.609c-0.575-0.406-1.587-1.01-2.25-1.34
	c-1.253-0.628-3.377-1.412-3.499-1.292c-0.037,0.038,0.115,0.313,0.344,0.61c0.615,0.806,1.956,3.728,2.366,5.143
	C65.521,37.094,65.46,37.073,67.573,36.459L67.573,36.459z M0.041,27.516L0.081,0h32.463h32.461l0.043,13.135
	c0.021,7.225,0,13.134-0.043,13.134c-0.044,0-0.517-0.12-1.045-0.267l-0.963-0.268v-6.319v-6.321H32.544H2.09v19.923v19.925h16.848
	h16.849l0.267,0.962c0.148,0.527,0.267,0.997,0.267,1.044c0,0.046-8.172,0.083-18.16,0.083H0L0.041,27.516L0.041,27.516z
	 M9.001,44.509V39.93h2.491h2.49v-3.458v-3.453h9h9v-2.489v-2.492h-3.455h-3.456v-5.542v-5.543h8.035h8.036v5.543v5.542h-3.535
	h-3.534v2.492v2.489h3.142h3.144l-0.517,0.719c-1.038,1.449-0.846,1.372-3.446,1.372h-2.323v2.407v2.413h1.125
	c0.618,0,1.126,0.056,1.126,0.117c0,0.066-0.177,0.775-0.39,1.568c-0.544,2.019-0.741,3.504-0.748,5.636l-0.01,1.836h-4.09h-4.089
	v-4.577V39.93h2.491h2.492v-2.413v-2.406h-7.955H16.07v2.406v2.413h2.491h2.491v4.579v4.577h-6.026h-6.03v-4.577H9.001z"/>
</svg>
