<?xml version="1.0" encoding="utf-8"?>
<!-- Generator: Adobe Illustrator 16.0.0, SVG Export Plug-In . SVG Version: 6.00 Build 0)  -->
<!DOCTYPE svg PUBLIC "-//W3C//DTD SVG 1.1//EN" "http://www.w3.org/Graphics/SVG/1.1/DTD/svg11.dtd">
<svg version="1.1"
	 id="图层_1" xmlns:dc="http://purl.org/dc/elements/1.1/" xmlns:cc="http://creativecommons.org/ns#" xmlns:rdf="http://www.w3.org/1999/02/22-rdf-syntax-ns#"
	 xmlns="http://www.w3.org/2000/svg" xmlns:xlink="http://www.w3.org/1999/xlink" x="0px" y="0px" width="75px" height="75px"
	 viewBox="0 0 75 75" enable-background="new 0 0 75 75" xml:space="preserve">
<path fill="#00BCF2" d="M37.499,0C16.789,0,0,16.789,0,37.5C0,58.21,16.789,75,37.499,75C58.21,75,75,58.21,75,37.5
	C75,16.789,58.21,0,37.499,0z M37.499,4.412c9.067,0,17.254,3.675,23.23,9.581c-2.525-0.489-5.122-0.758-7.789-0.758
	c-0.724,0-1.422-0.037-2.137,0c-5.592,0.291-10.912,1.738-15.717,4.066c-3.312-3.334-6.561-6.88-9.788-10.546
	C29.071,5.259,33.193,4.412,37.499,4.412L37.499,4.412z M20.403,9.168c3.182,3.867,6.49,7.467,9.858,10.961
	c-3.554,2.362-6.738,5.225-9.444,8.548c-0.326-0.029-0.631,0-0.965,0c-0.915,0-1.77,0.134-2.619,0.344
	c-1.633-3.281-2.91-6.78-3.792-10.409c-0.268-1.099-0.382-2.192-0.413-3.309C15.182,12.928,17.646,10.836,20.403,9.168L20.403,9.168
	z M60.729,17.164c1.033,0.018,2.016,0.176,3.033,0.345c4.244,5.563,6.825,12.455,6.825,19.991c0,3.402-0.563,6.698-1.517,9.788
	c-2.031-1.658-4.04-3.357-6.067-5.031c0.604-1.102,0.966-2.311,0.966-3.653c0-4.265-3.456-7.721-7.72-7.721
	c-1.802,0-3.443,0.62-4.758,1.653c-3.402-2.967-6.78-6-10.132-9.167c5.405-3.013,11.303-5.146,17.439-6.067
	C59.439,17.206,60.092,17.154,60.729,17.164L60.729,17.164z M9.237,20.336c0.409,2.646,1.019,6.268,1.172,6.756
	c0.496,1.59,1.048,3.146,1.723,4.687c-2.036,2.001-3.31,4.847-3.31,7.928c0,2.992,1.236,5.664,3.172,7.651
	c-0.59,2.874-0.966,5.841-0.966,8.893c0,0.343-0.009,0.691,0,1.034C6.889,51.759,4.412,44.933,4.412,37.5
	C4.412,31.207,6.187,25.344,9.237,20.336L9.237,20.336z M36.534,26.401c3.962,3.791,8.029,7.383,12.133,10.893
	c-0.071,0.421-0.138,0.868-0.138,1.31c0,4.263,3.456,7.72,7.721,7.72c0.911,0,1.807-0.192,2.619-0.482
	c2.694,2.186,5.429,4.384,8.134,6.549c-0.593,1.173-1.207,2.29-1.931,3.378c-1.805,0.31-3.667,0.576-4.343,0.62
	c-3.795,0.249-7.606-0.17-11.305-1.034c-0.44-3.845-3.688-6.824-7.651-6.824c-1.857,0-3.563,0.63-4.895,1.724
	c-2.59-1.54-5.069-3.355-7.376-5.377c0.84-1.557,1.38-3.278,1.38-5.17c0-2.509-0.864-4.834-2.275-6.687
	C30.999,30.571,33.692,28.391,36.534,26.401z M25.022,49.356c2.775,2.455,5.854,4.559,9.099,6.341
	c-0.013,0.184-0.068,0.366-0.068,0.553c0,4.264,3.457,7.721,7.721,7.721c2.612,0,4.944-1.323,6.342-3.309
	c3.225,0.549,6.567,0.735,9.926,0.481c1.011-0.075,1.987-0.207,2.965-0.413c-5.998,6.069-14.299,9.857-23.507,9.857
	c-7.96,0-15.247-2.83-20.955-7.514c-0.585-1.427-1.167-2.886-1.104-3.516c0.314-3.082,1.083-6.146,2.137-9.1
	c0.738,0.156,1.491,0.275,2.275,0.275C21.739,50.734,23.469,50.191,25.022,49.356L25.022,49.356z"/>
</svg>
