<?xml version="1.0" encoding="utf-8"?>
<!-- Generator: Adobe Illustrator 16.0.0, SVG Export Plug-In . SVG Version: 6.00 Build 0)  -->
<!DOCTYPE svg PUBLIC "-//W3C//DTD SVG 1.1//EN" "http://www.w3.org/Graphics/SVG/1.1/DTD/svg11.dtd">
<svg version="1.1" id="图层_1" xmlns="http://www.w3.org/2000/svg" xmlns:xlink="http://www.w3.org/1999/xlink" x="0px" y="0px"
	 width="512px" height="512px" viewBox="0 0 512 512" enable-background="new 0 0 512 512" xml:space="preserve">
<g>
	<path fill="#FA4D45" d="M258.827,508.799h-0.009c-59.002,0-116.025-4.052-156.434-11.121
		c-63.337-11.091-78.335-25.959-89.152-88.42c-14.404-83.148-14.183-224.212,0.48-308.031c11.06-63.299,25.937-78.297,88.405-89.152
		c39.64-6.886,93.615-10.687,151.978-10.687c58.881,0,115.781,4.045,156.091,11.098c63.314,11.083,78.304,25.959,89.152,88.42
		c14.427,83.164,14.229,224.258-0.442,308.092c-11.045,63.313-25.929,78.305-88.406,89.167
		C370.913,505.021,317.045,508.799,258.827,508.799 M254.097,16.987c-57.495,0-110.518,3.717-149.311,10.458
		c-55.881,9.704-65.783,19.713-75.701,76.461c-14.419,82.38-14.633,220.996-0.48,302.7c9.674,55.849,19.683,65.767,76.47,75.714
		c39.563,6.916,95.595,10.878,153.744,10.878h0.009c57.364,0,110.273-3.688,149-10.391c55.895-9.72,65.796-19.729,75.714-76.491
		c14.412-82.403,14.61-221.037,0.442-302.746c-9.72-55.872-19.729-65.782-76.477-75.715
		C368.033,20.948,312.108,16.987,254.097,16.987"/>
	<path fill="#FA4D45" d="M254.514,95.427c-87.854,0-159.072,71.216-159.072,159.072c0,87.857,71.217,159.072,159.072,159.072
		c87.856,0,159.073-71.215,159.073-159.072C413.587,166.643,342.369,95.427,254.514,95.427 M230.049,133.239
		c7.921-1.591,16.097-2.466,24.48-2.466c9.147,0,18.008,1.145,26.598,3.022l-1.909,0.986c8.797,25.165,14.205,49.487,17.243,72.394
		c-31.067,4.597-59.017,3.452-82.114,0.143c3.023-23.161,8.431-47.753,17.324-73.237L230.049,133.239z M133.175,277.708
		c-0.016,0-0.033,0.032-0.048,0.032c-1.433-7.557-2.338-15.287-2.338-23.24c0-13.919,2.815-27.058,7.047-39.545
		c14.173,7.079,28.012,12.36,41.517,16.543c-1.368,18.691-1.209,39.132,1.274,60.988
		C150.991,285.884,133.175,277.708,133.175,277.708 M146.966,314.565c13.457,5.026,26.533,8.653,39.37,11.596
		c2.672,12.104,5.949,24.433,10.34,37.096C175.742,352.074,158.561,335.244,146.966,314.565 M182.869,201.003
		c-18.31-4.82-30.145-9.926-33.278-11.374c11.628-18.755,28.091-33.898,47.689-44.206
		C192.365,159.056,186.718,177.89,182.869,201.003 M279.075,375.744c-7.939,1.607-16.147,2.482-24.562,2.482
		c-7.651,0-15.063-0.924-22.334-2.244c-0.556-1.303-7.141-17.371-12.852-43.998c26.405,3.054,50.839,2.466,72.393-0.224
		C286.694,355.573,280.825,371.369,279.075,375.744 M297.162,297.768c-31.1,3.912-59.334,3.181-83.355,0.301
		c-2.036-17.449-3.021-37.207-2.131-58.76c32.975,5.695,62.738,4.199,87.442-0.207C300.089,260.591,299.166,280.316,297.162,297.768
		 M359.756,190.202c-10.865,4.279-21.491,7.572-31.942,10.356c-3.818-22.397-9.29-40.675-14.11-54.053
		C332.635,156.893,348.51,171.829,359.756,190.202 M314.962,361.825c4.168-12.296,7.237-24.259,9.798-36.03
		c14.922-3.547,27.44-7.667,37.445-11.518C351.103,334.227,334.829,350.609,314.962,361.825 M378.24,254.499
		c0,8.431-0.875,16.655-2.481,24.624l-0.366-0.716c-15.366,5.821-30.383,10.165-44.986,13.505
		c2.387-21.745,2.45-42.043,1.034-60.622c22.763-7.174,36.841-15.08,39.641-16.703C375.393,227.17,378.24,240.453,378.24,254.499"/>
</g>
</svg>
