<?xml version="1.0" encoding="utf-8"?>
<!-- Generator: Adobe Illustrator 16.0.0, SVG Export Plug-In . SVG Version: 6.00 Build 0)  -->
<!DOCTYPE svg PUBLIC "-//W3C//DTD SVG 1.1//EN" "http://www.w3.org/Graphics/SVG/1.1/DTD/svg11.dtd">
<svg version="1.1"
	 id="svg2" xmlns:dc="http://purl.org/dc/elements/1.1/" xmlns:cc="http://creativecommons.org/ns#" xmlns:rdf="http://www.w3.org/1999/02/22-rdf-syntax-ns#" xmlns:svg="http://www.w3.org/2000/svg"
	 xmlns="http://www.w3.org/2000/svg" xmlns:xlink="http://www.w3.org/1999/xlink" x="0px" y="0px" width="80px" height="70px"
	 viewBox="0 0 80 70" enable-background="new 0 0 80 70" xml:space="preserve">
<g id="g12" transform="scale(0.1,0.1)">
	<path id="path14" fill="#1582BA" d="M230.776,236.497C151.123,252.698,94.014,443.371,94.014,443.371
		C65.361,526.223,15.327,593.83,15.327,593.83h527.402c0,0,61.035-76.768,105.313-150.459c0,0,57.305-190.674,136.953-206.875
		H230.776"/>
	<path id="path16" fill="none" stroke="#FFFFFF" stroke-width="4" d="M230.776,236.497
		C151.123,252.698,94.014,443.371,94.014,443.371C65.361,526.223,15.327,593.83,15.327,593.83h527.402
		c0,0,61.035-76.768,105.313-150.459c0,0,57.305-190.674,136.953-206.875H230.776z"/>
	<path id="path18" fill="#1582BA" d="M541.577,592.365v90.068l233.77-242.646l-0.205-199.834
		c-36.895,7.52-91.035,71.299-133.076,131.201c-23.984,34.014-40.664,64.531-57.773,87.871"/>
	<path id="path20" fill="none" stroke="#FFFFFF" stroke-width="4" d="M541.577,592.365v90.068l233.77-242.646l-0.205-199.834
		c-36.895,7.52-91.035,71.299-133.076,131.201c-23.984,34.014-40.664,64.531-57.773,87.871"/>
	<path id="path22" fill="none" stroke="#1582BA" stroke-width="4" d="M379.78,126.296c39.199-35.649,92.578-58.56,143.32-57.422
		c52.91,1.333,89.502,28.823,99.375,68.735"/>
	<path id="path24" fill="none" stroke="#1582BA" stroke-width="4" d="M359.341,180.789c39.209-35.664,92.588-58.55,142.998-57.417
		c53.223,1.172,89.492,28.809,99.375,68.73"/>
	<path id="path26" fill="none" stroke="#1582BA" stroke-width="4" d="M338.755,235.217c39.346-35.586,92.725-58.472,143.135-57.339
		c52.91,1.177,89.512,28.833,99.375,68.716"/>
	<path id="path28" fill="#1582BA" d="M318.315,289.622c39.17-35.498,92.422-58.408,143.164-57.266
		c52.891,1.172,89.492,28.682,99.336,68.564"/>
	<path id="path30" fill="none" stroke="#FFFFFF" stroke-width="4" d="M318.315,289.622c39.17-35.498,92.422-58.408,143.164-57.266
		c52.891,1.172,89.492,28.682,99.336,68.564"/>
	<path id="path32" fill="none" stroke="#1582BA" stroke-width="4" d="M379.78,126.296c39.199-35.649,92.578-58.56,143.32-57.422
		c52.91,1.333,89.502,28.823,99.375,68.735"/>
	<path id="path34" fill="none" stroke="#1582BA" stroke-width="4" d="M400.093,72.468c39.18-35.64,92.578-58.555,143.32-57.422
		c52.91,1.162,89.502,28.823,99.375,68.74"/>
	<path id="path36" fill="none" stroke="#1582BA" stroke-width="4" d="M359.341,180.789c39.209-35.664,92.588-58.55,142.998-57.417
		c53.223,1.172,89.492,28.809,99.375,68.73"/>
	<path id="path38" fill="none" stroke="#1582BA" stroke-width="4" d="M338.755,235.217c39.346-35.586,92.725-58.472,143.135-57.339
		c52.91,1.177,89.512,28.833,99.375,68.716"/>
	<path id="path40" fill="none" stroke="#FFFFFF" stroke-width="4" d="M318.315,289.622c39.17-35.498,92.422-58.408,143.164-57.266
		c52.891,1.172,89.492,28.682,99.336,68.564"/>
	<path id="path42" fill="#1582BA" d="M603.882,407.297c5.234,62.539-100.859,122.559-237.002,133.877
		c-136.104,11.299-250.757-30.127-255.981-92.656c-5.244-62.51,101.03-122.52,237.163-133.867
		C484.175,303.362,598.647,344.817,603.882,407.297"/>
	<path id="path44" fill="none" stroke="#FFFFFF" stroke-width="4" d="M603.882,407.297
		c5.234,62.539-100.859,122.559-237.002,133.877c-136.104,11.299-250.757-30.127-255.981-92.656
		c-5.244-62.51,101.03-122.52,237.163-133.867C484.175,303.362,598.647,344.817,603.882,407.297z"/>
	<path id="path46" fill="#1582BA" d="M581.167,392.258c4.648,57.002-91.738,111.348-215.654,121.748
		c-123.73,10.4-227.905-27.598-232.544-84.277c-4.805-56.992,91.772-111.328,215.493-121.758
		C472.202,297.737,576.538,335.422,581.167,392.258"/>
	<path id="path48" fill="none" stroke="#FFFFFF" stroke-width="4" d="M581.167,392.258c4.648,57.002-91.738,111.348-215.654,121.748
		c-123.73,10.4-227.905-27.598-232.544-84.277c-4.805-56.992,91.772-111.328,215.493-121.758
		C472.202,297.737,576.538,335.422,581.167,392.258z"/>
	<path id="path50" fill="#1582BA" d="M14.995,685.002l528.477-0.762v-95H15.327L14.995,685.002"/>
	<path id="path52" fill="none" stroke="#FFFFFF" stroke-width="4" d="M14.995,685.002l528.477-0.762v-95H15.327L14.995,685.002z"/>
</g>
</svg>
