<?xml version="1.0" encoding="utf-8"?>
<!-- Generator: Adobe Illustrator 16.0.0, SVG Export Plug-In . SVG Version: 6.00 Build 0)  -->
<!DOCTYPE svg PUBLIC "-//W3C//DTD SVG 1.1//EN" "http://www.w3.org/Graphics/SVG/1.1/DTD/svg11.dtd">
<svg version="1.1"
	 id="svg2" xmlns:dc="http://purl.org/dc/elements/1.1/" xmlns:cc="http://creativecommons.org/ns#" xmlns:rdf="http://www.w3.org/1999/02/22-rdf-syntax-ns#" xmlns:svg="http://www.w3.org/2000/svg"
	 xmlns="http://www.w3.org/2000/svg" xmlns:xlink="http://www.w3.org/1999/xlink" x="0px" y="0px" width="44px" height="78px"
	 viewBox="0 0 44 78" enable-background="new 0 0 44 78" xml:space="preserve">
<g id="g12" transform="scale(0.1,0.1)">
	<path id="path22" fill="#036998" d="M38.252,14.998H415l-33.086,37.773H5L38.252,14.998"/>
	<path id="path24" fill="none" stroke="#FFFFFF" stroke-width="3.9999" d="M38.252,14.998H415l-33.086,37.773H5L38.252,14.998z"/>
	<path id="path26" fill="#036998" d="M5.684,764.997h375.518V53.728H5.684V764.997z"/>
	<path id="path28" fill="none" stroke="#FFFFFF" stroke-width="3.9999" d="M5.684,764.997h375.518V53.728H5.684V764.997z"/>
	<path id="path30" fill="#036998" d="M298.691,721.736c37.842,0,43.213-39.316,43.213-39.316s0-408.808,0-445.088
		c0-47.358-44.668-46.108-44.668-46.108s-184.18,0-210.62,0c-26.606,0-37.681,36.44-37.681,36.44s0,415.801,0,449.385
		c0,33.604,34.814,44.688,34.814,44.688H298.691"/>
	<path id="path32" fill="none" stroke="#FFFFFF" stroke-width="3.9999" d="M298.691,721.736c37.842,0,43.213-39.316,43.213-39.316
		s0-408.808,0-445.088c0-47.358-44.668-46.108-44.668-46.108s-184.18,0-210.62,0c-26.606,0-37.681,36.44-37.681,36.44
		s0,415.801,0,449.385c0,33.604,34.814,44.688,34.814,44.688H298.691z"/>
	<path id="path34" fill="#036998" d="M414.922,14.998v711.269l-33.721,38.73V53.728L414.922,14.998"/>
	<path id="path36" fill="none" stroke="#FFFFFF" stroke-width="3.9999" d="M414.922,14.998v711.269l-33.721,38.73V53.728
		L414.922,14.998z"/>
	<path id="path38" fill="#036998" d="M303.74,103.958c-5.947,0-10.918,8.794-10.918,19.727c0,10.742,4.971,19.536,10.918,19.536
		c5.898,0,10.859-8.794,10.859-19.536C314.6,112.751,309.639,103.958,303.74,103.958"/>
	<path id="path40" fill="none" stroke="#FFFFFF" stroke-width="3.9999" d="M303.74,103.958c-5.947,0-10.918,8.794-10.918,19.727
		c0,10.742,4.971,19.536,10.918,19.536c5.898,0,10.859-8.794,10.859-19.536C314.6,112.751,309.639,103.958,303.74,103.958z"/>
	<path id="path42" fill="#036998" d="M225.195,103.958c-6.26,0-10.898,8.794-10.898,19.727c0,10.742,4.639,19.536,10.898,19.536
		c5.938,0,10.576-8.794,10.576-19.536C235.771,112.751,231.133,103.958,225.195,103.958"/>
	<path id="path44" fill="none" stroke="#FFFFFF" stroke-width="3.9999" d="M225.195,103.958c-6.26,0-10.898,8.794-10.898,19.727
		c0,10.742,4.639,19.536,10.898,19.536c5.938,0,10.576-8.794,10.576-19.536C235.771,112.751,231.133,103.958,225.195,103.958z"/>
	<path id="path46" fill="#036998" d="M146.348,103.958c-5.928,0-10.723,8.794-10.723,19.727c0,10.742,4.795,19.536,10.723,19.536
		c5.908,0,10.879-8.794,10.879-19.536C157.227,112.751,152.256,103.958,146.348,103.958"/>
	<path id="path48" fill="none" stroke="#FFFFFF" stroke-width="3.9999" d="M146.348,103.958c-5.928,0-10.723,8.794-10.723,19.727
		c0,10.742,4.795,19.536,10.723,19.536c5.908,0,10.879-8.794,10.879-19.536C157.227,112.751,152.256,103.958,146.348,103.958z"/>
	<path id="path50" fill="#036998" d="M67.651,103.958c-5.933,0-10.732,8.794-10.732,19.727c0,10.742,4.8,19.536,10.732,19.536
		c6.099,0,10.903-8.794,10.903-19.536C78.555,112.751,73.75,103.958,67.651,103.958"/>
	<path id="path52" fill="none" stroke="#FFFFFF" stroke-width="3.9999" d="M67.651,103.958c-5.933,0-10.732,8.794-10.732,19.727
		c0,10.742,4.8,19.536,10.732,19.536c6.099,0,10.903-8.794,10.903-19.536C78.555,112.751,73.75,103.958,67.651,103.958z"/>
</g>
</svg>
