<?xml version="1.0" encoding="utf-8"?>
<!-- Generator: Adobe Illustrator 16.0.0, SVG Export Plug-In . SVG Version: 6.00 Build 0)  -->
<!DOCTYPE svg PUBLIC "-//W3C//DTD SVG 1.1//EN" "http://www.w3.org/Graphics/SVG/1.1/DTD/svg11.dtd">
<svg version="1.1"
	 id="svg2" xmlns:dc="http://purl.org/dc/elements/1.1/" xmlns:cc="http://creativecommons.org/ns#" xmlns:rdf="http://www.w3.org/1999/02/22-rdf-syntax-ns#" xmlns:svg="http://www.w3.org/2000/svg"
	 xmlns="http://www.w3.org/2000/svg" xmlns:xlink="http://www.w3.org/1999/xlink" x="0px" y="0px" width="80px" height="80px"
	 viewBox="0 0 80 80" enable-background="new 0 0 80 80" xml:space="preserve">
<g id="g12" transform="scale(0.1,0.1)">
	<path id="path14" fill="none" stroke="#1286BE" stroke-width="4" d="M646.108,369.253V24.067"/>
	<path id="path16" fill="none" stroke="#1286BE" stroke-width="20" d="M646.108,363.647V126.831"/>
	<path id="path18" d="M635.171,57.144h20.938V15h-20.938V57.144z"/>
	<path id="path20" fill="none" stroke="#1286BE" stroke-width="10" d="M635.171,57.144h20.938V15h-20.938V57.144z"/>
	<path id="path22" fill="none" stroke="#1286BE" stroke-width="4" d="M131.914,369.253V24.067"/>
	<path id="path24" fill="none" stroke="#1286BE" stroke-width="20" d="M131.914,363.647V126.831"/>
	<path id="path26" d="M120.83,57.144h21.255V15H120.83V57.144z"/>
	<path id="path28" fill="none" stroke="#1286BE" stroke-width="10" d="M120.83,57.144h21.255V15H120.83V57.144z"/>
	<path id="path30" fill="#1286BE" d="M789.995,412.983c0,83.34-174.531,150.859-389.99,150.859
		C184.536,563.843,10,496.323,10,412.983v221.152c0,83.359,174.536,150.859,390.005,150.859c215.459,0,389.99-67.5,389.99-150.859
		V412.983"/>
	<path id="path32" fill="none" stroke="#FFFFFF" stroke-width="4" d="M789.995,412.983c0,83.34-174.531,150.859-389.99,150.859
		C184.536,563.843,10,496.323,10,412.983v221.152c0,83.359,174.536,150.859,390.005,150.859c215.459,0,389.99-67.5,389.99-150.859
		V412.983z"/>
	<path id="path34" fill="#1286BE" d="M400.005,563.843c215.459,0,389.99-67.52,389.99-150.859
		c0-83.379-174.531-150.879-389.99-150.879C184.536,262.104,10,329.604,10,412.983C10,496.323,184.536,563.843,400.005,563.843"/>
	<path id="path36" fill="none" stroke="#FFFFFF" stroke-width="4" d="M400.005,563.843c215.459,0,389.99-67.52,389.99-150.859
		c0-83.379-174.531-150.879-389.99-150.879C184.536,262.104,10,329.604,10,412.983C10,496.323,184.536,563.843,400.005,563.843z"/>
	<path id="path38" fill="#FFFFFF" d="M310.913,354.077l32.266,48.095L221.382,430.19l26.621-22.012l-188.164-32.09l47.217-35.224
		l181.465,30.635L310.913,354.077"/>
	<path id="path40" fill="#FFFFFF" d="M482.28,470.542l-22.031-49.434l109.766-21.895l-19.043,16.855l183.262,31.094l-44.023,35.234
		l-181.992-34.043L482.28,470.542"/>
	<path id="path42" fill="#FFFFFF" d="M422.183,327.72l123.164-33.438l1.484,52.393l-30.957-5.781l-60.098,49.599l-57.217-8.33
		l62.178-48.476L422.183,327.72"/>
	<path id="path44" fill="#FFFFFF" d="M369.507,515.854L252.3,537.768l-4.297-54.199l33.604,7.402l64.59-54.707l56.943,9.414
		l-68.721,59.805L369.507,515.854"/>
</g>
</svg>
