<?xml version="1.0" encoding="utf-8"?>
<!-- Generator: Adobe Illustrator 16.0.0, SVG Export Plug-In . SVG Version: 6.00 Build 0)  -->
<!DOCTYPE svg PUBLIC "-//W3C//DTD SVG 1.1//EN" "http://www.w3.org/Graphics/SVG/1.1/DTD/svg11.dtd">
<svg version="1.1"
	 id="svg2" xmlns:dc="http://purl.org/dc/elements/1.1/" xmlns:cc="http://creativecommons.org/ns#" xmlns:rdf="http://www.w3.org/1999/02/22-rdf-syntax-ns#" xmlns:svg="http://www.w3.org/2000/svg"
	 xmlns="http://www.w3.org/2000/svg" xmlns:xlink="http://www.w3.org/1999/xlink" x="0px" y="0px" width="78px" height="64px"
	 viewBox="0 0 78 64" enable-background="new 0 0 78 64" xml:space="preserve">
<g id="g12" transform="scale(0.1,0.1)">
	<path id="path22" fill="#036998" d="M178.54,36.863L10,123.923c411.968,261.391,654.058-16.68,654.058-16.68
		C419.136,254.68,178.54,36.863,178.54,36.863"/>
	<path id="path24" fill="none" stroke="#FFFFFF" stroke-width="3.9999" d="M178.54,36.863L10,123.923
		c411.968,261.391,654.058-16.68,654.058-16.68C419.136,254.68,178.54,36.863,178.54,36.863z"/>
	<path id="path26" fill="#036998" d="M769.995,10.002C742.007,65.613,661.519,110.09,661.519,110.09v519.912l108.477-88.984V10.002"
		/>
	<path id="path28" fill="none" stroke="#FFFFFF" stroke-width="3.9999" d="M769.995,10.002
		C742.007,65.613,661.519,110.09,661.519,110.09v519.912l108.477-88.984V10.002z"/>
	<path id="path30" fill="#036998" d="M661.519,110.09c0,0-239.551,275.224-651.519,13.833v506.079h651.519V110.09"/>
	<path id="path32" fill="none" stroke="#FFFFFF" stroke-width="3.9999" d="M661.519,110.09c0,0-239.551,275.224-651.519,13.833
		v506.079h651.519V110.09z"/>
	<path id="path34" fill="none" stroke="#000000" stroke-width="4.5" stroke-linecap="round" stroke-miterlimit="1" d="
		M615.034,425.91c0,0-41.738,107.48-92.129-0.498c-50.332-107.656-92.129-0.137-92.129-0.137s-41.855,107.539-92.061-0.117
		c-50.352-107.822-91.992,0.703-91.992,0.703s-41.807,107.529-92.051-0.449c-50.337-107.656-92.002-0.176-92.002-0.176"/>
	<path id="path36" fill="none" stroke="#000000" stroke-width="8.9999" stroke-linecap="round" stroke-miterlimit="1" d="
		M62.671,425.91c0,0,41.89,107.48,92.129-0.498c50.337-107.656,92.275-0.137,92.275-0.137s41.709,107.539,92.061-0.117
		c50.205-107.822,91.836,0.703,91.836,0.703s41.992,107.529,92.051-0.449c50.371-107.656,92.012-0.176,92.012-0.176"/>
	<path id="path38" fill="none" stroke="#FFFFFF" stroke-width="4.5" stroke-linecap="round" stroke-miterlimit="1" d="
		M605.366,425.91c0,0-41.738,107.48-92.109-0.498c-50.371-107.656-92.148-0.137-92.148-0.137s-41.865,107.539-92.07-0.117
		c-50.352-107.822-91.992,0.693-91.992,0.693S195.244,533.391,145,425.412c-50.337-107.656-92.002-0.176-92.002-0.176"/>
	<path id="path40" fill="none" stroke="#FFFFFF" stroke-width="8.9999" stroke-linecap="round" stroke-miterlimit="1" d="
		M52.998,425.91c0,0,41.895,107.48,92.129-0.498c50.337-107.656,92.271-0.137,92.271-0.137s41.719,107.539,92.07-0.117
		c50.195-107.822,91.836,0.693,91.836,0.693s41.953,107.539,92.051-0.439c50.371-107.656,92.012-0.176,92.012-0.176"/>
</g>
</svg>
