<?xml version="1.0" encoding="utf-8"?>
<!-- Generator: Adobe Illustrator 16.0.0, SVG Export Plug-In . SVG Version: 6.00 Build 0)  -->
<!DOCTYPE svg PUBLIC "-//W3C//DTD SVG 1.1//EN" "http://www.w3.org/Graphics/SVG/1.1/DTD/svg11.dtd">
<svg version="1.1"
	 id="svg2" xmlns:dc="http://purl.org/dc/elements/1.1/" xmlns:cc="http://creativecommons.org/ns#" xmlns:rdf="http://www.w3.org/1999/02/22-rdf-syntax-ns#" xmlns:svg="http://www.w3.org/2000/svg"
	 xmlns="http://www.w3.org/2000/svg" xmlns:xlink="http://www.w3.org/1999/xlink" x="0px" y="0px" width="68px" height="80px"
	 viewBox="0 0 68 80" enable-background="new 0 0 68 80" xml:space="preserve">
<g id="g12" transform="scale(0.1,0.1)">
	<path id="path14" fill="#087BBB" d="M0,316.792l137.109-101.27l542.896-41.616L538.599,316.792H0"/>
	<path id="path16" fill="none" stroke="#FFFFFF" stroke-width="4" d="M0,316.792l137.109-101.27l542.896-41.616L538.599,316.792H0z"
		/>
	<path id="path18" fill="#087BBB" d="M538.599,799.887l141.406-142.656V174.238L538.599,316.792V799.887"/>
	<path id="path20" fill="none" stroke="#FFFFFF" stroke-width="4" d="M538.599,799.887l141.406-142.656V174.238L538.599,316.792
		V799.887z"/>
	<path id="path22" fill="#087BBB" d="M0.767,800.005h537.832V316.792H0.767V800.005z"/>
	<path id="path24" fill="none" stroke="#FFFFFF" stroke-width="4" d="M0.767,800.005h537.832V316.792H0.767V800.005z"/>
	<path id="path26" fill="#087BBB" d="M0,142.886L178.779,0h501.226L538.599,142.886H0"/>
	<path id="path28" fill="none" stroke="#FFFFFF" stroke-width="4" d="M0,142.886L178.779,0h501.226L538.599,142.886H0z"/>
	<path id="path30" fill="#087BBB" d="M538.599,317.153l141.406-142.544V0.327L538.599,142.886V317.153"/>
	<path id="path32" fill="none" stroke="#FFFFFF" stroke-width="4" d="M538.599,317.153l141.406-142.544V0.327L538.599,142.886
		V317.153z"/>
	<path id="path34" fill="#087BBB" d="M0.767,317.261h537.832v-174.38H0.767V317.261z"/>
	<path id="path36" fill="none" stroke="#FFFFFF" stroke-width="4" d="M0.767,317.261h537.832v-174.38H0.767V317.261z"/>
	<path id="path38" fill="none" stroke="#FFFFFF" stroke-width="4.5" stroke-linecap="round" stroke-miterlimit="1" d="
		M495.728,231.362c0,0-34.746,89.678-76.777-0.19c-42.012-89.834-76.934-0.249-76.934-0.249s-34.844,89.717-76.738-0.122
		c-41.895-89.844-76.67,0.508-76.67,0.508s-34.805,89.731-76.724-0.137c-41.899-89.834-76.675-0.298-76.675-0.298"/>
	<path id="path40" fill="none" stroke="#FFFFFF" stroke-width="9" stroke-linecap="round" stroke-miterlimit="1" d="M35.21,231.362
		c0,0,34.868,89.678,76.782-0.19c41.904-89.834,76.924-0.249,76.924-0.249s34.858,89.717,76.743-0.122
		c41.904-89.844,76.67,0.508,76.67,0.508s34.922,89.731,76.738-0.137c41.992-89.834,76.66-0.298,76.66-0.298"/>
	<path id="path42" fill="none" stroke="#231F20" stroke-width="4.5" stroke-linecap="round" stroke-miterlimit="1" d="
		M503.95,231.372c0,0-34.961,89.668-76.992-0.2c-41.797-89.834-76.816-0.249-76.816-0.249s-34.863,89.727-76.748-0.107
		c-41.89-89.858-76.675,0.503-76.675,0.503s-34.8,89.722-76.821-0.146c-41.899-89.834-76.685-0.283-76.685-0.283"/>
	<path id="path44" fill="none" stroke="#231F20" stroke-width="9" stroke-linecap="round" stroke-miterlimit="1" d="M43.213,231.372
		c0,0,34.98,89.668,76.899-0.2c41.895-89.834,76.812-0.249,76.812-0.249s34.966,89.727,76.851-0.107
		c41.895-89.858,76.543,0.503,76.543,0.503s34.941,89.722,76.953-0.146c41.797-89.834,76.68-0.283,76.68-0.283"/>
	<path id="path46" fill="none" stroke="#FFFFFF" stroke-width="4.5" stroke-linecap="round" stroke-miterlimit="1" d="
		M495.728,231.362c0,0-34.746,89.678-76.777-0.19c-42.012-89.834-76.934-0.249-76.934-0.249s-34.844,89.717-76.738-0.122
		c-41.895-89.844-76.67,0.508-76.67,0.508s-34.805,89.731-76.724-0.137c-41.899-89.834-76.675-0.298-76.675-0.298"/>
	<path id="path48" fill="none" stroke="#FFFFFF" stroke-width="9" stroke-linecap="round" stroke-miterlimit="1" d="M35.21,231.362
		c0,0,34.868,89.678,76.782-0.19c41.904-89.834,76.924-0.249,76.924-0.249s34.858,89.717,76.743-0.122
		c41.904-89.844,76.67,0.508,76.67,0.508s34.922,89.731,76.738-0.137c41.992-89.834,76.66-0.298,76.66-0.298"/>
	<path id="path50" fill="none" stroke="#231F20" stroke-width="4.5" stroke-linecap="round" stroke-miterlimit="1" d="
		M503.95,231.372c0,0-34.961,89.668-76.992-0.2c-41.797-89.834-76.816-0.249-76.816-0.249s-34.863,89.727-76.748-0.107
		c-41.89-89.858-76.675,0.503-76.675,0.503s-34.8,89.722-76.821-0.146c-41.899-89.834-76.685-0.283-76.685-0.283"/>
	<path id="path52" fill="none" stroke="#231F20" stroke-width="9" stroke-linecap="round" stroke-miterlimit="1" d="M43.213,231.372
		c0,0,34.98,89.668,76.899-0.2c41.895-89.834,76.812-0.249,76.812-0.249s34.966,89.727,76.851-0.107
		c41.895-89.858,76.543,0.503,76.543,0.503s34.941,89.722,76.953-0.146c41.797-89.834,76.68-0.283,76.68-0.283"/>
	<path id="path54" fill="none" stroke="#FFFFFF" stroke-width="4.5" stroke-linecap="round" stroke-miterlimit="1" d="
		M495.728,231.362c0,0-34.746,89.678-76.777-0.19c-42.012-89.834-76.934-0.249-76.934-0.249s-34.844,89.717-76.738-0.122
		c-41.895-89.844-76.67,0.508-76.67,0.508s-34.805,89.731-76.724-0.137c-41.899-89.834-76.675-0.298-76.675-0.298"/>
	<path id="path56" fill="none" stroke="#FFFFFF" stroke-width="9" stroke-linecap="round" stroke-miterlimit="1" d="M35.21,231.362
		c0,0,34.868,89.678,76.782-0.19c41.904-89.834,76.924-0.249,76.924-0.249s34.858,89.717,76.743-0.122
		c41.904-89.844,76.67,0.508,76.67,0.508s34.922,89.731,76.738-0.137c41.992-89.834,76.66-0.298,76.66-0.298"/>
	<path id="path58" fill="#FFFFFF" d="M284.907,489.087V386.294h17.52l-25.781-38.76l-25.781,38.76h17.5v102.793H284.907"/>
	<path id="path60" fill="#FFFFFF" d="M232.432,503.93l-72.773-72.676l12.397-12.363l-45.723-9.297l9.185,45.781l12.393-12.383
		l72.783,72.695L232.432,503.93"/>
	<path id="path62" fill="#FFFFFF" d="M205.82,551.567H102.9v-17.383l-38.926,25.781l38.926,25.723V568.11h102.92V551.567"/>
	<path id="path64" fill="#FFFFFF" d="M220.693,603.989l-72.783,72.695l-12.393-12.363l-9.185,45.781l45.723-9.297l-12.397-12.383
		l72.773-72.695L220.693,603.989"/>
	<path id="path66" fill="#FFFFFF" d="M268.364,630.591v102.91h-17.5l25.781,38.867l25.781-38.867h-17.52v-102.91H268.364"/>
	<path id="path68" fill="#FFFFFF" d="M320.845,615.727l72.891,72.695l-12.383,12.383l45.605,9.297l-9.316-45.781l-12.148,12.363
		l-72.91-72.695L320.845,615.727"/>
	<path id="path70" fill="#FFFFFF" d="M347.583,568.11h102.793v17.578l38.926-25.723l-38.926-25.781v17.383H347.583V568.11"/>
	<path id="path72" fill="#FFFFFF" d="M332.583,515.688l72.91-72.695l12.148,12.383l9.316-45.781l-45.605,9.297l12.383,12.363
		l-72.891,72.676L332.583,515.688"/>
	<path id="path74" fill="#FFFFFF" d="M339.878,646.899c48.564-33.867,60.342-100.82,26.436-149.316
		c-34.141-48.516-101.064-60.273-149.619-26.406c-48.55,34.082-60.435,100.82-26.426,149.336
		C224.287,669.009,291.313,681.001,339.878,646.899"/>
	<path id="path76" fill="#231F20" d="M200.688,85.918l56.797-4.717l-10.674,16.069l-15.098-2.808l-62.173,23.608l-14.976-3.716
		l60.098-22.813L200.688,85.918L200.688,85.918"/>
	<path id="path78" fill="#231F20" d="M443.091,86.812l-49.336-7.529l5.41,17.988l12.773-1.899l45.137,19.893l14.961-3.823
		L428.11,92.554L443.091,86.812L443.091,86.812"/>
	<path id="path80" fill="#231F20" d="M357.212,35.664l-24.648-1.797l80.352-17.993l34.355,24.624l-25.762-1.904h-5.176
		l-42.93,27.437h-59.004l46.035-30.366H357.212L357.212,35.664"/>
	<path id="path82" fill="#231F20" d="M306.802,101.099h-17.168l45.137-24.624l3.184,24.624h-18.262h2.188l-22.559,21.689h-16.094
		l22.578-21.689H306.802L306.802,101.099"/>
	<path id="path84" fill="#FFFFFF" d="M198.481,84.009l56.914-4.727l-10.781,16.089l-14.98-2.817l-62.192,23.716l-15.078-3.813
		l60.103-22.71L198.481,84.009L198.481,84.009"/>
	<path id="path86" fill="#FFFFFF" d="M440.884,85.015l-49.316-7.632l5.391,17.988l12.773-1.909l45.137,19.897l14.98-3.721
		L425.903,90.64L440.884,85.015L440.884,85.015"/>
	<path id="path88" fill="#FFFFFF" d="M355.024,33.867l-24.551-1.904l80.469-17.993l34.336,24.624l-25.762-1.914h-5.391
		l-42.93,27.427h-58.994l46.006-30.239H355.024L355.024,33.867"/>
	<path id="path90" fill="#FFFFFF" d="M304.712,99.18h-17.168l45.02-24.609l3.203,24.609h-18.164h2.09l-22.471,21.807h-16.064
		l22.461-21.807H304.712L304.712,99.18"/>
</g>
</svg>
