<?xml version="1.0" encoding="utf-8"?>
<!-- Generator: Adobe Illustrator 16.0.0, SVG Export Plug-In . SVG Version: 6.00 Build 0)  -->
<!DOCTYPE svg PUBLIC "-//W3C//DTD SVG 1.1//EN" "http://www.w3.org/Graphics/SVG/1.1/DTD/svg11.dtd">
<svg version="1.1"
	 id="svg2" xmlns:dc="http://purl.org/dc/elements/1.1/" xmlns:cc="http://creativecommons.org/ns#" xmlns:rdf="http://www.w3.org/1999/02/22-rdf-syntax-ns#" xmlns:svg="http://www.w3.org/2000/svg"
	 xmlns="http://www.w3.org/2000/svg" xmlns:xlink="http://www.w3.org/1999/xlink" x="0px" y="0px" width="80px" height="46px"
	 viewBox="0 0 80 46" enable-background="new 0 0 80 46" xml:space="preserve">
<g id="g12" transform="scale(0.1,0.1)">
	<path id="path14" fill="#0881C1" d="M15,203.848L247.72,15H785L592.412,203.848H15"/>
	<path id="path16" fill="none" stroke="#FFFFFF" stroke-width="4" d="M15,203.848L247.72,15H785L592.412,203.848H15z"/>
	<path id="path18" fill="#0881C1" d="M592.412,444.863L785,247.939V15.356L592.412,203.848V444.863"/>
	<path id="path20" fill="none" stroke="#FFFFFF" stroke-width="4" d="M592.412,444.863L785,247.939V15.356L592.412,203.848V444.863z
		"/>
	<path id="path22" fill="#0881C1" d="M15.776,445h576.636V203.848H15.776V445z"/>
	<path id="path24" fill="none" stroke="#FFFFFF" stroke-width="4" d="M15.776,445h576.636V203.848H15.776V445z"/>
	<path id="path26" fill="#FFFFFF" d="M189.971,135.239l71.963-7.065l-10.391,30.068l-21.855-10.547l-78.711,33.906l-19.307-5.303
		l76.538-33.379L189.971,135.239"/>
	<path id="path28" fill="#FFFFFF" d="M497.529,136.406l-62.705-10.815l2.949,33.057l20.908-10.156l56.592,28.687l18.662-5.02
		l-54.805-28.047L497.529,136.406"/>
	<path id="path30" fill="none" stroke="#FFFFFF" stroke-width="4.5" stroke-linecap="round" stroke-miterlimit="1" d="
		M559.941,331.162c0,0-38.359,98.945-84.59-0.234c-46.045-99.189-84.473-0.303-84.473-0.303s-38.33,99.141-84.453-0.176
		c-46.025-99.219-84.277,0.674-84.277,0.674s-38.281,98.984-84.434-0.195c-46.025-99.189-84.292-0.381-84.292-0.381"/>
	<path id="path32" fill="none" stroke="#FFFFFF" stroke-width="9" stroke-linecap="round" stroke-miterlimit="1" d="M53.423,331.162
		c0,0,38.369,98.945,84.512-0.234c46.113-99.189,84.541-0.303,84.541-0.303s38.325,99.141,84.365-0.176
		c46.118-99.219,84.272,0.674,84.272,0.674s38.291,98.984,84.355-0.195c46.211-99.189,84.473-0.381,84.473-0.381"/>
	<path id="path34" fill="none" stroke="#231F20" stroke-width="4.5" stroke-linecap="round" stroke-miterlimit="1" d="
		M568.691,331.181c0,0-38.369,98.926-84.424-0.254c-46.035-99.189-84.561-0.303-84.561-0.303s-38.32,99.15-84.355-0.166
		c-46.123-99.228-84.287,0.664-84.287,0.664s-38.286,98.984-84.434-0.195c-46.025-99.189-84.297-0.342-84.297-0.342"/>
	<path id="path36" fill="none" stroke="#231F20" stroke-width="9" stroke-linecap="round" stroke-miterlimit="1" d="M62.334,331.181
		c0,0,38.369,98.926,84.517-0.254c46.04-99.189,84.453-0.303,84.453-0.303s38.34,99.15,84.458-0.166
		c46.035-99.228,84.268,0.664,84.268,0.664s38.301,98.984,84.365-0.195c46.201-99.189,84.297-0.342,84.297-0.342"/>
	<path id="path38" fill="none" stroke="#FFFFFF" stroke-width="4.5" stroke-linecap="round" stroke-miterlimit="1" d="
		M559.941,331.162c0,0-38.359,98.945-84.59-0.234c-46.045-99.189-84.473-0.303-84.473-0.303s-38.33,99.141-84.453-0.176
		c-46.025-99.219-84.277,0.674-84.277,0.674s-38.281,98.984-84.434-0.195c-46.025-99.189-84.292-0.381-84.292-0.381"/>
	<path id="path40" fill="none" stroke="#FFFFFF" stroke-width="9" stroke-linecap="round" stroke-miterlimit="1" d="M53.423,331.162
		c0,0,38.369,98.945,84.512-0.234c46.113-99.189,84.541-0.303,84.541-0.303s38.325,99.141,84.365-0.176
		c46.118-99.219,84.272,0.674,84.272,0.674s38.291,98.984,84.355-0.195c46.211-99.189,84.473-0.381,84.473-0.381"/>
	<path id="path42" fill="none" stroke="#231F20" stroke-width="4.5" stroke-linecap="round" stroke-miterlimit="1" d="
		M568.691,331.181c0,0-38.369,98.926-84.424-0.254c-46.035-99.189-84.561-0.303-84.561-0.303s-38.32,99.15-84.355-0.166
		c-46.123-99.228-84.287,0.664-84.287,0.664s-38.286,98.984-84.434-0.195c-46.025-99.189-84.297-0.342-84.297-0.342"/>
	<path id="path44" fill="none" stroke="#231F20" stroke-width="9" stroke-linecap="round" stroke-miterlimit="1" d="M62.334,331.181
		c0,0,38.369,98.926,84.517-0.254c46.04-99.189,84.453-0.303,84.453-0.303s38.34,99.15,84.458-0.166
		c46.035-99.228,84.268,0.664,84.268,0.664s38.301,98.984,84.365-0.195c46.201-99.189,84.297-0.342,84.297-0.342"/>
	<path id="path46" fill="none" stroke="#FFFFFF" stroke-width="4.5" stroke-linecap="round" stroke-miterlimit="1" d="
		M559.941,331.162c0,0-38.359,98.945-84.59-0.234c-46.045-99.189-84.473-0.303-84.473-0.303s-38.33,99.141-84.453-0.176
		c-46.025-99.219-84.277,0.674-84.277,0.674s-38.281,98.984-84.434-0.195c-46.025-99.189-84.292-0.381-84.292-0.381"/>
	<path id="path48" fill="none" stroke="#FFFFFF" stroke-width="9" stroke-linecap="round" stroke-miterlimit="1" d="M53.423,331.162
		c0,0,38.369,98.945,84.512-0.234c46.113-99.189,84.541-0.303,84.541-0.303s38.325,99.141,84.365-0.176
		c46.118-99.219,84.272,0.674,84.272,0.674s38.291,98.984,84.355-0.195c46.211-99.189,84.473-0.381,84.473-0.381"/>
	<path id="path50" fill="#FFFFFF" d="M388.418,62.202L357.236,60.2l101.68-26.235l44.59,34.893l-32.9-1.787l-6.533-0.313
		l-54.844,39.219l-74.395,0.43l58.447-43.828L388.418,62.202"/>
	<path id="path52" fill="#FFFFFF" d="M325.059,156.753l-21.611-0.405l56.777-35.439l3.623,35.83l-22.969,0.098l3.555,0.107
		l-28.77,31.553l-21.24-0.098l28.955-31.553L325.059,156.753"/>
</g>
</svg>
