<?xml version="1.0" encoding="utf-8"?>
<!-- Generator: Adobe Illustrator 16.0.0, SVG Export Plug-In . SVG Version: 6.00 Build 0)  -->
<!DOCTYPE svg PUBLIC "-//W3C//DTD SVG 1.1//EN" "http://www.w3.org/Graphics/SVG/1.1/DTD/svg11.dtd">
<svg version="1.1"
	 id="图层_1" xmlns:dc="http://purl.org/dc/elements/1.1/" xmlns:cc="http://creativecommons.org/ns#" xmlns:rdf="http://www.w3.org/1999/02/22-rdf-syntax-ns#"
	 xmlns="http://www.w3.org/2000/svg" xmlns:xlink="http://www.w3.org/1999/xlink" x="0px" y="0px" width="75px" height="61px"
	 viewBox="0 0 75 61" enable-background="new 0 0 75 61" xml:space="preserve">
<path fill="#00BCF2" d="M2.07,60.703c-0.76-0.38-1.201-0.803-1.679-1.613L0,58.425V30.566V2.71l0.442-0.8
	c0.535-0.969,1.311-1.562,2.331-1.779c0.55-0.118,10.354-0.151,35.215-0.119l34.454,0.045l0.61,0.327
	c0.337,0.181,0.817,0.577,1.066,0.88c0.967,1.173,0.905-0.906,0.862,29.53l-0.037,27.631l-0.326,0.612
	c-0.414,0.772-1.346,1.575-2.083,1.797c-0.427,0.129-9.337,0.17-35.228,0.166C3.145,60.988,2.643,60.988,2.07,60.703L2.07,60.703z
	 M42.44,49.28c2.688-0.642,2.981-0.741,2.979-1.016c0-0.167-0.101-1.199-0.218-2.294c-0.305-2.816-0.305-2.835,0.229-3.15
	c0.248-0.146,0.844-0.593,1.324-0.993l0.874-0.729l2.38,0.971c1.938,0.792,2.412,0.937,2.555,0.778
	c0.472-0.517,3.317-5.332,3.197-5.41c-0.074-0.049-1.044-0.817-2.152-1.711c-2.016-1.621-2.017-1.621-1.922-2.137
	c0.053-0.284,0.144-0.997,0.199-1.583c0.057-0.589,0.165-1.13,0.242-1.201c0.078-0.073,1.135-0.543,2.352-1.046
	c1.213-0.502,2.262-0.963,2.326-1.026c0.108-0.104-1.16-5.868-1.359-6.173c-0.047-0.071-1.084-0.014-2.367,0.137
	c-3.268,0.38-3.125,0.394-3.609-0.347c-0.225-0.344-0.66-0.931-0.969-1.302l-0.561-0.677l1.023-2.479
	c0.564-1.364,1.01-2.492,0.988-2.508c-0.299-0.211-5.405-3.316-5.454-3.316c-0.038,0-0.849,0.966-1.804,2.145
	c-1.174,1.453-1.801,2.118-1.945,2.063c-0.289-0.11-2.018-0.36-2.83-0.409l-0.659-0.04l-1.049-2.324
	c-0.578-1.277-1.087-2.36-1.133-2.405c-0.066-0.066-6.153,1.502-6.231,1.605c-0.013,0.017,0.132,1.125,0.321,2.462
	c0.189,1.338,0.346,2.543,0.349,2.678c0,0.136-0.244,0.398-0.547,0.586c-0.303,0.188-0.831,0.597-1.173,0.911l-0.621,0.57
	l-2.381-0.984c-1.956-0.809-2.412-0.948-2.56-0.789c-0.099,0.108-0.881,1.34-1.737,2.737l-1.558,2.541l1.941,1.575
	c1.068,0.864,1.995,1.619,2.061,1.675c0.066,0.059,0.017,0.65-0.11,1.318c-0.126,0.668-0.23,1.461-0.23,1.762v0.547l-2.246,0.926
	c-1.234,0.51-2.296,0.974-2.358,1.032c-0.092,0.087,1.252,6.142,1.395,6.282c0.023,0.021,1.137-0.084,2.473-0.236
	c1.336-0.154,2.507-0.282,2.601-0.283c0.094,0,0.385,0.348,0.645,0.771c0.26,0.427,0.73,1.055,1.043,1.397
	c0.314,0.343,0.57,0.676,0.57,0.738s-0.398,1.069-0.883,2.236c-0.486,1.169-0.884,2.208-0.884,2.31c0,0.103,1.208,0.93,2.684,1.839
	l2.682,1.653l0.559-0.647c0.308-0.354,1.039-1.262,1.625-2.014l1.065-1.368l0.81,0.096c0.445,0.054,1.262,0.14,1.815,0.189
	l1.004,0.093l0.981,2.397c0.541,1.317,1.051,2.372,1.133,2.341c0.08-0.029,1.486-0.374,3.127-0.767v0.002H42.44z M35.224,39.402
	c-3.988-0.968-6.887-4.628-6.933-8.762c-0.02-1.703,0.196-2.652,0.956-4.22c1.04-2.141,2.875-3.773,5.161-4.589
	c1.405-0.5,3.724-0.624,5.134-0.27c2.568,0.644,4.874,2.485,6.009,4.805c0.666,1.362,1.044,2.856,1.044,4.128
	s-0.378,2.765-1.044,4.127c-1.135,2.316-3.388,4.121-5.967,4.78C38.481,39.684,36.385,39.684,35.224,39.402L35.224,39.402z
	 M39.004,33.403c2.269-1.3,2.228-4.615-0.071-5.763c-2.483-1.239-5.229,0.741-4.772,3.446c0.145,0.854,0.909,1.905,1.679,2.311
	c0.896,0.47,2.352,0.472,3.165,0.01V33.403z"/>
</svg>
