<?xml version="1.0" encoding="utf-8"?>
<!-- Generator: Adobe Illustrator 16.0.0, SVG Export Plug-In . SVG Version: 6.00 Build 0)  -->
<!DOCTYPE svg PUBLIC "-//W3C//DTD SVG 1.1//EN" "http://www.w3.org/Graphics/SVG/1.1/DTD/svg11.dtd">
<svg version="1.1"
	 id="图层_1" xmlns:dc="http://purl.org/dc/elements/1.1/" xmlns:cc="http://creativecommons.org/ns#" xmlns:rdf="http://www.w3.org/1999/02/22-rdf-syntax-ns#"
	 xmlns="http://www.w3.org/2000/svg" xmlns:xlink="http://www.w3.org/1999/xlink" x="0px" y="0px" width="77px" height="64px"
	 viewBox="0 0 77 64" enable-background="new 0 0 77 64" xml:space="preserve">
<path fill="#00BCF2" d="M9.701,63.683c-1.12-0.556-2.144-2.033-2.152-3.11c-0.003-0.458-0.038-0.485-0.722-0.585
	c-0.395-0.057-0.963-0.23-1.267-0.382c-1.138-0.572-2.093-2.155-2.093-3.472c0-0.566-0.001-0.567-0.838-0.742
	c-1.039-0.215-1.792-0.837-2.279-1.883L0,52.752l0.005-24.978C0.009,7.299,0.046,2.693,0.212,2.229
	c0.31-0.866,0.906-1.548,1.665-1.906L2.564,0L34.41,0.039l31.846,0.039l0.655,0.454c0.721,0.501,1.486,1.794,1.486,2.517
	c0,0.4,0.037,0.426,0.64,0.427c1.94,0.002,3.48,1.282,3.885,3.228l0.168,0.811l0.745,0.07c1.245,0.119,2.478,1.16,2.951,2.495
	c0.165,0.463,0.205,5.087,0.21,25.63c0.008,27.771,0.079,25.812-0.979,27.045c-0.283,0.332-0.822,0.749-1.198,0.926L74.138,64H42.24
	h-31.9L9.701,63.683L9.701,63.683z M74.83,62.301c0.307-0.267,0.648-0.708,0.762-0.979c0.304-0.729,0.301-50.374-0.002-51.103
	c-0.236-0.566-1.199-1.462-1.575-1.465c-0.142-0.001-0.409-0.043-0.597-0.092l-0.336-0.09l-0.041,24.212l-0.039,24.217l-0.455,0.89
	c-0.554,1.082-1.428,1.789-2.49,2.017c-0.54,0.117-9.75,0.166-31.122,0.166H8.579l0.103,0.49c0.153,0.734,0.784,1.737,1.247,1.991
	c0.358,0.193,4.505,0.225,32.379,0.229l31.968,0.006L74.83,62.301L74.83,62.301z M70.35,58.646c0.59-0.308,1.176-1.04,1.363-1.708
	c0.215-0.781,0.215-49.547,0-50.327c-0.188-0.667-0.773-1.402-1.363-1.707c-0.236-0.122-0.771-0.222-1.191-0.222h-0.762v24.12
	v24.116l-0.382,0.769c-0.428,0.859-1.236,1.51-2.137,1.717c-0.323,0.075-13.845,0.137-30.907,0.139L4.64,55.544l0.068,0.822
	c0.082,0.988,0.621,1.883,1.351,2.243c0.465,0.23,3.047,0.248,32.184,0.253C65.768,58.865,69.979,58.836,70.35,58.646L70.35,58.646z
	 M38.848,43.492c1.396-0.325,2.576-0.63,2.625-0.678c0.047-0.047-0.026-1.124-0.162-2.393c-0.135-1.271-0.244-2.351-0.244-2.402
	s0.277-0.276,0.611-0.498c0.338-0.22,0.882-0.647,1.211-0.943l0.6-0.54l1.772,0.723c0.975,0.398,1.985,0.813,2.247,0.921
	l0.471,0.194l1.49-2.446c0.82-1.347,1.49-2.494,1.49-2.546c0-0.057-0.85-0.794-1.887-1.642c-1.16-0.946-1.877-1.637-1.859-1.786
	c0.189-1.607,0.352-2.788,0.383-2.809c0.021-0.016,1.008-0.426,2.191-0.914c1.193-0.491,2.153-0.972,2.153-1.079
	c0-0.276-1.207-5.382-1.292-5.466c-0.064-0.065-2.971,0.186-4.375,0.376c-0.586,0.081-0.624,0.061-1.117-0.645
	c-0.281-0.401-0.706-0.938-0.941-1.19l-0.434-0.463l0.908-2.179c0.5-1.198,0.906-2.247,0.901-2.331
	c-0.005-0.121-4.372-2.894-4.829-3.065c-0.068-0.025-0.826,0.813-1.68,1.865l-1.557,1.91l-0.681-0.107
	c-0.376-0.061-1.15-0.151-1.719-0.205l-1.034-0.097l-0.958-2.11c-0.527-1.16-1.024-2.132-1.105-2.159
	c-0.122-0.041-5.426,1.301-5.576,1.41c-0.024,0.019,0.094,1.026,0.264,2.238c0.172,1.214,0.311,2.295,0.311,2.408
	c0,0.166-1.36,1.355-2.052,1.796c-0.094,0.061-1.071-0.264-2.171-0.717c-1.099-0.454-2.088-0.826-2.196-0.826
	s-0.79,0.966-1.513,2.146c-0.725,1.181-1.405,2.285-1.514,2.454c-0.182,0.283-0.064,0.411,1.691,1.815
	c1.8,1.438,1.885,1.529,1.796,1.961c-0.051,0.25-0.158,0.959-0.238,1.578c-0.079,0.62-0.195,1.169-0.258,1.223
	c-0.063,0.053-0.997,0.454-2.076,0.891c-1.081,0.438-1.988,0.818-2.017,0.845c-0.046,0.041,0.798,3.739,1.189,5.202l0.143,0.535
	l2.304-0.255c2.604-0.287,2.277-0.38,3.245,0.939c0.267,0.364,0.638,0.852,0.823,1.081l0.336,0.412l-0.78,1.926
	c-0.428,1.057-0.799,2.017-0.823,2.129c-0.025,0.123,0.922,0.802,2.374,1.698c1.328,0.82,2.451,1.491,2.493,1.491
	s0.722-0.815,1.51-1.813l1.432-1.816l0.906,0.104c0.5,0.055,1.244,0.143,1.659,0.19l0.753,0.088l0.894,2.155
	c0.698,1.677,0.948,2.138,1.134,2.081C36.202,44.117,37.453,43.818,38.848,43.492L38.848,43.492z M32.099,34.488
	c-3.642-1.001-6.19-4.323-6.19-8.072c0-3.747,2.589-7.127,6.187-8.074c1.176-0.309,3.236-0.305,4.291,0.008
	c3.646,1.083,6.196,4.404,6.187,8.06c-0.009,3.706-2.524,6.994-6.178,8.066c-0.999,0.294-3.249,0.3-4.297,0.011L32.099,34.488
	L32.099,34.488z M35.682,29.062c1.721-0.822,2.031-3.482,0.561-4.81c-1.952-1.762-4.991-0.412-4.991,2.217
	C31.251,28.708,33.575,30.067,35.682,29.062z"/>
</svg>
