<?xml version="1.0" encoding="utf-8"?>
<!-- Generator: Adobe Illustrator 16.0.0, SVG Export Plug-In . SVG Version: 6.00 Build 0)  -->
<!DOCTYPE svg PUBLIC "-//W3C//DTD SVG 1.1//EN" "http://www.w3.org/Graphics/SVG/1.1/DTD/svg11.dtd">
<svg version="1.1"
	 id="svg2" xmlns:dc="http://purl.org/dc/elements/1.1/" xmlns:cc="http://creativecommons.org/ns#" xmlns:rdf="http://www.w3.org/1999/02/22-rdf-syntax-ns#" xmlns:svg="http://www.w3.org/2000/svg"
	 xmlns="http://www.w3.org/2000/svg" xmlns:xlink="http://www.w3.org/1999/xlink" x="0px" y="0px" width="77px" height="64px"
	 viewBox="0 0 77 64" enable-background="new 0 0 77 64" xml:space="preserve">
<g id="g10" transform="matrix(1.25,0,0,-1.25,0,37.9)">
	<g id="g12" transform="scale(0.1,0.1)">
		<path id="path22" fill="none" stroke="#000000" stroke-width="3.9999" stroke-linecap="round" stroke-linejoin="round" d="
			M562.363-135.774c6.906,8.469-31.719,20.219,11.773,27.172c27.961,4.68,112.172,54.156-85.477,56.914"/>
		<path id="path24" fill="#036998" d="M110.398-121.306h319.23v48.242h-319.23V-121.306z"/>
		<path id="path26" fill="none" stroke="#FFFFFF" stroke-width="3.9999" d="M110.398-121.306h319.23v48.242h-319.23V-121.306z"/>
		<path id="path28" fill="#036998" d="M429.457-121.399v48.336L493.84-7.22v-49.734L429.457-121.399"/>
		<path id="path30" fill="none" stroke="#FFFFFF" stroke-width="3.9999" d="M429.457-121.399v48.336L493.84-7.22v-49.734
			L429.457-121.399z"/>
		<path id="path32" fill="#036998" d="M110.398-129.899h319.23v56.836h-319.23V-129.899z"/>
		<path id="path34" fill="none" stroke="#FFFFFF" stroke-width="3.9999" d="M110.398-129.899h319.23v56.836h-319.23V-129.899z"/>
		<path id="path36" fill="#036998" d="M429.457-130.009v56.945L493.84-7.22v-58.328L429.457-130.009"/>
		<path id="path38" fill="none" stroke="#FFFFFF" stroke-width="3.9999" d="M429.457-130.009v56.945L493.84-7.22v-58.328
			L429.457-130.009z"/>
		<path id="path40" fill="#036998" d="M516.16,1.413l-45.125-65.641H73.68l63.992,65.641H516.16"/>
		<path id="path42" fill="none" stroke="#FFFFFF" stroke-width="3.9999" d="M516.16,1.413l-45.125-65.641H73.68l63.992,65.641
			H516.16z"/>
		<path id="path44" fill="#036998" d="M72.738-86.431h380.211v22.203H72.738V-86.431z"/>
		<path id="path46" fill="none" stroke="#FFFFFF" stroke-width="3.9999" d="M72.738-86.431h380.211v22.203H72.738V-86.431z"/>
		<path id="path48" fill="#036998" d="M452.504-86.524v22.297l64.43,65.641v-23.492L452.504-86.524"/>
		<path id="path50" fill="none" stroke="#FFFFFF" stroke-width="3.9999" d="M452.504-86.524v22.297l64.43,65.641v-23.492
			L452.504-86.524z"/>
		<path id="path52" fill="#036998" d="M516.16,1.413l-45.125-65.641H73.68l63.992,65.641H516.16"/>
		<path id="path54" fill="none" stroke="#FFFFFF" stroke-width="3.9999" d="M516.16,1.413l-45.125-65.641H73.68l63.992,65.641
			H516.16z"/>
		<path id="path56" fill="#036998" d="M72.738-86.431h380.211v22.203H72.738V-86.431z"/>
		<path id="path58" fill="none" stroke="#FFFFFF" stroke-width="3.9999" d="M72.738-86.431h380.211v22.203H72.738V-86.431z"/>
		<path id="path60" fill="#036998" d="M452.504-86.524v22.297l64.43,65.641v-23.492L452.504-86.524"/>
		<path id="path62" fill="none" stroke="#FFFFFF" stroke-width="3.9999" d="M452.504-86.524v22.297l64.43,65.641v-23.492
			L452.504-86.524z"/>
		<path id="path64" fill="#036998" d="M518.152,303.202h-343.25L74.414,279.55h397.754L518.152,303.202"/>
		<path id="path66" fill="none" stroke="#FFFFFF" stroke-width="3.9999" d="M518.152,303.202h-343.25L74.414,279.55h397.754
			L518.152,303.202z"/>
		<path id="path68" fill="#036998" d="M454.879-36.438l-17.523,14.5H114.801l16.965-14.5H454.879"/>
		<path id="path70" fill="none" stroke="#FFFFFF" stroke-width="3.9999" d="M454.879-36.438l-17.523,14.5H114.801l16.965-14.5
			H454.879z"/>
		<path id="path72" fill="#036998" d="M456.824-33.954l-22.039,14.953l82.07,43.461l-52.953-52.398L456.824-33.954"/>
		<path id="path74" fill="none" stroke="#FFFFFF" stroke-width="3.9999" d="M456.824-33.954l-22.039,14.953l82.07,43.461
			l-52.953-52.398L456.824-33.954z"/>
		<path id="path76" fill="#036998" d="M472.168,279.55V-17.29l45.984,42.836v277.656L472.168,279.55"/>
		<path id="path78" fill="none" stroke="#FFFFFF" stroke-width="3.9999" d="M472.168,279.55V-17.29l45.984,42.836v277.656
			L472.168,279.55z"/>
		<path id="path80" fill="#036998" d="M74.414-20.696h397.754V279.55H74.414V-20.696z"/>
		<path id="path82" fill="none" stroke="#FFFFFF" stroke-width="3.9999" d="M74.414-20.696h397.754V279.55H74.414V-20.696z"/>
		<path id="path84" fill="#036998" d="M438.621-207.767v23.078l49.852,68.789v-42.164L438.621-207.767"/>
		<path id="path86" fill="none" stroke="#FFFFFF" stroke-width="3.9999" d="M438.621-207.767v23.078l49.852,68.789v-42.164
			L438.621-207.767z"/>
		<path id="path88" fill="#036998" d="M0-207.767h438.621v22.633H0V-207.767z"/>
		<path id="path90" fill="none" stroke="#FFFFFF" stroke-width="3.9999" d="M0-207.767h438.621v22.633H0V-207.767z"/>
		<path id="path92" fill="#036998" d="M563.527-189.548l29.031,58.078H525.98l-29.039-58.078H563.527"/>
		<path id="path94" fill="none" stroke="#FFFFFF" stroke-width="3.9999" d="M563.527-189.548l29.031,58.078H525.98l-29.039-58.078
			H563.527z"/>
		<path id="path96" fill="#036998" d="M496.941-208.259h66.586v18.711h-66.586V-208.259z"/>
		<path id="path98" fill="none" stroke="#FFFFFF" stroke-width="3.9999" d="M496.941-208.259h66.586v18.711h-66.586V-208.259z"/>
		<path id="path100" fill="#036998" d="M562.988-208.798l0.102,19.25l29.023,58.078l-0.125-39.922L562.988-208.798"/>
		<path id="path102" fill="none" stroke="#FFFFFF" stroke-width="3.9999" d="M562.988-208.798l0.102,19.25l29.023,58.078
			l-0.125-39.922L562.988-208.798z"/>
		<path id="path104" fill="#036998" d="M438.621-185.134H1.418l49.73,69.234h437.324L438.621-185.134"/>
		<path id="path106" fill="none" stroke="#FFFFFF" stroke-width="3.9999" d="M438.621-185.134H1.418l49.73,69.234h437.324
			L438.621-185.134z"/>
		<path id="path108" fill="#036998" d="M132.195,248.222h279.293c18.125,0,32.977-14.711,32.977-32.973V38.694
			c0-18.133-14.852-33.023-32.977-33.023H132.195c-18.211,0-32.949,14.891-32.949,33.023v176.555
			C99.246,233.511,113.984,248.222,132.195,248.222"/>
		<path id="path110" fill="none" stroke="#FFFFFF" stroke-width="3.9999" d="M132.195,248.222h279.293
			c18.125,0,32.977-14.711,32.977-32.973V38.694c0-18.133-14.852-33.023-32.977-33.023H132.195
			c-18.211,0-32.949,14.891-32.949,33.023v176.555C99.246,233.511,113.984,248.222,132.195,248.222z"/>
	</g>
</g>
</svg>
