<?xml version="1.0" encoding="utf-8"?>
<!-- Generator: Adobe Illustrator 16.0.0, SVG Export Plug-In . SVG Version: 6.00 Build 0)  -->
<!DOCTYPE svg PUBLIC "-//W3C//DTD SVG 1.1//EN" "http://www.w3.org/Graphics/SVG/1.1/DTD/svg11.dtd">
<svg version="1.1"
	 id="svg2" xmlns:dc="http://purl.org/dc/elements/1.1/" xmlns:cc="http://creativecommons.org/ns#" xmlns:rdf="http://www.w3.org/1999/02/22-rdf-syntax-ns#" xmlns:svg="http://www.w3.org/2000/svg"
	 xmlns="http://www.w3.org/2000/svg" xmlns:xlink="http://www.w3.org/1999/xlink" x="0px" y="0px" width="78px" height="40px"
	 viewBox="0 0 78 40" enable-background="new 0 0 78 40" xml:space="preserve">
<g id="g12" transform="scale(0.1,0.1)">
	<path id="path22" fill="#036998" d="M16.47,379.243h560.957V197.446H16.47V379.243z"/>
	<path id="path24" fill="none" stroke="#FFFFFF" stroke-width="3.9999" d="M16.47,379.243h560.957V197.446H16.47V379.243z"/>
	<path id="path26" fill="#036998" d="M15,198.394L241.597,15h523.408L576.86,198.394H15"/>
	<path id="path28" fill="none" stroke="#FFFFFF" stroke-width="3.9999" d="M15,198.394L241.597,15h523.408L576.86,198.394H15z"/>
	<path id="path30" fill="#036998" d="M577.017,385.005l187.422-202.168l0.098-167.51L577.017,198.11V385.005"/>
	<path id="path32" fill="none" stroke="#FFFFFF" stroke-width="3.9999" d="M577.017,385.005l187.422-202.168l0.098-167.51
		L577.017,198.11V385.005z"/>
	<path id="path34" fill="#FFFFFF" d="M343.813,150.649l-10.908,8.887H193.013l-13.945,13.984l-37.949-16.558l76.309-21.738
		l-13.506,15.425H343.813"/>
	<path id="path36" fill="#FFFFFF" d="M453.735,82.021l-10.918,8.96H302.93l-13.945,13.916l-37.876-16.484l76.24-21.812
		l-13.516,15.42H453.735"/>
	<path id="path38" fill="#FFFFFF" d="M368.472,126.436l10.889-8.955h139.98l13.965-13.921l37.793,16.489l-76.25,21.807l13.594-15.42
		H368.472"/>
	<path id="path40" fill="#FFFFFF" d="M441.157,57.808l10.879-8.887h139.922l13.945-13.916l37.949,16.489l-76.387,21.733
		l13.574-15.42H441.157"/>
</g>
</svg>
