<?xml version="1.0" encoding="utf-8"?>
<!-- Generator: Adobe Illustrator 16.0.0, SVG Export Plug-In . SVG Version: 6.00 Build 0)  -->
<!DOCTYPE svg PUBLIC "-//W3C//DTD SVG 1.1//EN" "http://www.w3.org/Graphics/SVG/1.1/DTD/svg11.dtd">
<svg version="1.1"
	 id="svg2" xmlns:dc="http://purl.org/dc/elements/1.1/" xmlns:cc="http://creativecommons.org/ns#" xmlns:rdf="http://www.w3.org/1999/02/22-rdf-syntax-ns#" xmlns:svg="http://www.w3.org/2000/svg"
	 xmlns="http://www.w3.org/2000/svg" xmlns:xlink="http://www.w3.org/1999/xlink" x="0px" y="0px" width="80px" height="68px"
	 viewBox="0 0 80 68" enable-background="new 0 0 80 68" xml:space="preserve">
<g id="g12" transform="scale(0.1,0.1)">
	<path id="path22" d="M657.92,387.671l-61.221,81.992H87.705l83.374-83.496L657.92,387.671"/>
	<path id="path24" fill="none" stroke="#FFFFFF" stroke-width="3.9999" d="M657.92,387.671l-61.221,81.992H87.705l83.374-83.496
		L657.92,387.671z"/>
	<path id="path26" fill="#036998" d="M86.436,561.831h488.457v-91.25H86.436V561.831z"/>
	<path id="path28" fill="none" stroke="#FFFFFF" stroke-width="3.9999" d="M86.436,561.831h488.457v-91.25H86.436V561.831z"/>
	<path id="path30" fill="#036998" d="M84.849,450.151H571.67V83.052H84.849V450.151z"/>
	<path id="path32" fill="none" stroke="#FFFFFF" stroke-width="3.9999" d="M84.849,450.151H571.67V83.052H84.849V450.151z"/>
	<path id="path34" fill="#036998" d="M571.67,450.151l82.939-82.969V0L571.67,83.052V450.151"/>
	<path id="path36" fill="none" stroke="#FFFFFF" stroke-width="3.9999" d="M571.67,450.151l82.939-82.969V0L571.67,83.052V450.151z"
		/>
	<path id="path38" fill="#036998" d="M755.42,641.772l37.344-74.414h-85.156l-37.354,74.414H755.42"/>
	<path id="path40" fill="none" stroke="#FFFFFF" stroke-width="3.9999" d="M755.42,641.772l37.344-74.414h-85.156l-37.354,74.414
		H755.42z"/>
	<path id="path42" fill="#036998" d="M670.254,665.854h85.166v-24.082h-85.166V665.854z"/>
	<path id="path44" fill="none" stroke="#FFFFFF" stroke-width="3.9999" d="M670.254,665.854h85.166v-24.082h-85.166V665.854z"/>
	<path id="path46" fill="#036998" d="M754.688,666.557l0.137-24.785l37.354-74.414l-0.117,51.055L754.688,666.557"/>
	<path id="path48" fill="none" stroke="#FFFFFF" stroke-width="3.9999" d="M754.688,666.557l0.137-24.785l37.354-74.414
		l-0.117,51.055L754.688,666.557z"/>
	<path id="path50" fill="#036998" d="M574.336,561.968v-91.289l82.617-82.344v90.977L574.336,561.968"/>
	<path id="path52" fill="none" stroke="#FFFFFF" stroke-width="3.9999" d="M574.336,561.968v-91.289l82.617-82.344v90.977
		L574.336,561.968z"/>
	<path id="path54" fill="#036998" d="M165.659,125.396h325.093c21.143,0,38.301,17.183,38.301,38.32v205.381
		c0,21.133-17.158,38.32-38.301,38.32H165.659c-21.147,0-38.315-17.188-38.315-38.32V163.716
		C127.344,142.578,144.512,125.396,165.659,125.396"/>
	<path id="path56" fill="none" stroke="#FFFFFF" stroke-width="3.9999" d="M165.659,125.396h325.093
		c21.143,0,38.301,17.183,38.301,38.32v205.381c0,21.133-17.158,38.32-38.301,38.32H165.659c-21.147,0-38.315-17.188-38.315-38.32
		V163.716C127.344,142.578,144.512,125.396,165.659,125.396z"/>
	<path id="path58" fill="#036998" d="M654.609,0H181.24L84.849,83.052H571.67L654.609,0"/>
	<path id="path60" fill="none" stroke="#FFFFFF" stroke-width="3.9999" d="M654.609,0H181.24L84.849,83.052H571.67L654.609,0z"/>
	<path id="path62" fill="#036998" d="M560.254,679.995v-29.59l63.857-88.262v54.004L560.254,679.995"/>
	<path id="path64" fill="none" stroke="#FFFFFF" stroke-width="3.9999" d="M560.254,679.995v-29.59l63.857-88.262v54.004
		L560.254,679.995z"/>
	<path id="path66" fill="#036998" d="M560.254,650.971H0.347l63.716-88.828h560.049L560.254,650.971"/>
	<path id="path68" fill="none" stroke="#FFFFFF" stroke-width="3.9999" d="M560.254,650.971H0.347l63.716-88.828h560.049
		L560.254,650.971z"/>
	<path id="path70" fill="#036998" d="M0,679.995h560.254v-29.023H0V679.995z"/>
	<path id="path72" fill="none" stroke="#FFFFFF" stroke-width="3.9999" d="M0,679.995h560.254v-29.023H0V679.995z"/>
	<path id="path74" fill="none" stroke="#036998" stroke-width="5" d="M771.24,569.878c66.758-31.973,13.301-167.52-119.063-99.512"
		/>
	<path id="path76" fill="none" stroke="#FFFFFF" stroke-width="5" d="M327.002,322.124c69.014,0,124.707-25.4,124.707-56.709
		s-55.693-56.714-124.707-56.714c-68.848,0-124.712,25.405-124.712,56.714S258.154,322.124,327.002,322.124z"/>
	<path id="path78" fill="none" stroke="#FFFFFF" stroke-width="5" d="M328.047,342.436c88.389,0,160.176-34.844,160.176-77.861
		s-71.787-77.9-160.176-77.9c-88.55,0-160.225,34.883-160.225,77.9S239.497,342.436,328.047,342.436z"/>
</g>
</svg>
