<?xml version="1.0" encoding="utf-8"?>
<!-- Generator: Adobe Illustrator 16.0.0, SVG Export Plug-In . SVG Version: 6.00 Build 0)  -->
<!DOCTYPE svg PUBLIC "-//W3C//DTD SVG 1.1//EN" "http://www.w3.org/Graphics/SVG/1.1/DTD/svg11.dtd">
<svg version="1.1" id="图层_1" xmlns="http://www.w3.org/2000/svg" xmlns:xlink="http://www.w3.org/1999/xlink" x="0px" y="0px"
	 width="512px" height="512px" viewBox="0 0 512 512" enable-background="new 0 0 512 512" xml:space="preserve">
<g>
	<path fill="#06B0E5" d="M509.509,266.515c-6.682,99.138-43.182,148.122-94.354,192.068
		c-42.73,36.693-114.627,48.551-146.624,48.215c-32-0.336-108.106-21.97-147.064-82.739
		c-38.961-60.771-41.301-178.337,47.661-240.286c0,0-52.436,42.612-35.73,124.284c12.475,61,61.795,77.72,95.423,78.717
		c33.628,0.996,116.11,10.929,182.899-82.856c66.786-93.791,42.109-201.879,7.902-244.428
		C457.877,94.732,516.198,167.377,509.509,266.515 M431.258,237.125c-6.941,30.004-55.204,156.077-186.535,149.648
		c0,0,104.661-1.374,111.327-190.573c0.469-13.235,0.374-25.628-0.127-37.304c-74.354-13.02-159.327-9.739-214.576,45.824
		c-43.141,43.382-70.343,110.814-43.939,198.74c16.37,54.524,94.001,103.923,131.191,107.004c0,0-62.989,6.192-131.539-47.854
		C35.953,414.437-1.509,340.303,10.24,257.299C30.56,113.7,193.693,116.328,193.693,116.328s101.095-2.442,162.228,42.495v-0.013
		c-2.793-2.261-76.154-60.433-210.395-45.58C27.95,126.238,3.026,238.157,1.094,250.059C1.249,200.742,39.342-21.156,284.334,3.36
		c45.963,38.98,66.888,112.898,71.451,153.335C351.145,60.883,316.865,16.994,304.463,5.4
		c50.365,10.442,97.275,51.863,115.055,86.65C447.727,154.909,438.239,206.959,431.258,237.125"/>
</g>
</svg>
