<?xml version="1.0" encoding="utf-8"?>
<!-- Generator: Adobe Illustrator 16.0.0, SVG Export Plug-In . SVG Version: 6.00 Build 0)  -->
<!DOCTYPE svg PUBLIC "-//W3C//DTD SVG 1.1//EN" "http://www.w3.org/Graphics/SVG/1.1/DTD/svg11.dtd">
<svg version="1.1"
	 id="svg2" xmlns:dc="http://purl.org/dc/elements/1.1/" xmlns:cc="http://creativecommons.org/ns#" xmlns:rdf="http://www.w3.org/1999/02/22-rdf-syntax-ns#" xmlns:svg="http://www.w3.org/2000/svg"
	 xmlns="http://www.w3.org/2000/svg" xmlns:xlink="http://www.w3.org/1999/xlink" x="0px" y="0px" width="76px" height="78px"
	 viewBox="0 0 76 78" enable-background="new 0 0 76 78" xml:space="preserve">
<g id="g12" transform="scale(0.1,0.1)">
	<path id="path14" fill="#036998" d="M745.002,442.651l-68.271,90.215H112.258l92.441-91.758L745.002,442.651"/>
	<path id="path16" fill="none" stroke="#FFFFFF" stroke-width="3.9999" d="M745.002,442.651l-68.271,90.215H112.258l92.441-91.758
		L745.002,442.651z"/>
	<path id="path18" fill="#036998" d="M110.833,634.585h541.67v-100.41h-541.67V634.585z"/>
	<path id="path20" fill="none" stroke="#FFFFFF" stroke-width="3.9999" d="M110.833,634.585h541.67v-100.41h-541.67V634.585z"/>
	<path id="path22" fill="#036998" d="M109.036,511.518H648.84V106.587H109.036V511.518z"/>
	<path id="path24" fill="none" stroke="#FFFFFF" stroke-width="3.9999" d="M109.036,511.518H648.84V106.587H109.036V511.518z"/>
	<path id="path26" fill="#036998" d="M648.84,511.518l92.432-91.602V15l-92.432,91.587V511.518"/>
	<path id="path28" fill="none" stroke="#FFFFFF" stroke-width="3.9999" d="M648.84,511.518l92.432-91.602V15l-92.432,91.587V511.518
		z"/>
	<path id="path30" fill="#036998" d="M652.258,634.721V534.253l91.426-90.918v100.449L652.258,634.721"/>
	<path id="path32" fill="none" stroke="#FFFFFF" stroke-width="3.9999" d="M652.258,634.721V534.253l91.426-90.918v100.449
		L652.258,634.721z"/>
	<path id="path34" fill="#036998" d="M198.752,153.154h360.771c23.516,0,42.598,18.989,42.598,42.388v226.679
		c0,23.379-19.082,42.363-42.598,42.363H198.752c-23.516,0-42.598-18.984-42.598-42.363V195.542
		C156.155,172.144,175.237,153.154,198.752,153.154"/>
	<path id="path36" fill="none" stroke="#FFFFFF" stroke-width="3.9999" d="M198.752,153.154h360.771
		c23.516,0,42.598,18.989,42.598,42.388v226.679c0,23.379-19.082,42.363-42.598,42.363H198.752
		c-23.516,0-42.598-18.984-42.598-42.363V195.542C156.155,172.144,175.237,153.154,198.752,153.154z"/>
	<path id="path38" fill="#036998" d="M741.272,15H216.047l-107.012,91.587H648.84L741.272,15"/>
	<path id="path40" fill="none" stroke="#FFFFFF" stroke-width="3.9999" d="M741.272,15H216.047l-107.012,91.587H648.84L741.272,15z"
		/>
	<path id="path42" fill="#036998" d="M636.36,764.995v-32.402l70.693-97.363v59.453L636.36,764.995"/>
	<path id="path44" fill="none" stroke="#FFFFFF" stroke-width="3.9999" d="M636.36,764.995v-32.402l70.693-97.363v59.453
		L636.36,764.995z"/>
	<path id="path46" fill="#036998" d="M636.36,732.846H15.374l70.684-97.617h620.996L636.36,732.846"/>
	<path id="path48" fill="none" stroke="#FFFFFF" stroke-width="3.9999" d="M636.36,732.846H15.374l70.684-97.617h620.996
		L636.36,732.846z"/>
	<path id="path50" fill="#036998" d="M15.002,764.995H636.36v-32.148H15.002V764.995z"/>
	<path id="path52" fill="none" stroke="#FFFFFF" stroke-width="3.9999" d="M15.002,764.995H636.36v-32.148H15.002V764.995z"/>
	<path id="path54" fill="#036998" d="M323.303,223.052c-63.047-12.51-96.445,19.678-91.064,47.49l0.4,1.494
		c-49.238,8.369-36.357,66.006-12.783,66.006l2.451-0.059c-5.527,39.863,53.496,63.164,83.574,40.977l1.943-2.217
		c9.473,37.959,136.738,40.908,162.119,12.471l2.598,0.693c55.479,4.424,81.035-33.916,68.682-61.396l2.988-0.801
		c19.053-5.039,21.26-48.633-11.221-54.971l0.664-1.768c14.072-28.281-19.531-55.02-65.498-50.117l-3.447-1.563
		c-33.135-29.932-128.311-25.122-139.365,4.473L323.303,223.052"/>
	<path id="path56" fill="none" stroke="#FFFFFF" stroke-width="3.9999" d="M323.303,223.052
		c-63.047-12.51-96.445,19.678-91.064,47.49l0.4,1.494c-49.238,8.369-36.357,66.006-12.783,66.006l2.451-0.059
		c-5.527,39.863,53.496,63.164,83.574,40.977l1.943-2.217c9.473,37.959,136.738,40.908,162.119,12.471l2.598,0.693
		c55.479,4.424,81.035-33.916,68.682-61.396l2.988-0.801c19.053-5.039,21.26-48.633-11.221-54.971l0.664-1.768
		c14.072-28.281-19.531-55.02-65.498-50.117l-3.447-1.563c-33.135-29.932-128.311-25.122-139.365,4.473L323.303,223.052z"/>
</g>
</svg>
