<?xml version="1.0" encoding="utf-8"?>
<!-- Generator: Adobe Illustrator 16.0.0, SVG Export Plug-In . SVG Version: 6.00 Build 0)  -->
<!DOCTYPE svg PUBLIC "-//W3C//DTD SVG 1.1//EN" "http://www.w3.org/Graphics/SVG/1.1/DTD/svg11.dtd">
<svg version="1.1" id="图层_1" xmlns="http://www.w3.org/2000/svg" xmlns:xlink="http://www.w3.org/1999/xlink" x="0px" y="0px"
	 width="512px" height="512px" viewBox="0 0 512 512" enable-background="new 0 0 512 512" xml:space="preserve">
<g>
	<path fill="#47A6E9" d="M258.827,508.799h-0.008c-59.003,0-116.025-4.052-156.435-11.121
		c-63.337-11.091-78.335-25.959-89.152-88.42c-14.404-83.148-14.183-224.212,0.48-308.031c11.06-63.299,25.937-78.297,88.405-89.152
		c39.64-6.886,93.615-10.687,151.978-10.687c58.88,0,115.781,4.045,156.09,11.098c63.314,11.083,78.306,25.959,89.152,88.42
		c14.427,83.164,14.229,224.258-0.441,308.092c-11.046,63.314-25.93,78.305-88.405,89.167
		C370.914,505.021,317.045,508.799,258.827,508.799 M254.097,16.987c-57.495,0-110.518,3.717-149.312,10.458
		c-55.88,9.704-65.782,19.713-75.7,76.461c-14.419,82.38-14.633,220.997-0.48,302.699c9.674,55.849,19.683,65.767,76.469,75.715
		c39.564,6.916,95.596,10.877,153.745,10.877h0.008c57.365,0,110.273-3.688,149-10.391c55.895-9.72,65.797-19.729,75.715-76.491
		c14.412-82.403,14.61-221.037,0.442-302.746c-9.721-55.872-19.729-65.782-76.478-75.715
		C368.035,20.948,312.109,16.987,254.097,16.987"/>
	<path fill="#47A6E9" d="M379.061,279.374c-0.028,0.913-0.58,18.244-6.131,28.671c-27.91,52.432-94.011,84.294-115.197,93.728
		c-0.045,0.021-0.522,0.265-1.038,0.483v0.341c-0.007,0.001-0.013,0.005-0.018,0.005c-0.146-0.002-0.356-0.053-0.583-0.117
		c-0.194,0.062-0.378,0.112-0.508,0.115v-0.289c-0.634-0.231-1.267-0.518-1.321-0.543c-21.192-9.432-87.29-41.295-115.199-93.727
		c-5.55-10.427-5.55-27.76-5.55-28.672l-7.576-137.284l129.646-34.36v-0.136h0.514l0.008-0.002h0.587v0.115l129.967,34.386
		L379.061,279.374z M255.691,344.1c50.5,0,91.438-40.938,91.438-91.438h-20.9c0,38.957-31.58,70.538-70.538,70.538
		c-38.957,0-70.538-31.581-70.538-70.538h-20.9C164.252,303.161,205.191,344.1,255.691,344.1 M164.191,178.218
		c70.819,25.513,75.216,90.895,75.216,90.895l-27.038,2.146l50.399,30.278l30.256-50.314l-22.817,9.708
		C234.856,176.485,164.191,178.218,164.191,178.218 M274.335,215.55l-12.147-10.072l10.14,37.9l35.653-17.869l-18.007-3.091
		c0,0,15.823-49.638,60.517-57.57C350.49,164.848,301.323,166.7,274.335,215.55"/>
</g>
</svg>
