<?xml version="1.0" encoding="utf-8"?>
<!-- Generator: Adobe Illustrator 16.0.0, SVG Export Plug-In . SVG Version: 6.00 Build 0)  -->
<!DOCTYPE svg PUBLIC "-//W3C//DTD SVG 1.1//EN" "http://www.w3.org/Graphics/SVG/1.1/DTD/svg11.dtd">
<svg version="1.1" id="图层_1" xmlns="http://www.w3.org/2000/svg" xmlns:xlink="http://www.w3.org/1999/xlink" x="0px" y="0px"
	 width="512px" height="512px" viewBox="0 0 512 512" enable-background="new 0 0 512 512" xml:space="preserve">
<g>
	<path fill="#3B9CD9" d="M499.037,101.813c-10.847-62.461-25.838-77.337-89.152-88.42c-40.31-7.053-97.21-11.098-156.091-11.098
		c-58.363,0-112.338,3.801-151.978,10.687c-62.468,10.855-77.345,25.853-88.405,89.152c-14.663,83.819-14.884,224.882-0.48,308.031
		c10.817,62.461,25.815,77.329,89.152,88.42c40.409,7.069,97.431,11.121,156.434,11.121h0.009
		c58.218,0,112.087-3.778,151.665-10.634c62.476-10.862,77.359-25.854,88.404-89.167
		C513.266,326.071,513.464,184.977,499.037,101.813 M483.24,407.222c-9.918,56.764-19.82,66.772-75.715,76.492
		c-38.727,6.703-91.636,10.39-149,10.39h-0.009c-58.148,0-114.181-3.961-153.745-10.877c-56.786-9.947-66.795-19.865-76.469-75.715
		c-14.153-81.702-13.939-220.319,0.48-302.699c9.918-56.748,19.82-66.757,75.7-76.461c38.794-6.741,91.817-10.458,149.312-10.458
		c58.012,0,113.938,3.961,153.41,10.868c56.748,9.933,66.757,19.843,76.477,75.715C497.85,186.186,497.652,324.819,483.24,407.222"
		/>
	<path fill="#3B9CD9" d="M284.898,273.789c-8.289,4.839-15.893,21.418-37.293,21.418c-21.418,0-54.558-11.739-54.558-52.482
		c0,0,0.687-27.631,25.554-35.217c24.868-7.602,31.767,7.602,19.341,20.715c-12.426,13.129-10.365,26.928-6.9,30.394
		c3.45,3.45,22.104,13.129,39.37-0.688c17.265-13.814,46.972-48.346,6.213-97.378c0,0-40.743-35.217-84.952,8.976
		c0,0-76.663-15.892-87.028,66.297c0,0-40.743,8.289-40.743,60.771c0,0,2.763,35.92,32.454,49.032c0,0,15.189,7.603,37.98,4.137
		c22.791-3.449,26.241-7.602,47.659,4.138c21.418,11.738,58.711,15.892,80.113-2.764c21.418-18.654,26.24-21.418,44.896-22.791
		c18.655-1.374,33.157-29.69,15.893-47.658C305.613,262.753,293.187,268.966,284.898,273.789"/>
	<path fill="#3B9CD9" d="M359.133,260.677c13.919,0,25.203,11.284,25.203,25.203s-11.284,25.203-25.203,25.203
		s-25.203-11.284-25.203-25.203S345.214,260.677,359.133,260.677"/>
	<path fill="#3B9CD9" d="M399.892,300.733c10.108,0,18.304,8.194,18.304,18.303c0,10.107-8.195,18.303-18.304,18.303
		c-10.107,0-18.303-8.195-18.303-18.303C381.589,308.928,389.784,300.733,399.892,300.733"/>
	<path fill="#3B9CD9" d="M430.621,273.103c9.156,0,16.578,7.423,16.578,16.578c0,9.156-7.422,16.578-16.578,16.578
		s-16.578-7.422-16.578-16.578C414.043,280.525,421.465,273.103,430.621,273.103"/>
</g>
</svg>
